<svg width="1080" height="240" viewBox="0 0 1080 240" fill="none" xmlns="http://www.w3.org/2000/svg">
<rect width="1080" height="240" fill="white"/>
<circle cx="220" cy="97" r="60" fill="#2196F3"/>
<circle cx="540" cy="93" r="60" fill="#E65100"/>
<circle cx="860" cy="93" r="60" fill="#202020"/>
<path d="M184.841 202.38H181.761L181.285 206.356H184.001V208.092H181.061L180.417 213.16H178.681L179.325 208.092H174.593L173.949 213.16H172.213L172.857 208.092H169.945V206.356H173.081L173.557 202.38H170.785V200.644H173.781L174.481 195.156H176.217L175.517 200.644H180.249L180.949 195.156H182.685L181.985 200.644H184.841V202.38ZM179.549 206.356L180.025 202.38H175.293L174.817 206.356H179.549ZM186.782 212.796C186.782 211.975 186.969 211.219 187.342 210.528C187.734 209.819 188.21 209.193 188.77 208.652C189.33 208.092 190.095 207.411 191.066 206.608C191.663 206.123 191.981 205.861 192.018 205.824C193.231 204.797 194.174 203.789 194.846 202.8C195.518 201.811 195.854 200.672 195.854 199.384C195.854 198.488 195.546 197.769 194.93 197.228C194.333 196.668 193.539 196.388 192.55 196.388C191.635 196.388 190.795 196.621 190.03 197.088C189.283 197.536 188.583 198.199 187.93 199.076L186.39 197.76C187.137 196.733 188.051 195.931 189.134 195.352C190.235 194.773 191.374 194.484 192.55 194.484C194.211 194.484 195.537 194.932 196.526 195.828C197.515 196.705 198.01 197.891 198.01 199.384C198.01 200.952 197.562 202.352 196.666 203.584C195.77 204.816 194.538 206.095 192.97 207.42C192.578 207.756 192.391 207.915 192.41 207.896C191.253 208.848 190.394 209.632 189.834 210.248C189.274 210.864 188.994 211.48 188.994 212.096H198.262V214H186.782V212.796ZM206.116 194.904H208.02V214H206.116V198.04L201.58 202.52L200.516 201.456L206.116 194.904ZM218.886 194.484C220.08 194.484 221.163 194.811 222.134 195.464C223.123 196.099 223.888 196.995 224.43 198.152C224.99 199.309 225.27 200.616 225.27 202.072C225.27 204.797 224.803 207.093 223.87 208.96C222.955 210.808 221.695 212.189 220.09 213.104C218.503 214 216.702 214.448 214.686 214.448V212.656C216.963 212.656 218.839 212.059 220.314 210.864C221.788 209.669 222.731 207.971 223.142 205.768C222.75 206.459 222.152 206.991 221.35 207.364C220.547 207.737 219.744 207.924 218.942 207.924C217.747 207.924 216.664 207.635 215.694 207.056C214.723 206.477 213.958 205.684 213.398 204.676C212.838 203.649 212.558 202.492 212.558 201.204C212.558 199.916 212.828 198.768 213.37 197.76C213.93 196.733 214.686 195.931 215.638 195.352C216.608 194.773 217.691 194.484 218.886 194.484ZM218.942 206.188C220.304 206.188 221.378 205.749 222.162 204.872C222.964 203.976 223.366 202.856 223.366 201.512C223.366 200.504 223.17 199.599 222.778 198.796C222.386 197.975 221.854 197.34 221.182 196.892C220.51 196.444 219.763 196.22 218.942 196.22C218.102 196.22 217.336 196.435 216.646 196.864C215.974 197.293 215.442 197.891 215.05 198.656C214.658 199.403 214.462 200.252 214.462 201.204C214.462 202.156 214.658 203.015 215.05 203.78C215.442 204.527 215.974 205.115 216.646 205.544C217.336 205.973 218.102 206.188 218.942 206.188ZM234.749 201.008C235.944 201.008 237.026 201.297 237.997 201.876C238.968 202.455 239.733 203.257 240.293 204.284C240.853 205.292 241.133 206.44 241.133 207.728C241.133 209.016 240.853 210.173 240.293 211.2C239.752 212.208 238.996 213.001 238.025 213.58C237.073 214.159 236 214.448 234.805 214.448C233.61 214.448 232.518 214.131 231.529 213.496C230.558 212.843 229.793 211.937 229.233 210.78C228.692 209.623 228.421 208.316 228.421 206.86C228.421 204.135 228.878 201.848 229.793 200C230.726 198.133 231.986 196.752 233.573 195.856C235.178 194.941 236.989 194.484 239.005 194.484V196.276C236.728 196.276 234.852 196.873 233.377 198.068C231.902 199.263 230.96 200.961 230.549 203.164C230.941 202.473 231.538 201.941 232.341 201.568C233.144 201.195 233.946 201.008 234.749 201.008ZM234.749 212.712C235.589 212.712 236.345 212.497 237.017 212.068C237.708 211.639 238.249 211.051 238.641 210.304C239.033 209.539 239.229 208.68 239.229 207.728C239.229 206.776 239.033 205.927 238.641 205.18C238.249 204.415 237.708 203.817 237.017 203.388C236.345 202.959 235.589 202.744 234.749 202.744C233.386 202.744 232.304 203.192 231.501 204.088C230.717 204.965 230.325 206.076 230.325 207.42C230.325 208.428 230.521 209.343 230.913 210.164C231.305 210.967 231.837 211.592 232.509 212.04C233.181 212.488 233.928 212.712 234.749 212.712ZM245.159 214V194.904H255.575V196.668H247.259V203.332H253.419V205.04H247.259V214H245.159ZM265.604 203.836C266.63 204.153 267.461 204.76 268.096 205.656C268.73 206.552 269.048 207.588 269.048 208.764C269.048 209.847 268.777 210.827 268.236 211.704C267.713 212.563 266.985 213.235 266.052 213.72C265.137 214.205 264.129 214.448 263.028 214.448C261.646 214.448 260.461 214.093 259.472 213.384C258.482 212.675 257.745 211.723 257.26 210.528L258.94 209.548C259.388 210.5 259.957 211.256 260.648 211.816C261.357 212.357 262.178 212.628 263.112 212.628C264.213 212.628 265.128 212.264 265.856 211.536C266.602 210.808 266.976 209.884 266.976 208.764C266.976 207.607 266.602 206.655 265.856 205.908C265.109 205.161 264.157 204.788 263 204.788H261.656V203.052H262.888C263.914 203.052 264.736 202.725 265.352 202.072C265.968 201.4 266.276 200.541 266.276 199.496C266.276 198.544 265.977 197.769 265.38 197.172C264.801 196.556 264.054 196.248 263.14 196.248C262.169 196.248 261.348 196.519 260.676 197.06C260.004 197.583 259.425 198.339 258.94 199.328L257.4 198.488C257.941 197.256 258.706 196.285 259.696 195.576C260.685 194.848 261.833 194.484 263.14 194.484C264.129 194.484 265.016 194.699 265.8 195.128C266.584 195.557 267.19 196.155 267.62 196.92C268.068 197.667 268.292 198.525 268.292 199.496C268.292 200.504 268.049 201.4 267.564 202.184C267.097 202.949 266.444 203.5 265.604 203.836Z" fill="#1A1A1A"/>
<path d="M503.632 202.38H500.552L500.076 206.356H502.792V208.092H499.852L499.208 213.16H497.472L498.116 208.092H493.384L492.74 213.16H491.004L491.648 208.092H488.736V206.356H491.872L492.348 202.38H489.576V200.644H492.572L493.272 195.156H495.008L494.308 200.644H499.04L499.74 195.156H501.476L500.776 200.644H503.632V202.38ZM498.34 206.356L498.816 202.38H494.084L493.608 206.356H498.34ZM506.693 214V194.904H517.389V196.668H508.793V203.332H515.513V205.04H508.793V212.264H517.473V214H506.693ZM526.347 201.008C527.542 201.008 528.624 201.297 529.595 201.876C530.566 202.455 531.331 203.257 531.891 204.284C532.451 205.292 532.731 206.44 532.731 207.728C532.731 209.016 532.451 210.173 531.891 211.2C531.35 212.208 530.594 213.001 529.623 213.58C528.671 214.159 527.598 214.448 526.403 214.448C525.208 214.448 524.116 214.131 523.127 213.496C522.156 212.843 521.391 211.937 520.831 210.78C520.29 209.623 520.019 208.316 520.019 206.86C520.019 204.135 520.476 201.848 521.391 200C522.324 198.133 523.584 196.752 525.171 195.856C526.776 194.941 528.587 194.484 530.603 194.484V196.276C528.326 196.276 526.45 196.873 524.975 198.068C523.5 199.263 522.558 200.961 522.147 203.164C522.539 202.473 523.136 201.941 523.939 201.568C524.742 201.195 525.544 201.008 526.347 201.008ZM526.347 212.712C527.187 212.712 527.943 212.497 528.615 212.068C529.306 211.639 529.847 211.051 530.239 210.304C530.631 209.539 530.827 208.68 530.827 207.728C530.827 206.776 530.631 205.927 530.239 205.18C529.847 204.415 529.306 203.817 528.615 203.388C527.943 202.959 527.187 202.744 526.347 202.744C524.984 202.744 523.902 203.192 523.099 204.088C522.315 204.965 521.923 206.076 521.923 207.42C521.923 208.428 522.119 209.343 522.511 210.164C522.903 210.967 523.435 211.592 524.107 212.04C524.779 212.488 525.526 212.712 526.347 212.712ZM542.581 201.624C544.429 201.624 545.866 202.184 546.893 203.304C547.938 204.424 548.461 205.983 548.461 207.98C548.461 210.015 547.91 211.601 546.809 212.74C545.726 213.879 544.205 214.448 542.245 214.448C540.976 214.448 539.8 214.233 538.717 213.804C537.634 213.356 536.766 212.731 536.113 211.928L537.597 210.892C538.064 211.471 538.708 211.919 539.529 212.236C540.369 212.553 541.293 212.712 542.301 212.712C543.645 212.712 544.69 212.301 545.437 211.48C546.202 210.64 546.585 209.473 546.585 207.98C546.566 206.524 546.193 205.395 545.465 204.592C544.737 203.771 543.72 203.36 542.413 203.36C541.592 203.36 540.724 203.5 539.809 203.78C538.894 204.041 538.036 204.415 537.233 204.9V194.904H547.481V196.864H539.137V202.24C540.313 201.829 541.461 201.624 542.581 201.624ZM556.119 194.904H558.023V214H556.119V198.04L551.583 202.52L550.519 201.456L556.119 194.904ZM568.889 214.448C567.638 214.448 566.49 214.019 565.445 213.16C564.4 212.301 563.578 211.116 562.981 209.604C562.384 208.073 562.085 206.356 562.085 204.452C562.085 202.548 562.384 200.84 562.981 199.328C563.578 197.797 564.39 196.612 565.417 195.772C566.462 194.913 567.61 194.484 568.861 194.484C570.112 194.484 571.25 194.913 572.277 195.772C573.322 196.612 574.144 197.797 574.741 199.328C575.338 200.84 575.637 202.548 575.637 204.452C575.637 206.356 575.338 208.073 574.741 209.604C574.144 211.116 573.332 212.301 572.305 213.16C571.278 214.019 570.14 214.448 568.889 214.448ZM568.861 212.6C569.757 212.6 570.55 212.264 571.241 211.592C571.932 210.901 572.473 209.94 572.865 208.708C573.257 207.457 573.453 206.039 573.453 204.452C573.453 202.865 573.257 201.456 572.865 200.224C572.473 198.992 571.932 198.04 571.241 197.368C570.55 196.677 569.757 196.332 568.861 196.332C567.965 196.332 567.162 196.677 566.453 197.368C565.762 198.04 565.221 198.992 564.829 200.224C564.437 201.456 564.241 202.865 564.241 204.452C564.241 206.039 564.437 207.457 564.829 208.708C565.221 209.94 565.762 210.901 566.453 211.592C567.162 212.264 567.965 212.6 568.861 212.6ZM584.864 214.448C583.614 214.448 582.466 214.019 581.42 213.16C580.375 212.301 579.554 211.116 578.956 209.604C578.359 208.073 578.06 206.356 578.06 204.452C578.06 202.548 578.359 200.84 578.956 199.328C579.554 197.797 580.366 196.612 581.392 195.772C582.438 194.913 583.586 194.484 584.836 194.484C586.087 194.484 587.226 194.913 588.252 195.772C589.298 196.612 590.119 197.797 590.716 199.328C591.314 200.84 591.612 202.548 591.612 204.452C591.612 206.356 591.314 208.073 590.716 209.604C590.119 211.116 589.307 212.301 588.28 213.16C587.254 214.019 586.115 214.448 584.864 214.448ZM584.836 212.6C585.732 212.6 586.526 212.264 587.216 211.592C587.907 210.901 588.448 209.94 588.84 208.708C589.232 207.457 589.428 206.039 589.428 204.452C589.428 202.865 589.232 201.456 588.84 200.224C588.448 198.992 587.907 198.04 587.216 197.368C586.526 196.677 585.732 196.332 584.836 196.332C583.94 196.332 583.138 196.677 582.428 197.368C581.738 198.04 581.196 198.992 580.804 200.224C580.412 201.456 580.216 202.865 580.216 204.452C580.216 206.039 580.412 207.457 580.804 208.708C581.196 209.94 581.738 210.901 582.428 211.592C583.138 212.264 583.94 212.6 584.836 212.6Z" fill="#1A1A1A"/>
<path d="M822.662 202.38H819.582L819.106 206.356H821.822V208.092H818.882L818.238 213.16H816.502L817.146 208.092H812.414L811.77 213.16H810.034L810.678 208.092H807.766V206.356H810.902L811.378 202.38H808.606V200.644H811.602L812.302 195.156H814.038L813.338 200.644H818.07L818.77 195.156H820.506L819.806 200.644H822.662V202.38ZM817.37 206.356L817.846 202.38H813.114L812.638 206.356H817.37ZM824.602 212.796C824.602 211.975 824.789 211.219 825.162 210.528C825.554 209.819 826.03 209.193 826.59 208.652C827.15 208.092 827.916 207.411 828.886 206.608C829.484 206.123 829.801 205.861 829.838 205.824C831.052 204.797 831.994 203.789 832.666 202.8C833.338 201.811 833.674 200.672 833.674 199.384C833.674 198.488 833.366 197.769 832.75 197.228C832.153 196.668 831.36 196.388 830.37 196.388C829.456 196.388 828.616 196.621 827.85 197.088C827.104 197.536 826.404 198.199 825.75 199.076L824.21 197.76C824.957 196.733 825.872 195.931 826.954 195.352C828.056 194.773 829.194 194.484 830.37 194.484C832.032 194.484 833.357 194.932 834.346 195.828C835.336 196.705 835.83 197.891 835.83 199.384C835.83 200.952 835.382 202.352 834.486 203.584C833.59 204.816 832.358 206.095 830.79 207.42C830.398 207.756 830.212 207.915 830.23 207.896C829.073 208.848 828.214 209.632 827.654 210.248C827.094 210.864 826.814 211.48 826.814 212.096H836.082V214H824.602V212.796ZM845.379 214.448C844.128 214.448 842.98 214.019 841.935 213.16C840.89 212.301 840.068 211.116 839.471 209.604C838.874 208.073 838.575 206.356 838.575 204.452C838.575 202.548 838.874 200.84 839.471 199.328C840.068 197.797 840.88 196.612 841.907 195.772C842.952 194.913 844.1 194.484 845.351 194.484C846.602 194.484 847.74 194.913 848.767 195.772C849.812 196.612 850.634 197.797 851.231 199.328C851.828 200.84 852.127 202.548 852.127 204.452C852.127 206.356 851.828 208.073 851.231 209.604C850.634 211.116 849.822 212.301 848.795 213.16C847.768 214.019 846.63 214.448 845.379 214.448ZM845.351 212.6C846.247 212.6 847.04 212.264 847.731 211.592C848.422 210.901 848.963 209.94 849.355 208.708C849.747 207.457 849.943 206.039 849.943 204.452C849.943 202.865 849.747 201.456 849.355 200.224C848.963 198.992 848.422 198.04 847.731 197.368C847.04 196.677 846.247 196.332 845.351 196.332C844.455 196.332 843.652 196.677 842.943 197.368C842.252 198.04 841.711 198.992 841.319 200.224C840.927 201.456 840.731 202.865 840.731 204.452C840.731 206.039 840.927 207.457 841.319 208.708C841.711 209.94 842.252 210.901 842.943 211.592C843.652 212.264 844.455 212.6 845.351 212.6ZM854.83 212.796C854.83 211.975 855.017 211.219 855.39 210.528C855.782 209.819 856.258 209.193 856.818 208.652C857.378 208.092 858.144 207.411 859.114 206.608C859.712 206.123 860.029 205.861 860.066 205.824C861.28 204.797 862.222 203.789 862.894 202.8C863.566 201.811 863.902 200.672 863.902 199.384C863.902 198.488 863.594 197.769 862.978 197.228C862.381 196.668 861.588 196.388 860.598 196.388C859.684 196.388 858.844 196.621 858.078 197.088C857.332 197.536 856.632 198.199 855.978 199.076L854.438 197.76C855.185 196.733 856.1 195.931 857.182 195.352C858.284 194.773 859.422 194.484 860.598 194.484C862.26 194.484 863.585 194.932 864.574 195.828C865.564 196.705 866.058 197.891 866.058 199.384C866.058 200.952 865.61 202.352 864.714 203.584C863.818 204.816 862.586 206.095 861.018 207.42C860.626 207.756 860.44 207.915 860.458 207.896C859.301 208.848 858.442 209.632 857.882 210.248C857.322 210.864 857.042 211.48 857.042 212.096H866.31V214H854.83V212.796ZM875.607 214.448C874.356 214.448 873.208 214.019 872.163 213.16C871.118 212.301 870.296 211.116 869.699 209.604C869.102 208.073 868.803 206.356 868.803 204.452C868.803 202.548 869.102 200.84 869.699 199.328C870.296 197.797 871.108 196.612 872.135 195.772C873.18 194.913 874.328 194.484 875.579 194.484C876.83 194.484 877.968 194.913 878.995 195.772C880.04 196.612 880.862 197.797 881.459 199.328C882.056 200.84 882.355 202.548 882.355 204.452C882.355 206.356 882.056 208.073 881.459 209.604C880.862 211.116 880.05 212.301 879.023 213.16C877.996 214.019 876.858 214.448 875.607 214.448ZM875.579 212.6C876.475 212.6 877.268 212.264 877.959 211.592C878.65 210.901 879.191 209.94 879.583 208.708C879.975 207.457 880.171 206.039 880.171 204.452C880.171 202.865 879.975 201.456 879.583 200.224C879.191 198.992 878.65 198.04 877.959 197.368C877.268 196.677 876.475 196.332 875.579 196.332C874.683 196.332 873.88 196.677 873.171 197.368C872.48 198.04 871.939 198.992 871.547 200.224C871.155 201.456 870.959 202.865 870.959 204.452C870.959 206.039 871.155 207.457 871.547 208.708C871.939 209.94 872.48 210.901 873.171 211.592C873.88 212.264 874.683 212.6 875.579 212.6ZM885.058 212.796C885.058 211.975 885.245 211.219 885.618 210.528C886.01 209.819 886.486 209.193 887.046 208.652C887.606 208.092 888.372 207.411 889.342 206.608C889.94 206.123 890.257 205.861 890.294 205.824C891.508 204.797 892.45 203.789 893.122 202.8C893.794 201.811 894.13 200.672 894.13 199.384C894.13 198.488 893.822 197.769 893.206 197.228C892.609 196.668 891.816 196.388 890.826 196.388C889.912 196.388 889.072 196.621 888.306 197.088C887.56 197.536 886.86 198.199 886.206 199.076L884.666 197.76C885.413 196.733 886.328 195.931 887.41 195.352C888.512 194.773 889.65 194.484 890.826 194.484C892.488 194.484 893.813 194.932 894.802 195.828C895.792 196.705 896.286 197.891 896.286 199.384C896.286 200.952 895.838 202.352 894.942 203.584C894.046 204.816 892.814 206.095 891.246 207.42C890.854 207.756 890.668 207.915 890.686 207.896C889.529 208.848 888.67 209.632 888.11 210.248C887.55 210.864 887.27 211.48 887.27 212.096H896.538V214H885.058V212.796ZM905.835 214.448C904.584 214.448 903.436 214.019 902.391 213.16C901.346 212.301 900.524 211.116 899.927 209.604C899.33 208.073 899.031 206.356 899.031 204.452C899.031 202.548 899.33 200.84 899.927 199.328C900.524 197.797 901.336 196.612 902.363 195.772C903.408 194.913 904.556 194.484 905.807 194.484C907.058 194.484 908.196 194.913 909.223 195.772C910.268 196.612 911.09 197.797 911.687 199.328C912.284 200.84 912.583 202.548 912.583 204.452C912.583 206.356 912.284 208.073 911.687 209.604C911.09 211.116 910.278 212.301 909.251 213.16C908.224 214.019 907.086 214.448 905.835 214.448ZM905.807 212.6C906.703 212.6 907.496 212.264 908.187 211.592C908.878 210.901 909.419 209.94 909.811 208.708C910.203 207.457 910.399 206.039 910.399 204.452C910.399 202.865 910.203 201.456 909.811 200.224C909.419 198.992 908.878 198.04 908.187 197.368C907.496 196.677 906.703 196.332 905.807 196.332C904.911 196.332 904.108 196.677 903.399 197.368C902.708 198.04 902.167 198.992 901.775 200.224C901.383 201.456 901.187 202.865 901.187 204.452C901.187 206.039 901.383 207.457 901.775 208.708C902.167 209.94 902.708 210.901 903.399 211.592C904.108 212.264 904.911 212.6 905.807 212.6Z" fill="#1A1A1A"/>
</svg>
