<svg width="1080" height="445" viewBox="0 0 1080 445" fill="none" xmlns="http://www.w3.org/2000/svg">
<rect width="1080" height="445" fill="#202020"/>
<path d="M738.76 314.55H735.46L734.95 318.81H737.86V320.67H734.71L734.02 326.1H732.16L732.85 320.67H727.78L727.09 326.1H725.23L725.92 320.67H722.8V318.81H726.16L726.67 314.55H723.7V312.69H726.91L727.66 306.81H729.52L728.77 312.69H733.84L734.59 306.81H736.45L735.7 312.69H738.76V314.55ZM733.09 318.81L733.6 314.55H728.53L728.02 318.81H733.09ZM742.039 327V306.54H753.499V308.43H744.289V315.57H751.489V317.4H744.289V325.14H753.589V327H742.039ZM763.097 313.08C764.377 313.08 765.537 313.39 766.577 314.01C767.617 314.63 768.437 315.49 769.037 316.59C769.637 317.67 769.937 318.9 769.937 320.28C769.937 321.66 769.637 322.9 769.037 324C768.457 325.08 767.647 325.93 766.607 326.55C765.587 327.17 764.437 327.48 763.157 327.48C761.877 327.48 760.707 327.14 759.647 326.46C758.607 325.76 757.787 324.79 757.187 323.55C756.607 322.31 756.317 320.91 756.317 319.35C756.317 316.43 756.807 313.98 757.787 312C758.787 310 760.137 308.52 761.837 307.56C763.557 306.58 765.497 306.09 767.657 306.09V308.01C765.217 308.01 763.207 308.65 761.627 309.93C760.047 311.21 759.037 313.03 758.597 315.39C759.017 314.65 759.657 314.08 760.517 313.68C761.377 313.28 762.237 313.08 763.097 313.08ZM763.097 325.62C763.997 325.62 764.807 325.39 765.527 324.93C766.267 324.47 766.847 323.84 767.267 323.04C767.687 322.22 767.897 321.3 767.897 320.28C767.897 319.26 767.687 318.35 767.267 317.55C766.847 316.73 766.267 316.09 765.527 315.63C764.807 315.17 763.997 314.94 763.097 314.94C761.637 314.94 760.477 315.42 759.617 316.38C758.777 317.32 758.357 318.51 758.357 319.95C758.357 321.03 758.567 322.01 758.987 322.89C759.407 323.75 759.977 324.42 760.697 324.9C761.417 325.38 762.217 325.62 763.097 325.62ZM780.49 313.74C782.47 313.74 784.01 314.34 785.11 315.54C786.23 316.74 786.79 318.41 786.79 320.55C786.79 322.73 786.2 324.43 785.02 325.65C783.86 326.87 782.23 327.48 780.13 327.48C778.77 327.48 777.51 327.25 776.35 326.79C775.19 326.31 774.26 325.64 773.56 324.78L775.15 323.67C775.65 324.29 776.34 324.77 777.22 325.11C778.12 325.45 779.11 325.62 780.19 325.62C781.63 325.62 782.75 325.18 783.55 324.3C784.37 323.4 784.78 322.15 784.78 320.55C784.76 318.99 784.36 317.78 783.58 316.92C782.8 316.04 781.71 315.6 780.31 315.6C779.43 315.6 778.5 315.75 777.52 316.05C776.54 316.33 775.62 316.73 774.76 317.25V306.54H785.74V308.64H776.8V314.4C778.06 313.96 779.29 313.74 780.49 313.74ZM794.996 306.54H797.036V327H794.996V309.9L790.136 314.7L788.996 313.56L794.996 306.54ZM808.678 327.48C807.338 327.48 806.108 327.02 804.988 326.1C803.868 325.18 802.988 323.91 802.348 322.29C801.708 320.65 801.388 318.81 801.388 316.77C801.388 314.73 801.708 312.9 802.348 311.28C802.988 309.64 803.858 308.37 804.958 307.47C806.078 306.55 807.308 306.09 808.648 306.09C809.988 306.09 811.208 306.55 812.308 307.47C813.428 308.37 814.308 309.64 814.948 311.28C815.588 312.9 815.908 314.73 815.908 316.77C815.908 318.81 815.588 320.65 814.948 322.29C814.308 323.91 813.438 325.18 812.338 326.1C811.238 327.02 810.018 327.48 808.678 327.48ZM808.648 325.5C809.608 325.5 810.458 325.14 811.198 324.42C811.938 323.68 812.518 322.65 812.938 321.33C813.358 319.99 813.568 318.47 813.568 316.77C813.568 315.07 813.358 313.56 812.938 312.24C812.518 310.92 811.938 309.9 811.198 309.18C810.458 308.44 809.608 308.07 808.648 308.07C807.688 308.07 806.828 308.44 806.068 309.18C805.328 309.9 804.748 310.92 804.328 312.24C803.908 313.56 803.698 315.07 803.698 316.77C803.698 318.47 803.908 319.99 804.328 321.33C804.748 322.65 805.328 323.68 806.068 324.42C806.828 325.14 807.688 325.5 808.648 325.5ZM825.794 327.48C824.454 327.48 823.224 327.02 822.104 326.1C820.984 325.18 820.104 323.91 819.464 322.29C818.824 320.65 818.504 318.81 818.504 316.77C818.504 314.73 818.824 312.9 819.464 311.28C820.104 309.64 820.974 308.37 822.074 307.47C823.194 306.55 824.424 306.09 825.764 306.09C827.104 306.09 828.324 306.55 829.424 307.47C830.544 308.37 831.424 309.64 832.064 311.28C832.704 312.9 833.024 314.73 833.024 316.77C833.024 318.81 832.704 320.65 832.064 322.29C831.424 323.91 830.554 325.18 829.454 326.1C828.354 327.02 827.134 327.48 825.794 327.48ZM825.764 325.5C826.724 325.5 827.574 325.14 828.314 324.42C829.054 323.68 829.634 322.65 830.054 321.33C830.474 319.99 830.684 318.47 830.684 316.77C830.684 315.07 830.474 313.56 830.054 312.24C829.634 310.92 829.054 309.9 828.314 309.18C827.574 308.44 826.724 308.07 825.764 308.07C824.804 308.07 823.944 308.44 823.184 309.18C822.444 309.9 821.864 310.92 821.444 312.24C821.024 313.56 820.814 315.07 820.814 316.77C820.814 318.47 821.024 319.99 821.444 321.33C821.864 322.65 822.444 323.68 823.184 324.42C823.944 325.14 824.804 325.5 825.764 325.5ZM723.4 345.54H730.24C732.08 345.54 733.55 346.1 734.65 347.22C735.75 348.34 736.3 349.89 736.3 351.87C736.3 353.83 735.72 355.37 734.56 356.49C733.42 357.61 731.9 358.17 730 358.17H725.65V366H723.4V345.54ZM729.94 356.31C731.28 356.31 732.3 355.94 733 355.2C733.7 354.44 734.05 353.33 734.05 351.87C734.05 350.41 733.7 349.3 733 348.54C732.3 347.78 731.28 347.4 729.94 347.4H725.65V356.31H729.94ZM751.575 351.96V366H749.535V363.66C749.055 364.56 748.415 365.26 747.615 365.76C746.835 366.24 745.925 366.48 744.885 366.48C743.905 366.48 742.995 366.28 742.155 365.88C741.335 365.48 740.675 364.89 740.175 364.11C739.695 363.33 739.455 362.41 739.455 361.35V351.96H741.495V360.45C741.495 363.23 742.735 364.62 745.215 364.62C746.655 364.62 747.735 364.11 748.455 363.09C749.175 362.07 749.535 360.7 749.535 358.98V351.96H751.575ZM762.558 351.48C763.038 351.48 763.498 351.55 763.938 351.69V353.55C763.518 353.35 763.058 353.25 762.558 353.25C761.698 353.25 760.898 353.49 760.158 353.97C759.418 354.45 758.818 355.15 758.358 356.07C757.918 356.97 757.698 358.04 757.698 359.28V366H755.658V351.96H757.698V354.78C758.238 353.74 758.918 352.93 759.738 352.35C760.578 351.77 761.518 351.48 762.558 351.48ZM771.891 351.48C773.151 351.48 774.291 351.79 775.311 352.41C776.331 353.03 777.131 353.88 777.711 354.96C778.291 356.02 778.581 357.21 778.581 358.53C778.581 358.91 778.571 359.2 778.551 359.4H767.001C767.081 360.84 767.551 362.07 768.411 363.09C769.271 364.11 770.441 364.62 771.921 364.62C773.121 364.62 774.111 364.4 774.891 363.96C775.691 363.5 776.331 362.87 776.811 362.07L778.431 363.15C777.771 364.19 776.901 365.01 775.821 365.61C774.741 366.19 773.461 366.48 771.981 366.48C770.621 366.48 769.411 366.16 768.351 365.52C767.291 364.88 766.461 363.99 765.861 362.85C765.261 361.71 764.961 360.42 764.961 358.98C764.961 357.54 765.251 356.25 765.831 355.11C766.431 353.97 767.251 353.08 768.291 352.44C769.351 351.8 770.551 351.48 771.891 351.48ZM776.541 357.72C776.341 356.26 775.851 355.17 775.071 354.45C774.291 353.71 773.231 353.34 771.891 353.34C770.591 353.34 769.521 353.76 768.681 354.6C767.861 355.42 767.341 356.46 767.121 357.72H776.541ZM797.422 366.48C795.722 366.48 794.202 366.03 792.862 365.13C791.542 364.21 790.502 362.94 789.742 361.32C789.002 359.7 788.632 357.86 788.632 355.8C788.632 353.74 789.002 351.9 789.742 350.28C790.502 348.64 791.542 347.37 792.862 346.47C794.202 345.55 795.722 345.09 797.422 345.09C799.122 345.09 800.632 345.55 801.952 346.47C803.292 347.37 804.332 348.64 805.072 350.28C805.832 351.9 806.212 353.75 806.212 355.83C806.212 357.89 805.832 359.73 805.072 361.35C804.332 362.95 803.292 364.21 801.952 365.13C800.632 366.03 799.122 366.48 797.422 366.48ZM797.422 364.41C798.662 364.41 799.772 364.05 800.752 363.33C801.752 362.59 802.532 361.57 803.092 360.27C803.652 358.95 803.932 357.46 803.932 355.8C803.932 354.14 803.652 352.65 803.092 351.33C802.532 350.01 801.752 348.98 800.752 348.24C799.772 347.5 798.662 347.13 797.422 347.13C796.182 347.13 795.062 347.5 794.062 348.24C793.082 348.98 792.312 350.01 791.752 351.33C791.192 352.65 790.912 354.14 790.912 355.8C790.912 357.46 791.192 358.95 791.752 360.27C792.312 361.57 793.082 362.59 794.062 363.33C795.062 364.05 796.182 364.41 797.422 364.41ZM816.961 351.48C817.441 351.48 817.901 351.55 818.341 351.69V353.55C817.921 353.35 817.461 353.25 816.961 353.25C816.101 353.25 815.301 353.49 814.561 353.97C813.821 354.45 813.221 355.15 812.761 356.07C812.321 356.97 812.101 358.04 812.101 359.28V366H810.061V351.96H812.101V354.78C812.641 353.74 813.321 352.93 814.141 352.35C814.981 351.77 815.921 351.48 816.961 351.48ZM833.577 351.96V366H831.537V363.93C830.957 364.73 830.247 365.36 829.407 365.82C828.567 366.26 827.647 366.48 826.647 366.48C825.307 366.48 824.107 366.16 823.047 365.52C821.987 364.88 821.157 363.99 820.557 362.85C819.957 361.71 819.657 360.41 819.657 358.95C819.657 357.51 819.947 356.23 820.527 355.11C821.127 353.97 821.947 353.08 822.987 352.44C824.047 351.8 825.247 351.48 826.587 351.48C827.607 351.48 828.537 351.71 829.377 352.17C830.237 352.61 830.957 353.24 831.537 354.06V351.96H833.577ZM826.587 364.62C827.547 364.62 828.397 364.38 829.137 363.9C829.897 363.42 830.487 362.75 830.907 361.89C831.327 361.03 831.537 360.06 831.537 358.98C831.537 357.9 831.327 356.93 830.907 356.07C830.487 355.21 829.897 354.54 829.137 354.06C828.397 353.58 827.547 353.34 826.587 353.34C825.647 353.34 824.807 353.58 824.067 354.06C823.327 354.54 822.747 355.21 822.327 356.07C821.907 356.91 821.697 357.87 821.697 358.95C821.697 360.05 821.907 361.03 822.327 361.89C822.747 362.75 823.327 363.42 824.067 363.9C824.807 364.38 825.647 364.62 826.587 364.62ZM844.334 351.48C845.314 351.48 846.214 351.68 847.034 352.08C847.874 352.48 848.534 353.07 849.014 353.85C849.514 354.63 849.764 355.55 849.764 356.61V366H847.724V357.51C847.724 354.73 846.484 353.34 844.004 353.34C842.564 353.34 841.484 353.85 840.764 354.87C840.044 355.89 839.684 357.26 839.684 358.98V366H837.644V351.96H839.684V354.3C840.164 353.4 840.794 352.71 841.574 352.23C842.374 351.73 843.294 351.48 844.334 351.48ZM867.107 351.96V365.46C867.107 366.72 866.847 367.84 866.327 368.82C865.807 369.82 865.077 370.6 864.137 371.16C863.197 371.72 862.127 372 860.927 372H855.107V370.14H860.927C862.147 370.14 863.137 369.7 863.897 368.82C864.677 367.94 865.067 366.82 865.067 365.46V363.93C864.487 364.73 863.777 365.36 862.937 365.82C862.097 366.26 861.177 366.48 860.177 366.48C858.837 366.48 857.637 366.16 856.577 365.52C855.517 364.88 854.687 363.99 854.087 362.85C853.487 361.71 853.187 360.41 853.187 358.95C853.187 357.51 853.477 356.23 854.057 355.11C854.657 353.97 855.477 353.08 856.517 352.44C857.577 351.8 858.777 351.48 860.117 351.48C861.137 351.48 862.067 351.71 862.907 352.17C863.767 352.61 864.487 353.24 865.067 354.06V351.96H867.107ZM860.117 364.62C861.077 364.62 861.927 364.38 862.667 363.9C863.427 363.42 864.017 362.75 864.437 361.89C864.857 361.03 865.067 360.06 865.067 358.98C865.067 357.9 864.857 356.93 864.437 356.07C864.017 355.21 863.427 354.54 862.667 354.06C861.927 353.58 861.077 353.34 860.117 353.34C859.177 353.34 858.337 353.58 857.597 354.06C856.857 354.54 856.277 355.21 855.857 356.07C855.437 356.91 855.227 357.87 855.227 358.95C855.227 360.05 855.437 361.03 855.857 361.89C856.277 362.75 856.857 363.42 857.597 363.9C858.337 364.38 859.177 364.62 860.117 364.62ZM877.233 351.48C878.493 351.48 879.633 351.79 880.653 352.41C881.673 353.03 882.473 353.88 883.053 354.96C883.633 356.02 883.923 357.21 883.923 358.53C883.923 358.91 883.913 359.2 883.893 359.4H872.343C872.423 360.84 872.893 362.07 873.753 363.09C874.613 364.11 875.783 364.62 877.263 364.62C878.463 364.62 879.453 364.4 880.233 363.96C881.033 363.5 881.673 362.87 882.153 362.07L883.773 363.15C883.113 364.19 882.243 365.01 881.163 365.61C880.083 366.19 878.803 366.48 877.323 366.48C875.963 366.48 874.753 366.16 873.693 365.52C872.633 364.88 871.803 363.99 871.203 362.85C870.603 361.71 870.303 360.42 870.303 358.98C870.303 357.54 870.593 356.25 871.173 355.11C871.773 353.97 872.593 353.08 873.633 352.44C874.693 351.8 875.893 351.48 877.233 351.48ZM881.883 357.72C881.683 356.26 881.193 355.17 880.413 354.45C879.633 353.71 878.573 353.34 877.233 353.34C875.933 353.34 874.863 353.76 874.023 354.6C873.203 355.42 872.683 356.46 872.463 357.72H881.883Z" fill="white"/>
<path d="M278.972 101.55H275.672L275.162 105.81H278.072V107.67H274.922L274.232 113.1H272.372L273.062 107.67H267.992L267.302 113.1H265.442L266.132 107.67H263.012V105.81H266.372L266.882 101.55H263.912V99.69H267.122L267.872 93.81H269.732L268.982 99.69H274.052L274.802 93.81H276.662L275.912 99.69H278.972V101.55ZM273.302 105.81L273.812 101.55H268.742L268.232 105.81H273.302ZM281.051 112.71C281.051 111.83 281.251 111.02 281.651 110.28C282.071 109.52 282.581 108.85 283.181 108.27C283.781 107.67 284.601 106.94 285.641 106.08C286.281 105.56 286.621 105.28 286.661 105.24C287.961 104.14 288.971 103.06 289.691 102C290.411 100.94 290.771 99.72 290.771 98.34C290.771 97.38 290.441 96.61 289.781 96.03C289.141 95.43 288.291 95.13 287.231 95.13C286.251 95.13 285.351 95.38 284.531 95.88C283.731 96.36 282.981 97.07 282.281 98.01L280.631 96.6C281.431 95.5 282.411 94.64 283.571 94.02C284.751 93.4 285.971 93.09 287.231 93.09C289.011 93.09 290.431 93.57 291.491 94.53C292.551 95.47 293.081 96.74 293.081 98.34C293.081 100.02 292.601 101.52 291.641 102.84C290.681 104.16 289.361 105.53 287.681 106.95C287.261 107.31 287.061 107.48 287.081 107.46C285.841 108.48 284.921 109.32 284.321 109.98C283.721 110.64 283.421 111.3 283.421 111.96H293.351V114H281.051V112.71ZM301.766 93.54H303.806V114H301.766V96.9L296.906 101.7L295.766 100.56L301.766 93.54ZM315.447 93.09C316.727 93.09 317.887 93.44 318.927 94.14C319.987 94.82 320.807 95.78 321.387 97.02C321.987 98.26 322.287 99.66 322.287 101.22C322.287 104.14 321.787 106.6 320.787 108.6C319.807 110.58 318.457 112.06 316.737 113.04C315.037 114 313.107 114.48 310.947 114.48V112.56C313.387 112.56 315.397 111.92 316.977 110.64C318.557 109.36 319.567 107.54 320.007 105.18C319.587 105.92 318.947 106.49 318.087 106.89C317.227 107.29 316.367 107.49 315.507 107.49C314.227 107.49 313.067 107.18 312.027 106.56C310.987 105.94 310.167 105.09 309.567 104.01C308.967 102.91 308.667 101.67 308.667 100.29C308.667 98.91 308.957 97.68 309.537 96.6C310.137 95.5 310.947 94.64 311.967 94.02C313.007 93.4 314.167 93.09 315.447 93.09ZM315.507 105.63C316.967 105.63 318.117 105.16 318.957 104.22C319.817 103.26 320.247 102.06 320.247 100.62C320.247 99.54 320.037 98.57 319.617 97.71C319.197 96.83 318.627 96.15 317.907 95.67C317.187 95.19 316.387 94.95 315.507 94.95C314.607 94.95 313.787 95.18 313.047 95.64C312.327 96.1 311.757 96.74 311.337 97.56C310.917 98.36 310.707 99.27 310.707 100.29C310.707 101.31 310.917 102.23 311.337 103.05C311.757 103.85 312.327 104.48 313.047 104.94C313.787 105.4 314.607 105.63 315.507 105.63ZM332.444 100.08C333.724 100.08 334.884 100.39 335.924 101.01C336.964 101.63 337.784 102.49 338.384 103.59C338.984 104.67 339.284 105.9 339.284 107.28C339.284 108.66 338.984 109.9 338.384 111C337.804 112.08 336.994 112.93 335.954 113.55C334.934 114.17 333.784 114.48 332.504 114.48C331.224 114.48 330.054 114.14 328.994 113.46C327.954 112.76 327.134 111.79 326.534 110.55C325.954 109.31 325.664 107.91 325.664 106.35C325.664 103.43 326.154 100.98 327.134 99C328.134 97 329.484 95.52 331.184 94.56C332.904 93.58 334.844 93.09 337.004 93.09V95.01C334.564 95.01 332.554 95.65 330.974 96.93C329.394 98.21 328.384 100.03 327.944 102.39C328.364 101.65 329.004 101.08 329.864 100.68C330.724 100.28 331.584 100.08 332.444 100.08ZM332.444 112.62C333.344 112.62 334.154 112.39 334.874 111.93C335.614 111.47 336.194 110.84 336.614 110.04C337.034 109.22 337.244 108.3 337.244 107.28C337.244 106.26 337.034 105.35 336.614 104.55C336.194 103.73 335.614 103.09 334.874 102.63C334.154 102.17 333.344 101.94 332.444 101.94C330.984 101.94 329.824 102.42 328.964 103.38C328.124 104.32 327.704 105.51 327.704 106.95C327.704 108.03 327.914 109.01 328.334 109.89C328.754 110.75 329.324 111.42 330.044 111.9C330.764 112.38 331.564 112.62 332.444 112.62ZM343.597 114V93.54H354.757V95.43H345.847V102.57H352.447V104.4H345.847V114H343.597ZM365.503 103.11C366.603 103.45 367.493 104.1 368.173 105.06C368.853 106.02 369.193 107.13 369.193 108.39C369.193 109.55 368.903 110.6 368.323 111.54C367.763 112.46 366.983 113.18 365.983 113.7C365.003 114.22 363.923 114.48 362.743 114.48C361.263 114.48 359.993 114.1 358.933 113.34C357.873 112.58 357.083 111.56 356.563 110.28L358.363 109.23C358.843 110.25 359.453 111.06 360.193 111.66C360.953 112.24 361.833 112.53 362.833 112.53C364.013 112.53 364.993 112.14 365.773 111.36C366.573 110.58 366.973 109.59 366.973 108.39C366.973 107.15 366.573 106.13 365.773 105.33C364.973 104.53 363.953 104.13 362.713 104.13H361.273V102.27H362.593C363.693 102.27 364.573 101.92 365.233 101.22C365.893 100.5 366.223 99.58 366.223 98.46C366.223 97.44 365.903 96.61 365.263 95.97C364.643 95.31 363.843 94.98 362.863 94.98C361.823 94.98 360.943 95.27 360.223 95.85C359.503 96.41 358.883 97.22 358.363 98.28L356.713 97.38C357.293 96.06 358.113 95.02 359.173 94.26C360.233 93.48 361.463 93.09 362.863 93.09C363.923 93.09 364.873 93.32 365.713 93.78C366.553 94.24 367.203 94.88 367.663 95.7C368.143 96.5 368.383 97.42 368.383 98.46C368.383 99.54 368.123 100.5 367.603 101.34C367.103 102.16 366.403 102.75 365.503 103.11ZM251.715 132.54H253.905L246.765 153H244.365L237.255 132.54H239.505L245.565 150.51L251.715 132.54ZM257.196 153V138.96H259.236V153H257.196ZM258.216 136.23C257.756 136.23 257.366 136.07 257.046 135.75C256.746 135.43 256.596 135.04 256.596 134.58C256.596 134.14 256.746 133.77 257.046 133.47C257.366 133.15 257.756 132.99 258.216 132.99C258.656 132.99 259.036 133.15 259.356 133.47C259.676 133.77 259.836 134.15 259.836 134.61C259.836 135.05 259.676 135.43 259.356 135.75C259.036 136.07 258.656 136.23 258.216 136.23ZM273.503 138.96H275.573L270.473 153H268.223L263.153 138.96H265.283L269.423 150.81L273.503 138.96ZM279.475 153V138.96H281.515V153H279.475ZM280.495 136.23C280.035 136.23 279.645 136.07 279.325 135.75C279.025 135.43 278.875 135.04 278.875 134.58C278.875 134.14 279.025 133.77 279.325 133.47C279.645 133.15 280.035 132.99 280.495 132.99C280.935 132.99 281.315 133.15 281.635 133.47C281.955 133.77 282.115 134.15 282.115 134.61C282.115 135.05 281.955 135.43 281.635 135.75C281.315 136.07 280.935 136.23 280.495 136.23ZM299.743 131.22V153H297.703V150.93C297.123 151.73 296.413 152.36 295.573 152.82C294.733 153.26 293.813 153.48 292.813 153.48C291.473 153.48 290.273 153.16 289.213 152.52C288.153 151.88 287.323 150.99 286.723 149.85C286.123 148.71 285.823 147.41 285.823 145.95C285.823 144.51 286.113 143.23 286.693 142.11C287.293 140.97 288.113 140.08 289.153 139.44C290.213 138.8 291.413 138.48 292.753 138.48C293.773 138.48 294.703 138.71 295.543 139.17C296.403 139.61 297.123 140.24 297.703 141.06V131.22H299.743ZM292.753 151.62C293.713 151.62 294.563 151.38 295.303 150.9C296.063 150.42 296.653 149.75 297.073 148.89C297.493 148.03 297.703 147.06 297.703 145.98C297.703 144.9 297.493 143.93 297.073 143.07C296.653 142.21 296.063 141.54 295.303 141.06C294.563 140.58 293.713 140.34 292.753 140.34C291.813 140.34 290.973 140.58 290.233 141.06C289.493 141.54 288.913 142.21 288.493 143.07C288.073 143.91 287.863 144.87 287.863 145.95C287.863 147.05 288.073 148.03 288.493 148.89C288.913 149.75 289.493 150.42 290.233 150.9C290.973 151.38 291.813 151.62 292.753 151.62ZM327.205 141.99C328.385 142.29 329.295 142.87 329.935 143.73C330.575 144.59 330.895 145.72 330.895 147.12C330.895 148.94 330.345 150.38 329.245 151.44C328.145 152.48 326.635 153 324.715 153H317.275V132.54H324.025C325.845 132.54 327.275 133.02 328.315 133.98C329.355 134.92 329.875 136.18 329.875 137.76C329.875 138.78 329.645 139.66 329.185 140.4C328.725 141.12 328.065 141.65 327.205 141.99ZM319.525 141.27H324.295C326.435 141.27 327.505 140.1 327.505 137.76C327.505 136.7 327.195 135.88 326.575 135.3C325.955 134.72 325.095 134.43 323.995 134.43H319.525V141.27ZM324.415 151.14C325.695 151.14 326.695 150.78 327.415 150.06C328.155 149.34 328.525 148.36 328.525 147.12C328.525 145.88 328.155 144.91 327.415 144.21C326.695 143.49 325.695 143.13 324.415 143.13H319.525V151.14H324.415ZM334.471 153V131.22H336.511V153H334.471ZM353.045 138.96V153H351.005V150.66C350.525 151.56 349.885 152.26 349.085 152.76C348.305 153.24 347.395 153.48 346.355 153.48C345.375 153.48 344.465 153.28 343.625 152.88C342.805 152.48 342.145 151.89 341.645 151.11C341.165 150.33 340.925 149.41 340.925 148.35V138.96H342.965V147.45C342.965 150.23 344.205 151.62 346.685 151.62C348.125 151.62 349.205 151.11 349.925 150.09C350.645 149.07 351.005 147.7 351.005 145.98V138.96H353.045ZM363.188 138.48C364.448 138.48 365.588 138.79 366.608 139.41C367.628 140.03 368.428 140.88 369.008 141.96C369.588 143.02 369.878 144.21 369.878 145.53C369.878 145.91 369.868 146.2 369.848 146.4H358.298C358.378 147.84 358.848 149.07 359.708 150.09C360.568 151.11 361.738 151.62 363.218 151.62C364.418 151.62 365.408 151.4 366.188 150.96C366.988 150.5 367.628 149.87 368.108 149.07L369.728 150.15C369.068 151.19 368.198 152.01 367.118 152.61C366.038 153.19 364.758 153.48 363.278 153.48C361.918 153.48 360.708 153.16 359.648 152.52C358.588 151.88 357.758 150.99 357.158 149.85C356.558 148.71 356.258 147.42 356.258 145.98C356.258 144.54 356.548 143.25 357.128 142.11C357.728 140.97 358.548 140.08 359.588 139.44C360.648 138.8 361.848 138.48 363.188 138.48ZM367.838 144.72C367.638 143.26 367.148 142.17 366.368 141.45C365.588 140.71 364.528 140.34 363.188 140.34C361.888 140.34 360.818 140.76 359.978 141.6C359.158 142.42 358.638 143.46 358.418 144.72H367.838Z" fill="white"/>
<rect x="624" y="336" width="91" height="1" fill="white"/>
<circle cx="624.5" cy="336.5" r="1.5" fill="white"/>
<circle cx="464.5" cy="123.5" r="1.5" fill="white"/>
<rect x="380" y="123" width="85" height="1" fill="white"/>
<path d="M133.23 317.55H129.93L129.42 321.81H132.33V323.67H129.18L128.49 329.1H126.63L127.32 323.67H122.25L121.56 329.1H119.7L120.39 323.67H117.27V321.81H120.63L121.14 317.55H118.17V315.69H121.38L122.13 309.81H123.99L123.24 315.69H128.31L129.06 309.81H130.92L130.17 315.69H133.23V317.55ZM127.56 321.81L128.07 317.55H123L122.49 321.81H127.56ZM135.309 328.71C135.309 327.83 135.509 327.02 135.909 326.28C136.329 325.52 136.839 324.85 137.439 324.27C138.039 323.67 138.859 322.94 139.899 322.08C140.539 321.56 140.879 321.28 140.919 321.24C142.219 320.14 143.229 319.06 143.949 318C144.669 316.94 145.029 315.72 145.029 314.34C145.029 313.38 144.699 312.61 144.039 312.03C143.399 311.43 142.549 311.13 141.489 311.13C140.509 311.13 139.609 311.38 138.789 311.88C137.989 312.36 137.239 313.07 136.539 314.01L134.889 312.6C135.689 311.5 136.669 310.64 137.829 310.02C139.009 309.4 140.229 309.09 141.489 309.09C143.269 309.09 144.689 309.57 145.749 310.53C146.809 311.47 147.339 312.74 147.339 314.34C147.339 316.02 146.859 317.52 145.899 318.84C144.939 320.16 143.619 321.53 141.939 322.95C141.519 323.31 141.319 323.48 141.339 323.46C140.099 324.48 139.179 325.32 138.579 325.98C137.979 326.64 137.679 327.3 137.679 327.96H147.609V330H135.309V328.71ZM157.569 330.48C156.229 330.48 154.999 330.02 153.879 329.1C152.759 328.18 151.879 326.91 151.239 325.29C150.599 323.65 150.279 321.81 150.279 319.77C150.279 317.73 150.599 315.9 151.239 314.28C151.879 312.64 152.749 311.37 153.849 310.47C154.969 309.55 156.199 309.09 157.539 309.09C158.879 309.09 160.099 309.55 161.199 310.47C162.319 311.37 163.199 312.64 163.839 314.28C164.479 315.9 164.799 317.73 164.799 319.77C164.799 321.81 164.479 323.65 163.839 325.29C163.199 326.91 162.329 328.18 161.229 329.1C160.129 330.02 158.909 330.48 157.569 330.48ZM157.539 328.5C158.499 328.5 159.349 328.14 160.089 327.42C160.829 326.68 161.409 325.65 161.829 324.33C162.249 322.99 162.459 321.47 162.459 319.77C162.459 318.07 162.249 316.56 161.829 315.24C161.409 313.92 160.829 312.9 160.089 312.18C159.349 311.44 158.499 311.07 157.539 311.07C156.579 311.07 155.719 311.44 154.959 312.18C154.219 312.9 153.639 313.92 153.219 315.24C152.799 316.56 152.589 318.07 152.589 319.77C152.589 321.47 152.799 322.99 153.219 324.33C153.639 325.65 154.219 326.68 154.959 327.42C155.719 328.14 156.579 328.5 157.539 328.5ZM167.696 328.71C167.696 327.83 167.896 327.02 168.296 326.28C168.716 325.52 169.226 324.85 169.826 324.27C170.426 323.67 171.246 322.94 172.286 322.08C172.926 321.56 173.266 321.28 173.306 321.24C174.606 320.14 175.616 319.06 176.336 318C177.056 316.94 177.416 315.72 177.416 314.34C177.416 313.38 177.086 312.61 176.426 312.03C175.786 311.43 174.936 311.13 173.876 311.13C172.896 311.13 171.996 311.38 171.176 311.88C170.376 312.36 169.626 313.07 168.926 314.01L167.276 312.6C168.076 311.5 169.056 310.64 170.216 310.02C171.396 309.4 172.616 309.09 173.876 309.09C175.656 309.09 177.076 309.57 178.136 310.53C179.196 311.47 179.726 312.74 179.726 314.34C179.726 316.02 179.246 317.52 178.286 318.84C177.326 320.16 176.006 321.53 174.326 322.95C173.906 323.31 173.706 323.48 173.726 323.46C172.486 324.48 171.566 325.32 170.966 325.98C170.366 326.64 170.066 327.3 170.066 327.96H179.996V330H167.696V328.71ZM189.956 330.48C188.616 330.48 187.386 330.02 186.266 329.1C185.146 328.18 184.266 326.91 183.626 325.29C182.986 323.65 182.666 321.81 182.666 319.77C182.666 317.73 182.986 315.9 183.626 314.28C184.266 312.64 185.136 311.37 186.236 310.47C187.356 309.55 188.586 309.09 189.926 309.09C191.266 309.09 192.486 309.55 193.586 310.47C194.706 311.37 195.586 312.64 196.226 314.28C196.866 315.9 197.186 317.73 197.186 319.77C197.186 321.81 196.866 323.65 196.226 325.29C195.586 326.91 194.716 328.18 193.616 329.1C192.516 330.02 191.296 330.48 189.956 330.48ZM189.926 328.5C190.886 328.5 191.736 328.14 192.476 327.42C193.216 326.68 193.796 325.65 194.216 324.33C194.636 322.99 194.846 321.47 194.846 319.77C194.846 318.07 194.636 316.56 194.216 315.24C193.796 313.92 193.216 312.9 192.476 312.18C191.736 311.44 190.886 311.07 189.926 311.07C188.966 311.07 188.106 311.44 187.346 312.18C186.606 312.9 186.026 313.92 185.606 315.24C185.186 316.56 184.976 318.07 184.976 319.77C184.976 321.47 185.186 322.99 185.606 324.33C186.026 325.65 186.606 326.68 187.346 327.42C188.106 328.14 188.966 328.5 189.926 328.5ZM200.083 328.71C200.083 327.83 200.283 327.02 200.683 326.28C201.103 325.52 201.613 324.85 202.213 324.27C202.813 323.67 203.633 322.94 204.673 322.08C205.313 321.56 205.653 321.28 205.693 321.24C206.993 320.14 208.003 319.06 208.723 318C209.443 316.94 209.803 315.72 209.803 314.34C209.803 313.38 209.473 312.61 208.813 312.03C208.173 311.43 207.323 311.13 206.263 311.13C205.283 311.13 204.383 311.38 203.563 311.88C202.763 312.36 202.013 313.07 201.313 314.01L199.663 312.6C200.463 311.5 201.443 310.64 202.603 310.02C203.783 309.4 205.003 309.09 206.263 309.09C208.043 309.09 209.463 309.57 210.523 310.53C211.583 311.47 212.113 312.74 212.113 314.34C212.113 316.02 211.633 317.52 210.673 318.84C209.713 320.16 208.393 321.53 206.713 322.95C206.293 323.31 206.093 323.48 206.113 323.46C204.873 324.48 203.953 325.32 203.353 325.98C202.753 326.64 202.453 327.3 202.453 327.96H212.383V330H200.083V328.71ZM222.344 330.48C221.004 330.48 219.774 330.02 218.654 329.1C217.534 328.18 216.654 326.91 216.014 325.29C215.374 323.65 215.054 321.81 215.054 319.77C215.054 317.73 215.374 315.9 216.014 314.28C216.654 312.64 217.524 311.37 218.624 310.47C219.744 309.55 220.974 309.09 222.314 309.09C223.654 309.09 224.874 309.55 225.974 310.47C227.094 311.37 227.974 312.64 228.614 314.28C229.254 315.9 229.574 317.73 229.574 319.77C229.574 321.81 229.254 323.65 228.614 325.29C227.974 326.91 227.104 328.18 226.004 329.1C224.904 330.02 223.684 330.48 222.344 330.48ZM222.314 328.5C223.274 328.5 224.124 328.14 224.864 327.42C225.604 326.68 226.184 325.65 226.604 324.33C227.024 322.99 227.234 321.47 227.234 319.77C227.234 318.07 227.024 316.56 226.604 315.24C226.184 313.92 225.604 312.9 224.864 312.18C224.124 311.44 223.274 311.07 222.314 311.07C221.354 311.07 220.494 311.44 219.734 312.18C218.994 312.9 218.414 313.92 217.994 315.24C217.574 316.56 217.364 318.07 217.364 319.77C217.364 321.47 217.574 322.99 217.994 324.33C218.414 325.65 218.994 326.68 219.734 327.42C220.494 328.14 221.354 328.5 222.314 328.5ZM106.4 348.54H111.47C113.57 348.54 115.38 348.95 116.9 349.77C118.42 350.57 119.58 351.74 120.38 353.28C121.18 354.82 121.58 356.66 121.58 358.8C121.58 362 120.69 364.5 118.91 366.3C117.13 368.1 114.65 369 111.47 369H106.4V348.54ZM111.41 366.96C113.85 366.96 115.76 366.29 117.14 364.95C118.52 363.61 119.21 361.56 119.21 358.8C119.21 356.02 118.52 353.96 117.14 352.62C115.76 351.28 113.85 350.61 111.41 350.61H108.65V366.96H111.41ZM138.459 354.96V369H136.419V366.93C135.839 367.73 135.129 368.36 134.289 368.82C133.449 369.26 132.529 369.48 131.529 369.48C130.189 369.48 128.989 369.16 127.929 368.52C126.869 367.88 126.039 366.99 125.439 365.85C124.839 364.71 124.539 363.41 124.539 361.95C124.539 360.51 124.829 359.23 125.409 358.11C126.009 356.97 126.829 356.08 127.869 355.44C128.929 354.8 130.129 354.48 131.469 354.48C132.489 354.48 133.419 354.71 134.259 355.17C135.119 355.61 135.839 356.24 136.419 357.06V354.96H138.459ZM131.469 367.62C132.429 367.62 133.279 367.38 134.019 366.9C134.779 366.42 135.369 365.75 135.789 364.89C136.209 364.03 136.419 363.06 136.419 361.98C136.419 360.9 136.209 359.93 135.789 359.07C135.369 358.21 134.779 357.54 134.019 357.06C133.279 356.58 132.429 356.34 131.469 356.34C130.529 356.34 129.689 356.58 128.949 357.06C128.209 357.54 127.629 358.21 127.209 359.07C126.789 359.91 126.579 360.87 126.579 361.95C126.579 363.05 126.789 364.03 127.209 364.89C127.629 365.75 128.209 366.42 128.949 366.9C129.689 367.38 130.529 367.62 131.469 367.62ZM149.426 354.48C149.906 354.48 150.366 354.55 150.806 354.69V356.55C150.386 356.35 149.926 356.25 149.426 356.25C148.566 356.25 147.766 356.49 147.026 356.97C146.286 357.45 145.686 358.15 145.226 359.07C144.786 359.97 144.566 361.04 144.566 362.28V369H142.526V354.96H144.566V357.78C145.106 356.74 145.786 355.93 146.606 355.35C147.446 354.77 148.386 354.48 149.426 354.48ZM161.662 369L156.742 361.77L155.032 363.42V369H152.992V347.22H155.032V360.84L161.182 354.96H163.822L158.152 360.42L163.942 369H161.662ZM180.658 369.48C178.938 369.48 177.448 369.06 176.188 368.22C174.948 367.36 173.988 366.14 173.308 364.56C172.648 362.96 172.318 361.05 172.318 358.83C172.318 356.59 172.648 354.67 173.308 353.07C173.988 351.45 174.948 350.22 176.188 349.38C177.448 348.52 178.938 348.09 180.658 348.09C182.238 348.09 183.598 348.45 184.738 349.17C185.898 349.87 186.888 350.91 187.708 352.29L185.938 353.55C184.678 351.27 182.918 350.13 180.658 350.13C178.778 350.13 177.308 350.9 176.248 352.44C175.208 353.96 174.688 356.08 174.688 358.8C174.688 361.5 175.218 363.62 176.278 365.16C177.338 366.68 178.798 367.44 180.658 367.44C181.698 367.44 182.628 367.19 183.448 366.69C184.288 366.19 184.948 365.45 185.428 364.47C185.908 363.49 186.148 362.29 186.148 360.87H181.318V359.01H188.368V360.87C188.368 362.73 188.038 364.31 187.378 365.61C186.718 366.89 185.798 367.86 184.618 368.52C183.458 369.16 182.138 369.48 180.658 369.48ZM198.731 354.48C199.211 354.48 199.671 354.55 200.111 354.69V356.55C199.691 356.35 199.231 356.25 198.731 356.25C197.871 356.25 197.071 356.49 196.331 356.97C195.591 357.45 194.991 358.15 194.531 359.07C194.091 359.97 193.871 361.04 193.871 362.28V369H191.831V354.96H193.871V357.78C194.411 356.74 195.091 355.93 195.911 355.35C196.751 354.77 197.691 354.48 198.731 354.48ZM215.347 354.96V369H213.307V366.93C212.727 367.73 212.017 368.36 211.177 368.82C210.337 369.26 209.417 369.48 208.417 369.48C207.077 369.48 205.877 369.16 204.817 368.52C203.757 367.88 202.927 366.99 202.327 365.85C201.727 364.71 201.427 363.41 201.427 361.95C201.427 360.51 201.717 359.23 202.297 358.11C202.897 356.97 203.717 356.08 204.757 355.44C205.817 354.8 207.017 354.48 208.357 354.48C209.377 354.48 210.307 354.71 211.147 355.17C212.007 355.61 212.727 356.24 213.307 357.06V354.96H215.347ZM208.357 367.62C209.317 367.62 210.167 367.38 210.907 366.9C211.667 366.42 212.257 365.75 212.677 364.89C213.097 364.03 213.307 363.06 213.307 361.98C213.307 360.9 213.097 359.93 212.677 359.07C212.257 358.21 211.667 357.54 210.907 357.06C210.167 356.58 209.317 356.34 208.357 356.34C207.417 356.34 206.577 356.58 205.837 357.06C205.097 357.54 204.517 358.21 204.097 359.07C203.677 359.91 203.467 360.87 203.467 361.95C203.467 363.05 203.677 364.03 204.097 364.89C204.517 365.75 205.097 366.42 205.837 366.9C206.577 367.38 207.417 367.62 208.357 367.62ZM229.073 354.96H230.993L223.403 375H221.363L223.583 369.27L217.823 354.96H219.953L224.603 366.6L229.073 354.96Z" fill="white"/>
<circle cx="324.5" cy="339.5" r="1.5" fill="white"/>
<rect x="240" y="339" width="85" height="1" fill="white"/>
<path d="M534.406 244.241V400.796H615V338.961L534.406 244.241Z" fill="#E65100"/>
<path d="M555.613 346.502H589.37L572.491 326.665L555.613 306.828V346.502Z" fill="#202020"/>
<rect x="555.611" y="373.189" width="17.5277" height="28.4202" fill="#202020"/>
<circle cx="529.852" cy="102.903" r="57.9032" fill="#2196F3"/>
<path d="M534.484 240.713L477.702 128.095C471.876 116.542 480.274 102.904 493.213 102.904H534.484V240.713Z" fill="#2196F3"/>
<circle cx="529.852" cy="102.903" r="31.2677" fill="#202020"/>
</svg>
