<svg width="720" height="960" viewBox="0 0 720 960" fill="none" xmlns="http://www.w3.org/2000/svg">
<rect width="720" height="960" fill="#202020"/>
<path d="M353.317 268.63V413.705H428V356.405L353.317 268.63Z" fill="#E65100"/>
<path d="M372.968 363.393H404.25L388.609 345.01L372.968 326.628V363.393Z" fill="#202020"/>
<rect x="372.967" y="388.122" width="16.2423" height="26" fill="#202020"/>
<circle cx="349.096" cy="137.657" r="53.657" fill="#2196F3"/>
<path d="M353.388 265.361L300.77 161.002C295.372 150.296 303.154 137.658 315.144 137.658H353.388V265.361Z" fill="#2196F3"/>
<circle cx="349.096" cy="137.657" r="28.9748" fill="#202020"/>
<path d="M154.394 497.702H163.742C168.799 497.702 172.439 498.175 174.663 499.119C176.908 500.042 178.671 501.553 179.951 503.651C181.252 505.728 181.902 508.225 181.902 511.142C181.902 514.373 181.052 517.059 179.353 519.199C177.674 521.339 175.387 522.829 172.492 523.668C170.792 524.151 167.697 524.392 163.207 524.392V544H154.394V497.702ZM163.207 515.8H166.008C168.211 515.8 169.743 515.642 170.603 515.328C171.463 515.013 172.135 514.499 172.617 513.785C173.121 513.051 173.373 512.17 173.373 511.142C173.373 509.358 172.68 508.057 171.296 507.239C170.288 506.63 168.421 506.326 165.693 506.326H163.207V515.8ZM187.599 509.757H194.964V514.069C195.761 512.369 196.821 511.079 198.142 510.197C199.464 509.316 200.912 508.876 202.486 508.876C203.598 508.876 204.762 509.169 205.979 509.757L203.304 517.153C202.297 516.65 201.468 516.398 200.818 516.398C199.496 516.398 198.373 517.216 197.45 518.853C196.548 520.489 196.097 523.7 196.097 528.484L196.128 530.152V544H187.599V509.757ZM226.343 508.876C229.574 508.876 232.606 509.683 235.439 511.299C238.292 512.915 240.516 515.107 242.111 517.877C243.706 520.647 244.503 523.637 244.503 526.847C244.503 530.078 243.695 533.1 242.079 535.911C240.485 538.723 238.303 540.926 235.533 542.521C232.763 544.094 229.71 544.881 226.374 544.881C221.464 544.881 217.268 543.14 213.785 539.657C210.323 536.153 208.592 531.904 208.592 526.91C208.592 521.559 210.554 517.101 214.477 513.534C217.918 510.428 221.873 508.876 226.343 508.876ZM226.469 516.964C223.804 516.964 221.58 517.898 219.796 519.765C218.034 521.612 217.152 523.983 217.152 526.878C217.152 529.858 218.023 532.271 219.765 534.117C221.527 535.964 223.751 536.887 226.437 536.887C229.123 536.887 231.358 535.953 233.141 534.086C234.925 532.218 235.816 529.816 235.816 526.878C235.816 523.941 234.935 521.559 233.172 519.734C231.431 517.887 229.196 516.964 226.469 516.964ZM255.582 495.657C257.113 495.657 258.414 496.202 259.484 497.293C260.575 498.384 261.121 499.706 261.121 501.259C261.121 502.791 260.586 504.102 259.516 505.193C258.446 506.284 257.166 506.83 255.676 506.83C254.144 506.83 252.833 506.274 251.742 505.162C250.672 504.05 250.137 502.707 250.137 501.133C250.137 499.622 250.661 498.332 251.71 497.262C252.78 496.192 254.071 495.657 255.582 495.657ZM251.301 509.757H259.893V545.133C259.893 548.385 259.568 550.809 258.918 552.403C258.288 554.019 257.281 555.257 255.896 556.117C254.512 556.978 252.843 557.408 250.892 557.408C249.172 557.408 247.031 556.978 244.471 556.117V549.35C245.814 550.001 247 550.326 248.028 550.326C249.119 550.326 249.937 550.001 250.483 549.35C251.028 548.7 251.301 547.504 251.301 545.763V509.757ZM302.603 529.365H275.001C275.399 531.799 276.459 533.74 278.18 535.187C279.921 536.614 282.135 537.328 284.821 537.328C288.031 537.328 290.79 536.205 293.098 533.96L300.337 537.359C298.532 539.919 296.371 541.818 293.853 543.056C291.336 544.273 288.346 544.881 284.883 544.881C279.512 544.881 275.137 543.192 271.759 539.814C268.381 536.415 266.692 532.166 266.692 527.067C266.692 521.843 268.37 517.51 271.728 514.069C275.106 510.607 279.334 508.876 284.411 508.876C289.804 508.876 294.189 510.607 297.567 514.069C300.945 517.51 302.635 522.063 302.635 527.728L302.603 529.365ZM293.979 522.598C293.413 520.689 292.29 519.136 290.612 517.94C288.954 516.744 287.024 516.146 284.821 516.146C282.429 516.146 280.33 516.817 278.526 518.16C277.393 519 276.344 520.479 275.378 522.598H293.979ZM343.109 516.681L335.965 520.615C334.622 519.209 333.29 518.234 331.968 517.688C330.667 517.143 329.135 516.87 327.373 516.87C324.162 516.87 321.561 517.835 319.567 519.765C317.595 521.675 316.609 524.13 316.609 527.13C316.609 530.047 317.563 532.428 319.473 534.275C321.382 536.121 323.89 537.044 326.995 537.044C330.835 537.044 333.825 535.733 335.965 533.11L342.732 537.737C339.06 542.5 333.877 544.881 327.184 544.881C321.162 544.881 316.441 543.098 313.021 539.531C309.622 535.964 307.922 531.788 307.922 527.004C307.922 523.689 308.751 520.636 310.408 517.846C312.066 515.055 314.374 512.862 317.333 511.268C320.312 509.673 323.638 508.876 327.31 508.876C330.709 508.876 333.762 509.557 336.469 510.921C339.175 512.264 341.389 514.184 343.109 516.681ZM351.922 497.136H360.483V509.757H365.582V517.153H360.483V544H351.922V517.153H347.516V509.757H351.922V497.136Z" fill="#2196F3"/>
<path d="M403.318 497.702H412.257L430.071 544H420.912L417.293 534.464H398.408L394.632 544H385.473L403.318 497.702ZM407.851 509.977L401.682 525.871H413.988L407.851 509.977ZM435.075 496.538H443.667V544H435.075V496.538ZM460.002 496.538V513.534C461.555 511.981 463.233 510.816 465.038 510.04C466.842 509.264 468.773 508.876 470.829 508.876C475.298 508.876 479.096 510.565 482.222 513.943C485.349 517.321 486.912 521.654 486.912 526.941C486.912 532.04 485.296 536.31 482.065 539.751C478.834 543.171 475.005 544.881 470.577 544.881C468.605 544.881 466.769 544.535 465.069 543.843C463.37 543.129 461.681 541.975 460.002 540.381V544H451.473V496.538H460.002ZM469.035 516.807C466.328 516.807 464.083 517.73 462.3 519.577C460.516 521.423 459.624 523.836 459.624 526.815C459.624 529.858 460.516 532.323 462.3 534.212C464.083 536.079 466.328 537.013 469.035 537.013C471.658 537.013 473.861 536.058 475.644 534.149C477.449 532.239 478.351 529.805 478.351 526.847C478.351 523.909 477.47 521.507 475.707 519.639C473.945 517.751 471.721 516.807 469.035 516.807ZM528.331 529.365H500.729C501.128 531.799 502.187 533.74 503.908 535.187C505.649 536.614 507.863 537.328 510.549 537.328C513.759 537.328 516.518 536.205 518.826 533.96L526.065 537.359C524.261 539.919 522.099 541.818 519.581 543.056C517.064 544.273 514.074 544.881 510.612 544.881C505.24 544.881 500.865 543.192 497.487 539.814C494.109 536.415 492.42 532.166 492.42 527.067C492.42 521.843 494.098 517.51 497.456 514.069C500.834 510.607 505.062 508.876 510.139 508.876C515.532 508.876 519.917 510.607 523.295 514.069C526.674 517.51 528.363 522.063 528.363 527.728L528.331 529.365ZM519.707 522.598C519.141 520.689 518.018 519.136 516.34 517.94C514.682 516.744 512.752 516.146 510.549 516.146C508.157 516.146 506.058 516.817 504.254 518.16C503.121 519 502.072 520.479 501.107 522.598H519.707ZM533.304 509.757H540.669V514.069C541.466 512.369 542.526 511.079 543.848 510.197C545.169 509.316 546.617 508.876 548.191 508.876C549.303 508.876 550.468 509.169 551.684 509.757L549.009 517.153C548.002 516.65 547.173 516.398 546.523 516.398C545.201 516.398 544.078 517.216 543.155 518.853C542.253 520.489 541.802 523.7 541.802 528.484L541.833 530.152V544H533.304V509.757ZM557.003 497.136H565.564V509.757H570.663V517.153H565.564V544H557.003V517.153H552.597V509.757H557.003V497.136Z" fill="#E65100"/>
<path d="M234.519 630.5V616.038H236.79C238.107 616.038 239.071 616.123 239.68 616.293C240.546 616.523 241.234 616.949 241.745 617.572C242.256 618.194 242.512 618.928 242.512 619.774C242.512 620.324 242.394 620.826 242.158 621.278C241.929 621.724 241.552 622.143 241.027 622.536C241.906 622.949 242.548 623.467 242.954 624.09C243.361 624.706 243.564 625.437 243.564 626.282C243.564 627.095 243.354 627.836 242.935 628.504C242.515 629.173 241.974 629.674 241.312 630.008C240.65 630.336 239.736 630.5 238.569 630.5H234.519ZM237.272 618.663V621.711H237.871C238.54 621.711 239.035 621.57 239.356 621.288C239.684 621.006 239.848 620.623 239.848 620.138C239.848 619.685 239.694 619.328 239.385 619.066C239.077 618.797 238.609 618.663 237.98 618.663H237.272ZM237.272 624.168V627.875H237.96C239.1 627.875 239.867 627.731 240.26 627.442C240.66 627.154 240.86 626.735 240.86 626.184C240.86 625.561 240.627 625.07 240.162 624.709C239.697 624.349 238.923 624.168 237.842 624.168H237.272ZM246.08 619.803H248.381V621.15C248.63 620.619 248.961 620.216 249.374 619.941C249.786 619.666 250.239 619.528 250.73 619.528C251.078 619.528 251.441 619.62 251.822 619.803L250.986 622.114C250.671 621.956 250.412 621.878 250.209 621.878C249.796 621.878 249.446 622.133 249.157 622.645C248.875 623.156 248.734 624.159 248.734 625.653L248.744 626.174V630.5H246.08V619.803ZM261.869 619.803H264.543V630.5H261.869V629.369C261.344 629.868 260.817 630.228 260.286 630.451C259.761 630.667 259.191 630.775 258.575 630.775C257.192 630.775 255.996 630.241 254.987 629.173C253.977 628.098 253.472 626.764 253.472 625.171C253.472 623.52 253.961 622.166 254.937 621.111C255.914 620.056 257.1 619.528 258.496 619.528C259.139 619.528 259.742 619.649 260.305 619.892C260.869 620.134 261.39 620.498 261.869 620.983V619.803ZM259.047 622.006C258.215 622.006 257.523 622.3 256.973 622.89C256.422 623.474 256.147 624.224 256.147 625.142C256.147 626.066 256.425 626.826 256.982 627.423C257.546 628.019 258.237 628.317 259.057 628.317C259.902 628.317 260.604 628.026 261.161 627.442C261.718 626.852 261.996 626.082 261.996 625.132C261.996 624.201 261.718 623.448 261.161 622.871C260.604 622.294 259.899 622.006 259.047 622.006ZM268.062 619.803H270.736V620.895C271.345 620.383 271.896 620.029 272.388 619.833C272.886 619.63 273.394 619.528 273.911 619.528C274.973 619.528 275.874 619.898 276.615 620.639C277.238 621.268 277.549 622.199 277.549 623.431V630.5H274.895V625.81C274.895 624.532 274.836 623.683 274.718 623.264C274.606 622.845 274.406 622.527 274.118 622.31C273.836 622.087 273.485 621.976 273.066 621.976C272.522 621.976 272.053 622.16 271.66 622.527C271.273 622.887 271.005 623.389 270.854 624.031C270.775 624.365 270.736 625.089 270.736 626.204V630.5H268.062V619.803ZM288.864 615.674H291.539V630.5H288.864V629.369C288.34 629.868 287.812 630.228 287.282 630.451C286.757 630.667 286.187 630.775 285.571 630.775C284.188 630.775 282.992 630.241 281.982 629.173C280.973 628.098 280.468 626.764 280.468 625.171C280.468 623.52 280.957 622.166 281.933 621.111C282.91 620.056 284.096 619.528 285.492 619.528C286.135 619.528 286.738 619.649 287.301 619.892C287.865 620.134 288.386 620.498 288.864 620.983V615.674ZM286.043 622.006C285.21 622.006 284.519 622.3 283.968 622.89C283.418 623.474 283.143 624.224 283.143 625.142C283.143 626.066 283.421 626.826 283.978 627.423C284.542 628.019 285.233 628.317 286.053 628.317C286.898 628.317 287.599 628.026 288.157 627.442C288.714 626.852 288.992 626.082 288.992 625.132C288.992 624.201 288.714 623.448 288.157 622.871C287.599 622.294 286.895 622.006 286.043 622.006ZM296.11 615.399C296.581 615.399 296.985 615.569 297.319 615.91C297.66 616.251 297.83 616.664 297.83 617.149C297.83 617.627 297.663 618.037 297.329 618.378C296.994 618.712 296.595 618.879 296.129 618.879C295.651 618.879 295.241 618.709 294.9 618.368C294.566 618.02 294.399 617.601 294.399 617.109C294.399 616.638 294.566 616.234 294.9 615.9C295.235 615.566 295.638 615.399 296.11 615.399ZM294.763 619.803H297.456V630.5H294.763V619.803ZM300.7 619.803H303.374V620.895C303.984 620.383 304.534 620.029 305.026 619.833C305.524 619.63 306.032 619.528 306.55 619.528C307.612 619.528 308.513 619.898 309.254 620.639C309.876 621.268 310.187 622.199 310.187 623.431V630.5H307.533V625.81C307.533 624.532 307.474 623.683 307.356 623.264C307.245 622.845 307.045 622.527 306.756 622.31C306.474 622.087 306.124 621.976 305.704 621.976C305.16 621.976 304.692 622.16 304.298 622.527C303.912 622.887 303.643 623.389 303.492 624.031C303.414 624.365 303.374 625.089 303.374 626.204V630.5H300.7V619.803ZM321.503 619.803H324.177V628.966C324.177 630.775 323.813 632.106 323.086 632.958C322.109 634.111 320.638 634.688 318.671 634.688C317.623 634.688 316.741 634.557 316.027 634.295C315.312 634.033 314.709 633.646 314.218 633.135C313.726 632.63 313.362 632.014 313.126 631.287H316.086C316.348 631.588 316.685 631.814 317.098 631.965C317.511 632.122 318 632.201 318.563 632.201C319.284 632.201 319.864 632.089 320.303 631.867C320.743 631.644 321.051 631.355 321.228 631.001C321.411 630.647 321.503 630.038 321.503 629.173C321.031 629.645 320.536 629.985 320.018 630.195C319.5 630.398 318.914 630.5 318.258 630.5C316.823 630.5 315.61 629.982 314.621 628.947C313.631 627.911 313.136 626.6 313.136 625.014C313.136 623.316 313.661 621.953 314.709 620.924C315.66 619.993 316.794 619.528 318.111 619.528C318.727 619.528 319.307 619.643 319.851 619.872C320.402 620.095 320.952 620.465 321.503 620.983V619.803ZM318.721 622.035C317.875 622.035 317.177 622.32 316.626 622.89C316.076 623.454 315.801 624.165 315.801 625.024C315.801 625.915 316.082 626.646 316.646 627.216C317.21 627.786 317.918 628.072 318.77 628.072C319.602 628.072 320.287 627.793 320.824 627.236C321.368 626.679 321.64 625.948 321.64 625.043C321.64 624.152 321.368 623.428 320.824 622.871C320.28 622.314 319.579 622.035 318.721 622.035ZM353.688 616.038H356.451V625.397C356.451 626.204 356.52 626.774 356.657 627.108C356.801 627.442 357.034 627.711 357.355 627.914C357.683 628.111 358.076 628.209 358.535 628.209C359.02 628.209 359.436 628.098 359.784 627.875C360.138 627.652 360.38 627.37 360.511 627.029C360.649 626.682 360.718 626.023 360.718 625.053V616.038H363.48V624.66C363.48 626.115 363.398 627.125 363.235 627.688C363.071 628.252 362.756 628.796 362.291 629.32C361.832 629.845 361.301 630.235 360.698 630.49C360.095 630.739 359.394 630.864 358.594 630.864C357.545 630.864 356.631 630.625 355.851 630.146C355.078 629.661 354.524 629.058 354.19 628.337C353.855 627.61 353.688 626.384 353.688 624.66V616.038ZM367.294 616.038H370.027V630.5H367.294V616.038ZM372.72 633.076L379.219 615.625H381.126L374.618 633.076H372.72ZM383.908 616.038H386.671V625.397C386.671 626.204 386.739 626.774 386.877 627.108C387.021 627.442 387.254 627.711 387.575 627.914C387.903 628.111 388.296 628.209 388.755 628.209C389.24 628.209 389.656 628.098 390.003 627.875C390.357 627.652 390.6 627.37 390.731 627.029C390.869 626.682 390.937 626.023 390.937 625.053V616.038H393.7V624.66C393.7 626.115 393.618 627.125 393.454 627.688C393.291 628.252 392.976 628.796 392.511 629.32C392.052 629.845 391.521 630.235 390.918 630.49C390.315 630.739 389.614 630.864 388.814 630.864C387.765 630.864 386.851 630.625 386.071 630.146C385.297 629.661 384.744 629.058 384.409 628.337C384.075 627.61 383.908 626.384 383.908 624.66V616.038ZM396.767 616.038H399.864L402.892 620.668L405.949 616.038H409.046L404.445 623.038L409.332 630.5H406.235L402.892 625.417L399.579 630.5H396.462L401.348 623.038L396.767 616.038ZM418.68 616.038H421.944C424.048 616.038 425.611 616.3 426.633 616.824C427.656 617.342 428.498 618.188 429.16 619.361C429.822 620.534 430.153 621.904 430.153 623.47C430.153 624.585 429.966 625.61 429.593 626.548C429.226 627.478 428.714 628.252 428.059 628.868C427.41 629.484 426.706 629.91 425.945 630.146C425.185 630.382 423.868 630.5 421.993 630.5H418.68V616.038ZM421.423 618.692V627.806H422.701C423.959 627.806 424.87 627.662 425.434 627.374C426.004 627.085 426.47 626.6 426.83 625.919C427.191 625.237 427.371 624.398 427.371 623.402C427.371 621.868 426.942 620.678 426.083 619.833C425.309 619.072 424.067 618.692 422.357 618.692H421.423ZM443.995 625.928H435.373C435.497 626.689 435.828 627.295 436.366 627.747C436.91 628.193 437.601 628.416 438.44 628.416C439.443 628.416 440.305 628.065 441.026 627.364L443.287 628.426C442.724 629.225 442.049 629.818 441.262 630.205C440.476 630.585 439.542 630.775 438.46 630.775C436.782 630.775 435.416 630.248 434.36 629.192C433.305 628.131 432.777 626.803 432.777 625.211C432.777 623.579 433.302 622.225 434.35 621.15C435.406 620.069 436.726 619.528 438.313 619.528C439.997 619.528 441.367 620.069 442.422 621.15C443.477 622.225 444.005 623.647 444.005 625.417L443.995 625.928ZM441.301 623.815C441.124 623.218 440.774 622.733 440.249 622.359C439.732 621.986 439.129 621.799 438.44 621.799C437.693 621.799 437.038 622.009 436.474 622.428C436.12 622.69 435.792 623.153 435.491 623.815H441.301ZM453.531 621.298L451.869 622.959C451.194 622.291 450.582 621.956 450.031 621.956C449.729 621.956 449.494 622.022 449.323 622.153C449.153 622.278 449.067 622.435 449.067 622.625C449.067 622.769 449.12 622.903 449.225 623.028C449.336 623.146 449.605 623.31 450.031 623.52L451.014 624.011C452.05 624.522 452.761 625.043 453.148 625.574C453.534 626.105 453.728 626.728 453.728 627.442C453.728 628.393 453.377 629.186 452.676 629.822C451.981 630.457 451.047 630.775 449.874 630.775C448.314 630.775 447.068 630.166 446.138 628.947L447.789 627.147C448.104 627.514 448.471 627.813 448.891 628.042C449.317 628.265 449.693 628.376 450.021 628.376C450.375 628.376 450.66 628.291 450.876 628.121C451.093 627.95 451.201 627.754 451.201 627.531C451.201 627.118 450.811 626.715 450.031 626.322L449.126 625.869C447.396 624.998 446.531 623.906 446.531 622.595C446.531 621.75 446.855 621.029 447.504 620.432C448.16 619.829 448.995 619.528 450.011 619.528C450.706 619.528 451.358 619.682 451.968 619.99C452.584 620.292 453.105 620.727 453.531 621.298ZM457.709 615.399C458.181 615.399 458.584 615.569 458.918 615.91C459.259 616.251 459.429 616.664 459.429 617.149C459.429 617.627 459.262 618.037 458.928 618.378C458.593 618.712 458.194 618.879 457.728 618.879C457.25 618.879 456.84 618.709 456.499 618.368C456.165 618.02 455.998 617.601 455.998 617.109C455.998 616.638 456.165 616.234 456.499 615.9C456.834 615.566 457.237 615.399 457.709 615.399ZM456.362 619.803H459.056V630.5H456.362V619.803ZM470.204 619.803H472.878V628.966C472.878 630.775 472.514 632.106 471.787 632.958C470.81 634.111 469.339 634.688 467.372 634.688C466.324 634.688 465.442 634.557 464.728 634.295C464.013 634.033 463.41 633.646 462.919 633.135C462.427 632.63 462.063 632.014 461.827 631.287H464.787C465.049 631.588 465.386 631.814 465.799 631.965C466.212 632.122 466.7 632.201 467.264 632.201C467.985 632.201 468.565 632.089 469.004 631.867C469.443 631.644 469.751 631.355 469.928 631.001C470.112 630.647 470.204 630.038 470.204 629.173C469.732 629.645 469.237 629.985 468.719 630.195C468.201 630.398 467.615 630.5 466.959 630.5C465.524 630.5 464.311 629.982 463.322 628.947C462.332 627.911 461.837 626.6 461.837 625.014C461.837 623.316 462.361 621.953 463.41 620.924C464.361 619.993 465.494 619.528 466.812 619.528C467.428 619.528 468.008 619.643 468.552 619.872C469.103 620.095 469.653 620.465 470.204 620.983V619.803ZM467.421 622.035C466.576 622.035 465.878 622.32 465.327 622.89C464.777 623.454 464.501 624.165 464.501 625.024C464.501 625.915 464.783 626.646 465.347 627.216C465.911 627.786 466.618 628.072 467.471 628.072C468.303 628.072 468.988 627.793 469.525 627.236C470.069 626.679 470.341 625.948 470.341 625.043C470.341 624.152 470.069 623.428 469.525 622.871C468.981 622.314 468.28 622.035 467.421 622.035ZM476.397 619.803H479.071V620.895C479.681 620.383 480.231 620.029 480.723 619.833C481.221 619.63 481.729 619.528 482.247 619.528C483.308 619.528 484.21 619.898 484.95 620.639C485.573 621.268 485.884 622.199 485.884 623.431V630.5H483.23V625.81C483.23 624.532 483.171 623.683 483.053 623.264C482.941 622.845 482.741 622.527 482.453 622.31C482.171 622.087 481.821 621.976 481.401 621.976C480.857 621.976 480.388 622.16 479.995 622.527C479.608 622.887 479.34 623.389 479.189 624.031C479.11 624.365 479.071 625.089 479.071 626.204V630.5H476.397V619.803Z" fill="white"/>
<path d="M338.058 615.674H339.611V634.413H338.058V615.674Z" fill="#E65100"/>
<path d="M151.665 587L154.14 569.582H154.424L161.505 583.874L168.514 569.582H168.799L171.297 587H169.58L167.875 574.543L161.718 587H161.28L155.04 574.449L153.346 587H151.665ZM176.021 568.812C176.4 568.812 176.723 568.947 176.992 569.215C177.26 569.483 177.394 569.807 177.394 570.186C177.394 570.557 177.26 570.877 176.992 571.145C176.723 571.414 176.4 571.548 176.021 571.548C175.65 571.548 175.33 571.414 175.062 571.145C174.793 570.877 174.659 570.557 174.659 570.186C174.659 569.807 174.793 569.483 175.062 569.215C175.33 568.947 175.65 568.812 176.021 568.812ZM175.192 574.117H176.861V587H175.192V574.117ZM182.71 569.333H184.379V574.117H187.008V575.538H184.379V587H182.71V575.538H180.448V574.117H182.71V569.333ZM191.033 568.812C191.412 568.812 191.735 568.947 192.004 569.215C192.272 569.483 192.406 569.807 192.406 570.186C192.406 570.557 192.272 570.877 192.004 571.145C191.735 571.414 191.412 571.548 191.033 571.548C190.662 571.548 190.342 571.414 190.074 571.145C189.805 570.877 189.671 570.557 189.671 570.186C189.671 569.807 189.805 569.483 190.074 569.215C190.342 568.947 190.662 568.812 191.033 568.812ZM190.204 574.117H191.874V587H190.204V574.117ZM207.372 574.117H209.042V584.383C209.042 586.191 208.884 587.513 208.568 588.35C208.134 589.534 207.38 590.446 206.307 591.085C205.233 591.724 203.942 592.044 202.435 592.044C201.33 592.044 200.335 591.886 199.451 591.571C198.575 591.263 197.86 590.844 197.308 590.315C196.755 589.794 196.246 589.029 195.78 588.018H197.58C198.069 588.871 198.701 589.502 199.474 589.913C200.248 590.323 201.207 590.529 202.352 590.529C203.481 590.529 204.432 590.315 205.205 589.889C205.987 589.471 206.543 588.942 206.875 588.302C207.207 587.663 207.372 586.633 207.372 585.212V584.549C206.749 585.338 205.987 585.946 205.087 586.372C204.187 586.791 203.232 587 202.222 587C201.037 587 199.924 586.708 198.882 586.124C197.84 585.532 197.035 584.738 196.467 583.744C195.899 582.749 195.614 581.656 195.614 580.464C195.614 579.272 195.91 578.163 196.502 577.137C197.094 576.102 197.911 575.285 198.953 574.686C200.003 574.086 201.108 573.786 202.269 573.786C203.232 573.786 204.128 573.987 204.957 574.39C205.794 574.784 206.599 575.439 207.372 576.355V574.117ZM202.482 575.384C201.543 575.384 200.67 575.613 199.865 576.071C199.06 576.521 198.429 577.148 197.971 577.954C197.513 578.751 197.284 579.615 197.284 580.547C197.284 581.96 197.758 583.128 198.705 584.052C199.652 584.975 200.88 585.437 202.387 585.437C203.911 585.437 205.134 584.979 206.058 584.063C206.989 583.148 207.455 581.944 207.455 580.452C207.455 579.481 207.242 578.617 206.816 577.859C206.389 577.093 205.786 576.489 205.004 576.047C204.223 575.605 203.382 575.384 202.482 575.384ZM226.4 574.117V587H224.766V584.786C224.071 585.63 223.289 586.266 222.421 586.692C221.561 587.118 220.617 587.332 219.591 587.332C217.768 587.332 216.209 586.672 214.914 585.354C213.627 584.028 212.984 582.418 212.984 580.523C212.984 578.668 213.635 577.081 214.938 575.763C216.24 574.445 217.807 573.786 219.638 573.786C220.696 573.786 221.651 574.011 222.504 574.461C223.364 574.911 224.118 575.585 224.766 576.485V574.117H226.4ZM219.769 575.384C218.845 575.384 217.993 575.613 217.211 576.071C216.43 576.521 215.806 577.156 215.34 577.977C214.882 578.798 214.653 579.667 214.653 580.582C214.653 581.49 214.886 582.358 215.352 583.187C215.818 584.016 216.441 584.663 217.223 585.129C218.012 585.587 218.857 585.816 219.757 585.816C220.665 585.816 221.525 585.587 222.338 585.129C223.151 584.671 223.775 584.052 224.209 583.27C224.651 582.489 224.872 581.608 224.872 580.63C224.872 579.138 224.379 577.89 223.392 576.888C222.413 575.885 221.205 575.384 219.769 575.384ZM232.556 569.333H234.225V574.117H236.854V575.538H234.225V587H232.556V575.538H230.294V574.117H232.556V569.333ZM240.879 568.812C241.258 568.812 241.582 568.947 241.85 569.215C242.118 569.483 242.253 569.807 242.253 570.186C242.253 570.557 242.118 570.877 241.85 571.145C241.582 571.414 241.258 571.548 240.879 571.548C240.508 571.548 240.188 571.414 239.92 571.145C239.651 570.877 239.517 570.557 239.517 570.186C239.517 569.807 239.651 569.483 239.92 569.215C240.188 568.947 240.508 568.812 240.879 568.812ZM240.05 574.117H241.72V587H240.05V574.117ZM246.124 574.117H247.781V576.426C248.444 575.542 249.178 574.883 249.984 574.449C250.789 574.007 251.665 573.786 252.612 573.786C253.575 573.786 254.428 574.03 255.17 574.52C255.92 575.009 256.472 575.668 256.828 576.497C257.183 577.326 257.36 578.617 257.36 580.369V587H255.715V580.855C255.715 579.371 255.651 578.38 255.525 577.883C255.328 577.03 254.957 576.391 254.412 575.964C253.867 575.53 253.157 575.313 252.281 575.313C251.278 575.313 250.378 575.645 249.581 576.308C248.792 576.971 248.271 577.792 248.018 578.771C247.86 579.41 247.781 580.578 247.781 582.276V587H246.124V574.117ZM272.989 574.117H274.659V584.383C274.659 586.191 274.501 587.513 274.185 588.35C273.751 589.534 272.997 590.446 271.924 591.085C270.85 591.724 269.559 592.044 268.052 592.044C266.947 592.044 265.952 591.886 265.068 591.571C264.192 591.263 263.477 590.844 262.925 590.315C262.372 589.794 261.863 589.029 261.397 588.018H263.197C263.686 588.871 264.318 589.502 265.092 589.913C265.865 590.323 266.824 590.529 267.969 590.529C269.098 590.529 270.049 590.315 270.823 589.889C271.604 589.471 272.161 588.942 272.492 588.302C272.824 587.663 272.989 586.633 272.989 585.212V584.549C272.366 585.338 271.604 585.946 270.704 586.372C269.804 586.791 268.849 587 267.839 587C266.655 587 265.542 586.708 264.5 586.124C263.458 585.532 262.652 584.738 262.084 583.744C261.516 582.749 261.231 581.656 261.231 580.464C261.231 579.272 261.527 578.163 262.12 577.137C262.712 576.102 263.529 575.285 264.571 574.686C265.62 574.086 266.726 573.786 267.886 573.786C268.849 573.786 269.745 573.987 270.574 574.39C271.411 574.784 272.216 575.439 272.989 576.355V574.117ZM268.099 575.384C267.16 575.384 266.287 575.613 265.482 576.071C264.677 576.521 264.046 577.148 263.588 577.954C263.13 578.751 262.901 579.615 262.901 580.547C262.901 581.96 263.375 583.128 264.322 584.052C265.269 584.975 266.497 585.437 268.004 585.437C269.528 585.437 270.751 584.979 271.675 584.063C272.607 583.148 273.072 581.944 273.072 580.452C273.072 579.481 272.859 578.617 272.433 577.859C272.007 577.093 271.403 576.489 270.621 576.047C269.84 575.605 268.999 575.384 268.099 575.384ZM288.321 569.333H289.991V574.117H292.62V575.538H289.991V587H288.321V575.538H286.06V574.117H288.321V569.333ZM296.064 569.144H297.722V576.426C298.393 575.542 299.131 574.883 299.936 574.449C300.741 574.007 301.614 573.786 302.553 573.786C303.516 573.786 304.369 574.03 305.111 574.52C305.861 575.009 306.413 575.668 306.768 576.497C307.124 577.318 307.301 578.609 307.301 580.369V587H305.644V580.855C305.644 579.371 305.584 578.38 305.466 577.883C305.261 577.03 304.886 576.391 304.341 575.964C303.804 575.53 303.098 575.313 302.222 575.313C301.219 575.313 300.319 575.645 299.522 576.308C298.732 576.971 298.211 577.792 297.959 578.771C297.801 579.402 297.722 580.57 297.722 582.276V587H296.064V569.144ZM322.682 582.725L324.079 583.46C323.621 584.359 323.092 585.086 322.492 585.638C321.892 586.191 321.217 586.613 320.467 586.905C319.717 587.189 318.869 587.332 317.922 587.332C315.822 587.332 314.18 586.645 312.996 585.271C311.812 583.89 311.22 582.331 311.22 580.594C311.22 578.96 311.721 577.504 312.723 576.225C313.994 574.599 315.695 573.786 317.827 573.786C320.021 573.786 321.774 574.618 323.084 576.284C324.016 577.46 324.489 578.929 324.505 580.689H312.925C312.956 582.189 313.434 583.42 314.357 584.383C315.281 585.338 316.422 585.816 317.779 585.816C318.435 585.816 319.07 585.701 319.686 585.473C320.309 585.244 320.838 584.94 321.272 584.561C321.707 584.182 322.176 583.57 322.682 582.725ZM322.682 579.256C322.46 578.372 322.137 577.665 321.711 577.137C321.292 576.608 320.736 576.181 320.041 575.858C319.346 575.534 318.616 575.372 317.85 575.372C316.587 575.372 315.502 575.779 314.594 576.592C313.931 577.184 313.43 578.072 313.09 579.256H322.682ZM342.75 575.526L341.684 576.627C340.8 575.767 339.936 575.337 339.091 575.337C338.554 575.337 338.092 575.514 337.706 575.87C337.327 576.225 337.137 576.639 337.137 577.113C337.137 577.531 337.295 577.93 337.611 578.309C337.927 578.696 338.59 579.15 339.6 579.671C340.832 580.31 341.668 580.926 342.11 581.518C342.545 582.118 342.762 582.793 342.762 583.542C342.762 584.6 342.391 585.496 341.649 586.23C340.907 586.964 339.979 587.332 338.866 587.332C338.124 587.332 337.414 587.17 336.735 586.846C336.064 586.522 335.507 586.076 335.065 585.508L336.107 584.324C336.952 585.279 337.848 585.757 338.795 585.757C339.458 585.757 340.022 585.544 340.488 585.117C340.954 584.691 341.187 584.19 341.187 583.614C341.187 583.14 341.033 582.718 340.725 582.347C340.417 581.983 339.723 581.526 338.641 580.973C337.481 580.373 336.691 579.781 336.273 579.197C335.855 578.613 335.645 577.946 335.645 577.196C335.645 576.217 335.977 575.404 336.64 574.757C337.311 574.109 338.156 573.786 339.174 573.786C340.358 573.786 341.55 574.366 342.75 575.526ZM348.113 569.333H349.782V574.117H352.411V575.538H349.782V587H348.113V575.538H345.851V574.117H348.113V569.333ZM355.228 574.117H356.921V576C357.427 575.258 357.959 574.705 358.52 574.342C359.08 573.971 359.665 573.786 360.272 573.786C360.73 573.786 361.22 573.932 361.741 574.224L360.876 575.621C360.529 575.471 360.237 575.396 360 575.396C359.447 575.396 358.915 575.625 358.401 576.083C357.888 576.533 357.498 577.235 357.229 578.19C357.024 578.925 356.921 580.409 356.921 582.643V587H355.228V574.117ZM374.966 582.725L376.363 583.46C375.905 584.359 375.376 585.086 374.776 585.638C374.176 586.191 373.502 586.613 372.752 586.905C372.002 587.189 371.153 587.332 370.206 587.332C368.106 587.332 366.464 586.645 365.28 585.271C364.096 583.89 363.504 582.331 363.504 580.594C363.504 578.96 364.005 577.504 365.008 576.225C366.279 574.599 367.98 573.786 370.111 573.786C372.306 573.786 374.058 574.618 375.368 576.284C376.3 577.46 376.774 578.929 376.789 580.689H365.209C365.241 582.189 365.718 583.42 366.642 584.383C367.565 585.338 368.706 585.816 370.064 585.816C370.719 585.816 371.354 585.701 371.97 585.473C372.594 585.244 373.123 584.94 373.557 584.561C373.991 584.182 374.461 583.57 374.966 582.725ZM374.966 579.256C374.745 578.372 374.421 577.665 373.995 577.137C373.577 576.608 373.02 576.181 372.325 575.858C371.631 575.534 370.901 575.372 370.135 575.372C368.872 575.372 367.786 575.779 366.879 576.592C366.215 577.184 365.714 578.072 365.375 579.256H374.966ZM387.339 575.526L386.273 576.627C385.389 575.767 384.524 575.337 383.68 575.337C383.143 575.337 382.681 575.514 382.294 575.87C381.915 576.225 381.726 576.639 381.726 577.113C381.726 577.531 381.884 577.93 382.2 578.309C382.515 578.696 383.178 579.15 384.189 579.671C385.42 580.31 386.257 580.926 386.699 581.518C387.133 582.118 387.35 582.793 387.35 583.542C387.35 584.6 386.979 585.496 386.237 586.23C385.495 586.964 384.568 587.332 383.455 587.332C382.713 587.332 382.002 587.17 381.323 586.846C380.652 586.522 380.096 586.076 379.654 585.508L380.696 584.324C381.541 585.279 382.436 585.757 383.384 585.757C384.047 585.757 384.611 585.544 385.077 585.117C385.543 584.691 385.776 584.19 385.776 583.614C385.776 583.14 385.622 582.718 385.314 582.347C385.006 581.983 384.311 581.526 383.23 580.973C382.069 580.373 381.28 579.781 380.862 579.197C380.443 578.613 380.234 577.946 380.234 577.196C380.234 576.217 380.566 575.404 381.229 574.757C381.9 574.109 382.744 573.786 383.763 573.786C384.947 573.786 386.139 574.366 387.339 575.526ZM397.734 575.526L396.668 576.627C395.784 575.767 394.92 575.337 394.075 575.337C393.538 575.337 393.076 575.514 392.69 575.87C392.311 576.225 392.121 576.639 392.121 577.113C392.121 577.531 392.279 577.93 392.595 578.309C392.911 578.696 393.574 579.15 394.584 579.671C395.816 580.31 396.652 580.926 397.094 581.518C397.529 582.118 397.746 582.793 397.746 583.542C397.746 584.6 397.375 585.496 396.633 586.23C395.891 586.964 394.963 587.332 393.85 587.332C393.108 587.332 392.398 587.17 391.719 586.846C391.048 586.522 390.491 586.076 390.049 585.508L391.091 584.324C391.936 585.279 392.832 585.757 393.779 585.757C394.442 585.757 395.007 585.544 395.472 585.117C395.938 584.691 396.171 584.19 396.171 583.614C396.171 583.14 396.017 582.718 395.709 582.347C395.401 581.983 394.707 581.526 393.625 580.973C392.465 580.373 391.675 579.781 391.257 579.197C390.839 578.613 390.629 577.946 390.629 577.196C390.629 576.217 390.961 575.404 391.624 574.757C392.295 574.109 393.14 573.786 394.158 573.786C395.342 573.786 396.534 574.366 397.734 575.526ZM415.446 573.786C417.427 573.786 419.069 574.504 420.372 575.941C421.556 577.251 422.148 578.802 422.148 580.594C422.148 582.394 421.52 583.969 420.265 585.319C419.018 586.661 417.411 587.332 415.446 587.332C413.472 587.332 411.858 586.661 410.603 585.319C409.356 583.969 408.732 582.394 408.732 580.594C408.732 578.81 409.324 577.263 410.508 575.953C411.811 574.508 413.457 573.786 415.446 573.786ZM415.446 575.408C414.072 575.408 412.892 575.917 411.905 576.935C410.919 577.954 410.425 579.185 410.425 580.63C410.425 581.561 410.65 582.429 411.1 583.235C411.55 584.04 412.158 584.663 412.924 585.105C413.689 585.54 414.53 585.757 415.446 585.757C416.362 585.757 417.202 585.54 417.968 585.105C418.734 584.663 419.341 584.04 419.791 583.235C420.241 582.429 420.466 581.561 420.466 580.63C420.466 579.185 419.969 577.954 418.974 576.935C417.988 575.917 416.811 575.408 415.446 575.408ZM431.513 569.144V570.766C430.905 570.506 430.384 570.375 429.95 570.375C429.626 570.375 429.358 570.443 429.145 570.577C428.932 570.703 428.797 570.853 428.742 571.027C428.687 571.193 428.659 571.642 428.659 572.377V574.117H431.347V575.538H428.647V587H426.99V575.538H425.296V574.117H426.99V572.104C426.99 571.181 427.073 570.522 427.238 570.127C427.412 569.732 427.7 569.416 428.103 569.18C428.513 568.935 429.007 568.812 429.583 568.812C430.12 568.812 430.763 568.923 431.513 569.144ZM441.872 574.117H443.565V576C444.07 575.258 444.603 574.705 445.163 574.342C445.724 573.971 446.308 573.786 446.916 573.786C447.374 573.786 447.863 573.932 448.384 574.224L447.52 575.621C447.172 575.471 446.88 575.396 446.644 575.396C446.091 575.396 445.558 575.625 445.045 576.083C444.532 576.533 444.141 577.235 443.873 578.19C443.668 578.925 443.565 580.409 443.565 582.643V587H441.872V574.117ZM461.609 582.725L463.007 583.46C462.549 584.359 462.02 585.086 461.42 585.638C460.82 586.191 460.145 586.613 459.395 586.905C458.645 587.189 457.797 587.332 456.849 587.332C454.75 587.332 453.108 586.645 451.924 585.271C450.74 583.89 450.147 582.331 450.147 580.594C450.147 578.96 450.649 577.504 451.651 576.225C452.922 574.599 454.623 573.786 456.755 573.786C458.949 573.786 460.702 574.618 462.012 576.284C462.943 577.46 463.417 578.929 463.433 580.689H451.853C451.884 582.189 452.362 583.42 453.285 584.383C454.209 585.338 455.35 585.816 456.707 585.816C457.362 585.816 457.998 585.701 458.614 585.473C459.237 585.244 459.766 584.94 460.2 584.561C460.635 584.182 461.104 583.57 461.609 582.725ZM461.609 579.256C461.388 578.372 461.065 577.665 460.638 577.137C460.22 576.608 459.664 576.181 458.969 575.858C458.274 575.534 457.544 575.372 456.778 575.372C455.515 575.372 454.43 575.779 453.522 576.592C452.859 577.184 452.358 578.072 452.018 579.256H461.609ZM467.257 569.144H468.914V587H467.257V569.144ZM479.428 573.786C481.409 573.786 483.051 574.504 484.354 575.941C485.538 577.251 486.13 578.802 486.13 580.594C486.13 582.394 485.502 583.969 484.247 585.319C483 586.661 481.394 587.332 479.428 587.332C477.454 587.332 475.84 586.661 474.585 585.319C473.338 583.969 472.714 582.394 472.714 580.594C472.714 578.81 473.306 577.263 474.49 575.953C475.793 574.508 477.439 573.786 479.428 573.786ZM479.428 575.408C478.054 575.408 476.874 575.917 475.888 576.935C474.901 577.954 474.407 579.185 474.407 580.63C474.407 581.561 474.632 582.429 475.082 583.235C475.532 584.04 476.14 584.663 476.906 585.105C477.672 585.54 478.512 585.757 479.428 585.757C480.344 585.757 481.184 585.54 481.95 585.105C482.716 584.663 483.324 584.04 483.774 583.235C484.223 582.429 484.448 581.561 484.448 580.63C484.448 579.185 483.951 577.954 482.957 576.935C481.97 575.917 480.794 575.408 479.428 575.408ZM502.694 576.793L501.38 577.61C500.243 576.102 498.692 575.349 496.726 575.349C495.156 575.349 493.849 575.854 492.807 576.864C491.773 577.875 491.256 579.102 491.256 580.547C491.256 581.486 491.493 582.37 491.966 583.199C492.448 584.028 493.103 584.671 493.932 585.129C494.769 585.587 495.704 585.816 496.738 585.816C498.633 585.816 500.18 585.062 501.38 583.554L502.694 584.419C502.078 585.342 501.25 586.061 500.208 586.574C499.174 587.079 497.993 587.332 496.667 587.332C494.631 587.332 492.941 586.684 491.599 585.39C490.257 584.095 489.586 582.52 489.586 580.665C489.586 579.418 489.898 578.261 490.522 577.196C491.153 576.122 492.018 575.285 493.115 574.686C494.212 574.086 495.44 573.786 496.797 573.786C497.65 573.786 498.471 573.916 499.26 574.176C500.058 574.437 500.733 574.776 501.285 575.195C501.838 575.613 502.307 576.146 502.694 576.793ZM519.697 574.117V587H518.063V584.786C517.368 585.63 516.586 586.266 515.718 586.692C514.858 587.118 513.914 587.332 512.888 587.332C511.065 587.332 509.506 586.672 508.211 585.354C506.924 584.028 506.281 582.418 506.281 580.523C506.281 578.668 506.932 577.081 508.235 575.763C509.537 574.445 511.104 573.786 512.936 573.786C513.993 573.786 514.949 574.011 515.801 574.461C516.661 574.911 517.415 575.585 518.063 576.485V574.117H519.697ZM513.066 575.384C512.142 575.384 511.29 575.613 510.508 576.071C509.727 576.521 509.103 577.156 508.637 577.977C508.18 578.798 507.951 579.667 507.951 580.582C507.951 581.49 508.183 582.358 508.649 583.187C509.115 584.016 509.739 584.663 510.52 585.129C511.309 585.587 512.154 585.816 513.054 585.816C513.962 585.816 514.822 585.587 515.635 585.129C516.448 584.671 517.072 584.052 517.506 583.27C517.948 582.489 518.169 581.608 518.169 580.63C518.169 579.138 517.676 577.89 516.689 576.888C515.71 575.885 514.503 575.384 513.066 575.384ZM525.853 569.333H527.523V574.117H530.151V575.538H527.523V587H525.853V575.538H523.591V574.117H525.853V569.333ZM534.176 568.812C534.555 568.812 534.879 568.947 535.147 569.215C535.415 569.483 535.55 569.807 535.55 570.186C535.55 570.557 535.415 570.877 535.147 571.145C534.879 571.414 534.555 571.548 534.176 571.548C533.805 571.548 533.485 571.414 533.217 571.145C532.949 570.877 532.814 570.557 532.814 570.186C532.814 569.807 532.949 569.483 533.217 569.215C533.485 568.947 533.805 568.812 534.176 568.812ZM533.347 574.117H535.017V587H533.347V574.117ZM539.421 574.117H541.078V576.426C541.741 575.542 542.476 574.883 543.281 574.449C544.086 574.007 544.962 573.786 545.909 573.786C546.872 573.786 547.725 574.03 548.467 574.52C549.217 575.009 549.77 575.668 550.125 576.497C550.48 577.326 550.658 578.617 550.658 580.369V587H549.012V580.855C549.012 579.371 548.949 578.38 548.822 577.883C548.625 577.03 548.254 576.391 547.709 575.964C547.165 575.53 546.454 575.313 545.578 575.313C544.575 575.313 543.675 575.645 542.878 576.308C542.089 576.971 541.568 577.792 541.315 578.771C541.157 579.41 541.078 580.578 541.078 582.276V587H539.421V574.117ZM566.287 574.117H567.956V584.383C567.956 586.191 567.798 587.513 567.482 588.35C567.048 589.534 566.294 590.446 565.221 591.085C564.147 591.724 562.857 592.044 561.349 592.044C560.244 592.044 559.249 591.886 558.365 591.571C557.489 591.263 556.774 590.844 556.222 590.315C555.669 589.794 555.16 589.029 554.694 588.018H556.494C556.984 588.871 557.615 589.502 558.389 589.913C559.162 590.323 560.121 590.529 561.266 590.529C562.395 590.529 563.346 590.315 564.12 589.889C564.901 589.471 565.458 588.942 565.789 588.302C566.121 587.663 566.287 586.633 566.287 585.212V584.549C565.663 585.338 564.901 585.946 564.001 586.372C563.101 586.791 562.146 587 561.136 587C559.952 587 558.839 586.708 557.797 586.124C556.755 585.532 555.949 584.738 555.381 583.744C554.813 582.749 554.529 581.656 554.529 580.464C554.529 579.272 554.825 578.163 555.417 577.137C556.009 576.102 556.826 575.285 557.868 574.686C558.918 574.086 560.023 573.786 561.183 573.786C562.146 573.786 563.042 573.987 563.871 574.39C564.708 574.784 565.513 575.439 566.287 576.355V574.117ZM561.396 575.384C560.457 575.384 559.585 575.613 558.779 576.071C557.974 576.521 557.343 577.148 556.885 577.954C556.427 578.751 556.198 579.615 556.198 580.547C556.198 581.96 556.672 583.128 557.619 584.052C558.566 584.975 559.794 585.437 561.302 585.437C562.825 585.437 564.049 584.979 564.972 584.063C565.904 583.148 566.369 581.944 566.369 580.452C566.369 579.481 566.156 578.617 565.73 577.859C565.304 577.093 564.7 576.489 563.918 576.047C563.137 575.605 562.296 575.384 561.396 575.384Z" fill="white"/>
</svg>
