<svg width="1080" height="445" viewBox="0 0 1080 445" fill="none" xmlns="http://www.w3.org/2000/svg">
<rect width="1080" height="445" fill="#F4F4F4"/>
<path d="M723.4 347V326.54H725.65V335.39H736.45V326.54H738.7V347H736.45V337.25H725.65V347H723.4ZM749.408 347.48C748.068 347.48 746.868 347.16 745.808 346.52C744.748 345.88 743.918 344.99 743.318 343.85C742.718 342.69 742.418 341.39 742.418 339.95C742.418 338.51 742.708 337.23 743.288 336.11C743.888 334.97 744.708 334.08 745.748 333.44C746.808 332.8 748.008 332.48 749.348 332.48C750.688 332.48 751.888 332.8 752.948 333.44C754.008 334.08 754.838 334.97 755.438 336.11C756.038 337.25 756.338 338.54 756.338 339.98C756.338 341.42 756.038 342.71 755.438 343.85C754.858 344.99 754.038 345.88 752.978 346.52C751.938 347.16 750.748 347.48 749.408 347.48ZM749.348 345.62C750.308 345.62 751.158 345.38 751.898 344.9C752.658 344.42 753.248 343.75 753.668 342.89C754.088 342.03 754.298 341.06 754.298 339.98C754.298 338.9 754.088 337.93 753.668 337.07C753.248 336.21 752.658 335.54 751.898 335.06C751.158 334.58 750.308 334.34 749.348 334.34C748.408 334.34 747.568 334.58 746.828 335.06C746.088 335.54 745.508 336.21 745.088 337.07C744.668 337.91 744.458 338.87 744.458 339.95C744.458 341.05 744.668 342.03 745.088 342.89C745.508 343.75 746.088 344.42 746.828 344.9C747.568 345.38 748.408 345.62 749.348 345.62ZM771.855 332.96V347H769.815V344.66C769.335 345.56 768.695 346.26 767.895 346.76C767.115 347.24 766.205 347.48 765.165 347.48C764.185 347.48 763.275 347.28 762.435 346.88C761.615 346.48 760.955 345.89 760.455 345.11C759.975 344.33 759.735 343.41 759.735 342.35V332.96H761.775V341.45C761.775 344.23 763.015 345.62 765.495 345.62C766.935 345.62 768.015 345.11 768.735 344.09C769.455 343.07 769.815 341.7 769.815 339.98V332.96H771.855ZM780.888 347.48C779.528 347.48 778.328 347.19 777.288 346.61C776.268 346.03 775.488 345.21 774.948 344.15L776.778 343.25C777.518 344.83 778.968 345.62 781.128 345.62C782.168 345.62 783.028 345.43 783.708 345.05C784.388 344.67 784.728 344.08 784.728 343.28C784.728 342.46 784.448 341.85 783.888 341.45C783.348 341.05 782.388 340.79 781.008 340.67C779.088 340.51 777.708 340.08 776.868 339.38C776.048 338.68 775.638 337.75 775.638 336.59C775.638 335.29 776.108 334.28 777.048 333.56C777.988 332.84 779.278 332.48 780.918 332.48C783.698 332.48 785.588 333.58 786.588 335.78L784.758 336.68C784.418 335.88 783.918 335.29 783.258 334.91C782.618 334.53 781.788 334.34 780.768 334.34C779.728 334.34 778.928 334.53 778.368 334.91C777.828 335.29 777.558 335.83 777.558 336.53C777.558 337.19 777.848 337.73 778.428 338.15C779.028 338.55 780.048 338.81 781.488 338.93C783.268 339.09 784.588 339.53 785.448 340.25C786.328 340.95 786.768 341.88 786.768 343.04C786.768 343.98 786.498 344.79 785.958 345.47C785.418 346.13 784.698 346.63 783.798 346.97C782.898 347.31 781.928 347.48 780.888 347.48ZM791.264 347V332.96H793.304V347H791.264ZM792.284 330.23C791.824 330.23 791.434 330.07 791.114 329.75C790.814 329.43 790.664 329.04 790.664 328.58C790.664 328.14 790.814 327.77 791.114 327.47C791.434 327.15 791.824 326.99 792.284 326.99C792.724 326.99 793.104 327.15 793.424 327.47C793.744 327.77 793.904 328.15 793.904 328.61C793.904 329.05 793.744 329.43 793.424 329.75C793.104 330.07 792.724 330.23 792.284 330.23ZM805.172 332.48C806.152 332.48 807.052 332.68 807.872 333.08C808.712 333.48 809.372 334.07 809.852 334.85C810.352 335.63 810.602 336.55 810.602 337.61V347H808.562V338.51C808.562 335.73 807.322 334.34 804.842 334.34C803.402 334.34 802.322 334.85 801.602 335.87C800.882 336.89 800.522 338.26 800.522 339.98V347H798.482V332.96H800.522V335.3C801.002 334.4 801.632 333.71 802.412 333.23C803.212 332.73 804.132 332.48 805.172 332.48ZM827.945 332.96V346.46C827.945 347.72 827.685 348.84 827.165 349.82C826.645 350.82 825.915 351.6 824.975 352.16C824.035 352.72 822.965 353 821.765 353H815.945V351.14H821.765C822.985 351.14 823.975 350.7 824.735 349.82C825.515 348.94 825.905 347.82 825.905 346.46V344.93C825.325 345.73 824.615 346.36 823.775 346.82C822.935 347.26 822.015 347.48 821.015 347.48C819.675 347.48 818.475 347.16 817.415 346.52C816.355 345.88 815.525 344.99 814.925 343.85C814.325 342.71 814.025 341.41 814.025 339.95C814.025 338.51 814.315 337.23 814.895 336.11C815.495 334.97 816.315 334.08 817.355 333.44C818.415 332.8 819.615 332.48 820.955 332.48C821.975 332.48 822.905 332.71 823.745 333.17C824.605 333.61 825.325 334.24 825.905 335.06V332.96H827.945ZM820.955 345.62C821.915 345.62 822.765 345.38 823.505 344.9C824.265 344.42 824.855 343.75 825.275 342.89C825.695 342.03 825.905 341.06 825.905 339.98C825.905 338.9 825.695 337.93 825.275 337.07C824.855 336.21 824.265 335.54 823.505 335.06C822.765 334.58 821.915 334.34 820.955 334.34C820.015 334.34 819.175 334.58 818.435 335.06C817.695 335.54 817.115 336.21 816.695 337.07C816.275 337.91 816.065 338.87 816.065 339.95C816.065 341.05 816.275 342.03 816.695 342.89C817.115 343.75 817.695 344.42 818.435 344.9C819.175 345.38 820.015 345.62 820.955 345.62Z" fill="#1A1A1A"/>
<path d="M272.868 113.54H275.388V134H273.168V117.65L266.328 134H264.228L257.688 117.71V134H255.438V113.54H258.198L265.368 131.48L272.868 113.54ZM293.034 119.96V134H290.994V131.93C290.414 132.73 289.704 133.36 288.864 133.82C288.024 134.26 287.104 134.48 286.104 134.48C284.764 134.48 283.564 134.16 282.504 133.52C281.444 132.88 280.614 131.99 280.014 130.85C279.414 129.71 279.114 128.41 279.114 126.95C279.114 125.51 279.404 124.23 279.984 123.11C280.584 121.97 281.404 121.08 282.444 120.44C283.504 119.8 284.704 119.48 286.044 119.48C287.064 119.48 287.994 119.71 288.834 120.17C289.694 120.61 290.414 121.24 290.994 122.06V119.96H293.034ZM286.044 132.62C287.004 132.62 287.854 132.38 288.594 131.9C289.354 131.42 289.944 130.75 290.364 129.89C290.784 129.03 290.994 128.06 290.994 126.98C290.994 125.9 290.784 124.93 290.364 124.07C289.944 123.21 289.354 122.54 288.594 122.06C287.854 121.58 287.004 121.34 286.044 121.34C285.104 121.34 284.264 121.58 283.524 122.06C282.784 122.54 282.204 123.21 281.784 124.07C281.364 124.91 281.154 125.87 281.154 126.95C281.154 128.05 281.364 129.03 281.784 129.89C282.204 130.75 282.784 131.42 283.524 131.9C284.264 132.38 285.104 132.62 286.044 132.62ZM304.06 119.48C305.4 119.48 306.6 119.8 307.66 120.44C308.72 121.08 309.55 121.97 310.15 123.11C310.75 124.25 311.05 125.55 311.05 127.01C311.05 128.45 310.75 129.74 310.15 130.88C309.57 132 308.75 132.88 307.69 133.52C306.65 134.16 305.46 134.48 304.12 134.48C303.1 134.48 302.16 134.26 301.3 133.82C300.46 133.36 299.75 132.72 299.17 131.9V140H297.13V119.96H299.17V122.03C299.75 121.23 300.46 120.61 301.3 120.17C302.14 119.71 303.06 119.48 304.06 119.48ZM304.12 132.62C305.06 132.62 305.9 132.38 306.64 131.9C307.38 131.42 307.96 130.76 308.38 129.92C308.8 129.06 309.01 128.09 309.01 127.01C309.01 125.91 308.8 124.93 308.38 124.07C307.96 123.21 307.38 122.54 306.64 122.06C305.9 121.58 305.06 121.34 304.12 121.34C303.16 121.34 302.3 121.58 301.54 122.06C300.8 122.54 300.22 123.21 299.8 124.07C299.38 124.93 299.17 125.9 299.17 126.98C299.17 128.06 299.38 129.03 299.8 129.89C300.22 130.75 300.8 131.42 301.54 131.9C302.3 132.38 303.16 132.62 304.12 132.62ZM321.177 119.48C322.517 119.48 323.717 119.8 324.777 120.44C325.837 121.08 326.667 121.97 327.267 123.11C327.867 124.25 328.167 125.55 328.167 127.01C328.167 128.45 327.867 129.74 327.267 130.88C326.687 132 325.867 132.88 324.807 133.52C323.767 134.16 322.577 134.48 321.237 134.48C320.217 134.48 319.277 134.26 318.417 133.82C317.577 133.36 316.867 132.72 316.287 131.9V140H314.247V119.96H316.287V122.03C316.867 121.23 317.577 120.61 318.417 120.17C319.257 119.71 320.177 119.48 321.177 119.48ZM321.237 132.62C322.177 132.62 323.017 132.38 323.757 131.9C324.497 131.42 325.077 130.76 325.497 129.92C325.917 129.06 326.127 128.09 326.127 127.01C326.127 125.91 325.917 124.93 325.497 124.07C325.077 123.21 324.497 122.54 323.757 122.06C323.017 121.58 322.177 121.34 321.237 121.34C320.277 121.34 319.417 121.58 318.657 122.06C317.917 122.54 317.337 123.21 316.917 124.07C316.497 124.93 316.287 125.9 316.287 126.98C316.287 128.06 316.497 129.03 316.917 129.89C317.337 130.75 317.917 131.42 318.657 131.9C319.417 132.38 320.277 132.62 321.237 132.62ZM332.443 134V119.96H334.483V134H332.443ZM333.463 117.23C333.003 117.23 332.613 117.07 332.293 116.75C331.993 116.43 331.843 116.04 331.843 115.58C331.843 115.14 331.993 114.77 332.293 114.47C332.613 114.15 333.003 113.99 333.463 113.99C333.903 113.99 334.283 114.15 334.603 114.47C334.923 114.77 335.083 115.15 335.083 115.61C335.083 116.05 334.923 116.43 334.603 116.75C334.283 117.07 333.903 117.23 333.463 117.23ZM346.35 119.48C347.33 119.48 348.23 119.68 349.05 120.08C349.89 120.48 350.55 121.07 351.03 121.85C351.53 122.63 351.78 123.55 351.78 124.61V134H349.74V125.51C349.74 122.73 348.5 121.34 346.02 121.34C344.58 121.34 343.5 121.85 342.78 122.87C342.06 123.89 341.7 125.26 341.7 126.98V134H339.66V119.96H341.7V122.3C342.18 121.4 342.81 120.71 343.59 120.23C344.39 119.73 345.31 119.48 346.35 119.48ZM369.124 119.96V133.46C369.124 134.72 368.864 135.84 368.344 136.82C367.824 137.82 367.094 138.6 366.154 139.16C365.214 139.72 364.144 140 362.944 140H357.124V138.14H362.944C364.164 138.14 365.154 137.7 365.914 136.82C366.694 135.94 367.084 134.82 367.084 133.46V131.93C366.504 132.73 365.794 133.36 364.954 133.82C364.114 134.26 363.194 134.48 362.194 134.48C360.854 134.48 359.654 134.16 358.594 133.52C357.534 132.88 356.704 131.99 356.104 130.85C355.504 129.71 355.204 128.41 355.204 126.95C355.204 125.51 355.494 124.23 356.074 123.11C356.674 121.97 357.494 121.08 358.534 120.44C359.594 119.8 360.794 119.48 362.134 119.48C363.154 119.48 364.084 119.71 364.924 120.17C365.784 120.61 366.504 121.24 367.084 122.06V119.96H369.124ZM362.134 132.62C363.094 132.62 363.944 132.38 364.684 131.9C365.444 131.42 366.034 130.75 366.454 129.89C366.874 129.03 367.084 128.06 367.084 126.98C367.084 125.9 366.874 124.93 366.454 124.07C366.034 123.21 365.444 122.54 364.684 122.06C363.944 121.58 363.094 121.34 362.134 121.34C361.194 121.34 360.354 121.58 359.614 122.06C358.874 122.54 358.294 123.21 357.874 124.07C357.454 124.91 357.244 125.87 357.244 126.95C357.244 128.05 357.454 129.03 357.874 129.89C358.294 130.75 358.874 131.42 359.614 131.9C360.354 132.38 361.194 132.62 362.134 132.62Z" fill="#1A1A1A"/>
<rect x="624" y="336" width="91" height="1" fill="#1A1A1A"/>
<circle cx="624.5" cy="336.5" r="1.5" fill="#1A1A1A"/>
<circle cx="464.5" cy="123.5" r="1.5" fill="#1A1A1A"/>
<rect x="380" y="123" width="85" height="1" fill="#1A1A1A"/>
<path d="M534.406 244.241V400.796H615V338.961L534.406 244.241Z" fill="#A7A7A7"/>
<path d="M555.613 346.502H589.37L572.491 326.665L555.613 306.828V346.502Z" fill="#F4F4F4"/>
<rect x="555.611" y="373.189" width="17.5277" height="28.4202" fill="#F4F4F4"/>
<circle cx="529.852" cy="102.903" r="57.9032" fill="#A7A7A7"/>
<path d="M534.484 240.713L477.702 128.095C471.876 116.542 480.274 102.904 493.213 102.904H534.484V240.713Z" fill="#A7A7A7"/>
<circle cx="529.852" cy="102.903" r="31.2677" fill="#F4F4F4"/>
</svg>
