<svg width="1440" height="1920" viewBox="0 0 1440 1920" fill="none" xmlns="http://www.w3.org/2000/svg">
<rect width="1440" height="1920" fill="#202020"/>
<path d="M706.633 537.26V827.409H856V712.809L706.633 537.26Z" fill="#E65100"/>
<path d="M745.936 726.784H808.499L777.218 690.02L745.936 653.255V726.784Z" fill="#202020"/>
<rect x="745.933" y="776.243" width="32.4847" height="52" fill="#202020"/>
<circle cx="698.192" cy="275.314" r="107.314" fill="#2196F3"/>
<path d="M706.777 530.722L601.54 322.003C590.744 300.591 606.307 275.314 630.287 275.314H706.777V530.722Z" fill="#2196F3"/>
<circle cx="698.192" cy="275.314" r="57.9495" fill="#202020"/>
<path d="M308.789 995.405H327.484C337.597 995.405 344.878 996.349 349.326 998.238C353.817 1000.08 357.342 1003.11 359.902 1007.3C362.503 1011.46 363.804 1016.45 363.804 1022.28C363.804 1028.75 362.105 1034.12 358.706 1038.4C355.348 1042.68 350.774 1045.66 344.983 1047.34C341.584 1048.3 335.394 1048.78 326.414 1048.78V1088H308.789V995.405ZM326.414 1031.6H332.016C336.422 1031.6 339.486 1031.28 341.206 1030.66C342.927 1030.03 344.27 1029 345.235 1027.57C346.242 1026.1 346.746 1024.34 346.746 1022.28C346.746 1018.72 345.361 1016.11 342.591 1014.48C340.577 1013.26 336.842 1012.65 331.387 1012.65H326.414V1031.6ZM375.198 1019.51H389.927V1028.14C391.522 1024.74 393.641 1022.16 396.285 1020.39C398.929 1018.63 401.824 1017.75 404.972 1017.75C407.196 1017.75 409.525 1018.34 411.959 1019.51L406.608 1034.31C404.594 1033.3 402.936 1032.8 401.635 1032.8C398.992 1032.8 396.747 1034.43 394.9 1037.71C393.096 1040.98 392.193 1047.4 392.193 1056.97L392.256 1060.3V1088H375.198V1019.51ZM452.685 1017.75C459.148 1017.75 465.212 1019.37 470.877 1022.6C476.584 1025.83 481.033 1030.21 484.222 1035.75C487.411 1041.29 489.006 1047.27 489.006 1053.69C489.006 1060.16 487.39 1066.2 484.159 1071.82C480.97 1077.45 476.605 1081.85 471.066 1085.04C465.527 1088.19 459.421 1089.76 452.748 1089.76C442.929 1089.76 434.536 1086.28 427.57 1079.31C420.645 1072.31 417.183 1063.81 417.183 1053.82C417.183 1043.12 421.107 1034.2 428.954 1027.07C435.837 1020.86 443.747 1017.75 452.685 1017.75ZM452.937 1033.93C447.608 1033.93 443.159 1035.8 439.592 1039.53C436.067 1043.22 434.305 1047.97 434.305 1053.76C434.305 1059.72 436.046 1064.54 439.53 1068.23C443.055 1071.93 447.503 1073.77 452.874 1073.77C458.246 1073.77 462.715 1071.91 466.282 1068.17C469.849 1064.44 471.633 1059.63 471.633 1053.76C471.633 1047.88 469.87 1043.12 466.345 1039.47C462.862 1035.77 458.393 1033.93 452.937 1033.93ZM511.163 991.313C514.227 991.313 516.829 992.404 518.969 994.587C521.151 996.769 522.242 999.413 522.242 1002.52C522.242 1005.58 521.172 1008.2 519.032 1010.39C516.891 1012.57 514.332 1013.66 511.352 1013.66C508.289 1013.66 505.666 1012.55 503.484 1010.32C501.344 1008.1 500.273 1005.41 500.273 1002.27C500.273 999.245 501.323 996.664 503.421 994.524C505.561 992.383 508.142 991.313 511.163 991.313ZM502.602 1019.51H519.787V1090.27C519.787 1096.77 519.137 1101.62 517.836 1104.81C516.577 1108.04 514.562 1110.51 511.793 1112.23C509.023 1113.96 505.687 1114.82 501.784 1114.82C498.343 1114.82 494.063 1113.96 488.943 1112.23V1098.7C491.629 1100 494 1100.65 496.056 1100.65C498.238 1100.65 499.875 1100 500.966 1098.7C502.057 1097.4 502.602 1095.01 502.602 1091.53V1019.51ZM605.206 1058.73H550.002C550.799 1063.6 552.918 1067.48 556.359 1070.37C559.842 1073.23 564.27 1074.66 569.641 1074.66C576.062 1074.66 581.58 1072.41 586.196 1067.92L600.674 1074.72C597.065 1079.84 592.743 1083.64 587.707 1086.11C582.671 1088.55 576.691 1089.76 569.767 1089.76C559.024 1089.76 550.274 1086.38 543.518 1079.63C536.762 1072.83 533.384 1064.33 533.384 1054.13C533.384 1043.69 536.741 1035.02 543.455 1028.14C550.211 1021.21 558.667 1017.75 568.823 1017.75C579.608 1017.75 588.378 1021.21 595.135 1028.14C601.891 1035.02 605.269 1044.13 605.269 1055.46L605.206 1058.73ZM587.959 1045.2C586.826 1041.38 584.58 1038.27 581.223 1035.88C577.908 1033.49 574.047 1032.29 569.641 1032.29C564.857 1032.29 560.661 1033.63 557.052 1036.32C554.786 1038 552.687 1040.96 550.757 1045.2H587.959ZM686.219 1033.36L671.93 1041.23C669.244 1038.42 666.579 1036.47 663.936 1035.38C661.334 1034.29 658.27 1033.74 654.745 1033.74C648.325 1033.74 643.121 1035.67 639.135 1039.53C635.19 1043.35 633.218 1048.26 633.218 1054.26C633.218 1060.09 635.127 1064.86 638.946 1068.55C642.765 1072.24 647.779 1074.09 653.99 1074.09C661.67 1074.09 667.65 1071.47 671.93 1066.22L685.464 1075.47C678.12 1085 667.755 1089.76 654.368 1089.76C642.324 1089.76 632.882 1086.2 626.042 1079.06C619.243 1071.93 615.844 1063.58 615.844 1054.01C615.844 1047.38 617.502 1041.27 620.817 1035.69C624.132 1030.11 628.748 1025.72 634.665 1022.54C640.624 1019.35 647.276 1017.75 654.62 1017.75C661.418 1017.75 667.524 1019.11 672.937 1021.84C678.351 1024.53 682.778 1028.37 686.219 1033.36ZM703.844 994.272H720.966V1019.51H731.163V1034.31H720.966V1088H703.844V1034.31H695.032V1019.51H703.844V994.272Z" fill="#2196F3"/>
<path d="M806.637 995.405H824.514L860.142 1088H841.824L834.585 1068.93H796.817L789.263 1088H770.946L806.637 995.405ZM815.701 1019.95L803.363 1051.74H827.976L815.701 1019.95ZM870.15 993.076H887.335V1088H870.15V993.076ZM920.004 993.076V1027.07C923.11 1023.96 926.467 1021.63 930.076 1020.08C933.685 1018.53 937.545 1017.75 941.658 1017.75C950.597 1017.75 958.192 1021.13 964.445 1027.89C970.698 1034.64 973.824 1043.31 973.824 1053.88C973.824 1064.08 970.593 1072.62 964.13 1079.5C957.668 1086.34 950.009 1089.76 941.154 1089.76C937.21 1089.76 933.538 1089.07 930.139 1087.69C926.74 1086.26 923.361 1083.95 920.004 1080.76V1088H902.946V993.076H920.004ZM938.07 1033.61C932.657 1033.61 928.166 1035.46 924.599 1039.15C921.032 1042.85 919.249 1047.67 919.249 1053.63C919.249 1059.72 921.032 1064.65 924.599 1068.42C928.166 1072.16 932.657 1074.03 938.07 1074.03C943.316 1074.03 947.722 1072.12 951.289 1068.3C954.898 1064.48 956.702 1059.61 956.702 1053.69C956.702 1047.82 954.94 1043.01 951.415 1039.28C947.89 1035.5 943.442 1033.61 938.07 1033.61ZM1056.66 1058.73H1001.46C1002.26 1063.6 1004.37 1067.48 1007.82 1070.37C1011.3 1073.23 1015.73 1074.66 1021.1 1074.66C1027.52 1074.66 1033.04 1072.41 1037.65 1067.92L1052.13 1074.72C1048.52 1079.84 1044.2 1083.64 1039.16 1086.11C1034.13 1088.55 1028.15 1089.76 1021.22 1089.76C1010.48 1089.76 1001.73 1086.38 994.974 1079.63C988.218 1072.83 984.84 1064.33 984.84 1054.13C984.84 1043.69 988.197 1035.02 994.911 1028.14C1001.67 1021.21 1010.12 1017.75 1020.28 1017.75C1031.06 1017.75 1039.83 1021.21 1046.59 1028.14C1053.35 1035.02 1056.73 1044.13 1056.73 1055.46L1056.66 1058.73ZM1039.41 1045.2C1038.28 1041.38 1036.04 1038.27 1032.68 1035.88C1029.36 1033.49 1025.5 1032.29 1021.1 1032.29C1016.31 1032.29 1012.12 1033.63 1008.51 1036.32C1006.24 1038 1004.14 1040.96 1002.21 1045.2H1039.41ZM1066.61 1019.51H1081.34V1028.14C1082.93 1024.74 1085.05 1022.16 1087.7 1020.39C1090.34 1018.63 1093.23 1017.75 1096.38 1017.75C1098.61 1017.75 1100.94 1018.34 1103.37 1019.51L1098.02 1034.31C1096 1033.3 1094.35 1032.8 1093.05 1032.8C1090.4 1032.8 1088.16 1034.43 1086.31 1037.71C1084.51 1040.98 1083.6 1047.4 1083.6 1056.97L1083.67 1060.3V1088H1066.61V1019.51ZM1114.01 994.272H1131.13V1019.51H1141.33V1034.31H1131.13V1088H1114.01V1034.31H1105.19V1019.51H1114.01V994.272Z" fill="#E65100"/>
<path d="M469.038 1260V1231.08H473.58C476.215 1231.08 478.142 1231.25 479.361 1231.59C481.091 1232.05 482.468 1232.9 483.49 1234.14C484.513 1235.39 485.024 1236.86 485.024 1238.55C485.024 1239.65 484.788 1240.65 484.316 1241.56C483.857 1242.45 483.103 1243.29 482.055 1244.07C483.811 1244.9 485.096 1245.93 485.909 1247.18C486.721 1248.41 487.128 1249.87 487.128 1251.56C487.128 1253.19 486.708 1254.67 485.869 1256.01C485.03 1257.35 483.949 1258.35 482.625 1259.02C481.301 1259.67 479.472 1260 477.139 1260H469.038ZM474.543 1236.33V1242.42H475.743C477.08 1242.42 478.07 1242.14 478.712 1241.58C479.367 1241.01 479.695 1240.25 479.695 1239.28C479.695 1238.37 479.387 1237.66 478.771 1237.13C478.155 1236.59 477.218 1236.33 475.959 1236.33H474.543ZM474.543 1247.34V1254.75H475.92C478.201 1254.75 479.734 1254.46 480.521 1253.88C481.321 1253.31 481.72 1252.47 481.72 1251.37C481.72 1250.12 481.255 1249.14 480.324 1248.42C479.394 1247.7 477.847 1247.34 475.684 1247.34H474.543ZM492.16 1238.61H496.761V1241.3C497.259 1240.24 497.921 1239.43 498.747 1238.88C499.573 1238.33 500.477 1238.06 501.461 1238.06C502.155 1238.06 502.883 1238.24 503.643 1238.61L501.972 1243.23C501.343 1242.91 500.825 1242.76 500.418 1242.76C499.593 1242.76 498.891 1243.27 498.314 1244.29C497.751 1245.31 497.469 1247.32 497.469 1250.31L497.489 1251.35V1260H492.16V1238.61ZM523.737 1238.61H529.086V1260H523.737V1257.74C522.689 1258.74 521.633 1259.46 520.571 1259.9C519.523 1260.33 518.382 1260.55 517.15 1260.55C514.384 1260.55 511.992 1259.48 509.973 1257.35C507.954 1255.2 506.945 1252.53 506.945 1249.34C506.945 1246.04 507.922 1243.33 509.875 1241.22C511.828 1239.11 514.201 1238.06 516.993 1238.06C518.277 1238.06 519.483 1238.3 520.611 1238.78C521.738 1239.27 522.78 1240 523.737 1240.97V1238.61ZM518.094 1243.01C516.429 1243.01 515.046 1243.6 513.945 1244.78C512.844 1245.95 512.293 1247.45 512.293 1249.28C512.293 1251.13 512.85 1252.65 513.965 1253.85C515.092 1255.04 516.475 1255.63 518.114 1255.63C519.805 1255.63 521.207 1255.05 522.321 1253.88C523.436 1252.7 523.993 1251.16 523.993 1249.26C523.993 1247.4 523.436 1245.9 522.321 1244.74C521.207 1243.59 519.798 1243.01 518.094 1243.01ZM536.123 1238.61H541.472V1240.79C542.691 1239.77 543.792 1239.06 544.775 1238.67C545.771 1238.26 546.787 1238.06 547.823 1238.06C549.947 1238.06 551.749 1238.8 553.23 1240.28C554.476 1241.54 555.098 1243.4 555.098 1245.86V1260H549.789V1250.62C549.789 1248.06 549.671 1246.37 549.435 1245.53C549.212 1244.69 548.813 1244.05 548.236 1243.62C547.672 1243.17 546.971 1242.95 546.132 1242.95C545.044 1242.95 544.107 1243.32 543.32 1244.05C542.547 1244.77 542.009 1245.78 541.708 1247.06C541.55 1247.73 541.472 1249.18 541.472 1251.41V1260H536.123V1238.61ZM577.729 1230.35H583.077V1260H577.729V1257.74C576.68 1258.74 575.625 1259.46 574.563 1259.9C573.514 1260.33 572.374 1260.55 571.142 1260.55C568.376 1260.55 565.984 1259.48 563.965 1257.35C561.946 1255.2 560.937 1252.53 560.937 1249.34C560.937 1246.04 561.913 1243.33 563.866 1241.22C565.82 1239.11 568.192 1238.06 570.984 1238.06C572.269 1238.06 573.475 1238.3 574.602 1238.78C575.73 1239.27 576.772 1240 577.729 1240.97V1230.35ZM572.086 1243.01C570.421 1243.01 569.038 1243.6 567.937 1244.78C566.836 1245.95 566.285 1247.45 566.285 1249.28C566.285 1251.13 566.842 1252.65 567.956 1253.85C569.084 1255.04 570.467 1255.63 572.105 1255.63C573.796 1255.63 575.199 1255.05 576.313 1253.88C577.427 1252.7 577.985 1251.16 577.985 1249.26C577.985 1247.4 577.427 1245.9 576.313 1244.74C575.199 1243.59 573.79 1243.01 572.086 1243.01ZM592.219 1229.8C593.163 1229.8 593.969 1230.14 594.638 1230.82C595.319 1231.5 595.66 1232.33 595.66 1233.3C595.66 1234.25 595.326 1235.07 594.657 1235.76C593.989 1236.42 593.189 1236.76 592.258 1236.76C591.301 1236.76 590.482 1236.42 589.8 1235.74C589.132 1235.04 588.798 1234.2 588.798 1233.22C588.798 1232.28 589.132 1231.47 589.8 1230.8C590.469 1230.13 591.275 1229.8 592.219 1229.8ZM589.525 1238.61H594.913V1260H589.525V1238.61ZM601.4 1238.61H606.748V1240.79C607.968 1239.77 609.069 1239.06 610.052 1238.67C611.048 1238.26 612.064 1238.06 613.1 1238.06C615.223 1238.06 617.026 1238.8 618.507 1240.28C619.752 1241.54 620.375 1243.4 620.375 1245.86V1260H615.066V1250.62C615.066 1248.06 614.948 1246.37 614.712 1245.53C614.489 1244.69 614.089 1244.05 613.513 1243.62C612.949 1243.17 612.248 1242.95 611.409 1242.95C610.321 1242.95 609.383 1243.32 608.597 1244.05C607.823 1244.77 607.286 1245.78 606.984 1247.06C606.827 1247.73 606.748 1249.18 606.748 1251.41V1260H601.4V1238.61ZM643.006 1238.61H648.354V1256.93C648.354 1260.55 647.626 1263.21 646.171 1264.92C644.218 1267.22 641.275 1268.38 637.343 1268.38C635.245 1268.38 633.482 1268.11 632.053 1267.59C630.624 1267.07 629.418 1266.29 628.435 1265.27C627.452 1264.26 626.725 1263.03 626.253 1261.57H632.171C632.696 1262.18 633.371 1262.63 634.197 1262.93C635.022 1263.24 635.999 1263.4 637.126 1263.4C638.568 1263.4 639.728 1263.18 640.607 1262.73C641.485 1262.29 642.101 1261.71 642.455 1261C642.822 1260.29 643.006 1259.08 643.006 1257.35C642.062 1258.29 641.072 1258.97 640.037 1259.39C639.001 1259.8 637.828 1260 636.517 1260C633.646 1260 631.221 1258.96 629.241 1256.89C627.262 1254.82 626.272 1252.2 626.272 1249.03C626.272 1245.63 627.321 1242.91 629.418 1240.85C631.319 1238.99 633.587 1238.06 636.222 1238.06C637.454 1238.06 638.614 1238.29 639.702 1238.74C640.803 1239.19 641.905 1239.93 643.006 1240.97V1238.61ZM637.441 1243.07C635.75 1243.07 634.354 1243.64 633.253 1244.78C632.152 1245.91 631.601 1247.33 631.601 1249.05C631.601 1250.83 632.165 1252.29 633.292 1253.43C634.419 1254.57 635.835 1255.14 637.539 1255.14C639.204 1255.14 640.574 1254.59 641.649 1253.47C642.737 1252.36 643.281 1250.9 643.281 1249.09C643.281 1247.3 642.737 1245.86 641.649 1244.74C640.561 1243.63 639.158 1243.07 637.441 1243.07ZM707.376 1231.08H712.902V1249.79C712.902 1251.41 713.039 1252.55 713.315 1253.22C713.603 1253.88 714.068 1254.42 714.711 1254.83C715.366 1255.22 716.153 1255.42 717.07 1255.42C718.04 1255.42 718.873 1255.2 719.567 1254.75C720.275 1254.3 720.76 1253.74 721.022 1253.06C721.298 1252.36 721.435 1251.05 721.435 1249.11V1231.08H726.961V1248.32C726.961 1251.23 726.797 1253.25 726.469 1254.38C726.141 1255.5 725.512 1256.59 724.581 1257.64C723.664 1258.69 722.602 1259.47 721.396 1259.98C720.19 1260.48 718.787 1260.73 717.188 1260.73C715.091 1260.73 713.262 1260.25 711.702 1259.29C710.155 1258.32 709.048 1257.12 708.379 1255.67C707.711 1254.22 707.376 1251.77 707.376 1248.32V1231.08ZM734.588 1231.08H740.055V1260H734.588V1231.08ZM745.441 1265.15L758.438 1230.25H762.253L749.236 1265.15H745.441ZM767.816 1231.08H773.341V1249.79C773.341 1251.41 773.479 1252.55 773.754 1253.22C774.043 1253.88 774.508 1254.42 775.15 1254.83C775.806 1255.22 776.592 1255.42 777.51 1255.42C778.48 1255.42 779.312 1255.2 780.007 1254.75C780.715 1254.3 781.2 1253.74 781.462 1253.06C781.737 1252.36 781.875 1251.05 781.875 1249.11V1231.08H787.4V1248.32C787.4 1251.23 787.236 1253.25 786.909 1254.38C786.581 1255.5 785.952 1256.59 785.021 1257.64C784.103 1258.69 783.042 1259.47 781.836 1259.98C780.63 1260.48 779.227 1260.73 777.628 1260.73C775.53 1260.73 773.702 1260.25 772.142 1259.29C770.595 1258.32 769.487 1257.12 768.819 1255.67C768.15 1254.22 767.816 1251.77 767.816 1248.32V1231.08ZM793.534 1231.08H799.728L805.784 1240.34L811.899 1231.08H818.093L808.891 1245.08L818.663 1260H812.469L805.784 1249.83L799.157 1260H792.924L802.697 1245.08L793.534 1231.08ZM837.359 1231.08H843.888C848.096 1231.08 851.222 1231.6 853.267 1232.65C855.312 1233.68 856.996 1235.38 858.32 1237.72C859.644 1240.07 860.306 1242.81 860.306 1245.94C860.306 1248.17 859.933 1250.22 859.186 1252.1C858.451 1253.96 857.429 1255.5 856.118 1256.74C854.82 1257.97 853.411 1258.82 851.891 1259.29C850.37 1259.76 847.735 1260 843.986 1260H837.359V1231.08ZM842.846 1236.38V1254.61H845.402C847.919 1254.61 849.741 1254.32 850.868 1253.75C852.008 1253.17 852.939 1252.2 853.66 1250.84C854.381 1249.47 854.742 1247.8 854.742 1245.8C854.742 1242.74 853.883 1240.36 852.166 1238.67C850.619 1237.14 848.135 1236.38 844.713 1236.38H842.846ZM887.99 1250.86H870.746C870.995 1252.38 871.657 1253.59 872.732 1254.49C873.82 1255.39 875.203 1255.83 876.881 1255.83C878.886 1255.83 880.61 1255.13 882.052 1253.73L886.575 1255.85C885.447 1257.45 884.097 1258.64 882.524 1259.41C880.951 1260.17 879.083 1260.55 876.92 1260.55C873.564 1260.55 870.831 1259.5 868.721 1257.38C866.61 1255.26 865.555 1252.61 865.555 1249.42C865.555 1246.16 866.604 1243.45 868.701 1241.3C870.811 1239.14 873.453 1238.06 876.625 1238.06C879.994 1238.06 882.734 1239.14 884.844 1241.3C886.955 1243.45 888.01 1246.29 888.01 1249.83L887.99 1250.86ZM882.603 1246.63C882.249 1245.44 881.547 1244.47 880.499 1243.72C879.463 1242.97 878.257 1242.6 876.881 1242.6C875.386 1242.6 874.075 1243.02 872.948 1243.86C872.24 1244.38 871.585 1245.31 870.982 1246.63H882.603ZM907.062 1241.6L903.739 1244.92C902.389 1243.58 901.163 1242.91 900.062 1242.91C899.459 1242.91 898.987 1243.04 898.646 1243.31C898.305 1243.56 898.135 1243.87 898.135 1244.25C898.135 1244.54 898.24 1244.81 898.45 1245.06C898.672 1245.29 899.21 1245.62 900.062 1246.04L902.028 1247.02C904.099 1248.04 905.522 1249.09 906.295 1250.15C907.069 1251.21 907.455 1252.46 907.455 1253.88C907.455 1255.79 906.754 1257.37 905.351 1258.64C903.962 1259.91 902.094 1260.55 899.747 1260.55C896.627 1260.55 894.137 1259.33 892.275 1256.89L895.579 1253.29C896.208 1254.03 896.942 1254.63 897.781 1255.08C898.633 1255.53 899.387 1255.75 900.042 1255.75C900.75 1255.75 901.32 1255.58 901.753 1255.24C902.186 1254.9 902.402 1254.51 902.402 1254.06C902.402 1253.24 901.622 1252.43 900.062 1251.64L898.253 1250.74C894.792 1249 893.062 1246.81 893.062 1244.19C893.062 1242.5 893.711 1241.06 895.009 1239.86C896.319 1238.66 897.991 1238.06 900.023 1238.06C901.412 1238.06 902.716 1238.36 903.936 1238.98C905.168 1239.58 906.21 1240.45 907.062 1241.6ZM915.417 1229.8C916.361 1229.8 917.167 1230.14 917.836 1230.82C918.517 1231.5 918.858 1232.33 918.858 1233.3C918.858 1234.25 918.524 1235.07 917.855 1235.76C917.187 1236.42 916.387 1236.76 915.457 1236.76C914.5 1236.76 913.68 1236.42 912.999 1235.74C912.33 1235.04 911.996 1234.2 911.996 1233.22C911.996 1232.28 912.33 1231.47 912.999 1230.8C913.667 1230.13 914.473 1229.8 915.417 1229.8ZM912.723 1238.61H918.111V1260H912.723V1238.61ZM940.407 1238.61H945.756V1256.93C945.756 1260.55 945.028 1263.21 943.573 1264.92C941.62 1267.22 938.677 1268.38 934.744 1268.38C932.647 1268.38 930.884 1268.11 929.455 1267.59C928.026 1267.07 926.82 1266.29 925.837 1265.27C924.854 1264.26 924.126 1263.03 923.655 1261.57H929.573C930.097 1262.18 930.773 1262.63 931.598 1262.93C932.424 1263.24 933.401 1263.4 934.528 1263.4C935.97 1263.4 937.13 1263.18 938.009 1262.73C938.887 1262.29 939.503 1261.71 939.857 1261C940.224 1260.29 940.407 1259.08 940.407 1257.35C939.464 1258.29 938.474 1258.97 937.438 1259.39C936.403 1259.8 935.23 1260 933.919 1260C931.048 1260 928.623 1258.96 926.643 1256.89C924.664 1254.82 923.674 1252.2 923.674 1249.03C923.674 1245.63 924.723 1242.91 926.82 1240.85C928.721 1238.99 930.989 1238.06 933.624 1238.06C934.856 1238.06 936.016 1238.29 937.104 1238.74C938.205 1239.19 939.306 1239.93 940.407 1240.97V1238.61ZM934.843 1243.07C933.152 1243.07 931.756 1243.64 930.655 1244.78C929.553 1245.91 929.003 1247.33 929.003 1249.05C929.003 1250.83 929.567 1252.29 930.694 1253.43C931.821 1254.57 933.237 1255.14 934.941 1255.14C936.606 1255.14 937.976 1254.59 939.051 1253.47C940.139 1252.36 940.683 1250.9 940.683 1249.09C940.683 1247.3 940.139 1245.86 939.051 1244.74C937.963 1243.63 936.56 1243.07 934.843 1243.07ZM952.794 1238.61H958.142V1240.79C959.361 1239.77 960.462 1239.06 961.445 1238.67C962.442 1238.26 963.458 1238.06 964.493 1238.06C966.617 1238.06 968.419 1238.8 969.901 1240.28C971.146 1241.54 971.769 1243.4 971.769 1245.86V1260H966.459V1250.62C966.459 1248.06 966.342 1246.37 966.106 1245.53C965.883 1244.69 965.483 1244.05 964.906 1243.62C964.342 1243.17 963.641 1242.95 962.802 1242.95C961.714 1242.95 960.777 1243.32 959.99 1244.05C959.217 1244.77 958.679 1245.78 958.378 1247.06C958.221 1247.73 958.142 1249.18 958.142 1251.41V1260H952.794V1238.61Z" fill="white"/>
<path d="M676.115 1230.35H679.222V1267.83H676.115V1230.35Z" fill="#E65100"/>
<path d="M303.33 1175L308.28 1140.16H308.848L323.009 1168.75L337.029 1140.16H337.597L342.594 1175H339.16L335.75 1150.09L323.436 1175H322.56L310.079 1149.9L306.693 1175H303.33ZM352.041 1138.62C352.799 1138.62 353.446 1138.89 353.983 1139.43C354.52 1139.97 354.788 1140.61 354.788 1141.37C354.788 1142.11 354.52 1142.75 353.983 1143.29C353.446 1143.83 352.799 1144.1 352.041 1144.1C351.299 1144.1 350.66 1143.83 350.123 1143.29C349.586 1142.75 349.318 1142.11 349.318 1141.37C349.318 1140.61 349.586 1139.97 350.123 1139.43C350.66 1138.89 351.299 1138.62 352.041 1138.62ZM350.384 1149.23H353.723V1175H350.384V1149.23ZM365.42 1139.67H368.759V1149.23H374.016V1152.08H368.759V1175H365.42V1152.08H360.896V1149.23H365.42V1139.67ZM382.066 1138.62C382.824 1138.62 383.471 1138.89 384.008 1139.43C384.544 1139.97 384.813 1140.61 384.813 1141.37C384.813 1142.11 384.544 1142.75 384.008 1143.29C383.471 1143.83 382.824 1144.1 382.066 1144.1C381.324 1144.1 380.684 1143.83 380.148 1143.29C379.611 1142.75 379.342 1142.11 379.342 1141.37C379.342 1140.61 379.611 1139.97 380.148 1139.43C380.684 1138.89 381.324 1138.62 382.066 1138.62ZM380.408 1149.23H383.747V1175H380.408V1149.23ZM414.745 1149.23H418.084V1169.77C418.084 1173.38 417.768 1176.03 417.136 1177.7C416.268 1180.07 414.76 1181.89 412.613 1183.17C410.466 1184.45 407.885 1185.09 404.869 1185.09C402.659 1185.09 400.67 1184.77 398.902 1184.14C397.149 1183.53 395.72 1182.69 394.615 1181.63C393.51 1180.59 392.492 1179.06 391.56 1177.04H395.16C396.139 1178.74 397.402 1180 398.949 1180.83C400.496 1181.65 402.414 1182.06 404.704 1182.06C406.961 1182.06 408.864 1181.63 410.411 1180.78C411.974 1179.94 413.087 1178.88 413.75 1177.6C414.413 1176.33 414.745 1174.27 414.745 1171.42V1170.1C413.497 1171.68 411.974 1172.89 410.174 1173.74C408.374 1174.58 406.464 1175 404.443 1175C402.075 1175 399.849 1174.42 397.765 1173.25C395.681 1172.06 394.071 1170.48 392.934 1168.49C391.797 1166.5 391.229 1164.31 391.229 1161.93C391.229 1159.54 391.821 1157.33 393.005 1155.27C394.189 1153.2 395.823 1151.57 397.907 1150.37C400.007 1149.17 402.217 1148.57 404.538 1148.57C406.464 1148.57 408.256 1148.97 409.914 1149.78C411.587 1150.57 413.197 1151.88 414.745 1153.71V1149.23ZM404.964 1151.77C403.085 1151.77 401.341 1152.23 399.73 1153.14C398.12 1154.04 396.857 1155.3 395.941 1156.91C395.026 1158.5 394.568 1160.23 394.568 1162.09C394.568 1164.92 395.515 1167.26 397.41 1169.1C399.304 1170.95 401.759 1171.87 404.775 1171.87C407.822 1171.87 410.269 1170.96 412.116 1169.13C413.979 1167.3 414.91 1164.89 414.91 1161.9C414.91 1159.96 414.484 1158.23 413.632 1156.72C412.779 1155.19 411.571 1153.98 410.008 1153.09C408.445 1152.21 406.764 1151.77 404.964 1151.77ZM452.799 1149.23V1175H449.531V1170.57C448.142 1172.26 446.579 1173.53 444.842 1174.38C443.121 1175.24 441.235 1175.66 439.182 1175.66C435.535 1175.66 432.417 1174.34 429.828 1171.71C427.254 1169.06 425.968 1165.84 425.968 1162.05C425.968 1158.34 427.27 1155.16 429.875 1152.53C432.48 1149.89 435.614 1148.57 439.277 1148.57C441.392 1148.57 443.303 1149.02 445.008 1149.92C446.729 1150.82 448.236 1152.17 449.531 1153.97V1149.23H452.799ZM439.537 1151.77C437.69 1151.77 435.985 1152.23 434.422 1153.14C432.859 1154.04 431.612 1155.31 430.68 1156.95C429.765 1158.6 429.307 1160.33 429.307 1162.16C429.307 1163.98 429.773 1165.72 430.704 1167.37C431.636 1169.03 432.883 1170.33 434.446 1171.26C436.025 1172.17 437.714 1172.63 439.514 1172.63C441.329 1172.63 443.05 1172.17 444.676 1171.26C446.302 1170.34 447.55 1169.1 448.418 1167.54C449.302 1165.98 449.744 1164.22 449.744 1162.26C449.744 1159.28 448.757 1156.78 446.784 1154.78C444.826 1152.77 442.411 1151.77 439.537 1151.77ZM465.112 1139.67H468.451V1149.23H473.708V1152.08H468.451V1175H465.112V1152.08H460.588V1149.23H465.112V1139.67ZM481.758 1138.62C482.516 1138.62 483.163 1138.89 483.7 1139.43C484.237 1139.97 484.505 1140.61 484.505 1141.37C484.505 1142.11 484.237 1142.75 483.7 1143.29C483.163 1143.83 482.516 1144.1 481.758 1144.1C481.016 1144.1 480.377 1143.83 479.84 1143.29C479.303 1142.75 479.035 1142.11 479.035 1141.37C479.035 1140.61 479.303 1139.97 479.84 1139.43C480.377 1138.89 481.016 1138.62 481.758 1138.62ZM480.1 1149.23H483.439V1175H480.1V1149.23ZM492.247 1149.23H495.562V1153.85C496.889 1152.08 498.357 1150.77 499.967 1149.9C501.578 1149.01 503.33 1148.57 505.225 1148.57C507.151 1148.57 508.856 1149.06 510.34 1150.04C511.84 1151.02 512.945 1152.34 513.655 1153.99C514.366 1155.65 514.721 1158.23 514.721 1161.74V1175H511.429V1162.71C511.429 1159.74 511.303 1157.76 511.05 1156.77C510.656 1155.06 509.914 1153.78 508.824 1152.93C507.735 1152.06 506.314 1151.63 504.561 1151.63C502.556 1151.63 500.757 1152.29 499.162 1153.62C497.583 1154.94 496.541 1156.58 496.036 1158.54C495.72 1159.82 495.562 1162.16 495.562 1165.55V1175H492.247V1149.23ZM545.979 1149.23H549.318V1169.77C549.318 1173.38 549.002 1176.03 548.371 1177.7C547.502 1180.07 545.995 1181.89 543.847 1183.17C541.7 1184.45 539.119 1185.09 536.104 1185.09C533.893 1185.09 531.904 1184.77 530.136 1184.14C528.383 1183.53 526.955 1182.69 525.849 1181.63C524.744 1180.59 523.726 1179.06 522.794 1177.04H526.394C527.373 1178.74 528.636 1180 530.183 1180.83C531.73 1181.65 533.649 1182.06 535.938 1182.06C538.195 1182.06 540.098 1181.63 541.645 1180.78C543.208 1179.94 544.321 1178.88 544.984 1177.6C545.647 1176.33 545.979 1174.27 545.979 1171.42V1170.1C544.732 1171.68 543.208 1172.89 541.408 1173.74C539.608 1174.58 537.698 1175 535.677 1175C533.309 1175 531.083 1174.42 528.999 1173.25C526.915 1172.06 525.305 1170.48 524.168 1168.49C523.031 1166.5 522.463 1164.31 522.463 1161.93C522.463 1159.54 523.055 1157.33 524.239 1155.27C525.423 1153.2 527.057 1151.57 529.141 1150.37C531.241 1149.17 533.451 1148.57 535.772 1148.57C537.698 1148.57 539.49 1148.97 541.148 1149.78C542.821 1150.57 544.432 1151.88 545.979 1153.71V1149.23ZM536.198 1151.77C534.32 1151.77 532.575 1152.23 530.965 1153.14C529.354 1154.04 528.091 1155.3 527.176 1156.91C526.26 1158.5 525.802 1160.23 525.802 1162.09C525.802 1164.92 526.749 1167.26 528.644 1169.1C530.538 1170.95 532.993 1171.87 536.009 1171.87C539.056 1171.87 541.503 1170.96 543.35 1169.13C545.213 1167.3 546.145 1164.89 546.145 1161.9C546.145 1159.96 545.718 1158.23 544.866 1156.72C544.013 1155.19 542.805 1153.98 541.242 1153.09C539.679 1152.21 537.998 1151.77 536.198 1151.77ZM576.643 1139.67H579.982V1149.23H585.239V1152.08H579.982V1175H576.643V1152.08H572.12V1149.23H576.643V1139.67ZM592.129 1139.29H595.444V1153.85C596.786 1152.08 598.262 1150.77 599.872 1149.9C601.483 1149.01 603.227 1148.57 605.106 1148.57C607.032 1148.57 608.737 1149.06 610.221 1150.04C611.721 1151.02 612.826 1152.34 613.537 1153.99C614.247 1155.64 614.602 1158.22 614.602 1161.74V1175H611.287V1162.71C611.287 1159.74 611.169 1157.76 610.932 1156.77C610.521 1155.06 609.771 1153.78 608.682 1152.93C607.609 1152.06 606.195 1151.63 604.443 1151.63C602.438 1151.63 600.638 1152.29 599.044 1153.62C597.465 1154.94 596.423 1156.58 595.918 1158.54C595.602 1159.8 595.444 1162.14 595.444 1165.55V1175H592.129V1139.29ZM645.363 1166.45L648.157 1167.92C647.242 1169.72 646.184 1171.17 644.984 1172.28C643.784 1173.38 642.434 1174.23 640.935 1174.81C639.435 1175.38 637.738 1175.66 635.843 1175.66C631.643 1175.66 628.36 1174.29 625.991 1171.54C623.623 1168.78 622.439 1165.66 622.439 1162.19C622.439 1158.92 623.442 1156.01 625.447 1153.45C627.989 1150.2 631.391 1148.57 635.654 1148.57C640.043 1148.57 643.547 1150.24 646.168 1153.57C648.031 1155.92 648.978 1158.86 649.01 1162.38H625.849C625.913 1165.38 626.868 1167.84 628.715 1169.77C630.562 1171.68 632.843 1172.63 635.559 1172.63C636.869 1172.63 638.14 1172.4 639.372 1171.95C640.619 1171.49 641.677 1170.88 642.545 1170.12C643.413 1169.36 644.353 1168.14 645.363 1166.45ZM645.363 1159.51C644.921 1157.74 644.274 1156.33 643.421 1155.27C642.584 1154.22 641.471 1153.36 640.082 1152.72C638.693 1152.07 637.232 1151.74 635.701 1151.74C633.175 1151.74 631.004 1152.56 629.188 1154.18C627.862 1155.37 626.86 1157.14 626.181 1159.51H645.363ZM685.5 1152.05L683.368 1154.25C681.6 1152.53 679.871 1151.67 678.182 1151.67C677.108 1151.67 676.185 1152.03 675.411 1152.74C674.653 1153.45 674.275 1154.28 674.275 1155.23C674.275 1156.06 674.59 1156.86 675.222 1157.62C675.853 1158.39 677.179 1159.3 679.2 1160.34C681.663 1161.62 683.337 1162.85 684.221 1164.04C685.089 1165.24 685.523 1166.59 685.523 1168.08C685.523 1170.2 684.781 1171.99 683.297 1173.46C681.813 1174.93 679.958 1175.66 677.732 1175.66C676.248 1175.66 674.827 1175.34 673.469 1174.69C672.127 1174.04 671.014 1173.15 670.13 1172.02L672.214 1169.65C673.904 1171.56 675.695 1172.51 677.59 1172.51C678.916 1172.51 680.045 1172.09 680.976 1171.23C681.908 1170.38 682.374 1169.38 682.374 1168.23C682.374 1167.28 682.066 1166.44 681.45 1165.69C680.834 1164.97 679.445 1164.05 677.282 1162.95C674.961 1161.75 673.383 1160.56 672.546 1159.39C671.709 1158.23 671.291 1156.89 671.291 1155.39C671.291 1153.43 671.954 1151.81 673.28 1150.51C674.622 1149.22 676.311 1148.57 678.348 1148.57C680.716 1148.57 683.1 1149.73 685.5 1152.05ZM696.226 1139.67H699.565V1149.23H704.822V1152.08H699.565V1175H696.226V1152.08H691.702V1149.23H696.226V1139.67ZM710.456 1149.23H713.843V1153C714.853 1151.52 715.919 1150.41 717.04 1149.68C718.161 1148.94 719.329 1148.57 720.545 1148.57C721.46 1148.57 722.439 1148.86 723.481 1149.45L721.752 1152.24C721.058 1151.94 720.474 1151.79 720 1151.79C718.895 1151.79 717.829 1152.25 716.803 1153.17C715.777 1154.07 714.995 1155.47 714.458 1157.38C714.048 1158.85 713.843 1161.82 713.843 1166.29V1175H710.456V1149.23ZM749.932 1166.45L752.726 1167.92C751.81 1169.72 750.753 1171.17 749.553 1172.28C748.353 1173.38 747.003 1174.23 745.503 1174.81C744.003 1175.38 742.306 1175.66 740.412 1175.66C736.212 1175.66 732.928 1174.29 730.56 1171.54C728.192 1168.78 727.008 1165.66 727.008 1162.19C727.008 1158.92 728.01 1156.01 730.015 1153.45C732.557 1150.2 735.96 1148.57 740.222 1148.57C744.611 1148.57 748.116 1150.24 750.737 1153.57C752.6 1155.92 753.547 1158.86 753.579 1162.38H730.418C730.481 1165.38 731.436 1167.84 733.284 1169.77C735.131 1171.68 737.412 1172.63 740.128 1172.63C741.438 1172.63 742.709 1172.4 743.94 1171.95C745.187 1171.49 746.245 1170.88 747.114 1170.12C747.982 1169.36 748.921 1168.14 749.932 1166.45ZM749.932 1159.51C749.49 1157.74 748.842 1156.33 747.99 1155.27C747.153 1154.22 746.04 1153.36 744.651 1152.72C743.261 1152.07 741.801 1151.74 740.27 1151.74C737.744 1151.74 735.573 1152.56 733.757 1154.18C732.431 1155.37 731.428 1157.14 730.75 1159.51H749.932ZM774.677 1152.05L772.546 1154.25C770.778 1152.53 769.049 1151.67 767.359 1151.67C766.286 1151.67 765.362 1152.03 764.589 1152.74C763.831 1153.45 763.452 1154.28 763.452 1155.23C763.452 1156.06 763.768 1156.86 764.399 1157.62C765.031 1158.39 766.357 1159.3 768.378 1160.34C770.841 1161.62 772.514 1162.85 773.398 1164.04C774.267 1165.24 774.701 1166.59 774.701 1168.08C774.701 1170.2 773.959 1171.99 772.475 1173.46C770.991 1174.93 769.136 1175.66 766.91 1175.66C765.425 1175.66 764.005 1175.34 762.647 1174.69C761.305 1174.04 760.192 1173.15 759.308 1172.02L761.392 1169.65C763.081 1171.56 764.873 1172.51 766.767 1172.51C768.094 1172.51 769.222 1172.09 770.154 1171.23C771.085 1170.38 771.551 1169.38 771.551 1168.23C771.551 1167.28 771.243 1166.44 770.628 1165.69C770.012 1164.97 768.623 1164.05 766.46 1162.95C764.139 1161.75 762.56 1160.56 761.723 1159.39C760.887 1158.23 760.468 1156.89 760.468 1155.39C760.468 1153.43 761.131 1151.81 762.457 1150.51C763.799 1149.22 765.489 1148.57 767.525 1148.57C769.893 1148.57 772.277 1149.73 774.677 1152.05ZM795.468 1152.05L793.336 1154.25C791.568 1152.53 789.839 1151.67 788.15 1151.67C787.076 1151.67 786.153 1152.03 785.379 1152.74C784.621 1153.45 784.243 1154.28 784.243 1155.23C784.243 1156.06 784.558 1156.86 785.19 1157.62C785.821 1158.39 787.148 1159.3 789.168 1160.34C791.631 1161.62 793.305 1162.85 794.189 1164.04C795.057 1165.24 795.491 1166.59 795.491 1168.08C795.491 1170.2 794.749 1171.99 793.265 1173.46C791.781 1174.93 789.926 1175.66 787.7 1175.66C786.216 1175.66 784.795 1175.34 783.437 1174.69C782.095 1174.04 780.982 1173.15 780.098 1172.02L782.182 1169.65C783.872 1171.56 785.663 1172.51 787.558 1172.51C788.884 1172.51 790.013 1172.09 790.944 1171.23C791.876 1170.38 792.342 1169.38 792.342 1168.23C792.342 1167.28 792.034 1166.44 791.418 1165.69C790.802 1164.97 789.413 1164.05 787.25 1162.95C784.929 1161.75 783.351 1160.56 782.514 1159.39C781.677 1158.23 781.259 1156.89 781.259 1155.39C781.259 1153.43 781.922 1151.81 783.248 1150.51C784.59 1149.22 786.279 1148.57 788.316 1148.57C790.684 1148.57 793.068 1149.73 795.468 1152.05ZM830.892 1148.57C834.854 1148.57 838.138 1150.01 840.743 1152.88C843.111 1155.5 844.295 1158.6 844.295 1162.19C844.295 1165.79 843.04 1168.94 840.53 1171.64C838.036 1174.32 834.823 1175.66 830.892 1175.66C826.945 1175.66 823.716 1174.32 821.206 1171.64C818.711 1168.94 817.464 1165.79 817.464 1162.19C817.464 1158.62 818.648 1155.53 821.016 1152.91C823.621 1150.02 826.913 1148.57 830.892 1148.57ZM830.892 1151.82C828.145 1151.82 825.784 1152.83 823.811 1154.87C821.837 1156.91 820.851 1159.37 820.851 1162.26C820.851 1164.12 821.301 1165.86 822.2 1167.47C823.1 1169.08 824.316 1170.33 825.847 1171.21C827.379 1172.08 829.06 1172.51 830.892 1172.51C832.723 1172.51 834.404 1172.08 835.936 1171.21C837.467 1170.33 838.683 1169.08 839.583 1167.47C840.483 1165.86 840.933 1164.12 840.933 1162.26C840.933 1159.37 839.938 1156.91 837.949 1154.87C835.975 1152.83 833.623 1151.82 830.892 1151.82ZM863.026 1139.29V1142.53C861.81 1142.01 860.768 1141.75 859.9 1141.75C859.252 1141.75 858.716 1141.89 858.289 1142.15C857.863 1142.41 857.595 1142.71 857.484 1143.05C857.374 1143.39 857.318 1144.28 857.318 1145.75V1149.23H862.694V1152.08H857.295V1175H853.979V1152.08H850.593V1149.23H853.979V1145.21C853.979 1143.36 854.145 1142.04 854.477 1141.25C854.824 1140.46 855.4 1139.83 856.205 1139.36C857.026 1138.87 858.013 1138.62 859.166 1138.62C860.239 1138.62 861.526 1138.85 863.026 1139.29ZM883.743 1149.23H887.13V1153C888.14 1151.52 889.206 1150.41 890.327 1149.68C891.448 1148.94 892.616 1148.57 893.832 1148.57C894.747 1148.57 895.726 1148.86 896.768 1149.45L895.04 1152.24C894.345 1151.94 893.761 1151.79 893.287 1151.79C892.182 1151.79 891.116 1152.25 890.09 1153.17C889.064 1154.07 888.282 1155.47 887.746 1157.38C887.335 1158.85 887.13 1161.82 887.13 1166.29V1175H883.743V1149.23ZM923.219 1166.45L926.013 1167.92C925.097 1169.72 924.04 1171.17 922.84 1172.28C921.64 1173.38 920.29 1174.23 918.79 1174.81C917.29 1175.38 915.593 1175.66 913.699 1175.66C909.499 1175.66 906.215 1174.29 903.847 1171.54C901.479 1168.78 900.295 1165.66 900.295 1162.19C900.295 1158.92 901.297 1156.01 903.302 1153.45C905.844 1150.2 909.247 1148.57 913.509 1148.57C917.898 1148.57 921.403 1150.24 924.024 1153.57C925.887 1155.92 926.834 1158.86 926.866 1162.38H903.705C903.768 1165.38 904.723 1167.84 906.571 1169.77C908.418 1171.68 910.699 1172.63 913.415 1172.63C914.725 1172.63 915.996 1172.4 917.227 1171.95C918.475 1171.49 919.532 1170.88 920.401 1170.12C921.269 1169.36 922.208 1168.14 923.219 1166.45ZM923.219 1159.51C922.777 1157.74 922.129 1156.33 921.277 1155.27C920.44 1154.22 919.327 1153.36 917.938 1152.72C916.548 1152.07 915.088 1151.74 913.557 1151.74C911.031 1151.74 908.86 1152.56 907.044 1154.18C905.718 1155.37 904.715 1157.14 904.037 1159.51H923.219ZM934.513 1139.29H937.828V1175H934.513V1139.29ZM958.856 1148.57C962.819 1148.57 966.102 1150.01 968.707 1152.88C971.076 1155.5 972.26 1158.6 972.26 1162.19C972.26 1165.79 971.005 1168.94 968.494 1171.64C966 1174.32 962.787 1175.66 958.856 1175.66C954.909 1175.66 951.68 1174.32 949.17 1171.64C946.676 1168.94 945.428 1165.79 945.428 1162.19C945.428 1158.62 946.612 1155.53 948.981 1152.91C951.586 1150.02 954.877 1148.57 958.856 1148.57ZM958.856 1151.82C956.109 1151.82 953.748 1152.83 951.775 1154.87C949.802 1156.91 948.815 1159.37 948.815 1162.26C948.815 1164.12 949.265 1165.86 950.165 1167.47C951.065 1169.08 952.28 1170.33 953.812 1171.21C955.343 1172.08 957.024 1172.51 958.856 1172.51C960.687 1172.51 962.369 1172.08 963.9 1171.21C965.431 1170.33 966.647 1169.08 967.547 1167.47C968.447 1165.86 968.897 1164.12 968.897 1162.26C968.897 1159.37 967.902 1156.91 965.913 1154.87C963.939 1152.83 961.587 1151.82 958.856 1151.82ZM1005.39 1154.59L1002.76 1156.22C1000.49 1153.2 997.384 1151.7 993.453 1151.7C990.311 1151.7 987.698 1152.71 985.614 1154.73C983.546 1156.75 982.512 1159.2 982.512 1162.09C982.512 1163.97 982.986 1165.74 983.933 1167.4C984.896 1169.06 986.206 1170.34 987.864 1171.26C989.538 1172.17 991.408 1172.63 993.477 1172.63C997.266 1172.63 1000.36 1171.12 1002.76 1168.11L1005.39 1169.84C1004.16 1171.68 1002.5 1173.12 1000.42 1174.15C998.347 1175.16 995.987 1175.66 993.334 1175.66C989.261 1175.66 985.883 1174.37 983.199 1171.78C980.515 1169.19 979.173 1166.04 979.173 1162.33C979.173 1159.84 979.796 1157.52 981.044 1155.39C982.307 1153.24 984.035 1151.57 986.23 1150.37C988.424 1149.17 990.879 1148.57 993.595 1148.57C995.3 1148.57 996.942 1148.83 998.521 1149.35C1000.12 1149.87 1001.47 1150.55 1002.57 1151.39C1003.68 1152.23 1004.61 1153.29 1005.39 1154.59ZM1039.39 1149.23V1175H1036.13V1170.57C1034.74 1172.26 1033.17 1173.53 1031.44 1174.38C1029.72 1175.24 1027.83 1175.66 1025.78 1175.66C1022.13 1175.66 1019.01 1174.34 1016.42 1171.71C1013.85 1169.06 1012.56 1165.84 1012.56 1162.05C1012.56 1158.34 1013.86 1155.16 1016.47 1152.53C1019.07 1149.89 1022.21 1148.57 1025.87 1148.57C1027.99 1148.57 1029.9 1149.02 1031.6 1149.92C1033.32 1150.82 1034.83 1152.17 1036.13 1153.97V1149.23H1039.39ZM1026.13 1151.77C1024.28 1151.77 1022.58 1152.23 1021.02 1153.14C1019.45 1154.04 1018.21 1155.31 1017.27 1156.95C1016.36 1158.6 1015.9 1160.33 1015.9 1162.16C1015.9 1163.98 1016.37 1165.72 1017.3 1167.37C1018.23 1169.03 1019.48 1170.33 1021.04 1171.26C1022.62 1172.17 1024.31 1172.63 1026.11 1172.63C1027.92 1172.63 1029.64 1172.17 1031.27 1171.26C1032.9 1170.34 1034.14 1169.1 1035.01 1167.54C1035.9 1165.98 1036.34 1164.22 1036.34 1162.26C1036.34 1159.28 1035.35 1156.78 1033.38 1154.78C1031.42 1152.77 1029 1151.77 1026.13 1151.77ZM1051.71 1139.67H1055.05V1149.23H1060.3V1152.08H1055.05V1175H1051.71V1152.08H1047.18V1149.23H1051.71V1139.67ZM1068.35 1138.62C1069.11 1138.62 1069.76 1138.89 1070.29 1139.43C1070.83 1139.97 1071.1 1140.61 1071.1 1141.37C1071.1 1142.11 1070.83 1142.75 1070.29 1143.29C1069.76 1143.83 1069.11 1144.1 1068.35 1144.1C1067.61 1144.1 1066.97 1143.83 1066.43 1143.29C1065.9 1142.75 1065.63 1142.11 1065.63 1141.37C1065.63 1140.61 1065.9 1139.97 1066.43 1139.43C1066.97 1138.89 1067.61 1138.62 1068.35 1138.62ZM1066.69 1149.23H1070.03V1175H1066.69V1149.23ZM1078.84 1149.23H1082.16V1153.85C1083.48 1152.08 1084.95 1150.77 1086.56 1149.9C1088.17 1149.01 1089.92 1148.57 1091.82 1148.57C1093.74 1148.57 1095.45 1149.06 1096.93 1150.04C1098.43 1151.02 1099.54 1152.34 1100.25 1153.99C1100.96 1155.65 1101.32 1158.23 1101.32 1161.74V1175H1098.02V1162.71C1098.02 1159.74 1097.9 1157.76 1097.64 1156.77C1097.25 1155.06 1096.51 1153.78 1095.42 1152.93C1094.33 1152.06 1092.91 1151.63 1091.16 1151.63C1089.15 1151.63 1087.35 1152.29 1085.76 1153.62C1084.18 1154.94 1083.14 1156.58 1082.63 1158.54C1082.31 1159.82 1082.16 1162.16 1082.16 1165.55V1175H1078.84V1149.23ZM1132.57 1149.23H1135.91V1169.77C1135.91 1173.38 1135.6 1176.03 1134.96 1177.7C1134.1 1180.07 1132.59 1181.89 1130.44 1183.17C1128.29 1184.45 1125.71 1185.09 1122.7 1185.09C1120.49 1185.09 1118.5 1184.77 1116.73 1184.14C1114.98 1183.53 1113.55 1182.69 1112.44 1181.63C1111.34 1180.59 1110.32 1179.06 1109.39 1177.04H1112.99C1113.97 1178.74 1115.23 1180 1116.78 1180.83C1118.32 1181.65 1120.24 1182.06 1122.53 1182.06C1124.79 1182.06 1126.69 1181.63 1128.24 1180.78C1129.8 1179.94 1130.92 1178.88 1131.58 1177.6C1132.24 1176.33 1132.57 1174.27 1132.57 1171.42V1170.1C1131.33 1171.68 1129.8 1172.89 1128 1173.74C1126.2 1174.58 1124.29 1175 1122.27 1175C1119.9 1175 1117.68 1174.42 1115.59 1173.25C1113.51 1172.06 1111.9 1170.48 1110.76 1168.49C1109.63 1166.5 1109.06 1164.31 1109.06 1161.93C1109.06 1159.54 1109.65 1157.33 1110.83 1155.27C1112.02 1153.2 1113.65 1151.57 1115.74 1150.37C1117.84 1149.17 1120.05 1148.57 1122.37 1148.57C1124.29 1148.57 1126.08 1148.97 1127.74 1149.78C1129.42 1150.57 1131.03 1151.88 1132.57 1153.71V1149.23ZM1122.79 1151.77C1120.91 1151.77 1119.17 1152.23 1117.56 1153.14C1115.95 1154.04 1114.69 1155.3 1113.77 1156.91C1112.85 1158.5 1112.4 1160.23 1112.4 1162.09C1112.4 1164.92 1113.34 1167.26 1115.24 1169.1C1117.13 1170.95 1119.59 1171.87 1122.6 1171.87C1125.65 1171.87 1128.1 1170.96 1129.94 1169.13C1131.81 1167.3 1132.74 1164.89 1132.74 1161.9C1132.74 1159.96 1132.31 1158.23 1131.46 1156.72C1130.61 1155.19 1129.4 1153.98 1127.84 1153.09C1126.27 1152.21 1124.59 1151.77 1122.79 1151.77Z" fill="white"/>
</svg>
