<svg width="1080" height="1176" viewBox="0 0 1080 1176" fill="none" xmlns="http://www.w3.org/2000/svg">
<rect width="1080" height="1176" fill="white"/>
<rect y="588" width="1080" height="588" fill="#F4F4F4"/>
<rect y="692" width="464" height="200" fill="#0069C0"/>
<path d="M499.852 726.651V727.97H496.825L495.946 734H494.579L495.458 727.97H491.393L490.465 734H489.122L490.05 727.97H487.047V726.651H490.257L490.88 722.574H487.792V721.244H491.075L491.93 715.531H493.236L492.406 721.244H496.458L497.289 715.531H498.656L497.813 721.244H500.548V722.574H497.618L497.032 726.651H499.852ZM496.275 722.574H492.198L491.6 726.651H495.653L496.275 722.574ZM503.612 725.028C503.612 722.66 503.864 720.829 504.369 719.535C504.881 718.241 505.602 717.26 506.529 716.593C507.457 715.925 508.495 715.592 509.642 715.592C510.806 715.592 511.86 715.93 512.804 716.605C513.748 717.272 514.492 718.277 515.038 719.62C515.591 720.963 515.868 722.765 515.868 725.028C515.868 727.282 515.595 729.076 515.05 730.411C514.513 731.746 513.768 732.755 512.816 733.438C511.864 734.114 510.806 734.452 509.642 734.452C508.495 734.452 507.461 734.122 506.542 733.463C505.622 732.804 504.902 731.823 504.381 730.521C503.868 729.211 503.612 727.38 503.612 725.028ZM505.309 725.064C505.309 727.091 505.488 728.625 505.846 729.667C506.212 730.7 506.749 731.485 507.457 732.022C508.165 732.56 508.914 732.828 509.703 732.828C510.501 732.828 511.245 732.568 511.937 732.047C512.629 731.518 513.154 730.729 513.512 729.679C513.959 728.401 514.183 726.863 514.183 725.064C514.183 723.258 513.984 721.781 513.585 720.633C513.186 719.478 512.633 718.635 511.925 718.106C511.225 717.569 510.484 717.301 509.703 717.301C508.906 717.301 508.157 717.569 507.457 718.106C506.757 718.635 506.224 719.421 505.858 720.462C505.492 721.496 505.309 723.03 505.309 725.064ZM517.479 725.028C517.479 722.66 517.731 720.829 518.236 719.535C518.749 718.241 519.469 717.26 520.396 716.593C521.324 715.925 522.362 715.592 523.509 715.592C524.673 715.592 525.727 715.93 526.671 716.605C527.615 717.272 528.36 718.277 528.905 719.62C529.458 720.963 529.735 722.765 529.735 725.028C529.735 727.282 529.462 729.076 528.917 730.411C528.38 731.746 527.635 732.755 526.683 733.438C525.731 734.114 524.673 734.452 523.509 734.452C522.362 734.452 521.328 734.122 520.409 733.463C519.489 732.804 518.769 731.823 518.248 730.521C517.735 729.211 517.479 727.38 517.479 725.028ZM519.176 725.064C519.176 727.091 519.355 728.625 519.713 729.667C520.079 730.7 520.616 731.485 521.324 732.022C522.032 732.56 522.781 732.828 523.57 732.828C524.368 732.828 525.112 732.568 525.804 732.047C526.496 731.518 527.021 730.729 527.379 729.679C527.826 728.401 528.05 726.863 528.05 725.064C528.05 723.258 527.851 721.781 527.452 720.633C527.053 719.478 526.5 718.635 525.792 718.106C525.092 717.569 524.352 717.301 523.57 717.301C522.773 717.301 522.024 717.569 521.324 718.106C520.624 718.635 520.091 719.421 519.725 720.462C519.359 721.496 519.176 723.03 519.176 725.064ZM539.72 715.592L541.197 716.556L536.351 723.905C537.002 723.685 537.612 723.575 538.182 723.575C539.606 723.575 540.815 724.092 541.808 725.125C542.8 726.151 543.297 727.416 543.297 728.922C543.297 729.955 543.057 730.891 542.577 731.729C542.097 732.56 541.413 733.223 540.526 733.719C539.647 734.208 538.699 734.452 537.682 734.452C536.697 734.452 535.781 734.216 534.935 733.744C534.097 733.264 533.438 732.592 532.958 731.729C532.477 730.867 532.237 729.943 532.237 728.958C532.237 728.226 532.384 727.457 532.677 726.651C532.978 725.838 533.511 724.861 534.276 723.722L539.72 715.592ZM537.755 725.15C536.713 725.15 535.822 725.52 535.082 726.261C534.349 726.993 533.983 727.884 533.983 728.934C533.983 729.976 534.349 730.867 535.082 731.607C535.822 732.34 536.713 732.706 537.755 732.706C538.797 732.706 539.684 732.34 540.416 731.607C541.157 730.867 541.527 729.976 541.527 728.934C541.527 727.884 541.157 726.993 540.416 726.261C539.684 725.52 538.797 725.15 537.755 725.15ZM549.217 734.452L547.74 733.5L552.586 726.151C551.935 726.362 551.325 726.468 550.755 726.468C549.331 726.468 548.123 725.956 547.13 724.93C546.137 723.897 545.641 722.627 545.641 721.122C545.641 720.088 545.881 719.156 546.361 718.326C546.841 717.496 547.521 716.833 548.399 716.336C549.286 715.84 550.235 715.592 551.244 715.592C552.236 715.592 553.152 715.832 553.99 716.312C554.837 716.792 555.5 717.464 555.98 718.326C556.46 719.189 556.7 720.108 556.7 721.085C556.7 721.826 556.55 722.603 556.249 723.417C555.956 724.222 555.427 725.195 554.662 726.334L549.217 734.452ZM551.17 724.894C552.22 724.894 553.111 724.527 553.844 723.795C554.584 723.054 554.955 722.163 554.955 721.122C554.955 720.08 554.584 719.193 553.844 718.46C553.111 717.72 552.22 717.35 551.17 717.35C550.129 717.35 549.238 717.72 548.497 718.46C547.765 719.193 547.398 720.08 547.398 721.122C547.398 722.163 547.765 723.054 548.497 723.795C549.238 724.527 550.129 724.894 551.17 724.894ZM577.196 719.376L575.78 720.462C574.999 719.445 574.059 718.676 572.96 718.155C571.869 717.626 570.669 717.362 569.359 717.362C567.927 717.362 566.6 717.708 565.379 718.399C564.159 719.083 563.211 720.007 562.535 721.17C561.868 722.326 561.534 723.628 561.534 725.077C561.534 727.266 562.283 729.093 563.78 730.558C565.286 732.022 567.182 732.755 569.469 732.755C571.983 732.755 574.087 731.77 575.78 729.801L577.196 730.875C576.301 732.014 575.182 732.897 573.839 733.524C572.504 734.142 571.011 734.452 569.359 734.452C566.218 734.452 563.74 733.406 561.925 731.314C560.403 729.549 559.642 727.416 559.642 724.918C559.642 722.289 560.562 720.08 562.401 718.29C564.248 716.491 566.559 715.592 569.334 715.592C571.011 715.592 572.525 715.925 573.875 716.593C575.226 717.252 576.333 718.18 577.196 719.376ZM579.417 725.028C579.417 722.66 579.67 720.829 580.174 719.535C580.687 718.241 581.407 717.26 582.335 716.593C583.263 715.925 584.3 715.592 585.448 715.592C586.611 715.592 587.665 715.93 588.609 716.605C589.553 717.272 590.298 718.277 590.843 719.62C591.397 720.963 591.673 722.765 591.673 725.028C591.673 727.282 591.401 729.076 590.855 730.411C590.318 731.746 589.574 732.755 588.622 733.438C587.669 734.114 586.611 734.452 585.448 734.452C584.3 734.452 583.267 734.122 582.347 733.463C581.428 732.804 580.707 731.823 580.187 730.521C579.674 729.211 579.417 727.38 579.417 725.028ZM581.114 725.064C581.114 727.091 581.293 728.625 581.651 729.667C582.018 730.7 582.555 731.485 583.263 732.022C583.971 732.56 584.719 732.828 585.509 732.828C586.306 732.828 587.051 732.568 587.743 732.047C588.434 731.518 588.959 730.729 589.317 729.679C589.765 728.401 589.989 726.863 589.989 725.064C589.989 723.258 589.789 721.781 589.391 720.633C588.992 719.478 588.438 718.635 587.73 718.106C587.031 717.569 586.29 717.301 585.509 717.301C584.711 717.301 583.963 717.569 583.263 718.106C582.563 718.635 582.03 719.421 581.664 720.462C581.297 721.496 581.114 723.03 581.114 725.064Z" fill="#1A1A1A"/>
<path d="M487.083 765.365H490.66C492.654 765.365 494.005 765.446 494.713 765.609C495.779 765.853 496.646 766.378 497.313 767.184C497.98 767.981 498.314 768.966 498.314 770.138C498.314 771.114 498.082 771.973 497.618 772.713C497.162 773.454 496.507 774.015 495.653 774.398C494.798 774.772 493.618 774.964 492.113 774.972L498.57 783.321H496.349L489.903 774.972H488.878V783.321H487.083V765.365ZM488.878 767.123V773.226L491.966 773.25C493.163 773.25 494.046 773.137 494.615 772.909C495.193 772.681 495.641 772.319 495.958 771.822C496.284 771.318 496.446 770.756 496.446 770.138C496.446 769.535 496.284 768.99 495.958 768.502C495.632 768.006 495.205 767.652 494.676 767.44C494.147 767.228 493.268 767.123 492.04 767.123H488.878ZM503.771 769.698C504.186 769.698 504.54 769.845 504.833 770.138C505.125 770.431 505.272 770.789 505.272 771.212C505.272 771.635 505.125 771.993 504.833 772.286C504.54 772.579 504.186 772.726 503.771 772.726C503.355 772.726 503.001 772.579 502.708 772.286C502.416 771.993 502.269 771.635 502.269 771.212C502.269 770.797 502.416 770.443 502.708 770.15C503.001 769.849 503.355 769.698 503.771 769.698ZM503.771 780.636C504.186 780.636 504.54 780.782 504.833 781.075C505.125 781.368 505.272 781.726 505.272 782.149C505.272 782.564 505.125 782.923 504.833 783.224C504.54 783.517 504.186 783.663 503.771 783.663C503.355 783.663 503.001 783.517 502.708 783.224C502.416 782.923 502.269 782.564 502.269 782.149C502.269 781.726 502.416 781.368 502.708 781.075C503.001 780.782 503.355 780.636 503.771 780.636ZM521.581 774.349C521.581 771.981 521.833 770.15 522.337 768.856C522.85 767.562 523.57 766.581 524.498 765.914C525.426 765.247 526.463 764.913 527.611 764.913C528.775 764.913 529.828 765.251 530.772 765.926C531.716 766.594 532.461 767.599 533.006 768.941C533.56 770.284 533.836 772.087 533.836 774.349C533.836 776.603 533.564 778.398 533.019 779.732C532.481 781.067 531.737 782.076 530.785 782.76C529.833 783.435 528.775 783.773 527.611 783.773C526.463 783.773 525.43 783.443 524.51 782.784C523.591 782.125 522.87 781.144 522.35 779.842C521.837 778.532 521.581 776.701 521.581 774.349ZM523.277 774.386C523.277 776.412 523.456 777.946 523.814 778.988C524.181 780.021 524.718 780.807 525.426 781.344C526.134 781.881 526.882 782.149 527.672 782.149C528.469 782.149 529.214 781.889 529.906 781.368C530.597 780.839 531.122 780.05 531.48 779C531.928 777.722 532.152 776.184 532.152 774.386C532.152 772.579 531.952 771.102 531.554 769.955C531.155 768.799 530.602 767.957 529.894 767.428C529.194 766.891 528.453 766.622 527.672 766.622C526.874 766.622 526.126 766.891 525.426 767.428C524.726 767.957 524.193 768.742 523.827 769.784C523.46 770.817 523.277 772.351 523.277 774.386ZM535.448 774.349C535.448 771.981 535.7 770.15 536.205 768.856C536.717 767.562 537.438 766.581 538.365 765.914C539.293 765.247 540.331 764.913 541.478 764.913C542.642 764.913 543.696 765.251 544.64 765.926C545.584 766.594 546.328 767.599 546.874 768.941C547.427 770.284 547.704 772.087 547.704 774.349C547.704 776.603 547.431 778.398 546.886 779.732C546.349 781.067 545.604 782.076 544.652 782.76C543.7 783.435 542.642 783.773 541.478 783.773C540.331 783.773 539.297 783.443 538.377 782.784C537.458 782.125 536.738 781.144 536.217 779.842C535.704 778.532 535.448 776.701 535.448 774.349ZM537.145 774.386C537.145 776.412 537.324 777.946 537.682 778.988C538.048 780.021 538.585 780.807 539.293 781.344C540.001 781.881 540.75 782.149 541.539 782.149C542.337 782.149 543.081 781.889 543.773 781.368C544.465 780.839 544.99 780.05 545.348 779C545.795 777.722 546.019 776.184 546.019 774.386C546.019 772.579 545.82 771.102 545.421 769.955C545.022 768.799 544.469 767.957 543.761 767.428C543.061 766.891 542.32 766.622 541.539 766.622C540.742 766.622 539.993 766.891 539.293 767.428C538.593 767.957 538.06 768.742 537.694 769.784C537.328 770.817 537.145 772.351 537.145 774.386ZM504.308 811.38L502.916 812.698C501.915 811.714 500.816 810.969 499.62 810.464C498.432 809.952 497.272 809.695 496.141 809.695C494.733 809.695 493.39 810.041 492.113 810.733C490.843 811.425 489.859 812.365 489.159 813.553C488.459 814.733 488.109 815.982 488.109 817.3C488.109 818.651 488.471 819.937 489.195 821.158C489.92 822.37 490.921 823.326 492.198 824.026C493.476 824.718 494.876 825.064 496.397 825.064C498.245 825.064 499.807 824.543 501.085 823.501C502.363 822.46 503.119 821.109 503.355 819.449H497.63V817.715H505.37C505.353 820.49 504.527 822.696 502.892 824.332C501.264 825.959 499.083 826.773 496.349 826.773C493.028 826.773 490.4 825.642 488.463 823.379C486.974 821.638 486.229 819.624 486.229 817.337C486.229 815.636 486.656 814.053 487.511 812.588C488.365 811.124 489.537 809.98 491.026 809.158C492.516 808.328 494.2 807.913 496.08 807.913C497.602 807.913 499.034 808.19 500.377 808.743C501.72 809.288 503.03 810.167 504.308 811.38ZM510.387 812.698C510.802 812.698 511.156 812.845 511.449 813.138C511.742 813.431 511.888 813.789 511.888 814.212C511.888 814.635 511.742 814.993 511.449 815.286C511.156 815.579 510.802 815.726 510.387 815.726C509.972 815.726 509.618 815.579 509.325 815.286C509.032 814.993 508.885 814.635 508.885 814.212C508.885 813.797 509.032 813.443 509.325 813.15C509.618 812.849 509.972 812.698 510.387 812.698ZM510.387 823.636C510.802 823.636 511.156 823.782 511.449 824.075C511.742 824.368 511.888 824.726 511.888 825.149C511.888 825.564 511.742 825.923 511.449 826.224C511.156 826.517 510.802 826.663 510.387 826.663C509.972 826.663 509.618 826.517 509.325 826.224C509.032 825.923 508.885 825.564 508.885 825.149C508.885 824.726 509.032 824.368 509.325 824.075C509.618 823.782 509.972 823.636 510.387 823.636ZM531.114 807.913H531.48V820.425H533.653V822.146H531.48V826.321H529.686V822.146H521.104L531.114 807.913ZM529.686 820.425V812.942L524.4 820.425H529.686ZM538.963 808.365H542.491V826.321H540.709V810.123H537.889L538.963 808.365ZM487.035 851.365H490.575C491.999 851.365 493.093 851.536 493.858 851.877C494.623 852.211 495.226 852.728 495.665 853.428C496.113 854.128 496.336 854.905 496.336 855.759C496.336 856.557 496.141 857.285 495.75 857.944C495.36 858.595 494.786 859.124 494.029 859.531C494.965 859.849 495.685 860.223 496.19 860.654C496.694 861.077 497.085 861.594 497.362 862.205C497.647 862.807 497.789 863.462 497.789 864.17C497.789 865.61 497.26 866.831 496.202 867.832C495.152 868.825 493.74 869.321 491.966 869.321H487.035V851.365ZM488.792 853.123V858.872H489.818C491.063 858.872 491.979 858.758 492.564 858.53C493.15 858.294 493.614 857.928 493.956 857.432C494.298 856.927 494.469 856.37 494.469 855.759C494.469 854.937 494.18 854.294 493.602 853.831C493.032 853.359 492.121 853.123 490.868 853.123H488.792ZM488.792 860.679V867.563H491.014C492.324 867.563 493.285 867.437 493.895 867.185C494.505 866.925 494.994 866.522 495.36 865.977C495.734 865.431 495.921 864.841 495.921 864.207C495.921 863.409 495.661 862.713 495.14 862.119C494.619 861.525 493.903 861.118 492.992 860.898C492.381 860.752 491.319 860.679 489.806 860.679H488.792ZM502.94 855.698C503.355 855.698 503.709 855.845 504.002 856.138C504.295 856.431 504.442 856.789 504.442 857.212C504.442 857.635 504.295 857.993 504.002 858.286C503.709 858.579 503.355 858.726 502.94 858.726C502.525 858.726 502.171 858.579 501.878 858.286C501.585 857.993 501.439 857.635 501.439 857.212C501.439 856.797 501.585 856.443 501.878 856.15C502.171 855.849 502.525 855.698 502.94 855.698ZM502.94 866.636C503.355 866.636 503.709 866.782 504.002 867.075C504.295 867.368 504.442 867.726 504.442 868.149C504.442 868.564 504.295 868.923 504.002 869.224C503.709 869.517 503.355 869.663 502.94 869.663C502.525 869.663 502.171 869.517 501.878 869.224C501.585 868.923 501.439 868.564 501.439 868.149C501.439 867.726 501.585 867.368 501.878 867.075C502.171 866.782 502.525 866.636 502.94 866.636ZM521.751 851.365H533.141L523.534 869.773L522.057 869.016L530.357 853.062H521.751V851.365ZM546.117 851.365V853.074H539.72L538.829 857.969C539.61 857.741 540.314 857.627 540.941 857.627C542.577 857.627 543.924 858.176 544.981 859.275C546.048 860.365 546.581 861.765 546.581 863.474C546.581 864.654 546.308 865.736 545.763 866.721C545.217 867.706 544.477 868.463 543.541 868.992C542.613 869.513 541.539 869.773 540.318 869.773C538.862 869.773 537.633 869.329 536.632 868.442C535.631 867.547 535.033 866.392 534.837 864.976H536.681C536.819 865.667 537.051 866.229 537.376 866.66C537.71 867.091 538.15 867.441 538.695 867.71C539.248 867.97 539.826 868.101 540.428 868.101C541.608 868.101 542.621 867.653 543.468 866.758C544.314 865.863 544.737 864.744 544.737 863.401C544.737 862.188 544.355 861.204 543.59 860.447C542.825 859.69 541.804 859.312 540.526 859.312C539.468 859.312 538.186 859.633 536.681 860.276L538.341 851.365H546.117Z" fill="#1A1A1A"/>
<rect y="892" width="464" height="200" fill="#AC1900"/>
<path d="M499.852 926.651V927.97H496.825L495.946 934H494.579L495.458 927.97H491.393L490.465 934H489.122L490.05 927.97H487.047V926.651H490.257L490.88 922.574H487.792V921.244H491.075L491.93 915.531H493.236L492.406 921.244H496.458L497.289 915.531H498.656L497.813 921.244H500.548V922.574H497.618L497.032 926.651H499.852ZM496.275 922.574H492.198L491.6 926.651H495.653L496.275 922.574ZM512.34 916.043L520.714 934H518.785L515.965 928.092H508.226L505.418 934H503.417L511.9 916.043H512.34ZM512.12 919.852L509.032 926.358H515.172L512.12 919.852ZM540.233 919.376L538.817 920.462C538.036 919.445 537.096 918.676 535.997 918.155C534.907 917.626 533.706 917.362 532.396 917.362C530.964 917.362 529.637 917.708 528.417 918.399C527.196 919.083 526.248 920.007 525.572 921.17C524.905 922.326 524.571 923.628 524.571 925.077C524.571 927.266 525.32 929.093 526.817 930.558C528.323 932.022 530.219 932.755 532.506 932.755C535.021 932.755 537.124 931.77 538.817 929.801L540.233 930.875C539.338 932.014 538.219 932.897 536.876 933.524C535.541 934.142 534.048 934.452 532.396 934.452C529.255 934.452 526.777 933.406 524.962 931.314C523.44 929.549 522.679 927.416 522.679 924.918C522.679 922.289 523.599 920.08 525.438 918.29C527.285 916.491 529.597 915.592 532.372 915.592C534.048 915.592 535.562 915.925 536.913 916.593C538.264 917.252 539.37 918.18 540.233 919.376ZM546.288 916.043H549.815V934H548.033V917.801H545.213L546.288 916.043ZM560.326 934.452L558.849 933.5L563.695 926.151C563.044 926.362 562.433 926.468 561.864 926.468C560.44 926.468 559.231 925.956 558.238 924.93C557.245 923.897 556.749 922.627 556.749 921.122C556.749 920.088 556.989 919.156 557.469 918.326C557.949 917.496 558.629 916.833 559.508 916.336C560.395 915.84 561.343 915.592 562.352 915.592C563.345 915.592 564.26 915.832 565.099 916.312C565.945 916.792 566.608 917.464 567.088 918.326C567.569 919.189 567.809 920.108 567.809 921.085C567.809 921.826 567.658 922.603 567.357 923.417C567.064 924.222 566.535 925.195 565.77 926.334L560.326 934.452ZM562.279 924.894C563.329 924.894 564.22 924.527 564.952 923.795C565.693 923.054 566.063 922.163 566.063 921.122C566.063 920.08 565.693 919.193 564.952 918.46C564.22 917.72 563.329 917.35 562.279 917.35C561.237 917.35 560.346 917.72 559.605 918.46C558.873 919.193 558.507 920.08 558.507 921.122C558.507 922.163 558.873 923.054 559.605 923.795C560.346 924.527 561.237 924.894 562.279 924.894ZM570.189 925.028C570.189 922.66 570.441 920.829 570.946 919.535C571.458 918.241 572.179 917.26 573.106 916.593C574.034 915.925 575.072 915.592 576.219 915.592C577.383 915.592 578.437 915.93 579.381 916.605C580.325 917.272 581.069 918.277 581.615 919.62C582.168 920.963 582.445 922.765 582.445 925.028C582.445 927.282 582.172 929.076 581.627 930.411C581.09 931.746 580.345 932.755 579.393 933.438C578.441 934.114 577.383 934.452 576.219 934.452C575.072 934.452 574.038 934.122 573.119 933.463C572.199 932.804 571.479 931.823 570.958 930.521C570.445 929.211 570.189 927.38 570.189 925.028ZM571.886 925.064C571.886 927.091 572.065 928.625 572.423 929.667C572.789 930.7 573.326 931.485 574.034 932.022C574.742 932.56 575.491 932.828 576.28 932.828C577.078 932.828 577.822 932.568 578.514 932.047C579.206 931.518 579.731 930.729 580.089 929.679C580.536 928.401 580.76 926.863 580.76 925.064C580.76 923.258 580.561 921.781 580.162 920.633C579.763 919.478 579.21 918.635 578.502 918.106C577.802 917.569 577.062 917.301 576.28 917.301C575.483 917.301 574.734 917.569 574.034 918.106C573.334 918.635 572.801 919.421 572.435 920.462C572.069 921.496 571.886 923.03 571.886 925.064ZM584.056 925.028C584.056 922.66 584.308 920.829 584.813 919.535C585.326 918.241 586.046 917.26 586.974 916.593C587.901 915.925 588.939 915.592 590.086 915.592C591.25 915.592 592.304 915.93 593.248 916.605C594.192 917.272 594.937 918.277 595.482 919.62C596.035 920.963 596.312 922.765 596.312 925.028C596.312 927.282 596.039 929.076 595.494 930.411C594.957 931.746 594.212 932.755 593.26 933.438C592.308 934.114 591.25 934.452 590.086 934.452C588.939 934.452 587.905 934.122 586.986 933.463C586.066 932.804 585.346 931.823 584.825 930.521C584.312 929.211 584.056 927.38 584.056 925.028ZM585.753 925.064C585.753 927.091 585.932 928.625 586.29 929.667C586.656 930.7 587.193 931.485 587.901 932.022C588.609 932.56 589.358 932.828 590.147 932.828C590.945 932.828 591.69 932.568 592.381 932.047C593.073 931.518 593.598 930.729 593.956 929.679C594.404 928.401 594.627 926.863 594.627 925.064C594.627 923.258 594.428 921.781 594.029 920.633C593.631 919.478 593.077 918.635 592.369 918.106C591.669 917.569 590.929 917.301 590.147 917.301C589.35 917.301 588.601 917.569 587.901 918.106C587.201 918.635 586.668 919.421 586.302 920.462C585.936 921.496 585.753 923.03 585.753 925.064Z" fill="#1A1A1A"/>
<path d="M487.083 965.365H490.66C492.654 965.365 494.005 965.446 494.713 965.609C495.779 965.853 496.646 966.378 497.313 967.184C497.98 967.981 498.314 968.966 498.314 970.138C498.314 971.114 498.082 971.973 497.618 972.713C497.162 973.454 496.507 974.015 495.653 974.398C494.798 974.772 493.618 974.964 492.113 974.972L498.57 983.321H496.349L489.903 974.972H488.878V983.321H487.083V965.365ZM488.878 967.123V973.226L491.966 973.25C493.163 973.25 494.046 973.137 494.615 972.909C495.193 972.681 495.641 972.319 495.958 971.822C496.284 971.318 496.446 970.756 496.446 970.138C496.446 969.535 496.284 968.99 495.958 968.502C495.632 968.006 495.205 967.652 494.676 967.44C494.147 967.228 493.268 967.123 492.04 967.123H488.878ZM503.771 969.698C504.186 969.698 504.54 969.845 504.833 970.138C505.125 970.431 505.272 970.789 505.272 971.212C505.272 971.635 505.125 971.993 504.833 972.286C504.54 972.579 504.186 972.726 503.771 972.726C503.355 972.726 503.001 972.579 502.708 972.286C502.416 971.993 502.269 971.635 502.269 971.212C502.269 970.797 502.416 970.443 502.708 970.15C503.001 969.849 503.355 969.698 503.771 969.698ZM503.771 980.636C504.186 980.636 504.54 980.782 504.833 981.075C505.125 981.368 505.272 981.726 505.272 982.149C505.272 982.564 505.125 982.923 504.833 983.224C504.54 983.517 504.186 983.663 503.771 983.663C503.355 983.663 503.001 983.517 502.708 983.224C502.416 982.923 502.269 982.564 502.269 982.149C502.269 981.726 502.416 981.368 502.708 981.075C503.001 980.782 503.355 980.636 503.771 980.636ZM529.955 964.913L531.432 965.877L526.585 973.226C527.236 973.006 527.847 972.896 528.417 972.896C529.841 972.896 531.049 973.413 532.042 974.447C533.035 975.472 533.531 976.738 533.531 978.243C533.531 979.277 533.291 980.213 532.811 981.051C532.331 981.881 531.647 982.544 530.76 983.041C529.881 983.529 528.933 983.773 527.916 983.773C526.931 983.773 526.016 983.537 525.169 983.065C524.331 982.585 523.672 981.913 523.192 981.051C522.712 980.188 522.472 979.264 522.472 978.28C522.472 977.547 522.618 976.778 522.911 975.973C523.212 975.159 523.745 974.182 524.51 973.043L529.955 964.913ZM527.989 974.471C526.948 974.471 526.056 974.841 525.316 975.582C524.583 976.314 524.217 977.206 524.217 978.255C524.217 979.297 524.583 980.188 525.316 980.929C526.056 981.661 526.948 982.027 527.989 982.027C529.031 982.027 529.918 981.661 530.65 980.929C531.391 980.188 531.761 979.297 531.761 978.255C531.761 977.206 531.391 976.314 530.65 975.582C529.918 974.841 529.031 974.471 527.989 974.471ZM536.449 965.365H547.838L538.231 983.773L536.754 983.016L545.055 967.062H536.449V965.365ZM504.308 1011.38L502.916 1012.7C501.915 1011.71 500.816 1010.97 499.62 1010.46C498.432 1009.95 497.272 1009.7 496.141 1009.7C494.733 1009.7 493.39 1010.04 492.113 1010.73C490.843 1011.42 489.859 1012.36 489.159 1013.55C488.459 1014.73 488.109 1015.98 488.109 1017.3C488.109 1018.65 488.471 1019.94 489.195 1021.16C489.92 1022.37 490.921 1023.33 492.198 1024.03C493.476 1024.72 494.876 1025.06 496.397 1025.06C498.245 1025.06 499.807 1024.54 501.085 1023.5C502.363 1022.46 503.119 1021.11 503.355 1019.45H497.63V1017.72H505.37C505.353 1020.49 504.527 1022.7 502.892 1024.33C501.264 1025.96 499.083 1026.77 496.349 1026.77C493.028 1026.77 490.4 1025.64 488.463 1023.38C486.974 1021.64 486.229 1019.62 486.229 1017.34C486.229 1015.64 486.656 1014.05 487.511 1012.59C488.365 1011.12 489.537 1009.98 491.026 1009.16C492.516 1008.33 494.2 1007.91 496.08 1007.91C497.602 1007.91 499.034 1008.19 500.377 1008.74C501.72 1009.29 503.03 1010.17 504.308 1011.38ZM510.387 1012.7C510.802 1012.7 511.156 1012.84 511.449 1013.14C511.742 1013.43 511.888 1013.79 511.888 1014.21C511.888 1014.64 511.742 1014.99 511.449 1015.29C511.156 1015.58 510.802 1015.73 510.387 1015.73C509.972 1015.73 509.618 1015.58 509.325 1015.29C509.032 1014.99 508.885 1014.64 508.885 1014.21C508.885 1013.8 509.032 1013.44 509.325 1013.15C509.618 1012.85 509.972 1012.7 510.387 1012.7ZM510.387 1023.64C510.802 1023.64 511.156 1023.78 511.449 1024.08C511.742 1024.37 511.888 1024.73 511.888 1025.15C511.888 1025.56 511.742 1025.92 511.449 1026.22C511.156 1026.52 510.802 1026.66 510.387 1026.66C509.972 1026.66 509.618 1026.52 509.325 1026.22C509.032 1025.92 508.885 1025.56 508.885 1025.15C508.885 1024.73 509.032 1024.37 509.325 1024.08C509.618 1023.78 509.972 1023.64 510.387 1023.64ZM525.096 1008.36H528.624V1026.32H526.842V1010.12H524.022L525.096 1008.36ZM535.13 1017.35C535.13 1014.98 535.383 1013.15 535.887 1011.86C536.4 1010.56 537.12 1009.58 538.048 1008.91C538.976 1008.25 540.013 1007.91 541.161 1007.91C542.324 1007.91 543.378 1008.25 544.322 1008.93C545.266 1009.59 546.011 1010.6 546.556 1011.94C547.11 1013.28 547.386 1015.09 547.386 1017.35C547.386 1019.6 547.114 1021.4 546.568 1022.73C546.031 1024.07 545.287 1025.08 544.334 1025.76C543.382 1026.44 542.324 1026.77 541.161 1026.77C540.013 1026.77 538.98 1026.44 538.06 1025.78C537.14 1025.12 536.42 1024.14 535.899 1022.84C535.387 1021.53 535.13 1019.7 535.13 1017.35ZM536.827 1017.39C536.827 1019.41 537.006 1020.95 537.364 1021.99C537.73 1023.02 538.268 1023.81 538.976 1024.34C539.684 1024.88 540.432 1025.15 541.222 1025.15C542.019 1025.15 542.764 1024.89 543.456 1024.37C544.147 1023.84 544.672 1023.05 545.03 1022C545.478 1020.72 545.702 1019.18 545.702 1017.39C545.702 1015.58 545.502 1014.1 545.104 1012.95C544.705 1011.8 544.151 1010.96 543.443 1010.43C542.743 1009.89 542.003 1009.62 541.222 1009.62C540.424 1009.62 539.675 1009.89 538.976 1010.43C538.276 1010.96 537.743 1011.74 537.376 1012.78C537.01 1013.82 536.827 1015.35 536.827 1017.39ZM487.035 1051.36H490.575C491.999 1051.36 493.093 1051.54 493.858 1051.88C494.623 1052.21 495.226 1052.73 495.665 1053.43C496.113 1054.13 496.336 1054.9 496.336 1055.76C496.336 1056.56 496.141 1057.29 495.75 1057.94C495.36 1058.6 494.786 1059.12 494.029 1059.53C494.965 1059.85 495.685 1060.22 496.19 1060.65C496.694 1061.08 497.085 1061.59 497.362 1062.2C497.647 1062.81 497.789 1063.46 497.789 1064.17C497.789 1065.61 497.26 1066.83 496.202 1067.83C495.152 1068.82 493.74 1069.32 491.966 1069.32H487.035V1051.36ZM488.792 1053.12V1058.87H489.818C491.063 1058.87 491.979 1058.76 492.564 1058.53C493.15 1058.29 493.614 1057.93 493.956 1057.43C494.298 1056.93 494.469 1056.37 494.469 1055.76C494.469 1054.94 494.18 1054.29 493.602 1053.83C493.032 1053.36 492.121 1053.12 490.868 1053.12H488.792ZM488.792 1060.68V1067.56H491.014C492.324 1067.56 493.285 1067.44 493.895 1067.19C494.505 1066.92 494.994 1066.52 495.36 1065.98C495.734 1065.43 495.921 1064.84 495.921 1064.21C495.921 1063.41 495.661 1062.71 495.14 1062.12C494.619 1061.53 493.903 1061.12 492.992 1060.9C492.381 1060.75 491.319 1060.68 489.806 1060.68H488.792ZM502.94 1055.7C503.355 1055.7 503.709 1055.84 504.002 1056.14C504.295 1056.43 504.442 1056.79 504.442 1057.21C504.442 1057.64 504.295 1057.99 504.002 1058.29C503.709 1058.58 503.355 1058.73 502.94 1058.73C502.525 1058.73 502.171 1058.58 501.878 1058.29C501.585 1057.99 501.439 1057.64 501.439 1057.21C501.439 1056.8 501.585 1056.44 501.878 1056.15C502.171 1055.85 502.525 1055.7 502.94 1055.7ZM502.94 1066.64C503.355 1066.64 503.709 1066.78 504.002 1067.08C504.295 1067.37 504.442 1067.73 504.442 1068.15C504.442 1068.56 504.295 1068.92 504.002 1069.22C503.709 1069.52 503.355 1069.66 502.94 1069.66C502.525 1069.66 502.171 1069.52 501.878 1069.22C501.585 1068.92 501.439 1068.56 501.439 1068.15C501.439 1067.73 501.585 1067.37 501.878 1067.08C502.171 1066.78 502.525 1066.64 502.94 1066.64ZM520.75 1060.35C520.75 1057.98 521.003 1056.15 521.507 1054.86C522.02 1053.56 522.74 1052.58 523.668 1051.91C524.596 1051.25 525.633 1050.91 526.781 1050.91C527.944 1050.91 528.998 1051.25 529.942 1051.93C530.886 1052.59 531.631 1053.6 532.176 1054.94C532.73 1056.28 533.006 1058.09 533.006 1060.35C533.006 1062.6 532.734 1064.4 532.188 1065.73C531.651 1067.07 530.907 1068.08 529.955 1068.76C529.002 1069.44 527.944 1069.77 526.781 1069.77C525.633 1069.77 524.6 1069.44 523.68 1068.78C522.761 1068.12 522.04 1067.14 521.52 1065.84C521.007 1064.53 520.75 1062.7 520.75 1060.35ZM522.447 1060.39C522.447 1062.41 522.626 1063.95 522.984 1064.99C523.351 1066.02 523.888 1066.81 524.596 1067.34C525.304 1067.88 526.052 1068.15 526.842 1068.15C527.639 1068.15 528.384 1067.89 529.076 1067.37C529.767 1066.84 530.292 1066.05 530.65 1065C531.098 1063.72 531.322 1062.18 531.322 1060.39C531.322 1058.58 531.122 1057.1 530.724 1055.95C530.325 1054.8 529.771 1053.96 529.063 1053.43C528.364 1052.89 527.623 1052.62 526.842 1052.62C526.044 1052.62 525.296 1052.89 524.596 1053.43C523.896 1053.96 523.363 1054.74 522.997 1055.78C522.63 1056.82 522.447 1058.35 522.447 1060.39ZM534.618 1060.35C534.618 1057.98 534.87 1056.15 535.375 1054.86C535.887 1053.56 536.607 1052.58 537.535 1051.91C538.463 1051.25 539.5 1050.91 540.648 1050.91C541.812 1050.91 542.866 1051.25 543.81 1051.93C544.754 1052.59 545.498 1053.6 546.043 1054.94C546.597 1056.28 546.874 1058.09 546.874 1060.35C546.874 1062.6 546.601 1064.4 546.056 1065.73C545.519 1067.07 544.774 1068.08 543.822 1068.76C542.87 1069.44 541.812 1069.77 540.648 1069.77C539.5 1069.77 538.467 1069.44 537.547 1068.78C536.628 1068.12 535.908 1067.14 535.387 1065.84C534.874 1064.53 534.618 1062.7 534.618 1060.35ZM536.314 1060.39C536.314 1062.41 536.493 1063.95 536.852 1064.99C537.218 1066.02 537.755 1066.81 538.463 1067.34C539.171 1067.88 539.92 1068.15 540.709 1068.15C541.507 1068.15 542.251 1067.89 542.943 1067.37C543.635 1066.84 544.16 1066.05 544.518 1065C544.965 1063.72 545.189 1062.18 545.189 1060.39C545.189 1058.58 544.99 1057.1 544.591 1055.95C544.192 1054.8 543.639 1053.96 542.931 1053.43C542.231 1052.89 541.49 1052.62 540.709 1052.62C539.911 1052.62 539.163 1052.89 538.463 1053.43C537.763 1053.96 537.23 1054.74 536.864 1055.78C536.498 1056.82 536.314 1058.35 536.314 1060.39Z" fill="#1A1A1A"/>
<path d="M821.989 908.715V1104.93H923V1027.43L821.989 908.715Z" fill="#AC1900"/>
<path d="M848.568 1036.88H890.877L869.723 1012.02L848.568 987.158V1036.88Z" fill="#F4F4F4"/>
<rect x="848.566" y="1070.33" width="21.968" height="35.62" fill="#F4F4F4"/>
<circle cx="816.281" cy="731.572" r="72.572" fill="#0069C0"/>
<path d="M822.086 904.294L750.919 763.146C743.618 748.666 754.143 731.572 770.36 731.572H822.086V904.294Z" fill="#0069C0"/>
<circle cx="816.281" cy="731.572" r="39.1889" fill="#F4F4F4"/>
<rect width="1080" height="588" fill="#202020"/>
<rect y="104" width="464" height="200" fill="#2196F3"/>
<path d="M499.852 138.651V139.97H496.825L495.946 146H494.579L495.458 139.97H491.393L490.465 146H489.122L490.05 139.97H487.047V138.651H490.257L490.88 134.574H487.792V133.244H491.075L491.93 127.531H493.236L492.406 133.244H496.458L497.289 127.531H498.656L497.813 133.244H500.548V134.574H497.618L497.032 138.651H499.852ZM496.275 134.574H492.198L491.6 138.651H495.653L496.275 134.574ZM505.711 133.671H503.99C504.039 131.897 504.629 130.44 505.76 129.301C506.9 128.161 508.303 127.592 509.972 127.592C511.624 127.592 512.958 128.125 513.976 129.191C515.001 130.257 515.514 131.514 515.514 132.963C515.514 133.98 515.27 134.936 514.781 135.832C514.293 136.719 513.345 137.923 511.937 139.445L507.469 144.267H515.758V146H503.563L510.423 138.59C511.815 137.101 512.718 135.998 513.133 135.282C513.556 134.558 513.768 133.797 513.768 133C513.768 131.99 513.39 131.124 512.633 130.399C511.884 129.667 510.965 129.301 509.874 129.301C508.727 129.301 507.77 129.683 507.005 130.448C506.249 131.213 505.817 132.287 505.711 133.671ZM521.312 128.043H524.84V146H523.058V129.801H520.238L521.312 128.043ZM535.35 146.452L533.873 145.5L538.719 138.151C538.068 138.362 537.458 138.468 536.888 138.468C535.464 138.468 534.256 137.956 533.263 136.93C532.27 135.897 531.773 134.627 531.773 133.122C531.773 132.088 532.014 131.156 532.494 130.326C532.974 129.496 533.653 128.833 534.532 128.336C535.419 127.84 536.367 127.592 537.376 127.592C538.369 127.592 539.285 127.832 540.123 128.312C540.969 128.792 541.633 129.464 542.113 130.326C542.593 131.189 542.833 132.108 542.833 133.085C542.833 133.826 542.682 134.603 542.381 135.417C542.088 136.222 541.559 137.195 540.794 138.334L535.35 146.452ZM537.303 136.894C538.353 136.894 539.244 136.527 539.977 135.795C540.717 135.054 541.087 134.163 541.087 133.122C541.087 132.08 540.717 131.193 539.977 130.46C539.244 129.72 538.353 129.35 537.303 129.35C536.262 129.35 535.37 129.72 534.63 130.46C533.897 131.193 533.531 132.08 533.531 133.122C533.531 134.163 533.897 135.054 534.63 135.795C535.37 136.527 536.262 136.894 537.303 136.894ZM553.587 127.592L555.064 128.556L550.218 135.905C550.869 135.685 551.48 135.575 552.049 135.575C553.473 135.575 554.682 136.092 555.675 137.125C556.668 138.151 557.164 139.416 557.164 140.922C557.164 141.955 556.924 142.891 556.444 143.729C555.964 144.56 555.28 145.223 554.393 145.719C553.514 146.208 552.566 146.452 551.549 146.452C550.564 146.452 549.649 146.216 548.802 145.744C547.964 145.264 547.305 144.592 546.825 143.729C546.345 142.867 546.104 141.943 546.104 140.958C546.104 140.226 546.251 139.457 546.544 138.651C546.845 137.838 547.378 136.861 548.143 135.722L553.587 127.592ZM551.622 137.15C550.58 137.15 549.689 137.52 548.949 138.261C548.216 138.993 547.85 139.884 547.85 140.934C547.85 141.976 548.216 142.867 548.949 143.607C549.689 144.34 550.58 144.706 551.622 144.706C552.664 144.706 553.551 144.34 554.283 143.607C555.024 142.867 555.394 141.976 555.394 140.934C555.394 139.884 555.024 138.993 554.283 138.261C553.551 137.52 552.664 137.15 551.622 137.15ZM560.472 128.043H569.469V129.813H562.254V135.429H569.469V137.199H562.254V146H560.472V128.043ZM573.729 132.206H571.898C572.232 130.725 572.87 129.586 573.814 128.788C574.758 127.991 575.873 127.592 577.159 127.592C578.095 127.592 578.966 127.807 579.771 128.239C580.585 128.662 581.212 129.236 581.651 129.96C582.099 130.684 582.323 131.441 582.323 132.23C582.323 133.777 581.554 135.001 580.016 135.905C580.878 136.255 581.586 136.767 582.14 137.443C582.921 138.395 583.312 139.461 583.312 140.641C583.312 141.658 583.043 142.631 582.506 143.559C581.969 144.478 581.236 145.19 580.309 145.695C579.381 146.199 578.343 146.452 577.196 146.452C575.65 146.452 574.36 146.008 573.326 145.121C572.293 144.226 571.617 142.916 571.3 141.19H573.058C573.367 142.354 573.81 143.196 574.388 143.717C575.129 144.376 576.073 144.706 577.22 144.706C578.522 144.706 579.568 144.315 580.357 143.534C581.147 142.753 581.542 141.837 581.542 140.788C581.542 140.088 581.342 139.433 580.943 138.822C580.553 138.212 580.024 137.752 579.356 137.443C578.697 137.134 577.672 136.942 576.28 136.869V135.221C577.102 135.221 577.851 135.079 578.526 134.794C579.202 134.501 579.69 134.131 579.991 133.683C580.3 133.236 580.455 132.747 580.455 132.218C580.455 131.437 580.142 130.762 579.515 130.192C578.897 129.622 578.111 129.337 577.159 129.337C576.386 129.337 575.719 129.557 575.157 129.997C574.596 130.428 574.12 131.164 573.729 132.206Z" fill="white"/>
<path d="M487.083 177.365H490.66C492.654 177.365 494.005 177.446 494.713 177.609C495.779 177.853 496.646 178.378 497.313 179.184C497.98 179.981 498.314 180.966 498.314 182.138C498.314 183.114 498.082 183.973 497.618 184.713C497.162 185.454 496.507 186.015 495.653 186.398C494.798 186.772 493.618 186.964 492.113 186.972L498.57 195.321H496.349L489.903 186.972H488.878V195.321H487.083V177.365ZM488.878 179.123V185.226L491.966 185.25C493.163 185.25 494.046 185.137 494.615 184.909C495.193 184.681 495.641 184.319 495.958 183.822C496.284 183.318 496.446 182.756 496.446 182.138C496.446 181.535 496.284 180.99 495.958 180.502C495.632 180.006 495.205 179.652 494.676 179.44C494.147 179.228 493.268 179.123 492.04 179.123H488.878ZM503.771 181.698C504.186 181.698 504.54 181.845 504.833 182.138C505.125 182.431 505.272 182.789 505.272 183.212C505.272 183.635 505.125 183.993 504.833 184.286C504.54 184.579 504.186 184.726 503.771 184.726C503.355 184.726 503.001 184.579 502.708 184.286C502.416 183.993 502.269 183.635 502.269 183.212C502.269 182.797 502.416 182.443 502.708 182.15C503.001 181.849 503.355 181.698 503.771 181.698ZM503.771 192.636C504.186 192.636 504.54 192.782 504.833 193.075C505.125 193.368 505.272 193.726 505.272 194.149C505.272 194.564 505.125 194.923 504.833 195.224C504.54 195.517 504.186 195.663 503.771 195.663C503.355 195.663 503.001 195.517 502.708 195.224C502.416 194.923 502.269 194.564 502.269 194.149C502.269 193.726 502.416 193.368 502.708 193.075C503.001 192.782 503.355 192.636 503.771 192.636ZM525.414 177.365H528.941V195.321H527.159V179.123H524.339L525.414 177.365ZM537.962 181.527H536.131C536.465 180.046 537.104 178.907 538.048 178.109C538.992 177.312 540.107 176.913 541.393 176.913C542.328 176.913 543.199 177.129 544.005 177.56C544.819 177.983 545.445 178.557 545.885 179.281C546.332 180.006 546.556 180.762 546.556 181.552C546.556 183.098 545.787 184.323 544.249 185.226C545.112 185.576 545.82 186.089 546.373 186.764C547.154 187.716 547.545 188.782 547.545 189.962C547.545 190.98 547.276 191.952 546.739 192.88C546.202 193.799 545.47 194.512 544.542 195.016C543.614 195.521 542.577 195.773 541.429 195.773C539.883 195.773 538.593 195.329 537.56 194.442C536.526 193.547 535.851 192.237 535.533 190.512H537.291C537.6 191.675 538.044 192.518 538.622 193.039C539.362 193.698 540.306 194.027 541.454 194.027C542.756 194.027 543.801 193.637 544.591 192.855C545.38 192.074 545.775 191.159 545.775 190.109C545.775 189.409 545.576 188.754 545.177 188.144C544.786 187.533 544.257 187.073 543.59 186.764C542.931 186.455 541.905 186.264 540.514 186.19V184.542C541.336 184.542 542.084 184.4 542.76 184.115C543.435 183.822 543.924 183.452 544.225 183.004C544.534 182.557 544.688 182.069 544.688 181.54C544.688 180.758 544.375 180.083 543.749 179.513C543.13 178.944 542.345 178.659 541.393 178.659C540.619 178.659 539.952 178.878 539.391 179.318C538.829 179.749 538.353 180.486 537.962 181.527ZM504.308 223.38L502.916 224.698C501.915 223.714 500.816 222.969 499.62 222.464C498.432 221.952 497.272 221.695 496.141 221.695C494.733 221.695 493.39 222.041 492.113 222.733C490.843 223.425 489.859 224.365 489.159 225.553C488.459 226.733 488.109 227.982 488.109 229.3C488.109 230.651 488.471 231.937 489.195 233.158C489.92 234.37 490.921 235.326 492.198 236.026C493.476 236.718 494.876 237.064 496.397 237.064C498.245 237.064 499.807 236.543 501.085 235.501C502.363 234.46 503.119 233.109 503.355 231.449H497.63V229.715H505.37C505.353 232.49 504.527 234.696 502.892 236.332C501.264 237.959 499.083 238.773 496.349 238.773C493.028 238.773 490.4 237.642 488.463 235.379C486.974 233.638 486.229 231.624 486.229 229.337C486.229 227.636 486.656 226.053 487.511 224.588C488.365 223.124 489.537 221.98 491.026 221.158C492.516 220.328 494.2 219.913 496.08 219.913C497.602 219.913 499.034 220.19 500.377 220.743C501.72 221.288 503.03 222.167 504.308 223.38ZM510.387 224.698C510.802 224.698 511.156 224.845 511.449 225.138C511.742 225.431 511.888 225.789 511.888 226.212C511.888 226.635 511.742 226.993 511.449 227.286C511.156 227.579 510.802 227.726 510.387 227.726C509.972 227.726 509.618 227.579 509.325 227.286C509.032 226.993 508.885 226.635 508.885 226.212C508.885 225.797 509.032 225.443 509.325 225.15C509.618 224.849 509.972 224.698 510.387 224.698ZM510.387 235.636C510.802 235.636 511.156 235.782 511.449 236.075C511.742 236.368 511.888 236.726 511.888 237.149C511.888 237.564 511.742 237.923 511.449 238.224C511.156 238.517 510.802 238.663 510.387 238.663C509.972 238.663 509.618 238.517 509.325 238.224C509.032 237.923 508.885 237.564 508.885 237.149C508.885 236.726 509.032 236.368 509.325 236.075C509.618 235.782 509.972 235.636 510.387 235.636ZM532.762 220.365V222.074H526.366L525.475 226.969C526.256 226.741 526.96 226.627 527.586 226.627C529.222 226.627 530.569 227.176 531.627 228.275C532.693 229.365 533.226 230.765 533.226 232.474C533.226 233.654 532.953 234.736 532.408 235.721C531.863 236.706 531.122 237.463 530.187 237.992C529.259 238.513 528.185 238.773 526.964 238.773C525.507 238.773 524.278 238.329 523.277 237.442C522.276 236.547 521.678 235.392 521.483 233.976H523.326C523.465 234.667 523.696 235.229 524.022 235.66C524.356 236.091 524.795 236.441 525.34 236.71C525.894 236.97 526.472 237.101 527.074 237.101C528.254 237.101 529.267 236.653 530.113 235.758C530.96 234.863 531.383 233.744 531.383 232.401C531.383 231.188 531 230.204 530.235 229.447C529.47 228.69 528.449 228.312 527.171 228.312C526.113 228.312 524.832 228.633 523.326 229.276L524.986 220.365H532.762ZM539.134 238.773L537.657 237.821L542.503 230.472C541.852 230.684 541.242 230.79 540.672 230.79C539.248 230.79 538.04 230.277 537.047 229.251C536.054 228.218 535.558 226.948 535.558 225.443C535.558 224.409 535.798 223.478 536.278 222.647C536.758 221.817 537.438 221.154 538.316 220.658C539.203 220.161 540.152 219.913 541.161 219.913C542.153 219.913 543.069 220.153 543.907 220.633C544.754 221.113 545.417 221.785 545.897 222.647C546.377 223.51 546.617 224.43 546.617 225.406C546.617 226.147 546.467 226.924 546.166 227.738C545.873 228.543 545.344 229.516 544.579 230.655L539.134 238.773ZM541.087 229.215C542.137 229.215 543.028 228.849 543.761 228.116C544.501 227.376 544.872 226.485 544.872 225.443C544.872 224.401 544.501 223.514 543.761 222.782C543.028 222.041 542.137 221.671 541.087 221.671C540.046 221.671 539.155 222.041 538.414 222.782C537.682 223.514 537.315 224.401 537.315 225.443C537.315 226.485 537.682 227.376 538.414 228.116C539.155 228.849 540.046 229.215 541.087 229.215ZM487.035 263.365H490.575C491.999 263.365 493.093 263.536 493.858 263.877C494.623 264.211 495.226 264.728 495.665 265.428C496.113 266.128 496.336 266.905 496.336 267.759C496.336 268.557 496.141 269.285 495.75 269.944C495.36 270.595 494.786 271.124 494.029 271.531C494.965 271.849 495.685 272.223 496.19 272.654C496.694 273.077 497.085 273.594 497.362 274.205C497.647 274.807 497.789 275.462 497.789 276.17C497.789 277.61 497.26 278.831 496.202 279.832C495.152 280.825 493.74 281.321 491.966 281.321H487.035V263.365ZM488.792 265.123V270.872H489.818C491.063 270.872 491.979 270.758 492.564 270.53C493.15 270.294 493.614 269.928 493.956 269.432C494.298 268.927 494.469 268.37 494.469 267.759C494.469 266.937 494.18 266.294 493.602 265.831C493.032 265.359 492.121 265.123 490.868 265.123H488.792ZM488.792 272.679V279.563H491.014C492.324 279.563 493.285 279.437 493.895 279.185C494.505 278.925 494.994 278.522 495.36 277.977C495.734 277.431 495.921 276.841 495.921 276.207C495.921 275.409 495.661 274.713 495.14 274.119C494.619 273.525 493.903 273.118 492.992 272.898C492.381 272.752 491.319 272.679 489.806 272.679H488.792ZM502.94 267.698C503.355 267.698 503.709 267.845 504.002 268.138C504.295 268.431 504.442 268.789 504.442 269.212C504.442 269.635 504.295 269.993 504.002 270.286C503.709 270.579 503.355 270.726 502.94 270.726C502.525 270.726 502.171 270.579 501.878 270.286C501.585 269.993 501.439 269.635 501.439 269.212C501.439 268.797 501.585 268.443 501.878 268.15C502.171 267.849 502.525 267.698 502.94 267.698ZM502.94 278.636C503.355 278.636 503.709 278.782 504.002 279.075C504.295 279.368 504.442 279.726 504.442 280.149C504.442 280.564 504.295 280.923 504.002 281.224C503.709 281.517 503.355 281.663 502.94 281.663C502.525 281.663 502.171 281.517 501.878 281.224C501.585 280.923 501.439 280.564 501.439 280.149C501.439 279.726 501.585 279.368 501.878 279.075C502.171 278.782 502.525 278.636 502.94 278.636ZM524.754 281.773L523.277 280.821L528.124 273.472C527.472 273.684 526.862 273.79 526.292 273.79C524.868 273.79 523.66 273.277 522.667 272.251C521.674 271.218 521.178 269.948 521.178 268.443C521.178 267.409 521.418 266.478 521.898 265.647C522.378 264.817 523.058 264.154 523.937 263.658C524.824 263.161 525.772 262.913 526.781 262.913C527.774 262.913 528.689 263.153 529.527 263.633C530.374 264.113 531.037 264.785 531.517 265.647C531.997 266.51 532.237 267.43 532.237 268.406C532.237 269.147 532.087 269.924 531.786 270.738C531.493 271.543 530.964 272.516 530.199 273.655L524.754 281.773ZM526.708 272.215C527.757 272.215 528.648 271.849 529.381 271.116C530.121 270.376 530.492 269.485 530.492 268.443C530.492 267.401 530.121 266.514 529.381 265.782C528.648 265.041 527.757 264.671 526.708 264.671C525.666 264.671 524.775 265.041 524.034 265.782C523.302 266.514 522.936 267.401 522.936 268.443C522.936 269.485 523.302 270.376 524.034 271.116C524.775 271.849 525.666 272.215 526.708 272.215ZM546.117 263.365V265.074H539.72L538.829 269.969C539.61 269.741 540.314 269.627 540.941 269.627C542.577 269.627 543.924 270.176 544.981 271.275C546.048 272.365 546.581 273.765 546.581 275.474C546.581 276.654 546.308 277.736 545.763 278.721C545.217 279.706 544.477 280.463 543.541 280.992C542.613 281.513 541.539 281.773 540.318 281.773C538.862 281.773 537.633 281.329 536.632 280.442C535.631 279.547 535.033 278.392 534.837 276.976H536.681C536.819 277.667 537.051 278.229 537.376 278.66C537.71 279.091 538.15 279.441 538.695 279.71C539.248 279.97 539.826 280.101 540.428 280.101C541.608 280.101 542.621 279.653 543.468 278.758C544.314 277.863 544.737 276.744 544.737 275.401C544.737 274.188 544.355 273.204 543.59 272.447C542.825 271.69 541.804 271.312 540.526 271.312C539.468 271.312 538.186 271.633 536.681 272.276L538.341 263.365H546.117Z" fill="white"/>
<rect y="304" width="464" height="200" fill="#E65100"/>
<path d="M499.852 338.651V339.97H496.825L495.946 346H494.579L495.458 339.97H491.393L490.465 346H489.122L490.05 339.97H487.047V338.651H490.257L490.88 334.574H487.792V333.244H491.075L491.93 327.531H493.236L492.406 333.244H496.458L497.289 327.531H498.656L497.813 333.244H500.548V334.574H497.618L497.032 338.651H499.852ZM496.275 334.574H492.198L491.6 338.651H495.653L496.275 334.574ZM505.016 328.043H515.306V329.813H506.81V335.429H515.233V337.187H506.81V344.23H515.233V346H505.016V328.043ZM525.389 327.592L526.866 328.556L522.02 335.905C522.671 335.685 523.281 335.575 523.851 335.575C525.275 335.575 526.484 336.092 527.477 337.125C528.469 338.151 528.966 339.416 528.966 340.922C528.966 341.955 528.726 342.891 528.246 343.729C527.765 344.56 527.082 345.223 526.195 345.719C525.316 346.208 524.368 346.452 523.351 346.452C522.366 346.452 521.45 346.216 520.604 345.744C519.766 345.264 519.107 344.592 518.626 343.729C518.146 342.867 517.906 341.943 517.906 340.958C517.906 340.226 518.053 339.457 518.346 338.651C518.647 337.838 519.18 336.861 519.945 335.722L525.389 327.592ZM523.424 337.15C522.382 337.15 521.491 337.52 520.75 338.261C520.018 338.993 519.652 339.884 519.652 340.934C519.652 341.976 520.018 342.867 520.75 343.607C521.491 344.34 522.382 344.706 523.424 344.706C524.465 344.706 525.353 344.34 526.085 343.607C526.826 342.867 527.196 341.976 527.196 340.934C527.196 339.884 526.826 338.993 526.085 338.261C525.353 337.52 524.465 337.15 523.424 337.15ZM542.381 328.043V329.752H535.985L535.094 334.647C535.875 334.42 536.579 334.306 537.206 334.306C538.841 334.306 540.188 334.855 541.246 335.954C542.312 337.044 542.845 338.444 542.845 340.153C542.845 341.333 542.573 342.415 542.027 343.4C541.482 344.385 540.742 345.141 539.806 345.67C538.878 346.191 537.804 346.452 536.583 346.452C535.126 346.452 533.897 346.008 532.896 345.121C531.896 344.226 531.297 343.07 531.102 341.654H532.945C533.084 342.346 533.316 342.908 533.641 343.339C533.975 343.77 534.414 344.12 534.959 344.389C535.513 344.649 536.091 344.779 536.693 344.779C537.873 344.779 538.886 344.332 539.732 343.437C540.579 342.541 541.002 341.422 541.002 340.08C541.002 338.867 540.619 337.882 539.854 337.125C539.09 336.369 538.068 335.99 536.791 335.99C535.733 335.99 534.451 336.312 532.945 336.955L534.605 328.043H542.381ZM548.583 328.043H552.11V346H550.328V329.801H547.508L548.583 328.043ZM558.617 337.028C558.617 334.66 558.869 332.829 559.374 331.535C559.886 330.241 560.606 329.26 561.534 328.593C562.462 327.925 563.5 327.592 564.647 327.592C565.811 327.592 566.865 327.93 567.809 328.605C568.753 329.272 569.497 330.277 570.042 331.62C570.596 332.963 570.873 334.765 570.873 337.028C570.873 339.282 570.6 341.076 570.055 342.411C569.518 343.746 568.773 344.755 567.821 345.438C566.869 346.114 565.811 346.452 564.647 346.452C563.5 346.452 562.466 346.122 561.546 345.463C560.627 344.804 559.907 343.823 559.386 342.521C558.873 341.211 558.617 339.38 558.617 337.028ZM560.313 337.064C560.313 339.091 560.493 340.625 560.851 341.667C561.217 342.7 561.754 343.485 562.462 344.022C563.17 344.56 563.919 344.828 564.708 344.828C565.506 344.828 566.25 344.568 566.942 344.047C567.634 343.518 568.159 342.729 568.517 341.679C568.964 340.401 569.188 338.863 569.188 337.064C569.188 335.258 568.989 333.781 568.59 332.633C568.191 331.478 567.638 330.635 566.93 330.106C566.23 329.569 565.489 329.301 564.708 329.301C563.91 329.301 563.162 329.569 562.462 330.106C561.762 330.635 561.229 331.421 560.863 332.462C560.497 333.496 560.313 335.03 560.313 337.064ZM572.484 337.028C572.484 334.66 572.736 332.829 573.241 331.535C573.753 330.241 574.474 329.26 575.401 328.593C576.329 327.925 577.367 327.592 578.514 327.592C579.678 327.592 580.732 327.93 581.676 328.605C582.62 329.272 583.364 330.277 583.91 331.62C584.463 332.963 584.74 334.765 584.74 337.028C584.74 339.282 584.467 341.076 583.922 342.411C583.385 343.746 582.64 344.755 581.688 345.438C580.736 346.114 579.678 346.452 578.514 346.452C577.367 346.452 576.333 346.122 575.414 345.463C574.494 344.804 573.774 343.823 573.253 342.521C572.74 341.211 572.484 339.38 572.484 337.028ZM574.181 337.064C574.181 339.091 574.36 340.625 574.718 341.667C575.084 342.7 575.621 343.485 576.329 344.022C577.037 344.56 577.786 344.828 578.575 344.828C579.373 344.828 580.117 344.568 580.809 344.047C581.501 343.518 582.026 342.729 582.384 341.679C582.831 340.401 583.055 338.863 583.055 337.064C583.055 335.258 582.856 333.781 582.457 332.633C582.058 331.478 581.505 330.635 580.797 330.106C580.097 329.569 579.356 329.301 578.575 329.301C577.778 329.301 577.029 329.569 576.329 330.106C575.629 330.635 575.096 331.421 574.73 332.462C574.364 333.496 574.181 335.03 574.181 337.064Z" fill="white"/>
<path d="M487.083 377.365H490.66C492.654 377.365 494.005 377.446 494.713 377.609C495.779 377.853 496.646 378.378 497.313 379.184C497.98 379.981 498.314 380.966 498.314 382.138C498.314 383.114 498.082 383.973 497.618 384.713C497.162 385.454 496.507 386.015 495.653 386.398C494.798 386.772 493.618 386.964 492.113 386.972L498.57 395.321H496.349L489.903 386.972H488.878V395.321H487.083V377.365ZM488.878 379.123V385.226L491.966 385.25C493.163 385.25 494.046 385.137 494.615 384.909C495.193 384.681 495.641 384.319 495.958 383.822C496.284 383.318 496.446 382.756 496.446 382.138C496.446 381.535 496.284 380.99 495.958 380.502C495.632 380.006 495.205 379.652 494.676 379.44C494.147 379.228 493.268 379.123 492.04 379.123H488.878ZM503.771 381.698C504.186 381.698 504.54 381.845 504.833 382.138C505.125 382.431 505.272 382.789 505.272 383.212C505.272 383.635 505.125 383.993 504.833 384.286C504.54 384.579 504.186 384.726 503.771 384.726C503.355 384.726 503.001 384.579 502.708 384.286C502.416 383.993 502.269 383.635 502.269 383.212C502.269 382.797 502.416 382.443 502.708 382.15C503.001 381.849 503.355 381.698 503.771 381.698ZM503.771 392.636C504.186 392.636 504.54 392.782 504.833 393.075C505.125 393.368 505.272 393.726 505.272 394.149C505.272 394.564 505.125 394.923 504.833 395.224C504.54 395.517 504.186 395.663 503.771 395.663C503.355 395.663 503.001 395.517 502.708 395.224C502.416 394.923 502.269 394.564 502.269 394.149C502.269 393.726 502.416 393.368 502.708 393.075C503.001 392.782 503.355 392.636 503.771 392.636ZM525.584 395.773L524.107 394.821L528.954 387.472C528.303 387.684 527.692 387.79 527.123 387.79C525.698 387.79 524.49 387.277 523.497 386.251C522.504 385.218 522.008 383.948 522.008 382.443C522.008 381.409 522.248 380.478 522.728 379.647C523.208 378.817 523.888 378.154 524.767 377.658C525.654 377.161 526.602 376.913 527.611 376.913C528.604 376.913 529.519 377.153 530.357 377.633C531.204 378.113 531.867 378.785 532.347 379.647C532.827 380.51 533.067 381.43 533.067 382.406C533.067 383.147 532.917 383.924 532.616 384.738C532.323 385.543 531.794 386.516 531.029 387.655L525.584 395.773ZM527.538 386.215C528.587 386.215 529.479 385.849 530.211 385.116C530.951 384.376 531.322 383.485 531.322 382.443C531.322 381.401 530.951 380.514 530.211 379.782C529.479 379.041 528.587 378.671 527.538 378.671C526.496 378.671 525.605 379.041 524.864 379.782C524.132 380.514 523.766 381.401 523.766 382.443C523.766 383.485 524.132 384.376 524.864 385.116C525.605 385.849 526.496 386.215 527.538 386.215ZM535.448 386.349C535.448 383.981 535.7 382.15 536.205 380.856C536.717 379.562 537.438 378.581 538.365 377.914C539.293 377.247 540.331 376.913 541.478 376.913C542.642 376.913 543.696 377.251 544.64 377.926C545.584 378.594 546.328 379.599 546.874 380.941C547.427 382.284 547.704 384.087 547.704 386.349C547.704 388.603 547.431 390.398 546.886 391.732C546.349 393.067 545.604 394.076 544.652 394.76C543.7 395.435 542.642 395.773 541.478 395.773C540.331 395.773 539.297 395.443 538.377 394.784C537.458 394.125 536.738 393.144 536.217 391.842C535.704 390.532 535.448 388.701 535.448 386.349ZM537.145 386.386C537.145 388.412 537.324 389.946 537.682 390.988C538.048 392.021 538.585 392.807 539.293 393.344C540.001 393.881 540.75 394.149 541.539 394.149C542.337 394.149 543.081 393.889 543.773 393.368C544.465 392.839 544.99 392.05 545.348 391C545.795 389.722 546.019 388.184 546.019 386.386C546.019 384.579 545.82 383.102 545.421 381.955C545.022 380.799 544.469 379.957 543.761 379.428C543.061 378.891 542.32 378.622 541.539 378.622C540.742 378.622 539.993 378.891 539.293 379.428C538.593 379.957 538.06 380.742 537.694 381.784C537.328 382.817 537.145 384.351 537.145 386.386ZM504.308 423.38L502.916 424.698C501.915 423.714 500.816 422.969 499.62 422.464C498.432 421.952 497.272 421.695 496.141 421.695C494.733 421.695 493.39 422.041 492.113 422.733C490.843 423.425 489.859 424.365 489.159 425.553C488.459 426.733 488.109 427.982 488.109 429.3C488.109 430.651 488.471 431.937 489.195 433.158C489.92 434.37 490.921 435.326 492.198 436.026C493.476 436.718 494.876 437.064 496.397 437.064C498.245 437.064 499.807 436.543 501.085 435.501C502.363 434.46 503.119 433.109 503.355 431.449H497.63V429.715H505.37C505.353 432.49 504.527 434.696 502.892 436.332C501.264 437.959 499.083 438.773 496.349 438.773C493.028 438.773 490.4 437.642 488.463 435.379C486.974 433.638 486.229 431.624 486.229 429.337C486.229 427.636 486.656 426.053 487.511 424.588C488.365 423.124 489.537 421.98 491.026 421.158C492.516 420.328 494.2 419.913 496.08 419.913C497.602 419.913 499.034 420.19 500.377 420.743C501.72 421.288 503.03 422.167 504.308 423.38ZM510.387 424.698C510.802 424.698 511.156 424.845 511.449 425.138C511.742 425.431 511.888 425.789 511.888 426.212C511.888 426.635 511.742 426.993 511.449 427.286C511.156 427.579 510.802 427.726 510.387 427.726C509.972 427.726 509.618 427.579 509.325 427.286C509.032 426.993 508.885 426.635 508.885 426.212C508.885 425.797 509.032 425.443 509.325 425.15C509.618 424.849 509.972 424.698 510.387 424.698ZM510.387 435.636C510.802 435.636 511.156 435.782 511.449 436.075C511.742 436.368 511.888 436.726 511.888 437.149C511.888 437.564 511.742 437.923 511.449 438.224C511.156 438.517 510.802 438.663 510.387 438.663C509.972 438.663 509.618 438.517 509.325 438.224C509.032 437.923 508.885 437.564 508.885 437.149C508.885 436.726 509.032 436.368 509.325 436.075C509.618 435.782 509.972 435.636 510.387 435.636ZM523.778 424.527H521.947C522.28 423.046 522.919 421.907 523.863 421.109C524.807 420.312 525.922 419.913 527.208 419.913C528.144 419.913 529.015 420.129 529.82 420.56C530.634 420.983 531.261 421.557 531.7 422.281C532.148 423.006 532.372 423.762 532.372 424.552C532.372 426.098 531.603 427.323 530.064 428.226C530.927 428.576 531.635 429.089 532.188 429.764C532.97 430.716 533.36 431.782 533.36 432.962C533.36 433.98 533.092 434.952 532.555 435.88C532.018 436.799 531.285 437.512 530.357 438.016C529.43 438.521 528.392 438.773 527.245 438.773C525.698 438.773 524.409 438.329 523.375 437.442C522.341 436.547 521.666 435.237 521.349 433.512H523.106C523.416 434.675 523.859 435.518 524.437 436.039C525.178 436.698 526.122 437.027 527.269 437.027C528.571 437.027 529.617 436.637 530.406 435.855C531.196 435.074 531.59 434.159 531.59 433.109C531.59 432.409 531.391 431.754 530.992 431.144C530.602 430.533 530.073 430.073 529.405 429.764C528.746 429.455 527.721 429.264 526.329 429.19V427.542C527.151 427.542 527.9 427.4 528.575 427.115C529.251 426.822 529.739 426.452 530.04 426.004C530.349 425.557 530.504 425.069 530.504 424.54C530.504 423.758 530.191 423.083 529.564 422.513C528.945 421.944 528.16 421.659 527.208 421.659C526.435 421.659 525.768 421.878 525.206 422.318C524.645 422.749 524.168 423.486 523.778 424.527ZM537.23 425.992H535.509C535.558 424.218 536.148 422.761 537.279 421.622C538.418 420.483 539.822 419.913 541.49 419.913C543.142 419.913 544.477 420.446 545.494 421.512C546.52 422.578 547.032 423.836 547.032 425.284C547.032 426.301 546.788 427.258 546.3 428.153C545.812 429.04 544.863 430.244 543.456 431.766L538.988 436.588H547.276V438.321H535.082L541.942 430.912C543.333 429.422 544.237 428.32 544.652 427.604C545.075 426.879 545.287 426.118 545.287 425.321C545.287 424.312 544.908 423.445 544.151 422.721C543.403 421.988 542.483 421.622 541.393 421.622C540.245 421.622 539.289 422.005 538.524 422.77C537.767 423.535 537.336 424.609 537.23 425.992ZM487.035 463.365H490.575C491.999 463.365 493.093 463.536 493.858 463.877C494.623 464.211 495.226 464.728 495.665 465.428C496.113 466.128 496.336 466.905 496.336 467.759C496.336 468.557 496.141 469.285 495.75 469.944C495.36 470.595 494.786 471.124 494.029 471.531C494.965 471.849 495.685 472.223 496.19 472.654C496.694 473.077 497.085 473.594 497.362 474.205C497.647 474.807 497.789 475.462 497.789 476.17C497.789 477.61 497.26 478.831 496.202 479.832C495.152 480.825 493.74 481.321 491.966 481.321H487.035V463.365ZM488.792 465.123V470.872H489.818C491.063 470.872 491.979 470.758 492.564 470.53C493.15 470.294 493.614 469.928 493.956 469.432C494.298 468.927 494.469 468.37 494.469 467.759C494.469 466.937 494.18 466.294 493.602 465.831C493.032 465.359 492.121 465.123 490.868 465.123H488.792ZM488.792 472.679V479.563H491.014C492.324 479.563 493.285 479.437 493.895 479.185C494.505 478.925 494.994 478.522 495.36 477.977C495.734 477.431 495.921 476.841 495.921 476.207C495.921 475.409 495.661 474.713 495.14 474.119C494.619 473.525 493.903 473.118 492.992 472.898C492.381 472.752 491.319 472.679 489.806 472.679H488.792ZM502.94 467.698C503.355 467.698 503.709 467.845 504.002 468.138C504.295 468.431 504.442 468.789 504.442 469.212C504.442 469.635 504.295 469.993 504.002 470.286C503.709 470.579 503.355 470.726 502.94 470.726C502.525 470.726 502.171 470.579 501.878 470.286C501.585 469.993 501.439 469.635 501.439 469.212C501.439 468.797 501.585 468.443 501.878 468.15C502.171 467.849 502.525 467.698 502.94 467.698ZM502.94 478.636C503.355 478.636 503.709 478.782 504.002 479.075C504.295 479.368 504.442 479.726 504.442 480.149C504.442 480.564 504.295 480.923 504.002 481.224C503.709 481.517 503.355 481.663 502.94 481.663C502.525 481.663 502.171 481.517 501.878 481.224C501.585 480.923 501.439 480.564 501.439 480.149C501.439 479.726 501.585 479.368 501.878 479.075C502.171 478.782 502.525 478.636 502.94 478.636ZM520.75 472.349C520.75 469.981 521.003 468.15 521.507 466.856C522.02 465.562 522.74 464.581 523.668 463.914C524.596 463.247 525.633 462.913 526.781 462.913C527.944 462.913 528.998 463.251 529.942 463.926C530.886 464.594 531.631 465.599 532.176 466.941C532.73 468.284 533.006 470.087 533.006 472.349C533.006 474.603 532.734 476.398 532.188 477.732C531.651 479.067 530.907 480.076 529.955 480.76C529.002 481.435 527.944 481.773 526.781 481.773C525.633 481.773 524.6 481.443 523.68 480.784C522.761 480.125 522.04 479.144 521.52 477.842C521.007 476.532 520.75 474.701 520.75 472.349ZM522.447 472.386C522.447 474.412 522.626 475.946 522.984 476.988C523.351 478.021 523.888 478.807 524.596 479.344C525.304 479.881 526.052 480.149 526.842 480.149C527.639 480.149 528.384 479.889 529.076 479.368C529.767 478.839 530.292 478.05 530.65 477C531.098 475.722 531.322 474.184 531.322 472.386C531.322 470.579 531.122 469.102 530.724 467.955C530.325 466.799 529.771 465.957 529.063 465.428C528.364 464.891 527.623 464.622 526.842 464.622C526.044 464.622 525.296 464.891 524.596 465.428C523.896 465.957 523.363 466.742 522.997 467.784C522.63 468.817 522.447 470.351 522.447 472.386ZM534.618 472.349C534.618 469.981 534.87 468.15 535.375 466.856C535.887 465.562 536.607 464.581 537.535 463.914C538.463 463.247 539.5 462.913 540.648 462.913C541.812 462.913 542.866 463.251 543.81 463.926C544.754 464.594 545.498 465.599 546.043 466.941C546.597 468.284 546.874 470.087 546.874 472.349C546.874 474.603 546.601 476.398 546.056 477.732C545.519 479.067 544.774 480.076 543.822 480.76C542.87 481.435 541.812 481.773 540.648 481.773C539.5 481.773 538.467 481.443 537.547 480.784C536.628 480.125 535.908 479.144 535.387 477.842C534.874 476.532 534.618 474.701 534.618 472.349ZM536.314 472.386C536.314 474.412 536.493 475.946 536.852 476.988C537.218 478.021 537.755 478.807 538.463 479.344C539.171 479.881 539.92 480.149 540.709 480.149C541.507 480.149 542.251 479.889 542.943 479.368C543.635 478.839 544.16 478.05 544.518 477C544.965 475.722 545.189 474.184 545.189 472.386C545.189 470.579 544.99 469.102 544.591 467.955C544.192 466.799 543.639 465.957 542.931 465.428C542.231 464.891 541.49 464.622 540.709 464.622C539.911 464.622 539.163 464.891 538.463 465.428C537.763 465.957 537.23 466.742 536.864 467.784C536.498 468.817 536.314 470.351 536.314 472.386Z" fill="white"/>
<path d="M821.989 320.715V516.931H923V439.431L821.989 320.715Z" fill="#E65100"/>
<path d="M848.568 448.883H890.877L869.723 424.021L848.568 399.158V448.883Z" fill="#202020"/>
<rect x="848.566" y="482.33" width="21.968" height="35.62" fill="#202020"/>
<circle cx="816.281" cy="143.572" r="72.572" fill="#2196F3"/>
<path d="M822.086 316.294L750.919 175.146C743.618 160.666 754.143 143.572 770.36 143.572H822.086V316.294Z" fill="#2196F3"/>
<circle cx="816.281" cy="143.572" r="39.1889" fill="#202020"/>
</svg>
