<svg width="1080" height="1176" viewBox="0 0 1080 1176" fill="none" xmlns="http://www.w3.org/2000/svg">
<rect width="1080" height="1176" fill="white"/>
<rect y="588" width="1080" height="588" fill="#F4F4F4"/>
<rect y="692" width="464" height="200" fill="#0069C0"/>
<path d="M495.499 723.625H492.749L492.324 727.175H494.749V728.725H492.124L491.549 733.25H489.999L490.574 728.725H486.349L485.774 733.25H484.224L484.799 728.725H482.199V727.175H484.999L485.424 723.625H482.949V722.075H485.624L486.249 717.175H487.799L487.174 722.075H491.399L492.024 717.175H493.574L492.949 722.075H495.499V723.625ZM490.774 727.175L491.199 723.625H486.974L486.549 727.175H490.774ZM502.807 734.4C501.69 734.4 500.665 734.017 499.732 733.25C498.799 732.483 498.065 731.425 497.532 730.075C496.999 728.708 496.732 727.175 496.732 725.475C496.732 723.775 496.999 722.25 497.532 720.9C498.065 719.533 498.79 718.475 499.707 717.725C500.64 716.958 501.665 716.575 502.782 716.575C503.899 716.575 504.915 716.958 505.832 717.725C506.765 718.475 507.499 719.533 508.032 720.9C508.565 722.25 508.832 723.775 508.832 725.475C508.832 727.175 508.565 728.708 508.032 730.075C507.499 731.425 506.774 732.483 505.857 733.25C504.94 734.017 503.924 734.4 502.807 734.4ZM502.782 732.75C503.582 732.75 504.29 732.45 504.907 731.85C505.524 731.233 506.007 730.375 506.357 729.275C506.707 728.158 506.882 726.892 506.882 725.475C506.882 724.058 506.707 722.8 506.357 721.7C506.007 720.6 505.524 719.75 504.907 719.15C504.29 718.533 503.582 718.225 502.782 718.225C501.982 718.225 501.265 718.533 500.632 719.15C500.015 719.75 499.532 720.6 499.182 721.7C498.832 722.8 498.657 724.058 498.657 725.475C498.657 726.892 498.832 728.158 499.182 729.275C499.532 730.375 500.015 731.233 500.632 731.85C501.265 732.45 501.982 732.75 502.782 732.75ZM516.821 734.4C515.704 734.4 514.679 734.017 513.746 733.25C512.812 732.483 512.079 731.425 511.546 730.075C511.012 728.708 510.746 727.175 510.746 725.475C510.746 723.775 511.012 722.25 511.546 720.9C512.079 719.533 512.804 718.475 513.721 717.725C514.654 716.958 515.679 716.575 516.796 716.575C517.912 716.575 518.929 716.958 519.846 717.725C520.779 718.475 521.512 719.533 522.046 720.9C522.579 722.25 522.846 723.775 522.846 725.475C522.846 727.175 522.579 728.708 522.046 730.075C521.512 731.425 520.787 732.483 519.871 733.25C518.954 734.017 517.937 734.4 516.821 734.4ZM516.796 732.75C517.596 732.75 518.304 732.45 518.921 731.85C519.537 731.233 520.021 730.375 520.371 729.275C520.721 728.158 520.896 726.892 520.896 725.475C520.896 724.058 520.721 722.8 520.371 721.7C520.021 720.6 519.537 719.75 518.921 719.15C518.304 718.533 517.596 718.225 516.796 718.225C515.996 718.225 515.279 718.533 514.646 719.15C514.029 719.75 513.546 720.6 513.196 721.7C512.846 722.8 512.671 724.058 512.671 725.475C512.671 726.892 512.846 728.158 513.196 729.275C513.546 730.375 514.029 731.233 514.646 731.85C515.279 732.45 515.996 732.75 516.796 732.75ZM530.734 722.4C531.801 722.4 532.768 722.658 533.634 723.175C534.501 723.692 535.184 724.408 535.684 725.325C536.184 726.225 536.434 727.25 536.434 728.4C536.434 729.55 536.184 730.583 535.684 731.5C535.201 732.4 534.526 733.108 533.659 733.625C532.809 734.142 531.851 734.4 530.784 734.4C529.718 734.4 528.743 734.117 527.859 733.55C526.993 732.967 526.309 732.158 525.809 731.125C525.326 730.092 525.084 728.925 525.084 727.625C525.084 725.192 525.493 723.15 526.309 721.5C527.143 719.833 528.268 718.6 529.684 717.8C531.118 716.983 532.734 716.575 534.534 716.575V718.175C532.501 718.175 530.826 718.708 529.509 719.775C528.193 720.842 527.351 722.358 526.984 724.325C527.334 723.708 527.868 723.233 528.584 722.9C529.301 722.567 530.018 722.4 530.734 722.4ZM530.734 732.85C531.484 732.85 532.159 732.658 532.759 732.275C533.376 731.892 533.859 731.367 534.209 730.7C534.559 730.017 534.734 729.25 534.734 728.4C534.734 727.55 534.559 726.792 534.209 726.125C533.859 725.442 533.376 724.908 532.759 724.525C532.159 724.142 531.484 723.95 530.734 723.95C529.518 723.95 528.551 724.35 527.834 725.15C527.134 725.933 526.784 726.925 526.784 728.125C526.784 729.025 526.959 729.842 527.309 730.575C527.659 731.292 528.134 731.85 528.734 732.25C529.334 732.65 530.001 732.85 530.734 732.85ZM544.604 716.575C545.67 716.575 546.637 716.867 547.504 717.45C548.387 718.017 549.07 718.817 549.554 719.85C550.054 720.883 550.304 722.05 550.304 723.35C550.304 725.783 549.887 727.833 549.054 729.5C548.237 731.15 547.112 732.383 545.679 733.2C544.262 734 542.654 734.4 540.854 734.4V732.8C542.887 732.8 544.562 732.267 545.879 731.2C547.195 730.133 548.037 728.617 548.404 726.65C548.054 727.267 547.52 727.742 546.804 728.075C546.087 728.408 545.37 728.575 544.654 728.575C543.587 728.575 542.62 728.317 541.754 727.8C540.887 727.283 540.204 726.575 539.704 725.675C539.204 724.758 538.954 723.725 538.954 722.575C538.954 721.425 539.195 720.4 539.679 719.5C540.179 718.583 540.854 717.867 541.704 717.35C542.57 716.833 543.537 716.575 544.604 716.575ZM544.654 727.025C545.87 727.025 546.829 726.633 547.529 725.85C548.245 725.05 548.604 724.05 548.604 722.85C548.604 721.95 548.429 721.142 548.079 720.425C547.729 719.692 547.254 719.125 546.654 718.725C546.054 718.325 545.387 718.125 544.654 718.125C543.904 718.125 543.22 718.317 542.604 718.7C542.004 719.083 541.529 719.617 541.179 720.3C540.829 720.967 540.654 721.725 540.654 722.575C540.654 723.425 540.829 724.192 541.179 724.875C541.529 725.542 542.004 726.067 542.604 726.45C543.22 726.833 543.904 727.025 544.654 727.025ZM560.142 734.4C558.709 734.4 557.467 734.05 556.417 733.35C555.384 732.633 554.584 731.617 554.017 730.3C553.467 728.967 553.192 727.375 553.192 725.525C553.192 723.658 553.459 722.058 553.992 720.725C554.542 719.375 555.317 718.35 556.317 717.65C557.334 716.933 558.534 716.575 559.917 716.575C561.334 716.575 562.542 716.892 563.542 717.525C564.559 718.142 565.351 719.017 565.917 720.15L564.417 721.025C563.884 720.042 563.259 719.342 562.542 718.925C561.826 718.492 560.951 718.275 559.917 718.275C558.434 718.275 557.267 718.917 556.417 720.2C555.584 721.467 555.167 723.233 555.167 725.5C555.167 726.983 555.359 728.267 555.742 729.35C556.126 730.433 556.676 731.267 557.392 731.85C558.109 732.417 558.942 732.7 559.892 732.7C561.076 732.7 561.992 732.442 562.642 731.925C563.309 731.392 563.926 730.567 564.492 729.45L566.067 730.4C565.467 731.7 564.667 732.692 563.667 733.375C562.684 734.058 561.509 734.4 560.142 734.4ZM573.754 734.4C572.637 734.4 571.612 734.017 570.679 733.25C569.746 732.483 569.012 731.425 568.479 730.075C567.946 728.708 567.679 727.175 567.679 725.475C567.679 723.775 567.946 722.25 568.479 720.9C569.012 719.533 569.737 718.475 570.654 717.725C571.587 716.958 572.612 716.575 573.729 716.575C574.846 716.575 575.862 716.958 576.779 717.725C577.712 718.475 578.446 719.533 578.979 720.9C579.512 722.25 579.779 723.775 579.779 725.475C579.779 727.175 579.512 728.708 578.979 730.075C578.446 731.425 577.721 732.483 576.804 733.25C575.887 734.017 574.871 734.4 573.754 734.4ZM573.729 732.75C574.529 732.75 575.237 732.45 575.854 731.85C576.471 731.233 576.954 730.375 577.304 729.275C577.654 728.158 577.829 726.892 577.829 725.475C577.829 724.058 577.654 722.8 577.304 721.7C576.954 720.6 576.471 719.75 575.854 719.15C575.237 718.533 574.529 718.225 573.729 718.225C572.929 718.225 572.212 718.533 571.579 719.15C570.962 719.75 570.479 720.6 570.129 721.7C569.779 722.8 569.604 724.058 569.604 725.475C569.604 726.892 569.779 728.158 570.129 729.275C570.479 730.375 570.962 731.233 571.579 731.85C572.212 732.45 572.929 732.75 573.729 732.75Z" fill="#1A1A1A"/>
<path d="M497.254 781.321L492.929 773.796H489.554V781.321H487.679V764.271H493.379C494.412 764.271 495.321 764.471 496.104 764.871C496.887 765.271 497.487 765.838 497.904 766.571C498.321 767.288 498.529 768.113 498.529 769.046C498.529 770.18 498.187 771.155 497.504 771.971C496.821 772.771 495.912 773.313 494.779 773.596L499.229 781.321H497.254ZM489.554 772.246H493.129C494.229 772.246 495.071 771.955 495.654 771.371C496.254 770.788 496.554 770.013 496.554 769.046C496.554 768.08 496.254 767.305 495.654 766.721C495.071 766.121 494.229 765.821 493.129 765.821H489.554V772.246ZM502.956 772.246C502.589 772.246 502.273 772.113 502.006 771.846C501.739 771.563 501.606 771.238 501.606 770.871C501.606 770.505 501.739 770.188 502.006 769.921C502.273 769.655 502.589 769.521 502.956 769.521C503.339 769.521 503.656 769.655 503.906 769.921C504.173 770.188 504.306 770.505 504.306 770.871C504.306 771.238 504.173 771.563 503.906 771.846C503.656 772.113 503.339 772.246 502.956 772.246ZM502.956 781.521C502.589 781.521 502.273 781.388 502.006 781.121C501.739 780.855 501.606 780.53 501.606 780.146C501.606 779.78 501.739 779.463 502.006 779.196C502.273 778.93 502.589 778.796 502.956 778.796C503.339 778.796 503.656 778.93 503.906 779.196C504.173 779.463 504.306 779.788 504.306 780.171C504.306 780.538 504.173 780.855 503.906 781.121C503.656 781.388 503.339 781.521 502.956 781.521ZM523.632 781.721C522.515 781.721 521.49 781.338 520.557 780.571C519.624 779.805 518.89 778.746 518.357 777.396C517.824 776.03 517.557 774.496 517.557 772.796C517.557 771.096 517.824 769.571 518.357 768.221C518.89 766.855 519.615 765.796 520.532 765.046C521.465 764.28 522.49 763.896 523.607 763.896C524.724 763.896 525.74 764.28 526.657 765.046C527.59 765.796 528.324 766.855 528.857 768.221C529.39 769.571 529.657 771.096 529.657 772.796C529.657 774.496 529.39 776.03 528.857 777.396C528.324 778.746 527.599 779.805 526.682 780.571C525.765 781.338 524.749 781.721 523.632 781.721ZM523.607 780.071C524.407 780.071 525.115 779.771 525.732 779.171C526.349 778.555 526.832 777.696 527.182 776.596C527.532 775.48 527.707 774.213 527.707 772.796C527.707 771.38 527.532 770.121 527.182 769.021C526.832 767.921 526.349 767.071 525.732 766.471C525.115 765.855 524.407 765.546 523.607 765.546C522.807 765.546 522.09 765.855 521.457 766.471C520.84 767.071 520.357 767.921 520.007 769.021C519.657 770.121 519.482 771.38 519.482 772.796C519.482 774.213 519.657 775.48 520.007 776.596C520.357 777.696 520.84 778.555 521.457 779.171C522.09 779.771 522.807 780.071 523.607 780.071ZM537.646 781.721C536.529 781.721 535.504 781.338 534.571 780.571C533.637 779.805 532.904 778.746 532.371 777.396C531.837 776.03 531.571 774.496 531.571 772.796C531.571 771.096 531.837 769.571 532.371 768.221C532.904 766.855 533.629 765.796 534.546 765.046C535.479 764.28 536.504 763.896 537.621 763.896C538.737 763.896 539.754 764.28 540.671 765.046C541.604 765.796 542.337 766.855 542.871 768.221C543.404 769.571 543.671 771.096 543.671 772.796C543.671 774.496 543.404 776.03 542.871 777.396C542.337 778.746 541.612 779.805 540.696 780.571C539.779 781.338 538.762 781.721 537.646 781.721ZM537.621 780.071C538.421 780.071 539.129 779.771 539.746 779.171C540.362 778.555 540.846 777.696 541.196 776.596C541.546 775.48 541.721 774.213 541.721 772.796C541.721 771.38 541.546 770.121 541.196 769.021C540.846 767.921 540.362 767.071 539.746 766.471C539.129 765.855 538.421 765.546 537.621 765.546C536.821 765.546 536.104 765.855 535.471 766.471C534.854 767.071 534.371 767.921 534.021 769.021C533.671 770.121 533.496 771.38 533.496 772.796C533.496 774.213 533.671 775.48 534.021 776.596C534.371 777.696 534.854 778.555 535.471 779.171C536.104 779.771 536.821 780.071 537.621 780.071ZM493.941 826.721C492.507 826.721 491.266 826.371 490.216 825.671C489.182 824.955 488.382 823.938 487.816 822.621C487.266 821.288 486.991 819.696 486.991 817.846C486.991 815.98 487.266 814.38 487.816 813.046C488.382 811.696 489.182 810.671 490.216 809.971C491.266 809.255 492.507 808.896 493.941 808.896C495.257 808.896 496.391 809.196 497.341 809.796C498.307 810.38 499.132 811.246 499.816 812.396L498.341 813.446C497.291 811.546 495.824 810.596 493.941 810.596C492.374 810.596 491.149 811.238 490.266 812.521C489.399 813.788 488.966 815.555 488.966 817.821C488.966 820.071 489.407 821.838 490.291 823.121C491.174 824.388 492.391 825.021 493.941 825.021C494.807 825.021 495.582 824.813 496.266 824.396C496.966 823.98 497.516 823.363 497.916 822.546C498.316 821.73 498.516 820.73 498.516 819.546H494.491V817.996H500.366V819.546C500.366 821.096 500.091 822.413 499.541 823.496C498.991 824.563 498.224 825.371 497.241 825.921C496.274 826.455 495.174 826.721 493.941 826.721ZM504.177 817.246C503.81 817.246 503.493 817.113 503.227 816.846C502.96 816.563 502.827 816.238 502.827 815.871C502.827 815.505 502.96 815.188 503.227 814.921C503.493 814.655 503.81 814.521 504.177 814.521C504.56 814.521 504.877 814.655 505.127 814.921C505.393 815.188 505.527 815.505 505.527 815.871C505.527 816.238 505.393 816.563 505.127 816.846C504.877 817.113 504.56 817.246 504.177 817.246ZM504.177 826.521C503.81 826.521 503.493 826.388 503.227 826.121C502.96 825.855 502.827 825.53 502.827 825.146C502.827 824.78 502.96 824.463 503.227 824.196C503.493 823.93 503.81 823.796 504.177 823.796C504.56 823.796 504.877 823.93 505.127 824.196C505.393 824.463 505.527 824.788 505.527 825.171C505.527 825.538 505.393 825.855 505.127 826.121C504.877 826.388 504.56 826.521 504.177 826.521ZM525.661 820.821V822.521H523.486V826.321H521.786V822.521H513.236V820.821L521.786 809.271H523.486V820.821H525.661ZM515.036 820.821H521.786V811.921L515.036 820.821ZM532.354 809.271H534.054V826.321H532.354V812.071L528.304 816.071L527.354 815.121L532.354 809.271ZM495.954 862.146C496.937 862.396 497.696 862.88 498.229 863.596C498.762 864.313 499.029 865.255 499.029 866.421C499.029 867.938 498.571 869.138 497.654 870.021C496.737 870.888 495.479 871.321 493.879 871.321H487.679V854.271H493.304C494.821 854.271 496.012 854.671 496.879 855.471C497.746 856.255 498.179 857.305 498.179 858.621C498.179 859.471 497.987 860.205 497.604 860.821C497.221 861.421 496.671 861.863 495.954 862.146ZM489.554 861.546H493.529C495.312 861.546 496.204 860.571 496.204 858.621C496.204 857.738 495.946 857.055 495.429 856.571C494.912 856.088 494.196 855.846 493.279 855.846H489.554V861.546ZM493.629 869.771C494.696 869.771 495.529 869.471 496.129 868.871C496.746 868.271 497.054 867.455 497.054 866.421C497.054 865.388 496.746 864.58 496.129 863.996C495.529 863.396 494.696 863.096 493.629 863.096H489.554V869.771H493.629ZM502.81 862.246C502.443 862.246 502.126 862.113 501.86 861.846C501.593 861.563 501.46 861.238 501.46 860.871C501.46 860.505 501.593 860.188 501.86 859.921C502.126 859.655 502.443 859.521 502.81 859.521C503.193 859.521 503.51 859.655 503.76 859.921C504.026 860.188 504.16 860.505 504.16 860.871C504.16 861.238 504.026 861.563 503.76 861.846C503.51 862.113 503.193 862.246 502.81 862.246ZM502.81 871.521C502.443 871.521 502.126 871.388 501.86 871.121C501.593 870.855 501.46 870.53 501.46 870.146C501.46 869.78 501.593 869.463 501.86 869.196C502.126 868.93 502.443 868.796 502.81 868.796C503.193 868.796 503.51 868.93 503.76 869.196C504.026 869.463 504.16 869.788 504.16 870.171C504.16 870.538 504.026 870.855 503.76 871.121C503.51 871.388 503.193 871.521 502.81 871.521ZM517.811 854.271H528.111L522.011 871.321H520.286L525.786 856.021H517.811V854.271ZM535.53 860.271C537.18 860.271 538.464 860.771 539.38 861.771C540.314 862.771 540.78 864.163 540.78 865.946C540.78 867.763 540.289 869.18 539.305 870.196C538.339 871.213 536.98 871.721 535.23 871.721C534.097 871.721 533.047 871.53 532.08 871.146C531.114 870.746 530.339 870.188 529.755 869.471L531.08 868.546C531.497 869.063 532.072 869.463 532.805 869.746C533.555 870.03 534.38 870.171 535.28 870.171C536.48 870.171 537.414 869.805 538.08 869.071C538.764 868.321 539.105 867.28 539.105 865.946C539.089 864.646 538.755 863.638 538.105 862.921C537.455 862.188 536.547 861.821 535.38 861.821C534.647 861.821 533.872 861.946 533.055 862.196C532.239 862.43 531.472 862.763 530.755 863.196V854.271H539.905V856.021H532.455V860.821C533.505 860.455 534.53 860.271 535.53 860.271Z" fill="#1A1A1A"/>
<rect y="892" width="464" height="200" fill="#AC1900"/>
<path d="M495.499 923.625H492.749L492.324 927.175H494.749V928.725H492.124L491.549 933.25H489.999L490.574 928.725H486.349L485.774 933.25H484.224L484.799 928.725H482.199V927.175H484.999L485.424 923.625H482.949V922.075H485.624L486.249 917.175H487.799L487.174 922.075H491.399L492.024 917.175H493.574L492.949 922.075H495.499V923.625ZM490.774 927.175L491.199 923.625H486.974L486.549 927.175H490.774ZM508.582 934L506.832 929.225H499.757L498.182 934H496.307L502.357 916.95H504.107L510.332 934H508.582ZM500.332 927.675H506.257L503.207 919.4L500.332 927.675ZM518.468 934.4C517.034 934.4 515.793 934.05 514.743 933.35C513.709 932.633 512.909 931.617 512.343 930.3C511.793 928.967 511.518 927.375 511.518 925.525C511.518 923.658 511.784 922.058 512.318 920.725C512.868 919.375 513.643 918.35 514.643 917.65C515.659 916.933 516.859 916.575 518.243 916.575C519.659 916.575 520.868 916.892 521.868 917.525C522.884 918.142 523.676 919.017 524.243 920.15L522.743 921.025C522.209 920.042 521.584 919.342 520.868 918.925C520.151 918.492 519.276 918.275 518.243 918.275C516.759 918.275 515.593 918.917 514.743 920.2C513.909 921.467 513.493 923.233 513.493 925.5C513.493 926.983 513.684 928.267 514.068 929.35C514.451 930.433 515.001 931.267 515.718 931.85C516.434 932.417 517.268 932.7 518.218 932.7C519.401 932.7 520.318 932.442 520.968 931.925C521.634 931.392 522.251 930.567 522.818 929.45L524.393 930.4C523.793 931.7 522.993 932.692 521.993 933.375C521.009 934.058 519.834 934.4 518.468 934.4ZM531.279 916.95H532.979V934H531.279V919.75L527.229 923.75L526.279 922.8L531.279 916.95ZM542.431 916.575C543.498 916.575 544.464 916.867 545.331 917.45C546.214 918.017 546.898 918.817 547.381 919.85C547.881 920.883 548.131 922.05 548.131 923.35C548.131 925.783 547.714 927.833 546.881 929.5C546.064 931.15 544.939 932.383 543.506 933.2C542.089 934 540.481 934.4 538.681 934.4V932.8C540.714 932.8 542.389 932.267 543.706 931.2C545.023 930.133 545.864 928.617 546.231 926.65C545.881 927.267 545.348 927.742 544.631 928.075C543.914 928.408 543.198 928.575 542.481 928.575C541.414 928.575 540.448 928.317 539.581 927.8C538.714 927.283 538.031 926.575 537.531 925.675C537.031 924.758 536.781 923.725 536.781 922.575C536.781 921.425 537.023 920.4 537.506 919.5C538.006 918.583 538.681 917.867 539.531 917.35C540.398 916.833 541.364 916.575 542.431 916.575ZM542.481 927.025C543.698 927.025 544.656 926.633 545.356 925.85C546.073 925.05 546.431 924.05 546.431 922.85C546.431 921.95 546.256 921.142 545.906 920.425C545.556 919.692 545.081 919.125 544.481 918.725C543.881 918.325 543.214 918.125 542.481 918.125C541.731 918.125 541.048 918.317 540.431 918.7C539.831 919.083 539.356 919.617 539.006 920.3C538.656 920.967 538.481 921.725 538.481 922.575C538.481 923.425 538.656 924.192 539.006 924.875C539.356 925.542 539.831 926.067 540.431 926.45C541.048 926.833 541.731 927.025 542.481 927.025ZM556.445 934.4C555.328 934.4 554.303 934.017 553.37 933.25C552.436 932.483 551.703 931.425 551.17 930.075C550.636 928.708 550.37 927.175 550.37 925.475C550.37 923.775 550.636 922.25 551.17 920.9C551.703 919.533 552.428 918.475 553.345 917.725C554.278 916.958 555.303 916.575 556.42 916.575C557.536 916.575 558.553 916.958 559.47 917.725C560.403 918.475 561.136 919.533 561.67 920.9C562.203 922.25 562.47 923.775 562.47 925.475C562.47 927.175 562.203 928.708 561.67 930.075C561.136 931.425 560.411 932.483 559.495 933.25C558.578 934.017 557.561 934.4 556.445 934.4ZM556.42 932.75C557.22 932.75 557.928 932.45 558.545 931.85C559.161 931.233 559.645 930.375 559.995 929.275C560.345 928.158 560.52 926.892 560.52 925.475C560.52 924.058 560.345 922.8 559.995 921.7C559.645 920.6 559.161 919.75 558.545 919.15C557.928 918.533 557.22 918.225 556.42 918.225C555.62 918.225 554.903 918.533 554.27 919.15C553.653 919.75 553.17 920.6 552.82 921.7C552.47 922.8 552.295 924.058 552.295 925.475C552.295 926.892 552.47 928.158 552.82 929.275C553.17 930.375 553.653 931.233 554.27 931.85C554.903 932.45 555.62 932.75 556.42 932.75ZM570.458 934.4C569.342 934.4 568.317 934.017 567.383 933.25C566.45 932.483 565.717 931.425 565.183 930.075C564.65 928.708 564.383 927.175 564.383 925.475C564.383 923.775 564.65 922.25 565.183 920.9C565.717 919.533 566.442 918.475 567.358 917.725C568.292 916.958 569.317 916.575 570.433 916.575C571.55 916.575 572.567 916.958 573.483 917.725C574.417 918.475 575.15 919.533 575.683 920.9C576.217 922.25 576.483 923.775 576.483 925.475C576.483 927.175 576.217 928.708 575.683 930.075C575.15 931.425 574.425 932.483 573.508 933.25C572.592 934.017 571.575 934.4 570.458 934.4ZM570.433 932.75C571.233 932.75 571.942 932.45 572.558 931.85C573.175 931.233 573.658 930.375 574.008 929.275C574.358 928.158 574.533 926.892 574.533 925.475C574.533 924.058 574.358 922.8 574.008 921.7C573.658 920.6 573.175 919.75 572.558 919.15C571.942 918.533 571.233 918.225 570.433 918.225C569.633 918.225 568.917 918.533 568.283 919.15C567.667 919.75 567.183 920.6 566.833 921.7C566.483 922.8 566.308 924.058 566.308 925.475C566.308 926.892 566.483 928.158 566.833 929.275C567.183 930.375 567.667 931.233 568.283 931.85C568.917 932.45 569.633 932.75 570.433 932.75Z" fill="#1A1A1A"/>
<path d="M497.254 981.321L492.929 973.796H489.554V981.321H487.679V964.271H493.379C494.412 964.271 495.321 964.471 496.104 964.871C496.887 965.271 497.487 965.838 497.904 966.571C498.321 967.288 498.529 968.113 498.529 969.046C498.529 970.18 498.187 971.155 497.504 971.971C496.821 972.771 495.912 973.313 494.779 973.596L499.229 981.321H497.254ZM489.554 972.246H493.129C494.229 972.246 495.071 971.955 495.654 971.371C496.254 970.788 496.554 970.013 496.554 969.046C496.554 968.08 496.254 967.305 495.654 966.721C495.071 966.121 494.229 965.821 493.129 965.821H489.554V972.246ZM502.956 972.246C502.589 972.246 502.273 972.113 502.006 971.846C501.739 971.563 501.606 971.238 501.606 970.871C501.606 970.505 501.739 970.188 502.006 969.921C502.273 969.655 502.589 969.521 502.956 969.521C503.339 969.521 503.656 969.655 503.906 969.921C504.173 970.188 504.306 970.505 504.306 970.871C504.306 971.238 504.173 971.563 503.906 971.846C503.656 972.113 503.339 972.246 502.956 972.246ZM502.956 981.521C502.589 981.521 502.273 981.388 502.006 981.121C501.739 980.855 501.606 980.53 501.606 980.146C501.606 979.78 501.739 979.463 502.006 979.196C502.273 978.93 502.589 978.796 502.956 978.796C503.339 978.796 503.656 978.93 503.906 979.196C504.173 979.463 504.306 979.788 504.306 980.171C504.306 980.538 504.173 980.855 503.906 981.121C503.656 981.388 503.339 981.521 502.956 981.521ZM523.532 969.721C524.599 969.721 525.565 969.98 526.432 970.496C527.299 971.013 527.982 971.73 528.482 972.646C528.982 973.546 529.232 974.571 529.232 975.721C529.232 976.871 528.982 977.905 528.482 978.821C527.999 979.721 527.324 980.43 526.457 980.946C525.607 981.463 524.649 981.721 523.582 981.721C522.515 981.721 521.54 981.438 520.657 980.871C519.79 980.288 519.107 979.48 518.607 978.446C518.124 977.413 517.882 976.246 517.882 974.946C517.882 972.513 518.29 970.471 519.107 968.821C519.94 967.155 521.065 965.921 522.482 965.121C523.915 964.305 525.532 963.896 527.332 963.896V965.496C525.299 965.496 523.624 966.03 522.307 967.096C520.99 968.163 520.149 969.68 519.782 971.646C520.132 971.03 520.665 970.555 521.382 970.221C522.099 969.888 522.815 969.721 523.532 969.721ZM523.532 980.171C524.282 980.171 524.957 979.98 525.557 979.596C526.174 979.213 526.657 978.688 527.007 978.021C527.357 977.338 527.532 976.571 527.532 975.721C527.532 974.871 527.357 974.113 527.007 973.446C526.657 972.763 526.174 972.23 525.557 971.846C524.957 971.463 524.282 971.271 523.532 971.271C522.315 971.271 521.349 971.671 520.632 972.471C519.932 973.255 519.582 974.246 519.582 975.446C519.582 976.346 519.757 977.163 520.107 977.896C520.457 978.613 520.932 979.171 521.532 979.571C522.132 979.971 522.799 980.171 523.532 980.171ZM529.725 964.271H540.025L533.925 981.321H532.2L537.7 966.021H529.725V964.271ZM493.941 1026.72C492.507 1026.72 491.266 1026.37 490.216 1025.67C489.182 1024.95 488.382 1023.94 487.816 1022.62C487.266 1021.29 486.991 1019.7 486.991 1017.85C486.991 1015.98 487.266 1014.38 487.816 1013.05C488.382 1011.7 489.182 1010.67 490.216 1009.97C491.266 1009.25 492.507 1008.9 493.941 1008.9C495.257 1008.9 496.391 1009.2 497.341 1009.8C498.307 1010.38 499.132 1011.25 499.816 1012.4L498.341 1013.45C497.291 1011.55 495.824 1010.6 493.941 1010.6C492.374 1010.6 491.149 1011.24 490.266 1012.52C489.399 1013.79 488.966 1015.55 488.966 1017.82C488.966 1020.07 489.407 1021.84 490.291 1023.12C491.174 1024.39 492.391 1025.02 493.941 1025.02C494.807 1025.02 495.582 1024.81 496.266 1024.4C496.966 1023.98 497.516 1023.36 497.916 1022.55C498.316 1021.73 498.516 1020.73 498.516 1019.55H494.491V1018H500.366V1019.55C500.366 1021.1 500.091 1022.41 499.541 1023.5C498.991 1024.56 498.224 1025.37 497.241 1025.92C496.274 1026.45 495.174 1026.72 493.941 1026.72ZM504.177 1017.25C503.81 1017.25 503.493 1017.11 503.227 1016.85C502.96 1016.56 502.827 1016.24 502.827 1015.87C502.827 1015.5 502.96 1015.19 503.227 1014.92C503.493 1014.65 503.81 1014.52 504.177 1014.52C504.56 1014.52 504.877 1014.65 505.127 1014.92C505.393 1015.19 505.527 1015.5 505.527 1015.87C505.527 1016.24 505.393 1016.56 505.127 1016.85C504.877 1017.11 504.56 1017.25 504.177 1017.25ZM504.177 1026.52C503.81 1026.52 503.493 1026.39 503.227 1026.12C502.96 1025.85 502.827 1025.53 502.827 1025.15C502.827 1024.78 502.96 1024.46 503.227 1024.2C503.493 1023.93 503.81 1023.8 504.177 1023.8C504.56 1023.8 504.877 1023.93 505.127 1024.2C505.393 1024.46 505.527 1024.79 505.527 1025.17C505.527 1025.54 505.393 1025.85 505.127 1026.12C504.877 1026.39 504.56 1026.52 504.177 1026.52ZM518.486 1009.27H520.186V1026.32H518.486V1012.07L514.436 1016.07L513.486 1015.12L518.486 1009.27ZM529.638 1026.72C528.521 1026.72 527.496 1026.34 526.563 1025.57C525.63 1024.8 524.896 1023.75 524.363 1022.4C523.83 1021.03 523.563 1019.5 523.563 1017.8C523.563 1016.1 523.83 1014.57 524.363 1013.22C524.896 1011.85 525.621 1010.8 526.538 1010.05C527.471 1009.28 528.496 1008.9 529.613 1008.9C530.73 1008.9 531.746 1009.28 532.663 1010.05C533.596 1010.8 534.33 1011.85 534.863 1013.22C535.396 1014.57 535.663 1016.1 535.663 1017.8C535.663 1019.5 535.396 1021.03 534.863 1022.4C534.33 1023.75 533.605 1024.8 532.688 1025.57C531.771 1026.34 530.755 1026.72 529.638 1026.72ZM529.613 1025.07C530.413 1025.07 531.121 1024.77 531.738 1024.17C532.355 1023.55 532.838 1022.7 533.188 1021.6C533.538 1020.48 533.713 1019.21 533.713 1017.8C533.713 1016.38 533.538 1015.12 533.188 1014.02C532.838 1012.92 532.355 1012.07 531.738 1011.47C531.121 1010.85 530.413 1010.55 529.613 1010.55C528.813 1010.55 528.096 1010.85 527.463 1011.47C526.846 1012.07 526.363 1012.92 526.013 1014.02C525.663 1015.12 525.488 1016.38 525.488 1017.8C525.488 1019.21 525.663 1020.48 526.013 1021.6C526.363 1022.7 526.846 1023.55 527.463 1024.17C528.096 1024.77 528.813 1025.07 529.613 1025.07ZM495.954 1062.15C496.937 1062.4 497.696 1062.88 498.229 1063.6C498.762 1064.31 499.029 1065.25 499.029 1066.42C499.029 1067.94 498.571 1069.14 497.654 1070.02C496.737 1070.89 495.479 1071.32 493.879 1071.32H487.679V1054.27H493.304C494.821 1054.27 496.012 1054.67 496.879 1055.47C497.746 1056.25 498.179 1057.3 498.179 1058.62C498.179 1059.47 497.987 1060.2 497.604 1060.82C497.221 1061.42 496.671 1061.86 495.954 1062.15ZM489.554 1061.55H493.529C495.312 1061.55 496.204 1060.57 496.204 1058.62C496.204 1057.74 495.946 1057.05 495.429 1056.57C494.912 1056.09 494.196 1055.85 493.279 1055.85H489.554V1061.55ZM493.629 1069.77C494.696 1069.77 495.529 1069.47 496.129 1068.87C496.746 1068.27 497.054 1067.45 497.054 1066.42C497.054 1065.39 496.746 1064.58 496.129 1064C495.529 1063.4 494.696 1063.1 493.629 1063.1H489.554V1069.77H493.629ZM502.81 1062.25C502.443 1062.25 502.126 1062.11 501.86 1061.85C501.593 1061.56 501.46 1061.24 501.46 1060.87C501.46 1060.5 501.593 1060.19 501.86 1059.92C502.126 1059.65 502.443 1059.52 502.81 1059.52C503.193 1059.52 503.51 1059.65 503.76 1059.92C504.026 1060.19 504.16 1060.5 504.16 1060.87C504.16 1061.24 504.026 1061.56 503.76 1061.85C503.51 1062.11 503.193 1062.25 502.81 1062.25ZM502.81 1071.52C502.443 1071.52 502.126 1071.39 501.86 1071.12C501.593 1070.85 501.46 1070.53 501.46 1070.15C501.46 1069.78 501.593 1069.46 501.86 1069.2C502.126 1068.93 502.443 1068.8 502.81 1068.8C503.193 1068.8 503.51 1068.93 503.76 1069.2C504.026 1069.46 504.16 1069.79 504.16 1070.17C504.16 1070.54 504.026 1070.85 503.76 1071.12C503.51 1071.39 503.193 1071.52 502.81 1071.52ZM523.486 1071.72C522.369 1071.72 521.344 1071.34 520.411 1070.57C519.477 1069.8 518.744 1068.75 518.211 1067.4C517.677 1066.03 517.411 1064.5 517.411 1062.8C517.411 1061.1 517.677 1059.57 518.211 1058.22C518.744 1056.85 519.469 1055.8 520.386 1055.05C521.319 1054.28 522.344 1053.9 523.461 1053.9C524.577 1053.9 525.594 1054.28 526.511 1055.05C527.444 1055.8 528.177 1056.85 528.711 1058.22C529.244 1059.57 529.511 1061.1 529.511 1062.8C529.511 1064.5 529.244 1066.03 528.711 1067.4C528.177 1068.75 527.452 1069.8 526.536 1070.57C525.619 1071.34 524.602 1071.72 523.486 1071.72ZM523.461 1070.07C524.261 1070.07 524.969 1069.77 525.586 1069.17C526.202 1068.55 526.686 1067.7 527.036 1066.6C527.386 1065.48 527.561 1064.21 527.561 1062.8C527.561 1061.38 527.386 1060.12 527.036 1059.02C526.686 1057.92 526.202 1057.07 525.586 1056.47C524.969 1055.85 524.261 1055.55 523.461 1055.55C522.661 1055.55 521.944 1055.85 521.311 1056.47C520.694 1057.07 520.211 1057.92 519.861 1059.02C519.511 1060.12 519.336 1061.38 519.336 1062.8C519.336 1064.21 519.511 1065.48 519.861 1066.6C520.211 1067.7 520.694 1068.55 521.311 1069.17C521.944 1069.77 522.661 1070.07 523.461 1070.07ZM537.499 1071.72C536.383 1071.72 535.358 1071.34 534.424 1070.57C533.491 1069.8 532.758 1068.75 532.224 1067.4C531.691 1066.03 531.424 1064.5 531.424 1062.8C531.424 1061.1 531.691 1059.57 532.224 1058.22C532.758 1056.85 533.483 1055.8 534.399 1055.05C535.333 1054.28 536.358 1053.9 537.474 1053.9C538.591 1053.9 539.608 1054.28 540.524 1055.05C541.458 1055.8 542.191 1056.85 542.724 1058.22C543.258 1059.57 543.524 1061.1 543.524 1062.8C543.524 1064.5 543.258 1066.03 542.724 1067.4C542.191 1068.75 541.466 1069.8 540.549 1070.57C539.633 1071.34 538.616 1071.72 537.499 1071.72ZM537.474 1070.07C538.274 1070.07 538.983 1069.77 539.599 1069.17C540.216 1068.55 540.699 1067.7 541.049 1066.6C541.399 1065.48 541.574 1064.21 541.574 1062.8C541.574 1061.38 541.399 1060.12 541.049 1059.02C540.699 1057.92 540.216 1057.07 539.599 1056.47C538.983 1055.85 538.274 1055.55 537.474 1055.55C536.674 1055.55 535.958 1055.85 535.324 1056.47C534.708 1057.07 534.224 1057.92 533.874 1059.02C533.524 1060.12 533.349 1061.38 533.349 1062.8C533.349 1064.21 533.524 1065.48 533.874 1066.6C534.224 1067.7 534.708 1068.55 535.324 1069.17C535.958 1069.77 536.674 1070.07 537.474 1070.07Z" fill="#1A1A1A"/>
<path d="M821.989 908.715V1104.93H923V1027.43L821.989 908.715Z" fill="#AC1900"/>
<path d="M848.568 1036.88H890.877L869.723 1012.02L848.568 987.158V1036.88Z" fill="#F4F4F4"/>
<rect x="848.566" y="1070.33" width="21.968" height="35.62" fill="#F4F4F4"/>
<circle cx="816.281" cy="731.572" r="72.572" fill="#0069C0"/>
<path d="M822.086 904.294L750.919 763.146C743.618 748.666 754.143 731.572 770.36 731.572H822.086V904.294Z" fill="#0069C0"/>
<circle cx="816.281" cy="731.572" r="39.1889" fill="#F4F4F4"/>
<rect width="1080" height="588" fill="#202020"/>
<rect y="104" width="464" height="200" fill="#2196F3"/>
<path d="M495.499 135.625H492.749L492.324 139.175H494.749V140.725H492.124L491.549 145.25H489.999L490.574 140.725H486.349L485.774 145.25H484.224L484.799 140.725H482.199V139.175H484.999L485.424 135.625H482.949V134.075H485.624L486.249 129.175H487.799L487.174 134.075H491.399L492.024 129.175H493.574L492.949 134.075H495.499V135.625ZM490.774 139.175L491.199 135.625H486.974L486.549 139.175H490.774ZM496.982 144.925C496.982 144.192 497.149 143.517 497.482 142.9C497.832 142.267 498.257 141.708 498.757 141.225C499.257 140.725 499.94 140.117 500.807 139.4C501.34 138.967 501.624 138.733 501.657 138.7C502.74 137.783 503.582 136.883 504.182 136C504.782 135.117 505.082 134.1 505.082 132.95C505.082 132.15 504.807 131.508 504.257 131.025C503.724 130.525 503.015 130.275 502.132 130.275C501.315 130.275 500.565 130.483 499.882 130.9C499.215 131.3 498.59 131.892 498.007 132.675L496.632 131.5C497.299 130.583 498.115 129.867 499.082 129.35C500.065 128.833 501.082 128.575 502.132 128.575C503.615 128.575 504.799 128.975 505.682 129.775C506.565 130.558 507.007 131.617 507.007 132.95C507.007 134.35 506.607 135.6 505.807 136.7C505.007 137.8 503.907 138.942 502.507 140.125C502.157 140.425 501.99 140.567 502.007 140.55C500.974 141.4 500.207 142.1 499.707 142.65C499.207 143.2 498.957 143.75 498.957 144.3H507.232V146H496.982V144.925ZM513.994 128.95H515.694V146H513.994V131.75L509.944 135.75L508.994 134.8L513.994 128.95ZM525.146 128.575C526.212 128.575 527.179 128.867 528.046 129.45C528.929 130.017 529.612 130.817 530.096 131.85C530.596 132.883 530.846 134.05 530.846 135.35C530.846 137.783 530.429 139.833 529.596 141.5C528.779 143.15 527.654 144.383 526.221 145.2C524.804 146 523.196 146.4 521.396 146.4V144.8C523.429 144.8 525.104 144.267 526.421 143.2C527.737 142.133 528.579 140.617 528.946 138.65C528.596 139.267 528.062 139.742 527.346 140.075C526.629 140.408 525.912 140.575 525.196 140.575C524.129 140.575 523.162 140.317 522.296 139.8C521.429 139.283 520.746 138.575 520.246 137.675C519.746 136.758 519.496 135.725 519.496 134.575C519.496 133.425 519.737 132.4 520.221 131.5C520.721 130.583 521.396 129.867 522.246 129.35C523.112 128.833 524.079 128.575 525.146 128.575ZM525.196 139.025C526.412 139.025 527.371 138.633 528.071 137.85C528.787 137.05 529.146 136.05 529.146 134.85C529.146 133.95 528.971 133.142 528.621 132.425C528.271 131.692 527.796 131.125 527.196 130.725C526.596 130.325 525.929 130.125 525.196 130.125C524.446 130.125 523.762 130.317 523.146 130.7C522.546 131.083 522.071 131.617 521.721 132.3C521.371 132.967 521.196 133.725 521.196 134.575C521.196 135.425 521.371 136.192 521.721 136.875C522.071 137.542 522.546 138.067 523.146 138.45C523.762 138.833 524.446 139.025 525.196 139.025ZM539.059 134.4C540.126 134.4 541.093 134.658 541.959 135.175C542.826 135.692 543.509 136.408 544.009 137.325C544.509 138.225 544.759 139.25 544.759 140.4C544.759 141.55 544.509 142.583 544.009 143.5C543.526 144.4 542.851 145.108 541.984 145.625C541.134 146.142 540.176 146.4 539.109 146.4C538.043 146.4 537.068 146.117 536.184 145.55C535.318 144.967 534.634 144.158 534.134 143.125C533.651 142.092 533.409 140.925 533.409 139.625C533.409 137.192 533.818 135.15 534.634 133.5C535.468 131.833 536.593 130.6 538.009 129.8C539.443 128.983 541.059 128.575 542.859 128.575V130.175C540.826 130.175 539.151 130.708 537.834 131.775C536.518 132.842 535.676 134.358 535.309 136.325C535.659 135.708 536.193 135.233 536.909 134.9C537.626 134.567 538.343 134.4 539.059 134.4ZM539.059 144.85C539.809 144.85 540.484 144.658 541.084 144.275C541.701 143.892 542.184 143.367 542.534 142.7C542.884 142.017 543.059 141.25 543.059 140.4C543.059 139.55 542.884 138.792 542.534 138.125C542.184 137.442 541.701 136.908 541.084 136.525C540.484 136.142 539.809 135.95 539.059 135.95C537.843 135.95 536.876 136.35 536.159 137.15C535.459 137.933 535.109 138.925 535.109 140.125C535.109 141.025 535.284 141.842 535.634 142.575C535.984 143.292 536.459 143.85 537.059 144.25C537.659 144.65 538.326 144.85 539.059 144.85ZM548.104 146V128.95H557.404V130.525H549.979V136.475H555.479V138H549.979V146H548.104ZM566.108 136.925C567.025 137.208 567.767 137.75 568.333 138.55C568.9 139.35 569.183 140.275 569.183 141.325C569.183 142.292 568.942 143.167 568.458 143.95C567.992 144.717 567.342 145.317 566.508 145.75C565.692 146.183 564.792 146.4 563.808 146.4C562.575 146.4 561.517 146.083 560.633 145.45C559.75 144.817 559.092 143.967 558.658 142.9L560.158 142.025C560.558 142.875 561.067 143.55 561.683 144.05C562.317 144.533 563.05 144.775 563.883 144.775C564.867 144.775 565.683 144.45 566.333 143.8C567 143.15 567.333 142.325 567.333 141.325C567.333 140.292 567 139.442 566.333 138.775C565.667 138.108 564.817 137.775 563.783 137.775H562.583V136.225H563.683C564.6 136.225 565.333 135.933 565.883 135.35C566.433 134.75 566.708 133.983 566.708 133.05C566.708 132.2 566.442 131.508 565.908 130.975C565.392 130.425 564.725 130.15 563.908 130.15C563.042 130.15 562.308 130.392 561.708 130.875C561.108 131.342 560.592 132.017 560.158 132.9L558.783 132.15C559.267 131.05 559.95 130.183 560.833 129.55C561.717 128.9 562.742 128.575 563.908 128.575C564.792 128.575 565.583 128.767 566.283 129.15C566.983 129.533 567.525 130.067 567.908 130.75C568.308 131.417 568.508 132.183 568.508 133.05C568.508 133.95 568.292 134.75 567.858 135.45C567.442 136.133 566.858 136.625 566.108 136.925Z" fill="white"/>
<path d="M497.254 193.321L492.929 185.796H489.554V193.321H487.679V176.271H493.379C494.412 176.271 495.321 176.471 496.104 176.871C496.887 177.271 497.487 177.838 497.904 178.571C498.321 179.288 498.529 180.113 498.529 181.046C498.529 182.18 498.187 183.155 497.504 183.971C496.821 184.771 495.912 185.313 494.779 185.596L499.229 193.321H497.254ZM489.554 184.246H493.129C494.229 184.246 495.071 183.955 495.654 183.371C496.254 182.788 496.554 182.013 496.554 181.046C496.554 180.08 496.254 179.305 495.654 178.721C495.071 178.121 494.229 177.821 493.129 177.821H489.554V184.246ZM502.956 184.246C502.589 184.246 502.273 184.113 502.006 183.846C501.739 183.563 501.606 183.238 501.606 182.871C501.606 182.505 501.739 182.188 502.006 181.921C502.273 181.655 502.589 181.521 502.956 181.521C503.339 181.521 503.656 181.655 503.906 181.921C504.173 182.188 504.306 182.505 504.306 182.871C504.306 183.238 504.173 183.563 503.906 183.846C503.656 184.113 503.339 184.246 502.956 184.246ZM502.956 193.521C502.589 193.521 502.273 193.388 502.006 193.121C501.739 192.855 501.606 192.53 501.606 192.146C501.606 191.78 501.739 191.463 502.006 191.196C502.273 190.93 502.589 190.796 502.956 190.796C503.339 190.796 503.656 190.93 503.906 191.196C504.173 191.463 504.306 191.788 504.306 192.171C504.306 192.538 504.173 192.855 503.906 193.121C503.656 193.388 503.339 193.521 502.956 193.521ZM522.832 176.271H524.532V193.321H522.832V179.071L518.782 183.071L517.832 182.121L522.832 176.271ZM535.884 184.246C536.8 184.53 537.542 185.071 538.109 185.871C538.675 186.671 538.959 187.596 538.959 188.646C538.959 189.613 538.717 190.488 538.234 191.271C537.767 192.038 537.117 192.638 536.284 193.071C535.467 193.505 534.567 193.721 533.584 193.721C532.35 193.721 531.292 193.405 530.409 192.771C529.525 192.138 528.867 191.288 528.434 190.221L529.934 189.346C530.334 190.196 530.842 190.871 531.459 191.371C532.092 191.855 532.825 192.096 533.659 192.096C534.642 192.096 535.459 191.771 536.109 191.121C536.775 190.471 537.109 189.646 537.109 188.646C537.109 187.613 536.775 186.763 536.109 186.096C535.442 185.43 534.592 185.096 533.559 185.096H532.359V183.546H533.459C534.375 183.546 535.109 183.255 535.659 182.671C536.209 182.071 536.484 181.305 536.484 180.371C536.484 179.521 536.217 178.83 535.684 178.296C535.167 177.746 534.5 177.471 533.684 177.471C532.817 177.471 532.084 177.713 531.484 178.196C530.884 178.663 530.367 179.338 529.934 180.221L528.559 179.471C529.042 178.371 529.725 177.505 530.609 176.871C531.492 176.221 532.517 175.896 533.684 175.896C534.567 175.896 535.359 176.088 536.059 176.471C536.759 176.855 537.3 177.388 537.684 178.071C538.084 178.738 538.284 179.505 538.284 180.371C538.284 181.271 538.067 182.071 537.634 182.771C537.217 183.455 536.634 183.946 535.884 184.246ZM493.941 238.721C492.507 238.721 491.266 238.371 490.216 237.671C489.182 236.955 488.382 235.938 487.816 234.621C487.266 233.288 486.991 231.696 486.991 229.846C486.991 227.98 487.266 226.38 487.816 225.046C488.382 223.696 489.182 222.671 490.216 221.971C491.266 221.255 492.507 220.896 493.941 220.896C495.257 220.896 496.391 221.196 497.341 221.796C498.307 222.38 499.132 223.246 499.816 224.396L498.341 225.446C497.291 223.546 495.824 222.596 493.941 222.596C492.374 222.596 491.149 223.238 490.266 224.521C489.399 225.788 488.966 227.555 488.966 229.821C488.966 232.071 489.407 233.838 490.291 235.121C491.174 236.388 492.391 237.021 493.941 237.021C494.807 237.021 495.582 236.813 496.266 236.396C496.966 235.98 497.516 235.363 497.916 234.546C498.316 233.73 498.516 232.73 498.516 231.546H494.491V229.996H500.366V231.546C500.366 233.096 500.091 234.413 499.541 235.496C498.991 236.563 498.224 237.371 497.241 237.921C496.274 238.455 495.174 238.721 493.941 238.721ZM504.177 229.246C503.81 229.246 503.493 229.113 503.227 228.846C502.96 228.563 502.827 228.238 502.827 227.871C502.827 227.505 502.96 227.188 503.227 226.921C503.493 226.655 503.81 226.521 504.177 226.521C504.56 226.521 504.877 226.655 505.127 226.921C505.393 227.188 505.527 227.505 505.527 227.871C505.527 228.238 505.393 228.563 505.127 228.846C504.877 229.113 504.56 229.246 504.177 229.246ZM504.177 238.521C503.81 238.521 503.493 238.388 503.227 238.121C502.96 237.855 502.827 237.53 502.827 237.146C502.827 236.78 502.96 236.463 503.227 236.196C503.493 235.93 503.81 235.796 504.177 235.796C504.56 235.796 504.877 235.93 505.127 236.196C505.393 236.463 505.527 236.788 505.527 237.171C505.527 237.538 505.393 237.855 505.127 238.121C504.877 238.388 504.56 238.521 504.177 238.521ZM519.661 227.271C521.311 227.271 522.595 227.771 523.511 228.771C524.445 229.771 524.911 231.163 524.911 232.946C524.911 234.763 524.42 236.18 523.436 237.196C522.47 238.213 521.111 238.721 519.361 238.721C518.228 238.721 517.178 238.53 516.211 238.146C515.245 237.746 514.47 237.188 513.886 236.471L515.211 235.546C515.628 236.063 516.203 236.463 516.936 236.746C517.686 237.03 518.511 237.171 519.411 237.171C520.611 237.171 521.545 236.805 522.211 236.071C522.895 235.321 523.236 234.28 523.236 232.946C523.22 231.646 522.886 230.638 522.236 229.921C521.586 229.188 520.678 228.821 519.511 228.821C518.778 228.821 518.003 228.946 517.186 229.196C516.37 229.43 515.603 229.763 514.886 230.196V221.271H524.036V223.021H516.586V227.821C517.636 227.455 518.661 227.271 519.661 227.271ZM533.3 220.896C534.367 220.896 535.333 221.188 536.2 221.771C537.083 222.338 537.767 223.138 538.25 224.171C538.75 225.205 539 226.371 539 227.671C539 230.105 538.583 232.155 537.75 233.821C536.933 235.471 535.808 236.705 534.375 237.521C532.958 238.321 531.35 238.721 529.55 238.721V237.121C531.583 237.121 533.258 236.588 534.575 235.521C535.892 234.455 536.733 232.938 537.1 230.971C536.75 231.588 536.217 232.063 535.5 232.396C534.783 232.73 534.067 232.896 533.35 232.896C532.283 232.896 531.317 232.638 530.45 232.121C529.583 231.605 528.9 230.896 528.4 229.996C527.9 229.08 527.65 228.046 527.65 226.896C527.65 225.746 527.892 224.721 528.375 223.821C528.875 222.905 529.55 222.188 530.4 221.671C531.267 221.155 532.233 220.896 533.3 220.896ZM533.35 231.346C534.567 231.346 535.525 230.955 536.225 230.171C536.942 229.371 537.3 228.371 537.3 227.171C537.3 226.271 537.125 225.463 536.775 224.746C536.425 224.013 535.95 223.446 535.35 223.046C534.75 222.646 534.083 222.446 533.35 222.446C532.6 222.446 531.917 222.638 531.3 223.021C530.7 223.405 530.225 223.938 529.875 224.621C529.525 225.288 529.35 226.046 529.35 226.896C529.35 227.746 529.525 228.513 529.875 229.196C530.225 229.863 530.7 230.388 531.3 230.771C531.917 231.155 532.6 231.346 533.35 231.346ZM495.954 274.146C496.937 274.396 497.696 274.88 498.229 275.596C498.762 276.313 499.029 277.255 499.029 278.421C499.029 279.938 498.571 281.138 497.654 282.021C496.737 282.888 495.479 283.321 493.879 283.321H487.679V266.271H493.304C494.821 266.271 496.012 266.671 496.879 267.471C497.746 268.255 498.179 269.305 498.179 270.621C498.179 271.471 497.987 272.205 497.604 272.821C497.221 273.421 496.671 273.863 495.954 274.146ZM489.554 273.546H493.529C495.312 273.546 496.204 272.571 496.204 270.621C496.204 269.738 495.946 269.055 495.429 268.571C494.912 268.088 494.196 267.846 493.279 267.846H489.554V273.546ZM493.629 281.771C494.696 281.771 495.529 281.471 496.129 280.871C496.746 280.271 497.054 279.455 497.054 278.421C497.054 277.388 496.746 276.58 496.129 275.996C495.529 275.396 494.696 275.096 493.629 275.096H489.554V281.771H493.629ZM502.81 274.246C502.443 274.246 502.126 274.113 501.86 273.846C501.593 273.563 501.46 273.238 501.46 272.871C501.46 272.505 501.593 272.188 501.86 271.921C502.126 271.655 502.443 271.521 502.81 271.521C503.193 271.521 503.51 271.655 503.76 271.921C504.026 272.188 504.16 272.505 504.16 272.871C504.16 273.238 504.026 273.563 503.76 273.846C503.51 274.113 503.193 274.246 502.81 274.246ZM502.81 283.521C502.443 283.521 502.126 283.388 501.86 283.121C501.593 282.855 501.46 282.53 501.46 282.146C501.46 281.78 501.593 281.463 501.86 281.196C502.126 280.93 502.443 280.796 502.81 280.796C503.193 280.796 503.51 280.93 503.76 281.196C504.026 281.463 504.16 281.788 504.16 282.171C504.16 282.538 504.026 282.855 503.76 283.121C503.51 283.388 503.193 283.521 502.81 283.521ZM523.486 265.896C524.552 265.896 525.519 266.188 526.386 266.771C527.269 267.338 527.952 268.138 528.436 269.171C528.936 270.205 529.186 271.371 529.186 272.671C529.186 275.105 528.769 277.155 527.936 278.821C527.119 280.471 525.994 281.705 524.561 282.521C523.144 283.321 521.536 283.721 519.736 283.721V282.121C521.769 282.121 523.444 281.588 524.761 280.521C526.077 279.455 526.919 277.938 527.286 275.971C526.936 276.588 526.402 277.063 525.686 277.396C524.969 277.73 524.252 277.896 523.536 277.896C522.469 277.896 521.502 277.638 520.636 277.121C519.769 276.605 519.086 275.896 518.586 274.996C518.086 274.08 517.836 273.046 517.836 271.896C517.836 270.746 518.077 269.721 518.561 268.821C519.061 267.905 519.736 267.188 520.586 266.671C521.452 266.155 522.419 265.896 523.486 265.896ZM523.536 276.346C524.752 276.346 525.711 275.955 526.411 275.171C527.127 274.371 527.486 273.371 527.486 272.171C527.486 271.271 527.311 270.463 526.961 269.746C526.611 269.013 526.136 268.446 525.536 268.046C524.936 267.646 524.269 267.446 523.536 267.446C522.786 267.446 522.102 267.638 521.486 268.021C520.886 268.405 520.411 268.938 520.061 269.621C519.711 270.288 519.536 271.046 519.536 271.896C519.536 272.746 519.711 273.513 520.061 274.196C520.411 274.863 520.886 275.388 521.486 275.771C522.102 276.155 522.786 276.346 523.536 276.346ZM537.874 272.271C539.524 272.271 540.808 272.771 541.724 273.771C542.658 274.771 543.124 276.163 543.124 277.946C543.124 279.763 542.633 281.18 541.649 282.196C540.683 283.213 539.324 283.721 537.574 283.721C536.441 283.721 535.391 283.53 534.424 283.146C533.458 282.746 532.683 282.188 532.099 281.471L533.424 280.546C533.841 281.063 534.416 281.463 535.149 281.746C535.899 282.03 536.724 282.171 537.624 282.171C538.824 282.171 539.758 281.805 540.424 281.071C541.108 280.321 541.449 279.28 541.449 277.946C541.433 276.646 541.099 275.638 540.449 274.921C539.799 274.188 538.891 273.821 537.724 273.821C536.991 273.821 536.216 273.946 535.399 274.196C534.583 274.43 533.816 274.763 533.099 275.196V266.271H542.249V268.021H534.799V272.821C535.849 272.455 536.874 272.271 537.874 272.271Z" fill="white"/>
<rect y="304" width="464" height="200" fill="#E65100"/>
<path d="M495.499 335.625H492.749L492.324 339.175H494.749V340.725H492.124L491.549 345.25H489.999L490.574 340.725H486.349L485.774 345.25H484.224L484.799 340.725H482.199V339.175H484.999L485.424 335.625H482.949V334.075H485.624L486.249 329.175H487.799L487.174 334.075H491.399L492.024 329.175H493.574L492.949 334.075H495.499V335.625ZM490.774 339.175L491.199 335.625H486.974L486.549 339.175H490.774ZM497.982 346V328.95H507.532V330.525H499.857V336.475H505.857V338H499.857V344.45H507.607V346H497.982ZM515.28 334.4C516.347 334.4 517.313 334.658 518.18 335.175C519.047 335.692 519.73 336.408 520.23 337.325C520.73 338.225 520.98 339.25 520.98 340.4C520.98 341.55 520.73 342.583 520.23 343.5C519.747 344.4 519.072 345.108 518.205 345.625C517.355 346.142 516.397 346.4 515.33 346.4C514.263 346.4 513.288 346.117 512.405 345.55C511.538 344.967 510.855 344.158 510.355 343.125C509.872 342.092 509.63 340.925 509.63 339.625C509.63 337.192 510.038 335.15 510.855 333.5C511.688 331.833 512.813 330.6 514.23 329.8C515.663 328.983 517.28 328.575 519.08 328.575V330.175C517.047 330.175 515.372 330.708 514.055 331.775C512.738 332.842 511.897 334.358 511.53 336.325C511.88 335.708 512.413 335.233 513.13 334.9C513.847 334.567 514.563 334.4 515.28 334.4ZM515.28 344.85C516.03 344.85 516.705 344.658 517.305 344.275C517.922 343.892 518.405 343.367 518.755 342.7C519.105 342.017 519.28 341.25 519.28 340.4C519.28 339.55 519.105 338.792 518.755 338.125C518.405 337.442 517.922 336.908 517.305 336.525C516.705 336.142 516.03 335.95 515.28 335.95C514.063 335.95 513.097 336.35 512.38 337.15C511.68 337.933 511.33 338.925 511.33 340.125C511.33 341.025 511.505 341.842 511.855 342.575C512.205 343.292 512.68 343.85 513.28 344.25C513.88 344.65 514.547 344.85 515.28 344.85ZM529.525 334.95C531.175 334.95 532.458 335.45 533.375 336.45C534.308 337.45 534.775 338.842 534.775 340.625C534.775 342.442 534.283 343.858 533.3 344.875C532.333 345.892 530.975 346.4 529.225 346.4C528.091 346.4 527.041 346.208 526.075 345.825C525.108 345.425 524.333 344.867 523.75 344.15L525.075 343.225C525.491 343.742 526.066 344.142 526.8 344.425C527.55 344.708 528.375 344.85 529.275 344.85C530.475 344.85 531.408 344.483 532.075 343.75C532.758 343 533.1 341.958 533.1 340.625C533.083 339.325 532.75 338.317 532.1 337.6C531.45 336.867 530.541 336.5 529.375 336.5C528.641 336.5 527.866 336.625 527.05 336.875C526.233 337.108 525.466 337.442 524.75 337.875V328.95H533.9V330.7H526.45V335.5C527.5 335.133 528.525 334.95 529.525 334.95ZM541.362 328.95H543.062V346H541.362V331.75L537.312 335.75L536.362 334.8L541.362 328.95ZM552.514 346.4C551.397 346.4 550.372 346.017 549.439 345.25C548.506 344.483 547.772 343.425 547.239 342.075C546.706 340.708 546.439 339.175 546.439 337.475C546.439 335.775 546.706 334.25 547.239 332.9C547.772 331.533 548.497 330.475 549.414 329.725C550.347 328.958 551.372 328.575 552.489 328.575C553.606 328.575 554.622 328.958 555.539 329.725C556.472 330.475 557.206 331.533 557.739 332.9C558.272 334.25 558.539 335.775 558.539 337.475C558.539 339.175 558.272 340.708 557.739 342.075C557.206 343.425 556.481 344.483 555.564 345.25C554.647 346.017 553.631 346.4 552.514 346.4ZM552.489 344.75C553.289 344.75 553.997 344.45 554.614 343.85C555.231 343.233 555.714 342.375 556.064 341.275C556.414 340.158 556.589 338.892 556.589 337.475C556.589 336.058 556.414 334.8 556.064 333.7C555.714 332.6 555.231 331.75 554.614 331.15C553.997 330.533 553.289 330.225 552.489 330.225C551.689 330.225 550.972 330.533 550.339 331.15C549.722 331.75 549.239 332.6 548.889 333.7C548.539 334.8 548.364 336.058 548.364 337.475C548.364 338.892 548.539 340.158 548.889 341.275C549.239 342.375 549.722 343.233 550.339 343.85C550.972 344.45 551.689 344.75 552.489 344.75ZM566.528 346.4C565.411 346.4 564.386 346.017 563.453 345.25C562.519 344.483 561.786 343.425 561.253 342.075C560.719 340.708 560.453 339.175 560.453 337.475C560.453 335.775 560.719 334.25 561.253 332.9C561.786 331.533 562.511 330.475 563.428 329.725C564.361 328.958 565.386 328.575 566.503 328.575C567.619 328.575 568.636 328.958 569.553 329.725C570.486 330.475 571.219 331.533 571.753 332.9C572.286 334.25 572.553 335.775 572.553 337.475C572.553 339.175 572.286 340.708 571.753 342.075C571.219 343.425 570.494 344.483 569.578 345.25C568.661 346.017 567.644 346.4 566.528 346.4ZM566.503 344.75C567.303 344.75 568.011 344.45 568.628 343.85C569.244 343.233 569.728 342.375 570.078 341.275C570.428 340.158 570.603 338.892 570.603 337.475C570.603 336.058 570.428 334.8 570.078 333.7C569.728 332.6 569.244 331.75 568.628 331.15C568.011 330.533 567.303 330.225 566.503 330.225C565.703 330.225 564.986 330.533 564.353 331.15C563.736 331.75 563.253 332.6 562.903 333.7C562.553 334.8 562.378 336.058 562.378 337.475C562.378 338.892 562.553 340.158 562.903 341.275C563.253 342.375 563.736 343.233 564.353 343.85C564.986 344.45 565.703 344.75 566.503 344.75Z" fill="white"/>
<path d="M497.254 393.321L492.929 385.796H489.554V393.321H487.679V376.271H493.379C494.412 376.271 495.321 376.471 496.104 376.871C496.887 377.271 497.487 377.838 497.904 378.571C498.321 379.288 498.529 380.113 498.529 381.046C498.529 382.18 498.187 383.155 497.504 383.971C496.821 384.771 495.912 385.313 494.779 385.596L499.229 393.321H497.254ZM489.554 384.246H493.129C494.229 384.246 495.071 383.955 495.654 383.371C496.254 382.788 496.554 382.013 496.554 381.046C496.554 380.08 496.254 379.305 495.654 378.721C495.071 378.121 494.229 377.821 493.129 377.821H489.554V384.246ZM502.956 384.246C502.589 384.246 502.273 384.113 502.006 383.846C501.739 383.563 501.606 383.238 501.606 382.871C501.606 382.505 501.739 382.188 502.006 381.921C502.273 381.655 502.589 381.521 502.956 381.521C503.339 381.521 503.656 381.655 503.906 381.921C504.173 382.188 504.306 382.505 504.306 382.871C504.306 383.238 504.173 383.563 503.906 383.846C503.656 384.113 503.339 384.246 502.956 384.246ZM502.956 393.521C502.589 393.521 502.273 393.388 502.006 393.121C501.739 392.855 501.606 392.53 501.606 392.146C501.606 391.78 501.739 391.463 502.006 391.196C502.273 390.93 502.589 390.796 502.956 390.796C503.339 390.796 503.656 390.93 503.906 391.196C504.173 391.463 504.306 391.788 504.306 392.171C504.306 392.538 504.173 392.855 503.906 393.121C503.656 393.388 503.339 393.521 502.956 393.521ZM523.632 375.896C524.699 375.896 525.665 376.188 526.532 376.771C527.415 377.338 528.099 378.138 528.582 379.171C529.082 380.205 529.332 381.371 529.332 382.671C529.332 385.105 528.915 387.155 528.082 388.821C527.265 390.471 526.14 391.705 524.707 392.521C523.29 393.321 521.682 393.721 519.882 393.721V392.121C521.915 392.121 523.59 391.588 524.907 390.521C526.224 389.455 527.065 387.938 527.432 385.971C527.082 386.588 526.549 387.063 525.832 387.396C525.115 387.73 524.399 387.896 523.682 387.896C522.615 387.896 521.649 387.638 520.782 387.121C519.915 386.605 519.232 385.896 518.732 384.996C518.232 384.08 517.982 383.046 517.982 381.896C517.982 380.746 518.224 379.721 518.707 378.821C519.207 377.905 519.882 377.188 520.732 376.671C521.599 376.155 522.565 375.896 523.632 375.896ZM523.682 386.346C524.899 386.346 525.857 385.955 526.557 385.171C527.274 384.371 527.632 383.371 527.632 382.171C527.632 381.271 527.457 380.463 527.107 379.746C526.757 379.013 526.282 378.446 525.682 378.046C525.082 377.646 524.415 377.446 523.682 377.446C522.932 377.446 522.249 377.638 521.632 378.021C521.032 378.405 520.557 378.938 520.207 379.621C519.857 380.288 519.682 381.046 519.682 381.896C519.682 382.746 519.857 383.513 520.207 384.196C520.557 384.863 521.032 385.388 521.632 385.771C522.249 386.155 522.932 386.346 523.682 386.346ZM537.646 393.721C536.529 393.721 535.504 393.338 534.571 392.571C533.637 391.805 532.904 390.746 532.371 389.396C531.837 388.03 531.571 386.496 531.571 384.796C531.571 383.096 531.837 381.571 532.371 380.221C532.904 378.855 533.629 377.796 534.546 377.046C535.479 376.28 536.504 375.896 537.621 375.896C538.737 375.896 539.754 376.28 540.671 377.046C541.604 377.796 542.337 378.855 542.871 380.221C543.404 381.571 543.671 383.096 543.671 384.796C543.671 386.496 543.404 388.03 542.871 389.396C542.337 390.746 541.612 391.805 540.696 392.571C539.779 393.338 538.762 393.721 537.646 393.721ZM537.621 392.071C538.421 392.071 539.129 391.771 539.746 391.171C540.362 390.555 540.846 389.696 541.196 388.596C541.546 387.48 541.721 386.213 541.721 384.796C541.721 383.38 541.546 382.121 541.196 381.021C540.846 379.921 540.362 379.071 539.746 378.471C539.129 377.855 538.421 377.546 537.621 377.546C536.821 377.546 536.104 377.855 535.471 378.471C534.854 379.071 534.371 379.921 534.021 381.021C533.671 382.121 533.496 383.38 533.496 384.796C533.496 386.213 533.671 387.48 534.021 388.596C534.371 389.696 534.854 390.555 535.471 391.171C536.104 391.771 536.821 392.071 537.621 392.071ZM493.941 438.721C492.507 438.721 491.266 438.371 490.216 437.671C489.182 436.955 488.382 435.938 487.816 434.621C487.266 433.288 486.991 431.696 486.991 429.846C486.991 427.98 487.266 426.38 487.816 425.046C488.382 423.696 489.182 422.671 490.216 421.971C491.266 421.255 492.507 420.896 493.941 420.896C495.257 420.896 496.391 421.196 497.341 421.796C498.307 422.38 499.132 423.246 499.816 424.396L498.341 425.446C497.291 423.546 495.824 422.596 493.941 422.596C492.374 422.596 491.149 423.238 490.266 424.521C489.399 425.788 488.966 427.555 488.966 429.821C488.966 432.071 489.407 433.838 490.291 435.121C491.174 436.388 492.391 437.021 493.941 437.021C494.807 437.021 495.582 436.813 496.266 436.396C496.966 435.98 497.516 435.363 497.916 434.546C498.316 433.73 498.516 432.73 498.516 431.546H494.491V429.996H500.366V431.546C500.366 433.096 500.091 434.413 499.541 435.496C498.991 436.563 498.224 437.371 497.241 437.921C496.274 438.455 495.174 438.721 493.941 438.721ZM504.177 429.246C503.81 429.246 503.493 429.113 503.227 428.846C502.96 428.563 502.827 428.238 502.827 427.871C502.827 427.505 502.96 427.188 503.227 426.921C503.493 426.655 503.81 426.521 504.177 426.521C504.56 426.521 504.877 426.655 505.127 426.921C505.393 427.188 505.527 427.505 505.527 427.871C505.527 428.238 505.393 428.563 505.127 428.846C504.877 429.113 504.56 429.246 504.177 429.246ZM504.177 438.521C503.81 438.521 503.493 438.388 503.227 438.121C502.96 437.855 502.827 437.53 502.827 437.146C502.827 436.78 502.96 436.463 503.227 436.196C503.493 435.93 503.81 435.796 504.177 435.796C504.56 435.796 504.877 435.93 505.127 436.196C505.393 436.463 505.527 436.788 505.527 437.171C505.527 437.538 505.393 437.855 505.127 438.121C504.877 438.388 504.56 438.521 504.177 438.521ZM521.186 429.246C522.103 429.53 522.845 430.071 523.411 430.871C523.978 431.671 524.261 432.596 524.261 433.646C524.261 434.613 524.02 435.488 523.536 436.271C523.07 437.038 522.42 437.638 521.586 438.071C520.77 438.505 519.87 438.721 518.886 438.721C517.653 438.721 516.595 438.405 515.711 437.771C514.828 437.138 514.17 436.288 513.736 435.221L515.236 434.346C515.636 435.196 516.145 435.871 516.761 436.371C517.395 436.855 518.128 437.096 518.961 437.096C519.945 437.096 520.761 436.771 521.411 436.121C522.078 435.471 522.411 434.646 522.411 433.646C522.411 432.613 522.078 431.763 521.411 431.096C520.745 430.43 519.895 430.096 518.861 430.096H517.661V428.546H518.761C519.678 428.546 520.411 428.255 520.961 427.671C521.511 427.071 521.786 426.305 521.786 425.371C521.786 424.521 521.52 423.83 520.986 423.296C520.47 422.746 519.803 422.471 518.986 422.471C518.12 422.471 517.386 422.713 516.786 423.196C516.186 423.663 515.67 424.338 515.236 425.221L513.861 424.471C514.345 423.371 515.028 422.505 515.911 421.871C516.795 421.221 517.82 420.896 518.986 420.896C519.87 420.896 520.661 421.088 521.361 421.471C522.061 421.855 522.603 422.388 522.986 423.071C523.386 423.738 523.586 424.505 523.586 425.371C523.586 426.271 523.37 427.071 522.936 427.771C522.52 428.455 521.936 428.946 521.186 429.246ZM526.743 437.246C526.743 436.513 526.909 435.838 527.243 435.221C527.593 434.588 528.018 434.03 528.518 433.546C529.018 433.046 529.701 432.438 530.568 431.721C531.101 431.288 531.384 431.055 531.418 431.021C532.501 430.105 533.343 429.205 533.943 428.321C534.543 427.438 534.843 426.421 534.843 425.271C534.843 424.471 534.568 423.83 534.018 423.346C533.484 422.846 532.776 422.596 531.893 422.596C531.076 422.596 530.326 422.805 529.643 423.221C528.976 423.621 528.351 424.213 527.768 424.996L526.393 423.821C527.059 422.905 527.876 422.188 528.843 421.671C529.826 421.155 530.843 420.896 531.893 420.896C533.376 420.896 534.559 421.296 535.443 422.096C536.326 422.88 536.768 423.938 536.768 425.271C536.768 426.671 536.368 427.921 535.568 429.021C534.768 430.121 533.668 431.263 532.268 432.446C531.918 432.746 531.751 432.888 531.768 432.871C530.734 433.721 529.968 434.421 529.468 434.971C528.968 435.521 528.718 436.071 528.718 436.621H536.993V438.321H526.743V437.246ZM495.954 474.146C496.937 474.396 497.696 474.88 498.229 475.596C498.762 476.313 499.029 477.255 499.029 478.421C499.029 479.938 498.571 481.138 497.654 482.021C496.737 482.888 495.479 483.321 493.879 483.321H487.679V466.271H493.304C494.821 466.271 496.012 466.671 496.879 467.471C497.746 468.255 498.179 469.305 498.179 470.621C498.179 471.471 497.987 472.205 497.604 472.821C497.221 473.421 496.671 473.863 495.954 474.146ZM489.554 473.546H493.529C495.312 473.546 496.204 472.571 496.204 470.621C496.204 469.738 495.946 469.055 495.429 468.571C494.912 468.088 494.196 467.846 493.279 467.846H489.554V473.546ZM493.629 481.771C494.696 481.771 495.529 481.471 496.129 480.871C496.746 480.271 497.054 479.455 497.054 478.421C497.054 477.388 496.746 476.58 496.129 475.996C495.529 475.396 494.696 475.096 493.629 475.096H489.554V481.771H493.629ZM502.81 474.246C502.443 474.246 502.126 474.113 501.86 473.846C501.593 473.563 501.46 473.238 501.46 472.871C501.46 472.505 501.593 472.188 501.86 471.921C502.126 471.655 502.443 471.521 502.81 471.521C503.193 471.521 503.51 471.655 503.76 471.921C504.026 472.188 504.16 472.505 504.16 472.871C504.16 473.238 504.026 473.563 503.76 473.846C503.51 474.113 503.193 474.246 502.81 474.246ZM502.81 483.521C502.443 483.521 502.126 483.388 501.86 483.121C501.593 482.855 501.46 482.53 501.46 482.146C501.46 481.78 501.593 481.463 501.86 481.196C502.126 480.93 502.443 480.796 502.81 480.796C503.193 480.796 503.51 480.93 503.76 481.196C504.026 481.463 504.16 481.788 504.16 482.171C504.16 482.538 504.026 482.855 503.76 483.121C503.51 483.388 503.193 483.521 502.81 483.521ZM523.486 483.721C522.369 483.721 521.344 483.338 520.411 482.571C519.477 481.805 518.744 480.746 518.211 479.396C517.677 478.03 517.411 476.496 517.411 474.796C517.411 473.096 517.677 471.571 518.211 470.221C518.744 468.855 519.469 467.796 520.386 467.046C521.319 466.28 522.344 465.896 523.461 465.896C524.577 465.896 525.594 466.28 526.511 467.046C527.444 467.796 528.177 468.855 528.711 470.221C529.244 471.571 529.511 473.096 529.511 474.796C529.511 476.496 529.244 478.03 528.711 479.396C528.177 480.746 527.452 481.805 526.536 482.571C525.619 483.338 524.602 483.721 523.486 483.721ZM523.461 482.071C524.261 482.071 524.969 481.771 525.586 481.171C526.202 480.555 526.686 479.696 527.036 478.596C527.386 477.48 527.561 476.213 527.561 474.796C527.561 473.38 527.386 472.121 527.036 471.021C526.686 469.921 526.202 469.071 525.586 468.471C524.969 467.855 524.261 467.546 523.461 467.546C522.661 467.546 521.944 467.855 521.311 468.471C520.694 469.071 520.211 469.921 519.861 471.021C519.511 472.121 519.336 473.38 519.336 474.796C519.336 476.213 519.511 477.48 519.861 478.596C520.211 479.696 520.694 480.555 521.311 481.171C521.944 481.771 522.661 482.071 523.461 482.071ZM537.499 483.721C536.383 483.721 535.358 483.338 534.424 482.571C533.491 481.805 532.758 480.746 532.224 479.396C531.691 478.03 531.424 476.496 531.424 474.796C531.424 473.096 531.691 471.571 532.224 470.221C532.758 468.855 533.483 467.796 534.399 467.046C535.333 466.28 536.358 465.896 537.474 465.896C538.591 465.896 539.608 466.28 540.524 467.046C541.458 467.796 542.191 468.855 542.724 470.221C543.258 471.571 543.524 473.096 543.524 474.796C543.524 476.496 543.258 478.03 542.724 479.396C542.191 480.746 541.466 481.805 540.549 482.571C539.633 483.338 538.616 483.721 537.499 483.721ZM537.474 482.071C538.274 482.071 538.983 481.771 539.599 481.171C540.216 480.555 540.699 479.696 541.049 478.596C541.399 477.48 541.574 476.213 541.574 474.796C541.574 473.38 541.399 472.121 541.049 471.021C540.699 469.921 540.216 469.071 539.599 468.471C538.983 467.855 538.274 467.546 537.474 467.546C536.674 467.546 535.958 467.855 535.324 468.471C534.708 469.071 534.224 469.921 533.874 471.021C533.524 472.121 533.349 473.38 533.349 474.796C533.349 476.213 533.524 477.48 533.874 478.596C534.224 479.696 534.708 480.555 535.324 481.171C535.958 481.771 536.674 482.071 537.474 482.071Z" fill="white"/>
<path d="M821.989 320.715V516.931H923V439.431L821.989 320.715Z" fill="#E65100"/>
<path d="M848.568 448.883H890.877L869.723 424.021L848.568 399.158V448.883Z" fill="#202020"/>
<rect x="848.566" y="482.33" width="21.968" height="35.62" fill="#202020"/>
<circle cx="816.281" cy="143.572" r="72.572" fill="#2196F3"/>
<path d="M822.086 316.294L750.919 175.146C743.618 160.666 754.143 143.572 770.36 143.572H822.086V316.294Z" fill="#2196F3"/>
<circle cx="816.281" cy="143.572" r="39.1889" fill="#202020"/>
</svg>
