<svg width="1440" height="1920" viewBox="0 0 1440 1920" fill="none" xmlns="http://www.w3.org/2000/svg">
<rect width="1440" height="1920" fill="#202020"/>
<path d="M706.633 537.26V827.409H856V712.809L706.633 537.26Z" fill="#E65100"/>
<path d="M745.936 726.784H808.499L777.218 690.02L745.936 653.255V726.784Z" fill="#202020"/>
<rect x="745.933" y="776.243" width="32.4847" height="52" fill="#202020"/>
<circle cx="698.192" cy="275.314" r="107.314" fill="#2196F3"/>
<path d="M706.777 530.722L601.54 322.003C590.744 300.591 606.307 275.314 630.287 275.314H706.777V530.722Z" fill="#2196F3"/>
<circle cx="698.192" cy="275.314" r="57.9495" fill="#202020"/>
<path d="M308.789 995.405H327.484C337.597 995.405 344.878 996.349 349.326 998.238C353.817 1000.08 357.342 1003.11 359.902 1007.3C362.503 1011.46 363.804 1016.45 363.804 1022.28C363.804 1028.75 362.105 1034.12 358.706 1038.4C355.348 1042.68 350.774 1045.66 344.983 1047.34C341.584 1048.3 335.394 1048.78 326.414 1048.78V1088H308.789V995.405ZM326.414 1031.6H332.016C336.422 1031.6 339.486 1031.28 341.206 1030.66C342.927 1030.03 344.27 1029 345.235 1027.57C346.242 1026.1 346.746 1024.34 346.746 1022.28C346.746 1018.72 345.361 1016.11 342.591 1014.48C340.577 1013.26 336.842 1012.65 331.387 1012.65H326.414V1031.6ZM375.198 1019.51H389.927V1028.14C391.522 1024.74 393.641 1022.16 396.285 1020.39C398.929 1018.63 401.824 1017.75 404.972 1017.75C407.196 1017.75 409.525 1018.34 411.959 1019.51L406.608 1034.31C404.594 1033.3 402.936 1032.8 401.635 1032.8C398.992 1032.8 396.747 1034.43 394.9 1037.71C393.096 1040.98 392.193 1047.4 392.193 1056.97L392.256 1060.3V1088H375.198V1019.51ZM452.685 1017.75C459.148 1017.75 465.212 1019.37 470.877 1022.6C476.584 1025.83 481.033 1030.21 484.222 1035.75C487.411 1041.29 489.006 1047.27 489.006 1053.69C489.006 1060.16 487.39 1066.2 484.159 1071.82C480.97 1077.45 476.605 1081.85 471.066 1085.04C465.527 1088.19 459.421 1089.76 452.748 1089.76C442.929 1089.76 434.536 1086.28 427.57 1079.31C420.645 1072.31 417.183 1063.81 417.183 1053.82C417.183 1043.12 421.107 1034.2 428.954 1027.07C435.837 1020.86 443.747 1017.75 452.685 1017.75ZM452.937 1033.93C447.608 1033.93 443.159 1035.8 439.592 1039.53C436.067 1043.22 434.305 1047.97 434.305 1053.76C434.305 1059.72 436.046 1064.54 439.53 1068.23C443.055 1071.93 447.503 1073.77 452.874 1073.77C458.246 1073.77 462.715 1071.91 466.282 1068.17C469.849 1064.44 471.633 1059.63 471.633 1053.76C471.633 1047.88 469.87 1043.12 466.345 1039.47C462.862 1035.77 458.393 1033.93 452.937 1033.93ZM511.163 991.313C514.227 991.313 516.829 992.404 518.969 994.587C521.151 996.769 522.242 999.413 522.242 1002.52C522.242 1005.58 521.172 1008.2 519.032 1010.39C516.891 1012.57 514.332 1013.66 511.352 1013.66C508.289 1013.66 505.666 1012.55 503.484 1010.32C501.344 1008.1 500.273 1005.41 500.273 1002.27C500.273 999.245 501.323 996.664 503.421 994.524C505.561 992.383 508.142 991.313 511.163 991.313ZM502.602 1019.51H519.787V1090.27C519.787 1096.77 519.137 1101.62 517.836 1104.81C516.577 1108.04 514.562 1110.51 511.793 1112.23C509.023 1113.96 505.687 1114.82 501.784 1114.82C498.343 1114.82 494.063 1113.96 488.943 1112.23V1098.7C491.629 1100 494 1100.65 496.056 1100.65C498.238 1100.65 499.875 1100 500.966 1098.7C502.057 1097.4 502.602 1095.01 502.602 1091.53V1019.51ZM605.206 1058.73H550.002C550.799 1063.6 552.918 1067.48 556.359 1070.37C559.842 1073.23 564.27 1074.66 569.641 1074.66C576.062 1074.66 581.58 1072.41 586.196 1067.92L600.674 1074.72C597.065 1079.84 592.743 1083.64 587.707 1086.11C582.671 1088.55 576.691 1089.76 569.767 1089.76C559.024 1089.76 550.274 1086.38 543.518 1079.63C536.762 1072.83 533.384 1064.33 533.384 1054.13C533.384 1043.69 536.741 1035.02 543.455 1028.14C550.211 1021.21 558.667 1017.75 568.823 1017.75C579.608 1017.75 588.378 1021.21 595.135 1028.14C601.891 1035.02 605.269 1044.13 605.269 1055.46L605.206 1058.73ZM587.959 1045.2C586.826 1041.38 584.58 1038.27 581.223 1035.88C577.908 1033.49 574.047 1032.29 569.641 1032.29C564.857 1032.29 560.661 1033.63 557.052 1036.32C554.786 1038 552.687 1040.96 550.757 1045.2H587.959ZM686.219 1033.36L671.93 1041.23C669.244 1038.42 666.579 1036.47 663.936 1035.38C661.334 1034.29 658.27 1033.74 654.745 1033.74C648.325 1033.74 643.121 1035.67 639.135 1039.53C635.19 1043.35 633.218 1048.26 633.218 1054.26C633.218 1060.09 635.127 1064.86 638.946 1068.55C642.765 1072.24 647.779 1074.09 653.99 1074.09C661.67 1074.09 667.65 1071.47 671.93 1066.22L685.464 1075.47C678.12 1085 667.755 1089.76 654.368 1089.76C642.324 1089.76 632.882 1086.2 626.042 1079.06C619.243 1071.93 615.844 1063.58 615.844 1054.01C615.844 1047.38 617.502 1041.27 620.817 1035.69C624.132 1030.11 628.748 1025.72 634.665 1022.54C640.624 1019.35 647.276 1017.75 654.62 1017.75C661.418 1017.75 667.524 1019.11 672.937 1021.84C678.351 1024.53 682.778 1028.37 686.219 1033.36ZM703.844 994.272H720.966V1019.51H731.163V1034.31H720.966V1088H703.844V1034.31H695.032V1019.51H703.844V994.272Z" fill="#2196F3"/>
<path d="M806.637 995.405H824.514L860.142 1088H841.824L834.585 1068.93H796.817L789.263 1088H770.946L806.637 995.405ZM815.701 1019.95L803.363 1051.74H827.976L815.701 1019.95ZM870.15 993.076H887.335V1088H870.15V993.076ZM920.004 993.076V1027.07C923.11 1023.96 926.467 1021.63 930.076 1020.08C933.685 1018.53 937.545 1017.75 941.658 1017.75C950.597 1017.75 958.192 1021.13 964.445 1027.89C970.698 1034.64 973.824 1043.31 973.824 1053.88C973.824 1064.08 970.593 1072.62 964.13 1079.5C957.668 1086.34 950.009 1089.76 941.154 1089.76C937.21 1089.76 933.538 1089.07 930.139 1087.69C926.74 1086.26 923.361 1083.95 920.004 1080.76V1088H902.946V993.076H920.004ZM938.07 1033.61C932.657 1033.61 928.166 1035.46 924.599 1039.15C921.032 1042.85 919.249 1047.67 919.249 1053.63C919.249 1059.72 921.032 1064.65 924.599 1068.42C928.166 1072.16 932.657 1074.03 938.07 1074.03C943.316 1074.03 947.722 1072.12 951.289 1068.3C954.898 1064.48 956.702 1059.61 956.702 1053.69C956.702 1047.82 954.94 1043.01 951.415 1039.28C947.89 1035.5 943.442 1033.61 938.07 1033.61ZM1056.66 1058.73H1001.46C1002.26 1063.6 1004.37 1067.48 1007.82 1070.37C1011.3 1073.23 1015.73 1074.66 1021.1 1074.66C1027.52 1074.66 1033.04 1072.41 1037.65 1067.92L1052.13 1074.72C1048.52 1079.84 1044.2 1083.64 1039.16 1086.11C1034.13 1088.55 1028.15 1089.76 1021.22 1089.76C1010.48 1089.76 1001.73 1086.38 994.974 1079.63C988.218 1072.83 984.84 1064.33 984.84 1054.13C984.84 1043.69 988.197 1035.02 994.911 1028.14C1001.67 1021.21 1010.12 1017.75 1020.28 1017.75C1031.06 1017.75 1039.83 1021.21 1046.59 1028.14C1053.35 1035.02 1056.73 1044.13 1056.73 1055.46L1056.66 1058.73ZM1039.41 1045.2C1038.28 1041.38 1036.04 1038.27 1032.68 1035.88C1029.36 1033.49 1025.5 1032.29 1021.1 1032.29C1016.31 1032.29 1012.12 1033.63 1008.51 1036.32C1006.24 1038 1004.14 1040.96 1002.21 1045.2H1039.41ZM1066.61 1019.51H1081.34V1028.14C1082.93 1024.74 1085.05 1022.16 1087.7 1020.39C1090.34 1018.63 1093.23 1017.75 1096.38 1017.75C1098.61 1017.75 1100.94 1018.34 1103.37 1019.51L1098.02 1034.31C1096 1033.3 1094.35 1032.8 1093.05 1032.8C1090.4 1032.8 1088.16 1034.43 1086.31 1037.71C1084.51 1040.98 1083.6 1047.4 1083.6 1056.97L1083.67 1060.3V1088H1066.61V1019.51ZM1114.01 994.272H1131.13V1019.51H1141.33V1034.31H1131.13V1088H1114.01V1034.31H1105.19V1019.51H1114.01V994.272Z" fill="#E65100"/>
<path d="M362.649 1260V1231.08H367.191C369.826 1231.08 371.753 1231.25 372.972 1231.59C374.702 1232.05 376.078 1232.9 377.101 1234.14C378.123 1235.39 378.635 1236.86 378.635 1238.55C378.635 1239.65 378.399 1240.65 377.927 1241.56C377.468 1242.45 376.714 1243.29 375.666 1244.07C377.422 1244.9 378.707 1245.93 379.52 1247.18C380.332 1248.41 380.739 1249.87 380.739 1251.56C380.739 1253.19 380.319 1254.67 379.48 1256.01C378.641 1257.35 377.56 1258.35 376.236 1259.02C374.912 1259.67 373.083 1260 370.75 1260H362.649ZM368.154 1236.33V1242.42H369.354C370.691 1242.42 371.68 1242.14 372.323 1241.58C372.978 1241.01 373.306 1240.25 373.306 1239.28C373.306 1238.37 372.998 1237.66 372.382 1237.13C371.766 1236.59 370.828 1236.33 369.57 1236.33H368.154ZM368.154 1247.34V1254.75H369.531C371.812 1254.75 373.345 1254.46 374.132 1253.88C374.931 1253.31 375.331 1252.47 375.331 1251.37C375.331 1250.12 374.866 1249.14 373.935 1248.42C373.004 1247.7 371.458 1247.34 369.295 1247.34H368.154ZM385.771 1238.61H390.372V1241.3C390.87 1240.24 391.532 1239.43 392.358 1238.88C393.184 1238.33 394.088 1238.06 395.071 1238.06C395.766 1238.06 396.494 1238.24 397.254 1238.61L395.583 1243.23C394.953 1242.91 394.436 1242.76 394.029 1242.76C393.203 1242.76 392.502 1243.27 391.925 1244.29C391.362 1245.31 391.08 1247.32 391.08 1250.31L391.099 1251.35V1260H385.771V1238.61ZM417.348 1238.61H422.697V1260H417.348V1257.74C416.299 1258.74 415.244 1259.46 414.182 1259.9C413.134 1260.33 411.993 1260.55 410.761 1260.55C407.995 1260.55 405.603 1259.48 403.584 1257.35C401.565 1255.2 400.556 1252.53 400.556 1249.34C400.556 1246.04 401.532 1243.33 403.486 1241.22C405.439 1239.11 407.812 1238.06 410.604 1238.06C411.888 1238.06 413.094 1238.3 414.222 1238.78C415.349 1239.27 416.391 1240 417.348 1240.97V1238.61ZM411.705 1243.01C410.04 1243.01 408.657 1243.6 407.556 1244.78C406.455 1245.95 405.904 1247.45 405.904 1249.28C405.904 1251.13 406.461 1252.65 407.576 1253.85C408.703 1255.04 410.086 1255.63 411.725 1255.63C413.416 1255.63 414.818 1255.05 415.932 1253.88C417.047 1252.7 417.604 1251.16 417.604 1249.26C417.604 1247.4 417.047 1245.9 415.932 1244.74C414.818 1243.59 413.409 1243.01 411.705 1243.01ZM429.734 1238.61H435.083V1240.79C436.302 1239.77 437.403 1239.06 438.386 1238.67C439.382 1238.26 440.398 1238.06 441.434 1238.06C443.557 1238.06 445.36 1238.8 446.841 1240.28C448.087 1241.54 448.709 1243.4 448.709 1245.86V1260H443.4V1250.62C443.4 1248.06 443.282 1246.37 443.046 1245.53C442.823 1244.69 442.424 1244.05 441.847 1243.62C441.283 1243.17 440.582 1242.95 439.743 1242.95C438.655 1242.95 437.718 1243.32 436.931 1244.05C436.158 1244.77 435.62 1245.78 435.319 1247.06C435.161 1247.73 435.083 1249.18 435.083 1251.41V1260H429.734V1238.61ZM471.34 1230.35H476.688V1260H471.34V1257.74C470.291 1258.74 469.236 1259.46 468.174 1259.9C467.125 1260.33 465.985 1260.55 464.753 1260.55C461.987 1260.55 459.594 1259.48 457.576 1257.35C455.557 1255.2 454.548 1252.53 454.548 1249.34C454.548 1246.04 455.524 1243.33 457.477 1241.22C459.431 1239.11 461.803 1238.06 464.595 1238.06C465.88 1238.06 467.086 1238.3 468.213 1238.78C469.341 1239.27 470.383 1240 471.34 1240.97V1230.35ZM465.697 1243.01C464.032 1243.01 462.649 1243.6 461.548 1244.78C460.446 1245.95 459.896 1247.45 459.896 1249.28C459.896 1251.13 460.453 1252.65 461.567 1253.85C462.695 1255.04 464.078 1255.63 465.716 1255.63C467.407 1255.63 468.81 1255.05 469.924 1253.88C471.038 1252.7 471.595 1251.16 471.595 1249.26C471.595 1247.4 471.038 1245.9 469.924 1244.74C468.81 1243.59 467.401 1243.01 465.697 1243.01ZM485.83 1229.8C486.774 1229.8 487.58 1230.14 488.249 1230.82C488.93 1231.5 489.271 1232.33 489.271 1233.3C489.271 1234.25 488.937 1235.07 488.268 1235.76C487.6 1236.42 486.8 1236.76 485.869 1236.76C484.912 1236.76 484.093 1236.42 483.411 1235.74C482.743 1235.04 482.409 1234.2 482.409 1233.22C482.409 1232.28 482.743 1231.47 483.411 1230.8C484.08 1230.13 484.886 1229.8 485.83 1229.8ZM483.136 1238.61H488.524V1260H483.136V1238.61ZM495.011 1238.61H500.359V1240.79C501.579 1239.77 502.68 1239.06 503.663 1238.67C504.659 1238.26 505.675 1238.06 506.711 1238.06C508.834 1238.06 510.637 1238.8 512.118 1240.28C513.363 1241.54 513.986 1243.4 513.986 1245.86V1260H508.677V1250.62C508.677 1248.06 508.559 1246.37 508.323 1245.53C508.1 1244.69 507.7 1244.05 507.123 1243.62C506.56 1243.17 505.859 1242.95 505.02 1242.95C503.932 1242.95 502.994 1243.32 502.208 1244.05C501.434 1244.77 500.897 1245.78 500.595 1247.06C500.438 1247.73 500.359 1249.18 500.359 1251.41V1260H495.011V1238.61ZM536.617 1238.61H541.965V1256.93C541.965 1260.55 541.237 1263.21 539.782 1264.92C537.829 1267.22 534.886 1268.38 530.954 1268.38C528.856 1268.38 527.093 1268.11 525.664 1267.59C524.235 1267.07 523.029 1266.29 522.046 1265.27C521.063 1264.26 520.336 1263.03 519.864 1261.57H525.782C526.307 1262.18 526.982 1262.63 527.807 1262.93C528.633 1263.24 529.61 1263.4 530.737 1263.4C532.179 1263.4 533.339 1263.18 534.218 1262.73C535.096 1262.29 535.712 1261.71 536.066 1261C536.433 1260.29 536.617 1259.08 536.617 1257.35C535.673 1258.29 534.683 1258.97 533.647 1259.39C532.612 1259.8 531.439 1260 530.128 1260C527.257 1260 524.832 1258.96 522.852 1256.89C520.873 1254.82 519.883 1252.2 519.883 1249.03C519.883 1245.63 520.932 1242.91 523.029 1240.85C524.93 1238.99 527.198 1238.06 529.833 1238.06C531.065 1238.06 532.225 1238.29 533.313 1238.74C534.414 1239.19 535.515 1239.93 536.617 1240.97V1238.61ZM531.052 1243.07C529.361 1243.07 527.965 1243.64 526.864 1244.78C525.763 1245.91 525.212 1247.33 525.212 1249.05C525.212 1250.83 525.776 1252.29 526.903 1253.43C528.03 1254.57 529.446 1255.14 531.15 1255.14C532.815 1255.14 534.185 1254.59 535.26 1253.47C536.348 1252.36 536.892 1250.9 536.892 1249.09C536.892 1247.3 536.348 1245.86 535.26 1244.74C534.172 1243.63 532.769 1243.07 531.052 1243.07ZM600.987 1231.08H606.513V1249.79C606.513 1251.41 606.65 1252.55 606.925 1253.22C607.214 1253.88 607.679 1254.42 608.322 1254.83C608.977 1255.22 609.763 1255.42 610.681 1255.42C611.651 1255.42 612.484 1255.2 613.178 1254.75C613.886 1254.3 614.371 1253.74 614.633 1253.06C614.909 1252.36 615.046 1251.05 615.046 1249.11V1231.08H620.572V1248.32C620.572 1251.23 620.408 1253.25 620.08 1254.38C619.752 1255.5 619.123 1256.59 618.192 1257.64C617.275 1258.69 616.213 1259.47 615.007 1259.98C613.801 1260.48 612.398 1260.73 610.799 1260.73C608.702 1260.73 606.873 1260.25 605.313 1259.29C603.766 1258.32 602.659 1257.12 601.99 1255.67C601.321 1254.22 600.987 1251.77 600.987 1248.32V1231.08ZM628.199 1231.08H633.666V1260H628.199V1231.08ZM639.052 1265.15L652.049 1230.25H655.864L642.847 1265.15H639.052ZM661.427 1231.08H666.952V1249.79C666.952 1251.41 667.09 1252.55 667.365 1253.22C667.653 1253.88 668.119 1254.42 668.761 1254.83C669.417 1255.22 670.203 1255.42 671.121 1255.42C672.091 1255.42 672.923 1255.2 673.618 1254.75C674.326 1254.3 674.811 1253.74 675.073 1253.06C675.348 1252.36 675.486 1251.05 675.486 1249.11V1231.08H681.011V1248.32C681.011 1251.23 680.847 1253.25 680.52 1254.38C680.192 1255.5 679.563 1256.59 678.632 1257.64C677.714 1258.69 676.653 1259.47 675.447 1259.98C674.241 1260.48 672.838 1260.73 671.239 1260.73C669.141 1260.73 667.313 1260.25 665.753 1259.29C664.206 1258.32 663.098 1257.12 662.43 1255.67C661.761 1254.22 661.427 1251.77 661.427 1248.32V1231.08ZM687.145 1231.08H693.338L699.395 1240.34L705.51 1231.08H711.704L702.501 1245.08L712.274 1260H706.08L699.395 1249.83L692.768 1260H686.535L696.308 1245.08L687.145 1231.08ZM769.625 1231.08H775.465C778.624 1231.08 780.898 1231.37 782.288 1231.96C783.691 1232.54 784.792 1233.48 785.591 1234.79C786.404 1236.09 786.81 1237.65 786.81 1239.47C786.81 1241.49 786.28 1243.17 785.218 1244.51C784.169 1245.84 782.74 1246.77 780.931 1247.3C779.869 1247.6 777.936 1247.75 775.131 1247.75V1260H769.625V1231.08ZM775.131 1242.38H776.881C778.257 1242.38 779.214 1242.28 779.751 1242.09C780.289 1241.89 780.708 1241.57 781.01 1241.12C781.324 1240.66 781.482 1240.11 781.482 1239.47C781.482 1238.36 781.049 1237.54 780.184 1237.03C779.555 1236.65 778.388 1236.46 776.684 1236.46H775.131V1242.38ZM791.98 1238.61H796.581V1241.3C797.08 1240.24 797.742 1239.43 798.567 1238.88C799.393 1238.33 800.298 1238.06 801.281 1238.06C801.976 1238.06 802.703 1238.24 803.464 1238.61L801.792 1243.23C801.163 1242.91 800.645 1242.76 800.239 1242.76C799.413 1242.76 798.712 1243.27 798.135 1244.29C797.571 1245.31 797.289 1247.32 797.289 1250.31L797.309 1251.35V1260H791.98V1238.61ZM817.796 1238.06C819.815 1238.06 821.709 1238.56 823.479 1239.57C825.262 1240.58 826.651 1241.95 827.648 1243.68C828.644 1245.41 829.142 1247.28 829.142 1249.28C829.142 1251.3 828.637 1253.19 827.628 1254.95C826.632 1256.7 825.268 1258.08 823.538 1259.08C821.808 1260.06 819.9 1260.55 817.816 1260.55C814.749 1260.55 812.127 1259.46 809.951 1257.29C807.788 1255.1 806.706 1252.44 806.706 1249.32C806.706 1245.98 807.932 1243.19 810.383 1240.97C812.533 1239.03 815.004 1238.06 817.796 1238.06ZM817.875 1243.11C816.21 1243.11 814.821 1243.69 813.706 1244.86C812.605 1246.01 812.055 1247.49 812.055 1249.3C812.055 1251.16 812.599 1252.67 813.687 1253.83C814.788 1254.98 816.177 1255.56 817.855 1255.56C819.533 1255.56 820.929 1254.97 822.044 1253.81C823.158 1252.64 823.715 1251.14 823.715 1249.3C823.715 1247.47 823.164 1245.98 822.063 1244.84C820.975 1243.69 819.579 1243.11 817.875 1243.11ZM850.966 1230.35H856.315V1260H850.966V1257.74C849.918 1258.74 848.862 1259.46 847.801 1259.9C846.752 1260.33 845.611 1260.55 844.379 1260.55C841.613 1260.55 839.221 1259.48 837.202 1257.35C835.183 1255.2 834.174 1252.53 834.174 1249.34C834.174 1246.04 835.151 1243.33 837.104 1241.22C839.057 1239.11 841.43 1238.06 844.222 1238.06C845.507 1238.06 846.713 1238.3 847.84 1238.78C848.967 1239.27 850.009 1240 850.966 1240.97V1230.35ZM845.323 1243.01C843.658 1243.01 842.275 1243.6 841.174 1244.78C840.073 1245.95 839.522 1247.45 839.522 1249.28C839.522 1251.13 840.08 1252.65 841.194 1253.85C842.321 1255.04 843.704 1255.63 845.343 1255.63C847.034 1255.63 848.436 1255.05 849.551 1253.88C850.665 1252.7 851.222 1251.16 851.222 1249.26C851.222 1247.4 850.665 1245.9 849.551 1244.74C848.436 1243.59 847.027 1243.01 845.323 1243.01ZM863.333 1238.61H868.76V1248.91C868.76 1250.92 868.898 1252.31 869.173 1253.1C869.448 1253.87 869.887 1254.47 870.49 1254.91C871.106 1255.34 871.86 1255.56 872.751 1255.56C873.643 1255.56 874.397 1255.35 875.013 1254.93C875.642 1254.49 876.107 1253.87 876.409 1253.04C876.632 1252.42 876.743 1251.11 876.743 1249.09V1238.61H882.131V1247.67C882.131 1251.41 881.836 1253.96 881.246 1255.34C880.525 1257.02 879.463 1258.31 878.061 1259.21C876.658 1260.1 874.875 1260.55 872.712 1260.55C870.366 1260.55 868.465 1260.03 867.01 1258.98C865.568 1257.93 864.552 1256.47 863.962 1254.59C863.543 1253.29 863.333 1250.94 863.333 1247.51V1238.61ZM910.09 1242.93L905.627 1245.39C904.788 1244.51 903.955 1243.9 903.129 1243.56C902.317 1243.22 901.36 1243.05 900.259 1243.05C898.253 1243.05 896.627 1243.65 895.382 1244.86C894.15 1246.05 893.534 1247.59 893.534 1249.46C893.534 1251.28 894.13 1252.77 895.323 1253.92C896.516 1255.08 898.083 1255.65 900.023 1255.65C902.422 1255.65 904.29 1254.84 905.627 1253.2L909.854 1256.09C907.56 1259.06 904.322 1260.55 900.141 1260.55C896.378 1260.55 893.429 1259.44 891.292 1257.21C889.169 1254.98 888.107 1252.37 888.107 1249.38C888.107 1247.31 888.625 1245.4 889.66 1243.66C890.696 1241.92 892.138 1240.55 893.986 1239.55C895.847 1238.55 897.925 1238.06 900.219 1238.06C902.343 1238.06 904.25 1238.48 905.941 1239.33C907.632 1240.17 909.015 1241.37 910.09 1242.93ZM917.207 1230.72H922.555V1238.61H925.74V1243.23H922.555V1260H917.207V1243.23H914.454V1238.61H917.207V1230.72ZM943.749 1231.08H950.277C954.485 1231.08 957.611 1231.6 959.656 1232.65C961.701 1233.68 963.385 1235.38 964.709 1237.72C966.033 1240.07 966.695 1242.81 966.695 1245.94C966.695 1248.17 966.322 1250.22 965.575 1252.1C964.841 1253.96 963.818 1255.5 962.507 1256.74C961.209 1257.97 959.8 1258.82 958.28 1259.29C956.759 1259.76 954.124 1260 950.375 1260H943.749V1231.08ZM949.235 1236.38V1254.61H951.791C954.308 1254.61 956.13 1254.32 957.257 1253.75C958.398 1253.17 959.328 1252.2 960.049 1250.84C960.77 1249.47 961.131 1247.8 961.131 1245.8C961.131 1242.74 960.272 1240.36 958.555 1238.67C957.008 1237.14 954.524 1236.38 951.103 1236.38H949.235ZM994.38 1250.86H977.135C977.384 1252.38 978.046 1253.59 979.121 1254.49C980.209 1255.39 981.592 1255.83 983.27 1255.83C985.276 1255.83 986.999 1255.13 988.441 1253.73L992.964 1255.85C991.836 1257.45 990.486 1258.64 988.913 1259.41C987.34 1260.17 985.472 1260.55 983.309 1260.55C979.953 1260.55 977.22 1259.5 975.11 1257.38C972.999 1255.26 971.944 1252.61 971.944 1249.42C971.944 1246.16 972.993 1243.45 975.09 1241.3C977.201 1239.14 979.842 1238.06 983.014 1238.06C986.383 1238.06 989.123 1239.14 991.233 1241.3C993.344 1243.45 994.399 1246.29 994.399 1249.83L994.38 1250.86ZM988.992 1246.63C988.638 1245.44 987.937 1244.47 986.888 1243.72C985.852 1242.97 984.646 1242.6 983.27 1242.6C981.776 1242.6 980.465 1243.02 979.337 1243.86C978.629 1244.38 977.974 1245.31 977.371 1246.63H988.992ZM1013.45 1241.6L1010.13 1244.92C1008.78 1243.58 1007.55 1242.91 1006.45 1242.91C1005.85 1242.91 1005.38 1243.04 1005.04 1243.31C1004.69 1243.56 1004.52 1243.87 1004.52 1244.25C1004.52 1244.54 1004.63 1244.81 1004.84 1245.06C1005.06 1245.29 1005.6 1245.62 1006.45 1246.04L1008.42 1247.02C1010.49 1248.04 1011.91 1249.09 1012.68 1250.15C1013.46 1251.21 1013.84 1252.46 1013.84 1253.88C1013.84 1255.79 1013.14 1257.37 1011.74 1258.64C1010.35 1259.91 1008.48 1260.55 1006.14 1260.55C1003.02 1260.55 1000.53 1259.33 998.664 1256.89L1001.97 1253.29C1002.6 1254.03 1003.33 1254.63 1004.17 1255.08C1005.02 1255.53 1005.78 1255.75 1006.43 1255.75C1007.14 1255.75 1007.71 1255.58 1008.14 1255.24C1008.57 1254.9 1008.79 1254.51 1008.79 1254.06C1008.79 1253.24 1008.01 1252.43 1006.45 1251.64L1004.64 1250.74C1001.18 1249 999.451 1246.81 999.451 1244.19C999.451 1242.5 1000.1 1241.06 1001.4 1239.86C1002.71 1238.66 1004.38 1238.06 1006.41 1238.06C1007.8 1238.06 1009.11 1238.36 1010.32 1238.98C1011.56 1239.58 1012.6 1240.45 1013.45 1241.6ZM1021.81 1229.8C1022.75 1229.8 1023.56 1230.14 1024.22 1230.82C1024.91 1231.5 1025.25 1232.33 1025.25 1233.3C1025.25 1234.25 1024.91 1235.07 1024.24 1235.76C1023.58 1236.42 1022.78 1236.76 1021.85 1236.76C1020.89 1236.76 1020.07 1236.42 1019.39 1235.74C1018.72 1235.04 1018.38 1234.2 1018.38 1233.22C1018.38 1232.28 1018.72 1231.47 1019.39 1230.8C1020.06 1230.13 1020.86 1229.8 1021.81 1229.8ZM1019.11 1238.61H1024.5V1260H1019.11V1238.61ZM1046.8 1238.61H1052.14V1256.93C1052.14 1260.55 1051.42 1263.21 1049.96 1264.92C1048.01 1267.22 1045.07 1268.38 1041.13 1268.38C1039.04 1268.38 1037.27 1268.11 1035.84 1267.59C1034.42 1267.07 1033.21 1266.29 1032.23 1265.27C1031.24 1264.26 1030.52 1263.03 1030.04 1261.57H1035.96C1036.49 1262.18 1037.16 1262.63 1037.99 1262.93C1038.81 1263.24 1039.79 1263.4 1040.92 1263.4C1042.36 1263.4 1043.52 1263.18 1044.4 1262.73C1045.28 1262.29 1045.89 1261.71 1046.25 1261C1046.61 1260.29 1046.8 1259.08 1046.8 1257.35C1045.85 1258.29 1044.86 1258.97 1043.83 1259.39C1042.79 1259.8 1041.62 1260 1040.31 1260C1037.44 1260 1035.01 1258.96 1033.03 1256.89C1031.05 1254.82 1030.06 1252.2 1030.06 1249.03C1030.06 1245.63 1031.11 1242.91 1033.21 1240.85C1035.11 1238.99 1037.38 1238.06 1040.01 1238.06C1041.25 1238.06 1042.41 1238.29 1043.49 1238.74C1044.59 1239.19 1045.7 1239.93 1046.8 1240.97V1238.61ZM1041.23 1243.07C1039.54 1243.07 1038.14 1243.64 1037.04 1244.78C1035.94 1245.91 1035.39 1247.33 1035.39 1249.05C1035.39 1250.83 1035.96 1252.29 1037.08 1253.43C1038.21 1254.57 1039.63 1255.14 1041.33 1255.14C1043 1255.14 1044.36 1254.59 1045.44 1253.47C1046.53 1252.36 1047.07 1250.9 1047.07 1249.09C1047.07 1247.3 1046.53 1245.86 1045.44 1244.74C1044.35 1243.63 1042.95 1243.07 1041.23 1243.07ZM1059.18 1238.61H1064.53V1240.79C1065.75 1239.77 1066.85 1239.06 1067.83 1238.67C1068.83 1238.26 1069.85 1238.06 1070.88 1238.06C1073.01 1238.06 1074.81 1238.8 1076.29 1240.28C1077.53 1241.54 1078.16 1243.4 1078.16 1245.86V1260H1072.85V1250.62C1072.85 1248.06 1072.73 1246.37 1072.49 1245.53C1072.27 1244.69 1071.87 1244.05 1071.3 1243.62C1070.73 1243.17 1070.03 1242.95 1069.19 1242.95C1068.1 1242.95 1067.17 1243.32 1066.38 1244.05C1065.61 1244.77 1065.07 1245.78 1064.77 1247.06C1064.61 1247.73 1064.53 1249.18 1064.53 1251.41V1260H1059.18V1238.61Z" fill="white"/>
<path d="M569.726 1230.35H572.833V1267.83H569.726V1230.35Z" fill="#E65100"/>
<path d="M738.187 1230.35H741.294V1267.83H738.187V1230.35Z" fill="#2196F3"/>
<path d="M303.33 1175L308.28 1140.16H308.848L323.009 1168.75L337.029 1140.16H337.597L342.594 1175H339.16L335.75 1150.09L323.436 1175H322.56L310.079 1149.9L306.693 1175H303.33ZM352.041 1138.62C352.799 1138.62 353.446 1138.89 353.983 1139.43C354.52 1139.97 354.788 1140.61 354.788 1141.37C354.788 1142.11 354.52 1142.75 353.983 1143.29C353.446 1143.83 352.799 1144.1 352.041 1144.1C351.299 1144.1 350.66 1143.83 350.123 1143.29C349.586 1142.75 349.318 1142.11 349.318 1141.37C349.318 1140.61 349.586 1139.97 350.123 1139.43C350.66 1138.89 351.299 1138.62 352.041 1138.62ZM350.384 1149.23H353.723V1175H350.384V1149.23ZM365.42 1139.67H368.759V1149.23H374.016V1152.08H368.759V1175H365.42V1152.08H360.896V1149.23H365.42V1139.67ZM382.066 1138.62C382.824 1138.62 383.471 1138.89 384.008 1139.43C384.544 1139.97 384.813 1140.61 384.813 1141.37C384.813 1142.11 384.544 1142.75 384.008 1143.29C383.471 1143.83 382.824 1144.1 382.066 1144.1C381.324 1144.1 380.684 1143.83 380.148 1143.29C379.611 1142.75 379.342 1142.11 379.342 1141.37C379.342 1140.61 379.611 1139.97 380.148 1139.43C380.684 1138.89 381.324 1138.62 382.066 1138.62ZM380.408 1149.23H383.747V1175H380.408V1149.23ZM414.745 1149.23H418.084V1169.77C418.084 1173.38 417.768 1176.03 417.136 1177.7C416.268 1180.07 414.76 1181.89 412.613 1183.17C410.466 1184.45 407.885 1185.09 404.869 1185.09C402.659 1185.09 400.67 1184.77 398.902 1184.14C397.149 1183.53 395.72 1182.69 394.615 1181.63C393.51 1180.59 392.492 1179.06 391.56 1177.04H395.16C396.139 1178.74 397.402 1180 398.949 1180.83C400.496 1181.65 402.414 1182.06 404.704 1182.06C406.961 1182.06 408.864 1181.63 410.411 1180.78C411.974 1179.94 413.087 1178.88 413.75 1177.6C414.413 1176.33 414.745 1174.27 414.745 1171.42V1170.1C413.497 1171.68 411.974 1172.89 410.174 1173.74C408.374 1174.58 406.464 1175 404.443 1175C402.075 1175 399.849 1174.42 397.765 1173.25C395.681 1172.06 394.071 1170.48 392.934 1168.49C391.797 1166.5 391.229 1164.31 391.229 1161.93C391.229 1159.54 391.821 1157.33 393.005 1155.27C394.189 1153.2 395.823 1151.57 397.907 1150.37C400.007 1149.17 402.217 1148.57 404.538 1148.57C406.464 1148.57 408.256 1148.97 409.914 1149.78C411.587 1150.57 413.197 1151.88 414.745 1153.71V1149.23ZM404.964 1151.77C403.085 1151.77 401.341 1152.23 399.73 1153.14C398.12 1154.04 396.857 1155.3 395.941 1156.91C395.026 1158.5 394.568 1160.23 394.568 1162.09C394.568 1164.92 395.515 1167.26 397.41 1169.1C399.304 1170.95 401.759 1171.87 404.775 1171.87C407.822 1171.87 410.269 1170.96 412.116 1169.13C413.979 1167.3 414.91 1164.89 414.91 1161.9C414.91 1159.96 414.484 1158.23 413.632 1156.72C412.779 1155.19 411.571 1153.98 410.008 1153.09C408.445 1152.21 406.764 1151.77 404.964 1151.77ZM452.799 1149.23V1175H449.531V1170.57C448.142 1172.26 446.579 1173.53 444.842 1174.38C443.121 1175.24 441.235 1175.66 439.182 1175.66C435.535 1175.66 432.417 1174.34 429.828 1171.71C427.254 1169.06 425.968 1165.84 425.968 1162.05C425.968 1158.34 427.27 1155.16 429.875 1152.53C432.48 1149.89 435.614 1148.57 439.277 1148.57C441.392 1148.57 443.303 1149.02 445.008 1149.92C446.729 1150.82 448.236 1152.17 449.531 1153.97V1149.23H452.799ZM439.537 1151.77C437.69 1151.77 435.985 1152.23 434.422 1153.14C432.859 1154.04 431.612 1155.31 430.68 1156.95C429.765 1158.6 429.307 1160.33 429.307 1162.16C429.307 1163.98 429.773 1165.72 430.704 1167.37C431.636 1169.03 432.883 1170.33 434.446 1171.26C436.025 1172.17 437.714 1172.63 439.514 1172.63C441.329 1172.63 443.05 1172.17 444.676 1171.26C446.302 1170.34 447.55 1169.1 448.418 1167.54C449.302 1165.98 449.744 1164.22 449.744 1162.26C449.744 1159.28 448.757 1156.78 446.784 1154.78C444.826 1152.77 442.411 1151.77 439.537 1151.77ZM465.112 1139.67H468.451V1149.23H473.708V1152.08H468.451V1175H465.112V1152.08H460.588V1149.23H465.112V1139.67ZM481.758 1138.62C482.516 1138.62 483.163 1138.89 483.7 1139.43C484.237 1139.97 484.505 1140.61 484.505 1141.37C484.505 1142.11 484.237 1142.75 483.7 1143.29C483.163 1143.83 482.516 1144.1 481.758 1144.1C481.016 1144.1 480.377 1143.83 479.84 1143.29C479.303 1142.75 479.035 1142.11 479.035 1141.37C479.035 1140.61 479.303 1139.97 479.84 1139.43C480.377 1138.89 481.016 1138.62 481.758 1138.62ZM480.1 1149.23H483.439V1175H480.1V1149.23ZM492.247 1149.23H495.562V1153.85C496.889 1152.08 498.357 1150.77 499.967 1149.9C501.578 1149.01 503.33 1148.57 505.225 1148.57C507.151 1148.57 508.856 1149.06 510.34 1150.04C511.84 1151.02 512.945 1152.34 513.655 1153.99C514.366 1155.65 514.721 1158.23 514.721 1161.74V1175H511.429V1162.71C511.429 1159.74 511.303 1157.76 511.05 1156.77C510.656 1155.06 509.914 1153.78 508.824 1152.93C507.735 1152.06 506.314 1151.63 504.561 1151.63C502.556 1151.63 500.757 1152.29 499.162 1153.62C497.583 1154.94 496.541 1156.58 496.036 1158.54C495.72 1159.82 495.562 1162.16 495.562 1165.55V1175H492.247V1149.23ZM545.979 1149.23H549.318V1169.77C549.318 1173.38 549.002 1176.03 548.371 1177.7C547.502 1180.07 545.995 1181.89 543.847 1183.17C541.7 1184.45 539.119 1185.09 536.104 1185.09C533.893 1185.09 531.904 1184.77 530.136 1184.14C528.383 1183.53 526.955 1182.69 525.849 1181.63C524.744 1180.59 523.726 1179.06 522.794 1177.04H526.394C527.373 1178.74 528.636 1180 530.183 1180.83C531.73 1181.65 533.649 1182.06 535.938 1182.06C538.195 1182.06 540.098 1181.63 541.645 1180.78C543.208 1179.94 544.321 1178.88 544.984 1177.6C545.647 1176.33 545.979 1174.27 545.979 1171.42V1170.1C544.732 1171.68 543.208 1172.89 541.408 1173.74C539.608 1174.58 537.698 1175 535.677 1175C533.309 1175 531.083 1174.42 528.999 1173.25C526.915 1172.06 525.305 1170.48 524.168 1168.49C523.031 1166.5 522.463 1164.31 522.463 1161.93C522.463 1159.54 523.055 1157.33 524.239 1155.27C525.423 1153.2 527.057 1151.57 529.141 1150.37C531.241 1149.17 533.451 1148.57 535.772 1148.57C537.698 1148.57 539.49 1148.97 541.148 1149.78C542.821 1150.57 544.432 1151.88 545.979 1153.71V1149.23ZM536.198 1151.77C534.32 1151.77 532.575 1152.23 530.965 1153.14C529.354 1154.04 528.091 1155.3 527.176 1156.91C526.26 1158.5 525.802 1160.23 525.802 1162.09C525.802 1164.92 526.749 1167.26 528.644 1169.1C530.538 1170.95 532.993 1171.87 536.009 1171.87C539.056 1171.87 541.503 1170.96 543.35 1169.13C545.213 1167.3 546.145 1164.89 546.145 1161.9C546.145 1159.96 545.718 1158.23 544.866 1156.72C544.013 1155.19 542.805 1153.98 541.242 1153.09C539.679 1152.21 537.998 1151.77 536.198 1151.77ZM576.643 1139.67H579.982V1149.23H585.239V1152.08H579.982V1175H576.643V1152.08H572.12V1149.23H576.643V1139.67ZM592.129 1139.29H595.444V1153.85C596.786 1152.08 598.262 1150.77 599.872 1149.9C601.483 1149.01 603.227 1148.57 605.106 1148.57C607.032 1148.57 608.737 1149.06 610.221 1150.04C611.721 1151.02 612.826 1152.34 613.537 1153.99C614.247 1155.64 614.602 1158.22 614.602 1161.74V1175H611.287V1162.71C611.287 1159.74 611.169 1157.76 610.932 1156.77C610.521 1155.06 609.771 1153.78 608.682 1152.93C607.609 1152.06 606.195 1151.63 604.443 1151.63C602.438 1151.63 600.638 1152.29 599.044 1153.62C597.465 1154.94 596.423 1156.58 595.918 1158.54C595.602 1159.8 595.444 1162.14 595.444 1165.55V1175H592.129V1139.29ZM645.363 1166.45L648.157 1167.92C647.242 1169.72 646.184 1171.17 644.984 1172.28C643.784 1173.38 642.434 1174.23 640.935 1174.81C639.435 1175.38 637.738 1175.66 635.843 1175.66C631.643 1175.66 628.36 1174.29 625.991 1171.54C623.623 1168.78 622.439 1165.66 622.439 1162.19C622.439 1158.92 623.442 1156.01 625.447 1153.45C627.989 1150.2 631.391 1148.57 635.654 1148.57C640.043 1148.57 643.547 1150.24 646.168 1153.57C648.031 1155.92 648.978 1158.86 649.01 1162.38H625.849C625.913 1165.38 626.868 1167.84 628.715 1169.77C630.562 1171.68 632.843 1172.63 635.559 1172.63C636.869 1172.63 638.14 1172.4 639.372 1171.95C640.619 1171.49 641.677 1170.88 642.545 1170.12C643.413 1169.36 644.353 1168.14 645.363 1166.45ZM645.363 1159.51C644.921 1157.74 644.274 1156.33 643.421 1155.27C642.584 1154.22 641.471 1153.36 640.082 1152.72C638.693 1152.07 637.232 1151.74 635.701 1151.74C633.175 1151.74 631.004 1152.56 629.188 1154.18C627.862 1155.37 626.86 1157.14 626.181 1159.51H645.363ZM685.5 1152.05L683.368 1154.25C681.6 1152.53 679.871 1151.67 678.182 1151.67C677.108 1151.67 676.185 1152.03 675.411 1152.74C674.653 1153.45 674.275 1154.28 674.275 1155.23C674.275 1156.06 674.59 1156.86 675.222 1157.62C675.853 1158.39 677.179 1159.3 679.2 1160.34C681.663 1161.62 683.337 1162.85 684.221 1164.04C685.089 1165.24 685.523 1166.59 685.523 1168.08C685.523 1170.2 684.781 1171.99 683.297 1173.46C681.813 1174.93 679.958 1175.66 677.732 1175.66C676.248 1175.66 674.827 1175.34 673.469 1174.69C672.127 1174.04 671.014 1173.15 670.13 1172.02L672.214 1169.65C673.904 1171.56 675.695 1172.51 677.59 1172.51C678.916 1172.51 680.045 1172.09 680.976 1171.23C681.908 1170.38 682.374 1169.38 682.374 1168.23C682.374 1167.28 682.066 1166.44 681.45 1165.69C680.834 1164.97 679.445 1164.05 677.282 1162.95C674.961 1161.75 673.383 1160.56 672.546 1159.39C671.709 1158.23 671.291 1156.89 671.291 1155.39C671.291 1153.43 671.954 1151.81 673.28 1150.51C674.622 1149.22 676.311 1148.57 678.348 1148.57C680.716 1148.57 683.1 1149.73 685.5 1152.05ZM696.226 1139.67H699.565V1149.23H704.822V1152.08H699.565V1175H696.226V1152.08H691.702V1149.23H696.226V1139.67ZM710.456 1149.23H713.843V1153C714.853 1151.52 715.919 1150.41 717.04 1149.68C718.161 1148.94 719.329 1148.57 720.545 1148.57C721.46 1148.57 722.439 1148.86 723.481 1149.45L721.752 1152.24C721.058 1151.94 720.474 1151.79 720 1151.79C718.895 1151.79 717.829 1152.25 716.803 1153.17C715.777 1154.07 714.995 1155.47 714.458 1157.38C714.048 1158.85 713.843 1161.82 713.843 1166.29V1175H710.456V1149.23ZM749.932 1166.45L752.726 1167.92C751.81 1169.72 750.753 1171.17 749.553 1172.28C748.353 1173.38 747.003 1174.23 745.503 1174.81C744.003 1175.38 742.306 1175.66 740.412 1175.66C736.212 1175.66 732.928 1174.29 730.56 1171.54C728.192 1168.78 727.008 1165.66 727.008 1162.19C727.008 1158.92 728.01 1156.01 730.015 1153.45C732.557 1150.2 735.96 1148.57 740.222 1148.57C744.611 1148.57 748.116 1150.24 750.737 1153.57C752.6 1155.92 753.547 1158.86 753.579 1162.38H730.418C730.481 1165.38 731.436 1167.84 733.284 1169.77C735.131 1171.68 737.412 1172.63 740.128 1172.63C741.438 1172.63 742.709 1172.4 743.94 1171.95C745.187 1171.49 746.245 1170.88 747.114 1170.12C747.982 1169.36 748.921 1168.14 749.932 1166.45ZM749.932 1159.51C749.49 1157.74 748.842 1156.33 747.99 1155.27C747.153 1154.22 746.04 1153.36 744.651 1152.72C743.261 1152.07 741.801 1151.74 740.27 1151.74C737.744 1151.74 735.573 1152.56 733.757 1154.18C732.431 1155.37 731.428 1157.14 730.75 1159.51H749.932ZM774.677 1152.05L772.546 1154.25C770.778 1152.53 769.049 1151.67 767.359 1151.67C766.286 1151.67 765.362 1152.03 764.589 1152.74C763.831 1153.45 763.452 1154.28 763.452 1155.23C763.452 1156.06 763.768 1156.86 764.399 1157.62C765.031 1158.39 766.357 1159.3 768.378 1160.34C770.841 1161.62 772.514 1162.85 773.398 1164.04C774.267 1165.24 774.701 1166.59 774.701 1168.08C774.701 1170.2 773.959 1171.99 772.475 1173.46C770.991 1174.93 769.136 1175.66 766.91 1175.66C765.425 1175.66 764.005 1175.34 762.647 1174.69C761.305 1174.04 760.192 1173.15 759.308 1172.02L761.392 1169.65C763.081 1171.56 764.873 1172.51 766.767 1172.51C768.094 1172.51 769.222 1172.09 770.154 1171.23C771.085 1170.38 771.551 1169.38 771.551 1168.23C771.551 1167.28 771.243 1166.44 770.628 1165.69C770.012 1164.97 768.623 1164.05 766.46 1162.95C764.139 1161.75 762.56 1160.56 761.723 1159.39C760.887 1158.23 760.468 1156.89 760.468 1155.39C760.468 1153.43 761.131 1151.81 762.457 1150.51C763.799 1149.22 765.489 1148.57 767.525 1148.57C769.893 1148.57 772.277 1149.73 774.677 1152.05ZM795.468 1152.05L793.336 1154.25C791.568 1152.53 789.839 1151.67 788.15 1151.67C787.076 1151.67 786.153 1152.03 785.379 1152.74C784.621 1153.45 784.243 1154.28 784.243 1155.23C784.243 1156.06 784.558 1156.86 785.19 1157.62C785.821 1158.39 787.148 1159.3 789.168 1160.34C791.631 1161.62 793.305 1162.85 794.189 1164.04C795.057 1165.24 795.491 1166.59 795.491 1168.08C795.491 1170.2 794.749 1171.99 793.265 1173.46C791.781 1174.93 789.926 1175.66 787.7 1175.66C786.216 1175.66 784.795 1175.34 783.437 1174.69C782.095 1174.04 780.982 1173.15 780.098 1172.02L782.182 1169.65C783.872 1171.56 785.663 1172.51 787.558 1172.51C788.884 1172.51 790.013 1172.09 790.944 1171.23C791.876 1170.38 792.342 1169.38 792.342 1168.23C792.342 1167.28 792.034 1166.44 791.418 1165.69C790.802 1164.97 789.413 1164.05 787.25 1162.95C784.929 1161.75 783.351 1160.56 782.514 1159.39C781.677 1158.23 781.259 1156.89 781.259 1155.39C781.259 1153.43 781.922 1151.81 783.248 1150.51C784.59 1149.22 786.279 1148.57 788.316 1148.57C790.684 1148.57 793.068 1149.73 795.468 1152.05ZM830.892 1148.57C834.854 1148.57 838.138 1150.01 840.743 1152.88C843.111 1155.5 844.295 1158.6 844.295 1162.19C844.295 1165.79 843.04 1168.94 840.53 1171.64C838.036 1174.32 834.823 1175.66 830.892 1175.66C826.945 1175.66 823.716 1174.32 821.206 1171.64C818.711 1168.94 817.464 1165.79 817.464 1162.19C817.464 1158.62 818.648 1155.53 821.016 1152.91C823.621 1150.02 826.913 1148.57 830.892 1148.57ZM830.892 1151.82C828.145 1151.82 825.784 1152.83 823.811 1154.87C821.837 1156.91 820.851 1159.37 820.851 1162.26C820.851 1164.12 821.301 1165.86 822.2 1167.47C823.1 1169.08 824.316 1170.33 825.847 1171.21C827.379 1172.08 829.06 1172.51 830.892 1172.51C832.723 1172.51 834.404 1172.08 835.936 1171.21C837.467 1170.33 838.683 1169.08 839.583 1167.47C840.483 1165.86 840.933 1164.12 840.933 1162.26C840.933 1159.37 839.938 1156.91 837.949 1154.87C835.975 1152.83 833.623 1151.82 830.892 1151.82ZM863.026 1139.29V1142.53C861.81 1142.01 860.768 1141.75 859.9 1141.75C859.252 1141.75 858.716 1141.89 858.289 1142.15C857.863 1142.41 857.595 1142.71 857.484 1143.05C857.374 1143.39 857.318 1144.28 857.318 1145.75V1149.23H862.694V1152.08H857.295V1175H853.979V1152.08H850.593V1149.23H853.979V1145.21C853.979 1143.36 854.145 1142.04 854.477 1141.25C854.824 1140.46 855.4 1139.83 856.205 1139.36C857.026 1138.87 858.013 1138.62 859.166 1138.62C860.239 1138.62 861.526 1138.85 863.026 1139.29ZM883.743 1149.23H887.13V1153C888.14 1151.52 889.206 1150.41 890.327 1149.68C891.448 1148.94 892.616 1148.57 893.832 1148.57C894.747 1148.57 895.726 1148.86 896.768 1149.45L895.04 1152.24C894.345 1151.94 893.761 1151.79 893.287 1151.79C892.182 1151.79 891.116 1152.25 890.09 1153.17C889.064 1154.07 888.282 1155.47 887.746 1157.38C887.335 1158.85 887.13 1161.82 887.13 1166.29V1175H883.743V1149.23ZM923.219 1166.45L926.013 1167.92C925.097 1169.72 924.04 1171.17 922.84 1172.28C921.64 1173.38 920.29 1174.23 918.79 1174.81C917.29 1175.38 915.593 1175.66 913.699 1175.66C909.499 1175.66 906.215 1174.29 903.847 1171.54C901.479 1168.78 900.295 1165.66 900.295 1162.19C900.295 1158.92 901.297 1156.01 903.302 1153.45C905.844 1150.2 909.247 1148.57 913.509 1148.57C917.898 1148.57 921.403 1150.24 924.024 1153.57C925.887 1155.92 926.834 1158.86 926.866 1162.38H903.705C903.768 1165.38 904.723 1167.84 906.571 1169.77C908.418 1171.68 910.699 1172.63 913.415 1172.63C914.725 1172.63 915.996 1172.4 917.227 1171.95C918.475 1171.49 919.532 1170.88 920.401 1170.12C921.269 1169.36 922.208 1168.14 923.219 1166.45ZM923.219 1159.51C922.777 1157.74 922.129 1156.33 921.277 1155.27C920.44 1154.22 919.327 1153.36 917.938 1152.72C916.548 1152.07 915.088 1151.74 913.557 1151.74C911.031 1151.74 908.86 1152.56 907.044 1154.18C905.718 1155.37 904.715 1157.14 904.037 1159.51H923.219ZM934.513 1139.29H937.828V1175H934.513V1139.29ZM958.856 1148.57C962.819 1148.57 966.102 1150.01 968.707 1152.88C971.076 1155.5 972.26 1158.6 972.26 1162.19C972.26 1165.79 971.005 1168.94 968.494 1171.64C966 1174.32 962.787 1175.66 958.856 1175.66C954.909 1175.66 951.68 1174.32 949.17 1171.64C946.676 1168.94 945.428 1165.79 945.428 1162.19C945.428 1158.62 946.612 1155.53 948.981 1152.91C951.586 1150.02 954.877 1148.57 958.856 1148.57ZM958.856 1151.82C956.109 1151.82 953.748 1152.83 951.775 1154.87C949.802 1156.91 948.815 1159.37 948.815 1162.26C948.815 1164.12 949.265 1165.86 950.165 1167.47C951.065 1169.08 952.28 1170.33 953.812 1171.21C955.343 1172.08 957.024 1172.51 958.856 1172.51C960.687 1172.51 962.369 1172.08 963.9 1171.21C965.431 1170.33 966.647 1169.08 967.547 1167.47C968.447 1165.86 968.897 1164.12 968.897 1162.26C968.897 1159.37 967.902 1156.91 965.913 1154.87C963.939 1152.83 961.587 1151.82 958.856 1151.82ZM1005.39 1154.59L1002.76 1156.22C1000.49 1153.2 997.384 1151.7 993.453 1151.7C990.311 1151.7 987.698 1152.71 985.614 1154.73C983.546 1156.75 982.512 1159.2 982.512 1162.09C982.512 1163.97 982.986 1165.74 983.933 1167.4C984.896 1169.06 986.206 1170.34 987.864 1171.26C989.538 1172.17 991.408 1172.63 993.477 1172.63C997.266 1172.63 1000.36 1171.12 1002.76 1168.11L1005.39 1169.84C1004.16 1171.68 1002.5 1173.12 1000.42 1174.15C998.347 1175.16 995.987 1175.66 993.334 1175.66C989.261 1175.66 985.883 1174.37 983.199 1171.78C980.515 1169.19 979.173 1166.04 979.173 1162.33C979.173 1159.84 979.796 1157.52 981.044 1155.39C982.307 1153.24 984.035 1151.57 986.23 1150.37C988.424 1149.17 990.879 1148.57 993.595 1148.57C995.3 1148.57 996.942 1148.83 998.521 1149.35C1000.12 1149.87 1001.47 1150.55 1002.57 1151.39C1003.68 1152.23 1004.61 1153.29 1005.39 1154.59ZM1039.39 1149.23V1175H1036.13V1170.57C1034.74 1172.26 1033.17 1173.53 1031.44 1174.38C1029.72 1175.24 1027.83 1175.66 1025.78 1175.66C1022.13 1175.66 1019.01 1174.34 1016.42 1171.71C1013.85 1169.06 1012.56 1165.84 1012.56 1162.05C1012.56 1158.34 1013.86 1155.16 1016.47 1152.53C1019.07 1149.89 1022.21 1148.57 1025.87 1148.57C1027.99 1148.57 1029.9 1149.02 1031.6 1149.92C1033.32 1150.82 1034.83 1152.17 1036.13 1153.97V1149.23H1039.39ZM1026.13 1151.77C1024.28 1151.77 1022.58 1152.23 1021.02 1153.14C1019.45 1154.04 1018.21 1155.31 1017.27 1156.95C1016.36 1158.6 1015.9 1160.33 1015.9 1162.16C1015.9 1163.98 1016.37 1165.72 1017.3 1167.37C1018.23 1169.03 1019.48 1170.33 1021.04 1171.26C1022.62 1172.17 1024.31 1172.63 1026.11 1172.63C1027.92 1172.63 1029.64 1172.17 1031.27 1171.26C1032.9 1170.34 1034.14 1169.1 1035.01 1167.54C1035.9 1165.98 1036.34 1164.22 1036.34 1162.26C1036.34 1159.28 1035.35 1156.78 1033.38 1154.78C1031.42 1152.77 1029 1151.77 1026.13 1151.77ZM1051.71 1139.67H1055.05V1149.23H1060.3V1152.08H1055.05V1175H1051.71V1152.08H1047.18V1149.23H1051.71V1139.67ZM1068.35 1138.62C1069.11 1138.62 1069.76 1138.89 1070.29 1139.43C1070.83 1139.97 1071.1 1140.61 1071.1 1141.37C1071.1 1142.11 1070.83 1142.75 1070.29 1143.29C1069.76 1143.83 1069.11 1144.1 1068.35 1144.1C1067.61 1144.1 1066.97 1143.83 1066.43 1143.29C1065.9 1142.75 1065.63 1142.11 1065.63 1141.37C1065.63 1140.61 1065.9 1139.97 1066.43 1139.43C1066.97 1138.89 1067.61 1138.62 1068.35 1138.62ZM1066.69 1149.23H1070.03V1175H1066.69V1149.23ZM1078.84 1149.23H1082.16V1153.85C1083.48 1152.08 1084.95 1150.77 1086.56 1149.9C1088.17 1149.01 1089.92 1148.57 1091.82 1148.57C1093.74 1148.57 1095.45 1149.06 1096.93 1150.04C1098.43 1151.02 1099.54 1152.34 1100.25 1153.99C1100.96 1155.65 1101.32 1158.23 1101.32 1161.74V1175H1098.02V1162.71C1098.02 1159.74 1097.9 1157.76 1097.64 1156.77C1097.25 1155.06 1096.51 1153.78 1095.42 1152.93C1094.33 1152.06 1092.91 1151.63 1091.16 1151.63C1089.15 1151.63 1087.35 1152.29 1085.76 1153.62C1084.18 1154.94 1083.14 1156.58 1082.63 1158.54C1082.31 1159.82 1082.16 1162.16 1082.16 1165.55V1175H1078.84V1149.23ZM1132.57 1149.23H1135.91V1169.77C1135.91 1173.38 1135.6 1176.03 1134.96 1177.7C1134.1 1180.07 1132.59 1181.89 1130.44 1183.17C1128.29 1184.45 1125.71 1185.09 1122.7 1185.09C1120.49 1185.09 1118.5 1184.77 1116.73 1184.14C1114.98 1183.53 1113.55 1182.69 1112.44 1181.63C1111.34 1180.59 1110.32 1179.06 1109.39 1177.04H1112.99C1113.97 1178.74 1115.23 1180 1116.78 1180.83C1118.32 1181.65 1120.24 1182.06 1122.53 1182.06C1124.79 1182.06 1126.69 1181.63 1128.24 1180.78C1129.8 1179.94 1130.92 1178.88 1131.58 1177.6C1132.24 1176.33 1132.57 1174.27 1132.57 1171.42V1170.1C1131.33 1171.68 1129.8 1172.89 1128 1173.74C1126.2 1174.58 1124.29 1175 1122.27 1175C1119.9 1175 1117.68 1174.42 1115.59 1173.25C1113.51 1172.06 1111.9 1170.48 1110.76 1168.49C1109.63 1166.5 1109.06 1164.31 1109.06 1161.93C1109.06 1159.54 1109.65 1157.33 1110.83 1155.27C1112.02 1153.2 1113.65 1151.57 1115.74 1150.37C1117.84 1149.17 1120.05 1148.57 1122.37 1148.57C1124.29 1148.57 1126.08 1148.97 1127.74 1149.78C1129.42 1150.57 1131.03 1151.88 1132.57 1153.71V1149.23ZM1122.79 1151.77C1120.91 1151.77 1119.17 1152.23 1117.56 1153.14C1115.95 1154.04 1114.69 1155.3 1113.77 1156.91C1112.85 1158.5 1112.4 1160.23 1112.4 1162.09C1112.4 1164.92 1113.34 1167.26 1115.24 1169.1C1117.13 1170.95 1119.59 1171.87 1122.6 1171.87C1125.65 1171.87 1128.1 1170.96 1129.94 1169.13C1131.81 1167.3 1132.74 1164.89 1132.74 1161.9C1132.74 1159.96 1132.31 1158.23 1131.46 1156.72C1130.61 1155.19 1129.4 1153.98 1127.84 1153.09C1126.27 1152.21 1124.59 1151.77 1122.79 1151.77Z" fill="white"/>
</svg>
