<svg width="720" height="500" fill="none" xmlns="http://www.w3.org/2000/svg">
  <g clip-path="url(#wip-card__clip0)">
    <path fill="#1A1A1A" d="M0 0h720v500H0z"/>
    <path d="M127.352 224h6.448l-13.156-36.4h-7.176L100.26 224h6.5l2.548-7.332h15.496l2.548 7.332zm-16.068-12.948l5.772-16.432 5.772 16.432h-11.544zm39.742-13.728c-3.536 0-6.344 1.3-8.06 4.004V198h-5.616v26h5.616v-13.936c0-5.304 2.912-7.488 6.604-7.488 3.536 0 5.824 2.08 5.824 6.032V224h5.616v-15.964c0-6.76-4.16-10.712-9.984-10.712zm41.303 27.352c7.644 0 13.728-5.98 13.728-13.676 0-7.748-6.084-13.676-13.728-13.676-7.592 0-13.728 5.928-13.728 13.676 0 7.696 6.136 13.676 13.728 13.676zm0-5.46c-4.576 0-8.112-3.484-8.112-8.216 0-4.732 3.536-8.216 8.112-8.216 4.576 0 8.112 3.484 8.112 8.216 0 4.732-3.536 8.216-8.112 8.216zm32.482-21.892c-3.536 0-6.344 1.3-8.06 4.004V198h-5.616v26h5.616v-13.936c0-5.304 2.912-7.488 6.604-7.488 3.536 0 5.824 2.08 5.824 6.032V224h5.616v-15.964c0-6.76-4.16-10.712-9.984-10.712zm36.727.676v3.848c-1.976-2.808-5.044-4.524-9.048-4.524-7.332 0-13.104 5.98-13.104 13.416s5.772 13.416 13.104 13.416c4.004 0 7.072-1.716 9.048-4.524v3.172c0 4.524-2.912 7.176-7.748 7.176-4.524 0-6.448-1.768-7.592-4.004l-4.836 2.808c2.184 4.16 6.604 6.292 12.324 6.292 6.812 0 13.364-3.9 13.364-12.272V198h-5.512zm-8.268 20.904c-4.732 0-8.268-3.484-8.268-8.164s3.536-8.164 8.268-8.164c4.732 0 8.268 3.484 8.268 8.164s-3.536 8.164-8.268 8.164zm32.598 5.772c7.644 0 13.728-5.98 13.728-13.676 0-7.748-6.084-13.676-13.728-13.676-7.592 0-13.728 5.928-13.728 13.676 0 7.696 6.136 13.676 13.728 13.676zm0-5.46c-4.576 0-8.112-3.484-8.112-8.216 0-4.732 3.536-8.216 8.112-8.216 4.576 0 8.112 3.484 8.112 8.216 0 4.732-3.536 8.216-8.112 8.216zm21.614-25.116c1.976 0 3.588-1.664 3.588-3.588a3.595 3.595 0 00-3.588-3.588 3.595 3.595 0 00-3.588 3.588c0 1.924 1.612 3.588 3.588 3.588zm-2.808 29.9h5.616v-26h-5.616v26zm25.813-26.676c-3.536 0-6.344 1.3-8.06 4.004V198h-5.616v26h5.616v-13.936c0-5.304 2.912-7.488 6.604-7.488 3.536 0 5.824 2.08 5.824 6.032V224h5.616v-15.964c0-6.76-4.16-10.712-9.984-10.712zm36.727.676v3.848c-1.976-2.808-5.044-4.524-9.048-4.524-7.332 0-13.104 5.98-13.104 13.416s5.772 13.416 13.104 13.416c4.004 0 7.072-1.716 9.048-4.524v3.172c0 4.524-2.912 7.176-7.748 7.176-4.524 0-6.448-1.768-7.592-4.004l-4.836 2.808c2.184 4.16 6.604 6.292 12.324 6.292 6.812 0 13.364-3.9 13.364-12.272V198h-5.512zm-8.268 20.904c-4.732 0-8.268-3.484-8.268-8.164s3.536-8.164 8.268-8.164c4.732 0 8.268 3.484 8.268 8.164s-3.536 8.164-8.268 8.164zm48.042-21.58c-4.056 0-7.124 1.664-9.1 4.42V198h-5.616v36.4h5.616v-14.092c1.976 2.704 5.044 4.368 9.1 4.368 7.072 0 12.948-5.928 12.948-13.676 0-7.696-5.876-13.676-12.948-13.676zm-.884 21.996c-4.68 0-8.216-3.484-8.216-8.32s3.536-8.32 8.216-8.32 8.216 3.484 8.216 8.32-3.536 8.32-8.216 8.32zm24.538-16.952V198h-5.616v26h5.616v-13.104c0-5.824 4.316-7.54 8.008-7.28v-6.084c-3.276 0-6.448 1.3-8.008 4.836zm23.211 22.308c7.644 0 13.728-5.98 13.728-13.676 0-7.748-6.084-13.676-13.728-13.676-7.592 0-13.728 5.928-13.728 13.676 0 7.696 6.136 13.676 13.728 13.676zm0-5.46c-4.576 0-8.112-3.484-8.112-8.216 0-4.732 3.536-8.216 8.112-8.216 4.576 0 8.112 3.484 8.112 8.216 0 4.732-3.536 8.216-8.112 8.216zm21.789-25.116c1.976 0 3.588-1.664 3.588-3.588a3.595 3.595 0 00-3.588-3.588 3.595 3.595 0 00-3.588 3.588c0 1.924 1.612 3.588 3.588 3.588zm-2.808 30.94c0 3.64-1.612 4.94-5.044 4.628v5.408c7.124.52 10.66-2.86 10.66-10.036V198h-5.616v27.04zm16.585-11.648h20.696c.104-.728.208-1.56.208-2.34 0-7.488-5.304-13.728-13.052-13.728-8.164 0-13.728 5.98-13.728 13.676 0 7.8 5.564 13.676 14.144 13.676 5.096 0 8.996-2.132 11.388-5.668l-4.628-2.704c-1.248 1.82-3.588 3.224-6.708 3.224-4.16 0-7.436-2.08-8.32-6.136zm-.052-4.576c.78-3.9 3.64-6.396 7.852-6.396 3.38 0 6.656 1.924 7.436 6.396h-15.288zm38.017 15.86c5.096 0 9.516-2.652 11.7-6.76l-4.836-2.756c-1.248 2.392-3.796 4.004-6.916 4.004-4.576 0-8.06-3.484-8.06-8.164s3.484-8.164 8.06-8.164c3.12 0 5.668 1.56 6.812 4.004l4.836-2.808c-2.08-4.056-6.5-6.708-11.596-6.708-7.852 0-13.728 5.928-13.728 13.676 0 7.696 5.876 13.676 13.728 13.676zm30.267-21.268V198h-6.448v-7.28l-5.616 1.664V198h-4.784v5.408h4.784v12.48c0 6.76 3.432 9.152 12.064 8.112v-5.044c-4.264.208-6.448.26-6.448-3.068v-12.48h6.448zm8.728 21.216c2.132 0 3.9-1.768 3.9-3.9 0-2.184-1.768-3.9-3.9-3.9a3.862 3.862 0 00-3.9 3.9c0 2.132 1.716 3.9 3.9 3.9zM115.3 317h2.4l-5.13-8.67a6.29 6.29 0 004.53-6.03 6.3 6.3 0 00-6.3-6.3h-8.4v21h2.1v-8.4h5.88l4.92 8.4zm-10.8-19.02h6.3c2.31 0 4.2 1.92 4.2 4.32 0 2.37-1.89 4.32-4.2 4.32h-6.3v-8.64zm22.079 3.66c-4.65 0-7.83 3.45-7.83 7.86 0 4.53 3.24 7.86 7.98 7.86 3.03 0 5.34-1.41 6.6-3.45l-1.74-1.02c-.81 1.44-2.46 2.55-4.83 2.55-3.18 0-5.55-1.89-5.97-4.95h13.17c.03-.3.06-.63.06-.93 0-4.11-2.85-7.92-7.44-7.92zm0 1.92c2.58 0 4.98 1.71 5.4 5.01h-11.19c.39-2.94 2.64-5.01 5.79-5.01zm23.489-1.56v2.94c-1.26-2.01-3.39-3.3-6.06-3.3-4.23 0-7.74 3.42-7.74 7.86s3.51 7.86 7.74 7.86c2.67 0 4.8-1.29 6.06-3.3V317h1.98v-15h-1.98zm-5.91 13.44c-3.33 0-5.91-2.61-5.91-5.94 0-3.33 2.58-5.94 5.91-5.94s5.91 2.61 5.91 5.94c0 3.33-2.58 5.94-5.91 5.94zm19.073 1.92c2.94 0 5.49-1.53 6.72-3.9l-1.65-.96c-.96 1.74-2.79 2.94-5.07 2.94-3.33 0-5.91-2.61-5.91-5.94 0-3.33 2.58-5.94 5.91-5.94 2.25 0 4.14 1.17 4.95 2.94l1.62-.93c-1.08-2.37-3.6-3.93-6.57-3.93-4.53 0-7.89 3.42-7.89 7.86s3.36 7.86 7.89 7.86zm16.582-15.72c-2.13 0-3.87.81-5.04 2.7V296h-1.98v21h1.98v-7.86c0-4.02 2.22-5.58 4.86-5.58 2.61 0 4.08 1.56 4.08 4.23V317h1.98v-9.21c0-3.75-2.22-6.15-5.88-6.15zm24.199 15.72c4.38 0 7.89-3.42 7.89-7.86s-3.51-7.86-7.89-7.86-7.89 3.42-7.89 7.86 3.51 7.86 7.89 7.86zm0-1.92c-3.33 0-5.91-2.61-5.91-5.94 0-3.33 2.58-5.94 5.91-5.94s5.91 2.61 5.91 5.94c0 3.33-2.58 5.94-5.91 5.94zM225.775 302v7.86c0 4.02-2.22 5.58-4.86 5.58-2.61 0-4.08-1.56-4.08-4.23V302h-1.98v9.21c0 3.75 2.22 6.15 5.88 6.15 2.13 0 3.87-.81 5.04-2.7V317h1.98v-15h-1.98zm14.119 1.92V302h-4.32v-4.2l-1.98.6v3.6h-3.15v1.92h3.15v9.09c0 3.6 2.25 4.59 6.3 3.99v-1.74c-2.91.12-4.32.33-4.32-2.25v-9.09h4.32zm18.3-6.36v-1.92c-4.05-.3-6.3 1.86-6.3 5.76v.6h-2.55v1.92h2.55V317h1.98v-13.08h4.32V302h-4.32v-.6c0-2.88 1.41-4.08 4.32-3.84zm8.191 19.8c4.38 0 7.89-3.42 7.89-7.86s-3.51-7.86-7.89-7.86-7.89 3.42-7.89 7.86 3.51 7.86 7.89 7.86zm0-1.92c-3.33 0-5.91-2.61-5.91-5.94 0-3.33 2.58-5.94 5.91-5.94s5.91 2.61 5.91 5.94c0 3.33-2.58 5.94-5.91 5.94zm13.183-10.95V302h-1.98v15h1.98v-8.34c0-3.72 2.34-4.98 4.74-4.98v-1.92c-1.92 0-3.69.63-4.74 2.73zm30.944-2.85c-1.92 0-3.75.87-4.86 2.73-.84-1.74-2.46-2.73-4.56-2.73-1.8 0-3.42.72-4.59 2.55V302h-1.98v15h1.98v-8.31c0-3.72 2.16-5.13 4.32-5.13 2.13 0 3.51 1.41 3.51 4.08V317h1.98v-8.31c0-3.72 1.86-5.13 4.17-5.13 2.13 0 3.66 1.41 3.66 4.08V317h1.98v-9.36c0-3.75-2.31-6-5.61-6zm16.43 15.72c4.38 0 7.89-3.42 7.89-7.86s-3.51-7.86-7.89-7.86-7.89 3.42-7.89 7.86 3.51 7.86 7.89 7.86zm0-1.92c-3.33 0-5.91-2.61-5.91-5.94 0-3.33 2.58-5.94 5.91-5.94s5.91 2.61 5.91 5.94c0 3.33-2.58 5.94-5.91 5.94zm13.183-10.95V302h-1.98v15h1.98v-8.34c0-3.72 2.34-4.98 4.74-4.98v-1.92c-1.92 0-3.69.63-4.74 2.73zm13.475-2.85c-4.65 0-7.83 3.45-7.83 7.86 0 4.53 3.24 7.86 7.98 7.86 3.03 0 5.34-1.41 6.6-3.45l-1.74-1.02c-.81 1.44-2.46 2.55-4.83 2.55-3.18 0-5.55-1.89-5.97-4.95h13.17c.03-.3.06-.63.06-.93 0-4.11-2.85-7.92-7.44-7.92zm0 1.92c2.58 0 4.98 1.71 5.4 5.01h-11.19c.39-2.94 2.64-5.01 5.79-5.01zm30.99-7.56v8.94c-1.26-2.01-3.39-3.3-6.06-3.3-4.23 0-7.74 3.42-7.74 7.86s3.51 7.86 7.74 7.86c2.67 0 4.8-1.29 6.06-3.3V317h1.98v-21h-1.98zm-5.91 19.44c-3.33 0-5.91-2.61-5.91-5.94 0-3.33 2.58-5.94 5.91-5.94s5.91 2.61 5.91 5.94c0 3.33-2.58 5.94-5.91 5.94zm19.012-13.8c-4.65 0-7.83 3.45-7.83 7.86 0 4.53 3.24 7.86 7.98 7.86 3.03 0 5.34-1.41 6.6-3.45l-1.74-1.02c-.81 1.44-2.46 2.55-4.83 2.55-3.18 0-5.55-1.89-5.97-4.95h13.17c.03-.3.06-.63.06-.93 0-4.11-2.85-7.92-7.44-7.92zm0 1.92c2.58 0 4.98 1.71 5.4 5.01h-11.19c.39-2.94 2.64-5.01 5.79-5.01zm18.1.36V302h-4.32v-4.2l-1.98.6v3.6h-3.15v1.92h3.15v9.09c0 3.6 2.25 4.59 6.3 3.99v-1.74c-2.91.12-4.32.33-4.32-2.25v-9.09h4.32zm15.292-1.92v2.94c-1.26-2.01-3.39-3.3-6.06-3.3-4.23 0-7.74 3.42-7.74 7.86s3.51 7.86 7.74 7.86c2.67 0 4.8-1.29 6.06-3.3V317h1.98v-15h-1.98zm-5.91 13.44c-3.33 0-5.91-2.61-5.91-5.94 0-3.33 2.58-5.94 5.91-5.94s5.91 2.61 5.91 5.94c0 3.33-2.58 5.94-5.91 5.94zm13.072-16.62a1.44 1.44 0 100-2.88 1.44 1.44 0 000 2.88zm-.99 18.18h1.98v-15h-1.98v15zm6.182 0h1.98v-21.9h-1.98V317zm7.742-11.07c0-1.62 1.59-2.37 3.15-2.37 1.44 0 2.97.57 3.6 2.1l1.65-.96c-.87-1.86-2.79-3.06-5.25-3.06-3 0-5.13 1.89-5.13 4.29 0 5.52 8.76 3.39 8.76 7.11 0 1.77-1.68 2.4-3.45 2.4-2.01 0-3.57-.99-4.11-2.52l-1.68.99c.75 1.92 2.79 3.45 5.79 3.45 3.21 0 5.43-1.77 5.43-4.32 0-5.52-8.76-3.39-8.76-7.11zm12.663 5.37h1.5l.45-9.3v-6h-2.4v6l.45 9.3zm.75 6c.93 0 1.65-.72 1.65-1.65 0-.93-.72-1.65-1.65-1.65-.93 0-1.65.72-1.65 1.65 0 .93.72 1.65 1.65 1.65z" fill="#fff"/>
  </g>
  <defs>
    <clipPath id="wip-card__clip0">
      <path fill="#fff" d="M0 0h720v500H0z"/>
    </clipPath>
  </defs>
</svg>
