<svg width="512" height="512" viewBox="0 0 512 512" fill="none" xmlns="http://www.w3.org/2000/svg">
<g clip-path="url(#clip0)">
<circle cx="255" cy="266" r="255" fill="white"/>
<path d="M477.656 136.96C454.764 96.7537 423.712 64.922 384.493 41.4581C345.268 17.9931 302.446 6.26356 255.996 6.26356C209.552 6.26356 166.716 17.9967 127.499 41.4581C88.276 64.9208 57.2255 96.7537 34.3334 136.96C11.4449 177.166 -3.02279e-06 221.07 -3.02279e-06 268.673C-3.02279e-06 325.855 16.2748 377.274 48.8325 422.944C81.3866 468.617 123.442 500.222 174.995 517.76C180.995 518.902 185.438 518.099 188.326 515.372C191.216 512.641 192.659 509.22 192.659 505.125C192.659 504.441 192.601 498.294 192.49 486.674C192.376 475.055 192.322 464.918 192.322 456.269L184.655 457.629C179.767 458.547 173.601 458.936 166.155 458.825C158.714 458.719 150.989 457.92 142.99 456.433C134.988 454.96 127.546 451.543 120.656 446.19C113.77 440.837 108.882 433.83 105.993 425.179L102.659 417.317C100.438 412.082 96.9399 406.267 92.1614 399.893C87.3829 393.513 82.5506 389.188 77.6624 386.91L75.3286 385.198C73.7735 384.06 72.3305 382.687 70.996 381.094C69.6627 379.501 68.6645 377.907 67.9979 376.311C67.3301 374.713 67.8835 373.402 69.6639 372.374C71.4443 371.346 74.6619 370.847 79.3307 370.847L85.9947 371.868C90.4393 372.781 95.937 375.509 102.495 380.067C109.049 384.622 114.437 390.544 118.66 397.83C123.773 407.172 129.934 414.29 137.16 419.188C144.38 424.087 151.659 426.532 158.991 426.532C166.322 426.532 172.655 425.962 177.99 424.829C183.32 423.689 188.32 421.977 192.989 419.701C194.989 404.432 200.434 392.703 209.32 384.504C196.655 383.139 185.268 381.085 175.154 378.352C165.046 375.616 154.601 371.176 143.825 365.02C133.043 358.872 124.099 351.238 116.99 342.131C109.88 333.019 104.045 321.056 99.4932 306.253C94.9388 291.444 92.6611 274.361 92.6611 255C92.6611 227.432 101.441 203.973 118.996 184.61C110.772 163.884 111.549 140.65 121.328 114.91C127.772 112.857 137.329 114.398 149.994 119.521C162.661 124.647 171.936 129.038 177.827 132.678C183.718 136.318 188.438 139.402 191.994 141.903C212.665 135.983 233.996 133.022 255.994 133.022C277.991 133.022 299.327 135.983 319.999 141.903L332.665 133.706C341.326 128.237 351.555 123.225 363.325 118.669C375.103 114.115 384.109 112.861 390.334 114.913C400.33 140.655 401.221 163.888 392.995 184.613C410.549 203.977 419.332 227.442 419.332 255.004C419.332 274.365 417.046 291.502 412.499 306.424C407.945 321.349 402.06 333.3 394.84 342.302C387.612 351.303 378.611 358.877 367.835 365.024C357.057 371.175 346.608 375.615 336.5 378.351C326.387 381.087 315.001 383.143 302.336 384.51C313.887 394.756 319.664 410.931 319.664 433.025V505.115C319.664 509.211 321.053 512.63 323.834 515.362C326.611 518.089 330.998 518.892 336.998 517.75C388.558 500.213 430.613 468.608 463.166 422.934C495.716 377.264 511.996 325.845 511.996 268.664C511.985 221.067 500.534 177.166 477.656 136.96Z" fill="#004080"/>
</g>
<defs>
<clipPath id="clip0">
<rect width="512" height="512" fill="white"/>
</clipPath>
</defs>
</svg>
