<svg xmlns="http://www.w3.org/2000/svg" xmlns:xlink="http://www.w3.org/1999/xlink" width="2802" height="998" viewBox="0 0 2802 998"><defs><style>.a{clip-path:url(#b);}.b,.f,.i{fill:none;}.b,.d,.f{stroke:#707070;}.b,.f{stroke-width:3px;}.c{fill:#707070;}.d{fill:#f5f5f5;}.e,.g{fill:#505050;font-family:OpenSans-Semibold, Open Sans;font-weight:600;}.e{font-size:42px;}.f{stroke-linejoin:round;}.g{font-size:56px;}.h{stroke:none;}.j{fill:#fff;}</style><clipPath id="b"><rect width="2802" height="998"/></clipPath></defs><g id="a" class="a"><rect class="j" width="2802" height="998"/><g transform="translate(-6373 -15569)"><g transform="translate(-7.369 -5)"><line class="b" x2="198.369" transform="translate(6992.5 16082.117)"/><path class="c" d="M10,0,20,19H0Z" transform="translate(7208.369 16072) rotate(90)"/></g><g transform="translate(1208.5 -5)"><line class="b" x2="202.5" transform="translate(6992.5 16082.117)"/><path class="c" d="M10,0,20,19H0Z" transform="translate(7212.5 16072) rotate(90)"/></g><g transform="translate(592.631 -5)"><line class="b" x2="198.369" transform="translate(6992.5 16082.117)"/><path class="c" d="M10,0,20,19H0Z" transform="translate(7208.369 16072) rotate(90)"/></g><g transform="translate(7201 15977)"><g class="d"><rect class="h" width="400" height="200" rx="15"/><rect class="i" x="0.5" y="0.5" width="399" height="199" rx="14.5"/></g><text class="e" transform="translate(200.474 87.902)"><tspan x="-96.069" y="0">Company</tspan><tspan x="-134.613" y="57">Management</tspan></text></g><g transform="translate(6627 15977)"><g class="d"><rect class="h" width="400" height="200" rx="15"/><rect class="i" x="0.5" y="0.5" width="399" height="199" rx="14.5"/></g><text class="e" transform="translate(200.474 116.902)"><tspan x="-148.261" y="0">Admin Module</tspan></text></g><g transform="translate(8421 15977)"><g class="d"><rect class="h" width="400" height="200" rx="15"/><rect class="i" x="0.5" y="0.5" width="399" height="199" rx="14.5"/></g><text class="e" transform="translate(200.474 87.902)"><tspan x="-104.99" y="0">Certificate</tspan><tspan x="-134.613" y="57">Management</tspan></text></g><g transform="translate(8421 16277)"><g class="d"><rect class="h" width="400" height="200" rx="15"/><rect class="i" x="0.5" y="0.5" width="399" height="199" rx="14.5"/></g><text class="e" transform="translate(200.474 87.902)"><tspan x="-49.475" y="0">Drug</tspan><tspan x="-134.613" y="57">Management</tspan></text></g><g transform="translate(7801 15977)"><g class="d"><rect class="h" width="400" height="200" rx="15"/><rect class="i" x="0.5" y="0.5" width="399" height="199" rx="14.5"/></g><text class="e" transform="translate(200.474 87.902)"><tspan x="-87.794" y="0">Program</tspan><tspan x="-134.613" y="57">Management</tspan></text></g><g transform="translate(8421 15677)"><g class="d"><rect class="h" width="400" height="200" rx="15"/><rect class="i" x="0.5" y="0.5" width="399" height="199" rx="14.5"/></g><text class="e" transform="translate(200.474 87.902)"><tspan x="-104.621" y="0">PDF Detail</tspan><tspan x="-134.613" y="57">Management</tspan></text></g><g transform="translate(1317.833 -305)"><path class="f" d="M-13.745,298.9V0H93.167" transform="translate(6992.5 16082.117)"/><path class="c" d="M10,0,20,19H0Z" transform="translate(7103.167 16072) rotate(90)"/></g><g transform="translate(8296.586 16078)"><path class="f" d="M0,0V298.9H106.912" transform="translate(0 0)"/><path class="c" d="M10,0,20,19H0Z" transform="translate(124.412 289.018) rotate(90)"/></g></g><text class="g" transform="translate(50 221)"><tspan x="0" y="0">Record Management Workflow</tspan></text></g></svg>