<svg xmlns="http://www.w3.org/2000/svg" xmlns:xlink="http://www.w3.org/1999/xlink" width="2802" height="1037" viewBox="0 0 2802 1037"><defs><style>.a{clip-path:url(#b);}.b,.e,.m{fill:none;}.b,.e,.g{stroke:#707070;}.b,.e{stroke-width:3px;}.c,.d,.f,.l{fill:#707070;}.d{font-size:36px;}.d,.h,.j{font-family:OpenSans-Semibold, Open Sans;font-weight:600;}.e,.f{stroke-linejoin:round;}.g,.i{fill:#f5f5f5;}.h{fill:#505050;font-size:42px;}.j{fill:#1a1a1a;font-size:56px;}.k,.l{stroke:none;}.n{fill:#fff;}</style><clipPath id="b"><rect width="2802" height="1037"/></clipPath></defs><g id="a" class="a"><rect class="n" width="2802" height="1037"/><g transform="translate(-6550 -15400)"><g transform="translate(-7.369 -5)"><line class="b" x2="198.369" transform="translate(6992.5 16082.117)"/><path class="c" d="M10,0,20,19H0Z" transform="translate(7208.369 16072) rotate(90)"/><text class="d" transform="translate(7101.369 16071)"><tspan x="-29.786" y="0">Yes</tspan></text></g><g transform="translate(1212.631 -5)"><line class="b" x2="198.369" transform="translate(6992.5 16082.117)"/><path class="c" d="M10,0,20,19H0Z" transform="translate(7208.369 16072) rotate(90)"/><text class="d" transform="translate(7100.369 16071)"><tspan x="-29.786" y="0">Yes</tspan></text></g><g transform="translate(592.631 -5)"><line class="b" x2="198.369" transform="translate(6992.5 16082.117)"/><path class="c" d="M10,0,20,19H0Z" transform="translate(7208.369 16072) rotate(90)"/></g><g transform="translate(1796.441 -5)"><line class="b" x2="114.559" transform="translate(6992.5 16082.117)"/><path class="c" d="M10,0,20,19H0Z" transform="translate(7124.559 16072) rotate(90)"/></g><g transform="translate(-201.5 -305)"><path class="e" d="M-.5,151.5V0H392" transform="translate(6993 16082.117)"/><path class="c" d="M10,0,20,19H0Z" transform="translate(7402.5 16072) rotate(90)"/></g><g transform="translate(23483.066 8768.565) rotate(90)"><line class="b" x2="198.369" transform="translate(6992.5 16082.117)"/><path class="c" d="M10,0,20,19H0Z" transform="translate(7208.369 16072) rotate(90)"/></g><g transform="translate(-8680.934 23317.816) rotate(-90)"><path class="e" d="M.236,609.8H-112.251V0H28.935" transform="translate(7093.316 16082.117)"/><g class="f" transform="translate(7139.751 16072) rotate(90)"><path class="k" d="M 19.17181968688965 18.5 L 0.8281810283660889 18.5 L 10 1.073544025421143 L 19.17181968688965 18.5 Z"/><path class="l" d="M 10 2.147098541259766 L 1.656368255615234 18 L 18.34363174438477 18 L 10 2.147098541259766 M 10 0 L 20 19 L 0 19 L 10 0 Z"/></g></g><g transform="translate(7201 15977)"><g class="g"><rect class="k" width="400" height="200" rx="15"/><rect class="m" x="0.5" y="0.5" width="399" height="199" rx="14.5"/></g><text class="h" transform="translate(200.474 87.902)"><tspan x="-140.878" y="0">Program Card</tspan><tspan x="-92.265" y="57">Selection</tspan></text></g><g transform="translate(7201 15677)"><g class="g"><rect class="k" width="400" height="200" rx="15"/><rect class="m" x="0.5" y="0.5" width="399" height="199" rx="14.5"/></g><text class="h" transform="translate(200.474 87.902)"><tspan x="-87.722" y="0">Province</tspan><tspan x="-92.265" y="57">Selection</tspan></text></g><g transform="translate(8421 15977)"><g class="g"><rect class="k" width="400" height="200" rx="15"/><rect class="m" x="0.5" y="0.5" width="399" height="199" rx="14.5"/></g><text class="h" transform="translate(200.474 116.902)"><tspan x="-134.788" y="0">Card Amount</tspan></text></g><g transform="translate(8921 15977)"><g class="g"><rect class="k" width="400" height="200" rx="15"/><rect class="m" x="0.5" y="0.5" width="399" height="199" rx="14.5"/></g><text class="h" transform="translate(200.474 116.902)"><tspan x="-125.016" y="0">Final Card(s)</tspan></text></g><g transform="translate(6581 15927)"><g class="i"><path class="k" d="M 210 299.3855590820313 L 0.8602105379104614 150 L 210 0.6144360899925232 L 419.1398010253906 150 L 210 299.3855590820313 Z"/><path class="l" d="M 210 1.228912353515625 L 1.720489501953125 150 L 210 298.7710876464844 L 418.2795104980469 150 L 210 1.228912353515625 M 210 0 L 420 150 L 210 300 L 0 150 L 210 0 Z"/></g><text class="h" transform="translate(210 138)"><tspan x="-86.933" y="0">National</tspan><tspan x="-114.505" y="57">Certificate?</tspan></text></g><g transform="translate(7801 15927)"><g class="i"><path class="k" d="M 210 299.3855590820313 L 0.8602105379104614 150 L 210 0.6144360899925232 L 419.1398010253906 150 L 210 299.3855590820313 Z"/><path class="l" d="M 210 1.228912353515625 L 1.720489501953125 150 L 210 298.7710876464844 L 418.2795104980469 150 L 210 1.228912353515625 M 210 0 L 420 150 L 210 300 L 0 150 L 210 0 Z"/></g><text class="h" transform="translate(210 167)"><tspan x="-153.132" y="0">Card available?</tspan></text></g><text class="d" transform="translate(6996 15766)"><tspan x="-25.093" y="0">No</tspan></text><text class="d" transform="translate(7701 16326)"><tspan x="-25.093" y="0">No</tspan></text></g><text class="j" transform="translate(50 161)"><tspan x="0" y="0">Program Card Retrieval Workflow</tspan></text></g></svg>