<svg width="1450" height="1045" viewBox="0 0 1450 1045" fill="none" xmlns="http://www.w3.org/2000/svg">
<rect width="1450" height="1045" fill="white"/>
<path d="M917.344 523.46L917.336 520.96L917.336 520.96L917.344 523.46ZM902.727 521.738C901.753 522.717 901.758 524.3 902.738 525.273L918.697 541.133C919.677 542.107 921.26 542.102 922.233 541.122C923.206 540.143 923.201 538.56 922.222 537.587L908.036 523.489L922.133 509.303C923.107 508.323 923.102 506.74 922.122 505.767C921.143 504.794 919.56 504.799 918.587 505.778L902.727 521.738ZM917.5 919L917.5 921.5L917.5 919ZM967.5 869L970 869L970 869L967.5 869ZM967.5 573.46L965 573.46L967.5 573.46ZM917.336 520.96L904.492 521L904.508 526L917.352 525.96L917.336 520.96ZM901.5 921.5L917.5 921.5L917.5 916.5L901.5 916.5L901.5 921.5ZM970 869L970 573.46L965 573.46L965 869L970 869ZM917.5 921.5C946.495 921.5 970 897.995 970 869L965 869C965 895.234 943.734 916.5 917.5 916.5L917.5 921.5ZM917.352 525.96C943.643 525.878 965 547.168 965 573.46L970 573.46C970 544.401 946.395 520.869 917.336 520.96L917.352 525.96Z" fill="#1A1A1A"/>
<rect x="550" y="73" width="350" height="120" rx="40" fill="#0D5692"/>
<path d="M675.711 140.021C675.711 142.307 674.885 144.1 673.232 145.4C671.58 146.701 669.301 147.352 666.395 147.352C663.488 147.352 661.109 146.9 659.258 145.998V142.025C660.43 142.576 661.672 143.01 662.984 143.326C664.309 143.643 665.539 143.801 666.676 143.801C668.34 143.801 669.564 143.484 670.35 142.852C671.146 142.219 671.545 141.369 671.545 140.303C671.545 139.342 671.182 138.527 670.455 137.859C669.729 137.191 668.229 136.4 665.955 135.486C663.611 134.537 661.959 133.453 660.998 132.234C660.037 131.016 659.557 129.551 659.557 127.84C659.557 125.695 660.318 124.008 661.842 122.777C663.365 121.547 665.41 120.932 667.977 120.932C670.438 120.932 672.887 121.471 675.324 122.549L673.988 125.977C671.703 125.016 669.664 124.535 667.871 124.535C666.512 124.535 665.48 124.834 664.777 125.432C664.074 126.018 663.723 126.797 663.723 127.77C663.723 128.438 663.863 129.012 664.145 129.492C664.426 129.961 664.889 130.406 665.533 130.828C666.178 131.25 667.338 131.807 669.014 132.498C670.9 133.283 672.283 134.016 673.162 134.695C674.041 135.375 674.686 136.143 675.096 136.998C675.506 137.854 675.711 138.861 675.711 140.021ZM688.086 147.352C685.145 147.352 682.906 146.496 681.371 144.785C679.848 143.062 679.086 140.596 679.086 137.385C679.086 134.115 679.883 131.602 681.477 129.844C683.082 128.086 685.396 127.207 688.42 127.207C690.471 127.207 692.316 127.588 693.957 128.35L692.709 131.672C690.963 130.992 689.521 130.652 688.385 130.652C685.021 130.652 683.34 132.885 683.34 137.35C683.34 139.529 683.756 141.17 684.588 142.271C685.432 143.361 686.662 143.906 688.279 143.906C690.119 143.906 691.859 143.449 693.5 142.535V146.139C692.762 146.572 691.971 146.883 691.127 147.07C690.295 147.258 689.281 147.352 688.086 147.352ZM715.314 137.244C715.314 140.42 714.5 142.898 712.871 144.68C711.242 146.461 708.975 147.352 706.068 147.352C704.252 147.352 702.646 146.941 701.252 146.121C699.857 145.301 698.785 144.123 698.035 142.588C697.285 141.053 696.91 139.271 696.91 137.244C696.91 134.092 697.719 131.631 699.336 129.861C700.953 128.092 703.232 127.207 706.174 127.207C708.986 127.207 711.213 128.115 712.854 129.932C714.494 131.736 715.314 134.174 715.314 137.244ZM701.164 137.244C701.164 141.732 702.822 143.977 706.139 143.977C709.42 143.977 711.061 141.732 711.061 137.244C711.061 132.803 709.408 130.582 706.104 130.582C704.369 130.582 703.109 131.156 702.324 132.305C701.551 133.453 701.164 135.1 701.164 137.244ZM729.939 147.352C727.479 147.352 725.568 146.467 724.209 144.697H723.963C724.127 146.338 724.209 147.334 724.209 147.686V155.648H720.078V127.559H723.418C723.512 127.922 723.705 128.789 723.998 130.16H724.209C725.498 128.191 727.432 127.207 730.01 127.207C732.436 127.207 734.322 128.086 735.67 129.844C737.029 131.602 737.709 134.068 737.709 137.244C737.709 140.42 737.018 142.898 735.635 144.68C734.264 146.461 732.365 147.352 729.939 147.352ZM728.938 130.582C727.297 130.582 726.096 131.062 725.334 132.023C724.584 132.984 724.209 134.52 724.209 136.629V137.244C724.209 139.611 724.584 141.328 725.334 142.395C726.084 143.449 727.309 143.977 729.008 143.977C730.438 143.977 731.539 143.391 732.312 142.219C733.086 141.047 733.473 139.377 733.473 137.209C733.473 135.029 733.086 133.383 732.312 132.27C731.551 131.145 730.426 130.582 728.938 130.582ZM746.639 147H742.508V127.559H746.639V147ZM742.262 122.408C742.262 121.67 742.461 121.102 742.859 120.703C743.27 120.305 743.85 120.105 744.6 120.105C745.326 120.105 745.889 120.305 746.287 120.703C746.697 121.102 746.902 121.67 746.902 122.408C746.902 123.111 746.697 123.668 746.287 124.078C745.889 124.477 745.326 124.676 744.6 124.676C743.85 124.676 743.27 124.477 742.859 124.078C742.461 123.668 742.262 123.111 742.262 122.408ZM769.666 147H765.518V135.047C765.518 133.547 765.213 132.428 764.604 131.689C764.006 130.951 763.051 130.582 761.738 130.582C759.992 130.582 758.715 131.098 757.906 132.129C757.098 133.16 756.693 134.889 756.693 137.314V147H752.562V127.559H755.797L756.377 130.107H756.588C757.174 129.182 758.006 128.467 759.084 127.963C760.162 127.459 761.357 127.207 762.67 127.207C767.334 127.207 769.666 129.58 769.666 134.326V147ZM791.832 127.559V129.826L788.51 130.441C788.814 130.852 789.066 131.355 789.266 131.953C789.465 132.551 789.564 133.184 789.564 133.852C789.564 135.855 788.873 137.432 787.49 138.58C786.107 139.729 784.203 140.303 781.777 140.303C781.156 140.303 780.594 140.256 780.09 140.162C779.199 140.713 778.754 141.357 778.754 142.096C778.754 142.541 778.959 142.875 779.369 143.098C779.791 143.32 780.559 143.432 781.672 143.432H785.064C787.209 143.432 788.838 143.889 789.951 144.803C791.064 145.717 791.621 147.035 791.621 148.758C791.621 150.961 790.713 152.66 788.896 153.855C787.08 155.051 784.455 155.648 781.021 155.648C778.373 155.648 776.352 155.18 774.957 154.242C773.562 153.305 772.865 151.969 772.865 150.234C772.865 149.039 773.24 148.031 773.99 147.211C774.752 146.402 775.812 145.84 777.172 145.523C776.621 145.289 776.164 144.914 775.801 144.398C775.449 143.871 775.273 143.32 775.273 142.746C775.273 142.02 775.479 141.404 775.889 140.9C776.299 140.396 776.908 139.898 777.717 139.406C776.709 138.973 775.889 138.27 775.256 137.297C774.635 136.312 774.324 135.164 774.324 133.852C774.324 131.742 774.986 130.107 776.311 128.947C777.646 127.787 779.545 127.207 782.006 127.207C782.557 127.207 783.131 127.248 783.729 127.33C784.338 127.4 784.795 127.477 785.1 127.559H791.832ZM776.557 150.023C776.557 150.914 776.955 151.6 777.752 152.08C778.561 152.561 779.691 152.801 781.145 152.801C783.395 152.801 785.07 152.479 786.172 151.834C787.273 151.189 787.824 150.334 787.824 149.268C787.824 148.424 787.52 147.82 786.91 147.457C786.312 147.105 785.193 146.93 783.553 146.93H780.424C779.24 146.93 778.297 147.205 777.594 147.756C776.902 148.318 776.557 149.074 776.557 150.023ZM778.332 133.852C778.332 135.07 778.643 136.008 779.264 136.664C779.896 137.32 780.799 137.648 781.971 137.648C784.361 137.648 785.557 136.371 785.557 133.816C785.557 132.551 785.258 131.578 784.66 130.898C784.074 130.207 783.178 129.861 781.971 129.861C780.775 129.861 779.867 130.201 779.246 130.881C778.637 131.561 778.332 132.551 778.332 133.852Z" fill="white"/>
<rect x="550" y="268" width="350" height="120" rx="40" fill="#0D5692"/>
<path d="M624.014 316.301V332.93C624.014 334.828 623.604 336.492 622.783 337.922C621.975 339.34 620.797 340.436 619.25 341.209C617.715 341.971 615.875 342.352 613.73 342.352C610.543 342.352 608.064 341.508 606.295 339.82C604.525 338.133 603.641 335.812 603.641 332.859V316.301H607.859V332.561C607.859 334.682 608.352 336.246 609.336 337.254C610.32 338.262 611.832 338.766 613.871 338.766C617.832 338.766 619.812 336.686 619.812 332.525V316.301H624.014ZM643.209 336.463C643.209 338.361 642.518 339.82 641.135 340.84C639.752 341.848 637.771 342.352 635.193 342.352C632.604 342.352 630.523 341.959 628.953 341.174V337.605C631.238 338.66 633.365 339.188 635.334 339.188C637.877 339.188 639.148 338.42 639.148 336.885C639.148 336.393 639.008 335.982 638.727 335.654C638.445 335.326 637.982 334.986 637.338 334.635C636.693 334.283 635.797 333.885 634.648 333.439C632.41 332.572 630.893 331.705 630.096 330.838C629.311 329.971 628.918 328.846 628.918 327.463C628.918 325.799 629.586 324.51 630.922 323.596C632.27 322.67 634.098 322.207 636.406 322.207C638.691 322.207 640.854 322.67 642.893 323.596L641.557 326.707C639.459 325.84 637.695 325.406 636.266 325.406C634.086 325.406 632.996 326.027 632.996 327.27C632.996 327.879 633.277 328.395 633.84 328.816C634.414 329.238 635.656 329.818 637.566 330.557C639.172 331.178 640.338 331.746 641.064 332.262C641.791 332.777 642.33 333.375 642.682 334.055C643.033 334.723 643.209 335.525 643.209 336.463ZM656.182 342.352C653.158 342.352 650.791 341.473 649.08 339.715C647.381 337.945 646.531 335.514 646.531 332.42C646.531 329.244 647.322 326.748 648.904 324.932C650.486 323.115 652.66 322.207 655.426 322.207C657.992 322.207 660.02 322.986 661.508 324.545C662.996 326.104 663.74 328.248 663.74 330.979V333.211H650.785C650.844 335.098 651.354 336.551 652.314 337.57C653.275 338.578 654.629 339.082 656.375 339.082C657.523 339.082 658.59 338.977 659.574 338.766C660.57 338.543 661.637 338.18 662.773 337.676V341.033C661.766 341.514 660.746 341.854 659.715 342.053C658.684 342.252 657.506 342.352 656.182 342.352ZM655.426 325.336C654.113 325.336 653.059 325.752 652.262 326.584C651.477 327.416 651.008 328.629 650.855 330.223H659.68C659.656 328.617 659.27 327.404 658.52 326.584C657.77 325.752 656.738 325.336 655.426 325.336ZM678.295 322.207C679.127 322.207 679.812 322.266 680.352 322.383L679.947 326.232C679.361 326.092 678.752 326.021 678.119 326.021C676.467 326.021 675.125 326.561 674.094 327.639C673.074 328.717 672.564 330.117 672.564 331.84V342H668.434V322.559H671.668L672.213 325.986H672.424C673.068 324.826 673.906 323.906 674.938 323.227C675.98 322.547 677.1 322.207 678.295 322.207ZM697.965 328.254H700.883C702.84 328.254 704.258 327.891 705.137 327.164C706.016 326.438 706.455 325.359 706.455 323.93C706.455 322.477 705.98 321.434 705.031 320.801C704.082 320.168 702.652 319.852 700.742 319.852H697.965V328.254ZM697.965 331.734V342H693.764V316.301H701.023C704.34 316.301 706.795 316.922 708.389 318.164C709.982 319.406 710.779 321.281 710.779 323.789C710.779 326.988 709.115 329.268 705.787 330.627L713.047 342H708.266L702.113 331.734H697.965ZM724.842 342.352C721.818 342.352 719.451 341.473 717.74 339.715C716.041 337.945 715.191 335.514 715.191 332.42C715.191 329.244 715.982 326.748 717.564 324.932C719.146 323.115 721.32 322.207 724.086 322.207C726.652 322.207 728.68 322.986 730.168 324.545C731.656 326.104 732.4 328.248 732.4 330.979V333.211H719.445C719.504 335.098 720.014 336.551 720.975 337.57C721.936 338.578 723.289 339.082 725.035 339.082C726.184 339.082 727.25 338.977 728.234 338.766C729.23 338.543 730.297 338.18 731.434 337.676V341.033C730.426 341.514 729.406 341.854 728.375 342.053C727.344 342.252 726.166 342.352 724.842 342.352ZM724.086 325.336C722.773 325.336 721.719 325.752 720.922 326.584C720.137 327.416 719.668 328.629 719.516 330.223H728.34C728.316 328.617 727.93 327.404 727.18 326.584C726.43 325.752 725.398 325.336 724.086 325.336ZM750.154 336.463C750.154 338.361 749.463 339.82 748.08 340.84C746.697 341.848 744.717 342.352 742.139 342.352C739.549 342.352 737.469 341.959 735.898 341.174V337.605C738.184 338.66 740.311 339.188 742.279 339.188C744.822 339.188 746.094 338.42 746.094 336.885C746.094 336.393 745.953 335.982 745.672 335.654C745.391 335.326 744.928 334.986 744.283 334.635C743.639 334.283 742.742 333.885 741.594 333.439C739.355 332.572 737.838 331.705 737.041 330.838C736.256 329.971 735.863 328.846 735.863 327.463C735.863 325.799 736.531 324.51 737.867 323.596C739.215 322.67 741.043 322.207 743.352 322.207C745.637 322.207 747.799 322.67 749.838 323.596L748.502 326.707C746.404 325.84 744.641 325.406 743.211 325.406C741.031 325.406 739.941 326.027 739.941 327.27C739.941 327.879 740.223 328.395 740.785 328.816C741.359 329.238 742.602 329.818 744.512 330.557C746.117 331.178 747.283 331.746 748.01 332.262C748.736 332.777 749.275 333.375 749.627 334.055C749.979 334.723 750.154 335.525 750.154 336.463ZM763.127 342.352C760.104 342.352 757.736 341.473 756.025 339.715C754.326 337.945 753.477 335.514 753.477 332.42C753.477 329.244 754.268 326.748 755.85 324.932C757.432 323.115 759.605 322.207 762.371 322.207C764.938 322.207 766.965 322.986 768.453 324.545C769.941 326.104 770.686 328.248 770.686 330.979V333.211H757.73C757.789 335.098 758.299 336.551 759.26 337.57C760.221 338.578 761.574 339.082 763.32 339.082C764.469 339.082 765.535 338.977 766.52 338.766C767.516 338.543 768.582 338.18 769.719 337.676V341.033C768.711 341.514 767.691 341.854 766.66 342.053C765.629 342.252 764.451 342.352 763.127 342.352ZM762.371 325.336C761.059 325.336 760.004 325.752 759.207 326.584C758.422 327.416 757.953 328.629 757.801 330.223H766.625C766.602 328.617 766.215 327.404 765.465 326.584C764.715 325.752 763.684 325.336 762.371 325.336ZM787.543 342L786.717 339.293H786.576C785.639 340.477 784.695 341.285 783.746 341.719C782.797 342.141 781.578 342.352 780.09 342.352C778.18 342.352 776.686 341.836 775.607 340.805C774.541 339.773 774.008 338.314 774.008 336.428C774.008 334.424 774.752 332.912 776.24 331.893C777.729 330.873 779.996 330.316 783.043 330.223L786.4 330.117V329.08C786.4 327.838 786.107 326.912 785.521 326.303C784.947 325.682 784.051 325.371 782.832 325.371C781.836 325.371 780.881 325.518 779.967 325.811C779.053 326.104 778.174 326.449 777.33 326.848L775.994 323.895C777.049 323.344 778.203 322.928 779.457 322.646C780.711 322.354 781.895 322.207 783.008 322.207C785.48 322.207 787.344 322.746 788.598 323.824C789.863 324.902 790.496 326.596 790.496 328.904V342H787.543ZM781.391 339.188C782.891 339.188 784.092 338.771 784.994 337.939C785.908 337.096 786.365 335.918 786.365 334.406V332.719L783.869 332.824C781.924 332.895 780.506 333.223 779.615 333.809C778.736 334.383 778.297 335.268 778.297 336.463C778.297 337.33 778.555 338.004 779.07 338.484C779.586 338.953 780.359 339.188 781.391 339.188ZM806.123 322.207C806.955 322.207 807.641 322.266 808.18 322.383L807.775 326.232C807.189 326.092 806.58 326.021 805.947 326.021C804.295 326.021 802.953 326.561 801.922 327.639C800.902 328.717 800.393 330.117 800.393 331.84V342H796.262V322.559H799.496L800.041 325.986H800.252C800.896 324.826 801.734 323.906 802.766 323.227C803.809 322.547 804.928 322.207 806.123 322.207ZM819.641 342.352C816.699 342.352 814.461 341.496 812.926 339.785C811.402 338.062 810.641 335.596 810.641 332.385C810.641 329.115 811.438 326.602 813.031 324.844C814.637 323.086 816.951 322.207 819.975 322.207C822.025 322.207 823.871 322.588 825.512 323.35L824.264 326.672C822.518 325.992 821.076 325.652 819.939 325.652C816.576 325.652 814.895 327.885 814.895 332.35C814.895 334.529 815.311 336.17 816.143 337.271C816.986 338.361 818.217 338.906 819.834 338.906C821.674 338.906 823.414 338.449 825.055 337.535V341.139C824.316 341.572 823.525 341.883 822.682 342.07C821.85 342.258 820.836 342.352 819.641 342.352ZM846.729 342H842.58V330.047C842.58 328.547 842.275 327.428 841.666 326.689C841.068 325.951 840.113 325.582 838.801 325.582C837.066 325.582 835.789 326.104 834.969 327.146C834.16 328.178 833.756 329.912 833.756 332.35V342H829.625V314.648H833.756V321.592C833.756 322.705 833.686 323.895 833.545 325.16H833.809C834.371 324.223 835.15 323.496 836.146 322.98C837.154 322.465 838.326 322.207 839.662 322.207C844.373 322.207 846.729 324.58 846.729 329.326V342Z" fill="white"/>
<rect x="550" y="463" width="350" height="120" rx="40" fill="#0D5692"/>
<path d="M630.359 537V511.301H634.561V537H630.359ZM657.307 537L654.74 529.863H644.914L642.4 537H637.971L647.586 511.195H652.156L661.771 537H657.307ZM653.633 526.242L651.225 519.246C651.049 518.777 650.803 518.039 650.486 517.031C650.182 516.023 649.971 515.285 649.854 514.816C649.537 516.258 649.074 517.834 648.465 519.545L646.145 526.242H653.633ZM685.625 537L678.172 515.537H678.031C678.23 518.725 678.33 521.713 678.33 524.502V537H674.516V511.301H680.439L687.576 531.744H687.682L695.029 511.301H700.971V537H696.928V524.291C696.928 523.014 696.957 521.35 697.016 519.299C697.086 517.248 697.145 516.006 697.191 515.572H697.051L689.334 537H685.625ZM719.463 537L718.637 534.293H718.496C717.559 535.477 716.615 536.285 715.666 536.719C714.717 537.141 713.498 537.352 712.01 537.352C710.1 537.352 708.605 536.836 707.527 535.805C706.461 534.773 705.928 533.314 705.928 531.428C705.928 529.424 706.672 527.912 708.16 526.893C709.648 525.873 711.916 525.316 714.963 525.223L718.32 525.117V524.08C718.32 522.838 718.027 521.912 717.441 521.303C716.867 520.682 715.971 520.371 714.752 520.371C713.756 520.371 712.801 520.518 711.887 520.811C710.973 521.104 710.094 521.449 709.25 521.848L707.914 518.895C708.969 518.344 710.123 517.928 711.377 517.646C712.631 517.354 713.814 517.207 714.928 517.207C717.4 517.207 719.264 517.746 720.518 518.824C721.783 519.902 722.416 521.596 722.416 523.904V537H719.463ZM713.311 534.188C714.811 534.188 716.012 533.771 716.914 532.939C717.828 532.096 718.285 530.918 718.285 529.406V527.719L715.789 527.824C713.844 527.895 712.426 528.223 711.535 528.809C710.656 529.383 710.217 530.268 710.217 531.463C710.217 532.33 710.475 533.004 710.99 533.484C711.506 533.953 712.279 534.188 713.311 534.188ZM738.043 537.352C735.582 537.352 733.672 536.467 732.312 534.697H732.066C732.23 536.338 732.312 537.334 732.312 537.686V545.648H728.182V517.559H731.521C731.615 517.922 731.809 518.789 732.102 520.16H732.312C733.602 518.191 735.535 517.207 738.113 517.207C740.539 517.207 742.426 518.086 743.773 519.844C745.133 521.602 745.812 524.068 745.812 527.244C745.812 530.42 745.121 532.898 743.738 534.68C742.367 536.461 740.469 537.352 738.043 537.352ZM737.041 520.582C735.4 520.582 734.199 521.062 733.438 522.023C732.688 522.984 732.312 524.52 732.312 526.629V527.244C732.312 529.611 732.688 531.328 733.438 532.395C734.188 533.449 735.412 533.977 737.111 533.977C738.541 533.977 739.643 533.391 740.416 532.219C741.189 531.047 741.576 529.377 741.576 527.209C741.576 525.029 741.189 523.383 740.416 522.27C739.654 521.145 738.529 520.582 737.041 520.582ZM760.473 537.352C758.012 537.352 756.102 536.467 754.742 534.697H754.496C754.66 536.338 754.742 537.334 754.742 537.686V545.648H750.611V517.559H753.951C754.045 517.922 754.238 518.789 754.531 520.16H754.742C756.031 518.191 757.965 517.207 760.543 517.207C762.969 517.207 764.855 518.086 766.203 519.844C767.562 521.602 768.242 524.068 768.242 527.244C768.242 530.42 767.551 532.898 766.168 534.68C764.797 536.461 762.898 537.352 760.473 537.352ZM759.471 520.582C757.83 520.582 756.629 521.062 755.867 522.023C755.117 522.984 754.742 524.52 754.742 526.629V527.244C754.742 529.611 755.117 531.328 755.867 532.395C756.617 533.449 757.842 533.977 759.541 533.977C760.971 533.977 762.072 533.391 762.846 532.219C763.619 531.047 764.006 529.377 764.006 527.209C764.006 525.029 763.619 523.383 762.846 522.27C762.084 521.145 760.959 520.582 759.471 520.582ZM777.172 537H773.041V517.559H777.172V537ZM772.795 512.408C772.795 511.67 772.994 511.102 773.393 510.703C773.803 510.305 774.383 510.105 775.133 510.105C775.859 510.105 776.422 510.305 776.82 510.703C777.23 511.102 777.436 511.67 777.436 512.408C777.436 513.111 777.23 513.668 776.82 514.078C776.422 514.477 775.859 514.676 775.133 514.676C774.383 514.676 773.803 514.477 773.393 514.078C772.994 513.668 772.795 513.111 772.795 512.408ZM800.199 537H796.051V525.047C796.051 523.547 795.746 522.428 795.137 521.689C794.539 520.951 793.584 520.582 792.271 520.582C790.525 520.582 789.248 521.098 788.439 522.129C787.631 523.16 787.227 524.889 787.227 527.314V537H783.096V517.559H786.33L786.91 520.107H787.121C787.707 519.182 788.539 518.467 789.617 517.963C790.695 517.459 791.891 517.207 793.203 517.207C797.867 517.207 800.199 519.58 800.199 524.326V537ZM822.365 517.559V519.826L819.043 520.441C819.348 520.852 819.6 521.355 819.799 521.953C819.998 522.551 820.098 523.184 820.098 523.852C820.098 525.855 819.406 527.432 818.023 528.58C816.641 529.729 814.736 530.303 812.311 530.303C811.689 530.303 811.127 530.256 810.623 530.162C809.732 530.713 809.287 531.357 809.287 532.096C809.287 532.541 809.492 532.875 809.902 533.098C810.324 533.32 811.092 533.432 812.205 533.432H815.598C817.742 533.432 819.371 533.889 820.484 534.803C821.598 535.717 822.154 537.035 822.154 538.758C822.154 540.961 821.246 542.66 819.43 543.855C817.613 545.051 814.988 545.648 811.555 545.648C808.906 545.648 806.885 545.18 805.49 544.242C804.096 543.305 803.398 541.969 803.398 540.234C803.398 539.039 803.773 538.031 804.523 537.211C805.285 536.402 806.346 535.84 807.705 535.523C807.154 535.289 806.697 534.914 806.334 534.398C805.982 533.871 805.807 533.32 805.807 532.746C805.807 532.02 806.012 531.404 806.422 530.9C806.832 530.396 807.441 529.898 808.25 529.406C807.242 528.973 806.422 528.27 805.789 527.297C805.168 526.312 804.857 525.164 804.857 523.852C804.857 521.742 805.52 520.107 806.844 518.947C808.18 517.787 810.078 517.207 812.539 517.207C813.09 517.207 813.664 517.248 814.262 517.33C814.871 517.4 815.328 517.477 815.633 517.559H822.365ZM807.09 540.023C807.09 540.914 807.488 541.6 808.285 542.08C809.094 542.561 810.225 542.801 811.678 542.801C813.928 542.801 815.604 542.479 816.705 541.834C817.807 541.189 818.357 540.334 818.357 539.268C818.357 538.424 818.053 537.82 817.443 537.457C816.846 537.105 815.727 536.93 814.086 536.93H810.957C809.773 536.93 808.83 537.205 808.127 537.756C807.436 538.318 807.09 539.074 807.09 540.023ZM808.865 523.852C808.865 525.07 809.176 526.008 809.797 526.664C810.43 527.32 811.332 527.648 812.504 527.648C814.895 527.648 816.09 526.371 816.09 523.816C816.09 522.551 815.791 521.578 815.193 520.898C814.607 520.207 813.711 519.861 812.504 519.861C811.309 519.861 810.4 520.201 809.779 520.881C809.17 521.561 808.865 522.551 808.865 523.852Z" fill="white"/>
<rect x="550" y="658" width="350" height="120" rx="40" fill="#0D5692"/>
<path d="M643.051 714.07C643.051 716.754 642.172 718.811 640.414 720.24C638.656 721.67 636.154 722.385 632.908 722.385H630.236V732H626.035V706.301H633.436C636.646 706.301 639.049 706.957 640.643 708.27C642.248 709.582 643.051 711.516 643.051 714.07ZM630.236 718.852H632.469C634.625 718.852 636.207 718.477 637.215 717.727C638.223 716.977 638.727 715.805 638.727 714.211C638.727 712.734 638.275 711.633 637.373 710.906C636.471 710.18 635.064 709.816 633.154 709.816H630.236V718.852ZM657.605 712.207C658.438 712.207 659.123 712.266 659.662 712.383L659.258 716.232C658.672 716.092 658.062 716.021 657.43 716.021C655.777 716.021 654.436 716.561 653.404 717.639C652.385 718.717 651.875 720.117 651.875 721.84V732H647.744V712.559H650.979L651.523 715.986H651.734C652.379 714.826 653.217 713.906 654.248 713.227C655.291 712.547 656.41 712.207 657.605 712.207ZM680.527 722.244C680.527 725.42 679.713 727.898 678.084 729.68C676.455 731.461 674.188 732.352 671.281 732.352C669.465 732.352 667.859 731.941 666.465 731.121C665.07 730.301 663.998 729.123 663.248 727.588C662.498 726.053 662.123 724.271 662.123 722.244C662.123 719.092 662.932 716.631 664.549 714.861C666.166 713.092 668.445 712.207 671.387 712.207C674.199 712.207 676.426 713.115 678.066 714.932C679.707 716.736 680.527 719.174 680.527 722.244ZM666.377 722.244C666.377 726.732 668.035 728.977 671.352 728.977C674.633 728.977 676.273 726.732 676.273 722.244C676.273 717.803 674.621 715.582 671.316 715.582C669.582 715.582 668.322 716.156 667.537 717.305C666.764 718.453 666.377 720.1 666.377 722.244ZM692.533 729.012C693.541 729.012 694.549 728.854 695.557 728.537V731.648C695.1 731.848 694.508 732.012 693.781 732.141C693.066 732.281 692.322 732.352 691.549 732.352C687.635 732.352 685.678 730.289 685.678 726.164V715.688H683.023V713.859L685.871 712.348L687.277 708.234H689.826V712.559H695.363V715.688H689.826V726.094C689.826 727.09 690.072 727.828 690.564 728.309C691.068 728.777 691.725 729.012 692.533 729.012ZM716.703 722.244C716.703 725.42 715.889 727.898 714.26 729.68C712.631 731.461 710.363 732.352 707.457 732.352C705.641 732.352 704.035 731.941 702.641 731.121C701.246 730.301 700.174 729.123 699.424 727.588C698.674 726.053 698.299 724.271 698.299 722.244C698.299 719.092 699.107 716.631 700.725 714.861C702.342 713.092 704.621 712.207 707.562 712.207C710.375 712.207 712.602 713.115 714.242 714.932C715.883 716.736 716.703 719.174 716.703 722.244ZM702.553 722.244C702.553 726.732 704.211 728.977 707.527 728.977C710.809 728.977 712.449 726.732 712.449 722.244C712.449 717.803 710.797 715.582 707.492 715.582C705.758 715.582 704.498 716.156 703.713 717.305C702.939 718.453 702.553 720.1 702.553 722.244ZM728.709 729.012C729.717 729.012 730.725 728.854 731.732 728.537V731.648C731.275 731.848 730.684 732.012 729.957 732.141C729.242 732.281 728.498 732.352 727.725 732.352C723.811 732.352 721.854 730.289 721.854 726.164V715.688H719.199V713.859L722.047 712.348L723.453 708.234H726.002V712.559H731.539V715.688H726.002V726.094C726.002 727.09 726.248 727.828 726.74 728.309C727.244 728.777 727.9 729.012 728.709 729.012ZM732.682 712.559H737.182L741.137 723.58C741.734 725.15 742.133 726.627 742.332 728.01H742.473C742.578 727.365 742.771 726.586 743.053 725.672C743.334 724.746 744.822 720.375 747.518 712.559H751.982L743.668 734.584C742.156 738.627 739.637 740.648 736.109 740.648C735.195 740.648 734.305 740.549 733.438 740.35V737.08C734.059 737.221 734.768 737.291 735.564 737.291C737.557 737.291 738.957 736.137 739.766 733.828L740.486 732L732.682 712.559ZM764.797 732.352C762.336 732.352 760.426 731.467 759.066 729.697H758.82C758.984 731.338 759.066 732.334 759.066 732.686V740.648H754.936V712.559H758.275C758.369 712.922 758.562 713.789 758.855 715.16H759.066C760.355 713.191 762.289 712.207 764.867 712.207C767.293 712.207 769.18 713.086 770.527 714.844C771.887 716.602 772.566 719.068 772.566 722.244C772.566 725.42 771.875 727.898 770.492 729.68C769.121 731.461 767.223 732.352 764.797 732.352ZM763.795 715.582C762.154 715.582 760.953 716.062 760.191 717.023C759.441 717.984 759.066 719.52 759.066 721.629V722.244C759.066 724.611 759.441 726.328 760.191 727.395C760.941 728.449 762.166 728.977 763.865 728.977C765.295 728.977 766.396 728.391 767.17 727.219C767.943 726.047 768.33 724.377 768.33 722.209C768.33 720.029 767.943 718.383 767.17 717.27C766.408 716.145 765.283 715.582 763.795 715.582ZM781.496 732H777.365V712.559H781.496V732ZM777.119 707.408C777.119 706.67 777.318 706.102 777.717 705.703C778.127 705.305 778.707 705.105 779.457 705.105C780.184 705.105 780.746 705.305 781.145 705.703C781.555 706.102 781.76 706.67 781.76 707.408C781.76 708.111 781.555 708.668 781.145 709.078C780.746 709.477 780.184 709.676 779.457 709.676C778.707 709.676 778.127 709.477 777.717 709.078C777.318 708.668 777.119 708.111 777.119 707.408ZM804.523 732H800.375V720.047C800.375 718.547 800.07 717.428 799.461 716.689C798.863 715.951 797.908 715.582 796.596 715.582C794.85 715.582 793.572 716.098 792.764 717.129C791.955 718.16 791.551 719.889 791.551 722.314V732H787.42V712.559H790.654L791.234 715.107H791.445C792.031 714.182 792.863 713.467 793.941 712.963C795.02 712.459 796.215 712.207 797.527 712.207C802.191 712.207 804.523 714.58 804.523 719.326V732ZM826.689 712.559V714.826L823.367 715.441C823.672 715.852 823.924 716.355 824.123 716.953C824.322 717.551 824.422 718.184 824.422 718.852C824.422 720.855 823.73 722.432 822.348 723.58C820.965 724.729 819.061 725.303 816.635 725.303C816.014 725.303 815.451 725.256 814.947 725.162C814.057 725.713 813.611 726.357 813.611 727.096C813.611 727.541 813.816 727.875 814.227 728.098C814.648 728.32 815.416 728.432 816.529 728.432H819.922C822.066 728.432 823.695 728.889 824.809 729.803C825.922 730.717 826.479 732.035 826.479 733.758C826.479 735.961 825.57 737.66 823.754 738.855C821.938 740.051 819.312 740.648 815.879 740.648C813.23 740.648 811.209 740.18 809.814 739.242C808.42 738.305 807.723 736.969 807.723 735.234C807.723 734.039 808.098 733.031 808.848 732.211C809.609 731.402 810.67 730.84 812.029 730.523C811.479 730.289 811.021 729.914 810.658 729.398C810.307 728.871 810.131 728.32 810.131 727.746C810.131 727.02 810.336 726.404 810.746 725.9C811.156 725.396 811.766 724.898 812.574 724.406C811.566 723.973 810.746 723.27 810.113 722.297C809.492 721.312 809.182 720.164 809.182 718.852C809.182 716.742 809.844 715.107 811.168 713.947C812.504 712.787 814.402 712.207 816.863 712.207C817.414 712.207 817.988 712.248 818.586 712.33C819.195 712.4 819.652 712.477 819.957 712.559H826.689ZM811.414 735.023C811.414 735.914 811.812 736.6 812.609 737.08C813.418 737.561 814.549 737.801 816.002 737.801C818.252 737.801 819.928 737.479 821.029 736.834C822.131 736.189 822.682 735.334 822.682 734.268C822.682 733.424 822.377 732.82 821.768 732.457C821.17 732.105 820.051 731.93 818.41 731.93H815.281C814.098 731.93 813.154 732.205 812.451 732.756C811.76 733.318 811.414 734.074 811.414 735.023ZM813.189 718.852C813.189 720.07 813.5 721.008 814.121 721.664C814.754 722.32 815.656 722.648 816.828 722.648C819.219 722.648 820.414 721.371 820.414 718.816C820.414 717.551 820.115 716.578 819.518 715.898C818.932 715.207 818.035 714.861 816.828 714.861C815.633 714.861 814.725 715.201 814.104 715.881C813.494 716.561 813.189 717.551 813.189 718.852Z" fill="white"/>
<rect x="550" y="853" width="350" height="120" rx="40" fill="#0D5692"/>
<path d="M605.363 901.301V917.93C605.363 919.828 604.953 921.492 604.133 922.922C603.324 924.34 602.146 925.436 600.6 926.209C599.064 926.971 597.225 927.352 595.08 927.352C591.893 927.352 589.414 926.508 587.645 924.82C585.875 923.133 584.99 920.812 584.99 917.859V901.301H589.209V917.561C589.209 919.682 589.701 921.246 590.686 922.254C591.67 923.262 593.182 923.766 595.221 923.766C599.182 923.766 601.162 921.686 601.162 917.525V901.301H605.363ZM624.559 921.463C624.559 923.361 623.867 924.82 622.484 925.84C621.102 926.848 619.121 927.352 616.543 927.352C613.953 927.352 611.873 926.959 610.303 926.174V922.605C612.588 923.66 614.715 924.188 616.684 924.188C619.227 924.188 620.498 923.42 620.498 921.885C620.498 921.393 620.357 920.982 620.076 920.654C619.795 920.326 619.332 919.986 618.688 919.635C618.043 919.283 617.146 918.885 615.998 918.439C613.76 917.572 612.242 916.705 611.445 915.838C610.66 914.971 610.268 913.846 610.268 912.463C610.268 910.799 610.936 909.51 612.271 908.596C613.619 907.67 615.447 907.207 617.756 907.207C620.041 907.207 622.203 907.67 624.242 908.596L622.906 911.707C620.809 910.84 619.045 910.406 617.615 910.406C615.436 910.406 614.346 911.027 614.346 912.27C614.346 912.879 614.627 913.395 615.189 913.816C615.764 914.238 617.006 914.818 618.916 915.557C620.521 916.178 621.688 916.746 622.414 917.262C623.141 917.777 623.68 918.375 624.031 919.055C624.383 919.723 624.559 920.525 624.559 921.463ZM641.205 927L640.379 924.293H640.238C639.301 925.477 638.357 926.285 637.408 926.719C636.459 927.141 635.24 927.352 633.752 927.352C631.842 927.352 630.348 926.836 629.27 925.805C628.203 924.773 627.67 923.314 627.67 921.428C627.67 919.424 628.414 917.912 629.902 916.893C631.391 915.873 633.658 915.316 636.705 915.223L640.062 915.117V914.08C640.062 912.838 639.77 911.912 639.184 911.303C638.609 910.682 637.713 910.371 636.494 910.371C635.498 910.371 634.543 910.518 633.629 910.811C632.715 911.104 631.836 911.449 630.992 911.848L629.656 908.895C630.711 908.344 631.865 907.928 633.119 907.646C634.373 907.354 635.557 907.207 636.67 907.207C639.143 907.207 641.006 907.746 642.26 908.824C643.525 909.902 644.158 911.596 644.158 913.904V927H641.205ZM635.053 924.188C636.553 924.188 637.754 923.771 638.656 922.939C639.57 922.096 640.027 920.918 640.027 919.406V917.719L637.531 917.824C635.586 917.895 634.168 918.223 633.277 918.809C632.398 919.383 631.959 920.268 631.959 921.463C631.959 922.33 632.217 923.004 632.732 923.484C633.248 923.953 634.021 924.188 635.053 924.188ZM659.855 907.207C662.281 907.207 664.168 908.086 665.516 909.844C666.875 911.602 667.555 914.068 667.555 917.244C667.555 920.432 666.869 922.916 665.498 924.697C664.127 926.467 662.223 927.352 659.785 927.352C657.324 927.352 655.414 926.467 654.055 924.697H653.773L653.018 927H649.924V899.648H654.055V906.152C654.055 906.633 654.031 907.348 653.984 908.297C653.938 909.246 653.902 909.85 653.879 910.107H654.055C655.367 908.174 657.301 907.207 659.855 907.207ZM658.783 910.582C657.119 910.582 655.918 911.074 655.18 912.059C654.453 913.031 654.078 914.666 654.055 916.963V917.244C654.055 919.611 654.43 921.328 655.18 922.395C655.93 923.449 657.154 923.977 658.854 923.977C660.318 923.977 661.426 923.396 662.176 922.236C662.938 921.076 663.318 919.4 663.318 917.209C663.318 912.791 661.807 910.582 658.783 910.582ZM676.484 927H672.354V907.559H676.484V927ZM672.107 902.408C672.107 901.67 672.307 901.102 672.705 900.703C673.115 900.305 673.695 900.105 674.445 900.105C675.172 900.105 675.734 900.305 676.133 900.703C676.543 901.102 676.748 901.67 676.748 902.408C676.748 903.111 676.543 903.668 676.133 904.078C675.734 904.477 675.172 904.676 674.445 904.676C673.695 904.676 673.115 904.477 672.705 904.078C672.307 903.668 672.107 903.111 672.107 902.408ZM686.539 927H682.408V899.648H686.539V927ZM696.594 927H692.463V907.559H696.594V927ZM692.217 902.408C692.217 901.67 692.416 901.102 692.814 900.703C693.225 900.305 693.805 900.105 694.555 900.105C695.281 900.105 695.844 900.305 696.242 900.703C696.652 901.102 696.857 901.67 696.857 902.408C696.857 903.111 696.652 903.668 696.242 904.078C695.844 904.477 695.281 904.676 694.555 904.676C693.805 904.676 693.225 904.477 692.814 904.078C692.416 903.668 692.217 903.111 692.217 902.408ZM709.76 924.012C710.768 924.012 711.775 923.854 712.783 923.537V926.648C712.326 926.848 711.734 927.012 711.008 927.141C710.293 927.281 709.549 927.352 708.775 927.352C704.861 927.352 702.904 925.289 702.904 921.164V910.688H700.25V908.859L703.098 907.348L704.504 903.234H707.053V907.559H712.59V910.688H707.053V921.094C707.053 922.09 707.299 922.828 707.791 923.309C708.295 923.777 708.951 924.012 709.76 924.012ZM713.732 907.559H718.232L722.188 918.58C722.785 920.15 723.184 921.627 723.383 923.01H723.523C723.629 922.365 723.822 921.586 724.104 920.672C724.385 919.746 725.873 915.375 728.568 907.559H733.033L724.719 929.584C723.207 933.627 720.688 935.648 717.16 935.648C716.246 935.648 715.355 935.549 714.488 935.35V932.08C715.109 932.221 715.818 932.291 716.615 932.291C718.607 932.291 720.008 931.137 720.816 928.828L721.537 927L713.732 907.559ZM754.654 927H750.453V904.904H742.895V901.301H762.213V904.904H754.654V927ZM774.219 927.352C771.195 927.352 768.828 926.473 767.117 924.715C765.418 922.945 764.568 920.514 764.568 917.42C764.568 914.244 765.359 911.748 766.941 909.932C768.523 908.115 770.697 907.207 773.463 907.207C776.029 907.207 778.057 907.986 779.545 909.545C781.033 911.104 781.777 913.248 781.777 915.979V918.211H768.822C768.881 920.098 769.391 921.551 770.352 922.57C771.312 923.578 772.666 924.082 774.412 924.082C775.561 924.082 776.627 923.977 777.611 923.766C778.607 923.543 779.674 923.18 780.811 922.676V926.033C779.803 926.514 778.783 926.854 777.752 927.053C776.721 927.252 775.543 927.352 774.219 927.352ZM773.463 910.336C772.15 910.336 771.096 910.752 770.299 911.584C769.514 912.416 769.045 913.629 768.893 915.223H777.717C777.693 913.617 777.307 912.404 776.557 911.584C775.807 910.752 774.775 910.336 773.463 910.336ZM799.531 921.463C799.531 923.361 798.84 924.82 797.457 925.84C796.074 926.848 794.094 927.352 791.516 927.352C788.926 927.352 786.846 926.959 785.275 926.174V922.605C787.561 923.66 789.688 924.188 791.656 924.188C794.199 924.188 795.471 923.42 795.471 921.885C795.471 921.393 795.33 920.982 795.049 920.654C794.768 920.326 794.305 919.986 793.66 919.635C793.016 919.283 792.119 918.885 790.971 918.439C788.732 917.572 787.215 916.705 786.418 915.838C785.633 914.971 785.24 913.846 785.24 912.463C785.24 910.799 785.908 909.51 787.244 908.596C788.592 907.67 790.42 907.207 792.729 907.207C795.014 907.207 797.176 907.67 799.215 908.596L797.879 911.707C795.781 910.84 794.018 910.406 792.588 910.406C790.408 910.406 789.318 911.027 789.318 912.27C789.318 912.879 789.6 913.395 790.162 913.816C790.736 914.238 791.979 914.818 793.889 915.557C795.494 916.178 796.66 916.746 797.387 917.262C798.113 917.777 798.652 918.375 799.004 919.055C799.355 919.723 799.531 920.525 799.531 921.463ZM811.256 924.012C812.264 924.012 813.271 923.854 814.279 923.537V926.648C813.822 926.848 813.23 927.012 812.504 927.141C811.789 927.281 811.045 927.352 810.271 927.352C806.357 927.352 804.4 925.289 804.4 921.164V910.688H801.746V908.859L804.594 907.348L806 903.234H808.549V907.559H814.086V910.688H808.549V921.094C808.549 922.09 808.795 922.828 809.287 923.309C809.791 923.777 810.447 924.012 811.256 924.012ZM822.312 927H818.182V907.559H822.312V927ZM817.936 902.408C817.936 901.67 818.135 901.102 818.533 900.703C818.943 900.305 819.523 900.105 820.273 900.105C821 900.105 821.562 900.305 821.961 900.703C822.371 901.102 822.576 901.67 822.576 902.408C822.576 903.111 822.371 903.668 821.961 904.078C821.562 904.477 821 904.676 820.273 904.676C819.523 904.676 818.943 904.477 818.533 904.078C818.135 903.668 817.936 903.111 817.936 902.408ZM845.34 927H841.191V915.047C841.191 913.547 840.887 912.428 840.277 911.689C839.68 910.951 838.725 910.582 837.412 910.582C835.666 910.582 834.389 911.098 833.58 912.129C832.771 913.16 832.367 914.889 832.367 917.314V927H828.236V907.559H831.471L832.051 910.107H832.262C832.848 909.182 833.68 908.467 834.758 907.963C835.836 907.459 837.031 907.207 838.344 907.207C843.008 907.207 845.34 909.58 845.34 914.326V927ZM867.506 907.559V909.826L864.184 910.441C864.488 910.852 864.74 911.355 864.939 911.953C865.139 912.551 865.238 913.184 865.238 913.852C865.238 915.855 864.547 917.432 863.164 918.58C861.781 919.729 859.877 920.303 857.451 920.303C856.83 920.303 856.268 920.256 855.764 920.162C854.873 920.713 854.428 921.357 854.428 922.096C854.428 922.541 854.633 922.875 855.043 923.098C855.465 923.32 856.232 923.432 857.346 923.432H860.738C862.883 923.432 864.512 923.889 865.625 924.803C866.738 925.717 867.295 927.035 867.295 928.758C867.295 930.961 866.387 932.66 864.57 933.855C862.754 935.051 860.129 935.648 856.695 935.648C854.047 935.648 852.025 935.18 850.631 934.242C849.236 933.305 848.539 931.969 848.539 930.234C848.539 929.039 848.914 928.031 849.664 927.211C850.426 926.402 851.486 925.84 852.846 925.523C852.295 925.289 851.838 924.914 851.475 924.398C851.123 923.871 850.947 923.32 850.947 922.746C850.947 922.02 851.152 921.404 851.562 920.9C851.973 920.396 852.582 919.898 853.391 919.406C852.383 918.973 851.562 918.27 850.93 917.297C850.309 916.312 849.998 915.164 849.998 913.852C849.998 911.742 850.66 910.107 851.984 908.947C853.32 907.787 855.219 907.207 857.68 907.207C858.23 907.207 858.805 907.248 859.402 907.33C860.012 907.4 860.469 907.477 860.773 907.559H867.506ZM852.23 930.023C852.23 930.914 852.629 931.6 853.426 932.08C854.234 932.561 855.365 932.801 856.818 932.801C859.068 932.801 860.744 932.479 861.846 931.834C862.947 931.189 863.498 930.334 863.498 929.268C863.498 928.424 863.193 927.82 862.584 927.457C861.986 927.105 860.867 926.93 859.227 926.93H856.098C854.914 926.93 853.971 927.205 853.268 927.756C852.576 928.318 852.23 929.074 852.23 930.023ZM854.006 913.852C854.006 915.07 854.316 916.008 854.938 916.664C855.57 917.32 856.473 917.648 857.645 917.648C860.035 917.648 861.23 916.371 861.23 913.816C861.23 912.551 860.932 911.578 860.334 910.898C859.748 910.207 858.852 909.861 857.645 909.861C856.449 909.861 855.541 910.201 854.92 910.881C854.311 911.561 854.006 912.551 854.006 913.852Z" fill="white"/>
<path d="M724.233 267.768C725.209 268.744 726.792 268.744 727.768 267.767L743.675 251.854C744.651 250.878 744.651 249.295 743.674 248.319C742.698 247.343 741.115 247.343 740.139 248.32L725.999 262.464L711.855 248.325C710.878 247.349 709.295 247.349 708.319 248.326C707.343 249.302 707.343 250.885 708.32 251.861L724.233 267.768ZM723.486 193.001L723.5 266L728.5 265.999L728.486 193L723.486 193.001Z" fill="#1A1A1A"/>
<path d="M723.537 462.768C724.514 463.744 726.097 463.744 727.073 462.767L742.98 446.854C743.956 445.878 743.956 444.295 742.979 443.319C742.003 442.343 740.42 442.343 739.444 443.32L725.304 457.464L711.159 443.325C710.183 442.349 708.6 442.349 707.624 443.326C706.648 444.302 706.648 445.885 707.624 446.861L723.537 462.768ZM722.791 388.001L722.805 461L727.805 460.999L727.791 388L722.791 388.001Z" fill="#1A1A1A"/>
<path d="M723.537 657.768C724.514 658.744 726.097 658.744 727.073 657.767L742.98 641.854C743.956 640.878 743.956 639.295 742.979 638.319C742.003 637.343 740.42 637.343 739.444 638.32L725.304 652.464L711.159 638.325C710.183 637.349 708.6 637.349 707.624 638.326C706.648 639.302 706.648 640.885 707.624 641.861L723.537 657.768ZM722.791 583.001L722.805 656L727.805 655.999L727.791 583L722.791 583.001Z" fill="#1A1A1A"/>
<path d="M723.537 852.768C724.514 853.744 726.097 853.744 727.073 852.767L742.98 836.854C743.956 835.878 743.956 834.295 742.979 833.319C742.003 832.343 740.42 832.343 739.444 833.32L725.304 847.464L711.159 833.325C710.183 832.349 708.6 832.349 707.624 833.326C706.648 834.302 706.648 835.885 707.624 836.861L723.537 852.768ZM722.791 778.001L722.805 851L727.805 850.999L727.791 778L722.791 778.001Z" fill="#1A1A1A"/>
</svg>
