<svg xmlns="http://www.w3.org/2000/svg" xmlns:xlink="http://www.w3.org/1999/xlink" width="2802" height="839" viewBox="0 0 2802 839"><defs><clipPath id="b"><rect width="2802" height="839"/></clipPath></defs><g id="a" clip-path="url(#b)"><rect width="2802" height="839" fill="#fff"/><g transform="translate(-6323 -15657)"><g transform="translate(-7.369 -5)"><line x2="198.369" transform="translate(6992.5 16082.117)" fill="none" stroke="#707070" stroke-width="3"/><path d="M10,0,20,19H0Z" transform="translate(7208.369 16072) rotate(90)" fill="#707070"/></g><g transform="translate(1208.5 -5)"><line x2="202.5" transform="translate(6992.5 16082.117)" fill="none" stroke="#707070" stroke-width="3"/><path d="M10,0,20,19H0Z" transform="translate(7212.5 16072) rotate(90)" fill="#707070"/></g><g transform="translate(592.631 -5)"><line x2="198.369" transform="translate(6992.5 16082.117)" fill="none" stroke="#707070" stroke-width="3"/><path d="M10,0,20,19H0Z" transform="translate(7208.369 16072) rotate(90)" fill="#707070"/></g><g transform="translate(7201 15977)"><g fill="#f5f5f5" stroke="#707070" stroke-width="1"><rect width="400" height="200" rx="15" stroke="none"/><rect x="0.5" y="0.5" width="399" height="199" rx="14.5" fill="none"/></g><path d="M-79.355-26.209A8.079,8.079,0,0,0-86-23.215q-2.42,2.994-2.42,8.265,0,5.517,2.328,8.347a8.221,8.221,0,0,0,6.737,2.83,17.7,17.7,0,0,0,3.691-.379q1.784-.379,3.712-.974v4.2a22.5,22.5,0,0,1-8,1.333q-6.583,0-10.11-3.989t-3.527-11.413a18.442,18.442,0,0,1,1.712-8.183,12.222,12.222,0,0,1,4.953-5.373,14.98,14.98,0,0,1,7.608-1.866,18.881,18.881,0,0,1,8.49,1.928L-72.587-24.4A26.333,26.333,0,0,0-75.8-25.666,11.563,11.563,0,0,0-79.355-26.209Zm33.469,14.827q0,5.558-2.851,8.675A10.214,10.214,0,0,1-56.673.41a10.874,10.874,0,0,1-5.619-1.436,9.477,9.477,0,0,1-3.753-4.122,14.039,14.039,0,0,1-1.312-6.234q0-5.517,2.83-8.613t7.978-3.1a9.992,9.992,0,0,1,7.793,3.168A12.239,12.239,0,0,1-45.886-11.382Zm-16.509,0q0,7.854,5.8,7.854,5.742,0,5.742-7.854,0-7.772-5.783-7.772a4.931,4.931,0,0,0-4.4,2.01A10.228,10.228,0,0,0-62.4-11.382ZM-21.236,0h-4.84V-13.986a6.342,6.342,0,0,0-.984-3.886,3.633,3.633,0,0,0-3.076-1.282,4.692,4.692,0,0,0-4.091,1.815q-1.3,1.815-1.3,6.04V0h-4.819V-22.682h3.773l.677,2.974h.246a6.284,6.284,0,0,1,2.738-2.5,8.828,8.828,0,0,1,3.948-.882q5.229,0,6.932,3.568h.328a6.914,6.914,0,0,1,2.83-2.625,8.982,8.982,0,0,1,4.184-.943q4.061,0,5.917,2.051t1.856,6.255V0h-4.819V-13.986a6.293,6.293,0,0,0-.995-3.886,3.662,3.662,0,0,0-3.086-1.282A4.784,4.784,0,0,0-19.934-17.4a9.038,9.038,0,0,0-1.3,5.383ZM11.31.41a7.944,7.944,0,0,1-6.686-3.1H4.337Q4.625.185,4.625.8v9.29H-.195V-22.682H3.7q.164.636.677,3.035h.246a7.55,7.55,0,0,1,6.768-3.445,7.872,7.872,0,0,1,6.614,3.076q2.369,3.076,2.369,8.634t-2.41,8.675A7.944,7.944,0,0,1,11.31.41ZM10.141-19.154a5.009,5.009,0,0,0-4.194,1.682Q4.625-15.791,4.625-12.1v.718q0,4.143,1.313,6a4.882,4.882,0,0,0,4.286,1.856,4.351,4.351,0,0,0,3.855-2.051,10.591,10.591,0,0,0,1.354-5.845A10.22,10.22,0,0,0,14.089-17.2,4.481,4.481,0,0,0,10.141-19.154ZM40.165,0,39.2-3.158h-.164a9.292,9.292,0,0,1-3.3,2.82A10.442,10.442,0,0,1,31.469.41a7.219,7.219,0,0,1-5.219-1.8A6.753,6.753,0,0,1,24.374-6.5a6,6,0,0,1,2.6-5.291q2.6-1.784,7.937-1.948l3.917-.123v-1.21a4.586,4.586,0,0,0-1.015-3.25A4.14,4.14,0,0,0,34.668-19.4a10.885,10.885,0,0,0-3.343.513,25.226,25.226,0,0,0-3.076,1.21l-1.559-3.445a16.774,16.774,0,0,1,4.04-1.466,18.593,18.593,0,0,1,4.143-.5q4.327,0,6.532,1.887t2.2,5.927V0ZM32.987-3.281A5.97,5.97,0,0,0,37.2-4.748a5.315,5.315,0,0,0,1.589-4.112v-1.969l-2.912.123a9.964,9.964,0,0,0-4.953,1.138A3.458,3.458,0,0,0,29.377-6.46a3.032,3.032,0,0,0,.9,2.348A3.877,3.877,0,0,0,32.987-3.281ZM70.291,0h-4.84V-13.945a6.1,6.1,0,0,0-1.056-3.917,4.082,4.082,0,0,0-3.353-1.292,5.331,5.331,0,0,0-4.471,1.8q-1.415,1.8-1.415,6.05V0H50.336V-22.682H54.11l.677,2.974h.246a6.71,6.71,0,0,1,2.912-2.5,9.759,9.759,0,0,1,4.184-.882q8.162,0,8.162,8.306Zm3.261-22.682H78.8L83.416-9.823A24.4,24.4,0,0,1,84.81-4.655h.164a21.556,21.556,0,0,1,.677-2.738Q86.143-9,90.86-22.682h5.209l-9.7,25.7Q83.723,10.09,77.55,10.09a13.878,13.878,0,0,1-3.117-.349V5.927a11.294,11.294,0,0,0,2.481.246q3.486,0,4.9-4.04L82.657,0ZM-117.694,57l-8.7-25.04h-.164q.349,5.578.349,10.459V57h-4.45V27.018h6.911l8.326,23.851h.123l8.572-23.851h6.932V57h-4.717V42.173q0-2.235.113-5.824T-104.2,32h-.164l-9,25Zm39.478,0-.964-3.158h-.164a9.292,9.292,0,0,1-3.3,2.82,10.442,10.442,0,0,1-4.266.749,7.219,7.219,0,0,1-5.219-1.8A6.753,6.753,0,0,1-94.008,50.5a6,6,0,0,1,2.6-5.291q2.6-1.784,7.937-1.948l3.917-.123v-1.21a4.586,4.586,0,0,0-1.015-3.25A4.14,4.14,0,0,0-83.713,37.6a10.885,10.885,0,0,0-3.343.513,25.226,25.226,0,0,0-3.076,1.21l-1.559-3.445a16.774,16.774,0,0,1,4.04-1.466,18.592,18.592,0,0,1,4.143-.5q4.327,0,6.532,1.887t2.2,5.927V57Zm-7.178-3.281a5.97,5.97,0,0,0,4.214-1.466,5.315,5.315,0,0,0,1.589-4.112V46.172l-2.912.123a9.964,9.964,0,0,0-4.953,1.138A3.458,3.458,0,0,0-89,50.54a3.032,3.032,0,0,0,.9,2.348A3.877,3.877,0,0,0-85.395,53.719ZM-48.091,57h-4.84V43.055a6.1,6.1,0,0,0-1.056-3.917,4.082,4.082,0,0,0-3.353-1.292,5.331,5.331,0,0,0-4.471,1.8q-1.415,1.8-1.415,6.05V57h-4.819V34.318h3.773l.677,2.974h.246a6.71,6.71,0,0,1,2.912-2.5,9.759,9.759,0,0,1,4.184-.882q8.162,0,8.162,8.306Zm20.9,0-.964-3.158h-.164a9.292,9.292,0,0,1-3.3,2.82,10.442,10.442,0,0,1-4.266.749,7.219,7.219,0,0,1-5.219-1.8A6.753,6.753,0,0,1-42.984,50.5a6,6,0,0,1,2.6-5.291q2.6-1.784,7.937-1.948l3.917-.123v-1.21a4.586,4.586,0,0,0-1.015-3.25A4.14,4.14,0,0,0-32.689,37.6a10.885,10.885,0,0,0-3.343.513,25.226,25.226,0,0,0-3.076,1.21l-1.559-3.445a16.774,16.774,0,0,1,4.04-1.466,18.592,18.592,0,0,1,4.143-.5q4.327,0,6.532,1.887t2.2,5.927V57Zm-7.178-3.281a5.97,5.97,0,0,0,4.214-1.466,5.315,5.315,0,0,0,1.589-4.112V46.172l-2.912.123a9.964,9.964,0,0,0-4.953,1.138A3.458,3.458,0,0,0-37.98,50.54a3.032,3.032,0,0,0,.9,2.348A3.877,3.877,0,0,0-34.371,53.719Zm36.5-19.4v2.646l-3.876.718a6.256,6.256,0,0,1,.882,1.764A6.958,6.958,0,0,1-.513,41.66a6.786,6.786,0,0,1-2.42,5.517A10.127,10.127,0,0,1-9.6,49.187a10.807,10.807,0,0,1-1.969-.164,2.715,2.715,0,0,0-1.559,2.256,1.253,1.253,0,0,0,.728,1.169,6.3,6.3,0,0,0,2.676.39h3.958a8.8,8.8,0,0,1,5.7,1.6,5.627,5.627,0,0,1,1.948,4.614A6.71,6.71,0,0,1-1.292,65q-3.179,2.092-9.187,2.092-4.635,0-7.075-1.641A5.3,5.3,0,0,1-20,60.773a4.976,4.976,0,0,1,1.323-3.517,7.088,7.088,0,0,1,3.7-1.979,3.622,3.622,0,0,1-1.589-1.323,3.339,3.339,0,0,1-.625-1.917,3.3,3.3,0,0,1,.718-2.153,8.281,8.281,0,0,1,2.133-1.743A6.317,6.317,0,0,1-17.2,45.669a7.269,7.269,0,0,1-1.1-4.009,7.188,7.188,0,0,1,2.328-5.722q2.328-2.03,6.634-2.03a16.149,16.149,0,0,1,2.02.133,12.717,12.717,0,0,1,1.589.277ZM-15.688,60.527a2.651,2.651,0,0,0,1.4,2.4,7.721,7.721,0,0,0,3.948.841A11.927,11.927,0,0,0-4.471,62.64a3.381,3.381,0,0,0,1.928-2.994,2.246,2.246,0,0,0-1.056-2.1,8.481,8.481,0,0,0-3.927-.625h-3.65a5.129,5.129,0,0,0-3.292.974A3.194,3.194,0,0,0-15.688,60.527Zm2.071-18.867a4.564,4.564,0,0,0,1.1,3.281A4.149,4.149,0,0,0-9.372,46.09q4.184,0,4.184-4.471A5.071,5.071,0,0,0-6.224,38.2,3.935,3.935,0,0,0-9.372,37a4.057,4.057,0,0,0-3.168,1.189A5,5,0,0,0-13.617,41.66ZM16.242,57.41q-5.291,0-8.275-3.086t-2.984-8.5q0-5.558,2.769-8.736a9.563,9.563,0,0,1,7.608-3.179,9.347,9.347,0,0,1,7.1,2.728,10.422,10.422,0,0,1,2.6,7.506v2.6H9.946a7.45,7.45,0,0,0,1.784,5.076A6.214,6.214,0,0,0,16.468,53.6a17.488,17.488,0,0,0,3.743-.379,19.618,19.618,0,0,0,3.722-1.261v3.917a14.8,14.8,0,0,1-3.568,1.189A21.881,21.881,0,0,1,16.242,57.41ZM15.36,37.559a4.842,4.842,0,0,0-3.681,1.456,6.939,6.939,0,0,0-1.651,4.245H20.323A6.278,6.278,0,0,0,18.97,39,4.629,4.629,0,0,0,15.36,37.559ZM49.649,57H44.81V43.014a6.342,6.342,0,0,0-.984-3.886,3.633,3.633,0,0,0-3.076-1.282,4.692,4.692,0,0,0-4.091,1.815q-1.3,1.815-1.3,6.04V57H30.536V34.318H34.31l.677,2.974h.246a6.284,6.284,0,0,1,2.738-2.5,8.828,8.828,0,0,1,3.948-.882q5.229,0,6.932,3.568h.328a6.914,6.914,0,0,1,2.83-2.625,8.982,8.982,0,0,1,4.184-.943q4.061,0,5.917,2.051t1.856,6.255V57H59.145V43.014a6.293,6.293,0,0,0-.995-3.886,3.662,3.662,0,0,0-3.086-1.282A4.784,4.784,0,0,0,50.952,39.6a9.038,9.038,0,0,0-1.3,5.383Zm30.946.41q-5.291,0-8.275-3.086t-2.984-8.5q0-5.558,2.769-8.736a9.563,9.563,0,0,1,7.608-3.179,9.347,9.347,0,0,1,7.1,2.728,10.422,10.422,0,0,1,2.6,7.506v2.6H74.3a7.45,7.45,0,0,0,1.784,5.076A6.214,6.214,0,0,0,80.821,53.6a17.488,17.488,0,0,0,3.743-.379,19.618,19.618,0,0,0,3.722-1.261v3.917a14.8,14.8,0,0,1-3.568,1.189A21.881,21.881,0,0,1,80.6,57.41Zm-.882-19.852a4.842,4.842,0,0,0-3.681,1.456,6.939,6.939,0,0,0-1.651,4.245H84.677A6.278,6.278,0,0,0,83.323,39,4.629,4.629,0,0,0,79.714,37.559ZM114.844,57H110V43.055a6.1,6.1,0,0,0-1.056-3.917,4.082,4.082,0,0,0-3.353-1.292,5.331,5.331,0,0,0-4.471,1.8q-1.415,1.8-1.415,6.05V57H94.89V34.318h3.773l.677,2.974h.246a6.71,6.71,0,0,1,2.912-2.5,9.759,9.759,0,0,1,4.184-.882q8.162,0,8.162,8.306ZM130,53.514a11.72,11.72,0,0,0,3.527-.554v3.63a9.729,9.729,0,0,1-2.061.584,14.2,14.2,0,0,1-2.615.236q-6.85,0-6.85-7.219V37.969h-3.1V35.836l3.322-1.764,1.641-4.8h2.974v5.045h6.46v3.65h-6.46V50.109a3.406,3.406,0,0,0,.872,2.574A3.177,3.177,0,0,0,130,53.514Z" transform="translate(200.474 87.902)" fill="#505050"/></g><g transform="translate(6627 15977)"><g fill="#f5f5f5" stroke="#707070" stroke-width="1"><rect width="400" height="200" rx="15" stroke="none"/><rect x="0.5" y="0.5" width="399" height="199" rx="14.5" fill="none"/></g><path d="M-125.7,0-128.7-8.326h-11.464L-143.093,0h-5.168l11.218-30.105h5.332L-120.494,0Zm-4.286-12.551-2.81-8.162q-.308-.82-.851-2.584t-.749-2.584a45.961,45.961,0,0,1-1.62,5.517l-2.707,7.813ZM-109.4.41a7.9,7.9,0,0,1-6.624-3.076Q-118.4-5.742-118.4-11.3q0-5.578,2.41-8.685a7.975,7.975,0,0,1,6.675-3.107,7.819,7.819,0,0,1,6.809,3.3h.246a28.889,28.889,0,0,1-.349-3.855V-31.91h4.84V0h-3.773l-.841-2.974h-.226A7.7,7.7,0,0,1-109.4.41Zm1.292-3.9a5.245,5.245,0,0,0,4.327-1.671q1.354-1.671,1.395-5.424v-.677q0-4.286-1.395-6.091a5.173,5.173,0,0,0-4.368-1.8,4.432,4.432,0,0,0-3.917,2.061,10.562,10.562,0,0,0-1.374,5.875,10.3,10.3,0,0,0,1.333,5.752A4.5,4.5,0,0,0-108.107-3.486ZM-71.767,0h-4.84V-13.986a6.342,6.342,0,0,0-.984-3.886,3.633,3.633,0,0,0-3.076-1.282,4.692,4.692,0,0,0-4.091,1.815q-1.3,1.815-1.3,6.04V0H-90.88V-22.682h3.773l.677,2.974h.246a6.284,6.284,0,0,1,2.738-2.5,8.828,8.828,0,0,1,3.948-.882q5.229,0,6.932,3.568h.328a6.914,6.914,0,0,1,2.83-2.625,8.982,8.982,0,0,1,4.184-.943q4.061,0,5.917,2.051t1.856,6.255V0h-4.819V-13.986a6.293,6.293,0,0,0-.995-3.886,3.662,3.662,0,0,0-3.086-1.282A4.784,4.784,0,0,0-70.465-17.4a9.038,9.038,0,0,0-1.3,5.383Zm25.86,0h-4.819V-22.682h4.819Zm-5.106-28.69a2.668,2.668,0,0,1,.708-1.989,2.757,2.757,0,0,1,2.02-.7,2.7,2.7,0,0,1,1.979.7A2.668,2.668,0,0,1-45.6-28.69a2.619,2.619,0,0,1-.708,1.938,2.675,2.675,0,0,1-1.979.708,2.733,2.733,0,0,1-2.02-.708A2.619,2.619,0,0,1-51.013-28.69ZM-19.062,0H-23.9V-13.945a6.1,6.1,0,0,0-1.056-3.917,4.083,4.083,0,0,0-3.353-1.292,5.331,5.331,0,0,0-4.471,1.8q-1.415,1.8-1.415,6.05V0h-4.819V-22.682h3.773l.677,2.974h.246a6.71,6.71,0,0,1,2.912-2.5,9.759,9.759,0,0,1,4.184-.882q8.162,0,8.162,8.306Zm31.09,0-8.7-25.04H3.168q.349,5.578.349,10.459V0H-.933V-29.982H5.978L14.3-6.132h.123L23-29.982h6.932V0H25.214V-14.827q0-2.235.113-5.824T25.522-25h-.164l-9,25Zm45.4-11.382q0,5.558-2.851,8.675A10.214,10.214,0,0,1,46.645.41a10.874,10.874,0,0,1-5.619-1.436,9.477,9.477,0,0,1-3.753-4.122,14.039,14.039,0,0,1-1.312-6.234q0-5.517,2.83-8.613t7.978-3.1a9.992,9.992,0,0,1,7.793,3.168A12.239,12.239,0,0,1,57.432-11.382Zm-16.509,0q0,7.854,5.8,7.854,5.742,0,5.742-7.854,0-7.772-5.783-7.772a4.931,4.931,0,0,0-4.4,2.01A10.228,10.228,0,0,0,40.923-11.382ZM70.619.41a7.9,7.9,0,0,1-6.624-3.076Q61.616-5.742,61.616-11.3q0-5.578,2.41-8.685A7.975,7.975,0,0,1,70.7-23.092a7.819,7.819,0,0,1,6.809,3.3h.246a28.889,28.889,0,0,1-.349-3.855V-31.91h4.84V0H78.473l-.841-2.974h-.226A7.7,7.7,0,0,1,70.619.41Zm1.292-3.9a5.245,5.245,0,0,0,4.327-1.671q1.354-1.671,1.395-5.424v-.677q0-4.286-1.395-6.091a5.173,5.173,0,0,0-4.368-1.8,4.432,4.432,0,0,0-3.917,2.061,10.562,10.562,0,0,0-1.374,5.875,10.3,10.3,0,0,0,1.333,5.752A4.5,4.5,0,0,0,71.911-3.486ZM105.133,0l-.677-2.974h-.246A6.838,6.838,0,0,1,101.35-.492a9.565,9.565,0,0,1-4.235.9q-4.122,0-6.152-2.051t-2.03-6.214V-22.682h4.86V-8.7a6.068,6.068,0,0,0,1.066,3.907,4.071,4.071,0,0,0,3.343,1.3,5.322,5.322,0,0,0,4.46-1.815q1.425-1.815,1.425-6.081v-11.3h4.84V0Zm15.483,0H115.8V-31.91h4.819Zm16.8.41q-5.291,0-8.275-3.086t-2.984-8.5q0-5.558,2.769-8.736a9.563,9.563,0,0,1,7.608-3.179,9.347,9.347,0,0,1,7.1,2.728,10.422,10.422,0,0,1,2.6,7.506v2.6H131.117A7.45,7.45,0,0,0,132.9-5.178,6.214,6.214,0,0,0,137.638-3.4a17.488,17.488,0,0,0,3.743-.379A19.618,19.618,0,0,0,145.1-5.045v3.917A14.8,14.8,0,0,1,141.535.062,21.881,21.881,0,0,1,137.413.41Zm-.882-19.852a4.842,4.842,0,0,0-3.681,1.456A6.939,6.939,0,0,0,131.2-13.74h10.295A6.278,6.278,0,0,0,140.14-18,4.629,4.629,0,0,0,136.531-19.441Z" transform="translate(200.474 116.902)" fill="#505050"/></g><g transform="translate(8421 15977)"><g fill="#f5f5f5" stroke="#707070" stroke-width="1"><rect width="400" height="200" rx="15" stroke="none"/><rect x="0.5" y="0.5" width="399" height="199" rx="14.5" fill="none"/></g><path d="M-88.276-26.209a8.079,8.079,0,0,0-6.645,2.994q-2.42,2.994-2.42,8.265,0,5.517,2.328,8.347a8.221,8.221,0,0,0,6.737,2.83,17.7,17.7,0,0,0,3.691-.379q1.784-.379,3.712-.974v4.2a22.5,22.5,0,0,1-8,1.333q-6.583,0-10.11-3.989t-3.527-11.413a18.442,18.442,0,0,1,1.712-8.183,12.222,12.222,0,0,1,4.953-5.373,14.98,14.98,0,0,1,7.608-1.866,18.881,18.881,0,0,1,8.49,1.928L-81.508-24.4a26.333,26.333,0,0,0-3.209-1.261A11.563,11.563,0,0,0-88.276-26.209ZM-65.02.41q-5.291,0-8.275-3.086t-2.984-8.5q0-5.558,2.769-8.736A9.563,9.563,0,0,1-65.9-23.092a9.347,9.347,0,0,1,7.1,2.728,10.422,10.422,0,0,1,2.6,7.506v2.6H-71.316a7.45,7.45,0,0,0,1.784,5.076A6.214,6.214,0,0,0-64.794-3.4a17.488,17.488,0,0,0,3.743-.379A19.618,19.618,0,0,0-57.33-5.045v3.917A14.8,14.8,0,0,1-60.9.062,21.881,21.881,0,0,1-65.02.41ZM-65.9-19.441a4.842,4.842,0,0,0-3.681,1.456,6.939,6.939,0,0,0-1.651,4.245h10.295A6.278,6.278,0,0,0-62.292-18,4.629,4.629,0,0,0-65.9-19.441Zm26.681-3.65a11.6,11.6,0,0,1,2.4.205l-.472,4.491a9.109,9.109,0,0,0-2.133-.246,6.172,6.172,0,0,0-4.686,1.887,6.82,6.82,0,0,0-1.794,4.9V0h-4.819V-22.682h3.773l.636,4h.246a8.987,8.987,0,0,1,2.943-3.22A7,7,0,0,1-39.221-23.092ZM-24.168-3.486a11.72,11.72,0,0,0,3.527-.554V-.41A9.729,9.729,0,0,1-22.7.174,14.2,14.2,0,0,1-25.317.41q-6.85,0-6.85-7.219V-19.031h-3.1v-2.133l3.322-1.764,1.641-4.8h2.974v5.045h6.46v3.65h-6.46V-6.891a3.406,3.406,0,0,0,.872,2.574A3.177,3.177,0,0,0-24.168-3.486ZM-11.29,0h-4.819V-22.682h4.819ZM-16.4-28.69a2.668,2.668,0,0,1,.708-1.989,2.757,2.757,0,0,1,2.02-.7,2.7,2.7,0,0,1,1.979.7,2.668,2.668,0,0,1,.708,1.989,2.619,2.619,0,0,1-.708,1.938,2.675,2.675,0,0,1-1.979.708,2.733,2.733,0,0,1-2.02-.708A2.619,2.619,0,0,1-16.4-28.69ZM6.983-19.031H1.446V0h-4.84V-19.031H-7.126v-2.256l3.732-1.477V-24.24q0-4.02,1.887-5.958t5.763-1.938a15.379,15.379,0,0,1,5,.841l-1.271,3.65a11.11,11.11,0,0,0-3.4-.574A2.771,2.771,0,0,0,2.194-27.2a5.115,5.115,0,0,0-.749,3.045v1.477H6.983ZM15.658,0H10.838V-22.682h4.819ZM10.551-28.69a2.668,2.668,0,0,1,.708-1.989,2.757,2.757,0,0,1,2.02-.7,2.7,2.7,0,0,1,1.979.7,2.668,2.668,0,0,1,.708,1.989,2.619,2.619,0,0,1-.708,1.938,2.675,2.675,0,0,1-1.979.708,2.733,2.733,0,0,1-2.02-.708A2.619,2.619,0,0,1,10.551-28.69ZM31.715.41q-5.147,0-7.824-3t-2.676-8.624q0-5.722,2.8-8.8t8.09-3.076a15.162,15.162,0,0,1,6.46,1.333l-1.456,3.876a14.6,14.6,0,0,0-5.045-1.189q-5.886,0-5.886,7.813a9.357,9.357,0,0,0,1.466,5.732,5.076,5.076,0,0,0,4.3,1.917,12.326,12.326,0,0,0,6.091-1.6V-1A9.518,9.518,0,0,1,35.273.082,16.551,16.551,0,0,1,31.715.41ZM57.555,0l-.964-3.158h-.164a9.292,9.292,0,0,1-3.3,2.82A10.442,10.442,0,0,1,48.86.41a7.219,7.219,0,0,1-5.219-1.8A6.753,6.753,0,0,1,41.764-6.5a6,6,0,0,1,2.6-5.291q2.6-1.784,7.937-1.948l3.917-.123v-1.21a4.586,4.586,0,0,0-1.015-3.25A4.14,4.14,0,0,0,52.059-19.4a10.885,10.885,0,0,0-3.343.513,25.226,25.226,0,0,0-3.076,1.21l-1.559-3.445a16.774,16.774,0,0,1,4.04-1.466,18.593,18.593,0,0,1,4.143-.5q4.327,0,6.532,1.887T61-15.278V0ZM50.377-3.281a5.97,5.97,0,0,0,4.214-1.466,5.315,5.315,0,0,0,1.589-4.112v-1.969l-2.912.123a9.964,9.964,0,0,0-4.953,1.138A3.458,3.458,0,0,0,46.768-6.46a3.032,3.032,0,0,0,.9,2.348A3.877,3.877,0,0,0,50.377-3.281Zm25.8-.205A11.72,11.72,0,0,0,79.7-4.04V-.41a9.729,9.729,0,0,1-2.061.584A14.2,14.2,0,0,1,75.028.41q-6.85,0-6.85-7.219V-19.031h-3.1v-2.133L68.4-22.928l1.641-4.8h2.974v5.045h6.46v3.65h-6.46V-6.891a3.406,3.406,0,0,0,.872,2.574A3.177,3.177,0,0,0,76.176-3.486ZM94.141.41q-5.291,0-8.275-3.086t-2.984-8.5q0-5.558,2.769-8.736a9.563,9.563,0,0,1,7.608-3.179,9.347,9.347,0,0,1,7.1,2.728,10.422,10.422,0,0,1,2.6,7.506v2.6H87.845a7.45,7.45,0,0,0,1.784,5.076A6.214,6.214,0,0,0,94.367-3.4a17.488,17.488,0,0,0,3.743-.379,19.618,19.618,0,0,0,3.722-1.261v3.917A14.8,14.8,0,0,1,98.263.062,21.881,21.881,0,0,1,94.141.41Zm-.882-19.852a4.842,4.842,0,0,0-3.681,1.456,6.939,6.939,0,0,0-1.651,4.245H98.222A6.278,6.278,0,0,0,96.869-18,4.629,4.629,0,0,0,93.259-19.441ZM-117.694,57l-8.7-25.04h-.164q.349,5.578.349,10.459V57h-4.45V27.018h6.911l8.326,23.851h.123l8.572-23.851h6.932V57h-4.717V42.173q0-2.235.113-5.824T-104.2,32h-.164l-9,25Zm39.478,0-.964-3.158h-.164a9.292,9.292,0,0,1-3.3,2.82,10.442,10.442,0,0,1-4.266.749,7.219,7.219,0,0,1-5.219-1.8A6.753,6.753,0,0,1-94.008,50.5a6,6,0,0,1,2.6-5.291q2.6-1.784,7.937-1.948l3.917-.123v-1.21a4.586,4.586,0,0,0-1.015-3.25A4.14,4.14,0,0,0-83.713,37.6a10.885,10.885,0,0,0-3.343.513,25.226,25.226,0,0,0-3.076,1.21l-1.559-3.445a16.774,16.774,0,0,1,4.04-1.466,18.592,18.592,0,0,1,4.143-.5q4.327,0,6.532,1.887t2.2,5.927V57Zm-7.178-3.281a5.97,5.97,0,0,0,4.214-1.466,5.315,5.315,0,0,0,1.589-4.112V46.172l-2.912.123a9.964,9.964,0,0,0-4.953,1.138A3.458,3.458,0,0,0-89,50.54a3.032,3.032,0,0,0,.9,2.348A3.877,3.877,0,0,0-85.395,53.719ZM-48.091,57h-4.84V43.055a6.1,6.1,0,0,0-1.056-3.917,4.082,4.082,0,0,0-3.353-1.292,5.331,5.331,0,0,0-4.471,1.8q-1.415,1.8-1.415,6.05V57h-4.819V34.318h3.773l.677,2.974h.246a6.71,6.71,0,0,1,2.912-2.5,9.759,9.759,0,0,1,4.184-.882q8.162,0,8.162,8.306Zm20.9,0-.964-3.158h-.164a9.292,9.292,0,0,1-3.3,2.82,10.442,10.442,0,0,1-4.266.749,7.219,7.219,0,0,1-5.219-1.8A6.753,6.753,0,0,1-42.984,50.5a6,6,0,0,1,2.6-5.291q2.6-1.784,7.937-1.948l3.917-.123v-1.21a4.586,4.586,0,0,0-1.015-3.25A4.14,4.14,0,0,0-32.689,37.6a10.885,10.885,0,0,0-3.343.513,25.226,25.226,0,0,0-3.076,1.21l-1.559-3.445a16.774,16.774,0,0,1,4.04-1.466,18.592,18.592,0,0,1,4.143-.5q4.327,0,6.532,1.887t2.2,5.927V57Zm-7.178-3.281a5.97,5.97,0,0,0,4.214-1.466,5.315,5.315,0,0,0,1.589-4.112V46.172l-2.912.123a9.964,9.964,0,0,0-4.953,1.138A3.458,3.458,0,0,0-37.98,50.54a3.032,3.032,0,0,0,.9,2.348A3.877,3.877,0,0,0-34.371,53.719Zm36.5-19.4v2.646l-3.876.718a6.256,6.256,0,0,1,.882,1.764A6.958,6.958,0,0,1-.513,41.66a6.786,6.786,0,0,1-2.42,5.517A10.127,10.127,0,0,1-9.6,49.187a10.807,10.807,0,0,1-1.969-.164,2.715,2.715,0,0,0-1.559,2.256,1.253,1.253,0,0,0,.728,1.169,6.3,6.3,0,0,0,2.676.39h3.958a8.8,8.8,0,0,1,5.7,1.6,5.627,5.627,0,0,1,1.948,4.614A6.71,6.71,0,0,1-1.292,65q-3.179,2.092-9.187,2.092-4.635,0-7.075-1.641A5.3,5.3,0,0,1-20,60.773a4.976,4.976,0,0,1,1.323-3.517,7.088,7.088,0,0,1,3.7-1.979,3.622,3.622,0,0,1-1.589-1.323,3.339,3.339,0,0,1-.625-1.917,3.3,3.3,0,0,1,.718-2.153,8.281,8.281,0,0,1,2.133-1.743A6.317,6.317,0,0,1-17.2,45.669a7.269,7.269,0,0,1-1.1-4.009,7.188,7.188,0,0,1,2.328-5.722q2.328-2.03,6.634-2.03a16.149,16.149,0,0,1,2.02.133,12.717,12.717,0,0,1,1.589.277ZM-15.688,60.527a2.651,2.651,0,0,0,1.4,2.4,7.721,7.721,0,0,0,3.948.841A11.927,11.927,0,0,0-4.471,62.64a3.381,3.381,0,0,0,1.928-2.994,2.246,2.246,0,0,0-1.056-2.1,8.481,8.481,0,0,0-3.927-.625h-3.65a5.129,5.129,0,0,0-3.292.974A3.194,3.194,0,0,0-15.688,60.527Zm2.071-18.867a4.564,4.564,0,0,0,1.1,3.281A4.149,4.149,0,0,0-9.372,46.09q4.184,0,4.184-4.471A5.071,5.071,0,0,0-6.224,38.2,3.935,3.935,0,0,0-9.372,37a4.057,4.057,0,0,0-3.168,1.189A5,5,0,0,0-13.617,41.66ZM16.242,57.41q-5.291,0-8.275-3.086t-2.984-8.5q0-5.558,2.769-8.736a9.563,9.563,0,0,1,7.608-3.179,9.347,9.347,0,0,1,7.1,2.728,10.422,10.422,0,0,1,2.6,7.506v2.6H9.946a7.45,7.45,0,0,0,1.784,5.076A6.214,6.214,0,0,0,16.468,53.6a17.488,17.488,0,0,0,3.743-.379,19.618,19.618,0,0,0,3.722-1.261v3.917a14.8,14.8,0,0,1-3.568,1.189A21.881,21.881,0,0,1,16.242,57.41ZM15.36,37.559a4.842,4.842,0,0,0-3.681,1.456,6.939,6.939,0,0,0-1.651,4.245H20.323A6.278,6.278,0,0,0,18.97,39,4.629,4.629,0,0,0,15.36,37.559ZM49.649,57H44.81V43.014a6.342,6.342,0,0,0-.984-3.886,3.633,3.633,0,0,0-3.076-1.282,4.692,4.692,0,0,0-4.091,1.815q-1.3,1.815-1.3,6.04V57H30.536V34.318H34.31l.677,2.974h.246a6.284,6.284,0,0,1,2.738-2.5,8.828,8.828,0,0,1,3.948-.882q5.229,0,6.932,3.568h.328a6.914,6.914,0,0,1,2.83-2.625,8.982,8.982,0,0,1,4.184-.943q4.061,0,5.917,2.051t1.856,6.255V57H59.145V43.014a6.293,6.293,0,0,0-.995-3.886,3.662,3.662,0,0,0-3.086-1.282A4.784,4.784,0,0,0,50.952,39.6a9.038,9.038,0,0,0-1.3,5.383Zm30.946.41q-5.291,0-8.275-3.086t-2.984-8.5q0-5.558,2.769-8.736a9.563,9.563,0,0,1,7.608-3.179,9.347,9.347,0,0,1,7.1,2.728,10.422,10.422,0,0,1,2.6,7.506v2.6H74.3a7.45,7.45,0,0,0,1.784,5.076A6.214,6.214,0,0,0,80.821,53.6a17.488,17.488,0,0,0,3.743-.379,19.618,19.618,0,0,0,3.722-1.261v3.917a14.8,14.8,0,0,1-3.568,1.189A21.881,21.881,0,0,1,80.6,57.41Zm-.882-19.852a4.842,4.842,0,0,0-3.681,1.456,6.939,6.939,0,0,0-1.651,4.245H84.677A6.278,6.278,0,0,0,83.323,39,4.629,4.629,0,0,0,79.714,37.559ZM114.844,57H110V43.055a6.1,6.1,0,0,0-1.056-3.917,4.082,4.082,0,0,0-3.353-1.292,5.331,5.331,0,0,0-4.471,1.8q-1.415,1.8-1.415,6.05V57H94.89V34.318h3.773l.677,2.974h.246a6.71,6.71,0,0,1,2.912-2.5,9.759,9.759,0,0,1,4.184-.882q8.162,0,8.162,8.306ZM130,53.514a11.72,11.72,0,0,0,3.527-.554v3.63a9.729,9.729,0,0,1-2.061.584,14.2,14.2,0,0,1-2.615.236q-6.85,0-6.85-7.219V37.969h-3.1V35.836l3.322-1.764,1.641-4.8h2.974v5.045h6.46v3.65h-6.46V50.109a3.406,3.406,0,0,0,.872,2.574A3.177,3.177,0,0,0,130,53.514Z" transform="translate(200.474 87.902)" fill="#505050"/></g><g transform="translate(8421 16277)"><g fill="#f5f5f5" stroke="#707070" stroke-width="1"><rect width="400" height="200" rx="15" stroke="none"/><rect x="0.5" y="0.5" width="399" height="199" rx="14.5" fill="none"/></g><path d="M-21.133-15.278q0,7.424-4.122,11.351T-37.129,0h-8.388V-29.982h9.27q7.157,0,11.136,3.855T-21.133-15.278Zm-5.168.164q0-10.767-10.069-10.767h-4.245V-4.122h3.486Q-26.3-4.122-26.3-15.114Zm22.6-7.978a11.6,11.6,0,0,1,2.4.205L-1.774-18.4a9.109,9.109,0,0,0-2.133-.246,6.172,6.172,0,0,0-4.686,1.887,6.82,6.82,0,0,0-1.794,4.9V0h-4.819V-22.682h3.773l.636,4h.246A8.987,8.987,0,0,1-7.608-21.9,7,7,0,0,1-3.7-23.092ZM18.9,0l-.677-2.974h-.246A6.838,6.838,0,0,1,15.114-.492a9.565,9.565,0,0,1-4.235.9Q6.757.41,4.727-1.641T2.7-7.854V-22.682h4.86V-8.7A6.068,6.068,0,0,0,8.624-4.789a4.071,4.071,0,0,0,3.343,1.3A5.322,5.322,0,0,0,16.427-5.3q1.425-1.815,1.425-6.081v-11.3h4.84V0ZM48.716-22.682v2.646l-3.876.718a6.256,6.256,0,0,1,.882,1.764,6.958,6.958,0,0,1,.349,2.215,6.786,6.786,0,0,1-2.42,5.517,10.127,10.127,0,0,1-6.665,2.01,10.807,10.807,0,0,1-1.969-.164,2.715,2.715,0,0,0-1.559,2.256,1.253,1.253,0,0,0,.728,1.169,6.3,6.3,0,0,0,2.676.39h3.958a8.8,8.8,0,0,1,5.7,1.6A5.627,5.627,0,0,1,48.47,2.051,6.71,6.71,0,0,1,45.292,8Q42.113,10.09,36.1,10.09q-4.635,0-7.075-1.641a5.3,5.3,0,0,1-2.44-4.676A4.976,4.976,0,0,1,27.911.256a7.088,7.088,0,0,1,3.7-1.979,3.622,3.622,0,0,1-1.589-1.323A3.339,3.339,0,0,1,29.4-4.963a3.3,3.3,0,0,1,.718-2.153,8.281,8.281,0,0,1,2.133-1.743,6.317,6.317,0,0,1-2.861-2.471,7.269,7.269,0,0,1-1.1-4.009,7.188,7.188,0,0,1,2.328-5.722q2.328-2.03,6.634-2.03a16.149,16.149,0,0,1,2.02.133,12.717,12.717,0,0,1,1.589.277ZM30.9,3.527a2.651,2.651,0,0,0,1.4,2.4,7.721,7.721,0,0,0,3.948.841A11.927,11.927,0,0,0,42.113,5.64a3.381,3.381,0,0,0,1.928-2.994,2.246,2.246,0,0,0-1.056-2.1,8.481,8.481,0,0,0-3.927-.625h-3.65a5.129,5.129,0,0,0-3.292.974A3.194,3.194,0,0,0,30.9,3.527ZM32.966-15.34a4.564,4.564,0,0,0,1.1,3.281,4.149,4.149,0,0,0,3.148,1.148q4.184,0,4.184-4.471A5.071,5.071,0,0,0,40.359-18.8,3.935,3.935,0,0,0,37.211-20a4.057,4.057,0,0,0-3.168,1.189A5,5,0,0,0,32.966-15.34ZM-117.694,57l-8.7-25.04h-.164q.349,5.578.349,10.459V57h-4.45V27.018h6.911l8.326,23.851h.123l8.572-23.851h6.932V57h-4.717V42.173q0-2.235.113-5.824T-104.2,32h-.164l-9,25Zm39.478,0-.964-3.158h-.164a9.292,9.292,0,0,1-3.3,2.82,10.442,10.442,0,0,1-4.266.749,7.219,7.219,0,0,1-5.219-1.8A6.753,6.753,0,0,1-94.008,50.5a6,6,0,0,1,2.6-5.291q2.6-1.784,7.937-1.948l3.917-.123v-1.21a4.586,4.586,0,0,0-1.015-3.25A4.14,4.14,0,0,0-83.713,37.6a10.885,10.885,0,0,0-3.343.513,25.226,25.226,0,0,0-3.076,1.21l-1.559-3.445a16.774,16.774,0,0,1,4.04-1.466,18.592,18.592,0,0,1,4.143-.5q4.327,0,6.532,1.887t2.2,5.927V57Zm-7.178-3.281a5.97,5.97,0,0,0,4.214-1.466,5.315,5.315,0,0,0,1.589-4.112V46.172l-2.912.123a9.964,9.964,0,0,0-4.953,1.138A3.458,3.458,0,0,0-89,50.54a3.032,3.032,0,0,0,.9,2.348A3.877,3.877,0,0,0-85.395,53.719ZM-48.091,57h-4.84V43.055a6.1,6.1,0,0,0-1.056-3.917,4.082,4.082,0,0,0-3.353-1.292,5.331,5.331,0,0,0-4.471,1.8q-1.415,1.8-1.415,6.05V57h-4.819V34.318h3.773l.677,2.974h.246a6.71,6.71,0,0,1,2.912-2.5,9.759,9.759,0,0,1,4.184-.882q8.162,0,8.162,8.306Zm20.9,0-.964-3.158h-.164a9.292,9.292,0,0,1-3.3,2.82,10.442,10.442,0,0,1-4.266.749,7.219,7.219,0,0,1-5.219-1.8A6.753,6.753,0,0,1-42.984,50.5a6,6,0,0,1,2.6-5.291q2.6-1.784,7.937-1.948l3.917-.123v-1.21a4.586,4.586,0,0,0-1.015-3.25A4.14,4.14,0,0,0-32.689,37.6a10.885,10.885,0,0,0-3.343.513,25.226,25.226,0,0,0-3.076,1.21l-1.559-3.445a16.774,16.774,0,0,1,4.04-1.466,18.592,18.592,0,0,1,4.143-.5q4.327,0,6.532,1.887t2.2,5.927V57Zm-7.178-3.281a5.97,5.97,0,0,0,4.214-1.466,5.315,5.315,0,0,0,1.589-4.112V46.172l-2.912.123a9.964,9.964,0,0,0-4.953,1.138A3.458,3.458,0,0,0-37.98,50.54a3.032,3.032,0,0,0,.9,2.348A3.877,3.877,0,0,0-34.371,53.719Zm36.5-19.4v2.646l-3.876.718a6.256,6.256,0,0,1,.882,1.764A6.958,6.958,0,0,1-.513,41.66a6.786,6.786,0,0,1-2.42,5.517A10.127,10.127,0,0,1-9.6,49.187a10.807,10.807,0,0,1-1.969-.164,2.715,2.715,0,0,0-1.559,2.256,1.253,1.253,0,0,0,.728,1.169,6.3,6.3,0,0,0,2.676.39h3.958a8.8,8.8,0,0,1,5.7,1.6,5.627,5.627,0,0,1,1.948,4.614A6.71,6.71,0,0,1-1.292,65q-3.179,2.092-9.187,2.092-4.635,0-7.075-1.641A5.3,5.3,0,0,1-20,60.773a4.976,4.976,0,0,1,1.323-3.517,7.088,7.088,0,0,1,3.7-1.979,3.622,3.622,0,0,1-1.589-1.323,3.339,3.339,0,0,1-.625-1.917,3.3,3.3,0,0,1,.718-2.153,8.281,8.281,0,0,1,2.133-1.743A6.317,6.317,0,0,1-17.2,45.669a7.269,7.269,0,0,1-1.1-4.009,7.188,7.188,0,0,1,2.328-5.722q2.328-2.03,6.634-2.03a16.149,16.149,0,0,1,2.02.133,12.717,12.717,0,0,1,1.589.277ZM-15.688,60.527a2.651,2.651,0,0,0,1.4,2.4,7.721,7.721,0,0,0,3.948.841A11.927,11.927,0,0,0-4.471,62.64a3.381,3.381,0,0,0,1.928-2.994,2.246,2.246,0,0,0-1.056-2.1,8.481,8.481,0,0,0-3.927-.625h-3.65a5.129,5.129,0,0,0-3.292.974A3.194,3.194,0,0,0-15.688,60.527Zm2.071-18.867a4.564,4.564,0,0,0,1.1,3.281A4.149,4.149,0,0,0-9.372,46.09q4.184,0,4.184-4.471A5.071,5.071,0,0,0-6.224,38.2,3.935,3.935,0,0,0-9.372,37a4.057,4.057,0,0,0-3.168,1.189A5,5,0,0,0-13.617,41.66ZM16.242,57.41q-5.291,0-8.275-3.086t-2.984-8.5q0-5.558,2.769-8.736a9.563,9.563,0,0,1,7.608-3.179,9.347,9.347,0,0,1,7.1,2.728,10.422,10.422,0,0,1,2.6,7.506v2.6H9.946a7.45,7.45,0,0,0,1.784,5.076A6.214,6.214,0,0,0,16.468,53.6a17.488,17.488,0,0,0,3.743-.379,19.618,19.618,0,0,0,3.722-1.261v3.917a14.8,14.8,0,0,1-3.568,1.189A21.881,21.881,0,0,1,16.242,57.41ZM15.36,37.559a4.842,4.842,0,0,0-3.681,1.456,6.939,6.939,0,0,0-1.651,4.245H20.323A6.278,6.278,0,0,0,18.97,39,4.629,4.629,0,0,0,15.36,37.559ZM49.649,57H44.81V43.014a6.342,6.342,0,0,0-.984-3.886,3.633,3.633,0,0,0-3.076-1.282,4.692,4.692,0,0,0-4.091,1.815q-1.3,1.815-1.3,6.04V57H30.536V34.318H34.31l.677,2.974h.246a6.284,6.284,0,0,1,2.738-2.5,8.828,8.828,0,0,1,3.948-.882q5.229,0,6.932,3.568h.328a6.914,6.914,0,0,1,2.83-2.625,8.982,8.982,0,0,1,4.184-.943q4.061,0,5.917,2.051t1.856,6.255V57H59.145V43.014a6.293,6.293,0,0,0-.995-3.886,3.662,3.662,0,0,0-3.086-1.282A4.784,4.784,0,0,0,50.952,39.6a9.038,9.038,0,0,0-1.3,5.383Zm30.946.41q-5.291,0-8.275-3.086t-2.984-8.5q0-5.558,2.769-8.736a9.563,9.563,0,0,1,7.608-3.179,9.347,9.347,0,0,1,7.1,2.728,10.422,10.422,0,0,1,2.6,7.506v2.6H74.3a7.45,7.45,0,0,0,1.784,5.076A6.214,6.214,0,0,0,80.821,53.6a17.488,17.488,0,0,0,3.743-.379,19.618,19.618,0,0,0,3.722-1.261v3.917a14.8,14.8,0,0,1-3.568,1.189A21.881,21.881,0,0,1,80.6,57.41Zm-.882-19.852a4.842,4.842,0,0,0-3.681,1.456,6.939,6.939,0,0,0-1.651,4.245H84.677A6.278,6.278,0,0,0,83.323,39,4.629,4.629,0,0,0,79.714,37.559ZM114.844,57H110V43.055a6.1,6.1,0,0,0-1.056-3.917,4.082,4.082,0,0,0-3.353-1.292,5.331,5.331,0,0,0-4.471,1.8q-1.415,1.8-1.415,6.05V57H94.89V34.318h3.773l.677,2.974h.246a6.71,6.71,0,0,1,2.912-2.5,9.759,9.759,0,0,1,4.184-.882q8.162,0,8.162,8.306ZM130,53.514a11.72,11.72,0,0,0,3.527-.554v3.63a9.729,9.729,0,0,1-2.061.584,14.2,14.2,0,0,1-2.615.236q-6.85,0-6.85-7.219V37.969h-3.1V35.836l3.322-1.764,1.641-4.8h2.974v5.045h6.46v3.65h-6.46V50.109a3.406,3.406,0,0,0,.872,2.574A3.177,3.177,0,0,0,130,53.514Z" transform="translate(200.474 87.902)" fill="#505050"/></g><g transform="translate(7801 15977)"><g fill="#f5f5f5" stroke="#707070" stroke-width="1"><rect width="400" height="200" rx="15" stroke="none"/><rect x="0.5" y="0.5" width="399" height="199" rx="14.5" fill="none"/></g><path d="M-63.984-20.918a8.742,8.742,0,0,1-3.076,7.2q-3.076,2.5-8.757,2.5h-3.117V0h-4.9V-29.982H-75.2q5.619,0,8.418,2.3T-63.984-20.918Zm-14.95,5.578h2.6q3.773,0,5.537-1.312a4.777,4.777,0,0,0,1.764-4.1,4.654,4.654,0,0,0-1.579-3.855,7.8,7.8,0,0,0-4.922-1.271h-3.4ZM-47-23.092a11.6,11.6,0,0,1,2.4.205l-.472,4.491a9.109,9.109,0,0,0-2.133-.246A6.172,6.172,0,0,0-51.9-16.755a6.82,6.82,0,0,0-1.794,4.9V0h-4.819V-22.682h3.773l.636,4h.246a8.987,8.987,0,0,1,2.943-3.22A7,7,0,0,1-47-23.092Zm26.722,11.71q0,5.558-2.851,8.675A10.214,10.214,0,0,1-31.069.41a10.874,10.874,0,0,1-5.619-1.436,9.477,9.477,0,0,1-3.753-4.122,14.039,14.039,0,0,1-1.312-6.234q0-5.517,2.83-8.613t7.978-3.1a9.992,9.992,0,0,1,7.793,3.168A12.239,12.239,0,0,1-20.282-11.382Zm-16.509,0q0,7.854,5.8,7.854,5.742,0,5.742-7.854,0-7.772-5.783-7.772a4.931,4.931,0,0,0-4.4,2.01A10.228,10.228,0,0,0-36.791-11.382Zm41.2-11.3v2.646l-3.876.718a6.256,6.256,0,0,1,.882,1.764,6.958,6.958,0,0,1,.349,2.215A6.786,6.786,0,0,1-.656-9.823a10.127,10.127,0,0,1-6.665,2.01A10.807,10.807,0,0,1-9.29-7.978a2.715,2.715,0,0,0-1.559,2.256,1.253,1.253,0,0,0,.728,1.169,6.3,6.3,0,0,0,2.676.39h3.958a8.8,8.8,0,0,1,5.7,1.6A5.627,5.627,0,0,1,4.163,2.051,6.71,6.71,0,0,1,.984,8Q-2.194,10.09-8.2,10.09q-4.635,0-7.075-1.641a5.3,5.3,0,0,1-2.44-4.676A4.976,4.976,0,0,1-16.4.256a7.088,7.088,0,0,1,3.7-1.979,3.622,3.622,0,0,1-1.589-1.323,3.339,3.339,0,0,1-.625-1.917,3.3,3.3,0,0,1,.718-2.153,8.281,8.281,0,0,1,2.133-1.743,6.317,6.317,0,0,1-2.861-2.471,7.269,7.269,0,0,1-1.1-4.009,7.188,7.188,0,0,1,2.328-5.722q2.328-2.03,6.634-2.03a16.149,16.149,0,0,1,2.02.133,12.717,12.717,0,0,1,1.589.277ZM-13.412,3.527a2.651,2.651,0,0,0,1.4,2.4,7.721,7.721,0,0,0,3.948.841A11.927,11.927,0,0,0-2.194,5.64,3.381,3.381,0,0,0-.267,2.646,2.246,2.246,0,0,0-1.323.543,8.481,8.481,0,0,0-5.25-.082H-8.9a5.129,5.129,0,0,0-3.292.974A3.194,3.194,0,0,0-13.412,3.527Zm2.071-18.867a4.564,4.564,0,0,0,1.1,3.281A4.149,4.149,0,0,0-7.1-10.91q4.184,0,4.184-4.471A5.071,5.071,0,0,0-3.948-18.8,3.935,3.935,0,0,0-7.1-20a4.057,4.057,0,0,0-3.168,1.189A5,5,0,0,0-11.341-15.34Zm31.459-7.752a11.6,11.6,0,0,1,2.4.205L22.046-18.4a9.109,9.109,0,0,0-2.133-.246,6.172,6.172,0,0,0-4.686,1.887,6.82,6.82,0,0,0-1.794,4.9V0H8.613V-22.682h3.773l.636,4h.246a8.987,8.987,0,0,1,2.943-3.22A7,7,0,0,1,20.118-23.092ZM40.913,0l-.964-3.158h-.164a9.292,9.292,0,0,1-3.3,2.82A10.442,10.442,0,0,1,32.218.41,7.219,7.219,0,0,1,27-1.395,6.753,6.753,0,0,1,25.122-6.5a6,6,0,0,1,2.6-5.291q2.6-1.784,7.937-1.948l3.917-.123v-1.21a4.586,4.586,0,0,0-1.015-3.25A4.14,4.14,0,0,0,35.417-19.4a10.885,10.885,0,0,0-3.343.513A25.226,25.226,0,0,0,29-17.678l-1.559-3.445a16.774,16.774,0,0,1,4.04-1.466,18.593,18.593,0,0,1,4.143-.5q4.327,0,6.532,1.887t2.2,5.927V0ZM33.735-3.281A5.97,5.97,0,0,0,37.95-4.748a5.315,5.315,0,0,0,1.589-4.112v-1.969l-2.912.123a9.964,9.964,0,0,0-4.953,1.138A3.458,3.458,0,0,0,30.126-6.46a3.032,3.032,0,0,0,.9,2.348A3.877,3.877,0,0,0,33.735-3.281ZM70.2,0h-4.84V-13.986a6.342,6.342,0,0,0-.984-3.886A3.633,3.633,0,0,0,61.3-19.154a4.692,4.692,0,0,0-4.091,1.815q-1.3,1.815-1.3,6.04V0H51.085V-22.682h3.773l.677,2.974h.246a6.284,6.284,0,0,1,2.738-2.5,8.828,8.828,0,0,1,3.948-.882q5.229,0,6.932,3.568h.328a6.914,6.914,0,0,1,2.83-2.625,8.982,8.982,0,0,1,4.184-.943q4.061,0,5.917,2.051t1.856,6.255V0H79.693V-13.986a6.293,6.293,0,0,0-.995-3.886,3.662,3.662,0,0,0-3.086-1.282A4.784,4.784,0,0,0,71.5-17.4a9.038,9.038,0,0,0-1.3,5.383ZM-117.694,57l-8.7-25.04h-.164q.349,5.578.349,10.459V57h-4.45V27.018h6.911l8.326,23.851h.123l8.572-23.851h6.932V57h-4.717V42.173q0-2.235.113-5.824T-104.2,32h-.164l-9,25Zm39.478,0-.964-3.158h-.164a9.292,9.292,0,0,1-3.3,2.82,10.442,10.442,0,0,1-4.266.749,7.219,7.219,0,0,1-5.219-1.8A6.753,6.753,0,0,1-94.008,50.5a6,6,0,0,1,2.6-5.291q2.6-1.784,7.937-1.948l3.917-.123v-1.21a4.586,4.586,0,0,0-1.015-3.25A4.14,4.14,0,0,0-83.713,37.6a10.885,10.885,0,0,0-3.343.513,25.226,25.226,0,0,0-3.076,1.21l-1.559-3.445a16.774,16.774,0,0,1,4.04-1.466,18.592,18.592,0,0,1,4.143-.5q4.327,0,6.532,1.887t2.2,5.927V57Zm-7.178-3.281a5.97,5.97,0,0,0,4.214-1.466,5.315,5.315,0,0,0,1.589-4.112V46.172l-2.912.123a9.964,9.964,0,0,0-4.953,1.138A3.458,3.458,0,0,0-89,50.54a3.032,3.032,0,0,0,.9,2.348A3.877,3.877,0,0,0-85.395,53.719ZM-48.091,57h-4.84V43.055a6.1,6.1,0,0,0-1.056-3.917,4.082,4.082,0,0,0-3.353-1.292,5.331,5.331,0,0,0-4.471,1.8q-1.415,1.8-1.415,6.05V57h-4.819V34.318h3.773l.677,2.974h.246a6.71,6.71,0,0,1,2.912-2.5,9.759,9.759,0,0,1,4.184-.882q8.162,0,8.162,8.306Zm20.9,0-.964-3.158h-.164a9.292,9.292,0,0,1-3.3,2.82,10.442,10.442,0,0,1-4.266.749,7.219,7.219,0,0,1-5.219-1.8A6.753,6.753,0,0,1-42.984,50.5a6,6,0,0,1,2.6-5.291q2.6-1.784,7.937-1.948l3.917-.123v-1.21a4.586,4.586,0,0,0-1.015-3.25A4.14,4.14,0,0,0-32.689,37.6a10.885,10.885,0,0,0-3.343.513,25.226,25.226,0,0,0-3.076,1.21l-1.559-3.445a16.774,16.774,0,0,1,4.04-1.466,18.592,18.592,0,0,1,4.143-.5q4.327,0,6.532,1.887t2.2,5.927V57Zm-7.178-3.281a5.97,5.97,0,0,0,4.214-1.466,5.315,5.315,0,0,0,1.589-4.112V46.172l-2.912.123a9.964,9.964,0,0,0-4.953,1.138A3.458,3.458,0,0,0-37.98,50.54a3.032,3.032,0,0,0,.9,2.348A3.877,3.877,0,0,0-34.371,53.719Zm36.5-19.4v2.646l-3.876.718a6.256,6.256,0,0,1,.882,1.764A6.958,6.958,0,0,1-.513,41.66a6.786,6.786,0,0,1-2.42,5.517A10.127,10.127,0,0,1-9.6,49.187a10.807,10.807,0,0,1-1.969-.164,2.715,2.715,0,0,0-1.559,2.256,1.253,1.253,0,0,0,.728,1.169,6.3,6.3,0,0,0,2.676.39h3.958a8.8,8.8,0,0,1,5.7,1.6,5.627,5.627,0,0,1,1.948,4.614A6.71,6.71,0,0,1-1.292,65q-3.179,2.092-9.187,2.092-4.635,0-7.075-1.641A5.3,5.3,0,0,1-20,60.773a4.976,4.976,0,0,1,1.323-3.517,7.088,7.088,0,0,1,3.7-1.979,3.622,3.622,0,0,1-1.589-1.323,3.339,3.339,0,0,1-.625-1.917,3.3,3.3,0,0,1,.718-2.153,8.281,8.281,0,0,1,2.133-1.743A6.317,6.317,0,0,1-17.2,45.669a7.269,7.269,0,0,1-1.1-4.009,7.188,7.188,0,0,1,2.328-5.722q2.328-2.03,6.634-2.03a16.149,16.149,0,0,1,2.02.133,12.717,12.717,0,0,1,1.589.277ZM-15.688,60.527a2.651,2.651,0,0,0,1.4,2.4,7.721,7.721,0,0,0,3.948.841A11.927,11.927,0,0,0-4.471,62.64a3.381,3.381,0,0,0,1.928-2.994,2.246,2.246,0,0,0-1.056-2.1,8.481,8.481,0,0,0-3.927-.625h-3.65a5.129,5.129,0,0,0-3.292.974A3.194,3.194,0,0,0-15.688,60.527Zm2.071-18.867a4.564,4.564,0,0,0,1.1,3.281A4.149,4.149,0,0,0-9.372,46.09q4.184,0,4.184-4.471A5.071,5.071,0,0,0-6.224,38.2,3.935,3.935,0,0,0-9.372,37a4.057,4.057,0,0,0-3.168,1.189A5,5,0,0,0-13.617,41.66ZM16.242,57.41q-5.291,0-8.275-3.086t-2.984-8.5q0-5.558,2.769-8.736a9.563,9.563,0,0,1,7.608-3.179,9.347,9.347,0,0,1,7.1,2.728,10.422,10.422,0,0,1,2.6,7.506v2.6H9.946a7.45,7.45,0,0,0,1.784,5.076A6.214,6.214,0,0,0,16.468,53.6a17.488,17.488,0,0,0,3.743-.379,19.618,19.618,0,0,0,3.722-1.261v3.917a14.8,14.8,0,0,1-3.568,1.189A21.881,21.881,0,0,1,16.242,57.41ZM15.36,37.559a4.842,4.842,0,0,0-3.681,1.456,6.939,6.939,0,0,0-1.651,4.245H20.323A6.278,6.278,0,0,0,18.97,39,4.629,4.629,0,0,0,15.36,37.559ZM49.649,57H44.81V43.014a6.342,6.342,0,0,0-.984-3.886,3.633,3.633,0,0,0-3.076-1.282,4.692,4.692,0,0,0-4.091,1.815q-1.3,1.815-1.3,6.04V57H30.536V34.318H34.31l.677,2.974h.246a6.284,6.284,0,0,1,2.738-2.5,8.828,8.828,0,0,1,3.948-.882q5.229,0,6.932,3.568h.328a6.914,6.914,0,0,1,2.83-2.625,8.982,8.982,0,0,1,4.184-.943q4.061,0,5.917,2.051t1.856,6.255V57H59.145V43.014a6.293,6.293,0,0,0-.995-3.886,3.662,3.662,0,0,0-3.086-1.282A4.784,4.784,0,0,0,50.952,39.6a9.038,9.038,0,0,0-1.3,5.383Zm30.946.41q-5.291,0-8.275-3.086t-2.984-8.5q0-5.558,2.769-8.736a9.563,9.563,0,0,1,7.608-3.179,9.347,9.347,0,0,1,7.1,2.728,10.422,10.422,0,0,1,2.6,7.506v2.6H74.3a7.45,7.45,0,0,0,1.784,5.076A6.214,6.214,0,0,0,80.821,53.6a17.488,17.488,0,0,0,3.743-.379,19.618,19.618,0,0,0,3.722-1.261v3.917a14.8,14.8,0,0,1-3.568,1.189A21.881,21.881,0,0,1,80.6,57.41Zm-.882-19.852a4.842,4.842,0,0,0-3.681,1.456,6.939,6.939,0,0,0-1.651,4.245H84.677A6.278,6.278,0,0,0,83.323,39,4.629,4.629,0,0,0,79.714,37.559ZM114.844,57H110V43.055a6.1,6.1,0,0,0-1.056-3.917,4.082,4.082,0,0,0-3.353-1.292,5.331,5.331,0,0,0-4.471,1.8q-1.415,1.8-1.415,6.05V57H94.89V34.318h3.773l.677,2.974h.246a6.71,6.71,0,0,1,2.912-2.5,9.759,9.759,0,0,1,4.184-.882q8.162,0,8.162,8.306ZM130,53.514a11.72,11.72,0,0,0,3.527-.554v3.63a9.729,9.729,0,0,1-2.061.584,14.2,14.2,0,0,1-2.615.236q-6.85,0-6.85-7.219V37.969h-3.1V35.836l3.322-1.764,1.641-4.8h2.974v5.045h6.46v3.65h-6.46V50.109a3.406,3.406,0,0,0,.872,2.574A3.177,3.177,0,0,0,130,53.514Z" transform="translate(200.474 87.902)" fill="#505050"/></g><g transform="translate(8421 15677)"><g fill="#f5f5f5" stroke="#707070" stroke-width="1"><rect width="400" height="200" rx="15" stroke="none"/><rect x="0.5" y="0.5" width="399" height="199" rx="14.5" fill="none"/></g><path d="M-80.811-20.918a8.742,8.742,0,0,1-3.076,7.2q-3.076,2.5-8.757,2.5h-3.117V0h-4.9V-29.982h8.634q5.619,0,8.418,2.3T-80.811-20.918Zm-14.95,5.578h2.6q3.773,0,5.537-1.312a4.777,4.777,0,0,0,1.764-4.1,4.654,4.654,0,0,0-1.579-3.855,7.8,7.8,0,0,0-4.922-1.271h-3.4Zm45.322.062q0,7.424-4.122,11.351T-66.435,0h-8.388V-29.982h9.27q7.157,0,11.136,3.855T-50.439-15.278Zm-5.168.164q0-10.767-10.069-10.767h-4.245V-4.122h3.486Q-55.607-4.122-55.607-15.114ZM-39.139,0H-44V-29.982h16.919v4.143H-39.139v9.372h11.3V-12.3h-11.3ZM13.648-15.278q0,7.424-4.122,11.351T-2.348,0h-8.388V-29.982h9.27q7.157,0,11.136,3.855T13.648-15.278Zm-5.168.164q0-10.767-10.069-10.767H-5.834V-4.122h3.486Q8.48-4.122,8.48-15.114ZM29.48.41q-5.291,0-8.275-3.086t-2.984-8.5q0-5.558,2.769-8.736A9.563,9.563,0,0,1,28.6-23.092a9.347,9.347,0,0,1,7.1,2.728,10.422,10.422,0,0,1,2.6,7.506v2.6H23.184a7.45,7.45,0,0,0,1.784,5.076A6.214,6.214,0,0,0,29.706-3.4a17.488,17.488,0,0,0,3.743-.379A19.618,19.618,0,0,0,37.17-5.045v3.917A14.8,14.8,0,0,1,33.6.062,21.881,21.881,0,0,1,29.48.41ZM28.6-19.441a4.842,4.842,0,0,0-3.681,1.456,6.939,6.939,0,0,0-1.651,4.245H33.561A6.278,6.278,0,0,0,32.208-18,4.629,4.629,0,0,0,28.6-19.441ZM52.223-3.486A11.72,11.72,0,0,0,55.75-4.04V-.41a9.729,9.729,0,0,1-2.061.584A14.2,14.2,0,0,1,51.075.41q-6.85,0-6.85-7.219V-19.031h-3.1v-2.133l3.322-1.764,1.641-4.8h2.974v5.045h6.46v3.65h-6.46V-6.891a3.406,3.406,0,0,0,.872,2.574A3.177,3.177,0,0,0,52.223-3.486ZM74.474,0,73.51-3.158h-.164a9.292,9.292,0,0,1-3.3,2.82A10.442,10.442,0,0,1,65.779.41a7.219,7.219,0,0,1-5.219-1.8A6.753,6.753,0,0,1,58.683-6.5a6,6,0,0,1,2.6-5.291q2.6-1.784,7.937-1.948l3.917-.123v-1.21a4.586,4.586,0,0,0-1.015-3.25A4.14,4.14,0,0,0,68.978-19.4a10.885,10.885,0,0,0-3.343.513,25.226,25.226,0,0,0-3.076,1.21L61-21.123a16.774,16.774,0,0,1,4.04-1.466,18.593,18.593,0,0,1,4.143-.5q4.327,0,6.532,1.887t2.2,5.927V0ZM67.3-3.281a5.97,5.97,0,0,0,4.214-1.466A5.315,5.315,0,0,0,73.1-8.859v-1.969l-2.912.123a9.964,9.964,0,0,0-4.953,1.138A3.458,3.458,0,0,0,63.687-6.46a3.032,3.032,0,0,0,.9,2.348A3.877,3.877,0,0,0,67.3-3.281ZM89.465,0H84.646V-22.682h4.819ZM84.359-28.69a2.668,2.668,0,0,1,.708-1.989,2.757,2.757,0,0,1,2.02-.7,2.7,2.7,0,0,1,1.979.7,2.668,2.668,0,0,1,.708,1.989,2.619,2.619,0,0,1-.708,1.938,2.675,2.675,0,0,1-1.979.708,2.733,2.733,0,0,1-2.02-.708A2.619,2.619,0,0,1,84.359-28.69ZM101.175,0H96.356V-31.91h4.819Zm-218.87,57-8.7-25.04h-.164q.349,5.578.349,10.459V57h-4.45V27.018h6.911l8.326,23.851h.123l8.572-23.851h6.932V57h-4.717V42.173q0-2.235.113-5.824T-104.2,32h-.164l-9,25Zm39.478,0-.964-3.158h-.164a9.292,9.292,0,0,1-3.3,2.82,10.442,10.442,0,0,1-4.266.749,7.219,7.219,0,0,1-5.219-1.8A6.753,6.753,0,0,1-94.008,50.5a6,6,0,0,1,2.6-5.291q2.6-1.784,7.937-1.948l3.917-.123v-1.21a4.586,4.586,0,0,0-1.015-3.25A4.14,4.14,0,0,0-83.713,37.6a10.885,10.885,0,0,0-3.343.513,25.226,25.226,0,0,0-3.076,1.21l-1.559-3.445a16.774,16.774,0,0,1,4.04-1.466,18.592,18.592,0,0,1,4.143-.5q4.327,0,6.532,1.887t2.2,5.927V57Zm-7.178-3.281a5.97,5.97,0,0,0,4.214-1.466,5.315,5.315,0,0,0,1.589-4.112V46.172l-2.912.123a9.964,9.964,0,0,0-4.953,1.138A3.458,3.458,0,0,0-89,50.54a3.032,3.032,0,0,0,.9,2.348A3.877,3.877,0,0,0-85.395,53.719ZM-48.091,57h-4.84V43.055a6.1,6.1,0,0,0-1.056-3.917,4.082,4.082,0,0,0-3.353-1.292,5.331,5.331,0,0,0-4.471,1.8q-1.415,1.8-1.415,6.05V57h-4.819V34.318h3.773l.677,2.974h.246a6.71,6.71,0,0,1,2.912-2.5,9.759,9.759,0,0,1,4.184-.882q8.162,0,8.162,8.306Zm20.9,0-.964-3.158h-.164a9.292,9.292,0,0,1-3.3,2.82,10.442,10.442,0,0,1-4.266.749,7.219,7.219,0,0,1-5.219-1.8A6.753,6.753,0,0,1-42.984,50.5a6,6,0,0,1,2.6-5.291q2.6-1.784,7.937-1.948l3.917-.123v-1.21a4.586,4.586,0,0,0-1.015-3.25A4.14,4.14,0,0,0-32.689,37.6a10.885,10.885,0,0,0-3.343.513,25.226,25.226,0,0,0-3.076,1.21l-1.559-3.445a16.774,16.774,0,0,1,4.04-1.466,18.592,18.592,0,0,1,4.143-.5q4.327,0,6.532,1.887t2.2,5.927V57Zm-7.178-3.281a5.97,5.97,0,0,0,4.214-1.466,5.315,5.315,0,0,0,1.589-4.112V46.172l-2.912.123a9.964,9.964,0,0,0-4.953,1.138A3.458,3.458,0,0,0-37.98,50.54a3.032,3.032,0,0,0,.9,2.348A3.877,3.877,0,0,0-34.371,53.719Zm36.5-19.4v2.646l-3.876.718a6.256,6.256,0,0,1,.882,1.764A6.958,6.958,0,0,1-.513,41.66a6.786,6.786,0,0,1-2.42,5.517A10.127,10.127,0,0,1-9.6,49.187a10.807,10.807,0,0,1-1.969-.164,2.715,2.715,0,0,0-1.559,2.256,1.253,1.253,0,0,0,.728,1.169,6.3,6.3,0,0,0,2.676.39h3.958a8.8,8.8,0,0,1,5.7,1.6,5.627,5.627,0,0,1,1.948,4.614A6.71,6.71,0,0,1-1.292,65q-3.179,2.092-9.187,2.092-4.635,0-7.075-1.641A5.3,5.3,0,0,1-20,60.773a4.976,4.976,0,0,1,1.323-3.517,7.088,7.088,0,0,1,3.7-1.979,3.622,3.622,0,0,1-1.589-1.323,3.339,3.339,0,0,1-.625-1.917,3.3,3.3,0,0,1,.718-2.153,8.281,8.281,0,0,1,2.133-1.743A6.317,6.317,0,0,1-17.2,45.669a7.269,7.269,0,0,1-1.1-4.009,7.188,7.188,0,0,1,2.328-5.722q2.328-2.03,6.634-2.03a16.149,16.149,0,0,1,2.02.133,12.717,12.717,0,0,1,1.589.277ZM-15.688,60.527a2.651,2.651,0,0,0,1.4,2.4,7.721,7.721,0,0,0,3.948.841A11.927,11.927,0,0,0-4.471,62.64a3.381,3.381,0,0,0,1.928-2.994,2.246,2.246,0,0,0-1.056-2.1,8.481,8.481,0,0,0-3.927-.625h-3.65a5.129,5.129,0,0,0-3.292.974A3.194,3.194,0,0,0-15.688,60.527Zm2.071-18.867a4.564,4.564,0,0,0,1.1,3.281A4.149,4.149,0,0,0-9.372,46.09q4.184,0,4.184-4.471A5.071,5.071,0,0,0-6.224,38.2,3.935,3.935,0,0,0-9.372,37a4.057,4.057,0,0,0-3.168,1.189A5,5,0,0,0-13.617,41.66ZM16.242,57.41q-5.291,0-8.275-3.086t-2.984-8.5q0-5.558,2.769-8.736a9.563,9.563,0,0,1,7.608-3.179,9.347,9.347,0,0,1,7.1,2.728,10.422,10.422,0,0,1,2.6,7.506v2.6H9.946a7.45,7.45,0,0,0,1.784,5.076A6.214,6.214,0,0,0,16.468,53.6a17.488,17.488,0,0,0,3.743-.379,19.618,19.618,0,0,0,3.722-1.261v3.917a14.8,14.8,0,0,1-3.568,1.189A21.881,21.881,0,0,1,16.242,57.41ZM15.36,37.559a4.842,4.842,0,0,0-3.681,1.456,6.939,6.939,0,0,0-1.651,4.245H20.323A6.278,6.278,0,0,0,18.97,39,4.629,4.629,0,0,0,15.36,37.559ZM49.649,57H44.81V43.014a6.342,6.342,0,0,0-.984-3.886,3.633,3.633,0,0,0-3.076-1.282,4.692,4.692,0,0,0-4.091,1.815q-1.3,1.815-1.3,6.04V57H30.536V34.318H34.31l.677,2.974h.246a6.284,6.284,0,0,1,2.738-2.5,8.828,8.828,0,0,1,3.948-.882q5.229,0,6.932,3.568h.328a6.914,6.914,0,0,1,2.83-2.625,8.982,8.982,0,0,1,4.184-.943q4.061,0,5.917,2.051t1.856,6.255V57H59.145V43.014a6.293,6.293,0,0,0-.995-3.886,3.662,3.662,0,0,0-3.086-1.282A4.784,4.784,0,0,0,50.952,39.6a9.038,9.038,0,0,0-1.3,5.383Zm30.946.41q-5.291,0-8.275-3.086t-2.984-8.5q0-5.558,2.769-8.736a9.563,9.563,0,0,1,7.608-3.179,9.347,9.347,0,0,1,7.1,2.728,10.422,10.422,0,0,1,2.6,7.506v2.6H74.3a7.45,7.45,0,0,0,1.784,5.076A6.214,6.214,0,0,0,80.821,53.6a17.488,17.488,0,0,0,3.743-.379,19.618,19.618,0,0,0,3.722-1.261v3.917a14.8,14.8,0,0,1-3.568,1.189A21.881,21.881,0,0,1,80.6,57.41Zm-.882-19.852a4.842,4.842,0,0,0-3.681,1.456,6.939,6.939,0,0,0-1.651,4.245H84.677A6.278,6.278,0,0,0,83.323,39,4.629,4.629,0,0,0,79.714,37.559ZM114.844,57H110V43.055a6.1,6.1,0,0,0-1.056-3.917,4.082,4.082,0,0,0-3.353-1.292,5.331,5.331,0,0,0-4.471,1.8q-1.415,1.8-1.415,6.05V57H94.89V34.318h3.773l.677,2.974h.246a6.71,6.71,0,0,1,2.912-2.5,9.759,9.759,0,0,1,4.184-.882q8.162,0,8.162,8.306ZM130,53.514a11.72,11.72,0,0,0,3.527-.554v3.63a9.729,9.729,0,0,1-2.061.584,14.2,14.2,0,0,1-2.615.236q-6.85,0-6.85-7.219V37.969h-3.1V35.836l3.322-1.764,1.641-4.8h2.974v5.045h6.46v3.65h-6.46V50.109a3.406,3.406,0,0,0,.872,2.574A3.177,3.177,0,0,0,130,53.514Z" transform="translate(200.474 87.902)" fill="#505050"/></g><g transform="translate(1317.833 -305)"><path d="M-13.745,298.9V0H93.167" transform="translate(6992.5 16082.117)" fill="none" stroke="#707070" stroke-linejoin="round" stroke-width="3"/><path d="M10,0,20,19H0Z" transform="translate(7103.167 16072) rotate(90)" fill="#707070"/></g><g transform="translate(8296.586 16078)"><path d="M0,0V298.9H106.912" transform="translate(0 0)" fill="none" stroke="#707070" stroke-linejoin="round" stroke-width="3"/><path d="M10,0,20,19H0Z" transform="translate(124.412 289.018) rotate(90)" fill="#707070"/></g></g></g></svg>