<svg width="1450" height="920" viewBox="0 0 1450 920" fill="none" xmlns="http://www.w3.org/2000/svg">
<rect width="1450" height="920" fill="white"/>
<rect x="550" y="10" width="350" height="120" rx="40" fill="#0D5692"/>
<path d="M675.711 77.0215C675.711 79.3066 674.885 81.0996 673.232 82.4004C671.58 83.7012 669.301 84.3516 666.395 84.3516C663.488 84.3516 661.109 83.9004 659.258 82.998V79.0254C660.43 79.5762 661.672 80.0098 662.984 80.3262C664.309 80.6426 665.539 80.8008 666.676 80.8008C668.34 80.8008 669.564 80.4844 670.35 79.8516C671.146 79.2188 671.545 78.3691 671.545 77.3027C671.545 76.3418 671.182 75.5273 670.455 74.8594C669.729 74.1914 668.229 73.4004 665.955 72.4863C663.611 71.5371 661.959 70.4531 660.998 69.2344C660.037 68.0156 659.557 66.5508 659.557 64.8398C659.557 62.6953 660.318 61.0078 661.842 59.7773C663.365 58.5469 665.41 57.9316 667.977 57.9316C670.438 57.9316 672.887 58.4707 675.324 59.5488L673.988 62.9766C671.703 62.0156 669.664 61.5352 667.871 61.5352C666.512 61.5352 665.48 61.834 664.777 62.4316C664.074 63.0176 663.723 63.7969 663.723 64.7695C663.723 65.4375 663.863 66.0117 664.145 66.4922C664.426 66.9609 664.889 67.4062 665.533 67.8281C666.178 68.25 667.338 68.8066 669.014 69.498C670.9 70.2832 672.283 71.0156 673.162 71.6953C674.041 72.375 674.686 73.1426 675.096 73.998C675.506 74.8535 675.711 75.8613 675.711 77.0215ZM688.086 84.3516C685.145 84.3516 682.906 83.4961 681.371 81.7852C679.848 80.0625 679.086 77.5957 679.086 74.3848C679.086 71.1152 679.883 68.6016 681.477 66.8438C683.082 65.0859 685.396 64.207 688.42 64.207C690.471 64.207 692.316 64.5879 693.957 65.3496L692.709 68.6719C690.963 67.9922 689.521 67.6523 688.385 67.6523C685.021 67.6523 683.34 69.8848 683.34 74.3496C683.34 76.5293 683.756 78.1699 684.588 79.2715C685.432 80.3613 686.662 80.9062 688.279 80.9062C690.119 80.9062 691.859 80.4492 693.5 79.5352V83.1387C692.762 83.5723 691.971 83.8828 691.127 84.0703C690.295 84.2578 689.281 84.3516 688.086 84.3516ZM715.314 74.2441C715.314 77.4199 714.5 79.8984 712.871 81.6797C711.242 83.4609 708.975 84.3516 706.068 84.3516C704.252 84.3516 702.646 83.9414 701.252 83.1211C699.857 82.3008 698.785 81.123 698.035 79.5879C697.285 78.0527 696.91 76.2715 696.91 74.2441C696.91 71.0918 697.719 68.6309 699.336 66.8613C700.953 65.0918 703.232 64.207 706.174 64.207C708.986 64.207 711.213 65.1152 712.854 66.9316C714.494 68.7363 715.314 71.1738 715.314 74.2441ZM701.164 74.2441C701.164 78.7324 702.822 80.9766 706.139 80.9766C709.42 80.9766 711.061 78.7324 711.061 74.2441C711.061 69.8027 709.408 67.582 706.104 67.582C704.369 67.582 703.109 68.1562 702.324 69.3047C701.551 70.4531 701.164 72.0996 701.164 74.2441ZM729.939 84.3516C727.479 84.3516 725.568 83.4668 724.209 81.6973H723.963C724.127 83.3379 724.209 84.334 724.209 84.6855V92.6484H720.078V64.5586H723.418C723.512 64.9219 723.705 65.7891 723.998 67.1602H724.209C725.498 65.1914 727.432 64.207 730.01 64.207C732.436 64.207 734.322 65.0859 735.67 66.8438C737.029 68.6016 737.709 71.0684 737.709 74.2441C737.709 77.4199 737.018 79.8984 735.635 81.6797C734.264 83.4609 732.365 84.3516 729.939 84.3516ZM728.938 67.582C727.297 67.582 726.096 68.0625 725.334 69.0234C724.584 69.9844 724.209 71.5195 724.209 73.6289V74.2441C724.209 76.6113 724.584 78.3281 725.334 79.3945C726.084 80.4492 727.309 80.9766 729.008 80.9766C730.438 80.9766 731.539 80.3906 732.312 79.2188C733.086 78.0469 733.473 76.377 733.473 74.209C733.473 72.0293 733.086 70.3828 732.312 69.2695C731.551 68.1445 730.426 67.582 728.938 67.582ZM746.639 84H742.508V64.5586H746.639V84ZM742.262 59.4082C742.262 58.6699 742.461 58.1016 742.859 57.7031C743.27 57.3047 743.85 57.1055 744.6 57.1055C745.326 57.1055 745.889 57.3047 746.287 57.7031C746.697 58.1016 746.902 58.6699 746.902 59.4082C746.902 60.1113 746.697 60.668 746.287 61.0781C745.889 61.4766 745.326 61.6758 744.6 61.6758C743.85 61.6758 743.27 61.4766 742.859 61.0781C742.461 60.668 742.262 60.1113 742.262 59.4082ZM769.666 84H765.518V72.0469C765.518 70.5469 765.213 69.4277 764.604 68.6895C764.006 67.9512 763.051 67.582 761.738 67.582C759.992 67.582 758.715 68.0977 757.906 69.1289C757.098 70.1602 756.693 71.8887 756.693 74.3145V84H752.562V64.5586H755.797L756.377 67.1074H756.588C757.174 66.1816 758.006 65.4668 759.084 64.9629C760.162 64.459 761.357 64.207 762.67 64.207C767.334 64.207 769.666 66.5801 769.666 71.3262V84ZM791.832 64.5586V66.8262L788.51 67.4414C788.814 67.8516 789.066 68.3555 789.266 68.9531C789.465 69.5508 789.564 70.1836 789.564 70.8516C789.564 72.8555 788.873 74.4316 787.49 75.5801C786.107 76.7285 784.203 77.3027 781.777 77.3027C781.156 77.3027 780.594 77.2559 780.09 77.1621C779.199 77.7129 778.754 78.3574 778.754 79.0957C778.754 79.541 778.959 79.875 779.369 80.0977C779.791 80.3203 780.559 80.4316 781.672 80.4316H785.064C787.209 80.4316 788.838 80.8887 789.951 81.8027C791.064 82.7168 791.621 84.0352 791.621 85.7578C791.621 87.9609 790.713 89.6602 788.896 90.8555C787.08 92.0508 784.455 92.6484 781.021 92.6484C778.373 92.6484 776.352 92.1797 774.957 91.2422C773.562 90.3047 772.865 88.9688 772.865 87.2344C772.865 86.0391 773.24 85.0312 773.99 84.2109C774.752 83.4023 775.812 82.8398 777.172 82.5234C776.621 82.2891 776.164 81.9141 775.801 81.3984C775.449 80.8711 775.273 80.3203 775.273 79.7461C775.273 79.0195 775.479 78.4043 775.889 77.9004C776.299 77.3965 776.908 76.8984 777.717 76.4062C776.709 75.9727 775.889 75.2695 775.256 74.2969C774.635 73.3125 774.324 72.1641 774.324 70.8516C774.324 68.7422 774.986 67.1074 776.311 65.9473C777.646 64.7871 779.545 64.207 782.006 64.207C782.557 64.207 783.131 64.248 783.729 64.3301C784.338 64.4004 784.795 64.4766 785.1 64.5586H791.832ZM776.557 87.0234C776.557 87.9141 776.955 88.5996 777.752 89.0801C778.561 89.5605 779.691 89.8008 781.145 89.8008C783.395 89.8008 785.07 89.4785 786.172 88.834C787.273 88.1895 787.824 87.334 787.824 86.2676C787.824 85.4238 787.52 84.8203 786.91 84.457C786.312 84.1055 785.193 83.9297 783.553 83.9297H780.424C779.24 83.9297 778.297 84.2051 777.594 84.7559C776.902 85.3184 776.557 86.0742 776.557 87.0234ZM778.332 70.8516C778.332 72.0703 778.643 73.0078 779.264 73.6641C779.896 74.3203 780.799 74.6484 781.971 74.6484C784.361 74.6484 785.557 73.3711 785.557 70.8164C785.557 69.5508 785.258 68.5781 784.66 67.8984C784.074 67.207 783.178 66.8613 781.971 66.8613C780.775 66.8613 779.867 67.2012 779.246 67.8809C778.637 68.5605 778.332 69.5508 778.332 70.8516Z" fill="white"/>
<rect x="550" y="205" width="350" height="120" rx="40" fill="#0D5692"/>
<path d="M624.014 253.301V269.93C624.014 271.828 623.604 273.492 622.783 274.922C621.975 276.34 620.797 277.436 619.25 278.209C617.715 278.971 615.875 279.352 613.73 279.352C610.543 279.352 608.064 278.508 606.295 276.82C604.525 275.133 603.641 272.812 603.641 269.859V253.301H607.859V269.561C607.859 271.682 608.352 273.246 609.336 274.254C610.32 275.262 611.832 275.766 613.871 275.766C617.832 275.766 619.812 273.686 619.812 269.525V253.301H624.014ZM643.209 273.463C643.209 275.361 642.518 276.82 641.135 277.84C639.752 278.848 637.771 279.352 635.193 279.352C632.604 279.352 630.523 278.959 628.953 278.174V274.605C631.238 275.66 633.365 276.188 635.334 276.188C637.877 276.188 639.148 275.42 639.148 273.885C639.148 273.393 639.008 272.982 638.727 272.654C638.445 272.326 637.982 271.986 637.338 271.635C636.693 271.283 635.797 270.885 634.648 270.439C632.41 269.572 630.893 268.705 630.096 267.838C629.311 266.971 628.918 265.846 628.918 264.463C628.918 262.799 629.586 261.51 630.922 260.596C632.27 259.67 634.098 259.207 636.406 259.207C638.691 259.207 640.854 259.67 642.893 260.596L641.557 263.707C639.459 262.84 637.695 262.406 636.266 262.406C634.086 262.406 632.996 263.027 632.996 264.27C632.996 264.879 633.277 265.395 633.84 265.816C634.414 266.238 635.656 266.818 637.566 267.557C639.172 268.178 640.338 268.746 641.064 269.262C641.791 269.777 642.33 270.375 642.682 271.055C643.033 271.723 643.209 272.525 643.209 273.463ZM656.182 279.352C653.158 279.352 650.791 278.473 649.08 276.715C647.381 274.945 646.531 272.514 646.531 269.42C646.531 266.244 647.322 263.748 648.904 261.932C650.486 260.115 652.66 259.207 655.426 259.207C657.992 259.207 660.02 259.986 661.508 261.545C662.996 263.104 663.74 265.248 663.74 267.979V270.211H650.785C650.844 272.098 651.354 273.551 652.314 274.57C653.275 275.578 654.629 276.082 656.375 276.082C657.523 276.082 658.59 275.977 659.574 275.766C660.57 275.543 661.637 275.18 662.773 274.676V278.033C661.766 278.514 660.746 278.854 659.715 279.053C658.684 279.252 657.506 279.352 656.182 279.352ZM655.426 262.336C654.113 262.336 653.059 262.752 652.262 263.584C651.477 264.416 651.008 265.629 650.855 267.223H659.68C659.656 265.617 659.27 264.404 658.52 263.584C657.77 262.752 656.738 262.336 655.426 262.336ZM678.295 259.207C679.127 259.207 679.812 259.266 680.352 259.383L679.947 263.232C679.361 263.092 678.752 263.021 678.119 263.021C676.467 263.021 675.125 263.561 674.094 264.639C673.074 265.717 672.564 267.117 672.564 268.84V279H668.434V259.559H671.668L672.213 262.986H672.424C673.068 261.826 673.906 260.906 674.938 260.227C675.98 259.547 677.1 259.207 678.295 259.207ZM697.965 265.254H700.883C702.84 265.254 704.258 264.891 705.137 264.164C706.016 263.438 706.455 262.359 706.455 260.93C706.455 259.477 705.98 258.434 705.031 257.801C704.082 257.168 702.652 256.852 700.742 256.852H697.965V265.254ZM697.965 268.734V279H693.764V253.301H701.023C704.34 253.301 706.795 253.922 708.389 255.164C709.982 256.406 710.779 258.281 710.779 260.789C710.779 263.988 709.115 266.268 705.787 267.627L713.047 279H708.266L702.113 268.734H697.965ZM724.842 279.352C721.818 279.352 719.451 278.473 717.74 276.715C716.041 274.945 715.191 272.514 715.191 269.42C715.191 266.244 715.982 263.748 717.564 261.932C719.146 260.115 721.32 259.207 724.086 259.207C726.652 259.207 728.68 259.986 730.168 261.545C731.656 263.104 732.4 265.248 732.4 267.979V270.211H719.445C719.504 272.098 720.014 273.551 720.975 274.57C721.936 275.578 723.289 276.082 725.035 276.082C726.184 276.082 727.25 275.977 728.234 275.766C729.23 275.543 730.297 275.18 731.434 274.676V278.033C730.426 278.514 729.406 278.854 728.375 279.053C727.344 279.252 726.166 279.352 724.842 279.352ZM724.086 262.336C722.773 262.336 721.719 262.752 720.922 263.584C720.137 264.416 719.668 265.629 719.516 267.223H728.34C728.316 265.617 727.93 264.404 727.18 263.584C726.43 262.752 725.398 262.336 724.086 262.336ZM750.154 273.463C750.154 275.361 749.463 276.82 748.08 277.84C746.697 278.848 744.717 279.352 742.139 279.352C739.549 279.352 737.469 278.959 735.898 278.174V274.605C738.184 275.66 740.311 276.188 742.279 276.188C744.822 276.188 746.094 275.42 746.094 273.885C746.094 273.393 745.953 272.982 745.672 272.654C745.391 272.326 744.928 271.986 744.283 271.635C743.639 271.283 742.742 270.885 741.594 270.439C739.355 269.572 737.838 268.705 737.041 267.838C736.256 266.971 735.863 265.846 735.863 264.463C735.863 262.799 736.531 261.51 737.867 260.596C739.215 259.67 741.043 259.207 743.352 259.207C745.637 259.207 747.799 259.67 749.838 260.596L748.502 263.707C746.404 262.84 744.641 262.406 743.211 262.406C741.031 262.406 739.941 263.027 739.941 264.27C739.941 264.879 740.223 265.395 740.785 265.816C741.359 266.238 742.602 266.818 744.512 267.557C746.117 268.178 747.283 268.746 748.01 269.262C748.736 269.777 749.275 270.375 749.627 271.055C749.979 271.723 750.154 272.525 750.154 273.463ZM763.127 279.352C760.104 279.352 757.736 278.473 756.025 276.715C754.326 274.945 753.477 272.514 753.477 269.42C753.477 266.244 754.268 263.748 755.85 261.932C757.432 260.115 759.605 259.207 762.371 259.207C764.938 259.207 766.965 259.986 768.453 261.545C769.941 263.104 770.686 265.248 770.686 267.979V270.211H757.73C757.789 272.098 758.299 273.551 759.26 274.57C760.221 275.578 761.574 276.082 763.32 276.082C764.469 276.082 765.535 275.977 766.52 275.766C767.516 275.543 768.582 275.18 769.719 274.676V278.033C768.711 278.514 767.691 278.854 766.66 279.053C765.629 279.252 764.451 279.352 763.127 279.352ZM762.371 262.336C761.059 262.336 760.004 262.752 759.207 263.584C758.422 264.416 757.953 265.629 757.801 267.223H766.625C766.602 265.617 766.215 264.404 765.465 263.584C764.715 262.752 763.684 262.336 762.371 262.336ZM787.543 279L786.717 276.293H786.576C785.639 277.477 784.695 278.285 783.746 278.719C782.797 279.141 781.578 279.352 780.09 279.352C778.18 279.352 776.686 278.836 775.607 277.805C774.541 276.773 774.008 275.314 774.008 273.428C774.008 271.424 774.752 269.912 776.24 268.893C777.729 267.873 779.996 267.316 783.043 267.223L786.4 267.117V266.08C786.4 264.838 786.107 263.912 785.521 263.303C784.947 262.682 784.051 262.371 782.832 262.371C781.836 262.371 780.881 262.518 779.967 262.811C779.053 263.104 778.174 263.449 777.33 263.848L775.994 260.895C777.049 260.344 778.203 259.928 779.457 259.646C780.711 259.354 781.895 259.207 783.008 259.207C785.48 259.207 787.344 259.746 788.598 260.824C789.863 261.902 790.496 263.596 790.496 265.904V279H787.543ZM781.391 276.188C782.891 276.188 784.092 275.771 784.994 274.939C785.908 274.096 786.365 272.918 786.365 271.406V269.719L783.869 269.824C781.924 269.895 780.506 270.223 779.615 270.809C778.736 271.383 778.297 272.268 778.297 273.463C778.297 274.33 778.555 275.004 779.07 275.484C779.586 275.953 780.359 276.188 781.391 276.188ZM806.123 259.207C806.955 259.207 807.641 259.266 808.18 259.383L807.775 263.232C807.189 263.092 806.58 263.021 805.947 263.021C804.295 263.021 802.953 263.561 801.922 264.639C800.902 265.717 800.393 267.117 800.393 268.84V279H796.262V259.559H799.496L800.041 262.986H800.252C800.896 261.826 801.734 260.906 802.766 260.227C803.809 259.547 804.928 259.207 806.123 259.207ZM819.641 279.352C816.699 279.352 814.461 278.496 812.926 276.785C811.402 275.062 810.641 272.596 810.641 269.385C810.641 266.115 811.438 263.602 813.031 261.844C814.637 260.086 816.951 259.207 819.975 259.207C822.025 259.207 823.871 259.588 825.512 260.35L824.264 263.672C822.518 262.992 821.076 262.652 819.939 262.652C816.576 262.652 814.895 264.885 814.895 269.35C814.895 271.529 815.311 273.17 816.143 274.271C816.986 275.361 818.217 275.906 819.834 275.906C821.674 275.906 823.414 275.449 825.055 274.535V278.139C824.316 278.572 823.525 278.883 822.682 279.07C821.85 279.258 820.836 279.352 819.641 279.352ZM846.729 279H842.58V267.047C842.58 265.547 842.275 264.428 841.666 263.689C841.068 262.951 840.113 262.582 838.801 262.582C837.066 262.582 835.789 263.104 834.969 264.146C834.16 265.178 833.756 266.912 833.756 269.35V279H829.625V251.648H833.756V258.592C833.756 259.705 833.686 260.895 833.545 262.16H833.809C834.371 261.223 835.15 260.496 836.146 259.98C837.154 259.465 838.326 259.207 839.662 259.207C844.373 259.207 846.729 261.58 846.729 266.326V279Z" fill="white"/>
<rect x="550" y="400" width="350" height="120" rx="40" fill="#0D5692"/>
<path d="M630.359 474V448.301H634.561V474H630.359ZM657.307 474L654.74 466.863H644.914L642.4 474H637.971L647.586 448.195H652.156L661.771 474H657.307ZM653.633 463.242L651.225 456.246C651.049 455.777 650.803 455.039 650.486 454.031C650.182 453.023 649.971 452.285 649.854 451.816C649.537 453.258 649.074 454.834 648.465 456.545L646.145 463.242H653.633ZM685.625 474L678.172 452.537H678.031C678.23 455.725 678.33 458.713 678.33 461.502V474H674.516V448.301H680.439L687.576 468.744H687.682L695.029 448.301H700.971V474H696.928V461.291C696.928 460.014 696.957 458.35 697.016 456.299C697.086 454.248 697.145 453.006 697.191 452.572H697.051L689.334 474H685.625ZM719.463 474L718.637 471.293H718.496C717.559 472.477 716.615 473.285 715.666 473.719C714.717 474.141 713.498 474.352 712.01 474.352C710.1 474.352 708.605 473.836 707.527 472.805C706.461 471.773 705.928 470.314 705.928 468.428C705.928 466.424 706.672 464.912 708.16 463.893C709.648 462.873 711.916 462.316 714.963 462.223L718.32 462.117V461.08C718.32 459.838 718.027 458.912 717.441 458.303C716.867 457.682 715.971 457.371 714.752 457.371C713.756 457.371 712.801 457.518 711.887 457.811C710.973 458.104 710.094 458.449 709.25 458.848L707.914 455.895C708.969 455.344 710.123 454.928 711.377 454.646C712.631 454.354 713.814 454.207 714.928 454.207C717.4 454.207 719.264 454.746 720.518 455.824C721.783 456.902 722.416 458.596 722.416 460.904V474H719.463ZM713.311 471.188C714.811 471.188 716.012 470.771 716.914 469.939C717.828 469.096 718.285 467.918 718.285 466.406V464.719L715.789 464.824C713.844 464.895 712.426 465.223 711.535 465.809C710.656 466.383 710.217 467.268 710.217 468.463C710.217 469.33 710.475 470.004 710.99 470.484C711.506 470.953 712.279 471.188 713.311 471.188ZM738.043 474.352C735.582 474.352 733.672 473.467 732.312 471.697H732.066C732.23 473.338 732.312 474.334 732.312 474.686V482.648H728.182V454.559H731.521C731.615 454.922 731.809 455.789 732.102 457.16H732.312C733.602 455.191 735.535 454.207 738.113 454.207C740.539 454.207 742.426 455.086 743.773 456.844C745.133 458.602 745.812 461.068 745.812 464.244C745.812 467.42 745.121 469.898 743.738 471.68C742.367 473.461 740.469 474.352 738.043 474.352ZM737.041 457.582C735.4 457.582 734.199 458.062 733.438 459.023C732.688 459.984 732.312 461.52 732.312 463.629V464.244C732.312 466.611 732.688 468.328 733.438 469.395C734.188 470.449 735.412 470.977 737.111 470.977C738.541 470.977 739.643 470.391 740.416 469.219C741.189 468.047 741.576 466.377 741.576 464.209C741.576 462.029 741.189 460.383 740.416 459.27C739.654 458.145 738.529 457.582 737.041 457.582ZM760.473 474.352C758.012 474.352 756.102 473.467 754.742 471.697H754.496C754.66 473.338 754.742 474.334 754.742 474.686V482.648H750.611V454.559H753.951C754.045 454.922 754.238 455.789 754.531 457.16H754.742C756.031 455.191 757.965 454.207 760.543 454.207C762.969 454.207 764.855 455.086 766.203 456.844C767.562 458.602 768.242 461.068 768.242 464.244C768.242 467.42 767.551 469.898 766.168 471.68C764.797 473.461 762.898 474.352 760.473 474.352ZM759.471 457.582C757.83 457.582 756.629 458.062 755.867 459.023C755.117 459.984 754.742 461.52 754.742 463.629V464.244C754.742 466.611 755.117 468.328 755.867 469.395C756.617 470.449 757.842 470.977 759.541 470.977C760.971 470.977 762.072 470.391 762.846 469.219C763.619 468.047 764.006 466.377 764.006 464.209C764.006 462.029 763.619 460.383 762.846 459.27C762.084 458.145 760.959 457.582 759.471 457.582ZM777.172 474H773.041V454.559H777.172V474ZM772.795 449.408C772.795 448.67 772.994 448.102 773.393 447.703C773.803 447.305 774.383 447.105 775.133 447.105C775.859 447.105 776.422 447.305 776.82 447.703C777.23 448.102 777.436 448.67 777.436 449.408C777.436 450.111 777.23 450.668 776.82 451.078C776.422 451.477 775.859 451.676 775.133 451.676C774.383 451.676 773.803 451.477 773.393 451.078C772.994 450.668 772.795 450.111 772.795 449.408ZM800.199 474H796.051V462.047C796.051 460.547 795.746 459.428 795.137 458.689C794.539 457.951 793.584 457.582 792.271 457.582C790.525 457.582 789.248 458.098 788.439 459.129C787.631 460.16 787.227 461.889 787.227 464.314V474H783.096V454.559H786.33L786.91 457.107H787.121C787.707 456.182 788.539 455.467 789.617 454.963C790.695 454.459 791.891 454.207 793.203 454.207C797.867 454.207 800.199 456.58 800.199 461.326V474ZM822.365 454.559V456.826L819.043 457.441C819.348 457.852 819.6 458.355 819.799 458.953C819.998 459.551 820.098 460.184 820.098 460.852C820.098 462.855 819.406 464.432 818.023 465.58C816.641 466.729 814.736 467.303 812.311 467.303C811.689 467.303 811.127 467.256 810.623 467.162C809.732 467.713 809.287 468.357 809.287 469.096C809.287 469.541 809.492 469.875 809.902 470.098C810.324 470.32 811.092 470.432 812.205 470.432H815.598C817.742 470.432 819.371 470.889 820.484 471.803C821.598 472.717 822.154 474.035 822.154 475.758C822.154 477.961 821.246 479.66 819.43 480.855C817.613 482.051 814.988 482.648 811.555 482.648C808.906 482.648 806.885 482.18 805.49 481.242C804.096 480.305 803.398 478.969 803.398 477.234C803.398 476.039 803.773 475.031 804.523 474.211C805.285 473.402 806.346 472.84 807.705 472.523C807.154 472.289 806.697 471.914 806.334 471.398C805.982 470.871 805.807 470.32 805.807 469.746C805.807 469.02 806.012 468.404 806.422 467.9C806.832 467.396 807.441 466.898 808.25 466.406C807.242 465.973 806.422 465.27 805.789 464.297C805.168 463.312 804.857 462.164 804.857 460.852C804.857 458.742 805.52 457.107 806.844 455.947C808.18 454.787 810.078 454.207 812.539 454.207C813.09 454.207 813.664 454.248 814.262 454.33C814.871 454.4 815.328 454.477 815.633 454.559H822.365ZM807.09 477.023C807.09 477.914 807.488 478.6 808.285 479.08C809.094 479.561 810.225 479.801 811.678 479.801C813.928 479.801 815.604 479.479 816.705 478.834C817.807 478.189 818.357 477.334 818.357 476.268C818.357 475.424 818.053 474.82 817.443 474.457C816.846 474.105 815.727 473.93 814.086 473.93H810.957C809.773 473.93 808.83 474.205 808.127 474.756C807.436 475.318 807.09 476.074 807.09 477.023ZM808.865 460.852C808.865 462.07 809.176 463.008 809.797 463.664C810.43 464.32 811.332 464.648 812.504 464.648C814.895 464.648 816.09 463.371 816.09 460.816C816.09 459.551 815.791 458.578 815.193 457.898C814.607 457.207 813.711 456.861 812.504 456.861C811.309 456.861 810.4 457.201 809.779 457.881C809.17 458.561 808.865 459.551 808.865 460.852Z" fill="white"/>
<rect x="550" y="595" width="350" height="120" rx="40" fill="#0D5692"/>
<path d="M643.051 651.07C643.051 653.754 642.172 655.811 640.414 657.24C638.656 658.67 636.154 659.385 632.908 659.385H630.236V669H626.035V643.301H633.436C636.646 643.301 639.049 643.957 640.643 645.27C642.248 646.582 643.051 648.516 643.051 651.07ZM630.236 655.852H632.469C634.625 655.852 636.207 655.477 637.215 654.727C638.223 653.977 638.727 652.805 638.727 651.211C638.727 649.734 638.275 648.633 637.373 647.906C636.471 647.18 635.064 646.816 633.154 646.816H630.236V655.852ZM657.605 649.207C658.438 649.207 659.123 649.266 659.662 649.383L659.258 653.232C658.672 653.092 658.062 653.021 657.43 653.021C655.777 653.021 654.436 653.561 653.404 654.639C652.385 655.717 651.875 657.117 651.875 658.84V669H647.744V649.559H650.979L651.523 652.986H651.734C652.379 651.826 653.217 650.906 654.248 650.227C655.291 649.547 656.41 649.207 657.605 649.207ZM680.527 659.244C680.527 662.42 679.713 664.898 678.084 666.68C676.455 668.461 674.188 669.352 671.281 669.352C669.465 669.352 667.859 668.941 666.465 668.121C665.07 667.301 663.998 666.123 663.248 664.588C662.498 663.053 662.123 661.271 662.123 659.244C662.123 656.092 662.932 653.631 664.549 651.861C666.166 650.092 668.445 649.207 671.387 649.207C674.199 649.207 676.426 650.115 678.066 651.932C679.707 653.736 680.527 656.174 680.527 659.244ZM666.377 659.244C666.377 663.732 668.035 665.977 671.352 665.977C674.633 665.977 676.273 663.732 676.273 659.244C676.273 654.803 674.621 652.582 671.316 652.582C669.582 652.582 668.322 653.156 667.537 654.305C666.764 655.453 666.377 657.1 666.377 659.244ZM692.533 666.012C693.541 666.012 694.549 665.854 695.557 665.537V668.648C695.1 668.848 694.508 669.012 693.781 669.141C693.066 669.281 692.322 669.352 691.549 669.352C687.635 669.352 685.678 667.289 685.678 663.164V652.688H683.023V650.859L685.871 649.348L687.277 645.234H689.826V649.559H695.363V652.688H689.826V663.094C689.826 664.09 690.072 664.828 690.564 665.309C691.068 665.777 691.725 666.012 692.533 666.012ZM716.703 659.244C716.703 662.42 715.889 664.898 714.26 666.68C712.631 668.461 710.363 669.352 707.457 669.352C705.641 669.352 704.035 668.941 702.641 668.121C701.246 667.301 700.174 666.123 699.424 664.588C698.674 663.053 698.299 661.271 698.299 659.244C698.299 656.092 699.107 653.631 700.725 651.861C702.342 650.092 704.621 649.207 707.562 649.207C710.375 649.207 712.602 650.115 714.242 651.932C715.883 653.736 716.703 656.174 716.703 659.244ZM702.553 659.244C702.553 663.732 704.211 665.977 707.527 665.977C710.809 665.977 712.449 663.732 712.449 659.244C712.449 654.803 710.797 652.582 707.492 652.582C705.758 652.582 704.498 653.156 703.713 654.305C702.939 655.453 702.553 657.1 702.553 659.244ZM728.709 666.012C729.717 666.012 730.725 665.854 731.732 665.537V668.648C731.275 668.848 730.684 669.012 729.957 669.141C729.242 669.281 728.498 669.352 727.725 669.352C723.811 669.352 721.854 667.289 721.854 663.164V652.688H719.199V650.859L722.047 649.348L723.453 645.234H726.002V649.559H731.539V652.688H726.002V663.094C726.002 664.09 726.248 664.828 726.74 665.309C727.244 665.777 727.9 666.012 728.709 666.012ZM732.682 649.559H737.182L741.137 660.58C741.734 662.15 742.133 663.627 742.332 665.01H742.473C742.578 664.365 742.771 663.586 743.053 662.672C743.334 661.746 744.822 657.375 747.518 649.559H751.982L743.668 671.584C742.156 675.627 739.637 677.648 736.109 677.648C735.195 677.648 734.305 677.549 733.438 677.35V674.08C734.059 674.221 734.768 674.291 735.564 674.291C737.557 674.291 738.957 673.137 739.766 670.828L740.486 669L732.682 649.559ZM764.797 669.352C762.336 669.352 760.426 668.467 759.066 666.697H758.82C758.984 668.338 759.066 669.334 759.066 669.686V677.648H754.936V649.559H758.275C758.369 649.922 758.562 650.789 758.855 652.16H759.066C760.355 650.191 762.289 649.207 764.867 649.207C767.293 649.207 769.18 650.086 770.527 651.844C771.887 653.602 772.566 656.068 772.566 659.244C772.566 662.42 771.875 664.898 770.492 666.68C769.121 668.461 767.223 669.352 764.797 669.352ZM763.795 652.582C762.154 652.582 760.953 653.062 760.191 654.023C759.441 654.984 759.066 656.52 759.066 658.629V659.244C759.066 661.611 759.441 663.328 760.191 664.395C760.941 665.449 762.166 665.977 763.865 665.977C765.295 665.977 766.396 665.391 767.17 664.219C767.943 663.047 768.33 661.377 768.33 659.209C768.33 657.029 767.943 655.383 767.17 654.27C766.408 653.145 765.283 652.582 763.795 652.582ZM781.496 669H777.365V649.559H781.496V669ZM777.119 644.408C777.119 643.67 777.318 643.102 777.717 642.703C778.127 642.305 778.707 642.105 779.457 642.105C780.184 642.105 780.746 642.305 781.145 642.703C781.555 643.102 781.76 643.67 781.76 644.408C781.76 645.111 781.555 645.668 781.145 646.078C780.746 646.477 780.184 646.676 779.457 646.676C778.707 646.676 778.127 646.477 777.717 646.078C777.318 645.668 777.119 645.111 777.119 644.408ZM804.523 669H800.375V657.047C800.375 655.547 800.07 654.428 799.461 653.689C798.863 652.951 797.908 652.582 796.596 652.582C794.85 652.582 793.572 653.098 792.764 654.129C791.955 655.16 791.551 656.889 791.551 659.314V669H787.42V649.559H790.654L791.234 652.107H791.445C792.031 651.182 792.863 650.467 793.941 649.963C795.02 649.459 796.215 649.207 797.527 649.207C802.191 649.207 804.523 651.58 804.523 656.326V669ZM826.689 649.559V651.826L823.367 652.441C823.672 652.852 823.924 653.355 824.123 653.953C824.322 654.551 824.422 655.184 824.422 655.852C824.422 657.855 823.73 659.432 822.348 660.58C820.965 661.729 819.061 662.303 816.635 662.303C816.014 662.303 815.451 662.256 814.947 662.162C814.057 662.713 813.611 663.357 813.611 664.096C813.611 664.541 813.816 664.875 814.227 665.098C814.648 665.32 815.416 665.432 816.529 665.432H819.922C822.066 665.432 823.695 665.889 824.809 666.803C825.922 667.717 826.479 669.035 826.479 670.758C826.479 672.961 825.57 674.66 823.754 675.855C821.938 677.051 819.312 677.648 815.879 677.648C813.23 677.648 811.209 677.18 809.814 676.242C808.42 675.305 807.723 673.969 807.723 672.234C807.723 671.039 808.098 670.031 808.848 669.211C809.609 668.402 810.67 667.84 812.029 667.523C811.479 667.289 811.021 666.914 810.658 666.398C810.307 665.871 810.131 665.32 810.131 664.746C810.131 664.02 810.336 663.404 810.746 662.9C811.156 662.396 811.766 661.898 812.574 661.406C811.566 660.973 810.746 660.27 810.113 659.297C809.492 658.312 809.182 657.164 809.182 655.852C809.182 653.742 809.844 652.107 811.168 650.947C812.504 649.787 814.402 649.207 816.863 649.207C817.414 649.207 817.988 649.248 818.586 649.33C819.195 649.4 819.652 649.477 819.957 649.559H826.689ZM811.414 672.023C811.414 672.914 811.812 673.6 812.609 674.08C813.418 674.561 814.549 674.801 816.002 674.801C818.252 674.801 819.928 674.479 821.029 673.834C822.131 673.189 822.682 672.334 822.682 671.268C822.682 670.424 822.377 669.82 821.768 669.457C821.17 669.105 820.051 668.93 818.41 668.93H815.281C814.098 668.93 813.154 669.205 812.451 669.756C811.76 670.318 811.414 671.074 811.414 672.023ZM813.189 655.852C813.189 657.07 813.5 658.008 814.121 658.664C814.754 659.32 815.656 659.648 816.828 659.648C819.219 659.648 820.414 658.371 820.414 655.816C820.414 654.551 820.115 653.578 819.518 652.898C818.932 652.207 818.035 651.861 816.828 651.861C815.633 651.861 814.725 652.201 814.104 652.881C813.494 653.561 813.189 654.551 813.189 655.852Z" fill="white"/>
<rect x="550" y="790" width="350" height="120" rx="40" fill="#0D5692"/>
<path d="M605.363 838.301V854.93C605.363 856.828 604.953 858.492 604.133 859.922C603.324 861.34 602.146 862.436 600.6 863.209C599.064 863.971 597.225 864.352 595.08 864.352C591.893 864.352 589.414 863.508 587.645 861.82C585.875 860.133 584.99 857.812 584.99 854.859V838.301H589.209V854.561C589.209 856.682 589.701 858.246 590.686 859.254C591.67 860.262 593.182 860.766 595.221 860.766C599.182 860.766 601.162 858.686 601.162 854.525V838.301H605.363ZM624.559 858.463C624.559 860.361 623.867 861.82 622.484 862.84C621.102 863.848 619.121 864.352 616.543 864.352C613.953 864.352 611.873 863.959 610.303 863.174V859.605C612.588 860.66 614.715 861.188 616.684 861.188C619.227 861.188 620.498 860.42 620.498 858.885C620.498 858.393 620.357 857.982 620.076 857.654C619.795 857.326 619.332 856.986 618.688 856.635C618.043 856.283 617.146 855.885 615.998 855.439C613.76 854.572 612.242 853.705 611.445 852.838C610.66 851.971 610.268 850.846 610.268 849.463C610.268 847.799 610.936 846.51 612.271 845.596C613.619 844.67 615.447 844.207 617.756 844.207C620.041 844.207 622.203 844.67 624.242 845.596L622.906 848.707C620.809 847.84 619.045 847.406 617.615 847.406C615.436 847.406 614.346 848.027 614.346 849.27C614.346 849.879 614.627 850.395 615.189 850.816C615.764 851.238 617.006 851.818 618.916 852.557C620.521 853.178 621.688 853.746 622.414 854.262C623.141 854.777 623.68 855.375 624.031 856.055C624.383 856.723 624.559 857.525 624.559 858.463ZM641.205 864L640.379 861.293H640.238C639.301 862.477 638.357 863.285 637.408 863.719C636.459 864.141 635.24 864.352 633.752 864.352C631.842 864.352 630.348 863.836 629.27 862.805C628.203 861.773 627.67 860.314 627.67 858.428C627.67 856.424 628.414 854.912 629.902 853.893C631.391 852.873 633.658 852.316 636.705 852.223L640.062 852.117V851.08C640.062 849.838 639.77 848.912 639.184 848.303C638.609 847.682 637.713 847.371 636.494 847.371C635.498 847.371 634.543 847.518 633.629 847.811C632.715 848.104 631.836 848.449 630.992 848.848L629.656 845.895C630.711 845.344 631.865 844.928 633.119 844.646C634.373 844.354 635.557 844.207 636.67 844.207C639.143 844.207 641.006 844.746 642.26 845.824C643.525 846.902 644.158 848.596 644.158 850.904V864H641.205ZM635.053 861.188C636.553 861.188 637.754 860.771 638.656 859.939C639.57 859.096 640.027 857.918 640.027 856.406V854.719L637.531 854.824C635.586 854.895 634.168 855.223 633.277 855.809C632.398 856.383 631.959 857.268 631.959 858.463C631.959 859.33 632.217 860.004 632.732 860.484C633.248 860.953 634.021 861.188 635.053 861.188ZM659.855 844.207C662.281 844.207 664.168 845.086 665.516 846.844C666.875 848.602 667.555 851.068 667.555 854.244C667.555 857.432 666.869 859.916 665.498 861.697C664.127 863.467 662.223 864.352 659.785 864.352C657.324 864.352 655.414 863.467 654.055 861.697H653.773L653.018 864H649.924V836.648H654.055V843.152C654.055 843.633 654.031 844.348 653.984 845.297C653.938 846.246 653.902 846.85 653.879 847.107H654.055C655.367 845.174 657.301 844.207 659.855 844.207ZM658.783 847.582C657.119 847.582 655.918 848.074 655.18 849.059C654.453 850.031 654.078 851.666 654.055 853.963V854.244C654.055 856.611 654.43 858.328 655.18 859.395C655.93 860.449 657.154 860.977 658.854 860.977C660.318 860.977 661.426 860.396 662.176 859.236C662.938 858.076 663.318 856.4 663.318 854.209C663.318 849.791 661.807 847.582 658.783 847.582ZM676.484 864H672.354V844.559H676.484V864ZM672.107 839.408C672.107 838.67 672.307 838.102 672.705 837.703C673.115 837.305 673.695 837.105 674.445 837.105C675.172 837.105 675.734 837.305 676.133 837.703C676.543 838.102 676.748 838.67 676.748 839.408C676.748 840.111 676.543 840.668 676.133 841.078C675.734 841.477 675.172 841.676 674.445 841.676C673.695 841.676 673.115 841.477 672.705 841.078C672.307 840.668 672.107 840.111 672.107 839.408ZM686.539 864H682.408V836.648H686.539V864ZM696.594 864H692.463V844.559H696.594V864ZM692.217 839.408C692.217 838.67 692.416 838.102 692.814 837.703C693.225 837.305 693.805 837.105 694.555 837.105C695.281 837.105 695.844 837.305 696.242 837.703C696.652 838.102 696.857 838.67 696.857 839.408C696.857 840.111 696.652 840.668 696.242 841.078C695.844 841.477 695.281 841.676 694.555 841.676C693.805 841.676 693.225 841.477 692.814 841.078C692.416 840.668 692.217 840.111 692.217 839.408ZM709.76 861.012C710.768 861.012 711.775 860.854 712.783 860.537V863.648C712.326 863.848 711.734 864.012 711.008 864.141C710.293 864.281 709.549 864.352 708.775 864.352C704.861 864.352 702.904 862.289 702.904 858.164V847.688H700.25V845.859L703.098 844.348L704.504 840.234H707.053V844.559H712.59V847.688H707.053V858.094C707.053 859.09 707.299 859.828 707.791 860.309C708.295 860.777 708.951 861.012 709.76 861.012ZM713.732 844.559H718.232L722.188 855.58C722.785 857.15 723.184 858.627 723.383 860.01H723.523C723.629 859.365 723.822 858.586 724.104 857.672C724.385 856.746 725.873 852.375 728.568 844.559H733.033L724.719 866.584C723.207 870.627 720.688 872.648 717.16 872.648C716.246 872.648 715.355 872.549 714.488 872.35V869.08C715.109 869.221 715.818 869.291 716.615 869.291C718.607 869.291 720.008 868.137 720.816 865.828L721.537 864L713.732 844.559ZM754.654 864H750.453V841.904H742.895V838.301H762.213V841.904H754.654V864ZM774.219 864.352C771.195 864.352 768.828 863.473 767.117 861.715C765.418 859.945 764.568 857.514 764.568 854.42C764.568 851.244 765.359 848.748 766.941 846.932C768.523 845.115 770.697 844.207 773.463 844.207C776.029 844.207 778.057 844.986 779.545 846.545C781.033 848.104 781.777 850.248 781.777 852.979V855.211H768.822C768.881 857.098 769.391 858.551 770.352 859.57C771.312 860.578 772.666 861.082 774.412 861.082C775.561 861.082 776.627 860.977 777.611 860.766C778.607 860.543 779.674 860.18 780.811 859.676V863.033C779.803 863.514 778.783 863.854 777.752 864.053C776.721 864.252 775.543 864.352 774.219 864.352ZM773.463 847.336C772.15 847.336 771.096 847.752 770.299 848.584C769.514 849.416 769.045 850.629 768.893 852.223H777.717C777.693 850.617 777.307 849.404 776.557 848.584C775.807 847.752 774.775 847.336 773.463 847.336ZM799.531 858.463C799.531 860.361 798.84 861.82 797.457 862.84C796.074 863.848 794.094 864.352 791.516 864.352C788.926 864.352 786.846 863.959 785.275 863.174V859.605C787.561 860.66 789.688 861.188 791.656 861.188C794.199 861.188 795.471 860.42 795.471 858.885C795.471 858.393 795.33 857.982 795.049 857.654C794.768 857.326 794.305 856.986 793.66 856.635C793.016 856.283 792.119 855.885 790.971 855.439C788.732 854.572 787.215 853.705 786.418 852.838C785.633 851.971 785.24 850.846 785.24 849.463C785.24 847.799 785.908 846.51 787.244 845.596C788.592 844.67 790.42 844.207 792.729 844.207C795.014 844.207 797.176 844.67 799.215 845.596L797.879 848.707C795.781 847.84 794.018 847.406 792.588 847.406C790.408 847.406 789.318 848.027 789.318 849.27C789.318 849.879 789.6 850.395 790.162 850.816C790.736 851.238 791.979 851.818 793.889 852.557C795.494 853.178 796.66 853.746 797.387 854.262C798.113 854.777 798.652 855.375 799.004 856.055C799.355 856.723 799.531 857.525 799.531 858.463ZM811.256 861.012C812.264 861.012 813.271 860.854 814.279 860.537V863.648C813.822 863.848 813.23 864.012 812.504 864.141C811.789 864.281 811.045 864.352 810.271 864.352C806.357 864.352 804.4 862.289 804.4 858.164V847.688H801.746V845.859L804.594 844.348L806 840.234H808.549V844.559H814.086V847.688H808.549V858.094C808.549 859.09 808.795 859.828 809.287 860.309C809.791 860.777 810.447 861.012 811.256 861.012ZM822.312 864H818.182V844.559H822.312V864ZM817.936 839.408C817.936 838.67 818.135 838.102 818.533 837.703C818.943 837.305 819.523 837.105 820.273 837.105C821 837.105 821.562 837.305 821.961 837.703C822.371 838.102 822.576 838.67 822.576 839.408C822.576 840.111 822.371 840.668 821.961 841.078C821.562 841.477 821 841.676 820.273 841.676C819.523 841.676 818.943 841.477 818.533 841.078C818.135 840.668 817.936 840.111 817.936 839.408ZM845.34 864H841.191V852.047C841.191 850.547 840.887 849.428 840.277 848.689C839.68 847.951 838.725 847.582 837.412 847.582C835.666 847.582 834.389 848.098 833.58 849.129C832.771 850.16 832.367 851.889 832.367 854.314V864H828.236V844.559H831.471L832.051 847.107H832.262C832.848 846.182 833.68 845.467 834.758 844.963C835.836 844.459 837.031 844.207 838.344 844.207C843.008 844.207 845.34 846.58 845.34 851.326V864ZM867.506 844.559V846.826L864.184 847.441C864.488 847.852 864.74 848.355 864.939 848.953C865.139 849.551 865.238 850.184 865.238 850.852C865.238 852.855 864.547 854.432 863.164 855.58C861.781 856.729 859.877 857.303 857.451 857.303C856.83 857.303 856.268 857.256 855.764 857.162C854.873 857.713 854.428 858.357 854.428 859.096C854.428 859.541 854.633 859.875 855.043 860.098C855.465 860.32 856.232 860.432 857.346 860.432H860.738C862.883 860.432 864.512 860.889 865.625 861.803C866.738 862.717 867.295 864.035 867.295 865.758C867.295 867.961 866.387 869.66 864.57 870.855C862.754 872.051 860.129 872.648 856.695 872.648C854.047 872.648 852.025 872.18 850.631 871.242C849.236 870.305 848.539 868.969 848.539 867.234C848.539 866.039 848.914 865.031 849.664 864.211C850.426 863.402 851.486 862.84 852.846 862.523C852.295 862.289 851.838 861.914 851.475 861.398C851.123 860.871 850.947 860.32 850.947 859.746C850.947 859.02 851.152 858.404 851.562 857.9C851.973 857.396 852.582 856.898 853.391 856.406C852.383 855.973 851.562 855.27 850.93 854.297C850.309 853.312 849.998 852.164 849.998 850.852C849.998 848.742 850.66 847.107 851.984 845.947C853.32 844.787 855.219 844.207 857.68 844.207C858.23 844.207 858.805 844.248 859.402 844.33C860.012 844.4 860.469 844.477 860.773 844.559H867.506ZM852.23 867.023C852.23 867.914 852.629 868.6 853.426 869.08C854.234 869.561 855.365 869.801 856.818 869.801C859.068 869.801 860.744 869.479 861.846 868.834C862.947 868.189 863.498 867.334 863.498 866.268C863.498 865.424 863.193 864.82 862.584 864.457C861.986 864.105 860.867 863.93 859.227 863.93H856.098C854.914 863.93 853.971 864.205 853.268 864.756C852.576 865.318 852.23 866.074 852.23 867.023ZM854.006 850.852C854.006 852.07 854.316 853.008 854.938 853.664C855.57 854.32 856.473 854.648 857.645 854.648C860.035 854.648 861.23 853.371 861.23 850.816C861.23 849.551 860.932 848.578 860.334 847.898C859.748 847.207 858.852 846.861 857.645 846.861C856.449 846.861 855.541 847.201 854.92 847.881C854.311 848.561 854.006 849.551 854.006 850.852Z" fill="white"/>
<path d="M724.233 204.768C725.209 205.744 726.792 205.744 727.768 204.767L743.675 188.854C744.651 187.878 744.651 186.295 743.674 185.319C742.698 184.343 741.115 184.343 740.139 185.32L725.999 199.464L711.855 185.325C710.878 184.349 709.295 184.349 708.319 185.326C707.343 186.302 707.343 187.885 708.32 188.861L724.233 204.768ZM723.486 130.001L723.5 203L728.5 202.999L728.486 130L723.486 130.001Z" fill="#1A1A1A"/>
<path d="M723.537 399.768C724.514 400.744 726.097 400.744 727.073 399.767L742.98 383.854C743.956 382.878 743.956 381.295 742.979 380.319C742.003 379.343 740.42 379.343 739.444 380.32L725.304 394.464L711.159 380.325C710.183 379.349 708.6 379.349 707.624 380.326C706.648 381.302 706.648 382.885 707.624 383.861L723.537 399.768ZM722.791 325.001L722.805 398L727.805 397.999L727.791 325L722.791 325.001Z" fill="#1A1A1A"/>
<path d="M723.537 594.768C724.514 595.744 726.097 595.744 727.073 594.767L742.98 578.854C743.956 577.878 743.956 576.295 742.979 575.319C742.003 574.343 740.42 574.343 739.444 575.32L725.304 589.464L711.159 575.325C710.183 574.349 708.6 574.349 707.624 575.326C706.648 576.302 706.648 577.885 707.624 578.861L723.537 594.768ZM722.791 520.001L722.805 593L727.805 592.999L727.791 520L722.791 520.001Z" fill="#1A1A1A"/>
<path d="M723.537 789.768C724.514 790.744 726.097 790.744 727.073 789.767L742.98 773.854C743.956 772.878 743.956 771.295 742.979 770.319C742.003 769.343 740.42 769.343 739.444 770.32L725.304 784.464L711.159 770.325C710.183 769.349 708.6 769.349 707.624 770.326C706.648 771.302 706.648 772.885 707.624 773.861L723.537 789.768ZM722.791 715.001L722.805 788L727.805 787.999L727.791 715L722.791 715.001Z" fill="#1A1A1A"/>
<path d="M917.344 460.46L917.336 457.96L917.336 457.96L917.344 460.46ZM902.727 458.738C901.753 459.717 901.758 461.3 902.738 462.273L918.697 478.133C919.677 479.107 921.26 479.102 922.233 478.122C923.206 477.143 923.201 475.56 922.222 474.587L908.036 460.489L922.133 446.303C923.107 445.323 923.102 443.74 922.122 442.767C921.143 441.794 919.56 441.799 918.587 442.778L902.727 458.738ZM917.5 856L917.5 858.5L917.5 856ZM967.5 806L970 806L970 806L967.5 806ZM967.5 510.46L965 510.46L967.5 510.46ZM917.336 457.96L904.492 458L904.508 463L917.352 462.96L917.336 457.96ZM901.5 858.5L917.5 858.5L917.5 853.5L901.5 853.5L901.5 858.5ZM970 806L970 510.46L965 510.46L965 806L970 806ZM917.5 858.5C946.495 858.5 970 834.995 970 806L965 806C965 832.234 943.734 853.5 917.5 853.5L917.5 858.5ZM917.352 462.96C943.643 462.878 965 484.168 965 510.46L970 510.46C970 481.401 946.395 457.869 917.336 457.96L917.352 462.96Z" fill="#1A1A1A"/>
</svg>
