<svg xmlns="http://www.w3.org/2000/svg" xmlns:xlink="http://www.w3.org/1999/xlink" width="2035" height="1951" viewBox="0 0 2035 1951"><defs><style>.a{clip-path:url(#b);}.b{fill:#f5f5f5;}.b,.e{stroke:#707070;}.c,.d{fill:#505050;}.c{font-size:42px;}.c,.d,.f{font-family:OpenSans-Semibold, Open Sans;font-weight:600;}.d,.f{font-size:40px;}.e,.h{fill:none;}.e{stroke-width:3px;}.f{fill:#1a1a1a;}.g{stroke:none;}.i{fill:#fff;}</style><clipPath id="b"><rect width="2035" height="1951"/></clipPath></defs><g id="a" class="a"><rect class="i" width="2035" height="1951"/><g transform="translate(810 214)"><g class="b"><rect class="g" width="400" height="140" rx="20"/><rect class="h" x="0.5" y="0.5" width="399" height="139" rx="19.5"/></g><text class="c" transform="translate(200 85.132)"><tspan x="-148.261" y="0">Admin Module</tspan></text></g><g transform="translate(810 454)"><g class="b"><rect class="g" width="400" height="140" rx="20"/><rect class="h" x="0.5" y="0.5" width="399" height="139" rx="19.5"/></g><text class="c" transform="translate(200.333 86.988)"><tspan x="-137.238" y="0">Company List</tspan></text></g><g transform="translate(329 984)"><g class="b"><rect class="g" width="340" height="110" rx="20"/><rect class="h" x="0.5" y="0.5" width="339" height="109" rx="19.5"/></g><text class="c" transform="translate(170.848 72.02)"><tspan x="-141.709" y="0">Company Info</tspan></text></g><g transform="translate(1349 984)"><g class="b"><rect class="g" width="340" height="110" rx="20"/><rect class="h" x="0.5" y="0.5" width="339" height="109" rx="19.5"/></g><text class="c" transform="translate(171.014 72.02)"><tspan x="-150.24" y="0">Company Logo</tspan></text></g><g transform="translate(849 984)"><g class="b"><rect class="g" width="320" height="110" rx="20"/><rect class="h" x="0.5" y="0.5" width="319" height="109" rx="19.5"/></g><text class="c" transform="translate(160.512 72.02)"><tspan x="-98.017" y="0">Programs</tspan></text></g><g transform="translate(780 694)"><g class="b"><rect class="g" width="470" height="140" rx="20"/><rect class="h" x="0.5" y="0.5" width="469" height="139" rx="19.5"/></g><text class="c" transform="translate(235.481 86.988)"><tspan x="-171.404" y="0">Company Details</tspan></text></g><g transform="translate(734 1194)"><g class="b"><rect class="g" width="550" height="140" rx="20"/><rect class="h" x="0.5" y="0.5" width="549" height="139" rx="19.5"/></g><text class="d" transform="translate(275.473 85.5)"><tspan x="-234.023" y="0">Program Details + Drugs</tspan></text></g><g transform="translate(437 1484)"><g class="b"><rect class="g" width="317" height="110" rx="20"/><rect class="h" x="0.5" y="0.5" width="316" height="109" rx="19.5"/></g><text class="c" transform="translate(159 72.02)"><tspan x="-115.213" y="0">Certificates</tspan></text></g><g transform="translate(956 1484)"><g class="b"><rect class="g" width="375" height="110" rx="20"/><rect class="h" x="0.5" y="0.5" width="374" height="109" rx="19.5"/></g><text class="c" transform="translate(188.433 72.02)"><tspan x="-124.811" y="0">Drug Details</tspan></text></g><g transform="translate(754 1744)"><g class="b"><rect class="g" width="340" height="110" rx="20"/><rect class="h" x="0.5" y="0.5" width="339" height="109" rx="19.5"/></g><text class="c" transform="translate(171.014 72.02)"><tspan x="-95.115" y="0">Drug Info</tspan></text></g><g transform="translate(1194 1744)"><g class="b"><rect class="g" width="340" height="110" rx="20"/><rect class="h" x="0.5" y="0.5" width="339" height="109" rx="19.5"/></g><text class="c" transform="translate(171.014 72.02)"><tspan x="-103.646" y="0">Drug Logo</tspan></text></g><g transform="translate(1504 1484)"><g class="b"><rect class="g" width="340" height="110" rx="20"/><rect class="h" x="0.5" y="0.5" width="339" height="109" rx="19.5"/></g><text class="c" transform="translate(171.014 72.02)"><tspan x="-114.844" y="0">PDF Details</tspan></text></g><line class="e" y2="101" transform="translate(1010.5 353.5)"/><line class="e" y2="101" transform="translate(1010.5 593.5)"/><line class="e" y2="72" transform="translate(1010.5 833.5)"/><line class="e" x2="1020" transform="translate(499.5 905.5)"/><line class="e" y2="79" transform="translate(499.5 905.5)"/><line class="e" y2="79" transform="translate(1674.5 1404.5)"/><line class="e" y2="80" transform="translate(1010.5 904.5)"/><line class="e" y2="79" transform="translate(1519.5 905.5)"/><line class="e" y2="101" transform="translate(1010.5 1093.5)"/><line class="e" y2="72" transform="translate(1010.5 1333.5)"/><line class="e" y1="1" x2="1079" transform="translate(595.5 1404.5)"/><line class="e" y2="79" transform="translate(595.5 1405.5)"/><line class="e" y2="79" transform="translate(1143.5 1405.5)"/><line class="e" y2="72" transform="translate(1143.5 1593.5)"/><line class="e" x2="440" transform="translate(924.5 1665.5)"/><line class="e" y2="79" transform="translate(924.5 1665.5)"/><line class="e" y2="79" transform="translate(1364.5 1665.5)"/><text class="f" transform="translate(50 135)"><tspan x="0" y="0">Record Management Dashboard IA</tspan></text></g></svg>