<svg xmlns="http://www.w3.org/2000/svg" xmlns:xlink="http://www.w3.org/1999/xlink" width="2802" height="1037" viewBox="0 0 2802 1037"><defs><clipPath id="b"><rect width="2802" height="1037"/></clipPath></defs><g id="a" clip-path="url(#b)"><rect width="2802" height="1037" fill="#fff"/><g transform="translate(-6550 -15400)"><g transform="translate(-7.369 -5)"><line x2="198.369" transform="translate(6992.5 16082.117)" fill="none" stroke="#707070" stroke-width="3"/><path d="M10,0,20,19H0Z" transform="translate(7208.369 16072) rotate(90)" fill="#707070"/><path d="M-19.134-13.975-13.052-25.7h4.57L-17.042-9.967V0h-4.219V-9.826L-29.786-25.7h4.57ZM2.962.352A9.4,9.4,0,0,1-4.131-2.294,10.043,10.043,0,0,1-6.688-9.58a11.018,11.018,0,0,1,2.373-7.488,8.2,8.2,0,0,1,6.521-2.725,8.011,8.011,0,0,1,6.082,2.338,8.933,8.933,0,0,1,2.232,6.434v2.232H-2.435A6.386,6.386,0,0,0-.905-4.438,5.327,5.327,0,0,0,3.155-2.918a14.99,14.99,0,0,0,3.208-.325,16.816,16.816,0,0,0,3.19-1.081V-.967A12.683,12.683,0,0,1,6.5.053,18.755,18.755,0,0,1,2.962.352ZM2.206-16.664A4.15,4.15,0,0,0-.949-15.416a5.948,5.948,0,0,0-1.415,3.639H6.46A5.381,5.381,0,0,0,5.3-15.425,3.968,3.968,0,0,0,2.206-16.664ZM28.274-5.537A5.087,5.087,0,0,1,26.2-1.169,9.932,9.932,0,0,1,20.259.352a14.034,14.034,0,0,1-6.24-1.178V-4.395A15.32,15.32,0,0,0,20.4-2.812q3.814,0,3.814-2.3a1.824,1.824,0,0,0-.422-1.23A4.993,4.993,0,0,0,22.4-7.365a23.9,23.9,0,0,0-2.689-1.2,12.441,12.441,0,0,1-4.544-2.6,4.813,4.813,0,0,1-1.187-3.375A4.433,4.433,0,0,1,16-18.413a9.551,9.551,0,0,1,5.476-1.38A15.508,15.508,0,0,1,27.958-18.4l-1.336,3.111a14.427,14.427,0,0,0-5.291-1.3q-3.27,0-3.27,1.863a1.875,1.875,0,0,0,.853,1.547,18.748,18.748,0,0,0,3.718,1.74,17,17,0,0,1,3.5,1.705,5.1,5.1,0,0,1,1.617,1.784A5.164,5.164,0,0,1,28.274-5.537Z" transform="translate(7101.369 16071)" fill="#707070"/></g><g transform="translate(1212.631 -5)"><line x2="198.369" transform="translate(6992.5 16082.117)" fill="none" stroke="#707070" stroke-width="3"/><path d="M10,0,20,19H0Z" transform="translate(7208.369 16072) rotate(90)" fill="#707070"/><path d="M-19.134-13.975-13.052-25.7h4.57L-17.042-9.967V0h-4.219V-9.826L-29.786-25.7h4.57ZM2.962.352A9.4,9.4,0,0,1-4.131-2.294,10.043,10.043,0,0,1-6.688-9.58a11.018,11.018,0,0,1,2.373-7.488,8.2,8.2,0,0,1,6.521-2.725,8.011,8.011,0,0,1,6.082,2.338,8.933,8.933,0,0,1,2.232,6.434v2.232H-2.435A6.386,6.386,0,0,0-.905-4.438,5.327,5.327,0,0,0,3.155-2.918a14.99,14.99,0,0,0,3.208-.325,16.816,16.816,0,0,0,3.19-1.081V-.967A12.683,12.683,0,0,1,6.5.053,18.755,18.755,0,0,1,2.962.352ZM2.206-16.664A4.15,4.15,0,0,0-.949-15.416a5.948,5.948,0,0,0-1.415,3.639H6.46A5.381,5.381,0,0,0,5.3-15.425,3.968,3.968,0,0,0,2.206-16.664ZM28.274-5.537A5.087,5.087,0,0,1,26.2-1.169,9.932,9.932,0,0,1,20.259.352a14.034,14.034,0,0,1-6.24-1.178V-4.395A15.32,15.32,0,0,0,20.4-2.812q3.814,0,3.814-2.3a1.824,1.824,0,0,0-.422-1.23A4.993,4.993,0,0,0,22.4-7.365a23.9,23.9,0,0,0-2.689-1.2,12.441,12.441,0,0,1-4.544-2.6,4.813,4.813,0,0,1-1.187-3.375A4.433,4.433,0,0,1,16-18.413a9.551,9.551,0,0,1,5.476-1.38A15.508,15.508,0,0,1,27.958-18.4l-1.336,3.111a14.427,14.427,0,0,0-5.291-1.3q-3.27,0-3.27,1.863a1.875,1.875,0,0,0,.853,1.547,18.748,18.748,0,0,0,3.718,1.74,17,17,0,0,1,3.5,1.705,5.1,5.1,0,0,1,1.617,1.784A5.164,5.164,0,0,1,28.274-5.537Z" transform="translate(7100.369 16071)" fill="#707070"/></g><g transform="translate(592.631 -5)"><line x2="198.369" transform="translate(6992.5 16082.117)" fill="none" stroke="#707070" stroke-width="3"/><path d="M10,0,20,19H0Z" transform="translate(7208.369 16072) rotate(90)" fill="#707070"/></g><g transform="translate(1796.441 -5)"><line x2="114.559" transform="translate(6992.5 16082.117)" fill="none" stroke="#707070" stroke-width="3"/><path d="M10,0,20,19H0Z" transform="translate(7124.559 16072) rotate(90)" fill="#707070"/></g><g transform="translate(-201.5 -305)"><path d="M-.5,151.5V0H392" transform="translate(6993 16082.117)" fill="none" stroke="#707070" stroke-linejoin="round" stroke-width="3"/><path d="M10,0,20,19H0Z" transform="translate(7402.5 16072) rotate(90)" fill="#707070"/></g><g transform="translate(23483.066 8768.565) rotate(90)"><line x2="198.369" transform="translate(6992.5 16082.117)" fill="none" stroke="#707070" stroke-width="3"/><path d="M10,0,20,19H0Z" transform="translate(7208.369 16072) rotate(90)" fill="#707070"/></g><g transform="translate(-8680.934 23317.816) rotate(-90)"><path d="M.236,609.8H-112.251V0H28.935" transform="translate(7093.316 16082.117)" fill="none" stroke="#707070" stroke-linejoin="round" stroke-width="3"/><g transform="translate(7139.751 16072) rotate(90)" fill="#707070" stroke-linejoin="round"><path d="M 19.17181968688965 18.5 L 0.8281810283660889 18.5 L 10 1.073544025421143 L 19.17181968688965 18.5 Z" stroke="none"/><path d="M 10 2.147098541259766 L 1.656368255615234 18 L 18.34363174438477 18 L 10 2.147098541259766 M 10 0 L 20 19 L 0 19 L 10 0 Z" stroke="none" fill="#707070"/></g></g><g transform="translate(7201 15977)"><g fill="#f5f5f5" stroke="#707070" stroke-width="1"><rect width="400" height="200" rx="15" stroke="none"/><rect x="0.5" y="0.5" width="399" height="199" rx="14.5" fill="none"/></g><path d="M-117.069-20.918a8.742,8.742,0,0,1-3.076,7.2q-3.076,2.5-8.757,2.5h-3.117V0h-4.9V-29.982h8.634q5.619,0,8.418,2.3T-117.069-20.918Zm-14.95,5.578h2.6q3.773,0,5.537-1.312a4.777,4.777,0,0,0,1.764-4.1,4.654,4.654,0,0,0-1.579-3.855,7.8,7.8,0,0,0-4.922-1.271h-3.4Zm31.931-7.752a11.6,11.6,0,0,1,2.4.205l-.472,4.491a9.109,9.109,0,0,0-2.133-.246,6.172,6.172,0,0,0-4.686,1.887,6.82,6.82,0,0,0-1.794,4.9V0h-4.819V-22.682h3.773l.636,4h.246A8.987,8.987,0,0,1-104-21.9,7,7,0,0,1-100.088-23.092Zm26.722,11.71q0,5.558-2.851,8.675A10.214,10.214,0,0,1-84.154.41a10.874,10.874,0,0,1-5.619-1.436,9.477,9.477,0,0,1-3.753-4.122,14.039,14.039,0,0,1-1.312-6.234q0-5.517,2.83-8.613t7.978-3.1a9.992,9.992,0,0,1,7.793,3.168A12.239,12.239,0,0,1-73.367-11.382Zm-16.509,0q0,7.854,5.8,7.854,5.742,0,5.742-7.854,0-7.772-5.783-7.772a4.931,4.931,0,0,0-4.4,2.01A10.228,10.228,0,0,0-89.875-11.382Zm41.2-11.3v2.646l-3.876.718a6.256,6.256,0,0,1,.882,1.764,6.958,6.958,0,0,1,.349,2.215,6.786,6.786,0,0,1-2.42,5.517,10.127,10.127,0,0,1-6.665,2.01,10.807,10.807,0,0,1-1.969-.164,2.715,2.715,0,0,0-1.559,2.256,1.253,1.253,0,0,0,.728,1.169,6.3,6.3,0,0,0,2.676.39h3.958a8.8,8.8,0,0,1,5.7,1.6,5.627,5.627,0,0,1,1.948,4.614A6.71,6.71,0,0,1-52.1,8q-3.179,2.092-9.187,2.092-4.635,0-7.075-1.641A5.3,5.3,0,0,1-70.8,3.773,4.976,4.976,0,0,1-69.48.256a7.088,7.088,0,0,1,3.7-1.979,3.622,3.622,0,0,1-1.589-1.323,3.339,3.339,0,0,1-.625-1.917,3.3,3.3,0,0,1,.718-2.153,8.281,8.281,0,0,1,2.133-1.743A6.317,6.317,0,0,1-68-11.331a7.269,7.269,0,0,1-1.1-4.009,7.188,7.188,0,0,1,2.328-5.722q2.328-2.03,6.634-2.03a16.149,16.149,0,0,1,2.02.133,12.717,12.717,0,0,1,1.589.277ZM-66.5,3.527a2.651,2.651,0,0,0,1.4,2.4,7.721,7.721,0,0,0,3.948.841A11.927,11.927,0,0,0-55.279,5.64a3.381,3.381,0,0,0,1.928-2.994,2.246,2.246,0,0,0-1.056-2.1,8.481,8.481,0,0,0-3.927-.625h-3.65a5.129,5.129,0,0,0-3.292.974A3.194,3.194,0,0,0-66.5,3.527Zm2.071-18.867a4.564,4.564,0,0,0,1.1,3.281A4.149,4.149,0,0,0-60.18-10.91Q-56-10.91-56-15.381A5.071,5.071,0,0,0-57.032-18.8,3.935,3.935,0,0,0-60.18-20a4.057,4.057,0,0,0-3.168,1.189A5,5,0,0,0-64.425-15.34Zm31.459-7.752a11.6,11.6,0,0,1,2.4.205l-.472,4.491a9.109,9.109,0,0,0-2.133-.246,6.172,6.172,0,0,0-4.686,1.887,6.82,6.82,0,0,0-1.794,4.9V0h-4.819V-22.682H-40.7l.636,4h.246a8.987,8.987,0,0,1,2.943-3.22A7,7,0,0,1-32.966-23.092ZM-12.171,0l-.964-3.158H-13.3a9.292,9.292,0,0,1-3.3,2.82A10.442,10.442,0,0,1-20.867.41a7.219,7.219,0,0,1-5.219-1.8A6.753,6.753,0,0,1-27.962-6.5a6,6,0,0,1,2.6-5.291q2.6-1.784,7.937-1.948l3.917-.123v-1.21a4.586,4.586,0,0,0-1.015-3.25A4.14,4.14,0,0,0-17.667-19.4a10.885,10.885,0,0,0-3.343.513,25.226,25.226,0,0,0-3.076,1.21l-1.559-3.445a16.774,16.774,0,0,1,4.04-1.466,18.593,18.593,0,0,1,4.143-.5q4.327,0,6.532,1.887t2.2,5.927V0Zm-7.178-3.281a5.97,5.97,0,0,0,4.214-1.466,5.315,5.315,0,0,0,1.589-4.112v-1.969l-2.912.123A9.964,9.964,0,0,0-21.41-9.567,3.458,3.458,0,0,0-22.958-6.46a3.032,3.032,0,0,0,.9,2.348A3.877,3.877,0,0,0-19.349-3.281ZM17.114,0h-4.84V-13.986a6.342,6.342,0,0,0-.984-3.886,3.633,3.633,0,0,0-3.076-1.282,4.692,4.692,0,0,0-4.091,1.815q-1.3,1.815-1.3,6.04V0H-2V-22.682H1.774l.677,2.974H2.7a6.284,6.284,0,0,1,2.738-2.5,8.828,8.828,0,0,1,3.948-.882q5.229,0,6.932,3.568h.328a6.914,6.914,0,0,1,2.83-2.625,8.982,8.982,0,0,1,4.184-.943q4.061,0,5.917,2.051t1.856,6.255V0H26.609V-13.986a6.293,6.293,0,0,0-.995-3.886,3.662,3.662,0,0,0-3.086-1.282A4.784,4.784,0,0,0,18.416-17.4a9.038,9.038,0,0,0-1.3,5.383Zm45.22-26.209a8.079,8.079,0,0,0-6.645,2.994q-2.42,2.994-2.42,8.265,0,5.517,2.328,8.347a8.221,8.221,0,0,0,6.737,2.83,17.7,17.7,0,0,0,3.691-.379q1.784-.379,3.712-.974v4.2a22.5,22.5,0,0,1-8,1.333q-6.583,0-10.11-3.989T48.1-14.991a18.442,18.442,0,0,1,1.712-8.183,12.222,12.222,0,0,1,4.953-5.373,14.98,14.98,0,0,1,7.608-1.866,18.881,18.881,0,0,1,8.49,1.928L69.1-24.4a26.333,26.333,0,0,0-3.209-1.261A11.563,11.563,0,0,0,62.333-26.209ZM89.875,0l-.964-3.158h-.164a9.292,9.292,0,0,1-3.3,2.82A10.442,10.442,0,0,1,81.18.41a7.219,7.219,0,0,1-5.219-1.8A6.753,6.753,0,0,1,74.084-6.5a6,6,0,0,1,2.6-5.291q2.6-1.784,7.937-1.948l3.917-.123v-1.21a4.586,4.586,0,0,0-1.015-3.25A4.14,4.14,0,0,0,84.379-19.4a10.885,10.885,0,0,0-3.343.513,25.226,25.226,0,0,0-3.076,1.21L76.4-21.123a16.774,16.774,0,0,1,4.04-1.466,18.593,18.593,0,0,1,4.143-.5q4.327,0,6.532,1.887t2.2,5.927V0ZM82.7-3.281a5.97,5.97,0,0,0,4.214-1.466A5.315,5.315,0,0,0,88.5-8.859v-1.969l-2.912.123a9.964,9.964,0,0,0-4.953,1.138A3.458,3.458,0,0,0,79.088-6.46a3.032,3.032,0,0,0,.9,2.348A3.877,3.877,0,0,0,82.7-3.281Zm28.854-19.811a11.6,11.6,0,0,1,2.4.205L113.48-18.4a9.109,9.109,0,0,0-2.133-.246,6.172,6.172,0,0,0-4.686,1.887,6.82,6.82,0,0,0-1.794,4.9V0h-4.819V-22.682h3.773l.636,4h.246a8.987,8.987,0,0,1,2.943-3.22A7,7,0,0,1,111.552-23.092ZM125.805.41a7.9,7.9,0,0,1-6.624-3.076Q116.8-5.742,116.8-11.3q0-5.578,2.41-8.685a7.975,7.975,0,0,1,6.675-3.107,7.819,7.819,0,0,1,6.809,3.3h.246a28.889,28.889,0,0,1-.349-3.855V-31.91h4.84V0H133.66l-.841-2.974h-.226A7.7,7.7,0,0,1,125.805.41Zm1.292-3.9a5.245,5.245,0,0,0,4.327-1.671q1.354-1.671,1.395-5.424v-.677q0-4.286-1.395-6.091a5.173,5.173,0,0,0-4.368-1.8,4.432,4.432,0,0,0-3.917,2.061,10.562,10.562,0,0,0-1.374,5.875A10.3,10.3,0,0,0,123.1-5.465,4.5,4.5,0,0,0,127.1-3.486ZM-71.019,48.858a7.546,7.546,0,0,1-2.892,6.275Q-76.8,57.41-81.888,57.41a19.034,19.034,0,0,1-8.326-1.579V51.2a22.631,22.631,0,0,0,4.358,1.518,18.478,18.478,0,0,0,4.3.554,6.835,6.835,0,0,0,4.3-1.107,3.611,3.611,0,0,0,1.384-2.974,3.727,3.727,0,0,0-1.271-2.851,19.142,19.142,0,0,0-5.25-2.769,13.889,13.889,0,0,1-5.783-3.794,8.028,8.028,0,0,1-1.682-5.127A7.18,7.18,0,0,1-87.2,28.74a11.059,11.059,0,0,1,7.157-2.153,21.029,21.029,0,0,1,8.572,1.887l-1.559,4a18.729,18.729,0,0,0-7.137-1.682,5.477,5.477,0,0,0-3.609,1.036A3.4,3.4,0,0,0-85,34.564a3.854,3.854,0,0,0,.492,2,5.027,5.027,0,0,0,1.62,1.569,27.4,27.4,0,0,0,4.061,1.948,22.218,22.218,0,0,1,4.84,2.563,7.54,7.54,0,0,1,2.256,2.687A8.081,8.081,0,0,1-71.019,48.858Zm15.2,8.552q-5.291,0-8.275-3.086t-2.984-8.5q0-5.558,2.769-8.736A9.563,9.563,0,0,1-56.7,33.908a9.347,9.347,0,0,1,7.1,2.728A10.422,10.422,0,0,1-47,44.142v2.6H-62.118a7.45,7.45,0,0,0,1.784,5.076A6.214,6.214,0,0,0-55.6,53.6a17.488,17.488,0,0,0,3.743-.379,19.618,19.618,0,0,0,3.722-1.261v3.917A14.8,14.8,0,0,1-51.7,57.062,21.881,21.881,0,0,1-55.822,57.41ZM-56.7,37.559a4.842,4.842,0,0,0-3.681,1.456,6.939,6.939,0,0,0-1.651,4.245h10.295A6.278,6.278,0,0,0-53.095,39,4.629,4.629,0,0,0-56.7,37.559Zm20,19.441h-4.819V25.09h4.819Zm16.8.41q-5.291,0-8.275-3.086t-2.984-8.5q0-5.558,2.769-8.736a9.563,9.563,0,0,1,7.608-3.179,9.347,9.347,0,0,1,7.1,2.728,10.422,10.422,0,0,1,2.6,7.506v2.6H-26.209a7.45,7.45,0,0,0,1.784,5.076A6.214,6.214,0,0,0-19.687,53.6a17.488,17.488,0,0,0,3.743-.379,19.618,19.618,0,0,0,3.722-1.261v3.917a14.8,14.8,0,0,1-3.568,1.189A21.881,21.881,0,0,1-19.913,57.41Zm-.882-19.852a4.842,4.842,0,0,0-3.681,1.456,6.939,6.939,0,0,0-1.651,4.245h10.295A6.278,6.278,0,0,0-17.186,39,4.629,4.629,0,0,0-20.795,37.559ZM3.527,57.41q-5.147,0-7.824-3t-2.676-8.624q0-5.722,2.8-8.8t8.09-3.076a15.162,15.162,0,0,1,6.46,1.333L8.921,39.117a14.6,14.6,0,0,0-5.045-1.189q-5.886,0-5.886,7.813A9.357,9.357,0,0,0-.543,51.473a5.076,5.076,0,0,0,4.3,1.917,12.326,12.326,0,0,0,6.091-1.6V56a9.518,9.518,0,0,1-2.758,1.087A16.551,16.551,0,0,1,3.527,57.41Zm20.1-3.9a11.72,11.72,0,0,0,3.527-.554v3.63a9.729,9.729,0,0,1-2.061.584,14.2,14.2,0,0,1-2.615.236q-6.85,0-6.85-7.219V37.969h-3.1V35.836l3.322-1.764,1.641-4.8h2.974v5.045h6.46v3.65h-6.46V50.109a3.406,3.406,0,0,0,.872,2.574A3.177,3.177,0,0,0,23.625,53.514ZM36.5,57H31.685V34.318H36.5ZM31.4,28.31A2.668,2.668,0,0,1,32.1,26.32a2.757,2.757,0,0,1,2.02-.7,2.7,2.7,0,0,1,1.979.7,2.668,2.668,0,0,1,.708,1.989,2.619,2.619,0,0,1-.708,1.938,2.675,2.675,0,0,1-1.979.708,2.733,2.733,0,0,1-2.02-.708A2.619,2.619,0,0,1,31.4,28.31ZM63.513,45.618q0,5.558-2.851,8.675a10.214,10.214,0,0,1-7.937,3.117,10.874,10.874,0,0,1-5.619-1.436,9.477,9.477,0,0,1-3.753-4.122,14.039,14.039,0,0,1-1.312-6.234q0-5.517,2.83-8.613t7.978-3.1a9.992,9.992,0,0,1,7.793,3.168A12.239,12.239,0,0,1,63.513,45.618ZM47,45.618q0,7.854,5.8,7.854,5.742,0,5.742-7.854,0-7.772-5.783-7.772a4.931,4.931,0,0,0-4.4,2.01A10.228,10.228,0,0,0,47,45.618ZM89,57h-4.84V43.055a6.1,6.1,0,0,0-1.056-3.917,4.082,4.082,0,0,0-3.353-1.292,5.331,5.331,0,0,0-4.471,1.8q-1.415,1.8-1.415,6.05V57H69.05V34.318h3.773l.677,2.974h.246a6.71,6.71,0,0,1,2.912-2.5,9.759,9.759,0,0,1,4.184-.882Q89,33.908,89,42.214Z" transform="translate(200.474 87.902)" fill="#505050"/></g><g transform="translate(7201 15677)"><g fill="#f5f5f5" stroke="#707070" stroke-width="1"><rect width="400" height="200" rx="15" stroke="none"/><rect x="0.5" y="0.5" width="399" height="199" rx="14.5" fill="none"/></g><path d="M-63.913-20.918a8.742,8.742,0,0,1-3.076,7.2q-3.076,2.5-8.757,2.5h-3.117V0h-4.9V-29.982h8.634q5.619,0,8.418,2.3T-63.913-20.918Zm-14.95,5.578h2.6q3.773,0,5.537-1.312a4.777,4.777,0,0,0,1.764-4.1,4.654,4.654,0,0,0-1.579-3.855,7.8,7.8,0,0,0-4.922-1.271h-3.4Zm31.931-7.752a11.6,11.6,0,0,1,2.4.205L-45-18.4a9.109,9.109,0,0,0-2.133-.246,6.172,6.172,0,0,0-4.686,1.887,6.82,6.82,0,0,0-1.794,4.9V0h-4.819V-22.682h3.773l.636,4h.246a8.987,8.987,0,0,1,2.943-3.22A7,7,0,0,1-46.932-23.092Zm26.722,11.71q0,5.558-2.851,8.675A10.214,10.214,0,0,1-31,.41a10.874,10.874,0,0,1-5.619-1.436A9.477,9.477,0,0,1-40.37-5.147a14.039,14.039,0,0,1-1.312-6.234q0-5.517,2.83-8.613t7.978-3.1a9.992,9.992,0,0,1,7.793,3.168A12.239,12.239,0,0,1-20.21-11.382Zm-16.509,0q0,7.854,5.8,7.854,5.742,0,5.742-7.854,0-7.772-5.783-7.772a4.931,4.931,0,0,0-4.4,2.01A10.228,10.228,0,0,0-36.719-11.382ZM-9.505,0l-8.613-22.682h5.086L-8.418-9.5A26.129,26.129,0,0,1-6.983-4.122h.164A36.078,36.078,0,0,1-5.383-9.5L-.769-22.682H4.358L-4.3,0ZM12.623,0H7.8V-22.682h4.819ZM7.516-28.69a2.668,2.668,0,0,1,.708-1.989,2.757,2.757,0,0,1,2.02-.7,2.7,2.7,0,0,1,1.979.7,2.668,2.668,0,0,1,.708,1.989,2.619,2.619,0,0,1-.708,1.938,2.675,2.675,0,0,1-1.979.708,2.733,2.733,0,0,1-2.02-.708A2.619,2.619,0,0,1,7.516-28.69ZM39.467,0h-4.84V-13.945a6.1,6.1,0,0,0-1.056-3.917,4.082,4.082,0,0,0-3.353-1.292,5.331,5.331,0,0,0-4.471,1.8q-1.415,1.8-1.415,6.05V0H19.513V-22.682h3.773l.677,2.974h.246a6.71,6.71,0,0,1,2.912-2.5,9.759,9.759,0,0,1,4.184-.882q8.162,0,8.162,8.306ZM55.32.41q-5.147,0-7.824-3T44.82-11.218q0-5.722,2.8-8.8t8.09-3.076a15.162,15.162,0,0,1,6.46,1.333l-1.456,3.876a14.6,14.6,0,0,0-5.045-1.189q-5.886,0-5.886,7.813a9.357,9.357,0,0,0,1.466,5.732,5.076,5.076,0,0,0,4.3,1.917,12.326,12.326,0,0,0,6.091-1.6V-1A9.518,9.518,0,0,1,58.878.082,16.551,16.551,0,0,1,55.32.41Zm21.554,0Q71.583.41,68.6-2.676t-2.984-8.5q0-5.558,2.769-8.736a9.563,9.563,0,0,1,7.608-3.179,9.347,9.347,0,0,1,7.1,2.728,10.422,10.422,0,0,1,2.6,7.506v2.6H70.578a7.45,7.45,0,0,0,1.784,5.076A6.214,6.214,0,0,0,77.1-3.4a17.488,17.488,0,0,0,3.743-.379,19.618,19.618,0,0,0,3.722-1.261v3.917A14.8,14.8,0,0,1,81,.062,21.881,21.881,0,0,1,76.874.41Zm-.882-19.852a4.842,4.842,0,0,0-3.681,1.456A6.939,6.939,0,0,0,70.66-13.74H80.955A6.278,6.278,0,0,0,79.6-18,4.629,4.629,0,0,0,75.992-19.441Zm-147.01,68.3a7.546,7.546,0,0,1-2.892,6.275Q-76.8,57.41-81.888,57.41a19.034,19.034,0,0,1-8.326-1.579V51.2a22.631,22.631,0,0,0,4.358,1.518,18.478,18.478,0,0,0,4.3.554,6.835,6.835,0,0,0,4.3-1.107,3.611,3.611,0,0,0,1.384-2.974,3.727,3.727,0,0,0-1.271-2.851,19.142,19.142,0,0,0-5.25-2.769,13.889,13.889,0,0,1-5.783-3.794,8.028,8.028,0,0,1-1.682-5.127A7.18,7.18,0,0,1-87.2,28.74a11.059,11.059,0,0,1,7.157-2.153,21.029,21.029,0,0,1,8.572,1.887l-1.559,4a18.729,18.729,0,0,0-7.137-1.682,5.477,5.477,0,0,0-3.609,1.036A3.4,3.4,0,0,0-85,34.564a3.854,3.854,0,0,0,.492,2,5.027,5.027,0,0,0,1.62,1.569,27.4,27.4,0,0,0,4.061,1.948,22.218,22.218,0,0,1,4.84,2.563,7.54,7.54,0,0,1,2.256,2.687A8.081,8.081,0,0,1-71.019,48.858Zm15.2,8.552q-5.291,0-8.275-3.086t-2.984-8.5q0-5.558,2.769-8.736A9.563,9.563,0,0,1-56.7,33.908a9.347,9.347,0,0,1,7.1,2.728A10.422,10.422,0,0,1-47,44.142v2.6H-62.118a7.45,7.45,0,0,0,1.784,5.076A6.214,6.214,0,0,0-55.6,53.6a17.488,17.488,0,0,0,3.743-.379,19.618,19.618,0,0,0,3.722-1.261v3.917A14.8,14.8,0,0,1-51.7,57.062,21.881,21.881,0,0,1-55.822,57.41ZM-56.7,37.559a4.842,4.842,0,0,0-3.681,1.456,6.939,6.939,0,0,0-1.651,4.245h10.295A6.278,6.278,0,0,0-53.095,39,4.629,4.629,0,0,0-56.7,37.559Zm20,19.441h-4.819V25.09h4.819Zm16.8.41q-5.291,0-8.275-3.086t-2.984-8.5q0-5.558,2.769-8.736a9.563,9.563,0,0,1,7.608-3.179,9.347,9.347,0,0,1,7.1,2.728,10.422,10.422,0,0,1,2.6,7.506v2.6H-26.209a7.45,7.45,0,0,0,1.784,5.076A6.214,6.214,0,0,0-19.687,53.6a17.488,17.488,0,0,0,3.743-.379,19.618,19.618,0,0,0,3.722-1.261v3.917a14.8,14.8,0,0,1-3.568,1.189A21.881,21.881,0,0,1-19.913,57.41Zm-.882-19.852a4.842,4.842,0,0,0-3.681,1.456,6.939,6.939,0,0,0-1.651,4.245h10.295A6.278,6.278,0,0,0-17.186,39,4.629,4.629,0,0,0-20.795,37.559ZM3.527,57.41q-5.147,0-7.824-3t-2.676-8.624q0-5.722,2.8-8.8t8.09-3.076a15.162,15.162,0,0,1,6.46,1.333L8.921,39.117a14.6,14.6,0,0,0-5.045-1.189q-5.886,0-5.886,7.813A9.357,9.357,0,0,0-.543,51.473a5.076,5.076,0,0,0,4.3,1.917,12.326,12.326,0,0,0,6.091-1.6V56a9.518,9.518,0,0,1-2.758,1.087A16.551,16.551,0,0,1,3.527,57.41Zm20.1-3.9a11.72,11.72,0,0,0,3.527-.554v3.63a9.729,9.729,0,0,1-2.061.584,14.2,14.2,0,0,1-2.615.236q-6.85,0-6.85-7.219V37.969h-3.1V35.836l3.322-1.764,1.641-4.8h2.974v5.045h6.46v3.65h-6.46V50.109a3.406,3.406,0,0,0,.872,2.574A3.177,3.177,0,0,0,23.625,53.514ZM36.5,57H31.685V34.318H36.5ZM31.4,28.31A2.668,2.668,0,0,1,32.1,26.32a2.757,2.757,0,0,1,2.02-.7,2.7,2.7,0,0,1,1.979.7,2.668,2.668,0,0,1,.708,1.989,2.619,2.619,0,0,1-.708,1.938,2.675,2.675,0,0,1-1.979.708,2.733,2.733,0,0,1-2.02-.708A2.619,2.619,0,0,1,31.4,28.31ZM63.513,45.618q0,5.558-2.851,8.675a10.214,10.214,0,0,1-7.937,3.117,10.874,10.874,0,0,1-5.619-1.436,9.477,9.477,0,0,1-3.753-4.122,14.039,14.039,0,0,1-1.312-6.234q0-5.517,2.83-8.613t7.978-3.1a9.992,9.992,0,0,1,7.793,3.168A12.239,12.239,0,0,1,63.513,45.618ZM47,45.618q0,7.854,5.8,7.854,5.742,0,5.742-7.854,0-7.772-5.783-7.772a4.931,4.931,0,0,0-4.4,2.01A10.228,10.228,0,0,0,47,45.618ZM89,57h-4.84V43.055a6.1,6.1,0,0,0-1.056-3.917,4.082,4.082,0,0,0-3.353-1.292,5.331,5.331,0,0,0-4.471,1.8q-1.415,1.8-1.415,6.05V57H69.05V34.318h3.773l.677,2.974h.246a6.71,6.71,0,0,1,2.912-2.5,9.759,9.759,0,0,1,4.184-.882Q89,33.908,89,42.214Z" transform="translate(200.474 87.902)" fill="#505050"/></g><g transform="translate(8421 15977)"><g fill="#f5f5f5" stroke="#707070" stroke-width="1"><rect width="400" height="200" rx="15" stroke="none"/><rect x="0.5" y="0.5" width="399" height="199" rx="14.5" fill="none"/></g><path d="M-118.074-26.209a8.079,8.079,0,0,0-6.645,2.994q-2.42,2.994-2.42,8.265,0,5.517,2.328,8.347a8.221,8.221,0,0,0,6.737,2.83,17.7,17.7,0,0,0,3.691-.379q1.784-.379,3.712-.974v4.2a22.5,22.5,0,0,1-8,1.333q-6.583,0-10.11-3.989t-3.527-11.413a18.442,18.442,0,0,1,1.712-8.183,12.222,12.222,0,0,1,4.953-5.373,14.98,14.98,0,0,1,7.608-1.866,18.881,18.881,0,0,1,8.49,1.928l-1.764,4.081a26.333,26.333,0,0,0-3.209-1.261A11.563,11.563,0,0,0-118.074-26.209ZM-90.532,0-91.5-3.158h-.164a9.292,9.292,0,0,1-3.3,2.82A10.442,10.442,0,0,1-99.227.41a7.219,7.219,0,0,1-5.219-1.8A6.753,6.753,0,0,1-106.323-6.5a6,6,0,0,1,2.6-5.291q2.6-1.784,7.937-1.948l3.917-.123v-1.21a4.586,4.586,0,0,0-1.015-3.25A4.14,4.14,0,0,0-96.028-19.4a10.885,10.885,0,0,0-3.343.513,25.226,25.226,0,0,0-3.076,1.21l-1.559-3.445a16.774,16.774,0,0,1,4.04-1.466,18.593,18.593,0,0,1,4.143-.5q4.327,0,6.532,1.887t2.2,5.927V0Zm-7.178-3.281A5.97,5.97,0,0,0-93.5-4.748a5.315,5.315,0,0,0,1.589-4.112v-1.969l-2.912.123a9.964,9.964,0,0,0-4.953,1.138,3.458,3.458,0,0,0-1.548,3.107,3.032,3.032,0,0,0,.9,2.348A3.877,3.877,0,0,0-97.709-3.281Zm28.854-19.811a11.6,11.6,0,0,1,2.4.205l-.472,4.491a9.109,9.109,0,0,0-2.133-.246,6.172,6.172,0,0,0-4.686,1.887,6.82,6.82,0,0,0-1.794,4.9V0H-80.36V-22.682h3.773l.636,4h.246a8.987,8.987,0,0,1,2.943-3.22A7,7,0,0,1-68.855-23.092ZM-54.6.41a7.9,7.9,0,0,1-6.624-3.076Q-63.6-5.742-63.6-11.3q0-5.578,2.41-8.685a7.975,7.975,0,0,1,6.675-3.107,7.819,7.819,0,0,1,6.809,3.3h.246a28.889,28.889,0,0,1-.349-3.855V-31.91h4.84V0h-3.773l-.841-2.974h-.226A7.7,7.7,0,0,1-54.6.41Zm1.292-3.9a5.245,5.245,0,0,0,4.327-1.671q1.354-1.671,1.395-5.424v-.677q0-4.286-1.395-6.091a5.173,5.173,0,0,0-4.368-1.8,4.432,4.432,0,0,0-3.917,2.061,10.562,10.562,0,0,0-1.374,5.875,10.3,10.3,0,0,0,1.333,5.752A4.5,4.5,0,0,0-53.31-3.486ZM-6.06,0-9.054-8.326H-20.518L-23.451,0h-5.168L-17.4-30.105h5.332L-.851,0Zm-4.286-12.551-2.81-8.162q-.308-.82-.851-2.584t-.749-2.584a45.961,45.961,0,0,1-1.62,5.517l-2.707,7.813ZM21.708,0h-4.84V-13.986a6.342,6.342,0,0,0-.984-3.886,3.633,3.633,0,0,0-3.076-1.282,4.692,4.692,0,0,0-4.091,1.815q-1.3,1.815-1.3,6.04V0H2.594V-22.682H6.368l.677,2.974h.246a6.284,6.284,0,0,1,2.738-2.5,8.828,8.828,0,0,1,3.948-.882q5.229,0,6.932,3.568h.328a6.914,6.914,0,0,1,2.83-2.625,8.982,8.982,0,0,1,4.184-.943q4.061,0,5.917,2.051t1.856,6.255V0H31.2V-13.986a6.293,6.293,0,0,0-.995-3.886,3.662,3.662,0,0,0-3.086-1.282A4.784,4.784,0,0,0,23.01-17.4a9.038,9.038,0,0,0-1.3,5.383ZM62.867-11.382q0,5.558-2.851,8.675A10.214,10.214,0,0,1,52.08.41,10.874,10.874,0,0,1,46.46-1.025a9.477,9.477,0,0,1-3.753-4.122A14.039,14.039,0,0,1,41.4-11.382q0-5.517,2.83-8.613t7.978-3.1A9.992,9.992,0,0,1,60-19.923,12.239,12.239,0,0,1,62.867-11.382Zm-16.509,0q0,7.854,5.8,7.854,5.742,0,5.742-7.854,0-7.772-5.783-7.772a4.931,4.931,0,0,0-4.4,2.01A10.228,10.228,0,0,0,46.358-11.382ZM84.4,0l-.677-2.974h-.246A6.838,6.838,0,0,1,80.616-.492a9.565,9.565,0,0,1-4.235.9q-4.122,0-6.152-2.051T68.2-7.854V-22.682h4.86V-8.7a6.068,6.068,0,0,0,1.066,3.907,4.071,4.071,0,0,0,3.343,1.3A5.322,5.322,0,0,0,81.929-5.3q1.425-1.815,1.425-6.081v-11.3h4.84V0Zm30.618,0h-4.84V-13.945a6.1,6.1,0,0,0-1.056-3.917,4.082,4.082,0,0,0-3.353-1.292,5.331,5.331,0,0,0-4.471,1.8q-1.415,1.8-1.415,6.05V0H95.064V-22.682h3.773l.677,2.974h.246a6.71,6.71,0,0,1,2.912-2.5,9.759,9.759,0,0,1,4.184-.882q8.162,0,8.162,8.306Zm15.155-3.486A11.72,11.72,0,0,0,133.7-4.04V-.41a9.729,9.729,0,0,1-2.061.584,14.2,14.2,0,0,1-2.615.236q-6.85,0-6.85-7.219V-19.031h-3.1v-2.133l3.322-1.764,1.641-4.8h2.974v5.045h6.46v3.65h-6.46V-6.891a3.406,3.406,0,0,0,.872,2.574A3.177,3.177,0,0,0,130.173-3.486Z" transform="translate(200.474 116.902)" fill="#505050"/></g><g transform="translate(8921 15977)"><g fill="#f5f5f5" stroke="#707070" stroke-width="1"><rect width="400" height="200" rx="15" stroke="none"/><rect x="0.5" y="0.5" width="399" height="199" rx="14.5" fill="none"/></g><path d="M-116.2,0h-4.86V-29.982h16.919v4.143H-116.2v9.372h11.3V-12.3h-11.3Zm21.8,0h-4.819V-22.682H-94.4ZM-99.5-28.69A2.668,2.668,0,0,1-98.8-30.68a2.757,2.757,0,0,1,2.02-.7,2.7,2.7,0,0,1,1.979.7,2.668,2.668,0,0,1,.708,1.989,2.619,2.619,0,0,1-.708,1.938,2.675,2.675,0,0,1-1.979.708,2.733,2.733,0,0,1-2.02-.708A2.619,2.619,0,0,1-99.5-28.69ZM-67.553,0h-4.84V-13.945a6.1,6.1,0,0,0-1.056-3.917A4.082,4.082,0,0,0-76.8-19.154a5.331,5.331,0,0,0-4.471,1.8q-1.415,1.8-1.415,6.05V0h-4.819V-22.682h3.773l.677,2.974h.246a6.71,6.71,0,0,1,2.912-2.5,9.759,9.759,0,0,1,4.184-.882q8.162,0,8.162,8.306Zm20.9,0-.964-3.158h-.164a9.292,9.292,0,0,1-3.3,2.82A10.442,10.442,0,0,1-55.351.41a7.219,7.219,0,0,1-5.219-1.8A6.753,6.753,0,0,1-62.446-6.5a6,6,0,0,1,2.6-5.291q2.6-1.784,7.937-1.948l3.917-.123v-1.21A4.586,4.586,0,0,0-49-18.324,4.14,4.14,0,0,0-52.151-19.4a10.885,10.885,0,0,0-3.343.513,25.226,25.226,0,0,0-3.076,1.21l-1.559-3.445a16.774,16.774,0,0,1,4.04-1.466,18.593,18.593,0,0,1,4.143-.5q4.327,0,6.532,1.887t2.2,5.927V0Zm-7.178-3.281a5.97,5.97,0,0,0,4.214-1.466,5.315,5.315,0,0,0,1.589-4.112v-1.969l-2.912.123a9.964,9.964,0,0,0-4.953,1.138A3.458,3.458,0,0,0-57.442-6.46a3.032,3.032,0,0,0,.9,2.348A3.877,3.877,0,0,0-53.833-3.281ZM-31.664,0h-4.819V-31.91h4.819ZM-.595-26.209a8.079,8.079,0,0,0-6.645,2.994q-2.42,2.994-2.42,8.265,0,5.517,2.328,8.347A8.221,8.221,0,0,0-.595-3.773,17.7,17.7,0,0,0,3.1-4.153q1.784-.379,3.712-.974v4.2a22.5,22.5,0,0,1-8,1.333Q-7.772.41-11.3-3.579t-3.527-11.413a18.442,18.442,0,0,1,1.712-8.183,12.222,12.222,0,0,1,4.953-5.373A14.98,14.98,0,0,1-.554-30.413a18.881,18.881,0,0,1,8.49,1.928L6.173-24.4a26.333,26.333,0,0,0-3.209-1.261A11.563,11.563,0,0,0-.595-26.209ZM26.947,0l-.964-3.158h-.164a9.292,9.292,0,0,1-3.3,2.82A10.442,10.442,0,0,1,18.252.41a7.219,7.219,0,0,1-5.219-1.8A6.753,6.753,0,0,1,11.156-6.5a6,6,0,0,1,2.6-5.291q2.6-1.784,7.937-1.948l3.917-.123v-1.21a4.586,4.586,0,0,0-1.015-3.25A4.14,4.14,0,0,0,21.451-19.4a10.885,10.885,0,0,0-3.343.513,25.226,25.226,0,0,0-3.076,1.21l-1.559-3.445a16.774,16.774,0,0,1,4.04-1.466,18.593,18.593,0,0,1,4.143-.5q4.327,0,6.532,1.887t2.2,5.927V0ZM19.77-3.281a5.97,5.97,0,0,0,4.214-1.466,5.315,5.315,0,0,0,1.589-4.112v-1.969l-2.912.123a9.964,9.964,0,0,0-4.953,1.138A3.458,3.458,0,0,0,16.16-6.46a3.032,3.032,0,0,0,.9,2.348A3.877,3.877,0,0,0,19.77-3.281ZM48.624-23.092a11.6,11.6,0,0,1,2.4.205L50.552-18.4a9.109,9.109,0,0,0-2.133-.246,6.172,6.172,0,0,0-4.686,1.887,6.82,6.82,0,0,0-1.794,4.9V0H37.119V-22.682h3.773l.636,4h.246a8.987,8.987,0,0,1,2.943-3.22A7,7,0,0,1,48.624-23.092ZM62.877.41a7.9,7.9,0,0,1-6.624-3.076Q53.874-5.742,53.874-11.3q0-5.578,2.41-8.685a7.975,7.975,0,0,1,6.675-3.107,7.819,7.819,0,0,1,6.809,3.3h.246a28.889,28.889,0,0,1-.349-3.855V-31.91H74.5V0H70.731l-.841-2.974h-.226A7.7,7.7,0,0,1,62.877.41Zm1.292-3.9A5.245,5.245,0,0,0,68.5-5.158q1.354-1.671,1.395-5.424v-.677q0-4.286-1.395-6.091a5.173,5.173,0,0,0-4.368-1.8,4.432,4.432,0,0,0-3.917,2.061,10.562,10.562,0,0,0-1.374,5.875A10.3,10.3,0,0,0,60.17-5.465,4.5,4.5,0,0,0,64.169-3.486ZM79.632-11.5a31.78,31.78,0,0,1,1.589-10.172A25.288,25.288,0,0,1,85.8-29.982h4.2a29.317,29.317,0,0,0-4.368,8.644,32.226,32.226,0,0,0-1.518,9.792,31.351,31.351,0,0,0,1.518,9.7,29.281,29.281,0,0,0,4.327,8.49H85.8A24.168,24.168,0,0,1,81.211-1.5,30.956,30.956,0,0,1,79.632-11.5ZM109.942-6.46a5.935,5.935,0,0,1-2.42,5.1Q105.1.41,100.591.41a16.373,16.373,0,0,1-7.28-1.374V-5.127a17.874,17.874,0,0,0,7.444,1.846q4.45,0,4.45-2.687a2.128,2.128,0,0,0-.492-1.436,5.825,5.825,0,0,0-1.62-1.189,27.88,27.88,0,0,0-3.138-1.395,14.514,14.514,0,0,1-5.3-3.035A5.616,5.616,0,0,1,93.27-16.96a5.172,5.172,0,0,1,2.348-4.522,11.143,11.143,0,0,1,6.388-1.61,18.093,18.093,0,0,1,7.567,1.62l-1.559,3.63a16.831,16.831,0,0,0-6.173-1.518q-3.814,0-3.814,2.174a2.187,2.187,0,0,0,.995,1.8,21.873,21.873,0,0,0,4.337,2.03,19.827,19.827,0,0,1,4.081,1.989,5.945,5.945,0,0,1,1.887,2.082A6.024,6.024,0,0,1,109.942-6.46ZM123.334-11.5a30.9,30.9,0,0,1-1.589,10.049,24.037,24.037,0,0,1-4.583,8.1H113a29.433,29.433,0,0,0,4.337-8.511,31.353,31.353,0,0,0,1.507-9.68,32.1,32.1,0,0,0-1.518-9.792,29.655,29.655,0,0,0-4.368-8.644h4.2a25.158,25.158,0,0,1,4.594,8.336A31.929,31.929,0,0,1,123.334-11.5Z" transform="translate(200.474 116.902)" fill="#505050"/></g><g transform="translate(6581 15927)"><g fill="#f5f5f5"><path d="M 210 299.3855590820313 L 0.8602105379104614 150 L 210 0.6144360899925232 L 419.1398010253906 150 L 210 299.3855590820313 Z" stroke="none"/><path d="M 210 1.228912353515625 L 1.720489501953125 150 L 210 298.7710876464844 L 418.2795104980469 150 L 210 1.228912353515625 M 210 0 L 420 150 L 210 300 L 0 150 L 210 0 Z" stroke="none" fill="#707070"/></g><path d="M-58,0H-64L-78.75-23.892h-.164l.1,1.333q.287,3.814.287,6.973V0h-4.45V-29.982h5.947l14.7,23.769h.123q-.041-.472-.164-3.435t-.123-4.625V-29.982H-58ZM-36.4,0l-.964-3.158h-.164a9.292,9.292,0,0,1-3.3,2.82A10.442,10.442,0,0,1-45.1.41a7.219,7.219,0,0,1-5.219-1.8A6.753,6.753,0,0,1-52.192-6.5a6,6,0,0,1,2.6-5.291q2.6-1.784,7.937-1.948l3.917-.123v-1.21a4.586,4.586,0,0,0-1.015-3.25A4.14,4.14,0,0,0-41.9-19.4a10.885,10.885,0,0,0-3.343.513,25.226,25.226,0,0,0-3.076,1.21l-1.559-3.445a16.774,16.774,0,0,1,4.04-1.466,18.593,18.593,0,0,1,4.143-.5q4.327,0,6.532,1.887t2.2,5.927V0Zm-7.178-3.281a5.97,5.97,0,0,0,4.214-1.466,5.315,5.315,0,0,0,1.589-4.112v-1.969l-2.912.123A9.964,9.964,0,0,0-45.64-9.567,3.458,3.458,0,0,0-47.188-6.46a3.032,3.032,0,0,0,.9,2.348A3.877,3.877,0,0,0-43.579-3.281Zm25.8-.205a11.72,11.72,0,0,0,3.527-.554V-.41a9.729,9.729,0,0,1-2.061.584A14.2,14.2,0,0,1-18.929.41q-6.85,0-6.85-7.219V-19.031h-3.1v-2.133l3.322-1.764,1.641-4.8h2.974v5.045h6.46v3.65h-6.46V-6.891a3.406,3.406,0,0,0,.872,2.574A3.177,3.177,0,0,0-17.78-3.486ZM-4.9,0H-9.721V-22.682H-4.9Zm-5.106-28.69A2.668,2.668,0,0,1-9.3-30.68a2.757,2.757,0,0,1,2.02-.7,2.7,2.7,0,0,1,1.979.7,2.668,2.668,0,0,1,.708,1.989A2.619,2.619,0,0,1-5.3-26.752a2.675,2.675,0,0,1-1.979.708,2.733,2.733,0,0,1-2.02-.708A2.619,2.619,0,0,1-10.008-28.69ZM22.107-11.382q0,5.558-2.851,8.675A10.214,10.214,0,0,1,11.32.41,10.874,10.874,0,0,1,5.7-1.025,9.477,9.477,0,0,1,1.948-5.147,14.039,14.039,0,0,1,.636-11.382Q.636-16.9,3.466-20t7.978-3.1a9.992,9.992,0,0,1,7.793,3.168A12.239,12.239,0,0,1,22.107-11.382Zm-16.509,0q0,7.854,5.8,7.854,5.742,0,5.742-7.854,0-7.772-5.783-7.772a4.931,4.931,0,0,0-4.4,2.01A10.228,10.228,0,0,0,5.6-11.382ZM47.6,0h-4.84V-13.945A6.1,6.1,0,0,0,41.7-17.862a4.082,4.082,0,0,0-3.353-1.292,5.331,5.331,0,0,0-4.471,1.8q-1.415,1.8-1.415,6.05V0H27.645V-22.682h3.773l.677,2.974h.246a6.71,6.71,0,0,1,2.912-2.5,9.759,9.759,0,0,1,4.184-.882q8.162,0,8.162,8.306ZM68.5,0l-.964-3.158h-.164a9.292,9.292,0,0,1-3.3,2.82A10.442,10.442,0,0,1,59.8.41a7.219,7.219,0,0,1-5.219-1.8A6.753,6.753,0,0,1,52.705-6.5a6,6,0,0,1,2.6-5.291q2.6-1.784,7.937-1.948l3.917-.123v-1.21a4.586,4.586,0,0,0-1.015-3.25A4.14,4.14,0,0,0,63-19.4a10.885,10.885,0,0,0-3.343.513,25.226,25.226,0,0,0-3.076,1.21l-1.559-3.445a16.774,16.774,0,0,1,4.04-1.466,18.593,18.593,0,0,1,4.143-.5q4.327,0,6.532,1.887t2.2,5.927V0ZM61.318-3.281a5.97,5.97,0,0,0,4.214-1.466,5.315,5.315,0,0,0,1.589-4.112v-1.969l-2.912.123a9.964,9.964,0,0,0-4.953,1.138A3.458,3.458,0,0,0,57.709-6.46a3.032,3.032,0,0,0,.9,2.348A3.877,3.877,0,0,0,61.318-3.281ZM83.487,0H78.668V-31.91h4.819ZM-97.792,30.791a8.079,8.079,0,0,0-6.645,2.994q-2.42,2.994-2.42,8.265,0,5.517,2.328,8.347a8.221,8.221,0,0,0,6.737,2.83,17.7,17.7,0,0,0,3.691-.379q1.784-.379,3.712-.974v4.2a22.5,22.5,0,0,1-8,1.333q-6.583,0-10.11-3.989t-3.527-11.413a18.442,18.442,0,0,1,1.712-8.183,12.222,12.222,0,0,1,4.953-5.373,14.98,14.98,0,0,1,7.608-1.866,18.881,18.881,0,0,1,8.49,1.928L-91.024,32.6a26.332,26.332,0,0,0-3.209-1.261A11.563,11.563,0,0,0-97.792,30.791ZM-74.536,57.41q-5.291,0-8.275-3.086t-2.984-8.5q0-5.558,2.769-8.736a9.563,9.563,0,0,1,7.608-3.179,9.347,9.347,0,0,1,7.1,2.728,10.422,10.422,0,0,1,2.6,7.506v2.6H-80.832a7.45,7.45,0,0,0,1.784,5.076A6.214,6.214,0,0,0-74.31,53.6a17.488,17.488,0,0,0,3.743-.379,19.618,19.618,0,0,0,3.722-1.261v3.917a14.8,14.8,0,0,1-3.568,1.189A21.881,21.881,0,0,1-74.536,57.41Zm-.882-19.852A4.842,4.842,0,0,0-79.1,39.015,6.939,6.939,0,0,0-80.75,43.26h10.295A6.278,6.278,0,0,0-71.808,39,4.629,4.629,0,0,0-75.417,37.559Zm26.681-3.65a11.6,11.6,0,0,1,2.4.205l-.472,4.491a9.109,9.109,0,0,0-2.133-.246,6.172,6.172,0,0,0-4.686,1.887,6.82,6.82,0,0,0-1.794,4.9V57h-4.819V34.318h3.773l.636,4h.246a8.987,8.987,0,0,1,2.943-3.22A7,7,0,0,1-48.737,33.908Zm15.053,19.605a11.72,11.72,0,0,0,3.527-.554v3.63a9.729,9.729,0,0,1-2.061.584,14.2,14.2,0,0,1-2.615.236q-6.85,0-6.85-7.219V37.969h-3.1V35.836l3.322-1.764,1.641-4.8h2.974v5.045h6.46v3.65h-6.46V50.109a3.406,3.406,0,0,0,.872,2.574A3.177,3.177,0,0,0-33.684,53.514ZM-20.805,57h-4.819V34.318h4.819Zm-5.106-28.69A2.668,2.668,0,0,1-25.2,26.32a2.757,2.757,0,0,1,2.02-.7,2.7,2.7,0,0,1,1.979.7A2.668,2.668,0,0,1-20.5,28.31a2.619,2.619,0,0,1-.708,1.938,2.675,2.675,0,0,1-1.979.708,2.733,2.733,0,0,1-2.02-.708A2.619,2.619,0,0,1-25.912,28.31Zm23.379,9.659H-8.07V57h-4.84V37.969h-3.732V35.713l3.732-1.477V32.76q0-4.02,1.887-5.958t5.763-1.938a15.379,15.379,0,0,1,5,.841l-1.271,3.65a11.11,11.11,0,0,0-3.4-.574A2.771,2.771,0,0,0-7.321,29.8a5.115,5.115,0,0,0-.749,3.045v1.477h5.537ZM6.142,57H1.323V34.318H6.142ZM1.036,28.31a2.668,2.668,0,0,1,.708-1.989,2.757,2.757,0,0,1,2.02-.7,2.7,2.7,0,0,1,1.979.7A2.668,2.668,0,0,1,6.45,28.31a2.619,2.619,0,0,1-.708,1.938,2.675,2.675,0,0,1-1.979.708,2.733,2.733,0,0,1-2.02-.708A2.619,2.619,0,0,1,1.036,28.31ZM22.2,57.41q-5.147,0-7.824-3T11.7,45.782q0-5.722,2.8-8.8t8.09-3.076a15.162,15.162,0,0,1,6.46,1.333l-1.456,3.876a14.6,14.6,0,0,0-5.045-1.189q-5.886,0-5.886,7.813a9.357,9.357,0,0,0,1.466,5.732,5.076,5.076,0,0,0,4.3,1.917,12.326,12.326,0,0,0,6.091-1.6V56a9.518,9.518,0,0,1-2.758,1.087A16.551,16.551,0,0,1,22.2,57.41ZM48.04,57l-.964-3.158h-.164a9.292,9.292,0,0,1-3.3,2.82,10.442,10.442,0,0,1-4.266.749,7.219,7.219,0,0,1-5.219-1.8A6.753,6.753,0,0,1,32.249,50.5a6,6,0,0,1,2.6-5.291q2.6-1.784,7.937-1.948l3.917-.123v-1.21a4.586,4.586,0,0,0-1.015-3.25A4.14,4.14,0,0,0,42.543,37.6a10.885,10.885,0,0,0-3.343.513,25.226,25.226,0,0,0-3.076,1.21l-1.559-3.445a16.774,16.774,0,0,1,4.04-1.466,18.592,18.592,0,0,1,4.143-.5q4.327,0,6.532,1.887t2.2,5.927V57Zm-7.178-3.281a5.97,5.97,0,0,0,4.214-1.466,5.315,5.315,0,0,0,1.589-4.112V46.172l-2.912.123A9.964,9.964,0,0,0,38.8,47.433a3.458,3.458,0,0,0-1.548,3.107,3.032,3.032,0,0,0,.9,2.348A3.877,3.877,0,0,0,40.862,53.719Zm25.8-.205a11.72,11.72,0,0,0,3.527-.554v3.63a9.729,9.729,0,0,1-2.061.584,14.2,14.2,0,0,1-2.615.236q-6.85,0-6.85-7.219V37.969h-3.1V35.836l3.322-1.764,1.641-4.8H63.5v5.045h6.46v3.65H63.5V50.109a3.406,3.406,0,0,0,.872,2.574A3.177,3.177,0,0,0,66.661,53.514Zm17.965,3.9q-5.291,0-8.275-3.086t-2.984-8.5q0-5.558,2.769-8.736a9.563,9.563,0,0,1,7.608-3.179,9.347,9.347,0,0,1,7.1,2.728,10.422,10.422,0,0,1,2.6,7.506v2.6H78.33a7.45,7.45,0,0,0,1.784,5.076A6.214,6.214,0,0,0,84.851,53.6a17.488,17.488,0,0,0,3.743-.379,19.618,19.618,0,0,0,3.722-1.261v3.917a14.8,14.8,0,0,1-3.568,1.189A21.881,21.881,0,0,1,84.625,57.41Zm-.882-19.852a4.842,4.842,0,0,0-3.681,1.456,6.939,6.939,0,0,0-1.651,4.245H88.707A6.278,6.278,0,0,0,87.353,39,4.629,4.629,0,0,0,83.744,37.559Zm17.534,10.336V46.582a7.739,7.739,0,0,1,.82-3.753,10.691,10.691,0,0,1,2.871-3.1,15.879,15.879,0,0,0,3.148-2.994,4.493,4.493,0,0,0,.708-2.543,3.2,3.2,0,0,0-1.148-2.646,5.161,5.161,0,0,0-3.3-.923,11.35,11.35,0,0,0-3.609.554,25.623,25.623,0,0,0-3.24,1.333L95.8,28.9a18.053,18.053,0,0,1,8.921-2.317,9.641,9.641,0,0,1,6.378,1.969,6.7,6.7,0,0,1,2.358,5.435,7.742,7.742,0,0,1-.451,2.738,7.857,7.857,0,0,1-1.364,2.287,22.021,22.021,0,0,1-3.148,2.83,12.074,12.074,0,0,0-2.553,2.481,4.765,4.765,0,0,0-.646,2.646v.923Zm-.841,6.542q0-3.1,3.015-3.1a2.986,2.986,0,0,1,2.256.81,3.165,3.165,0,0,1,.779,2.287,3.259,3.259,0,0,1-.79,2.307,3.406,3.406,0,0,1-4.481.021A3.27,3.27,0,0,1,100.437,54.437Z" transform="translate(210 138)" fill="#505050"/></g><g transform="translate(7801 15927)"><g fill="#f5f5f5"><path d="M 210 299.3855590820313 L 0.8602105379104614 150 L 210 0.6144360899925232 L 419.1398010253906 150 L 210 299.3855590820313 Z" stroke="none"/><path d="M 210 1.228912353515625 L 1.720489501953125 150 L 210 298.7710876464844 L 418.2795104980469 150 L 210 1.228912353515625 M 210 0 L 420 150 L 210 300 L 0 150 L 210 0 Z" stroke="none" fill="#707070"/></g><path d="M-58,0H-64L-78.75-23.892h-.164l.1,1.333q.287,3.814.287,6.973V0h-4.45V-29.982h5.947l14.7,23.769h.123q-.041-.472-.164-3.435t-.123-4.625V-29.982H-58ZM-36.4,0l-.964-3.158h-.164a9.292,9.292,0,0,1-3.3,2.82A10.442,10.442,0,0,1-45.1.41a7.219,7.219,0,0,1-5.219-1.8A6.753,6.753,0,0,1-52.192-6.5a6,6,0,0,1,2.6-5.291q2.6-1.784,7.937-1.948l3.917-.123v-1.21a4.586,4.586,0,0,0-1.015-3.25A4.14,4.14,0,0,0-41.9-19.4a10.885,10.885,0,0,0-3.343.513,25.226,25.226,0,0,0-3.076,1.21l-1.559-3.445a16.774,16.774,0,0,1,4.04-1.466,18.593,18.593,0,0,1,4.143-.5q4.327,0,6.532,1.887t2.2,5.927V0Zm-7.178-3.281a5.97,5.97,0,0,0,4.214-1.466,5.315,5.315,0,0,0,1.589-4.112v-1.969l-2.912.123A9.964,9.964,0,0,0-45.64-9.567,3.458,3.458,0,0,0-47.188-6.46a3.032,3.032,0,0,0,.9,2.348A3.877,3.877,0,0,0-43.579-3.281Zm25.8-.205a11.72,11.72,0,0,0,3.527-.554V-.41a9.729,9.729,0,0,1-2.061.584A14.2,14.2,0,0,1-18.929.41q-6.85,0-6.85-7.219V-19.031h-3.1v-2.133l3.322-1.764,1.641-4.8h2.974v5.045h6.46v3.65h-6.46V-6.891a3.406,3.406,0,0,0,.872,2.574A3.177,3.177,0,0,0-17.78-3.486ZM-4.9,0H-9.721V-22.682H-4.9Zm-5.106-28.69A2.668,2.668,0,0,1-9.3-30.68a2.757,2.757,0,0,1,2.02-.7,2.7,2.7,0,0,1,1.979.7,2.668,2.668,0,0,1,.708,1.989A2.619,2.619,0,0,1-5.3-26.752a2.675,2.675,0,0,1-1.979.708,2.733,2.733,0,0,1-2.02-.708A2.619,2.619,0,0,1-10.008-28.69ZM22.107-11.382q0,5.558-2.851,8.675A10.214,10.214,0,0,1,11.32.41,10.874,10.874,0,0,1,5.7-1.025,9.477,9.477,0,0,1,1.948-5.147,14.039,14.039,0,0,1,.636-11.382Q.636-16.9,3.466-20t7.978-3.1a9.992,9.992,0,0,1,7.793,3.168A12.239,12.239,0,0,1,22.107-11.382Zm-16.509,0q0,7.854,5.8,7.854,5.742,0,5.742-7.854,0-7.772-5.783-7.772a4.931,4.931,0,0,0-4.4,2.01A10.228,10.228,0,0,0,5.6-11.382ZM47.6,0h-4.84V-13.945A6.1,6.1,0,0,0,41.7-17.862a4.082,4.082,0,0,0-3.353-1.292,5.331,5.331,0,0,0-4.471,1.8q-1.415,1.8-1.415,6.05V0H27.645V-22.682h3.773l.677,2.974h.246a6.71,6.71,0,0,1,2.912-2.5,9.759,9.759,0,0,1,4.184-.882q8.162,0,8.162,8.306ZM68.5,0l-.964-3.158h-.164a9.292,9.292,0,0,1-3.3,2.82A10.442,10.442,0,0,1,59.8.41a7.219,7.219,0,0,1-5.219-1.8A6.753,6.753,0,0,1,52.705-6.5a6,6,0,0,1,2.6-5.291q2.6-1.784,7.937-1.948l3.917-.123v-1.21a4.586,4.586,0,0,0-1.015-3.25A4.14,4.14,0,0,0,63-19.4a10.885,10.885,0,0,0-3.343.513,25.226,25.226,0,0,0-3.076,1.21l-1.559-3.445a16.774,16.774,0,0,1,4.04-1.466,18.593,18.593,0,0,1,4.143-.5q4.327,0,6.532,1.887t2.2,5.927V0ZM61.318-3.281a5.97,5.97,0,0,0,4.214-1.466,5.315,5.315,0,0,0,1.589-4.112v-1.969l-2.912.123a9.964,9.964,0,0,0-4.953,1.138A3.458,3.458,0,0,0,57.709-6.46a3.032,3.032,0,0,0,.9,2.348A3.877,3.877,0,0,0,61.318-3.281ZM83.487,0H78.668V-31.91h4.819ZM-97.792,30.791a8.079,8.079,0,0,0-6.645,2.994q-2.42,2.994-2.42,8.265,0,5.517,2.328,8.347a8.221,8.221,0,0,0,6.737,2.83,17.7,17.7,0,0,0,3.691-.379q1.784-.379,3.712-.974v4.2a22.5,22.5,0,0,1-8,1.333q-6.583,0-10.11-3.989t-3.527-11.413a18.442,18.442,0,0,1,1.712-8.183,12.222,12.222,0,0,1,4.953-5.373,14.98,14.98,0,0,1,7.608-1.866,18.881,18.881,0,0,1,8.49,1.928L-91.024,32.6a26.332,26.332,0,0,0-3.209-1.261A11.563,11.563,0,0,0-97.792,30.791ZM-74.536,57.41q-5.291,0-8.275-3.086t-2.984-8.5q0-5.558,2.769-8.736a9.563,9.563,0,0,1,7.608-3.179,9.347,9.347,0,0,1,7.1,2.728,10.422,10.422,0,0,1,2.6,7.506v2.6H-80.832a7.45,7.45,0,0,0,1.784,5.076A6.214,6.214,0,0,0-74.31,53.6a17.488,17.488,0,0,0,3.743-.379,19.618,19.618,0,0,0,3.722-1.261v3.917a14.8,14.8,0,0,1-3.568,1.189A21.881,21.881,0,0,1-74.536,57.41Zm-.882-19.852A4.842,4.842,0,0,0-79.1,39.015,6.939,6.939,0,0,0-80.75,43.26h10.295A6.278,6.278,0,0,0-71.808,39,4.629,4.629,0,0,0-75.417,37.559Zm26.681-3.65a11.6,11.6,0,0,1,2.4.205l-.472,4.491a9.109,9.109,0,0,0-2.133-.246,6.172,6.172,0,0,0-4.686,1.887,6.82,6.82,0,0,0-1.794,4.9V57h-4.819V34.318h3.773l.636,4h.246a8.987,8.987,0,0,1,2.943-3.22A7,7,0,0,1-48.737,33.908Zm15.053,19.605a11.72,11.72,0,0,0,3.527-.554v3.63a9.729,9.729,0,0,1-2.061.584,14.2,14.2,0,0,1-2.615.236q-6.85,0-6.85-7.219V37.969h-3.1V35.836l3.322-1.764,1.641-4.8h2.974v5.045h6.46v3.65h-6.46V50.109a3.406,3.406,0,0,0,.872,2.574A3.177,3.177,0,0,0-33.684,53.514ZM-20.805,57h-4.819V34.318h4.819Zm-5.106-28.69A2.668,2.668,0,0,1-25.2,26.32a2.757,2.757,0,0,1,2.02-.7,2.7,2.7,0,0,1,1.979.7A2.668,2.668,0,0,1-20.5,28.31a2.619,2.619,0,0,1-.708,1.938,2.675,2.675,0,0,1-1.979.708,2.733,2.733,0,0,1-2.02-.708A2.619,2.619,0,0,1-25.912,28.31Zm23.379,9.659H-8.07V57h-4.84V37.969h-3.732V35.713l3.732-1.477V32.76q0-4.02,1.887-5.958t5.763-1.938a15.379,15.379,0,0,1,5,.841l-1.271,3.65a11.11,11.11,0,0,0-3.4-.574A2.771,2.771,0,0,0-7.321,29.8a5.115,5.115,0,0,0-.749,3.045v1.477h5.537ZM6.142,57H1.323V34.318H6.142ZM1.036,28.31a2.668,2.668,0,0,1,.708-1.989,2.757,2.757,0,0,1,2.02-.7,2.7,2.7,0,0,1,1.979.7A2.668,2.668,0,0,1,6.45,28.31a2.619,2.619,0,0,1-.708,1.938,2.675,2.675,0,0,1-1.979.708,2.733,2.733,0,0,1-2.02-.708A2.619,2.619,0,0,1,1.036,28.31ZM22.2,57.41q-5.147,0-7.824-3T11.7,45.782q0-5.722,2.8-8.8t8.09-3.076a15.162,15.162,0,0,1,6.46,1.333l-1.456,3.876a14.6,14.6,0,0,0-5.045-1.189q-5.886,0-5.886,7.813a9.357,9.357,0,0,0,1.466,5.732,5.076,5.076,0,0,0,4.3,1.917,12.326,12.326,0,0,0,6.091-1.6V56a9.518,9.518,0,0,1-2.758,1.087A16.551,16.551,0,0,1,22.2,57.41ZM48.04,57l-.964-3.158h-.164a9.292,9.292,0,0,1-3.3,2.82,10.442,10.442,0,0,1-4.266.749,7.219,7.219,0,0,1-5.219-1.8A6.753,6.753,0,0,1,32.249,50.5a6,6,0,0,1,2.6-5.291q2.6-1.784,7.937-1.948l3.917-.123v-1.21a4.586,4.586,0,0,0-1.015-3.25A4.14,4.14,0,0,0,42.543,37.6a10.885,10.885,0,0,0-3.343.513,25.226,25.226,0,0,0-3.076,1.21l-1.559-3.445a16.774,16.774,0,0,1,4.04-1.466,18.592,18.592,0,0,1,4.143-.5q4.327,0,6.532,1.887t2.2,5.927V57Zm-7.178-3.281a5.97,5.97,0,0,0,4.214-1.466,5.315,5.315,0,0,0,1.589-4.112V46.172l-2.912.123A9.964,9.964,0,0,0,38.8,47.433a3.458,3.458,0,0,0-1.548,3.107,3.032,3.032,0,0,0,.9,2.348A3.877,3.877,0,0,0,40.862,53.719Zm25.8-.205a11.72,11.72,0,0,0,3.527-.554v3.63a9.729,9.729,0,0,1-2.061.584,14.2,14.2,0,0,1-2.615.236q-6.85,0-6.85-7.219V37.969h-3.1V35.836l3.322-1.764,1.641-4.8H63.5v5.045h6.46v3.65H63.5V50.109a3.406,3.406,0,0,0,.872,2.574A3.177,3.177,0,0,0,66.661,53.514Zm17.965,3.9q-5.291,0-8.275-3.086t-2.984-8.5q0-5.558,2.769-8.736a9.563,9.563,0,0,1,7.608-3.179,9.347,9.347,0,0,1,7.1,2.728,10.422,10.422,0,0,1,2.6,7.506v2.6H78.33a7.45,7.45,0,0,0,1.784,5.076A6.214,6.214,0,0,0,84.851,53.6a17.488,17.488,0,0,0,3.743-.379,19.618,19.618,0,0,0,3.722-1.261v3.917a14.8,14.8,0,0,1-3.568,1.189A21.881,21.881,0,0,1,84.625,57.41Zm-.882-19.852a4.842,4.842,0,0,0-3.681,1.456,6.939,6.939,0,0,0-1.651,4.245H88.707A6.278,6.278,0,0,0,87.353,39,4.629,4.629,0,0,0,83.744,37.559Zm17.534,10.336V46.582a7.739,7.739,0,0,1,.82-3.753,10.691,10.691,0,0,1,2.871-3.1,15.879,15.879,0,0,0,3.148-2.994,4.493,4.493,0,0,0,.708-2.543,3.2,3.2,0,0,0-1.148-2.646,5.161,5.161,0,0,0-3.3-.923,11.35,11.35,0,0,0-3.609.554,25.623,25.623,0,0,0-3.24,1.333L95.8,28.9a18.053,18.053,0,0,1,8.921-2.317,9.641,9.641,0,0,1,6.378,1.969,6.7,6.7,0,0,1,2.358,5.435,7.742,7.742,0,0,1-.451,2.738,7.857,7.857,0,0,1-1.364,2.287,22.021,22.021,0,0,1-3.148,2.83,12.074,12.074,0,0,0-2.553,2.481,4.765,4.765,0,0,0-.646,2.646v.923Zm-.841,6.542q0-3.1,3.015-3.1a2.986,2.986,0,0,1,2.256.81,3.165,3.165,0,0,1,.779,2.287,3.259,3.259,0,0,1-.79,2.307,3.406,3.406,0,0,1-4.481.021A3.27,3.27,0,0,1,100.437,54.437Z" transform="translate(210 137)" fill="#505050"/></g><path d="M-.29,0H-5.44L-18.079-20.479h-.141l.088,1.143q.246,3.27.246,5.977V0H-21.7V-25.7h5.1L-4-5.326h.105q-.035-.4-.141-2.944t-.105-3.964V-25.7H-.29ZM23.3-9.756q0,4.764-2.443,7.436a8.755,8.755,0,0,1-6.8,2.672A9.321,9.321,0,0,1,9.237-.879,8.123,8.123,0,0,1,6.021-4.412,12.034,12.034,0,0,1,4.9-9.756q0-4.729,2.426-7.383a8.8,8.8,0,0,1,6.838-2.654,8.565,8.565,0,0,1,6.68,2.716A10.491,10.491,0,0,1,23.3-9.756Zm-14.15,0q0,6.732,4.975,6.732,4.922,0,4.922-6.732,0-6.662-4.957-6.662A4.227,4.227,0,0,0,10.318-14.7,8.767,8.767,0,0,0,9.149-9.756Z" transform="translate(6996 15766)" fill="#707070"/><path d="M-.29,0H-5.44L-18.079-20.479h-.141l.088,1.143q.246,3.27.246,5.977V0H-21.7V-25.7h5.1L-4-5.326h.105q-.035-.4-.141-2.944t-.105-3.964V-25.7H-.29ZM23.3-9.756q0,4.764-2.443,7.436a8.755,8.755,0,0,1-6.8,2.672A9.321,9.321,0,0,1,9.237-.879,8.123,8.123,0,0,1,6.021-4.412,12.034,12.034,0,0,1,4.9-9.756q0-4.729,2.426-7.383a8.8,8.8,0,0,1,6.838-2.654,8.565,8.565,0,0,1,6.68,2.716A10.491,10.491,0,0,1,23.3-9.756Zm-14.15,0q0,6.732,4.975,6.732,4.922,0,4.922-6.732,0-6.662-4.957-6.662A4.227,4.227,0,0,0,10.318-14.7,8.767,8.767,0,0,0,9.149-9.756Z" transform="translate(7701 16326)" fill="#707070"/></g><path d="M31.746-27.891q0,6.262-4.1,9.6T15.969-14.957H11.813V0H5.277V-39.977H16.789q7.492,0,11.225,3.063T31.746-27.891ZM11.813-20.453h3.473q5.031,0,7.383-1.75t2.352-5.469a6.206,6.206,0,0,0-2.105-5.141q-2.105-1.7-6.562-1.7H11.813ZM54.387-30.789a15.468,15.468,0,0,1,3.2.273l-.629,5.988a12.145,12.145,0,0,0-2.844-.328,8.229,8.229,0,0,0-6.248,2.516A9.093,9.093,0,0,0,45.473-15.8V0H39.047V-30.242h5.031l.848,5.332h.328A11.982,11.982,0,0,1,49.178-29.2,9.327,9.327,0,0,1,54.387-30.789ZM90.016-15.176q0,7.41-3.8,11.566T75.633.547a14.5,14.5,0,0,1-7.492-1.914,12.636,12.636,0,0,1-5-5.5,18.719,18.719,0,0,1-1.75-8.312q0-7.355,3.773-11.484T75.8-30.789q6.563,0,10.391,4.225T90.016-15.176ZM68-15.176Q68-4.7,75.742-4.7,83.4-4.7,83.4-15.176q0-10.363-7.711-10.363-4.047,0-5.865,2.68T68-15.176Zm54.934-15.066v3.527l-5.168.957a8.341,8.341,0,0,1,1.176,2.352,9.278,9.278,0,0,1,.465,2.953,9.048,9.048,0,0,1-3.227,7.355q-3.227,2.68-8.887,2.68a14.41,14.41,0,0,1-2.625-.219,3.62,3.62,0,0,0-2.078,3.008,1.671,1.671,0,0,0,.971,1.559,8.4,8.4,0,0,0,3.568.52h5.277q5,0,7.6,2.133a7.5,7.5,0,0,1,2.6,6.152,8.946,8.946,0,0,1-4.238,7.93q-4.238,2.789-12.25,2.789-6.18,0-9.434-2.187a7.07,7.07,0,0,1-3.254-6.234A6.634,6.634,0,0,1,95.2.342,9.451,9.451,0,0,1,100.133-2.3a4.829,4.829,0,0,1-2.119-1.764,4.452,4.452,0,0,1-.834-2.557,4.4,4.4,0,0,1,.957-2.871,11.042,11.042,0,0,1,2.844-2.324,8.423,8.423,0,0,1-3.814-3.295A9.692,9.692,0,0,1,95.7-20.453a9.583,9.583,0,0,1,3.1-7.629q3.1-2.707,8.846-2.707a21.532,21.532,0,0,1,2.693.178,16.956,16.956,0,0,1,2.119.369ZM99.176,4.7a3.534,3.534,0,0,0,1.873,3.2,10.294,10.294,0,0,0,5.264,1.121q5.25,0,7.82-1.5a4.508,4.508,0,0,0,2.57-3.992,3,3,0,0,0-1.408-2.8q-1.408-.834-5.236-.834h-4.867a6.839,6.839,0,0,0-4.389,1.3A4.259,4.259,0,0,0,99.176,4.7Zm2.762-25.156a6.086,6.086,0,0,0,1.463,4.375,5.532,5.532,0,0,0,4.2,1.531q5.578,0,5.578-5.961a6.761,6.761,0,0,0-1.381-4.553,5.246,5.246,0,0,0-4.2-1.6,5.409,5.409,0,0,0-4.225,1.586A6.667,6.667,0,0,0,101.938-20.453Zm41.945-10.336a15.468,15.468,0,0,1,3.2.273l-.629,5.988a12.145,12.145,0,0,0-2.844-.328,8.229,8.229,0,0,0-6.248,2.516,9.093,9.093,0,0,0-2.393,6.535V0h-6.426V-30.242h5.031l.848,5.332h.328a11.982,11.982,0,0,1,3.924-4.293A9.327,9.327,0,0,1,143.883-30.789ZM171.609,0l-1.285-4.211h-.219a12.389,12.389,0,0,1-4.4,3.76,13.922,13.922,0,0,1-5.687,1,9.625,9.625,0,0,1-6.959-2.406,9,9,0,0,1-2.5-6.809,7.994,7.994,0,0,1,3.473-7.055q3.473-2.379,10.582-2.6l5.223-.164V-20.1a6.115,6.115,0,0,0-1.354-4.334,5.52,5.52,0,0,0-4.2-1.436,14.513,14.513,0,0,0-4.457.684,33.635,33.635,0,0,0-4.1,1.613l-2.078-4.594a22.365,22.365,0,0,1,5.387-1.955,24.79,24.79,0,0,1,5.523-.67q5.77,0,8.709,2.516t2.939,7.9V0Zm-9.57-4.375a7.96,7.96,0,0,0,5.619-1.955,7.087,7.087,0,0,0,2.119-5.482v-2.625l-3.883.164q-4.539.164-6.6,1.518a4.61,4.61,0,0,0-2.064,4.143,4.042,4.042,0,0,0,1.2,3.131A5.169,5.169,0,0,0,162.039-4.375ZM210.656,0H204.2V-18.648a8.456,8.456,0,0,0-1.312-5.182,4.844,4.844,0,0,0-4.1-1.709,6.256,6.256,0,0,0-5.455,2.42Q191.6-20.7,191.6-15.066V0h-6.426V-30.242H190.2l.9,3.965h.328a8.378,8.378,0,0,1,3.65-3.336,11.771,11.771,0,0,1,5.264-1.176q6.973,0,9.242,4.758h.438a9.219,9.219,0,0,1,3.773-3.5,11.976,11.976,0,0,1,5.578-1.258q5.414,0,7.889,2.734t2.475,8.34V0h-6.426V-18.648a8.391,8.391,0,0,0-1.326-5.182,4.883,4.883,0,0,0-4.115-1.709q-3.746,0-5.482,2.338t-1.736,7.178Zm60.293-34.945a10.772,10.772,0,0,0-8.859,3.992q-3.227,3.992-3.227,11.02,0,7.355,3.1,11.129t8.982,3.773a23.6,23.6,0,0,0,4.922-.506q2.379-.506,4.949-1.3V-1.23A30.006,30.006,0,0,1,270.156.547q-8.777,0-13.48-5.318t-4.7-15.217a24.589,24.589,0,0,1,2.283-10.91,16.3,16.3,0,0,1,6.6-7.164A19.973,19.973,0,0,1,271-40.551a25.175,25.175,0,0,1,11.32,2.57l-2.352,5.441a35.11,35.11,0,0,0-4.279-1.682A15.418,15.418,0,0,0,270.949-34.945ZM307.672,0l-1.285-4.211h-.219a12.389,12.389,0,0,1-4.4,3.76,13.923,13.923,0,0,1-5.687,1,9.625,9.625,0,0,1-6.959-2.406,9,9,0,0,1-2.5-6.809,7.994,7.994,0,0,1,3.473-7.055q3.473-2.379,10.582-2.6l5.223-.164V-20.1a6.115,6.115,0,0,0-1.354-4.334,5.52,5.52,0,0,0-4.2-1.436,14.513,14.513,0,0,0-4.457.684,33.635,33.635,0,0,0-4.1,1.613l-2.078-4.594a22.365,22.365,0,0,1,5.387-1.955,24.79,24.79,0,0,1,5.523-.67q5.77,0,8.709,2.516t2.939,7.9V0ZM298.1-4.375a7.96,7.96,0,0,0,5.619-1.955,7.087,7.087,0,0,0,2.119-5.482v-2.625l-3.883.164q-4.539.164-6.6,1.518a4.61,4.61,0,0,0-2.064,4.143,4.042,4.042,0,0,0,1.2,3.131A5.169,5.169,0,0,0,298.1-4.375Zm38.473-26.414a15.468,15.468,0,0,1,3.2.273l-.629,5.988a12.145,12.145,0,0,0-2.844-.328,8.229,8.229,0,0,0-6.248,2.516A9.093,9.093,0,0,0,327.66-15.8V0h-6.426V-30.242h5.031l.848,5.332h.328a11.982,11.982,0,0,1,3.924-4.293A9.327,9.327,0,0,1,336.574-30.789Zm19,31.336a10.534,10.534,0,0,1-8.832-4.1q-3.172-4.1-3.172-11.512,0-7.438,3.213-11.58a10.634,10.634,0,0,1,8.9-4.143,10.426,10.426,0,0,1,9.078,4.4h.328a38.517,38.517,0,0,1-.465-5.141v-11.02h6.453V0h-5.031L364.93-3.965h-.3A10.273,10.273,0,0,1,355.578.547Zm1.723-5.2q3.965,0,5.77-2.229t1.859-7.232v-.9q0-5.715-1.859-8.121t-5.824-2.406a5.909,5.909,0,0,0-5.223,2.748q-1.832,2.748-1.832,7.834,0,5.031,1.777,7.67A6,6,0,0,0,357.3-4.648Zm44.734-16.734h4.539q4.566,0,6.617-1.7a6.151,6.151,0,0,0,2.051-5.031q0-3.391-2.215-4.867t-6.672-1.477h-4.32Zm0,5.414V0H395.5V-39.977h11.293q7.738,0,11.457,2.9t3.719,8.75q0,7.465-7.766,10.637L425.5,0h-7.437l-9.57-15.969ZM443.816.547q-7.055,0-11.033-4.115T428.8-14.9q0-7.41,3.691-11.648t10.145-4.238q5.988,0,9.461,3.637t3.473,10.008v3.473H435.422A9.933,9.933,0,0,0,437.8-6.9a8.286,8.286,0,0,0,6.316,2.365,23.317,23.317,0,0,0,4.99-.506,26.157,26.157,0,0,0,4.963-1.682V-1.5A19.73,19.73,0,0,1,449.313.082,29.175,29.175,0,0,1,443.816.547Zm-1.176-26.469a6.456,6.456,0,0,0-4.908,1.941,9.252,9.252,0,0,0-2.2,5.66h13.727a8.371,8.371,0,0,0-1.8-5.674A6.172,6.172,0,0,0,442.641-25.922Zm31.5,21.273a15.626,15.626,0,0,0,4.7-.738v4.84A12.971,12.971,0,0,1,476.1.232a18.933,18.933,0,0,1-3.486.314q-9.133,0-9.133-9.625v-16.3h-4.129v-2.844l4.43-2.352,2.188-6.4h3.965v6.727h8.613v4.867H469.93V-9.187a4.542,4.542,0,0,0,1.162,3.432A4.236,4.236,0,0,0,474.141-4.648Zm26.086-26.141a15.468,15.468,0,0,1,3.2.273l-.629,5.988a12.145,12.145,0,0,0-2.844-.328,8.229,8.229,0,0,0-6.248,2.516,9.093,9.093,0,0,0-2.393,6.535V0h-6.426V-30.242h5.031l.848,5.332h.328a11.982,11.982,0,0,1,3.924-4.293A9.327,9.327,0,0,1,500.227-30.789ZM515.457,0h-6.426V-30.242h6.426Zm-6.809-38.254a3.558,3.558,0,0,1,.943-2.652,3.676,3.676,0,0,1,2.693-.93,3.6,3.6,0,0,1,2.639.93,3.558,3.558,0,0,1,.943,2.652,3.492,3.492,0,0,1-.943,2.584,3.567,3.567,0,0,1-2.639.943,3.644,3.644,0,0,1-2.693-.943A3.492,3.492,0,0,1,508.648-38.254Zm29.2,38.8q-7.055,0-11.033-4.115T522.84-14.9q0-7.41,3.691-11.648t10.145-4.238q5.988,0,9.461,3.637t3.473,10.008v3.473H529.457A9.933,9.933,0,0,0,531.836-6.9a8.286,8.286,0,0,0,6.316,2.365,23.317,23.317,0,0,0,4.99-.506,26.159,26.159,0,0,0,4.963-1.682V-1.5A19.729,19.729,0,0,1,543.348.082,29.175,29.175,0,0,1,537.852.547Zm-1.176-26.469a6.456,6.456,0,0,0-4.908,1.941,9.252,9.252,0,0,0-2.2,5.66h13.727a8.371,8.371,0,0,0-1.8-5.674A6.172,6.172,0,0,0,536.676-25.922ZM563.8,0,552.316-30.242H559.1L565.25-12.66A34.838,34.838,0,0,1,567.164-5.5h.219A48.1,48.1,0,0,1,569.3-12.66l6.152-17.582h6.836L570.746,0Zm42,0-1.285-4.211H604.3a12.389,12.389,0,0,1-4.4,3.76,13.922,13.922,0,0,1-5.687,1,9.625,9.625,0,0,1-6.959-2.406,9,9,0,0,1-2.5-6.809,7.994,7.994,0,0,1,3.473-7.055q3.473-2.379,10.582-2.6l5.223-.164V-20.1a6.115,6.115,0,0,0-1.354-4.334,5.52,5.52,0,0,0-4.2-1.436,14.513,14.513,0,0,0-4.457.684,33.635,33.635,0,0,0-4.1,1.613l-2.078-4.594a22.366,22.366,0,0,1,5.387-1.955,24.79,24.79,0,0,1,5.523-.67q5.77,0,8.709,2.516t2.939,7.9V0Zm-9.57-4.375A7.96,7.96,0,0,0,601.85-6.33a7.087,7.087,0,0,0,2.119-5.482v-2.625l-3.883.164q-4.539.164-6.6,1.518a4.611,4.611,0,0,0-2.064,4.143,4.042,4.042,0,0,0,1.2,3.131A5.169,5.169,0,0,0,596.23-4.375ZM625.789,0h-6.426V-42.547h6.426Zm61.3,0h-7.109L673.2-23.844q-.438-1.559-1.094-4.5t-.793-4.088q-.273,1.75-.889,4.539T669.4-23.734L662.785,0h-7.109l-5.168-20.016-5.25-19.961h6.672l5.715,23.3a100.679,100.679,0,0,1,1.914,9.9q.3-2.324.9-5.2t1.094-4.648l6.508-23.352h6.48l6.672,23.461a87.712,87.712,0,0,1,2.023,9.734,71.365,71.365,0,0,1,1.969-9.953l5.688-23.242h6.617Zm42.219-15.176q0,7.41-3.8,11.566T714.93.547a14.5,14.5,0,0,1-7.492-1.914,12.637,12.637,0,0,1-5-5.5,18.719,18.719,0,0,1-1.75-8.312q0-7.355,3.773-11.484t10.637-4.129q6.563,0,10.391,4.225T729.313-15.176Zm-22.012,0Q707.3-4.7,715.039-4.7q7.656,0,7.656-10.473,0-10.363-7.711-10.363-4.047,0-5.865,2.68T707.3-15.176Zm44.734-15.613a15.469,15.469,0,0,1,3.2.273l-.629,5.988a12.145,12.145,0,0,0-2.844-.328,8.229,8.229,0,0,0-6.248,2.516,9.093,9.093,0,0,0-2.393,6.535V0H736.7V-30.242h5.031l.848,5.332h.328a11.982,11.982,0,0,1,3.924-4.293A9.327,9.327,0,0,1,752.035-30.789Zm15.012,14.82,3.637-4.539,9.133-9.734h7.41L775.059-17.254,787.992,0h-7.547l-9.707-13.262-3.527,2.9V0H760.84V-42.547h6.371v20.754l-.328,5.824Zm40.988-9.406h-7.383V0H794.2V-25.375h-4.977v-3.008l4.977-1.969V-32.32q0-5.359,2.516-7.943t7.684-2.584a20.506,20.506,0,0,1,6.672,1.121l-1.7,4.867a14.813,14.813,0,0,0-4.539-.766,3.694,3.694,0,0,0-3.186,1.354,6.82,6.82,0,0,0-1,4.061v1.969h7.383ZM819.6,0h-6.426V-42.547H819.6Zm36.039-15.176q0,7.41-3.8,11.566T841.258.547a14.5,14.5,0,0,1-7.492-1.914,12.637,12.637,0,0,1-5-5.5,18.719,18.719,0,0,1-1.75-8.312q0-7.355,3.773-11.484t10.637-4.129q6.563,0,10.391,4.225T855.641-15.176Zm-22.012,0q0,10.473,7.738,10.473,7.656,0,7.656-10.473,0-10.363-7.711-10.363-4.047,0-5.865,2.68T833.629-15.176ZM887.824,0l-3.91-14.109q-.711-2.242-2.57-10.418H881.1q-1.586,7.383-2.516,10.473L874.563,0h-7.109l-8.477-30.242h6.563l3.855,14.9q1.313,5.523,1.859,9.461h.164q.273-2,.834-4.58t.971-3.869l4.594-15.914h7.055l4.457,15.914q.41,1.34,1.025,4.1a31.561,31.561,0,0,1,.725,4.293h.219a83.905,83.905,0,0,1,1.914-9.406l3.91-14.9h6.453L895.043,0Z" transform="translate(50 161)" fill="#1a1a1a"/></g></svg>