<svg width="1920" height="768" viewBox="0 0 1920 768" fill="none" xmlns="http://www.w3.org/2000/svg">
<rect width="1920" height="768" fill="#F4F4F4"/>
<path d="M1247 214.356C1263.34 170.15 1231.8 92.7188 1160 94.4082C1175.2 85.1163 1349.21 121.438 1247 214.356Z" fill="#6EC6FF"/>
<path d="M1230.23 373.713C1240.21 413.335 1264.35 523.07 1055 645.943C1257.03 614.057 1385.83 441.786 1230.23 373.713Z" fill="#6EC6FF"/>
<path d="M1028.57 399.549C1087.92 399.549 1279.42 524.71 1255.24 630.711C1420.42 552.21 1183.92 382.21 1028.57 399.549Z" fill="#6EC6FF"/>
<path d="M533.297 490.763C519.117 536.193 519.399 575.743 525.385 606.526C533.617 648.855 574.881 673.589 617.961 671.668C666.94 669.485 722.864 654.167 772.691 598.47C843.533 519.283 831 347 824.982 314.247C870.5 295 1061.5 281.381 1087.46 283.487L1085.08 283.29C1013.78 277.395 958.142 272.796 815.532 289.349C803.731 262.098 741.346 194.783 638.867 141.225C536.387 87.6682 417.858 74.0644 364 77.4975C452.189 94.2341 539.091 94.2341 653.672 181.78C745.337 251.816 764.035 298.58 764.035 298.58C680.996 322.397 568.058 379.4 533.297 490.763Z" fill="#6EC6FF"/>
<path d="M771.986 334.421C730.112 346.305 604.644 396.862 588.469 516.927C584.595 545.681 613.208 566.259 639.615 554.239C766.291 496.578 776.581 343.037 771.986 334.421Z" fill="#F5F5F5"/>
<path d="M861.149 556.426L918.657 505.683H865.619C865.619 505.683 863.533 545.15 861.149 556.426Z" fill="#AFAFAF"/>
<path d="M1048.9 556.425C1048.9 556.425 1084.42 511.32 1086.11 505.682H1048.9V556.425Z" fill="#AFAFAF"/>
<path d="M906.817 627.465C978.147 591.182 1039.47 529.759 1059.05 505.682H913.341L906.817 627.465Z" fill="#AFAFAF"/>
<path d="M1041.75 522.397C1108.29 520.486 1139.64 510.458 1147 505.682H915.274C929.704 512.05 975.201 524.307 1041.75 522.397Z" fill="#999999"/>
<path d="M960.943 505.682C944.909 512.064 900.474 520.999 851 505.682H960.943Z" fill="#999999"/>
<path d="M861.149 454.939L918.657 505.682H865.619C865.619 505.682 863.533 466.216 861.149 454.939Z" fill="#AFAFAF"/>
<path d="M1048.9 454.939C1048.9 454.939 1084.42 500.044 1086.11 505.682H1048.9V454.939Z" fill="#AFAFAF"/>
<path d="M906.817 383.899C978.147 420.182 1039.47 481.606 1059.05 505.682H913.341L906.817 383.899Z" fill="#AFAFAF"/>
<path d="M1041.75 488.968C1108.29 490.878 1139.64 500.907 1147 505.682H915.274C929.704 499.315 975.201 487.058 1041.75 488.968Z" fill="#999999"/>
<path d="M960.943 505.682C944.909 500.577 900.474 493.429 851 505.682H960.943Z" fill="#999999"/>
<path d="M1084.77 503.513C1070.25 488.034 1056.56 495.882 1049.86 503.613C1048.66 504.988 1048.72 507.026 1049.91 508.4C1063.45 523.959 1077.59 516.254 1084.82 508.543C1086.15 507.126 1086.1 504.93 1084.77 503.513Z" fill="#1A1A1A"/>
<path d="M1115.13 319.406L1155.54 283.749H1118.27C1118.27 283.749 1116.81 311.482 1115.13 319.406Z" fill="#AFAFAF"/>
<path d="M1247.06 319.406C1247.06 319.406 1272.02 287.71 1273.21 283.748H1247.06V319.406Z" fill="#AFAFAF"/>
<path d="M1147.22 369.325C1197.35 343.829 1240.44 300.667 1254.19 283.748H1151.81L1147.22 369.325Z" fill="#AFAFAF"/>
<path d="M1242.04 295.494C1288.8 294.151 1310.83 287.104 1316 283.748H1153.17C1163.31 288.223 1195.28 296.836 1242.04 295.494Z" fill="#999999"/>
<path d="M1185.26 283.748C1173.99 288.233 1142.77 294.511 1108 283.748H1185.26Z" fill="#999999"/>
<path d="M1115.13 248.091L1155.54 283.748H1118.27C1118.27 283.748 1116.81 256.015 1115.13 248.091Z" fill="#AFAFAF"/>
<path d="M1247.06 248.091C1247.06 248.091 1272.02 279.787 1273.21 283.748H1247.06V248.091Z" fill="#AFAFAF"/>
<path d="M1147.22 198.171C1197.35 223.667 1240.44 266.83 1254.19 283.748H1151.81L1147.22 198.171Z" fill="#AFAFAF"/>
<path d="M1242.04 272.003C1288.8 273.345 1310.83 280.393 1316 283.748H1153.17C1163.31 279.274 1195.28 270.661 1242.04 272.003Z" fill="#999999"/>
<path d="M1185.26 283.748C1173.99 280.161 1142.77 275.138 1108 283.748H1185.26Z" fill="#999999"/>
<path d="M1272.27 282.224C1262.07 271.347 1252.45 276.862 1247.74 282.294C1246.9 283.261 1246.94 284.693 1247.77 285.658C1257.29 296.592 1267.23 291.177 1272.31 285.759C1273.24 284.763 1273.2 283.22 1272.27 282.224Z" fill="#1A1A1A"/>
<path d="M1320.66 181.269L1347.09 157.955H1322.72C1322.72 157.955 1321.76 176.088 1320.66 181.269Z" fill="#AFAFAF"/>
<path d="M1406.93 181.268C1406.93 181.268 1423.25 160.545 1424.02 157.954H1406.93V181.268Z" fill="#AFAFAF"/>
<path d="M1341.65 213.908C1374.42 197.238 1402.6 169.016 1411.59 157.954H1344.64L1341.65 213.908Z" fill="#AFAFAF"/>
<path d="M1403.64 165.634C1434.22 164.756 1448.62 160.148 1452 157.954H1345.53C1352.16 160.88 1373.07 166.512 1403.64 165.634Z" fill="#999999"/>
<path d="M1366.51 157.954C1359.15 160.886 1338.73 164.992 1316 157.954H1366.51Z" fill="#999999"/>
<path d="M1320.66 134.64L1347.09 157.954H1322.72C1322.72 157.954 1321.76 139.821 1320.66 134.64Z" fill="#AFAFAF"/>
<path d="M1406.93 134.64C1406.93 134.64 1423.25 155.364 1424.02 157.954H1406.93V134.64Z" fill="#AFAFAF"/>
<path d="M1341.65 102C1374.42 118.67 1402.6 146.892 1411.59 157.954H1344.64L1341.65 102Z" fill="#AFAFAF"/>
<path d="M1403.64 150.275C1434.22 151.152 1448.62 155.76 1452 157.954H1345.53C1352.16 155.029 1373.07 149.397 1403.64 150.275Z" fill="#999999"/>
<path d="M1366.51 157.954C1359.15 155.608 1338.73 152.324 1316 157.954H1366.51Z" fill="#999999"/>
<path d="M1423.41 156.958C1416.74 149.846 1410.45 153.451 1407.37 157.003C1406.82 157.635 1406.84 158.572 1407.39 159.203C1413.61 166.352 1420.11 162.811 1423.43 159.269C1424.04 158.618 1424.02 157.608 1423.41 156.958Z" fill="#1A1A1A"/>
<path d="M1316 258C1319.79 257.778 1323.72 257.707 1327.66 257.79C1492.81 256.005 1389.79 310.746 1316 327.831C1422.27 280.289 1373.26 258.75 1327.66 257.79C1323.92 257.83 1320.03 257.9 1316 258Z" fill="#6EC6FF"/>
</svg>
