<svg width="720" height="960" viewBox="0 0 720 960" fill="none" xmlns="http://www.w3.org/2000/svg">
<g clip-path="url(#clip0)">
<rect width="720" height="514.926" fill="#E9E9E8"/>
<path d="M720 426.677V203.953H718.039L714.677 205.914H709.914L703.19 203.953L697.027 202.553L691.424 196.949L690.303 191.066V186.864L692.544 180.42L694.225 175.377L691.424 166.132L687.502 159.689L683.019 152.965L678.257 148.482L669.852 147.082H663.969L659.206 148.482L654.163 147.082L651.362 144L649.961 138.117L648.56 133.354L644.918 128.311L639.035 126.35L632.871 124.949L628.669 122.148L625.867 119.346V114.303V109.541L623.066 104.218L619.704 101.136L615.222 97.7743L607.097 93.2918L595.891 89.9299L584.685 88.8093L577.961 91.3307L574.599 94.4124L568.996 96.6537L562.832 95.2529H552.467L542.661 96.6537L532.295 101.136L523.33 107.58L516.046 115.424L512.404 122.148L511.004 129.992V137.837L512.404 144L511.004 146.802L507.642 151.004L501.198 154.086L494.755 155.767L487.471 157.447L481.587 161.65L477.105 168.093L473.743 172.576L470.661 177.058L468.7 182.661L466.739 189.105L466.179 196.669V426.677H720Z" fill="#8B8C87" fill-opacity="0.7"/>
<path d="M720 429.198V213.479V208.156H716.638L711.876 208.996L709.074 210.397L705.712 212.078L702.911 214.319L699.829 216L696.467 216.56L693.665 215.16L690.864 212.078L688.903 208.996L686.942 201.432L683.3 198.07L677.977 193.588V185.183L683.3 181.261L684.981 175.377V168.934L683.3 163.611L677.977 156.887L673.774 152.124H670.973L669.012 154.926L667.051 159.128L661.448 161.37H655.844L648.56 159.128L641.556 154.926L638.195 149.603V142.039L639.595 137.837L635.113 132.794H629.51L622.786 128.591L617.463 124.389L611.86 119.066L609.058 112.623L607.377 105.619L603.175 101.416L595.331 97.214H587.486L581.043 99.7354L576.28 105.619L570.397 107.86H561.712L552.467 104.218H543.782L533.697 107.86L526.132 114.303L518.568 121.868L516.607 132.794L518.568 142.039L516.607 148.202L510.444 154.926L504 156.887L497.837 159.128L486.911 163.611L481.307 172.016L474.584 178.179L471.502 192.747L470.101 203.393L461.136 429.198H720Z" fill="#5C5B56" fill-opacity="0.7"/>
<path d="M714.677 237.292L720 240.934V434.521H514.085V205.354V200.311L509.043 193.588L502.599 185.463L500.358 174.817L496.716 170.335L500.358 163.331H512.405H521.93L526.973 161.089L530.895 158.008L534.537 148.482L542.941 144.56L550.506 140.358L560.591 136.436L573.759 130.833L584.124 128.031H591.969H602.334L610.179 130.833L614.661 134.475L619.424 140.358L626.708 144.56L636.794 148.482H640.996L644.638 151.284L649.401 158.008L654.443 161.089H660.607L665.089 163.331L667.891 165.012L671.253 170.335L676.576 173.696L680.498 174.817L682.179 177.619L681.619 179.3L680.498 181.261L675.455 181.821L673.774 185.183V190.226L675.455 193.307L678.817 197.23L677.977 201.712L675.455 205.354L669.292 210.957L665.089 212.638L662.288 216.28V220.482L665.089 223.284H667.891L670.132 221.883L672.934 220.482L675.455 221.883L678.817 223.284H684.42L687.502 227.486H692.545L695.346 223.284L698.428 220.482H702.35L706.833 223.284L709.074 227.486L711.035 232.809L714.677 237.292Z" fill="#25414C" fill-opacity="0.6"/>
<path d="M642.117 294.769L639.908 286.656L637.699 282.912L634.753 278.543L632.544 271.99V267.621L635.858 262.941L639.908 257.012L647.64 252.019L656.477 250.459L651.69 257.948L656.477 265.437V271.99L663.841 276.359L665.682 282.288L667.891 288.216L665.682 292.585L662 294.769L654.636 305.067L649.849 313.492L645.063 320.357L639.908 325.662L629.23 327.222L630.335 319.733L635.858 309.747L638.435 303.194L642.117 294.769Z" fill="#B3B8BE" fill-opacity="0.3"/>
<path d="M644.732 294.719L643.995 288.975L643.259 286.324L642.277 283.231L641.541 278.591V275.498L642.645 272.184L643.995 267.986L646.573 264.451L649.518 263.346L647.923 268.649L649.518 273.951V278.591L651.973 281.684L652.587 285.882L653.323 290.08L652.587 293.173L651.359 294.719L648.905 302.01L647.309 307.975L645.714 312.836L643.995 316.592L640.436 317.697L640.804 312.394L642.645 305.324L643.504 300.684L644.732 294.719Z" fill="#B3B8BE" fill-opacity="0.2"/>
<path d="M683.882 294.444L677.04 287.44L673.846 283.798L672.934 278.194V273.152L677.04 270.07H679.777L683.882 271.191L688.216 274.272L695.059 280.436L698.708 287.44L696.884 290.521L693.918 294.444L689.129 297.525L683.882 294.444Z" fill="#B3B8BE" fill-opacity="0.3"/>
<path d="M684.641 289.355L680.476 286.068L678.532 284.358L677.977 281.728V279.361L680.476 277.914H682.142L684.641 278.44L687.279 279.887L691.444 282.78L693.665 286.068L692.555 287.514L690.75 289.355L687.834 290.802L684.641 289.355Z" fill="#B3B8BE" fill-opacity="0.2"/>
<path d="M654.413 341.91L659.101 340.109L662.422 341.91L665.547 346.798L667.891 351.172V356.833L667.305 359.92L665.547 361.721L664.18 364.808V368.41L665.547 371.241L667.305 375.1L667.891 379.731V385.906L665.547 390.537H662.422L655.976 387.192L654.413 390.537L651.288 385.906L649.725 382.304L647.967 378.702L648.553 376.129V368.41L646.6 364.808V358.119L648.553 352.716L651.288 346.798L654.413 341.91Z" fill="#B3B8BE" fill-opacity="0.3"/>
<path d="M654.97 351.81L660.34 349.634L661.363 350.843L663.408 352.777L662.641 356.404L661.363 359.305L660.34 361.24L658.806 364.625L657.783 367.768V371.394L658.806 377.439L660.34 380.34L662.641 384.934L660.34 383.483L656.76 381.065L653.692 377.439V374.537L654.97 369.218L653.692 365.35C653.436 364.544 652.669 362.835 651.646 362.449C650.623 362.062 651.22 359.386 651.646 358.097L652.925 354.712L654.97 351.81Z" fill="#B3B8BE" fill-opacity="0.2"/>
<path d="M611.299 285.759L617.463 288.841L621.105 296.405L623.626 312.093L616.062 319.097L602.895 314.615L600.093 310.693V303.409L602.895 297.525L606.817 291.082L611.299 285.759Z" fill="#B3B8BE" fill-opacity="0.3"/>
<path d="M612.047 291.922L616.156 294.097L618.584 299.437L620.265 310.511L615.222 315.455L606.444 312.291L604.576 309.522V304.381L606.444 300.228L609.059 295.68L612.047 291.922Z" fill="#B3B8BE" fill-opacity="0.2"/>
<path d="M677.136 233.93L672.653 237.292L669.852 240.093L664.809 233.93L660.887 231.128H655.564L659.766 235.611L662.568 238.693L655.564 240.093L662.568 243.735L667.891 246.257L672.653 252.42L673.774 258.023L669.011 262.506L664.809 268.949L669.852 266.148H672.653L677.136 264.747H686.381L691.144 266.148L698.708 268.949L703.751 271.471V268.949L702.07 264.747L698.708 261.665L695.906 256.623L693.105 250.739L697.027 246.257L702.07 242.615L707.393 240.093L703.751 235.611L698.708 232.529L694.225 233.93H686.381L683.86 231.128H679.938L677.136 233.93Z" fill="#3D4F56" fill-opacity="0.7"/>
<path d="M514.366 196.389L522.49 205.914L528.653 210.397L537.058 216.56L547.424 220.202L551.346 226.086L563.113 229.447H569.836L572.638 226.086L563.113 222.163L553.307 216.56L547.424 214.599L540.98 210.397V199.191V194.428L547.424 192.467L553.307 194.428L560.591 199.191H567.035L575.72 203.953H582.163L578.801 201.152L575.72 196.389L567.035 189.385L555.268 183.502L543.222 179.019L537.058 181.541H528.653L522.49 179.019L516.607 173.696L504.56 168.093V173.696L507.642 181.541L510.723 189.385L514.366 196.389Z" fill="#3C4E5A"/>
<path d="M695.346 398.101L698.148 429.759L678.817 427.517V413.51L681.619 405.105L684.14 392.218L681.619 385.214L676.296 379.34L674.334 372.607L678.817 375.689L680.498 380.171H684.14L685.541 374.288V367.284L683.019 363.642L680.498 358.599L681.619 355.517L686.941 353.556H692.264L695.346 349.634L699.268 344.311L702.63 337.588L700.669 321.338L699.268 317.696L696.187 317.136L693.105 314.054L689.743 312.654L686.381 313.214L685.541 317.136V321.899H683.019L680.498 319.377L677.136 316.016L676.296 312.654L677.136 310.132L680.498 307.051V303.128L678.817 296.965H681.619L686.941 300.887L692.264 301.728H698.988L704.031 296.965L709.074 294.444L710.755 298.086L714.677 298.926L716.078 294.444L720 290.521V381.012L717.478 380.171H710.475L705.432 381.012L698.148 385.214L695.346 390.817V398.101Z" fill="#324452" fill-opacity="0.7"/>
<path d="M622.226 244.296L616.623 233.65L608.498 228.607L598.693 224.685H590.849H581.323L577.681 223.004L570.677 219.922L565.074 215.44H557.51L549.946 207.035V197.79L557.51 204.514L567.876 207.035L577.681 213.198H584.965L593.09 217.681L604.016 219.362L608.498 217.681L616.623 219.922V211.237V202.833L610.179 197.79L602.335 186.584L600.374 180.42L605.417 177.899L613.261 171.735L618.304 166.973L619.705 156.607L622.226 150.443H629.79L638.195 154.366L644.638 161.37L653.323 165.572H659.206L661.728 170.054L663.689 175.097H670.413L676.296 177.899L672.654 184.622L666.21 190.786L670.413 197.79L674.335 204.514L670.413 208.996L663.689 211.237L659.206 215.44L653.323 223.004H644.638L638.195 217.681H629.79L625.868 223.004V231.408V238.412L622.226 244.296Z" fill="#3C4E5A" fill-opacity="0.7"/>
<path d="M632.592 399.502L639.316 417.712H566.475L575.44 372.887L587.207 369.525L595.051 363.922L600.934 359.159L607.378 351.875V342.91V337.588V331.424L606.257 327.502L609.339 325.541H614.102L621.946 322.739L618.864 328.903L624.187 333.385L626.428 340.109V348.514L624.187 356.918L628.67 350.195L632.592 345.992L636.514 340.109L641.837 337.588L648 335.346H655.565L651.082 340.109L645.759 342.91L641.837 350.195L636.514 359.159L632.592 365.883L636.514 369.525L639.316 376.249V383.813L634.273 386.335L630.631 390.817L632.592 399.502Z" fill="#2B3C4C" fill-opacity="0.7"/>
<path d="M608.778 149.043L611.579 155.206V158.848L609.899 162.49L608.778 165.852L605.696 168.654L599.533 171.175H595.33L592.249 175.658L589.447 178.459C587.953 179.02 584.965 180.42 584.965 181.541C584.965 182.662 579.362 182.008 576.56 181.541H569.276L565.074 180.14L559.751 177.058L556.109 175.658H549.945L541.821 171.175L539.299 165.852V158.848L540.42 153.805L543.782 147.362H552.747H559.751L563.673 151.844L568.155 157.167H572.638L576.56 151.844V149.043C574.412 147.735 569.948 145.121 569.276 145.121C568.604 145.121 568.249 142.319 568.155 140.918L571.517 136.996H578.241L584.965 133.634H593.369H599.533L603.735 136.996L605.696 145.121L608.778 149.043Z" fill="#B3B8BE" fill-opacity="0.3"/>
<path d="M560.311 156.047L561.992 162.21L558.91 167.533L553.868 171.175L551.066 169.214L547.424 165.292L545.743 159.689L547.424 156.047L552.187 152.125H557.23L560.311 156.047Z" fill="#B3B8BE" fill-opacity="0.2"/>
<path d="M571.237 163.891H578.241L582.724 163.051L584.965 160.249L585.805 158.008L584.405 153.245V149.883V146.241L587.206 143.16H592.529H596.171L601.214 146.241L602.615 149.883L603.735 156.047L602.615 159.689L598.693 162.21L596.171 165.292H591.128C590.232 165.292 588.14 166.039 587.206 166.412L585.805 167.533L584.405 172.016C583.191 172.576 580.539 173.697 579.642 173.697H574.039L568.996 172.016L568.156 165.292L571.237 163.891Z" fill="#B3B8BE" fill-opacity="0.2"/>
<path d="M604.576 235.611L609.619 237.572L612.42 240.093L615.502 243.455L616.623 248.218V253.541L612.42 258.864L607.377 261.945L598.413 263.066L593.09 259.984L589.448 256.903L587.767 251.86L588.607 245.416L591.409 241.214L594.49 237.572L599.253 235.611H604.576Z" fill="#B3B8BE" fill-opacity="0.3"/>
<path d="M606.817 254.942L602.895 258.303H599.253L594.491 254.942L591.689 251.3L593.65 246.537L599.253 242.335L604.576 240.934L608.778 243.735L611.3 250.179L606.817 254.942Z" fill="#B3B8BE" fill-opacity="0.2"/>
<path d="M720 429.479V400.062V389.416L715.237 391.097L709.074 393.899L707.393 397.541H700.949L697.307 395.3L691.984 397.541H686.101H680.778C679.882 397.541 676.482 396.047 674.895 395.3L668.451 397.541L662.568 400.062L658.646 402.303H649.401L644.918 400.062H639.875L637.074 402.303H630.35L625.027 400.062L621.105 397.541L617.743 395.3L614.661 392.498L609.619 391.097L602.895 392.498L599.253 395.3H593.93L586.366 392.498L579.362 391.097H551.346V429.479H720Z" fill="#4E504D" fill-opacity="0.7"/>
<path d="M229.167 227.486L223.004 235.891L360.84 315.175L377.09 303.969L381.572 289.401V273.152L377.09 254.381L371.486 239.253L363.922 229.447L367.004 222.724V212.638L366.163 205.914L361.681 200.591H354.117L348.514 202.833L338.428 207.315H324.981L308.451 210.677L299.767 207.315H286.599L280.996 212.638L278.195 217.401L274.833 224.965L266.988 229.447H254.661L249.339 224.965L244.016 217.401L236.171 221.043L229.167 227.486Z" fill="#8B8C87" fill-opacity="0.7"/>
<path d="M391.657 261.105L389.416 275.393L391.657 315.455L370.646 312.934L360 302.848L350.194 299.767L340.949 278.755L344.031 267.549C342.443 265.401 339.1 261.105 338.428 261.105C337.755 261.105 334.599 257.556 333.105 255.782L331.144 249.058L327.782 243.735L324.7 238.412L326.101 233.65L331.144 229.728L335.346 224.965V219.362L333.105 214.879L329.463 211.518H322.459L315.455 214.879L311.813 216.28L305.65 219.362L301.447 216.28L298.926 214.879L296.685 210.117L290.801 208.156L284.078 211.518L281.836 216.28V222.444L284.078 226.646L281.836 235.051L275.113 236.451L268.669 235.051L259.984 233.65L244.296 238.412L229.447 249.058V257.743L370.646 384.654H456.373L483.268 380.732L475.984 365.043L533.136 323.58L539.86 312.934L545.743 309.292H554.148H564.794L579.082 312.934H585.245L591.969 309.292L595.05 300.047L591.969 291.922L597.852 282.397L604.296 275.393V265.027L600.654 257.743L591.969 249.058L579.082 244.856L568.716 238.412L558.35 233.65L550.225 226.646L539.86 222.724L525.852 214.879L513.805 206.755L505.961 198.911L498.677 192.467L493.914 184.623L487.471 174.817L480.467 168.654L473.183 165.292H466.459L460.856 168.654L456.934 174.817L453.852 179.58L448.529 186.864L444.327 190.226H437.883L432.56 186.864L419.673 184.623L410.148 190.226L405.105 198.911V206.755L410.148 214.879L405.105 219.362L398.101 226.646V238.412L395.58 249.058L391.657 261.105Z" fill="#525D55" fill-opacity="0.8"/>
<path d="M382.132 235.891L383.813 229.167L382.132 226.086L380.171 223.564L382.132 217.961L386.055 212.638L392.218 209.556L400.903 207.876H415.751L424.156 201.712L432.841 194.988L453.012 189.385L460.856 194.988H472.062L481.588 201.712L490.273 212.638L497.557 223.564L503.16 235.891L517.168 242.615L527.533 248.218H537.899L543.502 255.502L549.105 268.389H556.95L572.918 277.354L585.525 288L591.689 294.724V308.171L585.525 321.619L577.121 328.342L570.397 334.226L572.918 342.35L580.763 354.677V374.008L572.918 387.455L566.755 394.179L556.95 396.7H534.257L517.168 389.977L497.557 377.09L484.109 366.724H465.059L453.012 354.677L438.444 335.626L442.646 321.619L438.444 314.895L432.841 303.128L418.833 294.724H403.424L377.65 283.518L373.728 273.712L372.047 262.506L373.728 251.58L377.65 242.615L382.132 235.891Z" fill="#404F50"/>
<path d="M452.171 246.537L449.65 261.105V268.389H457.774L466.179 261.105L470.942 250.739L474.584 241.774L478.506 233.93L480.747 223.004H486.07L496.436 228.887L502.599 235.611L508.763 242.895L511.284 254.381L508.763 273.152L511.284 279.035L517.167 281.276L525.292 270.911L528.934 264.187L531.736 254.381V242.895L528.934 235.611L525.292 227.206L517.167 217.681L508.763 209.837L502.599 207.595L494.755 201.992L490.553 198.911L486.07 187.984L484.389 180.981L480.747 170.895L470.942 162.49L466.179 158.568H461.136L457.774 162.49L453.572 170.895L444.887 178.179L442.086 184.623L434.802 187.984L428.358 184.623H420.794L411.549 187.984L407.066 191.346L405.666 198.911L403.424 209.837V216L397.541 223.004V233.93V241.774L401.463 246.537H405.666L407.066 241.774L407.907 239.813H411.549L415.471 246.537H422.755L428.358 239.813L425.276 230.848L431.44 223.004L442.086 217.681L447.409 223.004L449.65 230.848L452.171 246.537Z" fill="#31424C" fill-opacity="0.7"/>
<path d="M469.541 293.043L476.825 291.922L480.747 293.043L485.79 296.125L489.432 298.646L493.354 305.65V312.654L491.673 318.537L488.031 320.778H483.829L479.626 318.537L476.825 314.055L474.864 308.732L469.541 305.65L466.459 311.253L463.658 316.016H458.895L457.494 312.654V308.732L458.895 302.008L463.658 296.125L469.541 293.043Z" fill="#3F4A50" fill-opacity="0.7"/>
<path d="M425.276 254.381L419.673 266.708L417.152 260.825L413.51 252.14V263.066V272.031L417.152 280.436L427.798 294.444L435.922 308.451L433.401 334.506L441.245 341.79L459.295 314.895L471.782 287.159L479.907 282.957L485.51 260.825L495.315 272.031L489.992 286.319L498.677 297.245L503.159 308.451L495.315 331.424L483.268 340.669L465.058 347.673L449.93 351.595L421.634 331.424L410.148 313.774L400.903 303.128L391.658 297.245L395.86 276.233V249.619L391.658 254.381L385.494 263.066L381.292 276.233L365.603 310.973L498.677 387.735L492.233 373.728V362.521L498.677 351.595L512.124 334.506L519.689 316.016L521.37 303.128L554.708 297.245L538.179 294.444L533.416 290.521L537.619 287.159L549.105 279.875L535.377 276.233H530.054L533.416 267.829L542.381 258.303L530.054 263.066L519.689 272.031L512.124 273.432L503.159 284.078C502.226 280.996 505.121 271.415 505.121 267.829C505.121 264.243 507.082 263.066 507.082 263.066L505.121 252.14L502.879 243.735L495.315 254.381L492.233 238.412L487.751 247.097L479.907 252.14L471.782 264.747L454.973 276.233L444.887 282.957H435.922L433.401 273.432L435.642 259.424L435.922 249.619L443.486 227.206L437.883 230.288L433.401 236.731L427.798 247.097L425.276 254.381Z" fill="#6A6569" fill-opacity="0.7"/>
<path d="M262.786 235.331L249.899 240.093L240.374 248.498L407.346 326.101L410.428 315.175V303.128V296.124L404.825 286.319L399.222 275.953L391.938 268.949L387.175 272.872L377.37 275.953L366.163 272.872V264.187L368.965 256.342L366.163 242.895L363.922 248.498L358.319 254.101L350.755 259.144L342.07 260.825L329.463 256.342L321.619 246.537L313.774 242.895L299.767 235.331H279.875H262.786Z" fill="#686B64" fill-opacity="0.7"/>
<path d="M576.56 315.455L568.155 313.214L557.229 308.731L554.708 304.249L544.902 308.731L533.976 304.249L525.292 292.482V279.035V264.747L533.976 243.735L551.346 235.331H571.237L578.521 237.572L588.887 243.735L602.614 254.101L610.179 264.747L612.7 269.79L611.299 276.794L609.338 282.677C607.564 284.451 603.735 288 602.614 288H595.33L592.249 292.482V296.685L594.49 304.249L592.249 312.093C590.755 313.214 587.542 315.455 586.646 315.455H576.56Z" fill="#5A5B56" fill-opacity="0.8"/>
<path d="M545.463 346.833L536.218 348.514L533.136 351.595L527.253 348.514L521.089 340.669V330.023L525.012 319.938L530.615 312.654L540.7 311.253L549.105 312.654L562.272 317.416H573.198L579.082 314.335L590.848 312.654L593.93 314.335L598.692 319.938L602.335 327.502L603.735 337.588L602.335 348.514L598.692 356.638L593.93 361.961H586.646H579.082C577.064 361.961 572.264 359.346 570.117 358.039L562.272 354.397L554.708 346.833H545.463Z" fill="#314047" fill-opacity="0.75"/>
<path d="M513.806 366.724L506.522 370.926L487.191 383.813L513.806 407.346L535.658 427.518L541.821 462.537H563.673L564.794 428.638L575.44 422.755L580.203 417.712L581.884 408.467L583.284 402.023L581.884 395.3L579.362 386.054L576.561 380.451L570.677 375.128L563.673 370.926L556.67 368.685H548.825L539.58 370.926L535.658 373.447L531.175 375.128L525.852 373.447L522.21 370.926L517.728 366.724H513.806Z" fill="#374047"/>
<path d="M5.60311 110.381L0 112.062V219.082L208.436 223.564L212.358 219.082L214.599 216.28L217.401 214.599L218.521 212.078L216.56 208.436L214.599 205.634L209.276 201.992L200.591 198.911L187.704 196.669H177.619L165.572 193.307L162.21 186.864L159.409 170.335L156.047 158.848L151.844 157.167L143.44 158.848L136.716 166.412L127.191 170.335L127.471 166.412L130.272 162.49V158.848L128.591 157.167H124.669L120.187 158.848L115.424 162.49L108.981 166.412L104.778 171.175L99.7354 172.856L92.7315 171.175L90.4903 162.49V152.405V146.241L87.9689 140.358L82.9261 136.436L79.5642 129.992L71.7198 122.428L66.677 119.907L62.4747 118.226L57.9922 115.984L54.6303 113.463H50.9883L48.7471 115.984V122.428L51.5486 128.591L48.7471 129.992H43.4241L37.5409 131.673L33.0584 136.436L29.4163 138.117L25.4942 140.358H20.1712L18.4903 138.117V134.475L20.1712 128.591V122.428L16.249 115.984L12.8872 112.062L5.60311 110.381Z" fill="#8B8C87" fill-opacity="0.7"/>
<path d="M5.88327 149.323L0 141.198V216.28H112.062V204.233L103.938 196.949L101.136 192.747L98.0545 189.945L88.8093 186.864L84.607 181.541V176.498L88.8093 171.175V161.65L86.5681 158.568L82.0856 155.486L77.323 158.568L73.6809 161.65L70.3191 168.934L64.716 174.257L58.5525 171.175L60.2335 165.852V161.65L58.5525 155.486L55.1907 151.284L49.5875 149.323H46.786L43.9844 144.84L39.7821 139.798L35.5798 142.599L33.8988 149.323L37.2607 158.568L39.7821 165.852L37.2607 174.257L31.3774 177.899H24.6537L14.2879 174.257L11.2062 168.934L8.96498 161.65V153.805L5.88327 149.323Z" fill="#404F50" fill-opacity="0.7"/>
<path d="M110.101 200.591L106.739 209.556L217.121 221.883L218.801 214.599L217.121 209.556L215.44 206.475L210.957 205.074H205.634L201.712 206.475L196.389 205.074L193.307 201.712L191.907 198.35L189.385 196.949L184.903 194.708H182.101L175.658 196.949L172.576 198.35L167.253 200.591L163.891 201.712L158.288 203.673H149.883L144 201.712L140.638 198.35L137.556 194.708L135.595 192.467L132.794 186.864L129.992 184.903H125.51L122.988 187.984L117.385 192.467L113.463 196.949L110.101 200.591Z" fill="#686B64" fill-opacity="0.7"/>
<rect x="541.262" y="411.829" width="178.739" height="14.0078" fill="#3A4E61"/>
<rect x="541.261" y="412.39" width="178.739" height="9.5253" fill="#445B71"/>
<rect x="541.261" y="412.949" width="178.739" height="6.72375" fill="#577591"/>
<rect x="541.261" y="424.716" width="178.739" height="40.3424" fill="#31333F"/>
<rect x="541.261" y="424.716" width="178.739" height="19.0506" fill="#3C3E4E"/>
<rect x="541.261" y="424.716" width="178.739" height="12.3269" fill="#474A5C"/>
<rect x="635.953" y="411.268" width="25.214" height="33.6187" rx="10" fill="#9EA1A6"/>
<rect x="630.911" y="411.268" width="25.214" height="33.6187" rx="10" fill="#BBBDC1"/>
<rect x="635.953" y="432.56" width="25.214" height="28.0156" fill="#3E0400"/>
<rect x="630.911" y="432.56" width="25.214" height="28.0156" fill="#570500"/>
<rect x="561.433" y="223.564" width="3.92212" height="200.031" rx="1.96106" fill="#9EA1A6"/>
<path d="M573.199 434.059V439.698V462.817H554.148V439.698V424.191L556.11 420.244L560.592 418.553H566.195L570.678 420.244L573.199 424.191V434.059Z" fill="#9EA1A6"/>
<path opacity="0.3" d="M570.398 434.059V439.698V462.817H553.588V439.698V424.191L555.319 420.244L559.274 418.553H564.218L568.173 420.244L570.398 424.191V434.059Z" fill="white"/>
<rect x="560.312" y="223.564" width="3.92218" height="200.031" rx="1.96109" fill="#BBBDC1"/>
<rect x="559.191" y="221.883" width="8.96497" height="3.36186" fill="#A8A8A8"/>
<rect x="557.51" y="221.883" width="8.96503" height="3.36186" fill="#8B8B8B"/>
<path d="M207.315 216.28L0 195.829V181.261L197.51 205.074L202.553 205.914L205.074 207.315L206.475 208.996L207.315 210.957V216.28Z" fill="#90939A" fill-opacity="0.7"/>
<path d="M371.486 328.903L356.358 296.404L207.315 215.44L0 194.988V328.903H371.486Z" fill="#676E85"/>
<path d="M0 244.296L87.1284 302.008L0 306.49V244.296Z" fill="#BB757D"/>
<path d="M88.5292 203.673L96.3736 204.513H107.019L118.506 206.755L129.152 211.797L139.798 217.401H156.327L154.086 214.319L154.646 211.797L156.327 210.397L161.93 210.957L179.019 212.638L190.506 213.759L198.911 214.599L207.876 219.082L371.767 309.292H148.202L0 219.082V200.871L7.28405 196.669L17.0895 196.109L31.6576 198.91L38.3813 200.311L46.2257 203.393L52.109 206.755L61.6342 211.797H66.677H77.323L76.7626 209.836L78.1634 206.755L79.5642 202.832L82.3658 203.113L85.1673 203.393L88.5292 203.673Z" fill="#BB757D"/>
<path d="M4.76313 285.198L0.000488281 282.116V256.902L33.339 277.354L36.981 279.875L38.9421 283.797V287.72L36.981 289.401L33.339 291.922H28.8565H24.374L18.7709 290.801L13.448 289.401L8.96547 287.72L4.76313 285.198Z" fill="#CFA191"/>
<path d="M125.938 281.556L0.000488281 208.996V190.506H4.64334L9.86655 191.346L12.188 191.906L15.6701 192.747L21.1835 194.988L153.826 270.264L165.692 277.074L169.468 280.716L170.335 284.078L168.594 287.72L161.936 288.56H153.826L142.188 287.159L132.612 284.638L125.938 281.556Z" fill="#CFA191"/>
<path d="M95.2222 201.152L102.42 201.734L110.217 203.483L116.215 206.396L233.476 273.992L239.474 278.654L240.374 284.481L239.174 287.103L233.476 288.56H226.578H220.88L212.183 286.229L202.886 282.442L195.389 277.488L88.9243 215.137L82.9263 209.892V205.074L84.0469 202.833L86.825 201.734L95.2222 201.152Z" fill="#CFA191"/>
<path d="M268.309 281.03L257.743 274.704L160.089 215.966L159.128 212.351L160.089 209.64L164.251 208.436H170.975H176.738L183.782 209.64L190.506 212.351L198.19 215.966L300.967 273.499L304.809 281.03V286.452L299.046 288.56H290.722L281.116 286.452L268.309 281.03Z" fill="#CFA191"/>
<path d="M0.000488281 240.653V226.366V223.564L3.92267 226.366L123.829 301.727H96.9343L0.000488281 240.653Z" fill="#82706E"/>
<path d="M76.483 286.599L0.000488281 238.132V224.965L92.4519 284.078V286.879L90.7709 288.56L86.2884 289.401L80.9655 288.56L76.483 286.599Z" fill="#897979"/>
<path d="M-4.19975 280.313H-4.43354L-5.60254 279.144L-5.36874 276.572L-4.66734 274.701L-3.49835 272.597L-1.16036 270.493L0.943831 269.558H3.51562L6.55501 270.493L8.1916 272.13L8.893 274.234L10.2958 277.273H14.0366L14.738 274.234L15.6732 271.662L18.0112 269.09L20.1153 268.389L23.1547 268.857L24.7913 270.493L25.7265 272.13L26.8955 275.637V277.507L26.1941 278.676L25.7265 275.87L24.5575 273.532L23.1547 271.896L21.5181 271.195L19.6477 271.896L18.245 273.065L16.6084 275.403L15.907 277.741L15.4394 279.377H8.893L8.4254 277.741L6.55501 274L4.21702 272.363H1.87903L-0.692761 274L-3.26455 276.806L-4.19975 280.313Z" fill="#BC7968"/>
<path d="M-26.0523 266.305H-26.2861L-27.4551 265.136L-27.2213 262.564L-26.5199 260.694L-25.3509 258.589L-23.0129 256.485L-20.9087 255.55H-18.3369L-15.2975 256.485L-13.6609 258.122L-12.9595 260.226L-11.5567 263.265H-7.81597L-7.11457 260.226L-6.17937 257.654L-3.84138 255.082L-1.73719 254.381L1.30219 254.849L2.93879 256.485L3.87398 258.122L5.04298 261.629V263.499L4.34158 264.668L3.87398 261.863L2.70499 259.525L1.30219 257.888L-0.3344 257.187L-2.20479 257.888L-3.60759 259.057L-5.24418 261.395L-5.94557 263.733L-6.41317 265.37H-12.9595L-13.4271 263.733L-15.2975 259.992L-17.6355 258.356H-19.9735L-22.5453 259.992L-25.1171 262.798L-26.0523 266.305Z" fill="#BC7968"/>
<path d="M189.035 272.412H188.813L187.705 271.303L187.926 268.865L188.591 267.091L189.7 265.096L191.917 263.1L193.912 262.213H196.351L199.233 263.1L200.785 264.652L201.45 266.648L202.781 269.53H206.328L206.993 266.648L207.88 264.209L210.097 261.77L212.092 261.105L214.974 261.548L216.526 263.1L217.413 264.652L218.522 267.978V269.751L217.857 270.86L217.413 268.199L216.305 265.982L214.974 264.43L213.422 263.765L211.649 264.43L210.319 265.539L208.767 267.756L208.102 269.973L207.658 271.525H201.45L201.007 269.973L199.233 266.426L197.016 264.874H194.799L192.36 266.426L189.922 269.086L189.035 272.412Z" fill="#BC7968"/>
<path d="M167.159 259.879H166.941L165.853 258.791L166.07 256.397L166.723 254.655L167.812 252.696L169.988 250.737L171.947 249.866H174.342L177.172 250.737L178.695 252.261L179.348 254.22L180.654 257.05H184.137L184.79 254.22L185.661 251.825L187.838 249.431L189.797 248.778L192.627 249.213L194.15 250.737L195.021 252.261L196.109 255.526V257.267L195.456 258.356L195.021 255.744L193.933 253.567L192.627 252.043L191.103 251.39L189.361 252.043L188.055 253.131L186.532 255.308L185.879 257.485L185.443 259.009H179.348L178.913 257.485L177.172 254.002L174.995 252.478H172.818L170.424 254.002L168.029 256.614L167.159 259.879Z" fill="#BC7968"/>
<path d="M146.403 246.787H146.189L145.121 245.718L145.335 243.368L145.976 241.659L147.044 239.736L149.18 237.814L151.103 236.959H153.453L156.231 237.814L157.726 239.309L158.367 241.232L159.649 244.009H163.067L163.708 241.232L164.563 238.882L166.699 236.532L168.622 235.891L171.399 236.318L172.895 237.814L173.749 239.309L174.818 242.514V244.223L174.177 245.291L173.749 242.727L172.681 240.591L171.399 239.096L169.904 238.455L168.195 239.096L166.913 240.164L165.417 242.3L164.776 244.437L164.349 245.932H158.367L157.94 244.437L156.231 241.018L154.094 239.523H151.958L149.608 241.018L147.258 243.582L146.403 246.787Z" fill="#BC7968"/>
<path d="M123.43 234.46H123.216L122.148 233.392L122.362 231.041L123.003 229.332L124.071 227.41L126.207 225.487L128.13 224.632H130.48L133.257 225.487L134.753 226.982L135.394 228.905L136.676 231.682H140.094L140.735 228.905L141.59 226.555L143.726 224.205L145.649 223.564L148.426 223.991L149.922 225.487L150.776 226.982L151.844 230.187V231.896L151.204 232.964L150.776 230.401L149.708 228.264L148.426 226.769L146.931 226.128L145.221 226.769L143.94 227.837L142.444 229.973L141.803 232.11L141.376 233.605H135.394L134.967 232.11L133.257 228.691L131.121 227.196H128.985L126.634 228.691L124.284 231.255L123.43 234.46Z" fill="#BC7968"/>
<path d="M255.103 270.88H254.89L253.821 269.812L254.035 267.462L254.676 265.753L255.744 263.83L257.881 261.907L259.803 261.053H262.153L264.931 261.907L266.426 263.403L267.067 265.325L268.349 268.103H271.767L272.408 265.325L273.263 262.975L275.399 260.625L277.322 259.984L280.099 260.412L281.595 261.907L282.45 263.403L283.518 266.607V268.316L282.877 269.385L282.45 266.821L281.381 264.685L280.099 263.189L278.604 262.548L276.895 263.189L275.613 264.257L274.117 266.394L273.477 268.53L273.049 270.026H267.067L266.64 268.53L264.931 265.112L262.794 263.616H260.658L258.308 265.112L255.958 267.676L255.103 270.88Z" fill="#BC7968"/>
<path d="M234.932 259.674H234.718L233.65 258.606L233.864 256.255L234.504 254.546L235.573 252.624L237.709 250.701L239.632 249.846H241.982L244.759 250.701L246.255 252.196L246.896 254.119L248.178 256.896H251.596L252.237 254.119L253.091 251.769L255.228 249.419L257.151 248.778L259.928 249.205L261.424 250.701L262.278 252.196L263.346 255.401V257.11L262.705 258.178L262.278 255.615L261.21 253.478L259.928 251.983L258.433 251.342L256.723 251.983L255.442 253.051L253.946 255.187L253.305 257.324L252.878 258.819H246.896L246.469 257.324L244.759 253.905L242.623 252.41H240.487L238.136 253.905L235.786 256.469L234.932 259.674Z" fill="#BC7968"/>
<path d="M216.442 249.028H216.228L215.16 247.96L215.373 245.61L216.014 243.9L217.082 241.978L219.219 240.055L221.142 239.2H223.492L226.269 240.055L227.765 241.55L228.406 243.473L229.687 246.251H233.106L233.747 243.473L234.601 241.123L236.738 238.773L238.66 238.132L241.438 238.559L242.933 240.055L243.788 241.55L244.856 244.755V246.464L244.215 247.532L243.788 244.969L242.72 242.832L241.438 241.337L239.942 240.696L238.233 241.337L236.951 242.405L235.456 244.541L234.815 246.678L234.388 248.173H228.406L227.978 246.678L226.269 243.26L224.133 241.764H221.996L219.646 243.26L217.296 245.823L216.442 249.028Z" fill="#BC7968"/>
<path d="M197.319 237.205H197.117L196.109 236.197L196.311 233.98L196.916 232.368L197.923 230.554L199.939 228.74L201.753 227.934H203.97L206.59 228.74L208.001 230.151L208.606 231.965L209.815 234.585H213.04L213.644 231.965L214.451 229.748L216.466 227.531L218.28 226.926L220.9 227.329L222.311 228.74L223.117 230.151L224.125 233.174V234.786L223.52 235.794L223.117 233.376L222.109 231.36L220.9 229.949L219.489 229.345L217.877 229.949L216.668 230.957L215.257 232.972L214.652 234.988L214.249 236.399H208.606L208.202 234.988L206.59 231.763L204.575 230.352H202.559L200.342 231.763L198.125 234.182L197.319 237.205Z" fill="#BC7968"/>
<path d="M179.389 227.119H179.187L178.179 226.112L178.381 223.894L178.985 222.282L179.993 220.468L182.009 218.654L183.823 217.848H186.04L188.66 218.654L190.071 220.065L190.675 221.879L191.885 224.499H195.109L195.714 221.879L196.52 219.662L198.536 217.445L200.35 216.84L202.97 217.243L204.381 218.654L205.187 220.065L206.195 223.088V224.701L205.59 225.708L205.187 223.29L204.179 221.274L202.97 219.863L201.559 219.259L199.947 219.863L198.737 220.871L197.327 222.887L196.722 224.902L196.319 226.313H190.675L190.272 224.902L188.66 221.677L186.644 220.267H184.629L182.412 221.677L180.195 224.096L179.389 227.119Z" fill="#BC7968"/>
<path d="M165.284 217.892H165.099L164.172 216.965L164.357 214.925L164.914 213.442L165.841 211.773L167.695 210.104L169.364 209.363H171.404L173.814 210.104L175.112 211.402L175.668 213.071L176.781 215.482H179.748L180.304 213.071L181.046 211.032L182.9 208.992L184.569 208.436L186.979 208.806L188.277 210.104L189.019 211.402L189.946 214.184V215.667L189.39 216.594L189.019 214.369L188.092 212.515L186.979 211.217L185.681 210.661L184.198 211.217L183.085 212.144L181.787 213.998L181.231 215.853L180.86 217.151H175.668L175.297 215.853L173.814 212.886L171.96 211.588H170.106L168.066 212.886L166.026 215.111L165.284 217.892Z" fill="#BC7968"/>
<path d="M104.915 223.608H104.706L103.658 222.56L103.867 220.255L104.496 218.578L105.544 216.691L107.64 214.805L109.527 213.966H111.833L114.558 214.805L116.025 216.272L116.654 218.158L117.911 220.883H121.265L121.894 218.158L122.732 215.853L124.829 213.547L126.715 212.918L129.44 213.337L130.907 214.805L131.746 216.272L132.794 219.416V221.093L132.165 222.141L131.746 219.626L130.698 217.53L129.44 216.062L127.973 215.433L126.296 216.062L125.038 217.11L123.571 219.206L122.942 221.303L122.523 222.77H116.654L116.234 221.303L114.558 217.949L112.461 216.482H110.365L108.06 217.949L105.754 220.464L104.915 223.608Z" fill="#BC7968"/>
<path d="M86.401 211.636H86.1954L85.1675 210.608L85.3731 208.347L85.9898 206.702L87.0177 204.852L89.0735 203.002L90.9238 202.18H93.1852L95.8577 203.002L97.2968 204.441L97.9136 206.291L99.147 208.964H102.436L103.053 206.291L103.875 204.03L105.931 201.768L107.781 201.152L110.454 201.563L111.893 203.002L112.715 204.441L113.743 207.525V209.169L113.127 210.197L112.715 207.73L111.688 205.674L110.454 204.235L109.015 203.619L107.37 204.235L106.137 205.263L104.698 207.319L104.081 209.375L103.67 210.814H97.9136L97.5024 209.375L95.8577 206.086L93.8019 204.646H91.7461L89.4847 206.086L87.2233 208.553L86.401 211.636Z" fill="#BC7968"/>
<path d="M117.388 274.71H117.154L115.985 273.541L116.219 270.969L116.92 269.098L118.089 266.994L120.427 264.89L122.531 263.955H125.103L128.142 264.89L129.779 266.527L130.48 268.631L131.883 271.67H135.624L136.325 268.631L137.261 266.059L139.599 263.487L141.703 262.786L144.742 263.253L146.379 264.89L147.314 266.527L148.483 270.034V271.904L147.782 273.073L147.314 270.267L146.145 267.929L144.742 266.293L143.106 265.591L141.235 266.293L139.832 267.462L138.196 269.8L137.494 272.138L137.027 273.774H130.48L130.013 272.138L128.142 268.397L125.804 266.76H123.466L120.895 268.397L118.323 271.203L117.388 274.71Z" fill="#BC7968"/>
<path d="M88.812 258.461H88.5782L87.4092 257.292L87.643 254.72L88.3444 252.849L89.5134 250.745L91.8514 248.641L93.9555 247.706H96.5273L99.5667 248.641L101.203 250.278L101.905 252.382L103.308 255.421H107.048L107.75 252.382L108.685 249.81L111.023 247.238L113.127 246.537L116.166 247.004L117.803 248.641L118.738 250.278L119.907 253.785V255.655L119.206 256.824L118.738 254.018L117.569 251.68L116.166 250.044L114.53 249.342L112.659 250.044L111.257 251.213L109.62 253.551L108.919 255.889L108.451 257.525H101.905L101.437 255.889L99.5667 252.148L97.2287 250.511H94.8907L92.319 252.148L89.7472 254.954L88.812 258.461Z" fill="#BC7968"/>
<path d="M62.477 243.332H62.2432L61.0742 242.163L61.308 239.591L62.0094 237.721L63.1784 235.617L65.5164 233.513L67.6206 232.577H70.1924L73.2318 233.513L74.8684 235.149L75.5698 237.253L76.9725 240.293H80.7133L81.4147 237.253L82.3499 234.682L84.6879 232.11L86.7921 231.408L89.8315 231.876L91.4681 233.513L92.4033 235.149L93.5723 238.656V240.527L92.8709 241.696L92.4033 238.89L91.2343 236.552L89.8315 234.915L88.1949 234.214L86.3245 234.915L84.9217 236.084L83.2851 238.422L82.5837 240.76L82.1161 242.397H75.5698L75.1022 240.76L73.2318 237.02L70.8938 235.383H68.5558L65.984 237.02L63.4122 239.825L62.477 243.332Z" fill="#BC7968"/>
<path d="M38.9438 229.885H38.71L37.541 228.716L37.7748 226.144L38.4762 224.274L39.6452 222.169L41.9832 220.065L44.0874 219.13H46.6592L49.6986 220.065L51.3352 221.702L52.0366 223.806L53.4393 226.845H57.1801L57.8815 223.806L58.8167 221.234L61.1547 218.662L63.2589 217.961L66.2983 218.429L67.9349 220.065L68.8701 221.702L70.0391 225.209V227.079L69.3377 228.248L68.8701 225.443L67.7011 223.105L66.2983 221.468L64.6617 220.767L62.7913 221.468L61.3885 222.637L59.7519 224.975L59.0505 227.313L58.5829 228.949H52.0366L51.569 227.313L49.6986 223.572L47.3606 221.936H45.0226L42.4508 223.572L39.879 226.378L38.9438 229.885Z" fill="#BC7968"/>
<path d="M15.4111 216.437H15.1773L14.0083 215.268L14.2421 212.697L14.9435 210.826L16.1125 208.722L18.4505 206.618L20.5547 205.683H23.1265L26.1658 206.618L27.8024 208.254L28.5038 210.359L29.9066 213.398H33.6474L34.3488 210.359L35.284 207.787L37.622 205.215L39.7262 204.514L42.7656 204.981L44.4022 206.618L45.3374 208.254L46.5064 211.761V213.632L45.805 214.801L45.3374 211.995L44.1684 209.657L42.7656 208.021L41.129 207.319L39.2586 208.021L37.8558 209.19L36.2192 211.528L35.5178 213.866L35.0502 215.502H28.5038L28.0362 213.866L26.1658 210.125L23.8279 208.488H21.4899L18.9181 210.125L16.3463 212.93L15.4111 216.437Z" fill="#BC7968"/>
<path d="M-7.56205 203.55H-7.79585L-8.96484 202.381L-8.73104 199.809L-8.02965 197.939L-6.86065 195.835L-4.52266 193.73L-2.41847 192.795H0.153316L3.1927 193.73L4.82929 195.367L5.53069 197.471L6.93349 200.511H10.6743L11.3757 197.471L12.3109 194.899L14.6488 192.328L16.753 191.626L19.7924 192.094L21.429 193.73L22.3642 195.367L23.5332 198.874V200.744L22.8318 201.913L22.3642 199.108L21.1952 196.77L19.7924 195.133L18.1558 194.432L16.2854 195.133L14.8826 196.302L13.2461 198.64L12.5447 200.978L12.0771 202.615H5.53069L5.06309 200.978L3.1927 197.237L0.854712 195.601H-1.48328L-4.05507 197.237L-6.62685 200.043L-7.56205 203.55Z" fill="#BC7968"/>
<path d="M367.004 307.05H156.047H0V282.957L358.319 286.319L363.082 286.879L367.004 287.72L371.486 289.401L374.848 291.362V296.405V307.05H367.004Z" fill="#90939A" fill-opacity="0.7"/>
<path d="M142.879 296.405H0V402.303H548.545L381.572 296.405H353.276L348.794 306.49L331.424 296.405H163.331L156.047 305.65L142.879 296.405Z" fill="#5C6277"/>
<path d="M0 355.798V313.774V305.089H5.88327L9.80545 305.65L13.1673 306.21L18.2101 308.731L21.572 311.533H34.7393L35.5798 309.292L37.2607 307.611L41.1829 306.21H72L80.4047 309.292L84.607 311.813H87.4086H96.0934L102.537 307.611L108.42 306.21H115.424H122.708L131.953 307.611L140.358 309.292L148.202 313.774L291.362 395.019L316.576 411.268H283.517H239.253H196.109H66.9572H39.2218H0V355.798Z" fill="#BB757D"/>
<path d="M350.755 411.829L203.673 323.019L210.957 314.895L215.439 310.132L224.404 305.93L234.21 304.809H245.136L258.023 305.93L266.988 308.731L272.871 311.253L278.194 313.494L288.28 318.817H298.926L296.965 314.895V311.253L303.969 308.731H310.692H319.097L329.463 310.132L338.988 313.494L346.832 316.576H361.961V313.494L365.043 310.132L370.646 308.731H390.817L396.14 310.132L539.019 402.303L553.027 411.829H350.755Z" fill="#BB757D"/>
<path d="M158.453 388.844L42.951 320.494L38.1006 316.361L41.4353 311.91L45.3763 308.731H53.2583H68.4159L76.6011 311.91L83.5736 316.361L89.3335 320.494L194.225 378.353L200.591 384.393V388.844L196.65 395.838L188.465 398.381H179.37L169.063 395.838L158.453 388.844Z" fill="#CFA191"/>
<path d="M233.93 390.817L105.058 317.696L100.015 313.494L103.097 310.132L110.381 307.891H115.424L124.389 308.451L131.673 310.692L137.276 313.774L144.28 317.696L261.385 380.731L266.428 385.494L268.949 390.817V395.019L261.385 396.7H252.42L242.895 395.019L233.93 390.817Z" fill="#CFA191"/>
<path d="M-0.000488281 338.134V310.12V307.05H1.67381L6.027 307.818L9.37561 308.585L13.7288 310.12L18.4168 312.423L23.1049 315.876L106.15 374.589L111.173 380.345L113.182 387.636L111.173 393.776L106.15 398.381H98.4485L85.7238 395.695L77.0174 391.858L68.9808 387.636L-0.000488281 338.134Z" fill="#CFA191"/>
<path d="M269.789 313.774L281.836 320.778L396.14 384.934L400.902 389.976L399.501 394.459L396.14 399.222H387.455H379.33L368.124 397.261L360.28 394.459L350.474 389.976L240.653 324.14L233.93 320.778L230.007 313.774L232.529 310.412L240.653 308.731H251.019L261.665 310.412L269.789 313.774Z" fill="#CFA191"/>
<path d="M339.548 316.576L351.035 323.019L448.529 373.447L451.891 379.611V386.054L446.848 390.257L438.163 391.657L429.478 390.257L420.513 386.054L308.171 321.058L304.529 318.257V314.615L308.171 312.093H315.735H325.26L331.984 313.494L339.548 316.576Z" fill="#CFA191"/>
<path d="M404.544 315.175L411.548 318.817L509.883 380.731L518.008 386.335L523.33 390.817L524.451 394.179L523.33 397.821L520.249 399.782H513.805H505.4L486.35 389.977L369.525 321.058L365.042 315.175L371.766 311.533H385.494H395.579L404.544 315.175Z" fill="#CFA191"/>
<path d="M183.135 302.609L192.599 308.153L330.312 387.721L358.319 404.264H345.992L341.509 405.105H331.984H326.101L317.416 402.864L160.944 311.74L158.007 304.892L166.818 300.327H177.914L183.135 302.609Z" fill="#82706E"/>
<path d="M198.228 312.386L206.412 317.18L325.503 385.989L330.583 390.783V396.141L325.503 398.115H317.319L307.724 396.141L179.037 320.282L176.498 314.36L184.117 310.412H193.712L198.228 312.386Z" fill="#897979"/>
<path d="M66.0681 382.561H65.796L64.4355 381.201L64.7076 378.208L65.5239 376.031L66.8844 373.582L69.6053 371.134L72.0542 370.045H75.0472L78.5844 371.134L80.4891 373.038L81.3054 375.487L82.9379 379.024H87.2914L88.1077 375.487L89.1961 372.494L91.917 369.501L94.3658 368.685L97.9031 369.229L99.8077 371.134L100.896 373.038L102.257 377.12V379.296L101.44 380.657L100.896 377.392L99.5356 374.671L97.9031 372.766L95.9984 371.95L93.8217 372.766L92.1891 374.127L90.2844 376.847L89.4682 379.568L88.924 381.473H81.3054L80.7612 379.568L78.5844 375.215L75.8635 373.31H73.1425L70.1495 375.215L67.1565 378.48L66.0681 382.561Z" fill="#BC7968"/>
<path d="M43.6555 366.873H43.3834L42.0229 365.512L42.295 362.519L43.1113 360.342L44.4718 357.894L47.1927 355.445L49.6416 354.356H52.6346L56.1718 355.445L58.0765 357.349L58.8928 359.798L60.5253 363.336H64.8788L65.6951 359.798L66.7835 356.805L69.5044 353.812L71.9532 352.996L75.4905 353.54L77.3951 355.445L78.4835 357.349L79.844 361.431V363.608L79.0277 364.968L78.4835 361.703L77.123 358.982L75.4905 357.077L73.5858 356.261L71.4091 357.077L69.7765 358.438L67.8718 361.159L67.0556 363.88L66.5114 365.784H58.8928L58.3486 363.88L56.1718 359.526L53.4509 357.622H50.7299L47.7369 359.526L44.7439 362.791L43.6555 366.873Z" fill="#BC7968"/>
<path d="M23.9842 351.791H23.7222L22.4121 350.481L22.6741 347.598L23.4602 345.502L24.7703 343.144L27.3904 340.786L29.7486 339.738H32.6307L36.0369 340.786L37.8711 342.62L38.6571 344.978L40.2292 348.384H44.4215L45.2075 344.978L46.2556 342.096L48.8757 339.214L51.2339 338.428L54.6401 338.952L56.4742 340.786L57.5223 342.62L58.8323 346.55V348.646L58.0463 349.957L57.5223 346.812L56.2122 344.192L54.6401 342.358L52.806 341.572L50.7098 342.358L49.1378 343.668L47.3036 346.288L46.5176 348.909L45.9936 350.743H38.6571L38.1331 348.909L36.0369 344.716L33.4168 342.882H30.7966L27.9144 344.716L25.0323 347.86L23.9842 351.791Z" fill="#BC7968"/>
<path d="M2.13167 337.223H1.86965L0.55957 335.912L0.821586 333.03L1.60763 330.934L2.91772 328.576L5.53788 326.218L7.89602 325.17H10.7782L14.1844 326.218L16.0185 328.052L16.8046 330.41L18.3767 333.816H22.5689L23.355 330.41L24.403 327.528L27.0232 324.646L29.3813 323.86L32.7875 324.384L34.6217 326.218L35.6697 328.052L36.9798 331.982V334.078L36.1938 335.388L35.6697 332.244L34.3596 329.624L32.7875 327.79L30.9534 327.004L28.8573 327.79L27.2852 329.1L25.4511 331.72L24.6651 334.34L24.141 336.174H16.8046L16.2805 334.34L14.1844 330.148L11.5642 328.314H8.94409L6.06191 330.148L3.17973 333.292L2.13167 337.223Z" fill="#BC7968"/>
<path d="M-18.0876 321.683H-18.3416L-19.6113 320.413L-19.3574 317.62L-18.5955 315.588L-17.3257 313.302L-14.7862 311.017L-12.5006 310.001H-9.70712L-6.40572 311.017L-4.62804 312.795L-3.86618 315.08L-2.34245 318.382H1.72081L2.48267 315.08L3.49849 312.287L6.03803 309.493L8.32361 308.731L11.625 309.239L13.4027 311.017L14.4185 312.795L15.6883 316.604V318.636L14.9264 319.905L14.4185 316.858L13.1487 314.318L11.625 312.541L9.84734 311.779L7.81571 312.541L6.29198 313.81L4.5143 316.35L3.75244 318.889L3.24453 320.667H-3.86618L-4.37409 318.889L-6.40572 314.826L-8.94526 313.049H-11.4848L-14.2783 314.826L-17.0718 317.874L-18.0876 321.683Z" fill="#BC7968"/>
<path d="M146.741 381.338H146.471L145.12 379.988L145.39 377.017L146.2 374.856L147.551 372.426L150.252 369.995L152.682 368.914H155.653L159.164 369.995L161.055 371.885L161.865 374.316L163.485 377.827H167.807L168.617 374.316L169.697 371.345L172.398 368.374L174.829 367.564L178.34 368.104L180.23 369.995L181.311 371.885L182.661 375.937V378.097L181.851 379.448L181.311 376.207L179.96 373.506L178.34 371.615L176.449 370.805L174.289 371.615L172.668 372.966L170.778 375.666L169.967 378.367L169.427 380.258H161.865L161.325 378.367L159.164 374.046L156.463 372.155H153.763L150.792 374.046L147.821 377.287L146.741 381.338Z" fill="#BC7968"/>
<path d="M121.478 365.798H121.216L119.906 364.488L120.168 361.606L120.954 359.51L122.264 357.152L124.885 354.794L127.243 353.746H130.125L133.531 354.794L135.365 356.628L136.151 358.986L137.723 362.392H141.916L142.702 358.986L143.75 356.104L146.37 353.222L148.728 352.436L152.134 352.96L153.968 354.794L155.016 356.628L156.326 360.558V362.654L155.54 363.964L155.016 360.82L153.706 358.2L152.134 356.366L150.3 355.58L148.204 356.366L146.632 357.676L144.798 360.296L144.012 362.916L143.488 364.75H136.151L135.627 362.916L133.531 358.724L130.911 356.89H128.291L125.409 358.724L122.526 361.868L121.478 365.798Z" fill="#BC7968"/>
<path d="M95.6556 350.819H95.4016L94.1318 349.549L94.3858 346.756L95.1477 344.724L96.4174 342.439L98.957 340.153L101.243 339.137H104.036L107.337 340.153L109.115 341.931L109.877 344.216L111.401 347.518H115.464L116.226 344.216L117.242 341.423L119.781 338.629L122.067 337.868L125.368 338.375L127.146 340.153L128.162 341.931L129.431 345.74V347.772L128.67 349.042L128.162 345.994L126.892 343.455L125.368 341.677L123.59 340.915L121.559 341.677L120.035 342.947L118.257 345.486L117.496 348.026L116.988 349.803H109.877L109.369 348.026L107.337 343.962L104.798 342.185H102.258L99.4649 343.962L96.6714 347.01L95.6556 350.819Z" fill="#BC7968"/>
<path d="M69.8328 335.84H69.5869L68.3574 334.61L68.6033 331.906L69.341 329.939L70.5705 327.725L73.0294 325.512L75.2424 324.529H77.9472L81.1438 325.512L82.8651 327.234L83.6027 329.447L85.0781 332.643H89.0124L89.75 329.447L90.7336 326.742L93.1925 324.037L95.4055 323.299L98.6021 323.791L100.323 325.512L101.307 327.234L102.536 330.922V332.889L101.799 334.119L101.307 331.168L100.077 328.709L98.6021 326.988L96.8809 326.25L94.9138 326.988L93.4384 328.217L91.7172 330.676L90.9795 333.135L90.4877 334.856H83.6027L83.1109 333.135L81.1438 329.201L78.6849 327.48H76.226L73.5212 329.201L70.8163 332.152L69.8328 335.84Z" fill="#BC7968"/>
<path d="M47.3718 320.861H47.134L45.9448 319.672L46.1827 317.055L46.8961 315.153L48.0853 313.012L50.4636 310.872L52.6041 309.92H55.2202L58.312 310.872L59.9768 312.537L60.6903 314.677L62.1173 317.769H65.9225L66.636 314.677L67.5874 312.061L69.9657 309.445L72.1061 308.731L75.1979 309.207L76.8627 310.872L77.814 312.537L79.0032 316.104V318.007L78.2897 319.196L77.814 316.342L76.6249 313.964L75.1979 312.299L73.5331 311.585L71.6305 312.299L70.2035 313.488L68.5387 315.866L67.8252 318.245L67.3495 319.909H60.6903L60.2146 318.245L58.312 314.439L55.9337 312.774H53.5554L50.9393 314.439L48.3231 317.293L47.3718 320.861Z" fill="#BC7968"/>
<path d="M216.562 380.048H216.328L215.159 378.879L215.393 376.307L216.094 374.437L217.263 372.333L219.601 370.229L221.706 369.293H224.277L227.317 370.229L228.953 371.865L229.655 373.969L231.058 377.009H234.798L235.5 373.969L236.435 371.398L238.773 368.826L240.877 368.124L243.916 368.592L245.553 370.229L246.488 371.865L247.657 375.372V377.243L246.956 378.412L246.488 375.606L245.319 373.268L243.916 371.631L242.28 370.93L240.409 371.631L239.007 372.8L237.37 375.138L236.669 377.476L236.201 379.113H229.655L229.187 377.476L227.317 373.736L224.979 372.099H222.641L220.069 373.736L217.497 376.541L216.562 380.048Z" fill="#BC7968"/>
<path d="M188.498 364.509H188.272L187.144 363.38L187.369 360.897L188.047 359.091L189.175 357.059L191.433 355.028L193.464 354.125H195.947L198.882 355.028L200.462 356.608L201.139 358.639L202.494 361.574H206.105L206.783 358.639L207.686 356.156L209.943 353.673L211.975 352.996L214.909 353.447L216.489 355.028L217.392 356.608L218.521 359.994V361.8L217.844 362.928L217.392 360.22L216.264 357.962L214.909 356.382L213.329 355.705L211.523 356.382L210.169 357.511L208.589 359.768L207.911 362.025L207.46 363.606H201.139L200.688 362.025L198.882 358.414L196.625 356.833H194.367L191.884 358.414L189.401 361.122L188.498 364.509Z" fill="#BC7968"/>
<path d="M161.555 348.969H161.337L160.249 347.881L160.466 345.486L161.119 343.745L162.208 341.786L164.384 339.827L166.343 338.956H168.738L171.568 339.827L173.091 341.35L173.744 343.309L175.05 346.139H178.533L179.186 343.309L180.057 340.915L182.234 338.521L184.193 337.868L187.023 338.303L188.546 339.827L189.417 341.35L190.505 344.615V346.357L189.852 347.445L189.417 344.833L188.329 342.656L187.023 341.133L185.499 340.48L183.757 341.133L182.451 342.221L180.928 344.398L180.275 346.575L179.839 348.098H173.744L173.309 346.575L171.568 343.092L169.391 341.568H167.214L164.82 343.092L162.425 345.704L161.555 348.969Z" fill="#BC7968"/>
<path d="M135.22 334.401H135.002L133.914 333.312L134.132 330.918L134.785 329.177L135.873 327.218L138.05 325.259L140.009 324.388H142.403L145.233 325.259L146.757 326.782L147.41 328.741L148.716 331.571H152.199L152.852 328.741L153.722 326.347L155.899 323.952L157.858 323.299L160.688 323.735L162.212 325.259L163.082 326.782L164.171 330.047V331.789L163.518 332.877L163.082 330.265L161.994 328.088L160.688 326.565L159.164 325.912L157.423 326.565L156.117 327.653L154.593 329.83L153.94 332.006L153.505 333.53H147.41L146.975 332.006L145.233 328.524L143.056 327H140.88L138.485 328.524L136.091 331.136L135.22 334.401Z" fill="#BC7968"/>
<path d="M111.03 319.571H110.828L109.82 318.563L110.022 316.346L110.627 314.734L111.634 312.92L113.65 311.106L115.464 310.299H117.681L120.301 311.106L121.712 312.516L122.316 314.33L123.526 316.951H126.751L127.355 314.33L128.161 312.113L130.177 309.896L131.991 309.292L134.611 309.695L136.022 311.106L136.828 312.516L137.836 315.54V317.152L137.231 318.16L136.828 315.741L135.82 313.726L134.611 312.315L133.2 311.71L131.588 312.315L130.379 313.323L128.968 315.338L128.363 317.354L127.96 318.765H122.316L121.913 317.354L120.301 314.129L118.285 312.718H116.27L114.053 314.129L111.836 316.547L111.03 319.571Z" fill="#BC7968"/>
<path d="M343.753 382.289H343.519L342.35 381.12L342.584 378.549L343.285 376.678L344.454 374.574L346.792 372.47L348.896 371.535H351.468L354.508 372.47L356.144 374.106L356.846 376.211L358.248 379.25H361.989L362.691 376.211L363.626 373.639L365.964 371.067L368.068 370.366L371.107 370.833L372.744 372.47L373.679 374.106L374.848 377.613V379.484L374.147 380.653L373.679 377.847L372.51 375.509L371.107 373.873L369.471 373.171L367.6 373.873L366.198 375.042L364.561 377.38L363.86 379.718L363.392 381.354H356.846L356.378 379.718L354.508 375.977L352.17 374.34H349.832L347.26 375.977L344.688 378.782L343.753 382.289Z" fill="#BC7968"/>
<path d="M315.737 366.601H315.503L314.334 365.432L314.568 362.86L315.27 360.989L316.439 358.885L318.777 356.781L320.881 355.846H323.453L326.492 356.781L328.129 358.418L328.83 360.522L330.233 363.561H333.974L334.675 360.522L335.61 357.95L337.948 355.378L340.052 354.677L343.092 355.144L344.728 356.781L345.664 358.418L346.833 361.925V363.795L346.131 364.964L345.664 362.158L344.495 359.82L343.092 358.184L341.455 357.482L339.585 358.184L338.182 359.353L336.545 361.691L335.844 364.029L335.376 365.665H328.83L328.362 364.029L326.492 360.288L324.154 358.651H321.816L319.244 360.288L316.672 363.094L315.737 366.601Z" fill="#BC7968"/>
<path d="M287.697 350.146H287.467L286.318 348.997L286.548 346.47L287.237 344.632L288.386 342.564L290.684 340.496L292.752 339.577H295.279L298.266 340.496L299.875 342.104L300.564 344.172L301.943 347.159H305.619L306.308 344.172L307.227 341.645L309.525 339.117L311.593 338.428L314.58 338.887L316.188 340.496L317.107 342.104L318.256 345.551V347.389L317.567 348.538L317.107 345.78L315.958 343.483L314.58 341.874L312.971 341.185L311.133 341.874L309.755 343.023L308.146 345.321L307.457 347.619L306.997 349.227H300.564L300.104 347.619L298.266 343.942L295.969 342.334H293.671L291.143 343.942L288.616 346.7L287.697 350.146Z" fill="#BC7968"/>
<path d="M261.923 335.018H261.693L260.544 333.869L260.774 331.341L261.464 329.503L262.612 327.435L264.91 325.367L266.978 324.448H269.505L272.492 325.367L274.101 326.976L274.79 329.044L276.169 332.031H279.845L280.534 329.044L281.453 326.516L283.751 323.989L285.819 323.299L288.806 323.759L290.414 325.367L291.333 326.976L292.482 330.422V332.26L291.793 333.409L291.333 330.652L290.184 328.354L288.806 326.746L287.198 326.057L285.359 326.746L283.981 327.895L282.372 330.192L281.683 332.49L281.224 334.099H274.79L274.331 332.49L272.492 328.814L270.195 327.206H267.897L265.37 328.814L262.842 331.571L261.923 335.018Z" fill="#BC7968"/>
<path d="M236.149 319.889H235.919L234.77 318.74L235 316.213L235.689 314.375L236.838 312.307L239.136 310.239L241.204 309.32H243.731L246.718 310.239L248.326 311.847L249.016 313.915L250.394 316.902H254.071L254.76 313.915L255.679 311.388L257.977 308.86L260.045 308.171L263.031 308.631L264.64 310.239L265.559 311.847L266.708 315.294V317.132L266.018 318.281L265.559 315.524L264.41 313.226L263.031 311.618L261.423 310.928L259.585 311.618L258.206 312.767L256.598 315.064L255.909 317.362L255.449 318.97H249.016L248.556 317.362L246.718 313.686L244.42 312.077H242.123L239.595 313.686L237.068 316.443L236.149 319.889Z" fill="#BC7968"/>
<path d="M410.381 377.956H410.156L409.027 376.827L409.253 374.344L409.93 372.538L411.058 370.507L413.316 368.475L415.347 367.572H417.831L420.765 368.475L422.345 370.055L423.023 372.087L424.377 375.021H427.989L428.666 372.087L429.569 369.604L431.826 367.121L433.858 366.443L436.792 366.895L438.373 368.475L439.276 370.055L440.404 373.441V375.247L439.727 376.376L439.276 373.667L438.147 371.41L436.792 369.829L435.212 369.152L433.406 369.829L432.052 370.958L430.472 373.215L429.795 375.473L429.343 377.053H423.023L422.571 375.473L420.765 371.861L418.508 370.281H416.25L413.767 371.861L411.284 374.57L410.381 377.956Z" fill="#BC7968"/>
<path d="M385.727 363.948H385.502L384.373 362.82L384.599 360.336L385.276 358.531L386.405 356.499L388.662 354.467L390.694 353.564H393.177L396.111 354.467L397.692 356.047L398.369 358.079L399.723 361.014H403.335L404.012 358.079L404.915 355.596L407.172 353.113L409.204 352.436L412.139 352.887L413.719 354.467L414.622 356.047L415.75 359.434V361.239L415.073 362.368L414.622 359.659L413.493 357.402L412.139 355.822L410.559 355.145L408.753 355.822L407.398 356.95L405.818 359.208L405.141 361.465L404.689 363.045H398.369L397.917 361.465L396.111 357.853L393.854 356.273H391.597L389.114 357.853L386.63 360.562L385.727 363.948Z" fill="#BC7968"/>
<path d="M360.465 350.09H360.248L359.159 349.001L359.377 346.607L360.03 344.865L361.118 342.906L363.295 340.947L365.254 340.077H367.649L370.478 340.947L372.002 342.471L372.655 344.43L373.961 347.26H377.444L378.097 344.43L378.968 342.036L381.144 339.641L383.103 338.988L385.933 339.424L387.457 340.947L388.328 342.471L389.416 345.736V347.477L388.763 348.566L388.328 345.954L387.239 343.777L385.933 342.253L384.409 341.6L382.668 342.253L381.362 343.342L379.838 345.518L379.185 347.695L378.75 349.219H372.655L372.22 347.695L370.478 344.212L368.302 342.689H366.125L363.73 344.212L361.336 346.824L360.465 350.09Z" fill="#BC7968"/>
<path d="M339.173 338.323H338.956L337.867 337.235L338.085 334.84L338.738 333.099L339.826 331.14L342.003 329.181L343.962 328.31H346.357L349.186 329.181L350.71 330.704L351.363 332.664L352.669 335.493H356.152L356.805 332.664L357.676 330.269L359.852 327.875L361.811 327.222L364.641 327.657L366.165 329.181L367.036 330.704L368.124 333.97V335.711L367.471 336.799L367.036 334.187L365.947 332.011L364.641 330.487L363.117 329.834L361.376 330.487L360.07 331.575L358.546 333.752L357.893 335.929L357.458 337.452H351.363L350.928 335.929L349.186 332.446L347.01 330.922H344.833L342.438 332.446L340.044 335.058L339.173 338.323Z" fill="#BC7968"/>
<path d="M316.712 325.025H316.503L315.455 323.977L315.664 321.671L316.293 319.994L317.341 318.108L319.437 316.221L321.324 315.383H323.629L326.354 316.221L327.822 317.688L328.451 319.575L329.708 322.3H333.062L333.691 319.575L334.529 317.269L336.625 314.963L338.512 314.334L341.237 314.754L342.704 316.221L343.543 317.688L344.591 320.832V322.509L343.962 323.557L343.543 321.042L342.495 318.946L341.237 317.479L339.77 316.85L338.093 317.479L336.835 318.527L335.368 320.623L334.739 322.719L334.32 324.186H328.451L328.031 322.719L326.354 319.365L324.258 317.898H322.162L319.856 319.365L317.551 321.881L316.712 325.025Z" fill="#BC7968"/>
<path d="M473.599 381.056H473.39L472.342 380.008L472.551 377.702L473.18 376.025L474.228 374.139L476.324 372.252L478.211 371.414H480.517L483.242 372.252L484.709 373.719L485.338 375.606L486.595 378.331H489.949L490.578 375.606L491.417 373.3L493.513 370.994L495.399 370.366L498.124 370.785L499.591 372.252L500.43 373.719L501.478 376.864V378.541L500.849 379.589L500.43 377.073L499.382 374.977L498.124 373.51L496.657 372.881L494.98 373.51L493.722 374.558L492.255 376.654L491.626 378.75L491.207 380.217H485.338L484.919 378.75L483.242 375.396L481.146 373.929H479.049L476.744 375.396L474.438 377.912L473.599 381.056Z" fill="#BC7968"/>
<path d="M448.946 365.927H448.736L447.688 364.879L447.898 362.574L448.526 360.897L449.575 359.01L451.671 357.124L453.557 356.285H455.863L458.588 357.124L460.055 358.591L460.684 360.478L461.942 363.202H465.295L465.924 360.478L466.763 358.172L468.859 355.866L470.745 355.237L473.47 355.656L474.938 357.124L475.776 358.591L476.824 361.735V363.412L476.195 364.46L475.776 361.945L474.728 359.849L473.47 358.381L472.003 357.753L470.326 358.381L469.068 359.429L467.601 361.526L466.972 363.622L466.553 365.089H460.684L460.265 363.622L458.588 360.268L456.492 358.801H454.396L452.09 360.268L449.784 362.783L448.946 365.927Z" fill="#BC7968"/>
<path d="M425.973 351.92H425.763L424.715 350.872L424.925 348.566L425.554 346.889L426.602 345.003L428.698 343.116L430.584 342.278H432.89L435.615 343.116L437.082 344.583L437.711 346.47L438.969 349.195H442.323L442.952 346.47L443.79 344.164L445.886 341.858L447.773 341.229L450.498 341.649L451.965 343.116L452.803 344.583L453.852 347.728V349.404L453.223 350.452L452.803 347.937L451.755 345.841L450.498 344.374L449.03 343.745L447.354 344.374L446.096 345.422L444.629 347.518L444 349.614L443.58 351.081H437.711L437.292 349.614L435.615 346.26L433.519 344.793H431.423L429.117 346.26L426.811 348.776L425.973 351.92Z" fill="#BC7968"/>
<path d="M405.242 339.593H405.032L403.984 338.545L404.193 336.239L404.822 334.562L405.87 332.676L407.967 330.789L409.853 329.951H412.159L414.884 330.789L416.351 332.256L416.98 334.143L418.238 336.868H421.591L422.22 334.143L423.059 331.837L425.155 329.531L427.041 328.903L429.766 329.322L431.234 330.789L432.072 332.256L433.12 335.401V337.078L432.491 338.126L432.072 335.61L431.024 333.514L429.766 332.047L428.299 331.418L426.622 332.047L425.364 333.095L423.897 335.191L423.268 337.287L422.849 338.754H416.98L416.561 337.287L414.884 333.933L412.788 332.466H410.692L408.386 333.933L406.08 336.449L405.242 339.593Z" fill="#BC7968"/>
<path d="M382.829 325.025H382.62L381.572 323.977L381.781 321.671L382.41 319.994L383.458 318.108L385.554 316.221L387.441 315.383H389.747L392.472 316.221L393.939 317.688L394.568 319.575L395.825 322.3H399.179L399.808 319.575L400.647 317.269L402.743 314.963L404.629 314.334L407.354 314.754L408.821 316.221L409.66 317.688L410.708 320.832V322.509L410.079 323.557L409.66 321.042L408.612 318.946L407.354 317.479L405.887 316.85L404.21 317.479L402.952 318.527L401.485 320.623L400.856 322.719L400.437 324.186H394.568L394.149 322.719L392.472 319.365L390.376 317.898H388.279L385.974 319.365L383.668 321.881L382.829 325.025Z" fill="#BC7968"/>
<path d="M583.284 390.537L584.405 393.338L584.965 402.303V403.424H0V375.408L559.191 384.373L571.517 385.494L577.681 387.455L583.284 390.537Z" fill="#90939A" fill-opacity="0.7"/>
<path d="M584.965 402.303H0V470.101H515.206V415.19H581.043L583.844 412.669L584.965 408.467V405.385V402.303Z" fill="#6C7185"/>
<rect x="273.432" y="410.708" width="81.8114" height="58.2724" fill="#A8A8A8"/>
<rect x="276.788" y="410.708" width="81.8114" height="58.2724" fill="#C4C4C4"/>
<path d="M153.245 440.965C119.851 438.5 37.1673 431.159 0 427.798V594.21H720V449.93C702.444 450.397 653.211 452.059 596.732 454.973C555.642 457.587 447.296 462.033 342.63 458.895C211.798 454.973 194.988 444.047 153.245 440.965Z" fill="#94A0A3"/>
<path d="M153.245 437.603C119.851 435.138 37.1673 427.798 0 424.436V590.848H720V446.568C702.444 447.035 653.211 448.697 596.732 451.611C555.642 454.226 447.296 458.671 342.63 455.533C211.798 451.611 194.988 440.685 153.245 437.603Z" fill="#A2ACAF" fill-opacity="0.6"/>
<path d="M12.607 549.665L0 551.346V739.611L720 652.202V479.907H692.545L657.245 478.226L611.86 475.144H578.802L571.517 494.195L486.91 498.117V489.712L484.389 479.346L468.14 490.833L458.335 498.117L409.588 500.918L364.763 508.763L323.3 517.728L302.008 528.373L251.58 544.623L284.078 517.728H251.58L208.436 528.373L173.696 535.658L137.837 544.623L109.261 551.346H87.4086L99.1751 535.658H72.2802L50.428 538.459L25.4942 544.623L12.607 549.665Z" fill="#444549"/>
<path d="M0 1026.49V647.72L67.7977 629.23L117.105 596.731L181.541 575.44L288 561.992L279.595 578.241V592.809L635.953 535.658L720 514.646V1026.49H0Z" fill="#626264"/>
<path d="M268.669 630.07L278.194 609.899L296.404 569.837L327.221 550.786L389.416 536.218L442.926 528.374L505.4 522.77H569.276L560.871 544.903L604.856 536.218L628.949 522.77L677.416 506.802L720 495.875V609.058L677.416 609.899V630.07L611.299 609.899L639.595 661.167L538.179 643.798V671.533L489.432 685.261L451.33 727.004L408.747 754.459L380.731 776.031H349.354L302.568 819.735V721.401L310.412 678.257L330.583 643.798L362.241 609.899L268.669 630.07Z" fill="#353337"/>
<path d="M0 960H720V774.5C539.3 829.474 373.447 872.781 250.459 878.613C139.069 883.896 53.7899 858.036 0 837.613V960Z" fill="#38383A" fill-opacity="0.7"/>
<path d="M0 1026.49H720V858.397C602.802 881.557 343.191 928.94 242.335 933.199C141.479 937.457 38.7549 907.891 0 892.576V1026.49Z" fill="#1A1A1A"/>
<path d="M411.829 645.199L423.596 641.276L429.199 655.564V666.771C428.172 667.518 424.66 669.908 418.833 673.494C413.006 677.08 406.319 678.35 403.705 678.537V663.409V652.202L411.829 645.199Z" fill="#524D52"/>
<path d="M146.521 640.996C107.524 647.047 88.249 653.416 83.4863 655.844H144.84C173.752 650.913 196.856 638.288 204.794 632.591C201.619 632.871 185.519 634.945 146.521 640.996Z" fill="#36363A"/>
<path d="M523.331 684.14L533.416 680.498V689.183V696.747L543.502 699.549V704.031L539.019 710.195L533.416 712.996H523.331L515.206 710.195V699.549L517.447 689.183L523.331 684.14Z" fill="#454345"/>
<path d="M128.311 678.817L117.105 681.899C116.731 684.233 115.76 689.127 114.864 690.023C113.967 690.92 113.183 694.506 112.903 696.187C111.222 698.802 106.683 704.535 101.976 706.553C98.6146 707.113 87.9687 710.755 84.887 710.755C82.4216 710.755 77.3228 709.821 75.0815 709.354L64.4356 704.031L61.0737 697.868V690.023L66.1165 680.218L80.4045 674.615L96.6535 670.132H114.864H130.832L150.443 674.615L140.358 676.576L128.311 678.817Z" fill="#4B4B4C"/>
<path d="M508.203 535.938L510.444 531.175L512.685 527.813H508.203H503.16H498.117L493.354 531.175L486.911 533.977H477.385H468.14L460.856 535.938L451.891 539.019L442.926 544.062H455.533H468.14L473.463 546.864L480.187 549.946H488.592H495.315L503.16 546.864L510.444 544.062L508.203 539.019V535.938Z" fill="#625D61"/>
<path d="M51.5486 656.965L60.7938 650.802L0 669.012V691.424C3.1751 690.677 9.80545 689.127 10.9261 688.903C12.0467 688.679 18.3035 687.502 21.2918 686.942H33.0584V682.459V671.533L51.5486 665.089V656.965Z" fill="#3C3C40"/>
<path d="M527.813 539.58L537.899 534.817L544.623 539.58L548.825 545.183L568.996 541.821L567.315 537.899L565.914 529.774L568.996 524.171H588.327L565.914 520.529H554.708L544.623 524.171H537.899L527.813 527.813L516.887 529.774L514.646 534.817L520.809 539.58H527.813Z" fill="#635E64"/>
<path d="M620.825 536.498L604.016 539.86L597.292 534.257V526.693V520.249L600.094 515.767L607.658 512.685H617.463L625.588 509.603L633.152 507.362L638.195 501.479H644.358L653.603 500.918L667.331 496.716V507.362L662.568 509.603L651.362 512.685L646.039 509.603L642.957 512.685L638.195 517.728L633.152 523.051H625.588L615.222 524.732L623.066 530.335L629.51 534.257L620.825 536.498Z" fill="#4D4B50"/>
<path d="M677.136 501.198L673.214 503.44V498.397L677.136 494.475L681.338 491.953L685.541 489.152L691.704 486.07L697.868 484.109H703.471L714.117 484.949H720V514.646H711.595H703.471L700.669 509.603L693.665 506.241L689.183 508.483L684.7 509.603L683.299 503.44V499.237L677.136 501.198Z" fill="#575558"/>
<path d="M125.51 496.716C88.0808 506.577 74.0544 506.802 71.7197 505.681C71.7197 502.693 74.2411 496.044 84.3267 493.354C94.4123 490.665 110.568 488.685 117.385 488.031L146.521 484.109L196.109 477.665C188.171 479.907 162.938 486.854 125.51 496.716Z" fill="#90928F"/>
<path d="M85.4478 520.249C91.0509 518.848 104.498 516.047 113.463 516.047H131.954L162.21 518.848H170.055L158.568 522.49C147.212 521.885 127.386 520.788 122.675 520.394C120.818 520.788 108.942 521.885 101.977 522.49L85.4478 520.249Z" fill="#737373"/>
<path d="M51.8288 528.934L46.5059 530.054L59.9533 531.735L70.0389 530.895L79.0039 530.054L72 528.934H59.9533H51.8288Z" fill="#6C6C6A"/>
<path d="M505.401 755.299L498.117 758.381L490.553 760.342L484.389 758.381L487.191 753.058L490.553 747.455L501.199 740.731L512.125 737.089V742.132L510.444 750.537L505.401 755.299Z" fill="#3E3C40"/>
<path d="M280.996 503.159L266.988 510.724H280.996L289.681 507.362L302.288 500.638L324.14 489.992L299.486 496.716L280.996 503.159Z" fill="#949295"/>
<path d="M504.56 762.583H497.837H492.794H486.91L482.988 765.665L485.23 770.148L488.872 772.109L495.315 773.79L502.039 772.109L507.362 767.906L510.444 764.545L504.56 762.583Z" fill="#424245"/>
<path d="M238.973 721.12L258.304 706.833L250.739 730.085L241.774 746.054L224.685 759.502L206.195 765.665L184.343 774.63H160.529L170.055 765.665L189.105 759.502L210.397 749.696L224.685 740.171L238.973 721.12Z" fill="#424245"/>
<path d="M230.288 690.303L218.522 698.708H210.397H193.868L201.712 690.303L218.522 682.459H238.973L230.288 690.303Z" fill="#424245"/>
<path d="M444.887 600.934L464.498 592.249H474.023L504 586.366L495.315 592.249L474.023 604.856H455.813L438.163 613.541L444.887 600.934Z" fill="#3E3C3F"/>
<path d="M444.887 586.366L423.035 592.249H399.502L433.121 579.082H455.813L444.887 586.366Z" fill="#3E3C3F"/>
<path d="M102.817 823.658H141.198L107.3 833.463H76.4824L102.817 823.658Z" fill="#444346"/>
<path d="M107.3 761.463L141.198 756.42H159.689L141.198 767.626L119.346 776.311H87.9688L107.3 761.463Z" fill="#444346"/>
<path d="M119.346 735.969L107.3 741.292L92.7314 744.093L96.6536 739.051L102.257 728.685L114.864 719.16L122.988 712.716L135.315 707.113L151.564 702.63H172.576L151.564 709.354L141.198 715.518L130.272 721.121L125.229 728.685L119.346 735.969Z" fill="#444346"/>
<path d="M0 453.292V474.023V475.704H9.24514L48.1868 474.023L98.3346 471.502L136.156 469.261L166.693 465.899L192.187 463.097L226.646 459.175L253.261 454.412H212.078H145.401H100.856H48.1868L3.36187 453.292H0Z" fill="#D59EA0"/>
<path d="M0 470.942V454.412L7.28405 454.693L20.1712 455.253L38.9416 455.813H48.1868L70.5992 456.093H213.759L150.444 460.576L84.3269 465.058L43.7043 467.58L21.8521 469.541L0 470.942Z" fill="#D78F93"/>
<path d="M0 466.179V457.774H16.5292H36.9805H128.872L85.4475 461.136L67.5175 462.257L44.2646 464.218L35.2996 464.778L21.8521 465.339L0 466.179Z" fill="#CE7D83"/>
<path d="M113.183 507.082L0 518.008V502.599L92.1712 499.798L133.074 497.556L209.837 491.393L240.934 485.51L274.553 479.346H307.891L209.837 497.556L113.183 507.082Z" fill="#838D84"/>
<path d="M322.459 581.043L411.268 567.595L461.696 559.751L505.961 552.747L571.237 542.661L605.696 537.058L650.802 528.374L695.626 517.167L720 505.121V522.21L695.626 526.693L650.802 537.058L605.696 544.342L571.237 549.665L505.961 559.751L461.696 567.595L411.268 576.28L322.459 593.65L222.724 611.86L87.4086 639.035L0 655.844V635.393L87.4086 620.825L222.724 598.132L322.459 581.043Z" fill="#9F9B95"/>
<path d="M394.46 467.58H386.895H373.728H368.965H363.642H357.199H351.876H345.993L340.95 467.3L335.627 466.459L332.825 465.339L329.463 458.335L330.864 449.089H372.607L502.6 451.051L536.218 450.49L548.545 451.611L551.627 461.136L549.666 463.938L548.265 464.498L546.024 465.058L542.662 465.899L538.179 466.739L534.257 467.58H526.973H519.409H511.565L504.841 467.86L498.117 467.3H491.954L488.592 467.58H481.868L475.144 464.498L460.856 465.339L454.693 467.58L447.129 468.981H431.16H418.553L414.631 467.58L411.549 465.339L394.46 467.58Z" fill="black" fill-opacity="0.4"/>
<path d="M503.16 418.611L505.977 413.451L509.92 410.747L522.032 409.027H534.707L548.509 410.747L552.452 413.696L555.269 418.611L556.11 431.44V443.206L555.269 453.262L553.297 460.143L548.509 464.075L534.707 465.058H522.032L509.92 464.075L505.977 460.143L503.16 454.737V418.611Z" fill="#101010"/>
<path d="M341.791 418.611L344.607 413.451L348.551 410.747L360.662 409.027H373.338L387.139 410.747L391.083 413.696L393.899 418.611L394.74 431.44V443.206L393.899 453.262L391.928 460.143L387.139 464.075L373.338 465.058H360.662L348.551 464.075L344.607 460.143L341.791 454.737V418.611Z" fill="#101010"/>
<path d="M388.296 424.156L389.977 417.432L393.899 415.191L398.101 412.669L402.584 409.027L406.786 405.105L409.588 402.023L412.109 398.942L480.467 401.463L487.471 402.584L493.354 406.786L495.035 411.829L490.833 423.315V426.677V439.844L470.942 442.366H453.852H434.241H422.755H412.669L388.296 439.844L388.016 438.163V435.922V433.121V429.759V428.078L388.296 424.156Z" fill="#004080"/>
<path d="M414.351 391.938L411.549 399.502L409.868 402.864L410.429 404.825L409.028 410.988L473.464 412.109L481.308 403.424L482.709 401.743L483.269 399.782L481.308 395.3L478.787 392.218L475.705 388.856L474.304 386.895L472.623 384.934L470.662 382.973L468.701 380.171L466.74 377.089L465.059 374.008L463.098 370.646L461.697 368.405L460.016 366.163L458.055 363.362L456.374 360.56L454.973 358.879L453.292 357.479L451.331 356.638L447.969 356.078L444.047 356.638L441.246 358.319L438.164 361.121L434.802 363.922L428.359 370.646L423.036 377.089L420.234 381.292L417.433 385.494L414.351 391.938Z" fill="#004080"/>
<rect x="366.444" y="430.319" width="136.156" height="6.72372" fill="#101010"/>
<path d="M401.743 424.716V421.354L369.245 425.836V427.517L401.743 424.716Z" fill="#101010"/>
<path d="M468.98 425.378V420.794L501.479 426.906V429.198L468.98 425.378Z" fill="#101010"/>
<path d="M401.183 445.549V451.051L365.323 443.716V440.965L401.183 445.549Z" fill="#101010"/>
<path d="M434.37 440.582L388.296 439.844V448.809L391.938 456.093L403.21 457.245L434.37 459.455L468.336 457.245L488.872 454.132L489.712 451.331V439.844H486.631L434.37 440.582Z" fill="#1F1F1F"/>
<rect x="396.7" y="439.844" width="81.2451" height="7.28406" fill="#1A1A1A"/>
<path d="M400.063 432.28V437.323L396.141 442.366L396.981 448.809L401.464 449.65L405.666 450.21L416.872 452.171L433.121 453.292H437.323H441.526L460.296 452.171L469.261 450.77L477.946 448.809L478.787 445.447L477.386 442.366L474.584 436.202V430.319L473.183 424.716L471.783 422.195L469.261 420.794L465.059 419.393L461.137 418.272L458.055 417.712H413.79L411.269 417.992L405.106 419.673L401.744 421.354L400.623 427.517L400.063 432.28Z" fill="#1A1A1A"/>
<path d="M457.237 418.207C456.565 417.759 455.463 415.592 454.996 414.565H454.155L453.035 412.604L452.194 411.203C451.914 410.83 451.13 409.634 450.233 407.841C449.953 407.841 447.431 406.16 446.031 405.04C444.63 403.919 444.91 404.199 444.91 403.079C444.91 401.958 447.151 402.238 448.832 402.238C450.513 402.238 452.194 403.079 453.035 403.079C453.875 403.079 454.996 401.398 458.638 399.717H460.879C461.719 399.717 464.129 399.212 467.042 397.195C468.723 396.075 469.844 396.355 470.684 395.234C471.525 394.114 472.365 394.394 472.365 393.553C472.365 392.713 472.365 392.152 474.046 391.032C475.391 390.135 476.474 390.658 476.848 391.032H477.968L482.731 393.553C482.731 393.927 483.011 394.786 484.132 395.234C485.533 395.795 485.533 396.355 486.933 396.355C488.054 396.355 488.708 396.915 488.895 397.195C489.735 397.382 491.64 397.868 492.537 398.316C493.433 398.764 494.404 399.437 494.778 399.717L497.859 402.238V404.199V405.04C497.486 405.6 496.123 406.945 493.657 407.841H491.416H488.895H486.933C486.466 407.935 484.972 408.346 482.731 409.242C481.33 410.082 481.33 410.082 479.089 412.604C478.641 413.276 478.155 414.191 477.968 414.565C477.502 415.779 476.063 418.599 474.046 420.168C473.374 420.392 472.645 421.382 472.365 421.849H467.042H460.879C459.945 420.822 457.909 418.655 457.237 418.207Z" fill="#C4C4C4" fill-opacity="0.5"/>
<path d="M463.68 403.919L468.443 403.639H472.925L476.567 404.76L479.369 407.281L477.688 410.363L475.727 414.285L471.244 419.328L468.723 419.888L464.241 418.767L459.198 415.405L456.957 411.483L458.077 408.121L460.599 406.16L463.68 403.919Z" fill="#C4C4C4" fill-opacity="0.7"/>
<path d="M462.28 409.522L467.042 408.682H470.964L472.365 410.643L470.964 413.724L469.283 416.246L467.042 417.366L464.521 416.246L462.28 413.724L460.599 410.643L462.28 409.522Z" fill="#C4C4C4"/>
<path d="M413.23 419.921L416.031 418.52C418.459 417.119 423.315 414.037 423.315 412.917V409.835V406.473L421.074 403.952L416.872 402.831L413.23 401.15L410.428 398.068L408.187 396.107C407.627 395.173 406.17 393.026 404.825 391.905C403.48 390.784 403.704 390.317 403.985 390.224V389.103C402.584 388.917 399.782 388.655 399.782 389.103C399.782 389.664 398.381 391.625 397.541 391.905C396.701 392.185 394.179 392.745 392.498 393.306C391.826 393.306 391.658 395.173 391.658 396.107L392.498 398.068C392.592 398.442 392.89 399.357 393.339 400.03C393.787 400.702 393.899 402.924 393.899 403.952V407.594C394.366 408.154 395.468 409.387 396.14 409.835C396.813 410.283 397.915 412.076 398.381 412.917L400.343 416.839L406.506 419.921H413.23Z" fill="#C4C4C4" fill-opacity="0.6"/>
<path d="M410.708 408.714L414.35 410.395L413.229 412.637L411.268 414.598L409.587 415.438H407.346L404.825 413.477L402.583 410.395L404.264 408.714H407.346H410.708Z" fill="#CFA2B7"/>
<path d="M413.23 417.399L409.868 418.52L405.665 417.399L403.424 415.718L400.623 412.076V410.115L401.743 407.594L404.545 406.473L406.786 405.913L412.109 406.473L415.191 407.594L418.833 410.115L418.272 411.236L416.311 414.317L413.23 417.399Z" fill="#C4C4C4" fill-opacity="0.6"/>
<path d="M429.479 400.903H434.802H440.405L446.568 401.743L451.891 403.704L456.374 408.187L458.335 413.51V420.794V426.397V431.72L457.495 435.642L454.973 439.284L450.771 443.206L443.767 446.008L434.802 446.568L425.837 445.167L416.312 440.405L413.79 437.323L413.23 433.401V426.397V417.712V412.109L416.312 407.066L421.074 403.704L424.436 401.743L429.479 400.903Z" fill="#292929"/>
<path d="M426.597 390.924L431.4 389.151L438.904 388.856L446.108 389.742L453.012 393.878L457.514 397.422L462.317 404.512L465.619 410.124V416.032V424.599L464.418 432.574L459.916 442.913L453.012 451.184L444.907 457.387L437.403 459.455L428.998 458.864L421.794 455.615L416.391 451.184L411.589 444.39L407.987 437.891L406.786 429.325V414.555L409.187 407.17L413.69 399.195L419.693 393.878L426.597 390.924Z" fill="#CE000A" fill-opacity="0.4"/>
<path d="M440.405 445.728H436.763H432L426.678 444.327L419.954 441.525L416.032 437.323L414.631 431.159V415.471L416.032 410.428L419.113 405.665L423.036 401.743L427.238 398.661L433.681 397.541H438.724L444.047 398.661L449.37 401.743L453.012 405.665L455.534 409.307L456.094 412.949V428.078L454.693 434.241L450.771 439.004L447.689 441.525L444.047 444.047L440.405 445.728Z" fill="#F70400" fill-opacity="0.8"/>
<path d="M432.561 404.545H435.922H437.884L440.685 404.825L443.207 405.665L446.008 407.626L448.249 410.708L449.65 414.35V425.556L449.37 428.358L448.81 430.879L446.288 434.801L442.366 437.883L439.564 438.724H436.763H432.561H429.199L425.557 437.323L422.195 433.121L421.074 430.879V417.992V413.23L423.315 410.148L426.117 407.066L428.638 405.385L430.319 404.825L432.561 404.545Z" fill="#FF9A15" fill-opacity="0.85"/>
<path d="M431.72 407.346H434.802H439.844L440.965 407.626L442.926 408.467L444.327 409.588L445.167 410.988L446.568 413.51L447.129 415.751V425.556L446.568 428.638L445.728 430.879L444.887 432L443.767 433.121L442.366 434.241L440.965 435.362L439.284 435.922L437.883 436.482H430.319L429.479 436.202L428.078 435.362L425.837 433.401L424.436 431.16L423.595 429.198L423.035 427.518V415.191L423.595 414.07L424.156 412.949L425.276 411.829L426.397 410.708L427.518 409.588L428.638 408.467L430.039 407.907L431.72 407.346Z" fill="#F6CE30" fill-opacity="0.8"/>
<path d="M432.841 409.307H435.362H438.444L439.845 409.588L441.246 410.428L443.207 412.389L444.888 415.191V428.078L443.207 431.159L440.685 432.84L438.444 433.961H430.88L429.199 433.121L426.958 431.159L425.557 429.479L424.997 427.237V417.152L425.557 415.471L426.678 413.23L428.358 411.549L430.32 409.868L432.841 409.307Z" fill="white"/>
<path d="M396.982 373.448H379.892L381.293 385.214L386.896 407.907L396.982 448.809V439.284L393.62 404.825V389.977L396.982 373.448Z" fill="#1A1A1A"/>
<path d="M475.985 371.486L497.277 373.448L493.635 390.257L488.032 412.949L477.946 448.809L477.386 440.965L477.946 423.876L479.347 409.307V394.179L475.985 371.486Z" fill="#1A1A1A"/>
<path d="M381.012 370.869H401.232L480.424 372.288L498.678 369.806L497.554 377.961L494.184 388.243L484.075 415.191L479.301 392.498L477.335 386.116L473.965 377.961H399.547L395.615 386.116L392.807 392.498L388.296 409.588L382.697 386.116L381.012 370.869Z" fill="#003667"/>
<path d="M476.265 367.41H437.043H399.783L388.857 357.479L381.012 359.252L377.65 369.538L380.172 381.243L384.654 394.367L389.137 385.854L392.218 381.243H475.145L484.95 396.14L492.514 382.307L498.678 369.538L492.234 359.607L484.95 357.479L476.265 367.41Z" fill="#1A1A1A"/>
<path d="M395.616 381.295H390.561L386.067 386.627L381.012 370.631L383.259 363.166L388.876 357.479L395.616 363.166L399.829 367.432H476.78L485.205 357.479L492.507 363.166L495.316 370.631L485.205 390.537L479.588 385.205L475.657 381.295H463.861H418.084H395.616Z" fill="#1A1A1A"/>
<path d="M489.712 412.669L492.514 406.786L496.436 403.704L508.483 401.743H521.09L534.817 403.704L538.74 407.066L541.541 412.669L542.942 422.755V444.327L541.541 452.171L539.58 460.016L534.817 464.498L521.09 465.619H508.483L496.436 464.498L492.514 460.016L489.712 453.852L488.592 444.327V422.755L489.712 412.669Z" fill="#1A1A1A"/>
<path d="M379.331 412.669L376.529 406.786L372.607 403.704L360.561 401.743H347.954L334.226 403.704L330.304 407.066L327.502 412.669L326.101 422.755V444.327L327.502 452.171L329.463 460.016L334.226 464.498L347.954 465.619H360.561L372.607 464.498L376.529 460.016L379.331 453.852L380.452 444.327V422.755L379.331 412.669Z" fill="#1A1A1A"/>
<path d="M50.7687 51.2695H56.3937L63.6203 71.6797L70.9445 51.2695H76.5695L66.218 80H60.9445L50.7687 51.2695ZM82.1836 51.2695H97.8672V56.6211H87.6133V61.8164H97.8672V67.0703H87.6133V74.6289H97.8672V80H82.1836V51.2695ZM130.591 56.3281L126.762 59.9805C124.158 57.2331 121.229 55.8594 117.973 55.8594C115.226 55.8594 112.908 56.7969 111.02 58.6719C109.145 60.5469 108.208 62.8581 108.208 65.6055C108.208 67.5195 108.624 69.2188 109.458 70.7031C110.291 72.1875 111.47 73.3529 112.993 74.1992C114.516 75.0456 116.209 75.4688 118.071 75.4688C119.66 75.4688 121.111 75.1758 122.427 74.5898C123.742 73.9909 125.187 72.9102 126.762 71.3477L130.473 75.2148C128.351 77.2852 126.346 78.724 124.458 79.5312C122.57 80.3255 120.415 80.7227 117.993 80.7227C113.527 80.7227 109.868 79.3099 107.016 76.4844C104.178 73.6458 102.759 70.013 102.759 65.5859C102.759 62.7214 103.403 60.1758 104.692 57.9492C105.994 55.7227 107.85 53.9323 110.259 52.5781C112.68 51.224 115.285 50.5469 118.071 50.5469C120.441 50.5469 122.72 51.0482 124.907 52.0508C127.108 53.0534 129.002 54.4792 130.591 56.3281ZM133.763 51.2695H149.642V56.6602H144.408V80H138.861V56.6602H133.763V51.2695ZM168.166 50.5469C172.229 50.5469 175.718 52.0182 178.635 54.9609C181.565 57.9036 183.03 61.4909 183.03 65.7227C183.03 69.9154 181.584 73.4635 178.694 76.3672C175.816 79.2708 172.32 80.7227 168.205 80.7227C163.896 80.7227 160.315 79.2318 157.463 76.25C154.612 73.2682 153.186 69.7266 153.186 65.625C153.186 62.8776 153.85 60.3516 155.178 58.0469C156.506 55.7422 158.329 53.9193 160.647 52.5781C162.978 51.224 165.484 50.5469 168.166 50.5469ZM168.108 55.8984C165.452 55.8984 163.218 56.8229 161.409 58.6719C159.599 60.5208 158.694 62.8711 158.694 65.7227C158.694 68.8997 159.833 71.4128 162.112 73.2617C163.883 74.707 165.914 75.4297 168.205 75.4297C170.797 75.4297 173.004 74.4922 174.827 72.6172C176.649 70.7422 177.561 68.431 177.561 65.6836C177.561 62.9492 176.643 60.638 174.807 58.75C172.971 56.849 170.738 55.8984 168.108 55.8984ZM189.757 51.2695H195.558C198.735 51.2695 200.994 51.556 202.335 52.1289C203.689 52.6888 204.777 53.6263 205.597 54.9414C206.417 56.2565 206.827 57.8125 206.827 59.6094C206.827 61.4974 206.372 63.0794 205.46 64.3555C204.562 65.6185 203.201 66.5755 201.378 67.2266L208.175 80H202.198L195.734 67.832H195.226V80H189.757V51.2695ZM195.226 62.5H196.945C198.689 62.5 199.887 62.2721 200.538 61.8164C201.202 61.3607 201.534 60.6055 201.534 59.5508C201.534 58.9258 201.372 58.3854 201.046 57.9297C200.721 57.4609 200.284 57.1289 199.737 56.9336C199.191 56.7253 198.188 56.6211 196.73 56.6211H195.226V62.5ZM252.606 56.3281L248.778 59.9805C246.174 57.2331 243.244 55.8594 239.989 55.8594C237.242 55.8594 234.924 56.7969 233.036 58.6719C231.161 60.5469 230.223 62.8581 230.223 65.6055C230.223 67.5195 230.64 69.2188 231.473 70.7031C232.307 72.1875 233.485 73.3529 235.009 74.1992C236.532 75.0456 238.225 75.4688 240.087 75.4688C241.675 75.4688 243.127 75.1758 244.442 74.5898C245.757 73.9909 247.203 72.9102 248.778 71.3477L252.489 75.2148C250.367 77.2852 248.361 78.724 246.473 79.5312C244.585 80.3255 242.43 80.7227 240.009 80.7227C235.542 80.7227 231.884 79.3099 229.032 76.4844C226.193 73.6458 224.774 70.013 224.774 65.5859C224.774 62.7214 225.419 60.1758 226.708 57.9492C228.01 55.7227 229.865 53.9323 232.274 52.5781C234.696 51.224 237.3 50.5469 240.087 50.5469C242.456 50.5469 244.735 51.0482 246.923 52.0508C249.123 53.0534 251.018 54.4792 252.606 56.3281ZM272.185 50.5469C276.248 50.5469 279.737 52.0182 282.654 54.9609C285.584 57.9036 287.048 61.4909 287.048 65.7227C287.048 69.9154 285.603 73.4635 282.712 76.3672C279.835 79.2708 276.339 80.7227 272.224 80.7227C267.914 80.7227 264.334 79.2318 261.482 76.25C258.63 73.2682 257.205 69.7266 257.205 65.625C257.205 62.8776 257.869 60.3516 259.197 58.0469C260.525 55.7422 262.348 53.9193 264.666 52.5781C266.996 51.224 269.503 50.5469 272.185 50.5469ZM272.127 55.8984C269.47 55.8984 267.237 56.8229 265.427 58.6719C263.617 60.5208 262.712 62.8711 262.712 65.7227C262.712 68.8997 263.852 71.4128 266.13 73.2617C267.901 74.707 269.933 75.4297 272.224 75.4297C274.815 75.4297 277.022 74.4922 278.845 72.6172C280.668 70.7422 281.58 68.431 281.58 65.6836C281.58 62.9492 280.662 60.638 278.826 58.75C276.99 56.849 274.757 55.8984 272.127 55.8984ZM293.405 51.2695H298.873V74.7852H306.842V80H293.405V51.2695ZM312.222 51.2695H317.691V74.7852H325.659V80H312.222V51.2695ZM331.059 51.2695H346.742V56.6211H336.488V61.8164H346.742V67.0703H336.488V74.6289H346.742V80H331.059V51.2695ZM379.466 56.3281L375.637 59.9805C373.033 57.2331 370.104 55.8594 366.848 55.8594C364.101 55.8594 361.783 56.7969 359.895 58.6719C358.02 60.5469 357.083 62.8581 357.083 65.6055C357.083 67.5195 357.499 69.2188 358.333 70.7031C359.166 72.1875 360.345 73.3529 361.868 74.1992C363.391 75.0456 365.084 75.4688 366.946 75.4688C368.535 75.4688 369.986 75.1758 371.302 74.5898C372.617 73.9909 374.062 72.9102 375.637 71.3477L379.348 75.2148C377.226 77.2852 375.221 78.724 373.333 79.5312C371.445 80.3255 369.29 80.7227 366.868 80.7227C362.402 80.7227 358.743 79.3099 355.891 76.4844C353.053 73.6458 351.634 70.013 351.634 65.5859C351.634 62.7214 352.278 60.1758 353.567 57.9492C354.869 55.7227 356.725 53.9323 359.134 52.5781C361.555 51.224 364.16 50.5469 366.946 50.5469C369.316 50.5469 371.595 51.0482 373.782 52.0508C375.983 53.0534 377.877 54.4792 379.466 56.3281ZM382.638 51.2695H398.517V56.6602H393.283V80H387.736V56.6602H382.638V51.2695ZM403.077 51.2695H408.506V80H403.077V51.2695ZM429.452 50.5469C433.515 50.5469 437.004 52.0182 439.921 54.9609C442.851 57.9036 444.316 61.4909 444.316 65.7227C444.316 69.9154 442.87 73.4635 439.98 76.3672C437.102 79.2708 433.606 80.7227 429.491 80.7227C425.181 80.7227 421.601 79.2318 418.749 76.25C415.898 73.2682 414.472 69.7266 414.472 65.625C414.472 62.8776 415.136 60.3516 416.464 58.0469C417.792 55.7422 419.615 53.9193 421.933 52.5781C424.264 51.224 426.77 50.5469 429.452 50.5469ZM429.394 55.8984C426.737 55.8984 424.504 56.8229 422.695 58.6719C420.885 60.5208 419.98 62.8711 419.98 65.7227C419.98 68.8997 421.119 71.4128 423.398 73.2617C425.168 74.707 427.2 75.4297 429.491 75.4297C432.083 75.4297 434.29 74.4922 436.112 72.6172C437.935 70.7422 438.847 68.431 438.847 65.6836C438.847 62.9492 437.929 60.638 436.093 58.75C434.257 56.849 432.024 55.8984 429.394 55.8984ZM450.691 51.2695H455.926L468.25 70.1758V51.2695H473.719V80H468.465L456.16 61.1523V80H450.691V51.2695Z" fill="#202020"/>
<path d="M282.153 103.574L279.844 105.859C278.383 104.312 276.68 103.539 274.735 103.539C273.04 103.539 271.618 104.102 270.469 105.227C269.329 106.352 268.758 107.719 268.758 109.328C268.758 110.992 269.352 112.402 270.54 113.559C271.727 114.715 273.192 115.293 274.934 115.293C276.067 115.293 277.02 115.055 277.793 114.578C278.575 114.102 279.204 113.355 279.68 112.34H274.688V109.258H283.36L283.383 109.984C283.383 111.492 282.993 112.922 282.211 114.273C281.43 115.625 280.418 116.656 279.176 117.367C277.934 118.078 276.477 118.434 274.805 118.434C273.016 118.434 271.418 118.047 270.012 117.273C268.614 116.492 267.504 115.383 266.684 113.945C265.872 112.508 265.465 110.957 265.465 109.293C265.465 107.012 266.219 105.027 267.727 103.34C269.516 101.332 271.844 100.328 274.711 100.328C276.211 100.328 277.614 100.605 278.918 101.16C280.02 101.629 281.098 102.434 282.153 103.574ZM287.578 100.762H291.058C292.964 100.762 294.32 100.934 295.125 101.277C295.937 101.613 296.589 102.176 297.082 102.965C297.574 103.754 297.82 104.688 297.82 105.766C297.82 106.898 297.546 107.848 297 108.613C296.46 109.371 295.644 109.945 294.55 110.336L298.628 118H295.043L291.164 110.699H290.859V118H287.578V100.762ZM290.859 107.5H291.89C292.937 107.5 293.656 107.363 294.046 107.09C294.445 106.816 294.644 106.363 294.644 105.73C294.644 105.355 294.546 105.031 294.351 104.758C294.156 104.477 293.894 104.277 293.566 104.16C293.238 104.035 292.636 103.973 291.761 103.973H290.859V107.5ZM307.487 100.762H310.815L317.448 118H314.038L312.69 114.449H305.659L304.253 118H300.842L307.487 100.762ZM309.174 105.332L306.878 111.25H311.46L309.174 105.332ZM320.951 100.762H324.431C326.314 100.762 327.67 100.938 328.498 101.289C329.334 101.633 329.99 102.195 330.466 102.977C330.951 103.75 331.193 104.68 331.193 105.766C331.193 106.969 330.877 107.969 330.244 108.766C329.619 109.562 328.767 110.117 327.689 110.43C327.056 110.609 325.904 110.699 324.232 110.699V118H320.951V100.762ZM324.232 107.5H325.275C326.095 107.5 326.666 107.441 326.986 107.324C327.306 107.207 327.556 107.016 327.736 106.75C327.923 106.477 328.017 106.148 328.017 105.766C328.017 105.102 327.759 104.617 327.244 104.312C326.869 104.086 326.173 103.973 325.158 103.973H324.232V107.5ZM335.364 100.762H338.692V107.266H344.458V100.762H347.774V118H344.458V110.441H338.692V118H335.364V100.762ZM352.437 100.762H355.695V118H352.437V100.762ZM376.202 103.797L373.905 105.988C372.342 104.34 370.585 103.516 368.632 103.516C366.983 103.516 365.592 104.078 364.46 105.203C363.335 106.328 362.772 107.715 362.772 109.363C362.772 110.512 363.022 111.531 363.522 112.422C364.022 113.312 364.729 114.012 365.643 114.52C366.557 115.027 367.573 115.281 368.69 115.281C369.643 115.281 370.514 115.105 371.303 114.754C372.092 114.395 372.96 113.746 373.905 112.809L376.132 115.129C374.858 116.371 373.655 117.234 372.522 117.719C371.389 118.195 370.096 118.434 368.643 118.434C365.964 118.434 363.768 117.586 362.057 115.891C360.354 114.188 359.503 112.008 359.503 109.352C359.503 107.633 359.889 106.105 360.663 104.77C361.444 103.434 362.557 102.359 364.003 101.547C365.456 100.734 367.018 100.328 368.69 100.328C370.112 100.328 371.479 100.629 372.792 101.23C374.112 101.832 375.249 102.688 376.202 103.797ZM387.743 100.762H391.634C394.141 100.762 396.005 101.074 397.223 101.699C398.442 102.316 399.446 103.324 400.235 104.723C401.024 106.121 401.419 107.754 401.419 109.621C401.419 110.949 401.196 112.172 400.751 113.289C400.313 114.398 399.704 115.32 398.923 116.055C398.149 116.789 397.309 117.297 396.403 117.578C395.497 117.859 393.927 118 391.692 118H387.743V100.762ZM391.013 103.926V114.789H392.536C394.036 114.789 395.122 114.617 395.794 114.273C396.473 113.93 397.028 113.352 397.458 112.539C397.888 111.727 398.102 110.727 398.102 109.539C398.102 107.711 397.591 106.293 396.567 105.285C395.645 104.379 394.165 103.926 392.126 103.926H391.013ZM405.508 100.762H414.918V103.973H408.765V107.09H414.918V110.242H408.765V114.777H414.918V118H405.508V100.762ZM427.983 103.105L425.558 105.25C424.706 104.062 423.839 103.469 422.956 103.469C422.526 103.469 422.175 103.586 421.901 103.82C421.628 104.047 421.491 104.305 421.491 104.594C421.491 104.883 421.589 105.156 421.784 105.414C422.05 105.758 422.85 106.496 424.186 107.629C425.436 108.676 426.194 109.336 426.46 109.609C427.124 110.281 427.593 110.926 427.866 111.543C428.147 112.152 428.288 112.82 428.288 113.547C428.288 114.961 427.8 116.129 426.823 117.051C425.847 117.973 424.573 118.434 423.003 118.434C421.776 118.434 420.706 118.133 419.792 117.531C418.886 116.93 418.108 115.984 417.46 114.695L420.214 113.031C421.042 114.555 421.995 115.316 423.073 115.316C423.636 115.316 424.108 115.152 424.491 114.824C424.874 114.496 425.065 114.117 425.065 113.688C425.065 113.297 424.921 112.906 424.632 112.516C424.343 112.125 423.706 111.527 422.722 110.723C420.847 109.191 419.636 108.012 419.089 107.184C418.542 106.348 418.268 105.516 418.268 104.688C418.268 103.492 418.722 102.469 419.628 101.617C420.542 100.758 421.667 100.328 423.003 100.328C423.862 100.328 424.679 100.527 425.452 100.926C426.233 101.324 427.077 102.051 427.983 103.105ZM432.166 100.762H435.424V118H432.166V100.762ZM456.001 103.574L453.692 105.859C452.231 104.312 450.528 103.539 448.583 103.539C446.888 103.539 445.466 104.102 444.317 105.227C443.177 106.352 442.606 107.719 442.606 109.328C442.606 110.992 443.2 112.402 444.388 113.559C445.575 114.715 447.04 115.293 448.782 115.293C449.915 115.293 450.868 115.055 451.642 114.578C452.423 114.102 453.052 113.355 453.528 112.34H448.536V109.258H457.208L457.231 109.984C457.231 111.492 456.841 112.922 456.06 114.273C455.278 115.625 454.267 116.656 453.024 117.367C451.782 118.078 450.325 118.434 448.653 118.434C446.864 118.434 445.267 118.047 443.86 117.273C442.462 116.492 441.353 115.383 440.532 113.945C439.72 112.508 439.313 110.957 439.313 109.293C439.313 107.012 440.067 105.027 441.575 103.34C443.364 101.332 445.692 100.328 448.56 100.328C450.06 100.328 451.462 100.605 452.767 101.16C453.868 101.629 454.946 102.434 456.001 103.574ZM461.215 100.762H464.355L471.75 112.105V100.762H475.031V118H471.879L464.496 106.691V118H461.215V100.762Z" fill="#202020"/>
</g>
<defs>
<clipPath id="clip0">
<rect width="720" height="960" fill="white"/>
</clipPath>
</defs>
</svg>
