<svg width="1400" height="279" viewBox="0 0 1400 279" fill="none" xmlns="http://www.w3.org/2000/svg">
<path d="M864 18C864 13.5817 867.582 10 872 10H1205C1209.42 10 1213 13.5817 1213 18V71C1213 75.4183 1209.42 79 1205 79H872C867.582 79 864 75.4183 864 71V18Z" fill="white"/>
<path d="M900.124 53H903.436L909.268 36.2H906.268L901.78 49.664L897.316 36.2H894.292L900.124 53ZM918.969 41V42.704C918.057 41.456 916.641 40.688 914.769 40.688C911.505 40.688 908.793 43.424 908.793 47C908.793 50.552 911.505 53.312 914.769 53.312C916.641 53.312 918.057 52.544 918.969 51.272V53H921.561V41H918.969ZM915.177 50.84C913.017 50.84 911.385 49.232 911.385 47C911.385 44.768 913.017 43.16 915.177 43.16C917.337 43.16 918.969 44.768 918.969 47C918.969 49.232 917.337 50.84 915.177 50.84ZM924.582 53H927.174V35.48H924.582V53ZM931.48 39.2C932.392 39.2 933.136 38.432 933.136 37.544C933.136 36.632 932.392 35.888 931.48 35.888C930.568 35.888 929.824 36.632 929.824 37.544C929.824 38.432 930.568 39.2 931.48 39.2ZM930.184 53H932.776V41H930.184V53ZM945.289 36.2V42.704C944.377 41.456 942.961 40.688 941.089 40.688C937.825 40.688 935.113 43.424 935.113 47C935.113 50.552 937.825 53.312 941.089 53.312C942.961 53.312 944.377 52.544 945.289 51.272V53H947.881V36.2H945.289ZM941.497 50.84C939.337 50.84 937.705 49.232 937.705 47C937.705 44.768 939.337 43.16 941.497 43.16C943.657 43.16 945.289 44.768 945.289 47C945.289 49.232 943.657 50.84 941.497 50.84ZM960.407 41V42.704C959.495 41.456 958.079 40.688 956.207 40.688C952.943 40.688 950.231 43.424 950.231 47C950.231 50.552 952.943 53.312 956.207 53.312C958.079 53.312 959.495 52.544 960.407 51.272V53H962.999V41H960.407ZM956.615 50.84C954.455 50.84 952.823 49.232 952.823 47C952.823 44.768 954.455 43.16 956.615 43.16C958.775 43.16 960.407 44.768 960.407 47C960.407 49.232 958.775 50.84 956.615 50.84ZM972.716 43.496V41H969.74V37.64L967.148 38.408V41H964.94V43.496H967.148V49.256C967.148 52.376 968.732 53.48 972.716 53V50.672C970.748 50.768 969.74 50.792 969.74 49.256V43.496H972.716ZM976.615 48.104H986.167C986.215 47.768 986.263 47.384 986.263 47.024C986.263 43.568 983.815 40.688 980.239 40.688C976.471 40.688 973.903 43.448 973.903 47C973.903 50.6 976.471 53.312 980.431 53.312C982.783 53.312 984.583 52.328 985.687 50.696L983.551 49.448C982.975 50.288 981.895 50.936 980.455 50.936C978.535 50.936 977.023 49.976 976.615 48.104ZM976.59 45.992C976.951 44.192 978.271 43.04 980.215 43.04C981.775 43.04 983.287 43.928 983.647 45.992H976.59ZM1000.21 53.312C1003.74 53.312 1006.54 50.552 1006.54 47C1006.54 43.424 1003.74 40.688 1000.21 40.688C996.703 40.688 993.871 43.424 993.871 47C993.871 50.552 996.703 53.312 1000.21 53.312ZM1000.21 50.792C998.095 50.792 996.463 49.184 996.463 47C996.463 44.816 998.095 43.208 1000.21 43.208C1002.32 43.208 1003.95 44.816 1003.95 47C1003.95 49.184 1002.32 50.792 1000.21 50.792ZM1011.48 43.016V41H1008.89V53H1011.48V46.952C1011.48 44.264 1013.47 43.472 1015.18 43.592V40.784C1013.66 40.784 1012.2 41.384 1011.48 43.016ZM1026.03 36.2V42.704C1025.12 41.456 1023.7 40.688 1021.83 40.688C1018.57 40.688 1015.86 43.424 1015.86 47C1015.86 50.552 1018.57 53.312 1021.83 53.312C1023.7 53.312 1025.12 52.544 1026.03 51.272V53H1028.62V36.2H1026.03ZM1022.24 50.84C1020.08 50.84 1018.45 49.232 1018.45 47C1018.45 44.768 1020.08 43.16 1022.24 43.16C1024.4 43.16 1026.03 44.768 1026.03 47C1026.03 49.232 1024.4 50.84 1022.24 50.84ZM1033.68 48.104H1043.24C1043.28 47.768 1043.33 47.384 1043.33 47.024C1043.33 43.568 1040.88 40.688 1037.31 40.688C1033.54 40.688 1030.97 43.448 1030.97 47C1030.97 50.6 1033.54 53.312 1037.5 53.312C1039.85 53.312 1041.65 52.328 1042.76 50.696L1040.62 49.448C1040.04 50.288 1038.96 50.936 1037.52 50.936C1035.6 50.936 1034.09 49.976 1033.68 48.104ZM1033.66 45.992C1034.02 44.192 1035.34 43.04 1037.28 43.04C1038.84 43.04 1040.36 43.928 1040.72 45.992H1033.66ZM1048.21 43.016V41H1045.61V53H1048.21V46.952C1048.21 44.264 1050.2 43.472 1051.9 43.592V40.784C1050.39 40.784 1048.93 41.384 1048.21 43.016ZM1065.48 53.312C1067.83 53.312 1069.87 52.088 1070.88 50.192L1068.65 48.92C1068.07 50.024 1066.9 50.768 1065.46 50.768C1063.34 50.768 1061.74 49.16 1061.74 47C1061.74 44.84 1063.34 43.232 1065.46 43.232C1066.9 43.232 1068.07 43.952 1068.6 45.08L1070.83 43.784C1069.87 41.912 1067.83 40.688 1065.48 40.688C1061.86 40.688 1059.14 43.424 1059.14 47C1059.14 50.552 1061.86 53.312 1065.48 53.312ZM1078.23 53.312C1081.76 53.312 1084.57 50.552 1084.57 47C1084.57 43.424 1081.76 40.688 1078.23 40.688C1074.73 40.688 1071.89 43.424 1071.89 47C1071.89 50.552 1074.73 53.312 1078.23 53.312ZM1078.23 50.792C1076.12 50.792 1074.49 49.184 1074.49 47C1074.49 44.816 1076.12 43.208 1078.23 43.208C1080.34 43.208 1081.97 44.816 1081.97 47C1081.97 49.184 1080.34 50.792 1078.23 50.792ZM1100.01 40.688C1098.41 40.688 1097.13 41.336 1096.34 42.584C1095.65 41.384 1094.49 40.688 1092.93 40.688C1091.45 40.688 1090.27 41.264 1089.5 42.44V41H1086.91V53H1089.5V46.28C1089.5 44.096 1090.7 43.112 1092.17 43.112C1093.58 43.112 1094.42 44.048 1094.42 45.728V53H1097.01V46.28C1097.01 44.096 1098.09 43.112 1099.63 43.112C1101.05 43.112 1101.96 44.048 1101.96 45.728V53H1104.55V45.56C1104.55 42.56 1102.73 40.688 1100.01 40.688ZM1114.12 40.688C1112.24 40.688 1110.83 41.456 1109.92 42.728V41H1107.32V57.8H1109.92V51.296C1110.83 52.544 1112.24 53.312 1114.12 53.312C1117.38 53.312 1120.09 50.576 1120.09 47C1120.09 43.448 1117.38 40.688 1114.12 40.688ZM1113.71 50.84C1111.55 50.84 1109.92 49.232 1109.92 47C1109.92 44.768 1111.55 43.16 1113.71 43.16C1115.87 43.16 1117.5 44.768 1117.5 47C1117.5 49.232 1115.87 50.84 1113.71 50.84ZM1122.44 53H1125.03V35.48H1122.44V53ZM1130.08 48.104H1139.64C1139.68 47.768 1139.73 47.384 1139.73 47.024C1139.73 43.568 1137.28 40.688 1133.71 40.688C1129.94 40.688 1127.37 43.448 1127.37 47C1127.37 50.6 1129.94 53.312 1133.9 53.312C1136.25 53.312 1138.05 52.328 1139.16 50.696L1137.02 49.448C1136.44 50.288 1135.36 50.936 1133.92 50.936C1132 50.936 1130.49 49.976 1130.08 48.104ZM1130.06 45.992C1130.42 44.192 1131.74 43.04 1133.68 43.04C1135.24 43.04 1136.76 43.928 1137.12 45.992H1130.06ZM1148.33 43.496V41H1145.36V37.64L1142.77 38.408V41H1140.56V43.496H1142.77V49.256C1142.77 52.376 1144.35 53.48 1148.33 53V50.672C1146.37 50.768 1145.36 50.792 1145.36 49.256V43.496H1148.33ZM1151.98 39.2C1152.89 39.2 1153.64 38.432 1153.64 37.544C1153.64 36.632 1152.89 35.888 1151.98 35.888C1151.07 35.888 1150.32 36.632 1150.32 37.544C1150.32 38.432 1151.07 39.2 1151.98 39.2ZM1150.68 53H1153.28V41H1150.68V53ZM1161.95 53.312C1165.48 53.312 1168.29 50.552 1168.29 47C1168.29 43.424 1165.48 40.688 1161.95 40.688C1158.45 40.688 1155.61 43.424 1155.61 47C1155.61 50.552 1158.45 53.312 1161.95 53.312ZM1161.95 50.792C1159.84 50.792 1158.21 49.184 1158.21 47C1158.21 44.816 1159.84 43.208 1161.95 43.208C1164.06 43.208 1165.69 44.816 1165.69 47C1165.69 49.184 1164.06 50.792 1161.95 50.792ZM1176.94 40.688C1175.31 40.688 1174.01 41.288 1173.22 42.536V41H1170.63V53H1173.22V46.568C1173.22 44.12 1174.57 43.112 1176.27 43.112C1177.9 43.112 1178.96 44.072 1178.96 45.896V53H1181.55V45.632C1181.55 42.512 1179.63 40.688 1176.94 40.688Z" fill="#1A1A1A"/>
<path d="M872 11H1205V9H872V11ZM1212 18V71H1214V18H1212ZM1205 78H872V80H1205V78ZM865 71V18H863V71H865ZM872 78C868.134 78 865 74.866 865 71H863C863 75.9706 867.029 80 872 80V78ZM1212 71C1212 74.866 1208.87 78 1205 78V80C1209.97 80 1214 75.9706 1214 71H1212ZM1205 11C1208.87 11 1212 14.134 1212 18H1214C1214 13.0294 1209.97 9 1205 9V11ZM872 9C867.029 9 863 13.0294 863 18H865C865 14.134 868.134 11 872 11V9Z" fill="#E5E5E5"/>
<path d="M271 18C271 13.5817 274.582 10 279 10H649C653.418 10 657 13.5817 657 18V71C657 75.4183 653.418 79 649 79H279C274.582 79 271 75.4183 271 71V18Z" fill="white"/>
<path d="M314.003 53H316.979L310.907 36.2H307.595L301.499 53H304.499L305.675 49.616H312.827L314.003 53ZM306.587 47.024L309.251 39.44L311.915 47.024H306.587ZM327.817 36.2V42.704C326.905 41.456 325.489 40.688 323.617 40.688C320.353 40.688 317.641 43.424 317.641 47C317.641 50.552 320.353 53.312 323.617 53.312C325.489 53.312 326.905 52.544 327.817 51.272V53H330.409V36.2H327.817ZM324.025 50.84C321.865 50.84 320.233 49.232 320.233 47C320.233 44.768 321.865 43.16 324.025 43.16C326.185 43.16 327.817 44.768 327.817 47C327.817 49.232 326.185 50.84 324.025 50.84ZM342.934 36.2V42.704C342.022 41.456 340.606 40.688 338.734 40.688C335.47 40.688 332.758 43.424 332.758 47C332.758 50.552 335.47 53.312 338.734 53.312C340.606 53.312 342.022 52.544 342.934 51.272V53H345.526V36.2H342.934ZM339.142 50.84C336.982 50.84 335.35 49.232 335.35 47C335.35 44.768 336.982 43.16 339.142 43.16C341.302 43.16 342.934 44.768 342.934 47C342.934 49.232 341.302 50.84 339.142 50.84ZM351.139 43.016V41H348.547V53H351.139V46.952C351.139 44.264 353.131 43.472 354.835 43.592V40.784C353.323 40.784 351.859 41.384 351.139 43.016ZM358.228 48.104H367.78C367.828 47.768 367.876 47.384 367.876 47.024C367.876 43.568 365.428 40.688 361.852 40.688C358.084 40.688 355.516 43.448 355.516 47C355.516 50.6 358.084 53.312 362.044 53.312C364.396 53.312 366.196 52.328 367.3 50.696L365.164 49.448C364.588 50.288 363.508 50.936 362.068 50.936C360.148 50.936 358.636 49.976 358.228 48.104ZM358.204 45.992C358.564 44.192 359.884 43.04 361.828 43.04C363.388 43.04 364.9 43.928 365.26 45.992H358.204ZM372.016 44.312C372.016 43.448 372.832 43.04 373.768 43.04C374.752 43.04 375.592 43.472 376.024 44.408L378.208 43.184C377.368 41.6 375.736 40.688 373.768 40.688C371.32 40.688 369.376 42.104 369.376 44.36C369.376 48.656 375.832 47.456 375.832 49.592C375.832 50.552 374.944 50.936 373.792 50.936C372.472 50.936 371.512 50.288 371.128 49.208L368.896 50.504C369.664 52.232 371.392 53.312 373.792 53.312C376.384 53.312 378.472 52.016 378.472 49.616C378.472 45.176 372.016 46.496 372.016 44.312ZM382.352 44.312C382.352 43.448 383.168 43.04 384.104 43.04C385.088 43.04 385.928 43.472 386.36 44.408L388.544 43.184C387.704 41.6 386.072 40.688 384.104 40.688C381.656 40.688 379.712 42.104 379.712 44.36C379.712 48.656 386.168 47.456 386.168 49.592C386.168 50.552 385.28 50.936 384.128 50.936C382.808 50.936 381.848 50.288 381.464 49.208L379.232 50.504C380 52.232 381.728 53.312 384.128 53.312C386.72 53.312 388.808 52.016 388.808 49.616C388.808 45.176 382.352 46.496 382.352 44.312ZM402.75 53.312C405.102 53.312 407.142 52.088 408.15 50.192L405.918 48.92C405.342 50.024 404.166 50.768 402.726 50.768C400.614 50.768 399.006 49.16 399.006 47C399.006 44.84 400.614 43.232 402.726 43.232C404.166 43.232 405.342 43.952 405.87 45.08L408.102 43.784C407.142 41.912 405.102 40.688 402.75 40.688C399.126 40.688 396.414 43.424 396.414 47C396.414 50.552 399.126 53.312 402.75 53.312ZM418.182 41V47.432C418.182 49.88 416.838 50.888 415.134 50.888C413.502 50.888 412.446 49.928 412.446 48.104V41H409.854V48.368C409.854 51.488 411.774 53.312 414.462 53.312C416.094 53.312 417.39 52.712 418.182 51.464V53H420.774V41H418.182ZM426.063 44.312C426.063 43.448 426.879 43.04 427.815 43.04C428.799 43.04 429.639 43.472 430.071 44.408L432.255 43.184C431.415 41.6 429.783 40.688 427.815 40.688C425.367 40.688 423.423 42.104 423.423 44.36C423.423 48.656 429.879 47.456 429.879 49.592C429.879 50.552 428.991 50.936 427.839 50.936C426.519 50.936 425.559 50.288 425.175 49.208L422.943 50.504C423.711 52.232 425.439 53.312 427.839 53.312C430.431 53.312 432.519 52.016 432.519 49.616C432.519 45.176 426.063 46.496 426.063 44.312ZM441.024 43.496V41H438.048V37.64L435.456 38.408V41H433.248V43.496H435.456V49.256C435.456 52.376 437.04 53.48 441.024 53V50.672C439.056 50.768 438.048 50.792 438.048 49.256V43.496H441.024ZM448.547 53.312C452.075 53.312 454.883 50.552 454.883 47C454.883 43.424 452.075 40.688 448.547 40.688C445.043 40.688 442.211 43.424 442.211 47C442.211 50.552 445.043 53.312 448.547 53.312ZM448.547 50.792C446.435 50.792 444.803 49.184 444.803 47C444.803 44.816 446.435 43.208 448.547 43.208C450.659 43.208 452.291 44.816 452.291 47C452.291 49.184 450.659 50.792 448.547 50.792ZM470.331 40.688C468.723 40.688 467.451 41.336 466.659 42.584C465.963 41.384 464.811 40.688 463.251 40.688C461.763 40.688 460.587 41.264 459.819 42.44V41H457.227V53H459.819V46.28C459.819 44.096 461.019 43.112 462.483 43.112C463.899 43.112 464.739 44.048 464.739 45.728V53H467.331V46.28C467.331 44.096 468.411 43.112 469.947 43.112C471.363 43.112 472.275 44.048 472.275 45.728V53H474.867V45.56C474.867 42.56 473.043 40.688 470.331 40.688ZM479.681 48.104H489.233C489.281 47.768 489.329 47.384 489.329 47.024C489.329 43.568 486.881 40.688 483.305 40.688C479.537 40.688 476.969 43.448 476.969 47C476.969 50.6 479.537 53.312 483.497 53.312C485.849 53.312 487.649 52.328 488.753 50.696L486.617 49.448C486.041 50.288 484.961 50.936 483.521 50.936C481.601 50.936 480.089 49.976 479.681 48.104ZM479.657 45.992C480.017 44.192 481.337 43.04 483.281 43.04C484.841 43.04 486.353 43.928 486.713 45.992H479.657ZM494.202 43.016V41H491.61V53H494.202V46.952C494.202 44.264 496.194 43.472 497.898 43.592V40.784C496.386 40.784 494.922 41.384 494.202 43.016ZM511.477 53.312C513.829 53.312 515.869 52.088 516.877 50.192L514.645 48.92C514.069 50.024 512.893 50.768 511.453 50.768C509.341 50.768 507.733 49.16 507.733 47C507.733 44.84 509.341 43.232 511.453 43.232C512.893 43.232 514.069 43.952 514.597 45.08L516.829 43.784C515.869 41.912 513.829 40.688 511.477 40.688C507.853 40.688 505.141 43.424 505.141 47C505.141 50.552 507.853 53.312 511.477 53.312ZM524.227 53.312C527.755 53.312 530.563 50.552 530.563 47C530.563 43.424 527.755 40.688 524.227 40.688C520.723 40.688 517.891 43.424 517.891 47C517.891 50.552 520.723 53.312 524.227 53.312ZM524.227 50.792C522.115 50.792 520.483 49.184 520.483 47C520.483 44.816 522.115 43.208 524.227 43.208C526.339 43.208 527.971 44.816 527.971 47C527.971 49.184 526.339 50.792 524.227 50.792ZM546.011 40.688C544.403 40.688 543.131 41.336 542.339 42.584C541.643 41.384 540.491 40.688 538.931 40.688C537.443 40.688 536.267 41.264 535.499 42.44V41H532.907V53H535.499V46.28C535.499 44.096 536.699 43.112 538.163 43.112C539.579 43.112 540.419 44.048 540.419 45.728V53H543.011V46.28C543.011 44.096 544.091 43.112 545.627 43.112C547.043 43.112 547.955 44.048 547.955 45.728V53H550.547V45.56C550.547 42.56 548.723 40.688 546.011 40.688ZM560.113 40.688C558.241 40.688 556.825 41.456 555.913 42.728V41H553.321V57.8H555.913V51.296C556.825 52.544 558.241 53.312 560.113 53.312C563.377 53.312 566.089 50.576 566.089 47C566.089 43.448 563.377 40.688 560.113 40.688ZM559.705 50.84C557.545 50.84 555.913 49.232 555.913 47C555.913 44.768 557.545 43.16 559.705 43.16C561.865 43.16 563.497 44.768 563.497 47C563.497 49.232 561.865 50.84 559.705 50.84ZM568.438 53H571.03V35.48H568.438V53ZM583.543 41V42.704C582.631 41.456 581.215 40.688 579.343 40.688C576.079 40.688 573.367 43.424 573.367 47C573.367 50.552 576.079 53.312 579.343 53.312C581.215 53.312 582.631 52.544 583.543 51.272V53H586.135V41H583.543ZM579.751 50.84C577.591 50.84 575.959 49.232 575.959 47C575.959 44.768 577.591 43.16 579.751 43.16C581.911 43.16 583.543 44.768 583.543 47C583.543 49.232 581.911 50.84 579.751 50.84ZM590.453 39.2C591.365 39.2 592.109 38.432 592.109 37.544C592.109 36.632 591.365 35.888 590.453 35.888C589.541 35.888 588.797 36.632 588.797 37.544C588.797 38.432 589.541 39.2 590.453 39.2ZM589.157 53H591.749V41H589.157V53ZM601.07 40.688C599.438 40.688 598.142 41.288 597.35 42.536V41H594.758V53H597.35V46.568C597.35 44.12 598.694 43.112 600.398 43.112C602.03 43.112 603.086 44.072 603.086 45.896V53H605.678V45.632C605.678 42.512 603.758 40.688 601.07 40.688ZM615.165 43.496V41H612.189V37.64L609.597 38.408V41H607.389V43.496H609.597V49.256C609.597 52.376 611.181 53.48 615.165 53V50.672C613.197 50.768 612.189 50.792 612.189 49.256V43.496H615.165ZM619.399 44.312C619.399 43.448 620.215 43.04 621.151 43.04C622.135 43.04 622.975 43.472 623.407 44.408L625.591 43.184C624.751 41.6 623.119 40.688 621.151 40.688C618.703 40.688 616.759 42.104 616.759 44.36C616.759 48.656 623.215 47.456 623.215 49.592C623.215 50.552 622.327 50.936 621.175 50.936C619.855 50.936 618.895 50.288 618.511 49.208L616.279 50.504C617.047 52.232 618.775 53.312 621.175 53.312C623.767 53.312 625.855 52.016 625.855 49.616C625.855 45.176 619.399 46.496 619.399 44.312Z" fill="#1A1A1A"/>
<path d="M279 11H649V9H279V11ZM656 18V71H658V18H656ZM649 78H279V80H649V78ZM272 71V18H270V71H272ZM279 78C275.134 78 272 74.866 272 71H270C270 75.9706 274.029 80 279 80V78ZM656 71C656 74.866 652.866 78 649 78V80C653.971 80 658 75.9706 658 71H656ZM649 11C652.866 11 656 14.134 656 18H658C658 13.0294 653.971 9 649 9V11ZM279 9C274.029 9 270 13.0294 270 18H272C272 14.134 275.134 11 279 11V9Z" fill="#E5E5E5"/>
<path d="M70 134C70 129.582 73.5817 126 78 126H496C500.418 126 504 129.582 504 134V174C504 178.418 500.418 182 496 182H78C73.5817 182 70 178.418 70 174V134Z" fill="white"/>
<path d="M102.493 158.076V154.52H106.833V153.596H102.493V150.124H107.183V149.2H101.513V159H107.253V158.076H102.493ZM114.676 159L111.946 155.374L114.494 152H113.388L111.386 154.646L109.384 152H108.278L110.84 155.374L108.096 159H109.202L111.386 156.116L113.57 159H114.676ZM121.461 152V153.372C120.873 152.434 119.879 151.832 118.633 151.832C116.659 151.832 115.021 153.428 115.021 155.5C115.021 157.572 116.659 159.168 118.633 159.168C119.879 159.168 120.873 158.566 121.461 157.628V159H122.385V152H121.461ZM118.703 158.272C117.149 158.272 115.945 157.054 115.945 155.5C115.945 153.946 117.149 152.728 118.703 152.728C120.257 152.728 121.461 153.946 121.461 155.5C121.461 157.054 120.257 158.272 118.703 158.272ZM131.803 151.832C130.907 151.832 130.053 152.238 129.535 153.106C129.143 152.294 128.387 151.832 127.407 151.832C126.567 151.832 125.811 152.168 125.265 153.022V152H124.341V159H125.265V155.122C125.265 153.386 126.273 152.728 127.281 152.728C128.275 152.728 128.919 153.386 128.919 154.632V159H129.843V155.122C129.843 153.386 130.711 152.728 131.789 152.728C132.783 152.728 133.497 153.386 133.497 154.632V159H134.421V154.632C134.421 152.882 133.343 151.832 131.803 151.832ZM136.671 150.516C137.049 150.516 137.343 150.208 137.343 149.844C137.343 149.48 137.049 149.172 136.671 149.172C136.293 149.172 135.999 149.48 135.999 149.844C135.999 150.208 136.293 150.516 136.671 150.516ZM136.209 159H137.133V152H136.209V159ZM142.369 151.832C141.375 151.832 140.563 152.21 140.017 153.092V152H139.093V159H140.017V155.332C140.017 153.456 141.053 152.728 142.285 152.728C143.503 152.728 144.189 153.456 144.189 154.702V159H145.113V154.702C145.113 152.952 144.077 151.832 142.369 151.832ZM150.134 151.832C147.964 151.832 146.48 153.442 146.48 155.5C146.48 157.614 147.992 159.168 150.204 159.168C151.618 159.168 152.696 158.51 153.284 157.558L152.472 157.082C152.094 157.754 151.324 158.272 150.218 158.272C148.734 158.272 147.628 157.39 147.432 155.962H153.578C153.592 155.822 153.606 155.668 153.606 155.528C153.606 153.61 152.276 151.832 150.134 151.832ZM150.134 152.728C151.338 152.728 152.458 153.526 152.654 155.066H147.432C147.614 153.694 148.664 152.728 150.134 152.728ZM167.004 152L165.282 157.81L163.448 152H162.524L160.69 157.81L158.968 152H158.016L160.172 159H161.18L162.986 153.358L164.792 159H165.8L167.956 152H167.004ZM172.625 151.832C171.631 151.832 170.819 152.21 170.273 153.092V149.2H169.349V159H170.273V155.332C170.273 153.456 171.309 152.728 172.541 152.728C173.759 152.728 174.445 153.456 174.445 154.702V159H175.369V154.702C175.369 152.952 174.333 151.832 172.625 151.832ZM180.39 151.832C178.22 151.832 176.736 153.442 176.736 155.5C176.736 157.614 178.248 159.168 180.46 159.168C181.874 159.168 182.952 158.51 183.54 157.558L182.728 157.082C182.35 157.754 181.58 158.272 180.474 158.272C178.99 158.272 177.884 157.39 177.688 155.962H183.834C183.848 155.822 183.862 155.668 183.862 155.528C183.862 153.61 182.532 151.832 180.39 151.832ZM180.39 152.728C181.594 152.728 182.714 153.526 182.91 155.066H177.688C177.87 153.694 178.92 152.728 180.39 152.728ZM188.836 152.896V152H186.82V150.04L185.896 150.32V152H184.426V152.896H185.896V157.138C185.896 158.818 186.946 159.28 188.836 159V158.188C187.478 158.244 186.82 158.342 186.82 157.138V152.896H188.836ZM193.652 151.832C192.658 151.832 191.846 152.21 191.3 153.092V149.2H190.376V159H191.3V155.332C191.3 153.456 192.336 152.728 193.568 152.728C194.786 152.728 195.472 153.456 195.472 154.702V159H196.396V154.702C196.396 152.952 195.36 151.832 193.652 151.832ZM201.417 151.832C199.247 151.832 197.763 153.442 197.763 155.5C197.763 157.614 199.275 159.168 201.487 159.168C202.901 159.168 203.979 158.51 204.567 157.558L203.755 157.082C203.377 157.754 202.607 158.272 201.501 158.272C200.017 158.272 198.911 157.39 198.715 155.962H204.861C204.875 155.822 204.889 155.668 204.889 155.528C204.889 153.61 203.559 151.832 201.417 151.832ZM201.417 152.728C202.621 152.728 203.741 153.526 203.937 155.066H198.715C198.897 153.694 199.947 152.728 201.417 152.728ZM207.283 153.162V152H206.359V159H207.283V155.108C207.283 153.372 208.375 152.784 209.495 152.784V151.888C208.599 151.888 207.773 152.182 207.283 153.162ZM221.723 151.832C220.827 151.832 219.973 152.238 219.455 153.106C219.063 152.294 218.307 151.832 217.327 151.832C216.487 151.832 215.731 152.168 215.185 153.022V152H214.261V159H215.185V155.122C215.185 153.386 216.193 152.728 217.201 152.728C218.195 152.728 218.839 153.386 218.839 154.632V159H219.763V155.122C219.763 153.386 220.631 152.728 221.709 152.728C222.703 152.728 223.417 153.386 223.417 154.632V159H224.341V154.632C224.341 152.882 223.263 151.832 221.723 151.832ZM226.59 150.516C226.968 150.516 227.262 150.208 227.262 149.844C227.262 149.48 226.968 149.172 226.59 149.172C226.212 149.172 225.918 149.48 225.918 149.844C225.918 150.208 226.212 150.516 226.59 150.516ZM226.128 159H227.052V152H226.128V159ZM229.741 153.834C229.741 153.078 230.483 152.728 231.211 152.728C231.883 152.728 232.597 152.994 232.891 153.708L233.661 153.26C233.255 152.392 232.359 151.832 231.211 151.832C229.811 151.832 228.817 152.714 228.817 153.834C228.817 156.41 232.905 155.416 232.905 157.152C232.905 157.978 232.121 158.272 231.295 158.272C230.357 158.272 229.629 157.81 229.377 157.096L228.593 157.558C228.943 158.454 229.895 159.168 231.295 159.168C232.793 159.168 233.829 158.342 233.829 157.152C233.829 154.576 229.741 155.57 229.741 153.834ZM235.675 153.834C235.675 153.078 236.417 152.728 237.145 152.728C237.817 152.728 238.531 152.994 238.825 153.708L239.595 153.26C239.189 152.392 238.293 151.832 237.145 151.832C235.745 151.832 234.751 152.714 234.751 153.834C234.751 156.41 238.839 155.416 238.839 157.152C238.839 157.978 238.055 158.272 237.229 158.272C236.291 158.272 235.563 157.81 235.311 157.096L234.527 157.558C234.877 158.454 235.829 159.168 237.229 159.168C238.727 159.168 239.763 158.342 239.763 157.152C239.763 154.576 235.675 155.57 235.675 153.834ZM241.698 150.516C242.076 150.516 242.37 150.208 242.37 149.844C242.37 149.48 242.076 149.172 241.698 149.172C241.32 149.172 241.026 149.48 241.026 149.844C241.026 150.208 241.32 150.516 241.698 150.516ZM241.236 159H242.16V152H241.236V159ZM247.397 151.832C246.403 151.832 245.591 152.21 245.045 153.092V152H244.121V159H245.045V155.332C245.045 153.456 246.081 152.728 247.313 152.728C248.531 152.728 249.217 153.456 249.217 154.702V159H250.141V154.702C250.141 152.952 249.105 151.832 247.397 151.832ZM257.947 152V153.372C257.359 152.434 256.365 151.832 255.119 151.832C253.145 151.832 251.507 153.428 251.507 155.5C251.507 157.572 253.145 159.168 255.119 159.168C256.365 159.168 257.359 158.566 257.947 157.628V158.72C257.947 160.148 256.981 161.072 255.357 161.072C253.845 161.072 253.201 160.512 252.851 159.798L252.039 160.26C252.585 161.352 253.747 161.968 255.357 161.968C257.163 161.968 258.871 160.848 258.871 158.72V152H257.947ZM255.189 158.272C253.635 158.272 252.431 157.054 252.431 155.5C252.431 153.946 253.635 152.728 255.189 152.728C256.743 152.728 257.947 153.946 257.947 155.5C257.947 157.054 256.743 158.272 255.189 158.272ZM264.79 150.516C265.168 150.516 265.462 150.208 265.462 149.844C265.462 149.48 265.168 149.172 264.79 149.172C264.412 149.172 264.118 149.48 264.118 149.844C264.118 150.208 264.412 150.516 264.79 150.516ZM264.328 159H265.252V152H264.328V159ZM270.922 152.896V152H268.906V150.04L267.982 150.32V152H266.512V152.896H267.982V157.138C267.982 158.818 269.032 159.28 270.922 159V158.188C269.564 158.244 268.906 158.342 268.906 157.138V152.896H270.922ZM275.273 151.832C273.103 151.832 271.619 153.442 271.619 155.5C271.619 157.614 273.131 159.168 275.343 159.168C276.757 159.168 277.835 158.51 278.423 157.558L277.611 157.082C277.233 157.754 276.463 158.272 275.357 158.272C273.873 158.272 272.767 157.39 272.571 155.962H278.717C278.731 155.822 278.745 155.668 278.745 155.528C278.745 153.61 277.415 151.832 275.273 151.832ZM275.273 152.728C276.477 152.728 277.597 153.526 277.793 155.066H272.571C272.753 153.694 273.803 152.728 275.273 152.728ZM287.676 151.832C286.78 151.832 285.926 152.238 285.408 153.106C285.016 152.294 284.26 151.832 283.28 151.832C282.44 151.832 281.684 152.168 281.138 153.022V152H280.214V159H281.138V155.122C281.138 153.386 282.146 152.728 283.154 152.728C284.148 152.728 284.792 153.386 284.792 154.632V159H285.716V155.122C285.716 153.386 286.584 152.728 287.662 152.728C288.656 152.728 289.37 153.386 289.37 154.632V159H290.294V154.632C290.294 152.882 289.216 151.832 287.676 151.832ZM292.81 153.834C292.81 153.078 293.552 152.728 294.28 152.728C294.952 152.728 295.666 152.994 295.96 153.708L296.73 153.26C296.324 152.392 295.428 151.832 294.28 151.832C292.88 151.832 291.886 152.714 291.886 153.834C291.886 156.41 295.974 155.416 295.974 157.152C295.974 157.978 295.19 158.272 294.364 158.272C293.426 158.272 292.698 157.81 292.446 157.096L291.662 157.558C292.012 158.454 292.964 159.168 294.364 159.168C295.862 159.168 296.898 158.342 296.898 157.152C296.898 154.576 292.81 155.57 292.81 153.834ZM310.367 152L308.645 157.81L306.811 152H305.887L304.053 157.81L302.331 152H301.379L303.535 159H304.543L306.349 153.358L308.155 159H309.163L311.319 152H310.367ZM315.673 151.832C313.503 151.832 312.019 153.442 312.019 155.5C312.019 157.614 313.531 159.168 315.743 159.168C317.157 159.168 318.235 158.51 318.823 157.558L318.011 157.082C317.633 157.754 316.863 158.272 315.757 158.272C314.273 158.272 313.167 157.39 312.971 155.962H319.117C319.131 155.822 319.145 155.668 319.145 155.528C319.145 153.61 317.815 151.832 315.673 151.832ZM315.673 152.728C316.877 152.728 317.997 153.526 318.193 155.066H312.971C313.153 153.694 314.203 152.728 315.673 152.728ZM321.539 153.162V152H320.615V159H321.539V155.108C321.539 153.372 322.631 152.784 323.751 152.784V151.888C322.855 151.888 322.029 152.182 321.539 153.162ZM327.827 151.832C325.657 151.832 324.173 153.442 324.173 155.5C324.173 157.614 325.685 159.168 327.897 159.168C329.311 159.168 330.389 158.51 330.977 157.558L330.165 157.082C329.787 157.754 329.017 158.272 327.911 158.272C326.427 158.272 325.321 157.39 325.125 155.962H331.271C331.285 155.822 331.299 155.668 331.299 155.528C331.299 153.61 329.969 151.832 327.827 151.832ZM327.827 152.728C329.031 152.728 330.151 153.526 330.347 155.066H325.125C325.307 153.694 326.357 152.728 327.827 152.728ZM337.193 153.162V152H336.269V159H337.193V155.108C337.193 153.372 338.285 152.784 339.405 152.784V151.888C338.509 151.888 337.683 152.182 337.193 153.162ZM343.482 151.832C341.312 151.832 339.828 153.442 339.828 155.5C339.828 157.614 341.34 159.168 343.552 159.168C344.966 159.168 346.044 158.51 346.632 157.558L345.82 157.082C345.442 157.754 344.672 158.272 343.566 158.272C342.082 158.272 340.976 157.39 340.78 155.962H346.926C346.94 155.822 346.954 155.668 346.954 155.528C346.954 153.61 345.624 151.832 343.482 151.832ZM343.482 152.728C344.686 152.728 345.806 153.526 346.002 155.066H340.78C340.962 153.694 342.012 152.728 343.482 152.728ZM352.175 151.832C350.929 151.832 349.935 152.434 349.347 153.372V152H348.423V161.8H349.347V157.628C349.935 158.566 350.929 159.168 352.175 159.168C354.149 159.168 355.787 157.572 355.787 155.5C355.787 153.428 354.149 151.832 352.175 151.832ZM352.105 158.272C350.551 158.272 349.347 157.054 349.347 155.5C349.347 153.946 350.551 152.728 352.105 152.728C353.659 152.728 354.863 153.946 354.863 155.5C354.863 157.054 353.659 158.272 352.105 158.272ZM357.324 159H358.248V148.78H357.324V159ZM366.229 152V153.372C365.641 152.434 364.647 151.832 363.401 151.832C361.427 151.832 359.789 153.428 359.789 155.5C359.789 157.572 361.427 159.168 363.401 159.168C364.647 159.168 365.641 158.566 366.229 157.628V159H367.153V152H366.229ZM363.471 158.272C361.917 158.272 360.713 157.054 360.713 155.5C360.713 153.946 361.917 152.728 363.471 152.728C365.025 152.728 366.229 153.946 366.229 155.5C366.229 157.054 365.025 158.272 363.471 158.272ZM372.371 159.168C373.743 159.168 374.933 158.454 375.507 157.348L374.737 156.9C374.289 157.712 373.435 158.272 372.371 158.272C370.817 158.272 369.613 157.054 369.613 155.5C369.613 153.946 370.817 152.728 372.371 152.728C373.421 152.728 374.303 153.274 374.681 154.1L375.437 153.666C374.933 152.56 373.757 151.832 372.371 151.832C370.257 151.832 368.689 153.428 368.689 155.5C368.689 157.572 370.257 159.168 372.371 159.168ZM379.999 151.832C377.829 151.832 376.345 153.442 376.345 155.5C376.345 157.614 377.857 159.168 380.069 159.168C381.483 159.168 382.561 158.51 383.149 157.558L382.337 157.082C381.959 157.754 381.189 158.272 380.083 158.272C378.599 158.272 377.493 157.39 377.297 155.962H383.443C383.457 155.822 383.471 155.668 383.471 155.528C383.471 153.61 382.141 151.832 379.999 151.832ZM379.999 152.728C381.203 152.728 382.323 153.526 382.519 155.066H377.297C377.479 153.694 378.529 152.728 379.999 152.728ZM390.961 149.2V153.372C390.373 152.434 389.379 151.832 388.133 151.832C386.159 151.832 384.521 153.428 384.521 155.5C384.521 157.572 386.159 159.168 388.133 159.168C389.379 159.168 390.373 158.566 390.961 157.628V159H391.885V149.2H390.961ZM388.203 158.272C386.649 158.272 385.445 157.054 385.445 155.5C385.445 153.946 386.649 152.728 388.203 152.728C389.757 152.728 390.961 153.946 390.961 155.5C390.961 157.054 389.757 158.272 388.203 158.272ZM400.603 159.168C402.647 159.168 404.285 157.572 404.285 155.5C404.285 153.428 402.647 151.832 400.603 151.832C398.559 151.832 396.921 153.428 396.921 155.5C396.921 157.572 398.559 159.168 400.603 159.168ZM400.603 158.272C399.049 158.272 397.845 157.054 397.845 155.5C397.845 153.946 399.049 152.728 400.603 152.728C402.157 152.728 403.361 153.946 403.361 155.5C403.361 157.054 402.157 158.272 400.603 158.272ZM406.756 153.162V152H405.832V159H406.756V155.108C406.756 153.372 407.848 152.784 408.968 152.784V151.888C408.072 151.888 407.246 152.182 406.756 153.162ZM418.662 152V155.668C418.662 157.544 417.626 158.272 416.394 158.272C415.176 158.272 414.49 157.544 414.49 156.298V152H413.566V156.298C413.566 158.048 414.602 159.168 416.31 159.168C417.304 159.168 418.116 158.79 418.662 157.908V159H419.586V152H418.662ZM424.817 151.832C423.823 151.832 423.011 152.21 422.465 153.092V152H421.541V159H422.465V155.332C422.465 153.456 423.501 152.728 424.733 152.728C425.951 152.728 426.637 153.456 426.637 154.702V159H427.561V154.702C427.561 152.952 426.525 151.832 424.817 151.832ZM432.847 149.928V149.032C430.957 148.892 429.907 149.9 429.907 151.72V152H428.717V152.896H429.907V159H430.831V152.896H432.847V152H430.831V151.72C430.831 150.376 431.489 149.816 432.847 149.928ZM438.76 152V155.668C438.76 157.544 437.724 158.272 436.492 158.272C435.274 158.272 434.588 157.544 434.588 156.298V152H433.664V156.298C433.664 158.048 434.7 159.168 436.408 159.168C437.402 159.168 438.214 158.79 438.76 157.908V159H439.684V152H438.76ZM441.638 159H442.562V148.78H441.638V159ZM449.787 152H446.007V151.72C446.007 150.376 446.665 149.928 448.023 149.928C448.457 149.928 448.877 149.956 449.367 150.04V149.2C448.863 149.088 448.443 149.032 448.023 149.032C446.133 149.032 445.083 149.9 445.083 151.72V152H443.893V152.896H445.083V159H446.007V152.896H448.863V159H449.787V152ZM451.742 159H452.666V148.78H451.742V159ZM454.626 159H455.55V148.78H454.626V159ZM460.745 151.832C458.575 151.832 457.091 153.442 457.091 155.5C457.091 157.614 458.603 159.168 460.815 159.168C462.229 159.168 463.307 158.51 463.895 157.558L463.083 157.082C462.705 157.754 461.935 158.272 460.829 158.272C459.345 158.272 458.239 157.39 458.043 155.962H464.189C464.203 155.822 464.217 155.668 464.217 155.528C464.217 153.61 462.887 151.832 460.745 151.832ZM460.745 152.728C461.949 152.728 463.069 153.526 463.265 155.066H458.043C458.225 153.694 459.275 152.728 460.745 152.728ZM471.707 149.2V153.372C471.119 152.434 470.125 151.832 468.879 151.832C466.905 151.832 465.267 153.428 465.267 155.5C465.267 157.572 466.905 159.168 468.879 159.168C470.125 159.168 471.119 158.566 471.707 157.628V159H472.631V149.2H471.707ZM468.949 158.272C467.395 158.272 466.191 157.054 466.191 155.5C466.191 153.946 467.395 152.728 468.949 152.728C470.503 152.728 471.707 153.946 471.707 155.5C471.707 157.054 470.503 158.272 468.949 158.272Z" fill="#1A1A1A"/>
<path d="M78 127H496V125H78V127ZM503 134V174H505V134H503ZM496 181H78V183H496V181ZM71 174V134H69V174H71ZM78 181C74.134 181 71 177.866 71 174H69C69 178.971 73.0294 183 78 183V181ZM503 174C503 177.866 499.866 181 496 181V183C500.971 183 505 178.971 505 174H503ZM496 127C499.866 127 503 130.134 503 134H505C505 129.029 500.971 125 496 125V127ZM78 125C73.0294 125 69 129.029 69 134H71C71 130.134 74.134 127 78 127V125Z" fill="#E5E5E5"/>
<path d="M398 222C398 217.582 401.582 214 406 214H765C769.418 214 773 217.582 773 222V262C773 266.418 769.418 270 765 270H406C401.582 270 398 266.418 398 262V222Z" fill="white"/>
<path d="M434.855 238.124V237.2H429.325V247H430.305V242.66H434.645V241.736H430.305V238.124H434.855ZM439.652 247.168C441.696 247.168 443.334 245.572 443.334 243.5C443.334 241.428 441.696 239.832 439.652 239.832C437.608 239.832 435.97 241.428 435.97 243.5C435.97 245.572 437.608 247.168 439.652 247.168ZM439.652 246.272C438.098 246.272 436.894 245.054 436.894 243.5C436.894 241.946 438.098 240.728 439.652 240.728C441.206 240.728 442.41 241.946 442.41 243.5C442.41 245.054 441.206 246.272 439.652 246.272ZM444.88 247H445.804V236.78H444.88V247ZM447.765 247H448.689V236.78H447.765V247ZM453.912 247.168C455.956 247.168 457.594 245.572 457.594 243.5C457.594 241.428 455.956 239.832 453.912 239.832C451.868 239.832 450.23 241.428 450.23 243.5C450.23 245.572 451.868 247.168 453.912 247.168ZM453.912 246.272C452.358 246.272 451.154 245.054 451.154 243.5C451.154 241.946 452.358 240.728 453.912 240.728C455.466 240.728 456.67 241.946 456.67 243.5C456.67 245.054 455.466 246.272 453.912 246.272ZM467.295 240L465.573 245.81L463.739 240H462.815L460.981 245.81L459.259 240H458.307L460.463 247H461.471L463.277 241.358L465.083 247H466.091L468.247 240H467.295ZM478.068 240V243.668C478.068 245.544 477.032 246.272 475.8 246.272C474.582 246.272 473.896 245.544 473.896 244.298V240H472.972V244.298C472.972 246.048 474.008 247.168 475.716 247.168C476.71 247.168 477.522 246.79 478.068 245.908V247H478.992V240H478.068ZM484.699 239.832C483.453 239.832 482.459 240.434 481.871 241.372V240H480.947V249.8H481.871V245.628C482.459 246.566 483.453 247.168 484.699 247.168C486.673 247.168 488.311 245.572 488.311 243.5C488.311 241.428 486.673 239.832 484.699 239.832ZM484.629 246.272C483.075 246.272 481.871 245.054 481.871 243.5C481.871 241.946 483.075 240.728 484.629 240.728C486.183 240.728 487.387 241.946 487.387 243.5C487.387 245.054 486.183 246.272 484.629 246.272ZM501.775 240L500.053 245.81L498.219 240H497.295L495.461 245.81L493.739 240H492.787L494.943 247H495.951L497.757 241.358L499.563 247H500.571L502.727 240H501.775ZM504.583 238.516C504.961 238.516 505.255 238.208 505.255 237.844C505.255 237.48 504.961 237.172 504.583 237.172C504.205 237.172 503.911 237.48 503.911 237.844C503.911 238.208 504.205 238.516 504.583 238.516ZM504.121 247H505.045V240H504.121V247ZM510.715 240.896V240H508.699V238.04L507.775 238.32V240H506.305V240.896H507.775V245.138C507.775 246.818 508.825 247.28 510.715 247V246.188C509.357 246.244 508.699 246.342 508.699 245.138V240.896H510.715ZM515.531 239.832C514.537 239.832 513.725 240.21 513.179 241.092V237.2H512.255V247H513.179V243.332C513.179 241.456 514.215 240.728 515.447 240.728C516.665 240.728 517.351 241.456 517.351 242.702V247H518.275V242.702C518.275 240.952 517.239 239.832 515.531 239.832ZM527.314 239.832C526.068 239.832 525.074 240.434 524.486 241.372V240H523.562V249.8H524.486V245.628C525.074 246.566 526.068 247.168 527.314 247.168C529.288 247.168 530.926 245.572 530.926 243.5C530.926 241.428 529.288 239.832 527.314 239.832ZM527.244 246.272C525.69 246.272 524.486 245.054 524.486 243.5C524.486 241.946 525.69 240.728 527.244 240.728C528.798 240.728 530.002 241.946 530.002 243.5C530.002 245.054 528.798 246.272 527.244 246.272ZM532.924 238.516C533.302 238.516 533.596 238.208 533.596 237.844C533.596 237.48 533.302 237.172 532.924 237.172C532.546 237.172 532.252 237.48 532.252 237.844C532.252 238.208 532.546 238.516 532.924 238.516ZM532.462 247H533.386V240H532.462V247ZM538.609 247.168C539.981 247.168 541.171 246.454 541.745 245.348L540.975 244.9C540.527 245.712 539.673 246.272 538.609 246.272C537.055 246.272 535.851 245.054 535.851 243.5C535.851 241.946 537.055 240.728 538.609 240.728C539.659 240.728 540.541 241.274 540.919 242.1L541.675 241.666C541.171 240.56 539.995 239.832 538.609 239.832C536.495 239.832 534.927 241.428 534.927 243.5C534.927 245.572 536.495 247.168 538.609 247.168ZM548.728 247L544.976 243.36L548.588 240H547.328L543.996 243.094V237.2H543.072V247H543.996V243.626L547.496 247H548.728ZM552.527 239.832C550.357 239.832 548.873 241.442 548.873 243.5C548.873 245.614 550.385 247.168 552.597 247.168C554.011 247.168 555.089 246.51 555.677 245.558L554.865 245.082C554.487 245.754 553.717 246.272 552.611 246.272C551.127 246.272 550.021 245.39 549.825 243.962H555.971C555.985 243.822 555.999 243.668 555.999 243.528C555.999 241.61 554.669 239.832 552.527 239.832ZM552.527 240.728C553.731 240.728 554.851 241.526 555.047 243.066H549.825C550.007 241.694 551.057 240.728 552.527 240.728ZM558.392 241.162V240H557.468V247H558.392V243.108C558.392 241.372 559.484 240.784 560.604 240.784V239.888C559.708 239.888 558.882 240.182 558.392 241.162ZM562.325 241.834C562.325 241.078 563.067 240.728 563.795 240.728C564.467 240.728 565.181 240.994 565.475 241.708L566.245 241.26C565.839 240.392 564.943 239.832 563.795 239.832C562.395 239.832 561.401 240.714 561.401 241.834C561.401 244.41 565.489 243.416 565.489 245.152C565.489 245.978 564.705 246.272 563.879 246.272C562.941 246.272 562.213 245.81 561.961 245.096L561.177 245.558C561.527 246.454 562.479 247.168 563.879 247.168C565.377 247.168 566.413 246.342 566.413 245.152C566.413 242.576 562.325 243.57 562.325 241.834ZM572.379 241.162V240H571.455V247H572.379V243.108C572.379 241.372 573.471 240.784 574.591 240.784V239.888C573.695 239.888 572.869 240.182 572.379 241.162ZM578.667 239.832C576.497 239.832 575.013 241.442 575.013 243.5C575.013 245.614 576.525 247.168 578.737 247.168C580.151 247.168 581.229 246.51 581.817 245.558L581.005 245.082C580.627 245.754 579.857 246.272 578.751 246.272C577.267 246.272 576.161 245.39 575.965 243.962H582.111C582.125 243.822 582.139 243.668 582.139 243.528C582.139 241.61 580.809 239.832 578.667 239.832ZM578.667 240.728C579.871 240.728 580.991 241.526 581.187 243.066H575.965C576.147 241.694 577.197 240.728 578.667 240.728ZM589.629 240V241.372C589.041 240.434 588.047 239.832 586.801 239.832C584.827 239.832 583.189 241.428 583.189 243.5C583.189 245.572 584.827 247.168 586.801 247.168C588.047 247.168 589.041 246.566 589.629 245.628V246.72C589.629 248.148 588.663 249.072 587.039 249.072C585.527 249.072 584.883 248.512 584.533 247.798L583.721 248.26C584.267 249.352 585.429 249.968 587.039 249.968C588.845 249.968 590.553 248.848 590.553 246.72V240H589.629ZM586.871 246.272C585.317 246.272 584.113 245.054 584.113 243.5C584.113 241.946 585.317 240.728 586.871 240.728C588.425 240.728 589.629 241.946 589.629 243.5C589.629 245.054 588.425 246.272 586.871 246.272ZM598.529 240V241.372C597.941 240.434 596.947 239.832 595.701 239.832C593.727 239.832 592.089 241.428 592.089 243.5C592.089 245.572 593.727 247.168 595.701 247.168C596.947 247.168 597.941 246.566 598.529 245.628V247H599.453V240H598.529ZM595.771 246.272C594.217 246.272 593.013 245.054 593.013 243.5C593.013 241.946 594.217 240.728 595.771 240.728C597.325 240.728 598.529 241.946 598.529 243.5C598.529 245.054 597.325 246.272 595.771 246.272ZM602.334 241.162V240H601.41V247H602.334V243.108C602.334 241.372 603.426 240.784 604.546 240.784V239.888C603.65 239.888 602.824 240.182 602.334 241.162ZM611.408 237.2V241.372C610.82 240.434 609.826 239.832 608.58 239.832C606.606 239.832 604.968 241.428 604.968 243.5C604.968 245.572 606.606 247.168 608.58 247.168C609.826 247.168 610.82 246.566 611.408 245.628V247H612.332V237.2H611.408ZM608.65 246.272C607.096 246.272 605.892 245.054 605.892 243.5C605.892 241.946 607.096 240.728 608.65 240.728C610.204 240.728 611.408 241.946 611.408 243.5C611.408 245.054 610.204 246.272 608.65 246.272ZM614.751 238.516C615.129 238.516 615.423 238.208 615.423 237.844C615.423 237.48 615.129 237.172 614.751 237.172C614.373 237.172 614.079 237.48 614.079 237.844C614.079 238.208 614.373 238.516 614.751 238.516ZM614.289 247H615.213V240H614.289V247ZM620.449 239.832C619.455 239.832 618.643 240.21 618.097 241.092V240H617.173V247H618.097V243.332C618.097 241.456 619.133 240.728 620.365 240.728C621.583 240.728 622.269 241.456 622.269 242.702V247H623.193V242.702C623.193 240.952 622.157 239.832 620.449 239.832ZM631 240V241.372C630.412 240.434 629.418 239.832 628.172 239.832C626.198 239.832 624.56 241.428 624.56 243.5C624.56 245.572 626.198 247.168 628.172 247.168C629.418 247.168 630.412 246.566 631 245.628V246.72C631 248.148 630.034 249.072 628.41 249.072C626.898 249.072 626.254 248.512 625.904 247.798L625.092 248.26C625.638 249.352 626.8 249.968 628.41 249.968C630.216 249.968 631.924 248.848 631.924 246.72V240H631ZM628.242 246.272C626.688 246.272 625.484 245.054 625.484 243.5C625.484 241.946 626.688 240.728 628.242 240.728C629.796 240.728 631 241.946 631 243.5C631 245.054 629.796 246.272 628.242 246.272ZM643.4 240V241.372C642.812 240.434 641.818 239.832 640.572 239.832C638.598 239.832 636.96 241.428 636.96 243.5C636.96 245.572 638.598 247.168 640.572 247.168C641.818 247.168 642.812 246.566 643.4 245.628V247H644.324V240H643.4ZM640.642 246.272C639.088 246.272 637.884 245.054 637.884 243.5C637.884 241.946 639.088 240.728 640.642 240.728C642.196 240.728 643.4 241.946 643.4 243.5C643.4 245.054 642.196 246.272 640.642 246.272ZM649.557 239.832C648.563 239.832 647.751 240.21 647.205 241.092V240H646.281V247H647.205V243.332C647.205 241.456 648.241 240.728 649.473 240.728C650.691 240.728 651.377 241.456 651.377 242.702V247H652.301V242.702C652.301 240.952 651.265 239.832 649.557 239.832ZM658.991 240L656.723 245.866L654.091 240H653.111L656.247 247.042L656.065 247.476C655.687 248.386 655.057 249.03 654.147 248.932V249.8C655.407 249.898 656.443 248.988 656.975 247.644L659.971 240H658.991ZM670.607 240V241.372C670.019 240.434 669.025 239.832 667.779 239.832C665.805 239.832 664.167 241.428 664.167 243.5C664.167 245.572 665.805 247.168 667.779 247.168C669.025 247.168 670.019 246.566 670.607 245.628V246.72C670.607 248.148 669.641 249.072 668.017 249.072C666.505 249.072 665.861 248.512 665.511 247.798L664.699 248.26C665.245 249.352 666.407 249.968 668.017 249.968C669.823 249.968 671.531 248.848 671.531 246.72V240H670.607ZM667.849 246.272C666.295 246.272 665.091 245.054 665.091 243.5C665.091 241.946 666.295 240.728 667.849 240.728C669.403 240.728 670.607 241.946 670.607 243.5C670.607 245.054 669.403 246.272 667.849 246.272ZM673.95 238.516C674.328 238.516 674.622 238.208 674.622 237.844C674.622 237.48 674.328 237.172 673.95 237.172C673.572 237.172 673.278 237.48 673.278 237.844C673.278 238.208 673.572 238.516 673.95 238.516ZM673.488 247H674.412V240H673.488V247ZM681.413 240L678.963 246.034L676.513 240H675.533L678.403 247H679.523L682.393 240H681.413ZM686.47 239.832C684.3 239.832 682.816 241.442 682.816 243.5C682.816 245.614 684.328 247.168 686.54 247.168C687.954 247.168 689.032 246.51 689.62 245.558L688.808 245.082C688.43 245.754 687.66 246.272 686.554 246.272C685.07 246.272 683.964 245.39 683.768 243.962H689.914C689.928 243.822 689.942 243.668 689.942 243.528C689.942 241.61 688.612 239.832 686.47 239.832ZM686.47 240.728C687.674 240.728 688.794 241.526 688.99 243.066H683.768C683.95 241.694 685 240.728 686.47 240.728ZM694.688 239.832C693.694 239.832 692.882 240.21 692.336 241.092V240H691.412V247H692.336V243.332C692.336 241.456 693.372 240.728 694.604 240.728C695.822 240.728 696.508 241.456 696.508 242.702V247H697.432V242.702C697.432 240.952 696.396 239.832 694.688 239.832ZM708.738 240V241.372C708.15 240.434 707.156 239.832 705.91 239.832C703.936 239.832 702.298 241.428 702.298 243.5C702.298 245.572 703.936 247.168 705.91 247.168C707.156 247.168 708.15 246.566 708.738 245.628V247H709.662V240H708.738ZM705.98 246.272C704.426 246.272 703.222 245.054 703.222 243.5C703.222 241.946 704.426 240.728 705.98 240.728C707.534 240.728 708.738 241.946 708.738 243.5C708.738 245.054 707.534 246.272 705.98 246.272ZM714.881 247.168C716.253 247.168 717.443 246.454 718.017 245.348L717.247 244.9C716.799 245.712 715.945 246.272 714.881 246.272C713.327 246.272 712.123 245.054 712.123 243.5C712.123 241.946 713.327 240.728 714.881 240.728C715.931 240.728 716.813 241.274 717.191 242.1L717.947 241.666C717.443 240.56 716.267 239.832 714.881 239.832C712.767 239.832 711.199 241.428 711.199 243.5C711.199 245.572 712.767 247.168 714.881 247.168ZM723.053 240.896V240H721.037V238.04L720.113 238.32V240H718.643V240.896H720.113V245.138C720.113 246.818 721.163 247.28 723.053 247V246.188C721.695 246.244 721.037 246.342 721.037 245.138V240.896H723.053ZM725.055 238.516C725.433 238.516 725.727 238.208 725.727 237.844C725.727 237.48 725.433 237.172 725.055 237.172C724.677 237.172 724.383 237.48 724.383 237.844C724.383 238.208 724.677 238.516 725.055 238.516ZM724.593 247H725.517V240H724.593V247ZM730.74 247.168C732.784 247.168 734.422 245.572 734.422 243.5C734.422 241.428 732.784 239.832 730.74 239.832C728.696 239.832 727.058 241.428 727.058 243.5C727.058 245.572 728.696 247.168 730.74 247.168ZM730.74 246.272C729.186 246.272 727.982 245.054 727.982 243.5C727.982 241.946 729.186 240.728 730.74 240.728C732.294 240.728 733.498 241.946 733.498 243.5C733.498 245.054 732.294 246.272 730.74 246.272ZM739.244 239.832C738.25 239.832 737.438 240.21 736.892 241.092V240H735.968V247H736.892V243.332C736.892 241.456 737.928 240.728 739.16 240.728C740.378 240.728 741.064 241.456 741.064 242.702V247H741.988V242.702C741.988 240.952 740.952 239.832 739.244 239.832Z" fill="#1A1A1A"/>
<path d="M406 215H765V213H406V215ZM772 222V262H774V222H772ZM765 269H406V271H765V269ZM399 262V222H397V262H399ZM406 269C402.134 269 399 265.866 399 262H397C397 266.971 401.029 271 406 271V269ZM772 262C772 265.866 768.866 269 765 269V271C769.971 271 774 266.971 774 262H772ZM765 215C768.866 215 772 218.134 772 222H774C774 217.029 769.971 213 765 213V215ZM406 213C401.029 213 397 217.029 397 222H399C399 218.134 402.134 215 406 215V213Z" fill="#E5E5E5"/>
<path d="M1039 143C1039 138.582 1042.58 135 1047 135H1322C1326.42 135 1330 138.582 1330 143V183C1330 187.418 1326.42 191 1322 191H1047C1042.58 191 1039 187.418 1039 183V143Z" fill="white"/>
<path d="M1073.09 168H1074.09L1077.71 158.2H1076.64L1073.59 166.698L1070.54 158.2H1069.47L1073.09 168ZM1079.02 159.516C1079.4 159.516 1079.69 159.208 1079.69 158.844C1079.69 158.48 1079.4 158.172 1079.02 158.172C1078.64 158.172 1078.35 158.48 1078.35 158.844C1078.35 159.208 1078.64 159.516 1079.02 159.516ZM1078.56 168H1079.48V161H1078.56V168ZM1084.68 160.832C1082.51 160.832 1081.02 162.442 1081.02 164.5C1081.02 166.614 1082.54 168.168 1084.75 168.168C1086.16 168.168 1087.24 167.51 1087.83 166.558L1087.02 166.082C1086.64 166.754 1085.87 167.272 1084.76 167.272C1083.28 167.272 1082.17 166.39 1081.98 164.962H1088.12C1088.14 164.822 1088.15 164.668 1088.15 164.528C1088.15 162.61 1086.82 160.832 1084.68 160.832ZM1084.68 161.728C1085.88 161.728 1087 162.526 1087.2 164.066H1081.98C1082.16 162.694 1083.21 161.728 1084.68 161.728ZM1097.77 161L1096.05 166.81L1094.22 161H1093.29L1091.46 166.81L1089.74 161H1088.79L1090.94 168H1091.95L1093.76 162.358L1095.56 168H1096.57L1098.73 161H1097.77ZM1104.35 162.834C1104.35 162.078 1105.09 161.728 1105.82 161.728C1106.49 161.728 1107.2 161.994 1107.5 162.708L1108.27 162.26C1107.86 161.392 1106.97 160.832 1105.82 160.832C1104.42 160.832 1103.42 161.714 1103.42 162.834C1103.42 165.41 1107.51 164.416 1107.51 166.152C1107.51 166.978 1106.73 167.272 1105.9 167.272C1104.96 167.272 1104.24 166.81 1103.98 166.096L1103.2 166.558C1103.55 167.454 1104.5 168.168 1105.9 168.168C1107.4 168.168 1108.44 167.342 1108.44 166.152C1108.44 163.576 1104.35 164.57 1104.35 162.834ZM1113.41 161.896V161H1111.4V159.04L1110.47 159.32V161H1109V161.896H1110.47V166.138C1110.47 167.818 1111.52 168.28 1113.41 168V167.188C1112.06 167.244 1111.4 167.342 1111.4 166.138V161.896H1113.41ZM1120.55 161V162.372C1119.96 161.434 1118.97 160.832 1117.72 160.832C1115.75 160.832 1114.11 162.428 1114.11 164.5C1114.11 166.572 1115.75 168.168 1117.72 168.168C1118.97 168.168 1119.96 167.566 1120.55 166.628V168H1121.47V161H1120.55ZM1117.79 167.272C1116.24 167.272 1115.03 166.054 1115.03 164.5C1115.03 162.946 1116.24 161.728 1117.79 161.728C1119.35 161.728 1120.55 162.946 1120.55 164.5C1120.55 166.054 1119.35 167.272 1117.79 167.272ZM1129.45 161V162.372C1128.86 161.434 1127.87 160.832 1126.62 160.832C1124.65 160.832 1123.01 162.428 1123.01 164.5C1123.01 166.572 1124.65 168.168 1126.62 168.168C1127.87 168.168 1128.86 167.566 1129.45 166.628V167.72C1129.45 169.148 1128.48 170.072 1126.86 170.072C1125.35 170.072 1124.7 169.512 1124.35 168.798L1123.54 169.26C1124.09 170.352 1125.25 170.968 1126.86 170.968C1128.67 170.968 1130.37 169.848 1130.37 167.72V161H1129.45ZM1126.69 167.272C1125.14 167.272 1123.93 166.054 1123.93 164.5C1123.93 162.946 1125.14 161.728 1126.69 161.728C1128.25 161.728 1129.45 162.946 1129.45 164.5C1129.45 166.054 1128.25 167.272 1126.69 167.272ZM1132.79 159.516C1133.17 159.516 1133.46 159.208 1133.46 158.844C1133.46 158.48 1133.17 158.172 1132.79 158.172C1132.41 158.172 1132.12 158.48 1132.12 158.844C1132.12 159.208 1132.41 159.516 1132.79 159.516ZM1132.33 168H1133.25V161H1132.33V168ZM1138.49 160.832C1137.5 160.832 1136.69 161.21 1136.14 162.092V161H1135.22V168H1136.14V164.332C1136.14 162.456 1137.18 161.728 1138.41 161.728C1139.63 161.728 1140.31 162.456 1140.31 163.702V168H1141.24V163.702C1141.24 161.952 1140.2 160.832 1138.49 160.832ZM1149.04 161V162.372C1148.45 161.434 1147.46 160.832 1146.21 160.832C1144.24 160.832 1142.6 162.428 1142.6 164.5C1142.6 166.572 1144.24 168.168 1146.21 168.168C1147.46 168.168 1148.45 167.566 1149.04 166.628V167.72C1149.04 169.148 1148.08 170.072 1146.45 170.072C1144.94 170.072 1144.3 169.512 1143.95 168.798L1143.13 169.26C1143.68 170.352 1144.84 170.968 1146.45 170.968C1148.26 170.968 1149.97 169.848 1149.97 167.72V161H1149.04ZM1146.28 167.272C1144.73 167.272 1143.53 166.054 1143.53 164.5C1143.53 162.946 1144.73 161.728 1146.28 161.728C1147.84 161.728 1149.04 162.946 1149.04 164.5C1149.04 166.054 1147.84 167.272 1146.28 167.272ZM1159.13 161.896V161H1157.12V159.04L1156.19 159.32V161H1154.72V161.896H1156.19V166.138C1156.19 167.818 1157.24 168.28 1159.13 168V167.188C1157.77 167.244 1157.12 167.342 1157.12 166.138V161.896H1159.13ZM1161.13 159.516C1161.51 159.516 1161.81 159.208 1161.81 158.844C1161.81 158.48 1161.51 158.172 1161.13 158.172C1160.76 158.172 1160.46 158.48 1160.46 158.844C1160.46 159.208 1160.76 159.516 1161.13 159.516ZM1160.67 168H1161.6V161H1160.67V168ZM1171.02 160.832C1170.12 160.832 1169.27 161.238 1168.75 162.106C1168.36 161.294 1167.6 160.832 1166.62 160.832C1165.78 160.832 1165.03 161.168 1164.48 162.022V161H1163.56V168H1164.48V164.122C1164.48 162.386 1165.49 161.728 1166.5 161.728C1167.49 161.728 1168.14 162.386 1168.14 163.632V168H1169.06V164.122C1169.06 162.386 1169.93 161.728 1171.01 161.728C1172 161.728 1172.71 162.386 1172.71 163.632V168H1173.64V163.632C1173.64 161.882 1172.56 160.832 1171.02 160.832ZM1178.66 160.832C1176.49 160.832 1175 162.442 1175 164.5C1175 166.614 1176.52 168.168 1178.73 168.168C1180.14 168.168 1181.22 167.51 1181.81 166.558L1181 166.082C1180.62 166.754 1179.85 167.272 1178.74 167.272C1177.26 167.272 1176.15 166.39 1175.96 164.962H1182.1C1182.12 164.822 1182.13 164.668 1182.13 164.528C1182.13 162.61 1180.8 160.832 1178.66 160.832ZM1178.66 161.728C1179.86 161.728 1180.98 162.526 1181.18 164.066H1175.96C1176.14 162.694 1177.19 161.728 1178.66 161.728ZM1190.6 158.928V158.032C1188.71 157.892 1187.66 158.9 1187.66 160.72V161H1186.47V161.896H1187.66V168H1188.58V161.896H1190.6V161H1188.58V160.72C1188.58 159.376 1189.24 158.816 1190.6 158.928ZM1194.42 168.168C1196.47 168.168 1198.1 166.572 1198.1 164.5C1198.1 162.428 1196.47 160.832 1194.42 160.832C1192.38 160.832 1190.74 162.428 1190.74 164.5C1190.74 166.572 1192.38 168.168 1194.42 168.168ZM1194.42 167.272C1192.87 167.272 1191.66 166.054 1191.66 164.5C1191.66 162.946 1192.87 161.728 1194.42 161.728C1195.98 161.728 1197.18 162.946 1197.18 164.5C1197.18 166.054 1195.98 167.272 1194.42 167.272ZM1200.57 162.162V161H1199.65V168H1200.57V164.108C1200.57 162.372 1201.67 161.784 1202.79 161.784V160.888C1201.89 160.888 1201.06 161.182 1200.57 162.162ZM1213.57 161V162.372C1212.99 161.434 1211.99 160.832 1210.75 160.832C1208.77 160.832 1207.13 162.428 1207.13 164.5C1207.13 166.572 1208.77 168.168 1210.75 168.168C1211.99 168.168 1212.99 167.566 1213.57 166.628V168H1214.5V161H1213.57ZM1210.82 167.272C1209.26 167.272 1208.06 166.054 1208.06 164.5C1208.06 162.946 1209.26 161.728 1210.82 161.728C1212.37 161.728 1213.57 162.946 1213.57 164.5C1213.57 166.054 1212.37 167.272 1210.82 167.272ZM1219.73 160.832C1218.74 160.832 1217.92 161.21 1217.38 162.092V161H1216.45V168H1217.38V164.332C1217.38 162.456 1218.41 161.728 1219.65 161.728C1220.86 161.728 1221.55 162.456 1221.55 163.702V168H1222.47V163.702C1222.47 161.952 1221.44 160.832 1219.73 160.832ZM1229.16 161L1226.9 166.866L1224.26 161H1223.28L1226.42 168.042L1226.24 168.476C1225.86 169.386 1225.23 170.03 1224.32 169.932V170.8C1225.58 170.898 1226.62 169.988 1227.15 168.644L1230.14 161H1229.16ZM1240.78 161V162.372C1240.19 161.434 1239.2 160.832 1237.95 160.832C1235.98 160.832 1234.34 162.428 1234.34 164.5C1234.34 166.572 1235.98 168.168 1237.95 168.168C1239.2 168.168 1240.19 167.566 1240.78 166.628V167.72C1240.78 169.148 1239.81 170.072 1238.19 170.072C1236.68 170.072 1236.03 169.512 1235.68 168.798L1234.87 169.26C1235.42 170.352 1236.58 170.968 1238.19 170.968C1240 170.968 1241.7 169.848 1241.7 167.72V161H1240.78ZM1238.02 167.272C1236.47 167.272 1235.26 166.054 1235.26 164.5C1235.26 162.946 1236.47 161.728 1238.02 161.728C1239.58 161.728 1240.78 162.946 1240.78 164.5C1240.78 166.054 1239.58 167.272 1238.02 167.272ZM1244.12 159.516C1244.5 159.516 1244.79 159.208 1244.79 158.844C1244.79 158.48 1244.5 158.172 1244.12 158.172C1243.74 158.172 1243.45 158.48 1243.45 158.844C1243.45 159.208 1243.74 159.516 1244.12 159.516ZM1243.66 168H1244.58V161H1243.66V168ZM1251.59 161L1249.14 167.034L1246.69 161H1245.71L1248.58 168H1249.7L1252.57 161H1251.59ZM1256.64 160.832C1254.47 160.832 1252.99 162.442 1252.99 164.5C1252.99 166.614 1254.5 168.168 1256.71 168.168C1258.13 168.168 1259.2 167.51 1259.79 166.558L1258.98 166.082C1258.6 166.754 1257.83 167.272 1256.73 167.272C1255.24 167.272 1254.14 166.39 1253.94 164.962H1260.09C1260.1 164.822 1260.11 164.668 1260.11 164.528C1260.11 162.61 1258.78 160.832 1256.64 160.832ZM1256.64 161.728C1257.85 161.728 1258.97 162.526 1259.16 164.066H1253.94C1254.12 162.694 1255.17 161.728 1256.64 161.728ZM1264.86 160.832C1263.87 160.832 1263.05 161.21 1262.51 162.092V161H1261.58V168H1262.51V164.332C1262.51 162.456 1263.54 161.728 1264.78 161.728C1265.99 161.728 1266.68 162.456 1266.68 163.702V168H1267.6V163.702C1267.6 161.952 1266.57 160.832 1264.86 160.832ZM1273.35 159.516C1273.73 159.516 1274.03 159.208 1274.03 158.844C1274.03 158.48 1273.73 158.172 1273.35 158.172C1272.98 158.172 1272.68 158.48 1272.68 158.844C1272.68 159.208 1272.98 159.516 1273.35 159.516ZM1272.89 168H1273.82V161H1272.89V168ZM1279.49 161.896V161H1277.47V159.04L1276.55 159.32V161H1275.08V161.896H1276.55V166.138C1276.55 167.818 1277.6 168.28 1279.49 168V167.188C1278.13 167.244 1277.47 167.342 1277.47 166.138V161.896H1279.49ZM1283.84 160.832C1281.67 160.832 1280.18 162.442 1280.18 164.5C1280.18 166.614 1281.69 168.168 1283.91 168.168C1285.32 168.168 1286.4 167.51 1286.99 166.558L1286.17 166.082C1285.8 166.754 1285.03 167.272 1283.92 167.272C1282.44 167.272 1281.33 166.39 1281.13 164.962H1287.28C1287.29 164.822 1287.31 164.668 1287.31 164.528C1287.31 162.61 1285.98 160.832 1283.84 160.832ZM1283.84 161.728C1285.04 161.728 1286.16 162.526 1286.36 164.066H1281.13C1281.32 162.694 1282.37 161.728 1283.84 161.728ZM1296.24 160.832C1295.34 160.832 1294.49 161.238 1293.97 162.106C1293.58 161.294 1292.82 160.832 1291.84 160.832C1291 160.832 1290.25 161.168 1289.7 162.022V161H1288.78V168H1289.7V164.122C1289.7 162.386 1290.71 161.728 1291.72 161.728C1292.71 161.728 1293.36 162.386 1293.36 163.632V168H1294.28V164.122C1294.28 162.386 1295.15 161.728 1296.23 161.728C1297.22 161.728 1297.93 162.386 1297.93 163.632V168H1298.86V163.632C1298.86 161.882 1297.78 160.832 1296.24 160.832Z" fill="#1A1A1A"/>
<path d="M1047 136H1322V134H1047V136ZM1329 143V183H1331V143H1329ZM1322 190H1047V192H1322V190ZM1040 183V143H1038V183H1040ZM1047 190C1043.13 190 1040 186.866 1040 183H1038C1038 187.971 1042.03 192 1047 192V190ZM1329 183C1329 186.866 1325.87 190 1322 190V192C1326.97 192 1331 187.971 1331 183H1329ZM1322 136C1325.87 136 1329 139.134 1329 143H1331C1331 138.029 1326.97 134 1322 134V136ZM1047 134C1042.03 134 1038 138.029 1038 143H1040C1040 139.134 1043.13 136 1047 136V134Z" fill="#E5E5E5"/>
<path d="M818 222C818 217.582 821.582 214 826 214H1125C1129.42 214 1133 217.582 1133 222V262C1133 266.418 1129.42 270 1125 270H826C821.582 270 818 266.418 818 262V222Z" fill="white"/>
<path d="M851.994 247H853.002L856.614 237.2H855.55L852.498 245.698L849.446 237.2H848.382L851.994 247ZM857.928 238.516C858.306 238.516 858.6 238.208 858.6 237.844C858.6 237.48 858.306 237.172 857.928 237.172C857.55 237.172 857.256 237.48 857.256 237.844C857.256 238.208 857.55 238.516 857.928 238.516ZM857.466 247H858.39V240H857.466V247ZM863.585 239.832C861.415 239.832 859.931 241.442 859.931 243.5C859.931 245.614 861.443 247.168 863.655 247.168C865.069 247.168 866.147 246.51 866.735 245.558L865.923 245.082C865.545 245.754 864.775 246.272 863.669 246.272C862.185 246.272 861.079 245.39 860.883 243.962H867.029C867.043 243.822 867.057 243.668 867.057 243.528C867.057 241.61 865.727 239.832 863.585 239.832ZM863.585 240.728C864.789 240.728 865.909 241.526 866.105 243.066H860.883C861.065 241.694 862.115 240.728 863.585 240.728ZM876.681 240L874.959 245.81L873.125 240H872.201L870.367 245.81L868.645 240H867.693L869.849 247H870.857L872.663 241.358L874.469 247H875.477L877.633 240H876.681ZM883.255 241.834C883.255 241.078 883.997 240.728 884.725 240.728C885.397 240.728 886.111 240.994 886.405 241.708L887.175 241.26C886.769 240.392 885.873 239.832 884.725 239.832C883.325 239.832 882.331 240.714 882.331 241.834C882.331 244.41 886.419 243.416 886.419 245.152C886.419 245.978 885.635 246.272 884.809 246.272C883.871 246.272 883.143 245.81 882.891 245.096L882.107 245.558C882.457 246.454 883.409 247.168 884.809 247.168C886.307 247.168 887.343 246.342 887.343 245.152C887.343 242.576 883.255 243.57 883.255 241.834ZM892.321 240.896V240H890.305V238.04L889.381 238.32V240H887.911V240.896H889.381V245.138C889.381 246.818 890.431 247.28 892.321 247V246.188C890.963 246.244 890.305 246.342 890.305 245.138V240.896H892.321ZM899.457 240V241.372C898.869 240.434 897.875 239.832 896.629 239.832C894.655 239.832 893.017 241.428 893.017 243.5C893.017 245.572 894.655 247.168 896.629 247.168C897.875 247.168 898.869 246.566 899.457 245.628V247H900.381V240H899.457ZM896.699 246.272C895.145 246.272 893.941 245.054 893.941 243.5C893.941 241.946 895.145 240.728 896.699 240.728C898.253 240.728 899.457 241.946 899.457 243.5C899.457 245.054 898.253 246.272 896.699 246.272ZM908.357 240V241.372C907.769 240.434 906.775 239.832 905.529 239.832C903.555 239.832 901.917 241.428 901.917 243.5C901.917 245.572 903.555 247.168 905.529 247.168C906.775 247.168 907.769 246.566 908.357 245.628V246.72C908.357 248.148 907.391 249.072 905.767 249.072C904.255 249.072 903.611 248.512 903.261 247.798L902.449 248.26C902.995 249.352 904.157 249.968 905.767 249.968C907.573 249.968 909.281 248.848 909.281 246.72V240H908.357ZM905.599 246.272C904.045 246.272 902.841 245.054 902.841 243.5C902.841 241.946 904.045 240.728 905.599 240.728C907.153 240.728 908.357 241.946 908.357 243.5C908.357 245.054 907.153 246.272 905.599 246.272ZM911.7 238.516C912.078 238.516 912.372 238.208 912.372 237.844C912.372 237.48 912.078 237.172 911.7 237.172C911.322 237.172 911.028 237.48 911.028 237.844C911.028 238.208 911.322 238.516 911.7 238.516ZM911.238 247H912.162V240H911.238V247ZM917.399 239.832C916.405 239.832 915.593 240.21 915.047 241.092V240H914.123V247H915.047V243.332C915.047 241.456 916.083 240.728 917.315 240.728C918.533 240.728 919.219 241.456 919.219 242.702V247H920.143V242.702C920.143 240.952 919.107 239.832 917.399 239.832ZM927.949 240V241.372C927.361 240.434 926.367 239.832 925.121 239.832C923.147 239.832 921.509 241.428 921.509 243.5C921.509 245.572 923.147 247.168 925.121 247.168C926.367 247.168 927.361 246.566 927.949 245.628V246.72C927.949 248.148 926.983 249.072 925.359 249.072C923.847 249.072 923.203 248.512 922.853 247.798L922.041 248.26C922.587 249.352 923.749 249.968 925.359 249.968C927.165 249.968 928.873 248.848 928.873 246.72V240H927.949ZM925.191 246.272C923.637 246.272 922.433 245.054 922.433 243.5C922.433 241.946 923.637 240.728 925.191 240.728C926.745 240.728 927.949 241.946 927.949 243.5C927.949 245.054 926.745 246.272 925.191 246.272ZM934.33 247H935.254V236.78H934.33V247ZM940.476 247.168C942.52 247.168 944.158 245.572 944.158 243.5C944.158 241.428 942.52 239.832 940.476 239.832C938.432 239.832 936.794 241.428 936.794 243.5C936.794 245.572 938.432 247.168 940.476 247.168ZM940.476 246.272C938.922 246.272 937.718 245.054 937.718 243.5C937.718 241.946 938.922 240.728 940.476 240.728C942.03 240.728 943.234 241.946 943.234 243.5C943.234 245.054 942.03 246.272 940.476 246.272ZM948.967 247.168C950.339 247.168 951.529 246.454 952.103 245.348L951.333 244.9C950.885 245.712 950.031 246.272 948.967 246.272C947.413 246.272 946.209 245.054 946.209 243.5C946.209 241.946 947.413 240.728 948.967 240.728C950.017 240.728 950.899 241.274 951.277 242.1L952.033 241.666C951.529 240.56 950.353 239.832 948.967 239.832C946.853 239.832 945.285 241.428 945.285 243.5C945.285 245.572 946.853 247.168 948.967 247.168ZM959.381 240V241.372C958.793 240.434 957.799 239.832 956.553 239.832C954.579 239.832 952.941 241.428 952.941 243.5C952.941 245.572 954.579 247.168 956.553 247.168C957.799 247.168 958.793 246.566 959.381 245.628V247H960.305V240H959.381ZM956.623 246.272C955.069 246.272 953.865 245.054 953.865 243.5C953.865 241.946 955.069 240.728 956.623 240.728C958.177 240.728 959.381 241.946 959.381 243.5C959.381 245.054 958.177 246.272 956.623 246.272ZM965.971 240.896V240H963.955V238.04L963.031 238.32V240H961.561V240.896H963.031V245.138C963.031 246.818 964.081 247.28 965.971 247V246.188C964.613 246.244 963.955 246.342 963.955 245.138V240.896H965.971ZM967.973 238.516C968.351 238.516 968.645 238.208 968.645 237.844C968.645 237.48 968.351 237.172 967.973 237.172C967.595 237.172 967.301 237.48 967.301 237.844C967.301 238.208 967.595 238.516 967.973 238.516ZM967.511 247H968.435V240H967.511V247ZM973.658 247.168C975.702 247.168 977.34 245.572 977.34 243.5C977.34 241.428 975.702 239.832 973.658 239.832C971.614 239.832 969.976 241.428 969.976 243.5C969.976 245.572 971.614 247.168 973.658 247.168ZM973.658 246.272C972.104 246.272 970.9 245.054 970.9 243.5C970.9 241.946 972.104 240.728 973.658 240.728C975.212 240.728 976.416 241.946 976.416 243.5C976.416 245.054 975.212 246.272 973.658 246.272ZM982.162 239.832C981.168 239.832 980.356 240.21 979.81 241.092V240H978.886V247H979.81V243.332C979.81 241.456 980.846 240.728 982.078 240.728C983.296 240.728 983.982 241.456 983.982 242.702V247H984.906V242.702C984.906 240.952 983.87 239.832 982.162 239.832ZM993.693 237.928V237.032C991.803 236.892 990.753 237.9 990.753 239.72V240H989.563V240.896H990.753V247H991.677V240.896H993.693V240H991.677V239.72C991.677 238.376 992.335 237.816 993.693 237.928ZM997.515 247.168C999.559 247.168 1001.2 245.572 1001.2 243.5C1001.2 241.428 999.559 239.832 997.515 239.832C995.471 239.832 993.833 241.428 993.833 243.5C993.833 245.572 995.471 247.168 997.515 247.168ZM997.515 246.272C995.961 246.272 994.757 245.054 994.757 243.5C994.757 241.946 995.961 240.728 997.515 240.728C999.069 240.728 1000.27 241.946 1000.27 243.5C1000.27 245.054 999.069 246.272 997.515 246.272ZM1003.67 241.162V240H1002.74V247H1003.67V243.108C1003.67 241.372 1004.76 240.784 1005.88 240.784V239.888C1004.98 239.888 1004.16 240.182 1003.67 241.162ZM1016.67 240V241.372C1016.08 240.434 1015.08 239.832 1013.84 239.832C1011.86 239.832 1010.23 241.428 1010.23 243.5C1010.23 245.572 1011.86 247.168 1013.84 247.168C1015.08 247.168 1016.08 246.566 1016.67 245.628V247H1017.59V240H1016.67ZM1013.91 246.272C1012.35 246.272 1011.15 245.054 1011.15 243.5C1011.15 241.946 1012.35 240.728 1013.91 240.728C1015.46 240.728 1016.67 241.946 1016.67 243.5C1016.67 245.054 1015.46 246.272 1013.91 246.272ZM1022.82 239.832C1021.83 239.832 1021.02 240.21 1020.47 241.092V240H1019.55V247H1020.47V243.332C1020.47 241.456 1021.51 240.728 1022.74 240.728C1023.96 240.728 1024.64 241.456 1024.64 242.702V247H1025.57V242.702C1025.57 240.952 1024.53 239.832 1022.82 239.832ZM1032.26 240L1029.99 245.866L1027.36 240H1026.38L1029.51 247.042L1029.33 247.476C1028.95 248.386 1028.32 249.03 1027.41 248.932V249.8C1028.67 249.898 1029.71 248.988 1030.24 247.644L1033.24 240H1032.26ZM1043.87 240V241.372C1043.29 240.434 1042.29 239.832 1041.05 239.832C1039.07 239.832 1037.43 241.428 1037.43 243.5C1037.43 245.572 1039.07 247.168 1041.05 247.168C1042.29 247.168 1043.29 246.566 1043.87 245.628V246.72C1043.87 248.148 1042.91 249.072 1041.28 249.072C1039.77 249.072 1039.13 248.512 1038.78 247.798L1037.97 248.26C1038.51 249.352 1039.67 249.968 1041.28 249.968C1043.09 249.968 1044.8 248.848 1044.8 246.72V240H1043.87ZM1041.12 246.272C1039.56 246.272 1038.36 245.054 1038.36 243.5C1038.36 241.946 1039.56 240.728 1041.12 240.728C1042.67 240.728 1043.87 241.946 1043.87 243.5C1043.87 245.054 1042.67 246.272 1041.12 246.272ZM1047.22 238.516C1047.59 238.516 1047.89 238.208 1047.89 237.844C1047.89 237.48 1047.59 237.172 1047.22 237.172C1046.84 237.172 1046.54 237.48 1046.54 237.844C1046.54 238.208 1046.84 238.516 1047.22 238.516ZM1046.75 247H1047.68V240H1046.75V247ZM1054.68 240L1052.23 246.034L1049.78 240H1048.8L1051.67 247H1052.79L1055.66 240H1054.68ZM1059.74 239.832C1057.57 239.832 1056.08 241.442 1056.08 243.5C1056.08 245.614 1057.59 247.168 1059.81 247.168C1061.22 247.168 1062.3 246.51 1062.89 245.558L1062.07 245.082C1061.7 245.754 1060.93 246.272 1059.82 246.272C1058.34 246.272 1057.23 245.39 1057.03 243.962H1063.18C1063.19 243.822 1063.21 243.668 1063.21 243.528C1063.21 241.61 1061.88 239.832 1059.74 239.832ZM1059.74 240.728C1060.94 240.728 1062.06 241.526 1062.26 243.066H1057.03C1057.22 241.694 1058.27 240.728 1059.74 240.728ZM1067.95 239.832C1066.96 239.832 1066.15 240.21 1065.6 241.092V240H1064.68V247H1065.6V243.332C1065.6 241.456 1066.64 240.728 1067.87 240.728C1069.09 240.728 1069.77 241.456 1069.77 242.702V247H1070.7V242.702C1070.7 240.952 1069.66 239.832 1067.95 239.832ZM1076.45 238.516C1076.82 238.516 1077.12 238.208 1077.12 237.844C1077.12 237.48 1076.82 237.172 1076.45 237.172C1076.07 237.172 1075.77 237.48 1075.77 237.844C1075.77 238.208 1076.07 238.516 1076.45 238.516ZM1075.98 247H1076.91V240H1075.98V247ZM1082.58 240.896V240H1080.56V238.04L1079.64 238.32V240H1078.17V240.896H1079.64V245.138C1079.64 246.818 1080.69 247.28 1082.58 247V246.188C1081.22 246.244 1080.56 246.342 1080.56 245.138V240.896H1082.58ZM1086.93 239.832C1084.76 239.832 1083.27 241.442 1083.27 243.5C1083.27 245.614 1084.79 247.168 1087 247.168C1088.41 247.168 1089.49 246.51 1090.08 245.558L1089.27 245.082C1088.89 245.754 1088.12 246.272 1087.01 246.272C1085.53 246.272 1084.42 245.39 1084.23 243.962H1090.37C1090.39 243.822 1090.4 243.668 1090.4 243.528C1090.4 241.61 1089.07 239.832 1086.93 239.832ZM1086.93 240.728C1088.13 240.728 1089.25 241.526 1089.45 243.066H1084.23C1084.41 241.694 1085.46 240.728 1086.93 240.728ZM1099.33 239.832C1098.44 239.832 1097.58 240.238 1097.06 241.106C1096.67 240.294 1095.92 239.832 1094.94 239.832C1094.1 239.832 1093.34 240.168 1092.79 241.022V240H1091.87V247H1092.79V243.122C1092.79 241.386 1093.8 240.728 1094.81 240.728C1095.8 240.728 1096.45 241.386 1096.45 242.632V247H1097.37V243.122C1097.37 241.386 1098.24 240.728 1099.32 240.728C1100.31 240.728 1101.03 241.386 1101.03 242.632V247H1101.95V242.632C1101.95 240.882 1100.87 239.832 1099.33 239.832Z" fill="#1A1A1A"/>
<path d="M826 215H1125V213H826V215ZM1132 222V262H1134V222H1132ZM1125 269H826V271H1125V269ZM819 262V222H817V262H819ZM826 269C822.134 269 819 265.866 819 262H817C817 266.971 821.029 271 826 271V269ZM1132 262C1132 265.866 1128.87 269 1125 269V271C1129.97 271 1134 266.971 1134 262H1132ZM1125 215C1128.87 215 1132 218.134 1132 222H1134C1134 217.029 1129.97 213 1125 213V215ZM826 213C821.029 213 817 217.029 817 222H819C819 218.134 822.134 215 826 215V213Z" fill="#E5E5E5"/>
<g clip-path="url(#clip0)">
<path d="M411.514 83.6097L385.011 120.742" stroke="#404040" stroke-linecap="square"/>
<path fill-rule="evenodd" clip-rule="evenodd" d="M384.322 121.708L384.03 117.813L388.1 120.718L384.322 121.708Z" fill="#404040"/>
</g>
<g clip-path="url(#clip1)">
<path d="M505.444 83.8565L583.245 207.146" stroke="#404040" stroke-linecap="square"/>
<path fill-rule="evenodd" clip-rule="evenodd" d="M584.097 208.497L580.382 207.294L584.611 204.625L584.097 208.497Z" fill="#404040"/>
</g>
<g clip-path="url(#clip2)">
<path d="M1048.77 84.7522L978.812 209.253" stroke="#404040" stroke-linecap="square"/>
<path fill-rule="evenodd" clip-rule="evenodd" d="M978.036 210.635L977.326 206.795L981.685 209.244L978.036 210.635Z" fill="#404040"/>
</g>
<g clip-path="url(#clip3)">
<path d="M1083.02 84.8633L1122.92 129.01" stroke="#404040" stroke-linecap="square"/>
<path fill-rule="evenodd" clip-rule="evenodd" d="M1123.76 129.933L1119.89 129.383L1123.6 126.031L1123.76 129.933Z" fill="#404040"/>
</g>
<defs>
<clipPath id="clip0">
<rect width="47.4942" height="5" fill="white" transform="translate(413.661 84.9047) rotate(125.517)"/>
</clipPath>
<clipPath id="clip1">
<rect width="148.307" height="5" fill="white" transform="translate(507.229 82) rotate(57.7463)"/>
</clipPath>
<clipPath id="clip2">
<rect width="144.707" height="5" fill="white" transform="translate(1051.25 85.4494) rotate(119.332)"/>
</clipPath>
<clipPath id="clip3">
<rect width="61.3238" height="5" fill="white" transform="matrix(0.6705 0.74191 -0.741911 0.670498 1084.71 83)"/>
</clipPath>
</defs>
</svg>
