<svg width="1400" height="279" fill="none" xmlns="http://www.w3.org/2000/svg">
  <path d="M864 18a8 8 0 018-8h333a8 8 0 018 8v53a8 8 0 01-8 8H872a8 8 0 01-8-8V18z" fill="#fff"/>
  <path d="M900.124 53h3.312l5.832-16.8h-3l-4.488 13.464-4.464-13.464h-3.024l5.832 16.8zm18.845-12v1.704c-.912-1.248-2.328-2.016-4.2-2.016-3.264 0-5.976 2.736-5.976 6.312 0 3.552 2.712 6.312 5.976 6.312 1.872 0 3.288-.768 4.2-2.04V53h2.592V41h-2.592zm-3.792 9.84c-2.16 0-3.792-1.608-3.792-3.84 0-2.232 1.632-3.84 3.792-3.84s3.792 1.608 3.792 3.84c0 2.232-1.632 3.84-3.792 3.84zm9.405 2.16h2.592V35.48h-2.592V53zm6.898-13.8c.912 0 1.656-.768 1.656-1.656a1.66 1.66 0 00-1.656-1.656 1.66 1.66 0 00-1.656 1.656c0 .888.744 1.656 1.656 1.656zM930.184 53h2.592V41h-2.592v12zm15.105-16.8v6.504c-.912-1.248-2.328-2.016-4.2-2.016-3.264 0-5.976 2.736-5.976 6.312 0 3.552 2.712 6.312 5.976 6.312 1.872 0 3.288-.768 4.2-2.04V53h2.592V36.2h-2.592zm-3.792 14.64c-2.16 0-3.792-1.608-3.792-3.84 0-2.232 1.632-3.84 3.792-3.84s3.792 1.608 3.792 3.84c0 2.232-1.632 3.84-3.792 3.84zm18.91-9.84v1.704c-.912-1.248-2.328-2.016-4.2-2.016-3.264 0-5.976 2.736-5.976 6.312 0 3.552 2.712 6.312 5.976 6.312 1.872 0 3.288-.768 4.2-2.04V53h2.592V41h-2.592zm-3.792 9.84c-2.16 0-3.792-1.608-3.792-3.84 0-2.232 1.632-3.84 3.792-3.84s3.792 1.608 3.792 3.84c0 2.232-1.632 3.84-3.792 3.84zm16.101-7.344V41h-2.976v-3.36l-2.592.768V41h-2.208v2.496h2.208v5.76c0 3.12 1.584 4.224 5.568 3.744v-2.328c-1.968.096-2.976.12-2.976-1.416v-5.76h2.976zm3.899 4.608h9.552c.048-.336.096-.72.096-1.08 0-3.456-2.448-6.336-6.024-6.336-3.768 0-6.336 2.76-6.336 6.312 0 3.6 2.568 6.312 6.528 6.312 2.352 0 4.152-.984 5.256-2.616l-2.136-1.248c-.576.84-1.656 1.488-3.096 1.488-1.92 0-3.432-.96-3.84-2.832zm-.025-2.112c.361-1.8 1.681-2.952 3.625-2.952 1.56 0 3.072.888 3.432 2.952h-7.057zm23.62 7.32c3.53 0 6.33-2.76 6.33-6.312 0-3.576-2.8-6.312-6.33-6.312-3.507 0-6.339 2.736-6.339 6.312 0 3.552 2.832 6.312 6.339 6.312zm0-2.52c-2.115 0-3.747-1.608-3.747-3.792 0-2.184 1.632-3.792 3.747-3.792 2.11 0 3.74 1.608 3.74 3.792 0 2.184-1.63 3.792-3.74 3.792zm11.27-7.776V41h-2.59v12h2.59v-6.048c0-2.688 1.99-3.48 3.7-3.36v-2.808c-1.52 0-2.98.6-3.7 2.232zm14.55-6.816v6.504c-.91-1.248-2.33-2.016-4.2-2.016-3.26 0-5.97 2.736-5.97 6.312 0 3.552 2.71 6.312 5.97 6.312 1.87 0 3.29-.768 4.2-2.04V53h2.59V36.2h-2.59zm-3.79 14.64c-2.16 0-3.79-1.608-3.79-3.84 0-2.232 1.63-3.84 3.79-3.84s3.79 1.608 3.79 3.84c0 2.232-1.63 3.84-3.79 3.84zm11.44-2.736h9.56c.04-.336.09-.72.09-1.08 0-3.456-2.45-6.336-6.02-6.336-3.77 0-6.34 2.76-6.34 6.312 0 3.6 2.57 6.312 6.53 6.312 2.35 0 4.15-.984 5.26-2.616l-2.14-1.248c-.58.84-1.66 1.488-3.1 1.488-1.92 0-3.43-.96-3.84-2.832zm-.02-2.112c.36-1.8 1.68-2.952 3.62-2.952 1.56 0 3.08.888 3.44 2.952h-7.06zm14.55-2.976V41h-2.6v12h2.6v-6.048c0-2.688 1.99-3.48 3.69-3.36v-2.808c-1.51 0-2.97.6-3.69 2.232zm17.27 10.296c2.35 0 4.39-1.224 5.4-3.12l-2.23-1.272c-.58 1.104-1.75 1.848-3.19 1.848-2.12 0-3.72-1.608-3.72-3.768 0-2.16 1.6-3.768 3.72-3.768 1.44 0 2.61.72 3.14 1.848l2.23-1.296c-.96-1.872-3-3.096-5.35-3.096-3.62 0-6.34 2.736-6.34 6.312 0 3.552 2.72 6.312 6.34 6.312zm12.75 0c3.53 0 6.34-2.76 6.34-6.312 0-3.576-2.81-6.312-6.34-6.312-3.5 0-6.34 2.736-6.34 6.312 0 3.552 2.84 6.312 6.34 6.312zm0-2.52c-2.11 0-3.74-1.608-3.74-3.792 0-2.184 1.63-3.792 3.74-3.792 2.11 0 3.74 1.608 3.74 3.792 0 2.184-1.63 3.792-3.74 3.792zm21.78-10.104c-1.6 0-2.88.648-3.67 1.896-.69-1.2-1.85-1.896-3.41-1.896-1.48 0-2.66.576-3.43 1.752V41h-2.59v12h2.59v-6.72c0-2.184 1.2-3.168 2.67-3.168 1.41 0 2.25.936 2.25 2.616V53h2.59v-6.72c0-2.184 1.08-3.168 2.62-3.168 1.42 0 2.33.936 2.33 2.616V53h2.59v-7.44c0-3-1.82-4.872-4.54-4.872zm14.11 0c-1.88 0-3.29.768-4.2 2.04V41h-2.6v16.8h2.6v-6.504c.91 1.248 2.32 2.016 4.2 2.016 3.26 0 5.97-2.736 5.97-6.312 0-3.552-2.71-6.312-5.97-6.312zm-.41 10.152c-2.16 0-3.79-1.608-3.79-3.84 0-2.232 1.63-3.84 3.79-3.84s3.79 1.608 3.79 3.84c0 2.232-1.63 3.84-3.79 3.84zm8.73 2.16h2.59V35.48h-2.59V53zm7.64-4.896h9.56c.04-.336.09-.72.09-1.08 0-3.456-2.45-6.336-6.02-6.336-3.77 0-6.34 2.76-6.34 6.312 0 3.6 2.57 6.312 6.53 6.312 2.35 0 4.15-.984 5.26-2.616l-2.14-1.248c-.58.84-1.66 1.488-3.1 1.488-1.92 0-3.43-.96-3.84-2.832zm-.02-2.112c.36-1.8 1.68-2.952 3.62-2.952 1.56 0 3.08.888 3.44 2.952h-7.06zm18.27-2.496V41h-2.97v-3.36l-2.59.768V41h-2.21v2.496h2.21v5.76c0 3.12 1.58 4.224 5.56 3.744v-2.328c-1.96.096-2.97.12-2.97-1.416v-5.76h2.97zm3.65-4.296c.91 0 1.66-.768 1.66-1.656 0-.912-.75-1.656-1.66-1.656-.91 0-1.66.744-1.66 1.656 0 .888.75 1.656 1.66 1.656zm-1.3 13.8h2.6V41h-2.6v12zm11.27.312c3.53 0 6.34-2.76 6.34-6.312 0-3.576-2.81-6.312-6.34-6.312-3.5 0-6.34 2.736-6.34 6.312 0 3.552 2.84 6.312 6.34 6.312zm0-2.52c-2.11 0-3.74-1.608-3.74-3.792 0-2.184 1.63-3.792 3.74-3.792 2.11 0 3.74 1.608 3.74 3.792 0 2.184-1.63 3.792-3.74 3.792zm14.99-10.104c-1.63 0-2.93.6-3.72 1.848V41h-2.59v12h2.59v-6.432c0-2.448 1.35-3.456 3.05-3.456 1.63 0 2.69.96 2.69 2.784V53h2.59v-7.368c0-3.12-1.92-4.944-4.61-4.944z" fill="#1A1A1A"/>
  <path d="M872 11h333V9H872v2zm340 7v53h2V18h-2zm-7 60H872v2h333v-2zm-340-7V18h-2v53h2zm7 7a7 7 0 01-7-7h-2a9 9 0 009 9v-2zm340-7c0 3.866-3.13 7-7 7v2a9 9 0 009-9h-2zm-7-60c3.87 0 7 3.134 7 7h2a9 9 0 00-9-9v2zM872 9a9 9 0 00-9 9h2a7 7 0 017-7V9z" fill="#E5E5E5"/>
  <path d="M271 18a8 8 0 018-8h370a8 8 0 018 8v53a8 8 0 01-8 8H279a8 8 0 01-8-8V18z" fill="#fff"/>
  <path d="M314.003 53h2.976l-6.072-16.8h-3.312L301.499 53h3l1.176-3.384h7.152L314.003 53zm-7.416-5.976l2.664-7.584 2.664 7.584h-5.328zm21.23-10.824v6.504c-.912-1.248-2.328-2.016-4.2-2.016-3.264 0-5.976 2.736-5.976 6.312 0 3.552 2.712 6.312 5.976 6.312 1.872 0 3.288-.768 4.2-2.04V53h2.592V36.2h-2.592zm-3.792 14.64c-2.16 0-3.792-1.608-3.792-3.84 0-2.232 1.632-3.84 3.792-3.84s3.792 1.608 3.792 3.84c0 2.232-1.632 3.84-3.792 3.84zm18.909-14.64v6.504c-.912-1.248-2.328-2.016-4.2-2.016-3.264 0-5.976 2.736-5.976 6.312 0 3.552 2.712 6.312 5.976 6.312 1.872 0 3.288-.768 4.2-2.04V53h2.592V36.2h-2.592zm-3.792 14.64c-2.16 0-3.792-1.608-3.792-3.84 0-2.232 1.632-3.84 3.792-3.84s3.792 1.608 3.792 3.84c0 2.232-1.632 3.84-3.792 3.84zm11.997-7.824V41h-2.592v12h2.592v-6.048c0-2.688 1.992-3.48 3.696-3.36v-2.808c-1.512 0-2.976.6-3.696 2.232zm7.089 5.088h9.552c.048-.336.096-.72.096-1.08 0-3.456-2.448-6.336-6.024-6.336-3.768 0-6.336 2.76-6.336 6.312 0 3.6 2.568 6.312 6.528 6.312 2.352 0 4.152-.984 5.256-2.616l-2.136-1.248c-.576.84-1.656 1.488-3.096 1.488-1.92 0-3.432-.96-3.84-2.832zm-.024-2.112c.36-1.8 1.68-2.952 3.624-2.952 1.56 0 3.072.888 3.432 2.952h-7.056zm13.812-1.68c0-.864.816-1.272 1.752-1.272.984 0 1.824.432 2.256 1.368l2.184-1.224c-.84-1.584-2.472-2.496-4.44-2.496-2.448 0-4.392 1.416-4.392 3.672 0 4.296 6.456 3.096 6.456 5.232 0 .96-.888 1.344-2.04 1.344-1.32 0-2.28-.648-2.664-1.728l-2.232 1.296c.768 1.728 2.496 2.808 4.896 2.808 2.592 0 4.68-1.296 4.68-3.696 0-4.44-6.456-3.12-6.456-5.304zm10.336 0c0-.864.816-1.272 1.752-1.272.984 0 1.824.432 2.256 1.368l2.184-1.224c-.84-1.584-2.472-2.496-4.44-2.496-2.448 0-4.392 1.416-4.392 3.672 0 4.296 6.456 3.096 6.456 5.232 0 .96-.888 1.344-2.04 1.344-1.32 0-2.28-.648-2.664-1.728l-2.232 1.296c.768 1.728 2.496 2.808 4.896 2.808 2.592 0 4.68-1.296 4.68-3.696 0-4.44-6.456-3.12-6.456-5.304zm20.398 9c2.352 0 4.392-1.224 5.4-3.12l-2.232-1.272c-.576 1.104-1.752 1.848-3.192 1.848-2.112 0-3.72-1.608-3.72-3.768 0-2.16 1.608-3.768 3.72-3.768 1.44 0 2.616.72 3.144 1.848l2.232-1.296c-.96-1.872-3-3.096-5.352-3.096-3.624 0-6.336 2.736-6.336 6.312 0 3.552 2.712 6.312 6.336 6.312zM418.182 41v6.432c0 2.448-1.344 3.456-3.048 3.456-1.632 0-2.688-.96-2.688-2.784V41h-2.592v7.368c0 3.12 1.92 4.944 4.608 4.944 1.632 0 2.928-.6 3.72-1.848V53h2.592V41h-2.592zm7.881 3.312c0-.864.816-1.272 1.752-1.272.984 0 1.824.432 2.256 1.368l2.184-1.224c-.84-1.584-2.472-2.496-4.44-2.496-2.448 0-4.392 1.416-4.392 3.672 0 4.296 6.456 3.096 6.456 5.232 0 .96-.888 1.344-2.04 1.344-1.32 0-2.28-.648-2.664-1.728l-2.232 1.296c.768 1.728 2.496 2.808 4.896 2.808 2.592 0 4.68-1.296 4.68-3.696 0-4.44-6.456-3.12-6.456-5.304zm14.961-.816V41h-2.976v-3.36l-2.592.768V41h-2.208v2.496h2.208v5.76c0 3.12 1.584 4.224 5.568 3.744v-2.328c-1.968.096-2.976.12-2.976-1.416v-5.76h2.976zm7.523 9.816c3.528 0 6.336-2.76 6.336-6.312 0-3.576-2.808-6.312-6.336-6.312-3.504 0-6.336 2.736-6.336 6.312 0 3.552 2.832 6.312 6.336 6.312zm0-2.52c-2.112 0-3.744-1.608-3.744-3.792 0-2.184 1.632-3.792 3.744-3.792s3.744 1.608 3.744 3.792c0 2.184-1.632 3.792-3.744 3.792zm21.784-10.104c-1.608 0-2.88.648-3.672 1.896-.696-1.2-1.848-1.896-3.408-1.896-1.488 0-2.664.576-3.432 1.752V41h-2.592v12h2.592v-6.72c0-2.184 1.2-3.168 2.664-3.168 1.416 0 2.256.936 2.256 2.616V53h2.592v-6.72c0-2.184 1.08-3.168 2.616-3.168 1.416 0 2.328.936 2.328 2.616V53h2.592v-7.44c0-3-1.824-4.872-4.536-4.872zm9.35 7.416h9.552c.048-.336.096-.72.096-1.08 0-3.456-2.448-6.336-6.024-6.336-3.768 0-6.336 2.76-6.336 6.312 0 3.6 2.568 6.312 6.528 6.312 2.352 0 4.152-.984 5.256-2.616l-2.136-1.248c-.576.84-1.656 1.488-3.096 1.488-1.92 0-3.432-.96-3.84-2.832zm-.024-2.112c.36-1.8 1.68-2.952 3.624-2.952 1.56 0 3.072.888 3.432 2.952h-7.056zm14.545-2.976V41h-2.592v12h2.592v-6.048c0-2.688 1.992-3.48 3.696-3.36v-2.808c-1.512 0-2.976.6-3.696 2.232zm17.275 10.296c2.352 0 4.392-1.224 5.4-3.12l-2.232-1.272c-.576 1.104-1.752 1.848-3.192 1.848-2.112 0-3.72-1.608-3.72-3.768 0-2.16 1.608-3.768 3.72-3.768 1.44 0 2.616.72 3.144 1.848l2.232-1.296c-.96-1.872-3-3.096-5.352-3.096-3.624 0-6.336 2.736-6.336 6.312 0 3.552 2.712 6.312 6.336 6.312zm12.75 0c3.528 0 6.336-2.76 6.336-6.312 0-3.576-2.808-6.312-6.336-6.312-3.504 0-6.336 2.736-6.336 6.312 0 3.552 2.832 6.312 6.336 6.312zm0-2.52c-2.112 0-3.744-1.608-3.744-3.792 0-2.184 1.632-3.792 3.744-3.792s3.744 1.608 3.744 3.792c0 2.184-1.632 3.792-3.744 3.792zm21.784-10.104c-1.608 0-2.88.648-3.672 1.896-.696-1.2-1.848-1.896-3.408-1.896-1.488 0-2.664.576-3.432 1.752V41h-2.592v12h2.592v-6.72c0-2.184 1.2-3.168 2.664-3.168 1.416 0 2.256.936 2.256 2.616V53h2.592v-6.72c0-2.184 1.08-3.168 2.616-3.168 1.416 0 2.328.936 2.328 2.616V53h2.592v-7.44c0-3-1.824-4.872-4.536-4.872zm14.102 0c-1.872 0-3.288.768-4.2 2.04V41h-2.592v16.8h2.592v-6.504c.912 1.248 2.328 2.016 4.2 2.016 3.264 0 5.976-2.736 5.976-6.312 0-3.552-2.712-6.312-5.976-6.312zm-.408 10.152c-2.16 0-3.792-1.608-3.792-3.84 0-2.232 1.632-3.84 3.792-3.84s3.792 1.608 3.792 3.84c0 2.232-1.632 3.84-3.792 3.84zm8.733 2.16h2.592V35.48h-2.592V53zm15.105-12v1.704c-.912-1.248-2.328-2.016-4.2-2.016-3.264 0-5.976 2.736-5.976 6.312 0 3.552 2.712 6.312 5.976 6.312 1.872 0 3.288-.768 4.2-2.04V53h2.592V41h-2.592zm-3.792 9.84c-2.16 0-3.792-1.608-3.792-3.84 0-2.232 1.632-3.84 3.792-3.84s3.792 1.608 3.792 3.84c0 2.232-1.632 3.84-3.792 3.84zm10.702-11.64c.912 0 1.656-.768 1.656-1.656a1.66 1.66 0 00-1.656-1.656 1.66 1.66 0 00-1.656 1.656c0 .888.744 1.656 1.656 1.656zM589.157 53h2.592V41h-2.592v12zm11.913-12.312c-1.632 0-2.928.6-3.72 1.848V41h-2.592v12h2.592v-6.432c0-2.448 1.344-3.456 3.048-3.456 1.632 0 2.688.96 2.688 2.784V53h2.592v-7.368c0-3.12-1.92-4.944-4.608-4.944zm14.095 2.808V41h-2.976v-3.36l-2.592.768V41h-2.208v2.496h2.208v5.76c0 3.12 1.584 4.224 5.568 3.744v-2.328c-1.968.096-2.976.12-2.976-1.416v-5.76h2.976zm4.234.816c0-.864.816-1.272 1.752-1.272.984 0 1.824.432 2.256 1.368l2.184-1.224c-.84-1.584-2.472-2.496-4.44-2.496-2.448 0-4.392 1.416-4.392 3.672 0 4.296 6.456 3.096 6.456 5.232 0 .96-.888 1.344-2.04 1.344-1.32 0-2.28-.648-2.664-1.728l-2.232 1.296c.768 1.728 2.496 2.808 4.896 2.808 2.592 0 4.68-1.296 4.68-3.696 0-4.44-6.456-3.12-6.456-5.304z" fill="#1A1A1A"/>
  <path d="M279 11h370V9H279v2zm377 7v53h2V18h-2zm-7 60H279v2h370v-2zm-377-7V18h-2v53h2zm7 7a7 7 0 01-7-7h-2a9 9 0 009 9v-2zm377-7a7 7 0 01-7 7v2a9 9 0 009-9h-2zm-7-60a7 7 0 017 7h2a9 9 0 00-9-9v2zM279 9a9 9 0 00-9 9h2a7 7 0 017-7V9z" fill="#E5E5E5"/>
  <path d="M70 134a8 8 0 018-8h418a8 8 0 018 8v40a8 8 0 01-8 8H78a8 8 0 01-8-8v-40z" fill="#fff"/>
  <path d="M102.493 158.076v-3.556h4.34v-.924h-4.34v-3.472h4.69v-.924h-5.67v9.8h5.74v-.924h-4.76zm12.183.924l-2.73-3.626 2.548-3.374h-1.106l-2.002 2.646-2.002-2.646h-1.106l2.562 3.374-2.744 3.626h1.106l2.184-2.884L113.57 159h1.106zm6.785-7v1.372c-.588-.938-1.582-1.54-2.828-1.54-1.974 0-3.612 1.596-3.612 3.668s1.638 3.668 3.612 3.668c1.246 0 2.24-.602 2.828-1.54V159h.924v-7h-.924zm-2.758 6.272c-1.554 0-2.758-1.218-2.758-2.772 0-1.554 1.204-2.772 2.758-2.772s2.758 1.218 2.758 2.772c0 1.554-1.204 2.772-2.758 2.772zm13.1-6.44c-.896 0-1.75.406-2.268 1.274-.392-.812-1.148-1.274-2.128-1.274-.84 0-1.596.336-2.142 1.19V152h-.924v7h.924v-3.878c0-1.736 1.008-2.394 2.016-2.394.994 0 1.638.658 1.638 1.904V159h.924v-3.878c0-1.736.868-2.394 1.946-2.394.994 0 1.708.658 1.708 1.904V159h.924v-4.368c0-1.75-1.078-2.8-2.618-2.8zm4.868-1.316a.672.672 0 100-1.344.672.672 0 000 1.344zm-.462 8.484h.924v-7h-.924v7zm6.16-7.168c-.994 0-1.806.378-2.352 1.26V152h-.924v7h.924v-3.668c0-1.876 1.036-2.604 2.268-2.604 1.218 0 1.904.728 1.904 1.974V159h.924v-4.298c0-1.75-1.036-2.87-2.744-2.87zm7.765 0c-2.17 0-3.654 1.61-3.654 3.668 0 2.114 1.512 3.668 3.724 3.668 1.414 0 2.492-.658 3.08-1.61l-.812-.476c-.378.672-1.148 1.19-2.254 1.19-1.484 0-2.59-.882-2.786-2.31h6.146c.014-.14.028-.294.028-.434 0-1.918-1.33-3.696-3.472-3.696zm0 .896c1.204 0 2.324.798 2.52 2.338h-5.222c.182-1.372 1.232-2.338 2.702-2.338zm16.87-.728l-1.722 5.81-1.834-5.81h-.924l-1.834 5.81-1.722-5.81h-.952l2.156 7h1.008l1.806-5.642 1.806 5.642h1.008l2.156-7h-.952zm5.621-.168c-.994 0-1.806.378-2.352 1.26V149.2h-.924v9.8h.924v-3.668c0-1.876 1.036-2.604 2.268-2.604 1.218 0 1.904.728 1.904 1.974V159h.924v-4.298c0-1.75-1.036-2.87-2.744-2.87zm7.765 0c-2.17 0-3.654 1.61-3.654 3.668 0 2.114 1.512 3.668 3.724 3.668 1.414 0 2.492-.658 3.08-1.61l-.812-.476c-.378.672-1.148 1.19-2.254 1.19-1.484 0-2.59-.882-2.786-2.31h6.146c.014-.14.028-.294.028-.434 0-1.918-1.33-3.696-3.472-3.696zm0 .896c1.204 0 2.324.798 2.52 2.338h-5.222c.182-1.372 1.232-2.338 2.702-2.338zm8.446.168V152h-2.016v-1.96l-.924.28V152h-1.47v.896h1.47v4.242c0 1.68 1.05 2.142 2.94 1.862v-.812c-1.358.056-2.016.154-2.016-1.05v-4.242h2.016zm4.816-1.064c-.994 0-1.806.378-2.352 1.26V149.2h-.924v9.8h.924v-3.668c0-1.876 1.036-2.604 2.268-2.604 1.218 0 1.904.728 1.904 1.974V159h.924v-4.298c0-1.75-1.036-2.87-2.744-2.87zm7.765 0c-2.17 0-3.654 1.61-3.654 3.668 0 2.114 1.512 3.668 3.724 3.668 1.414 0 2.492-.658 3.08-1.61l-.812-.476c-.378.672-1.148 1.19-2.254 1.19-1.484 0-2.59-.882-2.786-2.31h6.146c.014-.14.028-.294.028-.434 0-1.918-1.33-3.696-3.472-3.696zm0 .896c1.204 0 2.324.798 2.52 2.338h-5.222c.182-1.372 1.232-2.338 2.702-2.338zm5.866.434V152h-.924v7h.924v-3.892c0-1.736 1.092-2.324 2.212-2.324v-.896c-.896 0-1.722.294-2.212 1.274zm14.44-1.33c-.896 0-1.75.406-2.268 1.274-.392-.812-1.148-1.274-2.128-1.274-.84 0-1.596.336-2.142 1.19V152h-.924v7h.924v-3.878c0-1.736 1.008-2.394 2.016-2.394.994 0 1.638.658 1.638 1.904V159h.924v-3.878c0-1.736.868-2.394 1.946-2.394.994 0 1.708.658 1.708 1.904V159h.924v-4.368c0-1.75-1.078-2.8-2.618-2.8zm4.867-1.316a.672.672 0 100-1.344.672.672 0 000 1.344zm-.462 8.484h.924v-7h-.924v7zm3.613-5.166c0-.756.742-1.106 1.47-1.106.672 0 1.386.266 1.68.98l.77-.448c-.406-.868-1.302-1.428-2.45-1.428-1.4 0-2.394.882-2.394 2.002 0 2.576 4.088 1.582 4.088 3.318 0 .826-.784 1.12-1.61 1.12-.938 0-1.666-.462-1.918-1.176l-.784.462c.35.896 1.302 1.61 2.702 1.61 1.498 0 2.534-.826 2.534-2.016 0-2.576-4.088-1.582-4.088-3.318zm5.934 0c0-.756.742-1.106 1.47-1.106.672 0 1.386.266 1.68.98l.77-.448c-.406-.868-1.302-1.428-2.45-1.428-1.4 0-2.394.882-2.394 2.002 0 2.576 4.088 1.582 4.088 3.318 0 .826-.784 1.12-1.61 1.12-.938 0-1.666-.462-1.918-1.176l-.784.462c.35.896 1.302 1.61 2.702 1.61 1.498 0 2.534-.826 2.534-2.016 0-2.576-4.088-1.582-4.088-3.318zm6.023-3.318a.672.672 0 100-1.344.672.672 0 000 1.344zm-.462 8.484h.924v-7h-.924v7zm6.161-7.168c-.994 0-1.806.378-2.352 1.26V152h-.924v7h.924v-3.668c0-1.876 1.036-2.604 2.268-2.604 1.218 0 1.904.728 1.904 1.974V159h.924v-4.298c0-1.75-1.036-2.87-2.744-2.87zm10.55.168v1.372c-.588-.938-1.582-1.54-2.828-1.54-1.974 0-3.612 1.596-3.612 3.668s1.638 3.668 3.612 3.668c1.246 0 2.24-.602 2.828-1.54v1.092c0 1.428-.966 2.352-2.59 2.352-1.512 0-2.156-.56-2.506-1.274l-.812.462c.546 1.092 1.708 1.708 3.318 1.708 1.806 0 3.514-1.12 3.514-3.248V152h-.924zm-2.758 6.272c-1.554 0-2.758-1.218-2.758-2.772 0-1.554 1.204-2.772 2.758-2.772s2.758 1.218 2.758 2.772c0 1.554-1.204 2.772-2.758 2.772zm9.601-7.756a.672.672 0 100-1.344.672.672 0 000 1.344zm-.462 8.484h.924v-7h-.924v7zm6.594-6.104V152h-2.016v-1.96l-.924.28V152h-1.47v.896h1.47v4.242c0 1.68 1.05 2.142 2.94 1.862v-.812c-1.358.056-2.016.154-2.016-1.05v-4.242h2.016zm4.351-1.064c-2.17 0-3.654 1.61-3.654 3.668 0 2.114 1.512 3.668 3.724 3.668 1.414 0 2.492-.658 3.08-1.61l-.812-.476c-.378.672-1.148 1.19-2.254 1.19-1.484 0-2.59-.882-2.786-2.31h6.146c.014-.14.028-.294.028-.434 0-1.918-1.33-3.696-3.472-3.696zm0 .896c1.204 0 2.324.798 2.52 2.338h-5.222c.182-1.372 1.232-2.338 2.702-2.338zm12.403-.896c-.896 0-1.75.406-2.268 1.274-.392-.812-1.148-1.274-2.128-1.274-.84 0-1.596.336-2.142 1.19V152h-.924v7h.924v-3.878c0-1.736 1.008-2.394 2.016-2.394.994 0 1.638.658 1.638 1.904V159h.924v-3.878c0-1.736.868-2.394 1.946-2.394.994 0 1.708.658 1.708 1.904V159h.924v-4.368c0-1.75-1.078-2.8-2.618-2.8zm5.134 2.002c0-.756.742-1.106 1.47-1.106.672 0 1.386.266 1.68.98l.77-.448c-.406-.868-1.302-1.428-2.45-1.428-1.4 0-2.394.882-2.394 2.002 0 2.576 4.088 1.582 4.088 3.318 0 .826-.784 1.12-1.61 1.12-.938 0-1.666-.462-1.918-1.176l-.784.462c.35.896 1.302 1.61 2.702 1.61 1.498 0 2.534-.826 2.534-2.016 0-2.576-4.088-1.582-4.088-3.318zM310.367 152l-1.722 5.81-1.834-5.81h-.924l-1.834 5.81-1.722-5.81h-.952l2.156 7h1.008l1.806-5.642 1.806 5.642h1.008l2.156-7h-.952zm5.306-.168c-2.17 0-3.654 1.61-3.654 3.668 0 2.114 1.512 3.668 3.724 3.668 1.414 0 2.492-.658 3.08-1.61l-.812-.476c-.378.672-1.148 1.19-2.254 1.19-1.484 0-2.59-.882-2.786-2.31h6.146c.014-.14.028-.294.028-.434 0-1.918-1.33-3.696-3.472-3.696zm0 .896c1.204 0 2.324.798 2.52 2.338h-5.222c.182-1.372 1.232-2.338 2.702-2.338zm5.866.434V152h-.924v7h.924v-3.892c0-1.736 1.092-2.324 2.212-2.324v-.896c-.896 0-1.722.294-2.212 1.274zm6.288-1.33c-2.17 0-3.654 1.61-3.654 3.668 0 2.114 1.512 3.668 3.724 3.668 1.414 0 2.492-.658 3.08-1.61l-.812-.476c-.378.672-1.148 1.19-2.254 1.19-1.484 0-2.59-.882-2.786-2.31h6.146c.014-.14.028-.294.028-.434 0-1.918-1.33-3.696-3.472-3.696zm0 .896c1.204 0 2.324.798 2.52 2.338h-5.222c.182-1.372 1.232-2.338 2.702-2.338zm9.366.434V152h-.924v7h.924v-3.892c0-1.736 1.092-2.324 2.212-2.324v-.896c-.896 0-1.722.294-2.212 1.274zm6.289-1.33c-2.17 0-3.654 1.61-3.654 3.668 0 2.114 1.512 3.668 3.724 3.668 1.414 0 2.492-.658 3.08-1.61l-.812-.476c-.378.672-1.148 1.19-2.254 1.19-1.484 0-2.59-.882-2.786-2.31h6.146c.014-.14.028-.294.028-.434 0-1.918-1.33-3.696-3.472-3.696zm0 .896c1.204 0 2.324.798 2.52 2.338h-5.222c.182-1.372 1.232-2.338 2.702-2.338zm8.693-.896c-1.246 0-2.24.602-2.828 1.54V152h-.924v9.8h.924v-4.172c.588.938 1.582 1.54 2.828 1.54 1.974 0 3.612-1.596 3.612-3.668s-1.638-3.668-3.612-3.668zm-.07 6.44c-1.554 0-2.758-1.218-2.758-2.772 0-1.554 1.204-2.772 2.758-2.772s2.758 1.218 2.758 2.772c0 1.554-1.204 2.772-2.758 2.772zm5.219.728h.924v-10.22h-.924V159zm8.905-7v1.372c-.588-.938-1.582-1.54-2.828-1.54-1.974 0-3.612 1.596-3.612 3.668s1.638 3.668 3.612 3.668c1.246 0 2.24-.602 2.828-1.54V159h.924v-7h-.924zm-2.758 6.272c-1.554 0-2.758-1.218-2.758-2.772 0-1.554 1.204-2.772 2.758-2.772s2.758 1.218 2.758 2.772c0 1.554-1.204 2.772-2.758 2.772zm8.9.896c1.372 0 2.562-.714 3.136-1.82l-.77-.448c-.448.812-1.302 1.372-2.366 1.372-1.554 0-2.758-1.218-2.758-2.772 0-1.554 1.204-2.772 2.758-2.772 1.05 0 1.932.546 2.31 1.372l.756-.434c-.504-1.106-1.68-1.834-3.066-1.834-2.114 0-3.682 1.596-3.682 3.668s1.568 3.668 3.682 3.668zm7.628-7.336c-2.17 0-3.654 1.61-3.654 3.668 0 2.114 1.512 3.668 3.724 3.668 1.414 0 2.492-.658 3.08-1.61l-.812-.476c-.378.672-1.148 1.19-2.254 1.19-1.484 0-2.59-.882-2.786-2.31h6.146c.014-.14.028-.294.028-.434 0-1.918-1.33-3.696-3.472-3.696zm0 .896c1.204 0 2.324.798 2.52 2.338h-5.222c.182-1.372 1.232-2.338 2.702-2.338zm10.962-3.528v4.172c-.588-.938-1.582-1.54-2.828-1.54-1.974 0-3.612 1.596-3.612 3.668s1.638 3.668 3.612 3.668c1.246 0 2.24-.602 2.828-1.54V159h.924v-9.8h-.924zm-2.758 9.072c-1.554 0-2.758-1.218-2.758-2.772 0-1.554 1.204-2.772 2.758-2.772s2.758 1.218 2.758 2.772c0 1.554-1.204 2.772-2.758 2.772zm12.4.896c2.044 0 3.682-1.596 3.682-3.668s-1.638-3.668-3.682-3.668-3.682 1.596-3.682 3.668 1.638 3.668 3.682 3.668zm0-.896c-1.554 0-2.758-1.218-2.758-2.772 0-1.554 1.204-2.772 2.758-2.772s2.758 1.218 2.758 2.772c0 1.554-1.204 2.772-2.758 2.772zm6.153-5.11V152h-.924v7h.924v-3.892c0-1.736 1.092-2.324 2.212-2.324v-.896c-.896 0-1.722.294-2.212 1.274zM418.662 152v3.668c0 1.876-1.036 2.604-2.268 2.604-1.218 0-1.904-.728-1.904-1.974V152h-.924v4.298c0 1.75 1.036 2.87 2.744 2.87.994 0 1.806-.378 2.352-1.26V159h.924v-7h-.924zm6.155-.168c-.994 0-1.806.378-2.352 1.26V152h-.924v7h.924v-3.668c0-1.876 1.036-2.604 2.268-2.604 1.218 0 1.904.728 1.904 1.974V159h.924v-4.298c0-1.75-1.036-2.87-2.744-2.87zm8.03-1.904v-.896c-1.89-.14-2.94.868-2.94 2.688v.28h-1.19v.896h1.19V159h.924v-6.104h2.016V152h-2.016v-.28c0-1.344.658-1.904 2.016-1.792zM438.76 152v3.668c0 1.876-1.036 2.604-2.268 2.604-1.218 0-1.904-.728-1.904-1.974V152h-.924v4.298c0 1.75 1.036 2.87 2.744 2.87.994 0 1.806-.378 2.352-1.26V159h.924v-7h-.924zm2.878 7h.924v-10.22h-.924V159zm8.149-7h-3.78v-.28c0-1.344.658-1.792 2.016-1.792.434 0 .854.028 1.344.112v-.84a6.073 6.073 0 00-1.344-.168c-1.89 0-2.94.868-2.94 2.688v.28h-1.19v.896h1.19V159h.924v-6.104h2.856V159h.924v-7zm1.955 7h.924v-10.22h-.924V159zm2.884 0h.924v-10.22h-.924V159zm6.119-7.168c-2.17 0-3.654 1.61-3.654 3.668 0 2.114 1.512 3.668 3.724 3.668 1.414 0 2.492-.658 3.08-1.61l-.812-.476c-.378.672-1.148 1.19-2.254 1.19-1.484 0-2.59-.882-2.786-2.31h6.146c.014-.14.028-.294.028-.434 0-1.918-1.33-3.696-3.472-3.696zm0 .896c1.204 0 2.324.798 2.52 2.338h-5.222c.182-1.372 1.232-2.338 2.702-2.338zm10.962-3.528v4.172c-.588-.938-1.582-1.54-2.828-1.54-1.974 0-3.612 1.596-3.612 3.668s1.638 3.668 3.612 3.668c1.246 0 2.24-.602 2.828-1.54V159h.924v-9.8h-.924zm-2.758 9.072c-1.554 0-2.758-1.218-2.758-2.772 0-1.554 1.204-2.772 2.758-2.772s2.758 1.218 2.758 2.772c0 1.554-1.204 2.772-2.758 2.772z" fill="#1A1A1A"/>
  <path d="M78 127h418v-2H78v2zm425 7v40h2v-40h-2zm-7 47H78v2h418v-2zm-425-7v-40h-2v40h2zm7 7a7 7 0 01-7-7h-2a9 9 0 009 9v-2zm425-7a7 7 0 01-7 7v2a9 9 0 009-9h-2zm-7-47a7 7 0 017 7h2a9 9 0 00-9-9v2zm-418-2a9 9 0 00-9 9h2a7 7 0 017-7v-2z" fill="#E5E5E5"/>
  <path d="M398 222a8 8 0 018-8h359a8 8 0 018 8v40a8 8 0 01-8 8H406a8 8 0 01-8-8v-40z" fill="#fff"/>
  <path d="M434.855 238.124v-.924h-5.53v9.8h.98v-4.34h4.34v-.924h-4.34v-3.612h4.55zm4.797 9.044c2.044 0 3.682-1.596 3.682-3.668s-1.638-3.668-3.682-3.668-3.682 1.596-3.682 3.668 1.638 3.668 3.682 3.668zm0-.896c-1.554 0-2.758-1.218-2.758-2.772 0-1.554 1.204-2.772 2.758-2.772s2.758 1.218 2.758 2.772c0 1.554-1.204 2.772-2.758 2.772zm5.228.728h.924v-10.22h-.924V247zm2.885 0h.924v-10.22h-.924V247zm6.147.168c2.044 0 3.682-1.596 3.682-3.668s-1.638-3.668-3.682-3.668-3.682 1.596-3.682 3.668 1.638 3.668 3.682 3.668zm0-.896c-1.554 0-2.758-1.218-2.758-2.772 0-1.554 1.204-2.772 2.758-2.772s2.758 1.218 2.758 2.772c0 1.554-1.204 2.772-2.758 2.772zM467.295 240l-1.722 5.81-1.834-5.81h-.924l-1.834 5.81-1.722-5.81h-.952l2.156 7h1.008l1.806-5.642 1.806 5.642h1.008l2.156-7h-.952zm10.773 0v3.668c0 1.876-1.036 2.604-2.268 2.604-1.218 0-1.904-.728-1.904-1.974V240h-.924v4.298c0 1.75 1.036 2.87 2.744 2.87.994 0 1.806-.378 2.352-1.26V247h.924v-7h-.924zm6.631-.168c-1.246 0-2.24.602-2.828 1.54V240h-.924v9.8h.924v-4.172c.588.938 1.582 1.54 2.828 1.54 1.974 0 3.612-1.596 3.612-3.668s-1.638-3.668-3.612-3.668zm-.07 6.44c-1.554 0-2.758-1.218-2.758-2.772 0-1.554 1.204-2.772 2.758-2.772s2.758 1.218 2.758 2.772c0 1.554-1.204 2.772-2.758 2.772zM501.775 240l-1.722 5.81-1.834-5.81h-.924l-1.834 5.81-1.722-5.81h-.952l2.156 7h1.008l1.806-5.642 1.806 5.642h1.008l2.156-7h-.952zm2.808-1.484a.672.672 0 100-1.344.672.672 0 000 1.344zm-.462 8.484h.924v-7h-.924v7zm6.594-6.104V240h-2.016v-1.96l-.924.28V240h-1.47v.896h1.47v4.242c0 1.68 1.05 2.142 2.94 1.862v-.812c-1.358.056-2.016.154-2.016-1.05v-4.242h2.016zm4.816-1.064c-.994 0-1.806.378-2.352 1.26V237.2h-.924v9.8h.924v-3.668c0-1.876 1.036-2.604 2.268-2.604 1.218 0 1.904.728 1.904 1.974V247h.924v-4.298c0-1.75-1.036-2.87-2.744-2.87zm11.783 0c-1.246 0-2.24.602-2.828 1.54V240h-.924v9.8h.924v-4.172c.588.938 1.582 1.54 2.828 1.54 1.974 0 3.612-1.596 3.612-3.668s-1.638-3.668-3.612-3.668zm-.07 6.44c-1.554 0-2.758-1.218-2.758-2.772 0-1.554 1.204-2.772 2.758-2.772s2.758 1.218 2.758 2.772c0 1.554-1.204 2.772-2.758 2.772zm5.68-7.756a.672.672 0 100-1.344.672.672 0 000 1.344zm-.462 8.484h.924v-7h-.924v7zm6.147.168c1.372 0 2.562-.714 3.136-1.82l-.77-.448c-.448.812-1.302 1.372-2.366 1.372-1.554 0-2.758-1.218-2.758-2.772 0-1.554 1.204-2.772 2.758-2.772 1.05 0 1.932.546 2.31 1.372l.756-.434c-.504-1.106-1.68-1.834-3.066-1.834-2.114 0-3.682 1.596-3.682 3.668s1.568 3.668 3.682 3.668zm10.119-.168l-3.752-3.64 3.612-3.36h-1.26l-3.332 3.094V237.2h-.924v9.8h.924v-3.374l3.5 3.374h1.232zm3.799-7.168c-2.17 0-3.654 1.61-3.654 3.668 0 2.114 1.512 3.668 3.724 3.668 1.414 0 2.492-.658 3.08-1.61l-.812-.476c-.378.672-1.148 1.19-2.254 1.19-1.484 0-2.59-.882-2.786-2.31h6.146c.014-.14.028-.294.028-.434 0-1.918-1.33-3.696-3.472-3.696zm0 .896c1.204 0 2.324.798 2.52 2.338h-5.222c.182-1.372 1.232-2.338 2.702-2.338zm5.865.434V240h-.924v7h.924v-3.892c0-1.736 1.092-2.324 2.212-2.324v-.896c-.896 0-1.722.294-2.212 1.274zm3.933.672c0-.756.742-1.106 1.47-1.106.672 0 1.386.266 1.68.98l.77-.448c-.406-.868-1.302-1.428-2.45-1.428-1.4 0-2.394.882-2.394 2.002 0 2.576 4.088 1.582 4.088 3.318 0 .826-.784 1.12-1.61 1.12-.938 0-1.666-.462-1.918-1.176l-.784.462c.35.896 1.302 1.61 2.702 1.61 1.498 0 2.534-.826 2.534-2.016 0-2.576-4.088-1.582-4.088-3.318zm10.054-.672V240h-.924v7h.924v-3.892c0-1.736 1.092-2.324 2.212-2.324v-.896c-.896 0-1.722.294-2.212 1.274zm6.288-1.33c-2.17 0-3.654 1.61-3.654 3.668 0 2.114 1.512 3.668 3.724 3.668 1.414 0 2.492-.658 3.08-1.61l-.812-.476c-.378.672-1.148 1.19-2.254 1.19-1.484 0-2.59-.882-2.786-2.31h6.146c.014-.14.028-.294.028-.434 0-1.918-1.33-3.696-3.472-3.696zm0 .896c1.204 0 2.324.798 2.52 2.338h-5.222c.182-1.372 1.232-2.338 2.702-2.338zm10.962-.728v1.372c-.588-.938-1.582-1.54-2.828-1.54-1.974 0-3.612 1.596-3.612 3.668s1.638 3.668 3.612 3.668c1.246 0 2.24-.602 2.828-1.54v1.092c0 1.428-.966 2.352-2.59 2.352-1.512 0-2.156-.56-2.506-1.274l-.812.462c.546 1.092 1.708 1.708 3.318 1.708 1.806 0 3.514-1.12 3.514-3.248V240h-.924zm-2.758 6.272c-1.554 0-2.758-1.218-2.758-2.772 0-1.554 1.204-2.772 2.758-2.772s2.758 1.218 2.758 2.772c0 1.554-1.204 2.772-2.758 2.772zM598.529 240v1.372c-.588-.938-1.582-1.54-2.828-1.54-1.974 0-3.612 1.596-3.612 3.668s1.638 3.668 3.612 3.668c1.246 0 2.24-.602 2.828-1.54V247h.924v-7h-.924zm-2.758 6.272c-1.554 0-2.758-1.218-2.758-2.772 0-1.554 1.204-2.772 2.758-2.772s2.758 1.218 2.758 2.772c0 1.554-1.204 2.772-2.758 2.772zm6.563-5.11V240h-.924v7h.924v-3.892c0-1.736 1.092-2.324 2.212-2.324v-.896c-.896 0-1.722.294-2.212 1.274zm9.074-3.962v4.172c-.588-.938-1.582-1.54-2.828-1.54-1.974 0-3.612 1.596-3.612 3.668s1.638 3.668 3.612 3.668c1.246 0 2.24-.602 2.828-1.54V247h.924v-9.8h-.924zm-2.758 9.072c-1.554 0-2.758-1.218-2.758-2.772 0-1.554 1.204-2.772 2.758-2.772s2.758 1.218 2.758 2.772c0 1.554-1.204 2.772-2.758 2.772zm6.101-7.756a.672.672 0 100-1.344.672.672 0 000 1.344zm-.462 8.484h.924v-7h-.924v7zm6.16-7.168c-.994 0-1.806.378-2.352 1.26V240h-.924v7h.924v-3.668c0-1.876 1.036-2.604 2.268-2.604 1.218 0 1.904.728 1.904 1.974V247h.924v-4.298c0-1.75-1.036-2.87-2.744-2.87zM631 240v1.372c-.588-.938-1.582-1.54-2.828-1.54-1.974 0-3.612 1.596-3.612 3.668s1.638 3.668 3.612 3.668c1.246 0 2.24-.602 2.828-1.54v1.092c0 1.428-.966 2.352-2.59 2.352-1.512 0-2.156-.56-2.506-1.274l-.812.462c.546 1.092 1.708 1.708 3.318 1.708 1.806 0 3.514-1.12 3.514-3.248V240H631zm-2.758 6.272c-1.554 0-2.758-1.218-2.758-2.772 0-1.554 1.204-2.772 2.758-2.772S631 241.946 631 243.5c0 1.554-1.204 2.772-2.758 2.772zM643.4 240v1.372c-.588-.938-1.582-1.54-2.828-1.54-1.974 0-3.612 1.596-3.612 3.668s1.638 3.668 3.612 3.668c1.246 0 2.24-.602 2.828-1.54V247h.924v-7h-.924zm-2.758 6.272c-1.554 0-2.758-1.218-2.758-2.772 0-1.554 1.204-2.772 2.758-2.772s2.758 1.218 2.758 2.772c0 1.554-1.204 2.772-2.758 2.772zm8.915-6.44c-.994 0-1.806.378-2.352 1.26V240h-.924v7h.924v-3.668c0-1.876 1.036-2.604 2.268-2.604 1.218 0 1.904.728 1.904 1.974V247h.924v-4.298c0-1.75-1.036-2.87-2.744-2.87zm9.434.168l-2.268 5.866-2.632-5.866h-.98l3.136 7.042-.182.434c-.378.91-1.008 1.554-1.918 1.456v.868c1.26.098 2.296-.812 2.828-2.156l2.996-7.644h-.98zm11.616 0v1.372c-.588-.938-1.582-1.54-2.828-1.54-1.974 0-3.612 1.596-3.612 3.668s1.638 3.668 3.612 3.668c1.246 0 2.24-.602 2.828-1.54v1.092c0 1.428-.966 2.352-2.59 2.352-1.512 0-2.156-.56-2.506-1.274l-.812.462c.546 1.092 1.708 1.708 3.318 1.708 1.806 0 3.514-1.12 3.514-3.248V240h-.924zm-2.758 6.272c-1.554 0-2.758-1.218-2.758-2.772 0-1.554 1.204-2.772 2.758-2.772s2.758 1.218 2.758 2.772c0 1.554-1.204 2.772-2.758 2.772zm6.101-7.756a.672.672 0 100-1.344.672.672 0 000 1.344zm-.462 8.484h.924v-7h-.924v7zm7.925-7l-2.45 6.034-2.45-6.034h-.98l2.87 7h1.12l2.87-7h-.98zm5.057-.168c-2.17 0-3.654 1.61-3.654 3.668 0 2.114 1.512 3.668 3.724 3.668 1.414 0 2.492-.658 3.08-1.61l-.812-.476c-.378.672-1.148 1.19-2.254 1.19-1.484 0-2.59-.882-2.786-2.31h6.146c.014-.14.028-.294.028-.434 0-1.918-1.33-3.696-3.472-3.696zm0 .896c1.204 0 2.324.798 2.52 2.338h-5.222c.182-1.372 1.232-2.338 2.702-2.338zm8.218-.896c-.994 0-1.806.378-2.352 1.26V240h-.924v7h.924v-3.668c0-1.876 1.036-2.604 2.268-2.604 1.218 0 1.904.728 1.904 1.974V247h.924v-4.298c0-1.75-1.036-2.87-2.744-2.87zm14.05.168v1.372c-.588-.938-1.582-1.54-2.828-1.54-1.974 0-3.612 1.596-3.612 3.668s1.638 3.668 3.612 3.668c1.246 0 2.24-.602 2.828-1.54V247h.924v-7h-.924zm-2.758 6.272c-1.554 0-2.758-1.218-2.758-2.772 0-1.554 1.204-2.772 2.758-2.772s2.758 1.218 2.758 2.772c0 1.554-1.204 2.772-2.758 2.772zm8.901.896c1.372 0 2.562-.714 3.136-1.82l-.77-.448c-.448.812-1.302 1.372-2.366 1.372-1.554 0-2.758-1.218-2.758-2.772 0-1.554 1.204-2.772 2.758-2.772 1.05 0 1.932.546 2.31 1.372l.756-.434c-.504-1.106-1.68-1.834-3.066-1.834-2.114 0-3.682 1.596-3.682 3.668s1.568 3.668 3.682 3.668zm8.172-6.272V240h-2.016v-1.96l-.924.28V240h-1.47v.896h1.47v4.242c0 1.68 1.05 2.142 2.94 1.862v-.812c-1.358.056-2.016.154-2.016-1.05v-4.242h2.016zm2.002-2.38a.672.672 0 100-1.344.672.672 0 000 1.344zm-.462 8.484h.924v-7h-.924v7zm6.147.168c2.044 0 3.682-1.596 3.682-3.668s-1.638-3.668-3.682-3.668-3.682 1.596-3.682 3.668 1.638 3.668 3.682 3.668zm0-.896c-1.554 0-2.758-1.218-2.758-2.772 0-1.554 1.204-2.772 2.758-2.772s2.758 1.218 2.758 2.772c0 1.554-1.204 2.772-2.758 2.772zm8.504-6.44c-.994 0-1.806.378-2.352 1.26V240h-.924v7h.924v-3.668c0-1.876 1.036-2.604 2.268-2.604 1.218 0 1.904.728 1.904 1.974V247h.924v-4.298c0-1.75-1.036-2.87-2.744-2.87z" fill="#1A1A1A"/>
  <path d="M406 215h359v-2H406v2zm366 7v40h2v-40h-2zm-7 47H406v2h359v-2zm-366-7v-40h-2v40h2zm7 7a7 7 0 01-7-7h-2a9 9 0 009 9v-2zm366-7a7 7 0 01-7 7v2a9 9 0 009-9h-2zm-7-47a7 7 0 017 7h2a9 9 0 00-9-9v2zm-359-2a9 9 0 00-9 9h2a7 7 0 017-7v-2z" fill="#E5E5E5"/>
  <path d="M1039 143a8 8 0 018-8h275a8 8 0 018 8v40a8 8 0 01-8 8h-275a8 8 0 01-8-8v-40z" fill="#fff"/>
  <path d="M1073.09 168h1l3.62-9.8h-1.07l-3.05 8.498-3.05-8.498h-1.07l3.62 9.8zm5.93-8.484a.67.67 0 00.67-.672.67.67 0 10-1.34 0c0 .364.29.672.67.672zm-.46 8.484h.92v-7h-.92v7zm6.12-7.168c-2.17 0-3.66 1.61-3.66 3.668 0 2.114 1.52 3.668 3.73 3.668 1.41 0 2.49-.658 3.08-1.61l-.81-.476c-.38.672-1.15 1.19-2.26 1.19-1.48 0-2.59-.882-2.78-2.31h6.14c.02-.14.03-.294.03-.434 0-1.918-1.33-3.696-3.47-3.696zm0 .896c1.2 0 2.32.798 2.52 2.338h-5.22c.18-1.372 1.23-2.338 2.7-2.338zm13.09-.728l-1.72 5.81-1.83-5.81h-.93l-1.83 5.81-1.72-5.81h-.95l2.15 7h1.01l1.81-5.642 1.8 5.642h1.01l2.16-7h-.96zm6.58 1.834c0-.756.74-1.106 1.47-1.106.67 0 1.38.266 1.68.98l.77-.448c-.41-.868-1.3-1.428-2.45-1.428-1.4 0-2.4.882-2.4 2.002 0 2.576 4.09 1.582 4.09 3.318 0 .826-.78 1.12-1.61 1.12-.94 0-1.66-.462-1.92-1.176l-.78.462c.35.896 1.3 1.61 2.7 1.61 1.5 0 2.54-.826 2.54-2.016 0-2.576-4.09-1.582-4.09-3.318zm9.06-.938V161h-2.01v-1.96l-.93.28V161H1109v.896h1.47v4.242c0 1.68 1.05 2.142 2.94 1.862v-.812c-1.35.056-2.01.154-2.01-1.05v-4.242h2.01zm7.14-.896v1.372c-.59-.938-1.58-1.54-2.83-1.54-1.97 0-3.61 1.596-3.61 3.668s1.64 3.668 3.61 3.668c1.25 0 2.24-.602 2.83-1.54V168h.92v-7h-.92zm-2.76 6.272c-1.55 0-2.76-1.218-2.76-2.772 0-1.554 1.21-2.772 2.76-2.772 1.56 0 2.76 1.218 2.76 2.772 0 1.554-1.2 2.772-2.76 2.772zm11.66-6.272v1.372c-.59-.938-1.58-1.54-2.83-1.54-1.97 0-3.61 1.596-3.61 3.668s1.64 3.668 3.61 3.668c1.25 0 2.24-.602 2.83-1.54v1.092c0 1.428-.97 2.352-2.59 2.352-1.51 0-2.16-.56-2.51-1.274l-.81.462c.55 1.092 1.71 1.708 3.32 1.708 1.81 0 3.51-1.12 3.51-3.248V161h-.92zm-2.76 6.272c-1.55 0-2.76-1.218-2.76-2.772 0-1.554 1.21-2.772 2.76-2.772 1.56 0 2.76 1.218 2.76 2.772 0 1.554-1.2 2.772-2.76 2.772zm6.1-7.756a.67.67 0 00.67-.672.67.67 0 10-1.34 0c0 .364.29.672.67.672zm-.46 8.484h.92v-7h-.92v7zm6.16-7.168c-.99 0-1.8.378-2.35 1.26V161h-.92v7h.92v-3.668c0-1.876 1.04-2.604 2.27-2.604 1.22 0 1.9.728 1.9 1.974V168h.93v-4.298c0-1.75-1.04-2.87-2.75-2.87zm10.55.168v1.372c-.59-.938-1.58-1.54-2.83-1.54-1.97 0-3.61 1.596-3.61 3.668s1.64 3.668 3.61 3.668c1.25 0 2.24-.602 2.83-1.54v1.092c0 1.428-.96 2.352-2.59 2.352-1.51 0-2.15-.56-2.5-1.274l-.82.462c.55 1.092 1.71 1.708 3.32 1.708 1.81 0 3.52-1.12 3.52-3.248V161h-.93zm-2.76 6.272c-1.55 0-2.75-1.218-2.75-2.772 0-1.554 1.2-2.772 2.75-2.772 1.56 0 2.76 1.218 2.76 2.772 0 1.554-1.2 2.772-2.76 2.772zm12.85-5.376V161h-2.01v-1.96l-.93.28V161h-1.47v.896h1.47v4.242c0 1.68 1.05 2.142 2.94 1.862v-.812c-1.36.056-2.01.154-2.01-1.05v-4.242h2.01zm2-2.38c.38 0 .68-.308.68-.672a.676.676 0 00-1.35 0c0 .364.3.672.67.672zm-.46 8.484h.93v-7h-.93v7zm10.35-7.168c-.9 0-1.75.406-2.27 1.274-.39-.812-1.15-1.274-2.13-1.274-.84 0-1.59.336-2.14 1.19V161h-.92v7h.92v-3.878c0-1.736 1.01-2.394 2.02-2.394.99 0 1.64.658 1.64 1.904V168h.92v-3.878c0-1.736.87-2.394 1.95-2.394.99 0 1.7.658 1.7 1.904V168h.93v-4.368c0-1.75-1.08-2.8-2.62-2.8zm7.64 0c-2.17 0-3.66 1.61-3.66 3.668 0 2.114 1.52 3.668 3.73 3.668 1.41 0 2.49-.658 3.08-1.61l-.81-.476c-.38.672-1.15 1.19-2.26 1.19-1.48 0-2.59-.882-2.78-2.31h6.14c.02-.14.03-.294.03-.434 0-1.918-1.33-3.696-3.47-3.696zm0 .896c1.2 0 2.32.798 2.52 2.338h-5.22c.18-1.372 1.23-2.338 2.7-2.338zm11.94-2.8v-.896c-1.89-.14-2.94.868-2.94 2.688v.28h-1.19v.896h1.19V168h.92v-6.104h2.02V161h-2.02v-.28c0-1.344.66-1.904 2.02-1.792zm3.82 9.24c2.05 0 3.68-1.596 3.68-3.668s-1.63-3.668-3.68-3.668c-2.04 0-3.68 1.596-3.68 3.668s1.64 3.668 3.68 3.668zm0-.896c-1.55 0-2.76-1.218-2.76-2.772 0-1.554 1.21-2.772 2.76-2.772 1.56 0 2.76 1.218 2.76 2.772 0 1.554-1.2 2.772-2.76 2.772zm6.15-5.11V161h-.92v7h.92v-3.892c0-1.736 1.1-2.324 2.22-2.324v-.896c-.9 0-1.73.294-2.22 1.274zm13-1.162v1.372c-.58-.938-1.58-1.54-2.82-1.54-1.98 0-3.62 1.596-3.62 3.668s1.64 3.668 3.62 3.668c1.24 0 2.24-.602 2.82-1.54V168h.93v-7h-.93zm-2.75 6.272c-1.56 0-2.76-1.218-2.76-2.772 0-1.554 1.2-2.772 2.76-2.772 1.55 0 2.75 1.218 2.75 2.772 0 1.554-1.2 2.772-2.75 2.772zm8.91-6.44c-.99 0-1.81.378-2.35 1.26V161h-.93v7h.93v-3.668c0-1.876 1.03-2.604 2.27-2.604 1.21 0 1.9.728 1.9 1.974V168h.92v-4.298c0-1.75-1.03-2.87-2.74-2.87zm9.43.168l-2.26 5.866-2.64-5.866h-.98l3.14 7.042-.18.434c-.38.91-1.01 1.554-1.92 1.456v.868c1.26.098 2.3-.812 2.83-2.156l2.99-7.644h-.98zm11.62 0v1.372c-.59-.938-1.58-1.54-2.83-1.54-1.97 0-3.61 1.596-3.61 3.668s1.64 3.668 3.61 3.668c1.25 0 2.24-.602 2.83-1.54v1.092c0 1.428-.97 2.352-2.59 2.352-1.51 0-2.16-.56-2.51-1.274l-.81.462c.55 1.092 1.71 1.708 3.32 1.708 1.81 0 3.51-1.12 3.51-3.248V161h-.92zm-2.76 6.272c-1.55 0-2.76-1.218-2.76-2.772 0-1.554 1.21-2.772 2.76-2.772 1.56 0 2.76 1.218 2.76 2.772 0 1.554-1.2 2.772-2.76 2.772zm6.1-7.756a.67.67 0 00.67-.672.67.67 0 10-1.34 0c0 .364.29.672.67.672zm-.46 8.484h.92v-7h-.92v7zm7.93-7l-2.45 6.034-2.45-6.034h-.98l2.87 7h1.12l2.87-7h-.98zm5.05-.168c-2.17 0-3.65 1.61-3.65 3.668 0 2.114 1.51 3.668 3.72 3.668 1.42 0 2.49-.658 3.08-1.61l-.81-.476c-.38.672-1.15 1.19-2.25 1.19-1.49 0-2.59-.882-2.79-2.31h6.15a6.3 6.3 0 00.02-.434c0-1.918-1.33-3.696-3.47-3.696zm0 .896c1.21 0 2.33.798 2.52 2.338h-5.22c.18-1.372 1.23-2.338 2.7-2.338zm8.22-.896c-.99 0-1.81.378-2.35 1.26V161h-.93v7h.93v-3.668c0-1.876 1.03-2.604 2.27-2.604 1.21 0 1.9.728 1.9 1.974V168h.92v-4.298c0-1.75-1.03-2.87-2.74-2.87zm8.49-1.316c.38 0 .68-.308.68-.672a.676.676 0 00-1.35 0c0 .364.3.672.67.672zm-.46 8.484h.93v-7h-.93v7zm6.6-6.104V161h-2.02v-1.96l-.92.28V161h-1.47v.896h1.47v4.242c0 1.68 1.05 2.142 2.94 1.862v-.812c-1.36.056-2.02.154-2.02-1.05v-4.242h2.02zm4.35-1.064c-2.17 0-3.66 1.61-3.66 3.668 0 2.114 1.51 3.668 3.73 3.668 1.41 0 2.49-.658 3.08-1.61l-.82-.476c-.37.672-1.14 1.19-2.25 1.19-1.48 0-2.59-.882-2.79-2.31h6.15c.01-.14.03-.294.03-.434 0-1.918-1.33-3.696-3.47-3.696zm0 .896c1.2 0 2.32.798 2.52 2.338h-5.23c.19-1.372 1.24-2.338 2.71-2.338zm12.4-.896c-.9 0-1.75.406-2.27 1.274-.39-.812-1.15-1.274-2.13-1.274-.84 0-1.59.336-2.14 1.19V161h-.92v7h.92v-3.878c0-1.736 1.01-2.394 2.02-2.394.99 0 1.64.658 1.64 1.904V168h.92v-3.878c0-1.736.87-2.394 1.95-2.394.99 0 1.7.658 1.7 1.904V168h.93v-4.368c0-1.75-1.08-2.8-2.62-2.8z" fill="#1A1A1A"/>
  <path d="M1047 136h275v-2h-275v2zm282 7v40h2v-40h-2zm-7 47h-275v2h275v-2zm-282-7v-40h-2v40h2zm7 7c-3.87 0-7-3.134-7-7h-2a9 9 0 009 9v-2zm282-7c0 3.866-3.13 7-7 7v2a9 9 0 009-9h-2zm-7-47c3.87 0 7 3.134 7 7h2a9 9 0 00-9-9v2zm-275-2a9 9 0 00-9 9h2c0-3.866 3.13-7 7-7v-2z" fill="#E5E5E5"/>
  <path d="M818 222a8 8 0 018-8h299a8 8 0 018 8v40a8 8 0 01-8 8H826a8 8 0 01-8-8v-40z" fill="#fff"/>
  <path d="M851.994 247h1.008l3.612-9.8h-1.064l-3.052 8.498-3.052-8.498h-1.064l3.612 9.8zm5.934-8.484a.672.672 0 100-1.344.672.672 0 000 1.344zm-.462 8.484h.924v-7h-.924v7zm6.119-7.168c-2.17 0-3.654 1.61-3.654 3.668 0 2.114 1.512 3.668 3.724 3.668 1.414 0 2.492-.658 3.08-1.61l-.812-.476c-.378.672-1.148 1.19-2.254 1.19-1.484 0-2.59-.882-2.786-2.31h6.146c.014-.14.028-.294.028-.434 0-1.918-1.33-3.696-3.472-3.696zm0 .896c1.204 0 2.324.798 2.52 2.338h-5.222c.182-1.372 1.232-2.338 2.702-2.338zm13.096-.728l-1.722 5.81-1.834-5.81h-.924l-1.834 5.81-1.722-5.81h-.952l2.156 7h1.008l1.806-5.642 1.806 5.642h1.008l2.156-7h-.952zm6.574 1.834c0-.756.742-1.106 1.47-1.106.672 0 1.386.266 1.68.98l.77-.448c-.406-.868-1.302-1.428-2.45-1.428-1.4 0-2.394.882-2.394 2.002 0 2.576 4.088 1.582 4.088 3.318 0 .826-.784 1.12-1.61 1.12-.938 0-1.666-.462-1.918-1.176l-.784.462c.35.896 1.302 1.61 2.702 1.61 1.498 0 2.534-.826 2.534-2.016 0-2.576-4.088-1.582-4.088-3.318zm9.066-.938V240h-2.016v-1.96l-.924.28V240h-1.47v.896h1.47v4.242c0 1.68 1.05 2.142 2.94 1.862v-.812c-1.358.056-2.016.154-2.016-1.05v-4.242h2.016zm7.136-.896v1.372c-.588-.938-1.582-1.54-2.828-1.54-1.974 0-3.612 1.596-3.612 3.668s1.638 3.668 3.612 3.668c1.246 0 2.24-.602 2.828-1.54V247h.924v-7h-.924zm-2.758 6.272c-1.554 0-2.758-1.218-2.758-2.772 0-1.554 1.204-2.772 2.758-2.772s2.758 1.218 2.758 2.772c0 1.554-1.204 2.772-2.758 2.772zM908.357 240v1.372c-.588-.938-1.582-1.54-2.828-1.54-1.974 0-3.612 1.596-3.612 3.668s1.638 3.668 3.612 3.668c1.246 0 2.24-.602 2.828-1.54v1.092c0 1.428-.966 2.352-2.59 2.352-1.512 0-2.156-.56-2.506-1.274l-.812.462c.546 1.092 1.708 1.708 3.318 1.708 1.806 0 3.514-1.12 3.514-3.248V240h-.924zm-2.758 6.272c-1.554 0-2.758-1.218-2.758-2.772 0-1.554 1.204-2.772 2.758-2.772s2.758 1.218 2.758 2.772c0 1.554-1.204 2.772-2.758 2.772zm6.101-7.756a.672.672 0 100-1.344.672.672 0 000 1.344zm-.462 8.484h.924v-7h-.924v7zm6.161-7.168c-.994 0-1.806.378-2.352 1.26V240h-.924v7h.924v-3.668c0-1.876 1.036-2.604 2.268-2.604 1.218 0 1.904.728 1.904 1.974V247h.924v-4.298c0-1.75-1.036-2.87-2.744-2.87zm10.55.168v1.372c-.588-.938-1.582-1.54-2.828-1.54-1.974 0-3.612 1.596-3.612 3.668s1.638 3.668 3.612 3.668c1.246 0 2.24-.602 2.828-1.54v1.092c0 1.428-.966 2.352-2.59 2.352-1.512 0-2.156-.56-2.506-1.274l-.812.462c.546 1.092 1.708 1.708 3.318 1.708 1.806 0 3.514-1.12 3.514-3.248V240h-.924zm-2.758 6.272c-1.554 0-2.758-1.218-2.758-2.772 0-1.554 1.204-2.772 2.758-2.772s2.758 1.218 2.758 2.772c0 1.554-1.204 2.772-2.758 2.772zm9.139.728h.924v-10.22h-.924V247zm6.146.168c2.044 0 3.682-1.596 3.682-3.668s-1.638-3.668-3.682-3.668-3.682 1.596-3.682 3.668 1.638 3.668 3.682 3.668zm0-.896c-1.554 0-2.758-1.218-2.758-2.772 0-1.554 1.204-2.772 2.758-2.772s2.758 1.218 2.758 2.772c0 1.554-1.204 2.772-2.758 2.772zm8.491.896c1.372 0 2.562-.714 3.136-1.82l-.77-.448c-.448.812-1.302 1.372-2.366 1.372-1.554 0-2.758-1.218-2.758-2.772 0-1.554 1.204-2.772 2.758-2.772 1.05 0 1.932.546 2.31 1.372l.756-.434c-.504-1.106-1.68-1.834-3.066-1.834-2.114 0-3.682 1.596-3.682 3.668s1.568 3.668 3.682 3.668zM959.381 240v1.372c-.588-.938-1.582-1.54-2.828-1.54-1.974 0-3.612 1.596-3.612 3.668s1.638 3.668 3.612 3.668c1.246 0 2.24-.602 2.828-1.54V247h.924v-7h-.924zm-2.758 6.272c-1.554 0-2.758-1.218-2.758-2.772 0-1.554 1.204-2.772 2.758-2.772s2.758 1.218 2.758 2.772c0 1.554-1.204 2.772-2.758 2.772zm9.348-5.376V240h-2.016v-1.96l-.924.28V240h-1.47v.896h1.47v4.242c0 1.68 1.05 2.142 2.94 1.862v-.812c-1.358.056-2.016.154-2.016-1.05v-4.242h2.016zm2.002-2.38a.672.672 0 100-1.344.672.672 0 000 1.344zm-.462 8.484h.924v-7h-.924v7zm6.147.168c2.044 0 3.682-1.596 3.682-3.668s-1.638-3.668-3.682-3.668-3.682 1.596-3.682 3.668 1.638 3.668 3.682 3.668zm0-.896c-1.554 0-2.758-1.218-2.758-2.772 0-1.554 1.204-2.772 2.758-2.772s2.758 1.218 2.758 2.772c0 1.554-1.204 2.772-2.758 2.772zm8.504-6.44c-.994 0-1.806.378-2.352 1.26V240h-.924v7h.924v-3.668c0-1.876 1.036-2.604 2.268-2.604 1.218 0 1.904.728 1.904 1.974V247h.924v-4.298c0-1.75-1.036-2.87-2.744-2.87zm11.531-1.904v-.896c-1.89-.14-2.94.868-2.94 2.688v.28h-1.19v.896h1.19V247h.924v-6.104h2.016V240h-2.016v-.28c0-1.344.658-1.904 2.016-1.792zm3.822 9.24c2.044 0 3.685-1.596 3.685-3.668s-1.641-3.668-3.685-3.668-3.682 1.596-3.682 3.668 1.638 3.668 3.682 3.668zm0-.896c-1.554 0-2.758-1.218-2.758-2.772 0-1.554 1.204-2.772 2.758-2.772s2.755 1.218 2.755 2.772c0 1.554-1.201 2.772-2.755 2.772zm6.155-5.11V240h-.93v7h.93v-3.892c0-1.736 1.09-2.324 2.21-2.324v-.896c-.9 0-1.72.294-2.21 1.274zm13-1.162v1.372c-.59-.938-1.59-1.54-2.83-1.54-1.98 0-3.61 1.596-3.61 3.668s1.63 3.668 3.61 3.668c1.24 0 2.24-.602 2.83-1.54V247h.92v-7h-.92zm-2.76 6.272c-1.56 0-2.76-1.218-2.76-2.772 0-1.554 1.2-2.772 2.76-2.772 1.55 0 2.76 1.218 2.76 2.772 0 1.554-1.21 2.772-2.76 2.772zm8.91-6.44c-.99 0-1.8.378-2.35 1.26V240h-.92v7h.92v-3.668c0-1.876 1.04-2.604 2.27-2.604 1.22 0 1.9.728 1.9 1.974V247h.93v-4.298c0-1.75-1.04-2.87-2.75-2.87zm9.44.168l-2.27 5.866-2.63-5.866h-.98l3.13 7.042-.18.434c-.38.91-1.01 1.554-1.92 1.456v.868c1.26.098 2.3-.812 2.83-2.156l3-7.644h-.98zm11.61 0v1.372c-.58-.938-1.58-1.54-2.82-1.54-1.98 0-3.62 1.596-3.62 3.668s1.64 3.668 3.62 3.668c1.24 0 2.24-.602 2.82-1.54v1.092c0 1.428-.96 2.352-2.59 2.352-1.51 0-2.15-.56-2.5-1.274l-.81.462c.54 1.092 1.7 1.708 3.31 1.708 1.81 0 3.52-1.12 3.52-3.248V240h-.93zm-2.75 6.272c-1.56 0-2.76-1.218-2.76-2.772 0-1.554 1.2-2.772 2.76-2.772 1.55 0 2.75 1.218 2.75 2.772 0 1.554-1.2 2.772-2.75 2.772zm6.1-7.756c.37 0 .67-.308.67-.672a.676.676 0 00-1.35 0c0 .364.3.672.68.672zm-.47 8.484h.93v-7h-.93v7zm7.93-7l-2.45 6.034-2.45-6.034h-.98l2.87 7h1.12l2.87-7h-.98zm5.06-.168c-2.17 0-3.66 1.61-3.66 3.668 0 2.114 1.51 3.668 3.73 3.668 1.41 0 2.49-.658 3.08-1.61l-.82-.476c-.37.672-1.14 1.19-2.25 1.19-1.48 0-2.59-.882-2.79-2.31h6.15c.01-.14.03-.294.03-.434 0-1.918-1.33-3.696-3.47-3.696zm0 .896c1.2 0 2.32.798 2.52 2.338h-5.23c.19-1.372 1.24-2.338 2.71-2.338zm8.21-.896c-.99 0-1.8.378-2.35 1.26V240h-.92v7h.92v-3.668c0-1.876 1.04-2.604 2.27-2.604 1.22 0 1.9.728 1.9 1.974V247h.93v-4.298c0-1.75-1.04-2.87-2.75-2.87zm8.5-1.316c.37 0 .67-.308.67-.672a.676.676 0 00-1.35 0c0 .364.3.672.68.672zm-.47 8.484h.93v-7h-.93v7zm6.6-6.104V240h-2.02v-1.96l-.92.28V240h-1.47v.896h1.47v4.242c0 1.68 1.05 2.142 2.94 1.862v-.812c-1.36.056-2.02.154-2.02-1.05v-4.242h2.02zm4.35-1.064c-2.17 0-3.66 1.61-3.66 3.668 0 2.114 1.52 3.668 3.73 3.668 1.41 0 2.49-.658 3.08-1.61l-.81-.476c-.38.672-1.15 1.19-2.26 1.19-1.48 0-2.59-.882-2.78-2.31h6.14c.02-.14.03-.294.03-.434 0-1.918-1.33-3.696-3.47-3.696zm0 .896c1.2 0 2.32.798 2.52 2.338h-5.22c.18-1.372 1.23-2.338 2.7-2.338zm12.4-.896c-.89 0-1.75.406-2.27 1.274-.39-.812-1.14-1.274-2.12-1.274-.84 0-1.6.336-2.15 1.19V240h-.92v7h.92v-3.878c0-1.736 1.01-2.394 2.02-2.394.99 0 1.64.658 1.64 1.904V247h.92v-3.878c0-1.736.87-2.394 1.95-2.394.99 0 1.71.658 1.71 1.904V247h.92v-4.368c0-1.75-1.08-2.8-2.62-2.8z" fill="#1A1A1A"/>
  <path d="M826 215h299v-2H826v2zm306 7v40h2v-40h-2zm-7 47H826v2h299v-2zm-306-7v-40h-2v40h2zm7 7a7 7 0 01-7-7h-2a9 9 0 009 9v-2zm306-7c0 3.866-3.13 7-7 7v2a9 9 0 009-9h-2zm-7-47c3.87 0 7 3.134 7 7h2a9 9 0 00-9-9v2zm-299-2a9 9 0 00-9 9h2a7 7 0 017-7v-2z" fill="#E5E5E5"/>
  <g clip-path="url(#loblaw-trx_jtbd__clip0)">
    <path d="M411.514 83.61l-26.503 37.132" stroke="#404040" stroke-linecap="square"/>
    <path fill-rule="evenodd" clip-rule="evenodd" d="M384.322 121.708l-.292-3.895 4.07 2.905-3.778.99z" fill="#404040"/>
  </g>
  <g clip-path="url(#loblaw-trx_jtbd__clip1)">
    <path d="M505.444 83.856l77.801 123.29" stroke="#404040" stroke-linecap="square"/>
    <path fill-rule="evenodd" clip-rule="evenodd" d="M584.097 208.497l-3.715-1.203 4.229-2.669-.514 3.872z" fill="#404040"/>
  </g>
  <g clip-path="url(#loblaw-trx_jtbd__clip2)">
    <path d="M1048.77 84.752l-69.958 124.501" stroke="#404040" stroke-linecap="square"/>
    <path fill-rule="evenodd" clip-rule="evenodd" d="M978.036 210.635l-.71-3.84 4.359 2.449-3.649 1.391z" fill="#404040"/>
  </g>
  <g clip-path="url(#loblaw-trx_jtbd__clip3)">
    <path d="M1083.02 84.863l39.9 44.147" stroke="#404040" stroke-linecap="square"/>
    <path fill-rule="evenodd" clip-rule="evenodd" d="M1123.76 129.933l-3.87-.55 3.71-3.352.16 3.902z" fill="#404040"/>
  </g>
  <defs>
    <clipPath id="loblaw-trx_jtbd__clip0">
      <path fill="#fff" transform="rotate(125.517 184.974 148.938)" d="M0 0h47.494v5H0z"/>
    </clipPath>
    <clipPath id="loblaw-trx_jtbd__clip1">
      <path fill="#fff" transform="rotate(57.746 179.26 500.931)" d="M0 0h148.307v5H0z"/>
    </clipPath>
    <clipPath id="loblaw-trx_jtbd__clip2">
      <path fill="#fff" transform="rotate(119.332 500.625 350.294)" d="M0 0h144.707v5H0z"/>
    </clipPath>
    <clipPath id="loblaw-trx_jtbd__clip3">
      <path fill="#fff" transform="rotate(47.894 448.912 1262.678)" d="M0 0h61.324v5H0z"/>
    </clipPath>
  </defs>
</svg>
