<svg width="720" height="500" fill="none" xmlns="http://www.w3.org/2000/svg">
  <path fill="#000" d="M0 0h720v500H0z"/>
  <path fill="#fff" d="M269.533 62.533h374.933v374.933H269.533z"/>
  <path fill-rule="evenodd" clip-rule="evenodd" d="M267 250v190h380V60H267v190zm66.5-49.875v24.542h29.45v11.083H320.2v-60.167h13.3v24.542zm95-13.73v10.812l1.586-1.586c3.012-3.012 7.02-4.514 12.031-4.509 5.082.006 8.418 1.372 11.888 4.867 3.596 3.623 5.477 7.942 6.172 14.172 1.71 15.321-6.086 26.866-18.14 26.866-6.129 0-11.388-2.268-13.586-5.859l-.582-.95-.001 2.771-.001 2.771h-11.4v-60.167H428.5v10.812zm49.717 19.272v30.083h-12.034v-60.167h12.034v30.084zm-82.175-13.513c7.005 2.278 11.867 7.441 13.828 14.684.892 3.297.972 10.555.153 13.87-1.909 7.722-7.506 13.494-15.09 15.561-2.933.799-10.743.805-13.616.009-3.871-1.072-6.582-2.642-9.357-5.419-2.907-2.91-4.517-5.67-5.587-9.581-.964-3.523-.971-10.894-.013-14.39 1.761-6.424 5.584-11.068 11.32-13.75 3.47-1.622 5.925-2.041 11.237-1.916 3.897.091 4.975.233 7.125.932zm116.887-.569c5.227.9 9.123 3.334 10.799 6.747l.88 1.793.181 15.992c.155 13.763.254 16.212.709 17.575.291.87.53 1.69.532 1.82.002.131-2.698.238-5.998.238h-6.002l-.33-1.188c-.181-.652-.33-1.508-.331-1.9-.003-.934-.177-.902-1.527.283-4.824 4.235-15.557 5.388-21.609 2.321-4.557-2.309-7.063-7.272-6.47-12.814.62-5.792 3.906-9.293 10.25-10.922 1.112-.286 4.562-.86 7.666-1.275 6.518-.874 7.711-1.152 9.181-2.143 1.313-.884 1.863-1.91 1.869-3.485.01-2.665-1.683-4.675-4.435-5.265-5.517-1.184-9.92.702-10.839 4.642l-.388 1.663h-11.972l.181-1.761c.1-.969.61-2.675 1.133-3.792 2.1-4.488 6.337-7.371 12.549-8.54 3.114-.586 10.542-.58 13.971.011zm26.737 1.811c.197.74 1.984 7.354 3.971 14.698s3.629 13.472 3.648 13.617c.019.145 1.698-6.434 3.731-14.619l3.698-14.884 5.847-.085 5.847-.086 3.595 14.37c1.978 7.903 3.696 14.532 3.819 14.731.123.199 2.009-6.229 4.191-14.284l3.968-14.646 6.262-.086c4.964-.068 6.232-.002 6.111.317-.083.222-3.193 10.057-6.909 21.857l-6.757 21.454h-12.514l-.312-1.188c-2.868-10.911-7.379-27.801-7.443-27.865-.046-.046-1.625 6.009-3.508 13.456-1.884 7.446-3.553 14.002-3.708 14.568l-.283 1.029h-6.318c-3.475 0-6.319-.075-6.319-.166 0-.091-2.997-9.603-6.661-21.137-3.664-11.535-6.743-21.292-6.843-21.685l-.181-.712h12.711l.357 1.346zm-154 6.896c-5.198 1.309-8.143 6.286-8.145 13.766-.003 8.686 3.953 13.854 10.604 13.854 5.455 0 8.967-3.275 10.152-9.467 1.523-7.962-.97-15.387-5.877-17.498-1.833-.789-4.986-1.095-6.734-.655zm50.051.101c-4.84 1.36-7.667 6.404-7.658 13.665.011 8.544 4.032 13.966 10.285 13.872 4.302-.065 7.428-2.671 9.039-7.538.689-2.08.845-3.158.873-6.017.047-4.955-.994-8.535-3.285-11.301-1.944-2.345-6.129-3.558-9.254-2.681zm75.689 14.945c-.468.255-2.25.685-3.958.956-5.533.878-7.577 1.408-9.063 2.35-1.831 1.161-2.558 2.506-2.572 4.759-.015 2.367.799 3.728 2.834 4.74 2.209 1.098 6.481 1.108 8.953.022a8.304 8.304 0 004.616-5.336c.527-1.878.742-7.991.28-7.966-.131.007-.621.221-1.09.475zm-121.539 35.454v5.541h-12.034V245.25h12.034v5.542zm71.25 0v5.541H449.4V245.25h11.717v5.542zm-107.192-4.169c9.116 2.665 14.784 9.986 16.466 21.269 1.339 8.985.067 18.186-3.521 25.469-1.561 3.17-2.123 3.959-4.514 6.352-3.093 3.095-5.737 4.659-9.761 5.771-2.338.646-3.286.689-17.749.807l-15.279.124v-60.564l16.229.109c14.329.095 16.451.173 18.129.663zm200.292 29.502v30.242H542.5v-60.484h11.717v30.242zm-70.228-20.504l.086 6.254 3.562.09 3.563.089v8.213h-7.283l.002 12.27c.001 7.505.129 12.731.33 13.455.435 1.568 1.167 1.898 4.313 1.944l2.637.039v4.309l.001 4.31-3.78.221c-6.394.374-10.821-.572-12.948-2.766-1.929-1.99-1.955-2.246-1.955-18.781v-15.001h-6.334v-8.211l3.088-.09 3.087-.091.086-6.254.086-6.254h11.373l.086 6.254zm-152.072 20.346V295.6h7.067c7.889 0 9.375-.247 12.033-2.002 5.015-3.31 7.741-11.953 6.875-21.799-.666-7.57-2.71-12.03-6.369-13.896-2.603-1.328-4.485-1.57-12.231-1.57h-7.375v19.634zm87.463-15.166c3.264.683 6.025 2.597 8.401 5.824l.699.95.01-3.087.01-3.088h11.433l-.109 24.304c-.12 26.766-.046 25.722-2.142 30.033-1.761 3.62-5.798 6.518-11.082 7.956-3.029.824-14.152.815-17.1-.013-3.381-.951-6.005-2.401-8.103-4.479-1.988-1.969-3.048-4.039-3.493-6.821l-.202-1.263h12.692l.661 1.366c1.038 2.144 2.604 2.862 6.571 3.013 4.08.157 5.961-.399 7.895-2.334 1.865-1.865 2.389-3.691 2.584-9.01l.156-4.274-1.283 1.624c-1.502 1.899-2.522 2.675-5.033 3.829-1.565.719-2.376.863-5.487.976-6.149.223-9.709-1.083-13.614-4.996-2.566-2.572-4.23-5.448-5.229-9.036-.821-2.945-1.002-11.387-.318-14.767 1.454-7.179 5.118-12.693 10.116-15.222 3.304-1.671 8.184-2.276 11.967-1.485zm103.199.545c5.584 1.477 8.744 3.738 10.159 7.267.714 1.781.729 2.078.897 17.487.12 11.047.28 15.927.545 16.529.206.47.738 1.092 1.181 1.383.555.363.806.812.806 1.441v.914h-6.323c-7.175 0-6.822.136-7.167-2.759-.296-2.485-.301-2.487-2.264-.73-2.133 1.907-6.17 3.993-8.594 4.441-7.623 1.406-14.643-1.733-16.827-7.524-1.435-3.806-1.138-9.018.714-12.508 2.483-4.681 6.853-6.749 16.869-7.983 5.239-.645 7.283-1.23 8.477-2.423.864-.865.929-1.083.797-2.672-.178-2.149-1.016-3.136-3.217-3.79-1.911-.567-5.825-.612-7.581-.085-1.722.516-3.267 2.129-3.804 3.971l-.438 1.503-5.588.087-5.588.086v-1.049c0-4.248 3.152-9.62 6.967-11.873 1.466-.867 4.711-1.94 6.925-2.29 2.981-.473 10.314-.149 13.054.577zm-132.712 22.537v22.484h-12.034V261.4h12.034v22.483zm71.25 0v22.484H449.4V261.4h11.717v22.483zm-44.983-12.886c-4.576 1.29-6.814 4.967-7.169 11.778-.325 6.235 1.659 10.939 5.443 12.905.838.435 2.088.707 3.687.803 2.101.125 2.651.039 4.166-.655.96-.439 2.323-1.394 3.029-2.121 4.025-4.147 4.132-15.28.191-19.884-2.115-2.471-6.211-3.709-9.347-2.826zm104.199 14.374c-.609.268-3.041.891-5.402 1.385-4.798 1.003-5.665 1.28-7.026 2.25-2.328 1.657-2.809 6.064-.906 8.301 1.998 2.349 7.334 2.281 11.118-.142 2.731-1.749 3.8-4.391 3.8-9.392 0-1.617-.107-2.928-.238-2.914-.131.014-.736.245-1.346.512z" fill="#000"/>
  <circle cx="176" cy="374" r="36" fill="#467E1B"/>
  <g clip-path="url(#loblaw-card__clip0)">
    <path d="M176.913 388.776a5.892 5.892 0 01-9.12.448l-10.618-11.784a4.563 4.563 0 116.778-6.108l7.512 8.337a.555.555 0 00.859-.042l15.441-20.944a4.562 4.562 0 117.344 5.415l-18.196 24.678z" fill="#fff"/>
  </g>
  <circle cx="176" cy="250" r="36" fill="#D57F07"/>
  <g clip-path="url(#loblaw-card__clip1)" fill="#fff">
    <path d="M197.069 230.733a1.73 1.73 0 00-1.266-.534 1.73 1.73 0 00-1.265.534l-3.656 3.629a21.792 21.792 0 00-6.891-4.402 21.214 21.214 0 00-7.988-1.561c-5.156 0-9.656 1.561-13.5 4.683-3.844 3.122-6.375 7.195-7.594 12.22v.197c0 .244.089.455.267.633a.865.865 0 00.633.267h5.597c.412 0 .693-.216.843-.647.788-1.875 1.285-2.972 1.491-3.291a14.18 14.18 0 015.231-5.034 14.152 14.152 0 017.032-1.828c3.769 0 7.041 1.284 9.816 3.853l-3.882 3.881a1.734 1.734 0 00-.534 1.266c0 .487.178.909.534 1.266.357.356.779.534 1.266.534h12.6c.488 0 .91-.178 1.266-.534.356-.357.534-.778.534-1.266v-12.6c0-.488-.177-.91-.534-1.266zm-1.07 22.867h-5.4c-.412 0-.693.216-.843.647-.787 1.875-1.284 2.972-1.49 3.29a14.194 14.194 0 01-5.232 5.035 14.149 14.149 0 01-7.031 1.828 14.03 14.03 0 01-5.259-1.012 14.53 14.53 0 01-4.529-2.87l3.854-3.853a1.73 1.73 0 00.534-1.265c0-.488-.178-.91-.534-1.266a1.733 1.733 0 00-1.266-.535h-12.6c-.488 0-.91.179-1.266.535a1.73 1.73 0 00-.534 1.266V268c0 .487.178.91.534 1.266.357.355.778.534 1.266.534.487 0 .909-.179 1.266-.534l3.628-3.629a21.474 21.474 0 006.848 4.416 21.08 21.08 0 007.946 1.547c5.138 0 9.619-1.561 13.444-4.683 3.825-3.122 6.337-7.196 7.538-12.22a.506.506 0 00.027-.197.867.867 0 00-.267-.633.871.871 0 00-.634-.267z"/>
  </g>
  <circle cx="176" cy="126" r="36" fill="#E1251B"/>
  <g clip-path="url(#loblaw-card__clip2)">
    <path d="M190.918 116.304l-9.696 9.697 9.696 9.697a3.693 3.693 0 01-5.221 5.222l-9.698-9.697-9.697 9.697a3.676 3.676 0 01-2.61 1.081 3.693 3.693 0 01-2.611-6.303l9.696-9.697-9.696-9.697a3.693 3.693 0 015.221-5.222l9.697 9.697 9.697-9.697a3.693 3.693 0 015.222 5.222z" fill="#fff"/>
  </g>
  <defs>
    <clipPath id="loblaw-card__clip0">
      <path fill="#fff" transform="translate(156 354)" d="M0 0h40v40H0z"/>
    </clipPath>
    <clipPath id="loblaw-card__clip1">
      <path fill="#fff" transform="translate(154.4 228.4)" d="M0 0h43.2v43.2H0z"/>
    </clipPath>
    <clipPath id="loblaw-card__clip2">
      <path fill="#fff" transform="translate(160 110)" d="M0 0h32v32H0z"/>
    </clipPath>
  </defs>
</svg>
