<svg width="1003" height="363" fill="none" xmlns="http://www.w3.org/2000/svg">
  <g clip-path="url(#loblaw-ph_colours__clip0)">
    <rect x="322" y="31" width="80" height="80" rx="12" fill="#467E1B"/>
    <path d="M451.744 50.016h-2.952l-.696 4.224h2.496v1.92h-2.808l-.648 3.84h-2.304l.648-3.84h-3.456l-.648 3.84h-2.304l.648-3.84h-2.568v-1.92h2.88l.696-4.224h-2.424v-1.92h2.76l.696-4.224h2.304l-.696 4.224h3.456l.696-4.224h2.304l-.696 4.224h2.616v1.92zm-9.408 4.224h3.456l.696-4.224h-3.456l-.696 4.224zm22.85-.384h1.92v3.072h-1.92V60h-3.072v-3.072h-8.064V54.24l7.296-10.368h3.84v9.984zm-3.072 0V47.52l-4.296 6.336h4.296zm14.2-5.088c1.712 0 3.096.536 4.152 1.608 1.072 1.072 1.608 2.36 1.608 3.864 0 1.808-.6 3.288-1.8 4.44-1.184 1.136-2.696 1.704-4.536 1.704-1.872 0-3.4-.576-4.584-1.728-1.168-1.152-1.752-2.68-1.752-4.584 0-.24.008-.488.024-.744.032-.256.088-.688.168-1.296a7.847 7.847 0 01.528-1.824c.272-.624.6-1.296.984-2.016.4-.736.952-1.48 1.656-2.232a16.482 16.482 0 012.448-2.088h4.944l-.456.192c-.192.08-.568.28-1.128.6a12.53 12.53 0 00-1.56 1.032c-.496.368-1.04.872-1.632 1.512-.576.64-1.064 1.32-1.464 2.04.56-.32 1.36-.48 2.4-.48zm-2.928 7.752c.624.528 1.408.792 2.352.792s1.72-.264 2.328-.792c.624-.544.936-1.208.936-1.992s-.304-1.44-.912-1.968c-.592-.544-1.376-.816-2.352-.816-.944 0-1.728.272-2.352.816-.608.528-.912 1.184-.912 1.968s.304 1.448.912 1.992zm10.993-12.648h12.288L489.755 60h-3.456l5.76-13.056h-7.68v-3.072zm23.797 3.072h-6.912V50.4h5.76v3.072h-5.76v3.456h6.912V60h-9.984V43.872h9.984v3.072zm2.696-1.92l6.144-1.536V60h-3.072V47.232l-3.072.672v-2.88zm19.569 6.312c.928.24 1.608.704 2.04 1.392.448.688.672 1.496.672 2.424 0 1.424-.496 2.592-1.488 3.504-.992.896-2.336 1.344-4.032 1.344h-7.152V43.872h5.76c1.936 0 3.44.344 4.512 1.032 1.088.688 1.632 1.752 1.632 3.192 0 .768-.184 1.44-.552 2.016-.352.56-.816.968-1.392 1.224zm-6.888-4.392v3.072h2.88c1.92 0 2.88-.512 2.88-1.536 0-.592-.232-.992-.696-1.2-.464-.224-1.192-.336-2.184-.336h-2.88zm3.264 9.984c2.176 0 3.264-.704 3.264-2.112 0-.704-.288-1.232-.864-1.584-.576-.352-1.376-.528-2.4-.528h-3.264v4.224h3.264zm-87.433 23.176c1.616-1.616 3.56-2.424 5.832-2.424s4.216.808 5.832 2.424c1.616 1.616 2.424 3.56 2.424 5.832s-.808 4.216-2.424 5.832c-1.616 1.616-3.56 2.424-5.832 2.424s-4.216-.808-5.832-2.424c-1.616-1.616-2.424-3.56-2.424-5.832s.808-4.216 2.424-5.832zm1.608 10.056c1.152 1.152 2.56 1.728 4.224 1.728 1.664 0 3.072-.576 4.224-1.728 1.152-1.152 1.728-2.56 1.728-4.224 0-1.664-.576-3.072-1.728-4.224-1.152-1.152-2.56-1.728-4.224-1.728-1.664 0-3.072.576-4.224 1.728-1.152 1.152-1.728 2.56-1.728 4.224 0 1.664.576 3.072 1.728 4.224zm17.462-5.208c.4-.832 1-1.48 1.8-1.944.8-.48 1.736-.72 2.808-.72v2.52c-.672-.208-1.376-.176-2.112.096-1.664.64-2.496 1.96-2.496 3.96V94h-2.304V82.48h2.304v2.472zm15.364-7.848h2.304V94h-2.304v-1.68c-.96 1.248-2.24 1.872-3.84 1.872-1.664 0-3.04-.576-4.128-1.728-1.088-1.152-1.632-2.56-1.632-4.224 0-1.664.544-3.072 1.632-4.224 1.088-1.152 2.464-1.728 4.128-1.728 1.6 0 2.88.624 3.84 1.872v-7.056zm-6.24 13.728a3.576 3.576 0 002.592 1.056c1.008 0 1.864-.352 2.568-1.056.72-.72 1.08-1.584 1.08-2.592s-.36-1.864-1.08-2.568a3.457 3.457 0 00-2.568-1.08c-1.008 0-1.872.36-2.592 1.08-.704.704-1.056 1.56-1.056 2.568s.352 1.872 1.056 2.592zm22.002-2.544c0 .352-.024.688-.072 1.008h-8.712c.176.864.6 1.512 1.272 1.944.688.432 1.512.648 2.472.648 1.248 0 2.416-.384 3.504-1.152l.768 2.064c-1.104.928-2.544 1.392-4.32 1.392-1.936 0-3.432-.56-4.488-1.68-1.04-1.136-1.56-2.56-1.56-4.272 0-1.696.52-3.112 1.56-4.248 1.056-1.136 2.448-1.704 4.176-1.704 1.568 0 2.856.544 3.864 1.632 1.024 1.088 1.536 2.544 1.536 4.368zm-8.784-1.104h6.432c-.032-.656-.312-1.248-.84-1.776-.528-.544-1.296-.816-2.304-.816-.976 0-1.76.272-2.352.816-.592.544-.904 1.136-.936 1.776zm13.4-2.232c.4-.832 1-1.48 1.8-1.944.8-.48 1.736-.72 2.808-.72v2.52c-.672-.208-1.376-.176-2.112.096-1.664.64-2.496 1.96-2.496 3.96V94h-2.304V82.48h2.304v2.472zm16.9 3.336c0 .352-.024.688-.072 1.008h-8.712c.176.864.6 1.512 1.272 1.944.688.432 1.512.648 2.472.648 1.248 0 2.416-.384 3.504-1.152l.768 2.064c-1.104.928-2.544 1.392-4.32 1.392-1.936 0-3.432-.56-4.488-1.68-1.04-1.136-1.56-2.56-1.56-4.272 0-1.696.52-3.112 1.56-4.248 1.056-1.136 2.448-1.704 4.176-1.704 1.568 0 2.856.544 3.864 1.632 1.024 1.088 1.536 2.544 1.536 4.368zm-8.784-1.104h6.432c-.032-.656-.312-1.248-.84-1.776-.528-.544-1.296-.816-2.304-.816-.976 0-1.76.272-2.352.816-.592.544-.904 1.136-.936 1.776zm20.303-10.08h2.304V94h-2.304v-1.68c-.96 1.248-2.24 1.872-3.84 1.872-1.664 0-3.04-.576-4.128-1.728-1.088-1.152-1.632-2.56-1.632-4.224 0-1.664.544-3.072 1.632-4.224 1.088-1.152 2.464-1.728 4.128-1.728 1.6 0 2.88.624 3.84 1.872v-7.056zm-6.24 13.728a3.576 3.576 0 002.592 1.056c1.008 0 1.864-.352 2.568-1.056.72-.72 1.08-1.584 1.08-2.592s-.36-1.864-1.08-2.568a3.457 3.457 0 00-2.568-1.08c-1.008 0-1.872.36-2.592 1.08-.704.704-1.056 1.56-1.056 2.568s.352 1.872 1.056 2.592zm22.073-10.776a1.666 1.666 0 01-1.224.504c-.48 0-.888-.168-1.224-.504a1.666 1.666 0 01-.504-1.224c0-.48.168-.888.504-1.224a1.666 1.666 0 011.224-.504c.48 0 .888.168 1.224.504.336.336.504.744.504 1.224s-.168.888-.504 1.224zM536.072 94V82.48h2.304V94h-2.304zm6.533-3.768v-5.448h-1.536V82.48h1.536v-4.608h2.304v4.608h2.304v2.304h-2.304v4.8c0 1.104.152 1.768.456 1.992.464.352 1.08.336 1.848-.048v2.328c-.464.224-1.032.336-1.704.336-1.936 0-2.904-1.32-2.904-3.96zm17.85-1.944c0 .352-.024.688-.072 1.008h-8.712c.176.864.6 1.512 1.272 1.944.688.432 1.512.648 2.472.648 1.248 0 2.416-.384 3.504-1.152l.768 2.064c-1.104.928-2.544 1.392-4.32 1.392-1.936 0-3.432-.56-4.488-1.68-1.04-1.136-1.56-2.56-1.56-4.272 0-1.696.52-3.112 1.56-4.248 1.056-1.136 2.448-1.704 4.176-1.704 1.568 0 2.856.544 3.864 1.632 1.024 1.088 1.536 2.544 1.536 4.368zm-8.784-1.104h6.432c-.032-.656-.312-1.248-.84-1.776-.528-.544-1.296-.816-2.304-.816-.976 0-1.76.272-2.352.816-.592.544-.904 1.136-.936 1.776zm23.912-4.896c1.28 0 2.28.456 3 1.368.72.912 1.08 2.216 1.08 3.912V94h-2.304v-6.432c0-1.984-.736-2.976-2.208-2.976-.736 0-1.384.28-1.944.84-.56.56-.84 1.304-.84 2.232V94h-2.304v-6.432c0-1.984-.736-2.976-2.208-2.976-.736 0-1.384.28-1.944.84-.56.56-.84 1.304-.84 2.232V94h-2.304V82.48h2.304v1.344a8.06 8.06 0 01.744-.744c.208-.192.528-.368.96-.528a4.106 4.106 0 011.512-.264c1.504 0 2.608.608 3.312 1.824.608-.656 1.216-1.12 1.824-1.392.624-.288 1.344-.432 2.16-.432zm23.672.192h2.304V94h-2.304v-1.68c-.96 1.248-2.24 1.872-3.84 1.872-1.664 0-3.04-.576-4.128-1.728-1.088-1.152-1.632-2.56-1.632-4.224 0-1.664.544-3.072 1.632-4.224 1.088-1.152 2.464-1.728 4.128-1.728 1.6 0 2.88.624 3.84 1.872v-1.68zm-6.24 8.352a3.576 3.576 0 002.592 1.056c1.008 0 1.864-.352 2.568-1.056.72-.72 1.08-1.584 1.08-2.592s-.36-1.864-1.08-2.568a3.457 3.457 0 00-2.568-1.08c-1.008 0-1.872.36-2.592 1.08-.704.704-1.056 1.56-1.056 2.568s.352 1.872 1.056 2.592zm12.523 1.656c-1.104-1.136-1.656-2.552-1.656-4.248 0-1.696.56-3.112 1.68-4.248 1.12-1.136 2.608-1.704 4.464-1.704 1.584 0 2.864.44 3.84 1.32l-.984 2.136c-.8-.768-1.744-1.152-2.832-1.152-1.056 0-1.968.36-2.736 1.08-.752.704-1.128 1.552-1.128 2.544 0 1.008.376 1.872 1.128 2.592.752.72 1.664 1.08 2.736 1.08 1.104 0 2.048-.392 2.832-1.176l.984 2.16c-.928.88-2.208 1.32-3.84 1.32-1.872 0-3.368-.568-4.488-1.704zm11.786-2.256v-5.448h-1.536V82.48h1.536v-4.608h2.304v4.608h2.304v2.304h-2.304v4.8c0 1.104.152 1.768.456 1.992.464.352 1.08.336 1.848-.048v2.328c-.464.224-1.032.336-1.704.336-1.936 0-2.904-1.32-2.904-3.96zm10.046-10.176a1.666 1.666 0 01-1.224.504c-.48 0-.888-.168-1.224-.504a1.666 1.666 0 01-.504-1.224c0-.48.168-.888.504-1.224a1.666 1.666 0 011.224-.504c.48 0 .888.168 1.224.504.336.336.504.744.504 1.224s-.168.888-.504 1.224zM624.994 94V82.48h2.304V94h-2.304zm6.35-9.96c1.168-1.168 2.576-1.752 4.224-1.752 1.648 0 3.048.584 4.2 1.752 1.168 1.152 1.752 2.552 1.752 4.2 0 1.648-.584 3.056-1.752 4.224-1.152 1.152-2.552 1.728-4.2 1.728-1.648 0-3.056-.576-4.224-1.728-1.152-1.168-1.728-2.576-1.728-4.224 0-1.648.576-3.048 1.728-4.2zM633 90.808c.72.72 1.576 1.08 2.568 1.08s1.848-.36 2.568-1.08c.72-.72 1.08-1.576 1.08-2.568s-.36-1.848-1.08-2.568c-.72-.72-1.576-1.08-2.568-1.08s-1.848.36-2.568 1.08c-.72.72-1.08 1.576-1.08 2.568s.36 1.848 1.08 2.568zm16.741-8.52c1.392 0 2.48.432 3.264 1.296.8.864 1.2 2.128 1.2 3.792V94h-2.304v-6.432c0-.976-.2-1.712-.6-2.208-.384-.512-1.048-.768-1.992-.768-.768 0-1.488.288-2.16.864-.672.56-1.008 1.296-1.008 2.208V94h-2.304V82.48h2.304v1.344c.896-1.024 2.096-1.536 3.6-1.536zm12.158 4.608c2.8.544 4.2 1.712 4.2 3.504 0 1.168-.4 2.096-1.2 2.784-.8.672-1.936 1.008-3.408 1.008-1.12 0-2.144-.184-3.072-.552-.912-.368-1.552-.728-1.92-1.08l.912-2.256c.448.448 1.056.824 1.824 1.128.784.288 1.512.44 2.184.456.72.016 1.296-.096 1.728-.336.432-.24.648-.536.648-.888 0-.4-.184-.704-.552-.912-.368-.224-.936-.408-1.704-.552-1.792-.32-3.016-.76-3.672-1.32-.656-.56-.984-1.328-.984-2.304 0-.976.424-1.768 1.272-2.376.864-.608 2-.912 3.408-.912 1.424 0 2.816.368 4.176 1.104l-.792 2.16c-.304-.224-.784-.432-1.44-.624a6.796 6.796 0 00-1.944-.336c-.656-.016-1.216.056-1.68.216-.464.16-.696.424-.696.792 0 .192.056.36.168.504.128.128.312.24.552.336.256.08.496.152.72.216.224.048.52.104.888.168l.384.072zM17.087 31.872c2.032 0 3.56.464 4.584 1.392 1.04.928 1.56 2.184 1.56 3.768 0 1.552-.488 2.84-1.464 3.864s-2.296 1.536-3.96 1.536H14.4V48h-2.304V31.872h4.992zm.744 8.256c.912 0 1.656-.24 2.232-.72.576-.496.864-1.24.864-2.232 0-.992-.312-1.736-.936-2.232-.624-.512-1.392-.768-2.304-.768H14.4v5.952h3.432zm18.46 2.16c0 .352-.024.688-.072 1.008h-8.712c.176.864.6 1.512 1.272 1.944.688.432 1.512.648 2.472.648 1.248 0 2.416-.384 3.504-1.152l.768 2.064c-1.104.928-2.544 1.392-4.32 1.392-1.936 0-3.432-.56-4.488-1.68-1.04-1.136-1.56-2.56-1.56-4.272 0-1.696.52-3.112 1.56-4.248 1.056-1.136 2.448-1.704 4.176-1.704 1.568 0 2.856.544 3.864 1.632 1.024 1.088 1.536 2.544 1.536 4.368zm-8.784-1.104h6.432c-.032-.656-.312-1.248-.84-1.776-.528-.544-1.296-.816-2.304-.816-.976 0-1.76.272-2.352.816-.592.544-.904 1.136-.936 1.776zm13.4-2.232c.4-.832 1-1.48 1.8-1.944.8-.48 1.736-.72 2.808-.72v2.52c-.672-.208-1.376-.176-2.112.096-1.664.64-2.496 1.96-2.496 3.96V48h-2.304V36.48h2.304v2.472zm6.35-2.472h1.536v-1.392c0-1.36.32-2.392.96-3.096.64-.72 1.488-1.08 2.544-1.08.576 0 1.072.128 1.488.384v2.256a2.029 2.029 0 00-1.152-.336c-1.024 0-1.536.648-1.536 1.944v1.32h2.688v2.304h-2.688V48h-2.304v-9.216h-1.536V36.48zm19.198 5.808c0 .352-.024.688-.072 1.008h-8.712c.176.864.6 1.512 1.272 1.944.688.432 1.512.648 2.472.648 1.248 0 2.416-.384 3.504-1.152l.768 2.064c-1.104.928-2.544 1.392-4.32 1.392-1.936 0-3.432-.56-4.488-1.68-1.04-1.136-1.56-2.56-1.56-4.272 0-1.696.52-3.112 1.56-4.248 1.056-1.136 2.448-1.704 4.176-1.704 1.568 0 2.856.544 3.864 1.632 1.024 1.088 1.536 2.544 1.536 4.368zm-8.784-1.104h6.432c-.032-.656-.312-1.248-.84-1.776-.528-.544-1.296-.816-2.304-.816-.976 0-1.76.272-2.352.816-.592.544-.904 1.136-.936 1.776zm12.36 5.304c-1.105-1.136-1.657-2.552-1.657-4.248 0-1.696.56-3.112 1.68-4.248 1.12-1.136 2.608-1.704 4.464-1.704 1.584 0 2.864.44 3.84 1.32l-.984 2.136c-.8-.768-1.744-1.152-2.832-1.152-1.056 0-1.968.36-2.736 1.08-.752.704-1.128 1.552-1.128 2.544 0 1.008.376 1.872 1.128 2.592.752.72 1.664 1.08 2.736 1.08 1.104 0 2.048-.392 2.832-1.176l.984 2.16c-.928.88-2.208 1.32-3.84 1.32-1.872 0-3.368-.568-4.488-1.704zm11.785-2.256v-5.448H80.28V36.48h1.536v-4.608h2.304v4.608h2.304v2.304H84.12v4.8c0 1.104.152 1.768.456 1.992.464.352 1.08.336 1.848-.048v2.328c-.464.224-1.032.336-1.704.336-1.936 0-2.904-1.32-2.904-3.96zm14.59-7.752h1.535v-1.392c0-1.36.32-2.392.96-3.096.64-.72 1.488-1.08 2.544-1.08.576 0 1.072.128 1.488.384v2.256a2.029 2.029 0 00-1.152-.336c-1.024 0-1.536.648-1.536 1.944v1.32h2.688v2.304h-2.688V48h-2.304v-9.216h-1.536V36.48zm13.683 11.712c-1.392 0-2.488-.432-3.288-1.296-.784-.864-1.176-2.128-1.176-3.792V36.48h2.304v6.432c0 .976.192 1.72.576 2.232.4.496 1.072.744 2.016.744.768 0 1.488-.28 2.16-.84.672-.576 1.008-1.32 1.008-2.232V36.48h2.304V48h-2.304v-1.344c-.896 1.024-2.096 1.536-3.6 1.536zm9.162-17.088h2.304V48h-2.304V31.104zm4.811 5.376h1.536v-1.392c0-1.36.32-2.392.96-3.096.64-.72 1.488-1.08 2.544-1.08.576 0 1.072.128 1.488.384v2.256a2.029 2.029 0 00-1.152-.336c-1.024 0-1.536.648-1.536 1.944v1.32h2.688v2.304h-2.688V48h-2.304v-9.216h-1.536V36.48zm11.98-2.424a1.666 1.666 0 01-1.224.504c-.48 0-.888-.168-1.224-.504a1.666 1.666 0 01-.504-1.224c0-.48.168-.888.504-1.224a1.666 1.666 0 011.224-.504c.48 0 .888.168 1.224.504.336.336.504.744.504 1.224s-.168.888-.504 1.224zM133.666 48V36.48h2.304V48h-2.304zm5.578-16.896h2.304V48h-2.304V31.104zm5.578 0h2.304V48h-2.304V31.104zm18.394 5.184c1.28 0 2.28.456 3 1.368.72.912 1.08 2.216 1.08 3.912V48h-2.304v-6.432c0-1.984-.736-2.976-2.208-2.976-.736 0-1.384.28-1.944.84-.56.56-.84 1.304-.84 2.232V48h-2.304v-6.432c0-1.984-.736-2.976-2.208-2.976-.736 0-1.384.28-1.944.84-.56.56-.84 1.304-.84 2.232V48H150.4V36.48h2.304v1.344a8.06 8.06 0 01.744-.744c.208-.192.528-.368.96-.528a4.106 4.106 0 011.512-.264c1.504 0 2.608.608 3.312 1.824.608-.656 1.216-1.12 1.824-1.392.624-.288 1.344-.432 2.16-.432zm17.521 6c0 .352-.024.688-.072 1.008h-8.712c.176.864.6 1.512 1.272 1.944.688.432 1.512.648 2.472.648 1.248 0 2.416-.384 3.504-1.152l.768 2.064c-1.104.928-2.544 1.392-4.32 1.392-1.936 0-3.432-.56-4.488-1.68-1.04-1.136-1.56-2.56-1.56-4.272 0-1.696.52-3.112 1.56-4.248 1.056-1.136 2.448-1.704 4.176-1.704 1.568 0 2.856.544 3.864 1.632 1.024 1.088 1.536 2.544 1.536 4.368zm-8.784-1.104h6.432c-.032-.656-.312-1.248-.84-1.776-.528-.544-1.296-.816-2.304-.816-.976 0-1.76.272-2.352.816-.592.544-.904 1.136-.936 1.776zm16.999-4.896c1.392 0 2.48.432 3.264 1.296.8.864 1.2 2.128 1.2 3.792V48h-2.304v-6.432c0-.976-.2-1.712-.6-2.208-.384-.512-1.048-.768-1.992-.768-.768 0-1.488.288-2.16.864-.672.56-1.008 1.296-1.008 2.208V48h-2.304V36.48h2.304v1.344c.896-1.024 2.096-1.536 3.6-1.536zm8.107 7.944v-5.448h-1.536V36.48h1.536v-4.608h2.304v4.608h2.304v2.304h-2.304v4.8c0 1.104.152 1.768.456 1.992.464.352 1.08.336 1.848-.048v2.328c-.464.224-1.032.336-1.704.336-1.936 0-2.904-1.32-2.904-3.96zm-91.645 266.64h2.304v9.024c0 2.224-.52 4-1.56 5.328-1.024 1.312-2.552 1.968-4.584 1.968-2.08 0-3.624-.656-4.632-1.968-1.008-1.312-1.512-3.088-1.512-5.328v-9.024h2.304v9.792c0 1.264.336 2.288 1.008 3.072.688.768 1.632 1.152 2.832 1.152 1.184 0 2.12-.384 2.808-1.152.688-.784 1.032-1.808 1.032-3.072v-9.792zm11.281 4.416c1.392 0 2.48.432 3.264 1.296.8.864 1.2 2.128 1.2 3.792V327h-2.304v-6.432c0-.976-.2-1.712-.6-2.208-.384-.512-1.048-.768-1.992-.768-.768 0-1.488.288-2.16.864-.672.56-1.008 1.296-1.008 2.208V327h-2.304v-11.52h2.304v1.344c.896-1.024 2.096-1.536 3.6-1.536zm6.57.192h1.536v-1.392c0-1.36.32-2.392.96-3.096.64-.72 1.488-1.08 2.544-1.08.576 0 1.072.128 1.488.384v2.256a2.029 2.029 0 00-1.152-.336c-1.024 0-1.536.648-1.536 1.944v1.32h2.688v2.304h-2.688V327h-2.304v-9.216h-1.536v-2.304zm13.684 11.712c-1.392 0-2.488-.432-3.288-1.296-.784-.864-1.176-2.128-1.176-3.792v-6.624h2.304v6.432c0 .976.192 1.72.576 2.232.4.496 1.072.744 2.016.744.768 0 1.488-.28 2.16-.84.672-.576 1.008-1.32 1.008-2.232v-6.336h2.304V327h-2.304v-1.344c-.896 1.024-2.096 1.536-3.6 1.536zm9.162-17.088h2.304V327h-2.304v-16.896zm4.81 5.376h1.536v-1.392c0-1.36.32-2.392.96-3.096.64-.72 1.488-1.08 2.544-1.08.576 0 1.072.128 1.488.384v2.256a2.029 2.029 0 00-1.152-.336c-1.024 0-1.536.648-1.536 1.944v1.32h2.688v2.304h-2.688V327h-2.304v-9.216h-1.536v-2.304zm11.98-2.424a1.666 1.666 0 01-1.224.504c-.48 0-.888-.168-1.224-.504a1.666 1.666 0 01-.504-1.224c0-.48.168-.888.504-1.224a1.666 1.666 0 011.224-.504c.48 0 .888.168 1.224.504.336.336.504.744.504 1.224s-.168.888-.504 1.224zM160.525 327v-11.52h2.304V327h-2.304zm5.578-16.896h2.304V327h-2.304v-16.896zm5.578 0h2.304V327h-2.304v-16.896zm15.759 11.184c0 .352-.024.688-.072 1.008h-8.712c.176.864.6 1.512 1.272 1.944.688.432 1.512.648 2.472.648 1.248 0 2.416-.384 3.504-1.152l.768 2.064c-1.104.928-2.544 1.392-4.32 1.392-1.936 0-3.432-.56-4.488-1.68-1.04-1.136-1.56-2.56-1.56-4.272 0-1.696.52-3.112 1.56-4.248 1.056-1.136 2.448-1.704 4.176-1.704 1.568 0 2.856.544 3.864 1.632 1.024 1.088 1.536 2.544 1.536 4.368zm-8.784-1.104h6.432c-.032-.656-.312-1.248-.84-1.776-.528-.544-1.296-.816-2.304-.816-.976 0-1.76.272-2.352.816-.592.544-.904 1.136-.936 1.776zm20.302-10.08h2.304V327h-2.304v-1.68c-.96 1.248-2.24 1.872-3.84 1.872-1.664 0-3.04-.576-4.128-1.728-1.088-1.152-1.632-2.56-1.632-4.224 0-1.664.544-3.072 1.632-4.224 1.088-1.152 2.464-1.728 4.128-1.728 1.6 0 2.88.624 3.84 1.872v-7.056zm-6.24 13.728a3.576 3.576 0 002.592 1.056c1.008 0 1.864-.352 2.568-1.056.72-.72 1.08-1.584 1.08-2.592s-.36-1.864-1.08-2.568a3.457 3.457 0 00-2.568-1.08c-1.008 0-1.872.36-2.592 1.08-.704.704-1.056 1.56-1.056 2.568s.352 1.872 1.056 2.592zm667.22-207.448l-11.136-11.424V116h-2.304V99.488l11.136 11.424v-11.04h2.304v16.512zm13.826-6.096c0 .352-.024.688-.072 1.008h-8.712c.176.864.6 1.512 1.272 1.944.688.432 1.512.648 2.472.648 1.248 0 2.416-.384 3.504-1.152l.768 2.064c-1.104.928-2.544 1.392-4.32 1.392-1.936 0-3.432-.56-4.488-1.68-1.04-1.136-1.56-2.56-1.56-4.272 0-1.696.52-3.112 1.56-4.248 1.056-1.136 2.448-1.704 4.176-1.704 1.568 0 2.856.544 3.864 1.632 1.024 1.088 1.536 2.544 1.536 4.368zm-8.784-1.104h6.432c-.032-.656-.312-1.248-.84-1.776-.528-.544-1.296-.816-2.304-.816-.976 0-1.76.272-2.352.816-.592.544-.904 1.136-.936 1.776zm15.176 7.008c-1.392 0-2.488-.432-3.288-1.296-.784-.864-1.176-2.128-1.176-3.792v-6.624h2.304v6.432c0 .976.192 1.72.576 2.232.4.496 1.072.744 2.016.744.768 0 1.488-.28 2.16-.84.672-.576 1.008-1.32 1.008-2.232v-6.336h2.304V116h-2.304v-1.344c-.896 1.024-2.096 1.536-3.6 1.536zm10.117-3.96v-5.448h-1.536v-2.304h1.536v-4.608h2.304v4.608h2.304v2.304h-2.304v4.8c0 1.104.152 1.768.456 1.992.464.352 1.08.336 1.848-.048v2.328c-.464.224-1.032.336-1.704.336-1.936 0-2.904-1.32-2.904-3.96zm9.974-5.28c.4-.832 1-1.48 1.8-1.944.8-.48 1.736-.72 2.808-.72v2.52c-.672-.208-1.376-.176-2.112.096-1.664.64-2.496 1.96-2.496 3.96V116h-2.304v-11.52h2.304v2.472zm15.364-2.472h2.304V116h-2.304v-1.68c-.96 1.248-2.24 1.872-3.84 1.872-1.664 0-3.04-.576-4.128-1.728-1.088-1.152-1.632-2.56-1.632-4.224 0-1.664.544-3.072 1.632-4.224 1.088-1.152 2.464-1.728 4.128-1.728 1.6 0 2.88.624 3.84 1.872v-1.68zm-6.24 8.352a3.576 3.576 0 002.592 1.056c1.008 0 1.864-.352 2.568-1.056.72-.72 1.08-1.584 1.08-2.592s-.36-1.864-1.08-2.568a3.457 3.457 0 00-2.568-1.08c-1.008 0-1.872.36-2.592 1.08-.704.704-1.056 1.56-1.056 2.568s.352 1.872 1.056 2.592zm11.822-13.728h2.304V116h-2.304V99.104z" fill="#1A1A1A"/>
    <rect x="322" y="139" width="80" height="80" rx="12" fill="#D57F07"/>
    <path d="M450.744 158.016h-2.952l-.696 4.224h2.496v1.92h-2.808l-.648 3.84h-2.304l.648-3.84h-3.456l-.648 3.84h-2.304l.648-3.84h-2.568v-1.92h2.88l.696-4.224h-2.424v-1.92h2.76l.696-4.224h2.304l-.696 4.224h3.456l.696-4.224h2.304l-.696 4.224h2.616v1.92zm-9.408 4.224h3.456l.696-4.224h-3.456l-.696 4.224zm17.45-10.368c2.672 0 4.752.76 6.24 2.28 1.488 1.52 2.232 3.448 2.232 5.784 0 2.32-.76 4.248-2.28 5.784-1.504 1.52-3.568 2.28-6.192 2.28h-5.352v-16.128h5.352zm.552 13.056c1.424 0 2.584-.48 3.48-1.44.912-.96 1.368-2.144 1.368-3.552s-.456-2.592-1.368-3.552c-.896-.96-2.056-1.44-3.48-1.44h-2.832v9.984h2.832zm16.725-7.68c1.456 0 2.72.472 3.792 1.416 1.072.928 1.608 2.16 1.608 3.696 0 1.872-.576 3.344-1.728 4.416-1.136 1.072-2.608 1.608-4.416 1.608-1.888 0-3.36-.472-4.416-1.416-1.056-.96-1.632-2.216-1.728-3.768l3.072-.24c.08.688.376 1.256.888 1.704.512.432 1.24.648 2.184.648.88 0 1.608-.248 2.184-.744.592-.496.888-1.144.888-1.944 0-.688-.256-1.272-.768-1.752-.496-.496-1.2-.744-2.112-.744-1.408 0-2.496.448-3.264 1.344h-2.688l1.536-9.6h8.832v3.072h-6.336l-.432 3.072c.688-.512 1.656-.768 2.904-.768zm7.714-5.376h12.288L489.153 168h-3.456l5.76-13.056h-7.68v-3.072zM500.663 168h-3.072v-16.128h9.984v3.072h-6.912v3.456h5.76v3.072h-5.76V168zm10.601-14.064c1.184-1.632 2.704-2.448 4.56-2.448 1.856 0 3.376.816 4.56 2.448 1.184 1.632 1.776 3.632 1.776 6s-.592 4.368-1.776 6c-1.184 1.632-2.704 2.448-4.56 2.448-1.872 0-3.4-.808-4.584-2.424-1.168-1.632-1.752-3.64-1.752-6.024 0-2.368.592-4.368 1.776-6zm2.256 9.816c.64 1.04 1.408 1.56 2.304 1.56.896 0 1.664-.52 2.304-1.56.64-1.056.96-2.328.96-3.816s-.32-2.752-.96-3.792c-.64-1.056-1.408-1.584-2.304-1.584-.896 0-1.664.528-2.304 1.584-.64 1.04-.96 2.304-.96 3.792s.32 2.76.96 3.816zm10.945-11.88h12.288L529.841 168h-3.456l5.76-13.056h-7.68v-3.072zm-82.001 40.72c2 .384 3.464.936 4.392 1.656.928.704 1.392 1.712 1.392 3.024 0 1.44-.552 2.624-1.656 3.552-1.104.912-2.584 1.368-4.44 1.368a9.395 9.395 0 01-2.544-.336c-.784-.24-1.44-.536-1.968-.888a13.68 13.68 0 01-1.128-.84 4.444 4.444 0 01-.552-.552l1.152-2.064c1.424 1.584 3.12 2.376 5.088 2.376 1.2 0 2.12-.224 2.76-.672.656-.448.984-1.064.984-1.848 0-1.216-1.224-2.04-3.672-2.472-2.128-.368-3.624-.92-4.488-1.656-.848-.752-1.272-1.712-1.272-2.88 0-1.36.512-2.48 1.536-3.36 1.024-.88 2.448-1.32 4.272-1.32 2.096 0 3.832.64 5.208 1.92l-1.104 2.088c-1.168-1.136-2.552-1.704-4.152-1.704-1.104 0-1.96.2-2.568.6-.592.4-.888.96-.888 1.68 0 .608.28 1.088.84 1.44.56.336 1.496.632 2.808.888zm12.547 9.6c-1.392 0-2.488-.432-3.288-1.296-.784-.864-1.176-2.128-1.176-3.792v-6.624h2.304v6.432c0 .976.192 1.72.576 2.232.4.496 1.072.744 2.016.744.768 0 1.488-.28 2.16-.84.672-.576 1.008-1.32 1.008-2.232v-6.336h2.304V202h-2.304v-1.344c-.896 1.024-2.096 1.536-3.6 1.536zm11.466-17.088v7.056c.96-1.248 2.24-1.872 3.84-1.872 1.664 0 3.04.576 4.128 1.728 1.088 1.152 1.632 2.56 1.632 4.224 0 1.664-.544 3.072-1.632 4.224-1.088 1.152-2.464 1.728-4.128 1.728-1.6 0-2.88-.624-3.84-1.872V202h-2.304v-16.896h2.304zm1.056 13.728a3.576 3.576 0 002.592 1.056c1.008 0 1.864-.352 2.568-1.056.72-.72 1.08-1.584 1.08-2.592s-.36-1.864-1.08-2.568a3.457 3.457 0 00-2.568-1.08c-1.008 0-1.872.36-2.592 1.08-.704.704-1.056 1.56-1.056 2.568s.352 1.872 1.056 2.592zm15.874-3.936c2.8.544 4.2 1.712 4.2 3.504 0 1.168-.4 2.096-1.2 2.784-.8.672-1.936 1.008-3.408 1.008-1.12 0-2.144-.184-3.072-.552-.912-.368-1.552-.728-1.92-1.08l.912-2.256c.448.448 1.056.824 1.824 1.128.784.288 1.512.44 2.184.456.72.016 1.296-.096 1.728-.336.432-.24.648-.536.648-.888 0-.4-.184-.704-.552-.912-.368-.224-.936-.408-1.704-.552-1.792-.32-3.016-.76-3.672-1.32-.656-.56-.984-1.328-.984-2.304 0-.976.424-1.768 1.272-2.376.864-.608 2-.912 3.408-.912 1.424 0 2.816.368 4.176 1.104l-.792 2.16c-.304-.224-.784-.432-1.44-.624a6.796 6.796 0 00-1.944-.336c-.656-.016-1.216.056-1.68.216-.464.16-.696.424-.696.792 0 .192.056.36.168.504.128.128.312.24.552.336.256.08.496.152.72.216.224.048.52.104.888.168l.384.072zm7.667 3.336v-5.448h-1.536v-2.304h1.536v-4.608h2.304v4.608h2.304v2.304h-2.304v4.8c0 1.104.152 1.768.456 1.992.464.352 1.08.336 1.848-.048v2.328c-.464.224-1.032.336-1.704.336-1.936 0-2.904-1.32-2.904-3.96zm10.046-10.176a1.666 1.666 0 01-1.224.504c-.48 0-.888-.168-1.224-.504a1.666 1.666 0 01-.504-1.224c0-.48.168-.888.504-1.224a1.666 1.666 0 011.224-.504c.48 0 .888.168 1.224.504.336.336.504.744.504 1.224s-.168.888-.504 1.224zM498.744 202v-11.52h2.304V202h-2.304zm6.533-3.768v-5.448h-1.536v-2.304h1.536v-4.608h2.304v4.608h2.304v2.304h-2.304v4.8c0 1.104.152 1.768.456 1.992.464.352 1.08.336 1.848-.048v2.328c-.464.224-1.032.336-1.704.336-1.936 0-2.904-1.32-2.904-3.96zm11.75 3.96c-1.392 0-2.488-.432-3.288-1.296-.784-.864-1.176-2.128-1.176-3.792v-6.624h2.304v6.432c0 .976.192 1.72.576 2.232.4.496 1.072.744 2.016.744.768 0 1.488-.28 2.16-.84.672-.576 1.008-1.32 1.008-2.232v-6.336h2.304V202h-2.304v-1.344c-.896 1.024-2.096 1.536-3.6 1.536zm10.117-3.96v-5.448h-1.536v-2.304h1.536v-4.608h2.304v4.608h2.304v2.304h-2.304v4.8c0 1.104.152 1.768.456 1.992.464.352 1.08.336 1.848-.048v2.328c-.464.224-1.032.336-1.704.336-1.936 0-2.904-1.32-2.904-3.96zm17.85-1.944c0 .352-.024.688-.072 1.008h-8.712c.176.864.6 1.512 1.272 1.944.688.432 1.512.648 2.472.648 1.248 0 2.416-.384 3.504-1.152l.768 2.064c-1.104.928-2.544 1.392-4.32 1.392-1.936 0-3.432-.56-4.488-1.68-1.04-1.136-1.56-2.56-1.56-4.272 0-1.696.52-3.112 1.56-4.248 1.056-1.136 2.448-1.704 4.176-1.704 1.568 0 2.856.544 3.864 1.632 1.024 1.088 1.536 2.544 1.536 4.368zm-8.784-1.104h6.432c-.032-.656-.312-1.248-.84-1.776-.528-.544-1.296-.816-2.304-.816-.976 0-1.76.272-2.352.816-.592.544-.904 1.136-.936 1.776zm21.535-7.128a1.666 1.666 0 01-1.224.504c-.48 0-.888-.168-1.224-.504a1.666 1.666 0 01-.504-1.224c0-.48.168-.888.504-1.224a1.666 1.666 0 011.224-.504c.48 0 .888.168 1.224.504.336.336.504.744.504 1.224s-.168.888-.504 1.224zM555.369 202v-11.52h2.304V202h-2.304zm6.533-3.768v-5.448h-1.536v-2.304h1.536v-4.608h2.304v4.608h2.304v2.304h-2.304v4.8c0 1.104.152 1.768.456 1.992.464.352 1.08.336 1.848-.048v2.328c-.464.224-1.032.336-1.704.336-1.936 0-2.904-1.32-2.904-3.96zm17.85-1.944c0 .352-.024.688-.072 1.008h-8.712c.176.864.6 1.512 1.272 1.944.688.432 1.512.648 2.472.648 1.248 0 2.416-.384 3.504-1.152l.768 2.064c-1.104.928-2.544 1.392-4.32 1.392-1.936 0-3.432-.56-4.488-1.68-1.04-1.136-1.56-2.56-1.56-4.272 0-1.696.52-3.112 1.56-4.248 1.056-1.136 2.448-1.704 4.176-1.704 1.568 0 2.856.544 3.864 1.632 1.024 1.088 1.536 2.544 1.536 4.368zm-8.784-1.104h6.432c-.032-.656-.312-1.248-.84-1.776-.528-.544-1.296-.816-2.304-.816-.976 0-1.76.272-2.352.816-.592.544-.904 1.136-.936 1.776zm23.912-4.896c1.28 0 2.28.456 3 1.368.72.912 1.08 2.216 1.08 3.912V202h-2.304v-6.432c0-1.984-.736-2.976-2.208-2.976-.736 0-1.384.28-1.944.84-.56.56-.84 1.304-.84 2.232V202h-2.304v-6.432c0-1.984-.736-2.976-2.208-2.976-.736 0-1.384.28-1.944.84-.56.56-.84 1.304-.84 2.232V202h-2.304v-11.52h2.304v1.344a8.06 8.06 0 01.744-.744c.208-.192.528-.368.96-.528a4.106 4.106 0 011.512-.264c1.504 0 2.608.608 3.312 1.824.608-.656 1.216-1.12 1.824-1.392.624-.288 1.344-.432 2.16-.432zm23.672.192h2.304V202h-2.304v-1.68c-.96 1.248-2.24 1.872-3.84 1.872-1.664 0-3.04-.576-4.128-1.728-1.088-1.152-1.632-2.56-1.632-4.224 0-1.664.544-3.072 1.632-4.224 1.088-1.152 2.464-1.728 4.128-1.728 1.6 0 2.88.624 3.84 1.872v-1.68zm-6.24 8.352a3.576 3.576 0 002.592 1.056c1.008 0 1.864-.352 2.568-1.056.72-.72 1.08-1.584 1.08-2.592s-.36-1.864-1.08-2.568a3.457 3.457 0 00-2.568-1.08c-1.008 0-1.872.36-2.592 1.08-.704.704-1.056 1.56-1.056 2.568s.352 1.872 1.056 2.592zm12.523 1.656c-1.104-1.136-1.656-2.552-1.656-4.248 0-1.696.56-3.112 1.68-4.248 1.12-1.136 2.608-1.704 4.464-1.704 1.584 0 2.864.44 3.84 1.32l-.984 2.136c-.8-.768-1.744-1.152-2.832-1.152-1.056 0-1.968.36-2.736 1.08-.752.704-1.128 1.552-1.128 2.544 0 1.008.376 1.872 1.128 2.592.752.72 1.664 1.08 2.736 1.08 1.104 0 2.048-.392 2.832-1.176l.984 2.16c-.928.88-2.208 1.32-3.84 1.32-1.872 0-3.368-.568-4.488-1.704zm11.786-2.256v-5.448h-1.536v-2.304h1.536v-4.608h2.304v4.608h2.304v2.304h-2.304v4.8c0 1.104.152 1.768.456 1.992.464.352 1.08.336 1.848-.048v2.328c-.464.224-1.032.336-1.704.336-1.936 0-2.904-1.32-2.904-3.96zm10.046-10.176a1.666 1.666 0 01-1.224.504c-.48 0-.888-.168-1.224-.504a1.666 1.666 0 01-.504-1.224c0-.48.168-.888.504-1.224a1.666 1.666 0 011.224-.504c.48 0 .888.168 1.224.504.336.336.504.744.504 1.224s-.168.888-.504 1.224zM644.291 202v-11.52h2.304V202h-2.304zm6.35-9.96c1.168-1.168 2.576-1.752 4.224-1.752 1.648 0 3.048.584 4.2 1.752 1.168 1.152 1.752 2.552 1.752 4.2 0 1.648-.584 3.056-1.752 4.224-1.152 1.152-2.552 1.728-4.2 1.728-1.648 0-3.056-.576-4.224-1.728-1.152-1.168-1.728-2.576-1.728-4.224 0-1.648.576-3.048 1.728-4.2zm1.656 6.768c.72.72 1.576 1.08 2.568 1.08s1.848-.36 2.568-1.08c.72-.72 1.08-1.576 1.08-2.568s-.36-1.848-1.08-2.568c-.72-.72-1.576-1.08-2.568-1.08s-1.848.36-2.568 1.08c-.72.72-1.08 1.576-1.08 2.568s.36 1.848 1.08 2.568zm16.741-8.52c1.392 0 2.48.432 3.264 1.296.8.864 1.2 2.128 1.2 3.792V202h-2.304v-6.432c0-.976-.2-1.712-.6-2.208-.384-.512-1.048-.768-1.992-.768-.768 0-1.488.288-2.16.864-.672.56-1.008 1.296-1.008 2.208V202h-2.304v-11.52h2.304v1.344c.896-1.024 2.096-1.536 3.6-1.536zm12.158 4.608c2.8.544 4.2 1.712 4.2 3.504 0 1.168-.4 2.096-1.2 2.784-.8.672-1.936 1.008-3.408 1.008-1.12 0-2.144-.184-3.072-.552-.912-.368-1.552-.728-1.92-1.08l.912-2.256c.448.448 1.056.824 1.824 1.128.784.288 1.512.44 2.184.456.72.016 1.296-.096 1.728-.336.432-.24.648-.536.648-.888 0-.4-.184-.704-.552-.912-.368-.224-.936-.408-1.704-.552-1.792-.32-3.016-.76-3.672-1.32-.656-.56-.984-1.328-.984-2.304 0-.976.424-1.768 1.272-2.376.864-.608 2-.912 3.408-.912 1.424 0 2.816.368 4.176 1.104l-.792 2.16c-.304-.224-.784-.432-1.44-.624a6.796 6.796 0 00-1.944-.336c-.656-.016-1.216.056-1.68.216-.464.16-.696.424-.696.792 0 .192.056.36.168.504.128.128.312.24.552.336.256.08.496.152.72.216.224.048.52.104.888.168l.384.072z" fill="#1A1A1A"/>
    <rect x="322" y="247" width="80" height="80" rx="12" fill="#E1251B"/>
    <path d="M450.744 266.016h-2.952l-.696 4.224h2.496v1.92h-2.808l-.648 3.84h-2.304l.648-3.84h-3.456l-.648 3.84h-2.304l.648-3.84h-2.568v-1.92h2.88l.696-4.224h-2.424v-1.92h2.76l.696-4.224h2.304l-.696 4.224h3.456l.696-4.224h2.304l-.696 4.224h2.616v1.92zm-9.408 4.224h3.456l.696-4.224h-3.456l-.696 4.224zm22.082-7.296h-6.912v3.456h5.76v3.072h-5.76v3.456h6.912V276h-9.984v-16.128h9.984v3.072zm2.696-1.92l6.144-1.536V276h-3.072v-12.768l-3.072.672v-2.88zm9.61 4.224c.096-1.648.656-3.016 1.68-4.104 1.024-1.104 2.384-1.656 4.08-1.656 1.68 0 3.056.48 4.128 1.44 1.088.96 1.632 2.272 1.632 3.936 0 1.216-.384 2.4-1.152 3.552-.768 1.136-2.048 2.64-3.84 4.512h5.76V276H475.34l6.528-6.912c1.536-1.68 2.304-3.024 2.304-4.032 0-.784-.24-1.392-.72-1.824-.464-.448-1.12-.672-1.968-.672-.816 0-1.456.288-1.92.864-.448.56-.704 1.296-.768 2.208l-3.072-.384zm21.48 0c1.456 0 2.72.472 3.792 1.416 1.072.928 1.608 2.16 1.608 3.696 0 1.872-.576 3.344-1.728 4.416-1.136 1.072-2.608 1.608-4.416 1.608-1.888 0-3.36-.472-4.416-1.416-1.056-.96-1.632-2.216-1.728-3.768l3.072-.24c.08.688.376 1.256.888 1.704.512.432 1.24.648 2.184.648.88 0 1.608-.248 2.184-.744.592-.496.888-1.144.888-1.944 0-.688-.256-1.272-.768-1.752-.496-.496-1.2-.744-2.112-.744-1.408 0-2.496.448-3.264 1.344H490.7l1.536-9.6h8.832v3.072h-6.336l-.432 3.072c.688-.512 1.656-.768 2.904-.768zm8.098-4.224l6.144-1.536V276h-3.072v-12.768l-3.072.672v-2.88zm19.569 6.312c.928.24 1.608.704 2.04 1.392.448.688.672 1.496.672 2.424 0 1.424-.496 2.592-1.488 3.504-.992.896-2.336 1.344-4.032 1.344h-7.152v-16.128h5.76c1.936 0 3.44.344 4.512 1.032 1.088.688 1.632 1.752 1.632 3.192 0 .768-.184 1.44-.552 2.016-.352.56-.816.968-1.392 1.224zm-6.888-4.392v3.072h2.88c1.92 0 2.88-.512 2.88-1.536 0-.592-.232-.992-.696-1.2-.464-.224-1.192-.336-2.184-.336h-2.88zm3.264 9.984c2.176 0 3.264-.704 3.264-2.112 0-.704-.288-1.232-.864-1.584-.576-.352-1.376-.528-2.4-.528h-3.264v4.224h3.264zM439.032 310h-2.304v-16.128h2.304V310zm4.23-3.768v-5.448h-1.536v-2.304h1.536v-4.608h2.304v4.608h2.304v2.304h-2.304v4.8c0 1.104.152 1.768.456 1.992.464.352 1.08.336 1.848-.048v2.328c-.464.224-1.032.336-1.704.336-1.936 0-2.904-1.32-2.904-3.96zm17.85-1.944c0 .352-.024.688-.072 1.008h-8.712c.176.864.6 1.512 1.272 1.944.688.432 1.512.648 2.472.648 1.248 0 2.416-.384 3.504-1.152l.768 2.064c-1.104.928-2.544 1.392-4.32 1.392-1.936 0-3.432-.56-4.488-1.68-1.04-1.136-1.56-2.56-1.56-4.272 0-1.696.52-3.112 1.56-4.248 1.056-1.136 2.448-1.704 4.176-1.704 1.568 0 2.856.544 3.864 1.632 1.024 1.088 1.536 2.544 1.536 4.368zm-8.784-1.104h6.432c-.032-.656-.312-1.248-.84-1.776-.528-.544-1.296-.816-2.304-.816-.976 0-1.76.272-2.352.816-.592.544-.904 1.136-.936 1.776zm23.911-4.896c1.28 0 2.28.456 3 1.368.72.912 1.08 2.216 1.08 3.912V310h-2.304v-6.432c0-1.984-.736-2.976-2.208-2.976-.736 0-1.384.28-1.944.84-.56.56-.84 1.304-.84 2.232V310h-2.304v-6.432c0-1.984-.736-2.976-2.208-2.976-.736 0-1.384.28-1.944.84-.56.56-.84 1.304-.84 2.232V310h-2.304v-11.52h2.304v1.344a8.06 8.06 0 01.744-.744c.208-.192.528-.368.96-.528a4.106 4.106 0 011.512-.264c1.504 0 2.608.608 3.312 1.824.608-.656 1.216-1.12 1.824-1.392.624-.288 1.344-.432 2.16-.432zm19.473 4.608c2.8.544 4.2 1.712 4.2 3.504 0 1.168-.4 2.096-1.2 2.784-.8.672-1.936 1.008-3.408 1.008-1.12 0-2.144-.184-3.072-.552-.912-.368-1.552-.728-1.92-1.08l.912-2.256c.448.448 1.056.824 1.824 1.128.784.288 1.512.44 2.184.456.72.016 1.296-.096 1.728-.336.432-.24.648-.536.648-.888 0-.4-.184-.704-.552-.912-.368-.224-.936-.408-1.704-.552-1.792-.32-3.016-.76-3.672-1.32-.656-.56-.984-1.328-.984-2.304 0-.976.424-1.768 1.272-2.376.864-.608 2-.912 3.408-.912 1.424 0 2.816.368 4.176 1.104l-.792 2.16c-.304-.224-.784-.432-1.44-.624a6.796 6.796 0 00-1.944-.336c-.656-.016-1.216.056-1.68.216-.464.16-.696.424-.696.792 0 .192.056.36.168.504.128.128.312.24.552.336.256.08.496.152.72.216.224.048.52.104.888.168l.384.072zm12.615-4.608c1.456 0 2.56.456 3.312 1.368.768.896 1.152 2.2 1.152 3.912V310h-2.304v-6.432c0-.976-.2-1.712-.6-2.208-.384-.512-1.048-.768-1.992-.768-.768 0-1.488.288-2.16.864-.672.56-1.008 1.296-1.008 2.208V310h-2.304v-16.896h2.304v6.72c.896-1.024 2.096-1.536 3.6-1.536zm8.486 1.752c1.168-1.168 2.576-1.752 4.224-1.752 1.648 0 3.048.584 4.2 1.752 1.168 1.152 1.752 2.552 1.752 4.2 0 1.648-.584 3.056-1.752 4.224-1.152 1.152-2.552 1.728-4.2 1.728-1.648 0-3.056-.576-4.224-1.728-1.152-1.168-1.728-2.576-1.728-4.224 0-1.648.576-3.048 1.728-4.2zm1.656 6.768c.72.72 1.576 1.08 2.568 1.08s1.848-.36 2.568-1.08c.72-.72 1.08-1.576 1.08-2.568s-.36-1.848-1.08-2.568c-.72-.72-1.576-1.08-2.568-1.08s-1.848.36-2.568 1.08c-.72.72-1.08 1.576-1.08 2.568s.36 1.848 1.08 2.568zm13.141-5.856c.4-.832 1-1.48 1.8-1.944.8-.48 1.736-.72 2.808-.72v2.52c-.672-.208-1.376-.176-2.112.096-1.664.64-2.496 1.96-2.496 3.96V310h-2.304v-11.52h2.304v2.472zm8.261 5.28v-5.448h-1.536v-2.304h1.536v-4.608h2.304v4.608h2.304v2.304h-2.304v4.8c0 1.104.152 1.768.456 1.992.464.352 1.08.336 1.848-.048v2.328c-.464.224-1.032.336-1.704.336-1.936 0-2.904-1.32-2.904-3.96zm12.302-3.336c2.8.544 4.2 1.712 4.2 3.504 0 1.168-.4 2.096-1.2 2.784-.8.672-1.936 1.008-3.408 1.008-1.12 0-2.144-.184-3.072-.552-.912-.368-1.552-.728-1.92-1.08l.912-2.256c.448.448 1.056.824 1.824 1.128.784.288 1.512.44 2.184.456.72.016 1.296-.096 1.728-.336.432-.24.648-.536.648-.888 0-.4-.184-.704-.552-.912-.368-.224-.936-.408-1.705-.552-1.791-.32-3.015-.76-3.671-1.32-.656-.56-.984-1.328-.984-2.304 0-.976.424-1.768 1.272-2.376.864-.608 2-.912 3.408-.912 1.424 0 2.816.368 4.176 1.104l-.792 2.16c-.304-.224-.784-.432-1.44-.624a6.796 6.796 0 00-1.944-.336c-.656-.016-1.216.056-1.68.216-.464.16-.696.424-.696.792 0 .192.056.36.168.504.128.128.312.24.552.336.256.08.496.152.72.216.224.048.52.104.888.168l.384.072z" fill="#1A1A1A"/>
    <rect x="774" y="179" width="80" height="80" rx="12" fill="#4C4C4C"/>
    <path d="M902.744 198.016h-2.952l-.696 4.224h2.496v1.92h-2.808l-.648 3.84h-2.304l.648-3.84h-3.456l-.648 3.84h-2.304l.648-3.84h-2.568v-1.92h2.88l.696-4.224h-2.424v-1.92h2.76l.696-4.224h2.304l-.696 4.224h3.456l.696-4.224h2.304l-.696 4.224h2.616v1.92zm-9.408 4.224h3.456l.696-4.224h-3.456l-.696 4.224zm22.85-.384h1.92v3.072h-1.92V208h-3.072v-3.072h-8.064v-2.688l7.296-10.368h3.84v9.984zm-3.072 0v-6.336l-4.296 6.336h4.296zm15.544 3.456c1.6 0 2.936-.552 4.008-1.656l1.176 2.784c-.672.608-1.48 1.088-2.424 1.44a8.332 8.332 0 01-2.808.504c-2.368 0-4.392-.824-6.072-2.472-1.68-1.664-2.52-3.656-2.52-5.976s.84-4.304 2.52-5.952c1.68-1.664 3.704-2.496 6.072-2.496.928 0 1.864.168 2.808.504.944.336 1.752.808 2.424 1.416l-1.176 2.784c-1.12-1.088-2.456-1.632-4.008-1.632-1.536 0-2.848.528-3.936 1.584-1.088 1.04-1.632 2.304-1.632 3.792s.544 2.76 1.632 3.816c1.088 1.04 2.4 1.56 3.936 1.56zm18.232-3.456h1.92v3.072h-1.92V208h-3.072v-3.072h-8.064v-2.688l7.296-10.368h3.84v9.984zm-3.072 0v-6.336l-4.296 6.336h4.296zm15.543 3.456c1.6 0 2.936-.552 4.008-1.656l1.176 2.784c-.672.608-1.48 1.088-2.424 1.44a8.332 8.332 0 01-2.808.504c-2.368 0-4.392-.824-6.072-2.472-1.68-1.664-2.52-3.656-2.52-5.976s.84-4.304 2.52-5.952c1.68-1.664 3.704-2.496 6.072-2.496.928 0 1.864.168 2.808.504.944.336 1.752.808 2.424 1.416l-1.176 2.784c-1.12-1.088-2.456-1.632-4.008-1.632-1.536 0-2.848.528-3.936 1.584-1.088 1.04-1.632 2.304-1.632 3.792s.544 2.76 1.632 3.816c1.088 1.04 2.4 1.56 3.936 1.56zm18.232-3.456h1.92v3.072h-1.92V208h-3.072v-3.072h-8.064v-2.688l7.296-10.368h3.84v9.984zm-3.072 0v-6.336l-4.296 6.336h4.296zm15.543 3.456c1.6 0 2.936-.552 4.008-1.656l1.176 2.784c-.672.608-1.48 1.088-2.424 1.44a8.332 8.332 0 01-2.808.504c-2.368 0-4.392-.824-6.072-2.472-1.68-1.664-2.52-3.656-2.52-5.976s.84-4.304 2.52-5.952c1.68-1.664 3.704-2.496 6.072-2.496.928 0 1.864.168 2.808.504.944.336 1.752.808 2.424 1.416l-1.176 2.784c-1.12-1.088-2.456-1.632-4.008-1.632-1.536 0-2.848.528-3.936 1.584-1.088 1.04-1.632 2.304-1.632 3.792s.544 2.76 1.632 3.816c1.088 1.04 2.4 1.56 3.936 1.56zM891.032 242h-2.304v-16.128h2.304V242zm4.23-3.768v-5.448h-1.536v-2.304h1.536v-4.608h2.304v4.608h2.304v2.304h-2.304v4.8c0 1.104.152 1.768.456 1.992.464.352 1.08.336 1.848-.048v2.328c-.464.224-1.032.336-1.704.336-1.936 0-2.904-1.32-2.904-3.96zm17.85-1.944c0 .352-.024.688-.072 1.008h-8.712c.176.864.6 1.512 1.272 1.944.688.432 1.512.648 2.472.648 1.248 0 2.416-.384 3.504-1.152l.768 2.064c-1.104.928-2.544 1.392-4.32 1.392-1.936 0-3.432-.56-4.488-1.68-1.04-1.136-1.56-2.56-1.56-4.272 0-1.696.52-3.112 1.56-4.248 1.056-1.136 2.448-1.704 4.176-1.704 1.568 0 2.856.544 3.864 1.632 1.024 1.088 1.536 2.544 1.536 4.368zm-8.784-1.104h6.432c-.032-.656-.312-1.248-.84-1.776-.528-.544-1.296-.816-2.304-.816-.976 0-1.76.272-2.352.816-.592.544-.904 1.136-.936 1.776zm23.911-4.896c1.28 0 2.28.456 3 1.368.72.912 1.08 2.216 1.08 3.912V242h-2.304v-6.432c0-1.984-.736-2.976-2.208-2.976-.736 0-1.384.28-1.944.84-.56.56-.84 1.304-.84 2.232V242h-2.304v-6.432c0-1.984-.736-2.976-2.208-2.976-.736 0-1.384.28-1.944.84-.56.56-.84 1.304-.84 2.232V242h-2.304v-11.52h2.304v1.344a8.06 8.06 0 01.744-.744c.208-.192.528-.368.96-.528a4.106 4.106 0 011.512-.264c1.504 0 2.608.608 3.312 1.824.608-.656 1.216-1.12 1.824-1.392.624-.288 1.344-.432 2.16-.432zm19.473 4.608c2.8.544 4.2 1.712 4.2 3.504 0 1.168-.4 2.096-1.2 2.784-.8.672-1.936 1.008-3.408 1.008-1.12 0-2.144-.184-3.072-.552-.912-.368-1.552-.728-1.92-1.08l.912-2.256c.448.448 1.056.824 1.824 1.128.784.288 1.512.44 2.184.456.72.016 1.296-.096 1.728-.336.432-.24.648-.536.648-.888 0-.4-.184-.704-.552-.912-.368-.224-.936-.408-1.704-.552-1.792-.32-3.016-.76-3.672-1.32-.656-.56-.984-1.328-.984-2.304 0-.976.424-1.768 1.272-2.376.864-.608 2-.912 3.408-.912 1.424 0 2.816.368 4.176 1.104l-.792 2.16c-.304-.224-.784-.432-1.44-.624a6.796 6.796 0 00-1.944-.336c-.656-.016-1.216.056-1.68.216-.464.16-.696.424-.696.792 0 .192.056.36.168.504.128.128.312.24.552.336.256.08.496.152.72.216.224.048.52.104.888.168l.384.072zm11.123 1.152l6.144 5.952h-3.072l-4.992-4.896V242h-2.304v-16.896h2.304v10.08l4.608-4.704h3.072l-5.76 5.568zm10.433-7.992a1.666 1.666 0 01-1.224.504c-.48 0-.888-.168-1.224-.504a1.666 1.666 0 01-.504-1.224c0-.48.168-.888.504-1.224a1.666 1.666 0 011.224-.504c.48 0 .888.168 1.224.504.336.336.504.744.504 1.224s-.168.888-.504 1.224zM966.892 242v-11.52h2.304V242h-2.304zm11.722-11.712c1.664 0 3.04.576 4.128 1.728 1.088 1.152 1.632 2.56 1.632 4.224 0 1.664-.544 3.072-1.632 4.224-1.088 1.152-2.464 1.728-4.128 1.728-1.6 0-2.88-.624-3.84-1.872v7.824h-2.304V230.48h2.304v1.68c.96-1.248 2.24-1.872 3.84-1.872zm-2.784 8.544a3.576 3.576 0 002.592 1.056c1.008 0 1.864-.352 2.568-1.056.72-.72 1.08-1.584 1.08-2.592s-.36-1.864-1.08-2.568a3.457 3.457 0 00-2.568-1.08c-1.008 0-1.872.36-2.592 1.08-.704.704-1.056 1.56-1.056 2.568s.352 1.872 1.056 2.592zm15.874-3.936c2.8.544 4.2 1.712 4.2 3.504 0 1.168-.4 2.096-1.2 2.784-.8.672-1.936 1.008-3.408 1.008-1.12 0-2.144-.184-3.072-.552-.912-.368-1.552-.728-1.92-1.08l.912-2.256c.448.448 1.056.824 1.824 1.128.784.288 1.512.44 2.184.456.72.016 1.296-.096 1.728-.336.432-.24.648-.536.648-.888 0-.4-.184-.704-.552-.912-.368-.224-.936-.408-1.704-.552-1.792-.32-3.016-.76-3.672-1.32-.656-.56-.984-1.328-.984-2.304 0-.976.424-1.768 1.272-2.376.864-.608 2-.912 3.408-.912 1.424 0 2.816.368 4.176 1.104l-.792 2.16c-.304-.224-.784-.432-1.44-.624a6.796 6.796 0 00-1.944-.336c-.656-.016-1.216.056-1.68.216-.464.16-.696.424-.696.792 0 .192.056.36.168.504.128.128.312.24.552.336.256.08.496.152.72.216.224.048.52.104.888.168l.384.072z" fill="#1A1A1A"/>
    <path fill="#404040" d="M232 31h50v2h-50zm542 123h222v2H774zM232 325h50v2h-50z"/>
    <path fill="#404040" d="M256 32h2v294h-2zm628 102h2v21h-2z"/>
  </g>
  <defs>
    <clipPath id="loblaw-ph_colours__clip0">
      <path fill="#fff" d="M0 0h1003v363H0z"/>
    </clipPath>
  </defs>
</svg>
