<svg width="1005" height="475" fill="none" xmlns="http://www.w3.org/2000/svg">
  <g filter="url(#loblaw-ph_transaction_icons__filter0_dd)">
    <path d="M363 10a4 4 0 014-4h625a4 4 0 014 4v456a4 4 0 01-4 4H367a4 4 0 01-4-4V10z" fill="#fff"/>
    <path d="M398.89 45.81c.961-.961 2.123-1.442 3.486-1.442s2.525.48 3.486 1.442c.961.961 1.442 2.123 1.442 3.486s-.481 2.525-1.442 3.486c-.961.961-2.123 1.442-3.486 1.442s-2.525-.48-3.486-1.442c-.961-.961-1.442-2.123-1.442-3.486s.481-2.525 1.442-3.486zm1.26 5.712c.616.607 1.358.91 2.226.91.868 0 1.605-.303 2.212-.91a3.034 3.034 0 00.924-2.226c0-.868-.308-1.605-.924-2.212a2.989 2.989 0 00-2.212-.924c-.868 0-1.61.308-2.226.924-.607.607-.91 1.344-.91 2.212 0 .868.303 1.61.91 2.226zm10.284-2.996c.224-.513.597-.91 1.12-1.19.523-.29 1.12-.457 1.792-.504v2.114a2.526 2.526 0 00-1.344 0 2.188 2.188 0 00-1.106.742c-.308.364-.462.83-.462 1.4V54h-1.792v-6.944h1.792v1.47zm7.056-1.694c.859 0 1.568.322 2.128.966v-3.654h1.792V54h-1.792v-.742c-.56.644-1.269.966-2.128.966-.961 0-1.782-.36-2.464-1.078-.672-.728-1.008-1.6-1.008-2.618 0-1.017.336-1.885 1.008-2.604.682-.728 1.503-1.092 2.464-1.092zm-1.12 5.04c.374.373.822.56 1.344.56.523 0 .971-.187 1.344-.56a1.83 1.83 0 00.56-1.344c0-.523-.186-.97-.56-1.344a1.832 1.832 0 00-1.344-.56c-.522 0-.97.187-1.344.56-.373.373-.56.821-.56 1.344 0 .523.187.97.56 1.344zm13.11-1.344c0 .13-.009.317-.028.56h-5.054c.131.476.369.859.714 1.148.355.28.803.42 1.344.42a3.5 3.5 0 002.072-.644l.518 1.554a5.874 5.874 0 01-.322.182c-.131.075-.425.173-.882.294a5.386 5.386 0 01-1.414.182c-1.288 0-2.259-.345-2.912-1.036-.653-.69-.98-1.577-.98-2.66 0-1.083.308-1.97.924-2.66.616-.69 1.503-1.036 2.66-1.036 1.083 0 1.913.327 2.492.98.579.644.868 1.55.868 2.716zm-5.04-.784h3.136c0-.336-.14-.644-.42-.924-.271-.28-.653-.42-1.148-.42-.42 0-.789.15-1.106.448-.308.29-.462.588-.462.896zm7.951-1.218c.224-.513.597-.91 1.12-1.19.523-.29 1.12-.457 1.792-.504v2.114a2.526 2.526 0 00-1.344 0 2.188 2.188 0 00-1.106.742c-.308.364-.462.83-.462 1.4V54h-1.792v-6.944h1.792v1.47zm10.528 2.002c0 .13-.009.317-.028.56h-5.054c.131.476.369.859.714 1.148.355.28.803.42 1.344.42.775 0 1.466-.215 2.072-.644l.518 1.554a5.514 5.514 0 01-.322.182c-.13.075-.424.173-.882.294a5.386 5.386 0 01-1.414.182c-1.288 0-2.258-.345-2.912-1.036-.653-.69-.98-1.577-.98-2.66 0-1.083.308-1.97.924-2.66.616-.69 1.503-1.036 2.66-1.036 1.083 0 1.914.327 2.492.98.579.644.868 1.55.868 2.716zm-5.04-.784h3.136c0-.336-.14-.644-.42-.924-.27-.28-.653-.42-1.148-.42-.42 0-.788.15-1.106.448-.308.29-.462.588-.462.896zm9.402-2.912c.859 0 1.568.322 2.128.966v-3.654h1.792V54h-1.792v-.742c-.56.644-1.269.966-2.128.966-.961 0-1.782-.36-2.464-1.078-.672-.728-1.008-1.6-1.008-2.618 0-1.017.336-1.885 1.008-2.604.682-.728 1.503-1.092 2.464-1.092zm-1.12 5.04c.374.373.822.56 1.344.56.523 0 .971-.187 1.344-.56a1.83 1.83 0 00.56-1.344c0-.523-.186-.97-.56-1.344a1.832 1.832 0 00-1.344-.56c-.522 0-.97.187-1.344.56-.373.373-.56.821-.56 1.344 0 .523.187.97.56 1.344zm15.677-4.256c.476 0 .872.163 1.19.49.326.317.49.714.49 1.19 0 .467-.164.863-.49 1.19a1.59 1.59 0 01-1.19.49c-.467 0-.864-.163-1.19-.49a1.619 1.619 0 01-.49-1.19c0-.476.163-.873.49-1.19.326-.327.723-.49 1.19-.49zm17.134-3.024h1.792V54h-1.792l-4.704-6.496V54h-1.792v-9.408h1.792l4.704 6.496v-6.496zm4.21 3.318c.719-.719 1.592-1.078 2.618-1.078 1.027 0 1.9.36 2.618 1.078.719.719 1.078 1.591 1.078 2.618s-.359 1.9-1.078 2.618c-.718.719-1.591 1.078-2.618 1.078-1.026 0-1.899-.36-2.618-1.078-.718-.719-1.078-1.591-1.078-2.618s.36-1.9 1.078-2.618zm1.274 3.962c.374.373.822.56 1.344.56.523 0 .971-.187 1.344-.56a1.83 1.83 0 00.56-1.344c0-.523-.186-.97-.56-1.344a1.832 1.832 0 00-1.344-.56c-.522 0-.97.187-1.344.56-.373.373-.56.821-.56 1.344 0 .523.187.97.56 1.344zm17.129-7.28h1.792V54h-1.792l-4.704-6.496V54h-1.792v-9.408h1.792l4.704 6.496v-6.496zm8.733 2.464h1.792V54h-1.792v-.742c-.56.644-1.27.966-2.128.966-.962 0-1.783-.36-2.464-1.078-.672-.728-1.008-1.6-1.008-2.618 0-1.017.336-1.885 1.008-2.604.681-.728 1.502-1.092 2.464-1.092.858 0 1.568.322 2.128.966v-.742zm-3.248 4.816c.373.373.821.56 1.344.56.522 0 .97-.187 1.344-.56.373-.373.56-.821.56-1.344 0-.523-.187-.97-.56-1.344a1.835 1.835 0 00-1.344-.56c-.523 0-.971.187-1.344.56a1.83 1.83 0 00-.56 1.344c0 .523.186.97.56 1.344zm14.338-5.04c.822 0 1.475.27 1.96.812.486.532.728 1.307.728 2.324V54h-1.792v-3.808c0-.55-.084-.947-.252-1.19-.158-.252-.448-.378-.868-.378-.896 0-1.344.597-1.344 1.792V54h-1.792v-3.808c0-.541-.088-.938-.266-1.19-.177-.252-.462-.378-.854-.378-.896 0-1.344.597-1.344 1.792V54h-1.792v-6.944h1.792v.672c.476-.597 1.074-.896 1.792-.896.878 0 1.526.313 1.946.938.56-.625 1.256-.938 2.086-.938zm10.748 3.696c0 .13-.01.317-.028.56h-5.054c.13.476.368.859.714 1.148.354.28.802.42 1.344.42a3.5 3.5 0 002.072-.644l.518 1.554a5.874 5.874 0 01-.322.182c-.131.075-.425.173-.882.294-.448.121-.92.182-1.414.182-1.288 0-2.259-.345-2.912-1.036-.654-.69-.98-1.577-.98-2.66 0-1.083.308-1.97.924-2.66.616-.69 1.502-1.036 2.66-1.036 1.082 0 1.913.327 2.492.98.578.644.868 1.55.868 2.716zm-5.04-.784h3.136c0-.336-.14-.644-.42-.924-.271-.28-.654-.42-1.148-.42-.42 0-.789.15-1.106.448-.308.29-.462.588-.462.896zm15.222 2.688c.933 0 1.712-.322 2.338-.966l.686 1.624a4.347 4.347 0 01-1.414.84 4.863 4.863 0 01-1.638.294c-1.382 0-2.562-.48-3.542-1.442-.98-.97-1.47-2.133-1.47-3.486 0-1.353.49-2.51 1.47-3.472.98-.97 2.16-1.456 3.542-1.456.541 0 1.087.098 1.638.294.55.196 1.022.471 1.414.826l-.686 1.624a3.24 3.24 0 00-2.338-.952c-.896 0-1.662.308-2.296.924-.635.607-.952 1.344-.952 2.212 0 .868.317 1.61.952 2.226.634.607 1.4.91 2.296.91zm8.255-5.6c.812 0 1.446.266 1.904.798.466.532.7 1.311.7 2.338V54h-1.792v-3.808c0-.541-.108-.938-.322-1.19-.215-.252-.556-.378-1.022-.378-.448 0-.822.15-1.12.448-.299.299-.448.747-.448 1.344V54h-1.792v-9.856h1.792v3.584c.504-.597 1.204-.896 2.1-.896zm5.829-1.022a1.18 1.18 0 01-.868.35c-.346 0-.64-.117-.882-.35a1.223 1.223 0 01-.35-.882c0-.345.116-.635.35-.868.242-.243.536-.364.882-.364.345 0 .634.121.868.364.242.233.364.523.364.868s-.122.64-.364.882zM554.658 54v-6.944h1.792V54h-1.792zm3.472-9.856h1.792V54h-1.792v-9.856zm3.473 0h1.792V54h-1.792v-9.856zm5.237 1.666a1.18 1.18 0 01-.868.35c-.346 0-.64-.117-.882-.35a1.223 1.223 0 01-.35-.882c0-.345.116-.635.35-.868.242-.243.536-.364.882-.364.345 0 .634.121.868.364.242.233.364.523.364.868s-.122.64-.364.882zM565.076 54v-6.944h1.792V54h-1.792zm11.194-9.408c1.185 0 2.076.285 2.674.854.606.57.91 1.33.91 2.282A3.18 3.18 0 01579 49.94c-.57.616-1.33.924-2.282.924h-2.016V54h-1.792v-9.408h3.36zm.224 4.48c.438 0 .807-.126 1.106-.378.308-.252.462-.574.462-.966 0-.43-.15-.76-.448-.994-.29-.233-.663-.35-1.12-.35h-1.792v2.688h1.792zm5.331-1.162c.718-.719 1.591-1.078 2.618-1.078 1.026 0 1.899.36 2.618 1.078.718.719 1.078 1.591 1.078 2.618s-.36 1.9-1.078 2.618c-.719.719-1.592 1.078-2.618 1.078-1.027 0-1.9-.36-2.618-1.078-.719-.719-1.078-1.591-1.078-2.618s.359-1.9 1.078-2.618zm1.274 3.962c.373.373.821.56 1.344.56.522 0 .97-.187 1.344-.56.373-.373.56-.821.56-1.344 0-.523-.187-.97-.56-1.344a1.835 1.835 0 00-1.344-.56c-.523 0-.971.187-1.344.56a1.83 1.83 0 00-.56 1.344c0 .523.186.97.56 1.344zm13.89-4.816h2.016L596.653 54h-1.624l-1.288-3.808L592.453 54h-1.624l-2.352-6.944h2.016l1.232 4.48 1.344-4.48h1.344l1.344 4.48 1.232-4.48zm5.933-.224c.859 0 1.568.322 2.128.966v-3.654h1.792V54h-1.792v-.742c-.56.644-1.269.966-2.128.966-.961 0-1.783-.36-2.464-1.078-.672-.728-1.008-1.6-1.008-2.618 0-1.017.336-1.885 1.008-2.604.681-.728 1.503-1.092 2.464-1.092zm-1.12 5.04c.373.373.821.56 1.344.56.523 0 .971-.187 1.344-.56.373-.373.56-.821.56-1.344 0-.523-.187-.97-.56-1.344a1.832 1.832 0 00-1.344-.56c-.523 0-.971.187-1.344.56-.373.373-.56.821-.56 1.344 0 .523.187.97.56 1.344zm13.11-1.344c0 .13-.01.317-.028.56h-5.054c.13.476.368.859.714 1.148.354.28.802.42 1.344.42a3.5 3.5 0 002.072-.644l.518 1.554a5.874 5.874 0 01-.322.182c-.131.075-.425.173-.882.294-.448.121-.92.182-1.414.182-1.288 0-2.259-.345-2.912-1.036-.654-.69-.98-1.577-.98-2.66 0-1.083.308-1.97.924-2.66.616-.69 1.502-1.036 2.66-1.036 1.082 0 1.913.327 2.492.98.578.644.868 1.55.868 2.716zm-5.04-.784h3.136c0-.336-.14-.644-.42-.924-.271-.28-.654-.42-1.148-.42-.42 0-.789.15-1.106.448-.308.29-.462.588-.462.896zm7.951-1.218c.224-.513.597-.91 1.12-1.19.522-.29 1.12-.457 1.792-.504v2.114a2.526 2.526 0 00-1.344 0c-.43.121-.798.369-1.106.742-.308.364-.462.83-.462 1.4V54h-1.792v-6.944h1.792v1.47zm11.863-4.606c-1.195 1.81-1.792 3.752-1.792 5.824s.597 4.013 1.792 5.824l-1.792.672c-1.195-2.165-1.792-4.33-1.792-6.496 0-2.165.597-4.33 1.792-6.496l1.792.672zm1.343 1.344l3.584-.896V54h-1.792v-7.448l-1.792.392v-1.68zm9.399 2.464c.85 0 1.587.275 2.212.826.626.541.938 1.26.938 2.156 0 1.092-.336 1.95-1.008 2.576-.662.625-1.521.938-2.576.938-1.101 0-1.96-.275-2.576-.826-.616-.56-.952-1.293-1.008-2.198l1.792-.14c.047.401.22.733.518.994.299.252.724.378 1.274.378.514 0 .938-.145 1.274-.434.346-.29.518-.667.518-1.134 0-.401-.149-.742-.448-1.022-.289-.29-.7-.434-1.232-.434-.821 0-1.456.261-1.904.784h-1.568l.896-5.6h5.152v1.792h-3.696l-.252 1.792c.402-.299.966-.448 1.694-.448zm5.536-1.932c.691-.952 1.577-1.428 2.66-1.428 1.083 0 1.969.476 2.66 1.428.691.952 1.036 2.119 1.036 3.5 0 1.381-.345 2.548-1.036 3.5-.691.952-1.577 1.428-2.66 1.428-1.092 0-1.983-.471-2.674-1.414-.681-.952-1.022-2.123-1.022-3.514 0-1.381.345-2.548 1.036-3.5zm1.316 5.726c.373.607.821.91 1.344.91.523 0 .971-.303 1.344-.91.373-.616.56-1.358.56-2.226 0-.868-.187-1.605-.56-2.212-.373-.616-.821-.924-1.344-.924-.523 0-.971.308-1.344.924-.373.607-.56 1.344-.56 2.212 0 .868.187 1.61.56 2.226zm11.76-4.466h1.792v6.272c0 1.456-.331 2.567-.994 3.332-.653.765-1.591 1.148-2.814 1.148-.438 0-.868-.051-1.288-.154a4.278 4.278 0 01-1.078-.378 6.678 6.678 0 01-.658-.364 3.47 3.47 0 01-.336-.224l.84-1.582c.262.224.616.43 1.064.616.448.196.934.294 1.456.294.607 0 1.092-.205 1.456-.616.374-.401.56-.915.56-1.54v-.602c-.56.644-1.269.966-2.128.966-.961 0-1.782-.36-2.464-1.078-.672-.728-1.008-1.6-1.008-2.618 0-1.017.336-1.885 1.008-2.604.682-.728 1.503-1.092 2.464-1.092.859 0 1.568.322 2.128.966v-.742zm-3.248 4.816c.374.373.822.56 1.344.56.523 0 .971-.187 1.344-.56a1.83 1.83 0 00.56-1.344c0-.523-.186-.97-.56-1.344a1.832 1.832 0 00-1.344-.56c-.522 0-.97.187-1.344.56-.373.373-.56.821-.56 1.344 0 .523.187.97.56 1.344zm6.385-7.952l1.792-.672c1.194 2.165 1.792 4.33 1.792 6.496 0 2.165-.598 4.33-1.792 6.496l-1.792-.672c1.194-1.81 1.792-3.752 1.792-5.824s-.598-4.013-1.792-5.824z" fill="#333"/>
    <path d="M397.994 71.392a3.159 3.159 0 01.924-2.058c.569-.57 1.311-.854 2.226-.854.905 0 1.652.285 2.24.854.597.56.896 1.283.896 2.17 0 .579-.168 1.13-.504 1.652-.327.513-.859 1.157-1.596 1.932l-1.47 1.568h4.018V78h-6.944l3.444-3.78c.392-.43.677-.751.854-.966.187-.215.373-.485.56-.812.196-.327.294-.611.294-.854 0-.532-.168-.957-.504-1.274-.327-.327-.756-.49-1.288-.49-.513 0-.929.173-1.246.518-.317.336-.495.76-.532 1.274l-1.372-.224zm9.274-1.512c.653-.933 1.488-1.4 2.506-1.4 1.017 0 1.848.467 2.492 1.4.653.924.98 2.063.98 3.416 0 1.353-.327 2.497-.98 3.43-.644.924-1.475 1.386-2.492 1.386-1.027 0-1.862-.462-2.506-1.386-.644-.933-.966-2.077-.966-3.43 0-1.353.322-2.492.966-3.416zm.994 5.88c.42.672.924 1.008 1.512 1.008s1.087-.336 1.498-1.008c.42-.681.63-1.503.63-2.464 0-.961-.21-1.778-.63-2.45-.411-.681-.91-1.022-1.498-1.022s-1.092.34-1.512 1.022c-.411.672-.616 1.489-.616 2.45 0 .961.205 1.783.616 2.464zm10.295-4.34c.943 0 1.713.313 2.31.938.597.616.896 1.353.896 2.212 0 1.045-.327 1.9-.98 2.562-.644.653-1.475.98-2.492.98-1.027 0-1.862-.331-2.506-.994-.644-.663-.966-1.545-.966-2.646 0-1.045.275-2.11.826-3.192.551-1.092 1.372-1.988 2.464-2.688h2.38a2.135 2.135 0 00-.28.112c-.121.047-.35.163-.686.35a7.15 7.15 0 00-.952.602 7.153 7.153 0 00-.952.924 5.466 5.466 0 00-.826 1.246c.485-.27 1.073-.406 1.764-.406zm-1.792 4.76c.401.392.91.588 1.526.588s1.125-.196 1.526-.588a1.94 1.94 0 00.602-1.442c0-.57-.196-1.04-.588-1.414-.383-.373-.896-.56-1.54-.56-.616 0-1.125.191-1.526.574-.401.373-.602.84-.602 1.4 0 .57.201 1.05.602 1.442zm6.796-6.804l2.912-1.008V78h-1.344v-7.896l-1.568.504v-1.232zm10.6 3.458c.849.485 1.274 1.241 1.274 2.268 0 .887-.336 1.61-1.008 2.17-.672.56-1.493.84-2.464.84-.971 0-1.792-.28-2.464-.84-.672-.56-1.008-1.283-1.008-2.17 0-1.008.42-1.764 1.26-2.268-.541-.383-.812-.957-.812-1.722 0-.747.289-1.372.868-1.876.588-.504 1.307-.756 2.156-.756.84 0 1.554.252 2.142.756.588.504.882 1.13.882 1.876 0 .747-.275 1.32-.826 1.722zm-1.008-2.646c-.327-.243-.723-.364-1.19-.364-.467 0-.863.121-1.19.364-.327.243-.49.532-.49.868 0 .336.163.625.49.868.327.243.723.364 1.19.364.467 0 .863-.121 1.19-.364.327-.243.49-.532.49-.868 0-.336-.163-.625-.49-.868zm-2.702 6.118c.42.308.924.462 1.512.462s1.087-.154 1.498-.462c.42-.317.63-.705.63-1.162 0-.457-.21-.84-.63-1.148-.411-.317-.91-.476-1.498-.476s-1.092.159-1.512.476c-.411.308-.616.69-.616 1.148 0 .457.205.845.616 1.162zm11.934-3.276c.364.121.676.378.938.77.27.392.406.821.406 1.288 0 .803-.28 1.507-.84 2.114-.551.607-1.391.91-2.52.91-.999 0-1.792-.275-2.38-.826-.588-.55-.915-1.283-.98-2.198l1.344-.224c.158 1.27.858 1.904 2.1 1.904.597 0 1.068-.15 1.414-.448.345-.299.518-.672.518-1.12 0-.532-.21-.887-.63-1.064-.411-.187-1.022-.28-1.834-.28v-1.344c.242 0 .476-.019.7-.056a6.46 6.46 0 00.714-.196 1.35 1.35 0 00.602-.42c.149-.187.224-.41.224-.672 0-.345-.15-.653-.448-.924-.299-.28-.719-.42-1.26-.42-.654 0-1.12.163-1.4.49-.271.327-.434.76-.49 1.302l-1.344-.224c.074-.85.401-1.545.98-2.086.588-.55 1.311-.826 2.17-.826.998 0 1.768.275 2.31.826.55.55.826 1.134.826 1.75 0 .877-.374 1.535-1.12 1.974zm6.647-1.61c.942 0 1.712.313 2.31.938.597.616.896 1.353.896 2.212 0 1.045-.327 1.9-.98 2.562-.644.653-1.475.98-2.492.98-1.027 0-1.862-.331-2.506-.994-.644-.663-.966-1.545-.966-2.646 0-1.045.275-2.11.826-3.192.55-1.092 1.372-1.988 2.464-2.688h2.38a2.081 2.081 0 00-.28.112c-.122.047-.35.163-.686.35a7.085 7.085 0 00-.952.602c-.29.224-.607.532-.952.924a5.433 5.433 0 00-.826 1.246c.485-.27 1.073-.406 1.764-.406zm-1.792 4.76c.401.392.91.588 1.526.588s1.124-.196 1.526-.588a1.94 1.94 0 00.602-1.442c0-.57-.196-1.04-.588-1.414-.383-.373-.896-.56-1.54-.56-.616 0-1.125.191-1.526.574a1.83 1.83 0 00-.602 1.4c0 .57.2 1.05.602 1.442zm11.947-3.15c.364.121.677.378.938.77.271.392.406.821.406 1.288 0 .803-.28 1.507-.84 2.114-.55.607-1.39.91-2.52.91-.998 0-1.792-.275-2.38-.826-.588-.55-.914-1.283-.98-2.198l1.344-.224c.159 1.27.859 1.904 2.1 1.904.598 0 1.069-.15 1.414-.448.346-.299.518-.672.518-1.12 0-.532-.21-.887-.63-1.064-.41-.187-1.022-.28-1.834-.28v-1.344c.243 0 .476-.019.7-.056a6.46 6.46 0 00.714-.196 1.35 1.35 0 00.602-.42c.15-.187.224-.41.224-.672 0-.345-.149-.653-.448-.924-.298-.28-.718-.42-1.26-.42-.653 0-1.12.163-1.4.49-.27.327-.434.76-.49 1.302l-1.344-.224c.075-.85.402-1.545.98-2.086.588-.55 1.312-.826 2.17-.826.999 0 1.769.275 2.31.826.551.55.826 1.134.826 1.75 0 .877-.373 1.535-1.12 1.974zm9.406 6.538h-6.72v-1.12h6.72v1.12zm6.937-9.632h-4.032v2.688h3.36v1.344h-3.36v2.688h4.032V78h-5.376v-9.408h5.376v1.344zM483.927 78l-.91-2.016h-4.228l-.91 2.016h-1.456l4.48-9.632 4.48 9.632h-1.456zm-4.522-3.36h2.996l-1.498-3.304-1.498 3.304z" fill="#4C4C4C"/>
    <circle cx="493" cy="119" r="5" fill="#4C4C4C"/>
    <circle cx="493" cy="119" r="12" fill="#4C4C4C"/>
    <g clip-path="url(#loblaw-ph_transaction_icons__clip0)">
      <path d="M496.138 111.103a.643.643 0 00-.471.191.645.645 0 00-.192.472l-.007 1.908a8.061 8.061 0 00-2.957.651 7.864 7.864 0 00-2.501 1.684c-1.35 1.35-2.12 2.937-2.309 4.762-.189 1.824.215 3.554 1.212 5.189l.051.051a.321.321 0 00.236.096.317.317 0 00.235-.096l1.466-1.465c.108-.108.125-.239.052-.391-.285-.697-.442-1.114-.472-1.252a5.245 5.245 0 01.052-2.688 5.24 5.24 0 011.363-2.321c.987-.987 2.18-1.507 3.579-1.561v2.033a.644.644 0 00.192.471.64.64 0 00.471.192.641.641 0 00.472-.192l3.3-3.3a.643.643 0 00.191-.471.644.644 0 00-.191-.472l-3.3-3.299a.641.641 0 00-.472-.192z" fill="#fff"/>
    </g>
    <path d="M526.354 116.512c1.167.224 2.021.546 2.562.966.541.411.812.999.812 1.764 0 .84-.322 1.531-.966 2.072-.644.532-1.507.798-2.59.798a5.467 5.467 0 01-1.484-.196 4.391 4.391 0 01-1.148-.518 7.922 7.922 0 01-.658-.49 2.616 2.616 0 01-.322-.322l.672-1.204c.831.924 1.82 1.386 2.968 1.386.7 0 1.237-.131 1.61-.392.383-.261.574-.621.574-1.078 0-.709-.714-1.19-2.142-1.442-1.241-.215-2.114-.537-2.618-.966-.495-.439-.742-.999-.742-1.68 0-.793.299-1.447.896-1.96.597-.513 1.428-.77 2.492-.77 1.223 0 2.235.373 3.038 1.12l-.644 1.218c-.681-.663-1.489-.994-2.422-.994-.644 0-1.143.117-1.498.35-.345.233-.518.56-.518.98 0 .355.163.635.49.84.327.196.873.369 1.638.518zm7.403 2.016l3.584 3.472h-1.792l-2.912-2.856V122h-1.344v-9.856h1.344v5.88l2.688-2.744h1.792l-3.36 3.248zm6.086-4.662a.972.972 0 01-.714.294.972.972 0 01-.714-.294.972.972 0 01-.294-.714c0-.28.098-.518.294-.714a.972.972 0 01.714-.294c.28 0 .518.098.714.294a.972.972 0 01.294.714c0 .28-.098.518-.294.714zM538.457 122v-6.72h1.344V122h-1.344zm6.838-6.832c.971 0 1.773.336 2.408 1.008.635.672.952 1.493.952 2.464 0 .971-.317 1.792-.952 2.464-.635.672-1.437 1.008-2.408 1.008-.933 0-1.68-.364-2.24-1.092v4.564h-1.344V115.28h1.344v.98c.56-.728 1.307-1.092 2.24-1.092zm-1.624 4.984c.42.411.924.616 1.512.616s1.087-.205 1.498-.616c.42-.42.63-.924.63-1.512s-.21-1.087-.63-1.498c-.411-.42-.91-.63-1.498-.63s-1.092.21-1.512.63c-.411.411-.616.91-.616 1.498s.205 1.092.616 1.512zm10.032-4.984c.971 0 1.774.336 2.408 1.008.635.672.952 1.493.952 2.464 0 .971-.317 1.792-.952 2.464-.634.672-1.437 1.008-2.408 1.008-.933 0-1.68-.364-2.24-1.092v4.564h-1.344V115.28h1.344v.98c.56-.728 1.307-1.092 2.24-1.092zm-1.624 4.984c.42.411.924.616 1.512.616s1.088-.205 1.498-.616c.42-.42.63-.924.63-1.512s-.21-1.087-.63-1.498c-.41-.42-.91-.63-1.498-.63s-1.092.21-1.512.63c-.41.411-.616.91-.616 1.498s.206 1.092.616 1.512zm12.606-1.484c0 .205-.014.401-.042.588h-5.082c.103.504.35.882.742 1.134.401.252.882.378 1.442.378.728 0 1.409-.224 2.044-.672l.448 1.204c-.644.541-1.484.812-2.52.812-1.129 0-2.002-.327-2.618-.98-.607-.663-.91-1.493-.91-2.492 0-.989.303-1.815.91-2.478.616-.663 1.428-.994 2.436-.994.915 0 1.666.317 2.254.952.597.635.896 1.484.896 2.548zm-5.124-.644h3.752c-.019-.383-.182-.728-.49-1.036-.308-.317-.756-.476-1.344-.476-.569 0-1.027.159-1.372.476-.345.317-.527.663-.546 1.036zm11.843-5.88h1.344V122h-1.344v-.98c-.56.728-1.307 1.092-2.24 1.092-.971 0-1.773-.336-2.408-1.008-.635-.672-.952-1.493-.952-2.464 0-.971.317-1.792.952-2.464.635-.672 1.437-1.008 2.408-1.008.933 0 1.68.364 2.24 1.092v-4.116zm-3.64 8.008c.42.411.924.616 1.512.616s1.087-.205 1.498-.616c.42-.42.63-.924.63-1.512s-.21-1.087-.63-1.498c-.411-.42-.91-.63-1.498-.63s-1.092.21-1.512.63c-.411.411-.616.91-.616 1.498s.205 1.092.616 1.512zM408.75 113.88c.653-.933 1.489-1.4 2.506-1.4 1.017 0 1.848.467 2.492 1.4.653.924.98 2.063.98 3.416 0 1.353-.327 2.497-.98 3.43-.644.924-1.475 1.386-2.492 1.386-1.027 0-1.862-.462-2.506-1.386-.644-.933-.966-2.077-.966-3.43 0-1.353.322-2.492.966-3.416zm.994 5.88c.42.672.924 1.008 1.512 1.008s1.087-.336 1.498-1.008c.42-.681.63-1.503.63-2.464 0-.961-.21-1.778-.63-2.45-.411-.681-.91-1.022-1.498-1.022s-1.092.341-1.512 1.022c-.411.672-.616 1.489-.616 2.45 0 .961.205 1.783.616 2.464zm10.212-4.032c.821 0 1.535.28 2.142.84.616.551.924 1.302.924 2.254s-.332 1.741-.994 2.366a3.358 3.358 0 01-2.366.924c-.915 0-1.69-.28-2.324-.84-.635-.569-.98-1.26-1.036-2.072l1.4-.14c.046.457.252.859.616 1.204.364.336.812.504 1.344.504.55 0 1.022-.182 1.414-.546.401-.373.602-.826.602-1.358 0-.523-.168-.952-.504-1.288-.336-.336-.77-.504-1.302-.504-.383 0-.761.098-1.134.294a2.135 2.135 0 00-.854.826h-1.372l.84-5.6h4.774v1.344H418.5l-.364 2.408c.494-.411 1.101-.616 1.82-.616zm5.639 1.456a.972.972 0 01-.714-.294.972.972 0 01-.294-.714c0-.289.098-.527.294-.714a.972.972 0 01.714-.294c.289 0 .527.098.714.294a.944.944 0 01.294.714c0 .28-.098.518-.294.714a.944.944 0 01-.714.294zm0 4.928a.972.972 0 01-.714-.294.972.972 0 01-.294-.714c0-.28.098-.518.294-.714a.972.972 0 01.714-.294c.289 0 .527.098.714.294a.972.972 0 01.294.714c0 .28-.098.518-.294.714a.944.944 0 01-.714.294zm7.95-5.082c.364.121.676.378.938.77.27.392.406.821.406 1.288 0 .803-.28 1.507-.84 2.114-.551.607-1.391.91-2.52.91-.999 0-1.792-.275-2.38-.826-.588-.551-.915-1.283-.98-2.198l1.344-.224c.158 1.269.858 1.904 2.1 1.904.597 0 1.068-.149 1.414-.448.345-.299.518-.672.518-1.12 0-.532-.21-.887-.63-1.064-.411-.187-1.022-.28-1.834-.28v-1.344c.242 0 .476-.019.7-.056a6.46 6.46 0 00.714-.196 1.35 1.35 0 00.602-.42c.149-.187.224-.411.224-.672 0-.345-.15-.653-.448-.924-.299-.28-.719-.42-1.26-.42-.654 0-1.12.163-1.4.49-.271.327-.434.761-.49 1.302l-1.344-.224c.074-.849.401-1.545.98-2.086.588-.551 1.311-.826 2.17-.826.998 0 1.768.275 2.31.826.55.551.826 1.134.826 1.75 0 .877-.374 1.535-1.12 1.974zm8.579-.196c.849.485 1.274 1.241 1.274 2.268 0 .887-.336 1.61-1.008 2.17-.672.56-1.493.84-2.464.84-.971 0-1.792-.28-2.464-.84-.672-.56-1.008-1.283-1.008-2.17 0-1.008.42-1.764 1.26-2.268-.541-.383-.812-.957-.812-1.722 0-.747.289-1.372.868-1.876.588-.504 1.307-.756 2.156-.756.84 0 1.554.252 2.142.756.588.504.882 1.129.882 1.876 0 .747-.275 1.321-.826 1.722zm-1.008-2.646c-.327-.243-.723-.364-1.19-.364-.467 0-.863.121-1.19.364-.327.243-.49.532-.49.868 0 .336.163.625.49.868.327.243.723.364 1.19.364.467 0 .863-.121 1.19-.364.327-.243.49-.532.49-.868 0-.336-.163-.625-.49-.868zm-2.702 6.118c.42.308.924.462 1.512.462s1.087-.154 1.498-.462c.42-.317.63-.705.63-1.162 0-.457-.21-.84-.63-1.148-.411-.317-.91-.476-1.498-.476s-1.092.159-1.512.476c-.411.308-.616.691-.616 1.148 0 .457.205.845.616 1.162zm10.366-5.138c.97 0 1.773.336 2.408 1.008.634.672.952 1.493.952 2.464 0 .971-.318 1.792-.952 2.464-.635.672-1.438 1.008-2.408 1.008-.934 0-1.68-.364-2.24-1.092v4.564h-1.344V115.28h1.344v.98c.56-.728 1.306-1.092 2.24-1.092zm-1.624 4.984c.42.411.924.616 1.512.616s1.087-.205 1.498-.616c.42-.42.63-.924.63-1.512s-.21-1.087-.63-1.498c-.411-.42-.91-.63-1.498-.63s-1.092.21-1.512.63c-.411.411-.616.91-.616 1.498s.205 1.092.616 1.512zm13.924-4.984c.746 0 1.33.266 1.75.798.42.532.63 1.293.63 2.282V122h-1.344v-3.752c0-1.157-.43-1.736-1.288-1.736-.43 0-.808.163-1.134.49-.327.327-.49.761-.49 1.302V122h-1.344v-3.752c0-1.157-.43-1.736-1.288-1.736-.43 0-.808.163-1.134.49-.327.327-.49.761-.49 1.302V122h-1.344v-6.72h1.344v.784a4.62 4.62 0 01.434-.434c.121-.112.308-.215.56-.308.261-.103.555-.154.882-.154.877 0 1.521.355 1.932 1.064.354-.383.709-.653 1.064-.812.364-.168.784-.252 1.26-.252z" fill="#4C4C4C"/>
    <circle cx="493" cy="177" r="5" fill="#467E1B"/>
    <path d="M528.524 175.03c.345.121.649.383.91.784.271.401.406.826.406 1.274 0 .373-.065.737-.196 1.092a3.125 3.125 0 01-.588.994c-.261.317-.635.574-1.12.77-.485.187-1.045.28-1.68.28-1.073 0-1.923-.28-2.548-.84-.616-.56-.961-1.325-1.036-2.296l1.792-.224c.075.495.252.882.532 1.162.289.271.737.406 1.344.406a2.2 2.2 0 001.162-.322c.364-.215.546-.518.546-.91 0-.859-.821-1.288-2.464-1.288v-1.456c.177-.009.359-.023.546-.042a7.19 7.19 0 00.714-.154 1.5 1.5 0 00.7-.378.87.87 0 00.28-.658c0-.308-.135-.56-.406-.756-.271-.205-.63-.308-1.078-.308-.999 0-1.549.485-1.652 1.456l-1.792-.224c.075-.896.42-1.624 1.036-2.184.625-.56 1.4-.84 2.324-.84 1.083 0 1.913.28 2.492.84.579.56.868 1.176.868 1.848 0 .868-.364 1.526-1.092 1.974zm9.522 5.194c-.812 0-1.452-.266-1.918-.798-.458-.532-.686-1.311-.686-2.338v-4.032h1.792v3.808c0 .541.107.938.322 1.19.224.252.564.378 1.022.378.448 0 .821-.149 1.12-.448.298-.299.448-.747.448-1.344v-3.584h1.792V180h-1.792v-.672c-.504.597-1.204.896-2.1.896zm9.469-7.392c.812 0 1.446.266 1.904.798.466.532.7 1.311.7 2.338V180h-1.792v-3.808c0-.541-.108-.938-.322-1.19-.215-.252-.556-.378-1.022-.378-.448 0-.822.149-1.12.448-.299.299-.448.747-.448 1.344V180h-1.792v-6.944h1.792v.672c.504-.597 1.204-.896 2.1-.896zm5.829-1.022c-.234.233-.523.35-.868.35-.346 0-.64-.117-.882-.35a1.224 1.224 0 01-.35-.882c0-.345.116-.635.35-.868.242-.243.536-.364.882-.364.345 0 .634.121.868.364.242.233.364.523.364.868s-.122.639-.364.882zM551.58 180v-6.944h1.792V180h-1.792zm4.03-1.974v-3.402h-.896v-1.568h.896v-2.464h1.792v2.464h1.344v1.568h-1.344v2.912c0 .495.112.803.336.924.233.121.569.112 1.008-.028V180c-.374.149-.812.224-1.316.224-.616 0-1.074-.196-1.372-.588-.299-.401-.448-.938-.448-1.61zm7.744-2.45c1.073.168 1.806.443 2.198.826.392.383.588.835.588 1.358 0 .728-.275 1.321-.826 1.778-.541.457-1.283.686-2.226.686-.728 0-1.386-.112-1.974-.336-.579-.224-.994-.448-1.246-.672l.588-1.68c.299.28.677.513 1.134.7.467.177.91.271 1.33.28.952.019 1.428-.182 1.428-.602 0-.149-.089-.261-.266-.336-.168-.075-.49-.154-.966-.238a9.294 9.294 0 01-1.568-.378c-.411-.159-.719-.341-.924-.546a1.79 1.79 0 01-.42-.658 2.523 2.523 0 01-.112-.798c0-.579.285-1.078.854-1.498.569-.42 1.297-.63 2.184-.63a5.82 5.82 0 012.702.672l-.504 1.624c-.196-.14-.504-.271-.924-.392a4.963 4.963 0 00-1.274-.196c-.831-.019-1.246.121-1.246.42 0 .233.28.401.84.504.084.019.219.042.406.07l.224.042zm12.306-2.408c.971 0 1.774.336 2.408 1.008.635.672.952 1.493.952 2.464 0 .971-.317 1.792-.952 2.464-.634.672-1.437 1.008-2.408 1.008-.933 0-1.68-.364-2.24-1.092v4.564h-1.344V173.28h1.344v.98c.56-.728 1.307-1.092 2.24-1.092zm-1.624 4.984c.42.411.924.616 1.512.616s1.088-.205 1.498-.616c.42-.42.63-.924.63-1.512s-.21-1.087-.63-1.498c-.41-.42-.91-.63-1.498-.63s-1.092.21-1.512.63c-.41.411-.616.91-.616 1.498s.206 1.092.616 1.512zm7.835-6.286a.972.972 0 01-.714.294.972.972 0 01-.714-.294.972.972 0 01-.294-.714c0-.28.098-.518.294-.714a.972.972 0 01.714-.294c.28 0 .518.098.714.294a.972.972 0 01.294.714c0 .28-.098.518-.294.714zM580.485 180v-6.72h1.344V180h-1.344zm3.662-.882c-.644-.663-.966-1.489-.966-2.478 0-.989.327-1.815.98-2.478.653-.663 1.521-.994 2.604-.994.924 0 1.671.257 2.24.77l-.574 1.246a2.306 2.306 0 00-1.652-.672c-.616 0-1.148.21-1.596.63-.439.411-.658.905-.658 1.484 0 .588.219 1.092.658 1.512.439.42.971.63 1.596.63.644 0 1.195-.229 1.652-.686l.574 1.26c-.541.513-1.288.77-2.24.77-1.092 0-1.965-.331-2.618-.994zm8.891-2.59l3.584 3.472h-1.792l-2.912-2.856V180h-1.344v-9.856h1.344v5.88l2.688-2.744h1.792l-3.36 3.248zm10.407.14c0 .205-.014.401-.042.588h-5.082c.102.504.35.882.742 1.134.401.252.882.378 1.442.378.728 0 1.409-.224 2.044-.672l.448 1.204c-.644.541-1.484.812-2.52.812-1.13 0-2.002-.327-2.618-.98-.607-.663-.91-1.493-.91-2.492 0-.989.303-1.815.91-2.478.616-.663 1.428-.994 2.436-.994.914 0 1.666.317 2.254.952.597.635.896 1.484.896 2.548zm-5.124-.644h3.752c-.019-.383-.182-.728-.49-1.036-.308-.317-.756-.476-1.344-.476-.57 0-1.027.159-1.372.476-.346.317-.528.663-.546 1.036zm11.843-5.88h1.344V180h-1.344v-.98c-.56.728-1.307 1.092-2.24 1.092-.971 0-1.773-.336-2.408-1.008-.635-.672-.952-1.493-.952-2.464 0-.971.317-1.792.952-2.464.635-.672 1.437-1.008 2.408-1.008.933 0 1.68.364 2.24 1.092v-4.116zm-3.64 8.008c.42.411.924.616 1.512.616s1.087-.205 1.498-.616c.42-.42.63-.924.63-1.512s-.21-1.087-.63-1.498c-.411-.42-.91-.63-1.498-.63s-1.092.21-1.512.63c-.411.411-.616.91-.616 1.498s.205 1.092.616 1.512zm12.876-6.286a.972.972 0 01-.714.294.972.972 0 01-.714-.294.972.972 0 01-.294-.714c0-.28.098-.518.294-.714a.972.972 0 01.714-.294c.28 0 .518.098.714.294a.972.972 0 01.294.714c0 .28-.098.518-.294.714zM618.014 180v-6.72h1.344V180h-1.344zm6.698-6.832c.812 0 1.446.252 1.904.756.466.504.7 1.241.7 2.212V180h-1.344v-3.752c0-.569-.117-.999-.35-1.288-.224-.299-.612-.448-1.162-.448-.448 0-.868.168-1.26.504-.392.327-.588.756-.588 1.288V180h-1.344v-6.72h1.344v.784c.522-.597 1.222-.896 2.1-.896zm4.728 4.634v-3.178h-.896v-1.344h.896v-2.688h1.344v2.688h1.344v1.344h-1.344v2.8c0 .644.089 1.031.266 1.162.271.205.63.196 1.078-.028v1.358c-.27.131-.602.196-.994.196-1.129 0-1.694-.77-1.694-2.31zm4.925-3.612a3.36 3.36 0 012.464-1.022c.961 0 1.778.341 2.45 1.022a3.314 3.314 0 011.022 2.45 3.36 3.36 0 01-1.022 2.464c-.672.672-1.489 1.008-2.45 1.008a3.382 3.382 0 01-2.464-1.008 3.382 3.382 0 01-1.008-2.464c0-.961.336-1.778 1.008-2.45zm.966 3.948c.42.42.919.63 1.498.63s1.078-.21 1.498-.63c.42-.42.63-.919.63-1.498s-.21-1.078-.63-1.498c-.42-.42-.919-.63-1.498-.63s-1.078.21-1.498.63c-.42.42-.63.919-.63 1.498s.21 1.078.63 1.498zm14.035-7.546c1.558 0 2.772.443 3.64 1.33.868.887 1.302 2.011 1.302 3.374 0 1.353-.444 2.478-1.33 3.374-.878.887-2.082 1.33-3.612 1.33h-3.122v-9.408h3.122zm.322 7.616c.83 0 1.507-.28 2.03-.84.532-.56.798-1.251.798-2.072 0-.821-.266-1.512-.798-2.072-.523-.56-1.2-.84-2.03-.84h-1.652v5.824h1.652zm15.37-7.616l1.344 9.408h-1.904l-.784-6.16-2.464 6.16h-.896l-2.464-6.16-.784 6.16h-1.904l1.344-9.408h1.792l2.464 6.048 2.464-6.048h1.792zm2.692.672l3.584-.896V180h-1.792v-7.448l-1.792.392v-1.68zm5.381-.672h7.168L676.267 180h-2.016l3.36-7.616h-4.48v-1.792zm7.834 0h7.168L684.101 180h-2.016l3.36-7.616h-4.48v-1.792zm7.834 0h7.168L691.935 180h-2.016l3.36-7.616h-4.48v-1.792zm13.998-.448v4.116c.56-.728 1.307-1.092 2.24-1.092.971 0 1.774.336 2.408 1.008.635.672.952 1.493.952 2.464 0 .971-.317 1.792-.952 2.464-.634.672-1.437 1.008-2.408 1.008-.933 0-1.68-.364-2.24-1.092v.98h-1.344v-9.856h1.344zm.616 8.008c.42.411.924.616 1.512.616s1.088-.205 1.498-.616c.42-.42.63-.924.63-1.512s-.21-1.087-.63-1.498c-.41-.42-.91-.63-1.498-.63s-1.092.21-1.512.63c-.41.411-.616.91-.616 1.498s.206 1.092.616 1.512zm10.999-4.872h1.498l-4.55 10.304h-1.47l1.792-4.018-2.716-6.286h1.498l1.974 4.648 1.974-4.648zm7.798-1.484c.691-.952 1.577-1.428 2.66-1.428 1.083 0 1.969.476 2.66 1.428.691.952 1.036 2.119 1.036 3.5 0 1.381-.345 2.548-1.036 3.5-.691.952-1.577 1.428-2.66 1.428-1.092 0-1.983-.471-2.674-1.414-.681-.952-1.022-2.123-1.022-3.514 0-1.381.345-2.548 1.036-3.5zm1.316 5.726c.373.607.821.91 1.344.91.523 0 .971-.303 1.344-.91.373-.616.56-1.358.56-2.226 0-.868-.187-1.605-.56-2.212-.373-.616-.821-.924-1.344-.924-.523 0-.971.308-1.344.924-.373.607-.56 1.344-.56 2.212 0 .868.187 1.61.56 2.226zm10.402-3.794c.85 0 1.587.275 2.212.826.626.541.938 1.26.938 2.156 0 1.092-.336 1.951-1.008 2.576-.662.625-1.521.938-2.576.938-1.101 0-1.96-.275-2.576-.826-.616-.56-.952-1.293-1.008-2.198l1.792-.14c.047.401.22.733.518.994.299.252.724.378 1.274.378.514 0 .938-.145 1.274-.434.346-.289.518-.667.518-1.134 0-.401-.149-.742-.448-1.022-.289-.289-.7-.434-1.232-.434-.821 0-1.456.261-1.904.784h-1.568l.896-5.6h5.152v1.792h-3.696l-.252 1.792c.402-.299.966-.448 1.694-.448zm7.86 3.416c-.999 0-1.811-.313-2.436-.938a3.097 3.097 0 01-.924-2.254c0-1.055.345-1.913 1.036-2.576.7-.672 1.587-1.008 2.66-1.008 1.092 0 1.979.336 2.66 1.008.691.672 1.036 1.563 1.036 2.674 0 .14-.009.285-.028.434a9.216 9.216 0 01-.098.756 3.999 3.999 0 01-.308 1.078c-.149.355-.341.747-.574 1.176-.224.42-.546.849-.966 1.288a9.022 9.022 0 01-1.414 1.218h-2.884c.065-.028.154-.07.266-.126.112-.056.327-.177.644-.364.327-.196.635-.406.924-.63.289-.224.602-.518.938-.882.345-.364.635-.742.868-1.134-.327.187-.793.28-1.4.28zm1.694-4.508c-.355-.317-.807-.476-1.358-.476s-1.008.159-1.372.476a1.46 1.46 0 00-.532 1.148c0 .457.173.845.518 1.162.355.308.817.462 1.386.462.551 0 1.003-.154 1.358-.462.364-.317.546-.705.546-1.162 0-.457-.182-.84-.546-1.148zm13.02 1.876c.047.299.07.56.07.784 0 1.372-.448 2.539-1.344 3.5-.896.952-2.016 1.428-3.36 1.428-1.362 0-2.524-.481-3.486-1.442-.961-.961-1.442-2.123-1.442-3.486s.481-2.525 1.442-3.486c.962-.961 2.124-1.442 3.486-1.442.943 0 1.783.243 2.52.728a5.044 5.044 0 011.736 1.96l-1.806.504a2.821 2.821 0 00-1.022-1.022 2.721 2.721 0 00-1.428-.378c-.868 0-1.61.308-2.226.924a3.014 3.014 0 00-.91 2.212c0 .868.304 1.61.91 2.226.616.607 1.358.91 2.226.91.672 0 1.256-.196 1.75-.588a2.98 2.98 0 001.022-1.54h-3.444v-1.792h5.306zm8.472 5.488h-2.184l-2.114-3.136h-1.078V180h-1.792v-9.408h3.36c1.185 0 2.077.285 2.674.854.607.569.91 1.33.91 2.282 0 .681-.191 1.302-.574 1.862-.383.551-.91.929-1.582 1.134l2.38 3.276zm-5.376-7.616v2.688h1.792c.439 0 .807-.126 1.106-.378.308-.252.462-.574.462-.966 0-.429-.149-.761-.448-.994-.289-.233-.663-.35-1.12-.35h-1.792zm10.867 6.048c.933 0 1.712-.322 2.338-.966l.686 1.624a4.337 4.337 0 01-1.414.84 4.863 4.863 0 01-1.638.294c-1.382 0-2.562-.481-3.542-1.442-.98-.971-1.47-2.133-1.47-3.486 0-1.353.49-2.511 1.47-3.472.98-.971 2.16-1.456 3.542-1.456.541 0 1.087.098 1.638.294.55.196 1.022.471 1.414.826l-.686 1.624a3.24 3.24 0 00-2.338-.952c-.896 0-1.662.308-2.296.924-.635.607-.952 1.344-.952 2.212 0 .868.317 1.61.952 2.226.634.607 1.4.91 2.296.91zm4.363-7.168l3.584-.896V180h-1.792v-7.448l-1.792.392v-1.68zm6.417.532c.691-.952 1.577-1.428 2.66-1.428 1.083 0 1.969.476 2.66 1.428.691.952 1.036 2.119 1.036 3.5 0 1.381-.345 2.548-1.036 3.5-.691.952-1.577 1.428-2.66 1.428-1.092 0-1.983-.471-2.674-1.414-.681-.952-1.022-2.123-1.022-3.514 0-1.381.345-2.548 1.036-3.5zm1.316 5.726c.373.607.821.91 1.344.91.523 0 .971-.303 1.344-.91.373-.616.56-1.358.56-2.226 0-.868-.187-1.605-.56-2.212-.373-.616-.821-.924-1.344-.924-.523 0-.971.308-1.344.924-.373.607-.56 1.344-.56 2.212 0 .868.187 1.61.56 2.226zm7.42-5.726c.691-.952 1.578-1.428 2.66-1.428 1.083 0 1.97.476 2.66 1.428.691.952 1.036 2.119 1.036 3.5 0 1.381-.345 2.548-1.036 3.5-.69.952-1.577 1.428-2.66 1.428-1.092 0-1.983-.471-2.674-1.414-.681-.952-1.022-2.123-1.022-3.514 0-1.381.346-2.548 1.036-3.5zm1.316 5.726c.374.607.822.91 1.344.91.523 0 .971-.303 1.344-.91.374-.616.56-1.358.56-2.226 0-.868-.186-1.605-.56-2.212-.373-.616-.821-.924-1.344-.924-.522 0-.97.308-1.344.924-.373.607-.56 1.344-.56 2.212 0 .868.187 1.61.56 2.226zm12.881-1.106h1.12v1.792h-1.12V180h-1.792v-1.792h-4.704v-1.568l4.256-6.048h2.24v5.824zm-1.792 0v-3.696l-2.506 3.696h2.506zM408.75 171.88c.653-.933 1.489-1.4 2.506-1.4 1.017 0 1.848.467 2.492 1.4.653.924.98 2.063.98 3.416 0 1.353-.327 2.497-.98 3.43-.644.924-1.475 1.386-2.492 1.386-1.027 0-1.862-.462-2.506-1.386-.644-.933-.966-2.077-.966-3.43 0-1.353.322-2.492.966-3.416zm.994 5.88c.42.672.924 1.008 1.512 1.008s1.087-.336 1.498-1.008c.42-.681.63-1.503.63-2.464 0-.961-.21-1.778-.63-2.45-.411-.681-.91-1.022-1.498-1.022s-1.092.341-1.512 1.022c-.411.672-.616 1.489-.616 2.45 0 .961.205 1.783.616 2.464zm10.212-4.032c.821 0 1.535.28 2.142.84.616.551.924 1.302.924 2.254s-.332 1.741-.994 2.366a3.358 3.358 0 01-2.366.924c-.915 0-1.69-.28-2.324-.84-.635-.569-.98-1.26-1.036-2.072l1.4-.14c.046.457.252.859.616 1.204.364.336.812.504 1.344.504.55 0 1.022-.182 1.414-.546.401-.373.602-.826.602-1.358 0-.523-.168-.952-.504-1.288-.336-.336-.77-.504-1.302-.504-.383 0-.761.098-1.134.294a2.135 2.135 0 00-.854.826h-1.372l.84-5.6h4.774v1.344H418.5l-.364 2.408c.494-.411 1.101-.616 1.82-.616zm5.639 1.456a.972.972 0 01-.714-.294.972.972 0 01-.294-.714c0-.289.098-.527.294-.714a.972.972 0 01.714-.294c.289 0 .527.098.714.294a.944.944 0 01.294.714c0 .28-.098.518-.294.714a.944.944 0 01-.714.294zm0 4.928a.972.972 0 01-.714-.294.972.972 0 01-.294-.714c0-.28.098-.518.294-.714a.972.972 0 01.714-.294c.289 0 .527.098.714.294a.972.972 0 01.294.714c0 .28-.098.518-.294.714a.944.944 0 01-.714.294zm7.95-5.082c.364.121.676.378.938.77.27.392.406.821.406 1.288 0 .803-.28 1.507-.84 2.114-.551.607-1.391.91-2.52.91-.999 0-1.792-.275-2.38-.826-.588-.551-.915-1.283-.98-2.198l1.344-.224c.158 1.269.858 1.904 2.1 1.904.597 0 1.068-.149 1.414-.448.345-.299.518-.672.518-1.12 0-.532-.21-.887-.63-1.064-.411-.187-1.022-.28-1.834-.28v-1.344c.242 0 .476-.019.7-.056a6.46 6.46 0 00.714-.196 1.35 1.35 0 00.602-.42c.149-.187.224-.411.224-.672 0-.345-.15-.653-.448-.924-.299-.28-.719-.42-1.26-.42-.654 0-1.12.163-1.4.49-.271.327-.434.761-.49 1.302l-1.344-.224c.074-.849.401-1.545.98-2.086.588-.551 1.311-.826 2.17-.826.998 0 1.768.275 2.31.826.55.551.826 1.134.826 1.75 0 .877-.374 1.535-1.12 1.974zm8.579-.196c.849.485 1.274 1.241 1.274 2.268 0 .887-.336 1.61-1.008 2.17-.672.56-1.493.84-2.464.84-.971 0-1.792-.28-2.464-.84-.672-.56-1.008-1.283-1.008-2.17 0-1.008.42-1.764 1.26-2.268-.541-.383-.812-.957-.812-1.722 0-.747.289-1.372.868-1.876.588-.504 1.307-.756 2.156-.756.84 0 1.554.252 2.142.756.588.504.882 1.129.882 1.876 0 .747-.275 1.321-.826 1.722zm-1.008-2.646c-.327-.243-.723-.364-1.19-.364-.467 0-.863.121-1.19.364-.327.243-.49.532-.49.868 0 .336.163.625.49.868.327.243.723.364 1.19.364.467 0 .863-.121 1.19-.364.327-.243.49-.532.49-.868 0-.336-.163-.625-.49-.868zm-2.702 6.118c.42.308.924.462 1.512.462s1.087-.154 1.498-.462c.42-.317.63-.705.63-1.162 0-.457-.21-.84-.63-1.148-.411-.317-.91-.476-1.498-.476s-1.092.159-1.512.476c-.411.308-.616.691-.616 1.148 0 .457.205.845.616 1.162zm10.366-5.138c.97 0 1.773.336 2.408 1.008.634.672.952 1.493.952 2.464 0 .971-.318 1.792-.952 2.464-.635.672-1.438 1.008-2.408 1.008-.934 0-1.68-.364-2.24-1.092v4.564h-1.344V173.28h1.344v.98c.56-.728 1.306-1.092 2.24-1.092zm-1.624 4.984c.42.411.924.616 1.512.616s1.087-.205 1.498-.616c.42-.42.63-.924.63-1.512s-.21-1.087-.63-1.498c-.411-.42-.91-.63-1.498-.63s-1.092.21-1.512.63c-.411.411-.616.91-.616 1.498s.205 1.092.616 1.512zm13.924-4.984c.746 0 1.33.266 1.75.798.42.532.63 1.293.63 2.282V180h-1.344v-3.752c0-1.157-.43-1.736-1.288-1.736-.43 0-.808.163-1.134.49-.327.327-.49.761-.49 1.302V180h-1.344v-3.752c0-1.157-.43-1.736-1.288-1.736-.43 0-.808.163-1.134.49-.327.327-.49.761-.49 1.302V180h-1.344v-6.72h1.344v.784a4.62 4.62 0 01.434-.434c.121-.112.308-.215.56-.308.261-.103.555-.154.882-.154.877 0 1.521.355 1.932 1.064.354-.383.709-.653 1.064-.812.364-.168.784-.252 1.26-.252z" fill="#4C4C4C"/>
    <circle cx="493" cy="235" r="5" fill="#4C4C4C"/>
    <circle cx="493" cy="235" r="12" fill="#D57F07"/>
    <g clip-path="url(#loblaw-ph_transaction_icons__clip1)" fill="#fff">
      <path d="M500.023 228.578a.575.575 0 00-.422-.178.577.577 0 00-.422.178l-1.218 1.209a7.278 7.278 0 00-2.297-1.467 7.074 7.074 0 00-2.663-.52c-1.719 0-3.219.52-4.5 1.561-1.281 1.04-2.125 2.398-2.531 4.073v.066c0 .081.029.151.089.211a.288.288 0 00.211.089h1.865c.138 0 .232-.072.282-.216.262-.625.428-.99.496-1.097a4.733 4.733 0 011.744-1.678 4.722 4.722 0 012.344-.609c1.256 0 2.347.428 3.272 1.284l-1.294 1.294a.58.58 0 00-.178.422c0 .162.06.303.178.422a.58.58 0 00.422.178h4.2a.58.58 0 00.422-.178.577.577 0 00.178-.422V229a.575.575 0 00-.178-.422zm-.356 7.622h-1.8c-.138 0-.232.072-.282.216-.262.625-.428.99-.496 1.097a4.733 4.733 0 01-1.744 1.678 4.719 4.719 0 01-2.344.609 4.676 4.676 0 01-1.753-.337 4.825 4.825 0 01-1.509-.957l1.284-1.284a.577.577 0 00.178-.422.577.577 0 00-.178-.422.575.575 0 00-.422-.178h-4.2a.575.575 0 00-.422.178.577.577 0 00-.178.422v4.2c0 .163.059.303.178.422s.26.178.422.178a.575.575 0 00.422-.178l1.209-1.209a7.155 7.155 0 002.283 1.471 7.02 7.02 0 002.649.516c1.712 0 3.206-.52 4.481-1.561 1.275-1.04 2.112-2.398 2.513-4.073a.291.291 0 00-.08-.277.291.291 0 00-.211-.089z"/>
    </g>
    <path d="M522.896 231.728c.056-.961.383-1.759.98-2.394.597-.644 1.391-.966 2.38-.966.98 0 1.783.28 2.408.84.635.56.952 1.325.952 2.296 0 .709-.224 1.4-.672 2.072-.448.663-1.195 1.54-2.24 2.632h3.36V238h-7.392l3.808-4.032c.896-.98 1.344-1.764 1.344-2.352 0-.457-.14-.812-.42-1.064-.271-.261-.653-.392-1.148-.392-.476 0-.849.168-1.12.504-.261.327-.411.756-.448 1.288l-1.792-.224zm15.368 6.496c-.812 0-1.451-.266-1.918-.798-.457-.532-.686-1.311-.686-2.338v-4.032h1.792v3.808c0 .541.108.938.322 1.19.224.252.565.378 1.022.378.448 0 .822-.149 1.12-.448.299-.299.448-.747.448-1.344v-3.584h1.792V238h-1.792v-.672c-.504.597-1.204.896-2.1.896zm9.469-7.392c.812 0 1.447.266 1.904.798.467.532.7 1.311.7 2.338V238h-1.792v-3.808c0-.541-.107-.938-.322-1.19-.214-.252-.555-.378-1.022-.378-.448 0-.821.149-1.12.448-.298.299-.448.747-.448 1.344V238h-1.792v-6.944h1.792v.672c.504-.597 1.204-.896 2.1-.896zm5.829-1.022c-.233.233-.522.35-.868.35-.345 0-.639-.117-.882-.35a1.228 1.228 0 01-.35-.882c0-.345.117-.635.35-.868.243-.243.537-.364.882-.364.346 0 .635.121.868.364.243.233.364.523.364.868s-.121.639-.364.882zm-1.764 8.19v-6.944h1.792V238h-1.792zm4.03-1.974v-3.402h-.896v-1.568h.896v-2.464h1.792v2.464h1.344v1.568h-1.344v2.912c0 .495.112.803.336.924.234.121.57.112 1.008-.028V238c-.373.149-.812.224-1.316.224-.616 0-1.073-.196-1.372-.588-.298-.401-.448-.938-.448-1.61zm7.745-2.45c1.073.168 1.806.443 2.198.826.392.383.588.835.588 1.358 0 .728-.276 1.321-.826 1.778-.542.457-1.284.686-2.226.686-.728 0-1.386-.112-1.974-.336-.579-.224-.994-.448-1.246-.672l.588-1.68c.298.28.676.513 1.134.7.466.177.91.271 1.33.28.952.019 1.428-.182 1.428-.602 0-.149-.089-.261-.266-.336-.168-.075-.49-.154-.966-.238a9.27 9.27 0 01-1.568-.378c-.411-.159-.719-.341-.924-.546a1.765 1.765 0 01-.42-.658 2.523 2.523 0 01-.112-.798c0-.579.284-1.078.854-1.498.569-.42 1.297-.63 2.184-.63a5.82 5.82 0 012.702.672l-.504 1.624c-.196-.14-.504-.271-.924-.392a4.963 4.963 0 00-1.274-.196c-.831-.019-1.246.121-1.246.42 0 .233.28.401.84.504.084.019.219.042.406.07l.224.042zm11.424.28c1.633.317 2.45.999 2.45 2.044 0 .681-.233 1.223-.7 1.624-.467.392-1.129.588-1.988.588a4.814 4.814 0 01-1.792-.322c-.532-.215-.905-.425-1.12-.63l.532-1.316c.261.261.616.481 1.064.658a3.98 3.98 0 001.274.266c.42.009.756-.056 1.008-.196s.378-.313.378-.518a.578.578 0 00-.322-.532c-.215-.131-.546-.238-.994-.322-1.045-.187-1.759-.443-2.142-.77s-.574-.775-.574-1.344c0-.569.247-1.031.742-1.386.504-.355 1.167-.532 1.988-.532.831 0 1.643.215 2.436.644l-.462 1.26c-.177-.131-.457-.252-.84-.364a3.96 3.96 0 00-1.134-.196c-.383-.009-.709.033-.98.126s-.406.247-.406.462c0 .112.033.21.098.294.075.075.182.14.322.196.149.047.289.089.42.126.131.028.303.061.518.098l.224.042zm6.295 4.256c-.812 0-1.451-.252-1.918-.756-.457-.504-.686-1.241-.686-2.212v-3.864h1.344v3.752c0 .569.112 1.003.336 1.302.234.289.626.434 1.176.434.448 0 .868-.163 1.26-.49.392-.336.588-.77.588-1.302v-3.696h1.344V238h-1.344v-.784c-.522.597-1.222.896-2.1.896zm6.689-9.968v4.116c.56-.728 1.307-1.092 2.24-1.092.971 0 1.773.336 2.408 1.008.635.672.952 1.493.952 2.464 0 .971-.317 1.792-.952 2.464-.635.672-1.437 1.008-2.408 1.008-.933 0-1.68-.364-2.24-1.092v.98h-1.344v-9.856h1.344zm.616 8.008c.42.411.924.616 1.512.616s1.087-.205 1.498-.616c.42-.42.63-.924.63-1.512s-.21-1.087-.63-1.498c-.411-.42-.91-.63-1.498-.63s-1.092.21-1.512.63c-.411.411-.616.91-.616 1.498s.205 1.092.616 1.512zm9.259-2.296c1.634.317 2.45.999 2.45 2.044 0 .681-.233 1.223-.7 1.624-.466.392-1.129.588-1.988.588-.653 0-1.25-.107-1.792-.322-.532-.215-.905-.425-1.12-.63l.532-1.316c.262.261.616.481 1.064.658.458.168.882.257 1.274.266.42.009.756-.056 1.008-.196s.378-.313.378-.518a.578.578 0 00-.322-.532c-.214-.131-.546-.238-.994-.322-1.045-.187-1.759-.443-2.142-.77-.382-.327-.574-.775-.574-1.344 0-.569.248-1.031.742-1.386.504-.355 1.167-.532 1.988-.532.831 0 1.643.215 2.436.644l-.462 1.26c-.177-.131-.457-.252-.84-.364a3.96 3.96 0 00-1.134-.196 2.828 2.828 0 00-.98.126c-.27.093-.406.247-.406.462 0 .112.033.21.098.294.075.075.182.14.322.196.15.047.29.089.42.126.131.028.304.061.518.098l.224.042zm4.473 1.946v-3.178h-.896v-1.344h.896v-2.688h1.344v2.688h1.344v1.344h-1.344v2.8c0 .644.089 1.031.266 1.162.271.205.63.196 1.078-.028v1.358c-.271.131-.602.196-.994.196-1.129 0-1.694-.77-1.694-2.31zm5.86-5.936a.972.972 0 01-.714.294.972.972 0 01-.714-.294.972.972 0 01-.294-.714c0-.28.098-.518.294-.714a.972.972 0 01.714-.294c.28 0 .518.098.714.294a.972.972 0 01.294.714c0 .28-.098.518-.294.714zM606.803 238v-6.72h1.344V238h-1.344zm3.811-2.198v-3.178h-.896v-1.344h.896v-2.688h1.344v2.688h1.344v1.344h-1.344v2.8c0 .644.089 1.031.266 1.162.271.205.63.196 1.078-.028v1.358c-.27.131-.602.196-.994.196-1.129 0-1.694-.77-1.694-2.31zm6.854 2.31c-.812 0-1.451-.252-1.918-.756-.457-.504-.686-1.241-.686-2.212v-3.864h1.344v3.752c0 .569.112 1.003.336 1.302.233.289.625.434 1.176.434.448 0 .868-.163 1.26-.49.392-.336.588-.77.588-1.302v-3.696h1.344V238h-1.344v-.784c-.523.597-1.223.896-2.1.896zm5.902-2.31v-3.178h-.896v-1.344h.896v-2.688h1.344v2.688h1.344v1.344h-1.344v2.8c0 .644.089 1.031.266 1.162.271.205.63.196 1.078-.028v1.358c-.271.131-.602.196-.994.196-1.129 0-1.694-.77-1.694-2.31zm10.413-1.134c0 .205-.014.401-.042.588h-5.082c.102.504.35.882.742 1.134.401.252.882.378 1.442.378.728 0 1.409-.224 2.044-.672l.448 1.204c-.644.541-1.484.812-2.52.812-1.13 0-2.002-.327-2.618-.98-.607-.663-.91-1.493-.91-2.492 0-.989.303-1.815.91-2.478.616-.663 1.428-.994 2.436-.994.914 0 1.666.317 2.254.952.597.635.896 1.484.896 2.548zm-5.124-.644h3.752c-.019-.383-.182-.728-.49-1.036-.308-.317-.756-.476-1.344-.476-.57 0-1.027.159-1.372.476-.346.317-.528.663-.546 1.036zm11.843-5.88h1.344V238h-1.344v-.98c-.56.728-1.307 1.092-2.24 1.092-.971 0-1.774-.336-2.408-1.008-.635-.672-.952-1.493-.952-2.464 0-.971.317-1.792.952-2.464.634-.672 1.437-1.008 2.408-1.008.933 0 1.68.364 2.24 1.092v-4.116zm-3.64 8.008c.42.411.924.616 1.512.616s1.087-.205 1.498-.616c.42-.42.63-.924.63-1.512s-.21-1.087-.63-1.498c-.411-.42-.91-.63-1.498-.63s-1.092.21-1.512.63c-.411.411-.616.91-.616 1.498s.205 1.092.616 1.512zm11.042-4.872h.896v-.812c0-.793.186-1.395.56-1.806.373-.42.868-.63 1.484-.63.336 0 .625.075.868.224v1.316a1.18 1.18 0 00-.672-.196c-.598 0-.896.378-.896 1.134v.77h1.568v1.344h-1.568V238H648.8v-5.376h-.896v-1.344zm5.711.91a3.36 3.36 0 012.464-1.022c.961 0 1.778.341 2.45 1.022a3.314 3.314 0 011.022 2.45 3.36 3.36 0 01-1.022 2.464c-.672.672-1.489 1.008-2.45 1.008a3.382 3.382 0 01-2.464-1.008 3.382 3.382 0 01-1.008-2.464c0-.961.336-1.778 1.008-2.45zm.966 3.948c.42.42.919.63 1.498.63s1.078-.21 1.498-.63c.42-.42.63-.919.63-1.498s-.21-1.078-.63-1.498c-.42-.42-.919-.63-1.498-.63s-1.078.21-1.498.63c-.42.42-.63.919-.63 1.498s.21 1.078.63 1.498zm7.666-3.416a2.57 2.57 0 011.05-1.134c.466-.28 1.012-.42 1.638-.42v1.47c-.392-.121-.803-.103-1.232.056-.971.373-1.456 1.143-1.456 2.31V238h-1.344v-6.72h1.344v1.442zm8.633-.994c.056-.961.383-1.759.98-2.394.598-.644 1.391-.966 2.38-.966.98 0 1.783.28 2.408.84.635.56.952 1.325.952 2.296 0 .709-.224 1.4-.672 2.072-.448.663-1.194 1.54-2.24 2.632h3.36V238h-7.392l3.808-4.032c.896-.98 1.344-1.764 1.344-2.352 0-.457-.14-.812-.42-1.064-.27-.261-.653-.392-1.148-.392-.476 0-.849.168-1.12.504-.261.327-.41.756-.448 1.288l-1.792-.224zm9.549-1.932c.69-.952 1.577-1.428 2.66-1.428 1.082 0 1.969.476 2.66 1.428.69.952 1.036 2.119 1.036 3.5 0 1.381-.346 2.548-1.036 3.5-.691.952-1.578 1.428-2.66 1.428-1.092 0-1.984-.471-2.674-1.414-.682-.952-1.022-2.123-1.022-3.514 0-1.381.345-2.548 1.036-3.5zm1.316 5.726c.373.607.821.91 1.344.91.522 0 .97-.303 1.344-.91.373-.616.56-1.358.56-2.226 0-.868-.187-1.605-.56-2.212-.374-.616-.822-.924-1.344-.924-.523 0-.971.308-1.344.924-.374.607-.56 1.344-.56 2.212 0 .868.186 1.61.56 2.226zm10.402-3.794c.849 0 1.587.275 2.212.826.625.541.938 1.26.938 2.156 0 1.092-.336 1.951-1.008 2.576-.663.625-1.521.938-2.576.938-1.101 0-1.96-.275-2.576-.826-.616-.56-.952-1.293-1.008-2.198l1.792-.14c.047.401.219.733.518.994.299.252.723.378 1.274.378.513 0 .938-.145 1.274-.434.345-.289.518-.667.518-1.134 0-.401-.149-.742-.448-1.022-.289-.289-.7-.434-1.232-.434-.821 0-1.456.261-1.904.784h-1.568l.896-5.6h5.152v1.792h-3.696l-.252 1.792c.401-.299.966-.448 1.694-.448zm4.724-2.464l3.584-.896V238h-1.792v-7.448l-1.792.392v-1.68zm9.413 2.184c.999 0 1.806.313 2.422.938.625.625.938 1.377.938 2.254 0 1.055-.35 1.918-1.05 2.59-.691.663-1.573.994-2.646.994-1.092 0-1.983-.336-2.674-1.008-.681-.672-1.022-1.563-1.022-2.674 0-.14.005-.285.014-.434l.098-.756c.056-.355.159-.709.308-1.064.159-.364.35-.756.574-1.176.233-.429.555-.863.966-1.302.42-.439.896-.845 1.428-1.218h2.884l-.266.112a7.644 7.644 0 00-.658.35 7.272 7.272 0 00-.91.602 7.174 7.174 0 00-.952.882c-.336.373-.621.77-.854 1.19.327-.187.793-.28 1.4-.28zm-1.708 4.522c.364.308.821.462 1.372.462.551 0 1.003-.154 1.358-.462.364-.317.546-.705.546-1.162 0-.457-.177-.84-.532-1.148-.345-.317-.803-.476-1.372-.476-.551 0-1.008.159-1.372.476a1.46 1.46 0 00-.532 1.148c0 .457.177.845.532 1.162zm12.264-2.94c.346.121.649.383.91.784.271.401.406.826.406 1.274 0 .373-.065.737-.196 1.092a3.125 3.125 0 01-.588.994c-.261.317-.634.574-1.12.77-.485.187-1.045.28-1.68.28-1.073 0-1.922-.28-2.548-.84-.616-.56-.961-1.325-1.036-2.296l1.792-.224c.075.495.252.882.532 1.162.29.271.738.406 1.344.406.42 0 .808-.107 1.162-.322.364-.215.546-.518.546-.91 0-.859-.821-1.288-2.464-1.288v-1.456c.178-.009.36-.023.546-.042a7.19 7.19 0 00.714-.154c.29-.075.523-.201.7-.378a.87.87 0 00.28-.658c0-.308-.135-.56-.406-.756-.27-.205-.63-.308-1.078-.308-.998 0-1.549.485-1.652 1.456l-1.792-.224c.075-.896.42-1.624 1.036-2.184.626-.56 1.4-.84 2.324-.84 1.083 0 1.914.28 2.492.84.579.56.868 1.176.868 1.848 0 .868-.364 1.526-1.092 1.974zm2.666-4.438h7.168L722.642 238h-2.016l3.36-7.616h-4.48v-1.792zm11.852 3.136c.849 0 1.587.275 2.212.826.625.541.938 1.26.938 2.156 0 1.092-.336 1.951-1.008 2.576-.663.625-1.521.938-2.576.938-1.101 0-1.96-.275-2.576-.826-.616-.56-.952-1.293-1.008-2.198l1.792-.14c.047.401.219.733.518.994.299.252.723.378 1.274.378.513 0 .938-.145 1.274-.434.345-.289.518-.667.518-1.134 0-.401-.149-.742-.448-1.022-.289-.289-.7-.434-1.232-.434-.821 0-1.456.261-1.904.784h-1.568l.896-5.6h5.152v1.792h-3.696l-.252 1.792c.401-.299.966-.448 1.694-.448zm11.22 8.064h-6.944v-1.344h6.944v1.344zm7.162-9.408h-4.032v2.016h3.36v1.792h-3.36v2.016h4.032V238h-5.824v-9.408h5.824v1.792zm8.068 7.616l-.7-1.792h-3.976l-.7 1.792h-2.016l3.892-9.408h1.624l3.892 9.408h-2.016zm-3.99-3.584h2.604l-1.302-3.36-1.302 3.36zm12.841-6.272v4.116c.56-.728 1.306-1.092 2.24-1.092.97 0 1.773.336 2.408 1.008.634.672.952 1.493.952 2.464 0 .971-.318 1.792-.952 2.464-.635.672-1.438 1.008-2.408 1.008-.934 0-1.68-.364-2.24-1.092v.98h-1.344v-9.856h1.344zm.616 8.008c.42.411.924.616 1.512.616s1.087-.205 1.498-.616c.42-.42.63-.924.63-1.512s-.21-1.087-.63-1.498c-.411-.42-.91-.63-1.498-.63s-1.092.21-1.512.63c-.411.411-.616.91-.616 1.498s.205 1.092.616 1.512zm10.998-4.872h1.498l-4.55 10.304h-1.47l1.792-4.018-2.716-6.286h1.498l1.974 4.648 1.974-4.648zm7.798-1.484c.691-.952 1.578-1.428 2.66-1.428 1.083 0 1.97.476 2.66 1.428.691.952 1.036 2.119 1.036 3.5 0 1.381-.345 2.548-1.036 3.5-.69.952-1.577 1.428-2.66 1.428-1.092 0-1.983-.471-2.674-1.414-.681-.952-1.022-2.123-1.022-3.514 0-1.381.346-2.548 1.036-3.5zm1.316 5.726c.374.607.822.91 1.344.91.523 0 .971-.303 1.344-.91.374-.616.56-1.358.56-2.226 0-.868-.186-1.605-.56-2.212-.373-.616-.821-.924-1.344-.924-.522 0-.97.308-1.344.924-.373.607-.56 1.344-.56 2.212 0 .868.187 1.61.56 2.226zm10.403-3.794c.849 0 1.586.275 2.212.826.625.541.938 1.26.938 2.156 0 1.092-.336 1.951-1.008 2.576-.663.625-1.522.938-2.576.938-1.102 0-1.96-.275-2.576-.826-.616-.56-.952-1.293-1.008-2.198l1.792-.14c.046.401.219.733.518.994.298.252.723.378 1.274.378.513 0 .938-.145 1.274-.434.345-.289.518-.667.518-1.134 0-.401-.15-.742-.448-1.022-.29-.289-.7-.434-1.232-.434-.822 0-1.456.261-1.904.784h-1.568l.896-5.6h5.152v1.792h-3.696l-.252 1.792c.401-.299.966-.448 1.694-.448zm7.859 3.416c-.998 0-1.81-.313-2.436-.938a3.097 3.097 0 01-.924-2.254c0-1.055.346-1.913 1.036-2.576.7-.672 1.587-1.008 2.66-1.008 1.092 0 1.979.336 2.66 1.008.691.672 1.036 1.563 1.036 2.674 0 .14-.009.285-.028.434a9.216 9.216 0 01-.098.756 3.963 3.963 0 01-.308 1.078c-.149.355-.34.747-.574 1.176-.224.42-.546.849-.966 1.288-.41.439-.882.845-1.414 1.218h-2.884a5.05 5.05 0 00.266-.126c.112-.056.327-.177.644-.364.327-.196.635-.406.924-.63.29-.224.602-.518.938-.882.346-.364.635-.742.868-1.134-.326.187-.793.28-1.4.28zm1.694-4.508c-.354-.317-.807-.476-1.358-.476-.55 0-1.008.159-1.372.476a1.462 1.462 0 00-.532 1.148c0 .457.173.845.518 1.162.355.308.817.462 1.386.462.551 0 1.004-.154 1.358-.462.364-.317.546-.705.546-1.162 0-.457-.182-.84-.546-1.148zm13.021 1.876c.046.299.07.56.07.784 0 1.372-.448 2.539-1.344 3.5-.896.952-2.016 1.428-3.36 1.428-1.363 0-2.525-.481-3.486-1.442-.962-.961-1.442-2.123-1.442-3.486s.48-2.525 1.442-3.486c.961-.961 2.123-1.442 3.486-1.442.942 0 1.782.243 2.52.728a5.052 5.052 0 011.736 1.96l-1.806.504a2.829 2.829 0 00-1.022-1.022 2.721 2.721 0 00-1.428-.378c-.868 0-1.61.308-2.226.924-.607.607-.91 1.344-.91 2.212 0 .868.303 1.61.91 2.226.616.607 1.358.91 2.226.91.672 0 1.255-.196 1.75-.588a2.991 2.991 0 001.022-1.54h-3.444v-1.792h5.306zm8.471 5.488h-2.184l-2.114-3.136h-1.078V238h-1.792v-9.408h3.36c1.186 0 2.077.285 2.674.854.607.569.91 1.33.91 2.282 0 .681-.191 1.302-.574 1.862-.382.551-.91.929-1.582 1.134l2.38 3.276zm-5.376-7.616v2.688h1.792c.439 0 .808-.126 1.106-.378.308-.252.462-.574.462-.966 0-.429-.149-.761-.448-.994-.289-.233-.662-.35-1.12-.35h-1.792zm10.867 6.048c.933 0 1.713-.322 2.338-.966l.686 1.624a4.326 4.326 0 01-1.414.84 4.863 4.863 0 01-1.638.294c-1.381 0-2.562-.481-3.542-1.442-.98-.971-1.47-2.133-1.47-3.486 0-1.353.49-2.511 1.47-3.472.98-.971 2.161-1.456 3.542-1.456.541 0 1.087.098 1.638.294a4.148 4.148 0 011.414.826l-.686 1.624a3.237 3.237 0 00-2.338-.952c-.896 0-1.661.308-2.296.924-.635.607-.952 1.344-.952 2.212 0 .868.317 1.61.952 2.226.635.607 1.4.91 2.296.91zm4.363-7.168l3.584-.896V238h-1.792v-7.448l-1.792.392v-1.68zm6.417.532c.691-.952 1.578-1.428 2.66-1.428 1.083 0 1.97.476 2.66 1.428.691.952 1.036 2.119 1.036 3.5 0 1.381-.345 2.548-1.036 3.5-.69.952-1.577 1.428-2.66 1.428-1.092 0-1.983-.471-2.674-1.414-.681-.952-1.022-2.123-1.022-3.514 0-1.381.346-2.548 1.036-3.5zm1.316 5.726c.374.607.822.91 1.344.91.523 0 .971-.303 1.344-.91.374-.616.56-1.358.56-2.226 0-.868-.186-1.605-.56-2.212-.373-.616-.821-.924-1.344-.924-.522 0-.97.308-1.344.924-.373.607-.56 1.344-.56 2.212 0 .868.187 1.61.56 2.226zm7.421-5.726c.69-.952 1.577-1.428 2.66-1.428 1.082 0 1.969.476 2.66 1.428.69.952 1.036 2.119 1.036 3.5 0 1.381-.346 2.548-1.036 3.5-.691.952-1.578 1.428-2.66 1.428-1.092 0-1.984-.471-2.674-1.414-.682-.952-1.022-2.123-1.022-3.514 0-1.381.345-2.548 1.036-3.5zm1.316 5.726c.373.607.821.91 1.344.91.522 0 .97-.303 1.344-.91.373-.616.56-1.358.56-2.226 0-.868-.187-1.605-.56-2.212-.374-.616-.822-.924-1.344-.924-.523 0-.971.308-1.344.924-.374.607-.56 1.344-.56 2.212 0 .868.186 1.61.56 2.226zm12.88-1.106h1.12v1.792h-1.12V238h-1.792v-1.792h-4.704v-1.568l4.256-6.048h2.24v5.824zm-1.792 0v-3.696l-2.506 3.696h2.506zM408.75 229.88c.653-.933 1.489-1.4 2.506-1.4 1.017 0 1.848.467 2.492 1.4.653.924.98 2.063.98 3.416 0 1.353-.327 2.497-.98 3.43-.644.924-1.475 1.386-2.492 1.386-1.027 0-1.862-.462-2.506-1.386-.644-.933-.966-2.077-.966-3.43 0-1.353.322-2.492.966-3.416zm.994 5.88c.42.672.924 1.008 1.512 1.008s1.087-.336 1.498-1.008c.42-.681.63-1.503.63-2.464 0-.961-.21-1.778-.63-2.45-.411-.681-.91-1.022-1.498-1.022s-1.092.341-1.512 1.022c-.411.672-.616 1.489-.616 2.45 0 .961.205 1.783.616 2.464zm10.212-4.032c.821 0 1.535.28 2.142.84.616.551.924 1.302.924 2.254s-.332 1.741-.994 2.366a3.358 3.358 0 01-2.366.924c-.915 0-1.69-.28-2.324-.84-.635-.569-.98-1.26-1.036-2.072l1.4-.14c.046.457.252.859.616 1.204.364.336.812.504 1.344.504.55 0 1.022-.182 1.414-.546.401-.373.602-.826.602-1.358 0-.523-.168-.952-.504-1.288-.336-.336-.77-.504-1.302-.504-.383 0-.761.098-1.134.294a2.135 2.135 0 00-.854.826h-1.372l.84-5.6h4.774v1.344H418.5l-.364 2.408c.494-.411 1.101-.616 1.82-.616zm5.639 1.456a.972.972 0 01-.714-.294.972.972 0 01-.294-.714c0-.289.098-.527.294-.714a.972.972 0 01.714-.294c.289 0 .527.098.714.294a.944.944 0 01.294.714c0 .28-.098.518-.294.714a.944.944 0 01-.714.294zm0 4.928a.972.972 0 01-.714-.294.972.972 0 01-.294-.714c0-.28.098-.518.294-.714a.972.972 0 01.714-.294c.289 0 .527.098.714.294a.972.972 0 01.294.714c0 .28-.098.518-.294.714a.944.944 0 01-.714.294zm7.95-5.082c.364.121.676.378.938.77.27.392.406.821.406 1.288 0 .803-.28 1.507-.84 2.114-.551.607-1.391.91-2.52.91-.999 0-1.792-.275-2.38-.826-.588-.551-.915-1.283-.98-2.198l1.344-.224c.158 1.269.858 1.904 2.1 1.904.597 0 1.068-.149 1.414-.448.345-.299.518-.672.518-1.12 0-.532-.21-.887-.63-1.064-.411-.187-1.022-.28-1.834-.28v-1.344c.242 0 .476-.019.7-.056a6.46 6.46 0 00.714-.196 1.35 1.35 0 00.602-.42c.149-.187.224-.411.224-.672 0-.345-.15-.653-.448-.924-.299-.28-.719-.42-1.26-.42-.654 0-1.12.163-1.4.49-.271.327-.434.761-.49 1.302l-1.344-.224c.074-.849.401-1.545.98-2.086.588-.551 1.311-.826 2.17-.826.998 0 1.768.275 2.31.826.55.551.826 1.134.826 1.75 0 .877-.374 1.535-1.12 1.974zm8.579-.196c.849.485 1.274 1.241 1.274 2.268 0 .887-.336 1.61-1.008 2.17-.672.56-1.493.84-2.464.84-.971 0-1.792-.28-2.464-.84-.672-.56-1.008-1.283-1.008-2.17 0-1.008.42-1.764 1.26-2.268-.541-.383-.812-.957-.812-1.722 0-.747.289-1.372.868-1.876.588-.504 1.307-.756 2.156-.756.84 0 1.554.252 2.142.756.588.504.882 1.129.882 1.876 0 .747-.275 1.321-.826 1.722zm-1.008-2.646c-.327-.243-.723-.364-1.19-.364-.467 0-.863.121-1.19.364-.327.243-.49.532-.49.868 0 .336.163.625.49.868.327.243.723.364 1.19.364.467 0 .863-.121 1.19-.364.327-.243.49-.532.49-.868 0-.336-.163-.625-.49-.868zm-2.702 6.118c.42.308.924.462 1.512.462s1.087-.154 1.498-.462c.42-.317.63-.705.63-1.162 0-.457-.21-.84-.63-1.148-.411-.317-.91-.476-1.498-.476s-1.092.159-1.512.476c-.411.308-.616.691-.616 1.148 0 .457.205.845.616 1.162zm10.366-5.138c.97 0 1.773.336 2.408 1.008.634.672.952 1.493.952 2.464 0 .971-.318 1.792-.952 2.464-.635.672-1.438 1.008-2.408 1.008-.934 0-1.68-.364-2.24-1.092v4.564h-1.344V231.28h1.344v.98c.56-.728 1.306-1.092 2.24-1.092zm-1.624 4.984c.42.411.924.616 1.512.616s1.087-.205 1.498-.616c.42-.42.63-.924.63-1.512s-.21-1.087-.63-1.498c-.411-.42-.91-.63-1.498-.63s-1.092.21-1.512.63c-.411.411-.616.91-.616 1.498s.205 1.092.616 1.512zm13.924-4.984c.746 0 1.33.266 1.75.798.42.532.63 1.293.63 2.282V238h-1.344v-3.752c0-1.157-.43-1.736-1.288-1.736-.43 0-.808.163-1.134.49-.327.327-.49.761-.49 1.302V238h-1.344v-3.752c0-1.157-.43-1.736-1.288-1.736-.43 0-.808.163-1.134.49-.327.327-.49.761-.49 1.302V238h-1.344v-6.72h1.344v.784a4.62 4.62 0 01.434-.434c.121-.112.308-.215.56-.308.261-.103.555-.154.882-.154.877 0 1.521.355 1.932 1.064.354-.383.709-.653 1.064-.812.364-.168.784-.252 1.26-.252z" fill="#4C4C4C"/>
    <circle cx="493" cy="293" r="5" fill="#4C4C4C"/>
    <circle cx="493" cy="293" r="12" fill="#E1251B"/>
    <g clip-path="url(#loblaw-ph_transaction_icons__clip2)">
      <path d="M497.973 289.768l-3.232 3.233 3.232 3.232a1.232 1.232 0 01-.87 2.101c-.316 0-.631-.12-.871-.36L493 294.741l-3.233 3.233a1.228 1.228 0 01-1.74 0 1.232 1.232 0 010-1.741l3.232-3.232-3.232-3.233a1.23 1.23 0 111.74-1.74L493 291.26l3.232-3.232a1.23 1.23 0 011.741 1.74z" fill="#fff"/>
    </g>
    <path d="M528.608 286.592h1.344v5.264c0 1.297-.303 2.333-.91 3.108-.597.765-1.489 1.148-2.674 1.148-1.213 0-2.114-.383-2.702-1.148-.588-.765-.882-1.801-.882-3.108v-5.264h1.344v5.712c0 .737.196 1.335.588 1.792.401.448.952.672 1.652.672.691 0 1.237-.224 1.638-.672.401-.457.602-1.055.602-1.792v-5.712zm6.58 2.576c.812 0 1.447.252 1.904.756.467.504.7 1.241.7 2.212V296h-1.344v-3.752c0-.569-.116-.999-.35-1.288-.224-.299-.611-.448-1.162-.448-.448 0-.868.168-1.26.504-.392.327-.588.756-.588 1.288V296h-1.344v-6.72h1.344v.784c.523-.597 1.223-.896 2.1-.896zm3.833.112h.896v-.812c0-.793.187-1.395.56-1.806.373-.42.868-.63 1.484-.63.336 0 .625.075.868.224v1.316a1.18 1.18 0 00-.672-.196c-.597 0-.896.378-.896 1.134v.77h1.568v1.344h-1.568V296h-1.344v-5.376h-.896v-1.344zm7.982 6.832c-.812 0-1.451-.252-1.918-.756-.457-.504-.686-1.241-.686-2.212v-3.864h1.344v3.752c0 .569.112 1.003.336 1.302.234.289.626.434 1.176.434.448 0 .868-.163 1.26-.49.392-.336.588-.77.588-1.302v-3.696h1.344V296h-1.344v-.784c-.522.597-1.222.896-2.1.896zm5.345-9.968h1.344V296h-1.344v-9.856zm2.806 3.136h.896v-.812c0-.793.186-1.395.56-1.806.373-.42.868-.63 1.484-.63.336 0 .625.075.868.224v1.316a1.18 1.18 0 00-.672-.196c-.598 0-.896.378-.896 1.134v.77h1.568v1.344h-1.568V296h-1.344v-5.376h-.896v-1.344zm6.988-1.414a.972.972 0 01-.714.294.972.972 0 01-.714-.294.972.972 0 01-.294-.714c0-.28.098-.518.294-.714a.972.972 0 01.714-.294c.28 0 .518.098.714.294a.972.972 0 01.294.714c0 .28-.098.518-.294.714zM560.756 296v-6.72h1.344V296h-1.344zm3.254-9.856h1.344V296h-1.344v-9.856zm3.254 0h1.344V296h-1.344v-9.856zm9.192 6.524c0 .205-.014.401-.042.588h-5.082c.103.504.35.882.742 1.134.402.252.882.378 1.442.378.728 0 1.41-.224 2.044-.672l.448 1.204c-.644.541-1.484.812-2.52.812-1.129 0-2.002-.327-2.618-.98-.606-.663-.91-1.493-.91-2.492 0-.989.304-1.815.91-2.478.616-.663 1.428-.994 2.436-.994.915 0 1.666.317 2.254.952.598.635.896 1.484.896 2.548zm-5.124-.644h3.752c-.018-.383-.182-.728-.49-1.036-.308-.317-.756-.476-1.344-.476-.569 0-1.026.159-1.372.476-.345.317-.527.663-.546 1.036zm11.844-5.88h1.344V296h-1.344v-.98c-.56.728-1.307 1.092-2.24 1.092-.971 0-1.774-.336-2.408-1.008-.635-.672-.952-1.493-.952-2.464 0-.971.317-1.792.952-2.464.634-.672 1.437-1.008 2.408-1.008.933 0 1.68.364 2.24 1.092v-4.116zm-3.64 8.008c.42.411.924.616 1.512.616s1.087-.205 1.498-.616c.42-.42.63-.924.63-1.512s-.21-1.087-.63-1.498c-.411-.42-.91-.63-1.498-.63s-1.092.21-1.512.63c-.411.411-.616.91-.616 1.498s.205 1.092.616 1.512zm13.87 1.96c-.812 0-1.452-.252-1.918-.756-.458-.504-.686-1.241-.686-2.212v-3.864h1.344v3.752c0 .569.112 1.003.336 1.302.233.289.625.434 1.176.434.448 0 .868-.163 1.26-.49.392-.336.588-.77.588-1.302v-3.696h1.344V296h-1.344v-.784c-.523.597-1.223.896-2.1.896zm8.788-6.944c.812 0 1.447.252 1.904.756.467.504.7 1.241.7 2.212V296h-1.344v-3.752c0-.569-.116-.999-.35-1.288-.224-.299-.611-.448-1.162-.448-.448 0-.868.168-1.26.504-.392.327-.588.756-.588 1.288V296h-1.344v-6.72h1.344v.784c.523-.597 1.223-.896 2.1-.896zm5.667-1.302a.972.972 0 01-.714.294.972.972 0 01-.714-.294.972.972 0 01-.294-.714c0-.28.098-.518.294-.714a.972.972 0 01.714-.294c.28 0 .518.098.714.294a.972.972 0 01.294.714c0 .28-.098.518-.294.714zM606.475 296v-6.72h1.344V296h-1.344zm3.811-2.198v-3.178h-.896v-1.344h.896v-2.688h1.344v2.688h1.344v1.344h-1.344v2.8c0 .644.089 1.031.266 1.162.271.205.63.196 1.078-.028v1.358c-.271.131-.602.196-.994.196-1.129 0-1.694-.77-1.694-2.31zm7.176-1.946c1.633.317 2.45.999 2.45 2.044 0 .681-.233 1.223-.7 1.624-.467.392-1.129.588-1.988.588a4.814 4.814 0 01-1.792-.322c-.532-.215-.905-.425-1.12-.63l.532-1.316c.261.261.616.481 1.064.658a3.98 3.98 0 001.274.266c.42.009.756-.056 1.008-.196s.378-.313.378-.518a.578.578 0 00-.322-.532c-.215-.131-.546-.238-.994-.322-1.045-.187-1.759-.443-2.142-.77s-.574-.775-.574-1.344c0-.569.247-1.031.742-1.386.504-.355 1.167-.532 1.988-.532.831 0 1.643.215 2.436.644l-.462 1.26c-.177-.131-.457-.252-.84-.364a3.96 3.96 0 00-1.134-.196c-.383-.009-.709.033-.98.126s-.406.247-.406.462c0 .112.033.21.098.294.075.075.182.14.322.196.149.047.289.089.42.126.131.028.303.061.518.098l.224.042zm11.211 0c1.633.317 2.45.999 2.45 2.044 0 .681-.233 1.223-.7 1.624-.467.392-1.129.588-1.988.588a4.814 4.814 0 01-1.792-.322c-.532-.215-.905-.425-1.12-.63l.532-1.316c.261.261.616.481 1.064.658a3.98 3.98 0 001.274.266c.42.009.756-.056 1.008-.196s.378-.313.378-.518a.578.578 0 00-.322-.532c-.215-.131-.546-.238-.994-.322-1.045-.187-1.759-.443-2.142-.77s-.574-.775-.574-1.344c0-.569.247-1.031.742-1.386.504-.355 1.167-.532 1.988-.532.831 0 1.643.215 2.436.644l-.462 1.26c-.177-.131-.457-.252-.84-.364a3.96 3.96 0 00-1.134-.196c-.383-.009-.709.033-.98.126s-.406.247-.406.462c0 .112.033.21.098.294.075.075.182.14.322.196.149.047.289.089.42.126.131.028.303.061.518.098l.224.042zm7.359-2.688c.849 0 1.493.266 1.932.798.448.523.672 1.283.672 2.282V296h-1.344v-3.752c0-.569-.117-.999-.35-1.288-.224-.299-.611-.448-1.162-.448-.448 0-.868.168-1.26.504-.392.327-.588.756-.588 1.288V296h-1.344v-9.856h1.344v3.92c.523-.597 1.223-.896 2.1-.896zm4.95 1.022a3.36 3.36 0 012.464-1.022c.961 0 1.778.341 2.45 1.022a3.314 3.314 0 011.022 2.45 3.36 3.36 0 01-1.022 2.464c-.672.672-1.489 1.008-2.45 1.008a3.382 3.382 0 01-2.464-1.008 3.382 3.382 0 01-1.008-2.464c0-.961.336-1.778 1.008-2.45zm.966 3.948c.42.42.919.63 1.498.63s1.078-.21 1.498-.63c.42-.42.63-.919.63-1.498s-.21-1.078-.63-1.498c-.42-.42-.919-.63-1.498-.63s-1.078.21-1.498.63c-.42.42-.63.919-.63 1.498s.21 1.078.63 1.498zm7.666-3.416a2.57 2.57 0 011.05-1.134c.466-.28 1.012-.42 1.638-.42v1.47c-.392-.121-.803-.103-1.232.056-.971.373-1.456 1.143-1.456 2.31V296h-1.344v-6.72h1.344v1.442zm4.819 3.08v-3.178h-.896v-1.344h.896v-2.688h1.344v2.688h1.344v1.344h-1.344v2.8c0 .644.088 1.031.266 1.162.27.205.63.196 1.078-.028v1.358c-.271.131-.602.196-.994.196-1.13 0-1.694-.77-1.694-2.31zm10.412-1.134c0 .205-.014.401-.042.588h-5.082c.103.504.35.882.742 1.134.401.252.882.378 1.442.378.728 0 1.409-.224 2.044-.672l.448 1.204c-.644.541-1.484.812-2.52.812-1.129 0-2.002-.327-2.618-.98-.607-.663-.91-1.493-.91-2.492 0-.989.303-1.815.91-2.478.616-.663 1.428-.994 2.436-.994.915 0 1.666.317 2.254.952.597.635.896 1.484.896 2.548zm-5.124-.644h3.752c-.019-.383-.182-.728-.49-1.036-.308-.317-.756-.476-1.344-.476-.569 0-1.027.159-1.372.476-.345.317-.527.663-.546 1.036zm11.843-5.88h1.344V296h-1.344v-.98c-.56.728-1.306 1.092-2.24 1.092-.97 0-1.773-.336-2.408-1.008-.634-.672-.952-1.493-.952-2.464 0-.971.318-1.792.952-2.464.635-.672 1.438-1.008 2.408-1.008.934 0 1.68.364 2.24 1.092v-4.116zm-3.64 8.008c.42.411.924.616 1.512.616s1.088-.205 1.498-.616c.42-.42.63-.924.63-1.512s-.21-1.087-.63-1.498c-.41-.42-.91-.63-1.498-.63s-1.092.21-1.512.63c-.41.411-.616.91-.616 1.498s.206 1.092.616 1.512zm12.834-8.008v4.116c.56-.728 1.307-1.092 2.24-1.092.971 0 1.774.336 2.408 1.008.635.672.952 1.493.952 2.464 0 .971-.317 1.792-.952 2.464-.634.672-1.437 1.008-2.408 1.008-.933 0-1.68-.364-2.24-1.092v.98h-1.344v-9.856h1.344zm.616 8.008c.42.411.924.616 1.512.616s1.088-.205 1.498-.616c.42-.42.63-.924.63-1.512s-.21-1.087-.63-1.498c-.41-.42-.91-.63-1.498-.63s-1.092.21-1.512.63c-.41.411-.616.91-.616 1.498s.206 1.092.616 1.512zm10.998-4.872h1.498l-4.55 10.304h-1.47l1.792-4.018-2.716-6.286h1.498l1.974 4.648 1.974-4.648zm7.799-1.484c.691-.952 1.577-1.428 2.66-1.428 1.083 0 1.969.476 2.66 1.428.691.952 1.036 2.119 1.036 3.5 0 1.381-.345 2.548-1.036 3.5-.691.952-1.577 1.428-2.66 1.428-1.092 0-1.983-.471-2.674-1.414-.681-.952-1.022-2.123-1.022-3.514 0-1.381.345-2.548 1.036-3.5zm1.316 5.726c.373.607.821.91 1.344.91.523 0 .971-.303 1.344-.91.373-.616.56-1.358.56-2.226 0-.868-.187-1.605-.56-2.212-.373-.616-.821-.924-1.344-.924-.523 0-.971.308-1.344.924-.373.607-.56 1.344-.56 2.212 0 .868.187 1.61.56 2.226zm10.402-3.794c.85 0 1.587.275 2.212.826.626.541.938 1.26.938 2.156 0 1.092-.336 1.951-1.008 2.576-.662.625-1.521.938-2.576.938-1.101 0-1.96-.275-2.576-.826-.616-.56-.952-1.293-1.008-2.198l1.792-.14c.047.401.22.733.518.994.299.252.724.378 1.274.378.514 0 .938-.145 1.274-.434.346-.289.518-.667.518-1.134 0-.401-.149-.742-.448-1.022-.289-.289-.7-.434-1.232-.434-.821 0-1.456.261-1.904.784h-1.568l.896-5.6h5.152v1.792h-3.696l-.252 1.792c.402-.299.966-.448 1.694-.448zm7.86 3.416c-.999 0-1.811-.313-2.436-.938a3.097 3.097 0 01-.924-2.254c0-1.055.345-1.913 1.036-2.576.7-.672 1.586-1.008 2.66-1.008 1.092 0 1.978.336 2.66 1.008.69.672 1.036 1.563 1.036 2.674 0 .14-.01.285-.028.434-.01.149-.042.401-.098.756-.047.355-.15.714-.308 1.078-.15.355-.341.747-.574 1.176-.224.42-.546.849-.966 1.288a9.022 9.022 0 01-1.414 1.218h-2.884c.065-.028.154-.07.266-.126.112-.056.326-.177.644-.364a9.61 9.61 0 00.924-.63c.289-.224.602-.518.938-.882a6.48 6.48 0 00.868-1.134c-.327.187-.794.28-1.4.28zm1.694-4.508c-.355-.317-.808-.476-1.358-.476-.551 0-1.008.159-1.372.476a1.46 1.46 0 00-.532 1.148c0 .457.172.845.518 1.162.354.308.816.462 1.386.462.55 0 1.003-.154 1.358-.462.364-.317.546-.705.546-1.162 0-.457-.182-.84-.546-1.148zm13.02 1.876c.047.299.07.56.07.784 0 1.372-.448 2.539-1.344 3.5-.896.952-2.016 1.428-3.36 1.428-1.363 0-2.525-.481-3.486-1.442-.961-.961-1.442-2.123-1.442-3.486s.481-2.525 1.442-3.486c.961-.961 2.123-1.442 3.486-1.442.943 0 1.783.243 2.52.728a5.052 5.052 0 011.736 1.96l-1.806.504a2.829 2.829 0 00-1.022-1.022 2.721 2.721 0 00-1.428-.378c-.868 0-1.61.308-2.226.924-.607.607-.91 1.344-.91 2.212 0 .868.303 1.61.91 2.226.616.607 1.358.91 2.226.91.672 0 1.255-.196 1.75-.588a2.985 2.985 0 001.022-1.54h-3.444v-1.792h5.306zm8.472 5.488h-2.184l-2.114-3.136h-1.078V296h-1.792v-9.408h3.36c1.185 0 2.077.285 2.674.854.607.569.91 1.33.91 2.282 0 .681-.191 1.302-.574 1.862-.383.551-.91.929-1.582 1.134l2.38 3.276zm-5.376-7.616v2.688h1.792c.439 0 .807-.126 1.106-.378.308-.252.462-.574.462-.966 0-.429-.149-.761-.448-.994-.289-.233-.663-.35-1.12-.35h-1.792zm10.867 6.048c.933 0 1.712-.322 2.338-.966l.686 1.624a4.337 4.337 0 01-1.414.84 4.863 4.863 0 01-1.638.294c-1.382 0-2.562-.481-3.542-1.442-.98-.971-1.47-2.133-1.47-3.486 0-1.353.49-2.511 1.47-3.472.98-.971 2.16-1.456 3.542-1.456.541 0 1.087.098 1.638.294.55.196 1.022.471 1.414.826l-.686 1.624a3.24 3.24 0 00-2.338-.952c-.896 0-1.662.308-2.296.924-.635.607-.952 1.344-.952 2.212 0 .868.317 1.61.952 2.226.634.607 1.4.91 2.296.91zm4.363-7.168l3.584-.896V296h-1.792v-7.448l-1.792.392v-1.68zm6.417.532c.691-.952 1.577-1.428 2.66-1.428 1.083 0 1.969.476 2.66 1.428.691.952 1.036 2.119 1.036 3.5 0 1.381-.345 2.548-1.036 3.5-.691.952-1.577 1.428-2.66 1.428-1.092 0-1.983-.471-2.674-1.414-.681-.952-1.022-2.123-1.022-3.514 0-1.381.345-2.548 1.036-3.5zm1.316 5.726c.373.607.821.91 1.344.91.523 0 .971-.303 1.344-.91.373-.616.56-1.358.56-2.226 0-.868-.187-1.605-.56-2.212-.373-.616-.821-.924-1.344-.924-.523 0-.971.308-1.344.924-.373.607-.56 1.344-.56 2.212 0 .868.187 1.61.56 2.226zm7.42-5.726c.691-.952 1.578-1.428 2.66-1.428 1.083 0 1.97.476 2.66 1.428.691.952 1.036 2.119 1.036 3.5 0 1.381-.345 2.548-1.036 3.5-.69.952-1.577 1.428-2.66 1.428-1.092 0-1.983-.471-2.674-1.414-.681-.952-1.022-2.123-1.022-3.514 0-1.381.346-2.548 1.036-3.5zm1.316 5.726c.374.607.822.91 1.344.91.523 0 .971-.303 1.344-.91.374-.616.56-1.358.56-2.226 0-.868-.186-1.605-.56-2.212-.373-.616-.821-.924-1.344-.924-.522 0-.97.308-1.344.924-.373.607-.56 1.344-.56 2.212 0 .868.187 1.61.56 2.226zm12.881-1.106h1.12v1.792h-1.12V296h-1.792v-1.792h-4.704v-1.568l4.256-6.048h2.24v5.824zm-1.792 0v-3.696l-2.506 3.696h2.506zM408.75 287.88c.653-.933 1.489-1.4 2.506-1.4 1.017 0 1.848.467 2.492 1.4.653.924.98 2.063.98 3.416 0 1.353-.327 2.497-.98 3.43-.644.924-1.475 1.386-2.492 1.386-1.027 0-1.862-.462-2.506-1.386-.644-.933-.966-2.077-.966-3.43 0-1.353.322-2.492.966-3.416zm.994 5.88c.42.672.924 1.008 1.512 1.008s1.087-.336 1.498-1.008c.42-.681.63-1.503.63-2.464 0-.961-.21-1.778-.63-2.45-.411-.681-.91-1.022-1.498-1.022s-1.092.341-1.512 1.022c-.411.672-.616 1.489-.616 2.45 0 .961.205 1.783.616 2.464zm10.212-4.032c.821 0 1.535.28 2.142.84.616.551.924 1.302.924 2.254s-.332 1.741-.994 2.366a3.358 3.358 0 01-2.366.924c-.915 0-1.69-.28-2.324-.84-.635-.569-.98-1.26-1.036-2.072l1.4-.14c.046.457.252.859.616 1.204.364.336.812.504 1.344.504.55 0 1.022-.182 1.414-.546.401-.373.602-.826.602-1.358 0-.523-.168-.952-.504-1.288-.336-.336-.77-.504-1.302-.504-.383 0-.761.098-1.134.294a2.135 2.135 0 00-.854.826h-1.372l.84-5.6h4.774v1.344H418.5l-.364 2.408c.494-.411 1.101-.616 1.82-.616zm5.639 1.456a.972.972 0 01-.714-.294.972.972 0 01-.294-.714c0-.289.098-.527.294-.714a.972.972 0 01.714-.294c.289 0 .527.098.714.294a.944.944 0 01.294.714c0 .28-.098.518-.294.714a.944.944 0 01-.714.294zm0 4.928a.972.972 0 01-.714-.294.972.972 0 01-.294-.714c0-.28.098-.518.294-.714a.972.972 0 01.714-.294c.289 0 .527.098.714.294a.972.972 0 01.294.714c0 .28-.098.518-.294.714a.944.944 0 01-.714.294zm7.95-5.082c.364.121.676.378.938.77.27.392.406.821.406 1.288 0 .803-.28 1.507-.84 2.114-.551.607-1.391.91-2.52.91-.999 0-1.792-.275-2.38-.826-.588-.551-.915-1.283-.98-2.198l1.344-.224c.158 1.269.858 1.904 2.1 1.904.597 0 1.068-.149 1.414-.448.345-.299.518-.672.518-1.12 0-.532-.21-.887-.63-1.064-.411-.187-1.022-.28-1.834-.28v-1.344c.242 0 .476-.019.7-.056a6.46 6.46 0 00.714-.196 1.35 1.35 0 00.602-.42c.149-.187.224-.411.224-.672 0-.345-.15-.653-.448-.924-.299-.28-.719-.42-1.26-.42-.654 0-1.12.163-1.4.49-.271.327-.434.761-.49 1.302l-1.344-.224c.074-.849.401-1.545.98-2.086.588-.551 1.311-.826 2.17-.826.998 0 1.768.275 2.31.826.55.551.826 1.134.826 1.75 0 .877-.374 1.535-1.12 1.974zm8.579-.196c.849.485 1.274 1.241 1.274 2.268 0 .887-.336 1.61-1.008 2.17-.672.56-1.493.84-2.464.84-.971 0-1.792-.28-2.464-.84-.672-.56-1.008-1.283-1.008-2.17 0-1.008.42-1.764 1.26-2.268-.541-.383-.812-.957-.812-1.722 0-.747.289-1.372.868-1.876.588-.504 1.307-.756 2.156-.756.84 0 1.554.252 2.142.756.588.504.882 1.129.882 1.876 0 .747-.275 1.321-.826 1.722zm-1.008-2.646c-.327-.243-.723-.364-1.19-.364-.467 0-.863.121-1.19.364-.327.243-.49.532-.49.868 0 .336.163.625.49.868.327.243.723.364 1.19.364.467 0 .863-.121 1.19-.364.327-.243.49-.532.49-.868 0-.336-.163-.625-.49-.868zm-2.702 6.118c.42.308.924.462 1.512.462s1.087-.154 1.498-.462c.42-.317.63-.705.63-1.162 0-.457-.21-.84-.63-1.148-.411-.317-.91-.476-1.498-.476s-1.092.159-1.512.476c-.411.308-.616.691-.616 1.148 0 .457.205.845.616 1.162zm10.366-5.138c.97 0 1.773.336 2.408 1.008.634.672.952 1.493.952 2.464 0 .971-.318 1.792-.952 2.464-.635.672-1.438 1.008-2.408 1.008-.934 0-1.68-.364-2.24-1.092v4.564h-1.344V289.28h1.344v.98c.56-.728 1.306-1.092 2.24-1.092zm-1.624 4.984c.42.411.924.616 1.512.616s1.087-.205 1.498-.616c.42-.42.63-.924.63-1.512s-.21-1.087-.63-1.498c-.411-.42-.91-.63-1.498-.63s-1.092.21-1.512.63c-.411.411-.616.91-.616 1.498s.205 1.092.616 1.512zm13.924-4.984c.746 0 1.33.266 1.75.798.42.532.63 1.293.63 2.282V296h-1.344v-3.752c0-1.157-.43-1.736-1.288-1.736-.43 0-.808.163-1.134.49-.327.327-.49.761-.49 1.302V296h-1.344v-3.752c0-1.157-.43-1.736-1.288-1.736-.43 0-.808.163-1.134.49-.327.327-.49.761-.49 1.302V296h-1.344v-6.72h1.344v.784a4.62 4.62 0 01.434-.434c.121-.112.308-.215.56-.308.261-.103.555-.154.882-.154.877 0 1.521.355 1.932 1.064.354-.383.709-.653 1.064-.812.364-.168.784-.252 1.26-.252z" fill="#4C4C4C"/>
    <path fill="#C4C4C4" d="M492 360h2v33h-2z"/>
    <circle cx="493" cy="351" r="5" fill="#467E1B"/>
    <path d="M526.354 348.512c1.167.224 2.021.546 2.562.966.541.411.812.999.812 1.764 0 .84-.322 1.531-.966 2.072-.644.532-1.507.798-2.59.798a5.467 5.467 0 01-1.484-.196 4.391 4.391 0 01-1.148-.518 7.922 7.922 0 01-.658-.49 2.616 2.616 0 01-.322-.322l.672-1.204c.831.924 1.82 1.386 2.968 1.386.7 0 1.237-.131 1.61-.392.383-.261.574-.621.574-1.078 0-.709-.714-1.19-2.142-1.442-1.241-.215-2.114-.537-2.618-.966-.495-.439-.742-.999-.742-1.68 0-.793.299-1.447.896-1.96.597-.513 1.428-.77 2.492-.77 1.223 0 2.235.373 3.038 1.12l-.644 1.218c-.681-.663-1.489-.994-2.422-.994-.644 0-1.143.117-1.498.35-.345.233-.518.56-.518.98 0 .355.163.635.49.84.327.196.873.369 1.638.518zm5.387 3.29v-3.178h-.896v-1.344h.896v-2.688h1.344v2.688h1.344v1.344h-1.344v2.8c0 .644.089 1.031.266 1.162.271.205.63.196 1.078-.028v1.358c-.271.131-.602.196-.994.196-1.129 0-1.694-.77-1.694-2.31zm9.626-4.522h1.344V354h-1.344v-.98c-.56.728-1.307 1.092-2.24 1.092-.971 0-1.773-.336-2.408-1.008-.635-.672-.952-1.493-.952-2.464 0-.971.317-1.792.952-2.464.635-.672 1.437-1.008 2.408-1.008.933 0 1.68.364 2.24 1.092v-.98zm-3.64 4.872c.42.411.924.616 1.512.616s1.087-.205 1.498-.616c.42-.42.63-.924.63-1.512s-.21-1.087-.63-1.498c-.411-.42-.91-.63-1.498-.63s-1.092.21-1.512.63c-.411.411-.616.91-.616 1.498s.205 1.092.616 1.512zm11.939-4.872h1.344v6.3c0 1.363-.322 2.389-.966 3.08-.635.691-1.507 1.036-2.618 1.036-1.12 0-2.165-.373-3.136-1.12l.672-1.204c.261.196.476.35.644.462.168.112.42.224.756.336.345.121.7.182 1.064.182.7 0 1.246-.224 1.638-.672.401-.448.602-1.083.602-1.904v-.756c-.56.728-1.307 1.092-2.24 1.092-.971 0-1.773-.336-2.408-1.008-.635-.672-.952-1.493-.952-2.464 0-.971.317-1.792.952-2.464.635-.672 1.437-1.008 2.408-1.008.933 0 1.68.364 2.24 1.092v-.98zm-3.64 4.872c.42.411.924.616 1.512.616s1.087-.205 1.498-.616c.42-.42.63-.924.63-1.512s-.21-1.087-.63-1.498c-.411-.42-.91-.63-1.498-.63s-1.092.21-1.512.63c-.411.411-.616.91-.616 1.498s.205 1.092.616 1.512zm12.835-1.484c0 .205-.014.401-.042.588h-5.082c.102.504.35.882.742 1.134.401.252.882.378 1.442.378.728 0 1.409-.224 2.044-.672l.448 1.204c-.644.541-1.484.812-2.52.812-1.13 0-2.002-.327-2.618-.98-.607-.663-.91-1.493-.91-2.492 0-.989.303-1.815.91-2.478.616-.663 1.428-.994 2.436-.994.914 0 1.666.317 2.254.952.597.635.896 1.484.896 2.548zm-5.124-.644h3.752c-.019-.383-.182-.728-.49-1.036-.308-.317-.756-.476-1.344-.476-.57 0-1.027.159-1.372.476-.346.317-.528.663-.546 1.036zm11.843-5.88h1.344V354h-1.344v-.98c-.56.728-1.307 1.092-2.24 1.092-.971 0-1.773-.336-2.408-1.008-.635-.672-.952-1.493-.952-2.464 0-.971.317-1.792.952-2.464.635-.672 1.437-1.008 2.408-1.008.933 0 1.68.364 2.24 1.092v-4.116zm-3.64 8.008c.42.411.924.616 1.512.616s1.087-.205 1.498-.616c.42-.42.63-.924.63-1.512s-.21-1.087-.63-1.498c-.411-.42-.91-.63-1.498-.63s-1.092.21-1.512.63c-.411.411-.616.91-.616 1.498s.205 1.092.616 1.512zm12.876-6.286a.972.972 0 01-.714.294.972.972 0 01-.714-.294.972.972 0 01-.294-.714c0-.28.098-.518.294-.714a.972.972 0 01.714-.294c.28 0 .518.098.714.294a.972.972 0 01.294.714c0 .28-.098.518-.294.714zM573.43 354v-6.72h1.344V354h-1.344zm6.698-6.832c.812 0 1.446.252 1.904.756.466.504.7 1.241.7 2.212V354h-1.344v-3.752c0-.569-.117-.999-.35-1.288-.224-.299-.612-.448-1.162-.448-.448 0-.868.168-1.26.504-.392.327-.588.756-.588 1.288V354h-1.344v-6.72h1.344v.784c.522-.597 1.222-.896 2.1-.896zM595.386 354l-.7-1.792h-3.976l-.7 1.792h-2.016l3.892-9.408h1.624l3.892 9.408h-2.016zm-3.99-3.584H594l-1.302-3.36-1.302 3.36zm16.308-5.824l1.344 9.408h-1.904l-.784-6.16-2.464 6.16H603l-2.464-6.16-.784 6.16h-1.904l1.344-9.408h1.792l2.464 6.048 2.464-6.048h1.792zm8.502 4.354c.541.14.938.411 1.19.812.261.401.392.873.392 1.414 0 .831-.289 1.512-.868 2.044-.579.523-1.363.784-2.352.784h-4.172v-9.408h3.36c1.129 0 2.007.201 2.632.602.635.401.952 1.022.952 1.862 0 .448-.107.84-.322 1.176a1.811 1.811 0 01-.812.714zm-4.018-2.562v1.792h1.68c1.12 0 1.68-.299 1.68-.896 0-.345-.135-.579-.406-.7-.271-.131-.695-.196-1.274-.196h-1.68zm1.904 5.824c1.269 0 1.904-.411 1.904-1.232 0-.411-.168-.719-.504-.924-.336-.205-.803-.308-1.4-.308h-1.904v2.464h1.904zm4.483-7.616h6.72v1.792h-2.464V354h-1.792v-7.616h-2.464v-1.792zm8.063.672l3.584-.896V354h-1.792v-7.448l-1.792.392v-1.68zm11.878 5.152h1.12v1.792h-1.12V354h-1.792v-1.792h-4.704v-1.568l4.256-6.048h2.24v5.824zm-1.792 0v-3.696l-2.506 3.696h2.506zm10.285-1.47c.541.14.938.411 1.19.812.261.401.392.873.392 1.414 0 .831-.29 1.512-.868 2.044-.579.523-1.363.784-2.352.784h-4.172v-9.408h3.36c1.129 0 2.006.201 2.632.602.634.401.952 1.022.952 1.862 0 .448-.108.84-.322 1.176a1.816 1.816 0 01-.812.714zm-4.018-2.562v1.792h1.68c1.12 0 1.68-.299 1.68-.896 0-.345-.136-.579-.406-.7-.271-.131-.696-.196-1.274-.196h-1.68zm1.904 5.824c1.269 0 1.904-.411 1.904-1.232 0-.411-.168-.719-.504-.924-.336-.205-.803-.308-1.4-.308h-1.904v2.464h1.904zm6.723 0h3.808V354h-5.6v-9.408h1.792v7.616zm10.753-7.616h1.792v5.376c0 1.269-.341 2.296-1.022 3.08-.672.784-1.601 1.176-2.786 1.176-1.204 0-2.142-.392-2.814-1.176-.663-.784-.994-1.811-.994-3.08v-5.376h1.792v5.6c0 .663.191 1.204.574 1.624.392.411.873.616 1.442.616s1.045-.205 1.428-.616c.392-.42.588-.961.588-1.624v-5.6zM408.75 345.88c.653-.933 1.489-1.4 2.506-1.4 1.017 0 1.848.467 2.492 1.4.653.924.98 2.063.98 3.416 0 1.353-.327 2.497-.98 3.43-.644.924-1.475 1.386-2.492 1.386-1.027 0-1.862-.462-2.506-1.386-.644-.933-.966-2.077-.966-3.43 0-1.353.322-2.492.966-3.416zm.994 5.88c.42.672.924 1.008 1.512 1.008s1.087-.336 1.498-1.008c.42-.681.63-1.503.63-2.464 0-.961-.21-1.778-.63-2.45-.411-.681-.91-1.022-1.498-1.022s-1.092.341-1.512 1.022c-.411.672-.616 1.489-.616 2.45 0 .961.205 1.783.616 2.464zm10.212-4.032c.821 0 1.535.28 2.142.84.616.551.924 1.302.924 2.254s-.332 1.741-.994 2.366a3.358 3.358 0 01-2.366.924c-.915 0-1.69-.28-2.324-.84-.635-.569-.98-1.26-1.036-2.072l1.4-.14c.046.457.252.859.616 1.204.364.336.812.504 1.344.504.55 0 1.022-.182 1.414-.546.401-.373.602-.826.602-1.358 0-.523-.168-.952-.504-1.288-.336-.336-.77-.504-1.302-.504-.383 0-.761.098-1.134.294a2.135 2.135 0 00-.854.826h-1.372l.84-5.6h4.774v1.344H418.5l-.364 2.408c.494-.411 1.101-.616 1.82-.616zm5.639 1.456a.972.972 0 01-.714-.294.972.972 0 01-.294-.714c0-.289.098-.527.294-.714a.972.972 0 01.714-.294c.289 0 .527.098.714.294a.944.944 0 01.294.714c0 .28-.098.518-.294.714a.944.944 0 01-.714.294zm0 4.928a.972.972 0 01-.714-.294.972.972 0 01-.294-.714c0-.28.098-.518.294-.714a.972.972 0 01.714-.294c.289 0 .527.098.714.294a.972.972 0 01.294.714c0 .28-.098.518-.294.714a.944.944 0 01-.714.294zm8.398-3.024h1.12v1.344h-1.12V354h-1.344v-1.568h-4.928l6.272-8.064v6.72zm-1.344 0v-3.108l-2.268 3.108h2.268zm7.691-3.36c.822 0 1.536.28 2.142.84.616.551.924 1.302.924 2.254s-.331 1.741-.994 2.366a3.355 3.355 0 01-2.366.924c-.914 0-1.689-.28-2.324-.84-.634-.569-.98-1.26-1.036-2.072l1.4-.14c.047.457.252.859.616 1.204.364.336.812.504 1.344.504.551 0 1.022-.182 1.414-.546.402-.373.602-.826.602-1.358 0-.523-.168-.952-.504-1.288-.336-.336-.77-.504-1.302-.504-.382 0-.76.098-1.134.294a2.141 2.141 0 00-.854.826h-1.372l.84-5.6h4.774v1.344h-3.626l-.364 2.408c.495-.411 1.102-.616 1.82-.616zm8.44-.56c.97 0 1.773.336 2.408 1.008.634.672.952 1.493.952 2.464 0 .971-.318 1.792-.952 2.464-.635.672-1.438 1.008-2.408 1.008-.934 0-1.68-.364-2.24-1.092v4.564h-1.344V347.28h1.344v.98c.56-.728 1.306-1.092 2.24-1.092zm-1.624 4.984c.42.411.924.616 1.512.616s1.087-.205 1.498-.616c.42-.42.63-.924.63-1.512s-.21-1.087-.63-1.498c-.411-.42-.91-.63-1.498-.63s-1.092.21-1.512.63c-.411.411-.616.91-.616 1.498s.205 1.092.616 1.512zm13.924-4.984c.746 0 1.33.266 1.75.798.42.532.63 1.293.63 2.282V354h-1.344v-3.752c0-1.157-.43-1.736-1.288-1.736-.43 0-.808.163-1.134.49-.327.327-.49.761-.49 1.302V354h-1.344v-3.752c0-1.157-.43-1.736-1.288-1.736-.43 0-.808.163-1.134.49-.327.327-.49.761-.49 1.302V354h-1.344v-6.72h1.344v.784a4.62 4.62 0 01.434-.434c.121-.112.308-.215.56-.308.261-.103.555-.154.882-.154.877 0 1.521.355 1.932 1.064.354-.383.709-.653 1.064-.812.364-.168.784-.252 1.26-.252z" fill="#4C4C4C"/>
    <circle cx="493" cy="409" r="5" fill="#4C4C4C"/>
    <circle cx="493" cy="409" r="12" fill="#467E1B"/>
    <g clip-path="url(#loblaw-ph_transaction_icons__clip3)">
      <path d="M493.304 413.925a1.961 1.961 0 01-3.04.15l-3.539-3.928a1.52 1.52 0 112.259-2.036l2.504 2.779a.19.19 0 00.147.061.187.187 0 00.139-.075l5.148-6.981a1.52 1.52 0 112.448 1.804l-6.066 8.226z" fill="#fff"/>
    </g>
    <path d="M524.352 410.656h3.808V412h-5.152v-9.408h1.344v8.064zm5.943-4.466a3.358 3.358 0 012.464-1.022c.961 0 1.778.341 2.45 1.022a3.314 3.314 0 011.022 2.45 3.36 3.36 0 01-1.022 2.464c-.672.672-1.489 1.008-2.45 1.008a3.38 3.38 0 01-2.464-1.008 3.382 3.382 0 01-1.008-2.464c0-.961.336-1.778 1.008-2.45zm.966 3.948c.42.42.919.63 1.498.63.578 0 1.078-.21 1.498-.63.42-.42.63-.919.63-1.498s-.21-1.078-.63-1.498c-.42-.42-.92-.63-1.498-.63-.579 0-1.078.21-1.498.63-.42.42-.63.919-.63 1.498s.21 1.078.63 1.498zm11.692-4.858h1.344V412h-1.344v-.98c-.56.728-1.307 1.092-2.24 1.092-.971 0-1.773-.336-2.408-1.008-.635-.672-.952-1.493-.952-2.464 0-.971.317-1.792.952-2.464.635-.672 1.437-1.008 2.408-1.008.933 0 1.68.364 2.24 1.092v-.98zm-3.64 4.872c.42.411.924.616 1.512.616s1.087-.205 1.498-.616c.42-.42.63-.924.63-1.512s-.21-1.087-.63-1.498c-.411-.42-.91-.63-1.498-.63s-1.092.21-1.512.63c-.411.411-.616.91-.616 1.498s.205 1.092.616 1.512zm11.939-8.008h1.344V412h-1.344v-.98c-.56.728-1.307 1.092-2.24 1.092-.971 0-1.774-.336-2.408-1.008-.635-.672-.952-1.493-.952-2.464 0-.971.317-1.792.952-2.464.634-.672 1.437-1.008 2.408-1.008.933 0 1.68.364 2.24 1.092v-4.116zm-3.64 8.008c.42.411.924.616 1.512.616s1.087-.205 1.498-.616c.42-.42.63-.924.63-1.512s-.21-1.087-.63-1.498c-.411-.42-.91-.63-1.498-.63s-1.092.21-1.512.63c-.411.411-.616.91-.616 1.498s.205 1.092.616 1.512zm12.835-1.484c0 .205-.014.401-.042.588h-5.082c.102.504.35.882.742 1.134.401.252.882.378 1.442.378.728 0 1.409-.224 2.044-.672l.448 1.204c-.644.541-1.484.812-2.52.812-1.13 0-2.002-.327-2.618-.98-.607-.663-.91-1.493-.91-2.492 0-.989.303-1.815.91-2.478.616-.663 1.428-.994 2.436-.994.914 0 1.666.317 2.254.952.597.635.896 1.484.896 2.548zm-5.124-.644h3.752c-.019-.383-.182-.728-.49-1.036-.308-.317-.756-.476-1.344-.476-.57 0-1.027.159-1.372.476-.346.317-.528.663-.546 1.036zm11.843-5.88h1.344V412h-1.344v-.98c-.56.728-1.307 1.092-2.24 1.092-.971 0-1.773-.336-2.408-1.008-.635-.672-.952-1.493-.952-2.464 0-.971.317-1.792.952-2.464.635-.672 1.437-1.008 2.408-1.008.933 0 1.68.364 2.24 1.092v-4.116zm-3.64 8.008c.42.411.924.616 1.512.616s1.087-.205 1.498-.616c.42-.42.63-.924.63-1.512s-.21-1.087-.63-1.498c-.411-.42-.91-.63-1.498-.63s-1.092.21-1.512.63c-.411.411-.616.91-.616 1.498s.205 1.092.616 1.512zm12.834-8.008v4.116c.56-.728 1.306-1.092 2.24-1.092.97 0 1.773.336 2.408 1.008.634.672.952 1.493.952 2.464 0 .971-.318 1.792-.952 2.464-.635.672-1.438 1.008-2.408 1.008-.934 0-1.68-.364-2.24-1.092v.98h-1.344v-9.856h1.344zm.616 8.008c.42.411.924.616 1.512.616s1.087-.205 1.498-.616c.42-.42.63-.924.63-1.512s-.21-1.087-.63-1.498c-.411-.42-.91-.63-1.498-.63s-1.092.21-1.512.63c-.411.411-.616.91-.616 1.498s.205 1.092.616 1.512zm10.998-4.872h1.498l-4.55 10.304h-1.47l1.792-4.018-2.716-6.286h1.498l1.974 4.648 1.974-4.648zm7.798-1.484c.691-.952 1.578-1.428 2.66-1.428 1.083 0 1.97.476 2.66 1.428.691.952 1.036 2.119 1.036 3.5 0 1.381-.345 2.548-1.036 3.5-.69.952-1.577 1.428-2.66 1.428-1.092 0-1.983-.471-2.674-1.414-.681-.952-1.022-2.123-1.022-3.514 0-1.381.346-2.548 1.036-3.5zm1.316 5.726c.374.607.822.91 1.344.91.523 0 .971-.303 1.344-.91.374-.616.56-1.358.56-2.226 0-.868-.186-1.605-.56-2.212-.373-.616-.821-.924-1.344-.924-.522 0-.97.308-1.344.924-.373.607-.56 1.344-.56 2.212 0 .868.187 1.61.56 2.226zm12.881-1.106h1.12v1.792h-1.12V412h-1.792v-1.792h-4.704v-1.568l4.256-6.048h2.24v5.824zm-1.792 0v-3.696l-2.506 3.696h2.506zm4.475-2.688c.056-.961.383-1.759.98-2.394.597-.644 1.391-.966 2.38-.966.98 0 1.783.28 2.408.84.635.56.952 1.325.952 2.296 0 .709-.224 1.4-.672 2.072-.448.663-1.195 1.54-2.24 2.632h3.36V412h-7.392l3.808-4.032c.896-.98 1.344-1.764 1.344-2.352 0-.457-.14-.812-.42-1.064-.271-.261-.653-.392-1.148-.392-.476 0-.849.168-1.12.504-.261.327-.411.756-.448 1.288l-1.792-.224zM623.18 412h-1.792v-9.408h5.824v1.792h-4.032v2.016h3.36v1.792h-3.36V412zm12.54 0h-2.184l-2.114-3.136h-1.078V412h-1.792v-9.408h3.36c1.186 0 2.077.285 2.674.854.607.569.91 1.33.91 2.282 0 .681-.191 1.302-.574 1.862-.382.551-.91.929-1.582 1.134l2.38 3.276zm-5.376-7.616v2.688h1.792c.439 0 .808-.126 1.106-.378.308-.252.462-.574.462-.966 0-.429-.149-.761-.448-.994-.289-.233-.662-.35-1.12-.35h-1.792zm13.67 7.616h-7.392l4.48-7.616h-4.256v-1.792h7.392l-4.48 7.616h4.256V412zm1.573-8.736l3.584-.896V412h-1.792v-7.448l-1.792.392v-1.68zm6.418.532c.691-.952 1.577-1.428 2.66-1.428 1.083 0 1.969.476 2.66 1.428.691.952 1.036 2.119 1.036 3.5 0 1.381-.345 2.548-1.036 3.5-.691.952-1.577 1.428-2.66 1.428-1.092 0-1.983-.471-2.674-1.414-.681-.952-1.022-2.123-1.022-3.514 0-1.381.345-2.548 1.036-3.5zm1.316 5.726c.373.607.821.91 1.344.91.523 0 .971-.303 1.344-.91.373-.616.56-1.358.56-2.226 0-.868-.187-1.605-.56-2.212-.373-.616-.821-.924-1.344-.924-.523 0-.971.308-1.344.924-.373.607-.56 1.344-.56 2.212 0 .868.187 1.61.56 2.226zm7.42-5.726c.691-.952 1.578-1.428 2.66-1.428 1.083 0 1.97.476 2.66 1.428.691.952 1.036 2.119 1.036 3.5 0 1.381-.345 2.548-1.036 3.5-.69.952-1.577 1.428-2.66 1.428-1.092 0-1.983-.471-2.674-1.414-.681-.952-1.022-2.123-1.022-3.514 0-1.381.346-2.548 1.036-3.5zm1.316 5.726c.374.607.822.91 1.344.91.523 0 .971-.303 1.344-.91.374-.616.56-1.358.56-2.226 0-.868-.186-1.605-.56-2.212-.373-.616-.821-.924-1.344-.924-.522 0-.97.308-1.344.924-.373.607-.56 1.344-.56 2.212 0 .868.187 1.61.56 2.226zm12.545-2.8c.821.597 1.232 1.386 1.232 2.366 0 .915-.36 1.666-1.078 2.254-.71.588-1.582.882-2.618.882-1.036 0-1.914-.294-2.632-.882-.71-.588-1.064-1.339-1.064-2.254 0-.961.406-1.75 1.218-2.366a2.095 2.095 0 01-.77-1.666c0-.765.312-1.405.938-1.918.634-.513 1.404-.77 2.31-.77.896 0 1.656.257 2.282.77.634.513.952 1.153.952 1.918 0 .653-.257 1.209-.77 1.666zm-1.442-2.268c-.28-.196-.621-.294-1.022-.294-.402 0-.747.098-1.036.294-.28.196-.42.434-.42.714 0 .28.14.518.42.714.289.196.634.294 1.036.294.401 0 .742-.098 1.022-.294.289-.196.434-.434.434-.714 0-.28-.145-.518-.434-.714zm-2.366 5.558c.373.28.821.42 1.344.42.522 0 .97-.14 1.344-.42.373-.289.56-.635.56-1.036s-.187-.742-.56-1.022c-.374-.289-.822-.434-1.344-.434-.523 0-.971.145-1.344.434-.374.28-.56.621-.56 1.022s.186.747.56 1.036zM408.75 403.88c.653-.933 1.489-1.4 2.506-1.4 1.017 0 1.848.467 2.492 1.4.653.924.98 2.063.98 3.416 0 1.353-.327 2.497-.98 3.43-.644.924-1.475 1.386-2.492 1.386-1.027 0-1.862-.462-2.506-1.386-.644-.933-.966-2.077-.966-3.43 0-1.353.322-2.492.966-3.416zm.994 5.88c.42.672.924 1.008 1.512 1.008s1.087-.336 1.498-1.008c.42-.681.63-1.503.63-2.464 0-.961-.21-1.778-.63-2.45-.411-.681-.91-1.022-1.498-1.022s-1.092.341-1.512 1.022c-.411.672-.616 1.489-.616 2.45 0 .961.205 1.783.616 2.464zm10.296-4.34c.942 0 1.712.313 2.31.938.597.616.896 1.353.896 2.212 0 1.045-.327 1.899-.98 2.562-.644.653-1.475.98-2.492.98-1.027 0-1.862-.331-2.506-.994-.644-.663-.966-1.545-.966-2.646 0-1.045.275-2.109.826-3.192.55-1.092 1.372-1.988 2.464-2.688h2.38a2.123 2.123 0 00-.28.112c-.122.047-.35.163-.686.35a7.056 7.056 0 00-.952.602c-.29.224-.607.532-.952.924a5.44 5.44 0 00-.826 1.246c.485-.271 1.073-.406 1.764-.406zm-1.792 4.76c.401.392.91.588 1.526.588s1.124-.196 1.526-.588a1.94 1.94 0 00.602-1.442c0-.569-.196-1.041-.588-1.414-.383-.373-.896-.56-1.54-.56-.616 0-1.125.191-1.526.574a1.83 1.83 0 00-.602 1.4c0 .569.2 1.05.602 1.442zm7.579-2.996a.972.972 0 01-.714-.294.972.972 0 01-.294-.714c0-.289.098-.527.294-.714a.972.972 0 01.714-.294c.289 0 .527.098.714.294a.944.944 0 01.294.714c0 .28-.098.518-.294.714a.944.944 0 01-.714.294zm0 4.928a.972.972 0 01-.714-.294.972.972 0 01-.294-.714c0-.28.098-.518.294-.714a.972.972 0 01.714-.294c.289 0 .527.098.714.294a.972.972 0 01.294.714c0 .28-.098.518-.294.714a.944.944 0 01-.714.294zm3.54-8.232c.654-.933 1.489-1.4 2.506-1.4 1.018 0 1.848.467 2.492 1.4.654.924.98 2.063.98 3.416 0 1.353-.326 2.497-.98 3.43-.644.924-1.474 1.386-2.492 1.386-1.026 0-1.862-.462-2.506-1.386-.644-.933-.966-2.077-.966-3.43 0-1.353.322-2.492.966-3.416zm.994 5.88c.42.672.924 1.008 1.512 1.008s1.088-.336 1.498-1.008c.42-.681.63-1.503.63-2.464 0-.961-.21-1.778-.63-2.45-.41-.681-.91-1.022-1.498-1.022s-1.092.341-1.512 1.022c-.41.672-.616 1.489-.616 2.45 0 .961.206 1.783.616 2.464zm7.524-5.88c.653-.933 1.488-1.4 2.506-1.4 1.017 0 1.848.467 2.492 1.4.653.924.98 2.063.98 3.416 0 1.353-.327 2.497-.98 3.43-.644.924-1.475 1.386-2.492 1.386-1.027 0-1.862-.462-2.506-1.386-.644-.933-.966-2.077-.966-3.43 0-1.353.322-2.492.966-3.416zm.994 5.88c.42.672.924 1.008 1.512 1.008s1.087-.336 1.498-1.008c.42-.681.63-1.503.63-2.464 0-.961-.21-1.778-.63-2.45-.411-.681-.91-1.022-1.498-1.022s-1.092.341-1.512 1.022c-.411.672-.616 1.489-.616 2.45 0 .961.205 1.783.616 2.464zm10.365-4.592c.971 0 1.774.336 2.408 1.008.635.672.952 1.493.952 2.464 0 .971-.317 1.792-.952 2.464-.634.672-1.437 1.008-2.408 1.008-.933 0-1.68-.364-2.24-1.092v4.564h-1.344V405.28h1.344v.98c.56-.728 1.307-1.092 2.24-1.092zm-1.624 4.984c.42.411.924.616 1.512.616s1.088-.205 1.498-.616c.42-.42.63-.924.63-1.512s-.21-1.087-.63-1.498c-.41-.42-.91-.63-1.498-.63s-1.092.21-1.512.63c-.41.411-.616.91-.616 1.498s.206 1.092.616 1.512zm13.925-4.984c.746 0 1.33.266 1.75.798.42.532.63 1.293.63 2.282V412h-1.344v-3.752c0-1.157-.43-1.736-1.288-1.736-.43 0-.808.163-1.134.49-.327.327-.49.761-.49 1.302V412h-1.344v-3.752c0-1.157-.43-1.736-1.288-1.736-.43 0-.808.163-1.134.49-.327.327-.49.761-.49 1.302V412h-1.344v-6.72h1.344v.784a4.62 4.62 0 01.434-.434c.121-.112.308-.215.56-.308.261-.103.555-.154.882-.154.877 0 1.521.355 1.932 1.064.354-.383.709-.653 1.064-.812.364-.168.784-.252 1.26-.252z" fill="#4C4C4C"/>
  </g>
  <circle cx="121" cy="61" r="30" fill="#4C4C4C"/>
  <g clip-path="url(#loblaw-ph_transaction_icons__clip4)">
    <path d="M128.846 41.257c-.466 0-.859.16-1.178.48a1.603 1.603 0 00-.479 1.178l-.018 4.77a20.176 20.176 0 00-7.394 1.629 19.646 19.646 0 00-6.251 4.208c-3.376 3.376-5.301 7.344-5.773 11.905-.473 4.56.536 8.884 3.029 12.973l.128.128c.16.16.357.24.59.24a.8.8 0 00.589-.24l3.664-3.664c.27-.27.313-.595.129-.976-.712-1.743-1.105-2.786-1.178-3.13a13.12 13.12 0 01.129-6.721 13.1 13.1 0 013.406-5.801c2.468-2.468 5.451-3.77 8.95-3.904l-.001 5.082c.001.466.16.86.48 1.179.319.319.712.478 1.178.479a1.6 1.6 0 001.179-.48l8.249-8.249a1.6 1.6 0 00.479-1.179c0-.466-.16-.858-.479-1.178l-8.25-8.25a1.598 1.598 0 00-1.178-.479z" fill="#fff"/>
  </g>
  <path d="M30.256 73.312c3.504 0 5.952-1.872 5.952-4.944 0-3.336-2.808-4.2-5.592-5.088-2.448-.768-3.384-1.32-3.384-2.616 0-1.272 1.032-2.088 2.64-2.088 1.872 0 2.928 1.008 3.528 2.352l2.328-1.344c-1.056-2.232-3.096-3.696-5.856-3.696-2.832 0-5.4 1.752-5.4 4.848 0 3.168 2.544 4.128 5.16 4.92 2.496.768 3.816 1.272 3.816 2.76 0 1.224-.936 2.208-3.12 2.208-2.28 0-3.576-1.128-4.176-2.832l-2.376 1.392c.888 2.496 3.168 4.128 6.48 4.128zM49.05 73l-5.472-6.12 5.28-5.88H45.69l-4.656 5.304V56.2h-2.592V73h2.592v-5.544L45.954 73h3.096zm3.04-13.8c.911 0 1.655-.768 1.655-1.656a1.66 1.66 0 00-1.656-1.656 1.66 1.66 0 00-1.656 1.656c0 .888.744 1.656 1.656 1.656zM50.792 73h2.592V61h-2.592v12zm12.394-12.312c-1.872 0-3.288.768-4.2 2.04V61h-2.592v16.8h2.592v-6.504c.912 1.248 2.328 2.016 4.2 2.016 3.264 0 5.976-2.736 5.976-6.312 0-3.552-2.712-6.312-5.976-6.312zm-.408 10.152c-2.16 0-3.792-1.608-3.792-3.84 0-2.232 1.632-3.84 3.792-3.84S66.57 64.768 66.57 67c0 2.232-1.632 3.84-3.792 3.84z" fill="#1A1A1A"/>
  <circle cx="121" cy="293" r="30" fill="#E1251B"/>
  <g clip-path="url(#loblaw-ph_transaction_icons__clip5)">
    <path d="M133.432 284.92l-8.08 8.081 8.08 8.08a3.077 3.077 0 01-4.35 4.352L121 297.352l-8.081 8.081c-.6.601-1.388.901-2.175.901a3.077 3.077 0 01-2.175-5.253l8.079-8.08-8.08-8.081a3.077 3.077 0 114.351-4.352l8.081 8.081 8.081-8.081a3.078 3.078 0 014.351 4.352z" fill="#fff"/>
  </g>
  <path d="M34.499 185.312c3.504 0 5.952-1.872 5.952-4.944 0-3.336-2.808-4.2-5.592-5.088-2.448-.768-3.384-1.32-3.384-2.616 0-1.272 1.032-2.088 2.64-2.088 1.872 0 2.928 1.008 3.528 2.352l2.328-1.344c-1.056-2.232-3.096-3.696-5.856-3.696-2.832 0-5.4 1.752-5.4 4.848 0 3.168 2.544 4.128 5.16 4.92 2.496.768 3.816 1.272 3.816 2.76 0 1.224-.936 2.208-3.12 2.208-2.28 0-3.576-1.128-4.176-2.832l-2.376 1.392c.888 2.496 3.168 4.128 6.48 4.128zM50.772 173v6.432c0 2.448-1.344 3.456-3.048 3.456-1.632 0-2.688-.96-2.688-2.784V173h-2.592v7.368c0 3.12 1.92 4.944 4.608 4.944 1.632 0 2.928-.6 3.72-1.848V185h2.592v-12h-2.592zm12.415-.312c-1.872 0-3.288.768-4.2 2.016V168.2h-2.592V185h2.592v-1.728c.912 1.272 2.328 2.04 4.2 2.04 3.264 0 5.976-2.76 5.976-6.312 0-3.576-2.712-6.312-5.976-6.312zm-.408 10.152c-2.16 0-3.792-1.608-3.792-3.84 0-2.232 1.632-3.84 3.792-3.84s3.792 1.608 3.792 3.84c0 2.232-1.632 3.84-3.792 3.84z" fill="#1A1A1A"/>
  <circle cx="121" cy="177" r="30" fill="#D57F07"/>
  <g clip-path="url(#loblaw-ph_transaction_icons__clip6)" fill="#fff">
    <path d="M138.558 160.944a1.444 1.444 0 00-1.055-.445c-.406 0-.757.149-1.054.445l-3.047 3.024a18.16 18.16 0 00-5.742-3.668 17.692 17.692 0 00-6.657-1.3c-4.297 0-8.047 1.3-11.25 3.902-3.204 2.601-5.313 5.996-6.328 10.183v.164c0 .203.074.379.222.528a.722.722 0 00.527.222h4.664c.344 0 .579-.18.704-.539.656-1.562 1.07-2.476 1.242-2.742a11.81 11.81 0 014.359-4.195 11.792 11.792 0 015.86-1.524c3.141 0 5.867 1.07 8.18 3.211l-3.235 3.234a1.446 1.446 0 00-.445 1.055c0 .407.149.758.445 1.055.297.297.649.445 1.055.445h10.5c.406 0 .758-.148 1.055-.445a1.44 1.44 0 00.445-1.055v-10.5c0-.406-.148-.758-.445-1.055zM137.666 180h-4.5c-.343 0-.578.18-.703.54-.655 1.562-1.07 2.476-1.242 2.741a11.828 11.828 0 01-4.359 4.196 11.79 11.79 0 01-5.859 1.523c-1.516 0-2.977-.281-4.383-.843a12.104 12.104 0 01-3.774-2.392l3.211-3.21c.297-.297.446-.649.446-1.055 0-.406-.149-.758-.446-1.055a1.438 1.438 0 00-1.054-.445h-10.5c-.407 0-.759.148-1.055.445a1.443 1.443 0 00-.446 1.055V192c0 .406.149.758.446 1.055.297.296.648.446 1.055.446.406 0 .757-.15 1.054-.446l3.024-3.024a17.88 17.88 0 005.707 3.68c2.133.86 4.34 1.289 6.621 1.289 4.282 0 8.016-1.301 11.203-3.902 3.188-2.602 5.282-5.997 6.282-10.184a.72.72 0 00-.2-.691.722.722 0 00-.528-.223z"/>
  </g>
  <path d="M17.6 301.312c3.504 0 5.952-1.872 5.952-4.944 0-3.336-2.808-4.2-5.592-5.088-2.448-.768-3.384-1.32-3.384-2.616 0-1.272 1.032-2.088 2.64-2.088 1.872 0 2.928 1.008 3.528 2.352l2.328-1.344c-1.056-2.232-3.096-3.696-5.856-3.696-2.832 0-5.4 1.752-5.4 4.848 0 3.168 2.544 4.128 5.16 4.92 2.496.768 3.816 1.272 3.816 2.76 0 1.224-.936 2.208-3.12 2.208-2.28 0-3.576-1.128-4.176-2.832l-2.376 1.392c.888 2.496 3.168 4.128 6.48 4.128zm14.497-12.624c-1.632 0-2.928.6-3.72 1.848V284.2h-2.592V301h2.592v-6.432c0-2.448 1.344-3.456 3.048-3.456 1.632 0 2.688.96 2.688 2.784V301h2.592v-7.368c0-3.12-1.92-4.944-4.608-4.944zm13.063 12.624c3.528 0 6.336-2.76 6.336-6.312 0-3.576-2.808-6.312-6.336-6.312-3.504 0-6.336 2.736-6.336 6.312 0 3.552 2.832 6.312 6.336 6.312zm0-2.52c-2.112 0-3.744-1.608-3.744-3.792 0-2.184 1.632-3.792 3.744-3.792s3.744 1.608 3.744 3.792c0 2.184-1.632 3.792-3.744 3.792zm11.272-7.776V289H53.84v12h2.592v-6.048c0-2.688 1.992-3.48 3.696-3.36v-2.808c-1.512 0-2.976.6-3.696 2.232zm12.612.48V289h-2.976v-3.36l-2.592.768V289h-2.208v2.496h2.208v5.76c0 3.12 1.584 4.224 5.568 3.744v-2.328c-1.968.096-2.976.12-2.976-1.416v-5.76h2.976z" fill="#1A1A1A"/>
  <circle cx="121" cy="409" r="30" fill="#467E1B"/>
  <g clip-path="url(#loblaw-ph_transaction_icons__clip7)">
    <path d="M121.761 421.313a4.91 4.91 0 01-7.6.374l-8.849-9.82a3.801 3.801 0 115.648-5.091l6.261 6.948a.465.465 0 00.715-.035l12.868-17.453a3.803 3.803 0 116.12 4.513l-15.163 20.564z" fill="#fff"/>
  </g>
  <path d="M18.588 415.36V401.2h-2.76V418h9.6v-2.64h-6.84zm14.01 2.952c3.528 0 6.336-2.76 6.336-6.312 0-3.576-2.808-6.312-6.336-6.312-3.504 0-6.336 2.736-6.336 6.312 0 3.552 2.832 6.312 6.336 6.312zm0-2.52c-2.112 0-3.744-1.608-3.744-3.792 0-2.184 1.632-3.792 3.744-3.792s3.744 1.608 3.744 3.792c0 2.184-1.632 3.792-3.744 3.792zM50.782 406v1.704c-.912-1.248-2.328-2.016-4.2-2.016-3.264 0-5.976 2.736-5.976 6.312 0 3.552 2.712 6.312 5.976 6.312 1.872 0 3.288-.768 4.2-2.04V418h2.592v-12h-2.592zm-3.792 9.84c-2.16 0-3.792-1.608-3.792-3.84 0-2.232 1.632-3.84 3.792-3.84s3.792 1.608 3.792 3.84c0 2.232-1.632 3.84-3.792 3.84zm18.909-14.64v6.504c-.912-1.248-2.328-2.016-4.2-2.016-3.264 0-5.976 2.736-5.976 6.312 0 3.552 2.712 6.312 5.976 6.312 1.872 0 3.288-.768 4.2-2.04V418h2.592v-16.8h-2.592zm-3.792 14.64c-2.16 0-3.792-1.608-3.792-3.84 0-2.232 1.632-3.84 3.792-3.84s3.792 1.608 3.792 3.84c0 2.232-1.632 3.84-3.792 3.84z" fill="#1A1A1A"/>
  <path d="M397 292H162v2h235v-2z" fill="#E1251B"/>
  <path d="M397 408H162v2h235v-2z" fill="#467E1B"/>
  <path d="M397 234H281.5v2H397v-2zm-116.5-1v-54h-2v54h2zm-3-57H162v2h115.5v-2zm3 3a3 3 0 00-3-3v2a1 1 0 011 1h2zm1 55a1 1 0 01-1-1h-2a3 3 0 003 3v-2z" fill="#D57F07"/>
  <path d="M397 118H281.5v2H397v-2zm-116.5-1V63h-2v54h2zm-3-57H162v2h115.5v-2zm3 3a3 3 0 00-3-3v2a1 1 0 011 1h2zm1 55a1 1 0 01-1-1h-2a3 3 0 003 3v-2z" fill="#4C4C4C"/>
  <defs>
    <clipPath id="loblaw-ph_transaction_icons__clip0">
      <path fill="#fff" transform="rotate(-45 389.042 -523.832)" d="M0 0h16v16H0z"/>
    </clipPath>
    <clipPath id="loblaw-ph_transaction_icons__clip1">
      <path fill="#fff" transform="translate(485.8 227.8)" d="M0 0h14.4v14.4H0z"/>
    </clipPath>
    <clipPath id="loblaw-ph_transaction_icons__clip2">
      <path fill="#fff" transform="translate(487.667 287.667)" d="M0 0h10.667v10.667H0z"/>
    </clipPath>
    <clipPath id="loblaw-ph_transaction_icons__clip3">
      <path fill="#fff" transform="translate(486.333 402.333)" d="M0 0h13.333v13.333H0z"/>
    </clipPath>
    <clipPath id="loblaw-ph_transaction_icons__clip4">
      <path fill="#fff" transform="rotate(-45 131.372 -86.132)" d="M0 0h40v40H0z"/>
    </clipPath>
    <clipPath id="loblaw-ph_transaction_icons__clip5">
      <path fill="#fff" transform="translate(107.667 279.667)" d="M0 0h26.667v26.667H0z"/>
    </clipPath>
    <clipPath id="loblaw-ph_transaction_icons__clip6">
      <path fill="#fff" transform="translate(103 159)" d="M0 0h36v36H0z"/>
    </clipPath>
    <clipPath id="loblaw-ph_transaction_icons__clip7">
      <path fill="#fff" transform="translate(104.333 392.333)" d="M0 0h33.333v33.333H0z"/>
    </clipPath>
    <filter id="loblaw-ph_transaction_icons__filter0_dd" x="361" y="4" width="637" height="468" filterUnits="userSpaceOnUse" color-interpolation-filters="sRGB">
      <feFlood flood-opacity="0" result="BackgroundImageFix"/>
      <feColorMatrix in="SourceAlpha" values="0 0 0 0 0 0 0 0 0 0 0 0 0 0 0 0 0 0 127 0"/>
      <feOffset/>
      <feGaussianBlur stdDeviation="1"/>
      <feColorMatrix values="0 0 0 0 0 0 0 0 0 0 0 0 0 0 0 0 0 0 0.12 0"/>
      <feBlend in2="BackgroundImageFix" result="effect1_dropShadow"/>
      <feColorMatrix in="SourceAlpha" values="0 0 0 0 0 0 0 0 0 0 0 0 0 0 0 0 0 0 127 0"/>
      <feOffset dy="1"/>
      <feGaussianBlur stdDeviation=".5"/>
      <feColorMatrix values="0 0 0 0 0 0 0 0 0 0 0 0 0 0 0 0 0 0 0.12 0"/>
      <feBlend in2="effect1_dropShadow" result="effect2_dropShadow"/>
      <feBlend in="SourceGraphic" in2="effect2_dropShadow" result="shape"/>
    </filter>
  </defs>
</svg>
