<svg width="932" height="282" viewBox="0 0 932 282" fill="none" xmlns="http://www.w3.org/2000/svg">
<path d="M545 10C545 5.58172 548.582 2 553 2H886C890.418 2 894 5.58172 894 10V63C894 67.4183 890.418 71 886 71H553C548.582 71 545 67.4183 545 63V10Z" fill="white"/>
<path d="M581.124 45H584.436L590.268 28.2H587.268L582.78 41.664L578.316 28.2H575.292L581.124 45ZM599.969 33V34.704C599.057 33.456 597.641 32.688 595.769 32.688C592.505 32.688 589.793 35.424 589.793 39C589.793 42.552 592.505 45.312 595.769 45.312C597.641 45.312 599.057 44.544 599.969 43.272V45H602.561V33H599.969ZM596.177 42.84C594.017 42.84 592.385 41.232 592.385 39C592.385 36.768 594.017 35.16 596.177 35.16C598.337 35.16 599.969 36.768 599.969 39C599.969 41.232 598.337 42.84 596.177 42.84ZM605.582 45H608.174V27.48H605.582V45ZM612.48 31.2C613.392 31.2 614.136 30.432 614.136 29.544C614.136 28.632 613.392 27.888 612.48 27.888C611.568 27.888 610.824 28.632 610.824 29.544C610.824 30.432 611.568 31.2 612.48 31.2ZM611.184 45H613.776V33H611.184V45ZM626.289 28.2V34.704C625.377 33.456 623.961 32.688 622.089 32.688C618.825 32.688 616.113 35.424 616.113 39C616.113 42.552 618.825 45.312 622.089 45.312C623.961 45.312 625.377 44.544 626.289 43.272V45H628.881V28.2H626.289ZM622.497 42.84C620.337 42.84 618.705 41.232 618.705 39C618.705 36.768 620.337 35.16 622.497 35.16C624.657 35.16 626.289 36.768 626.289 39C626.289 41.232 624.657 42.84 622.497 42.84ZM641.407 33V34.704C640.495 33.456 639.079 32.688 637.207 32.688C633.943 32.688 631.231 35.424 631.231 39C631.231 42.552 633.943 45.312 637.207 45.312C639.079 45.312 640.495 44.544 641.407 43.272V45H643.999V33H641.407ZM637.615 42.84C635.455 42.84 633.823 41.232 633.823 39C633.823 36.768 635.455 35.16 637.615 35.16C639.775 35.16 641.407 36.768 641.407 39C641.407 41.232 639.775 42.84 637.615 42.84ZM653.716 35.496V33H650.74V29.64L648.148 30.408V33H645.94V35.496H648.148V41.256C648.148 44.376 649.732 45.48 653.716 45V42.672C651.748 42.768 650.74 42.792 650.74 41.256V35.496H653.716ZM657.615 40.104H667.167C667.215 39.768 667.263 39.384 667.263 39.024C667.263 35.568 664.815 32.688 661.239 32.688C657.471 32.688 654.903 35.448 654.903 39C654.903 42.6 657.471 45.312 661.431 45.312C663.783 45.312 665.583 44.328 666.687 42.696L664.551 41.448C663.975 42.288 662.895 42.936 661.455 42.936C659.535 42.936 658.023 41.976 657.615 40.104ZM657.59 37.992C657.951 36.192 659.271 35.04 661.215 35.04C662.775 35.04 664.287 35.928 664.647 37.992H657.59ZM681.207 45.312C684.735 45.312 687.543 42.552 687.543 39C687.543 35.424 684.735 32.688 681.207 32.688C677.703 32.688 674.871 35.424 674.871 39C674.871 42.552 677.703 45.312 681.207 45.312ZM681.207 42.792C679.095 42.792 677.463 41.184 677.463 39C677.463 36.816 679.095 35.208 681.207 35.208C683.319 35.208 684.951 36.816 684.951 39C684.951 41.184 683.319 42.792 681.207 42.792ZM692.479 35.016V33H689.887V45H692.479V38.952C692.479 36.264 694.471 35.472 696.175 35.592V32.784C694.663 32.784 693.199 33.384 692.479 35.016ZM707.032 28.2V34.704C706.12 33.456 704.704 32.688 702.832 32.688C699.568 32.688 696.856 35.424 696.856 39C696.856 42.552 699.568 45.312 702.832 45.312C704.704 45.312 706.12 44.544 707.032 43.272V45H709.624V28.2H707.032ZM703.24 42.84C701.08 42.84 699.448 41.232 699.448 39C699.448 36.768 701.08 35.16 703.24 35.16C705.4 35.16 707.032 36.768 707.032 39C707.032 41.232 705.4 42.84 703.24 42.84ZM714.685 40.104H724.237C724.285 39.768 724.333 39.384 724.333 39.024C724.333 35.568 721.885 32.688 718.309 32.688C714.541 32.688 711.973 35.448 711.973 39C711.973 42.6 714.541 45.312 718.501 45.312C720.853 45.312 722.653 44.328 723.757 42.696L721.621 41.448C721.045 42.288 719.965 42.936 718.525 42.936C716.605 42.936 715.093 41.976 714.685 40.104ZM714.661 37.992C715.021 36.192 716.341 35.04 718.285 35.04C719.845 35.04 721.357 35.928 721.717 37.992H714.661ZM729.206 35.016V33H726.614V45H729.206V38.952C729.206 36.264 731.198 35.472 732.902 35.592V32.784C731.39 32.784 729.926 33.384 729.206 35.016ZM746.481 45.312C748.833 45.312 750.873 44.088 751.881 42.192L749.649 40.92C749.073 42.024 747.897 42.768 746.457 42.768C744.345 42.768 742.737 41.16 742.737 39C742.737 36.84 744.345 35.232 746.457 35.232C747.897 35.232 749.073 35.952 749.601 37.08L751.833 35.784C750.873 33.912 748.833 32.688 746.481 32.688C742.857 32.688 740.145 35.424 740.145 39C740.145 42.552 742.857 45.312 746.481 45.312ZM759.231 45.312C762.759 45.312 765.567 42.552 765.567 39C765.567 35.424 762.759 32.688 759.231 32.688C755.727 32.688 752.895 35.424 752.895 39C752.895 42.552 755.727 45.312 759.231 45.312ZM759.231 42.792C757.119 42.792 755.487 41.184 755.487 39C755.487 36.816 757.119 35.208 759.231 35.208C761.343 35.208 762.975 36.816 762.975 39C762.975 41.184 761.343 42.792 759.231 42.792ZM781.014 32.688C779.406 32.688 778.134 33.336 777.342 34.584C776.646 33.384 775.494 32.688 773.934 32.688C772.446 32.688 771.27 33.264 770.502 34.44V33H767.91V45H770.502V38.28C770.502 36.096 771.702 35.112 773.166 35.112C774.582 35.112 775.422 36.048 775.422 37.728V45H778.014V38.28C778.014 36.096 779.094 35.112 780.63 35.112C782.046 35.112 782.958 36.048 782.958 37.728V45H785.55V37.56C785.55 34.56 783.726 32.688 781.014 32.688ZM795.117 32.688C793.245 32.688 791.829 33.456 790.917 34.728V33H788.325V49.8H790.917V43.296C791.829 44.544 793.245 45.312 795.117 45.312C798.381 45.312 801.093 42.576 801.093 39C801.093 35.448 798.381 32.688 795.117 32.688ZM794.709 42.84C792.549 42.84 790.917 41.232 790.917 39C790.917 36.768 792.549 35.16 794.709 35.16C796.869 35.16 798.501 36.768 798.501 39C798.501 41.232 796.869 42.84 794.709 42.84ZM803.442 45H806.034V27.48H803.442V45ZM811.083 40.104H820.635C820.683 39.768 820.731 39.384 820.731 39.024C820.731 35.568 818.283 32.688 814.707 32.688C810.939 32.688 808.371 35.448 808.371 39C808.371 42.6 810.939 45.312 814.899 45.312C817.251 45.312 819.051 44.328 820.155 42.696L818.019 41.448C817.443 42.288 816.363 42.936 814.923 42.936C813.003 42.936 811.491 41.976 811.083 40.104ZM811.059 37.992C811.419 36.192 812.739 35.04 814.683 35.04C816.243 35.04 817.755 35.928 818.115 37.992H811.059ZM829.333 35.496V33H826.357V29.64L823.765 30.408V33H821.557V35.496H823.765V41.256C823.765 44.376 825.349 45.48 829.333 45V42.672C827.365 42.768 826.357 42.792 826.357 41.256V35.496H829.333ZM832.98 31.2C833.892 31.2 834.636 30.432 834.636 29.544C834.636 28.632 833.892 27.888 832.98 27.888C832.068 27.888 831.324 28.632 831.324 29.544C831.324 30.432 832.068 31.2 832.98 31.2ZM831.684 45H834.276V33H831.684V45ZM842.949 45.312C846.477 45.312 849.285 42.552 849.285 39C849.285 35.424 846.477 32.688 842.949 32.688C839.445 32.688 836.613 35.424 836.613 39C836.613 42.552 839.445 45.312 842.949 45.312ZM842.949 42.792C840.837 42.792 839.205 41.184 839.205 39C839.205 36.816 840.837 35.208 842.949 35.208C845.061 35.208 846.693 36.816 846.693 39C846.693 41.184 845.061 42.792 842.949 42.792ZM857.941 32.688C856.309 32.688 855.013 33.288 854.221 34.536V33H851.629V45H854.221V38.568C854.221 36.12 855.565 35.112 857.269 35.112C858.901 35.112 859.957 36.072 859.957 37.896V45H862.549V37.632C862.549 34.512 860.629 32.688 857.941 32.688Z" fill="#1A1A1A"/>
<path d="M553 3H886V1H553V3ZM893 10V63H895V10H893ZM886 70H553V72H886V70ZM546 63V10H544V63H546ZM553 70C549.134 70 546 66.866 546 63H544C544 67.9706 548.029 72 553 72V70ZM893 63C893 66.866 889.866 70 886 70V72C890.971 72 895 67.9706 895 63H893ZM886 3C889.866 3 893 6.13401 893 10H895C895 5.02944 890.971 1 886 1V3ZM553 1C548.029 1 544 5.02944 544 10H546C546 6.13401 549.134 3 553 3V1Z" fill="#E5E5E5"/>
<path d="M32 10C32 5.58172 35.5817 2 40 2H410C414.418 2 418 5.58172 418 10V63C418 67.4183 414.418 71 410 71H40C35.5817 71 32 67.4183 32 63V10Z" fill="white"/>
<path d="M75.0029 45H77.9789L71.9069 28.2H68.5949L62.4989 45H65.4989L66.6749 41.616H73.8269L75.0029 45ZM67.5869 39.024L70.2509 31.44L72.9149 39.024H67.5869ZM88.8168 28.2V34.704C87.9048 33.456 86.4888 32.688 84.6168 32.688C81.3528 32.688 78.6408 35.424 78.6408 39C78.6408 42.552 81.3528 45.312 84.6168 45.312C86.4888 45.312 87.9048 44.544 88.8168 43.272V45H91.4088V28.2H88.8168ZM85.0248 42.84C82.8648 42.84 81.2328 41.232 81.2328 39C81.2328 36.768 82.8648 35.16 85.0248 35.16C87.1848 35.16 88.8168 36.768 88.8168 39C88.8168 41.232 87.1848 42.84 85.0248 42.84ZM103.934 28.2V34.704C103.022 33.456 101.606 32.688 99.734 32.688C96.47 32.688 93.758 35.424 93.758 39C93.758 42.552 96.47 45.312 99.734 45.312C101.606 45.312 103.022 44.544 103.934 43.272V45H106.526V28.2H103.934ZM100.142 42.84C97.982 42.84 96.35 41.232 96.35 39C96.35 36.768 97.982 35.16 100.142 35.16C102.302 35.16 103.934 36.768 103.934 39C103.934 41.232 102.302 42.84 100.142 42.84ZM112.139 35.016V33H109.547V45H112.139V38.952C112.139 36.264 114.131 35.472 115.835 35.592V32.784C114.323 32.784 112.859 33.384 112.139 35.016ZM119.228 40.104H128.78C128.828 39.768 128.876 39.384 128.876 39.024C128.876 35.568 126.428 32.688 122.852 32.688C119.084 32.688 116.516 35.448 116.516 39C116.516 42.6 119.084 45.312 123.044 45.312C125.396 45.312 127.196 44.328 128.3 42.696L126.164 41.448C125.588 42.288 124.508 42.936 123.068 42.936C121.148 42.936 119.636 41.976 119.228 40.104ZM119.204 37.992C119.564 36.192 120.884 35.04 122.828 35.04C124.388 35.04 125.9 35.928 126.26 37.992H119.204ZM133.016 36.312C133.016 35.448 133.832 35.04 134.768 35.04C135.752 35.04 136.592 35.472 137.024 36.408L139.208 35.184C138.368 33.6 136.736 32.688 134.768 32.688C132.32 32.688 130.376 34.104 130.376 36.36C130.376 40.656 136.832 39.456 136.832 41.592C136.832 42.552 135.944 42.936 134.792 42.936C133.472 42.936 132.512 42.288 132.128 41.208L129.896 42.504C130.664 44.232 132.392 45.312 134.792 45.312C137.384 45.312 139.472 44.016 139.472 41.616C139.472 37.176 133.016 38.496 133.016 36.312ZM143.352 36.312C143.352 35.448 144.168 35.04 145.104 35.04C146.088 35.04 146.928 35.472 147.36 36.408L149.544 35.184C148.704 33.6 147.072 32.688 145.104 32.688C142.656 32.688 140.712 34.104 140.712 36.36C140.712 40.656 147.168 39.456 147.168 41.592C147.168 42.552 146.28 42.936 145.128 42.936C143.808 42.936 142.848 42.288 142.464 41.208L140.232 42.504C141 44.232 142.728 45.312 145.128 45.312C147.72 45.312 149.808 44.016 149.808 41.616C149.808 37.176 143.352 38.496 143.352 36.312ZM163.75 45.312C166.102 45.312 168.142 44.088 169.15 42.192L166.918 40.92C166.342 42.024 165.166 42.768 163.726 42.768C161.614 42.768 160.006 41.16 160.006 39C160.006 36.84 161.614 35.232 163.726 35.232C165.166 35.232 166.342 35.952 166.87 37.08L169.102 35.784C168.142 33.912 166.102 32.688 163.75 32.688C160.126 32.688 157.414 35.424 157.414 39C157.414 42.552 160.126 45.312 163.75 45.312ZM179.182 33V39.432C179.182 41.88 177.838 42.888 176.134 42.888C174.502 42.888 173.446 41.928 173.446 40.104V33H170.854V40.368C170.854 43.488 172.774 45.312 175.462 45.312C177.094 45.312 178.39 44.712 179.182 43.464V45H181.774V33H179.182ZM187.063 36.312C187.063 35.448 187.879 35.04 188.815 35.04C189.799 35.04 190.639 35.472 191.071 36.408L193.255 35.184C192.415 33.6 190.783 32.688 188.815 32.688C186.367 32.688 184.423 34.104 184.423 36.36C184.423 40.656 190.879 39.456 190.879 41.592C190.879 42.552 189.991 42.936 188.839 42.936C187.519 42.936 186.559 42.288 186.175 41.208L183.943 42.504C184.711 44.232 186.439 45.312 188.839 45.312C191.431 45.312 193.519 44.016 193.519 41.616C193.519 37.176 187.063 38.496 187.063 36.312ZM202.024 35.496V33H199.048V29.64L196.456 30.408V33H194.248V35.496H196.456V41.256C196.456 44.376 198.04 45.48 202.024 45V42.672C200.056 42.768 199.048 42.792 199.048 41.256V35.496H202.024ZM209.547 45.312C213.075 45.312 215.883 42.552 215.883 39C215.883 35.424 213.075 32.688 209.547 32.688C206.043 32.688 203.211 35.424 203.211 39C203.211 42.552 206.043 45.312 209.547 45.312ZM209.547 42.792C207.435 42.792 205.803 41.184 205.803 39C205.803 36.816 207.435 35.208 209.547 35.208C211.659 35.208 213.291 36.816 213.291 39C213.291 41.184 211.659 42.792 209.547 42.792ZM231.331 32.688C229.723 32.688 228.451 33.336 227.659 34.584C226.963 33.384 225.811 32.688 224.251 32.688C222.763 32.688 221.587 33.264 220.819 34.44V33H218.227V45H220.819V38.28C220.819 36.096 222.019 35.112 223.483 35.112C224.899 35.112 225.739 36.048 225.739 37.728V45H228.331V38.28C228.331 36.096 229.411 35.112 230.947 35.112C232.363 35.112 233.275 36.048 233.275 37.728V45H235.867V37.56C235.867 34.56 234.043 32.688 231.331 32.688ZM240.681 40.104H250.233C250.281 39.768 250.329 39.384 250.329 39.024C250.329 35.568 247.881 32.688 244.305 32.688C240.537 32.688 237.969 35.448 237.969 39C237.969 42.6 240.537 45.312 244.497 45.312C246.849 45.312 248.649 44.328 249.753 42.696L247.617 41.448C247.041 42.288 245.961 42.936 244.521 42.936C242.601 42.936 241.089 41.976 240.681 40.104ZM240.657 37.992C241.017 36.192 242.337 35.04 244.281 35.04C245.841 35.04 247.353 35.928 247.713 37.992H240.657ZM255.202 35.016V33H252.61V45H255.202V38.952C255.202 36.264 257.194 35.472 258.898 35.592V32.784C257.386 32.784 255.922 33.384 255.202 35.016ZM272.477 45.312C274.829 45.312 276.869 44.088 277.877 42.192L275.645 40.92C275.069 42.024 273.893 42.768 272.453 42.768C270.341 42.768 268.733 41.16 268.733 39C268.733 36.84 270.341 35.232 272.453 35.232C273.893 35.232 275.069 35.952 275.597 37.08L277.829 35.784C276.869 33.912 274.829 32.688 272.477 32.688C268.853 32.688 266.141 35.424 266.141 39C266.141 42.552 268.853 45.312 272.477 45.312ZM285.227 45.312C288.755 45.312 291.563 42.552 291.563 39C291.563 35.424 288.755 32.688 285.227 32.688C281.723 32.688 278.891 35.424 278.891 39C278.891 42.552 281.723 45.312 285.227 45.312ZM285.227 42.792C283.115 42.792 281.483 41.184 281.483 39C281.483 36.816 283.115 35.208 285.227 35.208C287.339 35.208 288.971 36.816 288.971 39C288.971 41.184 287.339 42.792 285.227 42.792ZM307.011 32.688C305.403 32.688 304.131 33.336 303.339 34.584C302.643 33.384 301.491 32.688 299.931 32.688C298.443 32.688 297.267 33.264 296.499 34.44V33H293.907V45H296.499V38.28C296.499 36.096 297.699 35.112 299.163 35.112C300.579 35.112 301.419 36.048 301.419 37.728V45H304.011V38.28C304.011 36.096 305.091 35.112 306.627 35.112C308.043 35.112 308.955 36.048 308.955 37.728V45H311.547V37.56C311.547 34.56 309.723 32.688 307.011 32.688ZM321.113 32.688C319.241 32.688 317.825 33.456 316.913 34.728V33H314.321V49.8H316.913V43.296C317.825 44.544 319.241 45.312 321.113 45.312C324.377 45.312 327.089 42.576 327.089 39C327.089 35.448 324.377 32.688 321.113 32.688ZM320.705 42.84C318.545 42.84 316.913 41.232 316.913 39C316.913 36.768 318.545 35.16 320.705 35.16C322.865 35.16 324.497 36.768 324.497 39C324.497 41.232 322.865 42.84 320.705 42.84ZM329.438 45H332.03V27.48H329.438V45ZM344.543 33V34.704C343.631 33.456 342.215 32.688 340.343 32.688C337.079 32.688 334.367 35.424 334.367 39C334.367 42.552 337.079 45.312 340.343 45.312C342.215 45.312 343.631 44.544 344.543 43.272V45H347.135V33H344.543ZM340.751 42.84C338.591 42.84 336.959 41.232 336.959 39C336.959 36.768 338.591 35.16 340.751 35.16C342.911 35.16 344.543 36.768 344.543 39C344.543 41.232 342.911 42.84 340.751 42.84ZM351.453 31.2C352.365 31.2 353.109 30.432 353.109 29.544C353.109 28.632 352.365 27.888 351.453 27.888C350.541 27.888 349.797 28.632 349.797 29.544C349.797 30.432 350.541 31.2 351.453 31.2ZM350.157 45H352.749V33H350.157V45ZM362.07 32.688C360.438 32.688 359.142 33.288 358.35 34.536V33H355.758V45H358.35V38.568C358.35 36.12 359.694 35.112 361.398 35.112C363.03 35.112 364.086 36.072 364.086 37.896V45H366.678V37.632C366.678 34.512 364.758 32.688 362.07 32.688ZM376.165 35.496V33H373.189V29.64L370.597 30.408V33H368.389V35.496H370.597V41.256C370.597 44.376 372.181 45.48 376.165 45V42.672C374.197 42.768 373.189 42.792 373.189 41.256V35.496H376.165ZM380.399 36.312C380.399 35.448 381.215 35.04 382.151 35.04C383.135 35.04 383.975 35.472 384.407 36.408L386.591 35.184C385.751 33.6 384.119 32.688 382.151 32.688C379.703 32.688 377.759 34.104 377.759 36.36C377.759 40.656 384.215 39.456 384.215 41.592C384.215 42.552 383.327 42.936 382.175 42.936C380.855 42.936 379.895 42.288 379.511 41.208L377.279 42.504C378.047 44.232 379.775 45.312 382.175 45.312C384.767 45.312 386.855 44.016 386.855 41.616C386.855 37.176 380.399 38.496 380.399 36.312Z" fill="#1A1A1A"/>
<path d="M40 3H410V1H40V3ZM417 10V63H419V10H417ZM410 70H40V72H410V70ZM33 63V10H31V63H33ZM40 70C36.134 70 33 66.866 33 63H31C31 67.9706 35.0294 72 40 72V70ZM417 63C417 66.866 413.866 70 410 70V72C414.971 72 419 67.9706 419 63H417ZM410 3C413.866 3 417 6.13401 417 10H419C419 5.02944 414.971 1 410 1V3ZM40 1C35.0294 1 31 5.02944 31 10H33C33 6.13401 36.134 3 40 3V1Z" fill="#E5E5E5"/>
<path d="M2 127C2 122.582 5.58172 119 10 119H252C256.418 119 260 122.582 260 127V187C260 191.418 256.418 195 252 195H10C5.58173 195 2 191.418 2 187V127Z" fill="white"/>
<path d="M34.1 151.076V147.52H38.44V146.596H34.1V143.124H38.79V142.2H33.12V152H38.86V151.076H34.1ZM46.2838 152L43.5538 148.374L46.1018 145H44.9958L42.9938 147.646L40.9918 145H39.8858L42.4478 148.374L39.7038 152H40.8098L42.9938 149.116L45.1778 152H46.2838ZM53.0684 145V146.372C52.4804 145.434 51.4864 144.832 50.2404 144.832C48.2664 144.832 46.6284 146.428 46.6284 148.5C46.6284 150.572 48.2664 152.168 50.2404 152.168C51.4864 152.168 52.4804 151.566 53.0684 150.628V152H53.9924V145H53.0684ZM50.3104 151.272C48.7564 151.272 47.5524 150.054 47.5524 148.5C47.5524 146.946 48.7564 145.728 50.3104 145.728C51.8644 145.728 53.0684 146.946 53.0684 148.5C53.0684 150.054 51.8644 151.272 50.3104 151.272ZM63.4108 144.832C62.5148 144.832 61.6608 145.238 61.1428 146.106C60.7508 145.294 59.9948 144.832 59.0148 144.832C58.1748 144.832 57.4188 145.168 56.8728 146.022V145H55.9488V152H56.8728V148.122C56.8728 146.386 57.8808 145.728 58.8888 145.728C59.8828 145.728 60.5268 146.386 60.5268 147.632V152H61.4508V148.122C61.4508 146.386 62.3188 145.728 63.3968 145.728C64.3908 145.728 65.1048 146.386 65.1048 147.632V152H66.0288V147.632C66.0288 145.882 64.9508 144.832 63.4108 144.832ZM68.2779 143.516C68.6559 143.516 68.9499 143.208 68.9499 142.844C68.9499 142.48 68.6559 142.172 68.2779 142.172C67.8999 142.172 67.6059 142.48 67.6059 142.844C67.6059 143.208 67.8999 143.516 68.2779 143.516ZM67.8159 152H68.7399V145H67.8159V152ZM73.9767 144.832C72.9827 144.832 72.1707 145.21 71.6247 146.092V145H70.7007V152H71.6247V148.332C71.6247 146.456 72.6607 145.728 73.8927 145.728C75.1107 145.728 75.7967 146.456 75.7967 147.702V152H76.7207V147.702C76.7207 145.952 75.6847 144.832 73.9767 144.832ZM81.7413 144.832C79.5713 144.832 78.0873 146.442 78.0873 148.5C78.0873 150.614 79.5993 152.168 81.8113 152.168C83.2253 152.168 84.3033 151.51 84.8913 150.558L84.0793 150.082C83.7013 150.754 82.9313 151.272 81.8253 151.272C80.3413 151.272 79.2353 150.39 79.0393 148.962H85.1853C85.1993 148.822 85.2133 148.668 85.2133 148.528C85.2133 146.61 83.8833 144.832 81.7413 144.832ZM81.7413 145.728C82.9453 145.728 84.0653 146.526 84.2613 148.066H79.0393C79.2213 146.694 80.2713 145.728 81.7413 145.728ZM98.6111 145L96.8891 150.81L95.0551 145H94.1311L92.2971 150.81L90.5751 145H89.6231L91.7791 152H92.7871L94.5931 146.358L96.3991 152H97.4071L99.5631 145H98.6111ZM104.233 144.832C103.239 144.832 102.427 145.21 101.881 146.092V142.2H100.957V152H101.881V148.332C101.881 146.456 102.917 145.728 104.149 145.728C105.367 145.728 106.053 146.456 106.053 147.702V152H106.977V147.702C106.977 145.952 105.941 144.832 104.233 144.832ZM111.997 144.832C109.827 144.832 108.343 146.442 108.343 148.5C108.343 150.614 109.855 152.168 112.067 152.168C113.481 152.168 114.559 151.51 115.147 150.558L114.335 150.082C113.957 150.754 113.187 151.272 112.081 151.272C110.597 151.272 109.491 150.39 109.295 148.962H115.441C115.455 148.822 115.469 148.668 115.469 148.528C115.469 146.61 114.139 144.832 111.997 144.832ZM111.997 145.728C113.201 145.728 114.321 146.526 114.517 148.066H109.295C109.477 146.694 110.527 145.728 111.997 145.728ZM120.444 145.896V145H118.428V143.04L117.504 143.32V145H116.034V145.896H117.504V150.138C117.504 151.818 118.554 152.28 120.444 152V151.188C119.086 151.244 118.428 151.342 118.428 150.138V145.896H120.444ZM125.26 144.832C124.266 144.832 123.454 145.21 122.908 146.092V142.2H121.984V152H122.908V148.332C122.908 146.456 123.944 145.728 125.176 145.728C126.394 145.728 127.08 146.456 127.08 147.702V152H128.004V147.702C128.004 145.952 126.968 144.832 125.26 144.832ZM133.025 144.832C130.855 144.832 129.371 146.442 129.371 148.5C129.371 150.614 130.883 152.168 133.095 152.168C134.509 152.168 135.587 151.51 136.175 150.558L135.363 150.082C134.985 150.754 134.215 151.272 133.109 151.272C131.625 151.272 130.519 150.39 130.323 148.962H136.469C136.483 148.822 136.497 148.668 136.497 148.528C136.497 146.61 135.167 144.832 133.025 144.832ZM133.025 145.728C134.229 145.728 135.349 146.526 135.545 148.066H130.323C130.505 146.694 131.555 145.728 133.025 145.728ZM138.89 146.162V145H137.966V152H138.89V148.108C138.89 146.372 139.982 145.784 141.102 145.784V144.888C140.206 144.888 139.38 145.182 138.89 146.162ZM153.331 144.832C152.435 144.832 151.581 145.238 151.063 146.106C150.671 145.294 149.915 144.832 148.935 144.832C148.095 144.832 147.339 145.168 146.793 146.022V145H145.869V152H146.793V148.122C146.793 146.386 147.801 145.728 148.809 145.728C149.803 145.728 150.447 146.386 150.447 147.632V152H151.371V148.122C151.371 146.386 152.239 145.728 153.317 145.728C154.311 145.728 155.025 146.386 155.025 147.632V152H155.949V147.632C155.949 145.882 154.871 144.832 153.331 144.832ZM158.198 143.516C158.576 143.516 158.87 143.208 158.87 142.844C158.87 142.48 158.576 142.172 158.198 142.172C157.82 142.172 157.526 142.48 157.526 142.844C157.526 143.208 157.82 143.516 158.198 143.516ZM157.736 152H158.66V145H157.736V152ZM161.349 146.834C161.349 146.078 162.091 145.728 162.819 145.728C163.491 145.728 164.205 145.994 164.499 146.708L165.269 146.26C164.863 145.392 163.967 144.832 162.819 144.832C161.419 144.832 160.425 145.714 160.425 146.834C160.425 149.41 164.513 148.416 164.513 150.152C164.513 150.978 163.729 151.272 162.903 151.272C161.965 151.272 161.237 150.81 160.985 150.096L160.201 150.558C160.551 151.454 161.503 152.168 162.903 152.168C164.401 152.168 165.437 151.342 165.437 150.152C165.437 147.576 161.349 148.57 161.349 146.834ZM167.282 146.834C167.282 146.078 168.024 145.728 168.752 145.728C169.424 145.728 170.138 145.994 170.432 146.708L171.202 146.26C170.796 145.392 169.9 144.832 168.752 144.832C167.352 144.832 166.358 145.714 166.358 146.834C166.358 149.41 170.446 148.416 170.446 150.152C170.446 150.978 169.662 151.272 168.836 151.272C167.898 151.272 167.17 150.81 166.918 150.096L166.134 150.558C166.484 151.454 167.436 152.168 168.836 152.168C170.334 152.168 171.37 151.342 171.37 150.152C171.37 147.576 167.282 148.57 167.282 146.834ZM173.305 143.516C173.683 143.516 173.977 143.208 173.977 142.844C173.977 142.48 173.683 142.172 173.305 142.172C172.927 142.172 172.633 142.48 172.633 142.844C172.633 143.208 172.927 143.516 173.305 143.516ZM172.843 152H173.767V145H172.843V152ZM179.004 144.832C178.01 144.832 177.198 145.21 176.652 146.092V145H175.728V152H176.652V148.332C176.652 146.456 177.688 145.728 178.92 145.728C180.138 145.728 180.824 146.456 180.824 147.702V152H181.748V147.702C181.748 145.952 180.712 144.832 179.004 144.832ZM189.555 145V146.372C188.967 145.434 187.973 144.832 186.727 144.832C184.753 144.832 183.115 146.428 183.115 148.5C183.115 150.572 184.753 152.168 186.727 152.168C187.973 152.168 188.967 151.566 189.555 150.628V151.72C189.555 153.148 188.589 154.072 186.965 154.072C185.453 154.072 184.809 153.512 184.459 152.798L183.647 153.26C184.193 154.352 185.355 154.968 186.965 154.968C188.771 154.968 190.479 153.848 190.479 151.72V145H189.555ZM186.797 151.272C185.243 151.272 184.039 150.054 184.039 148.5C184.039 146.946 185.243 145.728 186.797 145.728C188.351 145.728 189.555 146.946 189.555 148.5C189.555 150.054 188.351 151.272 186.797 151.272ZM196.397 143.516C196.775 143.516 197.069 143.208 197.069 142.844C197.069 142.48 196.775 142.172 196.397 142.172C196.019 142.172 195.725 142.48 195.725 142.844C195.725 143.208 196.019 143.516 196.397 143.516ZM195.935 152H196.859V145H195.935V152ZM202.53 145.896V145H200.514V143.04L199.59 143.32V145H198.12V145.896H199.59V150.138C199.59 151.818 200.64 152.28 202.53 152V151.188C201.172 151.244 200.514 151.342 200.514 150.138V145.896H202.53ZM206.88 144.832C204.71 144.832 203.226 146.442 203.226 148.5C203.226 150.614 204.738 152.168 206.95 152.168C208.364 152.168 209.442 151.51 210.03 150.558L209.218 150.082C208.84 150.754 208.07 151.272 206.964 151.272C205.48 151.272 204.374 150.39 204.178 148.962H210.324C210.338 148.822 210.352 148.668 210.352 148.528C210.352 146.61 209.022 144.832 206.88 144.832ZM206.88 145.728C208.084 145.728 209.204 146.526 209.4 148.066H204.178C204.36 146.694 205.41 145.728 206.88 145.728ZM219.284 144.832C218.388 144.832 217.534 145.238 217.016 146.106C216.624 145.294 215.868 144.832 214.888 144.832C214.048 144.832 213.292 145.168 212.746 146.022V145H211.822V152H212.746V148.122C212.746 146.386 213.754 145.728 214.762 145.728C215.756 145.728 216.4 146.386 216.4 147.632V152H217.324V148.122C217.324 146.386 218.192 145.728 219.27 145.728C220.264 145.728 220.978 146.386 220.978 147.632V152H221.902V147.632C221.902 145.882 220.824 144.832 219.284 144.832ZM224.417 146.834C224.417 146.078 225.159 145.728 225.887 145.728C226.559 145.728 227.273 145.994 227.567 146.708L228.337 146.26C227.931 145.392 227.035 144.832 225.887 144.832C224.487 144.832 223.493 145.714 223.493 146.834C223.493 149.41 227.581 148.416 227.581 150.152C227.581 150.978 226.797 151.272 225.971 151.272C225.033 151.272 224.305 150.81 224.053 150.096L223.269 150.558C223.619 151.454 224.571 152.168 225.971 152.168C227.469 152.168 228.505 151.342 228.505 150.152C228.505 147.576 224.417 148.57 224.417 146.834ZM41.408 165L39.686 170.81L37.852 165H36.928L35.094 170.81L33.372 165H32.42L34.576 172H35.584L37.39 166.358L39.196 172H40.204L42.36 165H41.408ZM46.714 164.832C44.544 164.832 43.06 166.442 43.06 168.5C43.06 170.614 44.572 172.168 46.784 172.168C48.198 172.168 49.276 171.51 49.864 170.558L49.052 170.082C48.674 170.754 47.904 171.272 46.798 171.272C45.314 171.272 44.208 170.39 44.012 168.962H50.158C50.172 168.822 50.186 168.668 50.186 168.528C50.186 166.61 48.856 164.832 46.714 164.832ZM46.714 165.728C47.918 165.728 49.038 166.526 49.234 168.066H44.012C44.194 166.694 45.244 165.728 46.714 165.728ZM52.5798 166.162V165H51.6558V172H52.5798V168.108C52.5798 166.372 53.6718 165.784 54.7918 165.784V164.888C53.8958 164.888 53.0698 165.182 52.5798 166.162ZM58.8683 164.832C56.6983 164.832 55.2143 166.442 55.2143 168.5C55.2143 170.614 56.7263 172.168 58.9383 172.168C60.3523 172.168 61.4303 171.51 62.0183 170.558L61.2063 170.082C60.8283 170.754 60.0583 171.272 58.9523 171.272C57.4683 171.272 56.3623 170.39 56.1663 168.962H62.3123C62.3263 168.822 62.3403 168.668 62.3403 168.528C62.3403 166.61 61.0103 164.832 58.8683 164.832ZM58.8683 165.728C60.0723 165.728 61.1923 166.526 61.3883 168.066H56.1663C56.3483 166.694 57.3983 165.728 58.8683 165.728ZM68.2341 166.162V165H67.3101V172H68.2341V168.108C68.2341 166.372 69.3261 165.784 70.4461 165.784V164.888C69.5501 164.888 68.7241 165.182 68.2341 166.162ZM74.5226 164.832C72.3526 164.832 70.8686 166.442 70.8686 168.5C70.8686 170.614 72.3806 172.168 74.5926 172.168C76.0066 172.168 77.0846 171.51 77.6726 170.558L76.8606 170.082C76.4826 170.754 75.7126 171.272 74.6066 171.272C73.1226 171.272 72.0166 170.39 71.8206 168.962H77.9666C77.9806 168.822 77.9946 168.668 77.9946 168.528C77.9946 166.61 76.6646 164.832 74.5226 164.832ZM74.5226 165.728C75.7266 165.728 76.8466 166.526 77.0426 168.066H71.8206C72.0026 166.694 73.0526 165.728 74.5226 165.728ZM83.2164 164.832C81.9704 164.832 80.9764 165.434 80.3884 166.372V165H79.4644V174.8H80.3884V170.628C80.9764 171.566 81.9704 172.168 83.2164 172.168C85.1904 172.168 86.8284 170.572 86.8284 168.5C86.8284 166.428 85.1904 164.832 83.2164 164.832ZM83.1464 171.272C81.5924 171.272 80.3884 170.054 80.3884 168.5C80.3884 166.946 81.5924 165.728 83.1464 165.728C84.7004 165.728 85.9044 166.946 85.9044 168.5C85.9044 170.054 84.7004 171.272 83.1464 171.272ZM88.3648 172H89.2888V161.78H88.3648V172ZM97.2695 165V166.372C96.6815 165.434 95.6875 164.832 94.4415 164.832C92.4675 164.832 90.8295 166.428 90.8295 168.5C90.8295 170.572 92.4675 172.168 94.4415 172.168C95.6875 172.168 96.6815 171.566 97.2695 170.628V172H98.1935V165H97.2695ZM94.5115 171.272C92.9575 171.272 91.7535 170.054 91.7535 168.5C91.7535 166.946 92.9575 165.728 94.5115 165.728C96.0655 165.728 97.2695 166.946 97.2695 168.5C97.2695 170.054 96.0655 171.272 94.5115 171.272ZM103.412 172.168C104.784 172.168 105.974 171.454 106.548 170.348L105.778 169.9C105.33 170.712 104.476 171.272 103.412 171.272C101.858 171.272 100.654 170.054 100.654 168.5C100.654 166.946 101.858 165.728 103.412 165.728C104.462 165.728 105.344 166.274 105.722 167.1L106.478 166.666C105.974 165.56 104.798 164.832 103.412 164.832C101.298 164.832 99.7299 166.428 99.7299 168.5C99.7299 170.572 101.298 172.168 103.412 172.168ZM111.04 164.832C108.87 164.832 107.386 166.442 107.386 168.5C107.386 170.614 108.898 172.168 111.11 172.168C112.524 172.168 113.602 171.51 114.19 170.558L113.378 170.082C113 170.754 112.23 171.272 111.124 171.272C109.64 171.272 108.534 170.39 108.338 168.962H114.484C114.498 168.822 114.512 168.668 114.512 168.528C114.512 166.61 113.182 164.832 111.04 164.832ZM111.04 165.728C112.244 165.728 113.364 166.526 113.56 168.066H108.338C108.52 166.694 109.57 165.728 111.04 165.728ZM122.002 162.2V166.372C121.414 165.434 120.42 164.832 119.174 164.832C117.2 164.832 115.562 166.428 115.562 168.5C115.562 170.572 117.2 172.168 119.174 172.168C120.42 172.168 121.414 171.566 122.002 170.628V172H122.926V162.2H122.002ZM119.244 171.272C117.69 171.272 116.486 170.054 116.486 168.5C116.486 166.946 117.69 165.728 119.244 165.728C120.798 165.728 122.002 166.946 122.002 168.5C122.002 170.054 120.798 171.272 119.244 171.272ZM131.644 172.168C133.688 172.168 135.326 170.572 135.326 168.5C135.326 166.428 133.688 164.832 131.644 164.832C129.6 164.832 127.962 166.428 127.962 168.5C127.962 170.572 129.6 172.168 131.644 172.168ZM131.644 171.272C130.09 171.272 128.886 170.054 128.886 168.5C128.886 166.946 130.09 165.728 131.644 165.728C133.198 165.728 134.402 166.946 134.402 168.5C134.402 170.054 133.198 171.272 131.644 171.272ZM137.797 166.162V165H136.873V172H137.797V168.108C137.797 166.372 138.889 165.784 140.009 165.784V164.888C139.113 164.888 138.287 165.182 137.797 166.162ZM149.703 165V168.668C149.703 170.544 148.667 171.272 147.435 171.272C146.217 171.272 145.531 170.544 145.531 169.298V165H144.607V169.298C144.607 171.048 145.643 172.168 147.351 172.168C148.345 172.168 149.157 171.79 149.703 170.908V172H150.627V165H149.703ZM155.858 164.832C154.864 164.832 154.052 165.21 153.506 166.092V165H152.582V172H153.506V168.332C153.506 166.456 154.542 165.728 155.774 165.728C156.992 165.728 157.678 166.456 157.678 167.702V172H158.602V167.702C158.602 165.952 157.566 164.832 155.858 164.832ZM163.888 162.928V162.032C161.998 161.892 160.948 162.9 160.948 164.72V165H159.758V165.896H160.948V172H161.872V165.896H163.888V165H161.872V164.72C161.872 163.376 162.53 162.816 163.888 162.928ZM169.801 165V168.668C169.801 170.544 168.765 171.272 167.533 171.272C166.315 171.272 165.629 170.544 165.629 169.298V165H164.705V169.298C164.705 171.048 165.741 172.168 167.449 172.168C168.443 172.168 169.255 171.79 169.801 170.908V172H170.725V165H169.801ZM172.679 172H173.603V161.78H172.679V172ZM180.828 165H177.048V164.72C177.048 163.376 177.706 162.928 179.064 162.928C179.498 162.928 179.918 162.956 180.408 163.04V162.2C179.904 162.088 179.484 162.032 179.064 162.032C177.174 162.032 176.124 162.9 176.124 164.72V165H174.934V165.896H176.124V172H177.048V165.896H179.904V172H180.828V165ZM182.783 172H183.707V161.78H182.783V172ZM185.668 172H186.592V161.78H185.668V172ZM191.786 164.832C189.616 164.832 188.132 166.442 188.132 168.5C188.132 170.614 189.644 172.168 191.856 172.168C193.27 172.168 194.348 171.51 194.936 170.558L194.124 170.082C193.746 170.754 192.976 171.272 191.87 171.272C190.386 171.272 189.28 170.39 189.084 168.962H195.23C195.244 168.822 195.258 168.668 195.258 168.528C195.258 166.61 193.928 164.832 191.786 164.832ZM191.786 165.728C192.99 165.728 194.11 166.526 194.306 168.066H189.084C189.266 166.694 190.316 165.728 191.786 165.728ZM202.748 162.2V166.372C202.16 165.434 201.166 164.832 199.92 164.832C197.946 164.832 196.308 166.428 196.308 168.5C196.308 170.572 197.946 172.168 199.92 172.168C201.166 172.168 202.16 171.566 202.748 170.628V172H203.672V162.2H202.748ZM199.99 171.272C198.436 171.272 197.232 170.054 197.232 168.5C197.232 166.946 198.436 165.728 199.99 165.728C201.544 165.728 202.748 166.946 202.748 168.5C202.748 170.054 201.544 171.272 199.99 171.272Z" fill="#1A1A1A"/>
<path d="M10 120H252V118H10V120ZM259 127V187H261V127H259ZM252 194H10V196H252V194ZM3 187V127H1V187H3ZM10 194C6.13401 194 3 190.866 3 187H1C1 191.971 5.02944 196 10 196V194ZM259 187C259 190.866 255.866 194 252 194V196C256.971 196 261 191.971 261 187H259ZM252 120C255.866 120 259 123.134 259 127H261C261 122.029 256.971 118 252 118V120ZM10 118C5.02944 118 1 122.029 1 127H3C3 123.134 6.13401 120 10 120V118Z" fill="#E5E5E5"/>
<path d="M230 213C230 208.582 233.582 205 238 205H455C459.418 205 463 208.582 463 213V273C463 277.418 459.418 281 455 281H238C233.582 281 230 277.418 230 273V213Z" fill="white"/>
<path d="M266.65 229.124V228.2H261.12V238H262.1V233.66H266.44V232.736H262.1V229.124H266.65ZM271.447 238.168C273.491 238.168 275.129 236.572 275.129 234.5C275.129 232.428 273.491 230.832 271.447 230.832C269.403 230.832 267.765 232.428 267.765 234.5C267.765 236.572 269.403 238.168 271.447 238.168ZM271.447 237.272C269.893 237.272 268.689 236.054 268.689 234.5C268.689 232.946 269.893 231.728 271.447 231.728C273.001 231.728 274.205 232.946 274.205 234.5C274.205 236.054 273.001 237.272 271.447 237.272ZM276.675 238H277.599V227.78H276.675V238ZM279.56 238H280.484V227.78H279.56V238ZM285.707 238.168C287.751 238.168 289.389 236.572 289.389 234.5C289.389 232.428 287.751 230.832 285.707 230.832C283.663 230.832 282.025 232.428 282.025 234.5C282.025 236.572 283.663 238.168 285.707 238.168ZM285.707 237.272C284.153 237.272 282.949 236.054 282.949 234.5C282.949 232.946 284.153 231.728 285.707 231.728C287.261 231.728 288.465 232.946 288.465 234.5C288.465 236.054 287.261 237.272 285.707 237.272ZM299.09 231L297.368 236.81L295.534 231H294.61L292.776 236.81L291.054 231H290.102L292.258 238H293.266L295.072 232.358L296.878 238H297.886L300.042 231H299.09ZM309.863 231V234.668C309.863 236.544 308.827 237.272 307.595 237.272C306.377 237.272 305.691 236.544 305.691 235.298V231H304.767V235.298C304.767 237.048 305.803 238.168 307.511 238.168C308.505 238.168 309.317 237.79 309.863 236.908V238H310.787V231H309.863ZM316.494 230.832C315.248 230.832 314.254 231.434 313.666 232.372V231H312.742V240.8H313.666V236.628C314.254 237.566 315.248 238.168 316.494 238.168C318.468 238.168 320.106 236.572 320.106 234.5C320.106 232.428 318.468 230.832 316.494 230.832ZM316.424 237.272C314.87 237.272 313.666 236.054 313.666 234.5C313.666 232.946 314.87 231.728 316.424 231.728C317.978 231.728 319.182 232.946 319.182 234.5C319.182 236.054 317.978 237.272 316.424 237.272ZM333.57 231L331.848 236.81L330.014 231H329.09L327.256 236.81L325.534 231H324.582L326.738 238H327.746L329.552 232.358L331.358 238H332.366L334.522 231H333.57ZM336.378 229.516C336.756 229.516 337.05 229.208 337.05 228.844C337.05 228.48 336.756 228.172 336.378 228.172C336 228.172 335.706 228.48 335.706 228.844C335.706 229.208 336 229.516 336.378 229.516ZM335.916 238H336.84V231H335.916V238ZM342.51 231.896V231H340.494V229.04L339.57 229.32V231H338.1V231.896H339.57V236.138C339.57 237.818 340.62 238.28 342.51 238V237.188C341.152 237.244 340.494 237.342 340.494 236.138V231.896H342.51ZM347.326 230.832C346.332 230.832 345.52 231.21 344.974 232.092V228.2H344.05V238H344.974V234.332C344.974 232.456 346.01 231.728 347.242 231.728C348.46 231.728 349.146 232.456 349.146 233.702V238H350.07V233.702C350.07 231.952 349.034 230.832 347.326 230.832ZM359.109 230.832C357.863 230.832 356.869 231.434 356.281 232.372V231H355.357V240.8H356.281V236.628C356.869 237.566 357.863 238.168 359.109 238.168C361.083 238.168 362.721 236.572 362.721 234.5C362.721 232.428 361.083 230.832 359.109 230.832ZM359.039 237.272C357.485 237.272 356.281 236.054 356.281 234.5C356.281 232.946 357.485 231.728 359.039 231.728C360.593 231.728 361.797 232.946 361.797 234.5C361.797 236.054 360.593 237.272 359.039 237.272ZM364.719 229.516C365.097 229.516 365.391 229.208 365.391 228.844C365.391 228.48 365.097 228.172 364.719 228.172C364.341 228.172 364.047 228.48 364.047 228.844C364.047 229.208 364.341 229.516 364.719 229.516ZM364.257 238H365.181V231H364.257V238ZM370.404 238.168C371.776 238.168 372.966 237.454 373.54 236.348L372.77 235.9C372.322 236.712 371.468 237.272 370.404 237.272C368.85 237.272 367.646 236.054 367.646 234.5C367.646 232.946 368.85 231.728 370.404 231.728C371.454 231.728 372.336 232.274 372.714 233.1L373.47 232.666C372.966 231.56 371.79 230.832 370.404 230.832C368.29 230.832 366.722 232.428 366.722 234.5C366.722 236.572 368.29 238.168 370.404 238.168ZM380.523 238L376.771 234.36L380.383 231H379.123L375.791 234.094V228.2H374.867V238H375.791V234.626L379.291 238H380.523ZM384.321 230.832C382.151 230.832 380.667 232.442 380.667 234.5C380.667 236.614 382.179 238.168 384.391 238.168C385.805 238.168 386.883 237.51 387.471 236.558L386.659 236.082C386.281 236.754 385.511 237.272 384.405 237.272C382.921 237.272 381.815 236.39 381.619 234.962H387.765C387.779 234.822 387.793 234.668 387.793 234.528C387.793 232.61 386.463 230.832 384.321 230.832ZM384.321 231.728C385.525 231.728 386.645 232.526 386.841 234.066H381.619C381.801 232.694 382.851 231.728 384.321 231.728ZM390.187 232.162V231H389.263V238H390.187V234.108C390.187 232.372 391.279 231.784 392.399 231.784V230.888C391.503 230.888 390.677 231.182 390.187 232.162ZM394.12 232.834C394.12 232.078 394.862 231.728 395.59 231.728C396.262 231.728 396.976 231.994 397.27 232.708L398.04 232.26C397.634 231.392 396.738 230.832 395.59 230.832C394.19 230.832 393.196 231.714 393.196 232.834C393.196 235.41 397.284 234.416 397.284 236.152C397.284 236.978 396.5 237.272 395.674 237.272C394.736 237.272 394.008 236.81 393.756 236.096L392.972 236.558C393.322 237.454 394.274 238.168 395.674 238.168C397.172 238.168 398.208 237.342 398.208 236.152C398.208 233.576 394.12 234.57 394.12 232.834ZM261.904 252.162V251H260.98V258H261.904V254.108C261.904 252.372 262.996 251.784 264.116 251.784V250.888C263.22 250.888 262.394 251.182 261.904 252.162ZM268.193 250.832C266.023 250.832 264.539 252.442 264.539 254.5C264.539 256.614 266.051 258.168 268.263 258.168C269.677 258.168 270.755 257.51 271.343 256.558L270.531 256.082C270.153 256.754 269.383 257.272 268.277 257.272C266.793 257.272 265.687 256.39 265.491 254.962H271.637C271.651 254.822 271.665 254.668 271.665 254.528C271.665 252.61 270.335 250.832 268.193 250.832ZM268.193 251.728C269.397 251.728 270.517 252.526 270.713 254.066H265.491C265.673 252.694 266.723 251.728 268.193 251.728ZM279.154 251V252.372C278.566 251.434 277.572 250.832 276.326 250.832C274.352 250.832 272.714 252.428 272.714 254.5C272.714 256.572 274.352 258.168 276.326 258.168C277.572 258.168 278.566 257.566 279.154 256.628V257.72C279.154 259.148 278.188 260.072 276.564 260.072C275.052 260.072 274.408 259.512 274.058 258.798L273.246 259.26C273.792 260.352 274.954 260.968 276.564 260.968C278.37 260.968 280.078 259.848 280.078 257.72V251H279.154ZM276.396 257.272C274.842 257.272 273.638 256.054 273.638 254.5C273.638 252.946 274.842 251.728 276.396 251.728C277.95 251.728 279.154 252.946 279.154 254.5C279.154 256.054 277.95 257.272 276.396 257.272ZM288.055 251V252.372C287.467 251.434 286.473 250.832 285.227 250.832C283.253 250.832 281.615 252.428 281.615 254.5C281.615 256.572 283.253 258.168 285.227 258.168C286.473 258.168 287.467 257.566 288.055 256.628V258H288.979V251H288.055ZM285.297 257.272C283.743 257.272 282.539 256.054 282.539 254.5C282.539 252.946 283.743 251.728 285.297 251.728C286.851 251.728 288.055 252.946 288.055 254.5C288.055 256.054 286.851 257.272 285.297 257.272ZM291.859 252.162V251H290.935V258H291.859V254.108C291.859 252.372 292.951 251.784 294.071 251.784V250.888C293.175 250.888 292.349 251.182 291.859 252.162ZM300.934 248.2V252.372C300.346 251.434 299.352 250.832 298.106 250.832C296.132 250.832 294.494 252.428 294.494 254.5C294.494 256.572 296.132 258.168 298.106 258.168C299.352 258.168 300.346 257.566 300.934 256.628V258H301.858V248.2H300.934ZM298.176 257.272C296.622 257.272 295.418 256.054 295.418 254.5C295.418 252.946 296.622 251.728 298.176 251.728C299.73 251.728 300.934 252.946 300.934 254.5C300.934 256.054 299.73 257.272 298.176 257.272ZM304.276 249.516C304.654 249.516 304.948 249.208 304.948 248.844C304.948 248.48 304.654 248.172 304.276 248.172C303.898 248.172 303.604 248.48 303.604 248.844C303.604 249.208 303.898 249.516 304.276 249.516ZM303.814 258H304.738V251H303.814V258ZM309.975 250.832C308.981 250.832 308.169 251.21 307.623 252.092V251H306.699V258H307.623V254.332C307.623 252.456 308.659 251.728 309.891 251.728C311.109 251.728 311.795 252.456 311.795 253.702V258H312.719V253.702C312.719 251.952 311.683 250.832 309.975 250.832ZM320.525 251V252.372C319.937 251.434 318.943 250.832 317.697 250.832C315.723 250.832 314.085 252.428 314.085 254.5C314.085 256.572 315.723 258.168 317.697 258.168C318.943 258.168 319.937 257.566 320.525 256.628V257.72C320.525 259.148 319.559 260.072 317.935 260.072C316.423 260.072 315.779 259.512 315.429 258.798L314.617 259.26C315.163 260.352 316.325 260.968 317.935 260.968C319.741 260.968 321.449 259.848 321.449 257.72V251H320.525ZM317.767 257.272C316.213 257.272 315.009 256.054 315.009 254.5C315.009 252.946 316.213 251.728 317.767 251.728C319.321 251.728 320.525 252.946 320.525 254.5C320.525 256.054 319.321 257.272 317.767 257.272ZM332.926 251V252.372C332.338 251.434 331.344 250.832 330.098 250.832C328.124 250.832 326.486 252.428 326.486 254.5C326.486 256.572 328.124 258.168 330.098 258.168C331.344 258.168 332.338 257.566 332.926 256.628V258H333.85V251H332.926ZM330.168 257.272C328.614 257.272 327.41 256.054 327.41 254.5C327.41 252.946 328.614 251.728 330.168 251.728C331.722 251.728 332.926 252.946 332.926 254.5C332.926 256.054 331.722 257.272 330.168 257.272ZM339.082 250.832C338.088 250.832 337.276 251.21 336.73 252.092V251H335.806V258H336.73V254.332C336.73 252.456 337.766 251.728 338.998 251.728C340.216 251.728 340.902 252.456 340.902 253.702V258H341.826V253.702C341.826 251.952 340.79 250.832 339.082 250.832ZM348.516 251L346.248 256.866L343.616 251H342.636L345.772 258.042L345.59 258.476C345.212 259.386 344.582 260.03 343.672 259.932V260.8C344.932 260.898 345.968 259.988 346.5 258.644L349.496 251H348.516ZM360.133 251V252.372C359.545 251.434 358.551 250.832 357.305 250.832C355.331 250.832 353.693 252.428 353.693 254.5C353.693 256.572 355.331 258.168 357.305 258.168C358.551 258.168 359.545 257.566 360.133 256.628V257.72C360.133 259.148 359.167 260.072 357.543 260.072C356.031 260.072 355.387 259.512 355.037 258.798L354.225 259.26C354.771 260.352 355.933 260.968 357.543 260.968C359.349 260.968 361.057 259.848 361.057 257.72V251H360.133ZM357.375 257.272C355.821 257.272 354.617 256.054 354.617 254.5C354.617 252.946 355.821 251.728 357.375 251.728C358.929 251.728 360.133 252.946 360.133 254.5C360.133 256.054 358.929 257.272 357.375 257.272ZM363.475 249.516C363.853 249.516 364.147 249.208 364.147 248.844C364.147 248.48 363.853 248.172 363.475 248.172C363.097 248.172 362.803 248.48 362.803 248.844C362.803 249.208 363.097 249.516 363.475 249.516ZM363.013 258H363.937V251H363.013V258ZM370.938 251L368.488 257.034L366.038 251H365.058L367.928 258H369.048L371.918 251H370.938ZM375.995 250.832C373.825 250.832 372.341 252.442 372.341 254.5C372.341 256.614 373.853 258.168 376.065 258.168C377.479 258.168 378.557 257.51 379.145 256.558L378.333 256.082C377.955 256.754 377.185 257.272 376.079 257.272C374.595 257.272 373.489 256.39 373.293 254.962H379.439C379.453 254.822 379.467 254.668 379.467 254.528C379.467 252.61 378.137 250.832 375.995 250.832ZM375.995 251.728C377.199 251.728 378.319 252.526 378.515 254.066H373.293C373.475 252.694 374.525 251.728 375.995 251.728ZM384.213 250.832C383.219 250.832 382.407 251.21 381.861 252.092V251H380.937V258H381.861V254.332C381.861 252.456 382.897 251.728 384.129 251.728C385.347 251.728 386.033 252.456 386.033 253.702V258H386.957V253.702C386.957 251.952 385.921 250.832 384.213 250.832ZM398.264 251V252.372C397.676 251.434 396.682 250.832 395.436 250.832C393.462 250.832 391.824 252.428 391.824 254.5C391.824 256.572 393.462 258.168 395.436 258.168C396.682 258.168 397.676 257.566 398.264 256.628V258H399.188V251H398.264ZM395.506 257.272C393.952 257.272 392.748 256.054 392.748 254.5C392.748 252.946 393.952 251.728 395.506 251.728C397.06 251.728 398.264 252.946 398.264 254.5C398.264 256.054 397.06 257.272 395.506 257.272ZM404.406 258.168C405.778 258.168 406.968 257.454 407.542 256.348L406.772 255.9C406.324 256.712 405.47 257.272 404.406 257.272C402.852 257.272 401.648 256.054 401.648 254.5C401.648 252.946 402.852 251.728 404.406 251.728C405.456 251.728 406.338 252.274 406.716 253.1L407.472 252.666C406.968 251.56 405.792 250.832 404.406 250.832C402.292 250.832 400.724 252.428 400.724 254.5C400.724 256.572 402.292 258.168 404.406 258.168ZM412.579 251.896V251H410.563V249.04L409.639 249.32V251H408.169V251.896H409.639V256.138C409.639 257.818 410.689 258.28 412.579 258V257.188C411.221 257.244 410.563 257.342 410.563 256.138V251.896H412.579ZM414.581 249.516C414.959 249.516 415.253 249.208 415.253 248.844C415.253 248.48 414.959 248.172 414.581 248.172C414.203 248.172 413.909 248.48 413.909 248.844C413.909 249.208 414.203 249.516 414.581 249.516ZM414.119 258H415.043V251H414.119V258ZM420.265 258.168C422.309 258.168 423.947 256.572 423.947 254.5C423.947 252.428 422.309 250.832 420.265 250.832C418.221 250.832 416.583 252.428 416.583 254.5C416.583 256.572 418.221 258.168 420.265 258.168ZM420.265 257.272C418.711 257.272 417.507 256.054 417.507 254.5C417.507 252.946 418.711 251.728 420.265 251.728C421.819 251.728 423.023 252.946 423.023 254.5C423.023 256.054 421.819 257.272 420.265 257.272ZM428.77 250.832C427.776 250.832 426.964 251.21 426.418 252.092V251H425.494V258H426.418V254.332C426.418 252.456 427.454 251.728 428.686 251.728C429.904 251.728 430.59 252.456 430.59 253.702V258H431.514V253.702C431.514 251.952 430.478 250.832 428.77 250.832Z" fill="#1A1A1A"/>
<path d="M238 206H455V204H238V206ZM462 213V273H464V213H462ZM455 280H238V282H455V280ZM231 273V213H229V273H231ZM238 280C234.134 280 231 276.866 231 273H229C229 277.971 233.029 282 238 282V280ZM462 273C462 276.866 458.866 280 455 280V282C459.971 282 464 277.971 464 273H462ZM455 206C458.866 206 462 209.134 462 213H464C464 208.029 459.971 204 455 204V206ZM238 204C233.029 204 229 208.029 229 213H231C231 209.134 234.134 206 238 206V204Z" fill="#E5E5E5"/>
<path d="M756 134C756 129.582 759.582 126 764 126H922C926.418 126 930 129.582 930 134V194C930 198.418 926.418 202 922 202H764C759.582 202 756 198.418 756 194V134Z" fill="white"/>
<path d="M789.752 159H790.76L794.372 149.2H793.308L790.256 157.698L787.204 149.2H786.14L789.752 159ZM795.686 150.516C796.064 150.516 796.358 150.208 796.358 149.844C796.358 149.48 796.064 149.172 795.686 149.172C795.308 149.172 795.014 149.48 795.014 149.844C795.014 150.208 795.308 150.516 795.686 150.516ZM795.224 159H796.148V152H795.224V159ZM801.343 151.832C799.173 151.832 797.689 153.442 797.689 155.5C797.689 157.614 799.201 159.168 801.413 159.168C802.827 159.168 803.905 158.51 804.493 157.558L803.681 157.082C803.303 157.754 802.533 158.272 801.427 158.272C799.943 158.272 798.837 157.39 798.641 155.962H804.787C804.801 155.822 804.815 155.668 804.815 155.528C804.815 153.61 803.485 151.832 801.343 151.832ZM801.343 152.728C802.547 152.728 803.667 153.526 803.863 155.066H798.641C798.823 153.694 799.873 152.728 801.343 152.728ZM814.439 152L812.717 157.81L810.883 152H809.959L808.125 157.81L806.403 152H805.451L807.607 159H808.615L810.421 153.358L812.227 159H813.235L815.391 152H814.439ZM821.013 153.834C821.013 153.078 821.755 152.728 822.483 152.728C823.155 152.728 823.869 152.994 824.163 153.708L824.933 153.26C824.527 152.392 823.631 151.832 822.483 151.832C821.083 151.832 820.089 152.714 820.089 153.834C820.089 156.41 824.177 155.416 824.177 157.152C824.177 157.978 823.393 158.272 822.567 158.272C821.629 158.272 820.901 157.81 820.649 157.096L819.865 157.558C820.215 158.454 821.167 159.168 822.567 159.168C824.065 159.168 825.101 158.342 825.101 157.152C825.101 154.576 821.013 155.57 821.013 153.834ZM830.079 152.896V152H828.063V150.04L827.139 150.32V152H825.669V152.896H827.139V157.138C827.139 158.818 828.189 159.28 830.079 159V158.188C828.721 158.244 828.063 158.342 828.063 157.138V152.896H830.079ZM837.215 152V153.372C836.627 152.434 835.633 151.832 834.387 151.832C832.413 151.832 830.775 153.428 830.775 155.5C830.775 157.572 832.413 159.168 834.387 159.168C835.633 159.168 836.627 158.566 837.215 157.628V159H838.139V152H837.215ZM834.457 158.272C832.903 158.272 831.699 157.054 831.699 155.5C831.699 153.946 832.903 152.728 834.457 152.728C836.011 152.728 837.215 153.946 837.215 155.5C837.215 157.054 836.011 158.272 834.457 158.272ZM846.115 152V153.372C845.527 152.434 844.533 151.832 843.287 151.832C841.313 151.832 839.675 153.428 839.675 155.5C839.675 157.572 841.313 159.168 843.287 159.168C844.533 159.168 845.527 158.566 846.115 157.628V158.72C846.115 160.148 845.149 161.072 843.525 161.072C842.013 161.072 841.369 160.512 841.019 159.798L840.207 160.26C840.753 161.352 841.915 161.968 843.525 161.968C845.331 161.968 847.039 160.848 847.039 158.72V152H846.115ZM843.357 158.272C841.803 158.272 840.599 157.054 840.599 155.5C840.599 153.946 841.803 152.728 843.357 152.728C844.911 152.728 846.115 153.946 846.115 155.5C846.115 157.054 844.911 158.272 843.357 158.272ZM849.458 150.516C849.836 150.516 850.13 150.208 850.13 149.844C850.13 149.48 849.836 149.172 849.458 149.172C849.08 149.172 848.786 149.48 848.786 149.844C848.786 150.208 849.08 150.516 849.458 150.516ZM848.996 159H849.92V152H848.996V159ZM855.156 151.832C854.162 151.832 853.35 152.21 852.804 153.092V152H851.88V159H852.804V155.332C852.804 153.456 853.84 152.728 855.072 152.728C856.29 152.728 856.976 153.456 856.976 154.702V159H857.9V154.702C857.9 152.952 856.864 151.832 855.156 151.832ZM865.707 152V153.372C865.119 152.434 864.125 151.832 862.879 151.832C860.905 151.832 859.267 153.428 859.267 155.5C859.267 157.572 860.905 159.168 862.879 159.168C864.125 159.168 865.119 158.566 865.707 157.628V158.72C865.707 160.148 864.741 161.072 863.117 161.072C861.605 161.072 860.961 160.512 860.611 159.798L859.799 160.26C860.345 161.352 861.507 161.968 863.117 161.968C864.923 161.968 866.631 160.848 866.631 158.72V152H865.707ZM862.949 158.272C861.395 158.272 860.191 157.054 860.191 155.5C860.191 153.946 861.395 152.728 862.949 152.728C864.503 152.728 865.707 153.946 865.707 155.5C865.707 157.054 864.503 158.272 862.949 158.272ZM875.797 152.896V152H873.781V150.04L872.857 150.32V152H871.387V152.896H872.857V157.138C872.857 158.818 873.907 159.28 875.797 159V158.188C874.439 158.244 873.781 158.342 873.781 157.138V152.896H875.797ZM877.799 150.516C878.177 150.516 878.471 150.208 878.471 149.844C878.471 149.48 878.177 149.172 877.799 149.172C877.421 149.172 877.127 149.48 877.127 149.844C877.127 150.208 877.421 150.516 877.799 150.516ZM877.337 159H878.261V152H877.337V159ZM887.684 151.832C886.788 151.832 885.934 152.238 885.416 153.106C885.024 152.294 884.268 151.832 883.288 151.832C882.448 151.832 881.692 152.168 881.146 153.022V152H880.222V159H881.146V155.122C881.146 153.386 882.154 152.728 883.162 152.728C884.156 152.728 884.8 153.386 884.8 154.632V159H885.724V155.122C885.724 153.386 886.592 152.728 887.67 152.728C888.664 152.728 889.378 153.386 889.378 154.632V159H890.302V154.632C890.302 152.882 889.224 151.832 887.684 151.832ZM895.323 151.832C893.153 151.832 891.669 153.442 891.669 155.5C891.669 157.614 893.181 159.168 895.393 159.168C896.807 159.168 897.885 158.51 898.473 157.558L897.661 157.082C897.283 157.754 896.513 158.272 895.407 158.272C893.923 158.272 892.817 157.39 892.621 155.962H898.767C898.781 155.822 898.795 155.668 898.795 155.528C898.795 153.61 897.465 151.832 895.323 151.832ZM895.323 152.728C896.527 152.728 897.647 153.526 897.843 155.066H892.621C892.803 153.694 893.853 152.728 895.323 152.728ZM790.48 169.928V169.032C788.59 168.892 787.54 169.9 787.54 171.72V172H786.35V172.896H787.54V179H788.464V172.896H790.48V172H788.464V171.72C788.464 170.376 789.122 169.816 790.48 169.928ZM794.303 179.168C796.347 179.168 797.985 177.572 797.985 175.5C797.985 173.428 796.347 171.832 794.303 171.832C792.259 171.832 790.621 173.428 790.621 175.5C790.621 177.572 792.259 179.168 794.303 179.168ZM794.303 178.272C792.749 178.272 791.545 177.054 791.545 175.5C791.545 173.946 792.749 172.728 794.303 172.728C795.857 172.728 797.061 173.946 797.061 175.5C797.061 177.054 795.857 178.272 794.303 178.272ZM800.455 173.162V172H799.531V179H800.455V175.108C800.455 173.372 801.547 172.784 802.667 172.784V171.888C801.771 171.888 800.945 172.182 800.455 173.162ZM813.453 172V173.372C812.865 172.434 811.871 171.832 810.625 171.832C808.651 171.832 807.013 173.428 807.013 175.5C807.013 177.572 808.651 179.168 810.625 179.168C811.871 179.168 812.865 178.566 813.453 177.628V179H814.377V172H813.453ZM810.695 178.272C809.141 178.272 807.937 177.054 807.937 175.5C807.937 173.946 809.141 172.728 810.695 172.728C812.249 172.728 813.453 173.946 813.453 175.5C813.453 177.054 812.249 178.272 810.695 178.272ZM819.61 171.832C818.616 171.832 817.804 172.21 817.258 173.092V172H816.334V179H817.258V175.332C817.258 173.456 818.294 172.728 819.526 172.728C820.744 172.728 821.43 173.456 821.43 174.702V179H822.354V174.702C822.354 172.952 821.318 171.832 819.61 171.832ZM829.043 172L826.775 177.866L824.143 172H823.163L826.299 179.042L826.117 179.476C825.739 180.386 825.109 181.03 824.199 180.932V181.8C825.459 181.898 826.495 180.988 827.027 179.644L830.023 172H829.043ZM840.66 172V173.372C840.072 172.434 839.078 171.832 837.832 171.832C835.858 171.832 834.22 173.428 834.22 175.5C834.22 177.572 835.858 179.168 837.832 179.168C839.078 179.168 840.072 178.566 840.66 177.628V178.72C840.66 180.148 839.694 181.072 838.07 181.072C836.558 181.072 835.914 180.512 835.564 179.798L834.752 180.26C835.298 181.352 836.46 181.968 838.07 181.968C839.876 181.968 841.584 180.848 841.584 178.72V172H840.66ZM837.902 178.272C836.348 178.272 835.144 177.054 835.144 175.5C835.144 173.946 836.348 172.728 837.902 172.728C839.456 172.728 840.66 173.946 840.66 175.5C840.66 177.054 839.456 178.272 837.902 178.272ZM844.003 170.516C844.381 170.516 844.675 170.208 844.675 169.844C844.675 169.48 844.381 169.172 844.003 169.172C843.625 169.172 843.331 169.48 843.331 169.844C843.331 170.208 843.625 170.516 844.003 170.516ZM843.541 179H844.465V172H843.541V179ZM851.465 172L849.015 178.034L846.565 172H845.585L848.455 179H849.575L852.445 172H851.465ZM856.523 171.832C854.353 171.832 852.869 173.442 852.869 175.5C852.869 177.614 854.381 179.168 856.593 179.168C858.007 179.168 859.085 178.51 859.673 177.558L858.861 177.082C858.483 177.754 857.713 178.272 856.607 178.272C855.123 178.272 854.017 177.39 853.821 175.962H859.967C859.981 175.822 859.995 175.668 859.995 175.528C859.995 173.61 858.665 171.832 856.523 171.832ZM856.523 172.728C857.727 172.728 858.847 173.526 859.043 175.066H853.821C854.003 173.694 855.053 172.728 856.523 172.728ZM864.74 171.832C863.746 171.832 862.934 172.21 862.388 173.092V172H861.464V179H862.388V175.332C862.388 173.456 863.424 172.728 864.656 172.728C865.874 172.728 866.56 173.456 866.56 174.702V179H867.484V174.702C867.484 172.952 866.448 171.832 864.74 171.832ZM873.233 170.516C873.611 170.516 873.905 170.208 873.905 169.844C873.905 169.48 873.611 169.172 873.233 169.172C872.855 169.172 872.561 169.48 872.561 169.844C872.561 170.208 872.855 170.516 873.233 170.516ZM872.771 179H873.695V172H872.771V179ZM879.366 172.896V172H877.35V170.04L876.426 170.32V172H874.956V172.896H876.426V177.138C876.426 178.818 877.476 179.28 879.366 179V178.188C878.008 178.244 877.35 178.342 877.35 177.138V172.896H879.366ZM883.716 171.832C881.546 171.832 880.062 173.442 880.062 175.5C880.062 177.614 881.574 179.168 883.786 179.168C885.2 179.168 886.278 178.51 886.866 177.558L886.054 177.082C885.676 177.754 884.906 178.272 883.8 178.272C882.316 178.272 881.21 177.39 881.014 175.962H887.16C887.174 175.822 887.188 175.668 887.188 175.528C887.188 173.61 885.858 171.832 883.716 171.832ZM883.716 172.728C884.92 172.728 886.04 173.526 886.236 175.066H881.014C881.196 173.694 882.246 172.728 883.716 172.728ZM896.12 171.832C895.224 171.832 894.37 172.238 893.852 173.106C893.46 172.294 892.704 171.832 891.724 171.832C890.884 171.832 890.128 172.168 889.582 173.022V172H888.658V179H889.582V175.122C889.582 173.386 890.59 172.728 891.598 172.728C892.592 172.728 893.236 173.386 893.236 174.632V179H894.16V175.122C894.16 173.386 895.028 172.728 896.106 172.728C897.1 172.728 897.814 173.386 897.814 174.632V179H898.738V174.632C898.738 172.882 897.66 171.832 896.12 171.832Z" fill="#1A1A1A"/>
<path d="M764 127H922V125H764V127ZM929 134V194H931V134H929ZM922 201H764V203H922V201ZM757 194V134H755V194H757ZM764 201C760.134 201 757 197.866 757 194H755C755 198.971 759.029 203 764 203V201ZM929 194C929 197.866 925.866 201 922 201V203C926.971 203 931 198.971 931 194H929ZM922 127C925.866 127 929 130.134 929 134H931C931 129.029 926.971 125 922 125V127ZM764 125C759.029 125 755 129.029 755 134H757C757 130.134 760.134 127 764 127V125Z" fill="#E5E5E5"/>
<path d="M558 214C558 209.582 561.582 206 566 206H748C752.418 206 756 209.582 756 214V274C756 278.418 752.418 282 748 282H566C561.582 282 558 278.418 558 274V214Z" fill="white"/>
<path d="M591.752 239H592.76L596.372 229.2H595.308L592.256 237.698L589.204 229.2H588.14L591.752 239ZM597.686 230.516C598.064 230.516 598.358 230.208 598.358 229.844C598.358 229.48 598.064 229.172 597.686 229.172C597.308 229.172 597.014 229.48 597.014 229.844C597.014 230.208 597.308 230.516 597.686 230.516ZM597.224 239H598.148V232H597.224V239ZM603.343 231.832C601.173 231.832 599.689 233.442 599.689 235.5C599.689 237.614 601.201 239.168 603.413 239.168C604.827 239.168 605.905 238.51 606.493 237.558L605.681 237.082C605.303 237.754 604.533 238.272 603.427 238.272C601.943 238.272 600.837 237.39 600.641 235.962H606.787C606.801 235.822 606.815 235.668 606.815 235.528C606.815 233.61 605.485 231.832 603.343 231.832ZM603.343 232.728C604.547 232.728 605.667 233.526 605.863 235.066H600.641C600.823 233.694 601.873 232.728 603.343 232.728ZM616.439 232L614.717 237.81L612.883 232H611.959L610.125 237.81L608.403 232H607.451L609.607 239H610.615L612.421 233.358L614.227 239H615.235L617.391 232H616.439ZM623.013 233.834C623.013 233.078 623.755 232.728 624.483 232.728C625.155 232.728 625.869 232.994 626.163 233.708L626.933 233.26C626.527 232.392 625.631 231.832 624.483 231.832C623.083 231.832 622.089 232.714 622.089 233.834C622.089 236.41 626.177 235.416 626.177 237.152C626.177 237.978 625.393 238.272 624.567 238.272C623.629 238.272 622.901 237.81 622.649 237.096L621.865 237.558C622.215 238.454 623.167 239.168 624.567 239.168C626.065 239.168 627.101 238.342 627.101 237.152C627.101 234.576 623.013 235.57 623.013 233.834ZM632.079 232.896V232H630.063V230.04L629.139 230.32V232H627.669V232.896H629.139V237.138C629.139 238.818 630.189 239.28 632.079 239V238.188C630.721 238.244 630.063 238.342 630.063 237.138V232.896H632.079ZM639.215 232V233.372C638.627 232.434 637.633 231.832 636.387 231.832C634.413 231.832 632.775 233.428 632.775 235.5C632.775 237.572 634.413 239.168 636.387 239.168C637.633 239.168 638.627 238.566 639.215 237.628V239H640.139V232H639.215ZM636.457 238.272C634.903 238.272 633.699 237.054 633.699 235.5C633.699 233.946 634.903 232.728 636.457 232.728C638.011 232.728 639.215 233.946 639.215 235.5C639.215 237.054 638.011 238.272 636.457 238.272ZM648.115 232V233.372C647.527 232.434 646.533 231.832 645.287 231.832C643.313 231.832 641.675 233.428 641.675 235.5C641.675 237.572 643.313 239.168 645.287 239.168C646.533 239.168 647.527 238.566 648.115 237.628V238.72C648.115 240.148 647.149 241.072 645.525 241.072C644.013 241.072 643.369 240.512 643.019 239.798L642.207 240.26C642.753 241.352 643.915 241.968 645.525 241.968C647.331 241.968 649.039 240.848 649.039 238.72V232H648.115ZM645.357 238.272C643.803 238.272 642.599 237.054 642.599 235.5C642.599 233.946 643.803 232.728 645.357 232.728C646.911 232.728 648.115 233.946 648.115 235.5C648.115 237.054 646.911 238.272 645.357 238.272ZM651.458 230.516C651.836 230.516 652.13 230.208 652.13 229.844C652.13 229.48 651.836 229.172 651.458 229.172C651.08 229.172 650.786 229.48 650.786 229.844C650.786 230.208 651.08 230.516 651.458 230.516ZM650.996 239H651.92V232H650.996V239ZM657.156 231.832C656.162 231.832 655.35 232.21 654.804 233.092V232H653.88V239H654.804V235.332C654.804 233.456 655.84 232.728 657.072 232.728C658.29 232.728 658.976 233.456 658.976 234.702V239H659.9V234.702C659.9 232.952 658.864 231.832 657.156 231.832ZM667.707 232V233.372C667.119 232.434 666.125 231.832 664.879 231.832C662.905 231.832 661.267 233.428 661.267 235.5C661.267 237.572 662.905 239.168 664.879 239.168C666.125 239.168 667.119 238.566 667.707 237.628V238.72C667.707 240.148 666.741 241.072 665.117 241.072C663.605 241.072 662.961 240.512 662.611 239.798L661.799 240.26C662.345 241.352 663.507 241.968 665.117 241.968C666.923 241.968 668.631 240.848 668.631 238.72V232H667.707ZM664.949 238.272C663.395 238.272 662.191 237.054 662.191 235.5C662.191 233.946 663.395 232.728 664.949 232.728C666.503 232.728 667.707 233.946 667.707 235.5C667.707 237.054 666.503 238.272 664.949 238.272ZM674.087 239H675.011V228.78H674.087V239ZM680.234 239.168C682.278 239.168 683.916 237.572 683.916 235.5C683.916 233.428 682.278 231.832 680.234 231.832C678.19 231.832 676.552 233.428 676.552 235.5C676.552 237.572 678.19 239.168 680.234 239.168ZM680.234 238.272C678.68 238.272 677.476 237.054 677.476 235.5C677.476 233.946 678.68 232.728 680.234 232.728C681.788 232.728 682.992 233.946 682.992 235.5C682.992 237.054 681.788 238.272 680.234 238.272ZM688.724 239.168C690.096 239.168 691.286 238.454 691.86 237.348L691.09 236.9C690.642 237.712 689.788 238.272 688.724 238.272C687.17 238.272 685.966 237.054 685.966 235.5C685.966 233.946 687.17 232.728 688.724 232.728C689.774 232.728 690.656 233.274 691.034 234.1L691.79 233.666C691.286 232.56 690.11 231.832 688.724 231.832C686.61 231.832 685.042 233.428 685.042 235.5C685.042 237.572 686.61 239.168 688.724 239.168ZM699.139 232V233.372C698.551 232.434 697.557 231.832 696.311 231.832C694.337 231.832 692.699 233.428 692.699 235.5C692.699 237.572 694.337 239.168 696.311 239.168C697.557 239.168 698.551 238.566 699.139 237.628V239H700.063V232H699.139ZM696.381 238.272C694.827 238.272 693.623 237.054 693.623 235.5C693.623 233.946 694.827 232.728 696.381 232.728C697.935 232.728 699.139 233.946 699.139 235.5C699.139 237.054 697.935 238.272 696.381 238.272ZM705.729 232.896V232H703.713V230.04L702.789 230.32V232H701.319V232.896H702.789V237.138C702.789 238.818 703.839 239.28 705.729 239V238.188C704.371 238.244 703.713 238.342 703.713 237.138V232.896H705.729ZM707.731 230.516C708.109 230.516 708.403 230.208 708.403 229.844C708.403 229.48 708.109 229.172 707.731 229.172C707.353 229.172 707.059 229.48 707.059 229.844C707.059 230.208 707.353 230.516 707.731 230.516ZM707.269 239H708.193V232H707.269V239ZM713.416 239.168C715.46 239.168 717.098 237.572 717.098 235.5C717.098 233.428 715.46 231.832 713.416 231.832C711.372 231.832 709.734 233.428 709.734 235.5C709.734 237.572 711.372 239.168 713.416 239.168ZM713.416 238.272C711.862 238.272 710.658 237.054 710.658 235.5C710.658 233.946 711.862 232.728 713.416 232.728C714.97 232.728 716.174 233.946 716.174 235.5C716.174 237.054 714.97 238.272 713.416 238.272ZM721.92 231.832C720.926 231.832 720.114 232.21 719.568 233.092V232H718.644V239H719.568V235.332C719.568 233.456 720.604 232.728 721.836 232.728C723.054 232.728 723.74 233.456 723.74 234.702V239H724.664V234.702C724.664 232.952 723.628 231.832 721.92 231.832ZM592.48 249.928V249.032C590.59 248.892 589.54 249.9 589.54 251.72V252H588.35V252.896H589.54V259H590.464V252.896H592.48V252H590.464V251.72C590.464 250.376 591.122 249.816 592.48 249.928ZM596.303 259.168C598.347 259.168 599.985 257.572 599.985 255.5C599.985 253.428 598.347 251.832 596.303 251.832C594.259 251.832 592.621 253.428 592.621 255.5C592.621 257.572 594.259 259.168 596.303 259.168ZM596.303 258.272C594.749 258.272 593.545 257.054 593.545 255.5C593.545 253.946 594.749 252.728 596.303 252.728C597.857 252.728 599.061 253.946 599.061 255.5C599.061 257.054 597.857 258.272 596.303 258.272ZM602.455 253.162V252H601.531V259H602.455V255.108C602.455 253.372 603.547 252.784 604.667 252.784V251.888C603.771 251.888 602.945 252.182 602.455 253.162ZM615.453 252V253.372C614.865 252.434 613.871 251.832 612.625 251.832C610.651 251.832 609.013 253.428 609.013 255.5C609.013 257.572 610.651 259.168 612.625 259.168C613.871 259.168 614.865 258.566 615.453 257.628V259H616.377V252H615.453ZM612.695 258.272C611.141 258.272 609.937 257.054 609.937 255.5C609.937 253.946 611.141 252.728 612.695 252.728C614.249 252.728 615.453 253.946 615.453 255.5C615.453 257.054 614.249 258.272 612.695 258.272ZM621.61 251.832C620.616 251.832 619.804 252.21 619.258 253.092V252H618.334V259H619.258V255.332C619.258 253.456 620.294 252.728 621.526 252.728C622.744 252.728 623.43 253.456 623.43 254.702V259H624.354V254.702C624.354 252.952 623.318 251.832 621.61 251.832ZM631.043 252L628.775 257.866L626.143 252H625.163L628.299 259.042L628.117 259.476C627.739 260.386 627.109 261.03 626.199 260.932V261.8C627.459 261.898 628.495 260.988 629.027 259.644L632.023 252H631.043ZM642.66 252V253.372C642.072 252.434 641.078 251.832 639.832 251.832C637.858 251.832 636.22 253.428 636.22 255.5C636.22 257.572 637.858 259.168 639.832 259.168C641.078 259.168 642.072 258.566 642.66 257.628V258.72C642.66 260.148 641.694 261.072 640.07 261.072C638.558 261.072 637.914 260.512 637.564 259.798L636.752 260.26C637.298 261.352 638.46 261.968 640.07 261.968C641.876 261.968 643.584 260.848 643.584 258.72V252H642.66ZM639.902 258.272C638.348 258.272 637.144 257.054 637.144 255.5C637.144 253.946 638.348 252.728 639.902 252.728C641.456 252.728 642.66 253.946 642.66 255.5C642.66 257.054 641.456 258.272 639.902 258.272ZM646.003 250.516C646.381 250.516 646.675 250.208 646.675 249.844C646.675 249.48 646.381 249.172 646.003 249.172C645.625 249.172 645.331 249.48 645.331 249.844C645.331 250.208 645.625 250.516 646.003 250.516ZM645.541 259H646.465V252H645.541V259ZM653.465 252L651.015 258.034L648.565 252H647.585L650.455 259H651.575L654.445 252H653.465ZM658.523 251.832C656.353 251.832 654.869 253.442 654.869 255.5C654.869 257.614 656.381 259.168 658.593 259.168C660.007 259.168 661.085 258.51 661.673 257.558L660.861 257.082C660.483 257.754 659.713 258.272 658.607 258.272C657.123 258.272 656.017 257.39 655.821 255.962H661.967C661.981 255.822 661.995 255.668 661.995 255.528C661.995 253.61 660.665 251.832 658.523 251.832ZM658.523 252.728C659.727 252.728 660.847 253.526 661.043 255.066H655.821C656.003 253.694 657.053 252.728 658.523 252.728ZM666.74 251.832C665.746 251.832 664.934 252.21 664.388 253.092V252H663.464V259H664.388V255.332C664.388 253.456 665.424 252.728 666.656 252.728C667.874 252.728 668.56 253.456 668.56 254.702V259H669.484V254.702C669.484 252.952 668.448 251.832 666.74 251.832ZM675.233 250.516C675.611 250.516 675.905 250.208 675.905 249.844C675.905 249.48 675.611 249.172 675.233 249.172C674.855 249.172 674.561 249.48 674.561 249.844C674.561 250.208 674.855 250.516 675.233 250.516ZM674.771 259H675.695V252H674.771V259ZM681.366 252.896V252H679.35V250.04L678.426 250.32V252H676.956V252.896H678.426V257.138C678.426 258.818 679.476 259.28 681.366 259V258.188C680.008 258.244 679.35 258.342 679.35 257.138V252.896H681.366ZM685.716 251.832C683.546 251.832 682.062 253.442 682.062 255.5C682.062 257.614 683.574 259.168 685.786 259.168C687.2 259.168 688.278 258.51 688.866 257.558L688.054 257.082C687.676 257.754 686.906 258.272 685.8 258.272C684.316 258.272 683.21 257.39 683.014 255.962H689.16C689.174 255.822 689.188 255.668 689.188 255.528C689.188 253.61 687.858 251.832 685.716 251.832ZM685.716 252.728C686.92 252.728 688.04 253.526 688.236 255.066H683.014C683.196 253.694 684.246 252.728 685.716 252.728ZM698.12 251.832C697.224 251.832 696.37 252.238 695.852 253.106C695.46 252.294 694.704 251.832 693.724 251.832C692.884 251.832 692.128 252.168 691.582 253.022V252H690.658V259H691.582V255.122C691.582 253.386 692.59 252.728 693.598 252.728C694.592 252.728 695.236 253.386 695.236 254.632V259H696.16V255.122C696.16 253.386 697.028 252.728 698.106 252.728C699.1 252.728 699.814 253.386 699.814 254.632V259H700.738V254.632C700.738 252.882 699.66 251.832 698.12 251.832Z" fill="#1A1A1A"/>
<path d="M566 207H748V205H566V207ZM755 214V274H757V214H755ZM748 281H566V283H748V281ZM559 274V214H557V274H559ZM566 281C562.134 281 559 277.866 559 274H557C557 278.971 561.029 283 566 283V281ZM755 274C755 277.866 751.866 281 748 281V283C752.971 283 757 278.971 757 274H755ZM748 207C751.866 207 755 210.134 755 214H757C757 209.029 752.971 205 748 205V207ZM566 205C561.029 205 557 209.029 557 214H559C559 210.134 562.134 207 566 207V205Z" fill="#E5E5E5"/>
<g clip-path="url(#clip0)">
<path d="M172.514 76.6097L146.011 113.742" stroke="#404040" stroke-linecap="square"/>
<path fill-rule="evenodd" clip-rule="evenodd" d="M145.322 114.708L145.03 110.813L149.1 113.718L145.322 114.708Z" fill="#404040"/>
</g>
<g clip-path="url(#clip1)">
<path d="M266.444 76.8565L344.245 200.146" stroke="#404040" stroke-linecap="square"/>
<path fill-rule="evenodd" clip-rule="evenodd" d="M345.097 201.497L341.382 200.294L345.611 197.625L345.097 201.497Z" fill="#404040"/>
</g>
<g clip-path="url(#clip2)">
<path d="M729.771 76.7522L659.812 201.253" stroke="#404040" stroke-linecap="square"/>
<path fill-rule="evenodd" clip-rule="evenodd" d="M659.036 202.635L658.326 198.795L662.685 201.244L659.036 202.635Z" fill="#404040"/>
</g>
<g clip-path="url(#clip3)">
<path d="M764.024 76.8633L803.921 121.01" stroke="#404040" stroke-linecap="square"/>
<path fill-rule="evenodd" clip-rule="evenodd" d="M804.755 121.933L800.889 121.383L804.598 118.031L804.755 121.933Z" fill="#404040"/>
</g>
<defs>
<clipPath id="clip0">
<rect width="47.4942" height="5" fill="white" transform="translate(174.661 77.9047) rotate(125.517)"/>
</clipPath>
<clipPath id="clip1">
<rect width="148.307" height="5" fill="white" transform="translate(268.229 75) rotate(57.7463)"/>
</clipPath>
<clipPath id="clip2">
<rect width="144.707" height="5" fill="white" transform="translate(732.247 77.4494) rotate(119.332)"/>
</clipPath>
<clipPath id="clip3">
<rect width="61.3238" height="5" fill="white" transform="matrix(0.6705 0.74191 -0.741911 0.670498 765.709 75)"/>
</clipPath>
</defs>
</svg>
