<svg width="1440" height="75" fill="none" xmlns="http://www.w3.org/2000/svg">
  <path fill-rule="evenodd" clip-rule="evenodd" d="M0 0h1440v75H0V0z" fill="#fff"/>
  <path d="M217.144 34.992a5.64 5.64 0 00-5.632 5.632 5.64 5.64 0 005.632 5.632 5.64 5.64 0 005.632-5.632 5.64 5.64 0 00-5.632-5.632zm0 9.216a3.578 3.578 0 01-3.584-3.584c0-1.984 1.6-3.584 3.584-3.584s3.584 1.6 3.584 3.584-1.6 3.584-3.584 3.584zm9.209-4.464v-1.68h-2.048V46h2.048v-3.328c0-1.408.928-2.208 1.792-2.448a3.118 3.118 0 011.536 0v-2.416c-1.44.096-2.8.704-3.328 1.936zm8.065-1.936c-2.192 0-3.968 1.888-3.968 4.224 0 2.336 1.776 4.224 3.968 4.224.96 0 1.792-.368 2.432-1.104V46h2.048V34.736h-2.048v4.176c-.64-.736-1.472-1.104-2.432-1.104zm.256 6.4c-1.2 0-2.176-.976-2.176-2.176 0-1.2.976-2.176 2.176-2.176 1.2 0 2.176.976 2.176 2.176 0 1.2-.976 2.176-2.176 2.176zm13.446-2.176c0-2.656-1.36-4.224-3.84-4.224-2.768 0-4.096 1.888-4.096 4.224 0 2.304 1.36 4.224 4.448 4.224 1.904 0 2.992-.752 2.992-.752l-.592-1.776c-.656.464-1.536.736-2.368.736-1.28 0-2.064-.752-2.352-1.792h5.776c.016-.208.032-.464.032-.64zm-5.76-.896c0-.656.768-1.536 1.792-1.536 1.232 0 1.792.88 1.792 1.536h-3.584zm9.087-1.392v-1.68h-2.048V46h2.048v-3.328c0-1.408.928-2.208 1.792-2.448a3.118 3.118 0 011.536 0v-2.416c-1.44.096-2.8.704-3.328 1.936zm17.142-4.496v7.424l-5.376-7.424h-2.048V46h2.048v-7.424L268.589 46h2.048V35.248h-2.048zm7.803 2.56a4.22 4.22 0 00-4.224 4.224 4.22 4.22 0 004.224 4.224 4.22 4.22 0 004.224-4.224 4.22 4.22 0 00-4.224-4.224zm0 6.4c-1.2 0-2.176-.976-2.176-2.176 0-1.2.976-2.176 2.176-2.176 1.2 0 2.176.976 2.176 2.176 0 1.2-.976 2.176-2.176 2.176zm6.781 2.048c.72 0 1.28-.56 1.28-1.28s-.56-1.28-1.28-1.28-1.28.56-1.28 1.28.56 1.28 1.28 1.28zm12.265-7.424c-.32 0-1.296.032-1.936.512l.288-2.048h4.224v-2.048h-5.888l-1.024 6.4h1.792c.512-.592 1.28-.896 2.176-.896 1.296 0 1.92.816 1.92 1.664 0 1.072-.896 1.792-2.048 1.792-1.344 0-1.952-.736-2.048-1.568l-2.048.16c.128 1.984 1.488 3.456 4.096 3.456 2.352 0 4.096-1.472 4.096-4.016 0-2.128-1.744-3.408-3.6-3.408zm9.367-3.84c-2.528 0-4.224 2.528-4.224 5.632 0 3.104 1.68 5.632 4.224 5.632 2.512 0 4.224-2.528 4.224-5.632 0-3.104-1.712-5.632-4.224-5.632zm0 9.216c-1.2 0-2.176-1.6-2.176-3.584s.976-3.584 2.176-3.584c1.2 0 2.176 1.6 2.176 3.584s-.976 3.584-2.176 3.584zm9.984-9.216c-2.528 0-4.224 2.528-4.224 5.632 0 3.104 1.68 5.632 4.224 5.632 2.512 0 4.224-2.528 4.224-5.632 0-3.104-1.712-5.632-4.224-5.632zm0 9.216c-1.2 0-2.176-1.6-2.176-3.584s.976-3.584 2.176-3.584c1.2 0 2.176 1.6 2.176 3.584s-.976 3.584-2.176 3.584zm9.984-9.216c-2.528 0-4.224 2.528-4.224 5.632 0 3.104 1.68 5.632 4.224 5.632 2.512 0 4.224-2.528 4.224-5.632 0-3.104-1.712-5.632-4.224-5.632zm0 9.216c-1.2 0-2.176-1.6-2.176-3.584s.976-3.584 2.176-3.584c1.2 0 2.176 1.6 2.176 3.584s-.976 3.584-2.176 3.584zm9.985-9.216c-2.528 0-4.224 2.528-4.224 5.632 0 3.104 1.68 5.632 4.224 5.632 2.512 0 4.224-2.528 4.224-5.632 0-3.104-1.712-5.632-4.224-5.632zm0 9.216c-1.2 0-2.176-1.6-2.176-3.584s.976-3.584 2.176-3.584c1.2 0 2.176 1.6 2.176 3.584s-.976 3.584-2.176 3.584zm9.984-9.216c-2.528 0-4.224 2.528-4.224 5.632 0 3.104 1.68 5.632 4.224 5.632 2.512 0 4.224-2.528 4.224-5.632 0-3.104-1.712-5.632-4.224-5.632zm0 9.216c-1.2 0-2.176-1.6-2.176-3.584s.976-3.584 2.176-3.584c1.2 0 2.176 1.6 2.176 3.584s-.976 3.584-2.176 3.584zm9.984-9.216c-2.528 0-4.224 2.528-4.224 5.632 0 3.104 1.68 5.632 4.224 5.632 2.512 0 4.224-2.528 4.224-5.632 0-3.104-1.712-5.632-4.224-5.632zm0 9.216c-1.2 0-2.176-1.6-2.176-3.584s.976-3.584 2.176-3.584c1.2 0 2.176 1.6 2.176 3.584s-.976 3.584-2.176 3.584zm9.985-9.216c-2.528 0-4.224 2.528-4.224 5.632 0 3.104 1.68 5.632 4.224 5.632 2.512 0 4.224-2.528 4.224-5.632 0-3.104-1.712-5.632-4.224-5.632zm0 9.216c-1.2 0-2.176-1.6-2.176-3.584s.976-3.584 2.176-3.584c1.2 0 2.176 1.6 2.176 3.584s-.976 3.584-2.176 3.584zm9.984-9.216c-2.528 0-4.224 2.528-4.224 5.632 0 3.104 1.68 5.632 4.224 5.632 2.512 0 4.224-2.528 4.224-5.632 0-3.104-1.712-5.632-4.224-5.632zm0 9.216c-1.2 0-2.176-1.6-2.176-3.584s.976-3.584 2.176-3.584c1.2 0 2.176 1.6 2.176 3.584s-.976 3.584-2.176 3.584zm9.985-9.216c-2.528 0-4.224 2.528-4.224 5.632 0 3.104 1.68 5.632 4.224 5.632 2.512 0 4.224-2.528 4.224-5.632 0-3.104-1.712-5.632-4.224-5.632zm0 9.216c-1.2 0-2.176-1.6-2.176-3.584s.976-3.584 2.176-3.584c1.2 0 2.176 1.6 2.176 3.584s-.976 3.584-2.176 3.584zm9.984-9.216c-2.528 0-4.224 2.528-4.224 5.632 0 3.104 1.68 5.632 4.224 5.632 2.512 0 4.224-2.528 4.224-5.632 0-3.104-1.712-5.632-4.224-5.632zm0 9.216c-1.2 0-2.176-1.6-2.176-3.584s.976-3.584 2.176-3.584c1.2 0 2.176 1.6 2.176 3.584s-.976 3.584-2.176 3.584zm9.984-9.216c-2.528 0-4.224 2.528-4.224 5.632 0 3.104 1.68 5.632 4.224 5.632 2.512 0 4.224-2.528 4.224-5.632 0-3.104-1.712-5.632-4.224-5.632zm0 9.216c-1.2 0-2.176-1.6-2.176-3.584s.976-3.584 2.176-3.584c1.2 0 2.176 1.6 2.176 3.584s-.976 3.584-2.176 3.584zm9.985-9.216c-2.528 0-4.224 2.528-4.224 5.632 0 3.104 1.68 5.632 4.224 5.632 2.512 0 4.224-2.528 4.224-5.632 0-3.104-1.712-5.632-4.224-5.632zm0 9.216c-1.2 0-2.176-1.6-2.176-3.584s.976-3.584 2.176-3.584c1.2 0 2.176 1.6 2.176 3.584s-.976 3.584-2.176 3.584zm9.984-9.216c-2.528 0-4.224 2.528-4.224 5.632 0 3.104 1.68 5.632 4.224 5.632 2.512 0 4.224-2.528 4.224-5.632 0-3.104-1.712-5.632-4.224-5.632zm0 9.216c-1.2 0-2.176-1.6-2.176-3.584s.976-3.584 2.176-3.584c1.2 0 2.176 1.6 2.176 3.584s-.976 3.584-2.176 3.584zm6.016-8.192v1.92l2.048-.448V46h2.048V34.992l-4.096 1.024zm275.652-1.768v2.048h2.816V45h2.048v-8.704h2.816v-2.048h-7.68zM723.693 45l-2.72-3.744c1.584-.48 2.464-1.92 2.464-3.424 0-2.08-1.296-3.584-4.096-3.584h-3.84V45h2.048v-3.584h1.232L721.197 45h2.496zm-6.144-8.704h2.048c.992 0 1.792.528 1.792 1.536 0 .896-.8 1.536-1.792 1.536h-2.048v-3.072zm13.606 3.072l3.568-5.12h-2.576l-2.432 3.776-2.432-3.776h-2.576l3.568 5.12L724.467 45h2.56l2.688-4.096L732.403 45h2.56l-3.808-5.632zM103.448 46h2.304l-4.448-10.752h-1.856L95 46h2.304l.8-2.048h4.544l.8 2.048zm-4.56-4.096l1.488-3.84 1.488 3.84h-2.976zm7.886-7.168V46h2.048V34.736h-2.048zm3.969 0V46h2.048V34.736h-2.048zm14.073.256a5.64 5.64 0 00-5.632 5.632 5.64 5.64 0 005.632 5.632 5.64 5.64 0 005.632-5.632 5.64 5.64 0 00-5.632-5.632zm0 9.216a3.578 3.578 0 01-3.584-3.584c0-1.984 1.6-3.584 3.584-3.584s3.584 1.6 3.584 3.584-1.6 3.584-3.584 3.584zm9.209-4.464v-1.68h-2.048V46h2.048v-3.328c0-1.408.928-2.208 1.792-2.448a3.118 3.118 0 011.536 0v-2.416c-1.44.096-2.8.704-3.328 1.936zm8.064-1.936c-2.192 0-3.968 1.888-3.968 4.224 0 2.336 1.776 4.224 3.968 4.224.96 0 1.792-.368 2.432-1.104V46h2.048V34.736h-2.048v4.176c-.64-.736-1.472-1.104-2.432-1.104zm.256 6.4c-1.2 0-2.176-.976-2.176-2.176 0-1.2.976-2.176 2.176-2.176 1.2 0 2.176.976 2.176 2.176 0 1.2-.976 2.176-2.176 2.176zm13.447-2.176c0-2.656-1.36-4.224-3.84-4.224-2.768 0-4.096 1.888-4.096 4.224 0 2.304 1.36 4.224 4.448 4.224 1.904 0 2.992-.752 2.992-.752l-.592-1.776c-.656.464-1.536.736-2.368.736-1.28 0-2.064-.752-2.352-1.792h5.776c.016-.208.032-.464.032-.64zm-5.76-.896c0-.656.768-1.536 1.792-1.536 1.232 0 1.792.88 1.792 1.536h-3.584zm9.087-1.392v-1.68h-2.048V46h2.048v-3.328c0-1.408.928-2.208 1.792-2.448a3.118 3.118 0 011.536 0v-2.416c-1.44.096-2.8.704-3.328 1.936zm8.33 1.2c-.848-.144-1.68-.224-1.68-.704 0-.336.592-.496 1.424-.48 1.056.016 2.112.384 2.512.672l.576-1.856a6.946 6.946 0 00-3.088-.768c-2.08 0-3.472 1.152-3.472 2.432 0 1.296.496 2.24 3.456 2.72 1.056.176 1.408.304 1.408.656 0 .496-.688.704-1.632.688-.96-.016-2.128-.48-2.816-1.12l-.672 1.92c.4.352 1.792 1.152 3.68 1.152 2.208 0 3.488-1.2 3.488-2.816 0-1.008-.496-2.064-3.184-2.496zM95 47.6h76.145v.8H95v-.8z" fill="#000"/>
  <path d="M189.912 43.825L193.729 40l-3.817-3.825L191.087 35l5 5-5 5-1.175-1.175z" fill="#DBDBDB"/>
  <rect x="1019" y="19" width="285" height="38" rx="3" stroke="#F3F5F6" stroke-width="2"/>
  <path d="M1041.5 40h-.79l-.28-.27a6.471 6.471 0 001.57-4.23 6.5 6.5 0 10-6.5 6.5c1.61 0 3.09-.59 4.23-1.57l.27.28v.79l5 4.99 1.49-1.49-4.99-5zm-6 0c-2.49 0-4.5-2.01-4.5-4.5s2.01-4.5 4.5-4.5 4.5 2.01 4.5 4.5-2.01 4.5-4.5 4.5z" fill="#333"/>
  <path d="M1062.35 37.512c-1.48-.294-2.12-.63-2.12-1.358 0-.84.72-1.33 2.01-1.33 1.18 0 1.93.518 2.42.994l.65-1.218c-1.16-1.078-2.65-1.12-3.04-1.12-2.2 0-3.39 1.204-3.39 2.73 0 1.26.74 2.198 3.36 2.646 1.29.224 2.14.686 2.14 1.442 0 .896-.77 1.47-2.18 1.47-1.11 0-2.18-.518-2.97-1.386l-.67 1.204c.14.168 1.34 1.526 3.61 1.526 2.2 0 3.56-1.232 3.56-2.87 0-1.582-1.14-2.296-3.38-2.73zm10.99 2.156c0-2.184-1.37-3.5-3.15-3.5-2.06 0-3.34 1.554-3.34 3.472 0 1.89 1.17 3.472 3.52 3.472 1.46 0 2.34-.658 2.52-.812l-.44-1.204c-.54.378-1.25.672-2.05.672-1.06 0-1.97-.462-2.18-1.512h5.08c.03-.182.04-.448.04-.588zm-5.12-.644c.03-.658.68-1.512 1.92-1.512 1.27 0 1.8.854 1.83 1.512h-3.75zm11.84-2.744v.98c-.55-.714-1.33-1.092-2.24-1.092-1.96 0-3.36 1.554-3.36 3.472s1.4 3.472 3.36 3.472c.91 0 1.69-.378 2.24-1.092V43h1.34v-6.72h-1.34zm-2.13 5.488c-1.17 0-2.13-.952-2.13-2.128 0-1.176.96-2.128 2.13-2.128 1.18 0 2.13.952 2.13 2.128 0 1.176-.95 2.128-2.13 2.128zm6.73-4.046V36.28h-1.34V43h1.34v-2.996c0-1.232.57-1.974 1.46-2.31.42-.154.91-.154 1.23-.056v-1.47c-1.26 0-2.23.588-2.69 1.554zm3.36 1.918c0 1.918 1.33 3.472 3.59 3.472.81 0 1.7-.266 2.24-.77l-.58-1.26c-.42.42-1.01.686-1.65.686-1.25 0-2.25-.966-2.25-2.142 0-1.148 1-2.114 2.25-2.114.64 0 1.23.266 1.65.672l.58-1.246c-.59-.532-1.43-.77-2.24-.77-2.23 0-3.59 1.554-3.59 3.472zm10.73-3.472c-1.05 0-1.71.448-2.1.896v-3.92h-1.34V43h1.34v-3.696c0-1.148 1.04-1.792 1.85-1.792 1.15 0 1.51.658 1.51 1.736V43h1.34v-3.752c0-1.988-.89-3.08-2.6-3.08zm10.22-3.024h-1.34V43h1.34v-.98c.55.714 1.33 1.092 2.24 1.092 1.96 0 3.36-1.554 3.36-3.472s-1.4-3.472-3.36-3.472c-.91 0-1.69.378-2.24 1.092v-4.116zm2.13 8.624c-1.18 0-2.13-.952-2.13-2.128 0-1.176.95-2.128 2.13-2.128 1.17 0 2.13.952 2.13 2.128 0 1.176-.96 2.128-2.13 2.128zm9.48-5.488l-1.97 4.648-1.97-4.648h-1.5l2.71 6.286-1.79 4.018h1.47l4.55-10.304h-1.5zm7.77-1.12c.56 0 1.01-.448 1.01-1.008s-.45-1.008-1.01-1.008-1 .448-1 1.008.44 1.008 1 1.008zm-.67 7.84h1.35v-6.72h-1.35V43zm3.81-2.198c0 1.288.42 2.31 1.7 2.31.38 0 .7-.056.99-.196v-1.358c-.31.154-.75.266-1.08.028-.26-.196-.26-.686-.26-1.162v-2.8h1.34V36.28h-1.34v-2.688h-1.35v2.688h-.89v1.344h.89v3.178zm10.42-1.134c0-2.184-1.38-3.5-3.15-3.5-2.06 0-3.35 1.554-3.35 3.472 0 1.89 1.18 3.472 3.53 3.472 1.45 0 2.34-.658 2.52-.812l-.45-1.204c-.53.378-1.25.672-2.04.672-1.07 0-1.98-.462-2.19-1.512h5.08a4.4 4.4 0 00.05-.588zm-5.13-.644c.03-.658.69-1.512 1.92-1.512 1.27 0 1.81.854 1.83 1.512h-3.75zm13.95-2.856c-.95 0-1.61.294-2.32 1.064-.41-.7-1.07-1.064-1.94-1.064-1.05 0-1.48.448-1.87.896v-.784h-1.35V43h1.35v-3.696c0-1.148.81-1.792 1.62-1.792.93 0 1.29.658 1.29 1.736V43h1.34v-3.696c0-1.148.82-1.792 1.63-1.792.92 0 1.29.658 1.29 1.736V43h1.34v-3.752c0-1.988-.9-3.08-2.38-3.08zm12.1 0c-1.05 0-1.71.448-2.1.896v-.784h-1.34V43h1.34v-3.696c0-1.148 1.04-1.792 1.85-1.792 1.15 0 1.51.658 1.51 1.736V43h1.34v-3.864c0-1.988-1-2.968-2.6-2.968zm9.54.112v.98c-.54-.714-1.33-1.092-2.24-1.092-1.96 0-3.36 1.554-3.36 3.472s1.4 3.472 3.36 3.472c.91 0 1.7-.378 2.24-1.092V43h1.35v-6.72h-1.35zm-2.13 5.488c-1.17 0-2.12-.952-2.12-2.128a2.124 2.124 0 114.25 0c0 1.176-.95 2.128-2.13 2.128zm12.87-5.6c-.96 0-1.61.294-2.33 1.064-.4-.7-1.06-1.064-1.93-1.064-1.05 0-1.48.448-1.88.896v-.784h-1.34V43h1.34v-3.696c0-1.148.82-1.792 1.63-1.792.92 0 1.29.658 1.29 1.736V43h1.34v-3.696c0-1.148.81-1.792 1.62-1.792.93 0 1.29.658 1.29 1.736V43h1.35v-3.752c0-1.988-.9-3.08-2.38-3.08zm10.22 3.5c0-2.184-1.38-3.5-3.15-3.5-2.06 0-3.35 1.554-3.35 3.472 0 1.89 1.18 3.472 3.53 3.472 1.45 0 2.34-.658 2.52-.812l-.45-1.204c-.53.378-1.25.672-2.04.672-1.07 0-1.98-.462-2.19-1.512h5.08a4.4 4.4 0 00.05-.588zm-5.13-.644c.03-.658.69-1.512 1.92-1.512 1.27 0 1.81.854 1.83 1.512h-3.75z" fill="#666B73"/>
</svg>
