<svg width="702" height="388" fill="none" xmlns="http://www.w3.org/2000/svg">
  <path d="M18.012 10.548l2.556-3.384V5.4h-7.74v1.944h5.274l-2.718 3.582.828 1.242h.468c1.422 0 2.34.756 2.34 2.016s-.918 2.034-2.34 2.034c-1.26 0-2.106-.558-2.466-1.62l-1.764 1.026c.702 1.764 2.376 2.61 4.23 2.61 2.322 0 4.41-1.404 4.41-4.05 0-1.962-1.35-3.222-3.078-3.636zm9.379 7.686c3.168 0 4.95-2.646 4.95-6.534s-1.782-6.534-4.95-6.534-4.95 2.646-4.95 6.534 1.782 6.534 4.95 6.534zm0-2.016c-1.854 0-2.88-1.62-2.88-4.518 0-2.898 1.026-4.518 2.88-4.518 1.872 0 2.88 1.62 2.88 4.518 0 2.898-1.008 4.518-2.88 4.518zm11.338 2.016c3.168 0 4.95-2.646 4.95-6.534s-1.782-6.534-4.95-6.534-4.95 2.646-4.95 6.534 1.782 6.534 4.95 6.534zm0-2.016c-1.854 0-2.88-1.62-2.88-4.518 0-2.898 1.026-4.518 2.88-4.518 1.872 0 2.88 1.62 2.88 4.518 0 2.898-1.008 4.518-2.88 4.518zm7.971-4.752a1.36 1.36 0 001.35-1.35c0-.756-.611-1.35-1.35-1.35-.756 0-1.35.594-1.35 1.35 0 .738.594 1.35 1.35 1.35zm0 6.75a1.36 1.36 0 001.35-1.35c0-.756-.611-1.35-1.35-1.35-.756 0-1.35.594-1.35 1.35 0 .738.594 1.35 1.35 1.35zM59.389 5.4h-4.644V18h2.07v-4.32h2.574c2.376 0 4.176-1.818 4.176-4.14 0-2.34-1.8-4.14-4.176-4.14zm0 6.336h-2.574V7.344h2.574c1.224 0 2.106.918 2.106 2.196 0 1.26-.882 2.196-2.106 2.196zm6.82-4.086c.684 0 1.242-.576 1.242-1.242 0-.684-.558-1.242-1.242-1.242-.684 0-1.242.558-1.242 1.242 0 .666.558 1.242 1.242 1.242zM65.236 18h1.944V9h-1.944v9zm8.449.234c1.764 0 3.294-.918 4.05-2.34l-1.674-.954c-.432.828-1.314 1.386-2.394 1.386-1.584 0-2.79-1.206-2.79-2.826s1.206-2.826 2.79-2.826c1.08 0 1.962.54 2.358 1.386l1.674-.972c-.72-1.404-2.25-2.322-4.014-2.322-2.718 0-4.752 2.052-4.752 4.734 0 2.664 2.034 4.734 4.752 4.734zM87.095 18l-4.103-4.59L86.952 9h-2.376l-3.492 3.978V5.4H79.14V18h1.944v-4.158L84.774 18h2.322zm2.28-10.35c.684 0 1.243-.576 1.243-1.242 0-.684-.558-1.242-1.242-1.242-.684 0-1.243.558-1.243 1.242 0 .666.559 1.242 1.243 1.242zM88.404 18h1.944V9h-1.944v9zm8.936-9.234c-1.224 0-2.196.45-2.79 1.386V9h-1.944v9h1.944v-4.824c0-1.836 1.008-2.592 2.286-2.592 1.224 0 2.016.72 2.016 2.088V18h1.944v-5.526c0-2.34-1.44-3.708-3.456-3.708zM110.052 9v1.332c-.684-.972-1.746-1.566-3.132-1.566-2.538 0-4.536 2.07-4.536 4.644 0 2.574 1.998 4.644 4.536 4.644 1.386 0 2.448-.594 3.132-1.566v1.098c0 1.566-1.008 2.484-2.682 2.484-1.566 0-2.232-.612-2.628-1.386l-1.674.972c.756 1.44 2.286 2.178 4.266 2.178 2.358 0 4.626-1.35 4.626-4.248V9h-1.908zm-2.862 7.236c-1.638 0-2.862-1.206-2.862-2.826s1.224-2.826 2.862-2.826c1.638 0 2.862 1.206 2.862 2.826s-1.224 2.826-2.862 2.826zM118.852 5.4V18h2.07V5.4h-2.07zm9.196 3.366c-1.224 0-2.196.45-2.79 1.386V9h-1.944v9h1.944v-4.824c0-1.836 1.008-2.592 2.286-2.592 1.224 0 2.016.72 2.016 2.088V18h1.944v-5.526c0-2.34-1.44-3.708-3.456-3.708zM140.725 5.4v4.878c-.684-.936-1.746-1.512-3.15-1.512-2.448 0-4.482 2.052-4.482 4.734 0 2.664 2.034 4.734 4.482 4.734 1.404 0 2.466-.576 3.15-1.53V18h1.944V5.4h-1.944zm-2.844 10.98c-1.62 0-2.844-1.206-2.844-2.88s1.224-2.88 2.844-2.88c1.62 0 2.844 1.206 2.844 2.88s-1.224 2.88-2.844 2.88zM151.001 9v4.824c0 1.836-1.008 2.592-2.286 2.592-1.224 0-2.016-.72-2.016-2.088V9h-1.944v5.526c0 2.34 1.44 3.708 3.456 3.708 1.224 0 2.196-.45 2.79-1.386V18h1.944V9h-1.944zm8.465 9.234c1.764 0 3.294-.918 4.05-2.34l-1.674-.954c-.432.828-1.314 1.386-2.394 1.386-1.584 0-2.79-1.206-2.79-2.826s1.206-2.826 2.79-2.826c1.08 0 1.962.54 2.358 1.386l1.674-.972c-.72-1.404-2.25-2.322-4.014-2.322-2.718 0-4.752 2.052-4.752 4.734 0 2.664 2.034 4.734 4.752 4.734zm10.477-7.362V9h-2.232V6.48l-1.944.576V9h-1.656v1.872h1.656v4.32c0 2.34 1.188 3.168 4.176 2.808v-1.746c-1.476.072-2.232.09-2.232-1.062v-4.32h2.232zm8.547 5.148V5.4h-2.07V18h7.2v-1.98h-5.13zM189.8 5.4h-4.644V18h2.07v-4.32h2.574c2.376 0 4.176-1.818 4.176-4.14 0-2.34-1.8-4.14-4.176-4.14zm0 6.336h-2.574V7.344h2.574c1.224 0 2.106.918 2.106 2.196 0 1.26-.882 2.196-2.106 2.196zM211.668 6.3h-3.078l4.284 4.284h-8.55v2.232h8.55L208.59 17.1h3.078l5.4-5.4-5.4-5.4zm24.567-.9h-9v1.188h3.87V18h1.26V6.588h3.87V5.4zm4.198 12.816c2.628 0 4.734-2.052 4.734-4.716s-2.106-4.716-4.734-4.716-4.734 2.052-4.734 4.716 2.106 4.716 4.734 4.716zm0-1.152c-1.998 0-3.546-1.566-3.546-3.564s1.548-3.564 3.546-3.564c1.998 0 3.546 1.566 3.546 3.564s-1.548 3.564-3.546 3.564zm11.316-6.912V9h-2.592V6.48l-1.188.36V9h-1.89v1.152h1.89v5.454c0 2.16 1.35 2.754 3.78 2.394v-1.044c-1.746.072-2.592.198-2.592-1.35v-5.454h2.592zm5.593-1.368c-2.79 0-4.698 2.07-4.698 4.716 0 2.718 1.944 4.716 4.788 4.716 1.818 0 3.204-.846 3.96-2.07l-1.044-.612c-.486.864-1.476 1.53-2.898 1.53-1.908 0-3.33-1.134-3.582-2.97h7.902c.018-.18.036-.378.036-.558 0-2.466-1.71-4.752-4.464-4.752zm0 1.152c1.548 0 2.988 1.026 3.24 3.006h-6.714c.234-1.764 1.584-3.006 3.474-3.006zm11.448-2.844a.864.864 0 100-1.728.864.864 0 000 1.728zM268.196 18h1.188V9h-1.188v9zm4.645-6.642c0-.972.954-1.422 1.89-1.422.864 0 1.782.342 2.16 1.26l.99-.576c-.522-1.116-1.674-1.836-3.15-1.836-1.8 0-3.078 1.134-3.078 2.574 0 3.312 5.256 2.034 5.256 4.266 0 1.062-1.008 1.44-2.07 1.44-1.206 0-2.142-.594-2.466-1.512l-1.008.594c.45 1.152 1.674 2.07 3.474 2.07 1.926 0 3.258-1.062 3.258-2.592 0-3.312-5.256-2.034-5.256-4.266zM292.318 9v1.764c-.756-1.206-2.034-1.98-3.636-1.98-2.538 0-4.644 2.052-4.644 4.716s2.106 4.716 4.644 4.716c1.602 0 2.88-.774 3.636-1.98V18h1.188V9h-1.188zm-3.546 8.064c-1.998 0-3.546-1.566-3.546-3.564s1.548-3.564 3.546-3.564c1.998 0 3.546 1.566 3.546 3.564s-1.548 3.564-3.546 3.564zm8.186-5.706c0-.972.954-1.422 1.89-1.422.864 0 1.782.342 2.16 1.26l.99-.576c-.522-1.116-1.674-1.836-3.15-1.836-1.8 0-3.078 1.134-3.078 2.574 0 3.312 5.256 2.034 5.256 4.266 0 1.062-1.008 1.44-2.07 1.44-1.206 0-2.142-.594-2.466-1.512l-1.008.594c.45 1.152 1.674 2.07 3.474 2.07 1.926 0 3.258-1.062 3.258-2.592 0-3.312-5.256-2.034-5.256-4.266zm7.629 0c0-.972.954-1.422 1.89-1.422.864 0 1.782.342 2.16 1.26l.99-.576c-.522-1.116-1.674-1.836-3.15-1.836-1.8 0-3.078 1.134-3.078 2.574 0 3.312 5.256 2.034 5.256 4.266 0 1.062-1.008 1.44-2.07 1.44-1.206 0-2.142-.594-2.466-1.512l-1.008.594c.45 1.152 1.674 2.07 3.474 2.07 1.926 0 3.258-1.062 3.258-2.592 0-3.312-5.256-2.034-5.256-4.266zm7.744-4.266a.864.864 0 100-1.728.864.864 0 000 1.728zM311.737 18h1.188V9h-1.188v9zm11.449-9v1.764c-.756-1.206-2.034-1.98-3.636-1.98-2.538 0-4.644 2.052-4.644 4.716s2.106 4.716 4.644 4.716c1.602 0 2.88-.774 3.636-1.98v1.404c0 1.836-1.242 3.024-3.33 3.024-1.944 0-2.772-.72-3.222-1.638l-1.044.594c.702 1.404 2.196 2.196 4.266 2.196 2.322 0 4.518-1.44 4.518-4.176V9h-1.188zm-3.546 8.064c-1.998 0-3.546-1.566-3.546-3.564s1.548-3.564 3.546-3.564c1.998 0 3.546 1.566 3.546 3.564s-1.548 3.564-3.546 3.564zm11.461-8.28c-1.278 0-2.322.486-3.024 1.62V9h-1.188v9h1.188v-4.716c0-2.412 1.332-3.348 2.916-3.348 1.566 0 2.448.936 2.448 2.538V18h1.188v-5.526c0-2.25-1.332-3.69-3.528-3.69zm9.983 0c-2.79 0-4.698 2.07-4.698 4.716 0 2.718 1.944 4.716 4.788 4.716 1.818 0 3.204-.846 3.96-2.07l-1.044-.612c-.486.864-1.476 1.53-2.898 1.53-1.908 0-3.33-1.134-3.582-2.97h7.902c.018-.18.036-.378.036-.558 0-2.466-1.71-4.752-4.464-4.752zm0 1.152c1.548 0 2.988 1.026 3.24 3.006h-6.714c.234-1.764 1.584-3.006 3.474-3.006zM355.178 5.4v5.364c-.756-1.206-2.034-1.98-3.636-1.98-2.538 0-4.644 2.052-4.644 4.716s2.106 4.716 4.644 4.716c1.602 0 2.88-.774 3.636-1.98V18h1.188V5.4h-1.188zm-3.546 11.664c-1.998 0-3.546-1.566-3.546-3.564s1.548-3.564 3.546-3.564c1.998 0 3.546 1.566 3.546 3.564s-1.548 3.564-3.546 3.564zM371.121 9v1.764c-.756-1.206-2.034-1.98-3.636-1.98-2.538 0-4.644 2.052-4.644 4.716s2.106 4.716 4.644 4.716c1.602 0 2.88-.774 3.636-1.98V18h1.188V9h-1.188zm-3.546 8.064c-1.998 0-3.546-1.566-3.546-3.564s1.548-3.564 3.546-3.564c1.998 0 3.546 1.566 3.546 3.564s-1.548 3.564-3.546 3.564zm11.749.936h1.188V4.86h-1.188V18zm4.303-10.908a.864.864 0 100-1.728.864.864 0 000 1.728zM383.033 18h1.188V9h-1.188v9zm7.903.216c1.764 0 3.294-.918 4.032-2.34l-.99-.576c-.576 1.044-1.674 1.764-3.042 1.764-1.998 0-3.546-1.566-3.546-3.564s1.548-3.564 3.546-3.564c1.35 0 2.484.702 2.97 1.764l.972-.558c-.648-1.422-2.16-2.358-3.942-2.358-2.718 0-4.734 2.052-4.734 4.716s2.016 4.716 4.734 4.716zm9.808-9.432c-2.79 0-4.698 2.07-4.698 4.716 0 2.718 1.944 4.716 4.788 4.716 1.818 0 3.204-.846 3.96-2.07l-1.044-.612c-.486.864-1.476 1.53-2.898 1.53-1.908 0-3.33-1.134-3.582-2.97h7.902c.018-.18.036-.378.036-.558 0-2.466-1.71-4.752-4.464-4.752zm0 1.152c1.548 0 2.988 1.026 3.24 3.006h-6.714c.234-1.764 1.584-3.006 3.474-3.006zm10.566-1.152c-1.278 0-2.322.486-3.024 1.62V9h-1.188v9h1.188v-4.716c0-2.412 1.332-3.348 2.916-3.348 1.566 0 2.448.936 2.448 2.538V18h1.188v-5.526c0-2.25-1.332-3.69-3.528-3.69zm6.761 2.574c0-.972.954-1.422 1.89-1.422.864 0 1.782.342 2.16 1.26l.99-.576c-.522-1.116-1.674-1.836-3.15-1.836-1.8 0-3.078 1.134-3.078 2.574 0 3.312 5.256 2.034 5.256 4.266 0 1.062-1.008 1.44-2.07 1.44-1.206 0-2.142-.594-2.466-1.512l-1.008.594c.45 1.152 1.674 2.07 3.474 2.07 1.926 0 3.258-1.062 3.258-2.592 0-3.312-5.256-2.034-5.256-4.266zm11.132-2.574c-2.79 0-4.698 2.07-4.698 4.716 0 2.718 1.944 4.716 4.788 4.716 1.818 0 3.204-.846 3.96-2.07l-1.044-.612c-.486.864-1.476 1.53-2.898 1.53-1.908 0-3.33-1.134-3.582-2.97h7.902c.018-.18.036-.378.036-.558 0-2.466-1.71-4.752-4.464-4.752zm0 1.152c1.548 0 2.988 1.026 3.24 3.006h-6.714c.234-1.764 1.584-3.006 3.474-3.006zm15.678-1.152c-1.602 0-2.88.774-3.636 1.98V9h-1.188v12.6h1.188v-5.364c.756 1.206 2.034 1.98 3.636 1.98 2.538 0 4.644-2.052 4.644-4.716s-2.106-4.716-4.644-4.716zm-.09 8.28c-1.998 0-3.546-1.566-3.546-3.564s1.548-3.564 3.546-3.564c1.998 0 3.546 1.566 3.546 3.564s-1.548 3.564-3.546 3.564zM451.5 18h1.188V4.86H451.5V18zm11.449-9v1.764c-.756-1.206-2.034-1.98-3.636-1.98-2.538 0-4.644 2.052-4.644 4.716s2.106 4.716 4.644 4.716c1.602 0 2.88-.774 3.636-1.98V18h1.188V9h-1.188zm-3.546 8.064c-1.998 0-3.546-1.566-3.546-3.564s1.548-3.564 3.546-3.564c1.998 0 3.546 1.566 3.546 3.564s-1.548 3.564-3.546 3.564zm12.02-6.912V9h-2.592V6.48l-1.188.36V9h-1.89v1.152h1.89v5.454c0 2.16 1.35 2.754 3.78 2.394v-1.044c-1.746.072-2.592.198-2.592-1.35v-5.454h2.592zm5.593-1.368c-2.79 0-4.698 2.07-4.698 4.716 0 2.718 1.944 4.716 4.788 4.716 1.818 0 3.204-.846 3.96-2.07l-1.044-.612c-.486.864-1.476 1.53-2.898 1.53-1.908 0-3.33-1.134-3.582-2.97h7.902c.018-.18.036-.378.036-.558 0-2.466-1.71-4.752-4.464-4.752zm0 1.152c1.548 0 2.988 1.026 3.24 3.006h-6.714c.234-1.764 1.584-3.006 3.474-3.006zm12.653 9.864h1.188c-1.26-2.52-1.98-5.22-1.98-8.1s.72-5.58 1.98-8.1h-1.188c-1.26 2.52-1.98 5.22-1.98 8.1s.72 5.58 1.98 8.1zm4.422-2.988V5.4h-1.26V18h7.02v-1.188h-5.76zM506.155 5.4h-4.5V18h1.26v-4.68h3.24c2.268 0 3.96-1.71 3.96-3.96 0-2.268-1.692-3.96-3.96-3.96zm0 6.732h-3.24V6.588h3.24c1.566 0 2.7 1.152 2.7 2.772 0 1.602-1.134 2.772-2.7 2.772zm6.405 7.668c1.26-2.52 1.98-5.22 1.98-8.1s-.72-5.58-1.98-8.1h-1.188c1.26 2.52 1.98 5.22 1.98 8.1s-.72 5.58-1.98 8.1h1.188zm9.407-12.708a.864.864 0 100-1.728.864.864 0 000 1.728zM521.373 18h1.188V9h-1.188v9zm11.449-12.6v5.364c-.756-1.206-2.034-1.98-3.636-1.98-2.538 0-4.644 2.052-4.644 4.716s2.106 4.716 4.644 4.716c1.602 0 2.88-.774 3.636-1.98V18h1.188V5.4h-1.188zm-3.546 11.664c-1.998 0-3.546-1.566-3.546-3.564s1.548-3.564 3.546-3.564c1.998 0 3.546 1.566 3.546 3.564s-1.548 3.564-3.546 3.564zm11.408-8.28c-2.79 0-4.698 2.07-4.698 4.716 0 2.718 1.944 4.716 4.788 4.716 1.818 0 3.204-.846 3.96-2.07l-1.044-.612c-.486.864-1.476 1.53-2.898 1.53-1.908 0-3.33-1.134-3.582-2.97h7.902c.018-.18.036-.378.036-.558 0-2.466-1.71-4.752-4.464-4.752zm0 1.152c1.548 0 2.988 1.026 3.24 3.006h-6.714c.234-1.764 1.584-3.006 3.474-3.006zm10.565-1.152c-1.278 0-2.322.486-3.024 1.62V9h-1.188v9h1.188v-4.716c0-2.412 1.332-3.348 2.916-3.348 1.566 0 2.448.936 2.448 2.538V18h1.188v-5.526c0-2.25-1.332-3.69-3.528-3.69zm10.595 1.368V9h-2.592V6.48l-1.188.36V9h-1.89v1.152h1.89v5.454c0 2.16 1.35 2.754 3.78 2.394v-1.044c-1.746.072-2.592.198-2.592-1.35v-5.454h2.592zm2.574-3.06a.864.864 0 100-1.728.864.864 0 000 1.728zM563.824 18h1.188V9h-1.188v9zm10.477-9h-4.86v-.36c0-1.728.846-2.304 2.592-2.304.558 0 1.098.036 1.728.144V5.4c-.648-.144-1.188-.216-1.728-.216-2.43 0-3.78 1.116-3.78 3.456V9h-1.53v1.152h1.53V18h1.188v-7.848h3.672V18h1.188V9zm6.672-.216c-2.79 0-4.698 2.07-4.698 4.716 0 2.718 1.944 4.716 4.788 4.716 1.818 0 3.204-.846 3.96-2.07l-1.044-.612c-.486.864-1.476 1.53-2.898 1.53-1.908 0-3.33-1.134-3.582-2.97h7.902c.018-.18.036-.378.036-.558 0-2.466-1.71-4.752-4.464-4.752zm0 1.152c1.548 0 2.988 1.026 3.24 3.006h-6.714c.234-1.764 1.584-3.006 3.474-3.006zm7.541.558V9h-1.188v9h1.188v-5.004c0-2.232 1.404-2.988 2.844-2.988V8.856c-1.152 0-2.214.378-2.844 1.638zM18.012 114.548l2.556-3.384V109.4h-7.74v1.944h5.274l-2.718 3.582.828 1.242h.468c1.422 0 2.34.756 2.34 2.016s-.918 2.034-2.34 2.034c-1.26 0-2.106-.558-2.466-1.62l-1.764 1.026c.702 1.764 2.376 2.61 4.23 2.61 2.322 0 4.41-1.404 4.41-4.05 0-1.962-1.35-3.222-3.078-3.636zm9.379 7.686c3.168 0 4.95-2.646 4.95-6.534s-1.782-6.534-4.95-6.534-4.95 2.646-4.95 6.534 1.782 6.534 4.95 6.534zm0-2.016c-1.854 0-2.88-1.62-2.88-4.518 0-2.898 1.026-4.518 2.88-4.518 1.872 0 2.88 1.62 2.88 4.518 0 2.898-1.008 4.518-2.88 4.518zm8.862-10.818l-3.312 1.17.504 1.764 2.538-.72V122h2.07v-12.6h-1.8zm5.455 6.066a1.36 1.36 0 001.35-1.35c0-.756-.612-1.35-1.35-1.35-.756 0-1.35.594-1.35 1.35 0 .738.594 1.35 1.35 1.35zm0 6.75a1.36 1.36 0 001.35-1.35c0-.756-.612-1.35-1.35-1.35-.756 0-1.35.594-1.35 1.35 0 .738.594 1.35 1.35 1.35zM54.396 109.4h-4.644V122h2.07v-4.32h2.574c2.376 0 4.176-1.818 4.176-4.14 0-2.34-1.8-4.14-4.176-4.14zm0 6.336h-2.574v-4.392h2.574c1.224 0 2.106.918 2.106 2.196 0 1.26-.882 2.196-2.106 2.196zm6.82-4.086c.683 0 1.241-.576 1.241-1.242 0-.684-.558-1.242-1.242-1.242-.684 0-1.242.558-1.242 1.242 0 .666.558 1.242 1.242 1.242zM60.242 122h1.944v-9h-1.944v9zm8.45.234c1.764 0 3.294-.918 4.05-2.34l-1.674-.954c-.433.828-1.315 1.386-2.395 1.386-1.584 0-2.79-1.206-2.79-2.826s1.207-2.826 2.79-2.826c1.08 0 1.962.54 2.358 1.386l1.675-.972c-.72-1.404-2.25-2.322-4.014-2.322-2.718 0-4.752 2.052-4.752 4.734 0 2.664 2.034 4.734 4.751 4.734zm13.41-.234L78 117.41l3.96-4.41h-2.376l-3.492 3.978V109.4h-1.944V122h1.944v-4.158l3.69 4.158h2.322zm2.28-10.35c.684 0 1.242-.576 1.242-1.242 0-.684-.558-1.242-1.242-1.242-.684 0-1.242.558-1.242 1.242 0 .666.558 1.242 1.242 1.242zM83.411 122h1.944v-9h-1.944v9zm8.936-9.234c-1.224 0-2.197.45-2.79 1.386V113h-1.945v9h1.945v-4.824c0-1.836 1.007-2.592 2.285-2.592 1.225 0 2.017.72 2.017 2.088V122h1.944v-5.526c0-2.34-1.44-3.708-3.456-3.708zm12.713.234v1.332c-.684-.972-1.746-1.566-3.132-1.566-2.538 0-4.536 2.07-4.536 4.644 0 2.574 1.998 4.644 4.536 4.644 1.386 0 2.448-.594 3.132-1.566v1.098c0 1.566-1.008 2.484-2.682 2.484-1.566 0-2.232-.612-2.628-1.386l-1.674.972c.756 1.44 2.286 2.178 4.266 2.178 2.358 0 4.626-1.35 4.626-4.248V113h-1.908zm-2.862 7.236c-1.638 0-2.862-1.206-2.862-2.826s1.224-2.826 2.862-2.826c1.638 0 2.862 1.206 2.862 2.826s-1.224 2.826-2.862 2.826zm13.372 3.564h1.944c-1.26-2.52-1.98-5.22-1.98-8.1s.72-5.58 1.98-8.1h-1.944c-1.26 2.52-1.98 5.22-1.98 8.1s.72 5.58 1.98 8.1zm8.207-14.4h-4.644V122h2.07v-4.32h2.574c2.376 0 4.176-1.818 4.176-4.14 0-2.34-1.8-4.14-4.176-4.14zm0 6.336h-2.574v-4.392h2.574c1.224 0 2.106.918 2.106 2.196 0 1.26-.882 2.196-2.106 2.196zm6.819-4.086c.684 0 1.242-.576 1.242-1.242 0-.684-.558-1.242-1.242-1.242-.684 0-1.242.558-1.242 1.242 0 .666.558 1.242 1.242 1.242zm-.972 10.35h1.944v-9h-1.944v9zm8.449.234c1.764 0 3.294-.918 4.05-2.34l-1.674-.954c-.432.828-1.314 1.386-2.394 1.386-1.584 0-2.79-1.206-2.79-2.826s1.206-2.826 2.79-2.826c1.08 0 1.962.54 2.358 1.386l1.674-.972c-.72-1.404-2.25-2.322-4.014-2.322-2.718 0-4.752 2.052-4.752 4.734 0 2.664 2.034 4.734 4.752 4.734zm13.412-.234l-4.104-4.59 3.96-4.41h-2.376l-3.492 3.978V109.4h-1.944V122h1.944v-4.158l3.69 4.158h2.322zm2.477 1.8c1.26-2.52 1.98-5.22 1.98-8.1s-.72-5.58-1.98-8.1h-1.944c1.26 2.52 1.98 5.22 1.98 8.1s-.72 5.58-1.98 8.1h1.944zm20.124-13.5h-3.078l4.284 4.284h-8.55v2.232h8.55l-4.284 4.284h3.078l5.4-5.4-5.4-5.4zm16.647-.9V122h1.26v-12.6h-1.26zm8.738 4.752V113h-2.592v-2.52l-1.188.36V113h-1.89v1.152h1.89v5.454c0 2.16 1.35 2.754 3.78 2.394v-1.044c-1.746.072-2.592.198-2.592-1.35v-5.454h2.592zm5.593-1.368c-2.79 0-4.698 2.07-4.698 4.716 0 2.718 1.944 4.716 4.788 4.716 1.818 0 3.204-.846 3.96-2.07l-1.044-.612c-.486.864-1.476 1.53-2.898 1.53-1.908 0-3.33-1.134-3.582-2.97h7.902c.018-.18.036-.378.036-.558 0-2.466-1.71-4.752-4.464-4.752zm0 1.152c1.548 0 2.988 1.026 3.24 3.006h-6.714c.234-1.764 1.584-3.006 3.474-3.006zm15.948-1.152c-1.152 0-2.25.522-2.916 1.638-.504-1.044-1.476-1.638-2.736-1.638-1.08 0-2.052.432-2.754 1.53V113h-1.188v9h1.188v-4.986c0-2.232 1.296-3.078 2.592-3.078 1.278 0 2.106.846 2.106 2.448V122h1.188v-4.986c0-2.232 1.116-3.078 2.502-3.078 1.278 0 2.196.846 2.196 2.448V122h1.188v-5.616c0-2.25-1.386-3.6-3.366-3.6zm10.758-1.692a.864.864 0 100-1.728.864.864 0 000 1.728zM231.176 122h1.188v-9h-1.188v9zm4.645-6.642c0-.972.954-1.422 1.89-1.422.864 0 1.782.342 2.16 1.26l.99-.576c-.522-1.116-1.674-1.836-3.15-1.836-1.8 0-3.078 1.134-3.078 2.574 0 3.312 5.256 2.034 5.256 4.266 0 1.062-1.008 1.44-2.07 1.44-1.206 0-2.142-.594-2.466-1.512l-1.008.594c.45 1.152 1.674 2.07 3.474 2.07 1.926 0 3.258-1.062 3.258-2.592 0-3.312-5.256-2.034-5.256-4.266zm12.674 0c0-.972.954-1.422 1.89-1.422.864 0 1.782.342 2.16 1.26l.99-.576c-.522-1.116-1.674-1.836-3.15-1.836-1.8 0-3.078 1.134-3.078 2.574 0 3.312 5.256 2.034 5.256 4.266 0 1.062-1.008 1.44-2.07 1.44-1.206 0-2.142-.594-2.466-1.512l-1.008.594c.45 1.152 1.674 2.07 3.474 2.07 1.926 0 3.258-1.062 3.258-2.592 0-3.312-5.256-2.034-5.256-4.266zm11.168 6.858c1.764 0 3.294-.918 4.032-2.34l-.99-.576c-.576 1.044-1.674 1.764-3.042 1.764-1.998 0-3.546-1.566-3.546-3.564s1.548-3.564 3.546-3.564c1.35 0 2.484.702 2.97 1.764l.972-.558c-.648-1.422-2.16-2.358-3.942-2.358-2.718 0-4.734 2.052-4.734 4.716s2.016 4.716 4.734 4.716zm13.39-9.216v1.764c-.756-1.206-2.034-1.98-3.636-1.98-2.538 0-4.644 2.052-4.644 4.716s2.106 4.716 4.644 4.716c1.602 0 2.88-.774 3.636-1.98V122h1.188v-9h-1.188zm-3.546 8.064c-1.998 0-3.546-1.566-3.546-3.564s1.548-3.564 3.546-3.564c1.998 0 3.546 1.566 3.546 3.564s-1.548 3.564-3.546 3.564zm11.461-8.28c-1.278 0-2.322.486-3.024 1.62V113h-1.188v9h1.188v-4.716c0-2.412 1.332-3.348 2.916-3.348 1.566 0 2.448.936 2.448 2.538V122h1.188v-5.526c0-2.25-1.332-3.69-3.528-3.69zm10.037 0c-1.278 0-2.322.486-3.024 1.62V113h-1.188v9h1.188v-4.716c0-2.412 1.332-3.348 2.916-3.348 1.566 0 2.448.936 2.448 2.538V122h1.188v-5.526c0-2.25-1.332-3.69-3.528-3.69zm9.983 0c-2.79 0-4.698 2.07-4.698 4.716 0 2.718 1.944 4.716 4.788 4.716 1.818 0 3.204-.846 3.96-2.07l-1.044-.612c-.486.864-1.476 1.53-2.898 1.53-1.908 0-3.33-1.134-3.582-2.97h7.902c.018-.18.036-.378.036-.558 0-2.466-1.71-4.752-4.464-4.752zm0 1.152c1.548 0 2.988 1.026 3.24 3.006h-6.714c.234-1.764 1.584-3.006 3.474-3.006zm14.094-4.536v5.364c-.756-1.206-2.034-1.98-3.636-1.98-2.538 0-4.644 2.052-4.644 4.716s2.106 4.716 4.644 4.716c1.602 0 2.88-.774 3.636-1.98V122h1.188v-12.6h-1.188zm-3.546 11.664c-1.998 0-3.546-1.566-3.546-3.564s1.548-3.564 3.546-3.564c1.998 0 3.546 1.566 3.546 3.564s-1.548 3.564-3.546 3.564zM331.025 113v1.764c-.756-1.206-2.034-1.98-3.636-1.98-2.538 0-4.644 2.052-4.644 4.716s2.106 4.716 4.644 4.716c1.602 0 2.88-.774 3.636-1.98V122h1.188v-9h-1.188zm-3.546 8.064c-1.998 0-3.546-1.566-3.546-3.564s1.548-3.564 3.546-3.564c1.998 0 3.546 1.566 3.546 3.564s-1.548 3.564-3.546 3.564zm11.462-8.28c-1.278 0-2.322.486-3.024 1.62V113h-1.188v9h1.188v-4.716c0-2.412 1.332-3.348 2.916-3.348 1.566 0 2.448.936 2.448 2.538V122h1.188v-5.526c0-2.25-1.332-3.69-3.528-3.69zm13.565-3.384v5.364c-.756-1.206-2.034-1.98-3.636-1.98-2.538 0-4.644 2.052-4.644 4.716s2.106 4.716 4.644 4.716c1.602 0 2.88-.774 3.636-1.98V122h1.188v-12.6h-1.188zm-3.546 11.664c-1.998 0-3.546-1.566-3.546-3.564s1.548-3.564 3.546-3.564c1.998 0 3.546 1.566 3.546 3.564s-1.548 3.564-3.546 3.564zm16.573-8.28c-1.602 0-2.88.774-3.636 1.98V113h-1.188v12.6h1.188v-5.364c.756 1.206 2.034 1.98 3.636 1.98 2.538 0 4.644-2.052 4.644-4.716s-2.106-4.716-4.644-4.716zm-.09 8.28c-1.998 0-3.546-1.566-3.546-3.564s1.548-3.564 3.546-3.564c1.998 0 3.546 1.566 3.546 3.564s-1.548 3.564-3.546 3.564zm6.71.936h1.188v-13.14h-1.188V122zm11.449-9v1.764c-.756-1.206-2.034-1.98-3.636-1.98-2.538 0-4.644 2.052-4.644 4.716s2.106 4.716 4.644 4.716c1.602 0 2.88-.774 3.636-1.98V122h1.188v-9h-1.188zm-3.546 8.064c-1.998 0-3.546-1.566-3.546-3.564s1.548-3.564 3.546-3.564c1.998 0 3.546 1.566 3.546 3.564s-1.548 3.564-3.546 3.564zm11.443 1.152c1.764 0 3.294-.918 4.032-2.34l-.99-.576c-.576 1.044-1.674 1.764-3.042 1.764-1.998 0-3.546-1.566-3.546-3.564s1.548-3.564 3.546-3.564c1.35 0 2.484.702 2.97 1.764l.972-.558c-.648-1.422-2.16-2.358-3.942-2.358-2.718 0-4.734 2.052-4.734 4.716s2.016 4.716 4.734 4.716zm9.808-9.432c-2.79 0-4.698 2.07-4.698 4.716 0 2.718 1.944 4.716 4.788 4.716 1.818 0 3.204-.846 3.96-2.07l-1.044-.612c-.486.864-1.476 1.53-2.898 1.53-1.908 0-3.33-1.134-3.582-2.97h7.902c.018-.18.036-.378.036-.558 0-2.466-1.71-4.752-4.464-4.752zm0 1.152c1.548 0 2.988 1.026 3.24 3.006h-6.714c.234-1.764 1.584-3.006 3.474-3.006zM415.4 109.4v5.364c-.756-1.206-2.034-1.98-3.636-1.98-2.538 0-4.644 2.052-4.644 4.716s2.106 4.716 4.644 4.716c1.602 0 2.88-.774 3.636-1.98V122h1.188v-12.6H415.4zm-3.546 11.664c-1.998 0-3.546-1.566-3.546-3.564s1.548-3.564 3.546-3.564c1.998 0 3.546 1.566 3.546 3.564s-1.548 3.564-3.546 3.564zm12.344-9.972a.864.864 0 100-1.728.864.864 0 000 1.728zM423.604 122h1.188v-9h-1.188v9zm7.921-9.216c-1.278 0-2.322.486-3.024 1.62V113h-1.188v9h1.188v-4.716c0-2.412 1.332-3.348 2.916-3.348 1.566 0 2.448.936 2.448 2.538V122h1.188v-5.526c0-2.25-1.332-3.69-3.528-3.69zm10.595 1.368V113h-2.592v-2.52l-1.188.36V113h-1.89v1.152h1.89v5.454c0 2.16 1.35 2.754 3.78 2.394v-1.044c-1.746.072-2.592.198-2.592-1.35v-5.454h2.592zm5.629 8.064c2.628 0 4.734-2.052 4.734-4.716s-2.106-4.716-4.734-4.716-4.734 2.052-4.734 4.716 2.106 4.716 4.734 4.716zm0-1.152c-1.998 0-3.546-1.566-3.546-3.564s1.548-3.564 3.546-3.564c1.998 0 3.546 1.566 3.546 3.564s-1.548 3.564-3.546 3.564zM466.711 113v1.764c-.756-1.206-2.034-1.98-3.636-1.98-2.538 0-4.644 2.052-4.644 4.716s2.106 4.716 4.644 4.716c1.602 0 2.88-.774 3.636-1.98V122h1.188v-9h-1.188zm-3.546 8.064c-1.998 0-3.546-1.566-3.546-3.564s1.548-3.564 3.546-3.564c1.998 0 3.546 1.566 3.546 3.564s-1.548 3.564-3.546 3.564zm16.519-6.912V113h-2.592v-2.52l-1.188.36V113h-1.89v1.152h1.89v5.454c0 2.16 1.35 2.754 3.78 2.394v-1.044c-1.746.072-2.592.198-2.592-1.35v-5.454h2.592zm5.629 8.064c2.628 0 4.734-2.052 4.734-4.716s-2.106-4.716-4.734-4.716-4.734 2.052-4.734 4.716 2.106 4.716 4.734 4.716zm0-1.152c-1.998 0-3.546-1.566-3.546-3.564s1.548-3.564 3.546-3.564c1.998 0 3.546 1.566 3.546 3.564s-1.548 3.564-3.546 3.564zm11.317-6.912V113h-2.592v-2.52l-1.188.36V113h-1.89v1.152h1.89v5.454c0 2.16 1.35 2.754 3.78 2.394v-1.044c-1.746.072-2.592.198-2.592-1.35v-5.454h2.592zm5.593-1.368c-2.79 0-4.698 2.07-4.698 4.716 0 2.718 1.944 4.716 4.788 4.716 1.818 0 3.204-.846 3.96-2.07l-1.044-.612c-.486.864-1.476 1.53-2.898 1.53-1.908 0-3.33-1.134-3.582-2.97h7.902c.018-.18.036-.378.036-.558 0-2.466-1.71-4.752-4.464-4.752zm0 1.152c1.548 0 2.988 1.026 3.24 3.006h-6.714c.234-1.764 1.584-3.006 3.474-3.006zM12.558 174h8.298v-1.998h-5.22l2.844-2.844c1.206-1.224 2.142-2.538 2.142-4.104 0-2.502-1.962-3.888-4.032-3.888-1.674 0-3.258.828-4.068 2.556l1.746 1.026c.486-1.008 1.296-1.566 2.34-1.566 1.08 0 1.944.684 1.944 1.944 0 .954-.702 1.872-1.602 2.772l-4.392 4.482V174zm12.34-12.6l-3.312 1.17.504 1.764 2.538-.72V174h2.07v-12.6h-1.8zm8.82 12.834c3.169 0 4.95-2.646 4.95-6.534s-1.781-6.534-4.95-6.534c-3.167 0-4.95 2.646-4.95 6.534s1.783 6.534 4.95 6.534zm0-2.016c-1.853 0-2.88-1.62-2.88-4.518 0-2.898 1.027-4.518 2.88-4.518 1.873 0 2.88 1.62 2.88 4.518 0 2.898-1.007 4.518-2.88 4.518zm7.973-4.752a1.36 1.36 0 001.35-1.35c0-.756-.612-1.35-1.35-1.35-.756 0-1.35.594-1.35 1.35 0 .738.594 1.35 1.35 1.35zm0 6.75a1.36 1.36 0 001.35-1.35c0-.756-.612-1.35-1.35-1.35-.756 0-1.35.594-1.35 1.35 0 .738.594 1.35 1.35 1.35zm12.238.018c2.628 0 4.464-1.404 4.464-3.708 0-2.502-2.106-3.15-4.194-3.816-1.836-.576-2.538-.99-2.538-1.962 0-.954.774-1.566 1.98-1.566 1.404 0 2.196.756 2.646 1.764l1.746-1.008c-.792-1.674-2.322-2.772-4.392-2.772-2.124 0-4.05 1.314-4.05 3.636 0 2.376 1.908 3.096 3.87 3.69 1.872.576 2.862.954 2.862 2.07 0 .918-.702 1.656-2.34 1.656-1.71 0-2.682-.846-3.132-2.124l-1.782 1.044c.666 1.872 2.376 3.096 4.86 3.096zM66.134 165v4.824c0 1.836-1.008 2.592-2.286 2.592-1.224 0-2.016-.72-2.016-2.088V165h-1.944v5.526c0 2.34 1.44 3.708 3.456 3.708 1.224 0 2.196-.45 2.79-1.386V174h1.944v-9h-1.944zm9.31-.234c-1.403 0-2.465.576-3.15 1.512V161.4h-1.943V174h1.944v-1.296c.684.954 1.746 1.53 3.15 1.53 2.448 0 4.482-2.07 4.482-4.734 0-2.682-2.034-4.734-4.482-4.734zm-.305 7.614c-1.62 0-2.844-1.206-2.844-2.88s1.224-2.88 2.844-2.88c1.62 0 2.844 1.206 2.844 2.88s-1.224 2.88-2.844 2.88zm8.12-4.896c0-.648.612-.954 1.314-.954.738 0 1.368.324 1.692 1.026l1.638-.918c-.63-1.188-1.854-1.872-3.33-1.872-1.836 0-3.294 1.062-3.294 2.754 0 3.222 4.842 2.322 4.842 3.924 0 .72-.666 1.008-1.53 1.008-.99 0-1.71-.486-1.998-1.296l-1.674.972c.576 1.296 1.872 2.106 3.672 2.106 1.944 0 3.51-.972 3.51-2.772 0-3.33-4.842-2.34-4.842-3.978zm11.221-.612V165h-2.232v-2.52l-1.944.576V165h-1.656v1.872h1.656v4.32c0 2.34 1.188 3.168 4.176 2.808v-1.746c-1.476.072-2.232.09-2.232-1.062v-4.32h2.232zm2.735-3.222c.684 0 1.242-.576 1.242-1.242 0-.684-.558-1.242-1.242-1.242-.684 0-1.242.558-1.242 1.242 0 .666.558 1.242 1.242 1.242zM96.243 174h1.944v-9h-1.944v9zm9.224-7.128V165h-2.232v-2.52l-1.944.576V165h-1.656v1.872h1.656v4.32c0 2.34 1.188 3.168 4.176 2.808v-1.746c-1.476.072-2.232.09-2.232-1.062v-4.32h2.232zm7.917-1.872v4.824c0 1.836-1.008 2.592-2.286 2.592-1.224 0-2.016-.72-2.016-2.088V165h-1.944v5.526c0 2.34 1.44 3.708 3.456 3.708 1.224 0 2.196-.45 2.79-1.386V174h1.944v-9h-1.944zm9.239 1.872V165h-2.232v-2.52l-1.944.576V165h-1.656v1.872h1.656v4.32c0 2.34 1.188 3.168 4.176 2.808v-1.746c-1.476.072-2.232.09-2.232-1.062v-4.32h2.232zm2.735-3.222c.684 0 1.242-.576 1.242-1.242 0-.684-.558-1.242-1.242-1.242-.684 0-1.242.558-1.242 1.242 0 .666.558 1.242 1.242 1.242zm-.972 10.35h1.944v-9h-1.944v9zm8.449.234c2.646 0 4.752-2.07 4.752-4.734 0-2.682-2.106-4.734-4.752-4.734-2.628 0-4.752 2.052-4.752 4.734 0 2.664 2.124 4.734 4.752 4.734zm0-1.89c-1.584 0-2.808-1.206-2.808-2.844s1.224-2.844 2.808-2.844c1.584 0 2.808 1.206 2.808 2.844s-1.224 2.844-2.808 2.844zm11.244-7.578c-1.224 0-2.196.45-2.79 1.386V165h-1.944v9h1.944v-4.824c0-1.836 1.008-2.592 2.286-2.592 1.224 0 2.016.72 2.016 2.088V174h1.944v-5.526c0-2.34-1.44-3.708-3.456-3.708zm15.143 0c-1.404 0-2.466.576-3.15 1.512V161.4h-1.944V174h1.944v-1.296c.684.954 1.746 1.53 3.15 1.53 2.448 0 4.482-2.07 4.482-4.734 0-2.682-2.034-4.734-4.482-4.734zm-.306 7.614c-1.62 0-2.844-1.206-2.844-2.88s1.224-2.88 2.844-2.88c1.62 0 2.844 1.206 2.844 2.88s-1.224 2.88-2.844 2.88zM171.18 165l-2.304 6.534-2.682-6.534h-2.124l3.816 8.838-.09.18c-.45 1.188-1.134 1.836-2.394 1.764v1.818c2.07.126 3.546-1.026 4.392-3.312L173.25 165h-2.07zm12.556-3.6h-4.644V174h2.07v-4.32h2.574c2.376 0 4.176-1.818 4.176-4.14 0-2.34-1.8-4.14-4.176-4.14zm0 6.336h-2.574v-4.392h2.574c1.224 0 2.106.918 2.106 2.196 0 1.26-.882 2.196-2.106 2.196zm6.819-4.086c.684 0 1.242-.576 1.242-1.242 0-.684-.558-1.242-1.242-1.242-.684 0-1.242.558-1.242 1.242 0 .666.558 1.242 1.242 1.242zm-.972 10.35h1.944v-9h-1.944v9zm8.449.234c1.764 0 3.294-.918 4.05-2.34l-1.674-.954c-.432.828-1.314 1.386-2.394 1.386-1.584 0-2.79-1.206-2.79-2.826s1.206-2.826 2.79-2.826c1.08 0 1.962.54 2.358 1.386l1.674-.972c-.72-1.404-2.25-2.322-4.014-2.322-2.718 0-4.752 2.052-4.752 4.734 0 2.664 2.034 4.734 4.752 4.734zm13.412-.234l-4.104-4.59 3.96-4.41h-2.376l-3.492 3.978V161.4h-1.944V174h1.944v-4.158l3.69 4.158h2.322zm2.116-3.672h7.164c.036-.252.072-.54.072-.81 0-2.592-1.836-4.752-4.518-4.752-2.826 0-4.752 2.07-4.752 4.734 0 2.7 1.926 4.734 4.896 4.734 1.764 0 3.114-.738 3.942-1.962l-1.602-.936c-.432.63-1.242 1.116-2.322 1.116-1.44 0-2.574-.72-2.88-2.124zm-.018-1.584c.27-1.35 1.26-2.214 2.718-2.214 1.17 0 2.304.666 2.574 2.214h-5.292zm10.909-2.232V165h-1.944v9h1.944v-4.536c0-2.016 1.494-2.61 2.772-2.52v-2.106c-1.134 0-2.232.45-2.772 1.674zm20.228-4.212h-3.078l4.284 4.284h-8.55v2.232h8.55l-4.284 4.284h3.078l5.4-5.4-5.4-5.4zm16.648-.9V174h1.26v-12.6h-1.26zm8.738 4.752V165h-2.592v-2.52l-1.188.36V165h-1.89v1.152h1.89v5.454c0 2.16 1.35 2.754 3.78 2.394v-1.044c-1.746.072-2.592.198-2.592-1.35v-5.454h2.592zm5.593-1.368c-2.79 0-4.698 2.07-4.698 4.716 0 2.718 1.944 4.716 4.788 4.716 1.818 0 3.204-.846 3.96-2.07l-1.044-.612c-.486.864-1.476 1.53-2.898 1.53-1.908 0-3.33-1.134-3.582-2.97h7.902c.018-.18.036-.378.036-.558 0-2.466-1.71-4.752-4.464-4.752zm0 1.152c1.548 0 2.988 1.026 3.24 3.006h-6.714c.234-1.764 1.584-3.006 3.474-3.006zm15.948-1.152c-1.152 0-2.25.522-2.916 1.638-.504-1.044-1.476-1.638-2.736-1.638-1.08 0-2.052.432-2.754 1.53V165h-1.188v9h1.188v-4.986c0-2.232 1.296-3.078 2.592-3.078 1.278 0 2.106.846 2.106 2.448V174h1.188v-4.986c0-2.232 1.116-3.078 2.502-3.078 1.278 0 2.196.846 2.196 2.448V174h1.188v-5.616c0-2.25-1.386-3.6-3.366-3.6zm10.758-1.692a.864.864 0 100-1.728.864.864 0 000 1.728zM301.77 174h1.188v-9h-1.188v9zm4.645-6.642c0-.972.954-1.422 1.89-1.422.864 0 1.782.342 2.16 1.26l.99-.576c-.522-1.116-1.674-1.836-3.15-1.836-1.8 0-3.078 1.134-3.078 2.574 0 3.312 5.256 2.034 5.256 4.266 0 1.062-1.008 1.44-2.07 1.44-1.206 0-2.142-.594-2.466-1.512l-1.008.594c.45 1.152 1.674 2.07 3.474 2.07 1.926 0 3.258-1.062 3.258-2.592 0-3.312-5.256-2.034-5.256-4.266zm12.926-.864V165h-1.188v9h1.188v-5.004c0-2.232 1.404-2.988 2.844-2.988v-1.152c-1.152 0-2.214.378-2.844 1.638zm8.085-1.71c-2.79 0-4.698 2.07-4.698 4.716 0 2.718 1.944 4.716 4.788 4.716 1.818 0 3.204-.846 3.96-2.07l-1.044-.612c-.486.864-1.476 1.53-2.898 1.53-1.908 0-3.33-1.134-3.582-2.97h7.902c.018-.18.036-.378.036-.558 0-2.466-1.71-4.752-4.464-4.752zm0 1.152c1.548 0 2.988 1.026 3.24 3.006h-6.714c.234-1.764 1.584-3.006 3.474-3.006zm11.178-1.152c-1.602 0-2.88.774-3.636 1.98V165h-1.188v12.6h1.188v-5.364c.756 1.206 2.034 1.98 3.636 1.98 2.538 0 4.644-2.052 4.644-4.716s-2.106-4.716-4.644-4.716zm-.09 8.28c-1.998 0-3.546-1.566-3.546-3.564s1.548-3.564 3.546-3.564c1.998 0 3.546 1.566 3.546 3.564s-1.548 3.564-3.546 3.564zm6.709.936h1.188v-13.14h-1.188V174zm11.449-9v1.764c-.756-1.206-2.034-1.98-3.636-1.98-2.538 0-4.644 2.052-4.644 4.716s2.106 4.716 4.644 4.716c1.602 0 2.88-.774 3.636-1.98V174h1.188v-9h-1.188zm-3.546 8.064c-1.998 0-3.546-1.566-3.546-3.564s1.548-3.564 3.546-3.564c1.998 0 3.546 1.566 3.546 3.564s-1.548 3.564-3.546 3.564zm11.443 1.152c1.764 0 3.294-.918 4.032-2.34l-.99-.576c-.576 1.044-1.674 1.764-3.042 1.764-1.998 0-3.546-1.566-3.546-3.564s1.548-3.564 3.546-3.564c1.35 0 2.484.702 2.97 1.764l.972-.558c-.648-1.422-2.16-2.358-3.942-2.358-2.718 0-4.734 2.052-4.734 4.716s2.016 4.716 4.734 4.716zm9.808-9.432c-2.79 0-4.698 2.07-4.698 4.716 0 2.718 1.944 4.716 4.788 4.716 1.818 0 3.204-.846 3.96-2.07l-1.044-.612c-.486.864-1.476 1.53-2.898 1.53-1.908 0-3.33-1.134-3.582-2.97h7.902c.018-.18.036-.378.036-.558 0-2.466-1.71-4.752-4.464-4.752zm0 1.152c1.548 0 2.988 1.026 3.24 3.006h-6.714c.234-1.764 1.584-3.006 3.474-3.006zm14.094-4.536v5.364c-.756-1.206-2.034-1.98-3.636-1.98-2.538 0-4.644 2.052-4.644 4.716s2.106 4.716 4.644 4.716c1.602 0 2.88-.774 3.636-1.98V174h1.188v-12.6h-1.188zm-3.546 11.664c-1.998 0-3.546-1.566-3.546-3.564s1.548-3.564 3.546-3.564c1.998 0 3.546 1.566 3.546 3.564s-1.548 3.564-3.546 3.564zM407.51 165l-2.214 7.47-2.358-7.47h-1.188l-2.358 7.47-2.214-7.47h-1.224l2.772 9h1.296l2.322-7.254 2.322 7.254h1.296l2.772-9h-1.224zm3.61-1.908a.864.864 0 100-1.728.864.864 0 000 1.728zM410.526 174h1.188v-9h-1.188v9zm8.479-7.848V165h-2.592v-2.52l-1.188.36V165h-1.89v1.152h1.89v5.454c0 2.16 1.35 2.754 3.78 2.394v-1.044c-1.746.072-2.592.198-2.592-1.35v-5.454h2.592zm6.192-1.368c-1.278 0-2.322.486-3.024 1.62V161.4h-1.188V174h1.188v-4.716c0-2.412 1.332-3.348 2.916-3.348 1.566 0 2.448.936 2.448 2.538V174h1.188v-5.526c0-2.25-1.332-3.69-3.528-3.69zm18.065.216v1.764c-.756-1.206-2.034-1.98-3.636-1.98-2.538 0-4.644 2.052-4.644 4.716s2.106 4.716 4.644 4.716c1.602 0 2.88-.774 3.636-1.98V174h1.188v-9h-1.188zm-3.546 8.064c-1.998 0-3.546-1.566-3.546-3.564s1.548-3.564 3.546-3.564c1.998 0 3.546 1.566 3.546 3.564s-1.548 3.564-3.546 3.564zm11.461-8.28c-1.278 0-2.322.486-3.024 1.62V165h-1.188v9h1.188v-4.716c0-2.412 1.332-3.348 2.916-3.348 1.566 0 2.448.936 2.448 2.538V174h1.188v-5.526c0-2.25-1.332-3.69-3.528-3.69zm10.019 9.432c2.628 0 4.734-2.052 4.734-4.716s-2.106-4.716-4.734-4.716-4.734 2.052-4.734 4.716 2.106 4.716 4.734 4.716zm0-1.152c-1.998 0-3.546-1.566-3.546-3.564s1.548-3.564 3.546-3.564c1.998 0 3.546 1.566 3.546 3.564s-1.548 3.564-3.546 3.564zm11.316-6.912V165h-2.592v-2.52l-1.188.36V165h-1.89v1.152h1.89v5.454c0 2.16 1.35 2.754 3.78 2.394v-1.044c-1.746.072-2.592.198-2.592-1.35v-5.454h2.592zm6.192-1.368c-1.278 0-2.322.486-3.024 1.62V161.4h-1.188V174h1.188v-4.716c0-2.412 1.332-3.348 2.916-3.348 1.566 0 2.448.936 2.448 2.538V174h1.188v-5.526c0-2.25-1.332-3.69-3.528-3.69zm9.984 0c-2.79 0-4.698 2.07-4.698 4.716 0 2.718 1.944 4.716 4.788 4.716 1.818 0 3.204-.846 3.96-2.07l-1.044-.612c-.486.864-1.476 1.53-2.898 1.53-1.908 0-3.33-1.134-3.582-2.97h7.902c.018-.18.036-.378.036-.558 0-2.466-1.71-4.752-4.464-4.752zm0 1.152c1.548 0 2.988 1.026 3.24 3.006h-6.714c.234-1.764 1.584-3.006 3.474-3.006zm7.541.558V165h-1.188v9h1.188v-5.004c0-2.232 1.404-2.988 2.844-2.988v-1.152c-1.152 0-2.214.378-2.844 1.638zm9.566-3.402a.864.864 0 100-1.728.864.864 0 000 1.728zM505.201 174h1.188v-9h-1.188v9zm8.479-7.848V165h-2.592v-2.52l-1.188.36V165h-1.89v1.152h1.89v5.454c0 2.16 1.35 2.754 3.78 2.394v-1.044c-1.746.072-2.592.198-2.592-1.35v-5.454h2.592zm5.593-1.368c-2.79 0-4.698 2.07-4.698 4.716 0 2.718 1.944 4.716 4.788 4.716 1.818 0 3.204-.846 3.96-2.07l-1.044-.612c-.486.864-1.476 1.53-2.898 1.53-1.908 0-3.33-1.134-3.582-2.97h7.902c.018-.18.036-.378.036-.558 0-2.466-1.71-4.752-4.464-4.752zm0 1.152c1.548 0 2.988 1.026 3.24 3.006h-6.714c.234-1.764 1.584-3.006 3.474-3.006zm15.948-1.152c-1.152 0-2.25.522-2.916 1.638-.504-1.044-1.476-1.638-2.736-1.638-1.08 0-2.052.432-2.754 1.53V165h-1.188v9h1.188v-4.986c0-2.232 1.296-3.078 2.592-3.078 1.278 0 2.106.846 2.106 2.448V174h1.188v-4.986c0-2.232 1.116-3.078 2.502-3.078 1.278 0 2.196.846 2.196 2.448V174h1.188v-5.616c0-2.25-1.386-3.6-3.366-3.6zM18.012 270.548l2.556-3.384V265.4h-7.74v1.944h5.274l-2.718 3.582.828 1.242h.468c1.422 0 2.34.756 2.34 2.016s-.918 2.034-2.34 2.034c-1.26 0-2.106-.558-2.466-1.62l-1.764 1.026c.702 1.764 2.376 2.61 4.23 2.61 2.322 0 4.41-1.404 4.41-4.05 0-1.962-1.35-3.222-3.078-3.636zm9.379 7.686c3.168 0 4.95-2.646 4.95-6.534s-1.782-6.534-4.95-6.534-4.95 2.646-4.95 6.534 1.782 6.534 4.95 6.534zm0-2.016c-1.854 0-2.88-1.62-2.88-4.518 0-2.898 1.026-4.518 2.88-4.518 1.872 0 2.88 1.62 2.88 4.518 0 2.898-1.008 4.518-2.88 4.518zM33.353 278h8.298v-1.998h-5.22l2.844-2.844c1.206-1.224 2.142-2.538 2.142-4.104 0-2.502-1.962-3.888-4.032-3.888-1.674 0-3.258.828-4.068 2.556l1.746 1.026c.486-1.008 1.296-1.566 2.34-1.566 1.08 0 1.944.684 1.944 1.944 0 .954-.702 1.872-1.602 2.772l-4.392 4.482V278zm11.273-6.534a1.36 1.36 0 001.35-1.35c0-.756-.612-1.35-1.35-1.35-.756 0-1.35.594-1.35 1.35 0 .738.594 1.35 1.35 1.35zm0 6.75a1.36 1.36 0 001.35-1.35c0-.756-.612-1.35-1.35-1.35-.756 0-1.35.594-1.35 1.35 0 .738.594 1.35 1.35 1.35zM57.314 265.4H52.67V278h2.07v-4.32h2.574c2.376 0 4.176-1.818 4.176-4.14 0-2.34-1.8-4.14-4.176-4.14zm0 6.336H54.74v-4.392h2.574c1.224 0 2.106.918 2.106 2.196 0 1.26-.882 2.196-2.106 2.196zm6.82-4.086c.683 0 1.241-.576 1.241-1.242 0-.684-.558-1.242-1.242-1.242-.684 0-1.242.558-1.242 1.242 0 .666.558 1.242 1.242 1.242zM63.16 278h1.944v-9H63.16v9zm8.45.234c1.763 0 3.293-.918 4.05-2.34l-1.674-.954c-.432.828-1.314 1.386-2.394 1.386-1.585 0-2.79-1.206-2.79-2.826s1.206-2.826 2.79-2.826c1.08 0 1.962.54 2.358 1.386l1.674-.972c-.72-1.404-2.25-2.322-4.014-2.322-2.719 0-4.752 2.052-4.752 4.734 0 2.664 2.034 4.734 4.752 4.734zM85.02 278l-4.103-4.59 3.96-4.41h-2.376l-3.492 3.978V265.4h-1.944V278h1.944v-4.158L82.7 278h2.322zm2.28-10.35c.684 0 1.242-.576 1.242-1.242 0-.684-.558-1.242-1.242-1.242-.684 0-1.242.558-1.242 1.242 0 .666.558 1.242 1.242 1.242zM86.33 278h1.944v-9H86.33v9zm8.936-9.234c-1.225 0-2.197.45-2.79 1.386V269H90.53v9h1.944v-4.824c0-1.836 1.008-2.592 2.285-2.592 1.224 0 2.016.72 2.016 2.088V278h1.945v-5.526c0-2.34-1.44-3.708-3.457-3.708zm12.713.234v1.332c-.684-.972-1.746-1.566-3.132-1.566-2.538 0-4.536 2.07-4.536 4.644 0 2.574 1.998 4.644 4.536 4.644 1.386 0 2.448-.594 3.132-1.566v1.098c0 1.566-1.008 2.484-2.682 2.484-1.566 0-2.232-.612-2.628-1.386l-1.674.972c.756 1.44 2.286 2.178 4.266 2.178 2.358 0 4.626-1.35 4.626-4.248V269h-1.908zm-2.862 7.236c-1.638 0-2.862-1.206-2.862-2.826s1.224-2.826 2.862-2.826c1.638 0 2.862 1.206 2.862 2.826s-1.224 2.826-2.862 2.826zm13.372 3.564h1.944c-1.26-2.52-1.98-5.22-1.98-8.1s.72-5.58 1.98-8.1h-1.944c-1.26 2.52-1.98 5.22-1.98 8.1s.72 5.58 1.98 8.1zm8.207-14.4h-4.644V278h2.07v-4.32h2.574c2.376 0 4.176-1.818 4.176-4.14 0-2.34-1.8-4.14-4.176-4.14zm0 6.336h-2.574v-4.392h2.574c1.224 0 2.106.918 2.106 2.196 0 1.26-.882 2.196-2.106 2.196zM138.608 269v4.824c0 1.836-1.008 2.592-2.286 2.592-1.224 0-2.016-.72-2.016-2.088V269h-1.944v5.526c0 2.34 1.44 3.708 3.456 3.708 1.224 0 2.196-.45 2.79-1.386V278h1.944v-9h-1.944zm9.239 1.872V269h-2.232v-2.52l-1.944.576V269h-1.656v1.872h1.656v4.32c0 2.34 1.188 3.168 4.176 2.808v-1.746c-1.476.072-2.232.09-2.232-1.062v-4.32h2.232zm3.021 8.928c1.26-2.52 1.98-5.22 1.98-8.1s-.72-5.58-1.98-8.1h-1.944c1.26 2.52 1.98 5.22 1.98 8.1s-.72 5.58-1.98 8.1h1.944zm20.124-13.5h-3.078l4.284 4.284h-8.55v2.232h8.55l-4.284 4.284h3.078l5.4-5.4-5.4-5.4zm24.567-.9h-9v1.188h3.87V278h1.26v-11.412h3.87V265.4zm4.198 12.816c2.628 0 4.734-2.052 4.734-4.716s-2.106-4.716-4.734-4.716-4.734 2.052-4.734 4.716 2.106 4.716 4.734 4.716zm0-1.152c-1.998 0-3.546-1.566-3.546-3.564s1.548-3.564 3.546-3.564c1.998 0 3.546 1.566 3.546 3.564s-1.548 3.564-3.546 3.564zm11.316-6.912V269h-2.592v-2.52l-1.188.36V269h-1.89v1.152h1.89v5.454c0 2.16 1.35 2.754 3.78 2.394v-1.044c-1.746.072-2.592.198-2.592-1.35v-5.454h2.592zm5.593-1.368c-2.79 0-4.698 2.07-4.698 4.716 0 2.718 1.944 4.716 4.788 4.716 1.818 0 3.204-.846 3.96-2.07l-1.044-.612c-.486.864-1.476 1.53-2.898 1.53-1.908 0-3.33-1.134-3.582-2.97h7.902c.018-.18.036-.378.036-.558 0-2.466-1.71-4.752-4.464-4.752zm0 1.152c1.548 0 2.988 1.026 3.24 3.006h-6.714c.234-1.764 1.584-3.006 3.474-3.006zm15.048 8.28c1.764 0 3.294-.918 4.032-2.34l-.99-.576c-.576 1.044-1.674 1.764-3.042 1.764-1.998 0-3.546-1.566-3.546-3.564s1.548-3.564 3.546-3.564c1.35 0 2.484.702 2.97 1.764l.972-.558c-.648-1.422-2.16-2.358-3.942-2.358-2.718 0-4.734 2.052-4.734 4.716s2.016 4.716 4.734 4.716zm9.844 0c2.628 0 4.734-2.052 4.734-4.716s-2.106-4.716-4.734-4.716-4.734 2.052-4.734 4.716 2.106 4.716 4.734 4.716zm0-1.152c-1.998 0-3.546-1.566-3.546-3.564s1.548-3.564 3.546-3.564c1.998 0 3.546 1.566 3.546 3.564s-1.548 3.564-3.546 3.564zm10.934-8.28c-1.278 0-2.322.486-3.024 1.62V269h-1.188v9h1.188v-4.716c0-2.412 1.332-3.348 2.916-3.348 1.566 0 2.448.936 2.448 2.538V278h1.188v-5.526c0-2.25-1.332-3.69-3.528-3.69zm10.595 1.368V269h-2.592v-2.52l-1.188.36V269h-1.89v1.152h1.89v5.454c0 2.16 1.35 2.754 3.78 2.394v-1.044c-1.746.072-2.592.198-2.592-1.35v-5.454h2.592zm9.175-1.152v1.764c-.756-1.206-2.034-1.98-3.636-1.98-2.538 0-4.644 2.052-4.644 4.716s2.106 4.716 4.644 4.716c1.602 0 2.88-.774 3.636-1.98V278h1.188v-9h-1.188zm-3.546 8.064c-1.998 0-3.546-1.566-3.546-3.564s1.548-3.564 3.546-3.564c1.998 0 3.546 1.566 3.546 3.564s-1.548 3.564-3.546 3.564zm7.843-9.972a.864.864 0 100-1.728.864.864 0 000 1.728zM275.965 278h1.188v-9h-1.188v9zm7.921-9.216c-1.278 0-2.322.486-3.024 1.62V269h-1.188v9h1.188v-4.716c0-2.412 1.332-3.348 2.916-3.348 1.566 0 2.448.936 2.448 2.538V278h1.188v-5.526c0-2.25-1.332-3.69-3.528-3.69zm6.419-1.692a.864.864 0 100-1.728.864.864 0 000 1.728zM289.711 278h1.188v-9h-1.188v9zm7.921-9.216c-1.278 0-2.322.486-3.024 1.62V269h-1.188v9h1.188v-4.716c0-2.412 1.332-3.348 2.916-3.348 1.566 0 2.448.936 2.448 2.538V278h1.188v-5.526c0-2.25-1.332-3.69-3.528-3.69zm13.565.216v1.764c-.756-1.206-2.034-1.98-3.636-1.98-2.538 0-4.644 2.052-4.644 4.716s2.106 4.716 4.644 4.716c1.602 0 2.88-.774 3.636-1.98v1.404c0 1.836-1.242 3.024-3.33 3.024-1.944 0-2.772-.72-3.222-1.638l-1.044.594c.702 1.404 2.196 2.196 4.266 2.196 2.322 0 4.518-1.44 4.518-4.176V269h-1.188zm-3.546 8.064c-1.998 0-3.546-1.566-3.546-3.564s1.548-3.564 3.546-3.564c1.998 0 3.546 1.566 3.546 3.564s-1.548 3.564-3.546 3.564zm16.52-6.912V269h-2.592v-2.52l-1.188.36V269h-1.89v1.152h1.89v5.454c0 2.16 1.35 2.754 3.78 2.394v-1.044c-1.746.072-2.592.198-2.592-1.35v-5.454h2.592zm6.192-1.368c-1.278 0-2.322.486-3.024 1.62V265.4h-1.188V278h1.188v-4.716c0-2.412 1.332-3.348 2.916-3.348 1.566 0 2.448.936 2.448 2.538V278h1.188v-5.526c0-2.25-1.332-3.69-3.528-3.69zm9.983 0c-2.79 0-4.698 2.07-4.698 4.716 0 2.718 1.944 4.716 4.788 4.716 1.818 0 3.204-.846 3.96-2.07l-1.044-.612c-.486.864-1.476 1.53-2.898 1.53-1.908 0-3.33-1.134-3.582-2.97h7.902c.018-.18.036-.378.036-.558 0-2.466-1.71-4.752-4.464-4.752zm0 1.152c1.548 0 2.988 1.026 3.24 3.006h-6.714c.234-1.764 1.584-3.006 3.474-3.006zm11.789 1.422c0-.972.954-1.422 1.89-1.422.864 0 1.782.342 2.16 1.26l.99-.576c-.522-1.116-1.674-1.836-3.15-1.836-1.8 0-3.078 1.134-3.078 2.574 0 3.312 5.256 2.034 5.256 4.266 0 1.062-1.008 1.44-2.07 1.44-1.206 0-2.142-.594-2.466-1.512l-1.008.594c.45 1.152 1.674 2.07 3.474 2.07 1.926 0 3.258-1.062 3.258-2.592 0-3.312-5.256-2.034-5.256-4.266zm12.062-2.574c-1.602 0-2.88.774-3.636 1.98V269h-1.188v12.6h1.188v-5.364c.756 1.206 2.034 1.98 3.636 1.98 2.538 0 4.644-2.052 4.644-4.716s-2.106-4.716-4.644-4.716zm-.09 8.28c-1.998 0-3.546-1.566-3.546-3.564s1.548-3.564 3.546-3.564c1.998 0 3.546 1.566 3.546 3.564s-1.548 3.564-3.546 3.564zm10.868-8.28c-2.79 0-4.698 2.07-4.698 4.716 0 2.718 1.944 4.716 4.788 4.716 1.818 0 3.204-.846 3.96-2.07l-1.044-.612c-.486.864-1.476 1.53-2.898 1.53-1.908 0-3.33-1.134-3.582-2.97h7.902c.018-.18.036-.378.036-.558 0-2.466-1.71-4.752-4.464-4.752zm0 1.152c1.548 0 2.988 1.026 3.24 3.006h-6.714c.234-1.764 1.584-3.006 3.474-3.006zm10.547 8.28c1.764 0 3.294-.918 4.032-2.34l-.99-.576c-.576 1.044-1.674 1.764-3.042 1.764-1.998 0-3.546-1.566-3.546-3.564s1.548-3.564 3.546-3.564c1.35 0 2.484.702 2.97 1.764l.972-.558c-.648-1.422-2.16-2.358-3.942-2.358-2.718 0-4.734 2.052-4.734 4.716s2.016 4.716 4.734 4.716zm6.332-11.124a.864.864 0 100-1.728.864.864 0 000 1.728zM391.26 278h1.188v-9h-1.188v9zm10.477-9h-4.86v-.36c0-1.728.846-2.304 2.592-2.304.558 0 1.098.036 1.728.144v-1.08c-.648-.144-1.188-.216-1.728-.216-2.43 0-3.78 1.116-3.78 3.456v.36h-1.53v1.152h1.53V278h1.188v-7.848h3.672V278h1.188v-9zm6.671-.216c-2.79 0-4.698 2.07-4.698 4.716 0 2.718 1.944 4.716 4.788 4.716 1.818 0 3.204-.846 3.96-2.07l-1.044-.612c-.486.864-1.476 1.53-2.898 1.53-1.908 0-3.33-1.134-3.582-2.97h7.902c.018-.18.036-.378.036-.558 0-2.466-1.71-4.752-4.464-4.752zm0 1.152c1.548 0 2.988 1.026 3.24 3.006h-6.714c.234-1.764 1.584-3.006 3.474-3.006zm14.094-4.536v5.364c-.756-1.206-2.034-1.98-3.636-1.98-2.538 0-4.644 2.052-4.644 4.716s2.106 4.716 4.644 4.716c1.602 0 2.88-.774 3.636-1.98V278h1.188v-12.6h-1.188zm-3.546 11.664c-1.998 0-3.546-1.566-3.546-3.564s1.548-3.564 3.546-3.564c1.998 0 3.546 1.566 3.546 3.564s-1.548 3.564-3.546 3.564zm12.343-9.972a.864.864 0 100-1.728.864.864 0 000 1.728zM430.705 278h1.188v-9h-1.188v9zm8.479-7.848V269h-2.592v-2.52l-1.188.36V269h-1.89v1.152h1.89v5.454c0 2.16 1.35 2.754 3.78 2.394v-1.044c-1.746.072-2.592.198-2.592-1.35v-5.454h2.592zm5.593-1.368c-2.79 0-4.698 2.07-4.698 4.716 0 2.718 1.944 4.716 4.788 4.716 1.818 0 3.204-.846 3.96-2.07l-1.044-.612c-.486.864-1.476 1.53-2.898 1.53-1.908 0-3.33-1.134-3.582-2.97h7.902c.018-.18.036-.378.036-.558 0-2.466-1.71-4.752-4.464-4.752zm0 1.152c1.548 0 2.988 1.026 3.24 3.006h-6.714c.234-1.764 1.584-3.006 3.474-3.006zm15.948-1.152c-1.152 0-2.25.522-2.916 1.638-.504-1.044-1.476-1.638-2.736-1.638-1.08 0-2.052.432-2.754 1.53V269h-1.188v9h1.188v-4.986c0-2.232 1.296-3.078 2.592-3.078 1.278 0 2.106.846 2.106 2.448V278h1.188v-4.986c0-2.232 1.116-3.078 2.502-3.078 1.278 0 2.196.846 2.196 2.448V278h1.188v-5.616c0-2.25-1.386-3.6-3.366-3.6zm10.758-1.692a.864.864 0 100-1.728.864.864 0 000 1.728zM470.889 278h1.188v-9h-1.188v9zm4.645-6.642c0-.972.954-1.422 1.89-1.422.864 0 1.782.342 2.16 1.26l.99-.576c-.522-1.116-1.674-1.836-3.15-1.836-1.8 0-3.078 1.134-3.078 2.574 0 3.312 5.256 2.034 5.256 4.266 0 1.062-1.008 1.44-2.07 1.44-1.206 0-2.142-.594-2.466-1.512l-1.008.594c.45 1.152 1.674 2.07 3.474 2.07 1.926 0 3.258-1.062 3.258-2.592 0-3.312-5.256-2.034-5.256-4.266zm16.562-2.574c-1.602 0-2.88.774-3.636 1.98V269h-1.188v12.6h1.188v-5.364c.756 1.206 2.034 1.98 3.636 1.98 2.538 0 4.644-2.052 4.644-4.716s-2.106-4.716-4.644-4.716zm-.09 8.28c-1.998 0-3.546-1.566-3.546-3.564s1.548-3.564 3.546-3.564c1.998 0 3.546 1.566 3.546 3.564s-1.548 3.564-3.546 3.564zm6.709.936h1.188v-13.14h-1.188V278zm11.449-9v1.764c-.756-1.206-2.034-1.98-3.636-1.98-2.538 0-4.644 2.052-4.644 4.716s2.106 4.716 4.644 4.716c1.602 0 2.88-.774 3.636-1.98V278h1.188v-9h-1.188zm-3.546 8.064c-1.998 0-3.546-1.566-3.546-3.564s1.548-3.564 3.546-3.564c1.998 0 3.546 1.566 3.546 3.564s-1.548 3.564-3.546 3.564zm11.443 1.152c1.764 0 3.294-.918 4.032-2.34l-.99-.576c-.576 1.044-1.674 1.764-3.042 1.764-1.998 0-3.546-1.566-3.546-3.564s1.548-3.564 3.546-3.564c1.35 0 2.484.702 2.97 1.764l.972-.558c-.648-1.422-2.16-2.358-3.942-2.358-2.718 0-4.734 2.052-4.734 4.716s2.016 4.716 4.734 4.716zm9.808-9.432c-2.79 0-4.698 2.07-4.698 4.716 0 2.718 1.944 4.716 4.788 4.716 1.818 0 3.204-.846 3.96-2.07l-1.044-.612c-.486.864-1.476 1.53-2.898 1.53-1.908 0-3.33-1.134-3.582-2.97h7.902c.018-.18.036-.378.036-.558 0-2.466-1.71-4.752-4.464-4.752zm0 1.152c1.548 0 2.988 1.026 3.24 3.006h-6.714c.234-1.764 1.584-3.006 3.474-3.006zm14.094-4.536v5.364c-.756-1.206-2.034-1.98-3.636-1.98-2.538 0-4.644 2.052-4.644 4.716s2.106 4.716 4.644 4.716c1.602 0 2.88-.774 3.636-1.98V278h1.188v-12.6h-1.188zm-3.546 11.664c-1.998 0-3.546-1.566-3.546-3.564s1.548-3.564 3.546-3.564c1.998 0 3.546 1.566 3.546 3.564s-1.548 3.564-3.546 3.564zm12.343-9.972a.864.864 0 100-1.728.864.864 0 000 1.728zM550.166 278h1.188v-9h-1.188v9zm7.921-9.216c-1.278 0-2.322.486-3.024 1.62V269h-1.188v9h1.188v-4.716c0-2.412 1.332-3.348 2.916-3.348 1.566 0 2.448.936 2.448 2.538V278h1.188v-5.526c0-2.25-1.332-3.69-3.528-3.69zm18.065.216v1.764c-.756-1.206-2.034-1.98-3.636-1.98-2.538 0-4.644 2.052-4.644 4.716s2.106 4.716 4.644 4.716c1.602 0 2.88-.774 3.636-1.98V278h1.188v-9h-1.188zm-3.546 8.064c-1.998 0-3.546-1.566-3.546-3.564s1.548-3.564 3.546-3.564c1.998 0 3.546 1.566 3.546 3.564s-1.548 3.564-3.546 3.564zm12.686-5.706c0-.972.954-1.422 1.89-1.422.864 0 1.782.342 2.16 1.26l.99-.576c-.522-1.116-1.674-1.836-3.15-1.836-1.8 0-3.078 1.134-3.078 2.574 0 3.312 5.256 2.034 5.256 4.266 0 1.062-1.008 1.44-2.07 1.44-1.206 0-2.142-.594-2.466-1.512l-1.008.594c.45 1.152 1.674 2.07 3.474 2.07 1.926 0 3.258-1.062 3.258-2.592 0-3.312-5.256-2.034-5.256-4.266zm11.656-1.206V269h-2.592v-2.52l-1.188.36V269h-1.89v1.152h1.89v5.454c0 2.16 1.35 2.754 3.78 2.394v-1.044c-1.746.072-2.592.198-2.592-1.35v-5.454h2.592zm9.175-1.152v1.764c-.756-1.206-2.034-1.98-3.636-1.98-2.538 0-4.644 2.052-4.644 4.716s2.106 4.716 4.644 4.716c1.602 0 2.88-.774 3.636-1.98V278h1.188v-9h-1.188zm-3.546 8.064c-1.998 0-3.546-1.566-3.546-3.564s1.548-3.564 3.546-3.564c1.998 0 3.546 1.566 3.546 3.564s-1.548 3.564-3.546 3.564zM617.566 269v1.764c-.756-1.206-2.034-1.98-3.636-1.98-2.538 0-4.644 2.052-4.644 4.716s2.106 4.716 4.644 4.716c1.602 0 2.88-.774 3.636-1.98v1.404c0 1.836-1.242 3.024-3.33 3.024-1.944 0-2.772-.72-3.222-1.638l-1.044.594c.702 1.404 2.196 2.196 4.266 2.196 2.322 0 4.518-1.44 4.518-4.176V269h-1.188zm-3.546 8.064c-1.998 0-3.546-1.566-3.546-3.564s1.548-3.564 3.546-3.564c1.998 0 3.546 1.566 3.546 3.564s-1.548 3.564-3.546 3.564zm7.844-9.972a.864.864 0 100-1.728.864.864 0 000 1.728zM621.27 278h1.188v-9h-1.188v9zm7.921-9.216c-1.278 0-2.322.486-3.024 1.62V269h-1.188v9h1.188v-4.716c0-2.412 1.332-3.348 2.916-3.348 1.566 0 2.448.936 2.448 2.538V278h1.188v-5.526c0-2.25-1.332-3.69-3.528-3.69zm13.565.216v1.764c-.756-1.206-2.034-1.98-3.636-1.98-2.538 0-4.644 2.052-4.644 4.716s2.106 4.716 4.644 4.716c1.602 0 2.88-.774 3.636-1.98v1.404c0 1.836-1.242 3.024-3.33 3.024-1.944 0-2.772-.72-3.222-1.638l-1.044.594c.702 1.404 2.196 2.196 4.266 2.196 2.322 0 4.518-1.44 4.518-4.176V269h-1.188zm-3.546 8.064c-1.998 0-3.546-1.566-3.546-3.564s1.548-3.564 3.546-3.564c1.998 0 3.546 1.566 3.546 3.564s-1.548 3.564-3.546 3.564zM658.699 269v1.764c-.756-1.206-2.034-1.98-3.636-1.98-2.538 0-4.644 2.052-4.644 4.716s2.106 4.716 4.644 4.716c1.602 0 2.88-.774 3.636-1.98V278h1.188v-9h-1.188zm-3.546 8.064c-1.998 0-3.546-1.566-3.546-3.564s1.548-3.564 3.546-3.564c1.998 0 3.546 1.566 3.546 3.564s-1.548 3.564-3.546 3.564zm8.438-6.57V269h-1.188v9h1.188v-5.004c0-2.232 1.404-2.988 2.844-2.988v-1.152c-1.152 0-2.214.378-2.844 1.638zm8.085-1.71c-2.79 0-4.698 2.07-4.698 4.716 0 2.718 1.944 4.716 4.788 4.716 1.818 0 3.204-.846 3.96-2.07l-1.044-.612c-.486.864-1.476 1.53-2.898 1.53-1.908 0-3.33-1.134-3.582-2.97h7.902c.018-.18.036-.378.036-.558 0-2.466-1.71-4.752-4.464-4.752zm0 1.152c1.548 0 2.988 1.026 3.24 3.006h-6.714c.234-1.764 1.584-3.006 3.474-3.006zM685.77 269v1.764c-.756-1.206-2.034-1.98-3.636-1.98-2.538 0-4.644 2.052-4.644 4.716s2.106 4.716 4.644 4.716c1.602 0 2.88-.774 3.636-1.98V278h1.188v-9h-1.188zm-3.546 8.064c-1.998 0-3.546-1.566-3.546-3.564s1.548-3.564 3.546-3.564c1.998 0 3.546 1.566 3.546 3.564s-1.548 3.564-3.546 3.564zM18.012 322.548l2.556-3.384V317.4h-7.74v1.944h5.274l-2.718 3.582.828 1.242h.468c1.422 0 2.34.756 2.34 2.016s-.918 2.034-2.34 2.034c-1.26 0-2.106-.558-2.466-1.62l-1.764 1.026c.702 1.764 2.376 2.61 4.23 2.61 2.322 0 4.41-1.404 4.41-4.05 0-1.962-1.35-3.222-3.078-3.636zM22.191 330h8.298v-1.998h-5.22l2.844-2.844c1.206-1.224 2.142-2.538 2.142-4.104 0-2.502-1.962-3.888-4.032-3.888-1.674 0-3.258.828-4.068 2.556l1.746 1.026c.486-1.008 1.296-1.566 2.34-1.566 1.08 0 1.944.684 1.944 1.944 0 .954-.702 1.872-1.602 2.772l-4.392 4.482V330zm12.34-12.6l-3.313 1.17.504 1.764 2.538-.72V330h2.07v-12.6h-1.8zm5.455 6.066a1.36 1.36 0 001.35-1.35c0-.756-.612-1.35-1.35-1.35-.756 0-1.35.594-1.35 1.35 0 .738.594 1.35 1.35 1.35zm0 6.75a1.36 1.36 0 001.35-1.35c0-.756-.612-1.35-1.35-1.35-.756 0-1.35.594-1.35 1.35 0 .738.594 1.35 1.35 1.35zM50.1 328.02V317.4h-2.07V330h7.2v-1.98H50.1zm10.507 2.214c2.646 0 4.752-2.07 4.752-4.734 0-2.682-2.106-4.734-4.752-4.734-2.628 0-4.752 2.052-4.752 4.734 0 2.664 2.124 4.734 4.752 4.734zm0-1.89c-1.584 0-2.808-1.206-2.808-2.844s1.224-2.844 2.808-2.844c1.584 0 2.808 1.206 2.808 2.844s-1.224 2.844-2.808 2.844zM74.244 321v1.278c-.684-.936-1.746-1.512-3.15-1.512-2.448 0-4.482 2.052-4.482 4.734 0 2.664 2.034 4.734 4.482 4.734 1.404 0 2.466-.576 3.15-1.53V330h1.944v-9h-1.944zm-2.844 7.38c-1.62 0-2.844-1.206-2.844-2.88s1.224-2.88 2.844-2.88c1.62 0 2.844 1.206 2.844 2.88s-1.224 2.88-2.844 2.88zm14.182-10.98v4.878c-.684-.936-1.746-1.512-3.15-1.512-2.448 0-4.482 2.052-4.482 4.734 0 2.664 2.034 4.734 4.482 4.734 1.404 0 2.466-.576 3.15-1.53V330h1.944v-12.6h-1.944zm-2.844 10.98c-1.62 0-2.844-1.206-2.844-2.88s1.224-2.88 2.844-2.88c1.62 0 2.844 1.206 2.844 2.88s-1.224 2.88-2.844 2.88zm8.026-8.73c.684 0 1.242-.576 1.242-1.242 0-.684-.558-1.242-1.242-1.242-.684 0-1.242.558-1.242 1.242 0 .666.558 1.242 1.242 1.242zM89.792 330h1.944v-9h-1.944v9zm8.935-9.234c-1.224 0-2.196.45-2.79 1.386V321h-1.944v9h1.944v-4.824c0-1.836 1.008-2.592 2.286-2.592 1.224 0 2.016.72 2.016 2.088V330h1.944v-5.526c0-2.34-1.44-3.708-3.456-3.708zm12.714.234v1.332c-.684-.972-1.746-1.566-3.132-1.566-2.538 0-4.536 2.07-4.536 4.644 0 2.574 1.998 4.644 4.536 4.644 1.386 0 2.448-.594 3.132-1.566v1.098c0 1.566-1.008 2.484-2.682 2.484-1.566 0-2.232-.612-2.628-1.386l-1.674.972c.756 1.44 2.286 2.178 4.266 2.178 2.358 0 4.626-1.35 4.626-4.248V321h-1.908zm-2.862 7.236c-1.638 0-2.862-1.206-2.862-2.826s1.224-2.826 2.862-2.826c1.638 0 2.862 1.206 2.862 2.826s-1.224 2.826-2.862 2.826zm13.371 3.564h1.944c-1.26-2.52-1.98-5.22-1.98-8.1s.72-5.58 1.98-8.1h-1.944c-1.26 2.52-1.98 5.22-1.98 8.1s.72 5.58 1.98 8.1zm8.208-14.4h-4.644V330h2.07v-4.32h2.574c2.376 0 4.176-1.818 4.176-4.14 0-2.34-1.8-4.14-4.176-4.14zm0 6.336h-2.574v-4.392h2.574c1.224 0 2.106.918 2.106 2.196 0 1.26-.882 2.196-2.106 2.196zm6.819-4.086c.684 0 1.242-.576 1.242-1.242 0-.684-.558-1.242-1.242-1.242-.684 0-1.242.558-1.242 1.242 0 .666.558 1.242 1.242 1.242zm-.972 10.35h1.944v-9h-1.944v9zm8.449.234c1.764 0 3.294-.918 4.05-2.34l-1.674-.954c-.432.828-1.314 1.386-2.394 1.386-1.584 0-2.79-1.206-2.79-2.826s1.206-2.826 2.79-2.826c1.08 0 1.962.54 2.358 1.386l1.674-.972c-.72-1.404-2.25-2.322-4.014-2.322-2.718 0-4.752 2.052-4.752 4.734 0 2.664 2.034 4.734 4.752 4.734zm13.411-.234l-4.104-4.59 3.96-4.41h-2.376l-3.492 3.978V317.4h-1.944V330h1.944v-4.158l3.69 4.158h2.322zm2.478 1.8c1.26-2.52 1.98-5.22 1.98-8.1s-.72-5.58-1.98-8.1h-1.944c1.26 2.52 1.98 5.22 1.98 8.1s-.72 5.58-1.98 8.1h1.944zm20.124-13.5h-3.078l4.284 4.284h-8.55v2.232h8.55l-4.284 4.284h3.078l5.4-5.4-5.4-5.4zm16.647-.9V330h1.26v-12.6h-1.26zm8.738 4.752V321h-2.592v-2.52l-1.188.36V321h-1.89v1.152h1.89v5.454c0 2.16 1.35 2.754 3.78 2.394v-1.044c-1.746.072-2.592.198-2.592-1.35v-5.454h2.592zm5.593-1.368c-2.79 0-4.698 2.07-4.698 4.716 0 2.718 1.944 4.716 4.788 4.716 1.818 0 3.204-.846 3.96-2.07l-1.044-.612c-.486.864-1.476 1.53-2.898 1.53-1.908 0-3.33-1.134-3.582-2.97h7.902c.018-.18.036-.378.036-.558 0-2.466-1.71-4.752-4.464-4.752zm0 1.152c1.548 0 2.988 1.026 3.24 3.006h-6.714c.234-1.764 1.584-3.006 3.474-3.006zm15.948-1.152c-1.152 0-2.25.522-2.916 1.638-.504-1.044-1.476-1.638-2.736-1.638-1.08 0-2.052.432-2.754 1.53V321h-1.188v9h1.188v-4.986c0-2.232 1.296-3.078 2.592-3.078 1.278 0 2.106.846 2.106 2.448V330h1.188v-4.986c0-2.232 1.116-3.078 2.502-3.078 1.278 0 2.196.846 2.196 2.448V330h1.188v-5.616c0-2.25-1.386-3.6-3.366-3.6zm10.758-1.692a.864.864 0 100-1.728.864.864 0 000 1.728zM237.557 330h1.188v-9h-1.188v9zm4.645-6.642c0-.972.954-1.422 1.89-1.422.864 0 1.782.342 2.16 1.26l.99-.576c-.522-1.116-1.674-1.836-3.15-1.836-1.8 0-3.078 1.134-3.078 2.574 0 3.312 5.256 2.034 5.256 4.266 0 1.062-1.008 1.44-2.07 1.44-1.206 0-2.142-.594-2.466-1.512l-1.008.594c.45 1.152 1.674 2.07 3.474 2.07 1.926 0 3.258-1.062 3.258-2.592 0-3.312-5.256-2.034-5.256-4.266zm16.562-2.574c-1.602 0-2.88.774-3.636 1.98V317.4h-1.188V330h1.188v-1.764c.756 1.206 2.034 1.98 3.636 1.98 2.538 0 4.644-2.052 4.644-4.716s-2.106-4.716-4.644-4.716zm-.09 8.28c-1.998 0-3.546-1.566-3.546-3.564s1.548-3.564 3.546-3.564c1.998 0 3.546 1.566 3.546 3.564s-1.548 3.564-3.546 3.564zm10.867-8.28c-2.79 0-4.698 2.07-4.698 4.716 0 2.718 1.944 4.716 4.788 4.716 1.818 0 3.204-.846 3.96-2.07l-1.044-.612c-.486.864-1.476 1.53-2.898 1.53-1.908 0-3.33-1.134-3.582-2.97h7.902c.018-.18.036-.378.036-.558 0-2.466-1.71-4.752-4.464-4.752zm0 1.152c1.548 0 2.988 1.026 3.24 3.006h-6.714c.234-1.764 1.584-3.006 3.474-3.006zm6.948-2.844a.864.864 0 100-1.728.864.864 0 000 1.728zM275.895 330h1.188v-9h-1.188v9zm7.921-9.216c-1.278 0-2.322.486-3.024 1.62V321h-1.188v9h1.188v-4.716c0-2.412 1.332-3.348 2.916-3.348 1.566 0 2.448.936 2.448 2.538V330h1.188v-5.526c0-2.25-1.332-3.69-3.528-3.69zm13.565.216v1.764c-.756-1.206-2.034-1.98-3.636-1.98-2.538 0-4.644 2.052-4.644 4.716s2.106 4.716 4.644 4.716c1.602 0 2.88-.774 3.636-1.98v1.404c0 1.836-1.242 3.024-3.33 3.024-1.944 0-2.772-.72-3.222-1.638l-1.044.594c.702 1.404 2.196 2.196 4.266 2.196 2.322 0 4.518-1.44 4.518-4.176V321h-1.188zm-3.546 8.064c-1.998 0-3.546-1.566-3.546-3.564s1.548-3.564 3.546-3.564c1.998 0 3.546 1.566 3.546 3.564s-1.548 3.564-3.546 3.564zm16.573-8.28c-1.602 0-2.88.774-3.636 1.98V317.4h-1.188V330h1.188v-1.764c.756 1.206 2.034 1.98 3.636 1.98 2.538 0 4.644-2.052 4.644-4.716s-2.106-4.716-4.644-4.716zm-.09 8.28c-1.998 0-3.546-1.566-3.546-3.564s1.548-3.564 3.546-3.564c1.998 0 3.546 1.566 3.546 3.564s-1.548 3.564-3.546 3.564zm7.898-6.57V321h-1.188v9h1.188v-5.004c0-2.232 1.404-2.988 2.844-2.988v-1.152c-1.152 0-2.214.378-2.844 1.638zm8.121 7.722c2.628 0 4.734-2.052 4.734-4.716s-2.106-4.716-4.734-4.716-4.734 2.052-4.734 4.716 2.106 4.716 4.734 4.716zm0-1.152c-1.998 0-3.546-1.566-3.546-3.564s1.548-3.564 3.546-3.564c1.998 0 3.546 1.566 3.546 3.564s-1.548 3.564-3.546 3.564zM339.395 321v4.716c0 2.412-1.332 3.348-2.916 3.348-1.566 0-2.448-.936-2.448-2.538V321h-1.188v5.526c0 2.25 1.332 3.69 3.528 3.69 1.278 0 2.322-.486 3.024-1.62V330h1.188v-9h-1.188zm11.441 0v1.764c-.756-1.206-2.034-1.98-3.636-1.98-2.538 0-4.644 2.052-4.644 4.716s2.106 4.716 4.644 4.716c1.602 0 2.88-.774 3.636-1.98v1.404c0 1.836-1.242 3.024-3.33 3.024-1.944 0-2.772-.72-3.222-1.638l-1.044.594c.702 1.404 2.196 2.196 4.266 2.196 2.322 0 4.518-1.44 4.518-4.176V321h-1.188zm-3.546 8.064c-1.998 0-3.546-1.566-3.546-3.564s1.548-3.564 3.546-3.564c1.998 0 3.546 1.566 3.546 3.564s-1.548 3.564-3.546 3.564zm11.461-8.28c-1.278 0-2.322.486-3.024 1.62V317.4h-1.188V330h1.188v-4.716c0-2.412 1.332-3.348 2.916-3.348 1.566 0 2.448.936 2.448 2.538V330h1.188v-5.526c0-2.25-1.332-3.69-3.528-3.69zm10.595 1.368V321h-2.592v-2.52l-1.188.36V321h-1.89v1.152h1.89v5.454c0 2.16 1.35 2.754 3.78 2.394v-1.044c-1.746.072-2.592.198-2.592-1.35v-5.454h2.592zm10.674 8.064c2.628 0 4.734-2.052 4.734-4.716s-2.106-4.716-4.734-4.716-4.734 2.052-4.734 4.716 2.106 4.716 4.734 4.716zm0-1.152c-1.998 0-3.546-1.566-3.546-3.564s1.548-3.564 3.546-3.564c1.998 0 3.546 1.566 3.546 3.564s-1.548 3.564-3.546 3.564zM393.078 321v4.716c0 2.412-1.332 3.348-2.916 3.348-1.566 0-2.448-.936-2.448-2.538V321h-1.188v5.526c0 2.25 1.332 3.69 3.528 3.69 1.278 0 2.322-.486 3.024-1.62V330h1.188v-9h-1.188zm8.472 1.152V321h-2.592v-2.52l-1.188.36V321h-1.89v1.152h1.89v5.454c0 2.16 1.35 2.754 3.78 2.394v-1.044c-1.746.072-2.592.198-2.592-1.35v-5.454h2.592zm11.25 0V321h-2.592v-2.52l-1.188.36V321h-1.89v1.152h1.89v5.454c0 2.16 1.35 2.754 3.78 2.394v-1.044c-1.746.072-2.592.198-2.592-1.35v-5.454h2.592zm5.629 8.064c2.628 0 4.734-2.052 4.734-4.716s-2.106-4.716-4.734-4.716-4.734 2.052-4.734 4.716 2.106 4.716 4.734 4.716zm0-1.152c-1.998 0-3.546-1.566-3.546-3.564s1.548-3.564 3.546-3.564c1.998 0 3.546 1.566 3.546 3.564s-1.548 3.564-3.546 3.564zm15.992-6.912V321h-2.592v-2.52l-1.188.36V321h-1.89v1.152h1.89v5.454c0 2.16 1.35 2.754 3.78 2.394v-1.044c-1.746.072-2.592.198-2.592-1.35v-5.454h2.592zm6.192-1.368c-1.278 0-2.322.486-3.024 1.62V317.4h-1.188V330h1.188v-4.716c0-2.412 1.332-3.348 2.916-3.348 1.566 0 2.448.936 2.448 2.538V330h1.188v-5.526c0-2.25-1.332-3.69-3.528-3.69zm9.983 0c-2.79 0-4.698 2.07-4.698 4.716 0 2.718 1.944 4.716 4.788 4.716 1.818 0 3.204-.846 3.96-2.07l-1.044-.612c-.486.864-1.476 1.53-2.898 1.53-1.908 0-3.33-1.134-3.582-2.97h7.902c.018-.18.036-.378.036-.558 0-2.466-1.71-4.752-4.464-4.752zm0 1.152c1.548 0 2.988 1.026 3.24 3.006h-6.714c.234-1.764 1.584-3.006 3.474-3.006zm15.677-1.152c-1.602 0-2.88.774-3.636 1.98V321h-1.188v12.6h1.188v-5.364c.756 1.206 2.034 1.98 3.636 1.98 2.538 0 4.644-2.052 4.644-4.716s-2.106-4.716-4.644-4.716zm-.09 8.28c-1.998 0-3.546-1.566-3.546-3.564s1.548-3.564 3.546-3.564c1.998 0 3.546 1.566 3.546 3.564s-1.548 3.564-3.546 3.564zm14.45-8.064v1.764c-.756-1.206-2.034-1.98-3.636-1.98-2.538 0-4.644 2.052-4.644 4.716s2.106 4.716 4.644 4.716c1.602 0 2.88-.774 3.636-1.98V330h1.188v-9h-1.188zm-3.546 8.064c-1.998 0-3.546-1.566-3.546-3.564s1.548-3.564 3.546-3.564c1.998 0 3.546 1.566 3.546 3.564s-1.548 3.564-3.546 3.564zm8.437-6.57V321h-1.188v9h1.188v-5.004c0-2.232 1.404-2.988 2.844-2.988v-1.152c-1.152 0-2.214.378-2.844 1.638zM497.268 330l-4.824-4.68 4.644-4.32h-1.62l-4.284 3.978V317.4h-1.188V330h1.188v-4.338l4.5 4.338h1.584zm2.217-10.908a.864.864 0 100-1.728.864.864 0 000 1.728zM498.891 330h1.188v-9h-1.188v9zm7.921-9.216c-1.278 0-2.322.486-3.024 1.62V321H502.6v9h1.188v-4.716c0-2.412 1.332-3.348 2.916-3.348 1.566 0 2.448.936 2.448 2.538V330h1.188v-5.526c0-2.25-1.332-3.69-3.528-3.69zm13.565.216v1.764c-.756-1.206-2.034-1.98-3.636-1.98-2.538 0-4.644 2.052-4.644 4.716s2.106 4.716 4.644 4.716c1.602 0 2.88-.774 3.636-1.98v1.404c0 1.836-1.242 3.024-3.33 3.024-1.944 0-2.772-.72-3.222-1.638l-1.044.594c.702 1.404 2.196 2.196 4.266 2.196 2.322 0 4.518-1.44 4.518-4.176V321h-1.188zm-3.546 8.064c-1.998 0-3.546-1.566-3.546-3.564s1.548-3.564 3.546-3.564c1.998 0 3.546 1.566 3.546 3.564s-1.548 3.564-3.546 3.564zm11.749.936h1.188v-13.14h-1.188V330zm7.903.216c2.628 0 4.734-2.052 4.734-4.716s-2.106-4.716-4.734-4.716-4.734 2.052-4.734 4.716 2.106 4.716 4.734 4.716zm0-1.152c-1.998 0-3.546-1.566-3.546-3.564s1.548-3.564 3.546-3.564c1.998 0 3.546 1.566 3.546 3.564s-1.548 3.564-3.546 3.564zm11.317-6.912V321h-2.592v-2.52l-1.188.36V321h-1.89v1.152h1.89v5.454c0 2.16 1.35 2.754 3.78 2.394v-1.044c-1.746.072-2.592.198-2.592-1.35v-5.454h2.592zm10.98-3.816v-1.152c-2.43-.18-3.78 1.116-3.78 3.456v.36h-1.53v1.152H555V330h1.188v-7.848h2.592V321h-2.592v-.36c0-1.728.846-2.448 2.592-2.304zm4.914 11.88c2.628 0 4.734-2.052 4.734-4.716s-2.106-4.716-4.734-4.716-4.734 2.052-4.734 4.716 2.106 4.716 4.734 4.716zm0-1.152c-1.998 0-3.546-1.566-3.546-3.564s1.548-3.564 3.546-3.564c1.998 0 3.546 1.566 3.546 3.564s-1.548 3.564-3.546 3.564zm7.91-6.57V321h-1.188v9h1.188v-5.004c0-2.232 1.404-2.988 2.844-2.988v-1.152c-1.152 0-2.214.378-2.844 1.638zm13.166 7.722c1.764 0 3.294-.918 4.032-2.34l-.99-.576c-.576 1.044-1.674 1.764-3.042 1.764-1.998 0-3.546-1.566-3.546-3.564s1.548-3.564 3.546-3.564c1.35 0 2.484.702 2.97 1.764l.972-.558c-.648-1.422-2.16-2.358-3.942-2.358-2.718 0-4.734 2.052-4.734 4.716s2.016 4.716 4.734 4.716zM596.844 321v4.716c0 2.412-1.332 3.348-2.916 3.348-1.566 0-2.448-.936-2.448-2.538V321h-1.188v5.526c0 2.25 1.332 3.69 3.528 3.69 1.278 0 2.322-.486 3.024-1.62V330h1.188v-9h-1.188zm4.637 2.358c0-.972.954-1.422 1.89-1.422.864 0 1.782.342 2.16 1.26l.99-.576c-.522-1.116-1.674-1.836-3.15-1.836-1.8 0-3.078 1.134-3.078 2.574 0 3.312 5.256 2.034 5.256 4.266 0 1.062-1.008 1.44-2.07 1.44-1.206 0-2.142-.594-2.466-1.512l-1.008.594c.45 1.152 1.674 2.07 3.474 2.07 1.926 0 3.258-1.062 3.258-2.592 0-3.312-5.256-2.034-5.256-4.266zm11.656-1.206V321h-2.592v-2.52l-1.188.36V321h-1.89v1.152h1.89v5.454c0 2.16 1.35 2.754 3.78 2.394v-1.044c-1.746.072-2.592.198-2.592-1.35v-5.454h2.592zm5.63 8.064c2.628 0 4.734-2.052 4.734-4.716s-2.106-4.716-4.734-4.716-4.734 2.052-4.734 4.716 2.106 4.716 4.734 4.716zm0-1.152c-1.998 0-3.546-1.566-3.546-3.564s1.548-3.564 3.546-3.564c1.998 0 3.545 1.566 3.545 3.564s-1.547 3.564-3.545 3.564zm16.316-8.28c-1.152 0-2.25.522-2.916 1.638-.504-1.044-1.476-1.638-2.736-1.638-1.08 0-2.052.432-2.754 1.53V321h-1.188v9h1.188v-4.986c0-2.232 1.296-3.078 2.592-3.078 1.278 0 2.106.846 2.106 2.448V330h1.188v-4.986c0-2.232 1.116-3.078 2.502-3.078 1.278 0 2.196.846 2.196 2.448V330h1.188v-5.616c0-2.25-1.386-3.6-3.366-3.6zm9.821 0c-2.79 0-4.698 2.07-4.698 4.716 0 2.718 1.944 4.716 4.788 4.716 1.818 0 3.204-.846 3.96-2.07l-1.044-.612c-.486.864-1.476 1.53-2.898 1.53-1.908 0-3.33-1.134-3.582-2.97h7.902c.018-.18.036-.378.036-.558 0-2.466-1.71-4.752-4.464-4.752zm0 1.152c1.548 0 2.988 1.026 3.24 3.006h-6.714c.234-1.764 1.584-3.006 3.474-3.006zm7.542.558V321h-1.188v9h1.188v-5.004c0-2.232 1.404-2.988 2.844-2.988v-1.152c-1.152 0-2.214.378-2.844 1.638zM18.012 374.548l2.556-3.384V369.4h-7.74v1.944h5.274l-2.718 3.582.828 1.242h.468c1.422 0 2.34.756 2.34 2.016s-.918 2.034-2.34 2.034c-1.26 0-2.106-.558-2.466-1.62l-1.764 1.026c.702 1.764 2.376 2.61 4.23 2.61 2.322 0 4.41-1.404 4.41-4.05 0-1.962-1.35-3.222-3.078-3.636zM22.191 382h8.298v-1.998h-5.22l2.844-2.844c1.206-1.224 2.142-2.538 2.142-4.104 0-2.502-1.962-3.888-4.032-3.888-1.674 0-3.258.828-4.068 2.556l1.746 1.026c.486-1.008 1.296-1.566 2.34-1.566 1.08 0 1.944.684 1.944 1.944 0 .954-.702 1.872-1.602 2.772l-4.392 4.482V382zm9.527 0h8.298v-1.998h-5.22l2.844-2.844c1.206-1.224 2.142-2.538 2.142-4.104 0-2.502-1.962-3.888-4.032-3.888-1.674 0-3.258.828-4.068 2.556l1.746 1.026c.486-1.008 1.296-1.566 2.34-1.566 1.08 0 1.944.684 1.944 1.944 0 .954-.702 1.872-1.602 2.772l-4.392 4.482V382zm11.274-6.534a1.36 1.36 0 001.35-1.35c0-.756-.612-1.35-1.35-1.35-.756 0-1.35.594-1.35 1.35 0 .738.593 1.35 1.35 1.35zm0 6.75a1.36 1.36 0 001.35-1.35c0-.756-.612-1.35-1.35-1.35-.756 0-1.35.594-1.35 1.35 0 .738.593 1.35 1.35 1.35zm10.113-2.196V369.4h-2.07V382h7.2v-1.98h-5.13zm10.508 2.214c2.645 0 4.752-2.07 4.752-4.734 0-2.682-2.106-4.734-4.752-4.734-2.629 0-4.752 2.052-4.752 4.734 0 2.664 2.123 4.734 4.752 4.734zm0-1.89c-1.584 0-2.809-1.206-2.809-2.844s1.224-2.844 2.808-2.844c1.584 0 2.809 1.206 2.809 2.844s-1.225 2.844-2.809 2.844zM77.25 373v1.278c-.684-.936-1.746-1.512-3.15-1.512-2.448 0-4.482 2.052-4.482 4.734 0 2.664 2.034 4.734 4.482 4.734 1.404 0 2.466-.576 3.15-1.53V382h1.944v-9H77.25zm-2.844 7.38c-1.62 0-2.844-1.206-2.844-2.88s1.224-2.88 2.844-2.88c1.62 0 2.844 1.206 2.844 2.88s-1.224 2.88-2.844 2.88zm14.182-10.98v4.878c-.684-.936-1.746-1.512-3.15-1.512-2.448 0-4.482 2.052-4.482 4.734 0 2.664 2.034 4.734 4.482 4.734 1.404 0 2.466-.576 3.15-1.53V382h1.944v-12.6h-1.944zm-2.844 10.98c-1.62 0-2.844-1.206-2.844-2.88s1.224-2.88 2.844-2.88c1.62 0 2.844 1.206 2.844 2.88s-1.224 2.88-2.844 2.88zm8.584-2.052h7.164c.036-.252.072-.54.072-.81 0-2.592-1.836-4.752-4.518-4.752-2.826 0-4.752 2.07-4.752 4.734 0 2.7 1.926 4.734 4.896 4.734 1.764 0 3.114-.738 3.942-1.962l-1.602-.936c-.432.63-1.242 1.116-2.322 1.116-1.44 0-2.574-.72-2.88-2.124zm-.018-1.584c.27-1.35 1.26-2.214 2.718-2.214 1.17 0 2.304.666 2.574 2.214H94.31zm16.04-7.344v4.878c-.684-.936-1.746-1.512-3.15-1.512-2.448 0-4.482 2.052-4.482 4.734 0 2.664 2.034 4.734 4.482 4.734 1.404 0 2.466-.576 3.15-1.53V382h1.944v-12.6h-1.944zm-2.844 10.98c-1.62 0-2.844-1.206-2.844-2.88s1.224-2.88 2.844-2.88c1.62 0 2.844 1.206 2.844 2.88s-1.224 2.88-2.844 2.88zm23.074-10.08h-3.078l4.284 4.284h-8.55v2.232h8.55l-4.284 4.284h3.078l5.4-5.4-5.4-5.4zm16.647-.9V382h1.26v-12.6h-1.26zm8.739 4.752V373h-2.592v-2.52l-1.188.36V373h-1.89v1.152h1.89v5.454c0 2.16 1.35 2.754 3.78 2.394v-1.044c-1.746.072-2.592.198-2.592-1.35v-5.454h2.592zm5.593-1.368c-2.79 0-4.698 2.07-4.698 4.716 0 2.718 1.944 4.716 4.788 4.716 1.818 0 3.204-.846 3.96-2.07l-1.044-.612c-.486.864-1.476 1.53-2.898 1.53-1.908 0-3.33-1.134-3.582-2.97h7.902c.018-.18.036-.378.036-.558 0-2.466-1.71-4.752-4.464-4.752zm0 1.152c1.548 0 2.988 1.026 3.24 3.006h-6.714c.234-1.764 1.584-3.006 3.474-3.006zm15.947-1.152c-1.152 0-2.25.522-2.916 1.638-.504-1.044-1.476-1.638-2.736-1.638-1.08 0-2.052.432-2.754 1.53V373h-1.188v9h1.188v-4.986c0-2.232 1.296-3.078 2.592-3.078 1.278 0 2.106.846 2.106 2.448V382h1.188v-4.986c0-2.232 1.116-3.078 2.502-3.078 1.278 0 2.196.846 2.196 2.448V382h1.188v-5.616c0-2.25-1.386-3.6-3.366-3.6zm14.376 0c-1.278 0-2.322.486-3.024 1.62V369.4h-1.188V382h1.188v-4.716c0-2.412 1.332-3.348 2.916-3.348 1.566 0 2.448.936 2.448 2.538V382h1.188v-5.526c0-2.25-1.332-3.69-3.528-3.69zm13.565.216v1.764c-.756-1.206-2.034-1.98-3.636-1.98-2.538 0-4.644 2.052-4.644 4.716s2.106 4.716 4.644 4.716c1.602 0 2.88-.774 3.636-1.98V382h1.188v-9h-1.188zm-3.546 8.064c-1.998 0-3.546-1.566-3.546-3.564s1.548-3.564 3.546-3.564c1.998 0 3.546 1.566 3.546 3.564s-1.548 3.564-3.546 3.564zm8.186-5.706c0-.972.954-1.422 1.89-1.422.864 0 1.782.342 2.16 1.26l.99-.576c-.522-1.116-1.674-1.836-3.15-1.836-1.8 0-3.078 1.134-3.078 2.574 0 3.312 5.256 2.034 5.256 4.266 0 1.062-1.008 1.44-2.07 1.44-1.206 0-2.142-.594-2.466-1.512l-1.008.594c.45 1.152 1.674 2.07 3.474 2.07 1.926 0 3.258-1.062 3.258-2.592 0-3.312-5.256-2.034-5.256-4.266zm16.561-2.574c-1.602 0-2.88.774-3.636 1.98V369.4h-1.188V382h1.188v-1.764c.756 1.206 2.034 1.98 3.636 1.98 2.538 0 4.644-2.052 4.644-4.716s-2.106-4.716-4.644-4.716zm-.09 8.28c-1.998 0-3.546-1.566-3.546-3.564s1.548-3.564 3.546-3.564c1.998 0 3.546 1.566 3.546 3.564s-1.548 3.564-3.546 3.564zm10.868-8.28c-2.79 0-4.698 2.07-4.698 4.716 0 2.718 1.944 4.716 4.788 4.716 1.818 0 3.204-.846 3.96-2.07l-1.044-.612c-.486.864-1.476 1.53-2.898 1.53-1.908 0-3.33-1.134-3.582-2.97h7.902c.018-.18.036-.378.036-.558 0-2.466-1.71-4.752-4.464-4.752zm0 1.152c1.548 0 2.988 1.026 3.24 3.006h-6.714c.234-1.764 1.584-3.006 3.474-3.006zm10.512-1.152c-2.79 0-4.698 2.07-4.698 4.716 0 2.718 1.944 4.716 4.788 4.716 1.818 0 3.204-.846 3.96-2.07l-1.044-.612c-.486.864-1.476 1.53-2.898 1.53-1.908 0-3.33-1.134-3.582-2.97h7.902c.018-.18.036-.378.036-.558 0-2.466-1.71-4.752-4.464-4.752zm0 1.152c1.548 0 2.988 1.026 3.24 3.006h-6.714c.234-1.764 1.584-3.006 3.474-3.006zm10.565-1.152c-1.278 0-2.322.486-3.024 1.62V373h-1.188v9h1.188v-4.716c0-2.412 1.332-3.348 2.916-3.348 1.566 0 2.448.936 2.448 2.538V382h1.188v-5.526c0-2.25-1.332-3.69-3.528-3.69zM268.828 382h1.188v-13.14h-1.188V382zm7.903.216c2.628 0 4.734-2.052 4.734-4.716s-2.106-4.716-4.734-4.716-4.734 2.052-4.734 4.716 2.106 4.716 4.734 4.716zm0-1.152c-1.998 0-3.546-1.566-3.546-3.564s1.548-3.564 3.546-3.564c1.998 0 3.546 1.566 3.546 3.564s-1.548 3.564-3.546 3.564zM291.193 373v1.764c-.756-1.206-2.034-1.98-3.636-1.98-2.538 0-4.644 2.052-4.644 4.716s2.106 4.716 4.644 4.716c1.602 0 2.88-.774 3.636-1.98V382h1.188v-9h-1.188zm-3.546 8.064c-1.998 0-3.546-1.566-3.546-3.564s1.548-3.564 3.546-3.564c1.998 0 3.546 1.566 3.546 3.564s-1.548 3.564-3.546 3.564zm14.99-11.664v5.364c-.756-1.206-2.034-1.98-3.636-1.98-2.538 0-4.644 2.052-4.644 4.716s2.106 4.716 4.644 4.716c1.602 0 2.88-.774 3.636-1.98V382h1.188v-12.6h-1.188zm-3.546 11.664c-1.998 0-3.546-1.566-3.546-3.564s1.548-3.564 3.546-3.564c1.998 0 3.546 1.566 3.546 3.564s-1.548 3.564-3.546 3.564zm11.407-8.28c-2.79 0-4.698 2.07-4.698 4.716 0 2.718 1.944 4.716 4.788 4.716 1.818 0 3.204-.846 3.96-2.07l-1.044-.612c-.486.864-1.476 1.53-2.898 1.53-1.908 0-3.33-1.134-3.582-2.97h7.902c.018-.18.036-.378.036-.558 0-2.466-1.71-4.752-4.464-4.752zm0 1.152c1.548 0 2.988 1.026 3.24 3.006h-6.714c.234-1.764 1.584-3.006 3.474-3.006zm14.094-4.536v5.364c-.756-1.206-2.034-1.98-3.636-1.98-2.538 0-4.644 2.052-4.644 4.716s2.106 4.716 4.644 4.716c1.602 0 2.88-.774 3.636-1.98V382h1.188v-12.6h-1.188zm-3.546 11.664c-1.998 0-3.546-1.566-3.546-3.564s1.548-3.564 3.546-3.564c1.998 0 3.546 1.566 3.546 3.564s-1.548 3.564-3.546 3.564zm15.943 1.152c2.628 0 4.734-2.052 4.734-4.716s-2.106-4.716-4.734-4.716-4.734 2.052-4.734 4.716 2.106 4.716 4.734 4.716zm0-1.152c-1.998 0-3.546-1.566-3.546-3.564s1.548-3.564 3.546-3.564c1.998 0 3.546 1.566 3.546 3.564s-1.548 3.564-3.546 3.564zm10.934-8.28c-1.278 0-2.322.486-3.024 1.62V373h-1.188v9h1.188v-4.716c0-2.412 1.332-3.348 2.916-3.348 1.566 0 2.448.936 2.448 2.538V382h1.188v-5.526c0-2.25-1.332-3.69-3.528-3.69zm10.595 1.368V373h-2.592v-2.52l-1.188.36V373h-1.89v1.152h1.89v5.454c0 2.16 1.35 2.754 3.78 2.394v-1.044c-1.746.072-2.592.198-2.592-1.35v-5.454h2.592zm5.629 8.064c2.628 0 4.734-2.052 4.734-4.716s-2.106-4.716-4.734-4.716-4.734 2.052-4.734 4.716 2.106 4.716 4.734 4.716zm0-1.152c-1.998 0-3.546-1.566-3.546-3.564s1.548-3.564 3.546-3.564c1.998 0 3.546 1.566 3.546 3.564s-1.548 3.564-3.546 3.564zm15.416 1.152c1.764 0 3.294-.918 4.032-2.34l-.99-.576c-.576 1.044-1.674 1.764-3.042 1.764-1.998 0-3.546-1.566-3.546-3.564s1.548-3.564 3.546-3.564c1.35 0 2.484.702 2.97 1.764l.972-.558c-.648-1.422-2.16-2.358-3.942-2.358-2.718 0-4.734 2.052-4.734 4.716s2.016 4.716 4.734 4.716zM391.637 373v4.716c0 2.412-1.332 3.348-2.916 3.348-1.566 0-2.448-.936-2.448-2.538V373h-1.188v5.526c0 2.25 1.332 3.69 3.528 3.69 1.278 0 2.322-.486 3.024-1.62V382h1.188v-9h-1.188zm4.637 2.358c0-.972.954-1.422 1.89-1.422.864 0 1.782.342 2.16 1.26l.99-.576c-.522-1.116-1.674-1.836-3.15-1.836-1.8 0-3.078 1.134-3.078 2.574 0 3.312 5.256 2.034 5.256 4.266 0 1.062-1.008 1.44-2.07 1.44-1.206 0-2.142-.594-2.466-1.512l-1.008.594c.45 1.152 1.674 2.07 3.474 2.07 1.926 0 3.258-1.062 3.258-2.592 0-3.312-5.256-2.034-5.256-4.266zm11.656-1.206V373h-2.592v-2.52l-1.188.36V373h-1.89v1.152h1.89v5.454c0 2.16 1.35 2.754 3.78 2.394v-1.044c-1.746.072-2.592.198-2.592-1.35v-5.454h2.592zm5.629 8.064c2.628 0 4.734-2.052 4.734-4.716s-2.106-4.716-4.734-4.716-4.734 2.052-4.734 4.716 2.106 4.716 4.734 4.716zm0-1.152c-1.998 0-3.546-1.566-3.546-3.564s1.548-3.564 3.546-3.564c1.998 0 3.546 1.566 3.546 3.564s-1.548 3.564-3.546 3.564zm16.316-8.28c-1.152 0-2.25.522-2.916 1.638-.504-1.044-1.476-1.638-2.736-1.638-1.08 0-2.052.432-2.754 1.53V373h-1.188v9h1.188v-4.986c0-2.232 1.296-3.078 2.592-3.078 1.278 0 2.106.846 2.106 2.448V382h1.188v-4.986c0-2.232 1.116-3.078 2.502-3.078 1.278 0 2.196.846 2.196 2.448V382h1.188v-5.616c0-2.25-1.386-3.6-3.366-3.6zm9.822 0c-2.79 0-4.698 2.07-4.698 4.716 0 2.718 1.944 4.716 4.788 4.716 1.818 0 3.204-.846 3.96-2.07l-1.044-.612c-.486.864-1.476 1.53-2.898 1.53-1.908 0-3.33-1.134-3.582-2.97h7.902c.018-.18.036-.378.036-.558 0-2.466-1.71-4.752-4.464-4.752zm0 1.152c1.548 0 2.988 1.026 3.24 3.006h-6.714c.234-1.764 1.584-3.006 3.474-3.006zm7.542.558V373h-1.188v9h1.188v-5.004c0-2.232 1.404-2.988 2.844-2.988v-1.152c-1.152 0-2.214.378-2.844 1.638zm7.173-5.094h-1.44l-.72 4.05h1.08l1.08-4.05zm1.839 5.958c0-.972.954-1.422 1.89-1.422.864 0 1.782.342 2.16 1.26l.99-.576c-.522-1.116-1.674-1.836-3.15-1.836-1.8 0-3.078 1.134-3.078 2.574 0 3.312 5.256 2.034 5.256 4.266 0 1.062-1.008 1.44-2.07 1.44-1.206 0-2.142-.594-2.466-1.512l-1.008.594c.45 1.152 1.674 2.07 3.474 2.07 1.926 0 3.258-1.062 3.258-2.592 0-3.312-5.256-2.034-5.256-4.266zM474.469 373l-3.15 7.758-3.15-7.758h-1.26l3.69 9h1.44l3.69-9h-1.26zm6.502-.216c-2.79 0-4.698 2.07-4.698 4.716 0 2.718 1.944 4.716 4.788 4.716 1.818 0 3.204-.846 3.96-2.07l-1.044-.612c-.486.864-1.476 1.53-2.898 1.53-1.908 0-3.33-1.134-3.582-2.97h7.902c.018-.18.036-.378.036-.558 0-2.466-1.71-4.752-4.464-4.752zm0 1.152c1.548 0 2.988 1.026 3.24 3.006h-6.714c.234-1.764 1.584-3.006 3.474-3.006zm10.565-1.152c-1.278 0-2.322.486-3.024 1.62V369.4h-1.188V382h1.188v-4.716c0-2.412 1.332-3.348 2.916-3.348 1.566 0 2.448.936 2.448 2.538V382h1.188v-5.526c0-2.25-1.332-3.69-3.528-3.69zm6.42-1.692a.864.864 0 100-1.728.864.864 0 000 1.728zM497.362 382h1.188v-9h-1.188v9zm7.903.216c1.764 0 3.294-.918 4.032-2.34l-.99-.576c-.576 1.044-1.674 1.764-3.042 1.764-1.998 0-3.546-1.566-3.546-3.564s1.548-3.564 3.546-3.564c1.35 0 2.484.702 2.97 1.764l.972-.558c-.648-1.422-2.16-2.358-3.942-2.358-2.718 0-4.734 2.052-4.734 4.716s2.016 4.716 4.734 4.716zm5.737-.216h1.188v-13.14h-1.188V382zm7.867-9.216c-2.79 0-4.698 2.07-4.698 4.716 0 2.718 1.944 4.716 4.788 4.716 1.818 0 3.204-.846 3.96-2.07l-1.044-.612c-.486.864-1.476 1.53-2.898 1.53-1.908 0-3.33-1.134-3.582-2.97h7.902c.018-.18.036-.378.036-.558 0-2.466-1.71-4.752-4.464-4.752zm0 1.152c1.548 0 2.988 1.026 3.24 3.006h-6.714c.234-1.764 1.584-3.006 3.474-3.006zM16.914 61.63h-.234l2.88-4.23h-2.358l-3.996 5.994c-.486.702-.756 1.566-.756 2.538 0 2.538 1.836 4.302 4.464 4.302 2.61 0 4.446-1.764 4.446-4.302 0-2.538-1.836-4.302-4.446-4.302zm0 6.642c-1.386 0-2.394-.9-2.394-2.34s1.008-2.34 2.394-2.34c1.368 0 2.376.9 2.376 2.34 0 1.422-1.008 2.34-2.376 2.34zm15.204-2.466h-1.44V62.53H28.59v3.276h-3.942l4.338-8.406h-2.25l-4.338 8.406v1.926h6.192V70h2.088v-2.268h1.44v-1.926zM32.984 70h8.298v-1.998h-5.22l2.844-2.844c1.206-1.224 2.142-2.538 2.142-4.104 0-2.502-1.962-3.888-4.032-3.888-1.674 0-3.258.828-4.068 2.556l1.746 1.026c.486-1.008 1.296-1.566 2.34-1.566 1.08 0 1.944.684 1.944 1.944 0 .954-.702 1.872-1.602 2.772l-4.392 4.482V70zm11.273-6.534a1.36 1.36 0 001.35-1.35c0-.756-.612-1.35-1.35-1.35-.756 0-1.35.594-1.35 1.35 0 .738.594 1.35 1.35 1.35zm0 6.75a1.36 1.36 0 001.35-1.35c0-.756-.612-1.35-1.35-1.35-.756 0-1.35.594-1.35 1.35 0 .738.594 1.35 1.35 1.35zm10.114-2.196V57.4h-2.07V70h7.2v-1.98h-5.13zm7.512-8.37c.684 0 1.242-.576 1.242-1.242 0-.684-.558-1.242-1.242-1.242-.684 0-1.242.558-1.242 1.242 0 .666.558 1.242 1.242 1.242zM60.911 70h1.944v-9h-1.944v9zm8.936-9.234c-1.224 0-2.197.45-2.79 1.386V61h-1.945v9h1.945v-4.824c0-1.836 1.007-2.592 2.285-2.592 1.225 0 2.017.72 2.017 2.088V70h1.944v-5.526c0-2.34-1.44-3.708-3.456-3.708zm7.079 5.562h7.164c.036-.252.072-.54.072-.81 0-2.592-1.836-4.752-4.518-4.752-2.826 0-4.752 2.07-4.752 4.734 0 2.7 1.926 4.734 4.896 4.734 1.764 0 3.114-.738 3.942-1.962l-1.602-.936c-.432.63-1.242 1.116-2.322 1.116-1.44 0-2.574-.72-2.88-2.124zm-.018-1.584c.27-1.35 1.26-2.214 2.718-2.214 1.17 0 2.304.666 2.574 2.214h-5.292zm17.784 5.49c2.628 0 4.464-1.404 4.464-3.708 0-2.502-2.106-3.15-4.194-3.816-1.836-.576-2.538-.99-2.538-1.962 0-.954.774-1.566 1.98-1.566 1.404 0 2.196.756 2.646 1.764l1.746-1.008c-.792-1.674-2.322-2.772-4.392-2.772-2.124 0-4.05 1.314-4.05 3.636 0 2.376 1.908 3.096 3.87 3.69 1.872.576 2.862.954 2.862 2.07 0 .918-.702 1.656-2.34 1.656-1.71 0-2.682-.846-3.132-2.124l-1.782 1.044c.666 1.872 2.376 3.096 4.86 3.096zM108.787 70l-4.104-4.59 3.96-4.41h-2.376l-3.492 3.978V57.4h-1.944V70h1.944v-4.158l3.69 4.158h2.322zm2.28-10.35c.684 0 1.242-.576 1.242-1.242 0-.684-.558-1.242-1.242-1.242-.684 0-1.242.558-1.242 1.242 0 .666.558 1.242 1.242 1.242zM110.095 70h1.944v-9h-1.944v9zm9.295-9.234c-1.404 0-2.466.576-3.15 1.53V61h-1.944v12.6h1.944v-4.878c.684.936 1.746 1.512 3.15 1.512 2.448 0 4.482-2.052 4.482-4.734 0-2.664-2.034-4.734-4.482-4.734zm-.306 7.614c-1.62 0-2.844-1.206-2.844-2.88s1.224-2.88 2.844-2.88c1.62 0 2.844 1.206 2.844 2.88s-1.224 2.88-2.844 2.88zm11.644-7.614c-1.404 0-2.466.576-3.15 1.53V61h-1.944v12.6h1.944v-4.878c.684.936 1.746 1.512 3.15 1.512 2.448 0 4.482-2.052 4.482-4.734 0-2.664-2.034-4.734-4.482-4.734zm-.306 7.614c-1.62 0-2.844-1.206-2.844-2.88s1.224-2.88 2.844-2.88c1.62 0 2.844 1.206 2.844 2.88s-1.224 2.88-2.844 2.88zm8.08-2.052h7.164c.036-.252.072-.54.072-.81 0-2.592-1.836-4.752-4.518-4.752-2.826 0-4.752 2.07-4.752 4.734 0 2.7 1.926 4.734 4.896 4.734 1.764 0 3.114-.738 3.942-1.962l-1.602-.936c-.432.63-1.242 1.116-2.322 1.116-1.44 0-2.574-.72-2.88-2.124zm-.018-1.584c.27-1.35 1.26-2.214 2.718-2.214 1.17 0 2.304.666 2.574 2.214h-5.292zm16.04-7.344v4.878c-.684-.936-1.746-1.512-3.15-1.512-2.448 0-4.482 2.052-4.482 4.734 0 2.664 2.034 4.734 4.482 4.734 1.404 0 2.466-.576 3.15-1.53V70h1.944V57.4h-1.944zm-2.844 10.98c-1.62 0-2.844-1.206-2.844-2.88s1.224-2.88 2.844-2.88c1.62 0 2.844 1.206 2.844 2.88s-1.224 2.88-2.844 2.88zm23.074-10.08h-3.078l4.284 4.284h-8.55v2.232h8.55l-4.284 4.284h3.078l5.4-5.4-5.4-5.4zm16.647-.9V70h1.26V57.4h-1.26zm8.738 4.752V61h-2.592v-2.52l-1.188.36V61h-1.89v1.152h1.89v5.454c0 2.16 1.35 2.754 3.78 2.394v-1.044c-1.746.072-2.592.198-2.592-1.35v-5.454h2.592zm5.593-1.368c-2.79 0-4.698 2.07-4.698 4.716 0 2.718 1.944 4.716 4.788 4.716 1.818 0 3.204-.846 3.96-2.07l-1.044-.612c-.486.864-1.476 1.53-2.898 1.53-1.908 0-3.33-1.134-3.582-2.97h7.902c.018-.18.036-.378.036-.558 0-2.466-1.71-4.752-4.464-4.752zm0 1.152c1.548 0 2.988 1.026 3.24 3.006h-6.714c.234-1.764 1.584-3.006 3.474-3.006zm15.948-1.152c-1.152 0-2.25.522-2.916 1.638-.504-1.044-1.476-1.638-2.736-1.638-1.08 0-2.052.432-2.754 1.53V61h-1.188v9h1.188v-4.986c0-2.232 1.296-3.078 2.592-3.078 1.278 0 2.106.846 2.106 2.448V70h1.188v-4.986c0-2.232 1.116-3.078 2.502-3.078 1.278 0 2.196.846 2.196 2.448V70h1.188v-5.616c0-2.25-1.386-3.6-3.366-3.6zm10.758-1.692a.864.864 0 100-1.728.864.864 0 000 1.728zM231.844 70h1.188v-9h-1.188v9zm4.645-6.642c0-.972.954-1.422 1.89-1.422.864 0 1.782.342 2.16 1.26l.99-.576c-.522-1.116-1.674-1.836-3.15-1.836-1.8 0-3.078 1.134-3.078 2.574 0 3.312 5.256 2.034 5.256 4.266 0 1.062-1.008 1.44-2.07 1.44-1.206 0-2.142-.594-2.466-1.512l-1.008.594c.45 1.152 1.674 2.07 3.474 2.07 1.926 0 3.258-1.062 3.258-2.592 0-3.312-5.256-2.034-5.256-4.266zm11.558-1.908h1.44l.72-4.05h-1.08l-1.08 4.05zm2.52 0h1.44l.72-4.05h-1.08l-1.08 4.05zm3.992 1.908c0-.972.954-1.422 1.89-1.422.864 0 1.782.342 2.16 1.26l.99-.576c-.522-1.116-1.674-1.836-3.15-1.836-1.8 0-3.078 1.134-3.078 2.574 0 3.312 5.256 2.034 5.256 4.266 0 1.062-1.008 1.44-2.07 1.44-1.206 0-2.142-.594-2.466-1.512l-1.008.594c.45 1.152 1.674 2.07 3.474 2.07 1.926 0 3.258-1.062 3.258-2.592 0-3.312-5.256-2.034-5.256-4.266zM268.981 70l-4.824-4.68 4.644-4.32h-1.62l-4.284 3.978V57.4h-1.188V70h1.188v-4.338l4.5 4.338h1.584zm2.217-10.908a.864.864 0 100-1.728.864.864 0 000 1.728zM270.604 70h1.188v-9h-1.188v9zm8.533-9.216c-1.602 0-2.88.774-3.636 1.98V61h-1.188v12.6h1.188v-5.364c.756 1.206 2.034 1.98 3.636 1.98 2.538 0 4.644-2.052 4.644-4.716s-2.106-4.716-4.644-4.716zm-.09 8.28c-1.998 0-3.546-1.566-3.546-3.564s1.548-3.564 3.546-3.564c1.998 0 3.546 1.566 3.546 3.564s-1.548 3.564-3.546 3.564zm11.533-8.28c-1.602 0-2.88.774-3.636 1.98V61h-1.188v12.6h1.188v-5.364c.756 1.206 2.034 1.98 3.636 1.98 2.538 0 4.644-2.052 4.644-4.716s-2.106-4.716-4.644-4.716zm-.09 8.28c-1.998 0-3.546-1.566-3.546-3.564s1.548-3.564 3.546-3.564c1.998 0 3.546 1.566 3.546 3.564s-1.548 3.564-3.546 3.564zm10.867-8.28c-2.79 0-4.698 2.07-4.698 4.716 0 2.718 1.944 4.716 4.788 4.716 1.818 0 3.204-.846 3.96-2.07l-1.044-.612c-.486.864-1.476 1.53-2.898 1.53-1.908 0-3.33-1.134-3.582-2.97h7.902c.018-.18.036-.378.036-.558 0-2.466-1.71-4.752-4.464-4.752zm0 1.152c1.548 0 2.988 1.026 3.24 3.006h-6.714c.234-1.764 1.584-3.006 3.474-3.006zm14.094-4.536v5.364c-.756-1.206-2.034-1.98-3.636-1.98-2.538 0-4.644 2.052-4.644 4.716s2.106 4.716 4.644 4.716c1.602 0 2.88-.774 3.636-1.98V70h1.188V57.4h-1.188zm-3.546 11.664c-1.998 0-3.546-1.566-3.546-3.564s1.548-3.564 3.546-3.564c1.998 0 3.546 1.566 3.546 3.564s-1.548 3.564-3.546 3.564zm9.23-11.664h-1.44l-.72 4.05h1.08l1.08-4.05zm2.52 0h-1.44l-.72 4.05h1.08l1.08-4.05zm11.337.936v-1.152c-2.43-.18-3.78 1.116-3.78 3.456V61h-1.53v1.152h1.53V70h1.188v-7.848h2.592V61H332.4v-.36c0-1.728.846-2.448 2.592-2.304zm4.915 11.88c2.628 0 4.734-2.052 4.734-4.716s-2.106-4.716-4.734-4.716-4.734 2.052-4.734 4.716 2.106 4.716 4.734 4.716zm0-1.152c-1.998 0-3.546-1.566-3.546-3.564s1.548-3.564 3.546-3.564c1.998 0 3.546 1.566 3.546 3.564s-1.548 3.564-3.546 3.564zm7.91-6.57V61h-1.188v9h1.188v-5.004c0-2.232 1.404-2.988 2.844-2.988v-1.152c-1.152 0-2.214.378-2.844 1.638zM364.529 61v1.764c-.756-1.206-2.034-1.98-3.636-1.98-2.538 0-4.644 2.052-4.644 4.716s2.106 4.716 4.644 4.716c1.602 0 2.88-.774 3.636-1.98V70h1.188v-9h-1.188zm-3.546 8.064c-1.998 0-3.546-1.566-3.546-3.564s1.548-3.564 3.546-3.564c1.998 0 3.546 1.566 3.546 3.564s-1.548 3.564-3.546 3.564zm16.574-8.28c-1.602 0-2.88.774-3.636 1.98V61h-1.188v12.6h1.188v-5.364c.756 1.206 2.034 1.98 3.636 1.98 2.538 0 4.644-2.052 4.644-4.716s-2.106-4.716-4.644-4.716zm-.09 8.28c-1.998 0-3.546-1.566-3.546-3.564s1.548-3.564 3.546-3.564c1.998 0 3.546 1.566 3.546 3.564s-1.548 3.564-3.546 3.564zm7.303-9.972a.864.864 0 100-1.728.864.864 0 000 1.728zM384.176 70h1.188v-9h-1.188v9zm7.903.216c1.764 0 3.294-.918 4.032-2.34l-.99-.576c-.576 1.044-1.674 1.764-3.042 1.764-1.998 0-3.546-1.566-3.546-3.564s1.548-3.564 3.546-3.564c1.35 0 2.484.702 2.97 1.764l.972-.558c-.648-1.422-2.16-2.358-3.942-2.358-2.718 0-4.734 2.052-4.734 4.716s2.016 4.716 4.734 4.716zm13.01-.216l-4.824-4.68 4.644-4.32h-1.62l-4.284 3.978V57.4h-1.188V70h1.188v-4.338l4.5 4.338h1.584zm4.884-9.216c-2.79 0-4.698 2.07-4.698 4.716 0 2.718 1.944 4.716 4.788 4.716 1.818 0 3.204-.846 3.96-2.07l-1.044-.612c-.486.864-1.476 1.53-2.898 1.53-1.908 0-3.33-1.134-3.582-2.97h7.902c.018-.18.036-.378.036-.558 0-2.466-1.71-4.752-4.464-4.752zm0 1.152c1.548 0 2.988 1.026 3.24 3.006h-6.714c.234-1.764 1.584-3.006 3.474-3.006zm7.541.558V61h-1.188v9h1.188v-5.004c0-2.232 1.404-2.988 2.844-2.988v-1.152c-1.152 0-2.214.378-2.844 1.638zm13.743-.342V61h-2.592v-2.52l-1.188.36V61h-1.89v1.152h1.89v5.454c0 2.16 1.35 2.754 3.78 2.394v-1.044c-1.746.072-2.592.198-2.592-1.35v-5.454h2.592zm5.629 8.064c2.628 0 4.734-2.052 4.734-4.716s-2.106-4.716-4.734-4.716-4.734 2.052-4.734 4.716 2.106 4.716 4.734 4.716zm0-1.152c-1.998 0-3.546-1.566-3.546-3.564s1.548-3.564 3.546-3.564c1.998 0 3.546 1.566 3.546 3.564s-1.548 3.564-3.546 3.564zm15.416 1.152c1.764 0 3.294-.918 4.032-2.34l-.99-.576c-.576 1.044-1.674 1.764-3.042 1.764-1.998 0-3.546-1.566-3.546-3.564s1.548-3.564 3.546-3.564c1.35 0 2.484.702 2.97 1.764l.972-.558c-.648-1.422-2.16-2.358-3.942-2.358-2.718 0-4.734 2.052-4.734 4.716s2.016 4.716 4.734 4.716zm9.843 0c2.628 0 4.734-2.052 4.734-4.716s-2.106-4.716-4.734-4.716-4.734 2.052-4.734 4.716 2.106 4.716 4.734 4.716zm0-1.152c-1.998 0-3.546-1.566-3.546-3.564s1.548-3.564 3.546-3.564c1.998 0 3.546 1.566 3.546 3.564s-1.548 3.564-3.546 3.564zm16.316-8.28c-1.152 0-2.25.522-2.916 1.638-.504-1.044-1.476-1.638-2.736-1.638-1.08 0-2.052.432-2.754 1.53V61h-1.188v9h1.188v-4.986c0-2.232 1.296-3.078 2.592-3.078 1.278 0 2.106.846 2.106 2.448V70h1.188v-4.986c0-2.232 1.116-3.078 2.502-3.078 1.278 0 2.196.846 2.196 2.448V70h1.188v-5.616c0-2.25-1.386-3.6-3.366-3.6zm9.822 0c-2.79 0-4.698 2.07-4.698 4.716 0 2.718 1.944 4.716 4.788 4.716 1.818 0 3.204-.846 3.96-2.07l-1.044-.612c-.486.864-1.476 1.53-2.898 1.53-1.908 0-3.33-1.134-3.582-2.97h7.902c.018-.18.036-.378.036-.558 0-2.466-1.71-4.752-4.464-4.752zm0 1.152c1.548 0 2.988 1.026 3.24 3.006h-6.714c.234-1.764 1.584-3.006 3.474-3.006zm15.678-1.152c-1.602 0-2.88.774-3.636 1.98V57.4h-1.188V70h1.188v-1.764c.756 1.206 2.034 1.98 3.636 1.98 2.538 0 4.644-2.052 4.644-4.716s-2.106-4.716-4.644-4.716zm-.09 8.28c-1.998 0-3.546-1.566-3.546-3.564s1.548-3.564 3.546-3.564c1.998 0 3.546 1.566 3.546 3.564s-1.548 3.564-3.546 3.564zM518.32 61v1.764c-.756-1.206-2.034-1.98-3.636-1.98-2.538 0-4.644 2.052-4.644 4.716s2.106 4.716 4.644 4.716c1.602 0 2.88-.774 3.636-1.98V70h1.188v-9h-1.188zm-3.546 8.064c-1.998 0-3.546-1.566-3.546-3.564s1.548-3.564 3.546-3.564c1.998 0 3.546 1.566 3.546 3.564s-1.548 3.564-3.546 3.564zm11.444 1.152c1.764 0 3.294-.918 4.032-2.34l-.99-.576c-.576 1.044-1.674 1.764-3.042 1.764-1.998 0-3.546-1.566-3.546-3.564s1.548-3.564 3.546-3.564c1.35 0 2.484.702 2.97 1.764l.972-.558c-.648-1.422-2.16-2.358-3.942-2.358-2.718 0-4.734 2.052-4.734 4.716s2.016 4.716 4.734 4.716zM539.227 70l-4.824-4.68 4.644-4.32h-1.62l-4.284 3.978V57.4h-1.188V70h1.188v-4.338l4.5 4.338h1.584zm10.893-7.848V61h-2.592v-2.52l-1.188.36V61h-1.89v1.152h1.89v5.454c0 2.16 1.35 2.754 3.78 2.394v-1.044c-1.746.072-2.592.198-2.592-1.35v-5.454h2.592zm5.629 8.064c2.628 0 4.734-2.052 4.734-4.716s-2.106-4.716-4.734-4.716-4.734 2.052-4.734 4.716 2.106 4.716 4.734 4.716zm0-1.152c-1.998 0-3.546-1.566-3.546-3.564s1.548-3.564 3.546-3.564c1.998 0 3.546 1.566 3.546 3.564s-1.548 3.564-3.546 3.564zm11.222.936h1.188V56.86h-1.188V70zm11.449-9v1.764c-.756-1.206-2.034-1.98-3.636-1.98-2.538 0-4.644 2.052-4.644 4.716s2.106 4.716 4.644 4.716c1.602 0 2.88-.774 3.636-1.98V70h1.188v-9h-1.188zm-3.546 8.064c-1.998 0-3.546-1.566-3.546-3.564s1.548-3.564 3.546-3.564c1.998 0 3.546 1.566 3.546 3.564s-1.548 3.564-3.546 3.564zm12.019-6.912V61h-2.592v-2.52l-1.188.36V61h-1.89v1.152h1.89v5.454c0 2.16 1.35 2.754 3.78 2.394v-1.044c-1.746.072-2.592.198-2.592-1.35v-5.454h2.592zm5.593-1.368c-2.79 0-4.698 2.07-4.698 4.716 0 2.718 1.944 4.716 4.788 4.716 1.818 0 3.204-.846 3.96-2.07l-1.044-.612c-.486.864-1.476 1.53-2.898 1.53-1.908 0-3.33-1.134-3.582-2.97h7.902c.018-.18.036-.378.036-.558 0-2.466-1.71-4.752-4.464-4.752zm0 1.152c1.548 0 2.988 1.026 3.24 3.006h-6.714c.234-1.764 1.584-3.006 3.474-3.006zm7.542.558V61h-1.188v9h1.188v-5.004c0-2.232 1.404-2.988 2.844-2.988v-1.152c-1.152 0-2.214.378-2.844 1.638zM16.914 217.63h-.234l2.88-4.23h-2.358l-3.996 5.994c-.486.702-.756 1.566-.756 2.538 0 2.538 1.836 4.302 4.464 4.302 2.61 0 4.446-1.764 4.446-4.302 0-2.538-1.836-4.302-4.446-4.302zm0 6.642c-1.386 0-2.394-.9-2.394-2.34s1.008-2.34 2.394-2.34c1.368 0 2.376.9 2.376 2.34 0 1.422-1.008 2.34-2.376 2.34zm15.204-2.466h-1.44v-3.276H28.59v3.276h-3.942l4.338-8.406h-2.25l-4.338 8.406v1.926h6.192V226h2.088v-2.268h1.44v-1.926zm3.397-8.406l-3.312 1.17.504 1.764 2.538-.72V226h2.07v-12.6h-1.8zm5.455 6.066a1.36 1.36 0 001.35-1.35c0-.756-.612-1.35-1.35-1.35-.756 0-1.35.594-1.35 1.35 0 .738.594 1.35 1.35 1.35zm0 6.75a1.36 1.36 0 001.35-1.35c0-.756-.612-1.35-1.35-1.35-.756 0-1.35.594-1.35 1.35 0 .738.594 1.35 1.35 1.35zm10.114-2.196V213.4h-2.07V226h7.2v-1.98h-5.13zm7.512-8.37c.684 0 1.242-.576 1.242-1.242 0-.684-.558-1.242-1.242-1.242-.684 0-1.242.558-1.242 1.242 0 .666.558 1.242 1.242 1.242zM57.624 226h1.944v-9h-1.944v9zm8.935-9.234c-1.224 0-2.196.45-2.79 1.386V217h-1.944v9h1.944v-4.824c0-1.836 1.008-2.592 2.286-2.592 1.224 0 2.016.72 2.016 2.088V226h1.944v-5.526c0-2.34-1.44-3.708-3.456-3.708zm7.08 5.562h7.164c.036-.252.072-.54.072-.81 0-2.592-1.836-4.752-4.518-4.752-2.826 0-4.752 2.07-4.752 4.734 0 2.7 1.926 4.734 4.896 4.734 1.764 0 3.114-.738 3.942-1.962l-1.602-.936c-.432.63-1.242 1.116-2.322 1.116-1.44 0-2.574-.72-2.88-2.124zm-.018-1.584c.27-1.35 1.26-2.214 2.718-2.214 1.17 0 2.304.666 2.574 2.214H73.62zm17.784 5.49c2.628 0 4.464-1.404 4.464-3.708 0-2.502-2.106-3.15-4.194-3.816-1.836-.576-2.538-.99-2.538-1.962 0-.954.774-1.566 1.98-1.566 1.404 0 2.196.756 2.646 1.764l1.746-1.008c-.792-1.674-2.322-2.772-4.392-2.772-2.124 0-4.05 1.314-4.05 3.636 0 2.376 1.908 3.096 3.87 3.69 1.872.576 2.862.954 2.862 2.07 0 .918-.702 1.656-2.34 1.656-1.71 0-2.682-.846-3.132-2.124l-1.782 1.044c.666 1.872 2.376 3.096 4.86 3.096zm10.873-9.468c-1.224 0-2.196.45-2.79 1.386V213.4h-1.944V226h1.944v-4.824c0-1.836 1.008-2.592 2.286-2.592 1.224 0 2.016.72 2.016 2.088V226h1.944v-5.526c0-2.34-1.44-3.708-3.456-3.708zm9.797 9.468c2.646 0 4.752-2.07 4.752-4.734 0-2.682-2.106-4.734-4.752-4.734-2.628 0-4.752 2.052-4.752 4.734 0 2.664 2.124 4.734 4.752 4.734zm0-1.89c-1.584 0-2.808-1.206-2.808-2.844s1.224-2.844 2.808-2.844c1.584 0 2.808 1.206 2.808 2.844s-1.224 2.844-2.808 2.844zm8.454-5.832V217h-1.944v9h1.944v-4.536c0-2.016 1.494-2.61 2.772-2.52v-2.106c-1.134 0-2.232.45-2.772 1.674zm9.459.36V217h-2.232v-2.52l-1.944.576V217h-1.656v1.872h1.656v4.32c0 2.34 1.188 3.168 4.176 2.808v-1.746c-1.476.072-2.232.09-2.232-1.062v-4.32h2.232zm2.924 3.456h7.164c.036-.252.072-.54.072-.81 0-2.592-1.836-4.752-4.518-4.752-2.826 0-4.752 2.07-4.752 4.734 0 2.7 1.926 4.734 4.896 4.734 1.764 0 3.114-.738 3.942-1.962l-1.602-.936c-.432.63-1.242 1.116-2.322 1.116-1.44 0-2.574-.72-2.88-2.124zm-.018-1.584c.27-1.35 1.26-2.214 2.718-2.214 1.17 0 2.304.666 2.574 2.214h-5.292zm16.04-7.344v4.878c-.684-.936-1.746-1.512-3.15-1.512-2.448 0-4.482 2.052-4.482 4.734 0 2.664 2.034 4.734 4.482 4.734 1.404 0 2.466-.576 3.15-1.53V226h1.944v-12.6h-1.944zm-2.844 10.98c-1.62 0-2.844-1.206-2.844-2.88s1.224-2.88 2.844-2.88c1.62 0 2.844 1.206 2.844 2.88s-1.224 2.88-2.844 2.88zm23.074-10.08h-3.078l4.284 4.284h-8.55v2.232h8.55l-4.284 4.284h3.078l5.4-5.4-5.4-5.4zm16.647-.9V226h1.26v-12.6h-1.26zm8.739 4.752V217h-2.592v-2.52l-1.188.36V217h-1.89v1.152h1.89v5.454c0 2.16 1.35 2.754 3.78 2.394v-1.044c-1.746.072-2.592.198-2.592-1.35v-5.454h2.592zm5.593-1.368c-2.79 0-4.698 2.07-4.698 4.716 0 2.718 1.944 4.716 4.788 4.716 1.818 0 3.204-.846 3.96-2.07l-1.044-.612c-.486.864-1.476 1.53-2.898 1.53-1.908 0-3.33-1.134-3.582-2.97h7.902c.018-.18.036-.378.036-.558 0-2.466-1.71-4.752-4.464-4.752zm0 1.152c1.548 0 2.988 1.026 3.24 3.006h-6.714c.234-1.764 1.584-3.006 3.474-3.006zm15.947-1.152c-1.152 0-2.25.522-2.916 1.638-.504-1.044-1.476-1.638-2.736-1.638-1.08 0-2.052.432-2.754 1.53V217h-1.188v9h1.188v-4.986c0-2.232 1.296-3.078 2.592-3.078 1.278 0 2.106.846 2.106 2.448V226h1.188v-4.986c0-2.232 1.116-3.078 2.502-3.078 1.278 0 2.196.846 2.196 2.448V226h1.188v-5.616c0-2.25-1.386-3.6-3.366-3.6zm10.758-1.692a.864.864 0 100-1.728.864.864 0 000 1.728zM226.254 226h1.188v-9h-1.188v9zm4.645-6.642c0-.972.954-1.422 1.89-1.422.864 0 1.782.342 2.16 1.26l.99-.576c-.522-1.116-1.674-1.836-3.15-1.836-1.8 0-3.078 1.134-3.078 2.574 0 3.312 5.256 2.034 5.256 4.266 0 1.062-1.008 1.44-2.07 1.44-1.206 0-2.142-.594-2.466-1.512l-1.008.594c.45 1.152 1.674 2.07 3.474 2.07 1.926 0 3.258-1.062 3.258-2.592 0-3.312-5.256-2.034-5.256-4.266zM248.973 217v4.716c0 2.412-1.332 3.348-2.916 3.348-1.566 0-2.448-.936-2.448-2.538V217h-1.188v5.526c0 2.25 1.332 3.69 3.528 3.69 1.278 0 2.322-.486 3.024-1.62V226h1.188v-9h-1.188zm7.913-.216c-1.278 0-2.322.486-3.024 1.62V217h-1.188v9h1.188v-4.716c0-2.412 1.332-3.348 2.916-3.348 1.566 0 2.448.936 2.448 2.538V226h1.188v-5.526c0-2.25-1.332-3.69-3.528-3.69zm10.325-2.448v-1.152c-2.43-.18-3.78 1.116-3.78 3.456v.36h-1.53v1.152h1.53V226h1.188v-7.848h2.592V217h-2.592v-.36c0-1.728.846-2.448 2.592-2.304zm7.602 2.664v4.716c0 2.412-1.332 3.348-2.916 3.348-1.566 0-2.448-.936-2.448-2.538V217h-1.188v5.526c0 2.25 1.332 3.69 3.528 3.69 1.278 0 2.322-.486 3.024-1.62V226h1.188v-9h-1.188zm3.701 9h1.188v-13.14h-1.188V226zm10.477-9h-4.86v-.36c0-1.728.846-2.304 2.592-2.304.558 0 1.098.036 1.728.144v-1.08c-.648-.144-1.188-.216-1.728-.216-2.43 0-3.78 1.116-3.78 3.456v.36h-1.53v1.152h1.53V226h1.188v-7.848h3.672V226h1.188v-9zm2.513 9h1.188v-13.14h-1.188V226zm3.709 0h1.188v-13.14h-1.188V226zm7.867-9.216c-2.79 0-4.698 2.07-4.698 4.716 0 2.718 1.944 4.716 4.788 4.716 1.818 0 3.204-.846 3.96-2.07l-1.044-.612c-.486.864-1.476 1.53-2.898 1.53-1.908 0-3.33-1.134-3.582-2.97h7.902c.018-.18.036-.378.036-.558 0-2.466-1.71-4.752-4.464-4.752zm0 1.152c1.548 0 2.988 1.026 3.24 3.006h-6.714c.234-1.764 1.584-3.006 3.474-3.006zm14.094-4.536v5.364c-.756-1.206-2.034-1.98-3.636-1.98-2.538 0-4.644 2.052-4.644 4.716s2.106 4.716 4.644 4.716c1.602 0 2.88-.774 3.636-1.98V226h1.188v-12.6h-1.188zm-3.546 11.664c-1.998 0-3.546-1.566-3.546-3.564s1.548-3.564 3.546-3.564c1.998 0 3.546 1.566 3.546 3.564s-1.548 3.564-3.546 3.564zm13.549 2.736h1.188c-1.26-2.52-1.98-5.22-1.98-8.1s.72-5.58 1.98-8.1h-1.188c-1.26 2.52-1.98 5.22-1.98 8.1s.72 5.58 1.98 8.1zm7.193-11.016c-1.278 0-2.322.486-3.024 1.62V217h-1.188v9h1.188v-4.716c0-2.412 1.332-3.348 2.916-3.348 1.566 0 2.448.936 2.448 2.538V226h1.188v-5.526c0-2.25-1.332-3.69-3.528-3.69zm9.984 0c-2.79 0-4.698 2.07-4.698 4.716 0 2.718 1.944 4.716 4.788 4.716 1.818 0 3.204-.846 3.96-2.07l-1.044-.612c-.486.864-1.476 1.53-2.898 1.53-1.908 0-3.33-1.134-3.582-2.97h7.902c.018-.18.036-.378.036-.558 0-2.466-1.71-4.752-4.464-4.752zm0 1.152c1.548 0 2.988 1.026 3.24 3.006h-6.714c.234-1.764 1.584-3.006 3.474-3.006zm6.947-2.844a.864.864 0 100-1.728.864.864 0 000 1.728zM350.707 226h1.188v-9h-1.188v9zm8.479-7.848V217h-2.592v-2.52l-1.188.36V217h-1.89v1.152h1.89v5.454c0 2.16 1.35 2.754 3.78 2.394v-1.044c-1.746.072-2.592.198-2.592-1.35v-5.454h2.592zm6.192-1.368c-1.278 0-2.322.486-3.024 1.62V213.4h-1.188V226h1.188v-4.716c0-2.412 1.332-3.348 2.916-3.348 1.566 0 2.448.936 2.448 2.538V226h1.188v-5.526c0-2.25-1.332-3.69-3.528-3.69zm9.983 0c-2.79 0-4.698 2.07-4.698 4.716 0 2.718 1.944 4.716 4.788 4.716 1.818 0 3.204-.846 3.96-2.07l-1.044-.612c-.486.864-1.476 1.53-2.898 1.53-1.908 0-3.33-1.134-3.582-2.97h7.902c.018-.18.036-.378.036-.558 0-2.466-1.71-4.752-4.464-4.752zm0 1.152c1.548 0 2.988 1.026 3.24 3.006h-6.714c.234-1.764 1.584-3.006 3.474-3.006zm7.542.558V217h-1.188v9h1.188v-5.004c0-2.232 1.404-2.988 2.844-2.988v-1.152c-1.152 0-2.214.378-2.844 1.638zm13.796-1.71c-1.602 0-2.88.774-3.636 1.98V217h-1.188v12.6h1.188v-5.364c.756 1.206 2.034 1.98 3.636 1.98 2.538 0 4.644-2.052 4.644-4.716s-2.106-4.716-4.644-4.716zm-.09 8.28c-1.998 0-3.546-1.566-3.546-3.564s1.548-3.564 3.546-3.564c1.998 0 3.546 1.566 3.546 3.564s-1.548 3.564-3.546 3.564zm7.304-9.972a.864.864 0 100-1.728.864.864 0 000 1.728zM403.319 226h1.188v-9h-1.188v9zm7.903.216c1.764 0 3.294-.918 4.032-2.34l-.99-.576c-.576 1.044-1.674 1.764-3.042 1.764-1.998 0-3.546-1.566-3.546-3.564s1.548-3.564 3.546-3.564c1.35 0 2.484.702 2.97 1.764l.972-.558c-.648-1.422-2.16-2.358-3.942-2.358-2.718 0-4.734 2.052-4.734 4.716s2.016 4.716 4.734 4.716zm13.009-.216l-4.824-4.68 4.644-4.32h-1.62l-4.284 3.978V213.4h-1.188V226h1.188v-4.338l4.5 4.338h1.584zm4.884-9.216c-2.79 0-4.698 2.07-4.698 4.716 0 2.718 1.944 4.716 4.788 4.716 1.818 0 3.204-.846 3.96-2.07l-1.044-.612c-.486.864-1.476 1.53-2.898 1.53-1.908 0-3.33-1.134-3.582-2.97h7.902c.018-.18.036-.378.036-.558 0-2.466-1.71-4.752-4.464-4.752zm0 1.152c1.548 0 2.988 1.026 3.24 3.006h-6.714c.234-1.764 1.584-3.006 3.474-3.006zm14.094-4.536v5.364c-.756-1.206-2.034-1.98-3.636-1.98-2.538 0-4.644 2.052-4.644 4.716s2.106 4.716 4.644 4.716c1.602 0 2.88-.774 3.636-1.98V226h1.188v-12.6h-1.188zm-3.546 11.664c-1.998 0-3.546-1.566-3.546-3.564s1.548-3.564 3.546-3.564c1.998 0 3.546 1.566 3.546 3.564s-1.548 3.564-3.546 3.564zm15.961-8.28c-1.278 0-2.322.486-3.024 1.62V217h-1.188v9h1.188v-4.716c0-2.412 1.332-3.348 2.916-3.348 1.566 0 2.448.936 2.448 2.538V226h1.188v-5.526c0-2.25-1.332-3.69-3.528-3.69zm10.019 9.432c2.628 0 4.734-2.052 4.734-4.716s-2.106-4.716-4.734-4.716-4.734 2.052-4.734 4.716 2.106 4.716 4.734 4.716zm0-1.152c-1.998 0-3.546-1.566-3.546-3.564s1.548-3.564 3.546-3.564c1.998 0 3.546 1.566 3.546 3.564s-1.548 3.564-3.546 3.564zm7.91-6.57V217h-1.188v9h1.188v-5.004c0-2.232 1.404-2.988 2.844-2.988v-1.152c-1.152 0-2.214.378-2.844 1.638zm10.161 0V217h-1.188v9h1.188v-5.004c0-2.232 1.404-2.988 2.844-2.988v-1.152c-1.152 0-2.214.378-2.844 1.638zm8.085-1.71c-2.79 0-4.698 2.07-4.698 4.716 0 2.718 1.944 4.716 4.788 4.716 1.818 0 3.204-.846 3.96-2.07l-1.044-.612c-.486.864-1.476 1.53-2.898 1.53-1.908 0-3.33-1.134-3.582-2.97h7.902c.018-.18.036-.378.036-.558 0-2.466-1.71-4.752-4.464-4.752zm0 1.152c1.548 0 2.988 1.026 3.24 3.006h-6.714c.234-1.764 1.584-3.006 3.474-3.006zm11.178-1.152c-1.602 0-2.88.774-3.636 1.98V217h-1.188v12.6h1.188v-5.364c.756 1.206 2.034 1.98 3.636 1.98 2.538 0 4.644-2.052 4.644-4.716s-2.106-4.716-4.644-4.716zm-.09 8.28c-1.998 0-3.546-1.566-3.546-3.564s1.548-3.564 3.546-3.564c1.998 0 3.546 1.566 3.546 3.564s-1.548 3.564-3.546 3.564zm6.709.936h1.188v-13.14h-1.188V226zm11.449-9v1.764c-.756-1.206-2.034-1.98-3.636-1.98-2.538 0-4.644 2.052-4.644 4.716s2.106 4.716 4.644 4.716c1.602 0 2.88-.774 3.636-1.98V226h1.188v-9h-1.188zm-3.546 8.064c-1.998 0-3.546-1.566-3.546-3.564s1.548-3.564 3.546-3.564c1.998 0 3.546 1.566 3.546 3.564s-1.548 3.564-3.546 3.564zm11.443 1.152c1.764 0 3.294-.918 4.032-2.34l-.99-.576c-.576 1.044-1.674 1.764-3.042 1.764-1.998 0-3.546-1.566-3.546-3.564s1.548-3.564 3.546-3.564c1.35 0 2.484.702 2.97 1.764l.972-.558c-.648-1.422-2.16-2.358-3.942-2.358-2.718 0-4.734 2.052-4.734 4.716s2.016 4.716 4.734 4.716zm9.808-9.432c-2.79 0-4.698 2.07-4.698 4.716 0 2.718 1.944 4.716 4.788 4.716 1.818 0 3.204-.846 3.96-2.07l-1.044-.612c-.486.864-1.476 1.53-2.898 1.53-1.908 0-3.33-1.134-3.582-2.97h7.902c.018-.18.036-.378.036-.558 0-2.466-1.71-4.752-4.464-4.752zm0 1.152c1.548 0 2.988 1.026 3.24 3.006h-6.714c.234-1.764 1.584-3.006 3.474-3.006zm14.094-4.536v5.364c-.756-1.206-2.034-1.98-3.636-1.98-2.538 0-4.644 2.052-4.644 4.716s2.106 4.716 4.644 4.716c1.602 0 2.88-.774 3.636-1.98V226h1.188v-12.6h-1.188zm-3.546 11.664c-1.998 0-3.546-1.566-3.546-3.564s1.548-3.564 3.546-3.564c1.998 0 3.546 1.566 3.546 3.564s-1.548 3.564-3.546 3.564zm7.717 2.736c1.26-2.52 1.98-5.22 1.98-8.1s-.72-5.58-1.98-8.1h-1.188c1.26 2.52 1.98 5.22 1.98 8.1s-.72 5.58-1.98 8.1h1.188z" fill="#1A1A1A"/>
</svg>
