<svg width="1440" height="75" viewBox="0 0 1440 75" fill="none" xmlns="http://www.w3.org/2000/svg">
<path fill-rule="evenodd" clip-rule="evenodd" d="M0 0H1440V75H0V0Z" fill="white"/>
<path d="M217.144 34.992C214.04 34.992 211.512 37.52 211.512 40.624C211.512 43.728 214.04 46.256 217.144 46.256C220.248 46.256 222.776 43.728 222.776 40.624C222.776 37.52 220.248 34.992 217.144 34.992ZM217.144 44.208C215.16 44.208 213.56 42.608 213.56 40.624C213.56 38.64 215.16 37.04 217.144 37.04C219.128 37.04 220.728 38.64 220.728 40.624C220.728 42.608 219.128 44.208 217.144 44.208ZM226.353 39.744V38.064H224.305V46H226.353V42.672C226.353 41.264 227.281 40.464 228.145 40.224C228.609 40.096 229.169 40.096 229.681 40.224V37.808C228.241 37.904 226.881 38.512 226.353 39.744ZM234.418 37.808C232.226 37.808 230.45 39.696 230.45 42.032C230.45 44.368 232.226 46.256 234.418 46.256C235.378 46.256 236.21 45.888 236.85 45.152V46H238.898V34.736H236.85V38.912C236.21 38.176 235.378 37.808 234.418 37.808ZM234.674 44.208C233.474 44.208 232.498 43.232 232.498 42.032C232.498 40.832 233.474 39.856 234.674 39.856C235.874 39.856 236.85 40.832 236.85 42.032C236.85 43.232 235.874 44.208 234.674 44.208ZM248.12 42.032C248.12 39.376 246.76 37.808 244.28 37.808C241.512 37.808 240.184 39.696 240.184 42.032C240.184 44.336 241.544 46.256 244.632 46.256C246.536 46.256 247.624 45.504 247.624 45.504L247.032 43.728C246.376 44.192 245.496 44.464 244.664 44.464C243.384 44.464 242.6 43.712 242.312 42.672H248.088C248.104 42.464 248.12 42.208 248.12 42.032ZM242.36 41.136C242.36 40.48 243.128 39.6 244.152 39.6C245.384 39.6 245.944 40.48 245.944 41.136H242.36ZM251.447 39.744V38.064H249.399V46H251.447V42.672C251.447 41.264 252.375 40.464 253.239 40.224C253.703 40.096 254.263 40.096 254.775 40.224V37.808C253.335 37.904 251.975 38.512 251.447 39.744ZM268.589 35.248V42.672L263.213 35.248H261.165V46H263.213V38.576L268.589 46H270.637V35.248H268.589ZM276.392 37.808C274.056 37.808 272.168 39.696 272.168 42.032C272.168 44.368 274.056 46.256 276.392 46.256C278.728 46.256 280.616 44.368 280.616 42.032C280.616 39.696 278.728 37.808 276.392 37.808ZM276.392 44.208C275.192 44.208 274.216 43.232 274.216 42.032C274.216 40.832 275.192 39.856 276.392 39.856C277.592 39.856 278.568 40.832 278.568 42.032C278.568 43.232 277.592 44.208 276.392 44.208ZM283.173 46.256C283.893 46.256 284.453 45.696 284.453 44.976C284.453 44.256 283.893 43.696 283.173 43.696C282.453 43.696 281.893 44.256 281.893 44.976C281.893 45.696 282.453 46.256 283.173 46.256ZM295.438 38.832C295.118 38.832 294.142 38.864 293.502 39.344L293.79 37.296H298.014V35.248H292.126L291.102 41.648H292.894C293.406 41.056 294.174 40.752 295.07 40.752C296.366 40.752 296.99 41.568 296.99 42.416C296.99 43.488 296.094 44.208 294.942 44.208C293.598 44.208 292.99 43.472 292.894 42.64L290.846 42.8C290.974 44.784 292.334 46.256 294.942 46.256C297.294 46.256 299.038 44.784 299.038 42.24C299.038 40.112 297.294 38.832 295.438 38.832ZM304.805 34.992C302.277 34.992 300.581 37.52 300.581 40.624C300.581 43.728 302.261 46.256 304.805 46.256C307.317 46.256 309.029 43.728 309.029 40.624C309.029 37.52 307.317 34.992 304.805 34.992ZM304.805 44.208C303.605 44.208 302.629 42.608 302.629 40.624C302.629 38.64 303.605 37.04 304.805 37.04C306.005 37.04 306.981 38.64 306.981 40.624C306.981 42.608 306.005 44.208 304.805 44.208ZM314.789 34.992C312.261 34.992 310.565 37.52 310.565 40.624C310.565 43.728 312.245 46.256 314.789 46.256C317.301 46.256 319.013 43.728 319.013 40.624C319.013 37.52 317.301 34.992 314.789 34.992ZM314.789 44.208C313.589 44.208 312.613 42.608 312.613 40.624C312.613 38.64 313.589 37.04 314.789 37.04C315.989 37.04 316.965 38.64 316.965 40.624C316.965 42.608 315.989 44.208 314.789 44.208ZM324.773 34.992C322.245 34.992 320.549 37.52 320.549 40.624C320.549 43.728 322.229 46.256 324.773 46.256C327.285 46.256 328.997 43.728 328.997 40.624C328.997 37.52 327.285 34.992 324.773 34.992ZM324.773 44.208C323.573 44.208 322.597 42.608 322.597 40.624C322.597 38.64 323.573 37.04 324.773 37.04C325.973 37.04 326.949 38.64 326.949 40.624C326.949 42.608 325.973 44.208 324.773 44.208ZM334.758 34.992C332.23 34.992 330.534 37.52 330.534 40.624C330.534 43.728 332.214 46.256 334.758 46.256C337.27 46.256 338.982 43.728 338.982 40.624C338.982 37.52 337.27 34.992 334.758 34.992ZM334.758 44.208C333.558 44.208 332.582 42.608 332.582 40.624C332.582 38.64 333.558 37.04 334.758 37.04C335.958 37.04 336.934 38.64 336.934 40.624C336.934 42.608 335.958 44.208 334.758 44.208ZM344.742 34.992C342.214 34.992 340.518 37.52 340.518 40.624C340.518 43.728 342.198 46.256 344.742 46.256C347.254 46.256 348.966 43.728 348.966 40.624C348.966 37.52 347.254 34.992 344.742 34.992ZM344.742 44.208C343.542 44.208 342.566 42.608 342.566 40.624C342.566 38.64 343.542 37.04 344.742 37.04C345.942 37.04 346.918 38.64 346.918 40.624C346.918 42.608 345.942 44.208 344.742 44.208ZM354.726 34.992C352.198 34.992 350.502 37.52 350.502 40.624C350.502 43.728 352.182 46.256 354.726 46.256C357.238 46.256 358.95 43.728 358.95 40.624C358.95 37.52 357.238 34.992 354.726 34.992ZM354.726 44.208C353.526 44.208 352.55 42.608 352.55 40.624C352.55 38.64 353.526 37.04 354.726 37.04C355.926 37.04 356.902 38.64 356.902 40.624C356.902 42.608 355.926 44.208 354.726 44.208ZM364.711 34.992C362.183 34.992 360.487 37.52 360.487 40.624C360.487 43.728 362.167 46.256 364.711 46.256C367.223 46.256 368.935 43.728 368.935 40.624C368.935 37.52 367.223 34.992 364.711 34.992ZM364.711 44.208C363.511 44.208 362.535 42.608 362.535 40.624C362.535 38.64 363.511 37.04 364.711 37.04C365.911 37.04 366.887 38.64 366.887 40.624C366.887 42.608 365.911 44.208 364.711 44.208ZM374.695 34.992C372.167 34.992 370.471 37.52 370.471 40.624C370.471 43.728 372.151 46.256 374.695 46.256C377.207 46.256 378.919 43.728 378.919 40.624C378.919 37.52 377.207 34.992 374.695 34.992ZM374.695 44.208C373.495 44.208 372.519 42.608 372.519 40.624C372.519 38.64 373.495 37.04 374.695 37.04C375.895 37.04 376.871 38.64 376.871 40.624C376.871 42.608 375.895 44.208 374.695 44.208ZM384.68 34.992C382.152 34.992 380.456 37.52 380.456 40.624C380.456 43.728 382.136 46.256 384.68 46.256C387.192 46.256 388.904 43.728 388.904 40.624C388.904 37.52 387.192 34.992 384.68 34.992ZM384.68 44.208C383.48 44.208 382.504 42.608 382.504 40.624C382.504 38.64 383.48 37.04 384.68 37.04C385.88 37.04 386.856 38.64 386.856 40.624C386.856 42.608 385.88 44.208 384.68 44.208ZM394.664 34.992C392.136 34.992 390.44 37.52 390.44 40.624C390.44 43.728 392.12 46.256 394.664 46.256C397.176 46.256 398.888 43.728 398.888 40.624C398.888 37.52 397.176 34.992 394.664 34.992ZM394.664 44.208C393.464 44.208 392.488 42.608 392.488 40.624C392.488 38.64 393.464 37.04 394.664 37.04C395.864 37.04 396.84 38.64 396.84 40.624C396.84 42.608 395.864 44.208 394.664 44.208ZM404.648 34.992C402.12 34.992 400.424 37.52 400.424 40.624C400.424 43.728 402.104 46.256 404.648 46.256C407.16 46.256 408.872 43.728 408.872 40.624C408.872 37.52 407.16 34.992 404.648 34.992ZM404.648 44.208C403.448 44.208 402.472 42.608 402.472 40.624C402.472 38.64 403.448 37.04 404.648 37.04C405.848 37.04 406.824 38.64 406.824 40.624C406.824 42.608 405.848 44.208 404.648 44.208ZM414.633 34.992C412.105 34.992 410.409 37.52 410.409 40.624C410.409 43.728 412.089 46.256 414.633 46.256C417.145 46.256 418.857 43.728 418.857 40.624C418.857 37.52 417.145 34.992 414.633 34.992ZM414.633 44.208C413.433 44.208 412.457 42.608 412.457 40.624C412.457 38.64 413.433 37.04 414.633 37.04C415.833 37.04 416.809 38.64 416.809 40.624C416.809 42.608 415.833 44.208 414.633 44.208ZM424.617 34.992C422.089 34.992 420.393 37.52 420.393 40.624C420.393 43.728 422.073 46.256 424.617 46.256C427.129 46.256 428.841 43.728 428.841 40.624C428.841 37.52 427.129 34.992 424.617 34.992ZM424.617 44.208C423.417 44.208 422.441 42.608 422.441 40.624C422.441 38.64 423.417 37.04 424.617 37.04C425.817 37.04 426.793 38.64 426.793 40.624C426.793 42.608 425.817 44.208 424.617 44.208ZM430.633 36.016V37.936L432.681 37.488V46H434.729V34.992L430.633 36.016Z" fill="black"/>
<path d="M706.285 34.248V36.296H709.101V45H711.149V36.296H713.965V34.248H706.285ZM723.693 45L720.973 41.256C722.557 40.776 723.437 39.336 723.437 37.832C723.437 35.752 722.141 34.248 719.341 34.248H715.501V45H717.549V41.416H718.781L721.197 45H723.693ZM717.549 36.296H719.597C720.589 36.296 721.389 36.824 721.389 37.832C721.389 38.728 720.589 39.368 719.597 39.368H717.549V36.296ZM731.155 39.368L734.723 34.248H732.147L729.715 38.024L727.283 34.248H724.707L728.275 39.368L724.467 45H727.027L729.715 40.904L732.403 45H734.963L731.155 39.368Z" fill="black"/>
<path d="M103.448 46H105.752L101.304 35.248H99.448L95 46H97.304L98.104 43.952H102.648L103.448 46ZM98.888 41.904L100.376 38.064L101.864 41.904H98.888ZM106.774 34.736V46H108.822V34.736H106.774ZM110.743 34.736V46H112.791V34.736H110.743ZM124.816 34.992C121.712 34.992 119.184 37.52 119.184 40.624C119.184 43.728 121.712 46.256 124.816 46.256C127.92 46.256 130.448 43.728 130.448 40.624C130.448 37.52 127.92 34.992 124.816 34.992ZM124.816 44.208C122.832 44.208 121.232 42.608 121.232 40.624C121.232 38.64 122.832 37.04 124.816 37.04C126.8 37.04 128.4 38.64 128.4 40.624C128.4 42.608 126.8 44.208 124.816 44.208ZM134.025 39.744V38.064H131.977V46H134.025V42.672C134.025 41.264 134.953 40.464 135.817 40.224C136.281 40.096 136.841 40.096 137.353 40.224V37.808C135.913 37.904 134.553 38.512 134.025 39.744ZM142.089 37.808C139.897 37.808 138.121 39.696 138.121 42.032C138.121 44.368 139.897 46.256 142.089 46.256C143.049 46.256 143.881 45.888 144.521 45.152V46H146.569V34.736H144.521V38.912C143.881 38.176 143.049 37.808 142.089 37.808ZM142.345 44.208C141.145 44.208 140.169 43.232 140.169 42.032C140.169 40.832 141.145 39.856 142.345 39.856C143.545 39.856 144.521 40.832 144.521 42.032C144.521 43.232 143.545 44.208 142.345 44.208ZM155.792 42.032C155.792 39.376 154.432 37.808 151.952 37.808C149.184 37.808 147.856 39.696 147.856 42.032C147.856 44.336 149.216 46.256 152.304 46.256C154.208 46.256 155.296 45.504 155.296 45.504L154.704 43.728C154.048 44.192 153.168 44.464 152.336 44.464C151.056 44.464 150.272 43.712 149.984 42.672H155.76C155.776 42.464 155.792 42.208 155.792 42.032ZM150.032 41.136C150.032 40.48 150.8 39.6 151.824 39.6C153.056 39.6 153.616 40.48 153.616 41.136H150.032ZM159.119 39.744V38.064H157.071V46H159.119V42.672C159.119 41.264 160.047 40.464 160.911 40.224C161.375 40.096 161.935 40.096 162.447 40.224V37.808C161.007 37.904 159.647 38.512 159.119 39.744ZM167.449 40.944C166.601 40.8 165.769 40.72 165.769 40.24C165.769 39.904 166.361 39.744 167.193 39.76C168.249 39.776 169.305 40.144 169.705 40.432L170.281 38.576C169.129 37.984 167.977 37.808 167.193 37.808C165.113 37.808 163.721 38.96 163.721 40.24C163.721 41.536 164.217 42.48 167.177 42.96C168.233 43.136 168.585 43.264 168.585 43.616C168.585 44.112 167.897 44.32 166.953 44.304C165.993 44.288 164.825 43.824 164.137 43.184L163.465 45.104C163.865 45.456 165.257 46.256 167.145 46.256C169.353 46.256 170.633 45.056 170.633 43.44C170.633 42.432 170.137 41.376 167.449 40.944Z" fill="black"/>
<path d="M95 47.6H171.145V48.4H95V47.6Z" fill="black"/>
<path d="M189.912 43.825L193.729 40L189.912 36.175L191.087 35L196.087 40L191.087 45L189.912 43.825Z" fill="#DBDBDB"/>
<rect x="1019" y="19" width="285" height="38" rx="3" stroke="#F3F5F6" stroke-width="2"/>
<path d="M1041.5 40H1040.71L1040.43 39.73C1041.41 38.59 1042 37.11 1042 35.5C1042 31.91 1039.09 29 1035.5 29C1031.91 29 1029 31.91 1029 35.5C1029 39.09 1031.91 42 1035.5 42C1037.11 42 1038.59 41.41 1039.73 40.43L1040 40.71V41.5L1045 46.49L1046.49 45L1041.5 40V40ZM1035.5 40C1033.01 40 1031 37.99 1031 35.5C1031 33.01 1033.01 31 1035.5 31C1037.99 31 1040 33.01 1040 35.5C1040 37.99 1037.99 40 1035.5 40Z" fill="#333333"/>
<path d="M1062.35 37.512C1060.87 37.218 1060.23 36.882 1060.23 36.154C1060.23 35.314 1060.95 34.824 1062.24 34.824C1063.42 34.824 1064.17 35.342 1064.66 35.818L1065.31 34.6C1064.15 33.522 1062.66 33.48 1062.27 33.48C1060.07 33.48 1058.88 34.684 1058.88 36.21C1058.88 37.47 1059.62 38.408 1062.24 38.856C1063.53 39.08 1064.38 39.542 1064.38 40.298C1064.38 41.194 1063.61 41.768 1062.2 41.768C1061.09 41.768 1060.02 41.25 1059.23 40.382L1058.56 41.586C1058.7 41.754 1059.9 43.112 1062.17 43.112C1064.37 43.112 1065.73 41.88 1065.73 40.242C1065.73 38.66 1064.59 37.946 1062.35 37.512ZM1073.34 39.668C1073.34 37.484 1071.97 36.168 1070.19 36.168C1068.13 36.168 1066.85 37.722 1066.85 39.64C1066.85 41.53 1068.02 43.112 1070.37 43.112C1071.83 43.112 1072.71 42.454 1072.89 42.3L1072.45 41.096C1071.91 41.474 1071.2 41.768 1070.4 41.768C1069.34 41.768 1068.43 41.306 1068.22 40.256H1073.3C1073.33 40.074 1073.34 39.808 1073.34 39.668ZM1068.22 39.024C1068.25 38.366 1068.9 37.512 1070.14 37.512C1071.41 37.512 1071.94 38.366 1071.97 39.024H1068.22ZM1080.06 36.28V37.26C1079.51 36.546 1078.73 36.168 1077.82 36.168C1075.86 36.168 1074.46 37.722 1074.46 39.64C1074.46 41.558 1075.86 43.112 1077.82 43.112C1078.73 43.112 1079.51 42.734 1080.06 42.02V43H1081.4V36.28H1080.06ZM1077.93 41.768C1076.76 41.768 1075.8 40.816 1075.8 39.64C1075.8 38.464 1076.76 37.512 1077.93 37.512C1079.11 37.512 1080.06 38.464 1080.06 39.64C1080.06 40.816 1079.11 41.768 1077.93 41.768ZM1084.66 37.722V36.28H1083.32V43H1084.66V40.004C1084.66 38.772 1085.23 38.03 1086.12 37.694C1086.54 37.54 1087.03 37.54 1087.35 37.638V36.168C1086.09 36.168 1085.12 36.756 1084.66 37.722ZM1088.02 39.64C1088.02 41.558 1089.35 43.112 1091.61 43.112C1092.42 43.112 1093.31 42.846 1093.85 42.342L1093.27 41.082C1092.85 41.502 1092.26 41.768 1091.62 41.768C1090.37 41.768 1089.37 40.802 1089.37 39.626C1089.37 38.478 1090.37 37.512 1091.62 37.512C1092.26 37.512 1092.85 37.778 1093.27 38.184L1093.85 36.938C1093.26 36.406 1092.42 36.168 1091.61 36.168C1089.38 36.168 1088.02 37.722 1088.02 39.64ZM1098.75 36.168C1097.7 36.168 1097.04 36.616 1096.65 37.064V33.144H1095.31V43H1096.65V39.304C1096.65 38.156 1097.69 37.512 1098.5 37.512C1099.65 37.512 1100.01 38.17 1100.01 39.248V43H1101.35V39.248C1101.35 37.26 1100.46 36.168 1098.75 36.168ZM1108.97 33.144H1107.63V43H1108.97V42.02C1109.52 42.734 1110.3 43.112 1111.21 43.112C1113.17 43.112 1114.57 41.558 1114.57 39.64C1114.57 37.722 1113.17 36.168 1111.21 36.168C1110.3 36.168 1109.52 36.546 1108.97 37.26V33.144ZM1111.1 41.768C1109.92 41.768 1108.97 40.816 1108.97 39.64C1108.97 38.464 1109.92 37.512 1111.1 37.512C1112.27 37.512 1113.23 38.464 1113.23 39.64C1113.23 40.816 1112.27 41.768 1111.1 41.768ZM1120.58 36.28L1118.61 40.928L1116.64 36.28H1115.14L1117.85 42.566L1116.06 46.584H1117.53L1122.08 36.28H1120.58ZM1128.35 35.16C1128.91 35.16 1129.36 34.712 1129.36 34.152C1129.36 33.592 1128.91 33.144 1128.35 33.144C1127.79 33.144 1127.35 33.592 1127.35 34.152C1127.35 34.712 1127.79 35.16 1128.35 35.16ZM1127.68 43H1129.03V36.28H1127.68V43ZM1131.49 40.802C1131.49 42.09 1131.91 43.112 1133.19 43.112C1133.57 43.112 1133.89 43.056 1134.18 42.916V41.558C1133.87 41.712 1133.43 41.824 1133.1 41.586C1132.84 41.39 1132.84 40.9 1132.84 40.424V37.624H1134.18V36.28H1132.84V33.592H1131.49V36.28H1130.6V37.624H1131.49V40.802ZM1141.91 39.668C1141.91 37.484 1140.53 36.168 1138.76 36.168C1136.7 36.168 1135.41 37.722 1135.41 39.64C1135.41 41.53 1136.59 43.112 1138.94 43.112C1140.39 43.112 1141.28 42.454 1141.46 42.3L1141.01 41.096C1140.48 41.474 1139.76 41.768 1138.97 41.768C1137.9 41.768 1136.99 41.306 1136.78 40.256H1141.86C1141.89 40.074 1141.91 39.808 1141.91 39.668ZM1136.78 39.024C1136.81 38.366 1137.47 37.512 1138.7 37.512C1139.97 37.512 1140.51 38.366 1140.53 39.024H1136.78ZM1150.73 36.168C1149.78 36.168 1149.12 36.462 1148.41 37.232C1148 36.532 1147.34 36.168 1146.47 36.168C1145.42 36.168 1144.99 36.616 1144.6 37.064V36.28H1143.25V43H1144.6V39.304C1144.6 38.156 1145.41 37.512 1146.22 37.512C1147.15 37.512 1147.51 38.17 1147.51 39.248V43H1148.85V39.304C1148.85 38.156 1149.67 37.512 1150.48 37.512C1151.4 37.512 1151.77 38.17 1151.77 39.248V43H1153.11V39.248C1153.11 37.26 1152.21 36.168 1150.73 36.168ZM1162.83 36.168C1161.78 36.168 1161.12 36.616 1160.73 37.064V36.28H1159.39V43H1160.73V39.304C1160.73 38.156 1161.77 37.512 1162.58 37.512C1163.73 37.512 1164.09 38.17 1164.09 39.248V43H1165.43V39.136C1165.43 37.148 1164.43 36.168 1162.83 36.168ZM1172.37 36.28V37.26C1171.83 36.546 1171.04 36.168 1170.13 36.168C1168.17 36.168 1166.77 37.722 1166.77 39.64C1166.77 41.558 1168.17 43.112 1170.13 43.112C1171.04 43.112 1171.83 42.734 1172.37 42.02V43H1173.72V36.28H1172.37ZM1170.24 41.768C1169.07 41.768 1168.12 40.816 1168.12 39.64C1168.12 38.464 1169.07 37.512 1170.24 37.512C1171.42 37.512 1172.37 38.464 1172.37 39.64C1172.37 40.816 1171.42 41.768 1170.24 41.768ZM1183.11 36.168C1182.15 36.168 1181.5 36.462 1180.78 37.232C1180.38 36.532 1179.72 36.168 1178.85 36.168C1177.8 36.168 1177.37 36.616 1176.97 37.064V36.28H1175.63V43H1176.97V39.304C1176.97 38.156 1177.79 37.512 1178.6 37.512C1179.52 37.512 1179.89 38.17 1179.89 39.248V43H1181.23V39.304C1181.23 38.156 1182.04 37.512 1182.85 37.512C1183.78 37.512 1184.14 38.17 1184.14 39.248V43H1185.49V39.248C1185.49 37.26 1184.59 36.168 1183.11 36.168ZM1193.33 39.668C1193.33 37.484 1191.95 36.168 1190.18 36.168C1188.12 36.168 1186.83 37.722 1186.83 39.64C1186.83 41.53 1188.01 43.112 1190.36 43.112C1191.81 43.112 1192.7 42.454 1192.88 42.3L1192.43 41.096C1191.9 41.474 1191.18 41.768 1190.39 41.768C1189.32 41.768 1188.41 41.306 1188.2 40.256H1193.28C1193.31 40.074 1193.33 39.808 1193.33 39.668ZM1188.2 39.024C1188.23 38.366 1188.89 37.512 1190.12 37.512C1191.39 37.512 1191.93 38.366 1191.95 39.024H1188.2Z" fill="#666B73"/>
</svg>
