<svg width="720" height="500" viewBox="0 0 720 500" fill="none" xmlns="http://www.w3.org/2000/svg">
<g clip-path="url(#clip0)">
<rect width="720" height="500" fill="black"/>
<rect x="29" y="-20" width="296" height="296" fill="white"/>
<path fill-rule="evenodd" clip-rule="evenodd" d="M27 128V278H177H327V128V-22H177H27V128ZM79.5 88.625V108H91.125H102.75V112.375V116.75H85.875H69V93V69.25H74.25H79.5V88.625ZM154.5 77.7858V86.3215L155.752 85.0695C158.13 82.691 161.294 81.5053 165.25 81.5098C169.262 81.5143 171.896 82.5925 174.635 85.352C177.475 88.212 178.96 91.6218 179.508 96.5403C180.858 108.636 174.704 117.75 165.187 117.75C160.348 117.75 156.196 115.96 154.461 113.125L154.002 112.375L154.001 114.562L154 116.75H149.5H145V93V69.25H149.75H154.5V77.7858ZM193.75 93V116.75H189H184.25V93V69.25H189H193.75V93ZM128.875 82.332C134.405 84.1303 138.244 88.2065 139.792 93.925C140.496 96.528 140.56 102.257 139.913 104.875C138.406 110.971 133.987 115.528 128 117.16C125.684 117.791 119.519 117.795 117.25 117.167C114.194 116.32 112.054 115.081 109.863 112.889C107.568 110.591 106.297 108.412 105.452 105.325C104.691 102.543 104.686 96.7242 105.442 93.964C106.832 88.8927 109.85 85.2265 114.379 83.109C117.118 81.8283 119.056 81.4978 123.25 81.5963C126.326 81.6685 127.178 81.78 128.875 82.332ZM221.155 81.8825C225.281 82.5935 228.357 84.5152 229.68 87.2097L230.375 88.625L230.518 101.25C230.64 112.116 230.718 114.049 231.077 115.125C231.307 115.812 231.496 116.459 231.497 116.562C231.499 116.666 229.368 116.75 226.762 116.75H222.023L221.763 115.812C221.62 115.297 221.502 114.622 221.501 114.312C221.499 113.575 221.362 113.6 220.296 114.536C216.488 117.879 208.015 118.789 203.236 116.368C199.639 114.545 197.661 110.627 198.129 106.251C198.618 101.679 201.212 98.9153 206.221 97.6288C207.099 97.4035 209.822 96.9503 212.273 96.622C217.419 95.9325 218.36 95.7127 219.521 94.9305C220.557 94.2322 220.991 93.4225 220.996 92.1795C221.004 90.075 219.668 88.4882 217.495 88.0222C213.139 87.0882 209.664 88.577 208.938 91.6875L208.632 93H203.906H199.18L199.324 91.61C199.403 90.8453 199.805 89.4983 200.217 88.6165C201.875 85.0735 205.22 82.7973 210.125 81.8743C212.583 81.4118 218.448 81.4162 221.155 81.8825ZM242.263 83.3125C242.418 83.8967 243.829 89.1187 245.398 94.9165C246.967 100.714 248.262 105.552 248.277 105.666C248.292 105.781 249.618 100.588 251.223 94.125L254.143 82.375L258.759 82.3075L263.375 82.2398L266.213 93.5845C267.775 99.824 269.131 105.058 269.228 105.215C269.325 105.372 270.814 100.297 272.537 93.9375L275.669 82.375L280.613 82.307C284.532 82.2532 285.533 82.3052 285.438 82.557C285.372 82.732 282.917 90.497 279.983 99.8125L274.648 116.75H269.709H264.769L264.523 115.812C262.259 107.198 258.697 93.8637 258.647 93.8135C258.61 93.7772 257.364 98.5575 255.877 104.436C254.39 110.315 253.072 115.491 252.949 115.938L252.727 116.75H247.738C244.995 116.75 242.75 116.691 242.75 116.619C242.75 116.547 240.384 109.038 237.491 99.9317C234.599 90.8255 232.168 83.122 232.089 82.8125L231.946 82.25H236.963H241.981L242.263 83.3125ZM120.684 88.7568C116.58 89.7903 114.255 93.7195 114.253 99.625C114.251 106.482 117.374 110.562 122.625 110.562C126.931 110.562 129.704 107.976 130.64 103.089C131.842 96.802 129.874 90.9403 126 89.2738C124.553 88.6513 122.064 88.4093 120.684 88.7568ZM160.198 88.8367C156.376 89.9102 154.145 93.8925 154.152 99.625C154.161 106.37 157.335 110.651 162.271 110.576C165.668 110.525 168.136 108.467 169.408 104.625C169.952 102.983 170.075 102.132 170.096 99.875C170.134 95.963 169.312 93.1365 167.503 90.9535C165.969 89.1015 162.664 88.144 160.198 88.8367ZM219.952 100.635C219.582 100.836 218.176 101.176 216.827 101.39C212.459 102.083 210.845 102.501 209.673 103.245C208.227 104.162 207.653 105.224 207.642 107.002C207.63 108.871 208.273 109.946 209.879 110.744C211.623 111.611 214.996 111.619 216.947 110.762C218.715 109.984 220.065 108.424 220.591 106.549C221.007 105.067 221.177 100.241 220.812 100.26C220.709 100.266 220.322 100.434 219.952 100.635ZM124 128.625V133H119.25H114.5V128.625V124.25H119.25H124V128.625ZM180.25 128.625V133H175.625H171V128.625V124.25H175.625H180.25V128.625ZM95.625 125.334C102.822 127.438 107.297 133.218 108.624 142.125C109.682 149.219 108.678 156.483 105.845 162.232C104.612 164.735 104.169 165.358 102.281 167.247C99.839 169.691 97.7515 170.925 94.575 171.803C92.7292 172.314 91.9808 172.347 80.5625 172.44L68.5 172.538V148.631V124.725L81.3125 124.81C92.6252 124.886 94.3005 124.947 95.625 125.334ZM253.75 148.625V172.5H249.125H244.5V148.625V124.75H249.125H253.75V148.625ZM198.307 132.438L198.375 137.375L201.188 137.446L204 137.516V140.758V144H201.125H198.25L198.251 153.688C198.252 159.612 198.354 163.738 198.512 164.309C198.856 165.547 199.434 165.808 201.917 165.844L203.999 165.875L203.999 169.277L204 172.679L201.016 172.854C195.968 173.149 192.473 172.402 190.794 170.67C189.271 169.099 189.25 168.897 189.25 155.844V144H186.75H184.25V140.759V137.518L186.688 137.447L189.125 137.375L189.193 132.438L189.26 127.5H193.75H198.24L198.307 132.438ZM78.25 148.5V164H83.8295C90.0572 164 91.231 163.805 93.329 162.42C97.2885 159.806 99.4405 152.982 98.7565 145.21C98.2308 139.234 96.617 135.712 93.7288 134.239C91.6735 133.19 90.1882 133 84.0725 133H78.25V148.5ZM147.3 136.527C149.876 137.066 152.056 138.578 153.932 141.125L154.484 141.875L154.492 139.438L154.5 137H159.013H163.526L163.44 156.188C163.345 177.319 163.404 176.494 161.749 179.897C160.358 182.755 157.171 185.044 153 186.179C150.609 186.83 141.828 186.822 139.5 186.168C136.831 185.418 134.759 184.273 133.103 182.632C131.534 181.078 130.697 179.443 130.345 177.247L130.186 176.25H135.196H140.205L140.728 177.329C141.547 179.021 142.783 179.588 145.915 179.708C149.136 179.831 150.621 179.392 152.148 177.865C153.621 176.392 154.034 174.951 154.188 170.751L154.312 167.377L153.298 168.659C152.113 170.159 151.307 170.772 149.325 171.682C148.089 172.25 147.449 172.364 144.993 172.453C140.138 172.629 137.328 171.598 134.245 168.508C132.22 166.478 130.906 164.208 130.117 161.375C129.469 159.05 129.326 152.385 129.866 149.717C131.014 144.049 133.907 139.696 137.853 137.7C140.461 136.381 144.313 135.902 147.3 136.527ZM228.773 136.957C233.181 138.124 235.676 139.908 236.793 142.695C237.357 144.101 237.369 144.335 237.501 156.5C237.596 165.222 237.723 169.074 237.932 169.549C238.095 169.92 238.514 170.411 238.864 170.641C239.302 170.928 239.5 171.282 239.5 171.779V172.5H234.509C228.844 172.5 229.123 172.607 228.85 170.322C228.616 168.36 228.613 168.359 227.063 169.745C225.379 171.251 222.192 172.898 220.279 173.251C214.26 174.362 208.718 171.884 206.993 167.312C205.86 164.307 206.095 160.192 207.557 157.437C209.518 153.742 212.968 152.109 220.875 151.135C225.011 150.625 226.625 150.164 227.567 149.221C228.249 148.539 228.301 148.366 228.197 147.112C228.056 145.415 227.395 144.636 225.657 144.12C224.148 143.672 221.058 143.637 219.672 144.053C218.312 144.46 217.093 145.734 216.669 147.189L216.323 148.375L211.911 148.443L207.5 148.512V147.683C207.5 144.329 209.988 140.089 213 138.309C214.158 137.625 216.719 136.778 218.467 136.501C220.82 136.128 226.61 136.385 228.773 136.957ZM124 154.75V172.5H119.25H114.5V154.75V137H119.25H124V154.75ZM180.25 154.75V172.5H175.625H171V154.75V137H175.625H180.25V154.75ZM144.738 144.577C141.125 145.595 139.358 148.497 139.077 153.875C138.821 158.797 140.387 162.511 143.375 164.063C144.036 164.407 145.023 164.622 146.286 164.697C147.944 164.796 148.379 164.728 149.575 164.18C150.333 163.833 151.408 163.08 151.965 162.506C155.143 159.231 155.228 150.443 152.117 146.808C150.447 144.857 147.213 143.879 144.738 144.577ZM227 155.925C226.519 156.136 224.599 156.628 222.735 157.018C218.947 157.81 218.263 158.029 217.188 158.794C215.35 160.103 214.971 163.581 216.473 165.348C218.05 167.202 222.263 167.149 225.25 165.236C227.406 163.855 228.25 161.769 228.25 157.82C228.25 156.544 228.166 155.509 228.062 155.52C227.959 155.531 227.481 155.713 227 155.925Z" fill="black"/>
<path d="M128.208 307H131.76L118.848 273.4H115.392L102.48 307H106.032L109.152 298.744H125.088L128.208 307ZM110.352 295.576L117.12 277.576L123.888 295.576H110.352ZM146.826 282.424C143.418 282.424 140.634 283.72 138.762 286.744V283H135.594V307H138.762V294.424C138.762 287.992 142.314 285.496 146.538 285.496C150.714 285.496 153.066 287.992 153.066 292.264V307H156.234V292.264C156.234 286.264 152.682 282.424 146.826 282.424ZM185.544 307.576C192.552 307.576 198.168 302.104 198.168 295C198.168 287.896 192.552 282.424 185.544 282.424C178.536 282.424 172.92 287.896 172.92 295C172.92 302.104 178.536 307.576 185.544 307.576ZM185.544 304.504C180.216 304.504 176.088 300.328 176.088 295C176.088 289.672 180.216 285.496 185.544 285.496C190.872 285.496 195 289.672 195 295C195 300.328 190.872 304.504 185.544 304.504ZM214.701 282.424C211.293 282.424 208.509 283.72 206.637 286.744V283H203.469V307H206.637V294.424C206.637 287.992 210.189 285.496 214.413 285.496C218.589 285.496 220.941 287.992 220.941 292.264V307H224.109V292.264C224.109 286.264 220.557 282.424 214.701 282.424ZM250.875 283V287.704C248.859 284.488 245.451 282.424 241.179 282.424C234.411 282.424 228.795 287.896 228.795 295C228.795 302.104 234.411 307.576 241.179 307.576C245.451 307.576 248.859 305.512 250.875 302.296V306.04C250.875 310.936 247.563 314.104 241.995 314.104C236.811 314.104 234.603 312.184 233.403 309.736L230.619 311.32C232.491 315.064 236.475 317.176 241.995 317.176C248.187 317.176 254.043 313.336 254.043 306.04V283H250.875ZM241.419 304.504C236.091 304.504 231.963 300.328 231.963 295C231.963 289.672 236.091 285.496 241.419 285.496C246.747 285.496 250.875 289.672 250.875 295C250.875 300.328 246.747 304.504 241.419 304.504ZM271.935 307.576C278.943 307.576 284.559 302.104 284.559 295C284.559 287.896 278.943 282.424 271.935 282.424C264.927 282.424 259.311 287.896 259.311 295C259.311 302.104 264.927 307.576 271.935 307.576ZM271.935 304.504C266.607 304.504 262.479 300.328 262.479 295C262.479 289.672 266.607 285.496 271.935 285.496C277.263 285.496 281.391 289.672 281.391 295C281.391 300.328 277.263 304.504 271.935 304.504ZM291.444 277.912C292.74 277.912 293.748 276.856 293.748 275.608C293.748 274.36 292.74 273.304 291.444 273.304C290.148 273.304 289.14 274.36 289.14 275.608C289.14 276.856 290.148 277.912 291.444 277.912ZM289.86 307H293.028V283H289.86V307ZM310.983 282.424C307.575 282.424 304.791 283.72 302.919 286.744V283H299.751V307H302.919V294.424C302.919 287.992 306.471 285.496 310.695 285.496C314.871 285.496 317.223 287.992 317.223 292.264V307H320.391V292.264C320.391 286.264 316.839 282.424 310.983 282.424ZM347.156 283V287.704C345.14 284.488 341.732 282.424 337.46 282.424C330.692 282.424 325.076 287.896 325.076 295C325.076 302.104 330.692 307.576 337.46 307.576C341.732 307.576 345.14 305.512 347.156 302.296V306.04C347.156 310.936 343.844 314.104 338.276 314.104C333.092 314.104 330.884 312.184 329.684 309.736L326.9 311.32C328.772 315.064 332.756 317.176 338.276 317.176C344.468 317.176 350.324 313.336 350.324 306.04V283H347.156ZM337.7 304.504C332.372 304.504 328.244 300.328 328.244 295C328.244 289.672 332.372 285.496 337.7 285.496C343.028 285.496 347.156 289.672 347.156 295C347.156 300.328 343.028 304.504 337.7 304.504ZM381.896 282.424C377.624 282.424 374.216 284.488 372.2 287.704V283H369.032V316.6H372.2V302.296C374.216 305.512 377.624 307.576 381.896 307.576C388.664 307.576 394.28 302.104 394.28 295C394.28 287.896 388.664 282.424 381.896 282.424ZM381.656 304.504C376.328 304.504 372.2 300.328 372.2 295C372.2 289.672 376.328 285.496 381.656 285.496C386.984 285.496 391.112 289.672 391.112 295C391.112 300.328 386.984 304.504 381.656 304.504ZM402.716 286.984V283H399.548V307H402.716V293.656C402.716 287.704 406.46 285.688 410.299 285.688V282.616C407.228 282.616 404.396 283.624 402.716 286.984ZM424.372 307.576C431.38 307.576 436.996 302.104 436.996 295C436.996 287.896 431.38 282.424 424.372 282.424C417.364 282.424 411.748 287.896 411.748 295C411.748 302.104 417.364 307.576 424.372 307.576ZM424.372 304.504C419.044 304.504 414.916 300.328 414.916 295C414.916 289.672 419.044 285.496 424.372 285.496C429.7 285.496 433.828 289.672 433.828 295C433.828 300.328 429.7 304.504 424.372 304.504ZM444.33 273.304C443.034 273.304 442.026 274.36 442.026 275.608C442.026 276.856 443.034 277.912 444.33 277.912C445.626 277.912 446.634 276.856 446.634 275.608C446.634 274.36 445.626 273.304 444.33 273.304ZM442.746 308.92C442.746 313.048 440.97 314.488 437.274 314.104V317.176C442.794 317.656 445.914 314.68 445.914 308.92V283H442.746V308.92ZM463.745 282.424C456.305 282.424 451.217 287.944 451.217 295C451.217 302.248 456.401 307.576 463.985 307.576C468.833 307.576 472.529 305.32 474.545 302.056L471.761 300.424C470.465 302.728 467.825 304.504 464.033 304.504C458.945 304.504 455.153 301.48 454.481 296.584H475.553C475.601 296.104 475.649 295.576 475.649 295.096C475.649 288.52 471.089 282.424 463.745 282.424ZM463.745 285.496C467.873 285.496 471.713 288.232 472.385 293.512H454.481C455.105 288.808 458.705 285.496 463.745 285.496ZM491.872 307.576C496.576 307.576 500.656 305.128 502.624 301.336L499.984 299.8C498.448 302.584 495.52 304.504 491.872 304.504C486.544 304.504 482.416 300.328 482.416 295C482.416 289.672 486.544 285.496 491.872 285.496C495.472 285.496 498.496 287.368 499.792 290.2L502.384 288.712C500.656 284.92 496.624 282.424 491.872 282.424C484.624 282.424 479.248 287.896 479.248 295C479.248 302.104 484.624 307.576 491.872 307.576ZM519.893 286.072V283H512.981V276.28L509.812 277.24V283H504.773V286.072H509.812V300.616C509.812 306.376 513.413 307.96 519.893 307V304.216C515.237 304.408 512.981 304.744 512.981 300.616V286.072H519.893ZM527.333 307.48C528.821 307.48 529.973 306.328 529.973 304.84C529.973 303.352 528.821 302.2 527.333 302.2C525.845 302.2 524.693 303.352 524.693 304.84C524.693 306.328 525.845 307.48 527.333 307.48ZM117.3 362H119.7L114.57 353.33C117.18 352.58 119.1 350.15 119.1 347.3C119.1 343.82 116.28 341 112.8 341H104.4V362H106.5V353.6H112.38L117.3 362ZM106.5 342.98H112.8C115.11 342.98 117 344.9 117 347.3C117 349.67 115.11 351.62 112.8 351.62H106.5V342.98ZM128.579 346.64C123.929 346.64 120.749 350.09 120.749 354.5C120.749 359.03 123.989 362.36 128.729 362.36C131.759 362.36 134.069 360.95 135.329 358.91L133.589 357.89C132.779 359.33 131.129 360.44 128.759 360.44C125.579 360.44 123.209 358.55 122.789 355.49H135.959C135.989 355.19 136.019 354.86 136.019 354.56C136.019 350.45 133.169 346.64 128.579 346.64ZM128.579 348.56C131.159 348.56 133.559 350.27 133.979 353.57H122.789C123.179 350.63 125.429 348.56 128.579 348.56ZM152.068 347V349.94C150.808 347.93 148.678 346.64 146.008 346.64C141.778 346.64 138.268 350.06 138.268 354.5C138.268 358.94 141.778 362.36 146.008 362.36C148.678 362.36 150.808 361.07 152.068 359.06V362H154.048V347H152.068ZM146.158 360.44C142.828 360.44 140.248 357.83 140.248 354.5C140.248 351.17 142.828 348.56 146.158 348.56C149.488 348.56 152.068 351.17 152.068 354.5C152.068 357.83 149.488 360.44 146.158 360.44ZM165.231 362.36C168.171 362.36 170.721 360.83 171.951 358.46L170.301 357.5C169.341 359.24 167.511 360.44 165.231 360.44C161.901 360.44 159.321 357.83 159.321 354.5C159.321 351.17 161.901 348.56 165.231 348.56C167.481 348.56 169.371 349.73 170.181 351.5L171.801 350.57C170.721 348.2 168.201 346.64 165.231 346.64C160.701 346.64 157.341 350.06 157.341 354.5C157.341 358.94 160.701 362.36 165.231 362.36ZM181.813 346.64C179.683 346.64 177.943 347.45 176.773 349.34V341H174.793V362H176.773V354.14C176.773 350.12 178.993 348.56 181.633 348.56C184.243 348.56 185.713 350.12 185.713 352.79V362H187.693V352.79C187.693 349.04 185.473 346.64 181.813 346.64ZM206.012 362.36C210.392 362.36 213.902 358.94 213.902 354.5C213.902 350.06 210.392 346.64 206.012 346.64C201.632 346.64 198.122 350.06 198.122 354.5C198.122 358.94 201.632 362.36 206.012 362.36ZM206.012 360.44C202.682 360.44 200.102 357.83 200.102 354.5C200.102 351.17 202.682 348.56 206.012 348.56C209.342 348.56 211.922 351.17 211.922 354.5C211.922 357.83 209.342 360.44 206.012 360.44ZM227.775 347V354.86C227.775 358.88 225.555 360.44 222.915 360.44C220.305 360.44 218.835 358.88 218.835 356.21V347H216.855V356.21C216.855 359.96 219.075 362.36 222.735 362.36C224.865 362.36 226.605 361.55 227.775 359.66V362H229.755V347H227.775ZM241.894 348.92V347H237.574V342.8L235.594 343.4V347H232.444V348.92H235.594V358.01C235.594 361.61 237.844 362.6 241.894 362V360.26C238.984 360.38 237.574 360.59 237.574 358.01V348.92H241.894ZM260.194 342.56V340.64C256.144 340.34 253.894 342.5 253.894 346.4V347H251.344V348.92H253.894V362H255.874V348.92H260.194V347H255.874V346.4C255.874 343.52 257.284 342.32 260.194 342.56ZM268.385 362.36C272.765 362.36 276.275 358.94 276.275 354.5C276.275 350.06 272.765 346.64 268.385 346.64C264.005 346.64 260.495 350.06 260.495 354.5C260.495 358.94 264.005 362.36 268.385 362.36ZM268.385 360.44C265.055 360.44 262.475 357.83 262.475 354.5C262.475 351.17 265.055 348.56 268.385 348.56C271.715 348.56 274.295 351.17 274.295 354.5C274.295 357.83 271.715 360.44 268.385 360.44ZM281.568 349.49V347H279.588V362H281.568V353.66C281.568 349.94 283.908 348.68 286.308 348.68V346.76C284.388 346.76 282.618 347.39 281.568 349.49ZM312.512 346.64C310.592 346.64 308.762 347.51 307.652 349.37C306.812 347.63 305.192 346.64 303.092 346.64C301.292 346.64 299.672 347.36 298.502 349.19V347H296.522V362H298.502V353.69C298.502 349.97 300.662 348.56 302.822 348.56C304.952 348.56 306.332 349.97 306.332 352.64V362H308.312V353.69C308.312 349.97 310.172 348.56 312.482 348.56C314.612 348.56 316.142 349.97 316.142 352.64V362H318.122V352.64C318.122 348.89 315.812 346.64 312.512 346.64ZM328.942 362.36C333.322 362.36 336.832 358.94 336.832 354.5C336.832 350.06 333.322 346.64 328.942 346.64C324.562 346.64 321.052 350.06 321.052 354.5C321.052 358.94 324.562 362.36 328.942 362.36ZM328.942 360.44C325.612 360.44 323.032 357.83 323.032 354.5C323.032 351.17 325.612 348.56 328.942 348.56C332.272 348.56 334.852 351.17 334.852 354.5C334.852 357.83 332.272 360.44 328.942 360.44ZM342.125 349.49V347H340.145V362H342.125V353.66C342.125 349.94 344.465 348.68 346.865 348.68V346.76C344.945 346.76 343.175 347.39 342.125 349.49ZM355.6 346.64C350.95 346.64 347.77 350.09 347.77 354.5C347.77 359.03 351.01 362.36 355.75 362.36C358.78 362.36 361.09 360.95 362.35 358.91L360.61 357.89C359.8 359.33 358.15 360.44 355.78 360.44C352.6 360.44 350.23 358.55 349.81 355.49H362.98C363.01 355.19 363.04 354.86 363.04 354.56C363.04 350.45 360.19 346.64 355.6 346.64ZM355.6 348.56C358.18 348.56 360.58 350.27 361 353.57H349.81C350.2 350.63 352.45 348.56 355.6 348.56ZM386.59 341V349.94C385.33 347.93 383.2 346.64 380.53 346.64C376.3 346.64 372.79 350.06 372.79 354.5C372.79 358.94 376.3 362.36 380.53 362.36C383.2 362.36 385.33 361.07 386.59 359.06V362H388.57V341H386.59ZM380.68 360.44C377.35 360.44 374.77 357.83 374.77 354.5C374.77 351.17 377.35 348.56 380.68 348.56C384.01 348.56 386.59 351.17 386.59 354.5C386.59 357.83 384.01 360.44 380.68 360.44ZM399.692 346.64C395.042 346.64 391.862 350.09 391.862 354.5C391.862 359.03 395.102 362.36 399.842 362.36C402.872 362.36 405.182 360.95 406.442 358.91L404.702 357.89C403.892 359.33 402.242 360.44 399.872 360.44C396.692 360.44 394.322 358.55 393.902 355.49H407.072C407.102 355.19 407.132 354.86 407.132 354.56C407.132 350.45 404.282 346.64 399.692 346.64ZM399.692 348.56C402.272 348.56 404.672 350.27 405.092 353.57H393.902C394.292 350.63 396.542 348.56 399.692 348.56ZM417.792 348.92V347H413.472V342.8L411.492 343.4V347H408.342V348.92H411.492V358.01C411.492 361.61 413.742 362.6 417.792 362V360.26C414.882 360.38 413.472 360.59 413.472 358.01V348.92H417.792ZM433.084 347V349.94C431.824 347.93 429.694 346.64 427.024 346.64C422.794 346.64 419.284 350.06 419.284 354.5C419.284 358.94 422.794 362.36 427.024 362.36C429.694 362.36 431.824 361.07 433.084 359.06V362H435.064V347H433.084ZM427.174 360.44C423.844 360.44 421.264 357.83 421.264 354.5C421.264 351.17 423.844 348.56 427.174 348.56C430.504 348.56 433.084 351.17 433.084 354.5C433.084 357.83 430.504 360.44 427.174 360.44ZM440.246 343.82C441.056 343.82 441.686 343.16 441.686 342.38C441.686 341.6 441.056 340.94 440.246 340.94C439.436 340.94 438.806 341.6 438.806 342.38C438.806 343.16 439.436 343.82 440.246 343.82ZM439.256 362H441.236V347H439.256V362ZM445.438 362H447.418V340.1H445.438V362ZM453.18 350.93C453.18 349.31 454.77 348.56 456.33 348.56C457.77 348.56 459.3 349.13 459.93 350.66L461.58 349.7C460.71 347.84 458.79 346.64 456.33 346.64C453.33 346.64 451.2 348.53 451.2 350.93C451.2 356.45 459.96 354.32 459.96 358.04C459.96 359.81 458.28 360.44 456.51 360.44C454.5 360.44 452.94 359.45 452.4 357.92L450.72 358.91C451.47 360.83 453.51 362.36 456.51 362.36C459.72 362.36 461.94 360.59 461.94 358.04C461.94 352.52 453.18 354.65 453.18 350.93ZM465.843 356.3H467.343L467.793 347V341H465.393V347L465.843 356.3ZM466.593 362.3C467.523 362.3 468.243 361.58 468.243 360.65C468.243 359.72 467.523 359 466.593 359C465.663 359 464.943 359.72 464.943 360.65C464.943 361.58 465.663 362.3 466.593 362.3Z" fill="white"/>
</g>
<defs>
<clipPath id="clip0">
<rect width="720" height="500" fill="white"/>
</clipPath>
</defs>
</svg>
