<svg width="500" height="114" fill="none" xmlns="http://www.w3.org/2000/svg">
  <circle cx="91" cy="37" r="21" fill="#4C4C4C"/>
  <g clip-path="url(#loblaw-ph_transaction_icons__clip0)">
    <path d="M96.492 23.18c-.326 0-.601.112-.825.335a1.123 1.123 0 00-.335.825l-.013 3.339a14.12 14.12 0 00-5.175 1.14 13.76 13.76 0 00-4.376 2.946c-2.364 2.364-3.71 5.141-4.041 8.334-.331 3.192.375 6.219 2.12 9.08l.09.09a.56.56 0 00.413.169.56.56 0 00.412-.168l2.565-2.565c.19-.19.219-.417.09-.683-.498-1.22-.773-1.95-.825-2.191a9.19 9.19 0 01.09-4.705 9.174 9.174 0 012.385-4.06c1.728-1.728 3.816-2.64 6.265-2.734v3.558c0 .326.112.602.335.825.223.223.499.335.825.335.327 0 .602-.112.825-.335l5.775-5.775c.223-.223.335-.498.335-.825 0-.326-.112-.601-.335-.825l-5.775-5.774a1.12 1.12 0 00-.825-.336z" fill="#fff"/>
  </g>
  <path d="M77.454 94.234c2.628 0 4.464-1.404 4.464-3.708 0-2.502-2.106-3.15-4.194-3.816-1.836-.576-2.538-.99-2.538-1.962 0-.954.774-1.566 1.98-1.566 1.404 0 2.196.756 2.646 1.764l1.746-1.008c-.792-1.674-2.322-2.772-4.392-2.772-2.124 0-4.05 1.314-4.05 3.636 0 2.376 1.908 3.096 3.87 3.69 1.872.576 2.862.954 2.862 2.07 0 .918-.702 1.656-2.34 1.656-1.71 0-2.682-.846-3.132-2.124l-1.782 1.044c.666 1.872 2.376 3.096 4.86 3.096zM91.549 94l-4.104-4.59 3.96-4.41h-2.376l-3.492 3.978V81.4h-1.944V94h1.944v-4.158L89.227 94h2.322zm2.28-10.35c.684 0 1.242-.576 1.242-1.242 0-.684-.558-1.242-1.242-1.242-.684 0-1.242.558-1.242 1.242 0 .666.558 1.242 1.242 1.242zM92.857 94H94.8v-9h-1.944v9zm9.295-9.234c-1.404 0-2.466.576-3.15 1.53V85h-1.944v12.6h1.944v-4.878c.684.936 1.746 1.512 3.15 1.512 2.448 0 4.482-2.052 4.482-4.734 0-2.664-2.034-4.734-4.482-4.734zm-.306 7.614c-1.62 0-2.844-1.206-2.844-2.88s1.224-2.88 2.844-2.88c1.62 0 2.844 1.206 2.844 2.88s-1.224 2.88-2.844 2.88z" fill="#1A1A1A"/>
  <circle cx="198" cy="37" r="21" fill="#E1251B"/>
  <g clip-path="url(#loblaw-ph_transaction_icons__clip1)">
    <path d="M206.702 31.344l-5.656 5.657 5.656 5.656a2.155 2.155 0 01-3.045 3.046L198 40.046l-5.657 5.657c-.42.42-.971.63-1.523.63a2.155 2.155 0 01-1.522-3.677L194.954 37l-5.657-5.656a2.154 2.154 0 013.046-3.046L198 33.954l5.656-5.656a2.155 2.155 0 013.046 3.046z" fill="#fff"/>
  </g>
  <path d="M180.454 94.234c2.628 0 4.464-1.404 4.464-3.708 0-2.502-2.106-3.15-4.194-3.816-1.836-.576-2.538-.99-2.538-1.962 0-.954.774-1.566 1.98-1.566 1.404 0 2.196.756 2.646 1.764l1.746-1.008c-.792-1.674-2.322-2.772-4.392-2.772-2.124 0-4.05 1.314-4.05 3.636 0 2.376 1.908 3.096 3.87 3.69 1.872.576 2.862.954 2.862 2.07 0 .918-.702 1.656-2.34 1.656-1.71 0-2.682-.846-3.132-2.124l-1.782 1.044c.666 1.872 2.376 3.096 4.86 3.096zm10.873-9.468c-1.224 0-2.196.45-2.79 1.386V81.4h-1.944V94h1.944v-4.824c0-1.836 1.008-2.592 2.286-2.592 1.224 0 2.016.72 2.016 2.088V94h1.944v-5.526c0-2.34-1.44-3.708-3.456-3.708zm9.797 9.468c2.646 0 4.752-2.07 4.752-4.734 0-2.682-2.106-4.734-4.752-4.734-2.628 0-4.752 2.052-4.752 4.734 0 2.664 2.124 4.734 4.752 4.734zm0-1.89c-1.584 0-2.808-1.206-2.808-2.844s1.224-2.844 2.808-2.844c1.584 0 2.808 1.206 2.808 2.844s-1.224 2.844-2.808 2.844zm8.454-5.832V85h-1.944v9h1.944v-4.536c0-2.016 1.494-2.61 2.772-2.52v-2.106c-1.134 0-2.232.45-2.772 1.674zm9.459.36V85h-2.232v-2.52l-1.944.576V85h-1.656v1.872h1.656v4.32c0 2.34 1.188 3.168 4.176 2.808v-1.746c-1.476.072-2.232.09-2.232-1.062v-4.32h2.232z" fill="#1A1A1A"/>
  <circle cx="304" cy="37" r="21" fill="#D57F07"/>
  <g clip-path="url(#loblaw-ph_transaction_icons__clip2)" fill="#fff">
    <path d="M316.29 25.76a1.007 1.007 0 00-.738-.31c-.284 0-.53.103-.738.31l-2.133 2.118a12.704 12.704 0 00-4.019-2.568 12.387 12.387 0 00-4.66-.91c-3.008 0-5.633.91-7.875 2.731-2.243 1.821-3.719 4.197-4.43 7.129v.114c0 .142.052.266.156.37a.504.504 0 00.369.155h3.265c.24 0 .404-.126.492-.377.459-1.094.749-1.733.87-1.92a8.265 8.265 0 013.051-2.936 8.256 8.256 0 014.102-1.067c2.198 0 4.107.75 5.726 2.248l-2.265 2.264a1.012 1.012 0 00-.311.738c0 .285.104.53.311.739.208.207.455.311.739.311h7.35c.284 0 .531-.104.738-.311a1.01 1.01 0 00.312-.739V26.5c0-.284-.103-.53-.312-.738zm-.623 13.34h-3.15c-.241 0-.405.126-.492.378-.46 1.093-.75 1.733-.87 1.919a8.28 8.28 0 01-3.051 2.937 8.253 8.253 0 01-4.102 1.066 8.186 8.186 0 01-3.068-.59 8.467 8.467 0 01-2.641-1.674l2.247-2.248c.208-.207.312-.454.312-.738s-.104-.53-.312-.738a1.006 1.006 0 00-.738-.312h-7.35a1.01 1.01 0 00-.739.312 1.011 1.011 0 00-.311.738v7.35c0 .284.104.53.312.738.208.208.454.312.738.312s.53-.104.738-.312l2.117-2.116a12.525 12.525 0 003.995 2.576c1.493.601 3.038.902 4.634.902 2.998 0 5.612-.91 7.843-2.732 2.231-1.82 3.697-4.197 4.397-7.128a.505.505 0 00-.14-.484.506.506 0 00-.369-.156z"/>
  </g>
  <path d="M292.454 94.234c2.628 0 4.464-1.404 4.464-3.708 0-2.502-2.106-3.15-4.194-3.816-1.836-.576-2.538-.99-2.538-1.962 0-.954.774-1.566 1.98-1.566 1.404 0 2.196.756 2.646 1.764l1.746-1.008c-.792-1.674-2.322-2.772-4.392-2.772-2.124 0-4.05 1.314-4.05 3.636 0 2.376 1.908 3.096 3.87 3.69 1.872.576 2.862.954 2.862 2.07 0 .918-.702 1.656-2.34 1.656-1.71 0-2.682-.846-3.132-2.124l-1.782 1.044c.666 1.872 2.376 3.096 4.86 3.096zM304.659 85v4.824c0 1.836-1.008 2.592-2.286 2.592-1.224 0-2.016-.72-2.016-2.088V85h-1.944v5.526c0 2.34 1.44 3.708 3.456 3.708 1.224 0 2.196-.45 2.79-1.386V94h1.944v-9h-1.944zm9.311-.234c-1.404 0-2.466.576-3.15 1.512V81.4h-1.944V94h1.944v-1.296c.684.954 1.746 1.53 3.15 1.53 2.448 0 4.482-2.07 4.482-4.734 0-2.682-2.034-4.734-4.482-4.734zm-.306 7.614c-1.62 0-2.844-1.206-2.844-2.88s1.224-2.88 2.844-2.88c1.62 0 2.844 1.206 2.844 2.88s-1.224 2.88-2.844 2.88z" fill="#1A1A1A"/>
  <circle cx="409" cy="37" r="21" fill="#467E1B"/>
  <g clip-path="url(#loblaw-ph_transaction_icons__clip3)">
    <path d="M409.533 45.62a3.437 3.437 0 01-5.321.26l-6.194-6.873a2.662 2.662 0 113.954-3.564l4.383 4.864a.323.323 0 00.5-.025l9.008-12.217a2.661 2.661 0 114.284 3.159l-10.614 14.395z" fill="#fff"/>
  </g>
  <path d="M391.33 92.02V81.4h-2.07V94h7.2v-1.98h-5.13zm10.507 2.214c2.646 0 4.752-2.07 4.752-4.734 0-2.682-2.106-4.734-4.752-4.734-2.628 0-4.752 2.052-4.752 4.734 0 2.664 2.124 4.734 4.752 4.734zm0-1.89c-1.584 0-2.808-1.206-2.808-2.844s1.224-2.844 2.808-2.844c1.584 0 2.808 1.206 2.808 2.844s-1.224 2.844-2.808 2.844zM415.475 85v1.278c-.684-.936-1.746-1.512-3.15-1.512-2.448 0-4.482 2.052-4.482 4.734 0 2.664 2.034 4.734 4.482 4.734 1.404 0 2.466-.576 3.15-1.53V94h1.944v-9h-1.944zm-2.844 7.38c-1.62 0-2.844-1.206-2.844-2.88s1.224-2.88 2.844-2.88c1.62 0 2.844 1.206 2.844 2.88s-1.224 2.88-2.844 2.88zm14.182-10.98v4.878c-.684-.936-1.746-1.512-3.15-1.512-2.448 0-4.482 2.052-4.482 4.734 0 2.664 2.034 4.734 4.482 4.734 1.404 0 2.466-.576 3.15-1.53V94h1.944V81.4h-1.944zm-2.844 10.98c-1.62 0-2.844-1.206-2.844-2.88s1.224-2.88 2.844-2.88c1.62 0 2.844 1.206 2.844 2.88s-1.224 2.88-2.844 2.88z" fill="#1A1A1A"/>
  <defs>
    <clipPath id="loblaw-ph_transaction_icons__clip0">
      <path fill="#fff" transform="rotate(-45 88.23 -70.747)" d="M0 0h28v28H0z"/>
    </clipPath>
    <clipPath id="loblaw-ph_transaction_icons__clip1">
      <path fill="#fff" transform="translate(188.667 27.667)" d="M0 0h18.667v18.667H0z"/>
    </clipPath>
    <clipPath id="loblaw-ph_transaction_icons__clip2">
      <path fill="#fff" transform="translate(291.4 24.4)" d="M0 0h25.2v25.2H0z"/>
    </clipPath>
    <clipPath id="loblaw-ph_transaction_icons__clip3">
      <path fill="#fff" transform="translate(397.333 25.333)" d="M0 0h23.333v23.333H0z"/>
    </clipPath>
  </defs>
</svg>
