<svg width="1065" height="288" fill="none" xmlns="http://www.w3.org/2000/svg">
  <g clip-path="url(#ph_item_cards__clip0)">
    <path fill="#fff" d="M14 44h452v100H14z"/>
    <path d="M42.256 77.086L46.512 82h-2.268l-3.556-4.116V82h-1.792v-9.408h1.792v3.892l3.332-3.892h2.268l-4.032 4.494zm7.168-.56a2.43 2.43 0 011.12-1.19c.523-.29 1.12-.457 1.792-.504v2.114a2.526 2.526 0 00-1.344 0 2.188 2.188 0 00-1.106.742c-.308.364-.462.83-.462 1.4V82h-1.792v-6.944h1.792v1.47zm5.906-2.716c-.233.233-.523.35-.868.35s-.64-.117-.882-.35a1.226 1.226 0 01-.35-.882c0-.345.117-.635.35-.868.243-.243.537-.364.882-.364s.635.121.868.364c.243.233.364.523.364.868s-.121.64-.364.882zM53.566 82v-6.944h1.792V82h-1.792zm7.365-7.168c.812 0 1.446.266 1.904.798.466.532.7 1.311.7 2.338V82h-1.792v-3.808c0-.541-.108-.938-.322-1.19-.215-.252-.556-.378-1.022-.378-.448 0-.822.15-1.12.448-.3.299-.448.747-.448 1.344V82h-1.792v-6.944h1.792v.672c.504-.597 1.204-.896 2.1-.896zm4.804 1.078c.719-.719 1.591-1.078 2.618-1.078s1.9.36 2.618 1.078c.719.719 1.078 1.591 1.078 2.618s-.36 1.9-1.078 2.618c-.719.719-1.591 1.078-2.618 1.078s-1.9-.36-2.618-1.078c-.719-.719-1.078-1.591-1.078-2.618s.36-1.9 1.078-2.618zm1.274 3.962c.373.373.821.56 1.344.56.523 0 .97-.187 1.344-.56.373-.373.56-.821.56-1.344 0-.523-.187-.97-.56-1.344a1.833 1.833 0 00-1.344-.56c-.523 0-.97.187-1.344.56-.373.373-.56.821-.56 1.344 0 .523.187.97.56 1.344zm9.42-2.296c1.072.168 1.805.443 2.197.826.392.383.588.835.588 1.358 0 .728-.275 1.32-.826 1.778-.541.457-1.283.686-2.226.686-.728 0-1.386-.112-1.974-.336-.579-.224-.994-.448-1.246-.672l.588-1.68c.299.28.677.513 1.134.7a4 4 0 001.33.28c.952.019 1.428-.182 1.428-.602 0-.15-.088-.261-.266-.336-.168-.075-.49-.154-.966-.238a9.23 9.23 0 01-1.568-.378c-.41-.159-.719-.34-.924-.546a1.78 1.78 0 01-.42-.658 2.535 2.535 0 01-.112-.798c0-.579.285-1.078.854-1.498.57-.42 1.297-.63 2.184-.63a5.82 5.82 0 012.702.672l-.504 1.624c-.196-.14-.504-.27-.924-.392a4.96 4.96 0 00-1.274-.196c-.83-.019-1.246.121-1.246.42 0 .233.28.401.84.504.084.019.22.042.406.07l.224.042zM86.598 82h-1.793v-9.408h5.824v1.792h-4.032V76.4h3.36v1.792h-3.36V82zm7.163-5.474a2.43 2.43 0 011.12-1.19c.523-.29 1.12-.457 1.792-.504v2.114a2.526 2.526 0 00-1.344 0c-.43.121-.798.369-1.106.742-.308.364-.462.83-.462 1.4V82H91.97v-6.944h1.792v1.47zm5.906-2.716c-.234.233-.523.35-.868.35-.346 0-.64-.117-.882-.35a1.226 1.226 0 01-.35-.882c0-.345.117-.635.35-.868.242-.243.536-.364.882-.364.345 0 .635.121.868.364.242.233.364.523.364.868s-.121.64-.364.882zM97.904 82v-6.944h1.792V82h-1.792zm3.472-9.856h1.792V82h-1.792v-9.856zm3.473 0h1.792V82h-1.792v-9.856zm3.993 3.766c.719-.719 1.592-1.078 2.618-1.078 1.027 0 1.9.36 2.618 1.078.719.719 1.078 1.591 1.078 2.618s-.359 1.9-1.078 2.618c-.718.719-1.591 1.078-2.618 1.078-1.026 0-1.899-.36-2.618-1.078-.718-.719-1.078-1.591-1.078-2.618s.36-1.9 1.078-2.618zm1.274 3.962c.374.373.822.56 1.344.56.523 0 .971-.187 1.344-.56a1.83 1.83 0 00.56-1.344c0-.523-.186-.97-.56-1.344a1.832 1.832 0 00-1.344-.56c-.522 0-.97.187-1.344.56-.373.373-.56.821-.56 1.344 0 .523.187.97.56 1.344zm10.186-7.28h6.72v1.792h-2.464V82h-1.792v-7.616h-2.464v-1.792zm15.791 2.464h2.016L135.757 82h-1.624l-1.288-3.808L131.557 82h-1.624l-2.352-6.944h2.016l1.232 4.48 1.344-4.48h1.344l1.344 4.48 1.232-4.48zm4.672-1.246c-.233.233-.522.35-.868.35-.345 0-.639-.117-.882-.35a1.227 1.227 0 01-.35-.882c0-.345.117-.635.35-.868.243-.243.537-.364.882-.364.346 0 .635.121.868.364.243.233.364.523.364.868a1.2 1.2 0 01-.364.882zM139.001 82v-6.944h1.792V82h-1.792zm6.511-4.424c1.073.168 1.806.443 2.198.826.392.383.588.835.588 1.358 0 .728-.275 1.32-.826 1.778-.541.457-1.283.686-2.226.686-.728 0-1.386-.112-1.974-.336-.579-.224-.994-.448-1.246-.672l.588-1.68c.299.28.677.513 1.134.7.467.177.91.27 1.33.28.952.019 1.428-.182 1.428-.602 0-.15-.089-.261-.266-.336-.168-.075-.49-.154-.966-.238a9.236 9.236 0 01-1.568-.378c-.411-.159-.719-.34-.924-.546a1.788 1.788 0 01-.42-.658 2.523 2.523 0 01-.112-.798c0-.579.285-1.078.854-1.498.569-.42 1.297-.63 2.184-.63a5.82 5.82 0 012.702.672l-.504 1.624c-.196-.14-.504-.27-.924-.392a4.963 4.963 0 00-1.274-.196c-.831-.019-1.246.121-1.246.42 0 .233.28.401.84.504.084.019.219.042.406.07l.224.042zm4.574 2.45v-3.402h-.896v-1.568h.896v-2.464h1.792v2.464h1.344v1.568h-1.344v2.912c0 .495.112.803.336.924.234.121.57.112 1.008-.028V82c-.373.15-.812.224-1.316.224-.616 0-1.073-.196-1.372-.588-.298-.401-.448-.938-.448-1.61zm11.093-1.498c0 .13-.009.317-.028.56h-5.054c.131.476.369.859.714 1.148.355.28.803.42 1.344.42a3.5 3.5 0 002.072-.644l.518 1.554a5.874 5.874 0 01-.322.182c-.131.075-.425.173-.882.294a5.386 5.386 0 01-1.414.182c-1.288 0-2.259-.345-2.912-1.036-.653-.69-.98-1.577-.98-2.66 0-1.083.308-1.97.924-2.66.616-.69 1.503-1.036 2.66-1.036 1.083 0 1.913.327 2.492.98.579.644.868 1.55.868 2.716zm-5.04-.784h3.136c0-.336-.14-.644-.42-.924-.271-.28-.653-.42-1.148-.42-.42 0-.789.15-1.106.448-.308.29-.462.588-.462.896zm7.951-1.218c.224-.513.598-.91 1.12-1.19.523-.29 1.12-.457 1.792-.504v2.114a2.526 2.526 0 00-1.344 0 2.188 2.188 0 00-1.106.742c-.308.364-.462.83-.462 1.4V82h-1.792v-6.944h1.792v1.47zm7.289 1.05c1.074.168 1.806.443 2.198.826.392.383.588.835.588 1.358 0 .728-.275 1.32-.826 1.778-.541.457-1.283.686-2.226.686-.728 0-1.386-.112-1.974-.336-.578-.224-.994-.448-1.246-.672l.588-1.68c.299.28.677.513 1.134.7.467.177.91.27 1.33.28.952.019 1.428-.182 1.428-.602 0-.15-.088-.261-.266-.336-.168-.075-.49-.154-.966-.238a9.236 9.236 0 01-1.568-.378c-.41-.159-.718-.34-.924-.546a1.788 1.788 0 01-.42-.658 2.552 2.552 0 01-.112-.798c0-.579.285-1.078.854-1.498.57-.42 1.298-.63 2.184-.63.934 0 1.834.224 2.702.672l-.504 1.624c-.196-.14-.504-.27-.924-.392a4.956 4.956 0 00-1.274-.196c-.83-.019-1.246.121-1.246.42 0 .233.28.401.84.504.084.019.22.042.406.07l.224.042zm3.678 5.992l.784-3.36h2.016l-1.68 3.36h-1.12zm12.208-7.28c.569.093 1.05.2 1.442.322.392.121.761.29 1.106.504.345.205.602.485.77.84.177.345.266.76.266 1.246 0 .877-.331 1.6-.994 2.17-.653.57-1.582.854-2.786.854-1.512 0-2.791-.523-3.836-1.568l.896-1.568c.383.439.849.775 1.4 1.008.551.224 1.073.336 1.568.336.616 0 1.097-.103 1.442-.308.345-.205.518-.476.518-.812 0-.597-.635-.99-1.904-1.176-1.288-.196-2.207-.527-2.758-.994-.551-.476-.826-1.087-.826-1.834 0-.821.322-1.517.966-2.086.644-.57 1.526-.854 2.646-.854 1.213 0 2.287.383 3.22 1.148l-.756 1.54c-.691-.597-1.521-.896-2.492-.896-.523 0-.952.084-1.288.252-.336.159-.504.415-.504.77 0 .308.14.541.42.7.28.159.775.294 1.484.406zm8.854-1.456c.961 0 1.778.364 2.45 1.092.681.719 1.022 1.587 1.022 2.604 0 1.017-.341 1.89-1.022 2.618-.672.719-1.489 1.078-2.45 1.078-.859 0-1.568-.322-2.128-.966v4.326h-1.792V75.056h1.792v.742c.56-.644 1.269-.966 2.128-.966zm-1.568 5.04c.373.373.821.56 1.344.56.522 0 .97-.187 1.344-.56.373-.373.56-.821.56-1.344 0-.523-.187-.97-.56-1.344a1.835 1.835 0 00-1.344-.56c-.523 0-.971.187-1.344.56a1.83 1.83 0 00-.56 1.344c0 .523.186.97.56 1.344zm8.039-6.062a1.18 1.18 0 01-.868.35c-.346 0-.64-.117-.882-.35a1.223 1.223 0 01-.35-.882c0-.345.116-.635.35-.868.242-.243.536-.364.882-.364.345 0 .634.121.868.364.242.233.364.523.364.868s-.122.64-.364.882zM200.826 82v-6.944h1.792V82h-1.792zm7.364-7.168c.812 0 1.447.266 1.904.798.467.532.7 1.311.7 2.338V82h-1.792v-3.808c0-.541-.107-.938-.322-1.19-.214-.252-.555-.378-1.022-.378-.448 0-.821.15-1.12.448-.298.299-.448.747-.448 1.344V82h-1.792v-6.944h1.792v.672c.504-.597 1.204-.896 2.1-.896zm9.327.224h1.792V82h-1.792v-.742c-.56.644-1.27.966-2.128.966-.962 0-1.783-.36-2.464-1.078-.672-.728-1.008-1.6-1.008-2.618 0-1.017.336-1.885 1.008-2.604.681-.728 1.502-1.092 2.464-1.092.858 0 1.568.322 2.128.966v-.742zm-3.248 4.816c.373.373.821.56 1.344.56.522 0 .97-.187 1.344-.56.373-.373.56-.821.56-1.344 0-.523-.187-.97-.56-1.344a1.835 1.835 0 00-1.344-.56c-.523 0-.971.187-1.344.56a1.83 1.83 0 00-.56 1.344c0 .523.186.97.56 1.344zm10.085.56c.654 0 1.19-.21 1.61-.63l.742 1.596c-.569.55-1.372.826-2.408.826-1.185 0-2.128-.35-2.828-1.05-.69-.71-1.036-1.591-1.036-2.646s.35-1.932 1.05-2.632c.7-.71 1.638-1.064 2.814-1.064.99 0 1.792.275 2.408.826l-.742 1.61c-.429-.43-.966-.644-1.61-.644-.644 0-1.162.182-1.554.546a1.8 1.8 0 00-.574 1.358c0 .541.192.994.574 1.358.392.364.91.546 1.554.546zm7.475-5.6c.812 0 1.447.266 1.904.798.467.532.7 1.311.7 2.338V82h-1.792v-3.808c0-.541-.107-.938-.322-1.19-.215-.252-.555-.378-1.022-.378-.448 0-.821.15-1.12.448-.299.299-.448.747-.448 1.344V82h-1.792v-9.856h1.792v3.584c.504-.597 1.204-.896 2.1-.896zm13.578.224h1.792V82h-1.792v-.742c-.56.644-1.269.966-2.128.966-.961 0-1.782-.36-2.464-1.078-.672-.728-1.008-1.6-1.008-2.618 0-1.017.336-1.885 1.008-2.604.682-.728 1.503-1.092 2.464-1.092.859 0 1.568.322 2.128.966v-.742zm-3.248 4.816c.374.373.822.56 1.344.56.523 0 .971-.187 1.344-.56a1.83 1.83 0 00.56-1.344c0-.523-.186-.97-.56-1.344a1.832 1.832 0 00-1.344-.56c-.522 0-.97.187-1.344.56-.373.373-.56.821-.56 1.344 0 .523.187.97.56 1.344zm10.615-5.04c.812 0 1.447.266 1.904.798.467.532.7 1.311.7 2.338V82h-1.792v-3.808c0-.541-.107-.938-.322-1.19-.214-.252-.555-.378-1.022-.378-.448 0-.821.15-1.12.448-.298.299-.448.747-.448 1.344V82h-1.792v-6.944h1.792v.672c.504-.597 1.204-.896 2.1-.896zm7.199 0c.858 0 1.568.322 2.128.966v-3.654h1.792V82h-1.792v-.742c-.56.644-1.27.966-2.128.966-.962 0-1.783-.36-2.464-1.078-.672-.728-1.008-1.6-1.008-2.618 0-1.017.336-1.885 1.008-2.604.681-.728 1.502-1.092 2.464-1.092zm-1.12 5.04c.373.373.821.56 1.344.56.522 0 .97-.187 1.344-.56.373-.373.56-.821.56-1.344 0-.523-.187-.97-.56-1.344a1.835 1.835 0 00-1.344-.56c-.523 0-.971.187-1.344.56a1.83 1.83 0 00-.56 1.344c0 .523.186.97.56 1.344zM271.729 82h-1.792v-9.408h5.824v1.792h-4.032V76.4h3.36v1.792h-3.36V82zm11.649-3.472c0 .13-.009.317-.028.56h-5.054c.131.476.369.859.714 1.148.355.28.803.42 1.344.42.775 0 1.466-.215 2.072-.644l.518 1.554a5.514 5.514 0 01-.322.182c-.13.075-.424.173-.882.294a5.386 5.386 0 01-1.414.182c-1.288 0-2.258-.345-2.912-1.036-.653-.69-.98-1.577-.98-2.66 0-1.083.308-1.97.924-2.66.616-.69 1.503-1.036 2.66-1.036 1.083 0 1.914.327 2.492.98.579.644.868 1.55.868 2.716zm-5.04-.784h3.136c0-.336-.14-.644-.42-.924-.27-.28-.653-.42-1.148-.42-.42 0-.788.15-1.106.448-.308.29-.462.588-.462.896zm6.608 2.282v-3.402h-.896v-1.568h.896v-2.464h1.792v2.464h1.344v1.568h-1.344v2.912c0 .495.112.803.336.924.233.121.569.112 1.008-.028V82c-.374.15-.812.224-1.316.224-.616 0-1.074-.196-1.372-.588-.299-.401-.448-.938-.448-1.61zm9.858-4.97h1.792V82h-1.792v-.742c-.56.644-1.269.966-2.128.966-.961 0-1.783-.36-2.464-1.078-.672-.728-1.008-1.6-1.008-2.618 0-1.017.336-1.885 1.008-2.604.681-.728 1.503-1.092 2.464-1.092.859 0 1.568.322 2.128.966v-.742zm-3.248 4.816c.373.373.821.56 1.344.56.523 0 .971-.187 1.344-.56.373-.373.56-.821.56-1.344 0-.523-.187-.97-.56-1.344a1.832 1.832 0 00-1.344-.56c-.523 0-.971.187-1.344.56-.373.373-.56.821-.56 1.344 0 .523.187.97.56 1.344zm15.676.56c.933 0 1.713-.322 2.338-.966l.686 1.624a4.337 4.337 0 01-1.414.84 4.863 4.863 0 01-1.638.294c-1.381 0-2.562-.48-3.542-1.442-.98-.97-1.47-2.133-1.47-3.486 0-1.353.49-2.51 1.47-3.472.98-.97 2.161-1.456 3.542-1.456.541 0 1.087.098 1.638.294a4.153 4.153 0 011.414.826l-.686 1.624a3.239 3.239 0 00-2.338-.952c-.896 0-1.661.308-2.296.924-.635.607-.952 1.344-.952 2.212 0 .868.317 1.61.952 2.226.635.607 1.4.91 2.296.91zm8.255-5.6c.812 0 1.447.266 1.904.798.467.532.7 1.311.7 2.338V82h-1.792v-3.808c0-.541-.107-.938-.322-1.19-.214-.252-.555-.378-1.022-.378-.448 0-.821.15-1.12.448-.298.299-.448.747-.448 1.344V82h-1.792v-9.856h1.792v3.584c.504-.597 1.204-.896 2.1-.896zm10.671 3.696c0 .13-.01.317-.028.56h-5.054c.13.476.368.859.714 1.148.354.28.802.42 1.344.42a3.5 3.5 0 002.072-.644l.518 1.554a5.874 5.874 0 01-.322.182c-.131.075-.425.173-.882.294-.448.121-.92.182-1.414.182-1.288 0-2.259-.345-2.912-1.036-.654-.69-.98-1.577-.98-2.66 0-1.083.308-1.97.924-2.66.616-.69 1.502-1.036 2.66-1.036 1.082 0 1.913.327 2.492.98.578.644.868 1.55.868 2.716zm-5.04-.784h3.136c0-.336-.14-.644-.42-.924-.271-.28-.654-.42-1.148-.42-.42 0-.789.15-1.106.448-.308.29-.462.588-.462.896zm12.874.784c0 .13-.01.317-.028.56h-5.054c.13.476.368.859.714 1.148.354.28.802.42 1.344.42a3.5 3.5 0 002.072-.644l.518 1.554a5.874 5.874 0 01-.322.182c-.131.075-.425.173-.882.294-.448.121-.92.182-1.414.182-1.288 0-2.259-.345-2.912-1.036-.654-.69-.98-1.577-.98-2.66 0-1.083.308-1.97.924-2.66.616-.69 1.502-1.036 2.66-1.036 1.082 0 1.913.327 2.492.98.578.644.868 1.55.868 2.716zm-5.04-.784h3.136c0-.336-.14-.644-.42-.924-.271-.28-.654-.42-1.148-.42-.42 0-.789.15-1.106.448-.308.29-.462.588-.462.896zm9.416-.168c1.073.168 1.806.443 2.198.826.392.383.588.835.588 1.358 0 .728-.276 1.32-.826 1.778-.542.457-1.284.686-2.226.686-.728 0-1.386-.112-1.974-.336-.579-.224-.994-.448-1.246-.672l.588-1.68c.298.28.676.513 1.134.7.466.177.91.27 1.33.28.952.019 1.428-.182 1.428-.602 0-.15-.089-.261-.266-.336-.168-.075-.49-.154-.966-.238a9.213 9.213 0 01-1.568-.378c-.411-.159-.719-.34-.924-.546a1.763 1.763 0 01-.42-.658 2.523 2.523 0 01-.112-.798c0-.579.284-1.078.854-1.498.569-.42 1.297-.63 2.184-.63a5.82 5.82 0 012.702.672l-.504 1.624c-.196-.14-.504-.27-.924-.392a4.963 4.963 0 00-1.274-.196c-.831-.019-1.246.121-1.246.42 0 .233.28.401.84.504.084.019.219.042.406.07l.224.042zm10.512.952c0 .13-.009.317-.028.56h-5.054c.131.476.369.859.714 1.148.355.28.803.42 1.344.42.775 0 1.466-.215 2.072-.644l.518 1.554a5.514 5.514 0 01-.322.182c-.13.075-.424.173-.882.294a5.386 5.386 0 01-1.414.182c-1.288 0-2.258-.345-2.912-1.036-.653-.69-.98-1.577-.98-2.66 0-1.083.308-1.97.924-2.66.616-.69 1.503-1.036 2.66-1.036 1.083 0 1.914.327 2.492.98.579.644.868 1.55.868 2.716zm-5.04-.784h3.136c0-.336-.14-.644-.42-.924-.27-.28-.653-.42-1.148-.42-.42 0-.788.15-1.106.448-.308.29-.462.588-.462.896zm13.99-5.824c-1.194 1.81-1.792 3.752-1.792 5.824s.598 4.013 1.792 5.824l-1.792.672c-1.194-2.165-1.792-4.33-1.792-6.496 0-2.165.598-4.33 1.792-6.496l1.792.672zm7.279 4.802c.822.597 1.232 1.386 1.232 2.366 0 .915-.359 1.666-1.078 2.254-.709.588-1.582.882-2.618.882-1.036 0-1.913-.294-2.632-.882-.709-.588-1.064-1.34-1.064-2.254 0-.961.406-1.75 1.218-2.366a2.098 2.098 0 01-.77-1.666c0-.765.313-1.405.938-1.918.635-.513 1.405-.77 2.31-.77.896 0 1.657.257 2.282.77.635.513.952 1.153.952 1.918 0 .653-.256 1.209-.77 1.666zm-1.442-2.268c-.28-.196-.62-.294-1.022-.294-.401 0-.746.098-1.036.294-.28.196-.42.434-.42.714 0 .28.14.518.42.714.29.196.635.294 1.036.294.402 0 .742-.098 1.022-.294.29-.196.434-.434.434-.714 0-.28-.144-.518-.434-.714zm-2.366 5.558c.374.28.822.42 1.344.42.523 0 .971-.14 1.344-.42.374-.29.56-.635.56-1.036s-.186-.742-.56-1.022c-.373-.29-.821-.434-1.344-.434-.522 0-.97.145-1.344.434-.373.28-.56.62-.56 1.022 0 .401.187.747.56 1.036zm12.881-1.596h1.12v1.792h-1.12V82h-1.792v-1.792h-4.704V78.64l4.256-6.048h2.24v5.824zm-1.792 0V74.72l-2.506 3.696h2.506zm5.287-4.62c.69-.952 1.577-1.428 2.66-1.428 1.082 0 1.969.476 2.66 1.428.69.952 1.036 2.119 1.036 3.5 0 1.381-.346 2.548-1.036 3.5-.691.952-1.578 1.428-2.66 1.428-1.092 0-1.984-.471-2.674-1.414-.682-.952-1.022-2.123-1.022-3.514 0-1.381.345-2.548 1.036-3.5zm1.316 5.726c.373.607.821.91 1.344.91.522 0 .97-.303 1.344-.91.373-.616.56-1.358.56-2.226 0-.868-.187-1.605-.56-2.212-.374-.616-.822-.924-1.344-.924-.523 0-.971.308-1.344.924-.374.607-.56 1.344-.56 2.212 0 .868.186 1.61.56 2.226zm11.76-4.466h1.792v6.272c0 1.456-.331 2.567-.994 3.332-.653.765-1.591 1.148-2.814 1.148a5.4 5.4 0 01-1.288-.154 4.278 4.278 0 01-1.078-.378 6.56 6.56 0 01-.658-.364 3.47 3.47 0 01-.336-.224l.84-1.582c.261.224.616.43 1.064.616.448.196.933.294 1.456.294.607 0 1.092-.205 1.456-.616.373-.401.56-.915.56-1.54v-.602c-.56.644-1.269.966-2.128.966-.961 0-1.783-.36-2.464-1.078-.672-.728-1.008-1.6-1.008-2.618 0-1.017.336-1.885 1.008-2.604.681-.728 1.503-1.092 2.464-1.092.859 0 1.568.322 2.128.966v-.742zm-3.248 4.816c.373.373.821.56 1.344.56.523 0 .971-.187 1.344-.56.373-.373.56-.821.56-1.344 0-.523-.187-.97-.56-1.344a1.832 1.832 0 00-1.344-.56c-.523 0-.971.187-1.344.56-.373.373-.56.821-.56 1.344 0 .523.187.97.56 1.344zm6.384-7.952l1.792-.672c1.195 2.165 1.792 4.33 1.792 6.496 0 2.165-.597 4.33-1.792 6.496l-1.792-.672c1.195-1.81 1.792-3.752 1.792-5.824s-.597-4.013-1.792-5.824z" fill="#000"/>
    <path d="M39.75 103.88c.653-.933 1.489-1.4 2.506-1.4 1.017 0 1.848.467 2.492 1.4.653.924.98 2.063.98 3.416 0 1.353-.327 2.497-.98 3.43-.644.924-1.475 1.386-2.492 1.386-1.027 0-1.862-.462-2.506-1.386-.644-.933-.966-2.077-.966-3.43 0-1.353.322-2.492.966-3.416zm.994 5.88c.42.672.924 1.008 1.512 1.008s1.087-.336 1.498-1.008c.42-.681.63-1.503.63-2.464 0-.961-.21-1.778-.63-2.45-.41-.681-.91-1.022-1.498-1.022s-1.092.341-1.512 1.022c-.41.672-.616 1.489-.616 2.45 0 .961.205 1.783.616 2.464zm10.296-4.34c.942 0 1.712.313 2.31.938.597.616.896 1.353.896 2.212 0 1.045-.327 1.899-.98 2.562-.644.653-1.475.98-2.492.98-1.027 0-1.862-.331-2.506-.994-.644-.663-.966-1.545-.966-2.646 0-1.045.275-2.109.826-3.192.55-1.092 1.372-1.988 2.464-2.688h2.38a2.173 2.173 0 00-.28.112c-.122.047-.35.163-.686.35a7.093 7.093 0 00-.952.602c-.29.224-.607.532-.952.924a5.459 5.459 0 00-.826 1.246c.485-.271 1.073-.406 1.764-.406zm-1.792 4.76c.4.392.91.588 1.526.588s1.124-.196 1.526-.588c.4-.392.602-.873.602-1.442s-.196-1.041-.588-1.414c-.383-.373-.896-.56-1.54-.56-.616 0-1.125.191-1.526.574a1.83 1.83 0 00-.602 1.4c0 .569.2 1.05.602 1.442zm7.58-2.996a.972.972 0 01-.715-.294.972.972 0 01-.294-.714c0-.289.098-.527.294-.714a.972.972 0 01.714-.294c.29 0 .528.098.714.294a.944.944 0 01.294.714c0 .28-.098.518-.294.714a.943.943 0 01-.714.294zm0 4.928a.972.972 0 01-.715-.294.972.972 0 01-.294-.714c0-.28.098-.518.294-.714a.972.972 0 01.714-.294c.29 0 .528.098.714.294a.972.972 0 01.294.714c0 .28-.098.518-.294.714a.943.943 0 01-.714.294zm3.54-8.232c.652-.933 1.488-1.4 2.505-1.4 1.018 0 1.848.467 2.492 1.4.654.924.98 2.063.98 3.416 0 1.353-.326 2.497-.98 3.43-.644.924-1.474 1.386-2.492 1.386-1.026 0-1.862-.462-2.506-1.386-.644-.933-.966-2.077-.966-3.43 0-1.353.322-2.492.966-3.416zm.993 5.88c.42.672.924 1.008 1.512 1.008s1.088-.336 1.498-1.008c.42-.681.63-1.503.63-2.464 0-.961-.21-1.778-.63-2.45-.41-.681-.91-1.022-1.498-1.022s-1.092.341-1.512 1.022c-.41.672-.616 1.489-.616 2.45 0 .961.206 1.783.616 2.464zm12.382-.672h1.12v1.344h-1.12V112h-1.344v-1.568H67.47l6.272-8.064v6.72zm-1.344 0v-3.108l-2.268 3.108h2.268zm7.845-3.92c.971 0 1.774.336 2.408 1.008.635.672.952 1.493.952 2.464 0 .971-.317 1.792-.952 2.464-.634.672-1.437 1.008-2.408 1.008-.933 0-1.68-.364-2.24-1.092v4.564H76.66V105.28h1.344v.98c.56-.728 1.307-1.092 2.24-1.092zm-1.624 4.984c.42.411.924.616 1.512.616s1.088-.205 1.498-.616c.42-.42.63-.924.63-1.512s-.21-1.087-.63-1.498c-.41-.42-.91-.63-1.498-.63s-1.092.21-1.512.63a2.04 2.04 0 00-.616 1.498c0 .588.206 1.092.616 1.512zm13.924-4.984c.747 0 1.33.266 1.75.798.42.532.63 1.293.63 2.282V112H93.58v-3.752c0-1.157-.429-1.736-1.287-1.736-.43 0-.808.163-1.135.49-.326.327-.49.761-.49 1.302V112h-1.344v-3.752c0-1.157-.429-1.736-1.287-1.736-.43 0-.808.163-1.135.49-.326.327-.49.761-.49 1.302V112h-1.344v-6.72h1.344v.784c.168-.187.313-.331.434-.434.122-.112.308-.215.56-.308.262-.103.556-.154.882-.154.878 0 1.522.355 1.933 1.064.354-.383.709-.653 1.063-.812.364-.168.784-.252 1.26-.252zm12.241 3.696h-3.808v-1.12h3.808v1.12zm9.62-2.352c1.166.224 2.02.546 2.562.966.541.411.812.999.812 1.764 0 .84-.322 1.531-.966 2.072-.644.532-1.508.798-2.59.798a5.462 5.462 0 01-1.484-.196 4.376 4.376 0 01-1.148-.518 7.922 7.922 0 01-.658-.49 2.547 2.547 0 01-.322-.322l.672-1.204c.83.924 1.82 1.386 2.968 1.386.7 0 1.236-.131 1.61-.392.382-.261.574-.621.574-1.078 0-.709-.714-1.19-2.142-1.442-1.242-.215-2.114-.537-2.618-.966-.495-.439-.742-.999-.742-1.68 0-.793.298-1.447.896-1.96.597-.513 1.428-.77 2.492-.77 1.222 0 2.235.373 3.038 1.12l-.644 1.218c-.682-.663-1.489-.994-2.422-.994-.644 0-1.144.117-1.498.35-.346.233-.518.56-.518.98 0 .355.163.635.49.84.326.196.872.369 1.638.518zm5.387 3.29v-3.178h-.896v-1.344h.896v-2.688h1.344v2.688h1.344v1.344h-1.344v2.8c0 .644.089 1.031.266 1.162.271.205.63.196 1.078-.028v1.358c-.271.131-.602.196-.994.196-1.129 0-1.694-.77-1.694-2.31zm9.626-4.522h1.344V112h-1.344v-.98c-.56.728-1.307 1.092-2.24 1.092-.971 0-1.774-.336-2.408-1.008-.635-.672-.952-1.493-.952-2.464 0-.971.317-1.792.952-2.464.634-.672 1.437-1.008 2.408-1.008.933 0 1.68.364 2.24 1.092v-.98zm-3.64 4.872c.42.411.924.616 1.512.616s1.087-.205 1.498-.616c.42-.42.63-.924.63-1.512s-.21-1.087-.63-1.498c-.411-.42-.91-.63-1.498-.63s-1.092.21-1.512.63c-.411.411-.616.91-.616 1.498s.205 1.092.616 1.512zm11.939-4.872h1.344v6.3c0 1.363-.322 2.389-.966 3.08-.635.691-1.508 1.036-2.618 1.036-1.12 0-2.166-.373-3.136-1.12l.672-1.204c.261.196.476.35.644.462.168.112.42.224.756.336.345.121.7.182 1.064.182.7 0 1.246-.224 1.638-.672.401-.448.602-1.083.602-1.904v-.756c-.56.728-1.307 1.092-2.24 1.092-.971 0-1.774-.336-2.408-1.008-.635-.672-.952-1.493-.952-2.464 0-.971.317-1.792.952-2.464.634-.672 1.437-1.008 2.408-1.008.933 0 1.68.364 2.24 1.092v-.98zm-3.64 4.872c.42.411.924.616 1.512.616s1.087-.205 1.498-.616c.42-.42.63-.924.63-1.512s-.21-1.087-.63-1.498c-.411-.42-.91-.63-1.498-.63s-1.092.21-1.512.63c-.411.411-.616.91-.616 1.498s.205 1.092.616 1.512zm12.834-1.484c0 .205-.014.401-.042.588h-5.082c.103.504.35.882.742 1.134.402.252.882.378 1.442.378.728 0 1.41-.224 2.044-.672l.448 1.204c-.644.541-1.484.812-2.52.812-1.129 0-2.002-.327-2.618-.98-.606-.663-.91-1.493-.91-2.492 0-.989.304-1.815.91-2.478.616-.663 1.428-.994 2.436-.994.915 0 1.666.317 2.254.952.598.635.896 1.484.896 2.548zm-5.124-.644h3.752c-.018-.383-.182-.728-.49-1.036-.308-.317-.756-.476-1.344-.476-.569 0-1.026.159-1.372.476-.345.317-.527.663-.546 1.036zm11.844-5.88h1.344V112h-1.344v-.98c-.56.728-1.307 1.092-2.24 1.092-.971 0-1.774-.336-2.408-1.008-.635-.672-.952-1.493-.952-2.464 0-.971.317-1.792.952-2.464.634-.672 1.437-1.008 2.408-1.008.933 0 1.68.364 2.24 1.092v-4.116zm-3.64 8.008c.42.411.924.616 1.512.616s1.087-.205 1.498-.616c.42-.42.63-.924.63-1.512s-.21-1.087-.63-1.498c-.411-.42-.91-.63-1.498-.63s-1.092.21-1.512.63c-.411.411-.616.91-.616 1.498s.205 1.092.616 1.512zm12.876-6.286a.972.972 0 01-.714.294.972.972 0 01-.714-.294.972.972 0 01-.294-.714c0-.28.098-.518.294-.714a.972.972 0 01.714-.294c.28 0 .518.098.714.294a.972.972 0 01.294.714c0 .28-.098.518-.294.714zM161.481 112v-6.72h1.344V112h-1.344zm6.698-6.832c.812 0 1.446.252 1.904.756.466.504.7 1.241.7 2.212V112h-1.344v-3.752c0-.569-.117-.999-.35-1.288-.224-.299-.612-.448-1.162-.448-.448 0-.868.168-1.26.504-.392.327-.588.756-.588 1.288V112h-1.344v-6.72h1.344v.784c.522-.597 1.222-.896 2.1-.896zM183.661 112l-.91-2.016h-4.228l-.91 2.016h-1.456l4.48-9.632 4.48 9.632h-1.456zm-4.522-3.36h2.996l-1.498-3.304-1.498 3.304zm11.917 3.584l-2.996-5.796-.896 5.572h-1.372l1.596-9.632 3.668 7.112 3.668-7.112L196.32 112h-1.372l-.896-5.572-2.996 5.796zm11.761-5.278c.523.121.915.397 1.176.826a2.6 2.6 0 01.392 1.4c0 .831-.275 1.512-.826 2.044-.541.523-1.274.784-2.198.784h-3.472v-9.408h2.814c1.027 0 1.82.21 2.38.63.569.42.854 1.031.854 1.834 0 .457-.107.859-.322 1.204-.215.336-.481.565-.798.686zm-3.584-3.01v2.352h1.68c1.12 0 1.68-.392 1.68-1.176 0-.784-.56-1.176-1.68-1.176h-1.68zm1.904 6.72c.597 0 1.064-.126 1.4-.378.336-.252.504-.63.504-1.134 0-.504-.168-.882-.504-1.134-.336-.252-.803-.378-1.4-.378h-1.904v3.024h1.904zm4.261-8.064h6.272v1.344h-2.464V112h-1.344v-8.064h-2.464v-1.344zm8.586 1.288c.654-.933 1.489-1.4 2.506-1.4 1.018 0 1.848.467 2.492 1.4.654.924.98 2.063.98 3.416 0 1.353-.326 2.497-.98 3.43-.644.924-1.474 1.386-2.492 1.386-1.026 0-1.862-.462-2.506-1.386-.644-.933-.966-2.077-.966-3.43 0-1.353.322-2.492.966-3.416zm.994 5.88c.42.672.924 1.008 1.512 1.008s1.088-.336 1.498-1.008c.42-.681.63-1.503.63-2.464 0-.961-.21-1.778-.63-2.45-.41-.681-.91-1.022-1.498-1.022s-1.092.341-1.512 1.022c-.41.672-.616 1.489-.616 2.45 0 .961.206 1.783.616 2.464zm12.228-2.926c.849.485 1.274 1.241 1.274 2.268 0 .887-.336 1.61-1.008 2.17-.672.56-1.493.84-2.464.84-.971 0-1.792-.28-2.464-.84-.672-.56-1.008-1.283-1.008-2.17 0-1.008.42-1.764 1.26-2.268-.541-.383-.812-.957-.812-1.722 0-.747.289-1.372.868-1.876.588-.504 1.307-.756 2.156-.756.84 0 1.554.252 2.142.756.588.504.882 1.129.882 1.876 0 .747-.275 1.321-.826 1.722zm-1.008-2.646c-.327-.243-.723-.364-1.19-.364-.467 0-.863.121-1.19.364-.327.243-.49.532-.49.868 0 .336.163.625.49.868.327.243.723.364 1.19.364.467 0 .863-.121 1.19-.364.327-.243.49-.532.49-.868 0-.336-.163-.625-.49-.868zm-2.702 6.118c.42.308.924.462 1.512.462s1.087-.154 1.498-.462c.42-.317.63-.705.63-1.162 0-.457-.21-.84-.63-1.148-.411-.317-.91-.476-1.498-.476s-1.092.159-1.512.476c-.411.308-.616.691-.616 1.148 0 .457.205.845.616 1.162zM236.998 112h-1.568l-2.338-3.248h-1.47V112h-1.344v-9.408h2.912c1.185 0 2.076.271 2.674.812.606.541.91 1.274.91 2.198 0 .737-.196 1.381-.588 1.932-.383.541-.92.905-1.61 1.092l2.422 3.374zm-5.376-8.064v3.472h2.002c.532 0 .966-.14 1.302-.42.336-.289.504-.723.504-1.302 0-.588-.168-1.027-.504-1.316-.327-.289-.752-.434-1.274-.434h-2.03zm12.207 0h-4.032v2.688h3.36v1.344h-3.36v2.688h4.032V112h-5.376v-9.408h5.376v1.344zm4.602-1.344c1.512 0 2.688.443 3.528 1.33.85.887 1.274 2.011 1.274 3.374 0 1.353-.429 2.478-1.288 3.374-.858.887-2.03 1.33-3.514 1.33h-2.814v-9.408h2.814zm.35 8.064c.906 0 1.648-.322 2.226-.966.588-.653.882-1.451.882-2.394 0-.943-.294-1.736-.882-2.38-.578-.653-1.32-.98-2.226-.98h-1.82v6.72h1.82zm11.852-8.512v4.116c.56-.728 1.307-1.092 2.24-1.092.971 0 1.774.336 2.408 1.008.635.672.952 1.493.952 2.464 0 .971-.317 1.792-.952 2.464-.634.672-1.437 1.008-2.408 1.008-.933 0-1.68-.364-2.24-1.092v.98h-1.344v-9.856h1.344zm.616 8.008c.42.411.924.616 1.512.616s1.088-.205 1.498-.616c.42-.42.63-.924.63-1.512s-.21-1.087-.63-1.498c-.41-.42-.91-.63-1.498-.63s-1.092.21-1.512.63c-.41.411-.616.91-.616 1.498s.206 1.092.616 1.512zm10.998-4.872h1.498l-4.55 10.304h-1.47l1.792-4.018-2.716-6.286h1.498l1.974 4.648 1.974-4.648zm7.841-1.4c.653-.933 1.489-1.4 2.506-1.4 1.017 0 1.848.467 2.492 1.4.653.924.98 2.063.98 3.416 0 1.353-.327 2.497-.98 3.43-.644.924-1.475 1.386-2.492 1.386-1.027 0-1.862-.462-2.506-1.386-.644-.933-.966-2.077-.966-3.43 0-1.353.322-2.492.966-3.416zm.994 5.88c.42.672.924 1.008 1.512 1.008s1.087-.336 1.498-1.008c.42-.681.63-1.503.63-2.464 0-.961-.21-1.778-.63-2.45-.411-.681-.91-1.022-1.498-1.022s-1.092.341-1.512 1.022c-.411.672-.616 1.489-.616 2.45 0 .961.205 1.783.616 2.464zm10.211-4.032c.822 0 1.536.28 2.142.84.616.551.924 1.302.924 2.254s-.331 1.741-.994 2.366a3.355 3.355 0 01-2.366.924c-.914 0-1.689-.28-2.324-.84-.634-.569-.98-1.26-1.036-2.072l1.4-.14c.047.457.252.859.616 1.204.364.336.812.504 1.344.504.551 0 1.022-.182 1.414-.546.402-.373.602-.826.602-1.358 0-.523-.168-.952-.504-1.288-.336-.336-.77-.504-1.302-.504-.382 0-.76.098-1.134.294a2.141 2.141 0 00-.854.826h-1.372l.84-5.6h4.774v1.344h-3.626l-.364 2.408c.495-.411 1.102-.616 1.82-.616zm7.838 3.444c-.943 0-1.713-.308-2.31-.924a3.11 3.11 0 01-.896-2.226c0-1.045.322-1.895.966-2.548.653-.663 1.488-.994 2.506-.994 1.026 0 1.862.331 2.506.994.644.663.966 1.545.966 2.646 0 1.045-.276 2.114-.826 3.206-.551 1.083-1.372 1.974-2.464 2.674h-2.38c.065-.019.158-.051.28-.098.121-.056.35-.173.686-.35.336-.187.648-.392.938-.616.298-.224.616-.527.952-.91.345-.392.625-.812.84-1.26-.486.271-1.074.406-1.764.406zm1.792-4.76c-.402-.392-.91-.588-1.526-.588s-1.125.196-1.526.588a1.936 1.936 0 00-.602 1.442c0 .569.191 1.041.574 1.414.392.373.91.56 1.554.56.616 0 1.124-.187 1.526-.56.401-.383.602-.854.602-1.414a1.94 1.94 0 00-.602-1.442zm12.675 2.45c.019.168.028.313.028.434 0 1.344-.438 2.483-1.316 3.416-.868.933-1.96 1.4-3.276 1.4-1.325 0-2.459-.471-3.402-1.414-.942-.943-1.414-2.077-1.414-3.402 0-1.325.472-2.459 1.414-3.402.943-.943 2.077-1.414 3.402-1.414.924 0 1.746.238 2.464.714.719.467 1.284 1.106 1.694 1.918l-1.358.392a3.066 3.066 0 00-1.148-1.218 3.016 3.016 0 00-1.652-.462c-.961 0-1.782.341-2.464 1.022-.672.672-1.008 1.489-1.008 2.45 0 .961.336 1.783 1.008 2.464a3.383 3.383 0 002.464 1.008c.831 0 1.526-.238 2.086-.714a3.28 3.28 0 001.078-1.862h-3.5v-1.344l4.9.014zm8.206 5.138h-1.568l-2.338-3.248h-1.47V112h-1.344v-9.408h2.912c1.186 0 2.077.271 2.674.812.607.541.91 1.274.91 2.198 0 .737-.196 1.381-.588 1.932-.382.541-.919.905-1.61 1.092l2.422 3.374zm-5.376-8.064v3.472h2.002c.532 0 .966-.14 1.302-.42.336-.289.504-.723.504-1.302 0-.588-.168-1.027-.504-1.316-.326-.289-.751-.434-1.274-.434h-2.03zm10.858 6.832c.98 0 1.797-.341 2.45-1.022l.574 1.26a4.05 4.05 0 01-1.372.826 4.627 4.627 0 01-1.568.28c-1.353 0-2.511-.471-3.472-1.414-.952-.943-1.428-2.077-1.428-3.402 0-1.325.476-2.459 1.428-3.402.961-.943 2.119-1.414 3.472-1.414.532 0 1.059.093 1.582.28.523.187.975.457 1.358.812l-.574 1.26c-.653-.672-1.47-1.008-2.45-1.008a3.36 3.36 0 00-2.464 1.022c-.672.672-1.008 1.489-1.008 2.45 0 .961.336 1.783 1.008 2.464a3.382 3.382 0 002.464 1.008zm4.587-7.392l2.912-1.008V112h-1.344v-7.896l-1.568.504v-1.232zm5.897.504c.653-.933 1.488-1.4 2.506-1.4 1.017 0 1.848.467 2.492 1.4.653.924.98 2.063.98 3.416 0 1.353-.327 2.497-.98 3.43-.644.924-1.475 1.386-2.492 1.386-1.027 0-1.862-.462-2.506-1.386-.644-.933-.966-2.077-.966-3.43 0-1.353.322-2.492.966-3.416zm.994 5.88c.42.672.924 1.008 1.512 1.008s1.087-.336 1.498-1.008c.42-.681.63-1.503.63-2.464 0-.961-.21-1.778-.63-2.45-.411-.681-.91-1.022-1.498-1.022s-1.092.341-1.512 1.022c-.411.672-.616 1.489-.616 2.45 0 .961.205 1.783.616 2.464zm7.523-5.88c.653-.933 1.489-1.4 2.506-1.4 1.017 0 1.848.467 2.492 1.4.653.924.98 2.063.98 3.416 0 1.353-.327 2.497-.98 3.43-.644.924-1.475 1.386-2.492 1.386-1.027 0-1.862-.462-2.506-1.386-.644-.933-.966-2.077-.966-3.43 0-1.353.322-2.492.966-3.416zm.994 5.88c.42.672.924 1.008 1.512 1.008s1.087-.336 1.498-1.008c.42-.681.63-1.503.63-2.464 0-.961-.21-1.778-.63-2.45-.411-.681-.91-1.022-1.498-1.022s-1.092.341-1.512 1.022c-.411.672-.616 1.489-.616 2.45 0 .961.205 1.783.616 2.464zm12.382-.672h1.12v1.344h-1.12V112h-1.344v-1.568h-4.928l6.272-8.064v6.72zm-1.344 0v-3.108l-2.268 3.108h2.268z" fill="#666B73"/>
    <path fill="#EFEFEF" d="M14 143h452v1H14zm0-99h452v1H14z"/>
    <g clip-path="url(#ph_item_cards__clip1)">
      <path fill="#fff" d="M495 84.38h548v121.239H495z"/>
      <path d="M529.257 124.67l5.16 5.958h-2.749l-4.312-4.99v4.99h-2.172v-11.406h2.172v4.718l4.04-4.718h2.75l-4.889 5.448zm8.691-.679c.272-.622.724-1.103 1.358-1.442.634-.351 1.358-.555 2.173-.611v2.563a3.046 3.046 0 00-1.63 0c-.52.147-.967.446-1.341.899-.373.441-.56 1.007-.56 1.697v3.531h-2.172v-8.419h2.172v1.782zm7.16-3.293a1.43 1.43 0 01-1.052.425c-.419 0-.775-.142-1.07-.425a1.484 1.484 0 01-.424-1.069c0-.419.141-.769.424-1.052a1.46 1.46 0 011.07-.442c.418 0 .769.148 1.052.442a1.4 1.4 0 01.441 1.052c0 .419-.147.775-.441 1.069zm-2.139 9.93v-8.419h2.173v8.419h-2.173zm8.929-8.69c.985 0 1.754.322 2.309.967.565.645.848 1.59.848 2.835v4.888h-2.172v-4.617c0-.656-.13-1.137-.391-1.443-.26-.305-.673-.458-1.239-.458-.543 0-.996.181-1.358.543-.362.362-.543.906-.543 1.63v4.345h-2.172v-8.419h2.172v.815c.611-.724 1.46-1.086 2.546-1.086zm5.825 1.306c.871-.871 1.929-1.306 3.174-1.306 1.245 0 2.303.435 3.174 1.306.871.872 1.307 1.93 1.307 3.175 0 1.244-.436 2.302-1.307 3.174-.871.871-1.929 1.307-3.174 1.307-1.245 0-2.303-.436-3.174-1.307-.871-.872-1.307-1.93-1.307-3.174 0-1.245.436-2.303 1.307-3.175zm1.545 4.804c.452.453.995.679 1.629.679s1.177-.226 1.63-.679c.452-.453.678-.996.678-1.629 0-.634-.226-1.177-.678-1.63a2.222 2.222 0 00-1.63-.679c-.634 0-1.177.226-1.629.679a2.222 2.222 0 00-.679 1.63c0 .633.226 1.176.679 1.629zm11.419-2.784c1.302.204 2.19.538 2.665 1.002.475.464.713 1.013.713 1.646 0 .883-.334 1.601-1.001 2.156-.657.554-1.556.832-2.699.832-.883 0-1.681-.136-2.393-.408-.702-.271-1.206-.543-1.511-.815l.713-2.036c.362.339.82.622 1.375.848a4.862 4.862 0 001.612.34c1.154.022 1.731-.221 1.731-.73 0-.181-.107-.317-.322-.407-.204-.091-.594-.187-1.171-.289-.758-.124-1.392-.277-1.901-.458-.498-.193-.872-.413-1.121-.662-.248-.261-.418-.526-.509-.798a3.088 3.088 0 01-.136-.968c0-.701.346-1.306 1.036-1.816.69-.509 1.573-.763 2.648-.763a7.06 7.06 0 013.276.814l-.611 1.969c-.238-.17-.612-.328-1.121-.475a6.047 6.047 0 00-1.544-.238c-1.007-.022-1.511.147-1.511.509 0 .283.34.487 1.018.612.102.022.266.05.493.084l.271.051zm12.33 5.364h-2.172v-11.406h7.061v2.172h-4.889v2.445h4.074v2.172h-4.074v4.617zm8.686-6.637c.272-.622.724-1.103 1.358-1.442.633-.351 1.358-.555 2.172-.611v2.563a3.043 3.043 0 00-1.629 0c-.521.147-.968.446-1.341.899-.373.441-.56 1.007-.56 1.697v3.531h-2.173v-8.419h2.173v1.782zm7.16-3.293a1.43 1.43 0 01-1.053.425c-.418 0-.775-.142-1.069-.425a1.484 1.484 0 01-.424-1.069c0-.419.141-.769.424-1.052a1.458 1.458 0 011.069-.442c.419 0 .77.148 1.053.442a1.4 1.4 0 01.441 1.052c0 .419-.147.775-.441 1.069zm-2.139 9.93v-8.419h2.173v8.419h-2.173zm4.21-11.949h2.173v11.949h-2.173v-11.949zm4.211 0h2.172v11.949h-2.172v-11.949zm4.841 4.565c.871-.871 1.929-1.306 3.174-1.306 1.245 0 2.303.435 3.174 1.306.871.872 1.307 1.93 1.307 3.175 0 1.244-.436 2.302-1.307 3.174-.871.871-1.929 1.307-3.174 1.307-1.245 0-2.303-.436-3.174-1.307-.871-.872-1.307-1.93-1.307-3.174 0-1.245.436-2.303 1.307-3.175zm1.545 4.804c.452.453.995.679 1.629.679s1.177-.226 1.629-.679c.453-.453.679-.996.679-1.629 0-.634-.226-1.177-.679-1.63a2.218 2.218 0 00-1.629-.679c-.634 0-1.177.226-1.629.679a2.222 2.222 0 00-.679 1.63c0 .633.226 1.176.679 1.629zm12.348-8.826h8.147v2.172h-2.987v9.234h-2.173v-9.234h-2.987v-2.172zm19.145 2.987h2.444l-2.851 8.419h-1.969l-1.562-4.617-1.561 4.617h-1.969l-2.852-8.419h2.444l1.494 5.432 1.629-5.432h1.63l1.629 5.432 1.494-5.432zm5.665-1.511a1.428 1.428 0 01-1.052.425c-.419 0-.775-.142-1.069-.425a1.485 1.485 0 01-.425-1.069c0-.419.142-.769.425-1.052.294-.294.65-.442 1.069-.442.419 0 .769.148 1.052.442a1.4 1.4 0 01.441 1.052c0 .419-.147.775-.441 1.069zm-2.138 9.93v-8.419h2.172v8.419h-2.172zm7.893-5.364c1.301.204 2.19.538 2.665 1.002.475.464.713 1.013.713 1.646 0 .883-.334 1.601-1.002 2.156-.656.554-1.556.832-2.699.832-.882 0-1.68-.136-2.393-.408-.701-.271-1.205-.543-1.51-.815l.712-2.036c.363.339.821.622 1.375.848a4.873 4.873 0 001.613.34c1.154.022 1.731-.221 1.731-.73 0-.181-.107-.317-.322-.407-.204-.091-.594-.187-1.172-.289-.758-.124-1.391-.277-1.901-.458-.497-.193-.871-.413-1.12-.662-.249-.261-.419-.526-.509-.798a3.06 3.06 0 01-.136-.968c0-.701.345-1.306 1.036-1.816.69-.509 1.572-.763 2.647-.763 1.132 0 2.224.271 3.276.814l-.611 1.969c-.237-.17-.611-.328-1.12-.475a6.048 6.048 0 00-1.545-.238c-1.007-.022-1.51.147-1.51.509 0 .283.339.487 1.018.612.102.022.266.05.492.084l.272.051zm5.546 2.971v-4.125h-1.087v-1.901h1.087v-2.987h2.172v2.987h1.63v1.901h-1.63v3.531c0 .599.136.973.407 1.12.283.147.691.136 1.223-.034v1.901c-.453.181-.985.272-1.596.272-.747 0-1.301-.238-1.663-.713-.362-.487-.543-1.138-.543-1.952zm13.448-1.816c0 .158-.011.384-.033.678h-6.128c.159.578.447 1.041.866 1.392.43.34.973.509 1.629.509.939 0 1.777-.26 2.512-.78l.628 1.884c-.09.056-.22.13-.39.22-.159.091-.515.21-1.069.357a6.543 6.543 0 01-1.715.221c-1.561 0-2.738-.419-3.53-1.257-.792-.837-1.188-1.912-1.188-3.224 0-1.313.373-2.388 1.12-3.225.747-.838 1.822-1.256 3.225-1.256 1.312 0 2.32.396 3.021 1.188.702.78 1.052 1.878 1.052 3.293zm-6.11-.951h3.802c0-.407-.17-.781-.509-1.12-.328-.34-.792-.509-1.392-.509-.509 0-.956.181-1.341.543-.373.35-.56.713-.56 1.086zm9.64-1.477c.272-.622.724-1.103 1.358-1.442.634-.351 1.358-.555 2.172-.611v2.563a3.043 3.043 0 00-1.629 0c-.52.147-.967.446-1.341.899-.373.441-.56 1.007-.56 1.697v3.531h-2.173v-8.419h2.173v1.782zm8.837 1.273c1.301.204 2.19.538 2.665 1.002.475.464.713 1.013.713 1.646 0 .883-.334 1.601-1.002 2.156-.656.554-1.556.832-2.698.832-.883 0-1.681-.136-2.394-.408-.701-.271-1.205-.543-1.51-.815l.713-2.036c.362.339.82.622 1.374.848a4.873 4.873 0 001.613.34c1.154.022 1.731-.221 1.731-.73 0-.181-.107-.317-.322-.407-.204-.091-.594-.187-1.171-.289-.759-.124-1.392-.277-1.901-.458-.498-.193-.872-.413-1.121-.662a2.165 2.165 0 01-.509-.798 3.088 3.088 0 01-.136-.968c0-.701.345-1.306 1.036-1.816.69-.509 1.573-.763 2.648-.763 1.131 0 2.223.271 3.275.814l-.611 1.969c-.237-.17-.611-.328-1.12-.475a6.047 6.047 0 00-1.544-.238c-1.008-.022-1.511.147-1.511.509 0 .283.339.487 1.018.612.102.022.266.05.493.084l.271.051zm4.459 7.265l.951-4.074h2.444l-2.037 4.074h-1.358zm14.801-8.826c.69.113 1.273.243 1.748.39.475.147.922.351 1.341.611.419.249.73.589.934 1.019.215.418.322.922.322 1.51 0 1.064-.402 1.941-1.205 2.631-.792.69-1.918 1.036-3.378 1.036-1.833 0-3.383-.634-4.65-1.902l1.086-1.901c.464.532 1.03.94 1.697 1.223.668.271 1.302.407 1.901.407.747 0 1.33-.125 1.748-.374.419-.248.629-.577.629-.984 0-.724-.77-1.199-2.309-1.426-1.561-.237-2.676-.639-3.344-1.205-.667-.577-1.001-1.318-1.001-2.223 0-.996.39-1.839 1.171-2.529.781-.691 1.85-1.036 3.208-1.036 1.471 0 2.772.464 3.904 1.392l-.917 1.867c-.837-.724-1.844-1.086-3.021-1.086-.634 0-1.154.102-1.561.305-.408.193-.611.504-.611.934 0 .373.169.656.509.849.339.192.939.356 1.799.492zm10.734-1.765c1.165 0 2.156.441 2.97 1.323.826.872 1.239 1.924 1.239 3.158 0 1.233-.413 2.291-1.239 3.174-.814.871-1.805 1.307-2.97 1.307-1.041 0-1.901-.391-2.58-1.172v5.245h-2.173v-12.764h2.173v.9c.679-.781 1.539-1.171 2.58-1.171zm-1.901 6.11a2.22 2.22 0 001.629.679c.634 0 1.177-.226 1.63-.679.452-.453.679-.996.679-1.629 0-.634-.227-1.177-.679-1.63a2.222 2.222 0 00-1.63-.679 2.22 2.22 0 00-1.629.679 2.222 2.222 0 00-.679 1.63c0 .633.226 1.176.679 1.629zm9.746-7.35a1.428 1.428 0 01-1.052.425c-.419 0-.775-.142-1.069-.425a1.485 1.485 0 01-.425-1.069c0-.419.142-.769.425-1.052.294-.294.65-.442 1.069-.442.419 0 .769.148 1.052.442.294.283.442.633.442 1.052 0 .419-.148.775-.442 1.069zm-2.138 9.93v-8.419h2.172v8.419h-2.172zm8.928-8.69c.985 0 1.754.322 2.309.967.566.645.848 1.59.848 2.835v4.888h-2.172v-4.617c0-.656-.13-1.137-.391-1.443-.26-.305-.673-.458-1.239-.458-.543 0-.995.181-1.357.543-.363.362-.544.906-.544 1.63v4.345h-2.172v-8.419h2.172v.815c.611-.724 1.46-1.086 2.546-1.086zm11.308.271h2.172v8.419h-2.172v-.9c-.679.781-1.539 1.172-2.58 1.172-1.166 0-2.162-.436-2.988-1.307-.814-.883-1.222-1.941-1.222-3.174 0-1.234.408-2.286 1.222-3.158.826-.882 1.822-1.323 2.988-1.323 1.041 0 1.901.39 2.58 1.171v-.9zm-3.938 5.839a2.22 2.22 0 001.629.679c.634 0 1.177-.226 1.63-.679.452-.453.679-.996.679-1.629 0-.634-.227-1.177-.679-1.63a2.222 2.222 0 00-1.63-.679 2.22 2.22 0 00-1.629.679 2.222 2.222 0 00-.679 1.63c0 .633.226 1.176.679 1.629zm12.227.679c.793 0 1.443-.255 1.952-.764l.9 1.935c-.69.668-1.663 1.002-2.919 1.002-1.438 0-2.58-.425-3.429-1.274-.837-.859-1.256-1.929-1.256-3.207 0-1.279.424-2.343 1.273-3.191.849-.86 1.986-1.29 3.412-1.29 1.199 0 2.172.333 2.919 1.001l-.9 1.952c-.52-.521-1.171-.781-1.952-.781-.78 0-1.408.221-1.884.662-.464.441-.696.99-.696 1.647 0 .656.232 1.205.696 1.646.476.441 1.104.662 1.884.662zm9.063-6.789c.984 0 1.754.322 2.308.967.566.645.849 1.59.849 2.835v4.888h-2.173v-4.617c0-.656-.13-1.137-.39-1.443-.261-.305-.674-.458-1.239-.458-.543 0-.996.181-1.358.543-.362.362-.543.906-.543 1.63v4.345h-2.173v-11.949h2.173v4.345c.611-.724 1.459-1.086 2.546-1.086zm16.462.271h2.173v8.419h-2.173v-.9c-.679.781-1.539 1.172-2.58 1.172-1.166 0-2.161-.436-2.987-1.307-.815-.883-1.222-1.941-1.222-3.174 0-1.234.407-2.286 1.222-3.158.826-.882 1.821-1.323 2.987-1.323 1.041 0 1.901.39 2.58 1.171v-.9zm-3.938 5.839c.453.453.996.679 1.63.679.633 0 1.176-.226 1.629-.679.453-.453.679-.996.679-1.629 0-.634-.226-1.177-.679-1.63a2.222 2.222 0 00-1.629-.679c-.634 0-1.177.226-1.63.679a2.222 2.222 0 00-.679 1.63c0 .633.226 1.176.679 1.629zm12.87-6.11c.984 0 1.753.322 2.308.967.566.645.849 1.59.849 2.835v4.888h-2.173v-4.617c0-.656-.13-1.137-.39-1.443-.261-.305-.674-.458-1.239-.458-.544 0-.996.181-1.358.543-.362.362-.543.906-.543 1.63v4.345h-2.173v-8.419h2.173v.815c.611-.724 1.459-1.086 2.546-1.086zm8.727 0c1.041 0 1.901.39 2.58 1.171v-4.43h2.172v11.949h-2.172v-.9c-.679.781-1.539 1.172-2.58 1.172-1.166 0-2.161-.436-2.988-1.307-.814-.883-1.222-1.941-1.222-3.174 0-1.234.408-2.286 1.222-3.158.827-.882 1.822-1.323 2.988-1.323zm-1.358 6.11c.453.453.996.679 1.629.679.634 0 1.177-.226 1.63-.679.452-.453.679-.996.679-1.629 0-.634-.227-1.177-.679-1.63a2.222 2.222 0 00-1.63-.679c-.633 0-1.176.226-1.629.679a2.222 2.222 0 00-.679 1.63c0 .633.226 1.176.679 1.629zm15.611 2.58h-2.173v-11.406h7.061v2.172h-4.888v2.445h4.074v2.172h-4.074v4.617zm14.123-4.209c0 .158-.011.384-.033.678h-6.128c.159.578.447 1.041.866 1.392.43.34.973.509 1.629.509.939 0 1.777-.26 2.512-.78l.628 1.884c-.09.056-.22.13-.39.22-.158.091-.515.21-1.069.357a6.543 6.543 0 01-1.715.221c-1.561 0-2.738-.419-3.53-1.257-.792-.837-1.188-1.912-1.188-3.224 0-1.313.373-2.388 1.12-3.225.747-.838 1.822-1.256 3.225-1.256 1.312 0 2.32.396 3.021 1.188.702.78 1.052 1.878 1.052 3.293zm-6.11-.951h3.802c0-.407-.17-.781-.509-1.12-.328-.34-.792-.509-1.392-.509-.509 0-.956.181-1.341.543-.373.35-.56.713-.56 1.086zm8.011 2.767v-4.125h-1.087v-1.901h1.087v-2.987h2.172v2.987h1.63v1.901h-1.63v3.531c0 .599.136.973.408 1.12.282.147.69.136 1.222-.034v1.901c-.453.181-.985.272-1.596.272-.747 0-1.301-.238-1.663-.713-.362-.487-.543-1.138-.543-1.952zm11.952-6.026h2.172v8.419h-2.172v-.9c-.679.781-1.539 1.172-2.58 1.172-1.166 0-2.162-.436-2.988-1.307-.814-.883-1.222-1.941-1.222-3.174 0-1.234.408-2.286 1.222-3.158.826-.882 1.822-1.323 2.988-1.323 1.041 0 1.901.39 2.58 1.171v-.9zm-3.938 5.839a2.22 2.22 0 001.629.679c.634 0 1.177-.226 1.63-.679.452-.453.679-.996.679-1.629 0-.634-.227-1.177-.679-1.63a2.222 2.222 0 00-1.63-.679 2.22 2.22 0 00-1.629.679 2.222 2.222 0 00-.679 1.63c0 .633.226 1.176.679 1.629zm19.006.679c1.131 0 2.076-.39 2.834-1.171l.832 1.969a5.266 5.266 0 01-1.714 1.018 5.888 5.888 0 01-1.986.357c-1.675 0-3.106-.583-4.295-1.749-1.188-1.177-1.782-2.585-1.782-4.226s.594-3.044 1.782-4.21c1.189-1.176 2.62-1.765 4.295-1.765.656 0 1.318.119 1.986.357a5.03 5.03 0 011.714 1.001l-.832 1.969c-.792-.769-1.737-1.154-2.834-1.154-1.087 0-2.015.373-2.784 1.12-.769.736-1.154 1.629-1.154 2.682 0 1.052.385 1.952 1.154 2.699.769.735 1.697 1.103 2.784 1.103zm10.008-6.789c.984 0 1.754.322 2.308.967.566.645.849 1.59.849 2.835v4.888h-2.173v-4.617c0-.656-.13-1.137-.39-1.443-.26-.305-.673-.458-1.239-.458-.543 0-.996.181-1.358.543-.362.362-.543.906-.543 1.63v4.345h-2.173v-11.949h2.173v4.345c.611-.724 1.46-1.086 2.546-1.086zm12.937 4.481c0 .158-.012.384-.034.678h-6.128c.159.578.447 1.041.866 1.392.43.34.973.509 1.629.509.94 0 1.777-.26 2.512-.78l.628 1.884c-.09.056-.22.13-.39.22-.158.091-.515.21-1.069.357a6.538 6.538 0 01-1.715.221c-1.561 0-2.738-.419-3.53-1.257-.792-.837-1.188-1.912-1.188-3.224 0-1.313.373-2.388 1.12-3.225.747-.838 1.822-1.256 3.225-1.256 1.313 0 2.32.396 3.021 1.188.702.78 1.053 1.878 1.053 3.293zm-6.111-.951h3.802c0-.407-.169-.781-.509-1.12-.328-.34-.792-.509-1.392-.509-.509 0-.956.181-1.341.543-.373.35-.56.713-.56 1.086zm15.609.951c0 .158-.012.384-.034.678h-6.128c.159.578.447 1.041.866 1.392.43.34.973.509 1.629.509.939 0 1.777-.26 2.512-.78l.628 1.884c-.09.056-.22.13-.39.22-.158.091-.515.21-1.069.357a6.543 6.543 0 01-1.715.221c-1.561 0-2.738-.419-3.53-1.257-.792-.837-1.188-1.912-1.188-3.224 0-1.313.373-2.388 1.12-3.225.747-.838 1.822-1.256 3.225-1.256 1.312 0 2.32.396 3.021 1.188.702.78 1.053 1.878 1.053 3.293zm-6.111-.951h3.802c0-.407-.17-.781-.509-1.12-.328-.34-.792-.509-1.392-.509-.509 0-.956.181-1.341.543-.373.35-.56.713-.56 1.086zm11.416-.204c1.301.204 2.189.538 2.665 1.002.475.464.713 1.013.713 1.646 0 .883-.334 1.601-1.002 2.156-.656.554-1.556.832-2.699.832-.882 0-1.68-.136-2.393-.408-.701-.271-1.205-.543-1.51-.815l.712-2.036c.362.339.821.622 1.375.848a4.873 4.873 0 001.613.34c1.154.022 1.731-.221 1.731-.73 0-.181-.107-.317-.322-.407-.204-.091-.595-.187-1.172-.289-.758-.124-1.391-.277-1.901-.458-.498-.193-.871-.413-1.12-.662-.249-.261-.419-.526-.509-.798a3.06 3.06 0 01-.136-.968c0-.701.345-1.306 1.035-1.816.691-.509 1.573-.763 2.648-.763 1.132 0 2.224.271 3.276.814l-.611 1.969c-.237-.17-.611-.328-1.12-.475a6.048 6.048 0 00-1.545-.238c-1.007-.022-1.51.147-1.51.509 0 .283.339.487 1.018.612.102.022.266.05.492.084l.272.051zm12.745 1.155c0 .158-.011.384-.034.678h-6.127c.158.578.447 1.041.866 1.392.43.34.973.509 1.629.509.939 0 1.777-.26 2.512-.78l.628 1.884c-.09.056-.22.13-.39.22-.159.091-.515.21-1.07.357a6.53 6.53 0 01-1.714.221c-1.561 0-2.738-.419-3.53-1.257-.792-.837-1.188-1.912-1.188-3.224 0-1.313.373-2.388 1.12-3.225.747-.838 1.822-1.256 3.225-1.256 1.312 0 2.319.396 3.021 1.188.702.78 1.052 1.878 1.052 3.293zm-6.11-.951h3.802c0-.407-.17-.781-.509-1.12-.328-.34-.792-.509-1.392-.509-.509 0-.956.181-1.341.543-.373.35-.56.713-.56 1.086zm16.961-7.061c-1.448 2.195-2.172 4.549-2.172 7.061 0 2.512.724 4.866 2.172 7.061l-2.172.815c-1.449-2.626-2.173-5.251-2.173-7.876s.724-5.25 2.173-7.876l2.172.815zm8.825 5.822c.996.724 1.494 1.68 1.494 2.868 0 1.109-.436 2.02-1.307 2.733-.86.713-1.918 1.07-3.174 1.07s-2.32-.357-3.191-1.07c-.86-.713-1.29-1.624-1.29-2.733 0-1.165.492-2.121 1.477-2.868-.623-.532-.934-1.205-.934-2.02 0-.928.379-1.703 1.137-2.325.77-.623 1.703-.934 2.801-.934 1.086 0 2.009.311 2.767.934.769.622 1.154 1.397 1.154 2.325 0 .792-.311 1.465-.934 2.02zm-1.748-2.75c-.339-.237-.752-.356-1.239-.356-.487 0-.905.119-1.256.356-.34.238-.509.526-.509.866 0 .339.169.628.509.866.351.237.769.356 1.256.356s.9-.119 1.239-.356c.351-.238.526-.527.526-.866 0-.34-.175-.628-.526-.866zm-2.868 6.739c.452.339.995.509 1.629.509s1.177-.17 1.629-.509c.453-.351.679-.77.679-1.256 0-.487-.226-.9-.679-1.239-.452-.351-.995-.527-1.629-.527s-1.177.176-1.629.527c-.453.339-.679.752-.679 1.239 0 .486.226.905.679 1.256zm15.616-1.935h1.357v2.172h-1.357v2.173h-2.173v-2.173h-5.703v-1.901l5.16-7.332h2.716v7.061zm-2.173 0v-4.481l-3.038 4.481h3.038zm6.41-5.602c.837-1.154 1.912-1.731 3.225-1.731 1.312 0 2.387.577 3.225 1.731.837 1.155 1.256 2.569 1.256 4.244 0 1.675-.419 3.089-1.256 4.243-.838 1.154-1.913 1.732-3.225 1.732-1.324 0-2.405-.572-3.242-1.715-.826-1.154-1.239-2.574-1.239-4.26 0-1.675.419-3.089 1.256-4.244zm1.595 6.943c.453.735.996 1.103 1.63 1.103.634 0 1.177-.368 1.629-1.103.453-.747.679-1.647.679-2.699 0-1.053-.226-1.946-.679-2.682-.452-.747-.995-1.12-1.629-1.12s-1.177.373-1.63 1.12c-.452.736-.679 1.629-.679 2.682 0 1.052.227 1.952.679 2.699zm14.258-5.415h2.173v7.604c0 1.765-.402 3.112-1.205 4.04-.792.928-1.929 1.392-3.412 1.392a6.57 6.57 0 01-1.561-.187 5.195 5.195 0 01-1.307-.458 7.847 7.847 0 01-.798-.442 4.071 4.071 0 01-.407-.271l1.018-1.918c.317.271.747.52 1.29.747a4.366 4.366 0 001.765.356c.736 0 1.324-.249 1.766-.747.452-.486.678-1.109.678-1.867v-.73c-.678.781-1.538 1.172-2.579 1.172-1.166 0-2.162-.436-2.988-1.307-.815-.883-1.222-1.941-1.222-3.174 0-1.234.407-2.286 1.222-3.158.826-.882 1.822-1.323 2.988-1.323 1.041 0 1.901.39 2.579 1.171v-.9zm-3.937 5.839c.452.453.995.679 1.629.679s1.177-.226 1.63-.679c.452-.453.678-.996.678-1.629 0-.634-.226-1.177-.678-1.63a2.222 2.222 0 00-1.63-.679c-.634 0-1.177.226-1.629.679a2.222 2.222 0 00-.679 1.63c0 .633.226 1.176.679 1.629zm7.74-9.641l2.173-.815c1.448 2.626 2.172 5.251 2.172 7.876s-.724 5.25-2.172 7.876l-2.173-.815c1.448-2.195 2.173-4.549 2.173-7.061 0-2.512-.725-4.866-2.173-7.061z" fill="#000"/>
      <path d="M526.219 157.155c.792-1.131 1.805-1.697 3.038-1.697 1.234 0 2.241.566 3.022 1.697.792 1.121 1.188 2.501 1.188 4.142 0 1.641-.396 3.027-1.188 4.158-.781 1.121-1.788 1.681-3.022 1.681-1.244 0-2.257-.56-3.038-1.681-.781-1.131-1.171-2.517-1.171-4.158 0-1.641.39-3.021 1.171-4.142zm1.205 7.129c.509.815 1.12 1.222 1.833 1.222.713 0 1.319-.407 1.817-1.222.509-.826.763-1.822.763-2.987 0-1.166-.254-2.156-.763-2.97-.498-.826-1.104-1.239-1.817-1.239-.713 0-1.324.413-1.833 1.239-.498.814-.747 1.804-.747 2.97 0 1.165.249 2.161.747 2.987zm12.482-5.262c1.143 0 2.077.38 2.801 1.138a3.716 3.716 0 011.086 2.682c0 1.267-.396 2.302-1.188 3.106-.781.792-1.788 1.188-3.021 1.188-1.245 0-2.258-.402-3.038-1.205-.781-.804-1.171-1.873-1.171-3.208 0-1.268.333-2.558 1.001-3.87.668-1.324 1.663-2.41 2.987-3.259h2.886a2.495 2.495 0 00-.34.136c-.147.056-.424.198-.831.424a8.63 8.63 0 00-1.155.73c-.35.271-.735.645-1.154 1.12a6.62 6.62 0 00-1.001 1.511c.588-.328 1.301-.493 2.138-.493zm-2.172 5.771c.486.476 1.103.713 1.85.713.747 0 1.363-.237 1.85-.713.487-.475.73-1.058.73-1.748s-.238-1.262-.713-1.714c-.464-.453-1.086-.679-1.867-.679-.747 0-1.364.232-1.85.696-.487.452-.73 1.018-.73 1.697 0 .69.243 1.273.73 1.748zm9.189-3.632c-.339 0-.628-.119-.865-.356a1.178 1.178 0 01-.357-.866c0-.351.119-.639.357-.866.237-.237.526-.356.865-.356.351 0 .64.119.866.356.238.227.356.515.356.866 0 .34-.118.628-.356.866a1.145 1.145 0 01-.866.356zm0 5.975c-.339 0-.628-.119-.865-.357a1.176 1.176 0 01-.357-.865c0-.34.119-.628.357-.866.237-.238.526-.356.865-.356.351 0 .64.118.866.356.238.238.356.526.356.866 0 .339-.118.628-.356.865a1.142 1.142 0 01-.866.357zm4.292-9.981c.792-1.131 1.805-1.697 3.038-1.697 1.234 0 2.241.566 3.022 1.697.792 1.121 1.188 2.501 1.188 4.142 0 1.641-.396 3.027-1.188 4.158-.781 1.121-1.788 1.681-3.022 1.681-1.244 0-2.257-.56-3.038-1.681-.781-1.131-1.171-2.517-1.171-4.158 0-1.641.39-3.021 1.171-4.142zm1.205 7.129c.509.815 1.121 1.222 1.833 1.222.713 0 1.319-.407 1.817-1.222.509-.826.763-1.822.763-2.987 0-1.166-.254-2.156-.763-2.97-.498-.826-1.104-1.239-1.817-1.239-.712 0-1.324.413-1.833 1.239-.498.814-.747 1.804-.747 2.97 0 1.165.249 2.161.747 2.987zm15.012-.814h1.357v1.629h-1.357V167h-1.63v-1.901h-5.975l7.605-9.777v8.148zm-1.63 0v-3.769l-2.75 3.769h2.75zm9.512-4.753c1.177 0 2.15.407 2.919 1.222.77.815 1.155 1.811 1.155 2.987 0 1.177-.385 2.173-1.155 2.988-.769.814-1.742 1.222-2.919 1.222-1.132 0-2.037-.442-2.716-1.324v5.533h-1.629v-12.492h1.629v1.188c.679-.883 1.584-1.324 2.716-1.324zm-1.969 6.043a2.53 2.53 0 001.833.746c.713 0 1.318-.249 1.816-.746a2.5 2.5 0 00.764-1.834c0-.713-.254-1.318-.764-1.816a2.445 2.445 0 00-1.816-.764 2.5 2.5 0 00-1.833.764 2.472 2.472 0 00-.747 1.816c0 .713.249 1.324.747 1.834zm16.882-6.043c.905 0 1.612.322 2.121.967.51.645.764 1.568.764 2.767V167h-1.629v-4.549c0-1.403-.521-2.105-1.562-2.105-.52 0-.979.198-1.375.594-.396.397-.594.923-.594 1.579V167h-1.629v-4.549c0-1.403-.521-2.105-1.562-2.105-.52 0-.979.198-1.375.594-.396.397-.594.923-.594 1.579V167h-1.629v-8.147h1.629v.95a5.86 5.86 0 01.526-.526c.148-.136.374-.26.679-.373a2.898 2.898 0 011.07-.187c1.063 0 1.844.43 2.342 1.29.43-.464.86-.792 1.29-.985.441-.203.951-.305 1.528-.305zm14.84 4.481h-4.617v-1.358h4.617v1.358zm11.663-2.852c1.414.272 2.45.662 3.106 1.172.656.497.984 1.21.984 2.138 0 1.019-.39 1.856-1.171 2.512-.781.645-1.827.968-3.14.968a6.62 6.62 0 01-1.799-.238c-.555-.17-1.018-.379-1.392-.628a9.793 9.793 0 01-.798-.594 3.155 3.155 0 01-.39-.39l.815-1.46c1.007 1.12 2.206 1.68 3.598 1.68.849 0 1.499-.158 1.952-.475.464-.317.696-.752.696-1.307 0-.86-.866-1.443-2.597-1.748-1.505-.26-2.563-.651-3.174-1.171-.6-.532-.9-1.211-.9-2.037 0-.962.362-1.754 1.087-2.376.724-.623 1.731-.934 3.021-.934 1.482 0 2.71.453 3.683 1.358l-.781 1.477c-.826-.804-1.804-1.205-2.936-1.205-.781 0-1.386.141-1.816.424-.419.283-.628.679-.628 1.188 0 .43.198.769.594 1.018.396.238 1.058.447 1.986.628zm6.531 3.989v-3.853h-1.086v-1.629h1.086v-3.259h1.63v3.259h1.629v1.629h-1.629v3.395c0 .781.107 1.25.322 1.409.328.249.764.237 1.307-.034v1.646c-.328.159-.73.238-1.205.238-1.369 0-2.054-.934-2.054-2.801zm11.67-5.482h1.63V167h-1.63v-1.188c-.679.882-1.584 1.324-2.715 1.324-1.177 0-2.15-.408-2.92-1.222-.769-.815-1.154-1.811-1.154-2.988 0-1.176.385-2.172 1.154-2.987.77-.815 1.743-1.222 2.92-1.222 1.131 0 2.036.441 2.715 1.324v-1.188zm-4.413 5.907c.51.497 1.121.746 1.833.746.713 0 1.319-.249 1.817-.746.509-.51.763-1.121.763-1.834 0-.713-.254-1.318-.763-1.816a2.447 2.447 0 00-1.817-.764c-.712 0-1.323.255-1.833.764a2.472 2.472 0 00-.747 1.816c0 .713.249 1.324.747 1.834zm14.475-5.907h1.629v7.638c0 1.652-.39 2.897-1.171 3.734-.769.837-1.827 1.256-3.174 1.256-1.358 0-2.625-.453-3.802-1.358l.815-1.46c.317.238.577.425.781.561.203.135.509.271.916.407a3.87 3.87 0 001.29.221c.849 0 1.511-.272 1.986-.815.487-.543.73-1.313.73-2.309v-.916c-.679.882-1.584 1.324-2.716 1.324-1.177 0-2.15-.408-2.919-1.222-.77-.815-1.155-1.811-1.155-2.988 0-1.176.385-2.172 1.155-2.987.769-.815 1.742-1.222 2.919-1.222 1.132 0 2.037.441 2.716 1.324v-1.188zm-4.413 5.907a2.53 2.53 0 001.833.746c.713 0 1.318-.249 1.816-.746.509-.51.764-1.121.764-1.834 0-.713-.255-1.318-.764-1.816a2.445 2.445 0 00-1.816-.764 2.5 2.5 0 00-1.833.764 2.472 2.472 0 00-.747 1.816c0 .713.249 1.324.747 1.834zm15.561-1.8c0 .249-.017.487-.051.713h-6.162c.125.611.425 1.07.9 1.375.486.306 1.069.458 1.748.458.883 0 1.709-.271 2.478-.814l.543 1.459c-.78.657-1.799.985-3.055.985-1.369 0-2.427-.396-3.174-1.188-.735-.804-1.103-1.811-1.103-3.022 0-1.199.368-2.201 1.103-3.004.747-.803 1.731-1.205 2.953-1.205 1.109 0 2.02.385 2.733 1.154.724.77 1.087 1.799 1.087 3.089zm-6.213-.78h4.549c-.023-.464-.221-.883-.594-1.256-.373-.385-.917-.578-1.629-.578-.691 0-1.245.193-1.664.578-.418.384-.639.803-.662 1.256zm14.359-7.129h1.629V167h-1.629v-1.188c-.679.882-1.584 1.324-2.716 1.324-1.177 0-2.15-.408-2.919-1.222-.77-.815-1.155-1.811-1.155-2.988 0-1.176.385-2.172 1.155-2.987.769-.815 1.742-1.222 2.919-1.222 1.132 0 2.037.441 2.716 1.324v-4.99zm-4.413 9.709a2.53 2.53 0 001.833.746c.713 0 1.318-.249 1.816-.746.509-.51.764-1.121.764-1.834 0-.713-.255-1.318-.764-1.816a2.445 2.445 0 00-1.816-.764 2.5 2.5 0 00-1.833.764 2.472 2.472 0 00-.747 1.816c0 .713.249 1.324.747 1.834zm15.61-7.622a1.176 1.176 0 01-.865.357c-.34 0-.628-.119-.866-.357a1.175 1.175 0 01-.356-.865c0-.34.118-.628.356-.866.238-.237.526-.356.866-.356.339 0 .628.119.865.356.238.238.357.526.357.866 0 .339-.119.628-.357.865zm-1.68 9.862v-8.147h1.629V167h-1.629zm8.121-8.283c.984 0 1.753.305 2.308.917.566.611.849 1.505.849 2.681V167h-1.63v-4.549c0-.69-.141-1.211-.424-1.561-.272-.363-.741-.544-1.409-.544-.543 0-1.052.204-1.528.611-.475.396-.712.917-.712 1.562V167h-1.63v-8.147h1.63v.95c.633-.724 1.482-1.086 2.546-1.086zm18.77 8.283l-1.103-2.444h-5.126L693.363 167h-1.766l5.432-11.678L702.46 167h-1.765zm-5.482-4.074h3.632l-1.816-4.005-1.816 4.005zm14.448 4.346l-3.632-7.027-1.086 6.755h-1.664l1.935-11.678 4.447 8.623 4.447-8.623L716.043 167h-1.663l-1.086-6.755-3.633 7.027zm14.259-6.399c.633.147 1.109.48 1.425 1.001.317.509.476 1.075.476 1.697 0 1.007-.334 1.833-1.002 2.478-.656.634-1.544.951-2.665.951h-4.209v-11.406h3.412c1.244 0 2.206.254 2.885.764.69.509 1.036 1.25 1.036 2.223 0 .555-.131 1.041-.391 1.46-.26.407-.583.684-.967.832zm-4.346-3.65v2.852h2.037c1.358 0 2.037-.475 2.037-1.426 0-.95-.679-1.426-2.037-1.426h-2.037zm2.309 8.148c.724 0 1.29-.153 1.697-.459.408-.305.611-.764.611-1.375s-.203-1.069-.611-1.374c-.407-.306-.973-.459-1.697-.459h-2.309v3.667h2.309zm5.166-9.777h7.604v1.629h-2.987V167h-1.63v-9.777h-2.987v-1.629zm10.41 1.561c.792-1.131 1.805-1.697 3.038-1.697 1.234 0 2.241.566 3.022 1.697.792 1.121 1.188 2.501 1.188 4.142 0 1.641-.396 3.027-1.188 4.158-.781 1.121-1.788 1.681-3.022 1.681-1.244 0-2.257-.56-3.038-1.681-.781-1.131-1.171-2.517-1.171-4.158 0-1.641.39-3.021 1.171-4.142zm1.205 7.129c.509.815 1.12 1.222 1.833 1.222.713 0 1.319-.407 1.816-1.222.51-.826.764-1.822.764-2.987 0-1.166-.254-2.156-.764-2.97-.497-.826-1.103-1.239-1.816-1.239-.713 0-1.324.413-1.833 1.239-.498.814-.747 1.804-.747 2.97 0 1.165.249 2.161.747 2.987zm14.825-3.547c1.029.588 1.544 1.505 1.544 2.749 0 1.075-.407 1.952-1.222 2.631-.815.679-1.81 1.019-2.987 1.019s-2.173-.34-2.987-1.019c-.815-.679-1.223-1.556-1.223-2.631 0-1.222.51-2.138 1.528-2.749-.656-.464-.984-1.16-.984-2.088 0-.905.35-1.663 1.052-2.274.713-.611 1.584-.917 2.614-.917 1.018 0 1.884.306 2.597.917.713.611 1.069 1.369 1.069 2.274s-.334 1.601-1.001 2.088zm-1.222-3.208c-.396-.294-.877-.441-1.443-.441-.566 0-1.047.147-1.443.441-.396.294-.594.645-.594 1.052 0 .408.198.758.594 1.053.396.294.877.441 1.443.441.566 0 1.047-.147 1.443-.441.396-.295.594-.645.594-1.053 0-.407-.198-.758-.594-1.052zm-3.276 7.417c.509.374 1.12.56 1.833.56.713 0 1.318-.186 1.816-.56.509-.385.764-.854.764-1.409 0-.554-.255-1.018-.764-1.391-.498-.385-1.103-.578-1.816-.578-.713 0-1.324.193-1.833.578-.498.373-.747.837-.747 1.391 0 .555.249 1.024.747 1.409zM765.36 167h-1.901l-2.835-3.938h-1.782V167h-1.629v-11.406h3.53c1.437 0 2.518.328 3.242.984.736.657 1.103 1.545 1.103 2.665 0 .894-.237 1.675-.713 2.342-.464.657-1.114 1.098-1.952 1.324L765.36 167zm-6.518-9.777v4.21h2.427c.645 0 1.171-.17 1.579-.509.407-.351.611-.877.611-1.579 0-.713-.204-1.245-.611-1.596-.396-.35-.911-.526-1.545-.526h-2.461zm14.801 0h-4.889v3.259h4.074v1.63h-4.074v3.259h4.889V167h-6.518v-11.406h6.518v1.629zm5.579-1.629c1.833 0 3.259.537 4.277 1.612 1.03 1.075 1.545 2.439 1.545 4.091 0 1.641-.52 3.004-1.561 4.091-1.042 1.075-2.462 1.612-4.261 1.612h-3.411v-11.406h3.411zm.425 9.777c1.097 0 1.997-.391 2.698-1.172.713-.792 1.07-1.759 1.07-2.902 0-1.143-.357-2.105-1.07-2.886-.701-.792-1.601-1.188-2.698-1.188h-2.207v8.148h2.207zm14.369-10.32v4.99c.679-.883 1.584-1.324 2.715-1.324 1.177 0 2.15.407 2.92 1.222.769.815 1.154 1.811 1.154 2.987 0 1.177-.385 2.173-1.154 2.988-.77.814-1.743 1.222-2.92 1.222-1.131 0-2.036-.442-2.715-1.324V167h-1.63v-11.949h1.63zm.746 9.709c.51.497 1.121.746 1.834.746.712 0 1.318-.249 1.816-.746.509-.51.764-1.121.764-1.834 0-.713-.255-1.318-.764-1.816a2.447 2.447 0 00-1.816-.764c-.713 0-1.324.255-1.834.764a2.474 2.474 0 00-.746 1.816c0 .713.249 1.324.746 1.834zm13.335-5.907h1.816l-5.517 12.492h-1.782l2.173-4.871-3.293-7.621h1.816l2.393 5.635 2.394-5.635zm9.505-1.698c.792-1.131 1.805-1.697 3.038-1.697 1.234 0 2.241.566 3.022 1.697.792 1.121 1.188 2.501 1.188 4.142 0 1.641-.396 3.027-1.188 4.158-.781 1.121-1.788 1.681-3.022 1.681-1.244 0-2.257-.56-3.038-1.681-.781-1.131-1.171-2.517-1.171-4.158 0-1.641.39-3.021 1.171-4.142zm1.205 7.129c.51.815 1.121 1.222 1.833 1.222.713 0 1.319-.407 1.817-1.222.509-.826.763-1.822.763-2.987 0-1.166-.254-2.156-.763-2.97-.498-.826-1.104-1.239-1.817-1.239-.712 0-1.323.413-1.833 1.239-.498.814-.747 1.804-.747 2.97 0 1.165.249 2.161.747 2.987zm12.381-4.888c.995 0 1.861.339 2.597 1.018.746.668 1.12 1.579 1.12 2.733 0 1.154-.402 2.11-1.205 2.869-.804.746-1.76 1.12-2.869 1.12-1.109 0-2.048-.34-2.817-1.019-.77-.69-1.188-1.527-1.256-2.512l1.697-.169c.057.554.306 1.041.747 1.459.441.408.984.611 1.629.611a2.43 2.43 0 001.715-.662c.486-.452.729-1.001.729-1.646 0-.634-.203-1.154-.611-1.562-.407-.407-.933-.611-1.578-.611-.464 0-.922.119-1.375.357a2.59 2.59 0 00-1.035 1.001h-1.664l1.019-6.789h5.788v1.629h-4.397l-.441 2.92c.6-.498 1.335-.747 2.207-.747zm9.501 4.175c-1.142 0-2.076-.373-2.8-1.12-.724-.758-1.086-1.658-1.086-2.699 0-1.267.39-2.297 1.171-3.089.792-.803 1.805-1.205 3.038-1.205 1.245 0 2.257.402 3.038 1.205.781.804 1.171 1.873 1.171 3.208 0 1.268-.333 2.563-1.001 3.887-.668 1.313-1.663 2.393-2.987 3.242h-2.886c.079-.023.192-.062.34-.119.147-.068.424-.209.831-.424a8.788 8.788 0 001.137-.747 7.862 7.862 0 001.155-1.103 6.694 6.694 0 001.018-1.528c-.588.328-1.301.492-2.139.492zm2.173-5.771c-.487-.475-1.103-.712-1.85-.712-.747 0-1.364.237-1.85.712a2.35 2.35 0 00-.73 1.749c0 .69.232 1.261.696 1.714.475.453 1.103.679 1.884.679.747 0 1.363-.226 1.85-.679.487-.464.73-1.035.73-1.714a2.35 2.35 0 00-.73-1.749zm15.368 2.971c.022.203.034.379.034.526 0 1.629-.532 3.01-1.596 4.141-1.052 1.132-2.376 1.698-3.972 1.698-1.606 0-2.981-.572-4.124-1.715-1.143-1.142-1.714-2.517-1.714-4.124 0-1.607.571-2.982 1.714-4.125 1.143-1.143 2.518-1.714 4.124-1.714 1.121 0 2.116.289 2.988.866.871.565 1.556 1.341 2.054 2.325l-1.647.475a3.717 3.717 0 00-1.392-1.476c-.588-.374-1.256-.56-2.003-.56-1.165 0-2.161.413-2.987 1.239-.815.814-1.222 1.804-1.222 2.97 0 1.165.407 2.161 1.222 2.987.826.815 1.822 1.222 2.987 1.222 1.007 0 1.851-.288 2.529-.865.679-.589 1.115-1.341 1.307-2.258h-4.243v-1.629l5.941.017zm9.949 6.229h-1.901l-2.835-3.938h-1.782V167h-1.63v-11.406h3.531c1.437 0 2.518.328 3.242.984.735.657 1.103 1.545 1.103 2.665 0 .894-.238 1.675-.713 2.342-.464.657-1.114 1.098-1.952 1.324l2.937 4.091zm-6.518-9.777v4.21h2.427c.645 0 1.171-.17 1.579-.509.407-.351.611-.877.611-1.579 0-.713-.204-1.245-.611-1.596-.397-.35-.911-.526-1.545-.526h-2.461zm13.164 8.283c1.188 0 2.178-.413 2.97-1.239l.696 1.528a4.9 4.9 0 01-1.663 1.001 5.608 5.608 0 01-1.901.34c-1.641 0-3.044-.572-4.21-1.715-1.154-1.142-1.731-2.517-1.731-4.124 0-1.607.577-2.982 1.731-4.125 1.166-1.143 2.569-1.714 4.21-1.714.645 0 1.284.113 1.918.34a4.73 4.73 0 011.646.984l-.696 1.528c-.792-.815-1.782-1.222-2.97-1.222-1.166 0-2.161.413-2.987 1.239-.815.814-1.223 1.804-1.223 2.97 0 1.165.408 2.161 1.223 2.987.826.815 1.821 1.222 2.987 1.222zm5.561-8.962l3.531-1.222V167h-1.63v-9.573l-1.901.611v-1.494zm7.149.611c.792-1.131 1.805-1.697 3.038-1.697 1.233 0 2.241.566 3.021 1.697.792 1.121 1.188 2.501 1.188 4.142 0 1.641-.396 3.027-1.188 4.158-.78 1.121-1.788 1.681-3.021 1.681-1.245 0-2.257-.56-3.038-1.681-.781-1.131-1.171-2.517-1.171-4.158 0-1.641.39-3.021 1.171-4.142zm1.205 7.129c.509.815 1.12 1.222 1.833 1.222.713 0 1.318-.407 1.816-1.222.509-.826.764-1.822.764-2.987 0-1.166-.255-2.156-.764-2.97-.498-.826-1.103-1.239-1.816-1.239-.713 0-1.324.413-1.833 1.239-.498.814-.747 1.804-.747 2.97 0 1.165.249 2.161.747 2.987zm9.121-7.129c.793-1.131 1.805-1.697 3.039-1.697 1.233 0 2.24.566 3.021 1.697.792 1.121 1.188 2.501 1.188 4.142 0 1.641-.396 3.027-1.188 4.158-.781 1.121-1.788 1.681-3.021 1.681-1.245 0-2.258-.56-3.039-1.681-.78-1.131-1.171-2.517-1.171-4.158 0-1.641.391-3.021 1.171-4.142zm1.206 7.129c.509.815 1.12 1.222 1.833 1.222.713 0 1.318-.407 1.816-1.222.509-.826.764-1.822.764-2.987 0-1.166-.255-2.156-.764-2.97-.498-.826-1.103-1.239-1.816-1.239-.713 0-1.324.413-1.833 1.239-.498.814-.747 1.804-.747 2.97 0 1.165.249 2.161.747 2.987zm15.011-.814h1.358v1.629h-1.358V167h-1.63v-1.901h-5.974l7.604-9.777v8.148zm-1.63 0v-3.769l-2.749 3.769h2.749z" fill="#666B73"/>
      <path fill="#EFEFEF" d="M495 204.168h548v1.212H495zm0-119.788h548v1.212H495z"/>
    </g>
    <path fill="#fff" d="M14 144h452v100H14z"/>
    <path d="M45.392 172.592h1.792V182h-1.792l-4.704-6.496V182h-1.792v-9.408h1.792l4.704 6.496v-6.496zm4.21 3.318c.719-.719 1.592-1.078 2.618-1.078 1.027 0 1.9.359 2.618 1.078.719.719 1.078 1.591 1.078 2.618s-.36 1.899-1.078 2.618c-.718.719-1.591 1.078-2.618 1.078-1.026 0-1.9-.359-2.618-1.078-.718-.719-1.078-1.591-1.078-2.618s.36-1.899 1.078-2.618zm1.274 3.962c.373.373.822.56 1.344.56.523 0 .97-.187 1.344-.56.373-.373.56-.821.56-1.344 0-.523-.187-.971-.56-1.344a1.834 1.834 0 00-1.344-.56c-.523 0-.97.187-1.344.56-.373.373-.56.821-.56 1.344 0 .523.187.971.56 1.344zm17.13-7.28h1.791V182h-1.792l-4.704-6.496V182H61.51v-9.408h1.792l4.704 6.496v-6.496zm8.731 2.464h1.793V182h-1.793v-.742c-.56.644-1.269.966-2.127.966-.962 0-1.783-.359-2.465-1.078-.671-.728-1.007-1.601-1.007-2.618s.335-1.885 1.007-2.604c.682-.728 1.503-1.092 2.465-1.092.858 0 1.567.322 2.127.966v-.742zm-3.247 4.816c.373.373.82.56 1.344.56.522 0 .97-.187 1.343-.56a1.83 1.83 0 00.56-1.344 1.83 1.83 0 00-.56-1.344 1.834 1.834 0 00-1.344-.56c-.522 0-.97.187-1.343.56a1.83 1.83 0 00-.56 1.344c0 .523.186.971.56 1.344zm14.338-5.04c.822 0 1.475.271 1.96.812.486.532.728 1.307.728 2.324V182h-1.792v-3.808c0-.551-.084-.947-.252-1.19-.158-.252-.448-.378-.868-.378-.896 0-1.344.597-1.344 1.792V182h-1.792v-3.808c0-.541-.088-.938-.266-1.19-.177-.252-.462-.378-.854-.378-.896 0-1.344.597-1.344 1.792V182h-1.792v-6.944h1.792v.672c.476-.597 1.074-.896 1.792-.896.878 0 1.526.313 1.946.938.56-.625 1.256-.938 2.086-.938zm10.748 3.696c0 .131-.01.317-.028.56h-5.054c.13.476.368.859.714 1.148.354.28.802.42 1.344.42a3.5 3.5 0 002.072-.644l.518 1.554a5.76 5.76 0 01-.322.182c-.131.075-.425.173-.882.294a5.4 5.4 0 01-1.414.182c-1.288 0-2.26-.345-2.912-1.036-.654-.691-.98-1.577-.98-2.66 0-1.083.308-1.969.924-2.66.616-.691 1.502-1.036 2.66-1.036 1.082 0 1.913.327 2.492.98.578.644.868 1.549.868 2.716zm-5.04-.784h3.136c0-.336-.14-.644-.42-.924-.271-.28-.654-.42-1.148-.42-.42 0-.79.149-1.106.448-.308.289-.462.588-.462.896zm15.222 2.688c.933 0 1.712-.322 2.338-.966l.686 1.624a4.337 4.337 0 01-1.414.84 4.863 4.863 0 01-1.638.294c-1.382 0-2.562-.481-3.542-1.442-.98-.971-1.47-2.133-1.47-3.486 0-1.353.49-2.511 1.47-3.472.98-.971 2.16-1.456 3.542-1.456.541 0 1.087.098 1.638.294.55.196 1.022.471 1.414.826l-.686 1.624a3.24 3.24 0 00-2.338-.952c-.896 0-1.662.308-2.296.924-.635.607-.952 1.344-.952 2.212 0 .868.317 1.61.952 2.226.634.607 1.4.91 2.296.91zm8.255-5.6c.812 0 1.446.266 1.904.798.466.532.7 1.311.7 2.338V182h-1.792v-3.808c0-.541-.108-.938-.322-1.19-.215-.252-.556-.378-1.022-.378-.448 0-.822.149-1.12.448-.299.299-.448.747-.448 1.344V182h-1.792v-9.856h1.792v3.584c.504-.597 1.204-.896 2.1-.896zm5.829-1.022c-.234.233-.523.35-.868.35-.346 0-.64-.117-.882-.35a1.224 1.224 0 01-.35-.882c0-.345.116-.635.35-.868.242-.243.536-.364.882-.364.345 0 .634.121.868.364.242.233.364.523.364.868s-.122.639-.364.882zm-1.764 8.19v-6.944h1.792V182h-1.792zm3.472-9.856h1.792V182h-1.792v-9.856zm5.237 1.666a1.18 1.18 0 01-.868.35c-.345 0-.639-.117-.882-.35a1.228 1.228 0 01-.35-.882c0-.345.117-.635.35-.868.243-.243.537-.364.882-.364s.635.121.868.364c.243.233.364.523.364.868s-.121.639-.364.882zm-1.764 8.19v-6.944h1.792V182h-1.792zm11.194-9.408c1.185 0 2.077.285 2.674.854.607.569.91 1.33.91 2.282a3.18 3.18 0 01-.854 2.212c-.569.616-1.33.924-2.282.924h-2.016V182h-1.792v-9.408h3.36zm.224 4.48c.439 0 .807-.126 1.106-.378.308-.252.462-.574.462-.966 0-.429-.149-.761-.448-.994-.289-.233-.663-.35-1.12-.35h-1.792v2.688h1.792zm5.331-1.162c.719-.719 1.591-1.078 2.618-1.078s1.899.359 2.618 1.078c.719.719 1.078 1.591 1.078 2.618s-.359 1.899-1.078 2.618c-.719.719-1.591 1.078-2.618 1.078s-1.899-.359-2.618-1.078c-.719-.719-1.078-1.591-1.078-2.618s.359-1.899 1.078-2.618zm1.274 3.962c.373.373.821.56 1.344.56.523 0 .971-.187 1.344-.56.373-.373.56-.821.56-1.344 0-.523-.187-.971-.56-1.344a1.833 1.833 0 00-1.344-.56c-.523 0-.971.187-1.344.56-.373.373-.56.821-.56 1.344 0 .523.187.971.56 1.344zm13.891-4.816h2.016L159.601 182h-1.624l-1.288-3.808-1.288 3.808h-1.624l-2.352-6.944h2.016l1.232 4.48 1.344-4.48h1.344l1.343 4.48 1.233-4.48zm5.932-.224c.859 0 1.568.322 2.128.966v-3.654h1.792V182h-1.792v-.742c-.56.644-1.269.966-2.128.966-.961 0-1.782-.359-2.464-1.078-.672-.728-1.008-1.601-1.008-2.618s.336-1.885 1.008-2.604c.682-.728 1.503-1.092 2.464-1.092zm-1.12 5.04c.374.373.822.56 1.344.56.523 0 .971-.187 1.344-.56a1.83 1.83 0 00.56-1.344 1.83 1.83 0 00-.56-1.344 1.833 1.833 0 00-1.344-.56c-.522 0-.97.187-1.344.56-.373.373-.56.821-.56 1.344 0 .523.187.971.56 1.344zm13.11-1.344c0 .131-.01.317-.028.56h-5.054c.13.476.368.859.714 1.148.354.28.802.42 1.344.42.774 0 1.465-.215 2.072-.644l.518 1.554a5.874 5.874 0 01-.322.182c-.131.075-.425.173-.882.294-.448.121-.92.182-1.414.182-1.288 0-2.259-.345-2.912-1.036-.654-.691-.98-1.577-.98-2.66 0-1.083.308-1.969.924-2.66.616-.691 1.502-1.036 2.66-1.036 1.082 0 1.913.327 2.492.98.578.644.868 1.549.868 2.716zm-5.04-.784h3.136c0-.336-.14-.644-.42-.924-.271-.28-.654-.42-1.148-.42-.42 0-.789.149-1.106.448-.308.289-.462.588-.462.896zm7.951-1.218c.224-.513.597-.91 1.12-1.19.523-.289 1.12-.457 1.792-.504v2.114a2.532 2.532 0 00-1.344 0 2.188 2.188 0 00-1.106.742c-.308.364-.462.831-.462 1.4V182h-1.792v-6.944h1.792v1.47zm11.863-4.606c-1.195 1.811-1.792 3.752-1.792 5.824s.597 4.013 1.792 5.824l-1.792.672c-1.195-2.165-1.792-4.331-1.792-6.496s.597-4.331 1.792-6.496l1.792.672zm1.343 1.344l3.584-.896V182h-1.792v-7.448l-1.792.392v-1.68zm9.4 2.464c.849 0 1.586.275 2.212.826.625.541.938 1.26.938 2.156 0 1.092-.336 1.951-1.008 2.576-.663.625-1.522.938-2.576.938-1.102 0-1.96-.275-2.576-.826-.616-.56-.952-1.293-1.008-2.198l1.792-.14c.046.401.219.733.518.994.298.252.723.378 1.274.378.513 0 .938-.145 1.274-.434.345-.289.518-.667.518-1.134 0-.401-.15-.742-.448-1.022-.29-.289-.7-.434-1.232-.434-.822 0-1.456.261-1.904.784h-1.568l.896-5.6h5.152v1.792h-3.696l-.252 1.792c.401-.299.966-.448 1.694-.448zm5.535-1.932c.691-.952 1.577-1.428 2.66-1.428 1.083 0 1.969.476 2.66 1.428.691.952 1.036 2.119 1.036 3.5 0 1.381-.345 2.548-1.036 3.5-.691.952-1.577 1.428-2.66 1.428-1.092 0-1.983-.471-2.674-1.414-.681-.952-1.022-2.123-1.022-3.514 0-1.381.345-2.548 1.036-3.5zm1.316 5.726c.373.607.821.91 1.344.91.523 0 .971-.303 1.344-.91.373-.616.56-1.358.56-2.226 0-.868-.187-1.605-.56-2.212-.373-.616-.821-.924-1.344-.924-.523 0-.971.308-1.344.924-.373.607-.56 1.344-.56 2.212 0 .868.187 1.61.56 2.226zm11.76-4.466h1.792v6.272c0 1.456-.331 2.567-.994 3.332-.653.765-1.591 1.148-2.814 1.148-.438 0-.868-.051-1.288-.154a4.255 4.255 0 01-1.078-.378 6.678 6.678 0 01-.658-.364 3.526 3.526 0 01-.336-.224l.84-1.582c.262.224.616.429 1.064.616.448.196.934.294 1.456.294.607 0 1.092-.205 1.456-.616.374-.401.56-.915.56-1.54v-.602c-.56.644-1.269.966-2.128.966-.961 0-1.782-.359-2.464-1.078-.672-.728-1.008-1.601-1.008-2.618s.336-1.885 1.008-2.604c.682-.728 1.503-1.092 2.464-1.092.859 0 1.568.322 2.128.966v-.742zm-3.248 4.816c.374.373.822.56 1.344.56.523 0 .971-.187 1.344-.56a1.83 1.83 0 00.56-1.344 1.83 1.83 0 00-.56-1.344 1.833 1.833 0 00-1.344-.56c-.522 0-.97.187-1.344.56-.373.373-.56.821-.56 1.344 0 .523.187.971.56 1.344zm6.385-7.952l1.792-.672c1.194 2.165 1.792 4.331 1.792 6.496s-.598 4.331-1.792 6.496l-1.792-.672c1.194-1.811 1.792-3.752 1.792-5.824s-.598-4.013-1.792-5.824z" fill="#000"/>
    <path d="M39.75 203.88c.653-.933 1.489-1.4 2.506-1.4 1.017 0 1.848.467 2.492 1.4.653.924.98 2.063.98 3.416 0 1.353-.327 2.497-.98 3.43-.644.924-1.475 1.386-2.492 1.386-1.027 0-1.862-.462-2.506-1.386-.644-.933-.966-2.077-.966-3.43 0-1.353.322-2.492.966-3.416zm.994 5.88c.42.672.924 1.008 1.512 1.008s1.087-.336 1.498-1.008c.42-.681.63-1.503.63-2.464 0-.961-.21-1.778-.63-2.45-.41-.681-.91-1.022-1.498-1.022s-1.092.341-1.512 1.022c-.41.672-.616 1.489-.616 2.45 0 .961.205 1.783.616 2.464zm10.212-4.032c.82 0 1.535.28 2.142.84.616.551.924 1.302.924 2.254s-.332 1.741-.994 2.366a3.357 3.357 0 01-2.366.924c-.915 0-1.69-.28-2.324-.84-.635-.569-.98-1.26-1.036-2.072l1.4-.14c.046.457.252.859.616 1.204.364.336.812.504 1.344.504.55 0 1.022-.182 1.414-.546.4-.373.602-.826.602-1.358 0-.523-.168-.952-.504-1.288-.336-.336-.77-.504-1.302-.504-.383 0-.761.098-1.134.294a2.137 2.137 0 00-.854.826h-1.372l.84-5.6h4.774v1.344H49.5l-.364 2.408c.494-.411 1.1-.616 1.82-.616zm5.639 1.456a.972.972 0 01-.714-.294.972.972 0 01-.294-.714c0-.289.098-.527.294-.714a.972.972 0 01.714-.294c.29 0 .527.098.714.294a.944.944 0 01.294.714c0 .28-.098.518-.294.714a.943.943 0 01-.714.294zm0 4.928a.972.972 0 01-.714-.294.972.972 0 01-.294-.714c0-.28.098-.518.294-.714a.972.972 0 01.714-.294c.29 0 .527.098.714.294a.972.972 0 01.294.714c0 .28-.098.518-.294.714a.943.943 0 01-.714.294zm7.95-5.082c.364.121.676.378.938.77.27.392.406.821.406 1.288 0 .803-.28 1.507-.84 2.114-.55.607-1.39.91-2.52.91-.999 0-1.792-.275-2.38-.826-.588-.551-.915-1.283-.98-2.198l1.344-.224c.158 1.269.858 1.904 2.1 1.904.597 0 1.068-.149 1.414-.448a1.42 1.42 0 00.518-1.12c0-.532-.21-.887-.63-1.064-.41-.187-1.022-.28-1.834-.28v-1.344c.242 0 .476-.019.7-.056a6.46 6.46 0 00.714-.196 1.35 1.35 0 00.602-.42 1.04 1.04 0 00.224-.672c0-.345-.15-.653-.448-.924-.299-.28-.719-.42-1.26-.42-.654 0-1.12.163-1.4.49-.27.327-.434.761-.49 1.302l-1.344-.224c.074-.849.401-1.545.98-2.086.588-.551 1.311-.826 2.17-.826.998 0 1.768.275 2.31.826.55.551.826 1.134.826 1.75 0 .877-.374 1.535-1.12 1.974zm2.909-4.438h6.72L70.142 212h-1.568l3.472-8.064h-4.592v-1.344zm11.423 2.576c.97 0 1.773.336 2.408 1.008.635.672.952 1.493.952 2.464 0 .971-.317 1.792-.952 2.464-.635.672-1.437 1.008-2.408 1.008-.933 0-1.68-.364-2.24-1.092v4.564h-1.344V205.28h1.344v.98c.56-.728 1.307-1.092 2.24-1.092zm-1.624 4.984c.42.411.924.616 1.512.616s1.088-.205 1.498-.616c.42-.42.63-.924.63-1.512s-.21-1.087-.63-1.498c-.41-.42-.91-.63-1.498-.63s-1.092.21-1.512.63a2.04 2.04 0 00-.616 1.498c0 .588.206 1.092.616 1.512zm13.924-4.984c.747 0 1.33.266 1.75.798.42.532.63 1.293.63 2.282V212h-1.344v-3.752c0-1.157-.429-1.736-1.288-1.736-.429 0-.807.163-1.134.49-.326.327-.49.761-.49 1.302V212h-1.344v-3.752c0-1.157-.429-1.736-1.288-1.736-.429 0-.807.163-1.134.49-.326.327-.49.761-.49 1.302V212h-1.344v-6.72h1.344v.784c.168-.187.313-.331.434-.434.122-.112.308-.215.56-.308.262-.103.556-.154.882-.154.878 0 1.522.355 1.932 1.064.355-.383.71-.653 1.064-.812.364-.168.784-.252 1.26-.252zm12.241 3.696H99.61v-1.12h3.808v1.12zm9.62-2.352c1.166.224 2.02.546 2.562.966.541.411.812.999.812 1.764 0 .84-.322 1.531-.966 2.072-.644.532-1.508.798-2.59.798a5.462 5.462 0 01-1.484-.196 4.376 4.376 0 01-1.148-.518 7.922 7.922 0 01-.658-.49 2.547 2.547 0 01-.322-.322l.672-1.204c.83.924 1.82 1.386 2.968 1.386.7 0 1.236-.131 1.61-.392.382-.261.574-.621.574-1.078 0-.709-.714-1.19-2.142-1.442-1.242-.215-2.114-.537-2.618-.966-.495-.439-.742-.999-.742-1.68 0-.793.298-1.447.896-1.96.597-.513 1.428-.77 2.492-.77 1.222 0 2.235.373 3.038 1.12l-.644 1.218c-.682-.663-1.489-.994-2.422-.994-.644 0-1.144.117-1.498.35-.346.233-.518.56-.518.98 0 .355.163.635.49.84.326.196.872.369 1.638.518zm8.383-1.344c.849 0 1.493.266 1.932.798.448.523.672 1.283.672 2.282V212h-1.344v-3.752c0-.569-.117-.999-.35-1.288-.224-.299-.612-.448-1.162-.448-.448 0-.868.168-1.26.504-.392.327-.588.756-.588 1.288V212h-1.344v-9.856h1.344v3.92c.522-.597 1.222-.896 2.1-.896zm4.95 1.022a3.358 3.358 0 012.464-1.022c.961 0 1.778.341 2.45 1.022a3.314 3.314 0 011.022 2.45 3.36 3.36 0 01-1.022 2.464c-.672.672-1.489 1.008-2.45 1.008a3.38 3.38 0 01-2.464-1.008 3.382 3.382 0 01-1.008-2.464c0-.961.336-1.778 1.008-2.45zm.966 3.948c.42.42.919.63 1.498.63.578 0 1.078-.21 1.498-.63.42-.42.63-.919.63-1.498s-.21-1.078-.63-1.498c-.42-.42-.92-.63-1.498-.63-.579 0-1.078.21-1.498.63-.42.42-.63.919-.63 1.498s.21 1.078.63 1.498zm7.665-3.416a2.582 2.582 0 011.05-1.134c.467-.28 1.013-.42 1.638-.42v1.47c-.392-.121-.802-.103-1.232.056-.97.373-1.456 1.143-1.456 2.31V212h-1.344v-6.72h1.344v1.442zm4.819 3.08v-3.178h-.896v-1.344h.896v-2.688h1.344v2.688h1.344v1.344h-1.344v2.8c0 .644.089 1.031.266 1.162.271.205.63.196 1.078-.028v1.358c-.27.131-.602.196-.994.196-1.129 0-1.694-.77-1.694-2.31zm10.413-1.134c0 .205-.014.401-.042.588h-5.082c.102.504.35.882.742 1.134.401.252.882.378 1.442.378.728 0 1.409-.224 2.044-.672l.448 1.204c-.644.541-1.484.812-2.52.812-1.13 0-2.002-.327-2.618-.98-.607-.663-.91-1.493-.91-2.492 0-.989.303-1.815.91-2.478.616-.663 1.428-.994 2.436-.994.914 0 1.666.317 2.254.952.597.635.896 1.484.896 2.548zm-5.124-.644h3.752c-.019-.383-.182-.728-.49-1.036-.308-.317-.756-.476-1.344-.476-.57 0-1.027.159-1.372.476-.346.317-.528.663-.546 1.036zm11.843-5.88h1.344V212h-1.344v-.98c-.56.728-1.307 1.092-2.24 1.092-.971 0-1.773-.336-2.408-1.008-.635-.672-.952-1.493-.952-2.464 0-.971.317-1.792.952-2.464.635-.672 1.437-1.008 2.408-1.008.933 0 1.68.364 2.24 1.092v-4.116zm-3.64 8.008c.42.411.924.616 1.512.616s1.087-.205 1.498-.616c.42-.42.63-.924.63-1.512s-.21-1.087-.63-1.498c-.411-.42-.91-.63-1.498-.63s-1.092.21-1.512.63c-.411.411-.616.91-.616 1.498s.205 1.092.616 1.512zm11.042-4.872h.896v-.812c0-.793.187-1.395.56-1.806.373-.42.868-.63 1.484-.63.336 0 .625.075.868.224v1.316a1.18 1.18 0 00-.672-.196c-.597 0-.896.378-.896 1.134v.77h1.568v1.344h-1.568V212h-1.344v-5.376h-.896v-1.344zm7.982 6.832c-.812 0-1.451-.252-1.918-.756-.457-.504-.686-1.241-.686-2.212v-3.864h1.344v3.752c0 .569.112 1.003.336 1.302.234.289.626.434 1.176.434.448 0 .868-.163 1.26-.49.392-.336.588-.77.588-1.302v-3.696h1.344V212h-1.344v-.784c-.522.597-1.222.896-2.1.896zm5.345-9.968h1.344V212h-1.344v-9.856zm3.254 0h1.344V212h-1.344v-9.856zm7.804 3.136h1.498l-4.55 10.304h-1.47l1.792-4.018-2.716-6.286h1.498l1.974 4.648 1.974-4.648zm8.442-3.136v4.116c.56-.728 1.307-1.092 2.24-1.092.971 0 1.773.336 2.408 1.008.635.672.952 1.493.952 2.464 0 .971-.317 1.792-.952 2.464-.635.672-1.437 1.008-2.408 1.008-.933 0-1.68-.364-2.24-1.092v.98h-1.344v-9.856h1.344zm.616 8.008c.42.411.924.616 1.512.616s1.087-.205 1.498-.616c.42-.42.63-.924.63-1.512s-.21-1.087-.63-1.498c-.411-.42-.91-.63-1.498-.63s-1.092.21-1.512.63c-.411.411-.616.91-.616 1.498s.205 1.092.616 1.512zm10.998-4.872h1.498l-4.55 10.304h-1.47l1.792-4.018-2.716-6.286h1.498l1.974 4.648 1.974-4.648zm7.841-1.4c.653-.933 1.488-1.4 2.506-1.4 1.017 0 1.848.467 2.492 1.4.653.924.98 2.063.98 3.416 0 1.353-.327 2.497-.98 3.43-.644.924-1.475 1.386-2.492 1.386-1.027 0-1.862-.462-2.506-1.386-.644-.933-.966-2.077-.966-3.43 0-1.353.322-2.492.966-3.416zm.994 5.88c.42.672.924 1.008 1.512 1.008s1.087-.336 1.498-1.008c.42-.681.63-1.503.63-2.464 0-.961-.21-1.778-.63-2.45-.411-.681-.91-1.022-1.498-1.022s-1.092.341-1.512 1.022c-.411.672-.616 1.489-.616 2.45 0 .961.205 1.783.616 2.464zm10.211-4.032c.822 0 1.536.28 2.142.84.616.551.924 1.302.924 2.254s-.331 1.741-.994 2.366a3.355 3.355 0 01-2.366.924c-.914 0-1.689-.28-2.324-.84-.634-.569-.98-1.26-1.036-2.072l1.4-.14c.047.457.252.859.616 1.204.364.336.812.504 1.344.504.551 0 1.022-.182 1.414-.546.402-.373.602-.826.602-1.358 0-.523-.168-.952-.504-1.288-.336-.336-.77-.504-1.302-.504-.382 0-.76.098-1.134.294a2.141 2.141 0 00-.854.826h-1.372l.84-5.6h4.774v1.344h-3.626l-.364 2.408c.495-.411 1.102-.616 1.82-.616zm7.837 3.444c-.942 0-1.712-.308-2.31-.924a3.114 3.114 0 01-.896-2.226c0-1.045.322-1.895.966-2.548.654-.663 1.489-.994 2.506-.994 1.027 0 1.862.331 2.506.994.644.663.966 1.545.966 2.646 0 1.045-.275 2.114-.826 3.206-.55 1.083-1.372 1.974-2.464 2.674h-2.38c.066-.019.159-.051.28-.098.122-.056.35-.173.686-.35a7.41 7.41 0 00.938-.616c.299-.224.616-.527.952-.91a5.45 5.45 0 00.84-1.26c-.485.271-1.073.406-1.764.406zm1.792-4.76c-.401-.392-.91-.588-1.526-.588s-1.124.196-1.526.588a1.94 1.94 0 00-.602 1.442c0 .569.192 1.041.574 1.414.392.373.91.56 1.554.56.616 0 1.125-.187 1.526-.56.402-.383.602-.854.602-1.414 0-.569-.2-1.05-.602-1.442zm12.676 2.45c.019.168.028.313.028.434 0 1.344-.439 2.483-1.316 3.416-.868.933-1.96 1.4-3.276 1.4-1.325 0-2.459-.471-3.402-1.414-.943-.943-1.414-2.077-1.414-3.402 0-1.325.471-2.459 1.414-3.402.943-.943 2.077-1.414 3.402-1.414.924 0 1.745.238 2.464.714.719.467 1.283 1.106 1.694 1.918l-1.358.392a3.072 3.072 0 00-1.148-1.218 3.016 3.016 0 00-1.652-.462 3.36 3.36 0 00-2.464 1.022c-.672.672-1.008 1.489-1.008 2.45 0 .961.336 1.783 1.008 2.464a3.382 3.382 0 002.464 1.008c.831 0 1.526-.238 2.086-.714.56-.485.919-1.106 1.078-1.862h-3.5v-1.344l4.9.014zm8.206 5.138h-1.568l-2.338-3.248h-1.47V212h-1.344v-9.408h2.912c1.185 0 2.077.271 2.674.812.607.541.91 1.274.91 2.198 0 .737-.196 1.381-.588 1.932-.383.541-.919.905-1.61 1.092l2.422 3.374zm-5.376-8.064v3.472h2.002c.532 0 .966-.14 1.302-.42.336-.289.504-.723.504-1.302 0-.588-.168-1.027-.504-1.316-.327-.289-.751-.434-1.274-.434h-2.03zm10.858 6.832c.98 0 1.797-.341 2.45-1.022l.574 1.26a4.05 4.05 0 01-1.372.826 4.627 4.627 0 01-1.568.28c-1.353 0-2.511-.471-3.472-1.414-.952-.943-1.428-2.077-1.428-3.402 0-1.325.476-2.459 1.428-3.402.961-.943 2.119-1.414 3.472-1.414.532 0 1.059.093 1.582.28.523.187.975.457 1.358.812l-.574 1.26c-.653-.672-1.47-1.008-2.45-1.008a3.36 3.36 0 00-2.464 1.022c-.672.672-1.008 1.489-1.008 2.45 0 .961.336 1.783 1.008 2.464a3.382 3.382 0 002.464 1.008zm4.587-7.392l2.912-1.008V212h-1.344v-7.896l-1.568.504v-1.232zm5.896.504c.654-.933 1.489-1.4 2.506-1.4 1.018 0 1.848.467 2.492 1.4.654.924.98 2.063.98 3.416 0 1.353-.326 2.497-.98 3.43-.644.924-1.474 1.386-2.492 1.386-1.026 0-1.862-.462-2.506-1.386-.644-.933-.966-2.077-.966-3.43 0-1.353.322-2.492.966-3.416zm.994 5.88c.42.672.924 1.008 1.512 1.008s1.088-.336 1.498-1.008c.42-.681.63-1.503.63-2.464 0-.961-.21-1.778-.63-2.45-.41-.681-.91-1.022-1.498-1.022s-1.092.341-1.512 1.022c-.41.672-.616 1.489-.616 2.45 0 .961.206 1.783.616 2.464zm7.524-5.88c.653-.933 1.489-1.4 2.506-1.4 1.017 0 1.848.467 2.492 1.4.653.924.98 2.063.98 3.416 0 1.353-.327 2.497-.98 3.43-.644.924-1.475 1.386-2.492 1.386-1.027 0-1.862-.462-2.506-1.386-.644-.933-.966-2.077-.966-3.43 0-1.353.322-2.492.966-3.416zm.994 5.88c.42.672.924 1.008 1.512 1.008s1.087-.336 1.498-1.008c.42-.681.63-1.503.63-2.464 0-.961-.21-1.778-.63-2.45-.411-.681-.91-1.022-1.498-1.022s-1.092.341-1.512 1.022c-.411.672-.616 1.489-.616 2.45 0 .961.205 1.783.616 2.464zm12.382-.672h1.12v1.344h-1.12V212h-1.344v-1.568h-4.928l6.272-8.064v6.72zm-1.344 0v-3.108l-2.268 3.108h2.268z" fill="#666B73"/>
    <path fill="#EFEFEF" d="M14 243h452v1H14zm0-99h452v1H14z"/>
    <path d="M686.608 26h-3.072V9.872h3.072V26zm3.837-3.384v-5.832h-1.536v-2.688h1.536V9.872h3.072v4.224h2.304v2.688h-2.304v4.992c0 .848.192 1.376.576 1.584.4.208.976.192 1.728-.048V26c-.64.256-1.392.384-2.256.384-1.056 0-1.84-.336-2.352-1.008-.512-.688-.768-1.608-.768-2.76zm19.016-2.568c0 .224-.016.544-.048.96h-8.664c.224.816.632 1.472 1.224 1.968.608.48 1.376.72 2.304.72 1.328 0 2.512-.368 3.552-1.104l.888 2.664c-.128.08-.312.184-.552.312-.224.128-.728.296-1.512.504a9.234 9.234 0 01-2.424.312c-2.208 0-3.872-.592-4.992-1.776-1.12-1.184-1.68-2.704-1.68-4.56 0-1.856.528-3.376 1.584-4.56 1.056-1.184 2.576-1.776 4.56-1.776 1.856 0 3.28.56 4.272 1.68.992 1.104 1.488 2.656 1.488 4.656zm-8.64-1.344h5.376c0-.576-.24-1.104-.72-1.584-.464-.48-1.12-.72-1.968-.72-.72 0-1.352.256-1.896.768-.528.496-.792 1.008-.792 1.536zm23.615-4.992c1.408 0 2.528.464 3.36 1.392.832.912 1.248 2.24 1.248 3.984V26h-3.072v-6.528c0-.944-.144-1.624-.432-2.04-.272-.432-.768-.648-1.488-.648-1.536 0-2.304 1.024-2.304 3.072V26h-3.072v-6.528c0-.928-.152-1.608-.456-2.04-.304-.432-.792-.648-1.464-.648-1.536 0-2.304 1.024-2.304 3.072V26h-3.072V14.096h3.072v1.152c.816-1.024 1.84-1.536 3.072-1.536 1.504 0 2.616.536 3.336 1.608.96-1.072 2.152-1.608 3.576-1.608zm21.249 0c1.392 0 2.48.456 3.264 1.368.8.912 1.2 2.248 1.2 4.008V26h-3.072v-6.528c0-.928-.184-1.608-.552-2.04-.368-.432-.952-.648-1.752-.648-.768 0-1.408.256-1.92.768s-.768 1.28-.768 2.304V26h-3.072V14.096h3.072v1.152c.864-1.024 2.064-1.536 3.6-1.536zm15.988.384h3.072V26h-3.072v-1.272c-.96 1.104-2.176 1.656-3.648 1.656-1.648 0-3.056-.616-4.224-1.848-1.152-1.248-1.728-2.744-1.728-4.488 0-1.744.576-3.232 1.728-4.464 1.168-1.248 2.576-1.872 4.224-1.872 1.472 0 2.688.552 3.648 1.656v-1.272zm-5.568 8.256c.64.64 1.408.96 2.304.96.896 0 1.664-.32 2.304-.96.64-.64.96-1.408.96-2.304 0-.896-.32-1.664-.96-2.304-.64-.64-1.408-.96-2.304-.96-.896 0-1.664.32-2.304.96-.64.64-.96 1.408-.96 2.304 0 .896.32 1.664.96 2.304zm24.581-8.64c1.408 0 2.528.464 3.36 1.392.832.912 1.248 2.24 1.248 3.984V26h-3.072v-6.528c0-.944-.144-1.624-.432-2.04-.272-.432-.768-.648-1.488-.648-1.536 0-2.304 1.024-2.304 3.072V26h-3.072v-6.528c0-.928-.152-1.608-.456-2.04-.304-.432-.792-.648-1.464-.648-1.536 0-2.304 1.024-2.304 3.072V26h-3.072V14.096h3.072v1.152c.816-1.024 1.84-1.536 3.072-1.536 1.504 0 2.616.536 3.336 1.608.96-1.072 2.152-1.608 3.576-1.608zm18.423 6.336c0 .224-.015.544-.047.96h-8.664c.224.816.632 1.472 1.224 1.968.608.48 1.376.72 2.304.72 1.328 0 2.512-.368 3.552-1.104l.888 2.664c-.128.08-.312.184-.552.312-.224.128-.728.296-1.512.504a9.234 9.234 0 01-2.424.312c-2.208 0-3.872-.592-4.992-1.776-1.12-1.184-1.68-2.704-1.68-4.56 0-1.856.528-3.376 1.584-4.56 1.056-1.184 2.576-1.776 4.56-1.776 1.856 0 3.28.56 4.272 1.68.992 1.104 1.487 2.656 1.487 4.656zm-8.639-1.344h5.376c0-.576-.24-1.104-.72-1.584-.464-.48-1.12-.72-1.968-.72-.72 0-1.352.256-1.896.768-.528.496-.792 1.008-.792 1.536zM524 72h436v2H524z" fill="#004C79"/>
    <path fill="#004C79" d="M741 39h2v34h-2z"/>
    <path d="M495.768 259.872h11.52v3.072h-4.224V276h-3.072v-13.056h-4.224v-3.072zm16.847 2.088c-.4.4-.896.6-1.488.6s-1.096-.2-1.512-.6c-.4-.416-.6-.92-.6-1.512s.2-1.088.6-1.488a2.06 2.06 0 011.512-.624c.592 0 1.088.208 1.488.624.416.4.624.896.624 1.488a2.06 2.06 0 01-.624 1.512zM509.591 276v-11.904h3.072V276h-3.072zm19.009-12.288c1.408 0 2.528.464 3.36 1.392.832.912 1.248 2.24 1.248 3.984V276h-3.072v-6.528c0-.944-.144-1.624-.432-2.04-.272-.432-.768-.648-1.488-.648-1.536 0-2.304 1.024-2.304 3.072V276h-3.072v-6.528c0-.928-.152-1.608-.456-2.04-.304-.432-.792-.648-1.464-.648-1.536 0-2.304 1.024-2.304 3.072V276h-3.072v-11.904h3.072v1.152c.816-1.024 1.84-1.536 3.072-1.536 1.504 0 2.616.536 3.336 1.608.96-1.072 2.152-1.608 3.576-1.608zm18.424 6.336c0 .224-.016.544-.048.96h-8.664c.224.816.632 1.472 1.224 1.968.608.48 1.376.72 2.304.72 1.328 0 2.512-.368 3.552-1.104l.888 2.664c-.128.08-.312.184-.552.312-.224.128-.728.296-1.512.504a9.234 9.234 0 01-2.424.312c-2.208 0-3.872-.592-4.992-1.776-1.12-1.184-1.68-2.704-1.68-4.56 0-1.856.528-3.376 1.584-4.56 1.056-1.184 2.576-1.776 4.56-1.776 1.856 0 3.28.56 4.272 1.68.992 1.104 1.488 2.656 1.488 4.656zm-8.64-1.344h5.376c0-.576-.24-1.104-.72-1.584-.464-.48-1.12-.72-1.968-.72-.72 0-1.352.256-1.896.768-.528.496-.792 1.008-.792 1.536zm16.141-.288c1.84.288 3.096.76 3.768 1.416.672.656 1.008 1.432 1.008 2.328 0 1.248-.472 2.264-1.416 3.048-.928.784-2.2 1.176-3.816 1.176-1.248 0-2.376-.192-3.384-.576-.992-.384-1.704-.768-2.136-1.152l1.008-2.88c.512.48 1.16.88 1.944 1.2.8.304 1.56.464 2.28.48 1.632.032 2.448-.312 2.448-1.032 0-.256-.152-.448-.456-.576-.288-.128-.84-.264-1.656-.408-1.072-.176-1.968-.392-2.688-.648-.704-.272-1.232-.584-1.584-.936-.352-.368-.592-.744-.72-1.128-.128-.384-.192-.84-.192-1.368 0-.992.488-1.848 1.464-2.568s2.224-1.08 3.744-1.08c1.6 0 3.144.384 4.632 1.152l-.864 2.784c-.336-.24-.864-.464-1.584-.672a8.504 8.504 0 00-2.184-.336c-1.424-.032-2.136.208-2.136.72 0 .4.48.688 1.44.864.144.032.376.072.696.12l.384.072zm7.842 4.2v-5.832h-1.536v-2.688h1.536v-4.224h3.072v4.224h2.304v2.688h-2.304v4.992c0 .848.192 1.376.576 1.584.4.208.976.192 1.728-.048V276c-.64.256-1.392.384-2.256.384-1.056 0-1.84-.336-2.352-1.008-.512-.688-.768-1.608-.768-2.76zm16.899-8.52h3.072V276h-3.072v-1.272c-.96 1.104-2.176 1.656-3.648 1.656-1.648 0-3.056-.616-4.224-1.848-1.152-1.248-1.728-2.744-1.728-4.488 0-1.744.576-3.232 1.728-4.464 1.168-1.248 2.576-1.872 4.224-1.872 1.472 0 2.688.552 3.648 1.656v-1.272zm-5.568 8.256c.64.64 1.408.96 2.304.96.896 0 1.664-.32 2.304-.96.64-.64.96-1.408.96-2.304 0-.896-.32-1.664-.96-2.304-.64-.64-1.408-.96-2.304-.96-.896 0-1.664.32-2.304.96-.64.64-.96 1.408-.96 2.304 0 .896.32 1.664.96 2.304zm24.582-8.64c1.408 0 2.528.464 3.36 1.392.832.912 1.248 2.24 1.248 3.984V276h-3.072v-6.528c0-.944-.144-1.624-.432-2.04-.272-.432-.768-.648-1.488-.648-1.536 0-2.304 1.024-2.304 3.072V276h-3.072v-6.528c0-.928-.152-1.608-.456-2.04-.304-.432-.792-.648-1.464-.648-1.536 0-2.304 1.024-2.304 3.072V276h-3.072v-11.904h3.072v1.152c.816-1.024 1.84-1.536 3.072-1.536 1.504 0 2.616.536 3.336 1.608.96-1.072 2.152-1.608 3.576-1.608zm13.82 0c1.648 0 3.048.624 4.2 1.872 1.168 1.232 1.752 2.72 1.752 4.464 0 1.744-.584 3.24-1.752 4.488-1.152 1.232-2.552 1.848-4.2 1.848-1.472 0-2.688-.552-3.648-1.656v7.416h-3.072v-18.048h3.072v1.272c.96-1.104 2.176-1.656 3.648-1.656zm-2.688 8.64c.64.64 1.408.96 2.304.96.896 0 1.664-.32 2.304-.96.64-.64.96-1.408.96-2.304 0-.896-.32-1.664-.96-2.304-.64-.64-1.408-.96-2.304-.96-.896 0-1.664.32-2.304.96-.64.64-.96 1.408-.96 2.304 0 .896.32 1.664.96 2.304z" fill="#366B00"/>
    <path d="M694.608 272.928h6.528V276h-9.6v-16.128h3.072v13.056zm17.666-8.832h3.072V276h-3.072v-1.272c-.96 1.104-2.176 1.656-3.648 1.656-1.648 0-3.056-.616-4.224-1.848-1.152-1.248-1.728-2.744-1.728-4.488 0-1.744.576-3.232 1.728-4.464 1.168-1.248 2.576-1.872 4.224-1.872 1.472 0 2.688.552 3.648 1.656v-1.272zm-5.568 8.256c.64.64 1.408.96 2.304.96.896 0 1.664-.32 2.304-.96.64-.64.96-1.408.96-2.304 0-.896-.32-1.664-.96-2.304-.64-.64-1.408-.96-2.304-.96-.896 0-1.664.32-2.304.96-.64.64-.96 1.408-.96 2.304 0 .896.32 1.664.96 2.304zm12.481.264v-5.832h-1.536v-2.688h1.536v-4.224h3.072v4.224h2.304v2.688h-2.304v4.992c0 .848.192 1.376.576 1.584.4.208.976.192 1.728-.048V276c-.64.256-1.392.384-2.256.384-1.056 0-1.84-.336-2.352-1.008-.512-.688-.768-1.608-.768-2.76zm19.016-2.568c0 .224-.016.544-.048.96h-8.664c.224.816.632 1.472 1.224 1.968.608.48 1.376.72 2.304.72 1.328 0 2.512-.368 3.552-1.104l.888 2.664c-.128.08-.312.184-.552.312-.224.128-.728.296-1.512.504a9.234 9.234 0 01-2.424.312c-2.208 0-3.872-.592-4.992-1.776-1.12-1.184-1.68-2.704-1.68-4.56 0-1.856.528-3.376 1.584-4.56 1.056-1.184 2.576-1.776 4.56-1.776 1.856 0 3.28.56 4.272 1.68.992 1.104 1.488 2.656 1.488 4.656zm-8.64-1.344h5.376c0-.576-.24-1.104-.72-1.584-.464-.48-1.12-.72-1.968-.72-.72 0-1.352.256-1.896.768-.528.496-.792 1.008-.792 1.536zm16.142-.288c1.84.288 3.096.76 3.768 1.416.672.656 1.008 1.432 1.008 2.328 0 1.248-.472 2.264-1.416 3.048-.928.784-2.2 1.176-3.816 1.176-1.248 0-2.376-.192-3.384-.576-.992-.384-1.704-.768-2.136-1.152l1.008-2.88c.512.48 1.16.88 1.944 1.2.8.304 1.56.464 2.28.48 1.632.032 2.448-.312 2.448-1.032 0-.256-.152-.448-.456-.576-.288-.128-.84-.264-1.656-.408-1.072-.176-1.968-.392-2.688-.648-.704-.272-1.232-.584-1.584-.936-.352-.368-.592-.744-.72-1.128-.128-.384-.192-.84-.192-1.368 0-.992.488-1.848 1.464-2.568s2.224-1.08 3.744-1.08c1.6 0 3.144.384 4.632 1.152l-.864 2.784c-.336-.24-.864-.464-1.584-.672a8.504 8.504 0 00-2.184-.336c-1.424-.032-2.136.208-2.136.72 0 .4.48.688 1.44.864.144.032.376.072.696.12l.384.072zm7.841 4.2v-5.832h-1.536v-2.688h1.536v-4.224h3.072v4.224h2.304v2.688h-2.304v4.992c0 .848.192 1.376.576 1.584.4.208.976.192 1.728-.048V276c-.64.256-1.392.384-2.256.384-1.056 0-1.84-.336-2.352-1.008-.512-.688-.768-1.608-.768-2.76zm24.189-8.52h3.072V276h-3.072v-1.272c-.96 1.104-2.176 1.656-3.648 1.656-1.648 0-3.056-.616-4.224-1.848-1.152-1.248-1.728-2.744-1.728-4.488 0-1.744.576-3.232 1.728-4.464 1.168-1.248 2.576-1.872 4.224-1.872 1.472 0 2.688.552 3.648 1.656v-1.272zm-5.568 8.256c.64.64 1.408.96 2.304.96.896 0 1.664-.32 2.304-.96.64-.64.96-1.408.96-2.304 0-.896-.32-1.664-.96-2.304-.64-.64-1.408-.96-2.304-.96-.896 0-1.664.32-2.304.96-.64.64-.96 1.408-.96 2.304 0 .896.32 1.664.96 2.304zm17.29.96c1.12 0 2.04-.36 2.76-1.08l1.272 2.736c-.976.944-2.352 1.416-4.128 1.416-2.032 0-3.648-.6-4.848-1.8-1.184-1.216-1.776-2.728-1.776-4.536 0-1.808.6-3.312 1.8-4.512 1.2-1.216 2.808-1.824 4.824-1.824 1.696 0 3.072.472 4.128 1.416l-1.272 2.76c-.736-.736-1.656-1.104-2.76-1.104-1.104 0-1.992.312-2.664.936-.656.624-.984 1.4-.984 2.328 0 .928.328 1.704.984 2.328.672.624 1.56.936 2.664.936zm7.097-.696v-5.832h-1.536v-2.688h1.536v-4.224h3.072v4.224h2.304v2.688h-2.304v4.992c0 .848.192 1.376.576 1.584.4.208.976.192 1.728-.048V276c-.64.256-1.392.384-2.256.384-1.056 0-1.84-.336-2.352-1.008-.512-.688-.768-1.608-.768-2.76zm11.092-10.656c-.4.4-.896.6-1.488.6s-1.096-.2-1.512-.6c-.4-.416-.6-.92-.6-1.512s.2-1.088.6-1.488a2.06 2.06 0 011.512-.624c.592 0 1.088.208 1.488.624.416.4.624.896.624 1.488a2.06 2.06 0 01-.624 1.512zM804.622 276v-11.904h3.072V276h-3.072zm6.846-10.44c1.232-1.232 2.728-1.848 4.488-1.848 1.76 0 3.256.616 4.488 1.848 1.232 1.232 1.848 2.728 1.848 4.488 0 1.76-.616 3.256-1.848 4.488-1.232 1.232-2.728 1.848-4.488 1.848-1.76 0-3.256-.616-4.488-1.848-1.232-1.232-1.848-2.728-1.848-4.488 0-1.76.616-3.256 1.848-4.488zm2.184 6.792c.64.64 1.408.96 2.304.96.896 0 1.664-.32 2.304-.96.64-.64.96-1.408.96-2.304 0-.896-.32-1.664-.96-2.304-.64-.64-1.408-.96-2.304-.96-.896 0-1.664.32-2.304.96-.64.64-.96 1.408-.96 2.304 0 .896.32 1.664.96 2.304zm17.236-8.64c1.392 0 2.48.456 3.264 1.368.8.912 1.2 2.248 1.2 4.008V276h-3.072v-6.528c0-.928-.184-1.608-.552-2.04-.368-.432-.952-.648-1.752-.648-.768 0-1.408.256-1.92.768s-.768 1.28-.768 2.304V276h-3.072v-11.904h3.072v1.152c.864-1.024 2.064-1.536 3.6-1.536z" fill="#800040"/>
    <path fill="#366B00" d="M525 216h68v2h-68z"/>
    <path fill="#800040" d="M613 216h303v2H613z"/>
    <path fill="#366B00" d="M558 217h2v34h-2z"/>
    <path fill="#800040" d="M763 217h2v34h-2z"/>
  </g>
  <defs>
    <clipPath id="ph_item_cards__clip0">
      <path fill="#fff" d="M0 0h1065v288H0z"/>
    </clipPath>
    <clipPath id="ph_item_cards__clip1">
      <path fill="#fff" transform="translate(495 84.38)" d="M0 0h548v121.239H0z"/>
    </clipPath>
  </defs>
</svg>
