<svg width="1065" height="288" fill="none" xmlns="http://www.w3.org/2000/svg">
  <g clip-path="url(#ph_item_cards__clip0)">
    <path fill="#fff" d="M14 44h452v100H14z"/>
    <path d="M45.392 82l-.7-1.792h-3.976l-.7 1.792H38l3.892-9.408h1.624L47.408 82h-2.016zm-3.99-3.584h2.604l-1.302-3.36-1.302 3.36zm8.692-1.89c.224-.513.598-.91 1.12-1.19.523-.29 1.12-.457 1.792-.504v2.114a2.526 2.526 0 00-1.344 0c-.43.121-.798.369-1.106.742-.308.364-.462.83-.462 1.4V82h-1.792v-6.944h1.792v1.47zm9.184-1.47h1.793V82h-1.792v-.742c-.56.644-1.27.966-2.129.966-.96 0-1.782-.36-2.463-1.078-.672-.728-1.008-1.6-1.008-2.618 0-1.017.335-1.885 1.008-2.604.68-.728 1.502-1.092 2.464-1.092.858 0 1.567.322 2.127.966v-.742zm-3.247 4.816c.373.373.82.56 1.343.56s.971-.187 1.344-.56a1.83 1.83 0 00.56-1.344c0-.523-.186-.97-.56-1.344a1.833 1.833 0 00-1.344-.56c-.522 0-.97.187-1.343.56a1.83 1.83 0 00-.56 1.344c0 .523.186.97.56 1.344zm10.614-5.04c.812 0 1.447.266 1.904.798.467.532.7 1.311.7 2.338V82h-1.792v-3.808c0-.541-.107-.938-.322-1.19-.214-.252-.555-.378-1.022-.378-.448 0-.82.15-1.12.448-.298.299-.448.747-.448 1.344V82h-1.792v-9.856h1.792v3.584c.504-.597 1.204-.896 2.1-.896zm4.805 1.078c.718-.719 1.591-1.078 2.618-1.078 1.026 0 1.9.36 2.618 1.078.718.719 1.078 1.591 1.078 2.618s-.36 1.9-1.078 2.618c-.719.719-1.592 1.078-2.618 1.078-1.027 0-1.9-.36-2.618-1.078-.719-.719-1.078-1.591-1.078-2.618s.36-1.9 1.078-2.618zm1.274 3.962c.373.373.821.56 1.344.56.523 0 .97-.187 1.344-.56.373-.373.56-.821.56-1.344 0-.523-.187-.97-.56-1.344a1.833 1.833 0 00-1.344-.56c-.523 0-.97.187-1.344.56a1.83 1.83 0 00-.56 1.344c0 .523.186.97.56 1.344zM80.902 82l-2.912-6.944h2.016l1.568 4.256 1.568-4.256h2.016L82.246 82h-1.344zm10.19-6.944h1.793V82h-1.792v-.742c-.56.644-1.27.966-2.128.966-.961 0-1.783-.36-2.464-1.078-.672-.728-1.008-1.6-1.008-2.618 0-1.017.336-1.885 1.008-2.604.681-.728 1.503-1.092 2.464-1.092.859 0 1.568.322 2.128.966v-.742zm-3.247 4.816c.373.373.821.56 1.344.56.523 0 .97-.187 1.344-.56.373-.373.56-.821.56-1.344 0-.523-.187-.97-.56-1.344a1.833 1.833 0 00-1.344-.56c-.523 0-.97.187-1.344.56-.373.373-.56.821-.56 1.344 0 .523.187.97.56 1.344zm10.636-7.28h6.72v1.792h-2.464V82h-1.792v-7.616h-2.464v-1.792zM111.018 82h-5.824l3.024-5.152h-2.8v-1.792h5.824l-3.024 5.152h2.8V82zm6.721-6.944h1.792V82h-1.792v-.742c-.56.644-1.269.966-2.128.966-.961 0-1.782-.36-2.464-1.078-.672-.728-1.008-1.6-1.008-2.618 0-1.017.336-1.885 1.008-2.604.682-.728 1.503-1.092 2.464-1.092.859 0 1.568.322 2.128.966v-.742zm-3.248 4.816c.374.373.822.56 1.344.56.523 0 .971-.187 1.344-.56a1.83 1.83 0 00.56-1.344c0-.523-.186-.97-.56-1.344a1.832 1.832 0 00-1.344-.56c-.522 0-.97.187-1.344.56-.373.373-.56.821-.56 1.344 0 .523.187.97.56 1.344zm7.281.154v-3.402h-.896v-1.568h.896v-2.464h1.792v2.464h1.344v1.568h-1.344v2.912c0 .495.112.803.336.924.233.121.569.112 1.008-.028V82c-.374.15-.812.224-1.316.224-.616 0-1.074-.196-1.372-.588-.299-.401-.448-.938-.448-1.61zM131.854 82h-5.824l3.024-5.152h-2.8v-1.792h5.824l-3.024 5.152h2.8V82zm3.224-8.19c-.233.233-.523.35-.868.35s-.639-.117-.882-.35a1.227 1.227 0 01-.35-.882c0-.345.117-.635.35-.868.243-.243.537-.364.882-.364s.635.121.868.364c.243.233.364.523.364.868a1.2 1.2 0 01-.364.882zM133.314 82v-6.944h1.792V82h-1.792zm6.833-3.584L143.731 82h-2.24l-2.912-2.744V82h-1.792v-9.856h1.792v5.544l2.688-2.632h2.24l-3.36 3.36zm6.238-4.606a1.18 1.18 0 01-.868.35c-.346 0-.64-.117-.882-.35a1.223 1.223 0 01-.35-.882c0-.345.116-.635.35-.868.242-.243.536-.364.882-.364.345 0 .634.121.868.364.242.233.364.523.364.868s-.122.64-.364.882zM144.621 82v-6.944h1.792V82h-1.792zm11.194-10.08c-1.195 1.81-1.792 3.752-1.792 5.824s.597 4.013 1.792 5.824l-1.792.672c-1.195-2.165-1.792-4.33-1.792-6.496 0-2.165.597-4.33 1.792-6.496l1.792.672zm1.343 3.808c.056-.961.382-1.76.98-2.394.597-.644 1.39-.966 2.38-.966.98 0 1.782.28 2.408.84.634.56.952 1.325.952 2.296 0 .71-.224 1.4-.672 2.072-.448.663-1.195 1.54-2.24 2.632h3.36V82h-7.392l3.808-4.032c.896-.98 1.344-1.764 1.344-2.352 0-.457-.14-.812-.42-1.064-.271-.261-.654-.392-1.148-.392-.476 0-.85.168-1.12.504-.262.327-.411.756-.448 1.288l-1.792-.224zm12.53 0c.849 0 1.587.275 2.212.826.625.541.938 1.26.938 2.156 0 1.092-.336 1.95-1.008 2.576-.663.625-1.521.938-2.576.938-1.101 0-1.96-.275-2.576-.826-.616-.56-.952-1.293-1.008-2.198l1.792-.14c.047.401.219.733.518.994.299.252.723.378 1.274.378.513 0 .938-.145 1.274-.434a1.41 1.41 0 00.518-1.134c0-.401-.149-.742-.448-1.022-.289-.29-.7-.434-1.232-.434-.821 0-1.456.261-1.904.784h-1.568l.896-5.6h5.152v1.792h-3.696l-.252 1.792c.401-.299.966-.448 1.694-.448zm5.536-1.932c.69-.952 1.577-1.428 2.66-1.428 1.082 0 1.969.476 2.66 1.428.69.952 1.036 2.119 1.036 3.5 0 1.381-.346 2.548-1.036 3.5-.691.952-1.578 1.428-2.66 1.428-1.092 0-1.984-.471-2.674-1.414-.682-.952-1.022-2.123-1.022-3.514 0-1.381.345-2.548 1.036-3.5zm1.316 5.726c.373.607.821.91 1.344.91.522 0 .97-.303 1.344-.91.373-.616.56-1.358.56-2.226 0-.868-.187-1.605-.56-2.212-.374-.616-.822-.924-1.344-.924-.523 0-.971.308-1.344.924-.374.607-.56 1.344-.56 2.212 0 .868.186 1.61.56 2.226zm11.76-4.466h1.792v6.272c0 1.456-.331 2.567-.994 3.332-.653.765-1.591 1.148-2.814 1.148a5.4 5.4 0 01-1.288-.154 4.278 4.278 0 01-1.078-.378 6.56 6.56 0 01-.658-.364 3.47 3.47 0 01-.336-.224l.84-1.582c.261.224.616.43 1.064.616.448.196.933.294 1.456.294.607 0 1.092-.205 1.456-.616.373-.401.56-.915.56-1.54v-.602c-.56.644-1.269.966-2.128.966-.961 0-1.783-.36-2.464-1.078-.672-.728-1.008-1.6-1.008-2.618 0-1.017.336-1.885 1.008-2.604.681-.728 1.503-1.092 2.464-1.092.859 0 1.568.322 2.128.966v-.742zm-3.248 4.816c.373.373.821.56 1.344.56.523 0 .971-.187 1.344-.56.373-.373.56-.821.56-1.344 0-.523-.187-.97-.56-1.344a1.832 1.832 0 00-1.344-.56c-.523 0-.971.187-1.344.56-.373.373-.56.821-.56 1.344 0 .523.187.97.56 1.344zm6.384-7.952l1.792-.672c1.195 2.165 1.792 4.33 1.792 6.496 0 2.165-.597 4.33-1.792 6.496l-1.792-.672c1.195-1.81 1.792-3.752 1.792-5.824s-.597-4.013-1.792-5.824z" fill="#000"/>
    <path d="M39.75 103.88c.653-.933 1.489-1.4 2.506-1.4 1.017 0 1.848.467 2.492 1.4.653.924.98 2.063.98 3.416 0 1.353-.327 2.497-.98 3.43-.644.924-1.475 1.386-2.492 1.386-1.027 0-1.862-.462-2.506-1.386-.644-.933-.966-2.077-.966-3.43 0-1.353.322-2.492.966-3.416zm.994 5.88c.42.672.924 1.008 1.512 1.008s1.087-.336 1.498-1.008c.42-.681.63-1.503.63-2.464 0-.961-.21-1.778-.63-2.45-.41-.681-.91-1.022-1.498-1.022s-1.092.341-1.512 1.022c-.41.672-.616 1.489-.616 2.45 0 .961.205 1.783.616 2.464zm10.296-4.34c.942 0 1.712.313 2.31.938.597.616.896 1.353.896 2.212 0 1.045-.327 1.899-.98 2.562-.644.653-1.475.98-2.492.98-1.027 0-1.862-.331-2.506-.994-.644-.663-.966-1.545-.966-2.646 0-1.045.275-2.109.826-3.192.55-1.092 1.372-1.988 2.464-2.688h2.38a2.173 2.173 0 00-.28.112c-.122.047-.35.163-.686.35a7.093 7.093 0 00-.952.602c-.29.224-.607.532-.952.924a5.459 5.459 0 00-.826 1.246c.485-.271 1.073-.406 1.764-.406zm-1.792 4.76c.4.392.91.588 1.526.588s1.124-.196 1.526-.588c.4-.392.602-.873.602-1.442s-.196-1.041-.588-1.414c-.383-.373-.896-.56-1.54-.56-.616 0-1.125.191-1.526.574a1.83 1.83 0 00-.602 1.4c0 .569.2 1.05.602 1.442zm7.58-2.996a.972.972 0 01-.715-.294.972.972 0 01-.294-.714c0-.289.098-.527.294-.714a.972.972 0 01.714-.294c.29 0 .528.098.714.294a.944.944 0 01.294.714c0 .28-.098.518-.294.714a.943.943 0 01-.714.294zm0 4.928a.972.972 0 01-.715-.294.972.972 0 01-.294-.714c0-.28.098-.518.294-.714a.972.972 0 01.714-.294c.29 0 .528.098.714.294a.972.972 0 01.294.714c0 .28-.098.518-.294.714a.943.943 0 01-.714.294zm3.54-8.232c.652-.933 1.488-1.4 2.505-1.4 1.018 0 1.848.467 2.492 1.4.654.924.98 2.063.98 3.416 0 1.353-.326 2.497-.98 3.43-.644.924-1.474 1.386-2.492 1.386-1.026 0-1.862-.462-2.506-1.386-.644-.933-.966-2.077-.966-3.43 0-1.353.322-2.492.966-3.416zm.993 5.88c.42.672.924 1.008 1.512 1.008s1.088-.336 1.498-1.008c.42-.681.63-1.503.63-2.464 0-.961-.21-1.778-.63-2.45-.41-.681-.91-1.022-1.498-1.022s-1.092.341-1.512 1.022c-.41.672-.616 1.489-.616 2.45 0 .961.206 1.783.616 2.464zm12.382-.672h1.12v1.344h-1.12V112h-1.344v-1.568H67.47l6.272-8.064v6.72zm-1.344 0v-3.108l-2.268 3.108h2.268zm7.845-3.92c.971 0 1.774.336 2.408 1.008.635.672.952 1.493.952 2.464 0 .971-.317 1.792-.952 2.464-.634.672-1.437 1.008-2.408 1.008-.933 0-1.68-.364-2.24-1.092v4.564H76.66V105.28h1.344v.98c.56-.728 1.307-1.092 2.24-1.092zm-1.624 4.984c.42.411.924.616 1.512.616s1.088-.205 1.498-.616c.42-.42.63-.924.63-1.512s-.21-1.087-.63-1.498c-.41-.42-.91-.63-1.498-.63s-1.092.21-1.512.63a2.04 2.04 0 00-.616 1.498c0 .588.206 1.092.616 1.512zm13.924-4.984c.747 0 1.33.266 1.75.798.42.532.63 1.293.63 2.282V112H93.58v-3.752c0-1.157-.429-1.736-1.287-1.736-.43 0-.808.163-1.135.49-.326.327-.49.761-.49 1.302V112h-1.344v-3.752c0-1.157-.429-1.736-1.287-1.736-.43 0-.808.163-1.135.49-.326.327-.49.761-.49 1.302V112h-1.344v-6.72h1.344v.784c.168-.187.313-.331.434-.434.122-.112.308-.215.56-.308.262-.103.556-.154.882-.154.878 0 1.522.355 1.933 1.064.354-.383.709-.653 1.063-.812.364-.168.784-.252 1.26-.252zm12.241 3.696h-3.808v-1.12h3.808v1.12zm9.62-2.352c1.166.224 2.02.546 2.562.966.541.411.812.999.812 1.764 0 .84-.322 1.531-.966 2.072-.644.532-1.508.798-2.59.798a5.462 5.462 0 01-1.484-.196 4.376 4.376 0 01-1.148-.518 7.922 7.922 0 01-.658-.49 2.547 2.547 0 01-.322-.322l.672-1.204c.83.924 1.82 1.386 2.968 1.386.7 0 1.236-.131 1.61-.392.382-.261.574-.621.574-1.078 0-.709-.714-1.19-2.142-1.442-1.242-.215-2.114-.537-2.618-.966-.495-.439-.742-.999-.742-1.68 0-.793.298-1.447.896-1.96.597-.513 1.428-.77 2.492-.77 1.222 0 2.235.373 3.038 1.12l-.644 1.218c-.682-.663-1.489-.994-2.422-.994-.644 0-1.144.117-1.498.35-.346.233-.518.56-.518.98 0 .355.163.635.49.84.326.196.872.369 1.638.518zm5.387 3.29v-3.178h-.896v-1.344h.896v-2.688h1.344v2.688h1.344v1.344h-1.344v2.8c0 .644.089 1.031.266 1.162.271.205.63.196 1.078-.028v1.358c-.271.131-.602.196-.994.196-1.129 0-1.694-.77-1.694-2.31zm9.626-4.522h1.344V112h-1.344v-.98c-.56.728-1.307 1.092-2.24 1.092-.971 0-1.774-.336-2.408-1.008-.635-.672-.952-1.493-.952-2.464 0-.971.317-1.792.952-2.464.634-.672 1.437-1.008 2.408-1.008.933 0 1.68.364 2.24 1.092v-.98zm-3.64 4.872c.42.411.924.616 1.512.616s1.087-.205 1.498-.616c.42-.42.63-.924.63-1.512s-.21-1.087-.63-1.498c-.411-.42-.91-.63-1.498-.63s-1.092.21-1.512.63c-.411.411-.616.91-.616 1.498s.205 1.092.616 1.512zm11.939-4.872h1.344v6.3c0 1.363-.322 2.389-.966 3.08-.635.691-1.508 1.036-2.618 1.036-1.12 0-2.166-.373-3.136-1.12l.672-1.204c.261.196.476.35.644.462.168.112.42.224.756.336.345.121.7.182 1.064.182.7 0 1.246-.224 1.638-.672.401-.448.602-1.083.602-1.904v-.756c-.56.728-1.307 1.092-2.24 1.092-.971 0-1.774-.336-2.408-1.008-.635-.672-.952-1.493-.952-2.464 0-.971.317-1.792.952-2.464.634-.672 1.437-1.008 2.408-1.008.933 0 1.68.364 2.24 1.092v-.98zm-3.64 4.872c.42.411.924.616 1.512.616s1.087-.205 1.498-.616c.42-.42.63-.924.63-1.512s-.21-1.087-.63-1.498c-.411-.42-.91-.63-1.498-.63s-1.092.21-1.512.63c-.411.411-.616.91-.616 1.498s.205 1.092.616 1.512zm12.834-1.484c0 .205-.014.401-.042.588h-5.082c.103.504.35.882.742 1.134.402.252.882.378 1.442.378.728 0 1.41-.224 2.044-.672l.448 1.204c-.644.541-1.484.812-2.52.812-1.129 0-2.002-.327-2.618-.98-.606-.663-.91-1.493-.91-2.492 0-.989.304-1.815.91-2.478.616-.663 1.428-.994 2.436-.994.915 0 1.666.317 2.254.952.598.635.896 1.484.896 2.548zm-5.124-.644h3.752c-.018-.383-.182-.728-.49-1.036-.308-.317-.756-.476-1.344-.476-.569 0-1.026.159-1.372.476-.345.317-.527.663-.546 1.036zm11.844-5.88h1.344V112h-1.344v-.98c-.56.728-1.307 1.092-2.24 1.092-.971 0-1.774-.336-2.408-1.008-.635-.672-.952-1.493-.952-2.464 0-.971.317-1.792.952-2.464.634-.672 1.437-1.008 2.408-1.008.933 0 1.68.364 2.24 1.092v-4.116zm-3.64 8.008c.42.411.924.616 1.512.616s1.087-.205 1.498-.616c.42-.42.63-.924.63-1.512s-.21-1.087-.63-1.498c-.411-.42-.91-.63-1.498-.63s-1.092.21-1.512.63c-.411.411-.616.91-.616 1.498s.205 1.092.616 1.512zm12.876-6.286a.972.972 0 01-.714.294.972.972 0 01-.714-.294.972.972 0 01-.294-.714c0-.28.098-.518.294-.714a.972.972 0 01.714-.294c.28 0 .518.098.714.294a.972.972 0 01.294.714c0 .28-.098.518-.294.714zM161.481 112v-6.72h1.344V112h-1.344zm6.698-6.832c.812 0 1.446.252 1.904.756.466.504.7 1.241.7 2.212V112h-1.344v-3.752c0-.569-.117-.999-.35-1.288-.224-.299-.612-.448-1.162-.448-.448 0-.868.168-1.26.504-.392.327-.588.756-.588 1.288V112h-1.344v-6.72h1.344v.784c.522-.597 1.222-.896 2.1-.896zM183.661 112l-.91-2.016h-4.228l-.91 2.016h-1.456l4.48-9.632 4.48 9.632h-1.456zm-4.522-3.36h2.996l-1.498-3.304-1.498 3.304zm11.917 3.584l-2.996-5.796-.896 5.572h-1.372l1.596-9.632 3.668 7.112 3.668-7.112L196.32 112h-1.372l-.896-5.572-2.996 5.796zm11.761-5.278c.523.121.915.397 1.176.826a2.6 2.6 0 01.392 1.4c0 .831-.275 1.512-.826 2.044-.541.523-1.274.784-2.198.784h-3.472v-9.408h2.814c1.027 0 1.82.21 2.38.63.569.42.854 1.031.854 1.834 0 .457-.107.859-.322 1.204-.215.336-.481.565-.798.686zm-3.584-3.01v2.352h1.68c1.12 0 1.68-.392 1.68-1.176 0-.784-.56-1.176-1.68-1.176h-1.68zm1.904 6.72c.597 0 1.064-.126 1.4-.378.336-.252.504-.63.504-1.134 0-.504-.168-.882-.504-1.134-.336-.252-.803-.378-1.4-.378h-1.904v3.024h1.904zm4.261-8.064h6.272v1.344h-2.464V112h-1.344v-8.064h-2.464v-1.344zm8.586 1.288c.654-.933 1.489-1.4 2.506-1.4 1.018 0 1.848.467 2.492 1.4.654.924.98 2.063.98 3.416 0 1.353-.326 2.497-.98 3.43-.644.924-1.474 1.386-2.492 1.386-1.026 0-1.862-.462-2.506-1.386-.644-.933-.966-2.077-.966-3.43 0-1.353.322-2.492.966-3.416zm.994 5.88c.42.672.924 1.008 1.512 1.008s1.088-.336 1.498-1.008c.42-.681.63-1.503.63-2.464 0-.961-.21-1.778-.63-2.45-.41-.681-.91-1.022-1.498-1.022s-1.092.341-1.512 1.022c-.41.672-.616 1.489-.616 2.45 0 .961.206 1.783.616 2.464zm12.228-2.926c.849.485 1.274 1.241 1.274 2.268 0 .887-.336 1.61-1.008 2.17-.672.56-1.493.84-2.464.84-.971 0-1.792-.28-2.464-.84-.672-.56-1.008-1.283-1.008-2.17 0-1.008.42-1.764 1.26-2.268-.541-.383-.812-.957-.812-1.722 0-.747.289-1.372.868-1.876.588-.504 1.307-.756 2.156-.756.84 0 1.554.252 2.142.756.588.504.882 1.129.882 1.876 0 .747-.275 1.321-.826 1.722zm-1.008-2.646c-.327-.243-.723-.364-1.19-.364-.467 0-.863.121-1.19.364-.327.243-.49.532-.49.868 0 .336.163.625.49.868.327.243.723.364 1.19.364.467 0 .863-.121 1.19-.364.327-.243.49-.532.49-.868 0-.336-.163-.625-.49-.868zm-2.702 6.118c.42.308.924.462 1.512.462s1.087-.154 1.498-.462c.42-.317.63-.705.63-1.162 0-.457-.21-.84-.63-1.148-.411-.317-.91-.476-1.498-.476s-1.092.159-1.512.476c-.411.308-.616.691-.616 1.148 0 .457.205.845.616 1.162zM236.998 112h-1.568l-2.338-3.248h-1.47V112h-1.344v-9.408h2.912c1.185 0 2.076.271 2.674.812.606.541.91 1.274.91 2.198 0 .737-.196 1.381-.588 1.932-.383.541-.92.905-1.61 1.092l2.422 3.374zm-5.376-8.064v3.472h2.002c.532 0 .966-.14 1.302-.42.336-.289.504-.723.504-1.302 0-.588-.168-1.027-.504-1.316-.327-.289-.752-.434-1.274-.434h-2.03zm12.207 0h-4.032v2.688h3.36v1.344h-3.36v2.688h4.032V112h-5.376v-9.408h5.376v1.344zm4.602-1.344c1.512 0 2.688.443 3.528 1.33.85.887 1.274 2.011 1.274 3.374 0 1.353-.429 2.478-1.288 3.374-.858.887-2.03 1.33-3.514 1.33h-2.814v-9.408h2.814zm.35 8.064c.906 0 1.648-.322 2.226-.966.588-.653.882-1.451.882-2.394 0-.943-.294-1.736-.882-2.38-.578-.653-1.32-.98-2.226-.98h-1.82v6.72h1.82zm11.852-8.512v4.116c.56-.728 1.307-1.092 2.24-1.092.971 0 1.774.336 2.408 1.008.635.672.952 1.493.952 2.464 0 .971-.317 1.792-.952 2.464-.634.672-1.437 1.008-2.408 1.008-.933 0-1.68-.364-2.24-1.092v.98h-1.344v-9.856h1.344zm.616 8.008c.42.411.924.616 1.512.616s1.088-.205 1.498-.616c.42-.42.63-.924.63-1.512s-.21-1.087-.63-1.498c-.41-.42-.91-.63-1.498-.63s-1.092.21-1.512.63c-.41.411-.616.91-.616 1.498s.206 1.092.616 1.512zm10.998-4.872h1.498l-4.55 10.304h-1.47l1.792-4.018-2.716-6.286h1.498l1.974 4.648 1.974-4.648zm7.841-1.4c.653-.933 1.489-1.4 2.506-1.4 1.017 0 1.848.467 2.492 1.4.653.924.98 2.063.98 3.416 0 1.353-.327 2.497-.98 3.43-.644.924-1.475 1.386-2.492 1.386-1.027 0-1.862-.462-2.506-1.386-.644-.933-.966-2.077-.966-3.43 0-1.353.322-2.492.966-3.416zm.994 5.88c.42.672.924 1.008 1.512 1.008s1.087-.336 1.498-1.008c.42-.681.63-1.503.63-2.464 0-.961-.21-1.778-.63-2.45-.411-.681-.91-1.022-1.498-1.022s-1.092.341-1.512 1.022c-.411.672-.616 1.489-.616 2.45 0 .961.205 1.783.616 2.464zm10.211-4.032c.822 0 1.536.28 2.142.84.616.551.924 1.302.924 2.254s-.331 1.741-.994 2.366a3.355 3.355 0 01-2.366.924c-.914 0-1.689-.28-2.324-.84-.634-.569-.98-1.26-1.036-2.072l1.4-.14c.047.457.252.859.616 1.204.364.336.812.504 1.344.504.551 0 1.022-.182 1.414-.546.402-.373.602-.826.602-1.358 0-.523-.168-.952-.504-1.288-.336-.336-.77-.504-1.302-.504-.382 0-.76.098-1.134.294a2.141 2.141 0 00-.854.826h-1.372l.84-5.6h4.774v1.344h-3.626l-.364 2.408c.495-.411 1.102-.616 1.82-.616zm7.838 3.444c-.943 0-1.713-.308-2.31-.924a3.11 3.11 0 01-.896-2.226c0-1.045.322-1.895.966-2.548.653-.663 1.488-.994 2.506-.994 1.026 0 1.862.331 2.506.994.644.663.966 1.545.966 2.646 0 1.045-.276 2.114-.826 3.206-.551 1.083-1.372 1.974-2.464 2.674h-2.38c.065-.019.158-.051.28-.098.121-.056.35-.173.686-.35.336-.187.648-.392.938-.616.298-.224.616-.527.952-.91.345-.392.625-.812.84-1.26-.486.271-1.074.406-1.764.406zm1.792-4.76c-.402-.392-.91-.588-1.526-.588s-1.125.196-1.526.588a1.936 1.936 0 00-.602 1.442c0 .569.191 1.041.574 1.414.392.373.91.56 1.554.56.616 0 1.124-.187 1.526-.56.401-.383.602-.854.602-1.414a1.94 1.94 0 00-.602-1.442zm12.675 2.45c.019.168.028.313.028.434 0 1.344-.438 2.483-1.316 3.416-.868.933-1.96 1.4-3.276 1.4-1.325 0-2.459-.471-3.402-1.414-.942-.943-1.414-2.077-1.414-3.402 0-1.325.472-2.459 1.414-3.402.943-.943 2.077-1.414 3.402-1.414.924 0 1.746.238 2.464.714.719.467 1.284 1.106 1.694 1.918l-1.358.392a3.066 3.066 0 00-1.148-1.218 3.016 3.016 0 00-1.652-.462c-.961 0-1.782.341-2.464 1.022-.672.672-1.008 1.489-1.008 2.45 0 .961.336 1.783 1.008 2.464a3.383 3.383 0 002.464 1.008c.831 0 1.526-.238 2.086-.714a3.28 3.28 0 001.078-1.862h-3.5v-1.344l4.9.014zm8.206 5.138h-1.568l-2.338-3.248h-1.47V112h-1.344v-9.408h2.912c1.186 0 2.077.271 2.674.812.607.541.91 1.274.91 2.198 0 .737-.196 1.381-.588 1.932-.382.541-.919.905-1.61 1.092l2.422 3.374zm-5.376-8.064v3.472h2.002c.532 0 .966-.14 1.302-.42.336-.289.504-.723.504-1.302 0-.588-.168-1.027-.504-1.316-.326-.289-.751-.434-1.274-.434h-2.03zm10.858 6.832c.98 0 1.797-.341 2.45-1.022l.574 1.26a4.05 4.05 0 01-1.372.826 4.627 4.627 0 01-1.568.28c-1.353 0-2.511-.471-3.472-1.414-.952-.943-1.428-2.077-1.428-3.402 0-1.325.476-2.459 1.428-3.402.961-.943 2.119-1.414 3.472-1.414.532 0 1.059.093 1.582.28.523.187.975.457 1.358.812l-.574 1.26c-.653-.672-1.47-1.008-2.45-1.008a3.36 3.36 0 00-2.464 1.022c-.672.672-1.008 1.489-1.008 2.45 0 .961.336 1.783 1.008 2.464a3.382 3.382 0 002.464 1.008zm4.587-7.392l2.912-1.008V112h-1.344v-7.896l-1.568.504v-1.232zm5.897.504c.653-.933 1.488-1.4 2.506-1.4 1.017 0 1.848.467 2.492 1.4.653.924.98 2.063.98 3.416 0 1.353-.327 2.497-.98 3.43-.644.924-1.475 1.386-2.492 1.386-1.027 0-1.862-.462-2.506-1.386-.644-.933-.966-2.077-.966-3.43 0-1.353.322-2.492.966-3.416zm.994 5.88c.42.672.924 1.008 1.512 1.008s1.087-.336 1.498-1.008c.42-.681.63-1.503.63-2.464 0-.961-.21-1.778-.63-2.45-.411-.681-.91-1.022-1.498-1.022s-1.092.341-1.512 1.022c-.411.672-.616 1.489-.616 2.45 0 .961.205 1.783.616 2.464zm7.523-5.88c.653-.933 1.489-1.4 2.506-1.4 1.017 0 1.848.467 2.492 1.4.653.924.98 2.063.98 3.416 0 1.353-.327 2.497-.98 3.43-.644.924-1.475 1.386-2.492 1.386-1.027 0-1.862-.462-2.506-1.386-.644-.933-.966-2.077-.966-3.43 0-1.353.322-2.492.966-3.416zm.994 5.88c.42.672.924 1.008 1.512 1.008s1.087-.336 1.498-1.008c.42-.681.63-1.503.63-2.464 0-.961-.21-1.778-.63-2.45-.411-.681-.91-1.022-1.498-1.022s-1.092.341-1.512 1.022c-.411.672-.616 1.489-.616 2.45 0 .961.205 1.783.616 2.464zm12.382-.672h1.12v1.344h-1.12V112h-1.344v-1.568h-4.928l6.272-8.064v6.72zm-1.344 0v-3.108l-2.268 3.108h2.268z" fill="#666B73"/>
    <path fill="#EFEFEF" d="M14 143h452v1H14zm0-99h452v1H14z"/>
    <path fill="#fff" d="M14 144h452v100H14z"/>
    <path d="M45.392 172.592h1.792V182h-1.792l-4.704-6.496V182h-1.792v-9.408h1.792l4.704 6.496v-6.496zm4.21 3.318c.719-.719 1.592-1.078 2.618-1.078 1.027 0 1.9.359 2.618 1.078.719.719 1.078 1.591 1.078 2.618s-.36 1.899-1.078 2.618c-.718.719-1.591 1.078-2.618 1.078-1.026 0-1.9-.359-2.618-1.078-.718-.719-1.078-1.591-1.078-2.618s.36-1.899 1.078-2.618zm1.274 3.962c.373.373.822.56 1.344.56.523 0 .97-.187 1.344-.56.373-.373.56-.821.56-1.344 0-.523-.187-.971-.56-1.344a1.834 1.834 0 00-1.344-.56c-.523 0-.97.187-1.344.56-.373.373-.56.821-.56 1.344 0 .523.187.971.56 1.344zm17.13-7.28h1.791V182h-1.792l-4.704-6.496V182H61.51v-9.408h1.792l4.704 6.496v-6.496zm8.731 2.464h1.793V182h-1.793v-.742c-.56.644-1.269.966-2.127.966-.962 0-1.783-.359-2.465-1.078-.671-.728-1.007-1.601-1.007-2.618s.335-1.885 1.007-2.604c.682-.728 1.503-1.092 2.465-1.092.858 0 1.567.322 2.127.966v-.742zm-3.247 4.816c.373.373.82.56 1.344.56.522 0 .97-.187 1.343-.56a1.83 1.83 0 00.56-1.344 1.83 1.83 0 00-.56-1.344 1.834 1.834 0 00-1.344-.56c-.522 0-.97.187-1.343.56a1.83 1.83 0 00-.56 1.344c0 .523.186.971.56 1.344zm14.338-5.04c.822 0 1.475.271 1.96.812.486.532.728 1.307.728 2.324V182h-1.792v-3.808c0-.551-.084-.947-.252-1.19-.158-.252-.448-.378-.868-.378-.896 0-1.344.597-1.344 1.792V182h-1.792v-3.808c0-.541-.088-.938-.266-1.19-.177-.252-.462-.378-.854-.378-.896 0-1.344.597-1.344 1.792V182h-1.792v-6.944h1.792v.672c.476-.597 1.074-.896 1.792-.896.878 0 1.526.313 1.946.938.56-.625 1.256-.938 2.086-.938zm10.748 3.696c0 .131-.01.317-.028.56h-5.054c.13.476.368.859.714 1.148.354.28.802.42 1.344.42a3.5 3.5 0 002.072-.644l.518 1.554a5.76 5.76 0 01-.322.182c-.131.075-.425.173-.882.294a5.4 5.4 0 01-1.414.182c-1.288 0-2.26-.345-2.912-1.036-.654-.691-.98-1.577-.98-2.66 0-1.083.308-1.969.924-2.66.616-.691 1.502-1.036 2.66-1.036 1.082 0 1.913.327 2.492.98.578.644.868 1.549.868 2.716zm-5.04-.784h3.136c0-.336-.14-.644-.42-.924-.271-.28-.654-.42-1.148-.42-.42 0-.79.149-1.106.448-.308.289-.462.588-.462.896zm15.222 2.688c.933 0 1.712-.322 2.338-.966l.686 1.624a4.337 4.337 0 01-1.414.84 4.863 4.863 0 01-1.638.294c-1.382 0-2.562-.481-3.542-1.442-.98-.971-1.47-2.133-1.47-3.486 0-1.353.49-2.511 1.47-3.472.98-.971 2.16-1.456 3.542-1.456.541 0 1.087.098 1.638.294.55.196 1.022.471 1.414.826l-.686 1.624a3.24 3.24 0 00-2.338-.952c-.896 0-1.662.308-2.296.924-.635.607-.952 1.344-.952 2.212 0 .868.317 1.61.952 2.226.634.607 1.4.91 2.296.91zm8.255-5.6c.812 0 1.446.266 1.904.798.466.532.7 1.311.7 2.338V182h-1.792v-3.808c0-.541-.108-.938-.322-1.19-.215-.252-.556-.378-1.022-.378-.448 0-.822.149-1.12.448-.299.299-.448.747-.448 1.344V182h-1.792v-9.856h1.792v3.584c.504-.597 1.204-.896 2.1-.896zm5.829-1.022c-.234.233-.523.35-.868.35-.346 0-.64-.117-.882-.35a1.224 1.224 0 01-.35-.882c0-.345.116-.635.35-.868.242-.243.536-.364.882-.364.345 0 .634.121.868.364.242.233.364.523.364.868s-.122.639-.364.882zm-1.764 8.19v-6.944h1.792V182h-1.792zm3.472-9.856h1.792V182h-1.792v-9.856zm5.237 1.666a1.18 1.18 0 01-.868.35c-.345 0-.639-.117-.882-.35a1.228 1.228 0 01-.35-.882c0-.345.117-.635.35-.868.243-.243.537-.364.882-.364s.635.121.868.364c.243.233.364.523.364.868s-.121.639-.364.882zm-1.764 8.19v-6.944h1.792V182h-1.792zm11.194-9.408c1.185 0 2.077.285 2.674.854.607.569.91 1.33.91 2.282a3.18 3.18 0 01-.854 2.212c-.569.616-1.33.924-2.282.924h-2.016V182h-1.792v-9.408h3.36zm.224 4.48c.439 0 .807-.126 1.106-.378.308-.252.462-.574.462-.966 0-.429-.149-.761-.448-.994-.289-.233-.663-.35-1.12-.35h-1.792v2.688h1.792zm5.331-1.162c.719-.719 1.591-1.078 2.618-1.078s1.899.359 2.618 1.078c.719.719 1.078 1.591 1.078 2.618s-.359 1.899-1.078 2.618c-.719.719-1.591 1.078-2.618 1.078s-1.899-.359-2.618-1.078c-.719-.719-1.078-1.591-1.078-2.618s.359-1.899 1.078-2.618zm1.274 3.962c.373.373.821.56 1.344.56.523 0 .971-.187 1.344-.56.373-.373.56-.821.56-1.344 0-.523-.187-.971-.56-1.344a1.833 1.833 0 00-1.344-.56c-.523 0-.971.187-1.344.56-.373.373-.56.821-.56 1.344 0 .523.187.971.56 1.344zm13.891-4.816h2.016L159.601 182h-1.624l-1.288-3.808-1.288 3.808h-1.624l-2.352-6.944h2.016l1.232 4.48 1.344-4.48h1.344l1.343 4.48 1.233-4.48zm5.932-.224c.859 0 1.568.322 2.128.966v-3.654h1.792V182h-1.792v-.742c-.56.644-1.269.966-2.128.966-.961 0-1.782-.359-2.464-1.078-.672-.728-1.008-1.601-1.008-2.618s.336-1.885 1.008-2.604c.682-.728 1.503-1.092 2.464-1.092zm-1.12 5.04c.374.373.822.56 1.344.56.523 0 .971-.187 1.344-.56a1.83 1.83 0 00.56-1.344 1.83 1.83 0 00-.56-1.344 1.833 1.833 0 00-1.344-.56c-.522 0-.97.187-1.344.56-.373.373-.56.821-.56 1.344 0 .523.187.971.56 1.344zm13.11-1.344c0 .131-.01.317-.028.56h-5.054c.13.476.368.859.714 1.148.354.28.802.42 1.344.42.774 0 1.465-.215 2.072-.644l.518 1.554a5.874 5.874 0 01-.322.182c-.131.075-.425.173-.882.294-.448.121-.92.182-1.414.182-1.288 0-2.259-.345-2.912-1.036-.654-.691-.98-1.577-.98-2.66 0-1.083.308-1.969.924-2.66.616-.691 1.502-1.036 2.66-1.036 1.082 0 1.913.327 2.492.98.578.644.868 1.549.868 2.716zm-5.04-.784h3.136c0-.336-.14-.644-.42-.924-.271-.28-.654-.42-1.148-.42-.42 0-.789.149-1.106.448-.308.289-.462.588-.462.896zm7.951-1.218c.224-.513.597-.91 1.12-1.19.523-.289 1.12-.457 1.792-.504v2.114a2.532 2.532 0 00-1.344 0 2.188 2.188 0 00-1.106.742c-.308.364-.462.831-.462 1.4V182h-1.792v-6.944h1.792v1.47zm11.863-4.606c-1.195 1.811-1.792 3.752-1.792 5.824s.597 4.013 1.792 5.824l-1.792.672c-1.195-2.165-1.792-4.331-1.792-6.496s.597-4.331 1.792-6.496l1.792.672zm1.343 1.344l3.584-.896V182h-1.792v-7.448l-1.792.392v-1.68zm9.4 2.464c.849 0 1.586.275 2.212.826.625.541.938 1.26.938 2.156 0 1.092-.336 1.951-1.008 2.576-.663.625-1.522.938-2.576.938-1.102 0-1.96-.275-2.576-.826-.616-.56-.952-1.293-1.008-2.198l1.792-.14c.046.401.219.733.518.994.298.252.723.378 1.274.378.513 0 .938-.145 1.274-.434.345-.289.518-.667.518-1.134 0-.401-.15-.742-.448-1.022-.29-.289-.7-.434-1.232-.434-.822 0-1.456.261-1.904.784h-1.568l.896-5.6h5.152v1.792h-3.696l-.252 1.792c.401-.299.966-.448 1.694-.448zm5.535-1.932c.691-.952 1.577-1.428 2.66-1.428 1.083 0 1.969.476 2.66 1.428.691.952 1.036 2.119 1.036 3.5 0 1.381-.345 2.548-1.036 3.5-.691.952-1.577 1.428-2.66 1.428-1.092 0-1.983-.471-2.674-1.414-.681-.952-1.022-2.123-1.022-3.514 0-1.381.345-2.548 1.036-3.5zm1.316 5.726c.373.607.821.91 1.344.91.523 0 .971-.303 1.344-.91.373-.616.56-1.358.56-2.226 0-.868-.187-1.605-.56-2.212-.373-.616-.821-.924-1.344-.924-.523 0-.971.308-1.344.924-.373.607-.56 1.344-.56 2.212 0 .868.187 1.61.56 2.226zm11.76-4.466h1.792v6.272c0 1.456-.331 2.567-.994 3.332-.653.765-1.591 1.148-2.814 1.148-.438 0-.868-.051-1.288-.154a4.255 4.255 0 01-1.078-.378 6.678 6.678 0 01-.658-.364 3.526 3.526 0 01-.336-.224l.84-1.582c.262.224.616.429 1.064.616.448.196.934.294 1.456.294.607 0 1.092-.205 1.456-.616.374-.401.56-.915.56-1.54v-.602c-.56.644-1.269.966-2.128.966-.961 0-1.782-.359-2.464-1.078-.672-.728-1.008-1.601-1.008-2.618s.336-1.885 1.008-2.604c.682-.728 1.503-1.092 2.464-1.092.859 0 1.568.322 2.128.966v-.742zm-3.248 4.816c.374.373.822.56 1.344.56.523 0 .971-.187 1.344-.56a1.83 1.83 0 00.56-1.344 1.83 1.83 0 00-.56-1.344 1.833 1.833 0 00-1.344-.56c-.522 0-.97.187-1.344.56-.373.373-.56.821-.56 1.344 0 .523.187.971.56 1.344zm6.385-7.952l1.792-.672c1.194 2.165 1.792 4.331 1.792 6.496s-.598 4.331-1.792 6.496l-1.792-.672c1.194-1.811 1.792-3.752 1.792-5.824s-.598-4.013-1.792-5.824z" fill="#000"/>
    <path d="M39.75 203.88c.653-.933 1.489-1.4 2.506-1.4 1.017 0 1.848.467 2.492 1.4.653.924.98 2.063.98 3.416 0 1.353-.327 2.497-.98 3.43-.644.924-1.475 1.386-2.492 1.386-1.027 0-1.862-.462-2.506-1.386-.644-.933-.966-2.077-.966-3.43 0-1.353.322-2.492.966-3.416zm.994 5.88c.42.672.924 1.008 1.512 1.008s1.087-.336 1.498-1.008c.42-.681.63-1.503.63-2.464 0-.961-.21-1.778-.63-2.45-.41-.681-.91-1.022-1.498-1.022s-1.092.341-1.512 1.022c-.41.672-.616 1.489-.616 2.45 0 .961.205 1.783.616 2.464zm10.212-4.032c.82 0 1.535.28 2.142.84.616.551.924 1.302.924 2.254s-.332 1.741-.994 2.366a3.357 3.357 0 01-2.366.924c-.915 0-1.69-.28-2.324-.84-.635-.569-.98-1.26-1.036-2.072l1.4-.14c.046.457.252.859.616 1.204.364.336.812.504 1.344.504.55 0 1.022-.182 1.414-.546.4-.373.602-.826.602-1.358 0-.523-.168-.952-.504-1.288-.336-.336-.77-.504-1.302-.504-.383 0-.761.098-1.134.294a2.137 2.137 0 00-.854.826h-1.372l.84-5.6h4.774v1.344H49.5l-.364 2.408c.494-.411 1.1-.616 1.82-.616zm5.639 1.456a.972.972 0 01-.714-.294.972.972 0 01-.294-.714c0-.289.098-.527.294-.714a.972.972 0 01.714-.294c.29 0 .527.098.714.294a.944.944 0 01.294.714c0 .28-.098.518-.294.714a.943.943 0 01-.714.294zm0 4.928a.972.972 0 01-.714-.294.972.972 0 01-.294-.714c0-.28.098-.518.294-.714a.972.972 0 01.714-.294c.29 0 .527.098.714.294a.972.972 0 01.294.714c0 .28-.098.518-.294.714a.943.943 0 01-.714.294zm7.95-5.082c.364.121.676.378.938.77.27.392.406.821.406 1.288 0 .803-.28 1.507-.84 2.114-.55.607-1.39.91-2.52.91-.999 0-1.792-.275-2.38-.826-.588-.551-.915-1.283-.98-2.198l1.344-.224c.158 1.269.858 1.904 2.1 1.904.597 0 1.068-.149 1.414-.448a1.42 1.42 0 00.518-1.12c0-.532-.21-.887-.63-1.064-.41-.187-1.022-.28-1.834-.28v-1.344c.242 0 .476-.019.7-.056a6.46 6.46 0 00.714-.196 1.35 1.35 0 00.602-.42 1.04 1.04 0 00.224-.672c0-.345-.15-.653-.448-.924-.299-.28-.719-.42-1.26-.42-.654 0-1.12.163-1.4.49-.27.327-.434.761-.49 1.302l-1.344-.224c.074-.849.401-1.545.98-2.086.588-.551 1.311-.826 2.17-.826.998 0 1.768.275 2.31.826.55.551.826 1.134.826 1.75 0 .877-.374 1.535-1.12 1.974zm2.909-4.438h6.72L70.142 212h-1.568l3.472-8.064h-4.592v-1.344zm11.423 2.576c.97 0 1.773.336 2.408 1.008.635.672.952 1.493.952 2.464 0 .971-.317 1.792-.952 2.464-.635.672-1.437 1.008-2.408 1.008-.933 0-1.68-.364-2.24-1.092v4.564h-1.344V205.28h1.344v.98c.56-.728 1.307-1.092 2.24-1.092zm-1.624 4.984c.42.411.924.616 1.512.616s1.088-.205 1.498-.616c.42-.42.63-.924.63-1.512s-.21-1.087-.63-1.498c-.41-.42-.91-.63-1.498-.63s-1.092.21-1.512.63a2.04 2.04 0 00-.616 1.498c0 .588.206 1.092.616 1.512zm13.924-4.984c.747 0 1.33.266 1.75.798.42.532.63 1.293.63 2.282V212h-1.344v-3.752c0-1.157-.429-1.736-1.288-1.736-.429 0-.807.163-1.134.49-.326.327-.49.761-.49 1.302V212h-1.344v-3.752c0-1.157-.429-1.736-1.288-1.736-.429 0-.807.163-1.134.49-.326.327-.49.761-.49 1.302V212h-1.344v-6.72h1.344v.784c.168-.187.313-.331.434-.434.122-.112.308-.215.56-.308.262-.103.556-.154.882-.154.878 0 1.522.355 1.932 1.064.355-.383.71-.653 1.064-.812.364-.168.784-.252 1.26-.252zm12.241 3.696H99.61v-1.12h3.808v1.12zm9.62-2.352c1.166.224 2.02.546 2.562.966.541.411.812.999.812 1.764 0 .84-.322 1.531-.966 2.072-.644.532-1.508.798-2.59.798a5.462 5.462 0 01-1.484-.196 4.376 4.376 0 01-1.148-.518 7.922 7.922 0 01-.658-.49 2.547 2.547 0 01-.322-.322l.672-1.204c.83.924 1.82 1.386 2.968 1.386.7 0 1.236-.131 1.61-.392.382-.261.574-.621.574-1.078 0-.709-.714-1.19-2.142-1.442-1.242-.215-2.114-.537-2.618-.966-.495-.439-.742-.999-.742-1.68 0-.793.298-1.447.896-1.96.597-.513 1.428-.77 2.492-.77 1.222 0 2.235.373 3.038 1.12l-.644 1.218c-.682-.663-1.489-.994-2.422-.994-.644 0-1.144.117-1.498.35-.346.233-.518.56-.518.98 0 .355.163.635.49.84.326.196.872.369 1.638.518zm8.383-1.344c.849 0 1.493.266 1.932.798.448.523.672 1.283.672 2.282V212h-1.344v-3.752c0-.569-.117-.999-.35-1.288-.224-.299-.612-.448-1.162-.448-.448 0-.868.168-1.26.504-.392.327-.588.756-.588 1.288V212h-1.344v-9.856h1.344v3.92c.522-.597 1.222-.896 2.1-.896zm4.95 1.022a3.358 3.358 0 012.464-1.022c.961 0 1.778.341 2.45 1.022a3.314 3.314 0 011.022 2.45 3.36 3.36 0 01-1.022 2.464c-.672.672-1.489 1.008-2.45 1.008a3.38 3.38 0 01-2.464-1.008 3.382 3.382 0 01-1.008-2.464c0-.961.336-1.778 1.008-2.45zm.966 3.948c.42.42.919.63 1.498.63.578 0 1.078-.21 1.498-.63.42-.42.63-.919.63-1.498s-.21-1.078-.63-1.498c-.42-.42-.92-.63-1.498-.63-.579 0-1.078.21-1.498.63-.42.42-.63.919-.63 1.498s.21 1.078.63 1.498zm7.665-3.416a2.582 2.582 0 011.05-1.134c.467-.28 1.013-.42 1.638-.42v1.47c-.392-.121-.802-.103-1.232.056-.97.373-1.456 1.143-1.456 2.31V212h-1.344v-6.72h1.344v1.442zm4.819 3.08v-3.178h-.896v-1.344h.896v-2.688h1.344v2.688h1.344v1.344h-1.344v2.8c0 .644.089 1.031.266 1.162.271.205.63.196 1.078-.028v1.358c-.27.131-.602.196-.994.196-1.129 0-1.694-.77-1.694-2.31zm10.413-1.134c0 .205-.014.401-.042.588h-5.082c.102.504.35.882.742 1.134.401.252.882.378 1.442.378.728 0 1.409-.224 2.044-.672l.448 1.204c-.644.541-1.484.812-2.52.812-1.13 0-2.002-.327-2.618-.98-.607-.663-.91-1.493-.91-2.492 0-.989.303-1.815.91-2.478.616-.663 1.428-.994 2.436-.994.914 0 1.666.317 2.254.952.597.635.896 1.484.896 2.548zm-5.124-.644h3.752c-.019-.383-.182-.728-.49-1.036-.308-.317-.756-.476-1.344-.476-.57 0-1.027.159-1.372.476-.346.317-.528.663-.546 1.036zm11.843-5.88h1.344V212h-1.344v-.98c-.56.728-1.307 1.092-2.24 1.092-.971 0-1.773-.336-2.408-1.008-.635-.672-.952-1.493-.952-2.464 0-.971.317-1.792.952-2.464.635-.672 1.437-1.008 2.408-1.008.933 0 1.68.364 2.24 1.092v-4.116zm-3.64 8.008c.42.411.924.616 1.512.616s1.087-.205 1.498-.616c.42-.42.63-.924.63-1.512s-.21-1.087-.63-1.498c-.411-.42-.91-.63-1.498-.63s-1.092.21-1.512.63c-.411.411-.616.91-.616 1.498s.205 1.092.616 1.512zm11.042-4.872h.896v-.812c0-.793.187-1.395.56-1.806.373-.42.868-.63 1.484-.63.336 0 .625.075.868.224v1.316a1.18 1.18 0 00-.672-.196c-.597 0-.896.378-.896 1.134v.77h1.568v1.344h-1.568V212h-1.344v-5.376h-.896v-1.344zm7.982 6.832c-.812 0-1.451-.252-1.918-.756-.457-.504-.686-1.241-.686-2.212v-3.864h1.344v3.752c0 .569.112 1.003.336 1.302.234.289.626.434 1.176.434.448 0 .868-.163 1.26-.49.392-.336.588-.77.588-1.302v-3.696h1.344V212h-1.344v-.784c-.522.597-1.222.896-2.1.896zm5.345-9.968h1.344V212h-1.344v-9.856zm3.254 0h1.344V212h-1.344v-9.856zm7.804 3.136h1.498l-4.55 10.304h-1.47l1.792-4.018-2.716-6.286h1.498l1.974 4.648 1.974-4.648zm8.442-3.136v4.116c.56-.728 1.307-1.092 2.24-1.092.971 0 1.773.336 2.408 1.008.635.672.952 1.493.952 2.464 0 .971-.317 1.792-.952 2.464-.635.672-1.437 1.008-2.408 1.008-.933 0-1.68-.364-2.24-1.092v.98h-1.344v-9.856h1.344zm.616 8.008c.42.411.924.616 1.512.616s1.087-.205 1.498-.616c.42-.42.63-.924.63-1.512s-.21-1.087-.63-1.498c-.411-.42-.91-.63-1.498-.63s-1.092.21-1.512.63c-.411.411-.616.91-.616 1.498s.205 1.092.616 1.512zm10.998-4.872h1.498l-4.55 10.304h-1.47l1.792-4.018-2.716-6.286h1.498l1.974 4.648 1.974-4.648zm7.841-1.4c.653-.933 1.488-1.4 2.506-1.4 1.017 0 1.848.467 2.492 1.4.653.924.98 2.063.98 3.416 0 1.353-.327 2.497-.98 3.43-.644.924-1.475 1.386-2.492 1.386-1.027 0-1.862-.462-2.506-1.386-.644-.933-.966-2.077-.966-3.43 0-1.353.322-2.492.966-3.416zm.994 5.88c.42.672.924 1.008 1.512 1.008s1.087-.336 1.498-1.008c.42-.681.63-1.503.63-2.464 0-.961-.21-1.778-.63-2.45-.411-.681-.91-1.022-1.498-1.022s-1.092.341-1.512 1.022c-.411.672-.616 1.489-.616 2.45 0 .961.205 1.783.616 2.464zm10.211-4.032c.822 0 1.536.28 2.142.84.616.551.924 1.302.924 2.254s-.331 1.741-.994 2.366a3.355 3.355 0 01-2.366.924c-.914 0-1.689-.28-2.324-.84-.634-.569-.98-1.26-1.036-2.072l1.4-.14c.047.457.252.859.616 1.204.364.336.812.504 1.344.504.551 0 1.022-.182 1.414-.546.402-.373.602-.826.602-1.358 0-.523-.168-.952-.504-1.288-.336-.336-.77-.504-1.302-.504-.382 0-.76.098-1.134.294a2.141 2.141 0 00-.854.826h-1.372l.84-5.6h4.774v1.344h-3.626l-.364 2.408c.495-.411 1.102-.616 1.82-.616zm7.837 3.444c-.942 0-1.712-.308-2.31-.924a3.114 3.114 0 01-.896-2.226c0-1.045.322-1.895.966-2.548.654-.663 1.489-.994 2.506-.994 1.027 0 1.862.331 2.506.994.644.663.966 1.545.966 2.646 0 1.045-.275 2.114-.826 3.206-.55 1.083-1.372 1.974-2.464 2.674h-2.38c.066-.019.159-.051.28-.098.122-.056.35-.173.686-.35a7.41 7.41 0 00.938-.616c.299-.224.616-.527.952-.91a5.45 5.45 0 00.84-1.26c-.485.271-1.073.406-1.764.406zm1.792-4.76c-.401-.392-.91-.588-1.526-.588s-1.124.196-1.526.588a1.94 1.94 0 00-.602 1.442c0 .569.192 1.041.574 1.414.392.373.91.56 1.554.56.616 0 1.125-.187 1.526-.56.402-.383.602-.854.602-1.414 0-.569-.2-1.05-.602-1.442zm12.676 2.45c.019.168.028.313.028.434 0 1.344-.439 2.483-1.316 3.416-.868.933-1.96 1.4-3.276 1.4-1.325 0-2.459-.471-3.402-1.414-.943-.943-1.414-2.077-1.414-3.402 0-1.325.471-2.459 1.414-3.402.943-.943 2.077-1.414 3.402-1.414.924 0 1.745.238 2.464.714.719.467 1.283 1.106 1.694 1.918l-1.358.392a3.072 3.072 0 00-1.148-1.218 3.016 3.016 0 00-1.652-.462 3.36 3.36 0 00-2.464 1.022c-.672.672-1.008 1.489-1.008 2.45 0 .961.336 1.783 1.008 2.464a3.382 3.382 0 002.464 1.008c.831 0 1.526-.238 2.086-.714.56-.485.919-1.106 1.078-1.862h-3.5v-1.344l4.9.014zm8.206 5.138h-1.568l-2.338-3.248h-1.47V212h-1.344v-9.408h2.912c1.185 0 2.077.271 2.674.812.607.541.91 1.274.91 2.198 0 .737-.196 1.381-.588 1.932-.383.541-.919.905-1.61 1.092l2.422 3.374zm-5.376-8.064v3.472h2.002c.532 0 .966-.14 1.302-.42.336-.289.504-.723.504-1.302 0-.588-.168-1.027-.504-1.316-.327-.289-.751-.434-1.274-.434h-2.03zm10.858 6.832c.98 0 1.797-.341 2.45-1.022l.574 1.26a4.05 4.05 0 01-1.372.826 4.627 4.627 0 01-1.568.28c-1.353 0-2.511-.471-3.472-1.414-.952-.943-1.428-2.077-1.428-3.402 0-1.325.476-2.459 1.428-3.402.961-.943 2.119-1.414 3.472-1.414.532 0 1.059.093 1.582.28.523.187.975.457 1.358.812l-.574 1.26c-.653-.672-1.47-1.008-2.45-1.008a3.36 3.36 0 00-2.464 1.022c-.672.672-1.008 1.489-1.008 2.45 0 .961.336 1.783 1.008 2.464a3.382 3.382 0 002.464 1.008zm4.587-7.392l2.912-1.008V212h-1.344v-7.896l-1.568.504v-1.232zm5.896.504c.654-.933 1.489-1.4 2.506-1.4 1.018 0 1.848.467 2.492 1.4.654.924.98 2.063.98 3.416 0 1.353-.326 2.497-.98 3.43-.644.924-1.474 1.386-2.492 1.386-1.026 0-1.862-.462-2.506-1.386-.644-.933-.966-2.077-.966-3.43 0-1.353.322-2.492.966-3.416zm.994 5.88c.42.672.924 1.008 1.512 1.008s1.088-.336 1.498-1.008c.42-.681.63-1.503.63-2.464 0-.961-.21-1.778-.63-2.45-.41-.681-.91-1.022-1.498-1.022s-1.092.341-1.512 1.022c-.41.672-.616 1.489-.616 2.45 0 .961.206 1.783.616 2.464zm7.524-5.88c.653-.933 1.489-1.4 2.506-1.4 1.017 0 1.848.467 2.492 1.4.653.924.98 2.063.98 3.416 0 1.353-.327 2.497-.98 3.43-.644.924-1.475 1.386-2.492 1.386-1.027 0-1.862-.462-2.506-1.386-.644-.933-.966-2.077-.966-3.43 0-1.353.322-2.492.966-3.416zm.994 5.88c.42.672.924 1.008 1.512 1.008s1.087-.336 1.498-1.008c.42-.681.63-1.503.63-2.464 0-.961-.21-1.778-.63-2.45-.411-.681-.91-1.022-1.498-1.022s-1.092.341-1.512 1.022c-.411.672-.616 1.489-.616 2.45 0 .961.205 1.783.616 2.464zm12.382-.672h1.12v1.344h-1.12V212h-1.344v-1.568h-4.928l6.272-8.064v6.72zm-1.344 0v-3.108l-2.268 3.108h2.268z" fill="#666B73"/>
    <path fill="#EFEFEF" d="M14 243h452v1H14zm0-99h452v1H14z"/>
    <g clip-path="url(#ph_item_cards__clip1)">
      <path fill="#fff" d="M495 84.38h548v121.239H495z"/>
      <path d="M533.059 130.628l-.848-2.173h-4.821l-.848 2.173h-2.445l4.719-11.406h1.969l4.719 11.406h-2.445zm-4.837-4.345h3.157l-1.579-4.074-1.578 4.074zm10.538-2.292c.272-.622.725-1.103 1.358-1.442.634-.351 1.358-.555 2.173-.611v2.563a3.046 3.046 0 00-1.63 0c-.52.147-.967.446-1.341.899-.373.441-.56 1.007-.56 1.697v3.531h-2.172v-8.419h2.172v1.782zm11.135-1.782h2.173v8.419h-2.173v-.9c-.679.781-1.539 1.172-2.58 1.172-1.165 0-2.161-.436-2.987-1.307-.815-.883-1.222-1.941-1.222-3.174 0-1.234.407-2.286 1.222-3.158.826-.882 1.822-1.323 2.987-1.323 1.041 0 1.901.39 2.58 1.171v-.9zm-3.938 5.839c.453.453.996.679 1.63.679a2.22 2.22 0 001.629-.679c.453-.453.679-.996.679-1.629 0-.634-.226-1.177-.679-1.63a2.22 2.22 0 00-1.629-.679c-.634 0-1.177.226-1.63.679a2.226 2.226 0 00-.679 1.63c0 .633.227 1.176.679 1.629zm12.87-6.11c.984 0 1.754.322 2.308.967.566.645.849 1.59.849 2.835v4.888h-2.173v-4.617c0-.656-.13-1.137-.39-1.443-.26-.305-.673-.458-1.239-.458-.543 0-.996.181-1.358.543-.362.362-.543.906-.543 1.63v4.345h-2.173v-11.949h2.173v4.345c.611-.724 1.46-1.086 2.546-1.086zm5.825 1.306c.871-.871 1.929-1.306 3.174-1.306 1.244 0 2.302.435 3.174 1.306.871.872 1.307 1.93 1.307 3.175 0 1.244-.436 2.302-1.307 3.174-.872.871-1.93 1.307-3.174 1.307-1.245 0-2.303-.436-3.174-1.307-.872-.872-1.307-1.93-1.307-3.174 0-1.245.435-2.303 1.307-3.175zm1.544 4.804c.453.453.996.679 1.63.679.633 0 1.176-.226 1.629-.679.453-.453.679-.996.679-1.629 0-.634-.226-1.177-.679-1.63a2.222 2.222 0 00-1.629-.679c-.634 0-1.177.226-1.63.679a2.226 2.226 0 00-.679 1.63c0 .633.227 1.176.679 1.629zm9.916 2.58l-3.531-8.419h2.444l1.901 5.16 1.901-5.16h2.445l-3.531 8.419h-1.629zm12.355-8.419h2.172v8.419h-2.172v-.9c-.679.781-1.539 1.172-2.58 1.172-1.166 0-2.162-.436-2.988-1.307-.814-.883-1.222-1.941-1.222-3.174 0-1.234.408-2.286 1.222-3.158.826-.882 1.822-1.323 2.988-1.323 1.041 0 1.901.39 2.58 1.171v-.9zm-3.938 5.839c.453.453.996.679 1.629.679.634 0 1.177-.226 1.63-.679.452-.453.679-.996.679-1.629 0-.634-.227-1.177-.679-1.63a2.222 2.222 0 00-1.63-.679c-.633 0-1.176.226-1.629.679a2.222 2.222 0 00-.679 1.63c0 .633.226 1.176.679 1.629zm12.895-8.826h8.147v2.172h-2.987v9.234h-2.172v-9.234h-2.988v-2.172zm15.2 11.406h-7.061l3.666-6.246h-3.395v-2.173h7.061l-3.666 6.246h3.395v2.173zm8.149-8.419h2.172v8.419h-2.172v-.9c-.679.781-1.539 1.172-2.58 1.172-1.166 0-2.162-.436-2.988-1.307-.814-.883-1.222-1.941-1.222-3.174 0-1.234.408-2.286 1.222-3.158.826-.882 1.822-1.323 2.988-1.323 1.041 0 1.901.39 2.58 1.171v-.9zm-3.938 5.839a2.22 2.22 0 001.629.679c.634 0 1.177-.226 1.63-.679.452-.453.679-.996.679-1.629 0-.634-.227-1.177-.679-1.63a2.222 2.222 0 00-1.63-.679 2.22 2.22 0 00-1.629.679 2.222 2.222 0 00-.679 1.63c0 .633.226 1.176.679 1.629zm8.826.187v-4.125h-1.086v-1.901h1.086v-2.987h2.173v2.987h1.629v1.901h-1.629v3.531c0 .599.136.973.407 1.12.283.147.691.136 1.222-.034v1.901c-.452.181-.984.272-1.595.272-.747 0-1.301-.238-1.663-.713-.363-.487-.544-1.138-.544-1.952zm12.224 2.393h-7.061l3.666-6.246h-3.394v-2.173h7.061l-3.667 6.246h3.395v2.173zm3.909-9.93a1.43 1.43 0 01-1.053.425c-.418 0-.775-.142-1.069-.425a1.484 1.484 0 01-.424-1.069c0-.419.141-.769.424-1.052a1.458 1.458 0 011.069-.442c.419 0 .77.148 1.053.442a1.4 1.4 0 01.441 1.052c0 .419-.147.775-.441 1.069zm-2.139 9.93v-8.419h2.173v8.419h-2.173zm8.284-4.345l4.345 4.345h-2.716l-3.53-3.327v3.327h-2.173v-11.949h2.173v6.721l3.259-3.191h2.716l-4.074 4.074zm7.563-5.585a1.43 1.43 0 01-1.053.425c-.418 0-.775-.142-1.069-.425a1.484 1.484 0 01-.424-1.069c0-.419.141-.769.424-1.052a1.458 1.458 0 011.069-.442c.419 0 .77.148 1.053.442a1.4 1.4 0 01.441 1.052c0 .419-.147.775-.441 1.069zm-2.139 9.93v-8.419h2.173v8.419h-2.173zm13.572-12.221c-1.449 2.195-2.173 4.549-2.173 7.061 0 2.512.724 4.866 2.173 7.061l-2.173.815c-1.448-2.626-2.173-5.251-2.173-7.876s.725-5.25 2.173-7.876l2.173.815zm1.628 4.617c.068-1.166.464-2.133 1.188-2.903.724-.78 1.686-1.171 2.886-1.171 1.188 0 2.161.34 2.919 1.019.77.679 1.154 1.606 1.154 2.783 0 .86-.271 1.698-.814 2.512-.544.804-1.449 1.867-2.716 3.191h4.073v2.173h-8.962l4.617-4.888c1.086-1.189 1.63-2.139 1.63-2.852 0-.554-.17-.984-.51-1.29-.328-.317-.792-.475-1.391-.475-.577 0-1.03.203-1.358.611-.317.396-.498.916-.543 1.561l-2.173-.271zm15.192 0c1.029 0 1.923.334 2.681 1.001.759.657 1.138 1.528 1.138 2.614 0 1.324-.408 2.365-1.222 3.123-.804.758-1.845 1.138-3.124 1.138-1.335 0-2.376-.334-3.123-1.002-.747-.679-1.154-1.567-1.222-2.665l2.173-.169c.056.486.266.888.628 1.205.362.305.877.458 1.544.458.623 0 1.138-.175 1.545-.526.419-.351.628-.809.628-1.375 0-.487-.181-.9-.543-1.239-.351-.351-.849-.526-1.494-.526-.996 0-1.765.316-2.308.95h-1.901l1.086-6.789h6.246v2.172h-4.481l-.305 2.173c.486-.362 1.171-.543 2.054-.543zm6.711-2.343c.837-1.154 1.912-1.731 3.225-1.731 1.312 0 2.387.577 3.225 1.731.837 1.155 1.256 2.569 1.256 4.244 0 1.675-.419 3.089-1.256 4.243-.838 1.154-1.913 1.732-3.225 1.732-1.324 0-2.405-.572-3.242-1.715-.826-1.154-1.239-2.574-1.239-4.26 0-1.675.419-3.089 1.256-4.244zm1.595 6.943c.453.735.996 1.103 1.63 1.103.634 0 1.177-.368 1.629-1.103.453-.747.679-1.647.679-2.699 0-1.053-.226-1.946-.679-2.682-.452-.747-.995-1.12-1.629-1.12s-1.177.373-1.63 1.12c-.452.736-.679 1.629-.679 2.682 0 1.052.227 1.952.679 2.699zm14.259-5.415h2.172v7.604c0 1.765-.402 3.112-1.205 4.04-.792.928-1.929 1.392-3.412 1.392a6.57 6.57 0 01-1.561-.187 5.195 5.195 0 01-1.307-.458 7.847 7.847 0 01-.798-.442 4.071 4.071 0 01-.407-.271l1.018-1.918c.317.271.747.52 1.29.747a4.366 4.366 0 001.765.356c.736 0 1.324-.249 1.766-.747.452-.486.679-1.109.679-1.867v-.73c-.679.781-1.539 1.172-2.58 1.172-1.166 0-2.162-.436-2.988-1.307-.815-.883-1.222-1.941-1.222-3.174 0-1.234.407-2.286 1.222-3.158.826-.882 1.822-1.323 2.988-1.323 1.041 0 1.901.39 2.58 1.171v-.9zm-3.938 5.839c.452.453.995.679 1.629.679s1.177-.226 1.63-.679c.452-.453.679-.996.679-1.629 0-.634-.227-1.177-.679-1.63a2.222 2.222 0 00-1.63-.679c-.634 0-1.177.226-1.629.679a2.222 2.222 0 00-.679 1.63c0 .633.226 1.176.679 1.629zm7.74-9.641l2.173-.815c1.448 2.626 2.172 5.251 2.172 7.876s-.724 5.25-2.172 7.876l-2.173-.815c1.448-2.195 2.173-4.549 2.173-7.061 0-2.512-.725-4.866-2.173-7.061z" fill="#000"/>
      <path d="M526.219 157.155c.792-1.131 1.805-1.697 3.038-1.697 1.234 0 2.241.566 3.022 1.697.792 1.121 1.188 2.501 1.188 4.142 0 1.641-.396 3.027-1.188 4.158-.781 1.121-1.788 1.681-3.022 1.681-1.244 0-2.257-.56-3.038-1.681-.781-1.131-1.171-2.517-1.171-4.158 0-1.641.39-3.021 1.171-4.142zm1.205 7.129c.509.815 1.12 1.222 1.833 1.222.713 0 1.319-.407 1.817-1.222.509-.826.763-1.822.763-2.987 0-1.166-.254-2.156-.763-2.97-.498-.826-1.104-1.239-1.817-1.239-.713 0-1.324.413-1.833 1.239-.498.814-.747 1.804-.747 2.97 0 1.165.249 2.161.747 2.987zm12.482-5.262c1.143 0 2.077.38 2.801 1.138a3.716 3.716 0 011.086 2.682c0 1.267-.396 2.302-1.188 3.106-.781.792-1.788 1.188-3.021 1.188-1.245 0-2.258-.402-3.038-1.205-.781-.804-1.171-1.873-1.171-3.208 0-1.268.333-2.558 1.001-3.87.668-1.324 1.663-2.41 2.987-3.259h2.886a2.495 2.495 0 00-.34.136c-.147.056-.424.198-.831.424a8.63 8.63 0 00-1.155.73c-.35.271-.735.645-1.154 1.12a6.62 6.62 0 00-1.001 1.511c.588-.328 1.301-.493 2.138-.493zm-2.172 5.771c.486.476 1.103.713 1.85.713.747 0 1.363-.237 1.85-.713.487-.475.73-1.058.73-1.748s-.238-1.262-.713-1.714c-.464-.453-1.086-.679-1.867-.679-.747 0-1.364.232-1.85.696-.487.452-.73 1.018-.73 1.697 0 .69.243 1.273.73 1.748zm9.189-3.632c-.339 0-.628-.119-.865-.356a1.178 1.178 0 01-.357-.866c0-.351.119-.639.357-.866.237-.237.526-.356.865-.356.351 0 .64.119.866.356.238.227.356.515.356.866 0 .34-.118.628-.356.866a1.145 1.145 0 01-.866.356zm0 5.975c-.339 0-.628-.119-.865-.357a1.176 1.176 0 01-.357-.865c0-.34.119-.628.357-.866.237-.238.526-.356.865-.356.351 0 .64.118.866.356.238.238.356.526.356.866 0 .339-.118.628-.356.865a1.142 1.142 0 01-.866.357zm4.292-9.981c.792-1.131 1.805-1.697 3.038-1.697 1.234 0 2.241.566 3.022 1.697.792 1.121 1.188 2.501 1.188 4.142 0 1.641-.396 3.027-1.188 4.158-.781 1.121-1.788 1.681-3.022 1.681-1.244 0-2.257-.56-3.038-1.681-.781-1.131-1.171-2.517-1.171-4.158 0-1.641.39-3.021 1.171-4.142zm1.205 7.129c.509.815 1.121 1.222 1.833 1.222.713 0 1.319-.407 1.817-1.222.509-.826.763-1.822.763-2.987 0-1.166-.254-2.156-.763-2.97-.498-.826-1.104-1.239-1.817-1.239-.712 0-1.324.413-1.833 1.239-.498.814-.747 1.804-.747 2.97 0 1.165.249 2.161.747 2.987zm15.012-.814h1.357v1.629h-1.357V167h-1.63v-1.901h-5.975l7.605-9.777v8.148zm-1.63 0v-3.769l-2.75 3.769h2.75zm9.512-4.753c1.177 0 2.15.407 2.919 1.222.77.815 1.155 1.811 1.155 2.987 0 1.177-.385 2.173-1.155 2.988-.769.814-1.742 1.222-2.919 1.222-1.132 0-2.037-.442-2.716-1.324v5.533h-1.629v-12.492h1.629v1.188c.679-.883 1.584-1.324 2.716-1.324zm-1.969 6.043a2.53 2.53 0 001.833.746c.713 0 1.318-.249 1.816-.746a2.5 2.5 0 00.764-1.834c0-.713-.254-1.318-.764-1.816a2.445 2.445 0 00-1.816-.764 2.5 2.5 0 00-1.833.764 2.472 2.472 0 00-.747 1.816c0 .713.249 1.324.747 1.834zm16.882-6.043c.905 0 1.612.322 2.121.967.51.645.764 1.568.764 2.767V167h-1.629v-4.549c0-1.403-.521-2.105-1.562-2.105-.52 0-.979.198-1.375.594-.396.397-.594.923-.594 1.579V167h-1.629v-4.549c0-1.403-.521-2.105-1.562-2.105-.52 0-.979.198-1.375.594-.396.397-.594.923-.594 1.579V167h-1.629v-8.147h1.629v.95a5.86 5.86 0 01.526-.526c.148-.136.374-.26.679-.373a2.898 2.898 0 011.07-.187c1.063 0 1.844.43 2.342 1.29.43-.464.86-.792 1.29-.985.441-.203.951-.305 1.528-.305zm14.84 4.481h-4.616v-1.358h4.616v1.358zm11.663-2.852c1.414.272 2.45.662 3.106 1.172.656.497.984 1.21.984 2.138 0 1.019-.39 1.856-1.171 2.512-.781.645-1.827.968-3.14.968a6.62 6.62 0 01-1.799-.238c-.555-.17-1.018-.379-1.392-.628a9.793 9.793 0 01-.798-.594 3.155 3.155 0 01-.39-.39l.815-1.46c1.007 1.12 2.206 1.68 3.598 1.68.849 0 1.499-.158 1.952-.475.464-.317.696-.752.696-1.307 0-.86-.866-1.443-2.597-1.748-1.505-.26-2.563-.651-3.174-1.171-.6-.532-.9-1.211-.9-2.037 0-.962.362-1.754 1.087-2.376.724-.623 1.731-.934 3.021-.934 1.482 0 2.71.453 3.683 1.358l-.781 1.477c-.826-.804-1.804-1.205-2.936-1.205-.781 0-1.386.141-1.816.424-.419.283-.628.679-.628 1.188 0 .43.198.769.594 1.018.396.238 1.058.447 1.986.628zm6.531 3.989v-3.853h-1.086v-1.629h1.086v-3.259h1.63v3.259h1.629v1.629h-1.629v3.395c0 .781.107 1.25.322 1.409.328.249.764.237 1.307-.034v1.646c-.328.159-.73.238-1.205.238-1.369 0-2.054-.934-2.054-2.801zm11.67-5.482h1.63V167h-1.63v-1.188c-.679.882-1.584 1.324-2.715 1.324-1.177 0-2.15-.408-2.92-1.222-.769-.815-1.154-1.811-1.154-2.988 0-1.176.385-2.172 1.154-2.987.77-.815 1.743-1.222 2.92-1.222 1.131 0 2.036.441 2.715 1.324v-1.188zm-4.413 5.907c.51.497 1.121.746 1.833.746.713 0 1.319-.249 1.817-.746.509-.51.763-1.121.763-1.834 0-.713-.254-1.318-.763-1.816a2.447 2.447 0 00-1.817-.764c-.712 0-1.323.255-1.833.764a2.472 2.472 0 00-.747 1.816c0 .713.249 1.324.747 1.834zm14.475-5.907h1.629v7.638c0 1.652-.39 2.897-1.171 3.734-.769.837-1.827 1.256-3.174 1.256-1.358 0-2.625-.453-3.802-1.358l.815-1.46c.317.238.577.425.781.561.203.135.509.271.916.407a3.87 3.87 0 001.29.221c.849 0 1.511-.272 1.986-.815.487-.543.73-1.313.73-2.309v-.916c-.679.882-1.584 1.324-2.716 1.324-1.177 0-2.15-.408-2.919-1.222-.77-.815-1.155-1.811-1.155-2.988 0-1.176.385-2.172 1.155-2.987.769-.815 1.742-1.222 2.919-1.222 1.132 0 2.037.441 2.716 1.324v-1.188zm-4.413 5.907a2.53 2.53 0 001.833.746c.713 0 1.318-.249 1.816-.746.509-.51.764-1.121.764-1.834 0-.713-.255-1.318-.764-1.816a2.445 2.445 0 00-1.816-.764 2.5 2.5 0 00-1.833.764 2.472 2.472 0 00-.747 1.816c0 .713.249 1.324.747 1.834zm15.561-1.8c0 .249-.017.487-.051.713h-6.162c.125.611.425 1.07.9 1.375.486.306 1.069.458 1.748.458.883 0 1.709-.271 2.478-.814l.543 1.459c-.78.657-1.799.985-3.055.985-1.369 0-2.427-.396-3.174-1.188-.735-.804-1.103-1.811-1.103-3.022 0-1.199.368-2.201 1.103-3.004.747-.803 1.731-1.205 2.954-1.205 1.108 0 2.019.385 2.732 1.154.724.77 1.087 1.799 1.087 3.089zm-6.213-.78h4.549c-.022-.464-.221-.883-.594-1.256-.373-.385-.916-.578-1.629-.578-.691 0-1.245.193-1.664.578-.418.384-.639.803-.662 1.256zm14.359-7.129h1.629V167h-1.629v-1.188c-.679.882-1.584 1.324-2.716 1.324-1.177 0-2.15-.408-2.919-1.222-.77-.815-1.155-1.811-1.155-2.988 0-1.176.385-2.172 1.155-2.987.769-.815 1.742-1.222 2.919-1.222 1.132 0 2.037.441 2.716 1.324v-4.99zm-4.413 9.709a2.53 2.53 0 001.833.746c.713 0 1.318-.249 1.816-.746.509-.51.764-1.121.764-1.834 0-.713-.255-1.318-.764-1.816a2.445 2.445 0 00-1.816-.764 2.5 2.5 0 00-1.833.764 2.472 2.472 0 00-.747 1.816c0 .713.249 1.324.747 1.834zm15.61-7.622a1.176 1.176 0 01-.865.357c-.34 0-.628-.119-.866-.357a1.179 1.179 0 01-.356-.865c0-.34.119-.628.356-.866.238-.237.526-.356.866-.356.339 0 .628.119.865.356.238.238.357.526.357.866 0 .339-.119.628-.357.865zm-1.68 9.862v-8.147h1.63V167h-1.63zm8.121-8.283c.984 0 1.753.305 2.308.917.566.611.849 1.505.849 2.681V167h-1.63v-4.549c0-.69-.141-1.211-.424-1.561-.272-.363-.741-.544-1.409-.544-.543 0-1.052.204-1.528.611-.475.396-.712.917-.712 1.562V167h-1.63v-8.147h1.63v.95c.633-.724 1.482-1.086 2.546-1.086zm18.77 8.283l-1.103-2.444h-5.126L693.363 167h-1.766l5.432-11.678L702.46 167h-1.765zm-5.482-4.074h3.632l-1.816-4.005-1.816 4.005zm14.448 4.346l-3.632-7.027-1.086 6.755h-1.664l1.935-11.678 4.447 8.623 4.447-8.623L716.043 167h-1.663l-1.086-6.755-3.633 7.027zm14.259-6.399c.633.147 1.109.48 1.425 1.001.317.509.476 1.075.476 1.697 0 1.007-.334 1.833-1.002 2.478-.656.634-1.544.951-2.665.951h-4.209v-11.406h3.412c1.244 0 2.206.254 2.885.764.69.509 1.036 1.25 1.036 2.223 0 .555-.131 1.041-.391 1.46-.26.407-.583.684-.967.832zm-4.346-3.65v2.852h2.037c1.358 0 2.037-.475 2.037-1.426 0-.95-.679-1.426-2.037-1.426h-2.037zm2.309 8.148c.724 0 1.29-.153 1.697-.459.408-.305.611-.764.611-1.375s-.203-1.069-.611-1.374c-.407-.306-.973-.459-1.697-.459h-2.309v3.667h2.309zm5.166-9.777h7.604v1.629h-2.987V167h-1.63v-9.777h-2.987v-1.629zm10.41 1.561c.792-1.131 1.805-1.697 3.038-1.697 1.234 0 2.241.566 3.022 1.697.792 1.121 1.188 2.501 1.188 4.142 0 1.641-.396 3.027-1.188 4.158-.781 1.121-1.788 1.681-3.022 1.681-1.244 0-2.257-.56-3.038-1.681-.781-1.131-1.171-2.517-1.171-4.158 0-1.641.39-3.021 1.171-4.142zm1.205 7.129c.509.815 1.12 1.222 1.833 1.222.713 0 1.319-.407 1.816-1.222.51-.826.764-1.822.764-2.987 0-1.166-.254-2.156-.764-2.97-.497-.826-1.103-1.239-1.816-1.239-.713 0-1.324.413-1.833 1.239-.498.814-.747 1.804-.747 2.97 0 1.165.249 2.161.747 2.987zm14.825-3.547c1.029.588 1.544 1.505 1.544 2.749 0 1.075-.407 1.952-1.222 2.631-.814.679-1.81 1.019-2.987 1.019s-2.173-.34-2.987-1.019c-.815-.679-1.223-1.556-1.223-2.631 0-1.222.51-2.138 1.528-2.749-.656-.464-.984-1.16-.984-2.088 0-.905.35-1.663 1.052-2.274.713-.611 1.584-.917 2.614-.917 1.018 0 1.884.306 2.597.917.713.611 1.069 1.369 1.069 2.274s-.334 1.601-1.001 2.088zm-1.222-3.208c-.396-.294-.877-.441-1.443-.441-.566 0-1.047.147-1.443.441-.396.294-.594.645-.594 1.052 0 .408.198.758.594 1.053.396.294.877.441 1.443.441.566 0 1.047-.147 1.443-.441.396-.295.594-.645.594-1.053 0-.407-.198-.758-.594-1.052zm-3.276 7.417c.509.374 1.12.56 1.833.56.713 0 1.318-.186 1.816-.56.509-.385.764-.854.764-1.409 0-.554-.255-1.018-.764-1.391-.498-.385-1.103-.578-1.816-.578-.713 0-1.324.193-1.833.578-.498.373-.747.837-.747 1.391 0 .555.249 1.024.747 1.409zM765.36 167h-1.901l-2.835-3.938h-1.782V167h-1.629v-11.406h3.53c1.437 0 2.518.328 3.242.984.736.657 1.103 1.545 1.103 2.665 0 .894-.237 1.675-.713 2.342-.463.657-1.114 1.098-1.951 1.324L765.36 167zm-6.518-9.777v4.21h2.427c.645 0 1.172-.17 1.579-.509.407-.351.611-.877.611-1.579 0-.713-.204-1.245-.611-1.596-.396-.35-.911-.526-1.545-.526h-2.461zm14.801 0h-4.889v3.259h4.074v1.63h-4.074v3.259h4.889V167h-6.518v-11.406h6.518v1.629zm5.579-1.629c1.833 0 3.259.537 4.278 1.612 1.029 1.075 1.544 2.439 1.544 4.091 0 1.641-.52 3.004-1.561 4.091-1.041 1.075-2.462 1.612-4.261 1.612h-3.411v-11.406h3.411zm.425 9.777c1.097 0 1.997-.391 2.698-1.172.713-.792 1.07-1.759 1.07-2.902 0-1.143-.357-2.105-1.07-2.886-.701-.792-1.601-1.188-2.698-1.188h-2.207v8.148h2.207zm14.369-10.32v4.99c.679-.883 1.584-1.324 2.715-1.324 1.177 0 2.15.407 2.92 1.222.769.815 1.154 1.811 1.154 2.987 0 1.177-.385 2.173-1.154 2.988-.77.814-1.743 1.222-2.92 1.222-1.131 0-2.036-.442-2.715-1.324V167h-1.63v-11.949h1.63zm.746 9.709c.51.497 1.121.746 1.834.746.712 0 1.318-.249 1.816-.746.509-.51.764-1.121.764-1.834 0-.713-.255-1.318-.764-1.816a2.447 2.447 0 00-1.816-.764c-.713 0-1.324.255-1.834.764a2.474 2.474 0 00-.746 1.816c0 .713.249 1.324.746 1.834zm13.335-5.907h1.816l-5.517 12.492h-1.782l2.173-4.871-3.293-7.621h1.816l2.393 5.635 2.394-5.635zm9.505-1.698c.792-1.131 1.805-1.697 3.038-1.697 1.234 0 2.241.566 3.022 1.697.792 1.121 1.188 2.501 1.188 4.142 0 1.641-.396 3.027-1.188 4.158-.781 1.121-1.788 1.681-3.022 1.681-1.244 0-2.257-.56-3.038-1.681-.781-1.131-1.171-2.517-1.171-4.158 0-1.641.39-3.021 1.171-4.142zm1.205 7.129c.51.815 1.121 1.222 1.833 1.222.713 0 1.319-.407 1.817-1.222.509-.826.763-1.822.763-2.987 0-1.166-.254-2.156-.763-2.97-.498-.826-1.104-1.239-1.817-1.239-.712 0-1.323.413-1.833 1.239-.498.814-.746 1.804-.746 2.97 0 1.165.248 2.161.746 2.987zm12.381-4.888c.996 0 1.861.339 2.597 1.018.747.668 1.12 1.579 1.12 2.733 0 1.154-.402 2.11-1.205 2.869-.804.746-1.76 1.12-2.869 1.12-1.109 0-2.048-.34-2.817-1.019-.77-.69-1.188-1.527-1.256-2.512l1.697-.169c.057.554.306 1.041.747 1.459.441.408.984.611 1.629.611a2.43 2.43 0 001.715-.662c.486-.452.73-1.001.73-1.646 0-.634-.204-1.154-.612-1.562-.407-.407-.933-.611-1.578-.611-.464 0-.922.119-1.375.357a2.59 2.59 0 00-1.035 1.001h-1.664l1.019-6.789h5.788v1.629h-4.396l-.442 2.92c.6-.498 1.335-.747 2.207-.747zm9.501 4.175c-1.142 0-2.076-.373-2.8-1.12-.724-.758-1.086-1.658-1.086-2.699 0-1.267.39-2.297 1.171-3.089.792-.803 1.805-1.205 3.038-1.205 1.245 0 2.257.402 3.038 1.205.781.804 1.171 1.873 1.171 3.208 0 1.268-.333 2.563-1.001 3.887-.668 1.313-1.663 2.393-2.987 3.242h-2.886c.079-.023.192-.062.34-.119.147-.068.424-.209.831-.424a8.87 8.87 0 001.138-.747 7.91 7.91 0 001.154-1.103 6.694 6.694 0 001.018-1.528c-.588.328-1.301.492-2.139.492zm2.173-5.771c-.487-.475-1.103-.712-1.85-.712-.747 0-1.364.237-1.85.712a2.35 2.35 0 00-.73 1.749c0 .69.232 1.261.696 1.714.475.453 1.103.679 1.884.679.747 0 1.363-.226 1.85-.679.487-.464.73-1.035.73-1.714a2.35 2.35 0 00-.73-1.749zm15.368 2.971c.022.203.034.379.034.526 0 1.629-.532 3.01-1.596 4.141-1.052 1.132-2.376 1.698-3.972 1.698-1.606 0-2.981-.572-4.124-1.715-1.143-1.142-1.714-2.517-1.714-4.124 0-1.607.571-2.982 1.714-4.125 1.143-1.143 2.518-1.714 4.124-1.714 1.121 0 2.116.289 2.988.866.871.565 1.556 1.341 2.054 2.325l-1.647.475a3.717 3.717 0 00-1.392-1.476c-.588-.374-1.256-.56-2.003-.56-1.165 0-2.161.413-2.987 1.239-.815.814-1.222 1.804-1.222 2.97 0 1.165.407 2.161 1.222 2.987.826.815 1.822 1.222 2.987 1.222 1.008 0 1.851-.288 2.53-.865.678-.589 1.114-1.341 1.306-2.258h-4.243v-1.629l5.941.017zm9.949 6.229h-1.901l-2.835-3.938h-1.782V167h-1.63v-11.406h3.531c1.437 0 2.518.328 3.242.984.735.657 1.103 1.545 1.103 2.665 0 .894-.238 1.675-.713 2.342-.464.657-1.114 1.098-1.952 1.324l2.937 4.091zm-6.518-9.777v4.21h2.427c.645 0 1.171-.17 1.579-.509.407-.351.611-.877.611-1.579 0-.713-.204-1.245-.611-1.596-.396-.35-.911-.526-1.545-.526h-2.461zm13.164 8.283c1.188 0 2.178-.413 2.97-1.239l.696 1.528a4.9 4.9 0 01-1.663 1.001 5.608 5.608 0 01-1.901.34c-1.641 0-3.044-.572-4.21-1.715-1.154-1.142-1.731-2.517-1.731-4.124 0-1.607.577-2.982 1.731-4.125 1.166-1.143 2.569-1.714 4.21-1.714.645 0 1.284.113 1.918.34a4.73 4.73 0 011.646.984l-.696 1.528c-.792-.815-1.782-1.222-2.97-1.222-1.166 0-2.161.413-2.987 1.239-.815.814-1.222 1.804-1.222 2.97 0 1.165.407 2.161 1.222 2.987.826.815 1.821 1.222 2.987 1.222zm5.561-8.962l3.531-1.222V167h-1.63v-9.573l-1.901.611v-1.494zm7.149.611c.792-1.131 1.805-1.697 3.038-1.697 1.234 0 2.241.566 3.021 1.697.792 1.121 1.189 2.501 1.189 4.142 0 1.641-.397 3.027-1.189 4.158-.78 1.121-1.787 1.681-3.021 1.681-1.245 0-2.257-.56-3.038-1.681-.781-1.131-1.171-2.517-1.171-4.158 0-1.641.39-3.021 1.171-4.142zm1.205 7.129c.509.815 1.12 1.222 1.833 1.222.713 0 1.318-.407 1.816-1.222.509-.826.764-1.822.764-2.987 0-1.166-.255-2.156-.764-2.97-.498-.826-1.103-1.239-1.816-1.239-.713 0-1.324.413-1.833 1.239-.498.814-.747 1.804-.747 2.97 0 1.165.249 2.161.747 2.987zm9.121-7.129c.793-1.131 1.805-1.697 3.039-1.697 1.233 0 2.24.566 3.021 1.697.792 1.121 1.188 2.501 1.188 4.142 0 1.641-.396 3.027-1.188 4.158-.781 1.121-1.788 1.681-3.021 1.681-1.245 0-2.258-.56-3.039-1.681-.78-1.131-1.171-2.517-1.171-4.158 0-1.641.391-3.021 1.171-4.142zm1.206 7.129c.509.815 1.12 1.222 1.833 1.222.713 0 1.318-.407 1.816-1.222.509-.826.764-1.822.764-2.987 0-1.166-.255-2.156-.764-2.97-.498-.826-1.103-1.239-1.816-1.239-.713 0-1.324.413-1.833 1.239-.498.814-.747 1.804-.747 2.97 0 1.165.249 2.161.747 2.987zm15.011-.814h1.358v1.629h-1.358V167h-1.63v-1.901h-5.974l7.604-9.777v8.148zm-1.63 0v-3.769l-2.749 3.769h2.749z" fill="#666B73"/>
      <path fill="#EFEFEF" d="M495 204.168h548v1.212H495zm0-119.788h548v1.212H495z"/>
    </g>
    <path d="M709.608 26h-3.072V9.872h3.072V26zm3.837-3.384v-5.832h-1.536v-2.688h1.536V9.872h3.072v4.224h2.304v2.688h-2.304v4.992c0 .848.192 1.376.576 1.584.4.208.976.192 1.728-.048V26c-.64.256-1.392.384-2.256.384-1.056 0-1.84-.336-2.352-1.008-.512-.688-.768-1.608-.768-2.76zm19.016-2.568c0 .224-.016.544-.048.96h-8.664c.224.816.632 1.472 1.224 1.968.608.48 1.376.72 2.304.72 1.328 0 2.512-.368 3.552-1.104l.888 2.664c-.128.08-.312.184-.552.312-.224.128-.728.296-1.512.504a9.234 9.234 0 01-2.424.312c-2.208 0-3.872-.592-4.992-1.776-1.12-1.184-1.68-2.704-1.68-4.56 0-1.856.528-3.376 1.584-4.56 1.056-1.184 2.576-1.776 4.56-1.776 1.856 0 3.28.56 4.272 1.68.992 1.104 1.488 2.656 1.488 4.656zm-8.64-1.344h5.376c0-.576-.24-1.104-.72-1.584-.464-.48-1.12-.72-1.968-.72-.72 0-1.352.256-1.896.768-.528.496-.792 1.008-.792 1.536zm23.615-4.992c1.408 0 2.528.464 3.36 1.392.832.912 1.248 2.24 1.248 3.984V26h-3.072v-6.528c0-.944-.144-1.624-.432-2.04-.272-.432-.768-.648-1.488-.648-1.536 0-2.304 1.024-2.304 3.072V26h-3.072v-6.528c0-.928-.152-1.608-.456-2.04-.304-.432-.792-.648-1.464-.648-1.536 0-2.304 1.024-2.304 3.072V26h-3.072V14.096h3.072v1.152c.816-1.024 1.84-1.536 3.072-1.536 1.504 0 2.616.536 3.336 1.608.96-1.072 2.152-1.608 3.576-1.608zm21.249 0c1.392 0 2.48.456 3.264 1.368.8.912 1.2 2.248 1.2 4.008V26h-3.072v-6.528c0-.928-.184-1.608-.552-2.04-.368-.432-.952-.648-1.752-.648-.768 0-1.408.256-1.92.768s-.768 1.28-.768 2.304V26h-3.072V14.096h3.072v1.152c.864-1.024 2.064-1.536 3.6-1.536zm15.988.384h3.072V26h-3.072v-1.272c-.96 1.104-2.176 1.656-3.648 1.656-1.648 0-3.056-.616-4.224-1.848-1.152-1.248-1.728-2.744-1.728-4.488 0-1.744.576-3.232 1.728-4.464 1.168-1.248 2.576-1.872 4.224-1.872 1.472 0 2.688.552 3.648 1.656v-1.272zm-5.568 8.256c.64.64 1.408.96 2.304.96.896 0 1.664-.32 2.304-.96.64-.64.96-1.408.96-2.304 0-.896-.32-1.664-.96-2.304-.64-.64-1.408-.96-2.304-.96-.896 0-1.664.32-2.304.96-.64.64-.96 1.408-.96 2.304 0 .896.32 1.664.96 2.304zm24.581-8.64c1.408 0 2.528.464 3.36 1.392.832.912 1.248 2.24 1.248 3.984V26h-3.072v-6.528c0-.944-.144-1.624-.432-2.04-.272-.432-.768-.648-1.488-.648-1.536 0-2.304 1.024-2.304 3.072V26h-3.072v-6.528c0-.928-.152-1.608-.456-2.04-.304-.432-.792-.648-1.464-.648-1.536 0-2.304 1.024-2.304 3.072V26h-3.072V14.096h3.072v1.152c.816-1.024 1.84-1.536 3.072-1.536 1.504 0 2.616.536 3.336 1.608.96-1.072 2.152-1.608 3.576-1.608zm18.423 6.336c0 .224-.015.544-.047.96h-8.664c.224.816.632 1.472 1.224 1.968.608.48 1.376.72 2.304.72 1.328 0 2.512-.368 3.552-1.104l.888 2.664c-.128.08-.312.184-.552.312-.224.128-.728.296-1.512.504a9.234 9.234 0 01-2.424.312c-2.208 0-3.872-.592-4.992-1.776-1.12-1.184-1.68-2.704-1.68-4.56 0-1.856.528-3.376 1.584-4.56 1.056-1.184 2.576-1.776 4.56-1.776 1.856 0 3.28.56 4.272 1.68.992 1.104 1.487 2.656 1.487 4.656zm-8.639-1.344h5.376c0-.576-.24-1.104-.72-1.584-.464-.48-1.12-.72-1.968-.72-.72 0-1.352.256-1.896.768-.528.496-.792 1.008-.792 1.536zM539 72h452v2H539z" fill="#004C79"/>
    <path fill="#004C79" d="M764 39h2v34h-2z"/>
    <path d="M495.768 259.872h11.52v3.072h-4.224V276h-3.072v-13.056h-4.224v-3.072zm16.847 2.088c-.4.4-.896.6-1.488.6s-1.096-.2-1.512-.6c-.4-.416-.6-.92-.6-1.512s.2-1.088.6-1.488a2.06 2.06 0 011.512-.624c.592 0 1.088.208 1.488.624.416.4.624.896.624 1.488a2.06 2.06 0 01-.624 1.512zM509.591 276v-11.904h3.072V276h-3.072zm19.009-12.288c1.408 0 2.528.464 3.36 1.392.832.912 1.248 2.24 1.248 3.984V276h-3.072v-6.528c0-.944-.144-1.624-.432-2.04-.272-.432-.768-.648-1.488-.648-1.536 0-2.304 1.024-2.304 3.072V276h-3.072v-6.528c0-.928-.152-1.608-.456-2.04-.304-.432-.792-.648-1.464-.648-1.536 0-2.304 1.024-2.304 3.072V276h-3.072v-11.904h3.072v1.152c.816-1.024 1.84-1.536 3.072-1.536 1.504 0 2.616.536 3.336 1.608.96-1.072 2.152-1.608 3.576-1.608zm18.424 6.336c0 .224-.016.544-.048.96h-8.664c.224.816.632 1.472 1.224 1.968.608.48 1.376.72 2.304.72 1.328 0 2.512-.368 3.552-1.104l.888 2.664c-.128.08-.312.184-.552.312-.224.128-.728.296-1.512.504a9.234 9.234 0 01-2.424.312c-2.208 0-3.872-.592-4.992-1.776-1.12-1.184-1.68-2.704-1.68-4.56 0-1.856.528-3.376 1.584-4.56 1.056-1.184 2.576-1.776 4.56-1.776 1.856 0 3.28.56 4.272 1.68.992 1.104 1.488 2.656 1.488 4.656zm-8.64-1.344h5.376c0-.576-.24-1.104-.72-1.584-.464-.48-1.12-.72-1.968-.72-.72 0-1.352.256-1.896.768-.528.496-.792 1.008-.792 1.536zm16.141-.288c1.84.288 3.096.76 3.768 1.416.672.656 1.008 1.432 1.008 2.328 0 1.248-.472 2.264-1.416 3.048-.928.784-2.2 1.176-3.816 1.176-1.248 0-2.376-.192-3.384-.576-.992-.384-1.704-.768-2.136-1.152l1.008-2.88c.512.48 1.16.88 1.944 1.2.8.304 1.56.464 2.28.48 1.632.032 2.448-.312 2.448-1.032 0-.256-.152-.448-.456-.576-.288-.128-.84-.264-1.656-.408-1.072-.176-1.968-.392-2.688-.648-.704-.272-1.232-.584-1.584-.936-.352-.368-.592-.744-.72-1.128-.128-.384-.192-.84-.192-1.368 0-.992.488-1.848 1.464-2.568s2.224-1.08 3.744-1.08c1.6 0 3.144.384 4.632 1.152l-.864 2.784c-.336-.24-.864-.464-1.584-.672a8.504 8.504 0 00-2.184-.336c-1.424-.032-2.136.208-2.136.72 0 .4.48.688 1.44.864.144.032.376.072.696.12l.384.072zm7.842 4.2v-5.832h-1.536v-2.688h1.536v-4.224h3.072v4.224h2.304v2.688h-2.304v4.992c0 .848.192 1.376.576 1.584.4.208.976.192 1.728-.048V276c-.64.256-1.392.384-2.256.384-1.056 0-1.84-.336-2.352-1.008-.512-.688-.768-1.608-.768-2.76zm16.899-8.52h3.072V276h-3.072v-1.272c-.96 1.104-2.176 1.656-3.648 1.656-1.648 0-3.056-.616-4.224-1.848-1.152-1.248-1.728-2.744-1.728-4.488 0-1.744.576-3.232 1.728-4.464 1.168-1.248 2.576-1.872 4.224-1.872 1.472 0 2.688.552 3.648 1.656v-1.272zm-5.568 8.256c.64.64 1.408.96 2.304.96.896 0 1.664-.32 2.304-.96.64-.64.96-1.408.96-2.304 0-.896-.32-1.664-.96-2.304-.64-.64-1.408-.96-2.304-.96-.896 0-1.664.32-2.304.96-.64.64-.96 1.408-.96 2.304 0 .896.32 1.664.96 2.304zm24.582-8.64c1.408 0 2.528.464 3.36 1.392.832.912 1.248 2.24 1.248 3.984V276h-3.072v-6.528c0-.944-.144-1.624-.432-2.04-.272-.432-.768-.648-1.488-.648-1.536 0-2.304 1.024-2.304 3.072V276h-3.072v-6.528c0-.928-.152-1.608-.456-2.04-.304-.432-.792-.648-1.464-.648-1.536 0-2.304 1.024-2.304 3.072V276h-3.072v-11.904h3.072v1.152c.816-1.024 1.84-1.536 3.072-1.536 1.504 0 2.616.536 3.336 1.608.96-1.072 2.152-1.608 3.576-1.608zm13.82 0c1.648 0 3.048.624 4.2 1.872 1.168 1.232 1.752 2.72 1.752 4.464 0 1.744-.584 3.24-1.752 4.488-1.152 1.232-2.552 1.848-4.2 1.848-1.472 0-2.688-.552-3.648-1.656v7.416h-3.072v-18.048h3.072v1.272c.96-1.104 2.176-1.656 3.648-1.656zm-2.688 8.64c.64.64 1.408.96 2.304.96.896 0 1.664-.32 2.304-.96.64-.64.96-1.408.96-2.304 0-.896-.32-1.664-.96-2.304-.64-.64-1.408-.96-2.304-.96-.896 0-1.664.32-2.304.96-.64.64-.96 1.408-.96 2.304 0 .896.32 1.664.96 2.304z" fill="#366B00"/>
    <path d="M694.608 272.928h6.528V276h-9.6v-16.128h3.072v13.056zm17.666-8.832h3.072V276h-3.072v-1.272c-.96 1.104-2.176 1.656-3.648 1.656-1.648 0-3.056-.616-4.224-1.848-1.152-1.248-1.728-2.744-1.728-4.488 0-1.744.576-3.232 1.728-4.464 1.168-1.248 2.576-1.872 4.224-1.872 1.472 0 2.688.552 3.648 1.656v-1.272zm-5.568 8.256c.64.64 1.408.96 2.304.96.896 0 1.664-.32 2.304-.96.64-.64.96-1.408.96-2.304 0-.896-.32-1.664-.96-2.304-.64-.64-1.408-.96-2.304-.96-.896 0-1.664.32-2.304.96-.64.64-.96 1.408-.96 2.304 0 .896.32 1.664.96 2.304zm12.481.264v-5.832h-1.536v-2.688h1.536v-4.224h3.072v4.224h2.304v2.688h-2.304v4.992c0 .848.192 1.376.576 1.584.4.208.976.192 1.728-.048V276c-.64.256-1.392.384-2.256.384-1.056 0-1.84-.336-2.352-1.008-.512-.688-.768-1.608-.768-2.76zm19.016-2.568c0 .224-.016.544-.048.96h-8.664c.224.816.632 1.472 1.224 1.968.608.48 1.376.72 2.304.72 1.328 0 2.512-.368 3.552-1.104l.888 2.664c-.128.08-.312.184-.552.312-.224.128-.728.296-1.512.504a9.234 9.234 0 01-2.424.312c-2.208 0-3.872-.592-4.992-1.776-1.12-1.184-1.68-2.704-1.68-4.56 0-1.856.528-3.376 1.584-4.56 1.056-1.184 2.576-1.776 4.56-1.776 1.856 0 3.28.56 4.272 1.68.992 1.104 1.488 2.656 1.488 4.656zm-8.64-1.344h5.376c0-.576-.24-1.104-.72-1.584-.464-.48-1.12-.72-1.968-.72-.72 0-1.352.256-1.896.768-.528.496-.792 1.008-.792 1.536zm16.142-.288c1.84.288 3.096.76 3.768 1.416.672.656 1.008 1.432 1.008 2.328 0 1.248-.472 2.264-1.416 3.048-.928.784-2.2 1.176-3.816 1.176-1.248 0-2.376-.192-3.384-.576-.992-.384-1.704-.768-2.136-1.152l1.008-2.88c.512.48 1.16.88 1.944 1.2.8.304 1.56.464 2.28.48 1.632.032 2.448-.312 2.448-1.032 0-.256-.152-.448-.456-.576-.288-.128-.84-.264-1.656-.408-1.072-.176-1.968-.392-2.688-.648-.704-.272-1.232-.584-1.584-.936-.352-.368-.592-.744-.72-1.128-.128-.384-.192-.84-.192-1.368 0-.992.488-1.848 1.464-2.568s2.224-1.08 3.744-1.08c1.6 0 3.144.384 4.632 1.152l-.864 2.784c-.336-.24-.864-.464-1.584-.672a8.504 8.504 0 00-2.184-.336c-1.424-.032-2.136.208-2.136.72 0 .4.48.688 1.44.864.144.032.376.072.696.12l.384.072zm7.841 4.2v-5.832h-1.536v-2.688h1.536v-4.224h3.072v4.224h2.304v2.688h-2.304v4.992c0 .848.192 1.376.576 1.584.4.208.976.192 1.728-.048V276c-.64.256-1.392.384-2.256.384-1.056 0-1.84-.336-2.352-1.008-.512-.688-.768-1.608-.768-2.76zm24.189-8.52h3.072V276h-3.072v-1.272c-.96 1.104-2.176 1.656-3.648 1.656-1.648 0-3.056-.616-4.224-1.848-1.152-1.248-1.728-2.744-1.728-4.488 0-1.744.576-3.232 1.728-4.464 1.168-1.248 2.576-1.872 4.224-1.872 1.472 0 2.688.552 3.648 1.656v-1.272zm-5.568 8.256c.64.64 1.408.96 2.304.96.896 0 1.664-.32 2.304-.96.64-.64.96-1.408.96-2.304 0-.896-.32-1.664-.96-2.304-.64-.64-1.408-.96-2.304-.96-.896 0-1.664.32-2.304.96-.64.64-.96 1.408-.96 2.304 0 .896.32 1.664.96 2.304zm17.29.96c1.12 0 2.04-.36 2.76-1.08l1.272 2.736c-.976.944-2.352 1.416-4.128 1.416-2.032 0-3.648-.6-4.848-1.8-1.184-1.216-1.776-2.728-1.776-4.536 0-1.808.6-3.312 1.8-4.512 1.2-1.216 2.808-1.824 4.824-1.824 1.696 0 3.072.472 4.128 1.416l-1.272 2.76c-.736-.736-1.656-1.104-2.76-1.104-1.104 0-1.992.312-2.664.936-.656.624-.984 1.4-.984 2.328 0 .928.328 1.704.984 2.328.672.624 1.56.936 2.664.936zm7.097-.696v-5.832h-1.536v-2.688h1.536v-4.224h3.072v4.224h2.304v2.688h-2.304v4.992c0 .848.192 1.376.576 1.584.4.208.976.192 1.728-.048V276c-.64.256-1.392.384-2.256.384-1.056 0-1.84-.336-2.352-1.008-.512-.688-.768-1.608-.768-2.76zm11.092-10.656c-.4.4-.896.6-1.488.6s-1.096-.2-1.512-.6c-.4-.416-.6-.92-.6-1.512s.2-1.088.6-1.488a2.06 2.06 0 011.512-.624c.592 0 1.088.208 1.488.624.416.4.624.896.624 1.488a2.06 2.06 0 01-.624 1.512zM804.622 276v-11.904h3.072V276h-3.072zm6.846-10.44c1.232-1.232 2.728-1.848 4.488-1.848 1.76 0 3.256.616 4.488 1.848 1.232 1.232 1.848 2.728 1.848 4.488 0 1.76-.616 3.256-1.848 4.488-1.232 1.232-2.728 1.848-4.488 1.848-1.76 0-3.256-.616-4.488-1.848-1.232-1.232-1.848-2.728-1.848-4.488 0-1.76.616-3.256 1.848-4.488zm2.184 6.792c.64.64 1.408.96 2.304.96.896 0 1.664-.32 2.304-.96.64-.64.96-1.408.96-2.304 0-.896-.32-1.664-.96-2.304-.64-.64-1.408-.96-2.304-.96-.896 0-1.664.32-2.304.96-.64.64-.96 1.408-.96 2.304 0 .896.32 1.664.96 2.304zm17.236-8.64c1.392 0 2.48.456 3.264 1.368.8.912 1.2 2.248 1.2 4.008V276h-3.072v-6.528c0-.928-.184-1.608-.552-2.04-.368-.432-.952-.648-1.752-.648-.768 0-1.408.256-1.92.768s-.768 1.28-.768 2.304V276h-3.072v-11.904h3.072v1.152c.864-1.024 2.064-1.536 3.6-1.536z" fill="#800040"/>
    <path fill="#366B00" d="M525 216h68v2h-68z"/>
    <path fill="#800040" d="M613 216h303v2H613z"/>
    <path fill="#366B00" d="M558 217h2v34h-2z"/>
    <path fill="#800040" d="M763 217h2v34h-2z"/>
  </g>
  <defs>
    <clipPath id="ph_item_cards__clip0">
      <path fill="#fff" d="M0 0h1065v288H0z"/>
    </clipPath>
    <clipPath id="ph_item_cards__clip1">
      <path fill="#fff" transform="translate(495 84.38)" d="M0 0h548v121.239H0z"/>
    </clipPath>
  </defs>
</svg>
