<svg width="1035" height="400" fill="none" xmlns="http://www.w3.org/2000/svg">
  <g clip-path="url(#loblaw-ph_redesign_sub__clip0)">
    <rect x="337" y="10" width="671" height="382" rx="4" fill="#fff"/>
    <path d="M374.618 49.592c1.185 0 2.076.285 2.674.854.606.57.91 1.33.91 2.282a3.18 3.18 0 01-.854 2.212c-.57.616-1.33.924-2.282.924h-2.016V59h-1.792v-9.408h3.36zm.224 4.48c.438 0 .807-.126 1.106-.378.308-.252.462-.574.462-.966 0-.43-.15-.76-.448-.994-.29-.233-.663-.35-1.12-.35h-1.792v2.688h1.792zm6.493-.546c.224-.513.597-.91 1.12-1.19.523-.29 1.12-.457 1.792-.504v2.114a2.526 2.526 0 00-1.344 0 2.188 2.188 0 00-1.106.742c-.308.364-.462.83-.462 1.4V59h-1.792v-6.944h1.792v1.47zm10.528 2.002c0 .13-.009.317-.028.56h-5.054c.131.476.369.859.714 1.148.355.28.803.42 1.344.42.775 0 1.466-.215 2.072-.644l.518 1.554a5.514 5.514 0 01-.322.182c-.13.075-.424.173-.882.294a5.386 5.386 0 01-1.414.182c-1.288 0-2.258-.345-2.912-1.036-.653-.69-.98-1.577-.98-2.66 0-1.083.308-1.97.924-2.66.616-.69 1.503-1.036 2.66-1.036 1.083 0 1.914.327 2.492.98.579.644.868 1.55.868 2.716zm-5.04-.784h3.136c0-.336-.14-.644-.42-.924-.27-.28-.653-.42-1.148-.42-.42 0-.788.15-1.106.448-.308.29-.462.588-.462.896zm9.416-.168c1.074.168 1.806.443 2.198.826.392.383.588.835.588 1.358 0 .728-.275 1.32-.826 1.778-.541.457-1.283.686-2.226.686-.728 0-1.386-.112-1.974-.336-.578-.224-.994-.448-1.246-.672l.588-1.68c.299.28.677.513 1.134.7.467.177.91.27 1.33.28.952.019 1.428-.182 1.428-.602 0-.15-.088-.261-.266-.336-.168-.075-.49-.154-.966-.238a9.236 9.236 0 01-1.568-.378c-.41-.159-.718-.34-.924-.546a1.788 1.788 0 01-.42-.658 2.552 2.552 0 01-.112-.798c0-.579.285-1.078.854-1.498.57-.42 1.298-.63 2.184-.63.934 0 1.834.224 2.702.672l-.504 1.624c-.196-.14-.504-.27-.924-.392a4.956 4.956 0 00-1.274-.196c-.83-.019-1.246.121-1.246.42 0 .233.28.401.84.504.084.019.22.042.406.07l.224.042zm5.781-3.766c-.233.233-.523.35-.868.35s-.639-.117-.882-.35a1.227 1.227 0 01-.35-.882c0-.345.117-.635.35-.868.243-.243.537-.364.882-.364s.635.121.868.364c.243.233.364.523.364.868a1.2 1.2 0 01-.364.882zM400.256 59v-6.944h1.792V59h-1.792zm6.497-7.168c.858 0 1.568.322 2.128.966v-3.654h1.792V59h-1.792v-.742c-.56.644-1.27.966-2.128.966-.962 0-1.783-.36-2.464-1.078-.672-.728-1.008-1.6-1.008-2.618 0-1.017.336-1.885 1.008-2.604.681-.728 1.502-1.092 2.464-1.092zm-1.12 5.04c.373.373.821.56 1.344.56.522 0 .97-.187 1.344-.56.373-.373.56-.821.56-1.344 0-.523-.187-.97-.56-1.344a1.835 1.835 0 00-1.344-.56c-.523 0-.971.187-1.344.56a1.83 1.83 0 00-.56 1.344c0 .523.186.97.56 1.344zm13.109-1.344c0 .13-.009.317-.028.56h-5.054c.131.476.369.859.714 1.148.355.28.803.42 1.344.42a3.5 3.5 0 002.072-.644l.518 1.554a5.874 5.874 0 01-.322.182c-.131.075-.425.173-.882.294a5.386 5.386 0 01-1.414.182c-1.288 0-2.259-.345-2.912-1.036-.653-.69-.98-1.577-.98-2.66 0-1.083.308-1.97.924-2.66.616-.69 1.503-1.036 2.66-1.036 1.083 0 1.913.327 2.492.98.579.644.868 1.55.868 2.716zm-5.04-.784h3.136c0-.336-.14-.644-.42-.924-.271-.28-.653-.42-1.148-.42-.42 0-.789.15-1.106.448-.308.29-.462.588-.462.896zm10.051-2.912c.812 0 1.447.266 1.904.798.467.532.7 1.311.7 2.338V59h-1.792v-3.808c0-.541-.107-.938-.322-1.19-.214-.252-.555-.378-1.022-.378-.448 0-.821.15-1.12.448-.298.299-.448.747-.448 1.344V59h-1.792v-6.944h1.792v.672c.504-.597 1.204-.896 2.1-.896zm4.513 5.194v-3.402h-.896v-1.568h.896v-2.464h1.792v2.464h1.344v1.568h-1.344v2.912c0 .495.112.803.336.924.234.121.57.112 1.008-.028V59c-.373.15-.812.224-1.316.224-.616 0-1.073-.196-1.372-.588-.298-.401-.448-.938-.448-1.61zm4.259-4.522l.672-2.912h2.016l-1.568 2.912h-1.12zm7.068 2.072c1.073.168 1.806.443 2.198.826.392.383.588.835.588 1.358 0 .728-.276 1.32-.826 1.778-.542.457-1.284.686-2.226.686-.728 0-1.386-.112-1.974-.336-.579-.224-.994-.448-1.246-.672l.588-1.68c.298.28.676.513 1.134.7.466.177.91.27 1.33.28.952.019 1.428-.182 1.428-.602 0-.15-.089-.261-.266-.336-.168-.075-.49-.154-.966-.238a9.213 9.213 0 01-1.568-.378c-.411-.159-.719-.34-.924-.546a1.763 1.763 0 01-.42-.658 2.523 2.523 0 01-.112-.798c0-.579.284-1.078.854-1.498.569-.42 1.297-.63 2.184-.63a5.82 5.82 0 012.702.672l-.504 1.624c-.196-.14-.504-.27-.924-.392a4.963 4.963 0 00-1.274-.196c-.831-.019-1.246.121-1.246.42 0 .233.28.401.84.504.084.019.219.042.406.07l.224.042zm12.97 2.856c.933 0 1.712-.322 2.338-.966l.686 1.624a4.347 4.347 0 01-1.414.84 4.863 4.863 0 01-1.638.294c-1.382 0-2.562-.48-3.542-1.442-.98-.97-1.47-2.133-1.47-3.486 0-1.353.49-2.51 1.47-3.472.98-.97 2.16-1.456 3.542-1.456.541 0 1.087.098 1.638.294.55.196 1.022.471 1.414.826l-.686 1.624a3.24 3.24 0 00-2.338-.952c-.896 0-1.662.308-2.296.924-.635.607-.952 1.344-.952 2.212 0 .868.317 1.61.952 2.226.634.607 1.4.91 2.296.91zm8.255-5.6c.812 0 1.446.266 1.904.798.466.532.7 1.311.7 2.338V59h-1.792v-3.808c0-.541-.108-.938-.322-1.19-.215-.252-.556-.378-1.022-.378-.448 0-.822.15-1.12.448-.299.299-.448.747-.448 1.344V59h-1.792v-9.856h1.792v3.584c.504-.597 1.204-.896 2.1-.896zm4.804 1.078c.719-.719 1.592-1.078 2.618-1.078 1.027 0 1.9.36 2.618 1.078.719.719 1.078 1.591 1.078 2.618s-.359 1.9-1.078 2.618c-.718.719-1.591 1.078-2.618 1.078-1.026 0-1.899-.36-2.618-1.078-.718-.719-1.078-1.591-1.078-2.618s.36-1.9 1.078-2.618zm1.274 3.962c.374.373.822.56 1.344.56.523 0 .971-.187 1.344-.56a1.83 1.83 0 00.56-1.344c0-.523-.186-.97-.56-1.344a1.832 1.832 0 00-1.344-.56c-.522 0-.97.187-1.344.56-.373.373-.56.821-.56 1.344 0 .523.187.97.56 1.344zm7.927-6.062a1.18 1.18 0 01-.868.35c-.346 0-.64-.117-.882-.35a1.223 1.223 0 01-.35-.882c0-.345.116-.635.35-.868.242-.243.536-.364.882-.364.345 0 .634.121.868.364.242.233.364.523.364.868s-.122.64-.364.882zM473.059 59v-6.944h1.792V59h-1.792zm6.835-1.568c.653 0 1.19-.21 1.61-.63l.742 1.596c-.569.55-1.372.826-2.408.826-1.185 0-2.128-.35-2.828-1.05-.691-.71-1.036-1.591-1.036-2.646s.35-1.932 1.05-2.632c.7-.71 1.638-1.064 2.814-1.064.989 0 1.792.275 2.408.826l-.742 1.61c-.429-.43-.966-.644-1.61-.644-.644 0-1.162.182-1.554.546a1.797 1.797 0 00-.574 1.358c0 .541.191.994.574 1.358.392.364.91.546 1.554.546zm9.969-1.904c0 .13-.009.317-.028.56h-5.054c.131.476.369.859.714 1.148.355.28.803.42 1.344.42.775 0 1.466-.215 2.072-.644l.518 1.554a5.514 5.514 0 01-.322.182c-.13.075-.424.173-.882.294a5.386 5.386 0 01-1.414.182c-1.288 0-2.258-.345-2.912-1.036-.653-.69-.98-1.577-.98-2.66 0-1.083.308-1.97.924-2.66.616-.69 1.503-1.036 2.66-1.036 1.083 0 1.914.327 2.492.98.579.644.868 1.55.868 2.716zm-5.04-.784h3.136c0-.336-.14-.644-.42-.924-.27-.28-.653-.42-1.148-.42-.42 0-.788.15-1.106.448-.308.29-.462.588-.462.896zm10.182-5.152h6.72v1.792h-2.464V59h-1.792v-7.616h-2.464v-1.792zM507.542 59h-5.824l3.024-5.152h-2.8v-1.792h5.824l-3.024 5.152h2.8V59zm6.721-6.944h1.792V59h-1.792v-.742c-.56.644-1.269.966-2.128.966-.961 0-1.782-.36-2.464-1.078-.672-.728-1.008-1.6-1.008-2.618 0-1.017.336-1.885 1.008-2.604.682-.728 1.503-1.092 2.464-1.092.859 0 1.568.322 2.128.966v-.742zm-3.248 4.816c.374.373.822.56 1.344.56.523 0 .971-.187 1.344-.56a1.83 1.83 0 00.56-1.344c0-.523-.186-.97-.56-1.344a1.832 1.832 0 00-1.344-.56c-.522 0-.97.187-1.344.56-.373.373-.56.821-.56 1.344 0 .523.187.97.56 1.344zm7.281.154v-3.402h-.896v-1.568h.896v-2.464h1.792v2.464h1.344v1.568h-1.344v2.912c0 .495.112.803.336.924.233.121.569.112 1.008-.028V59c-.374.15-.812.224-1.316.224-.616 0-1.074-.196-1.372-.588-.299-.401-.448-.938-.448-1.61zM528.378 59h-5.824l3.024-5.152h-2.8v-1.792h5.824l-3.024 5.152h2.8V59zm3.224-8.19c-.233.233-.523.35-.868.35s-.639-.117-.882-.35a1.227 1.227 0 01-.35-.882c0-.345.117-.635.35-.868.243-.243.537-.364.882-.364s.635.121.868.364c.243.233.364.523.364.868a1.2 1.2 0 01-.364.882zM529.838 59v-6.944h1.792V59h-1.792zm6.833-3.584L540.255 59h-2.24l-2.912-2.744V59h-1.792v-9.856h1.792v5.544l2.688-2.632h2.24l-3.36 3.36zm6.238-4.606a1.18 1.18 0 01-.868.35c-.346 0-.64-.117-.882-.35a1.223 1.223 0 01-.35-.882c0-.345.116-.635.35-.868.242-.243.536-.364.882-.364.345 0 .634.121.868.364.242.233.364.523.364.868s-.122.64-.364.882zM541.145 59v-6.944h1.792V59h-1.792zm3.134 1.568l.784-3.36h2.016l-1.68 3.36h-1.12zm8.175-10.976h6.72v1.792h-2.464V59h-1.792v-7.616h-2.464v-1.792zm9.186 3.934c.224-.513.597-.91 1.12-1.19.522-.29 1.12-.457 1.792-.504v2.114a2.526 2.526 0 00-1.344 0c-.43.121-.798.369-1.106.742-.308.364-.462.83-.462 1.4V59h-1.792v-6.944h1.792v1.47zm9.184-1.47h1.792V59h-1.792v-.742c-.56.644-1.269.966-2.128.966-.961 0-1.783-.36-2.464-1.078-.672-.728-1.008-1.6-1.008-2.618 0-1.017.336-1.885 1.008-2.604.681-.728 1.503-1.092 2.464-1.092.859 0 1.568.322 2.128.966v-.742zm-3.248 4.816c.373.373.821.56 1.344.56.523 0 .971-.187 1.344-.56.373-.373.56-.821.56-1.344 0-.523-.187-.97-.56-1.344a1.832 1.832 0 00-1.344-.56c-.523 0-.971.187-1.344.56-.373.373-.56.821-.56 1.344 0 .523.187.97.56 1.344zm9.637-5.04c.859 0 1.568.322 2.128.966v-3.654h1.792V59h-1.792v-.742c-.56.644-1.269.966-2.128.966-.961 0-1.782-.36-2.464-1.078-.672-.728-1.008-1.6-1.008-2.618 0-1.017.336-1.885 1.008-2.604.682-.728 1.503-1.092 2.464-1.092zm-1.12 5.04c.374.373.822.56 1.344.56.523 0 .971-.187 1.344-.56a1.83 1.83 0 00.56-1.344c0-.523-.186-.97-.56-1.344a1.832 1.832 0 00-1.344-.56c-.522 0-.97.187-1.344.56-.373.373-.56.821-.56 1.344 0 .523.187.97.56 1.344zm8.487-6.062c-.233.233-.522.35-.868.35-.345 0-.639-.117-.882-.35a1.227 1.227 0 01-.35-.882c0-.345.117-.635.35-.868.243-.243.537-.364.882-.364.346 0 .635.121.868.364.243.233.364.523.364.868a1.2 1.2 0 01-.364.882zM582.816 59v-6.944h1.792V59h-1.792zm4.03-1.974v-3.402h-.896v-1.568h.896v-2.464h1.792v2.464h1.344v1.568h-1.344v2.912c0 .495.112.803.336.924.234.121.57.112 1.008-.028V59c-.373.15-.812.224-1.316.224-.616 0-1.073-.196-1.372-.588-.298-.401-.448-.938-.448-1.61zm6.471-6.216a1.18 1.18 0 01-.868.35c-.346 0-.64-.117-.882-.35a1.223 1.223 0 01-.35-.882c0-.345.116-.635.35-.868.242-.243.536-.364.882-.364.345 0 .634.121.868.364.242.233.364.523.364.868s-.122.64-.364.882zM591.553 59v-6.944h1.792V59h-1.792zm3.993-6.09c.719-.719 1.591-1.078 2.618-1.078s1.899.36 2.618 1.078c.719.719 1.078 1.591 1.078 2.618s-.359 1.9-1.078 2.618c-.719.719-1.591 1.078-2.618 1.078s-1.899-.36-2.618-1.078c-.719-.719-1.078-1.591-1.078-2.618s.359-1.9 1.078-2.618zm1.274 3.962c.373.373.821.56 1.344.56.523 0 .971-.187 1.344-.56.373-.373.56-.821.56-1.344 0-.523-.187-.97-.56-1.344a1.832 1.832 0 00-1.344-.56c-.523 0-.971.187-1.344.56-.373.373-.56.821-.56 1.344 0 .523.187.97.56 1.344zm10.054-5.04c.812 0 1.447.266 1.904.798.467.532.7 1.311.7 2.338V59h-1.792v-3.808c0-.541-.107-.938-.322-1.19-.214-.252-.555-.378-1.022-.378-.448 0-.821.15-1.12.448-.298.299-.448.747-.448 1.344V59h-1.792v-6.944h1.792v.672c.504-.597 1.204-.896 2.1-.896zm9.327.224h1.792V59h-1.792v-.742c-.56.644-1.27.966-2.128.966-.962 0-1.783-.36-2.464-1.078-.672-.728-1.008-1.6-1.008-2.618 0-1.017.336-1.885 1.008-2.604.681-.728 1.502-1.092 2.464-1.092.858 0 1.568.322 2.128.966v-.742zm-3.248 4.816c.373.373.821.56 1.344.56.522 0 .97-.187 1.344-.56.373-.373.56-.821.56-1.344 0-.523-.187-.97-.56-1.344a1.835 1.835 0 00-1.344-.56c-.523 0-.971.187-1.344.56a1.83 1.83 0 00-.56 1.344c0 .523.186.97.56 1.344zm6.723-7.728h1.792V59h-1.792v-9.856zm11.194-.224c-1.195 1.81-1.792 3.752-1.792 5.824s.597 4.013 1.792 5.824l-1.792.672c-1.195-2.165-1.792-4.33-1.792-6.496 0-2.165.597-4.33 1.792-6.496l1.792.672zm7.615 6.496h1.12v1.792h-1.12V59h-1.792v-1.792h-4.704V55.64l4.256-6.048h2.24v5.824zm-1.792 0V51.72l-2.506 3.696h2.506zm8.269-2.688c.849 0 1.587.275 2.212.826.625.541.938 1.26.938 2.156 0 1.092-.336 1.95-1.008 2.576-.663.625-1.521.938-2.576.938-1.101 0-1.96-.275-2.576-.826-.616-.56-.952-1.293-1.008-2.198l1.792-.14c.047.401.219.733.518.994.299.252.723.378 1.274.378.513 0 .938-.145 1.274-.434a1.41 1.41 0 00.518-1.134c0-.401-.149-.742-.448-1.022-.289-.29-.7-.434-1.232-.434-.821 0-1.456.261-1.904.784h-1.568l.896-5.6h5.152v1.792h-3.696l-.252 1.792c.401-.299.966-.448 1.694-.448zm10.996 2.688h1.12v1.792h-1.12V59h-1.792v-1.792h-4.704V55.64l4.256-6.048h2.24v5.824zm-1.792 0V51.72l-2.506 3.696h2.506zm9.627-3.36h1.792v6.272c0 1.456-.332 2.567-.994 3.332-.654.765-1.592 1.148-2.814 1.148a5.4 5.4 0 01-1.288-.154 4.28 4.28 0 01-1.078-.378 6.56 6.56 0 01-.658-.364 3.47 3.47 0 01-.336-.224l.84-1.582c.261.224.616.43 1.064.616.448.196.933.294 1.456.294.606 0 1.092-.205 1.456-.616.373-.401.56-.915.56-1.54v-.602c-.56.644-1.27.966-2.128.966-.962 0-1.783-.36-2.464-1.078-.672-.728-1.008-1.6-1.008-2.618 0-1.017.336-1.885 1.008-2.604.681-.728 1.502-1.092 2.464-1.092.858 0 1.568.322 2.128.966v-.742zm-3.248 4.816c.373.373.821.56 1.344.56.522 0 .97-.187 1.344-.56.373-.373.56-.821.56-1.344 0-.523-.187-.97-.56-1.344a1.835 1.835 0 00-1.344-.56c-.523 0-.971.187-1.344.56a1.83 1.83 0 00-.56 1.344c0 .523.186.97.56 1.344zm6.384-7.952l1.792-.672c1.195 2.165 1.792 4.33 1.792 6.496 0 2.165-.597 4.33-1.792 6.496l-1.792-.672c1.195-1.81 1.792-3.752 1.792-5.824s-.597-4.013-1.792-5.824z" fill="#000"/>
    <path d="M371.37 80.376v1.232l1.568-.504V89h1.344v-9.632l-2.912 1.008zm12.55-.784h-2.912V89h1.344v-3.248h1.988c1.988 0 3.164-1.386 3.164-3.15 0-1.778-1.134-3.01-3.584-3.01zm.434 4.816h-2.002v-3.472h1.918c.98 0 1.89.518 1.89 1.75 0 1.218-.826 1.722-1.806 1.722zm5.393-3.248c.56 0 1.008-.448 1.008-1.008s-.448-1.008-1.008-1.008-1.008.448-1.008 1.008.448 1.008 1.008 1.008zm-.672 7.84h1.344v-6.72h-1.344V89zm2.696-3.36c0 1.918 1.33 3.472 3.584 3.472.812 0 1.708-.266 2.24-.77l-.574-1.26a2.34 2.34 0 01-1.652.686c-1.246 0-2.254-.966-2.254-2.142 0-1.148 1.008-2.114 2.254-2.114.644 0 1.232.266 1.652.672l.574-1.246c-.588-.532-1.428-.77-2.24-.77-2.226 0-3.584 1.554-3.584 3.472zm9.858-.112l3.36-3.248h-1.792l-2.688 2.744v-5.88h-1.344V89h1.344v-2.856L403.421 89h1.792l-3.584-3.472zm10.406.14c0-2.184-1.372-3.5-3.15-3.5-2.058 0-3.346 1.554-3.346 3.472 0 1.89 1.176 3.472 3.528 3.472 1.456 0 2.338-.658 2.52-.812l-.448-1.204a3.566 3.566 0 01-2.044.672c-1.064 0-1.974-.462-2.184-1.512h5.082c.028-.182.042-.448.042-.588zm-5.124-.644c.028-.658.686-1.512 1.918-1.512 1.274 0 1.806.854 1.834 1.512h-3.752zm11.843-5.88v4.116c-.546-.714-1.33-1.092-2.24-1.092-1.96 0-3.36 1.554-3.36 3.472s1.4 3.472 3.36 3.472c.91 0 1.694-.378 2.24-1.092V89h1.344v-9.856h-1.344zm-2.128 8.624a2.127 2.127 0 110-4.256 2.127 2.127 0 110 4.256zm14.458-5.04c-.882 0-1.568.686-1.568 1.568s.686 1.568 1.568 1.568 1.568-.686 1.568-1.568-.686-1.568-1.568-1.568zm14.329.784c-1.484-.294-2.128-.63-2.128-1.358 0-.84.728-1.33 2.016-1.33 1.176 0 1.932.518 2.422.994l.644-1.218c-1.162-1.078-2.646-1.12-3.038-1.12-2.198 0-3.388 1.204-3.388 2.73 0 1.26.742 2.198 3.36 2.646 1.288.224 2.142.686 2.142 1.442 0 .896-.77 1.47-2.184 1.47-1.106 0-2.184-.518-2.968-1.386l-.672 1.204c.14.168 1.344 1.526 3.612 1.526 2.198 0 3.556-1.232 3.556-2.87 0-1.582-1.134-2.296-3.374-2.73zm7.319 5.6c1.05 0 1.708-.448 2.1-.896V89h1.344v-6.72h-1.344v3.696c0 1.148-1.036 1.792-1.848 1.792-1.148 0-1.512-.658-1.512-1.736V82.28h-1.344v3.864c0 1.988 1.008 2.968 2.604 2.968zm6.689-9.968h-1.344V89h1.344v-.98c.546.714 1.33 1.092 2.24 1.092 1.96 0 3.36-1.554 3.36-3.472s-1.4-3.472-3.36-3.472c-.91 0-1.694.378-2.24 1.092v-4.116zm2.128 8.624a2.127 2.127 0 110-4.256 2.127 2.127 0 110 4.256zm7.747-2.912c-.784-.154-1.582-.252-1.582-.756 0-.462.728-.602 1.386-.588.826.014 1.666.336 1.974.56l.462-1.26c-.91-.49-1.834-.644-2.436-.644-1.652 0-2.73.798-2.73 1.918 0 1.078.518 1.722 2.716 2.114.826.154 1.316.35 1.316.854 0 .406-.518.728-1.386.714-.756-.014-1.806-.392-2.338-.924l-.532 1.316c.308.294 1.428.952 2.912.952 1.75 0 2.688-.882 2.688-2.212 0-.826-.476-1.666-2.45-2.044zm4.473 1.946c0 1.288.42 2.31 1.694 2.31.378 0 .7-.056.994-.196v-1.358c-.308.154-.756.266-1.078.028-.266-.196-.266-.686-.266-1.162v-2.8h1.344V82.28h-1.344v-2.688h-1.344v2.688h-.896v1.344h.896v3.178zm5.146-5.642c.56 0 1.008-.448 1.008-1.008s-.448-1.008-1.008-1.008-1.008.448-1.008 1.008.448 1.008 1.008 1.008zm-.672 7.84h1.344v-6.72h-1.344V89zm3.811-2.198c0 1.288.42 2.31 1.694 2.31.378 0 .7-.056.994-.196v-1.358c-.308.154-.756.266-1.078.028-.266-.196-.266-.686-.266-1.162v-2.8h1.344V82.28h-1.344v-2.688h-1.344v2.688h-.896v1.344h.896v3.178zm6.854 2.31c1.05 0 1.708-.448 2.1-.896V89h1.344v-6.72h-1.344v3.696c0 1.148-1.036 1.792-1.848 1.792-1.148 0-1.512-.658-1.512-1.736V82.28h-1.344v3.864c0 1.988 1.008 2.968 2.604 2.968zm5.902-2.31c0 1.288.42 2.31 1.694 2.31.378 0 .7-.056.994-.196v-1.358c-.308.154-.756.266-1.078.028-.266-.196-.266-.686-.266-1.162v-2.8h1.344V82.28h-1.344v-2.688h-1.344v2.688h-.896v1.344h.896v3.178zm10.413-1.134c0-2.184-1.372-3.5-3.15-3.5-2.058 0-3.346 1.554-3.346 3.472 0 1.89 1.176 3.472 3.528 3.472 1.456 0 2.338-.658 2.52-.812l-.448-1.204a3.566 3.566 0 01-2.044.672c-1.064 0-1.974-.462-2.184-1.512h5.082c.028-.182.042-.448.042-.588zm-5.124-.644c.028-.658.686-1.512 1.918-1.512 1.274 0 1.806.854 1.834 1.512h-3.752zM512.618 89v-9.408h-1.344V89h1.344zm2.467-2.198c0 1.288.42 2.31 1.694 2.31.378 0 .7-.056.994-.196v-1.358c-.308.154-.756.266-1.078.028-.266-.196-.266-.686-.266-1.162v-2.8h1.344V82.28h-1.344v-2.688h-1.344v2.688h-.896v1.344h.896v3.178zm10.413-1.134c0-2.184-1.372-3.5-3.15-3.5-2.058 0-3.346 1.554-3.346 3.472 0 1.89 1.176 3.472 3.528 3.472 1.456 0 2.338-.658 2.52-.812l-.448-1.204a3.566 3.566 0 01-2.044.672c-1.064 0-1.974-.462-2.184-1.512h5.082c.028-.182.042-.448.042-.588zm-5.124-.644c.028-.658.686-1.512 1.918-1.512 1.274 0 1.806.854 1.834 1.512h-3.752zm13.948-2.856c-.952 0-1.61.294-2.324 1.064-.406-.7-1.064-1.064-1.932-1.064-1.05 0-1.484.448-1.876.896v-.784h-1.344V89h1.344v-3.696c0-1.148.812-1.792 1.624-1.792.924 0 1.288.658 1.288 1.736V89h1.344v-3.696c0-1.148.812-1.792 1.624-1.792.924 0 1.288.658 1.288 1.736V89h1.344v-3.752c0-1.988-.896-3.08-2.38-3.08z" fill="#666B73"/>
    <path fill="#C4C4C4" d="M370.362 106h606.325v1H370.362z"/>
    <path d="M404.449 131.88c.654-.933 1.489-1.4 2.506-1.4 1.018 0 1.848.467 2.492 1.4.654.924.98 2.063.98 3.416 0 1.353-.326 2.497-.98 3.43-.644.924-1.474 1.386-2.492 1.386-1.026 0-1.862-.462-2.506-1.386-.644-.933-.966-2.077-.966-3.43 0-1.353.322-2.492.966-3.416zm.994 5.88c.42.672.924 1.008 1.512 1.008s1.088-.336 1.498-1.008c.42-.681.63-1.503.63-2.464 0-.961-.21-1.778-.63-2.45-.41-.681-.91-1.022-1.498-1.022s-1.092.341-1.512 1.022c-.41.672-.616 1.489-.616 2.45 0 .961.206 1.783.616 2.464zm6.558-7.168h6.72L414.689 140h-1.568l3.472-8.064h-4.592v-1.344zm8.623 4.592a.972.972 0 01-.714-.294.972.972 0 01-.294-.714c0-.289.098-.527.294-.714a.972.972 0 01.714-.294c.289 0 .527.098.714.294a.944.944 0 01.294.714c0 .28-.098.518-.294.714a.944.944 0 01-.714.294zm0 4.928a.972.972 0 01-.714-.294.972.972 0 01-.294-.714c0-.28.098-.518.294-.714a.972.972 0 01.714-.294c.289 0 .527.098.714.294a.972.972 0 01.294.714c0 .28-.098.518-.294.714a.944.944 0 01-.714.294zm2.798-8.736l2.912-1.008V140h-1.344v-7.896l-1.568.504v-1.232zm8.668 2.044c.943 0 1.713.313 2.31.938.598.616.896 1.353.896 2.212 0 1.045-.326 1.899-.98 2.562-.644.653-1.474.98-2.492.98-1.026 0-1.862-.331-2.506-.994-.644-.663-.966-1.545-.966-2.646 0-1.045.276-2.109.826-3.192.551-1.092 1.372-1.988 2.464-2.688h2.38a2.239 2.239 0 00-.28.112c-.121.047-.35.163-.686.35a7.119 7.119 0 00-.952.602 7.214 7.214 0 00-.952.924 5.472 5.472 0 00-.826 1.246c.486-.271 1.074-.406 1.764-.406zm-1.792 4.76c.402.392.91.588 1.526.588s1.125-.196 1.526-.588c.402-.392.602-.873.602-1.442s-.196-1.041-.588-1.414c-.382-.373-.896-.56-1.54-.56-.616 0-1.124.191-1.526.574-.401.373-.602.84-.602 1.4 0 .569.201 1.05.602 1.442zm10.38-5.012c.971 0 1.773.336 2.408 1.008.635.672.952 1.493.952 2.464 0 .971-.317 1.792-.952 2.464-.635.672-1.437 1.008-2.408 1.008-.933 0-1.68-.364-2.24-1.092v4.564h-1.344V133.28h1.344v.98c.56-.728 1.307-1.092 2.24-1.092zm-1.624 4.984c.42.411.924.616 1.512.616s1.087-.205 1.498-.616c.42-.42.63-.924.63-1.512s-.21-1.087-.63-1.498c-.411-.42-.91-.63-1.498-.63s-1.092.21-1.512.63c-.411.411-.616.91-.616 1.498s.205 1.092.616 1.512zm13.924-4.984c.747 0 1.33.266 1.75.798.42.532.63 1.293.63 2.282V140h-1.344v-3.752c0-1.157-.429-1.736-1.288-1.736-.429 0-.807.163-1.134.49-.327.327-.49.761-.49 1.302V140h-1.344v-3.752c0-1.157-.429-1.736-1.288-1.736-.429 0-.807.163-1.134.49-.327.327-.49.761-.49 1.302V140h-1.344v-6.72h1.344v.784c.168-.187.313-.331.434-.434.121-.112.308-.215.56-.308.261-.103.555-.154.882-.154.877 0 1.521.355 1.932 1.064.355-.383.709-.653 1.064-.812.364-.168.784-.252 1.26-.252zm10.001-3.024v4.116c.56-.728 1.307-1.092 2.24-1.092.971 0 1.773.336 2.408 1.008.635.672.952 1.493.952 2.464 0 .971-.317 1.792-.952 2.464-.635.672-1.437 1.008-2.408 1.008-.933 0-1.68-.364-2.24-1.092v.98h-1.344v-9.856h1.344zm.616 8.008c.42.411.924.616 1.512.616s1.087-.205 1.498-.616c.42-.42.63-.924.63-1.512s-.21-1.087-.63-1.498c-.411-.42-.91-.63-1.498-.63s-1.092.21-1.512.63c-.411.411-.616.91-.616 1.498s.205 1.092.616 1.512zm10.998-4.872h1.498l-4.55 10.304h-1.47l1.792-4.018-2.716-6.286h1.498l1.974 4.648 1.974-4.648zm7.799-1.484c.69-.952 1.577-1.428 2.66-1.428 1.082 0 1.969.476 2.66 1.428.69.952 1.036 2.119 1.036 3.5 0 1.381-.346 2.548-1.036 3.5-.691.952-1.578 1.428-2.66 1.428-1.092 0-1.984-.471-2.674-1.414-.682-.952-1.022-2.123-1.022-3.514 0-1.381.345-2.548 1.036-3.5zm1.316 5.726c.373.607.821.91 1.344.91.522 0 .97-.303 1.344-.91.373-.616.56-1.358.56-2.226 0-.868-.187-1.605-.56-2.212-.374-.616-.822-.924-1.344-.924-.523 0-.971.308-1.344.924-.374.607-.56 1.344-.56 2.212 0 .868.186 1.61.56 2.226zm6.608-6.258l3.584-.896V140h-1.792v-7.448l-1.792.392v-1.68zm11.877 5.152h1.12v1.792h-1.12V140h-1.792v-1.792h-4.704v-1.568l4.256-6.048h2.24v5.824zm-1.792 0v-3.696l-2.506 3.696h2.506zm6.267 3.584h-1.792v-9.408h5.824v1.792h-4.032v2.016h3.36v1.792h-3.36V140zm12.541 0h-2.184l-2.114-3.136h-1.078V140h-1.792v-9.408h3.36c1.185 0 2.076.285 2.674.854.606.569.91 1.33.91 2.282 0 .681-.192 1.302-.574 1.862-.383.551-.91.929-1.582 1.134l2.38 3.276zm-5.376-7.616v2.688h1.792c.438 0 .807-.126 1.106-.378.308-.252.462-.574.462-.966 0-.429-.15-.761-.448-.994-.29-.233-.663-.35-1.12-.35h-1.792zM527.502 140h-7.392l4.48-7.616h-4.256v-1.792h7.392l-4.48 7.616h4.256V140zm1.574-8.736l3.584-.896V140h-1.792v-7.448l-1.792.392v-1.68zm6.417.532c.691-.952 1.577-1.428 2.66-1.428 1.083 0 1.969.476 2.66 1.428.691.952 1.036 2.119 1.036 3.5 0 1.381-.345 2.548-1.036 3.5-.691.952-1.577 1.428-2.66 1.428-1.092 0-1.983-.471-2.674-1.414-.681-.952-1.022-2.123-1.022-3.514 0-1.381.345-2.548 1.036-3.5zm1.316 5.726c.373.607.821.91 1.344.91.523 0 .971-.303 1.344-.91.373-.616.56-1.358.56-2.226 0-.868-.187-1.605-.56-2.212-.373-.616-.821-.924-1.344-.924-.523 0-.971.308-1.344.924-.373.607-.56 1.344-.56 2.212 0 .868.187 1.61.56 2.226zm7.42-5.726c.691-.952 1.578-1.428 2.66-1.428 1.083 0 1.97.476 2.66 1.428.691.952 1.036 2.119 1.036 3.5 0 1.381-.345 2.548-1.036 3.5-.69.952-1.577 1.428-2.66 1.428-1.092 0-1.983-.471-2.674-1.414-.681-.952-1.022-2.123-1.022-3.514 0-1.381.346-2.548 1.036-3.5zm1.316 5.726c.374.607.822.91 1.344.91.523 0 .971-.303 1.344-.91.374-.616.56-1.358.56-2.226 0-.868-.186-1.605-.56-2.212-.373-.616-.821-.924-1.344-.924-.522 0-.97.308-1.344.924-.373.607-.56 1.344-.56 2.212 0 .868.187 1.61.56 2.226zm12.881-1.106h1.12v1.792h-1.12V140h-1.792v-1.792h-4.704v-1.568l4.256-6.048h2.24v5.824zm-1.792 0v-3.696l-2.506 3.696h2.506zm69.707.096c-1.484-.294-2.128-.63-2.128-1.358 0-.84.728-1.33 2.016-1.33 1.176 0 1.932.518 2.422.994l.644-1.218c-1.162-1.078-2.646-1.12-3.038-1.12-2.198 0-3.388 1.204-3.388 2.73 0 1.26.742 2.198 3.36 2.646 1.288.224 2.142.686 2.142 1.442 0 .896-.77 1.47-2.184 1.47-1.106 0-2.184-.518-2.968-1.386l-.672 1.204c.14.168 1.344 1.526 3.612 1.526 2.198 0 3.556-1.232 3.556-2.87 0-1.582-1.134-2.296-3.374-2.73zm5.387 3.29c0 1.288.42 2.31 1.694 2.31.378 0 .7-.056.994-.196v-1.358c-.308.154-.756.266-1.078.028-.266-.196-.266-.686-.266-1.162v-2.8h1.344v-1.344h-1.344v-2.688h-1.344v2.688h-.896v1.344h.896v3.178zm9.626-4.522v.98c-.546-.714-1.33-1.092-2.24-1.092-1.96 0-3.36 1.554-3.36 3.472s1.4 3.472 3.36 3.472c.91 0 1.694-.378 2.24-1.092v.98h1.344v-6.72h-1.344zm-2.128 5.488a2.127 2.127 0 110-4.256 2.127 2.127 0 110 4.256zm10.427-5.488v.98c-.546-.714-1.33-1.092-2.24-1.092-1.96 0-3.36 1.554-3.36 3.472s1.4 3.472 3.36 3.472c.91 0 1.694-.378 2.24-1.092v.756c0 1.652-.84 2.576-2.24 2.576-1.19 0-1.904-.546-2.464-.98l-.672 1.204c.308.238 1.4 1.12 3.136 1.12 2.142 0 3.584-1.316 3.584-4.116v-6.3h-1.344zm-2.128 5.488a2.127 2.127 0 110-4.256 2.127 2.127 0 110 4.256zm11.323-2.1c0-2.184-1.372-3.5-3.15-3.5-2.058 0-3.346 1.554-3.346 3.472 0 1.89 1.176 3.472 3.528 3.472 1.456 0 2.338-.658 2.52-.812l-.448-1.204a3.566 3.566 0 01-2.044.672c-1.064 0-1.974-.462-2.184-1.512h5.082c.028-.182.042-.448.042-.588zm-5.124-.644c.028-.658.686-1.512 1.918-1.512 1.274 0 1.806.854 1.834 1.512h-3.752zm11.843-5.88v4.116c-.546-.714-1.33-1.092-2.24-1.092-1.96 0-3.36 1.554-3.36 3.472s1.4 3.472 3.36 3.472c.91 0 1.694-.378 2.24-1.092v.98h1.344v-9.856h-1.344zm-2.128 8.624a2.127 2.127 0 110-4.256 2.127 2.127 0 110 4.256zm10.65-6.608c.56 0 1.008-.448 1.008-1.008s-.448-1.008-1.008-1.008-1.008.448-1.008 1.008.448 1.008 1.008 1.008zm-.672 7.84h1.344v-6.72h-1.344V142zm6.698-6.832c-1.05 0-1.708.448-2.1.896v-.784h-1.344V142h1.344v-3.696c0-1.148 1.036-1.792 1.848-1.792 1.148 0 1.512.658 1.512 1.736V142h1.344v-3.864c0-1.988-1.008-2.968-2.604-2.968zM690.669 142v-3.808h3.36V136.4h-3.36v-2.016h4.032v-1.792h-5.824V142h1.792zm12.54 0l-2.38-3.276c1.386-.42 2.156-1.68 2.156-2.996 0-1.82-1.134-3.136-3.584-3.136h-3.36V142h1.792v-3.136h1.078l2.114 3.136h2.184zm-5.376-7.616h1.792c.868 0 1.568.462 1.568 1.344 0 .784-.7 1.344-1.568 1.344h-1.792v-2.688zm9.738-1.792h-3.122V142h3.122c3.15 0 4.942-2.1 4.942-4.704 0-2.604-1.708-4.704-4.942-4.704zm.322 7.616h-1.652v-5.824h1.652c1.68 0 2.828 1.302 2.828 2.912 0 1.61-1.148 2.912-2.828 2.912zm15.076-3.696h-5.306v1.792h3.444c-.364 1.232-1.4 2.128-2.772 2.128a3.13 3.13 0 01-3.136-3.136 3.13 3.13 0 013.136-3.136c1.092 0 1.96.56 2.45 1.4l1.806-.504c-.812-1.596-2.31-2.688-4.256-2.688a4.935 4.935 0 00-4.928 4.928 4.935 4.935 0 004.928 4.928c2.716 0 4.704-2.212 4.704-4.928 0-.28-.028-.518-.07-.784zm1.414-.784l1.792.224c.07-.994.56-1.792 1.568-1.792s1.568.56 1.568 1.456c0 .63-.448 1.372-1.344 2.352L724.159 142h7.392v-1.792h-3.36c1.792-1.876 2.912-3.15 2.912-4.704 0-2.002-1.456-3.136-3.36-3.136-2.044 0-3.248 1.526-3.36 3.36zm14.364 1.302c.756-.462 1.092-1.162 1.092-1.974 0-1.162-1.008-2.688-3.36-2.688-1.848 0-3.206 1.232-3.36 3.024l1.792.224c.098-.896.574-1.456 1.652-1.456.896 0 1.484.448 1.484 1.064 0 1.12-1.82 1.218-2.24 1.232v1.456c1.526 0 2.464.392 2.464 1.288 0 .854-.98 1.232-1.708 1.232-1.302 0-1.736-.672-1.876-1.568l-1.792.224c.14 1.904 1.414 3.136 3.584 3.136 2.674 0 3.584-1.736 3.584-3.136 0-.91-.644-1.82-1.316-2.058zm10.058 4.97l-2.38-3.276c1.386-.42 2.156-1.68 2.156-2.996 0-1.82-1.134-3.136-3.584-3.136h-3.36V142h1.792v-3.136h1.078l2.114 3.136h2.184zm-5.376-7.616h1.792c.868 0 1.568.462 1.568 1.344 0 .784-.7 1.344-1.568 1.344h-1.792v-2.688z" fill="#666B73"/>
    <path fill="#C4C4C4" d="M402.699 166h573.988v1H402.699z"/>
    <ellipse cx="374.404" cy="137" rx="4.042" ry="4" fill="#C4C4C4"/>
    <path d="M404.449 191.88c.654-.933 1.489-1.4 2.506-1.4 1.018 0 1.848.467 2.492 1.4.654.924.98 2.063.98 3.416 0 1.353-.326 2.497-.98 3.43-.644.924-1.474 1.386-2.492 1.386-1.026 0-1.862-.462-2.506-1.386-.644-.933-.966-2.077-.966-3.43 0-1.353.322-2.492.966-3.416zm.994 5.88c.42.672.924 1.008 1.512 1.008s1.088-.336 1.498-1.008c.42-.681.63-1.503.63-2.464 0-.961-.21-1.778-.63-2.45-.41-.681-.91-1.022-1.498-1.022s-1.092.341-1.512 1.022c-.41.672-.616 1.489-.616 2.45 0 .961.206 1.783.616 2.464zm10.296-4.34c.942 0 1.712.313 2.31.938.597.616.896 1.353.896 2.212 0 1.045-.327 1.899-.98 2.562-.644.653-1.475.98-2.492.98-1.027 0-1.862-.331-2.506-.994-.644-.663-.966-1.545-.966-2.646 0-1.045.275-2.109.826-3.192.55-1.092 1.372-1.988 2.464-2.688h2.38a2.123 2.123 0 00-.28.112c-.122.047-.35.163-.686.35a7.056 7.056 0 00-.952.602c-.29.224-.607.532-.952.924a5.44 5.44 0 00-.826 1.246c.485-.271 1.073-.406 1.764-.406zm-1.792 4.76c.401.392.91.588 1.526.588s1.124-.196 1.526-.588a1.94 1.94 0 00.602-1.442c0-.569-.196-1.041-.588-1.414-.383-.373-.896-.56-1.54-.56-.616 0-1.125.191-1.526.574a1.83 1.83 0 00-.602 1.4c0 .569.2 1.05.602 1.442zm7.579-2.996a.972.972 0 01-.714-.294.972.972 0 01-.294-.714c0-.289.098-.527.294-.714a.972.972 0 01.714-.294c.29 0 .528.098.714.294a.944.944 0 01.294.714c0 .28-.098.518-.294.714a.941.941 0 01-.714.294zm0 4.928a.972.972 0 01-.714-.294.972.972 0 01-.294-.714c0-.28.098-.518.294-.714a.972.972 0 01.714-.294c.29 0 .528.098.714.294a.972.972 0 01.294.714c0 .28-.098.518-.294.714a.941.941 0 01-.714.294zm6.228-6.384c.822 0 1.536.28 2.142.84.616.551.924 1.302.924 2.254s-.331 1.741-.994 2.366a3.355 3.355 0 01-2.366.924c-.914 0-1.689-.28-2.324-.84-.634-.569-.98-1.26-1.036-2.072l1.4-.14c.047.457.252.859.616 1.204.364.336.812.504 1.344.504.551 0 1.022-.182 1.414-.546.402-.373.602-.826.602-1.358 0-.523-.168-.952-.504-1.288-.336-.336-.77-.504-1.302-.504-.382 0-.76.098-1.134.294a2.141 2.141 0 00-.854.826h-1.372l.84-5.6h4.774v1.344h-3.626l-.364 2.408c.495-.411 1.102-.616 1.82-.616zm4.632-3.136h6.72L435.074 200h-1.568l3.472-8.064h-4.592v-1.344zm11.423 2.576c.97 0 1.773.336 2.408 1.008.634.672.952 1.493.952 2.464 0 .971-.318 1.792-.952 2.464-.635.672-1.438 1.008-2.408 1.008-.934 0-1.68-.364-2.24-1.092v4.564h-1.344V193.28h1.344v.98c.56-.728 1.306-1.092 2.24-1.092zm-1.624 4.984c.42.411.924.616 1.512.616s1.087-.205 1.498-.616c.42-.42.63-.924.63-1.512s-.21-1.087-.63-1.498c-.411-.42-.91-.63-1.498-.63s-1.092.21-1.512.63c-.411.411-.616.91-.616 1.498s.205 1.092.616 1.512zm13.924-4.984c.747 0 1.33.266 1.75.798.42.532.63 1.293.63 2.282V200h-1.344v-3.752c0-1.157-.429-1.736-1.288-1.736-.429 0-.807.163-1.134.49-.327.327-.49.761-.49 1.302V200h-1.344v-3.752c0-1.157-.429-1.736-1.288-1.736-.429 0-.807.163-1.134.49-.327.327-.49.761-.49 1.302V200h-1.344v-6.72h1.344v.784c.168-.187.313-.331.434-.434.121-.112.308-.215.56-.308.261-.103.555-.154.882-.154.877 0 1.521.355 1.932 1.064.355-.383.709-.653 1.064-.812.364-.168.784-.252 1.26-.252zm10.001-3.024v4.116c.56-.728 1.306-1.092 2.24-1.092.97 0 1.773.336 2.408 1.008.634.672.952 1.493.952 2.464 0 .971-.318 1.792-.952 2.464-.635.672-1.438 1.008-2.408 1.008-.934 0-1.68-.364-2.24-1.092v.98h-1.344v-9.856h1.344zm.616 8.008c.42.411.924.616 1.512.616s1.087-.205 1.498-.616c.42-.42.63-.924.63-1.512s-.21-1.087-.63-1.498c-.411-.42-.91-.63-1.498-.63s-1.092.21-1.512.63c-.411.411-.616.91-.616 1.498s.205 1.092.616 1.512zm10.998-4.872h1.498l-4.55 10.304h-1.47l1.792-4.018-2.716-6.286h1.498l1.974 4.648 1.974-4.648zm7.798-1.484c.691-.952 1.578-1.428 2.66-1.428 1.083 0 1.97.476 2.66 1.428.691.952 1.036 2.119 1.036 3.5 0 1.381-.345 2.548-1.036 3.5-.69.952-1.577 1.428-2.66 1.428-1.092 0-1.983-.471-2.674-1.414-.681-.952-1.022-2.123-1.022-3.514 0-1.381.346-2.548 1.036-3.5zm1.316 5.726c.374.607.822.91 1.344.91.523 0 .971-.303 1.344-.91.374-.616.56-1.358.56-2.226 0-.868-.186-1.605-.56-2.212-.373-.616-.821-.924-1.344-.924-.522 0-.97.308-1.344.924-.373.607-.56 1.344-.56 2.212 0 .868.187 1.61.56 2.226zm6.609-6.258l3.584-.896V200h-1.792v-7.448l-1.792.392v-1.68zm11.877 5.152h1.12v1.792h-1.12V200h-1.792v-1.792h-4.704v-1.568l4.256-6.048h2.24v5.824zm-1.792 0v-3.696l-2.506 3.696h2.506zm6.267 3.584h-1.792v-9.408h5.824v1.792h-4.032v2.016h3.36v1.792h-3.36V200zm12.54 0h-2.184l-2.114-3.136h-1.078V200h-1.792v-9.408h3.36c1.186 0 2.077.285 2.674.854.607.569.91 1.33.91 2.282 0 .681-.191 1.302-.574 1.862-.382.551-.91.929-1.582 1.134l2.38 3.276zm-5.376-7.616v2.688h1.792c.439 0 .808-.126 1.106-.378.308-.252.462-.574.462-.966 0-.429-.149-.761-.448-.994-.289-.233-.662-.35-1.12-.35h-1.792zm13.67 7.616h-7.392l4.48-7.616h-4.256v-1.792h7.392l-4.48 7.616h4.256V200zm1.574-8.736l3.584-.896V200h-1.792v-7.448l-1.792.392v-1.68zm6.417.532c.691-.952 1.577-1.428 2.66-1.428 1.083 0 1.969.476 2.66 1.428.691.952 1.036 2.119 1.036 3.5 0 1.381-.345 2.548-1.036 3.5-.691.952-1.577 1.428-2.66 1.428-1.092 0-1.983-.471-2.674-1.414-.681-.952-1.022-2.123-1.022-3.514 0-1.381.345-2.548 1.036-3.5zm1.316 5.726c.373.607.821.91 1.344.91.523 0 .971-.303 1.344-.91.373-.616.56-1.358.56-2.226 0-.868-.187-1.605-.56-2.212-.373-.616-.821-.924-1.344-.924-.523 0-.971.308-1.344.924-.373.607-.56 1.344-.56 2.212 0 .868.187 1.61.56 2.226zm7.42-5.726c.691-.952 1.578-1.428 2.66-1.428 1.083 0 1.97.476 2.66 1.428.691.952 1.036 2.119 1.036 3.5 0 1.381-.345 2.548-1.036 3.5-.69.952-1.577 1.428-2.66 1.428-1.092 0-1.983-.471-2.674-1.414-.681-.952-1.022-2.123-1.022-3.514 0-1.381.346-2.548 1.036-3.5zm1.316 5.726c.374.607.822.91 1.344.91.523 0 .971-.303 1.344-.91.374-.616.56-1.358.56-2.226 0-.868-.186-1.605-.56-2.212-.373-.616-.821-.924-1.344-.924-.522 0-.97.308-1.344.924-.373.607-.56 1.344-.56 2.212 0 .868.187 1.61.56 2.226zm12.881-1.106h1.12v1.792h-1.12V200h-1.792v-1.792h-4.704v-1.568l4.256-6.048h2.24v5.824zm-1.792 0v-3.696l-2.506 3.696h2.506zm66.142-5.824c1.185 0 2.076.271 2.674.812.606.541.91 1.274.91 2.198 0 .905-.285 1.657-.854 2.254-.57.597-1.34.896-2.31.896h-1.988V200h-1.344v-9.408h2.912zm.434 4.816c.532 0 .966-.14 1.302-.42.336-.289.504-.723.504-1.302 0-.579-.182-1.013-.546-1.302-.364-.299-.812-.448-1.344-.448h-1.918v3.472h2.002zm6.106-3.542a.972.972 0 01-.714.294.972.972 0 01-.714-.294.972.972 0 01-.294-.714c0-.28.098-.518.294-.714a.972.972 0 01.714-.294c.28 0 .518.098.714.294a.972.972 0 01.294.714c0 .28-.098.518-.294.714zM631.061 200v-6.72h1.344V200h-1.344zm3.663-.882c-.644-.663-.966-1.489-.966-2.478 0-.989.326-1.815.98-2.478.653-.663 1.521-.994 2.604-.994.924 0 1.67.257 2.24.77l-.574 1.246a2.308 2.308 0 00-1.652-.672c-.616 0-1.148.21-1.596.63-.439.411-.658.905-.658 1.484 0 .588.219 1.092.658 1.512.438.42.97.63 1.596.63.644 0 1.194-.229 1.652-.686l.574 1.26c-.542.513-1.288.77-2.24.77-1.092 0-1.965-.331-2.618-.994zm8.891-2.59l3.584 3.472h-1.792l-2.912-2.856V200h-1.344v-9.856h1.344v5.88l2.688-2.744h1.792l-3.36 3.248zm10.406.14c0 .205-.014.401-.042.588h-5.082c.103.504.35.882.742 1.134.402.252.882.378 1.442.378.728 0 1.41-.224 2.044-.672l.448 1.204c-.644.541-1.484.812-2.52.812-1.129 0-2.002-.327-2.618-.98-.606-.663-.91-1.493-.91-2.492 0-.989.304-1.815.91-2.478.616-.663 1.428-.994 2.436-.994.915 0 1.666.317 2.254.952.598.635.896 1.484.896 2.548zm-5.124-.644h3.752c-.018-.383-.182-.728-.49-1.036-.308-.317-.756-.476-1.344-.476-.569 0-1.026.159-1.372.476-.345.317-.527.663-.546 1.036zm11.844-5.88h1.344V200h-1.344v-.98c-.56.728-1.307 1.092-2.24 1.092-.971 0-1.774-.336-2.408-1.008-.635-.672-.952-1.493-.952-2.464 0-.971.317-1.792.952-2.464.634-.672 1.437-1.008 2.408-1.008.933 0 1.68.364 2.24 1.092v-4.116zm-3.64 8.008c.42.411.924.616 1.512.616s1.087-.205 1.498-.616c.42-.42.63-.924.63-1.512s-.21-1.087-.63-1.498c-.411-.42-.91-.63-1.498-.63s-1.092.21-1.512.63c-.411.411-.616.91-.616 1.498s.205 1.092.616 1.512zm12.876-6.286a.972.972 0 01-.714.294.972.972 0 01-.714-.294.972.972 0 01-.294-.714c0-.28.098-.518.294-.714a.972.972 0 01.714-.294c.28 0 .518.098.714.294a.972.972 0 01.294.714c0 .28-.098.518-.294.714zM668.591 200v-6.72h1.344V200h-1.344zm6.697-6.832c.812 0 1.447.252 1.904.756.467.504.7 1.241.7 2.212V200h-1.344v-3.752c0-.569-.116-.999-.35-1.288-.224-.299-.611-.448-1.162-.448-.448 0-.868.168-1.26.504-.392.327-.588.756-.588 1.288V200h-1.344v-6.72h1.344v.784c.523-.597 1.223-.896 2.1-.896zm4.729 4.634v-3.178h-.896v-1.344h.896v-2.688h1.344v2.688h1.344v1.344h-1.344v2.8c0 .644.089 1.031.266 1.162.271.205.63.196 1.078-.028v1.358c-.271.131-.602.196-.994.196-1.129 0-1.694-.77-1.694-2.31zm4.925-3.612a3.358 3.358 0 012.464-1.022c.961 0 1.778.341 2.45 1.022a3.314 3.314 0 011.022 2.45 3.36 3.36 0 01-1.022 2.464c-.672.672-1.489 1.008-2.45 1.008a3.38 3.38 0 01-2.464-1.008 3.382 3.382 0 01-1.008-2.464c0-.961.336-1.778 1.008-2.45zm.966 3.948c.42.42.919.63 1.498.63.578 0 1.078-.21 1.498-.63.42-.42.63-.919.63-1.498s-.21-1.078-.63-1.498c-.42-.42-.92-.63-1.498-.63-.579 0-1.078.21-1.498.63-.42.42-.63.919-.63 1.498s.21 1.078.63 1.498zm11.542.98c-.644-.663-.966-1.489-.966-2.478 0-.989.327-1.815.98-2.478.654-.663 1.522-.994 2.604-.994.924 0 1.671.257 2.24.77l-.574 1.246a2.305 2.305 0 00-1.652-.672c-.616 0-1.148.21-1.596.63-.438.411-.658.905-.658 1.484 0 .588.22 1.092.658 1.512.439.42.971.63 1.596.63.644 0 1.195-.229 1.652-.686l.574 1.26c-.541.513-1.288.77-2.24.77-1.092 0-1.964-.331-2.618-.994zm6.769-4.928a3.36 3.36 0 012.464-1.022c.961 0 1.778.341 2.45 1.022a3.314 3.314 0 011.022 2.45 3.36 3.36 0 01-1.022 2.464c-.672.672-1.489 1.008-2.45 1.008a3.382 3.382 0 01-2.464-1.008 3.382 3.382 0 01-1.008-2.464c0-.961.336-1.778 1.008-2.45zm.966 3.948c.42.42.919.63 1.498.63s1.078-.21 1.498-.63c.42-.42.63-.919.63-1.498s-.21-1.078-.63-1.498c-.42-.42-.919-.63-1.498-.63s-1.078.21-1.498.63c-.42.42-.63.919-.63 1.498s.21 1.078.63 1.498zm9.766-4.97c.812 0 1.446.252 1.904.756.466.504.7 1.241.7 2.212V200h-1.344v-3.752c0-.569-.117-.999-.35-1.288-.224-.299-.612-.448-1.162-.448-.448 0-.868.168-1.26.504-.392.327-.588.756-.588 1.288V200h-1.344v-6.72h1.344v.784c.522-.597 1.222-.896 2.1-.896zm4.728 4.634v-3.178h-.896v-1.344h.896v-2.688h1.344v2.688h1.344v1.344h-1.344v2.8c0 .644.089 1.031.266 1.162.271.205.63.196 1.078-.028v1.358c-.271.131-.602.196-.994.196-1.129 0-1.694-.77-1.694-2.31zm9.626-4.522h1.344V200h-1.344v-.98c-.56.728-1.307 1.092-2.24 1.092-.971 0-1.773-.336-2.408-1.008-.635-.672-.952-1.493-.952-2.464 0-.971.317-1.792.952-2.464.635-.672 1.437-1.008 2.408-1.008.933 0 1.68.364 2.24 1.092v-.98zm-3.64 4.872c.42.411.924.616 1.512.616s1.087-.205 1.498-.616c.42-.42.63-.924.63-1.512s-.21-1.087-.63-1.498c-.411-.42-.91-.63-1.498-.63s-1.092.21-1.512.63c-.411.411-.616.91-.616 1.498s.205 1.092.616 1.512zm8.282-6.286a.972.972 0 01-.714.294.972.972 0 01-.714-.294.972.972 0 01-.294-.714c0-.28.098-.518.294-.714a.972.972 0 01.714-.294c.28 0 .518.098.714.294a.972.972 0 01.294.714c0 .28-.098.518-.294.714zM732.561 200v-6.72h1.344V200h-1.344zm6.698-6.832c.812 0 1.447.252 1.904.756.467.504.7 1.241.7 2.212V200h-1.344v-3.752c0-.569-.117-.999-.35-1.288-.224-.299-.611-.448-1.162-.448-.448 0-.868.168-1.26.504-.392.327-.588.756-.588 1.288V200h-1.344v-6.72h1.344v.784c.523-.597 1.223-.896 2.1-.896zm10.438 3.5c0 .205-.014.401-.042.588h-5.082c.103.504.35.882.742 1.134.401.252.882.378 1.442.378.728 0 1.409-.224 2.044-.672l.448 1.204c-.644.541-1.484.812-2.52.812-1.129 0-2.002-.327-2.618-.98-.607-.663-.91-1.493-.91-2.492 0-.989.303-1.815.91-2.478.616-.663 1.428-.994 2.436-.994.915 0 1.666.317 2.254.952.597.635.896 1.484.896 2.548zm-5.124-.644h3.752c-.019-.383-.182-.728-.49-1.036-.308-.317-.756-.476-1.344-.476-.569 0-1.027.159-1.372.476-.345.317-.527.663-.546 1.036zm7.817-1.302a2.57 2.57 0 011.05-1.134c.466-.28 1.012-.42 1.638-.42v1.47c-.392-.121-.803-.103-1.232.056-.971.373-1.456 1.143-1.456 2.31V200h-1.344v-6.72h1.344v1.442zm11.755-4.13c1.559 0 2.772.443 3.64 1.33.868.887 1.302 2.011 1.302 3.374 0 1.353-.443 2.478-1.33 3.374-.877.887-2.081 1.33-3.612 1.33h-3.122v-9.408h3.122zm.322 7.616c.831 0 1.508-.28 2.03-.84.532-.56.798-1.251.798-2.072 0-.821-.266-1.512-.798-2.072-.522-.56-1.199-.84-2.03-.84h-1.652v5.824h1.652zm12.349-7.616h1.792V200h-1.792l-4.704-6.496V200h-1.792v-9.408h1.792l4.704 6.496v-6.496zm6.716 6.552c-.998 0-1.81-.313-2.436-.938a3.097 3.097 0 01-.924-2.254c0-1.055.346-1.913 1.036-2.576.7-.672 1.587-1.008 2.66-1.008 1.092 0 1.979.336 2.66 1.008.691.672 1.036 1.563 1.036 2.674 0 .14-.009.285-.028.434a9.216 9.216 0 01-.098.756 3.963 3.963 0 01-.308 1.078c-.149.355-.34.747-.574 1.176-.224.42-.546.849-.966 1.288-.41.439-.882.845-1.414 1.218h-2.884a5.05 5.05 0 00.266-.126c.112-.056.327-.177.644-.364.327-.196.635-.406.924-.63.29-.224.602-.518.938-.882.346-.364.635-.742.868-1.134-.326.187-.793.28-1.4.28zm1.694-4.508c-.354-.317-.807-.476-1.358-.476-.55 0-1.008.159-1.372.476a1.462 1.462 0 00-.532 1.148c0 .457.173.845.518 1.162.355.308.817.462 1.386.462.551 0 1.004-.154 1.358-.462.364-.317.546-.705.546-1.162 0-.457-.182-.84-.546-1.148zm10.179 3.78h1.12v1.792h-1.12V200h-1.792v-1.792h-4.704v-1.568l4.256-6.048h2.24v5.824zm-1.792 0v-3.696l-2.506 3.696h2.506zm4.475-5.152l3.584-.896V200h-1.792v-7.448l-1.792.392v-1.68zm11.877 5.152h1.12v1.792h-1.12V200h-1.792v-1.792h-4.704v-1.568l4.256-6.048h2.24v5.824zm-1.792 0v-3.696l-2.506 3.696h2.506z" fill="#666B73"/>
    <ellipse cx="374.404" cy="197" rx="4.042" ry="4" fill="#C4C4C4"/>
    <path fill="#C4C4C4" d="M373.285 137h2.018v61h-2.018z"/>
    <path d="M404.449 340.88c.654-.933 1.489-1.4 2.506-1.4 1.018 0 1.848.467 2.492 1.4.654.924.98 2.063.98 3.416 0 1.353-.326 2.497-.98 3.43-.644.924-1.474 1.386-2.492 1.386-1.026 0-1.862-.462-2.506-1.386-.644-.933-.966-2.077-.966-3.43 0-1.353.322-2.492.966-3.416zm.994 5.88c.42.672.924 1.008 1.512 1.008s1.088-.336 1.498-1.008c.42-.681.63-1.503.63-2.464 0-.961-.21-1.778-.63-2.45-.41-.681-.91-1.022-1.498-1.022s-1.092.341-1.512 1.022c-.41.672-.616 1.489-.616 2.45 0 .961.206 1.783.616 2.464zm10.296-4.34c.943 0 1.713.313 2.31.938.597.616.896 1.353.896 2.212 0 1.045-.327 1.899-.98 2.562-.644.653-1.475.98-2.492.98-1.027 0-1.862-.331-2.506-.994-.644-.663-.966-1.545-.966-2.646 0-1.045.275-2.109.826-3.192.551-1.092 1.372-1.988 2.464-2.688h2.38a2.18 2.18 0 00-.28.112c-.121.047-.35.163-.686.35a7.119 7.119 0 00-.952.602 7.153 7.153 0 00-.952.924 5.472 5.472 0 00-.826 1.246c.485-.271 1.073-.406 1.764-.406zm-1.792 4.76c.401.392.91.588 1.526.588s1.125-.196 1.526-.588a1.94 1.94 0 00.602-1.442c0-.569-.196-1.041-.588-1.414-.383-.373-.896-.56-1.54-.56-.616 0-1.125.191-1.526.574-.401.373-.602.84-.602 1.4 0 .569.201 1.05.602 1.442zm7.58-2.996a.972.972 0 01-.714-.294.972.972 0 01-.294-.714c0-.289.098-.527.294-.714a.972.972 0 01.714-.294c.289 0 .527.098.714.294a.944.944 0 01.294.714c0 .28-.098.518-.294.714a.944.944 0 01-.714.294zm0 4.928a.972.972 0 01-.714-.294.972.972 0 01-.294-.714c0-.28.098-.518.294-.714a.972.972 0 01.714-.294c.289 0 .527.098.714.294a.972.972 0 01.294.714c0 .28-.098.518-.294.714a.944.944 0 01-.714.294zm6.228-6.384c.821 0 1.535.28 2.142.84.616.551.924 1.302.924 2.254s-.332 1.741-.994 2.366a3.358 3.358 0 01-2.366.924c-.915 0-1.69-.28-2.324-.84-.635-.569-.98-1.26-1.036-2.072l1.4-.14c.046.457.252.859.616 1.204.364.336.812.504 1.344.504.55 0 1.022-.182 1.414-.546.401-.373.602-.826.602-1.358 0-.523-.168-.952-.504-1.288-.336-.336-.77-.504-1.302-.504-.383 0-.761.098-1.134.294a2.135 2.135 0 00-.854.826h-1.372l.84-5.6h4.774v1.344h-3.626l-.364 2.408c.494-.411 1.101-.616 1.82-.616zm4.631-3.136h6.72L435.074 349h-1.568l3.472-8.064h-4.592v-1.344zm11.423 2.576c.971 0 1.773.336 2.408 1.008.635.672.952 1.493.952 2.464 0 .971-.317 1.792-.952 2.464-.635.672-1.437 1.008-2.408 1.008-.933 0-1.68-.364-2.24-1.092v4.564h-1.344V342.28h1.344v.98c.56-.728 1.307-1.092 2.24-1.092zm-1.624 4.984c.42.411.924.616 1.512.616s1.087-.205 1.498-.616c.42-.42.63-.924.63-1.512s-.21-1.087-.63-1.498c-.411-.42-.91-.63-1.498-.63s-1.092.21-1.512.63c-.411.411-.616.91-.616 1.498s.205 1.092.616 1.512zm13.924-4.984c.747 0 1.33.266 1.75.798.42.532.63 1.293.63 2.282V349h-1.344v-3.752c0-1.157-.429-1.736-1.288-1.736-.429 0-.807.163-1.134.49-.326.327-.49.761-.49 1.302V349h-1.344v-3.752c0-1.157-.429-1.736-1.288-1.736-.429 0-.807.163-1.134.49-.326.327-.49.761-.49 1.302V349h-1.344v-6.72h1.344v.784c.168-.187.313-.331.434-.434.122-.112.308-.215.56-.308.262-.103.556-.154.882-.154.878 0 1.522.355 1.932 1.064.355-.383.71-.653 1.064-.812.364-.168.784-.252 1.26-.252zm10.001-3.024v4.116c.56-.728 1.307-1.092 2.24-1.092.971 0 1.773.336 2.408 1.008.635.672.952 1.493.952 2.464 0 .971-.317 1.792-.952 2.464-.635.672-1.437 1.008-2.408 1.008-.933 0-1.68-.364-2.24-1.092v.98h-1.344v-9.856h1.344zm.616 8.008c.42.411.924.616 1.512.616s1.087-.205 1.498-.616c.42-.42.63-.924.63-1.512s-.21-1.087-.63-1.498c-.411-.42-.91-.63-1.498-.63s-1.092.21-1.512.63c-.411.411-.616.91-.616 1.498s.205 1.092.616 1.512zm10.998-4.872h1.498l-4.55 10.304h-1.47l1.792-4.018-2.716-6.286h1.498l1.974 4.648 1.974-4.648zm7.799-1.484c.69-.952 1.577-1.428 2.66-1.428 1.082 0 1.969.476 2.66 1.428.69.952 1.036 2.119 1.036 3.5 0 1.381-.346 2.548-1.036 3.5-.691.952-1.578 1.428-2.66 1.428-1.092 0-1.984-.471-2.674-1.414-.682-.952-1.022-2.123-1.022-3.514 0-1.381.345-2.548 1.036-3.5zm1.316 5.726c.373.607.821.91 1.344.91.522 0 .97-.303 1.344-.91.373-.616.56-1.358.56-2.226 0-.868-.187-1.605-.56-2.212-.374-.616-.822-.924-1.344-.924-.523 0-.971.308-1.344.924-.374.607-.56 1.344-.56 2.212 0 .868.186 1.61.56 2.226zm6.608-6.258l3.584-.896V349h-1.792v-7.448l-1.792.392v-1.68zm11.877 5.152h1.12v1.792h-1.12V349h-1.792v-1.792h-4.704v-1.568l4.256-6.048h2.24v5.824zm-1.792 0v-3.696l-2.506 3.696h2.506zM509.8 349h-1.792v-9.408h5.824v1.792H509.8v2.016h3.36v1.792h-3.36V349zm12.54 0h-2.184l-2.114-3.136h-1.078V349h-1.792v-9.408h3.36c1.185 0 2.076.285 2.674.854.606.569.91 1.33.91 2.282 0 .681-.192 1.302-.574 1.862-.383.551-.91.929-1.582 1.134l2.38 3.276zm-5.376-7.616v2.688h1.792c.438 0 .807-.126 1.106-.378.308-.252.462-.574.462-.966 0-.429-.15-.761-.448-.994-.29-.233-.663-.35-1.12-.35h-1.792zM530.633 349h-7.392l4.48-7.616h-4.256v-1.792h7.392l-4.48 7.616h4.256V349zm1.574-8.736l3.584-.896V349h-1.792v-7.448l-1.792.392v-1.68zm6.417.532c.691-.952 1.578-1.428 2.66-1.428 1.083 0 1.97.476 2.66 1.428.691.952 1.036 2.119 1.036 3.5 0 1.381-.345 2.548-1.036 3.5-.69.952-1.577 1.428-2.66 1.428-1.092 0-1.983-.471-2.674-1.414-.681-.952-1.022-2.123-1.022-3.514 0-1.381.346-2.548 1.036-3.5zm1.316 5.726c.374.607.822.91 1.344.91.523 0 .971-.303 1.344-.91.374-.616.56-1.358.56-2.226 0-.868-.186-1.605-.56-2.212-.373-.616-.821-.924-1.344-.924-.522 0-.97.308-1.344.924-.373.607-.56 1.344-.56 2.212 0 .868.187 1.61.56 2.226zm7.421-5.726c.69-.952 1.577-1.428 2.66-1.428 1.082 0 1.969.476 2.66 1.428.69.952 1.036 2.119 1.036 3.5 0 1.381-.346 2.548-1.036 3.5-.691.952-1.578 1.428-2.66 1.428-1.092 0-1.984-.471-2.674-1.414-.682-.952-1.022-2.123-1.022-3.514 0-1.381.345-2.548 1.036-3.5zm1.316 5.726c.373.607.821.91 1.344.91.522 0 .97-.303 1.344-.91.373-.616.56-1.358.56-2.226 0-.868-.187-1.605-.56-2.212-.374-.616-.822-.924-1.344-.924-.523 0-.971.308-1.344.924-.374.607-.56 1.344-.56 2.212 0 .868.186 1.61.56 2.226zm12.88-1.106h1.12v1.792h-1.12V349h-1.792v-1.792h-4.704v-1.568l4.256-6.048h2.24v5.824zm-1.792 0v-3.696l-2.506 3.696h2.506zm66.576-1.904c1.167.224 2.021.546 2.562.966.541.411.812.999.812 1.764 0 .84-.322 1.531-.966 2.072-.644.532-1.507.798-2.59.798a5.467 5.467 0 01-1.484-.196 4.391 4.391 0 01-1.148-.518 7.922 7.922 0 01-.658-.49 2.616 2.616 0 01-.322-.322l.672-1.204c.831.924 1.82 1.386 2.968 1.386.7 0 1.237-.131 1.61-.392.383-.261.574-.621.574-1.078 0-.709-.714-1.19-2.142-1.442-1.241-.215-2.114-.537-2.618-.966-.495-.439-.742-.999-.742-1.68 0-.793.299-1.447.896-1.96.597-.513 1.428-.77 2.492-.77 1.223 0 2.235.373 3.038 1.12l-.644 1.218c-.681-.663-1.489-.994-2.422-.994-.644 0-1.143.117-1.498.35-.345.233-.518.56-.518.98 0 .355.163.635.49.84.327.196.873.369 1.638.518zm7.319 5.6c-.812 0-1.451-.252-1.918-.756-.457-.504-.686-1.241-.686-2.212v-3.864h1.344v3.752c0 .569.112 1.003.336 1.302.234.289.626.434 1.176.434.448 0 .868-.163 1.26-.49.392-.336.588-.77.588-1.302v-3.696h1.344V349h-1.344v-.784c-.522.597-1.222.896-2.1.896zm6.689-9.968v4.116c.56-.728 1.306-1.092 2.24-1.092.97 0 1.773.336 2.408 1.008.634.672.952 1.493.952 2.464 0 .971-.318 1.792-.952 2.464-.635.672-1.438 1.008-2.408 1.008-.934 0-1.68-.364-2.24-1.092v.98h-1.344v-9.856h1.344zm.616 8.008c.42.411.924.616 1.512.616s1.087-.205 1.498-.616c.42-.42.63-.924.63-1.512s-.21-1.087-.63-1.498c-.411-.42-.91-.63-1.498-.63s-1.092.21-1.512.63c-.411.411-.616.91-.616 1.498s.205 1.092.616 1.512zm9.259-2.296c1.634.317 2.45.999 2.45 2.044 0 .681-.233 1.223-.7 1.624-.466.392-1.129.588-1.988.588-.653 0-1.25-.107-1.792-.322-.532-.215-.905-.425-1.12-.63l.532-1.316c.262.261.616.481 1.064.658.458.168.882.257 1.274.266.42.009.756-.056 1.008-.196s.378-.313.378-.518a.578.578 0 00-.322-.532c-.214-.131-.546-.238-.994-.322-1.045-.187-1.759-.443-2.142-.77-.382-.327-.574-.775-.574-1.344 0-.569.248-1.031.742-1.386.504-.355 1.167-.532 1.988-.532.831 0 1.643.215 2.436.644l-.462 1.26c-.177-.131-.457-.252-.84-.364a3.96 3.96 0 00-1.134-.196 2.828 2.828 0 00-.98.126c-.27.093-.406.247-.406.462 0 .112.033.21.098.294.075.075.182.14.322.196.15.047.29.089.42.126.131.028.304.061.518.098l.224.042zm4.473 1.946v-3.178h-.896v-1.344h.896v-2.688h1.344v2.688h1.344v1.344h-1.344v2.8c0 .644.089 1.031.266 1.162.271.205.63.196 1.078-.028v1.358c-.271.131-.602.196-.994.196-1.129 0-1.694-.77-1.694-2.31zm5.86-5.936a.972.972 0 01-.714.294.972.972 0 01-.714-.294.972.972 0 01-.294-.714c0-.28.098-.518.294-.714a.972.972 0 01.714-.294c.28 0 .518.098.714.294a.972.972 0 01.294.714c0 .28-.098.518-.294.714zM659.171 349v-6.72h1.344V349h-1.344zm3.811-2.198v-3.178h-.896v-1.344h.896v-2.688h1.344v2.688h1.344v1.344h-1.344v2.8c0 .644.089 1.031.266 1.162.271.205.63.196 1.078-.028v1.358c-.271.131-.602.196-.994.196-1.129 0-1.694-.77-1.694-2.31zm6.854 2.31c-.812 0-1.451-.252-1.918-.756-.457-.504-.686-1.241-.686-2.212v-3.864h1.344v3.752c0 .569.112 1.003.336 1.302.233.289.625.434 1.176.434.448 0 .868-.163 1.26-.49.392-.336.588-.77.588-1.302v-3.696h1.344V349h-1.344v-.784c-.523.597-1.223.896-2.1.896zm5.902-2.31v-3.178h-.896v-1.344h.896v-2.688h1.344v2.688h1.344v1.344h-1.344v2.8c0 .644.089 1.031.266 1.162.271.205.63.196 1.078-.028v1.358c-.271.131-.602.196-.994.196-1.129 0-1.694-.77-1.694-2.31zm10.412-1.134c0 .205-.014.401-.042.588h-5.082c.103.504.35.882.742 1.134.402.252.882.378 1.442.378.728 0 1.41-.224 2.044-.672l.448 1.204c-.644.541-1.484.812-2.52.812-1.129 0-2.002-.327-2.618-.98-.606-.663-.91-1.493-.91-2.492 0-.989.304-1.815.91-2.478.616-.663 1.428-.994 2.436-.994.915 0 1.666.317 2.254.952.598.635.896 1.484.896 2.548zm-5.124-.644h3.752c-.018-.383-.182-.728-.49-1.036-.308-.317-.756-.476-1.344-.476-.569 0-1.026.159-1.372.476-.345.317-.527.663-.546 1.036zm11.844-5.88h1.344V349h-1.344v-.98c-.56.728-1.307 1.092-2.24 1.092-.971 0-1.774-.336-2.408-1.008-.635-.672-.952-1.493-.952-2.464 0-.971.317-1.792.952-2.464.634-.672 1.437-1.008 2.408-1.008.933 0 1.68.364 2.24 1.092v-4.116zm-3.64 8.008c.42.411.924.616 1.512.616s1.087-.205 1.498-.616c.42-.42.63-.924.63-1.512s-.21-1.087-.63-1.498c-.411-.42-.91-.63-1.498-.63s-1.092.21-1.512.63c-.411.411-.616.91-.616 1.498s.205 1.092.616 1.512zm11.042-4.872h.896v-.812c0-.793.186-1.395.56-1.806.373-.42.868-.63 1.484-.63.336 0 .625.075.868.224v1.316a1.18 1.18 0 00-.672-.196c-.598 0-.896.378-.896 1.134v.77h1.568v1.344h-1.568V349h-1.344v-5.376h-.896v-1.344zm7.982 6.832c-.812 0-1.451-.252-1.918-.756-.457-.504-.686-1.241-.686-2.212v-3.864h1.344v3.752c0 .569.112 1.003.336 1.302.233.289.625.434 1.176.434.448 0 .868-.163 1.26-.49.392-.336.588-.77.588-1.302v-3.696h1.344V349h-1.344v-.784c-.523.597-1.223.896-2.1.896zm5.345-9.968h1.344V349h-1.344v-9.856zm3.253 0h1.344V349h-1.344v-9.856zm7.804 3.136h1.498l-4.55 10.304h-1.47l1.792-4.018-2.716-6.286h1.498l1.974 4.648 1.974-4.648z" fill="#666B73"/>
    <ellipse cx="374.404" cy="346" rx="4.042" ry="4" fill="#C4C4C4"/>
    <path d="M374.618 258.592c1.185 0 2.076.285 2.674.854.606.569.91 1.33.91 2.282a3.18 3.18 0 01-.854 2.212c-.57.616-1.33.924-2.282.924h-2.016V268h-1.792v-9.408h3.36zm.224 4.48c.438 0 .807-.126 1.106-.378.308-.252.462-.574.462-.966 0-.429-.15-.761-.448-.994-.29-.233-.663-.35-1.12-.35h-1.792v2.688h1.792zm9.184 3.36c.933 0 1.712-.322 2.338-.966l.686 1.624a4.337 4.337 0 01-1.414.84 4.863 4.863 0 01-1.638.294c-1.382 0-2.562-.481-3.542-1.442-.98-.971-1.47-2.133-1.47-3.486 0-1.353.49-2.511 1.47-3.472.98-.971 2.16-1.456 3.542-1.456.541 0 1.087.098 1.638.294.55.196 1.022.471 1.414.826l-.686 1.624a3.24 3.24 0 00-2.338-.952c-.896 0-1.662.308-2.296.924-.635.607-.952 1.344-.952 2.212 0 .868.317 1.61.952 2.226.634.607 1.4.91 2.296.91zm14.425-3.486c.541.14.938.411 1.19.812.261.401.392.873.392 1.414 0 .831-.29 1.512-.868 2.044-.579.523-1.363.784-2.352.784h-4.172v-9.408h3.36c1.129 0 2.006.201 2.632.602.634.401.952 1.022.952 1.862 0 .448-.108.84-.322 1.176a1.816 1.816 0 01-.812.714zm-4.018-2.562v1.792h1.68c1.12 0 1.68-.299 1.68-.896 0-.345-.136-.579-.406-.7-.271-.131-.696-.196-1.274-.196h-1.68zm1.904 5.824c1.269 0 1.904-.411 1.904-1.232 0-.411-.168-.719-.504-.924-.336-.205-.803-.308-1.4-.308h-1.904v2.464h1.904zm5.04-8.064h1.792V268h-1.792v-9.856zm5.853 10.08c-.812 0-1.452-.266-1.918-.798-.458-.532-.686-1.311-.686-2.338v-4.032h1.792v3.808c0 .541.107.938.322 1.19.224.252.564.378 1.022.378.448 0 .821-.149 1.12-.448.298-.299.448-.747.448-1.344v-3.584h1.792V268h-1.792v-.672c-.504.597-1.204.896-2.1.896zm11.963-3.696c0 .131-.009.317-.028.56h-5.054c.131.476.369.859.714 1.148.355.28.803.42 1.344.42.775 0 1.466-.215 2.072-.644l.518 1.554a5.514 5.514 0 01-.322.182c-.13.075-.424.173-.882.294a5.399 5.399 0 01-1.414.182c-1.288 0-2.258-.345-2.912-1.036-.653-.691-.98-1.577-.98-2.66 0-1.083.308-1.969.924-2.66.616-.691 1.503-1.036 2.66-1.036 1.083 0 1.914.327 2.492.98.579.644.868 1.549.868 2.716zm-5.04-.784h3.136c0-.336-.14-.644-.42-.924-.27-.28-.653-.42-1.148-.42-.42 0-.788.149-1.106.448-.308.289-.462.588-.462.896zm20.038-5.152l1.344 9.408h-1.904l-.784-6.16-2.464 6.16h-.896l-2.464-6.16-.784 6.16h-1.904l1.344-9.408h1.792l2.464 6.048 2.464-6.048h1.792zm9.188 5.936c0 .131-.01.317-.028.56h-5.054c.13.476.368.859.714 1.148.354.28.802.42 1.344.42.774 0 1.465-.215 2.072-.644l.518 1.554a5.874 5.874 0 01-.322.182c-.131.075-.425.173-.882.294-.448.121-.92.182-1.414.182-1.288 0-2.259-.345-2.912-1.036-.654-.691-.98-1.577-.98-2.66 0-1.083.308-1.969.924-2.66.616-.691 1.502-1.036 2.66-1.036 1.082 0 1.913.327 2.492.98.578.644.868 1.549.868 2.716zm-5.04-.784h3.136c0-.336-.14-.644-.42-.924-.271-.28-.654-.42-1.148-.42-.42 0-.789.149-1.106.448-.308.289-.462.588-.462.896zm10.051-2.912c.812 0 1.447.266 1.904.798.467.532.7 1.311.7 2.338V268h-1.792v-3.808c0-.541-.107-.938-.322-1.19-.215-.252-.555-.378-1.022-.378-.448 0-.821.149-1.12.448-.299.299-.448.747-.448 1.344V268h-1.792v-6.944h1.792v.672c.504-.597 1.204-.896 2.1-.896zm6.445 7.392c-.812 0-1.451-.266-1.918-.798-.457-.532-.686-1.311-.686-2.338v-4.032h1.792v3.808c0 .541.107.938.322 1.19.224.252.565.378 1.022.378.448 0 .821-.149 1.12-.448.299-.299.448-.747.448-1.344v-3.584h1.792V268h-1.792v-.672c-.504.597-1.204.896-2.1.896zm9.49-9.632h6.72v1.792h-2.464V268h-1.792v-7.616h-2.464v-1.792zM476.862 268h-5.824l3.024-5.152h-2.8v-1.792h5.824l-3.024 5.152h2.8V268zm6.722-6.944h1.792V268h-1.792v-.742c-.56.644-1.27.966-2.128.966-.962 0-1.783-.359-2.464-1.078-.672-.728-1.008-1.601-1.008-2.618s.336-1.885 1.008-2.604c.681-.728 1.502-1.092 2.464-1.092.858 0 1.568.322 2.128.966v-.742zm-3.248 4.816c.373.373.821.56 1.344.56.522 0 .97-.187 1.344-.56.373-.373.56-.821.56-1.344 0-.523-.187-.971-.56-1.344a1.836 1.836 0 00-1.344-.56c-.523 0-.971.187-1.344.56a1.83 1.83 0 00-.56 1.344c0 .523.186.971.56 1.344zm7.28.154v-3.402h-.896v-1.568h.896v-2.464h1.792v2.464h1.344v1.568h-1.344v2.912c0 .495.112.803.336.924.233.121.569.112 1.008-.028V268c-.373.149-.812.224-1.316.224-.616 0-1.073-.196-1.372-.588-.299-.401-.448-.938-.448-1.61zM497.698 268h-5.824l3.024-5.152h-2.8v-1.792h5.824l-3.024 5.152h2.8V268zm3.224-8.19c-.233.233-.522.35-.868.35-.345 0-.639-.117-.882-.35a1.228 1.228 0 01-.35-.882c0-.345.117-.635.35-.868.243-.243.537-.364.882-.364.346 0 .635.121.868.364.243.233.364.523.364.868s-.121.639-.364.882zm-1.764 8.19v-6.944h1.792V268h-1.792zm6.833-3.584l3.584 3.584h-2.24l-2.912-2.744V268h-1.792v-9.856h1.792v5.544l2.688-2.632h2.24l-3.36 3.36zm6.238-4.606a1.18 1.18 0 01-.868.35c-.345 0-.639-.117-.882-.35a1.228 1.228 0 01-.35-.882c0-.345.117-.635.35-.868.243-.243.537-.364.882-.364s.635.121.868.364c.243.233.364.523.364.868s-.121.639-.364.882zm-1.764 8.19v-6.944h1.792V268h-1.792zm11.194-10.08c-1.195 1.811-1.792 3.752-1.792 5.824s.597 4.013 1.792 5.824l-1.792.672c-1.195-2.165-1.792-4.331-1.792-6.496s.597-4.331 1.792-6.496l1.792.672zm1.343 3.808c.056-.961.383-1.759.98-2.394.597-.644 1.391-.966 2.38-.966.98 0 1.783.28 2.408.84.635.56.952 1.325.952 2.296 0 .709-.224 1.4-.672 2.072-.448.663-1.195 1.54-2.24 2.632h3.36V268h-7.392l3.808-4.032c.896-.98 1.344-1.764 1.344-2.352 0-.457-.14-.812-.42-1.064-.271-.261-.653-.392-1.148-.392-.476 0-.849.168-1.12.504-.261.327-.411.756-.448 1.288l-1.792-.224zm8.736 0c.056-.961.383-1.759.98-2.394.598-.644 1.391-.966 2.38-.966.98 0 1.783.28 2.408.84.635.56.952 1.325.952 2.296 0 .709-.224 1.4-.672 2.072-.448.663-1.194 1.54-2.24 2.632h3.36V268h-7.392l3.808-4.032c.896-.98 1.344-1.764 1.344-2.352 0-.457-.14-.812-.42-1.064-.27-.261-.653-.392-1.148-.392-.476 0-.849.168-1.12.504-.261.327-.41.756-.448 1.288l-1.792-.224zm8.513-3.136h7.168L543.387 268h-2.016l3.36-7.616h-4.48v-1.792zm13.21 2.464h1.792v6.272c0 1.456-.332 2.567-.994 3.332-.654.765-1.592 1.148-2.814 1.148-.439 0-.868-.051-1.288-.154a4.241 4.241 0 01-1.078-.378 6.56 6.56 0 01-.658-.364 3.526 3.526 0 01-.336-.224l.84-1.582c.261.224.616.429 1.064.616.448.196.933.294 1.456.294.606 0 1.092-.205 1.456-.616.373-.401.56-.915.56-1.54v-.602c-.56.644-1.27.966-2.128.966-.962 0-1.783-.359-2.464-1.078-.672-.728-1.008-1.601-1.008-2.618s.336-1.885 1.008-2.604c.681-.728 1.502-1.092 2.464-1.092.858 0 1.568.322 2.128.966v-.742zm-3.248 4.816c.373.373.821.56 1.344.56.522 0 .97-.187 1.344-.56.373-.373.56-.821.56-1.344 0-.523-.187-.971-.56-1.344a1.836 1.836 0 00-1.344-.56c-.523 0-.971.187-1.344.56a1.83 1.83 0 00-.56 1.344c0 .523.186.971.56 1.344zm6.384-7.952l1.792-.672c1.195 2.165 1.792 4.331 1.792 6.496s-.597 4.331-1.792 6.496l-1.792-.672c1.195-1.811 1.792-3.752 1.792-5.824s-.597-4.013-1.792-5.824z" fill="#000"/>
    <path d="M372.112 287.88c.653-.933 1.488-1.4 2.506-1.4 1.017 0 1.848.467 2.492 1.4.653.924.98 2.063.98 3.416 0 1.353-.327 2.497-.98 3.43-.644.924-1.475 1.386-2.492 1.386-1.027 0-1.862-.462-2.506-1.386-.644-.933-.966-2.077-.966-3.43 0-1.353.322-2.492.966-3.416zm.994 5.88c.42.672.924 1.008 1.512 1.008s1.087-.336 1.498-1.008c.42-.681.63-1.503.63-2.464 0-.961-.21-1.778-.63-2.45-.411-.681-.91-1.022-1.498-1.022s-1.092.341-1.512 1.022c-.411.672-.616 1.489-.616 2.45 0 .961.205 1.783.616 2.464zm14.178-7.168c1.185 0 2.076.271 2.674.812.606.541.91 1.274.91 2.198 0 .905-.285 1.657-.854 2.254-.57.597-1.34.896-2.31.896h-1.988V296h-1.344v-9.408h2.912zm.434 4.816c.532 0 .966-.14 1.302-.42.336-.289.504-.723.504-1.302 0-.579-.182-1.013-.546-1.302-.364-.299-.812-.448-1.344-.448h-1.918v3.472h2.002zm6.106-3.542a.972.972 0 01-.714.294.972.972 0 01-.714-.294.972.972 0 01-.294-.714c0-.28.098-.518.294-.714a.972.972 0 01.714-.294c.28 0 .518.098.714.294a.972.972 0 01.294.714c0 .28-.098.518-.294.714zM392.438 296v-6.72h1.344V296h-1.344zm3.663-.882c-.644-.663-.966-1.489-.966-2.478 0-.989.326-1.815.98-2.478.653-.663 1.521-.994 2.604-.994.924 0 1.67.257 2.24.77l-.574 1.246a2.308 2.308 0 00-1.652-.672c-.616 0-1.148.21-1.596.63-.439.411-.658.905-.658 1.484 0 .588.219 1.092.658 1.512.438.42.97.63 1.596.63.644 0 1.194-.229 1.652-.686l.574 1.26c-.542.513-1.288.77-2.24.77-1.092 0-1.965-.331-2.618-.994zm8.891-2.59l3.584 3.472h-1.792l-2.912-2.856V296h-1.344v-9.856h1.344v5.88l2.688-2.744h1.792l-3.36 3.248zm10.406.14c0 .205-.014.401-.042.588h-5.082c.103.504.35.882.742 1.134.402.252.882.378 1.442.378.728 0 1.41-.224 2.044-.672l.448 1.204c-.644.541-1.484.812-2.52.812-1.129 0-2.002-.327-2.618-.98-.606-.663-.91-1.493-.91-2.492 0-.989.304-1.815.91-2.478.616-.663 1.428-.994 2.436-.994.915 0 1.666.317 2.254.952.598.635.896 1.484.896 2.548zm-5.124-.644h3.752c-.018-.383-.182-.728-.49-1.036-.308-.317-.756-.476-1.344-.476-.569 0-1.026.159-1.372.476-.345.317-.527.663-.546 1.036zm11.844-5.88h1.344V296h-1.344v-.98c-.56.728-1.307 1.092-2.24 1.092-.971 0-1.774-.336-2.408-1.008-.635-.672-.952-1.493-.952-2.464 0-.971.317-1.792.952-2.464.634-.672 1.437-1.008 2.408-1.008.933 0 1.68.364 2.24 1.092v-4.116zm-3.64 8.008c.42.411.924.616 1.512.616s1.087-.205 1.498-.616c.42-.42.63-.924.63-1.512s-.21-1.087-.63-1.498c-.411-.42-.91-.63-1.498-.63s-1.092.21-1.512.63c-.411.411-.616.91-.616 1.498s.205 1.092.616 1.512zm14.849-3.962a1.526 1.526 0 011.12-.462c.439 0 .808.154 1.106.462.308.299.462.667.462 1.106 0 .439-.154.812-.462 1.12a1.5 1.5 0 01-1.106.448 1.55 1.55 0 01-1.12-.448 1.552 1.552 0 01-.448-1.12c0-.439.15-.807.448-1.106zm13.069-2.296c.943-.943 2.077-1.414 3.402-1.414 1.326 0 2.46.471 3.402 1.414.943.943 1.414 2.077 1.414 3.402 0 1.325-.471 2.459-1.414 3.402-.942.943-2.076 1.414-3.402 1.414-1.325 0-2.459-.471-3.402-1.414-.942-.943-1.414-2.077-1.414-3.402 0-1.325.472-2.459 1.414-3.402zm.938 5.866c.672.672 1.494 1.008 2.464 1.008.971 0 1.792-.336 2.464-1.008.672-.672 1.008-1.493 1.008-2.464 0-.971-.336-1.792-1.008-2.464-.672-.672-1.493-1.008-2.464-1.008-.97 0-1.792.336-2.464 1.008-.672.672-1.008 1.493-1.008 2.464 0 .971.336 1.792 1.008 2.464zm10.186-3.038a2.582 2.582 0 011.05-1.134c.467-.28 1.013-.42 1.638-.42v1.47c-.392-.121-.802-.103-1.232.056-.97.373-1.456 1.143-1.456 2.31V296h-1.344v-6.72h1.344v1.442zm8.963-4.578h1.344V296h-1.344v-.98c-.56.728-1.307 1.092-2.24 1.092-.971 0-1.774-.336-2.408-1.008-.635-.672-.952-1.493-.952-2.464 0-.971.317-1.792.952-2.464.634-.672 1.437-1.008 2.408-1.008.933 0 1.68.364 2.24 1.092v-4.116zm-3.64 8.008c.42.411.924.616 1.512.616s1.087-.205 1.498-.616c.42-.42.63-.924.63-1.512s-.21-1.087-.63-1.498c-.411-.42-.91-.63-1.498-.63s-1.092.21-1.512.63c-.411.411-.616.91-.616 1.498s.205 1.092.616 1.512zm12.835-1.484c0 .205-.014.401-.042.588h-5.082c.102.504.35.882.742 1.134.401.252.882.378 1.442.378.728 0 1.409-.224 2.044-.672l.448 1.204c-.644.541-1.484.812-2.52.812-1.13 0-2.002-.327-2.618-.98-.607-.663-.91-1.493-.91-2.492 0-.989.303-1.815.91-2.478.616-.663 1.428-.994 2.436-.994.914 0 1.666.317 2.254.952.597.635.896 1.484.896 2.548zm-5.124-.644h3.752c-.019-.383-.182-.728-.49-1.036-.308-.317-.756-.476-1.344-.476-.57 0-1.027.159-1.372.476-.346.317-.528.663-.546 1.036zm7.816-1.302a2.57 2.57 0 011.05-1.134c.467-.28 1.013-.42 1.638-.42v1.47c-.392-.121-.803-.103-1.232.056-.971.373-1.456 1.143-1.456 2.31V296h-1.344v-6.72h1.344v1.442zm9.858 1.946c0 .205-.014.401-.042.588h-5.082c.103.504.35.882.742 1.134.402.252.882.378 1.442.378.728 0 1.41-.224 2.044-.672l.448 1.204c-.644.541-1.484.812-2.52.812-1.129 0-2.002-.327-2.618-.98-.606-.663-.91-1.493-.91-2.492 0-.989.304-1.815.91-2.478.616-.663 1.428-.994 2.436-.994.915 0 1.666.317 2.254.952.598.635.896 1.484.896 2.548zm-5.124-.644h3.752c-.018-.383-.182-.728-.49-1.036-.308-.317-.756-.476-1.344-.476-.569 0-1.026.159-1.372.476-.345.317-.527.663-.546 1.036zm11.844-5.88h1.344V296h-1.344v-.98c-.56.728-1.307 1.092-2.24 1.092-.971 0-1.774-.336-2.408-1.008-.635-.672-.952-1.493-.952-2.464 0-.971.317-1.792.952-2.464.634-.672 1.437-1.008 2.408-1.008.933 0 1.68.364 2.24 1.092v-4.116zm-3.64 8.008c.42.411.924.616 1.512.616s1.087-.205 1.498-.616c.42-.42.63-.924.63-1.512s-.21-1.087-.63-1.498c-.411-.42-.91-.63-1.498-.63s-1.092.21-1.512.63c-.411.411-.616.91-.616 1.498s.205 1.092.616 1.512zM504.142 296h-1.344v-9.408h1.344V296zm2.467-2.198v-3.178h-.896v-1.344h.896v-2.688h1.344v2.688h1.344v1.344h-1.344v2.8c0 .644.088 1.031.266 1.162.27.205.63.196 1.078-.028v1.358c-.271.131-.602.196-.994.196-1.13 0-1.694-.77-1.694-2.31zm10.412-1.134c0 .205-.014.401-.042.588h-5.082c.103.504.35.882.742 1.134.402.252.882.378 1.442.378.728 0 1.41-.224 2.044-.672l.448 1.204c-.644.541-1.484.812-2.52.812-1.129 0-2.002-.327-2.618-.98-.606-.663-.91-1.493-.91-2.492 0-.989.304-1.815.91-2.478.616-.663 1.428-.994 2.436-.994.915 0 1.666.317 2.254.952.598.635.896 1.484.896 2.548zm-5.124-.644h3.752c-.018-.383-.182-.728-.49-1.036-.308-.317-.756-.476-1.344-.476-.569 0-1.026.159-1.372.476-.345.317-.527.663-.546 1.036zm13.949-2.856c.746 0 1.33.266 1.75.798.42.532.63 1.293.63 2.282V296h-1.344v-3.752c0-1.157-.43-1.736-1.288-1.736-.43 0-.808.163-1.134.49-.327.327-.49.761-.49 1.302V296h-1.344v-3.752c0-1.157-.43-1.736-1.288-1.736-.43 0-.808.163-1.134.49-.327.327-.49.761-.49 1.302V296h-1.344v-6.72h1.344v.784a4.62 4.62 0 01.434-.434c.121-.112.308-.215.56-.308.261-.103.555-.154.882-.154.877 0 1.521.355 1.932 1.064.354-.383.709-.653 1.064-.812.364-.168.784-.252 1.26-.252z" fill="#666B73"/>
    <path fill="#C4C4C4" d="M370.362 315h606.325v1H370.362z"/>
    <path d="M17.46 76h-3.072V59.872h3.072V76zm3.836-3.384v-5.832H19.76v-2.688h1.536v-4.224h3.072v4.224h2.304v2.688h-2.304v4.992c0 .848.192 1.376.576 1.584.4.208.976.192 1.728-.048V76c-.64.256-1.392.384-2.256.384-1.056 0-1.84-.336-2.352-1.008-.512-.688-.768-1.608-.768-2.76zm19.017-2.568c0 .224-.016.544-.048.96H31.6c.224.816.632 1.472 1.224 1.968.608.48 1.376.72 2.304.72 1.328 0 2.512-.368 3.552-1.104l.888 2.664c-.128.08-.312.184-.552.312-.224.128-.728.296-1.512.504a9.234 9.234 0 01-2.424.312c-2.208 0-3.872-.592-4.992-1.776-1.12-1.184-1.68-2.704-1.68-4.56 0-1.856.528-3.376 1.584-4.56 1.056-1.184 2.576-1.776 4.56-1.776 1.856 0 3.28.56 4.272 1.68.992 1.104 1.488 2.656 1.488 4.656zm-8.64-1.344h5.376c0-.576-.24-1.104-.72-1.584-.464-.48-1.12-.72-1.968-.72-.72 0-1.352.256-1.896.768-.528.496-.792 1.008-.792 1.536zm23.614-4.992c1.408 0 2.528.464 3.36 1.392.832.912 1.248 2.24 1.248 3.984V76h-3.072v-6.528c0-.944-.144-1.624-.432-2.04-.272-.432-.768-.648-1.488-.648-1.536 0-2.304 1.024-2.304 3.072V76h-3.072v-6.528c0-.928-.152-1.608-.456-2.04-.304-.432-.792-.648-1.464-.648-1.536 0-2.304 1.024-2.304 3.072V76h-3.072V64.096h3.072v1.152c.816-1.024 1.84-1.536 3.072-1.536 1.504 0 2.616.536 3.336 1.608.96-1.072 2.152-1.608 3.576-1.608zm21.25 0c1.391 0 2.48.456 3.263 1.368.8.912 1.2 2.248 1.2 4.008V76h-3.072v-6.528c0-.928-.184-1.608-.552-2.04-.368-.432-.952-.648-1.752-.648-.768 0-1.408.256-1.92.768s-.768 1.28-.768 2.304V76h-3.072V64.096h3.072v1.152c.864-1.024 2.064-1.536 3.6-1.536zm15.987.384h3.072V76h-3.072v-1.272c-.96 1.104-2.176 1.656-3.648 1.656-1.648 0-3.056-.616-4.224-1.848-1.152-1.248-1.728-2.744-1.728-4.488 0-1.744.576-3.232 1.728-4.464 1.168-1.248 2.576-1.872 4.224-1.872 1.472 0 2.688.552 3.648 1.656v-1.272zm-5.568 8.256c.64.64 1.408.96 2.304.96.896 0 1.664-.32 2.304-.96.64-.64.96-1.408.96-2.304 0-.896-.32-1.664-.96-2.304-.64-.64-1.408-.96-2.304-.96-.896 0-1.664.32-2.304.96-.64.64-.96 1.408-.96 2.304 0 .896.32 1.664.96 2.304zm24.581-8.64c1.408 0 2.528.464 3.36 1.392.832.912 1.248 2.24 1.248 3.984V76h-3.072v-6.528c0-.944-.144-1.624-.432-2.04-.272-.432-.768-.648-1.488-.648-1.536 0-2.304 1.024-2.304 3.072V76h-3.072v-6.528c0-.928-.152-1.608-.456-2.04-.304-.432-.792-.648-1.464-.648-1.536 0-2.304 1.024-2.304 3.072V76h-3.072V64.096h3.072v1.152c.816-1.024 1.84-1.536 3.072-1.536 1.504 0 2.616.536 3.336 1.608.96-1.072 2.152-1.608 3.576-1.608zm18.424 6.336c0 .224-.016.544-.048.96h-8.664c.224.816.632 1.472 1.224 1.968.608.48 1.376.72 2.304.72 1.328 0 2.512-.368 3.552-1.104l.888 2.664c-.128.08-.312.184-.552.312-.224.128-.728.296-1.512.504a9.234 9.234 0 01-2.424.312c-2.208 0-3.872-.592-4.992-1.776-1.12-1.184-1.68-2.704-1.68-4.56 0-1.856.528-3.376 1.584-4.56 1.056-1.184 2.576-1.776 4.56-1.776 1.856 0 3.28.56 4.272 1.68.992 1.104 1.488 2.656 1.488 4.656zm-8.64-1.344h5.376c0-.576-.24-1.104-.72-1.584-.464-.48-1.12-.72-1.968-.72-.72 0-1.352.256-1.896.768-.528.496-.792 1.008-.792 1.536zm27.439-.96v1.92h-3.84v3.84H143v-3.84h-3.84v-1.92H143v-3.84h1.92v3.84h3.84zM175.251 76h-4.032l-.6-.744a8.226 8.226 0 01-4.2 1.128c-2.336 0-4.328-.824-5.976-2.472-1.648-1.648-2.472-3.64-2.472-5.976s.824-4.328 2.472-5.976c1.648-1.648 3.64-2.472 5.976-2.472s4.328.824 5.976 2.472c1.648 1.648 2.472 3.64 2.472 5.976 0 2.08-.68 3.912-2.04 5.496L175.251 76zm-8.832-2.688c.768 0 1.504-.152 2.208-.456l-2.784-3.384h3.264l1.608 1.704c.72-.944 1.08-2.024 1.08-3.24 0-1.488-.528-2.752-1.584-3.792-1.04-1.056-2.304-1.584-3.792-1.584s-2.76.528-3.816 1.584c-1.04 1.04-1.56 2.304-1.56 3.792s.52 2.76 1.56 3.816c1.056 1.04 2.328 1.56 3.816 1.56zm14.822 3.072c-1.392 0-2.488-.456-3.288-1.368-.784-.912-1.176-2.248-1.176-4.008v-6.912h3.072v6.528c0 .928.184 1.608.552 2.04.384.432.968.648 1.752.648.768 0 1.408-.256 1.92-.768s.768-1.28.768-2.304v-6.144h3.072V76h-3.072v-1.152c-.864 1.024-2.064 1.536-3.6 1.536zm18.205-12.288h3.072V76h-3.072v-1.272c-.96 1.104-2.176 1.656-3.648 1.656-1.648 0-3.056-.616-4.224-1.848-1.152-1.248-1.728-2.744-1.728-4.488 0-1.744.576-3.232 1.728-4.464 1.168-1.248 2.576-1.872 4.224-1.872 1.472 0 2.688.552 3.648 1.656v-1.272zm-5.568 8.256c.64.64 1.408.96 2.304.96.896 0 1.664-.32 2.304-.96.64-.64.96-1.408.96-2.304 0-.896-.32-1.664-.96-2.304-.64-.64-1.408-.96-2.304-.96-.896 0-1.664.32-2.304.96-.64.64-.96 1.408-.96 2.304 0 .896.32 1.664.96 2.304zm18.197-8.64c1.392 0 2.48.456 3.264 1.368.8.912 1.2 2.248 1.2 4.008V76h-3.072v-6.528c0-.928-.184-1.608-.552-2.04-.368-.432-.952-.648-1.752-.648-.768 0-1.408.256-1.92.768s-.768 1.28-.768 2.304V76h-3.072V64.096h3.072v1.152c.864-1.024 2.064-1.536 3.6-1.536zm7.737 8.904v-5.832h-1.536v-2.688h1.536v-4.224h3.072v4.224h2.304v2.688h-2.304v4.992c0 .848.192 1.376.576 1.584.4.208.976.192 1.728-.048V76c-.64.256-1.392.384-2.256.384-1.056 0-1.84-.336-2.352-1.008-.512-.688-.768-1.608-.768-2.76zm11.092-10.656c-.4.4-.896.6-1.488.6s-1.096-.2-1.512-.6c-.4-.416-.6-.92-.6-1.512s.2-1.088.6-1.488a2.06 2.06 0 011.512-.624c.592 0 1.088.208 1.488.624.416.4.624.896.624 1.488a2.06 2.06 0 01-.624 1.512zM227.88 76V64.096h3.072V76h-3.072zm6.908-3.384v-5.832h-1.536v-2.688h1.536v-4.224h3.072v4.224h2.304v2.688h-2.304v4.992c0 .848.192 1.376.576 1.584.4.208.976.192 1.728-.048V76c-.64.256-1.392.384-2.256.384-1.056 0-1.84-.336-2.352-1.008-.512-.688-.768-1.608-.768-2.76zm15.748-8.52h3.456l-7.68 18.048h-3.456l3.072-7.008-4.608-11.04h3.456l2.88 7.008 2.88-7.008z" fill="#004C79"/>
    <path d="M74.745 156.872h11.52v3.072H82.04V173h-3.072v-13.056h-4.224v-3.072zm15.746 6.744c.384-.88 1.024-1.56 1.92-2.04.896-.496 1.92-.784 3.072-.864v3.624c-.8-.208-1.568-.208-2.304 0-.736.208-1.368.632-1.896 1.272-.528.624-.792 1.424-.792 2.4V173h-3.072v-11.904h3.072v2.52zm15.744-2.52h3.072V173h-3.072v-1.272c-.96 1.104-2.176 1.656-3.648 1.656-1.648 0-3.056-.616-4.224-1.848-1.152-1.248-1.728-2.744-1.728-4.488 0-1.744.576-3.232 1.728-4.464 1.168-1.248 2.576-1.872 4.224-1.872 1.472 0 2.688.552 3.648 1.656v-1.272zm-5.568 8.256c.64.64 1.408.96 2.304.96.896 0 1.664-.32 2.304-.96.64-.64.96-1.408.96-2.304 0-.896-.32-1.664-.96-2.304-.64-.64-1.408-.96-2.304-.96-.896 0-1.664.32-2.304.96-.64.64-.96 1.408-.96 2.304 0 .896.32 1.664.96 2.304zm18.197-8.64c1.392 0 2.48.456 3.264 1.368.8.912 1.2 2.248 1.2 4.008V173h-3.072v-6.528c0-.928-.184-1.608-.552-2.04-.368-.432-.952-.648-1.752-.648-.768 0-1.408.256-1.92.768s-.768 1.28-.768 2.304V173h-3.072v-11.904h3.072v1.152c.864-1.024 2.064-1.536 3.6-1.536zm12.364 4.704c1.84.288 3.096.76 3.768 1.416.672.656 1.008 1.432 1.008 2.328 0 1.248-.472 2.264-1.416 3.048-.928.784-2.2 1.176-3.816 1.176-1.248 0-2.376-.192-3.384-.576-.992-.384-1.704-.768-2.136-1.152l1.008-2.88c.512.48 1.16.88 1.944 1.2.8.304 1.56.464 2.28.48 1.632.032 2.448-.312 2.448-1.032 0-.256-.152-.448-.456-.576-.288-.128-.84-.264-1.656-.408-1.072-.176-1.968-.392-2.688-.648-.704-.272-1.232-.584-1.584-.936-.352-.368-.592-.744-.72-1.128-.128-.384-.192-.84-.192-1.368 0-.992.488-1.848 1.464-2.568s2.224-1.08 3.744-1.08c1.6 0 3.144.384 4.632 1.152l-.864 2.784c-.336-.24-.864-.464-1.584-.672a8.504 8.504 0 00-2.184-.336c-1.424-.032-2.136.208-2.136.72 0 .4.48.688 1.44.864.144.032.376.072.696.12l.384.072zm15.718-4.32h3.072V173h-3.072v-1.272c-.96 1.104-2.176 1.656-3.648 1.656-1.648 0-3.056-.616-4.224-1.848-1.152-1.248-1.728-2.744-1.728-4.488 0-1.744.576-3.232 1.728-4.464 1.168-1.248 2.576-1.872 4.224-1.872 1.472 0 2.688.552 3.648 1.656v-1.272zm-5.568 8.256c.64.64 1.408.96 2.304.96.896 0 1.664-.32 2.304-.96.64-.64.96-1.408.96-2.304 0-.896-.32-1.664-.96-2.304-.64-.64-1.408-.96-2.304-.96-.896 0-1.664.32-2.304.96-.64.64-.96 1.408-.96 2.304 0 .896.32 1.664.96 2.304zm17.29.96c1.12 0 2.04-.36 2.76-1.08l1.272 2.736c-.976.944-2.352 1.416-4.128 1.416-2.032 0-3.648-.6-4.848-1.8-1.184-1.216-1.776-2.728-1.776-4.536 0-1.808.6-3.312 1.8-4.512 1.2-1.216 2.808-1.824 4.824-1.824 1.696 0 3.072.472 4.128 1.416l-1.272 2.76c-.736-.736-1.656-1.104-2.76-1.104-1.104 0-1.992.312-2.664.936-.656.624-.984 1.4-.984 2.328 0 .928.328 1.704.984 2.328.672.624 1.56.936 2.664.936zm7.097-.696v-5.832h-1.536v-2.688h1.536v-4.224h3.072v4.224h2.304v2.688h-2.304v4.992c0 .848.192 1.376.576 1.584.4.208.976.192 1.728-.048V173c-.64.256-1.392.384-2.256.384-1.056 0-1.84-.336-2.352-1.008-.512-.688-.768-1.608-.768-2.76zm11.092-10.656c-.4.4-.896.6-1.488.6s-1.096-.2-1.512-.6c-.4-.416-.6-.92-.6-1.512s.2-1.088.6-1.488a2.06 2.06 0 011.512-.624c.592 0 1.088.208 1.488.624.416.4.624.896.624 1.488a2.06 2.06 0 01-.624 1.512zM173.833 173v-11.904h3.072V173h-3.072zm6.846-10.44c1.232-1.232 2.728-1.848 4.488-1.848 1.76 0 3.256.616 4.488 1.848 1.232 1.232 1.848 2.728 1.848 4.488 0 1.76-.616 3.256-1.848 4.488-1.232 1.232-2.728 1.848-4.488 1.848-1.76 0-3.256-.616-4.488-1.848-1.232-1.232-1.848-2.728-1.848-4.488 0-1.76.616-3.256 1.848-4.488zm2.184 6.792c.64.64 1.408.96 2.304.96.896 0 1.664-.32 2.304-.96.64-.64.96-1.408.96-2.304 0-.896-.32-1.664-.96-2.304-.64-.64-1.408-.96-2.304-.96-.896 0-1.664.32-2.304.96-.64.64-.96 1.408-.96 2.304 0 .896.32 1.664.96 2.304zm17.236-8.64c1.392 0 2.48.456 3.264 1.368.8.912 1.2 2.248 1.2 4.008V173h-3.072v-6.528c0-.928-.184-1.608-.552-2.04-.368-.432-.952-.648-1.752-.648-.768 0-1.408.256-1.92.768s-.768 1.28-.768 2.304V173h-3.072v-11.904h3.072v1.152c.864-1.024 2.064-1.536 3.6-1.536zm12.364 4.704c1.84.288 3.096.76 3.768 1.416.672.656 1.008 1.432 1.008 2.328 0 1.248-.472 2.264-1.416 3.048-.928.784-2.2 1.176-3.816 1.176-1.248 0-2.376-.192-3.384-.576-.992-.384-1.704-.768-2.136-1.152l1.008-2.88c.512.48 1.16.88 1.944 1.2.8.304 1.56.464 2.28.48 1.632.032 2.448-.312 2.448-1.032 0-.256-.152-.448-.456-.576-.288-.128-.84-.264-1.656-.408-1.072-.176-1.968-.392-2.688-.648-.704-.272-1.232-.584-1.584-.936-.352-.368-.592-.744-.72-1.128-.128-.384-.192-.84-.192-1.368 0-.992.488-1.848 1.464-2.568s2.224-1.08 3.744-1.08c1.6 0 3.144.384 4.632 1.152l-.864 2.784c-.336-.24-.864-.464-1.584-.672a8.504 8.504 0 00-2.184-.336c-1.424-.032-2.136.208-2.136.72 0 .4.48.688 1.44.864.144.032.376.072.696.12l.384.072z" fill="#800040"/>
    <path fill="#004C79" d="M269 69h53v2h-53z"/>
    <path fill="#800040" d="M233 166h89v2h-89z"/>
    <path fill="#004C79" d="M291 278h31v2h-31z"/>
    <path fill="#800040" d="M248 347h74v2h-74z"/>
    <path fill="#004C79" d="M321 42h2v56h-2z"/>
    <path fill="#800040" d="M321 133h2v67h-2zm0 205h2v19h-2z"/>
    <path fill="#004C79" d="M321 251h2v56h-2zM291 70h2v209h-2z"/>
    <path fill="#800040" d="M248 167h2v181h-2z"/>
  </g>
  <defs>
    <clipPath id="loblaw-ph_redesign_sub__clip0">
      <path fill="#fff" d="M0 0h1035v400H0z"/>
    </clipPath>
  </defs>
</svg>
