<svg width="1440" height="183" viewBox="0 0 1440 183" fill="none" xmlns="http://www.w3.org/2000/svg">
<path fill-rule="evenodd" clip-rule="evenodd" d="M0 108H1440V183H0V108Z" fill="white"/>
<path d="M217.144 142.992C214.04 142.992 211.512 145.52 211.512 148.624C211.512 151.728 214.04 154.256 217.144 154.256C220.248 154.256 222.776 151.728 222.776 148.624C222.776 145.52 220.248 142.992 217.144 142.992ZM217.144 152.208C215.16 152.208 213.56 150.608 213.56 148.624C213.56 146.64 215.16 145.04 217.144 145.04C219.128 145.04 220.728 146.64 220.728 148.624C220.728 150.608 219.128 152.208 217.144 152.208ZM226.353 147.744V146.064H224.305V154H226.353V150.672C226.353 149.264 227.281 148.464 228.145 148.224C228.609 148.096 229.169 148.096 229.681 148.224V145.808C228.241 145.904 226.881 146.512 226.353 147.744ZM234.418 145.808C232.226 145.808 230.45 147.696 230.45 150.032C230.45 152.368 232.226 154.256 234.418 154.256C235.378 154.256 236.21 153.888 236.85 153.152V154H238.898V142.736H236.85V146.912C236.21 146.176 235.378 145.808 234.418 145.808ZM234.674 152.208C233.474 152.208 232.498 151.232 232.498 150.032C232.498 148.832 233.474 147.856 234.674 147.856C235.874 147.856 236.85 148.832 236.85 150.032C236.85 151.232 235.874 152.208 234.674 152.208ZM248.12 150.032C248.12 147.376 246.76 145.808 244.28 145.808C241.512 145.808 240.184 147.696 240.184 150.032C240.184 152.336 241.544 154.256 244.632 154.256C246.536 154.256 247.624 153.504 247.624 153.504L247.032 151.728C246.376 152.192 245.496 152.464 244.664 152.464C243.384 152.464 242.6 151.712 242.312 150.672H248.088C248.104 150.464 248.12 150.208 248.12 150.032ZM242.36 149.136C242.36 148.48 243.128 147.6 244.152 147.6C245.384 147.6 245.944 148.48 245.944 149.136H242.36ZM251.447 147.744V146.064H249.399V154H251.447V150.672C251.447 149.264 252.375 148.464 253.239 148.224C253.703 148.096 254.263 148.096 254.775 148.224V145.808C253.335 145.904 251.975 146.512 251.447 147.744ZM268.589 143.248V150.672L263.213 143.248H261.165V154H263.213V146.576L268.589 154H270.637V143.248H268.589ZM276.392 145.808C274.056 145.808 272.168 147.696 272.168 150.032C272.168 152.368 274.056 154.256 276.392 154.256C278.728 154.256 280.616 152.368 280.616 150.032C280.616 147.696 278.728 145.808 276.392 145.808ZM276.392 152.208C275.192 152.208 274.216 151.232 274.216 150.032C274.216 148.832 275.192 147.856 276.392 147.856C277.592 147.856 278.568 148.832 278.568 150.032C278.568 151.232 277.592 152.208 276.392 152.208ZM283.173 154.256C283.893 154.256 284.453 153.696 284.453 152.976C284.453 152.256 283.893 151.696 283.173 151.696C282.453 151.696 281.893 152.256 281.893 152.976C281.893 153.696 282.453 154.256 283.173 154.256ZM295.438 146.832C295.118 146.832 294.142 146.864 293.502 147.344L293.79 145.296H298.014V143.248H292.126L291.102 149.648H292.894C293.406 149.056 294.174 148.752 295.07 148.752C296.366 148.752 296.99 149.568 296.99 150.416C296.99 151.488 296.094 152.208 294.942 152.208C293.598 152.208 292.99 151.472 292.894 150.64L290.846 150.8C290.974 152.784 292.334 154.256 294.942 154.256C297.294 154.256 299.038 152.784 299.038 150.24C299.038 148.112 297.294 146.832 295.438 146.832ZM304.805 142.992C302.277 142.992 300.581 145.52 300.581 148.624C300.581 151.728 302.261 154.256 304.805 154.256C307.317 154.256 309.029 151.728 309.029 148.624C309.029 145.52 307.317 142.992 304.805 142.992ZM304.805 152.208C303.605 152.208 302.629 150.608 302.629 148.624C302.629 146.64 303.605 145.04 304.805 145.04C306.005 145.04 306.981 146.64 306.981 148.624C306.981 150.608 306.005 152.208 304.805 152.208ZM314.789 142.992C312.261 142.992 310.565 145.52 310.565 148.624C310.565 151.728 312.245 154.256 314.789 154.256C317.301 154.256 319.013 151.728 319.013 148.624C319.013 145.52 317.301 142.992 314.789 142.992ZM314.789 152.208C313.589 152.208 312.613 150.608 312.613 148.624C312.613 146.64 313.589 145.04 314.789 145.04C315.989 145.04 316.965 146.64 316.965 148.624C316.965 150.608 315.989 152.208 314.789 152.208ZM324.773 142.992C322.245 142.992 320.549 145.52 320.549 148.624C320.549 151.728 322.229 154.256 324.773 154.256C327.285 154.256 328.997 151.728 328.997 148.624C328.997 145.52 327.285 142.992 324.773 142.992ZM324.773 152.208C323.573 152.208 322.597 150.608 322.597 148.624C322.597 146.64 323.573 145.04 324.773 145.04C325.973 145.04 326.949 146.64 326.949 148.624C326.949 150.608 325.973 152.208 324.773 152.208ZM334.758 142.992C332.23 142.992 330.534 145.52 330.534 148.624C330.534 151.728 332.214 154.256 334.758 154.256C337.27 154.256 338.982 151.728 338.982 148.624C338.982 145.52 337.27 142.992 334.758 142.992ZM334.758 152.208C333.558 152.208 332.582 150.608 332.582 148.624C332.582 146.64 333.558 145.04 334.758 145.04C335.958 145.04 336.934 146.64 336.934 148.624C336.934 150.608 335.958 152.208 334.758 152.208ZM344.742 142.992C342.214 142.992 340.518 145.52 340.518 148.624C340.518 151.728 342.198 154.256 344.742 154.256C347.254 154.256 348.966 151.728 348.966 148.624C348.966 145.52 347.254 142.992 344.742 142.992ZM344.742 152.208C343.542 152.208 342.566 150.608 342.566 148.624C342.566 146.64 343.542 145.04 344.742 145.04C345.942 145.04 346.918 146.64 346.918 148.624C346.918 150.608 345.942 152.208 344.742 152.208ZM354.726 142.992C352.198 142.992 350.502 145.52 350.502 148.624C350.502 151.728 352.182 154.256 354.726 154.256C357.238 154.256 358.95 151.728 358.95 148.624C358.95 145.52 357.238 142.992 354.726 142.992ZM354.726 152.208C353.526 152.208 352.55 150.608 352.55 148.624C352.55 146.64 353.526 145.04 354.726 145.04C355.926 145.04 356.902 146.64 356.902 148.624C356.902 150.608 355.926 152.208 354.726 152.208ZM364.711 142.992C362.183 142.992 360.487 145.52 360.487 148.624C360.487 151.728 362.167 154.256 364.711 154.256C367.223 154.256 368.935 151.728 368.935 148.624C368.935 145.52 367.223 142.992 364.711 142.992ZM364.711 152.208C363.511 152.208 362.535 150.608 362.535 148.624C362.535 146.64 363.511 145.04 364.711 145.04C365.911 145.04 366.887 146.64 366.887 148.624C366.887 150.608 365.911 152.208 364.711 152.208ZM374.695 142.992C372.167 142.992 370.471 145.52 370.471 148.624C370.471 151.728 372.151 154.256 374.695 154.256C377.207 154.256 378.919 151.728 378.919 148.624C378.919 145.52 377.207 142.992 374.695 142.992ZM374.695 152.208C373.495 152.208 372.519 150.608 372.519 148.624C372.519 146.64 373.495 145.04 374.695 145.04C375.895 145.04 376.871 146.64 376.871 148.624C376.871 150.608 375.895 152.208 374.695 152.208ZM384.68 142.992C382.152 142.992 380.456 145.52 380.456 148.624C380.456 151.728 382.136 154.256 384.68 154.256C387.192 154.256 388.904 151.728 388.904 148.624C388.904 145.52 387.192 142.992 384.68 142.992ZM384.68 152.208C383.48 152.208 382.504 150.608 382.504 148.624C382.504 146.64 383.48 145.04 384.68 145.04C385.88 145.04 386.856 146.64 386.856 148.624C386.856 150.608 385.88 152.208 384.68 152.208ZM394.664 142.992C392.136 142.992 390.44 145.52 390.44 148.624C390.44 151.728 392.12 154.256 394.664 154.256C397.176 154.256 398.888 151.728 398.888 148.624C398.888 145.52 397.176 142.992 394.664 142.992ZM394.664 152.208C393.464 152.208 392.488 150.608 392.488 148.624C392.488 146.64 393.464 145.04 394.664 145.04C395.864 145.04 396.84 146.64 396.84 148.624C396.84 150.608 395.864 152.208 394.664 152.208ZM404.648 142.992C402.12 142.992 400.424 145.52 400.424 148.624C400.424 151.728 402.104 154.256 404.648 154.256C407.16 154.256 408.872 151.728 408.872 148.624C408.872 145.52 407.16 142.992 404.648 142.992ZM404.648 152.208C403.448 152.208 402.472 150.608 402.472 148.624C402.472 146.64 403.448 145.04 404.648 145.04C405.848 145.04 406.824 146.64 406.824 148.624C406.824 150.608 405.848 152.208 404.648 152.208ZM414.633 142.992C412.105 142.992 410.409 145.52 410.409 148.624C410.409 151.728 412.089 154.256 414.633 154.256C417.145 154.256 418.857 151.728 418.857 148.624C418.857 145.52 417.145 142.992 414.633 142.992ZM414.633 152.208C413.433 152.208 412.457 150.608 412.457 148.624C412.457 146.64 413.433 145.04 414.633 145.04C415.833 145.04 416.809 146.64 416.809 148.624C416.809 150.608 415.833 152.208 414.633 152.208ZM424.617 142.992C422.089 142.992 420.393 145.52 420.393 148.624C420.393 151.728 422.073 154.256 424.617 154.256C427.129 154.256 428.841 151.728 428.841 148.624C428.841 145.52 427.129 142.992 424.617 142.992ZM424.617 152.208C423.417 152.208 422.441 150.608 422.441 148.624C422.441 146.64 423.417 145.04 424.617 145.04C425.817 145.04 426.793 146.64 426.793 148.624C426.793 150.608 425.817 152.208 424.617 152.208ZM430.633 144.016V145.936L432.681 145.488V154H434.729V142.992L430.633 144.016Z" fill="black"/>
<path d="M706.285 142.248H713.965V144.296H711.149V153H709.101V144.296H706.285V142.248ZM723.693 153H721.197L718.781 149.416H717.549V153H715.501V142.248H719.341C720.695 142.248 721.714 142.573 722.397 143.224C723.09 143.875 723.437 144.744 723.437 145.832C723.437 146.611 723.218 147.32 722.781 147.96C722.343 148.589 721.741 149.021 720.973 149.256L723.693 153ZM717.549 144.296V147.368H719.597C720.098 147.368 720.519 147.224 720.861 146.936C721.213 146.648 721.389 146.28 721.389 145.832C721.389 145.341 721.218 144.963 720.877 144.696C720.546 144.429 720.119 144.296 719.597 144.296H717.549ZM731.155 147.368L734.963 153H732.403L729.715 148.904L727.027 153H724.467L728.275 147.368L724.707 142.248H727.283L729.715 146.024L732.147 142.248H734.723L731.155 147.368Z" fill="black"/>
<path d="M103.448 154H105.752L101.304 143.248H99.448L95 154H97.304L98.104 151.952H102.648L103.448 154ZM98.888 149.904L100.376 146.064L101.864 149.904H98.888ZM106.774 142.736V154H108.822V142.736H106.774ZM110.743 142.736V154H112.791V142.736H110.743ZM124.816 142.992C121.712 142.992 119.184 145.52 119.184 148.624C119.184 151.728 121.712 154.256 124.816 154.256C127.92 154.256 130.448 151.728 130.448 148.624C130.448 145.52 127.92 142.992 124.816 142.992ZM124.816 152.208C122.832 152.208 121.232 150.608 121.232 148.624C121.232 146.64 122.832 145.04 124.816 145.04C126.8 145.04 128.4 146.64 128.4 148.624C128.4 150.608 126.8 152.208 124.816 152.208ZM134.025 147.744V146.064H131.977V154H134.025V150.672C134.025 149.264 134.953 148.464 135.817 148.224C136.281 148.096 136.841 148.096 137.353 148.224V145.808C135.913 145.904 134.553 146.512 134.025 147.744ZM142.089 145.808C139.897 145.808 138.121 147.696 138.121 150.032C138.121 152.368 139.897 154.256 142.089 154.256C143.049 154.256 143.881 153.888 144.521 153.152V154H146.569V142.736H144.521V146.912C143.881 146.176 143.049 145.808 142.089 145.808ZM142.345 152.208C141.145 152.208 140.169 151.232 140.169 150.032C140.169 148.832 141.145 147.856 142.345 147.856C143.545 147.856 144.521 148.832 144.521 150.032C144.521 151.232 143.545 152.208 142.345 152.208ZM155.792 150.032C155.792 147.376 154.432 145.808 151.952 145.808C149.184 145.808 147.856 147.696 147.856 150.032C147.856 152.336 149.216 154.256 152.304 154.256C154.208 154.256 155.296 153.504 155.296 153.504L154.704 151.728C154.048 152.192 153.168 152.464 152.336 152.464C151.056 152.464 150.272 151.712 149.984 150.672H155.76C155.776 150.464 155.792 150.208 155.792 150.032ZM150.032 149.136C150.032 148.48 150.8 147.6 151.824 147.6C153.056 147.6 153.616 148.48 153.616 149.136H150.032ZM159.119 147.744V146.064H157.071V154H159.119V150.672C159.119 149.264 160.047 148.464 160.911 148.224C161.375 148.096 161.935 148.096 162.447 148.224V145.808C161.007 145.904 159.647 146.512 159.119 147.744ZM167.449 148.944C166.601 148.8 165.769 148.72 165.769 148.24C165.769 147.904 166.361 147.744 167.193 147.76C168.249 147.776 169.305 148.144 169.705 148.432L170.281 146.576C169.129 145.984 167.977 145.808 167.193 145.808C165.113 145.808 163.721 146.96 163.721 148.24C163.721 149.536 164.217 150.48 167.177 150.96C168.233 151.136 168.585 151.264 168.585 151.616C168.585 152.112 167.897 152.32 166.953 152.304C165.993 152.288 164.825 151.824 164.137 151.184L163.465 153.104C163.865 153.456 165.257 154.256 167.145 154.256C169.353 154.256 170.633 153.056 170.633 151.44C170.633 150.432 170.137 149.376 167.449 148.944Z" fill="black"/>
<path d="M95 155.6H171.145V156.4H95V155.6Z" fill="black"/>
<path d="M189.912 151.825L193.729 148L189.912 144.175L191.087 143L196.087 148L191.087 153L189.912 151.825Z" fill="#DBDBDB"/>
<rect x="1019" y="127" width="285" height="38" rx="3" stroke="#F3F5F6" stroke-width="2"/>
<path d="M1041.5 148H1040.71L1040.43 147.73C1041.41 146.59 1042 145.11 1042 143.5C1042 139.91 1039.09 137 1035.5 137C1031.91 137 1029 139.91 1029 143.5C1029 147.09 1031.91 150 1035.5 150C1037.11 150 1038.59 149.41 1039.73 148.43L1040 148.71V149.5L1045 154.49L1046.49 153L1041.5 148V148ZM1035.5 148C1033.01 148 1031 145.99 1031 143.5C1031 141.01 1033.01 139 1035.5 139C1037.99 139 1040 141.01 1040 143.5C1040 145.99 1037.99 148 1035.5 148Z" fill="#333333"/>
<path d="M1062.35 145.512C1060.87 145.218 1060.23 144.882 1060.23 144.154C1060.23 143.314 1060.95 142.824 1062.24 142.824C1063.42 142.824 1064.17 143.342 1064.66 143.818L1065.31 142.6C1064.15 141.522 1062.66 141.48 1062.27 141.48C1060.07 141.48 1058.88 142.684 1058.88 144.21C1058.88 145.47 1059.62 146.408 1062.24 146.856C1063.53 147.08 1064.38 147.542 1064.38 148.298C1064.38 149.194 1063.61 149.768 1062.2 149.768C1061.09 149.768 1060.02 149.25 1059.23 148.382L1058.56 149.586C1058.7 149.754 1059.9 151.112 1062.17 151.112C1064.37 151.112 1065.73 149.88 1065.73 148.242C1065.73 146.66 1064.59 145.946 1062.35 145.512ZM1073.34 147.668C1073.34 145.484 1071.97 144.168 1070.19 144.168C1068.13 144.168 1066.85 145.722 1066.85 147.64C1066.85 149.53 1068.02 151.112 1070.37 151.112C1071.83 151.112 1072.71 150.454 1072.89 150.3L1072.45 149.096C1071.91 149.474 1071.2 149.768 1070.4 149.768C1069.34 149.768 1068.43 149.306 1068.22 148.256H1073.3C1073.33 148.074 1073.34 147.808 1073.34 147.668ZM1068.22 147.024C1068.25 146.366 1068.9 145.512 1070.14 145.512C1071.41 145.512 1071.94 146.366 1071.97 147.024H1068.22ZM1080.06 144.28V145.26C1079.51 144.546 1078.73 144.168 1077.82 144.168C1075.86 144.168 1074.46 145.722 1074.46 147.64C1074.46 149.558 1075.86 151.112 1077.82 151.112C1078.73 151.112 1079.51 150.734 1080.06 150.02V151H1081.4V144.28H1080.06ZM1077.93 149.768C1076.76 149.768 1075.8 148.816 1075.8 147.64C1075.8 146.464 1076.76 145.512 1077.93 145.512C1079.11 145.512 1080.06 146.464 1080.06 147.64C1080.06 148.816 1079.11 149.768 1077.93 149.768ZM1084.66 145.722V144.28H1083.32V151H1084.66V148.004C1084.66 146.772 1085.23 146.03 1086.12 145.694C1086.54 145.54 1087.03 145.54 1087.35 145.638V144.168C1086.09 144.168 1085.12 144.756 1084.66 145.722ZM1088.02 147.64C1088.02 149.558 1089.35 151.112 1091.61 151.112C1092.42 151.112 1093.31 150.846 1093.85 150.342L1093.27 149.082C1092.85 149.502 1092.26 149.768 1091.62 149.768C1090.37 149.768 1089.37 148.802 1089.37 147.626C1089.37 146.478 1090.37 145.512 1091.62 145.512C1092.26 145.512 1092.85 145.778 1093.27 146.184L1093.85 144.938C1093.26 144.406 1092.42 144.168 1091.61 144.168C1089.38 144.168 1088.02 145.722 1088.02 147.64ZM1098.75 144.168C1097.7 144.168 1097.04 144.616 1096.65 145.064V141.144H1095.31V151H1096.65V147.304C1096.65 146.156 1097.69 145.512 1098.5 145.512C1099.65 145.512 1100.01 146.17 1100.01 147.248V151H1101.35V147.248C1101.35 145.26 1100.46 144.168 1098.75 144.168ZM1108.97 141.144H1107.63V151H1108.97V150.02C1109.52 150.734 1110.3 151.112 1111.21 151.112C1113.17 151.112 1114.57 149.558 1114.57 147.64C1114.57 145.722 1113.17 144.168 1111.21 144.168C1110.3 144.168 1109.52 144.546 1108.97 145.26V141.144ZM1111.1 149.768C1109.92 149.768 1108.97 148.816 1108.97 147.64C1108.97 146.464 1109.92 145.512 1111.1 145.512C1112.27 145.512 1113.23 146.464 1113.23 147.64C1113.23 148.816 1112.27 149.768 1111.1 149.768ZM1120.58 144.28L1118.61 148.928L1116.64 144.28H1115.14L1117.85 150.566L1116.06 154.584H1117.53L1122.08 144.28H1120.58ZM1128.35 143.16C1128.91 143.16 1129.36 142.712 1129.36 142.152C1129.36 141.592 1128.91 141.144 1128.35 141.144C1127.79 141.144 1127.35 141.592 1127.35 142.152C1127.35 142.712 1127.79 143.16 1128.35 143.16ZM1127.68 151H1129.03V144.28H1127.68V151ZM1131.49 148.802C1131.49 150.09 1131.91 151.112 1133.19 151.112C1133.57 151.112 1133.89 151.056 1134.18 150.916V149.558C1133.87 149.712 1133.43 149.824 1133.1 149.586C1132.84 149.39 1132.84 148.9 1132.84 148.424V145.624H1134.18V144.28H1132.84V141.592H1131.49V144.28H1130.6V145.624H1131.49V148.802ZM1141.91 147.668C1141.91 145.484 1140.53 144.168 1138.76 144.168C1136.7 144.168 1135.41 145.722 1135.41 147.64C1135.41 149.53 1136.59 151.112 1138.94 151.112C1140.39 151.112 1141.28 150.454 1141.46 150.3L1141.01 149.096C1140.48 149.474 1139.76 149.768 1138.97 149.768C1137.9 149.768 1136.99 149.306 1136.78 148.256H1141.86C1141.89 148.074 1141.91 147.808 1141.91 147.668ZM1136.78 147.024C1136.81 146.366 1137.47 145.512 1138.7 145.512C1139.97 145.512 1140.51 146.366 1140.53 147.024H1136.78ZM1150.73 144.168C1149.78 144.168 1149.12 144.462 1148.41 145.232C1148 144.532 1147.34 144.168 1146.47 144.168C1145.42 144.168 1144.99 144.616 1144.6 145.064V144.28H1143.25V151H1144.6V147.304C1144.6 146.156 1145.41 145.512 1146.22 145.512C1147.15 145.512 1147.51 146.17 1147.51 147.248V151H1148.85V147.304C1148.85 146.156 1149.67 145.512 1150.48 145.512C1151.4 145.512 1151.77 146.17 1151.77 147.248V151H1153.11V147.248C1153.11 145.26 1152.21 144.168 1150.73 144.168ZM1162.83 144.168C1161.78 144.168 1161.12 144.616 1160.73 145.064V144.28H1159.39V151H1160.73V147.304C1160.73 146.156 1161.77 145.512 1162.58 145.512C1163.73 145.512 1164.09 146.17 1164.09 147.248V151H1165.43V147.136C1165.43 145.148 1164.43 144.168 1162.83 144.168ZM1172.37 144.28V145.26C1171.83 144.546 1171.04 144.168 1170.13 144.168C1168.17 144.168 1166.77 145.722 1166.77 147.64C1166.77 149.558 1168.17 151.112 1170.13 151.112C1171.04 151.112 1171.83 150.734 1172.37 150.02V151H1173.72V144.28H1172.37ZM1170.24 149.768C1169.07 149.768 1168.12 148.816 1168.12 147.64C1168.12 146.464 1169.07 145.512 1170.24 145.512C1171.42 145.512 1172.37 146.464 1172.37 147.64C1172.37 148.816 1171.42 149.768 1170.24 149.768ZM1183.11 144.168C1182.15 144.168 1181.5 144.462 1180.78 145.232C1180.38 144.532 1179.72 144.168 1178.85 144.168C1177.8 144.168 1177.37 144.616 1176.97 145.064V144.28H1175.63V151H1176.97V147.304C1176.97 146.156 1177.79 145.512 1178.6 145.512C1179.52 145.512 1179.89 146.17 1179.89 147.248V151H1181.23V147.304C1181.23 146.156 1182.04 145.512 1182.85 145.512C1183.78 145.512 1184.14 146.17 1184.14 147.248V151H1185.49V147.248C1185.49 145.26 1184.59 144.168 1183.11 144.168ZM1193.33 147.668C1193.33 145.484 1191.95 144.168 1190.18 144.168C1188.12 144.168 1186.83 145.722 1186.83 147.64C1186.83 149.53 1188.01 151.112 1190.36 151.112C1191.81 151.112 1192.7 150.454 1192.88 150.3L1192.43 149.096C1191.9 149.474 1191.18 149.768 1190.39 149.768C1189.32 149.768 1188.41 149.306 1188.2 148.256H1193.28C1193.31 148.074 1193.33 147.808 1193.33 147.668ZM1188.2 147.024C1188.23 146.366 1188.89 145.512 1190.12 145.512C1191.39 145.512 1191.93 146.366 1191.95 147.024H1188.2Z" fill="#666B73"/>
<rect x="314.08" y="11.0801" width="592.84" height="79.0453" rx="6.24042" fill="white" stroke="#F3F5F6" stroke-width="4.16028"/>
<path d="M360.883 54.7629H359.24L358.658 54.2012C360.696 51.8299 361.923 48.7513 361.923 45.4023C361.923 37.9346 355.87 31.8813 348.402 31.8813C340.935 31.8813 334.882 37.9346 334.882 45.4023C334.882 52.87 340.935 58.9232 348.402 58.9232C351.752 58.9232 354.83 57.6959 357.201 55.6573L357.763 56.2398V57.8831L368.164 68.263L371.263 65.1636L360.883 54.7629V54.7629ZM348.402 54.7629C343.223 54.7629 339.042 50.5818 339.042 45.4023C339.042 40.2227 343.223 36.0416 348.402 36.0416C353.582 36.0416 357.763 40.2227 357.763 45.4023C357.763 50.5818 353.582 54.7629 348.402 54.7629Z" fill="#333333"/>
<path d="M404.262 49.5466C406.689 50.0125 408.466 50.6824 409.592 51.556C410.718 52.4103 411.281 53.6334 411.281 55.2254C411.281 56.9727 410.611 58.4094 409.271 59.5354C407.932 60.6421 406.136 61.1954 403.884 61.1954C402.797 61.1954 401.768 61.0595 400.797 60.7877C399.846 60.4965 399.05 60.1373 398.409 59.7102C397.788 59.283 397.331 58.9433 397.04 58.6909C396.749 58.4385 396.526 58.2152 396.37 58.0211L397.768 55.5166C399.496 57.4386 401.554 58.3997 403.942 58.3997C405.398 58.3997 406.515 58.1279 407.291 57.5843C408.087 57.0406 408.485 56.2932 408.485 55.3419C408.485 53.8664 407 52.8665 404.03 52.3423C401.447 51.8958 399.632 51.226 398.584 50.3329C397.555 49.4204 397.04 48.2555 397.04 46.8383C397.04 45.188 397.662 43.829 398.904 42.7612C400.147 41.6934 401.874 41.1595 404.088 41.1595C406.631 41.1595 408.738 41.9361 410.407 43.4892L409.068 46.0228C407.65 44.6444 405.971 43.9552 404.03 43.9552C402.69 43.9552 401.651 44.1979 400.913 44.6832C400.195 45.1686 399.836 45.8481 399.836 46.7218C399.836 47.4595 400.176 48.042 400.855 48.4691C401.535 48.8768 402.67 49.236 404.262 49.5466ZM427.117 54.0314C427.117 54.4585 427.088 54.8662 427.03 55.2545H416.459C416.672 56.3029 417.187 57.0892 418.002 57.6134C418.837 58.1376 419.837 58.3997 421.002 58.3997C422.516 58.3997 423.933 57.9337 425.254 57.0018L426.185 59.5063C424.846 60.6324 423.098 61.1954 420.943 61.1954C418.594 61.1954 416.779 60.5159 415.498 59.1568C414.236 57.7784 413.605 56.0505 413.605 53.9731C413.605 51.9152 414.236 50.197 415.498 48.8185C416.779 47.4401 418.468 46.7509 420.565 46.7509C422.468 46.7509 424.03 47.411 425.254 48.7312C426.496 50.0514 427.117 51.8181 427.117 54.0314ZM416.459 52.6918H424.263C424.225 51.8958 423.885 51.1774 423.244 50.5367C422.603 49.8766 421.672 49.5466 420.448 49.5466C419.264 49.5466 418.313 49.8766 417.594 50.5367C416.876 51.1968 416.498 51.9152 416.459 52.6918ZM441.094 46.9839H443.89V60.9624H441.094V58.9239C439.929 60.4382 438.376 61.1954 436.435 61.1954C434.416 61.1954 432.746 60.4965 431.426 59.0986C430.106 57.7007 429.445 55.9923 429.445 53.9731C429.445 51.954 430.106 50.2455 431.426 48.8477C432.746 47.4498 434.416 46.7509 436.435 46.7509C438.376 46.7509 439.929 47.5081 441.094 49.0224V46.9839ZM433.523 57.1183C434.396 57.9725 435.445 58.3997 436.668 58.3997C437.891 58.3997 438.93 57.9725 439.784 57.1183C440.657 56.2446 441.094 55.1963 441.094 53.9731C441.094 52.75 440.657 51.7113 439.784 50.8571C438.93 49.9834 437.891 49.5466 436.668 49.5466C435.445 49.5466 434.396 49.9834 433.523 50.8571C432.668 51.7113 432.241 52.75 432.241 53.9731C432.241 55.1963 432.668 56.2446 433.523 57.1183ZM450.663 49.9834C451.149 48.9739 451.877 48.1876 452.847 47.6245C453.818 47.0421 454.954 46.7509 456.255 46.7509V49.8087C455.439 49.5563 454.585 49.5951 453.692 49.9252C451.673 50.7018 450.663 52.3035 450.663 54.7303V60.9624H447.868V46.9839H450.663V49.9834ZM459.667 59.1277C458.327 57.7493 457.657 56.0311 457.657 53.9731C457.657 51.9152 458.337 50.197 459.696 48.8185C461.055 47.4401 462.86 46.7509 465.113 46.7509C467.035 46.7509 468.588 47.2848 469.772 48.3526L468.578 50.9445C467.607 50.0125 466.462 49.5466 465.142 49.5466C463.86 49.5466 462.754 49.9834 461.822 50.8571C460.909 51.7113 460.453 52.7403 460.453 53.944C460.453 55.1671 460.909 56.2155 461.822 57.0892C462.734 57.9628 463.841 58.3997 465.142 58.3997C466.481 58.3997 467.627 57.924 468.578 56.9727L469.772 59.5937C468.646 60.6615 467.093 61.1954 465.113 61.1954C462.841 61.1954 461.026 60.5062 459.667 59.1277ZM479.973 46.7509C481.74 46.7509 483.079 47.3042 483.992 48.4108C484.924 49.4981 485.39 51.0804 485.39 53.1577V60.9624H482.594V53.1577C482.594 51.9734 482.351 51.0804 481.866 50.4785C481.4 49.8572 480.594 49.5466 479.449 49.5466C478.517 49.5466 477.643 49.8961 476.828 50.595C476.012 51.2745 475.605 52.1676 475.605 53.2742V60.9624H472.809V40.4605H475.605V48.6147C476.692 47.3722 478.148 46.7509 479.973 46.7509ZM501.229 40.4605V49.0224C502.393 47.5081 503.947 46.7509 505.888 46.7509C507.907 46.7509 509.577 47.4498 510.897 48.8477C512.217 50.2455 512.877 51.954 512.877 53.9731C512.877 55.9923 512.217 57.7007 510.897 59.0986C509.577 60.4965 507.907 61.1954 505.888 61.1954C503.947 61.1954 502.393 60.4382 501.229 58.9239V60.9624H498.433V40.4605H501.229ZM502.51 57.1183C503.384 57.9725 504.432 58.3997 505.655 58.3997C506.878 58.3997 507.917 57.9725 508.771 57.1183C509.645 56.2446 510.082 55.1963 510.082 53.9731C510.082 52.75 509.645 51.7113 508.771 50.8571C507.917 49.9834 506.878 49.5466 505.655 49.5466C504.432 49.5466 503.384 49.9834 502.51 50.8571C501.656 51.7113 501.229 52.75 501.229 53.9731C501.229 55.1963 501.656 56.2446 502.51 57.1183ZM525.388 46.9839H528.504L519.039 68.4176H515.981L519.709 60.0596L514.059 46.9839H517.175L521.282 56.6524L525.388 46.9839ZM543.037 44.0425C542.629 44.4503 542.134 44.6541 541.551 44.6541C540.969 44.6541 540.474 44.4503 540.066 44.0425C539.658 43.6348 539.455 43.1398 539.455 42.5573C539.455 41.9749 539.658 41.4798 540.066 41.0721C540.474 40.6644 540.969 40.4605 541.551 40.4605C542.134 40.4605 542.629 40.6644 543.037 41.0721C543.444 41.4798 543.648 41.9749 543.648 42.5573C543.648 43.1398 543.444 43.6348 543.037 44.0425ZM540.153 60.9624V46.9839H542.949V60.9624H540.153ZM548.081 56.3903V49.7796H546.218V46.9839H548.081V41.3925H550.877V46.9839H553.673V49.7796H550.877V55.604C550.877 56.9436 551.062 57.7493 551.43 58.0211C551.994 58.4482 552.741 58.4288 553.673 57.9628V60.7877C553.11 61.0595 552.421 61.1954 551.605 61.1954C549.256 61.1954 548.081 59.5937 548.081 56.3903ZM569.741 54.0314C569.741 54.4585 569.712 54.8662 569.654 55.2545H559.082C559.296 56.3029 559.81 57.0892 560.626 57.6134C561.461 58.1376 562.46 58.3997 563.625 58.3997C565.14 58.3997 566.557 57.9337 567.877 57.0018L568.809 59.5063C567.469 60.6324 565.722 61.1954 563.567 61.1954C561.218 61.1954 559.403 60.5159 558.121 59.1568C556.859 57.7784 556.228 56.0505 556.228 53.9731C556.228 51.9152 556.859 50.197 558.121 48.8185C559.403 47.4401 561.092 46.7509 563.188 46.7509C565.091 46.7509 566.654 47.411 567.877 48.7312C569.12 50.0514 569.741 51.8181 569.741 54.0314ZM559.082 52.6918H566.887C566.848 51.8958 566.508 51.1774 565.868 50.5367C565.227 49.8766 564.295 49.5466 563.072 49.5466C561.888 49.5466 560.936 49.8766 560.218 50.5367C559.5 51.1968 559.121 51.9152 559.082 52.6918ZM588.097 46.7509C589.65 46.7509 590.864 47.3042 591.737 48.4108C592.611 49.5175 593.048 51.0998 593.048 53.1577V60.9624H590.252V53.1577C590.252 50.7503 589.359 49.5466 587.573 49.5466C586.68 49.5466 585.893 49.8864 585.214 50.5659C584.534 51.2454 584.195 52.1482 584.195 53.2742V60.9624H581.399V53.1577C581.399 50.7503 580.506 49.5466 578.72 49.5466C577.827 49.5466 577.04 49.8864 576.361 50.5659C575.681 51.2454 575.342 52.1482 575.342 53.2742V60.9624H572.546V46.9839H575.342V48.6147C575.691 48.2264 575.992 47.9255 576.244 47.7119C576.497 47.4789 576.885 47.2654 577.409 47.0712C577.953 46.8577 578.564 46.7509 579.244 46.7509C581.069 46.7509 582.409 47.4886 583.263 48.9642C584.001 48.1682 584.738 47.6051 585.476 47.2751C586.233 46.9256 587.107 46.7509 588.097 46.7509ZM613.268 46.7509C614.958 46.7509 616.278 47.2751 617.229 48.3235C618.2 49.3719 618.685 50.9056 618.685 52.9247V60.9624H615.889V53.1577C615.889 51.9734 615.647 51.0804 615.161 50.4785C614.695 49.8572 613.89 49.5466 612.744 49.5466C611.812 49.5466 610.939 49.8961 610.123 50.595C609.308 51.2745 608.9 52.1676 608.9 53.2742V60.9624H606.104V46.9839H608.9V48.6147C609.987 47.3722 611.443 46.7509 613.268 46.7509ZM633.117 46.9839H635.913V60.9624H633.117V58.9239C631.952 60.4382 630.399 61.1954 628.458 61.1954C626.438 61.1954 624.769 60.4965 623.449 59.0986C622.128 57.7007 621.468 55.9923 621.468 53.9731C621.468 51.954 622.128 50.2455 623.449 48.8477C624.769 47.4498 626.438 46.7509 628.458 46.7509C630.399 46.7509 631.952 47.5081 633.117 49.0224V46.9839ZM625.545 57.1183C626.419 57.9725 627.467 58.3997 628.691 58.3997C629.914 58.3997 630.952 57.9725 631.807 57.1183C632.68 56.2446 633.117 55.1963 633.117 53.9731C633.117 52.75 632.68 51.7113 631.807 50.8571C630.952 49.9834 629.914 49.5466 628.691 49.5466C627.467 49.5466 626.419 49.9834 625.545 50.8571C624.691 51.7113 624.264 52.75 624.264 53.9731C624.264 55.1963 624.691 56.2446 625.545 57.1183ZM655.442 46.7509C656.995 46.7509 658.208 47.3042 659.082 48.4108C659.955 49.5175 660.392 51.0998 660.392 53.1577V60.9624H657.597V53.1577C657.597 50.7503 656.704 49.5466 654.917 49.5466C654.024 49.5466 653.238 49.8864 652.558 50.5659C651.879 51.2454 651.539 52.1482 651.539 53.2742V60.9624H648.744V53.1577C648.744 50.7503 647.85 49.5466 646.064 49.5466C645.171 49.5466 644.385 49.8864 643.705 50.5659C643.026 51.2454 642.686 52.1482 642.686 53.2742V60.9624H639.89V46.9839H642.686V48.6147C643.036 48.2264 643.337 47.9255 643.589 47.7119C643.841 47.4789 644.23 47.2654 644.754 47.0712C645.297 46.8577 645.909 46.7509 646.588 46.7509C648.413 46.7509 649.753 47.4886 650.607 48.9642C651.345 48.1682 652.083 47.6051 652.821 47.2751C653.578 46.9256 654.451 46.7509 655.442 46.7509ZM676.702 54.0314C676.702 54.4585 676.672 54.8662 676.614 55.2545H666.043C666.256 56.3029 666.771 57.0892 667.586 57.6134C668.421 58.1376 669.421 58.3997 670.586 58.3997C672.1 58.3997 673.518 57.9337 674.838 57.0018L675.77 59.5063C674.43 60.6324 672.683 61.1954 670.528 61.1954C668.178 61.1954 666.363 60.5159 665.082 59.1568C663.82 57.7784 663.189 56.0505 663.189 53.9731C663.189 51.9152 663.82 50.197 665.082 48.8185C666.363 47.4401 668.052 46.7509 670.149 46.7509C672.052 46.7509 673.615 47.411 674.838 48.7312C676.08 50.0514 676.702 51.8181 676.702 54.0314ZM666.043 52.6918H673.848C673.809 51.8958 673.469 51.1774 672.828 50.5367C672.188 49.8766 671.256 49.5466 670.033 49.5466C668.848 49.5466 667.897 49.8766 667.179 50.5367C666.46 51.1968 666.082 51.9152 666.043 52.6918Z" fill="#666B73"/>
<rect x="1006.5" y="116.5" width="309" height="60" stroke="#004C79" stroke-width="5"/>
<rect x="917.961" y="94.7603" width="5" height="95.632" transform="rotate(-66.6513 917.961 94.7603)" fill="#004C79"/>
</svg>
