<svg width="1440" height="183" fill="none" xmlns="http://www.w3.org/2000/svg">
  <path fill-rule="evenodd" clip-rule="evenodd" d="M0 108h1440v75H0v-75z" fill="#fff"/>
  <path d="M217.144 142.992a5.64 5.64 0 00-5.632 5.632 5.64 5.64 0 005.632 5.632 5.64 5.64 0 005.632-5.632 5.64 5.64 0 00-5.632-5.632zm0 9.216a3.578 3.578 0 01-3.584-3.584c0-1.984 1.6-3.584 3.584-3.584s3.584 1.6 3.584 3.584-1.6 3.584-3.584 3.584zm9.209-4.464v-1.68h-2.048V154h2.048v-3.328c0-1.408.928-2.208 1.792-2.448a3.118 3.118 0 011.536 0v-2.416c-1.44.096-2.8.704-3.328 1.936zm8.065-1.936c-2.192 0-3.968 1.888-3.968 4.224 0 2.336 1.776 4.224 3.968 4.224.96 0 1.792-.368 2.432-1.104V154h2.048v-11.264h-2.048v4.176c-.64-.736-1.472-1.104-2.432-1.104zm.256 6.4c-1.2 0-2.176-.976-2.176-2.176 0-1.2.976-2.176 2.176-2.176 1.2 0 2.176.976 2.176 2.176 0 1.2-.976 2.176-2.176 2.176zm13.446-2.176c0-2.656-1.36-4.224-3.84-4.224-2.768 0-4.096 1.888-4.096 4.224 0 2.304 1.36 4.224 4.448 4.224 1.904 0 2.992-.752 2.992-.752l-.592-1.776c-.656.464-1.536.736-2.368.736-1.28 0-2.064-.752-2.352-1.792h5.776c.016-.208.032-.464.032-.64zm-5.76-.896c0-.656.768-1.536 1.792-1.536 1.232 0 1.792.88 1.792 1.536h-3.584zm9.087-1.392v-1.68h-2.048V154h2.048v-3.328c0-1.408.928-2.208 1.792-2.448a3.118 3.118 0 011.536 0v-2.416c-1.44.096-2.8.704-3.328 1.936zm17.142-4.496v7.424l-5.376-7.424h-2.048V154h2.048v-7.424l5.376 7.424h2.048v-10.752h-2.048zm7.803 2.56a4.22 4.22 0 00-4.224 4.224 4.22 4.22 0 004.224 4.224 4.22 4.22 0 004.224-4.224 4.22 4.22 0 00-4.224-4.224zm0 6.4c-1.2 0-2.176-.976-2.176-2.176 0-1.2.976-2.176 2.176-2.176 1.2 0 2.176.976 2.176 2.176 0 1.2-.976 2.176-2.176 2.176zm6.781 2.048c.72 0 1.28-.56 1.28-1.28s-.56-1.28-1.28-1.28-1.28.56-1.28 1.28.56 1.28 1.28 1.28zm12.265-7.424c-.32 0-1.296.032-1.936.512l.288-2.048h4.224v-2.048h-5.888l-1.024 6.4h1.792c.512-.592 1.28-.896 2.176-.896 1.296 0 1.92.816 1.92 1.664 0 1.072-.896 1.792-2.048 1.792-1.344 0-1.952-.736-2.048-1.568l-2.048.16c.128 1.984 1.488 3.456 4.096 3.456 2.352 0 4.096-1.472 4.096-4.016 0-2.128-1.744-3.408-3.6-3.408zm9.367-3.84c-2.528 0-4.224 2.528-4.224 5.632 0 3.104 1.68 5.632 4.224 5.632 2.512 0 4.224-2.528 4.224-5.632 0-3.104-1.712-5.632-4.224-5.632zm0 9.216c-1.2 0-2.176-1.6-2.176-3.584s.976-3.584 2.176-3.584c1.2 0 2.176 1.6 2.176 3.584s-.976 3.584-2.176 3.584zm9.984-9.216c-2.528 0-4.224 2.528-4.224 5.632 0 3.104 1.68 5.632 4.224 5.632 2.512 0 4.224-2.528 4.224-5.632 0-3.104-1.712-5.632-4.224-5.632zm0 9.216c-1.2 0-2.176-1.6-2.176-3.584s.976-3.584 2.176-3.584c1.2 0 2.176 1.6 2.176 3.584s-.976 3.584-2.176 3.584zm9.984-9.216c-2.528 0-4.224 2.528-4.224 5.632 0 3.104 1.68 5.632 4.224 5.632 2.512 0 4.224-2.528 4.224-5.632 0-3.104-1.712-5.632-4.224-5.632zm0 9.216c-1.2 0-2.176-1.6-2.176-3.584s.976-3.584 2.176-3.584c1.2 0 2.176 1.6 2.176 3.584s-.976 3.584-2.176 3.584zm9.985-9.216c-2.528 0-4.224 2.528-4.224 5.632 0 3.104 1.68 5.632 4.224 5.632 2.512 0 4.224-2.528 4.224-5.632 0-3.104-1.712-5.632-4.224-5.632zm0 9.216c-1.2 0-2.176-1.6-2.176-3.584s.976-3.584 2.176-3.584c1.2 0 2.176 1.6 2.176 3.584s-.976 3.584-2.176 3.584zm9.984-9.216c-2.528 0-4.224 2.528-4.224 5.632 0 3.104 1.68 5.632 4.224 5.632 2.512 0 4.224-2.528 4.224-5.632 0-3.104-1.712-5.632-4.224-5.632zm0 9.216c-1.2 0-2.176-1.6-2.176-3.584s.976-3.584 2.176-3.584c1.2 0 2.176 1.6 2.176 3.584s-.976 3.584-2.176 3.584zm9.984-9.216c-2.528 0-4.224 2.528-4.224 5.632 0 3.104 1.68 5.632 4.224 5.632 2.512 0 4.224-2.528 4.224-5.632 0-3.104-1.712-5.632-4.224-5.632zm0 9.216c-1.2 0-2.176-1.6-2.176-3.584s.976-3.584 2.176-3.584c1.2 0 2.176 1.6 2.176 3.584s-.976 3.584-2.176 3.584zm9.985-9.216c-2.528 0-4.224 2.528-4.224 5.632 0 3.104 1.68 5.632 4.224 5.632 2.512 0 4.224-2.528 4.224-5.632 0-3.104-1.712-5.632-4.224-5.632zm0 9.216c-1.2 0-2.176-1.6-2.176-3.584s.976-3.584 2.176-3.584c1.2 0 2.176 1.6 2.176 3.584s-.976 3.584-2.176 3.584zm9.984-9.216c-2.528 0-4.224 2.528-4.224 5.632 0 3.104 1.68 5.632 4.224 5.632 2.512 0 4.224-2.528 4.224-5.632 0-3.104-1.712-5.632-4.224-5.632zm0 9.216c-1.2 0-2.176-1.6-2.176-3.584s.976-3.584 2.176-3.584c1.2 0 2.176 1.6 2.176 3.584s-.976 3.584-2.176 3.584zm9.985-9.216c-2.528 0-4.224 2.528-4.224 5.632 0 3.104 1.68 5.632 4.224 5.632 2.512 0 4.224-2.528 4.224-5.632 0-3.104-1.712-5.632-4.224-5.632zm0 9.216c-1.2 0-2.176-1.6-2.176-3.584s.976-3.584 2.176-3.584c1.2 0 2.176 1.6 2.176 3.584s-.976 3.584-2.176 3.584zm9.984-9.216c-2.528 0-4.224 2.528-4.224 5.632 0 3.104 1.68 5.632 4.224 5.632 2.512 0 4.224-2.528 4.224-5.632 0-3.104-1.712-5.632-4.224-5.632zm0 9.216c-1.2 0-2.176-1.6-2.176-3.584s.976-3.584 2.176-3.584c1.2 0 2.176 1.6 2.176 3.584s-.976 3.584-2.176 3.584zm9.984-9.216c-2.528 0-4.224 2.528-4.224 5.632 0 3.104 1.68 5.632 4.224 5.632 2.512 0 4.224-2.528 4.224-5.632 0-3.104-1.712-5.632-4.224-5.632zm0 9.216c-1.2 0-2.176-1.6-2.176-3.584s.976-3.584 2.176-3.584c1.2 0 2.176 1.6 2.176 3.584s-.976 3.584-2.176 3.584zm9.985-9.216c-2.528 0-4.224 2.528-4.224 5.632 0 3.104 1.68 5.632 4.224 5.632 2.512 0 4.224-2.528 4.224-5.632 0-3.104-1.712-5.632-4.224-5.632zm0 9.216c-1.2 0-2.176-1.6-2.176-3.584s.976-3.584 2.176-3.584c1.2 0 2.176 1.6 2.176 3.584s-.976 3.584-2.176 3.584zm9.984-9.216c-2.528 0-4.224 2.528-4.224 5.632 0 3.104 1.68 5.632 4.224 5.632 2.512 0 4.224-2.528 4.224-5.632 0-3.104-1.712-5.632-4.224-5.632zm0 9.216c-1.2 0-2.176-1.6-2.176-3.584s.976-3.584 2.176-3.584c1.2 0 2.176 1.6 2.176 3.584s-.976 3.584-2.176 3.584zm6.016-8.192v1.92l2.048-.448V154h2.048v-11.008l-4.096 1.024zm250.45-1.768c1.354 0 2.373.325 3.056.976.693.651 1.04 1.52 1.04 2.608 0 .971-.326 1.813-.976 2.528-.651.704-1.52 1.056-2.608 1.056h-2.304V153h-2.048v-10.752h3.84zm.256 5.12c.501 0 .922-.144 1.264-.432.352-.288.528-.656.528-1.104 0-.491-.171-.869-.512-1.136-.331-.267-.758-.4-1.28-.4h-2.048v3.072h2.048zm7.389-3.728c-.267.267-.598.4-.992.4-.395 0-.731-.133-1.008-.4a1.399 1.399 0 01-.4-1.008c0-.395.133-.725.4-.992a1.373 1.373 0 011.008-.416c.394 0 .725.139.992.416.277.267.416.597.416.992s-.139.731-.416 1.008zm-2.016 9.36v-7.936h2.048V153h-2.048zm7.811-1.792c.747 0 1.36-.24 1.84-.72l.848 1.824c-.65.629-1.568.944-2.752.944-1.354 0-2.432-.4-3.232-1.2-.789-.811-1.184-1.819-1.184-3.024s.4-2.208 1.2-3.008c.8-.811 1.872-1.216 3.216-1.216 1.131 0 2.048.315 2.752.944l-.848 1.84c-.49-.491-1.104-.736-1.84-.736s-1.328.208-1.776.624a2.055 2.055 0 00-.656 1.552c0 .619.219 1.136.656 1.552.448.416 1.04.624 1.776.624zm8.06-2.304l4.096 4.096h-2.56l-3.328-3.136V153h-2.048v-11.264h2.048v6.336l3.072-3.008h2.56l-3.84 3.84zm16.628-6.656h2.048V153h-2.048v-4.352h-4.608V153h-2.048v-10.752h2.048v4.352h4.608v-4.352zm6.11 1.392c-.266.267-.597.4-.992.4-.394 0-.73-.133-1.008-.4a1.403 1.403 0 01-.4-1.008c0-.395.134-.725.4-.992a1.376 1.376 0 011.008-.416c.395 0 .726.139.992.416.278.267.416.597.416.992s-.138.731-.416 1.008zm-2.016 9.36v-7.936h2.048V153h-2.048zm7.441-5.056c1.227.192 2.064.507 2.512.944.448.437.672.955.672 1.552 0 .832-.315 1.509-.944 2.032-.619.523-1.467.784-2.544.784-.832 0-1.584-.128-2.256-.384-.661-.256-1.136-.512-1.424-.768l.672-1.92c.341.32.773.587 1.296.8a4.57 4.57 0 001.52.32c1.088.021 1.632-.208 1.632-.688 0-.171-.101-.299-.304-.384-.192-.085-.56-.176-1.104-.272-.715-.117-1.312-.261-1.792-.432-.469-.181-.821-.389-1.056-.624a2.022 2.022 0 01-.48-.752 2.904 2.904 0 01-.128-.912c0-.661.325-1.232.976-1.712s1.483-.72 2.496-.72a6.65 6.65 0 013.088.768l-.576 1.856c-.224-.16-.576-.309-1.056-.448a5.667 5.667 0 00-1.456-.224c-.949-.021-1.424.139-1.424.48 0 .267.32.459.96.576.096.021.251.048.464.08l.256.048zm5.228 2.8v-3.888h-1.024v-1.792h1.024v-2.816h2.048v2.816h1.536v1.792h-1.536v3.328c0 .565.128.917.384 1.056.266.139.65.128 1.152-.032V153c-.427.171-.928.256-1.504.256-.704 0-1.227-.224-1.568-.672-.342-.459-.512-1.072-.512-1.84zm5.973-4.704c.821-.821 1.819-1.232 2.992-1.232s2.171.411 2.992 1.232c.821.821 1.232 1.819 1.232 2.992s-.411 2.171-1.232 2.992c-.821.821-1.819 1.232-2.992 1.232s-2.171-.411-2.992-1.232c-.821-.821-1.232-1.819-1.232-2.992s.411-2.171 1.232-2.992zm1.456 4.528c.427.427.939.64 1.536.64.597 0 1.109-.213 1.536-.64.427-.427.64-.939.64-1.536 0-.597-.213-1.109-.64-1.536a2.095 2.095 0 00-1.536-.64c-.597 0-1.109.213-1.536.64-.427.427-.64.939-.64 1.536 0 .597.213 1.109.64 1.536zm9.091-3.824c.256-.587.683-1.04 1.28-1.36.597-.331 1.28-.523 2.048-.576v2.416a2.88 2.88 0 00-1.536 0 2.497 2.497 0 00-1.264.848c-.352.416-.528.949-.528 1.6V153h-2.048v-7.936h2.048v1.68zm9.978-1.68h2.304l-5.12 12.032h-2.304l2.048-4.672-3.072-7.36h2.304l1.92 4.672 1.92-4.672zM103.448 154h2.304l-4.448-10.752h-1.856L95 154h2.304l.8-2.048h4.544l.8 2.048zm-4.56-4.096l1.488-3.84 1.488 3.84h-2.976zm7.886-7.168V154h2.048v-11.264h-2.048zm3.969 0V154h2.048v-11.264h-2.048zm14.073.256a5.64 5.64 0 00-5.632 5.632 5.64 5.64 0 005.632 5.632 5.64 5.64 0 005.632-5.632 5.64 5.64 0 00-5.632-5.632zm0 9.216a3.578 3.578 0 01-3.584-3.584c0-1.984 1.6-3.584 3.584-3.584s3.584 1.6 3.584 3.584-1.6 3.584-3.584 3.584zm9.209-4.464v-1.68h-2.048V154h2.048v-3.328c0-1.408.928-2.208 1.792-2.448a3.118 3.118 0 011.536 0v-2.416c-1.44.096-2.8.704-3.328 1.936zm8.064-1.936c-2.192 0-3.968 1.888-3.968 4.224 0 2.336 1.776 4.224 3.968 4.224.96 0 1.792-.368 2.432-1.104V154h2.048v-11.264h-2.048v4.176c-.64-.736-1.472-1.104-2.432-1.104zm.256 6.4c-1.2 0-2.176-.976-2.176-2.176 0-1.2.976-2.176 2.176-2.176 1.2 0 2.176.976 2.176 2.176 0 1.2-.976 2.176-2.176 2.176zm13.447-2.176c0-2.656-1.36-4.224-3.84-4.224-2.768 0-4.096 1.888-4.096 4.224 0 2.304 1.36 4.224 4.448 4.224 1.904 0 2.992-.752 2.992-.752l-.592-1.776c-.656.464-1.536.736-2.368.736-1.28 0-2.064-.752-2.352-1.792h5.776c.016-.208.032-.464.032-.64zm-5.76-.896c0-.656.768-1.536 1.792-1.536 1.232 0 1.792.88 1.792 1.536h-3.584zm9.087-1.392v-1.68h-2.048V154h2.048v-3.328c0-1.408.928-2.208 1.792-2.448a3.118 3.118 0 011.536 0v-2.416c-1.44.096-2.8.704-3.328 1.936zm8.33 1.2c-.848-.144-1.68-.224-1.68-.704 0-.336.592-.496 1.424-.48 1.056.016 2.112.384 2.512.672l.576-1.856a6.946 6.946 0 00-3.088-.768c-2.08 0-3.472 1.152-3.472 2.432 0 1.296.496 2.24 3.456 2.72 1.056.176 1.408.304 1.408.656 0 .496-.688.704-1.632.688-.96-.016-2.128-.48-2.816-1.12l-.672 1.92c.4.352 1.792 1.152 3.68 1.152 2.208 0 3.488-1.2 3.488-2.816 0-1.008-.496-2.064-3.184-2.496zM95 155.6h76.145v.8H95v-.8z" fill="#000"/>
  <path d="M189.912 151.825l3.817-3.825-3.817-3.825 1.175-1.175 5 5-5 5-1.175-1.175z" fill="#DBDBDB"/>
  <rect x="1019" y="127" width="285" height="38" rx="3" stroke="#F3F5F6" stroke-width="2"/>
  <path d="M1041.5 148h-.79l-.28-.27a6.471 6.471 0 001.57-4.23 6.5 6.5 0 10-6.5 6.5c1.61 0 3.09-.59 4.23-1.57l.27.28v.79l5 4.99 1.49-1.49-4.99-5zm-6 0c-2.49 0-4.5-2.01-4.5-4.5s2.01-4.5 4.5-4.5 4.5 2.01 4.5 4.5-2.01 4.5-4.5 4.5z" fill="#333"/>
  <path d="M1062.35 145.512c-1.48-.294-2.12-.63-2.12-1.358 0-.84.72-1.33 2.01-1.33 1.18 0 1.93.518 2.42.994l.65-1.218c-1.16-1.078-2.65-1.12-3.04-1.12-2.2 0-3.39 1.204-3.39 2.73 0 1.26.74 2.198 3.36 2.646 1.29.224 2.14.686 2.14 1.442 0 .896-.77 1.47-2.18 1.47-1.11 0-2.18-.518-2.97-1.386l-.67 1.204c.14.168 1.34 1.526 3.61 1.526 2.2 0 3.56-1.232 3.56-2.87 0-1.582-1.14-2.296-3.38-2.73zm10.99 2.156c0-2.184-1.37-3.5-3.15-3.5-2.06 0-3.34 1.554-3.34 3.472 0 1.89 1.17 3.472 3.52 3.472 1.46 0 2.34-.658 2.52-.812l-.44-1.204c-.54.378-1.25.672-2.05.672-1.06 0-1.97-.462-2.18-1.512h5.08c.03-.182.04-.448.04-.588zm-5.12-.644c.03-.658.68-1.512 1.92-1.512 1.27 0 1.8.854 1.83 1.512h-3.75zm11.84-2.744v.98c-.55-.714-1.33-1.092-2.24-1.092-1.96 0-3.36 1.554-3.36 3.472s1.4 3.472 3.36 3.472c.91 0 1.69-.378 2.24-1.092v.98h1.34v-6.72h-1.34zm-2.13 5.488c-1.17 0-2.13-.952-2.13-2.128 0-1.176.96-2.128 2.13-2.128 1.18 0 2.13.952 2.13 2.128 0 1.176-.95 2.128-2.13 2.128zm6.73-4.046v-1.442h-1.34V151h1.34v-2.996c0-1.232.57-1.974 1.46-2.31.42-.154.91-.154 1.23-.056v-1.47c-1.26 0-2.23.588-2.69 1.554zm3.36 1.918c0 1.918 1.33 3.472 3.59 3.472.81 0 1.7-.266 2.24-.77l-.58-1.26c-.42.42-1.01.686-1.65.686-1.25 0-2.25-.966-2.25-2.142 0-1.148 1-2.114 2.25-2.114.64 0 1.23.266 1.65.672l.58-1.246c-.59-.532-1.43-.77-2.24-.77-2.23 0-3.59 1.554-3.59 3.472zm10.73-3.472c-1.05 0-1.71.448-2.1.896v-3.92h-1.34V151h1.34v-3.696c0-1.148 1.04-1.792 1.85-1.792 1.15 0 1.51.658 1.51 1.736V151h1.34v-3.752c0-1.988-.89-3.08-2.6-3.08zm10.22-3.024h-1.34V151h1.34v-.98c.55.714 1.33 1.092 2.24 1.092 1.96 0 3.36-1.554 3.36-3.472s-1.4-3.472-3.36-3.472c-.91 0-1.69.378-2.24 1.092v-4.116zm2.13 8.624c-1.18 0-2.13-.952-2.13-2.128 0-1.176.95-2.128 2.13-2.128 1.17 0 2.13.952 2.13 2.128 0 1.176-.96 2.128-2.13 2.128zm9.48-5.488l-1.97 4.648-1.97-4.648h-1.5l2.71 6.286-1.79 4.018h1.47l4.55-10.304h-1.5zm7.77-1.12c.56 0 1.01-.448 1.01-1.008s-.45-1.008-1.01-1.008-1 .448-1 1.008.44 1.008 1 1.008zm-.67 7.84h1.35v-6.72h-1.35V151zm3.81-2.198c0 1.288.42 2.31 1.7 2.31.38 0 .7-.056.99-.196v-1.358c-.31.154-.75.266-1.08.028-.26-.196-.26-.686-.26-1.162v-2.8h1.34v-1.344h-1.34v-2.688h-1.35v2.688h-.89v1.344h.89v3.178zm10.42-1.134c0-2.184-1.38-3.5-3.15-3.5-2.06 0-3.35 1.554-3.35 3.472 0 1.89 1.18 3.472 3.53 3.472 1.45 0 2.34-.658 2.52-.812l-.45-1.204c-.53.378-1.25.672-2.04.672-1.07 0-1.98-.462-2.19-1.512h5.08a4.4 4.4 0 00.05-.588zm-5.13-.644c.03-.658.69-1.512 1.92-1.512 1.27 0 1.81.854 1.83 1.512h-3.75zm13.95-2.856c-.95 0-1.61.294-2.32 1.064-.41-.7-1.07-1.064-1.94-1.064-1.05 0-1.48.448-1.87.896v-.784h-1.35V151h1.35v-3.696c0-1.148.81-1.792 1.62-1.792.93 0 1.29.658 1.29 1.736V151h1.34v-3.696c0-1.148.82-1.792 1.63-1.792.92 0 1.29.658 1.29 1.736V151h1.34v-3.752c0-1.988-.9-3.08-2.38-3.08zm12.1 0c-1.05 0-1.71.448-2.1.896v-.784h-1.34V151h1.34v-3.696c0-1.148 1.04-1.792 1.85-1.792 1.15 0 1.51.658 1.51 1.736V151h1.34v-3.864c0-1.988-1-2.968-2.6-2.968zm9.54.112v.98c-.54-.714-1.33-1.092-2.24-1.092-1.96 0-3.36 1.554-3.36 3.472s1.4 3.472 3.36 3.472c.91 0 1.7-.378 2.24-1.092v.98h1.35v-6.72h-1.35zm-2.13 5.488c-1.17 0-2.12-.952-2.12-2.128a2.124 2.124 0 114.25 0c0 1.176-.95 2.128-2.13 2.128zm12.87-5.6c-.96 0-1.61.294-2.33 1.064-.4-.7-1.06-1.064-1.93-1.064-1.05 0-1.48.448-1.88.896v-.784h-1.34V151h1.34v-3.696c0-1.148.82-1.792 1.63-1.792.92 0 1.29.658 1.29 1.736V151h1.34v-3.696c0-1.148.81-1.792 1.62-1.792.93 0 1.29.658 1.29 1.736V151h1.35v-3.752c0-1.988-.9-3.08-2.38-3.08zm10.22 3.5c0-2.184-1.38-3.5-3.15-3.5-2.06 0-3.35 1.554-3.35 3.472 0 1.89 1.18 3.472 3.53 3.472 1.45 0 2.34-.658 2.52-.812l-.45-1.204c-.53.378-1.25.672-2.04.672-1.07 0-1.98-.462-2.19-1.512h5.08a4.4 4.4 0 00.05-.588zm-5.13-.644c.03-.658.69-1.512 1.92-1.512 1.27 0 1.81.854 1.83 1.512h-3.75z" fill="#666B73"/>
  <rect x="314.08" y="11.08" width="592.84" height="79.045" rx="6.24" fill="#fff" stroke="#F3F5F6" stroke-width="4.16"/>
  <path d="M360.883 54.763h-1.643l-.582-.562a13.463 13.463 0 003.265-8.799c0-7.468-6.053-13.52-13.521-13.52-7.467 0-13.52 6.052-13.52 13.52s6.053 13.52 13.52 13.52c3.35 0 6.428-1.226 8.799-3.265l.562.583v1.643l10.401 10.38 3.099-3.1-10.38-10.4zm-12.481 0a9.348 9.348 0 01-9.36-9.361c0-5.18 4.181-9.36 9.36-9.36a9.348 9.348 0 019.361 9.36c0 5.18-4.181 9.36-9.361 9.36z" fill="#333"/>
  <path d="M404.262 49.546c2.427.466 4.204 1.136 5.33 2.01 1.126.854 1.689 2.077 1.689 3.67 0 1.746-.67 3.183-2.01 4.31-1.339 1.106-3.135 1.66-5.387 1.66-1.087 0-2.116-.137-3.087-.409-.951-.29-1.747-.65-2.388-1.077-.621-.427-1.078-.767-1.369-1.02a5.45 5.45 0 01-.67-.67l1.398-2.504c1.728 1.922 3.786 2.883 6.174 2.883 1.456 0 2.573-.271 3.349-.815.796-.544 1.194-1.291 1.194-2.242 0-1.476-1.485-2.476-4.455-3-2.583-.447-4.398-1.116-5.446-2.01-1.029-.912-1.544-2.077-1.544-3.494 0-1.65.622-3.01 1.864-4.077 1.243-1.068 2.97-1.602 5.184-1.602 2.543 0 4.65.777 6.319 2.33l-1.339 2.534c-1.418-1.379-3.097-2.068-5.038-2.068-1.34 0-2.379.243-3.117.728-.718.485-1.077 1.165-1.077 2.038 0 .738.34 1.32 1.019 1.748.68.407 1.815.767 3.407 1.077zm22.855 4.485c0 .427-.029.835-.087 1.223h-10.571c.213 1.049.728 1.835 1.543 2.36.835.523 1.835.785 3 .785 1.514 0 2.931-.465 4.252-1.397l.931 2.504c-1.339 1.126-3.087 1.69-5.242 1.69-2.349 0-4.164-.68-5.445-2.04-1.262-1.378-1.893-3.106-1.893-5.183 0-2.058.631-3.776 1.893-5.155 1.281-1.378 2.97-2.067 5.067-2.067 1.903 0 3.465.66 4.689 1.98 1.242 1.32 1.863 3.087 1.863 5.3zm-10.658-1.34h7.804c-.038-.796-.378-1.514-1.019-2.155-.641-.66-1.572-.99-2.796-.99-1.184 0-2.135.33-2.854.99-.718.66-1.096 1.379-1.135 2.155zm24.635-5.707h2.796v13.978h-2.796v-2.038c-1.165 1.514-2.718 2.271-4.659 2.271-2.019 0-3.689-.699-5.009-2.097-1.32-1.398-1.981-3.106-1.981-5.125 0-2.02.661-3.728 1.981-5.126 1.32-1.397 2.99-2.096 5.009-2.096 1.941 0 3.494.757 4.659 2.271v-2.038zm-7.571 10.134c.873.854 1.922 1.281 3.145 1.281s2.262-.427 3.116-1.28c.873-.875 1.31-1.923 1.31-3.146 0-1.223-.437-2.262-1.31-3.116-.854-.874-1.893-1.31-3.116-1.31s-2.272.436-3.145 1.31c-.855.854-1.282 1.893-1.282 3.116s.427 2.271 1.282 3.145zm17.14-7.135a5.354 5.354 0 012.184-2.359c.971-.582 2.107-.873 3.408-.873v3.058c-.816-.253-1.67-.214-2.563.116-2.019.777-3.029 2.378-3.029 4.805v6.232h-2.795V46.984h2.795v3zm9.004 9.145c-1.34-1.379-2.01-3.097-2.01-5.155 0-2.058.68-3.776 2.039-5.155 1.359-1.378 3.164-2.067 5.417-2.067 1.922 0 3.475.534 4.659 1.601l-1.194 2.592c-.971-.932-2.116-1.398-3.436-1.398-1.282 0-2.388.437-3.32 1.31-.913.855-1.369 1.884-1.369 3.088 0 1.223.456 2.271 1.369 3.145.912.874 2.019 1.31 3.32 1.31 1.339 0 2.485-.475 3.436-1.427l1.194 2.621c-1.126 1.068-2.679 1.602-4.659 1.602-2.272 0-4.087-.69-5.446-2.068zm20.306-12.377c1.767 0 3.106.553 4.019 1.66.932 1.087 1.398 2.67 1.398 4.746v7.805h-2.796v-7.805c0-1.184-.243-2.077-.728-2.679-.466-.621-1.272-.932-2.417-.932-.932 0-1.806.35-2.621 1.049-.816.68-1.223 1.572-1.223 2.679v7.688h-2.796V40.46h2.796v8.154c1.087-1.242 2.543-1.863 4.368-1.863zm21.256-6.29v8.561c1.164-1.514 2.718-2.271 4.659-2.271 2.019 0 3.689.699 5.009 2.096 1.32 1.398 1.98 3.107 1.98 5.126s-.66 3.727-1.98 5.125c-1.32 1.398-2.99 2.097-5.009 2.097-1.941 0-3.495-.757-4.659-2.271v2.038h-2.796V40.46h2.796zm1.281 16.657c.874.854 1.922 1.281 3.145 1.281s2.262-.427 3.116-1.28c.874-.875 1.311-1.923 1.311-3.146 0-1.223-.437-2.262-1.311-3.116-.854-.874-1.893-1.31-3.116-1.31s-2.271.436-3.145 1.31c-.854.854-1.281 1.893-1.281 3.116s.427 2.271 1.281 3.145zm22.878-10.134h3.116l-9.465 21.433h-3.058l3.728-8.358-5.65-13.075h3.116l4.107 9.668 4.106-9.668zm17.649-2.942a2.023 2.023 0 01-1.486.612 2.023 2.023 0 01-1.485-.612 2.02 2.02 0 01-.611-1.485c0-.582.203-1.077.611-1.485a2.023 2.023 0 011.485-.612c.583 0 1.078.204 1.486.612.407.408.611.903.611 1.485 0 .582-.204 1.078-.611 1.485zm-2.884 16.92V46.984h2.796v13.978h-2.796zm7.928-4.572v-6.61h-1.863v-2.796h1.863v-5.592h2.796v5.592h2.796v2.795h-2.796v5.825c0 1.34.185 2.145.553 2.417.564.427 1.311.407 2.243-.058v2.824c-.563.272-1.252.408-2.068.408-2.349 0-3.524-1.602-3.524-4.805zm21.66-2.359c0 .427-.029.835-.087 1.223h-10.572c.214 1.049.728 1.835 1.544 2.36.835.523 1.834.785 2.999.785 1.515 0 2.932-.465 4.252-1.397l.932 2.504c-1.34 1.126-3.087 1.69-5.242 1.69-2.349 0-4.164-.68-5.446-2.04-1.262-1.378-1.893-3.106-1.893-5.183 0-2.058.631-3.776 1.893-5.155 1.282-1.378 2.971-2.067 5.067-2.067 1.903 0 3.466.66 4.689 1.98 1.243 1.32 1.864 3.087 1.864 5.3zm-10.659-1.34h7.805c-.039-.796-.379-1.514-1.019-2.155-.641-.66-1.573-.99-2.796-.99-1.184 0-2.136.33-2.854.99-.718.66-1.097 1.379-1.136 2.155zm29.015-5.94c1.553 0 2.767.553 3.64 1.66.874 1.106 1.311 2.688 1.311 4.746v7.805h-2.796v-7.805c0-2.407-.893-3.61-2.679-3.61-.893 0-1.68.34-2.359 1.019-.68.68-1.019 1.582-1.019 2.708v7.688h-2.796v-7.805c0-2.407-.893-3.61-2.679-3.61-.893 0-1.68.34-2.359 1.019-.68.68-1.019 1.582-1.019 2.708v7.688h-2.796V46.984h2.796v1.63a9.72 9.72 0 01.902-.902c.253-.233.641-.447 1.165-.641.544-.214 1.155-.32 1.835-.32 1.825 0 3.165.737 4.019 2.213.738-.796 1.475-1.36 2.213-1.69.757-.349 1.631-.523 2.621-.523zm25.171 0c1.69 0 3.01.524 3.961 1.572.971 1.049 1.456 2.582 1.456 4.602v8.037h-2.796v-7.805c0-1.184-.242-2.077-.728-2.679-.466-.621-1.271-.932-2.417-.932-.932 0-1.805.35-2.621 1.049-.815.68-1.223 1.572-1.223 2.679v7.688h-2.796V46.984h2.796v1.63c1.087-1.242 2.543-1.863 4.368-1.863zm19.849.233h2.796v13.978h-2.796v-2.038c-1.165 1.514-2.718 2.271-4.659 2.271-2.02 0-3.689-.699-5.009-2.097-1.321-1.398-1.981-3.106-1.981-5.125 0-2.02.66-3.728 1.981-5.126 1.32-1.397 2.989-2.096 5.009-2.096 1.941 0 3.494.757 4.659 2.271v-2.038zm-7.572 10.134c.874.854 1.922 1.281 3.146 1.281 1.223 0 2.261-.427 3.116-1.28.873-.875 1.31-1.923 1.31-3.146 0-1.223-.437-2.262-1.31-3.116-.855-.874-1.893-1.31-3.116-1.31-1.224 0-2.272.436-3.146 1.31-.854.854-1.281 1.893-1.281 3.116s.427 2.271 1.281 3.145zm29.897-10.367c1.553 0 2.766.553 3.64 1.66.873 1.106 1.31 2.688 1.31 4.746v7.805h-2.795v-7.805c0-2.407-.893-3.61-2.68-3.61-.893 0-1.679.34-2.359 1.019-.679.68-1.019 1.582-1.019 2.708v7.688h-2.795v-7.805c0-2.407-.894-3.61-2.68-3.61-.893 0-1.679.34-2.359 1.019-.679.68-1.019 1.582-1.019 2.708v7.688h-2.796V46.984h2.796v1.63c.35-.388.651-.689.903-.902.252-.233.641-.447 1.165-.641.543-.214 1.155-.32 1.834-.32 1.825 0 3.165.737 4.019 2.213.738-.796 1.476-1.36 2.214-1.69.757-.349 1.63-.523 2.621-.523zm21.26 7.28c0 .427-.03.835-.088 1.223h-10.571c.213 1.049.728 1.835 1.543 2.36.835.523 1.835.785 3 .785 1.514 0 2.932-.465 4.252-1.397l.932 2.504c-1.34 1.126-3.087 1.69-5.242 1.69-2.35 0-4.165-.68-5.446-2.04-1.262-1.378-1.893-3.106-1.893-5.183 0-2.058.631-3.776 1.893-5.155 1.281-1.378 2.97-2.067 5.067-2.067 1.903 0 3.466.66 4.689 1.98 1.242 1.32 1.864 3.087 1.864 5.3zm-10.659-1.34h7.805c-.039-.796-.379-1.514-1.02-2.155-.64-.66-1.572-.99-2.795-.99-1.185 0-2.136.33-2.854.99-.719.66-1.097 1.379-1.136 2.155z" fill="#666B73"/>
  <path stroke="#004C79" stroke-width="5" d="M1006.5 116.5h309v60h-309z"/>
  <path fill="#004C79" d="M917.96 94.76l1.982-4.59 87.801 37.901-1.982 4.59z"/>
</svg>
