<svg width="1620" height="550" fill="none" xmlns="http://www.w3.org/2000/svg">
  <g filter="url(#ph_search_states__filter0_dd)">
    <path d="M421 67a4 4 0 014-4h440a4 4 0 014 4v32a4 4 0 01-4 4H425a4 4 0 01-4-4V67z" fill="#fff"/>
    <path d="M452.5 85h-.79l-.28-.27A6.471 6.471 0 00453 80.5a6.5 6.5 0 10-6.5 6.5c1.61 0 3.09-.59 4.23-1.57l.27.28v.79l5 4.99 1.49-1.49-4.99-5zm-6 0c-2.49 0-4.5-2.01-4.5-4.5s2.01-4.5 4.5-4.5 4.5 2.01 4.5 4.5-2.01 4.5-4.5 4.5z" fill="#333"/>
    <path d="M473.354 82.512c1.167.224 2.021.546 2.562.966.541.41.812.999.812 1.764 0 .84-.322 1.53-.966 2.072-.644.532-1.507.798-2.59.798a5.48 5.48 0 01-1.484-.196 4.381 4.381 0 01-1.148-.518 7.922 7.922 0 01-.658-.49 2.616 2.616 0 01-.322-.322l.672-1.204c.831.924 1.82 1.386 2.968 1.386.7 0 1.237-.13 1.61-.392.383-.261.574-.62.574-1.078 0-.71-.714-1.19-2.142-1.442-1.241-.215-2.114-.537-2.618-.966-.495-.439-.742-.999-.742-1.68 0-.793.299-1.447.896-1.96.597-.513 1.428-.77 2.492-.77 1.223 0 2.235.373 3.038 1.12l-.644 1.218c-.681-.663-1.489-.994-2.422-.994-.644 0-1.143.117-1.498.35-.345.233-.518.56-.518.98 0 .355.163.635.49.84.327.196.873.369 1.638.518zm10.987 2.156c0 .205-.014.401-.042.588h-5.082c.103.504.35.882.742 1.134.401.252.882.378 1.442.378.728 0 1.409-.224 2.044-.672l.448 1.204c-.644.541-1.484.812-2.52.812-1.129 0-2.002-.327-2.618-.98-.607-.663-.91-1.493-.91-2.492 0-.99.303-1.815.91-2.478.616-.663 1.428-.994 2.436-.994.915 0 1.666.317 2.254.952.597.635.896 1.484.896 2.548zm-5.124-.644h3.752c-.019-.383-.182-.728-.49-1.036-.308-.317-.756-.476-1.344-.476-.569 0-1.027.159-1.372.476-.345.317-.527.663-.546 1.036zm11.843-2.744h1.344V88h-1.344v-.98c-.56.728-1.306 1.092-2.24 1.092-.97 0-1.773-.336-2.408-1.008-.634-.672-.952-1.493-.952-2.464 0-.97.318-1.792.952-2.464.635-.672 1.438-1.008 2.408-1.008.934 0 1.68.364 2.24 1.092v-.98zm-3.64 4.872c.42.41.924.616 1.512.616s1.088-.205 1.498-.616c.42-.42.63-.924.63-1.512s-.21-1.087-.63-1.498c-.41-.42-.91-.63-1.498-.63s-1.092.21-1.512.63c-.41.41-.616.91-.616 1.498s.206 1.092.616 1.512zm8.241-3.43a2.567 2.567 0 011.05-1.134c.466-.28 1.012-.42 1.638-.42v1.47c-.392-.121-.803-.103-1.232.056-.971.373-1.456 1.143-1.456 2.31V88h-1.344v-6.72h1.344v1.442zm4.328 4.396c-.644-.663-.966-1.489-.966-2.478 0-.99.327-1.815.98-2.478.653-.663 1.521-.994 2.604-.994.924 0 1.671.257 2.24.77l-.574 1.246a2.306 2.306 0 00-1.652-.672c-.616 0-1.148.21-1.596.63-.439.41-.658.905-.658 1.484 0 .588.219 1.092.658 1.512.439.42.971.63 1.596.63.644 0 1.195-.229 1.652-.686l.574 1.26c-.541.513-1.288.77-2.24.77-1.092 0-1.965-.331-2.618-.994zm9.762-5.95c.849 0 1.493.266 1.932.798.448.523.672 1.283.672 2.282V88h-1.344v-3.752c0-.57-.117-.999-.35-1.288-.224-.299-.612-.448-1.162-.448-.448 0-.868.168-1.26.504-.392.327-.588.756-.588 1.288V88h-1.344v-9.856h1.344v3.92c.522-.597 1.222-.896 2.1-.896z" fill="#666B73"/>
    <path d="M425 65h440v-4H425v4zm442 2v32h4V67h-4zm-2 34H425v4h440v-4zm-442-2V67h-4v32h4zm2 2a2 2 0 01-2-2h-4a6 6 0 006 6v-4zm442-2a2 2 0 01-2 2v4a6 6 0 006-6h-4zm-2-34a2 2 0 012 2h4a6 6 0 00-6-6v4zm-440-4a6 6 0 00-6 6h4a2 2 0 012-2v-4z" fill="#F3F5F6"/>
  </g>
  <g filter="url(#ph_search_states__filter1_dd)">
    <path d="M421 163a4 4 0 014-4h440a4 4 0 014 4v32a4 4 0 01-4 4H425a4 4 0 01-4-4v-32z" fill="#fff"/>
    <rect x="421" y="159" width="448" height="40" rx="4" fill="#F3F5F6"/>
    <path d="M452.5 181h-.79l-.28-.27a6.471 6.471 0 001.57-4.23 6.5 6.5 0 10-6.5 6.5c1.61 0 3.09-.59 4.23-1.57l.27.28v.79l5 4.99 1.49-1.49-4.99-5zm-6 0c-2.49 0-4.5-2.01-4.5-4.5s2.01-4.5 4.5-4.5 4.5 2.01 4.5 4.5-2.01 4.5-4.5 4.5z" fill="#333"/>
    <path d="M473.354 178.512c1.167.224 2.021.546 2.562.966.541.411.812.999.812 1.764 0 .84-.322 1.531-.966 2.072-.644.532-1.507.798-2.59.798a5.467 5.467 0 01-1.484-.196 4.391 4.391 0 01-1.148-.518 7.922 7.922 0 01-.658-.49 2.616 2.616 0 01-.322-.322l.672-1.204c.831.924 1.82 1.386 2.968 1.386.7 0 1.237-.131 1.61-.392.383-.261.574-.621.574-1.078 0-.709-.714-1.19-2.142-1.442-1.241-.215-2.114-.537-2.618-.966-.495-.439-.742-.999-.742-1.68 0-.793.299-1.447.896-1.96.597-.513 1.428-.77 2.492-.77 1.223 0 2.235.373 3.038 1.12l-.644 1.218c-.681-.663-1.489-.994-2.422-.994-.644 0-1.143.117-1.498.35-.345.233-.518.56-.518.98 0 .355.163.635.49.84.327.196.873.369 1.638.518zm10.987 2.156c0 .205-.014.401-.042.588h-5.082c.103.504.35.882.742 1.134.401.252.882.378 1.442.378.728 0 1.409-.224 2.044-.672l.448 1.204c-.644.541-1.484.812-2.52.812-1.129 0-2.002-.327-2.618-.98-.607-.663-.91-1.493-.91-2.492 0-.989.303-1.815.91-2.478.616-.663 1.428-.994 2.436-.994.915 0 1.666.317 2.254.952.597.635.896 1.484.896 2.548zm-5.124-.644h3.752c-.019-.383-.182-.728-.49-1.036-.308-.317-.756-.476-1.344-.476-.569 0-1.027.159-1.372.476-.345.317-.527.663-.546 1.036zm11.843-2.744h1.344V184h-1.344v-.98c-.56.728-1.306 1.092-2.24 1.092-.97 0-1.773-.336-2.408-1.008-.634-.672-.952-1.493-.952-2.464 0-.971.318-1.792.952-2.464.635-.672 1.438-1.008 2.408-1.008.934 0 1.68.364 2.24 1.092v-.98zm-3.64 4.872c.42.411.924.616 1.512.616s1.088-.205 1.498-.616c.42-.42.63-.924.63-1.512s-.21-1.087-.63-1.498c-.41-.42-.91-.63-1.498-.63s-1.092.21-1.512.63c-.41.411-.616.91-.616 1.498s.206 1.092.616 1.512zm8.241-3.43a2.57 2.57 0 011.05-1.134c.466-.28 1.012-.42 1.638-.42v1.47c-.392-.121-.803-.103-1.232.056-.971.373-1.456 1.143-1.456 2.31V184h-1.344v-6.72h1.344v1.442zm4.328 4.396c-.644-.663-.966-1.489-.966-2.478 0-.989.327-1.815.98-2.478.653-.663 1.521-.994 2.604-.994.924 0 1.671.257 2.24.77l-.574 1.246a2.306 2.306 0 00-1.652-.672c-.616 0-1.148.21-1.596.63-.439.411-.658.905-.658 1.484 0 .588.219 1.092.658 1.512.439.42.971.63 1.596.63.644 0 1.195-.229 1.652-.686l.574 1.26c-.541.513-1.288.77-2.24.77-1.092 0-1.965-.331-2.618-.994zm9.762-5.95c.849 0 1.493.266 1.932.798.448.523.672 1.283.672 2.282V184h-1.344v-3.752c0-.569-.117-.999-.35-1.288-.224-.299-.612-.448-1.162-.448-.448 0-.868.168-1.26.504-.392.327-.588.756-.588 1.288V184h-1.344v-9.856h1.344v3.92c.522-.597 1.222-.896 2.1-.896z" fill="#666B73"/>
    <path d="M425 161h440v-4H425v4zm442 2v32h4v-32h-4zm-2 34H425v4h440v-4zm-442-2v-32h-4v32h4zm2 2a2 2 0 01-2-2h-4a6 6 0 006 6v-4zm442-2a2 2 0 01-2 2v4a6 6 0 006-6h-4zm-2-34a2 2 0 012 2h4a6 6 0 00-6-6v4zm-440-4a6 6 0 00-6 6h4a2 2 0 012-2v-4z" fill="#F3F5F6"/>
  </g>
  <g filter="url(#ph_search_states__filter2_dd)">
    <path d="M421 259a4 4 0 014-4h440a4 4 0 014 4v32a4 4 0 01-4 4H425a4 4 0 01-4-4v-32z" fill="#fff"/>
    <rect x="421" y="255" width="448" height="40" rx="4" fill="#F3F5F6"/>
    <path d="M452.5 277h-.79l-.28-.27a6.471 6.471 0 001.57-4.23 6.5 6.5 0 10-6.5 6.5c1.61 0 3.09-.59 4.23-1.57l.27.28v.79l5 4.99 1.49-1.49-4.99-5zm-6 0c-2.49 0-4.5-2.01-4.5-4.5s2.01-4.5 4.5-4.5 4.5 2.01 4.5 4.5-2.01 4.5-4.5 4.5z" fill="#333"/>
    <path d="M471.352 280h-1.344v-9.408h5.376v1.344h-4.032v2.688h3.36v1.344h-3.36V280zm6.987-8.134a.972.972 0 01-.714.294.972.972 0 01-.714-.294.972.972 0 01-.294-.714c0-.28.098-.518.294-.714a.972.972 0 01.714-.294c.28 0 .518.098.714.294a.972.972 0 01.294.714c0 .28-.098.518-.294.714zM476.953 280v-6.72h1.344V280h-1.344zm6.698-6.832c.812 0 1.447.252 1.904.756.467.504.7 1.241.7 2.212V280h-1.344v-3.752c0-.569-.116-.999-.35-1.288-.224-.299-.611-.448-1.162-.448-.448 0-.868.168-1.26.504-.392.327-.588.756-.588 1.288V280h-1.344v-6.72h1.344v.784c.523-.597 1.223-.896 2.1-.896zm9.542-3.024h1.344V280h-1.344v-.98c-.56.728-1.306 1.092-2.24 1.092-.97 0-1.773-.336-2.408-1.008-.634-.672-.952-1.493-.952-2.464 0-.971.318-1.792.952-2.464.635-.672 1.438-1.008 2.408-1.008.934 0 1.68.364 2.24 1.092v-4.116zm-3.64 8.008c.42.411.924.616 1.512.616s1.088-.205 1.498-.616c.42-.42.63-.924.63-1.512s-.21-1.087-.63-1.498c-.41-.42-.91-.63-1.498-.63s-1.092.21-1.512.63c-.41.411-.616.91-.616 1.498s.206 1.092.616 1.512zm16.642-4.872h1.344V280h-1.344v-.98c-.56.728-1.307 1.092-2.24 1.092-.971 0-1.773-.336-2.408-1.008-.635-.672-.952-1.493-.952-2.464 0-.971.317-1.792.952-2.464.635-.672 1.437-1.008 2.408-1.008.933 0 1.68.364 2.24 1.092v-.98zm-3.64 4.872c.42.411.924.616 1.512.616s1.087-.205 1.498-.616c.42-.42.63-.924.63-1.512s-.21-1.087-.63-1.498c-.411-.42-.91-.63-1.498-.63s-1.092.21-1.512.63c-.411.411-.616.91-.616 1.498s.205 1.092.616 1.512zm10.34-4.984c.812 0 1.447.252 1.904.756.467.504.7 1.241.7 2.212V280h-1.344v-3.752c0-.569-.116-.999-.35-1.288-.224-.299-.611-.448-1.162-.448-.448 0-.868.168-1.26.504-.392.327-.588.756-.588 1.288V280h-1.344v-6.72h1.344v.784c.523-.597 1.223-.896 2.1-.896zm10.261-1.302a.972.972 0 01-.714.294.972.972 0 01-.714-.294.972.972 0 01-.294-.714c0-.28.098-.518.294-.714a.972.972 0 01.714-.294c.28 0 .518.098.714.294a.972.972 0 01.294.714c0 .28-.098.518-.294.714zM521.77 280v-6.72h1.344V280h-1.344zm3.811-2.198v-3.178h-.896v-1.344h.896v-2.688h1.344v2.688h1.344v1.344h-1.344v2.8c0 .644.089 1.031.266 1.162.271.205.63.196 1.078-.028v1.358c-.271.131-.602.196-.994.196-1.129 0-1.694-.77-1.694-2.31zm10.413-1.134c0 .205-.014.401-.042.588h-5.082c.102.504.35.882.742 1.134.401.252.882.378 1.441.378.729 0 1.41-.224 2.045-.672l.448 1.204c-.644.541-1.484.812-2.52.812-1.13 0-2.002-.327-2.618-.98-.607-.663-.91-1.493-.91-2.492 0-.989.303-1.815.91-2.478.616-.663 1.428-.994 2.436-.994.914 0 1.666.317 2.254.952.597.635.896 1.484.896 2.548zm-5.124-.644h3.752c-.019-.383-.182-.728-.49-1.036-.308-.317-.756-.476-1.344-.476-.57 0-1.027.159-1.372.476-.346.317-.528.663-.546 1.036zm13.948-2.856c.747 0 1.33.266 1.75.798.42.532.63 1.293.63 2.282V280h-1.344v-3.752c0-1.157-.429-1.736-1.288-1.736-.429 0-.807.163-1.134.49-.327.327-.49.761-.49 1.302V280h-1.344v-3.752c0-1.157-.429-1.736-1.288-1.736-.429 0-.807.163-1.134.49-.327.327-.49.761-.49 1.302V280h-1.344v-6.72h1.344v.784c.168-.187.313-.331.434-.434.121-.112.308-.215.56-.308.261-.103.555-.154.882-.154.877 0 1.521.355 1.932 1.064.355-.383.709-.653 1.064-.812.364-.168.784-.252 1.26-.252zm10.001-3.024v4.116c.56-.728 1.306-1.092 2.24-1.092.97 0 1.773.336 2.408 1.008.634.672.952 1.493.952 2.464 0 .971-.318 1.792-.952 2.464-.635.672-1.438 1.008-2.408 1.008-.934 0-1.68-.364-2.24-1.092v.98h-1.344v-9.856h1.344zm.616 8.008c.42.411.924.616 1.512.616s1.087-.205 1.498-.616c.42-.42.63-.924.63-1.512s-.21-1.087-.63-1.498c-.411-.42-.91-.63-1.498-.63s-1.092.21-1.512.63c-.411.411-.616.91-.616 1.498s.205 1.092.616 1.512zm10.998-4.872h1.498l-4.55 10.304h-1.47l1.792-4.018-2.716-6.286h1.498l1.974 4.648 1.974-4.648zm10.542-.112c.812 0 1.447.252 1.904.756.467.504.7 1.241.7 2.212V280h-1.344v-3.752c0-.569-.116-.999-.35-1.288-.224-.299-.611-.448-1.162-.448-.448 0-.868.168-1.26.504-.392.327-.588.756-.588 1.288V280h-1.344v-6.72h1.344v.784c.523-.597 1.223-.896 2.1-.896zm9.542.112h1.344V280h-1.344v-.98c-.56.728-1.306 1.092-2.24 1.092-.97 0-1.773-.336-2.408-1.008-.634-.672-.952-1.493-.952-2.464 0-.971.318-1.792.952-2.464.635-.672 1.438-1.008 2.408-1.008.934 0 1.68.364 2.24 1.092v-.98zm-3.64 4.872c.42.411.924.616 1.512.616s1.088-.205 1.498-.616c.42-.42.63-.924.63-1.512s-.21-1.087-.63-1.498c-.41-.42-.91-.63-1.498-.63s-1.092.21-1.512.63c-.41.411-.616.91-.616 1.498s.206 1.092.616 1.512zm14.373-4.984c.746 0 1.33.266 1.75.798.42.532.63 1.293.63 2.282V280h-1.344v-3.752c0-1.157-.43-1.736-1.288-1.736-.43 0-.808.163-1.134.49-.327.327-.49.761-.49 1.302V280h-1.344v-3.752c0-1.157-.43-1.736-1.288-1.736-.43 0-.808.163-1.134.49-.327.327-.49.761-.49 1.302V280h-1.344v-6.72h1.344v.784a4.62 4.62 0 01.434-.434c.121-.112.308-.215.56-.308.261-.103.555-.154.882-.154.877 0 1.521.355 1.932 1.064.354-.383.709-.653 1.064-.812.364-.168.784-.252 1.26-.252zm10.22 3.5c0 .205-.014.401-.042.588h-5.082c.103.504.35.882.742 1.134.401.252.882.378 1.442.378.728 0 1.409-.224 2.044-.672l.448 1.204c-.644.541-1.484.812-2.52.812-1.129 0-2.002-.327-2.618-.98-.607-.663-.91-1.493-.91-2.492 0-.989.303-1.815.91-2.478.616-.663 1.428-.994 2.436-.994.915 0 1.666.317 2.254.952.597.635.896 1.484.896 2.548zm-5.124-.644h3.752c-.019-.383-.182-.728-.49-1.036-.308-.317-.756-.476-1.344-.476-.569 0-1.027.159-1.372.476-.345.317-.527.663-.546 1.036zm11.736-1.834a3.358 3.358 0 012.464-1.022c.961 0 1.778.341 2.45 1.022a3.314 3.314 0 011.022 2.45 3.36 3.36 0 01-1.022 2.464c-.672.672-1.489 1.008-2.45 1.008a3.38 3.38 0 01-2.464-1.008 3.382 3.382 0 01-1.008-2.464c0-.961.336-1.778 1.008-2.45zm.966 3.948c.42.42.919.63 1.498.63.578 0 1.078-.21 1.498-.63.42-.42.63-.919.63-1.498s-.21-1.078-.63-1.498c-.42-.42-.92-.63-1.498-.63-.579 0-1.078.21-1.498.63-.42.42-.63.919-.63 1.498s.21 1.078.63 1.498zm7.665-3.416a2.582 2.582 0 011.05-1.134c.467-.28 1.013-.42 1.638-.42v1.47c-.392-.121-.802-.103-1.232.056-.97.373-1.456 1.143-1.456 2.31V280h-1.344v-6.72h1.344v1.442zm12.19-1.554c.812 0 1.447.252 1.904.756.467.504.7 1.241.7 2.212V280h-1.344v-3.752c0-.569-.116-.999-.35-1.288-.224-.299-.611-.448-1.162-.448-.448 0-.868.168-1.26.504-.392.327-.588.756-.588 1.288V280h-1.344v-6.72h1.344v.784c.523-.597 1.223-.896 2.1-.896zm6.661 6.944c-.812 0-1.452-.252-1.918-.756-.458-.504-.686-1.241-.686-2.212v-3.864h1.344v3.752c0 .569.112 1.003.336 1.302.233.289.625.434 1.176.434.448 0 .868-.163 1.26-.49.392-.336.588-.77.588-1.302v-3.696h1.344V280h-1.344v-.784c-.523.597-1.223.896-2.1.896zm12.82-6.944c.747 0 1.33.266 1.75.798.42.532.63 1.293.63 2.282V280h-1.344v-3.752c0-1.157-.429-1.736-1.288-1.736-.429 0-.807.163-1.134.49-.326.327-.49.761-.49 1.302V280h-1.344v-3.752c0-1.157-.429-1.736-1.288-1.736-.429 0-.807.163-1.134.49-.326.327-.49.761-.49 1.302V280h-1.344v-6.72h1.344v.784c.168-.187.313-.331.434-.434.122-.112.308-.215.56-.308.262-.103.556-.154.882-.154.878 0 1.522.355 1.932 1.064.355-.383.71-.653 1.064-.812.364-.168.784-.252 1.26-.252zm5.407-3.024v4.116c.56-.728 1.307-1.092 2.24-1.092.971 0 1.774.336 2.408 1.008.635.672.952 1.493.952 2.464 0 .971-.317 1.792-.952 2.464-.634.672-1.437 1.008-2.408 1.008-.933 0-1.68-.364-2.24-1.092v.98h-1.344v-9.856h1.344zm.616 8.008c.42.411.924.616 1.512.616s1.088-.205 1.498-.616c.42-.42.63-.924.63-1.512s-.21-1.087-.63-1.498c-.41-.42-.91-.63-1.498-.63s-1.092.21-1.512.63c-.41.411-.616.91-.616 1.498s.206 1.092.616 1.512zm12.606-1.484c0 .205-.014.401-.042.588h-5.082c.103.504.35.882.742 1.134.401.252.882.378 1.442.378.728 0 1.409-.224 2.044-.672l.448 1.204c-.644.541-1.484.812-2.52.812-1.129 0-2.002-.327-2.618-.98-.607-.663-.91-1.493-.91-2.492 0-.989.303-1.815.91-2.478.616-.663 1.428-.994 2.436-.994.915 0 1.666.317 2.254.952.597.635.896 1.484.896 2.548zm-5.124-.644h3.752c-.019-.383-.182-.728-.49-1.036-.308-.317-.756-.476-1.344-.476-.569 0-1.027.159-1.372.476-.345.317-.527.663-.546 1.036zm7.817-1.302a2.57 2.57 0 011.05-1.134c.466-.28 1.012-.42 1.638-.42v1.47c-.392-.121-.803-.103-1.232.056-.971.373-1.456 1.143-1.456 2.31V280h-1.344v-6.72h1.344v1.442z" fill="#666B73"/>
    <path fill="#333" d="M469 267h1v17h-1z"/>
    <path d="M425 257h440v-4H425v4zm442 2v32h4v-32h-4zm-2 34H425v4h440v-4zm-442-2v-32h-4v32h4zm2 2a2 2 0 01-2-2h-4a6 6 0 006 6v-4zm442-2a2 2 0 01-2 2v4a6 6 0 006-6h-4zm-2-34a2 2 0 012 2h4a6 6 0 00-6-6v4zm-440-4a6 6 0 00-6 6h4a2 2 0 012-2v-4z" fill="#F3F5F6"/>
  </g>
  <g filter="url(#ph_search_states__filter3_dd)">
    <path d="M421 355a4 4 0 014-4h440a4 4 0 014 4v32a4 4 0 01-4 4H425a4 4 0 01-4-4v-32z" fill="#fff"/>
    <rect x="421" y="351" width="448" height="40" rx="4" fill="#F3F5F6"/>
    <path d="M852 365.41l-1.41-1.41-5.59 5.59-5.59-5.59-1.41 1.41 5.59 5.59-5.59 5.59 1.41 1.41 5.59-5.59 5.59 5.59 1.41-1.41-5.59-5.59 5.59-5.59zM452.5 373h-.79l-.28-.27a6.471 6.471 0 001.57-4.23 6.5 6.5 0 10-6.5 6.5c1.61 0 3.09-.59 4.23-1.57l.27.28v.79l5 4.99 1.49-1.49-4.99-5zm-6 0c-2.49 0-4.5-2.01-4.5-4.5s2.01-4.5 4.5-4.5 4.5 2.01 4.5 4.5-2.01 4.5-4.5 4.5zm27.876 1.768c.98 0 1.797-.341 2.45-1.022l.574 1.26a4.05 4.05 0 01-1.372.826 4.627 4.627 0 01-1.568.28c-1.353 0-2.511-.471-3.472-1.414-.952-.943-1.428-2.077-1.428-3.402 0-1.325.476-2.459 1.428-3.402.961-.943 2.119-1.414 3.472-1.414.532 0 1.059.093 1.582.28.523.187.975.457 1.358.812l-.574 1.26c-.653-.672-1.47-1.008-2.45-1.008a3.36 3.36 0 00-2.464 1.022c-.672.672-1.008 1.489-1.008 2.45 0 .961.336 1.783 1.008 2.464a3.382 3.382 0 002.464 1.008zm8.031-5.6c.849 0 1.493.266 1.932.798.448.523.672 1.283.672 2.282V376h-1.344v-3.752c0-.569-.117-.999-.35-1.288-.224-.299-.611-.448-1.162-.448-.448 0-.868.168-1.26.504-.392.327-.588.756-.588 1.288V376h-1.344v-9.856h1.344v3.92c.523-.597 1.223-.896 2.1-.896zm5.667-1.302a.972.972 0 01-.714.294.972.972 0 01-.714-.294.972.972 0 01-.294-.714c0-.28.098-.518.294-.714a.972.972 0 01.714-.294c.28 0 .518.098.714.294a.972.972 0 01.294.714c0 .28-.098.518-.294.714zM486.688 376v-6.72h1.344V376h-1.344zm3.662-.882c-.644-.663-.966-1.489-.966-2.478 0-.989.327-1.815.98-2.478.654-.663 1.522-.994 2.604-.994.924 0 1.671.257 2.24.77l-.574 1.246a2.305 2.305 0 00-1.652-.672c-.616 0-1.148.21-1.596.63-.438.411-.658.905-.658 1.484 0 .588.22 1.092.658 1.512.439.42.971.63 1.596.63.644 0 1.195-.229 1.652-.686l.574 1.26c-.541.513-1.288.77-2.24.77-1.092 0-1.964-.331-2.618-.994zm8.892-2.59l3.584 3.472h-1.792l-2.912-2.856V376h-1.344v-9.856h1.344v5.88l2.688-2.744h1.792l-3.36 3.248zm10.406.14c0 .205-.014.401-.042.588h-5.082c.102.504.35.882.742 1.134.401.252.882.378 1.442.378.728 0 1.409-.224 2.044-.672l.448 1.204c-.644.541-1.484.812-2.52.812-1.13 0-2.002-.327-2.618-.98-.607-.663-.91-1.493-.91-2.492 0-.989.303-1.815.91-2.478.616-.663 1.428-.994 2.436-.994.914 0 1.666.317 2.254.952.597.635.896 1.484.896 2.548zm-5.124-.644h3.752c-.019-.383-.182-.728-.49-1.036-.308-.317-.756-.476-1.344-.476-.57 0-1.027.159-1.372.476-.346.317-.528.663-.546 1.036zm9.916-2.856c.812 0 1.447.252 1.904.756.467.504.7 1.241.7 2.212V376H515.7v-3.752c0-.569-.116-.999-.35-1.288-.224-.299-.611-.448-1.162-.448-.448 0-.868.168-1.26.504-.392.327-.588.756-.588 1.288V376h-1.344v-6.72h1.344v.784c.523-.597 1.223-.896 2.1-.896zm12.221 1.344c1.166.224 2.02.546 2.562.966.541.411.812.999.812 1.764 0 .84-.322 1.531-.966 2.072-.644.532-1.508.798-2.59.798a5.462 5.462 0 01-1.484-.196 4.376 4.376 0 01-1.148-.518 7.922 7.922 0 01-.658-.49 2.547 2.547 0 01-.322-.322l.672-1.204c.83.924 1.82 1.386 2.968 1.386.7 0 1.236-.131 1.61-.392.382-.261.574-.621.574-1.078 0-.709-.714-1.19-2.142-1.442-1.242-.215-2.114-.537-2.618-.966-.495-.439-.742-.999-.742-1.68 0-.793.298-1.447.896-1.96.597-.513 1.428-.77 2.492-.77 1.222 0 2.235.373 3.038 1.12l-.644 1.218c-.682-.663-1.489-.994-2.422-.994-.644 0-1.144.117-1.498.35-.346.233-.518.56-.518.98 0 .355.163.635.49.84.326.196.872.369 1.638.518zm5.387 3.29v-3.178h-.896v-1.344h.896v-2.688h1.344v2.688h1.344v1.344h-1.344v2.8c0 .644.088 1.031.266 1.162.27.205.63.196 1.078-.028v1.358c-.271.131-.602.196-.994.196-1.13 0-1.694-.77-1.694-2.31zm5.818-3.08a2.57 2.57 0 011.05-1.134c.466-.28 1.012-.42 1.638-.42v1.47c-.392-.121-.803-.103-1.232.056-.971.373-1.456 1.143-1.456 2.31V376h-1.344v-6.72h1.344v1.442zm5.538-2.856a.972.972 0 01-.714.294.972.972 0 01-.714-.294.972.972 0 01-.294-.714c0-.28.098-.518.294-.714a.972.972 0 01.714-.294c.28 0 .518.098.714.294a.972.972 0 01.294.714c0 .28-.098.518-.294.714zM542.018 376v-6.72h1.344V376h-1.344zm6.838-6.832c.97 0 1.773.336 2.408 1.008.634.672.952 1.493.952 2.464 0 .971-.318 1.792-.952 2.464-.635.672-1.438 1.008-2.408 1.008-.934 0-1.68-.364-2.24-1.092v4.564h-1.344V369.28h1.344v.98c.56-.728 1.306-1.092 2.24-1.092zm-1.624 4.984c.42.411.924.616 1.512.616s1.087-.205 1.498-.616c.42-.42.63-.924.63-1.512s-.21-1.087-.63-1.498c-.411-.42-.91-.63-1.498-.63s-1.092.21-1.512.63c-.411.411-.616.91-.616 1.498s.205 1.092.616 1.512zm9.259-2.296c1.634.317 2.45.999 2.45 2.044 0 .681-.233 1.223-.7 1.624-.466.392-1.129.588-1.988.588-.653 0-1.25-.107-1.792-.322-.532-.215-.905-.425-1.12-.63l.532-1.316c.262.261.616.481 1.064.658.458.168.882.257 1.274.266.42.009.756-.056 1.008-.196s.378-.313.378-.518a.578.578 0 00-.322-.532c-.214-.131-.546-.238-.994-.322-1.045-.187-1.759-.443-2.142-.77-.382-.327-.574-.775-.574-1.344 0-.569.248-1.031.742-1.386.504-.355 1.167-.532 1.988-.532.831 0 1.643.215 2.436.644l-.462 1.26c-.177-.131-.457-.252-.84-.364a3.96 3.96 0 00-1.134-.196 2.828 2.828 0 00-.98.126c-.27.093-.406.247-.406.462 0 .112.033.21.098.294.075.075.182.14.322.196.15.047.29.089.42.126.131.028.304.061.518.098l.224.042z" fill="#333"/>
    <path d="M425 353h440v-4H425v4zm442 2v32h4v-32h-4zm-2 34H425v4h440v-4zm-442-2v-32h-4v32h4zm2 2a2 2 0 01-2-2h-4a6 6 0 006 6v-4zm442-2a2 2 0 01-2 2v4a6 6 0 006-6h-4zm-2-34a2 2 0 012 2h4a6 6 0 00-6-6v4zm-440-4a6 6 0 00-6 6h4a2 2 0 012-2v-4z" fill="#F3F5F6"/>
  </g>
  <g filter="url(#ph_search_states__filter4_dd)">
    <path d="M421 451a4 4 0 014-4h440a4 4 0 014 4v32a4 4 0 01-4 4H425a4 4 0 01-4-4v-32z" fill="#fff"/>
    <path d="M852 461.41l-1.41-1.41-5.59 5.59-5.59-5.59-1.41 1.41 5.59 5.59-5.59 5.59 1.41 1.41 5.59-5.59 5.59 5.59 1.41-1.41-5.59-5.59 5.59-5.59zM452.5 469h-.79l-.28-.27a6.471 6.471 0 001.57-4.23 6.5 6.5 0 10-6.5 6.5c1.61 0 3.09-.59 4.23-1.57l.27.28v.79l5 4.99 1.49-1.49-4.99-5zm-6 0c-2.49 0-4.5-2.01-4.5-4.5s2.01-4.5 4.5-4.5 4.5 2.01 4.5 4.5-2.01 4.5-4.5 4.5zm27.876 1.768c.98 0 1.797-.341 2.45-1.022l.574 1.26a4.05 4.05 0 01-1.372.826 4.627 4.627 0 01-1.568.28c-1.353 0-2.511-.471-3.472-1.414-.952-.943-1.428-2.077-1.428-3.402 0-1.325.476-2.459 1.428-3.402.961-.943 2.119-1.414 3.472-1.414.532 0 1.059.093 1.582.28.523.187.975.457 1.358.812l-.574 1.26c-.653-.672-1.47-1.008-2.45-1.008a3.36 3.36 0 00-2.464 1.022c-.672.672-1.008 1.489-1.008 2.45 0 .961.336 1.783 1.008 2.464a3.382 3.382 0 002.464 1.008zm8.031-5.6c.849 0 1.493.266 1.932.798.448.523.672 1.283.672 2.282V472h-1.344v-3.752c0-.569-.117-.999-.35-1.288-.224-.299-.611-.448-1.162-.448-.448 0-.868.168-1.26.504-.392.327-.588.756-.588 1.288V472h-1.344v-9.856h1.344v3.92c.523-.597 1.223-.896 2.1-.896zm5.667-1.302a.972.972 0 01-.714.294.972.972 0 01-.714-.294.972.972 0 01-.294-.714c0-.28.098-.518.294-.714a.972.972 0 01.714-.294c.28 0 .518.098.714.294a.972.972 0 01.294.714c0 .28-.098.518-.294.714zM486.688 472v-6.72h1.344V472h-1.344zm3.662-.882c-.644-.663-.966-1.489-.966-2.478 0-.989.327-1.815.98-2.478.654-.663 1.522-.994 2.604-.994.924 0 1.671.257 2.24.77l-.574 1.246a2.305 2.305 0 00-1.652-.672c-.616 0-1.148.21-1.596.63-.438.411-.658.905-.658 1.484 0 .588.22 1.092.658 1.512.439.42.971.63 1.596.63.644 0 1.195-.229 1.652-.686l.574 1.26c-.541.513-1.288.77-2.24.77-1.092 0-1.964-.331-2.618-.994zm8.892-2.59l3.584 3.472h-1.792l-2.912-2.856V472h-1.344v-9.856h1.344v5.88l2.688-2.744h1.792l-3.36 3.248zm10.406.14c0 .205-.014.401-.042.588h-5.082c.102.504.35.882.742 1.134.401.252.882.378 1.442.378.728 0 1.409-.224 2.044-.672l.448 1.204c-.644.541-1.484.812-2.52.812-1.13 0-2.002-.327-2.618-.98-.607-.663-.91-1.493-.91-2.492 0-.989.303-1.815.91-2.478.616-.663 1.428-.994 2.436-.994.914 0 1.666.317 2.254.952.597.635.896 1.484.896 2.548zm-5.124-.644h3.752c-.019-.383-.182-.728-.49-1.036-.308-.317-.756-.476-1.344-.476-.57 0-1.027.159-1.372.476-.346.317-.528.663-.546 1.036zm9.916-2.856c.812 0 1.447.252 1.904.756.467.504.7 1.241.7 2.212V472H515.7v-3.752c0-.569-.116-.999-.35-1.288-.224-.299-.611-.448-1.162-.448-.448 0-.868.168-1.26.504-.392.327-.588.756-.588 1.288V472h-1.344v-6.72h1.344v.784c.523-.597 1.223-.896 2.1-.896zm12.221 1.344c1.166.224 2.02.546 2.562.966.541.411.812.999.812 1.764 0 .84-.322 1.531-.966 2.072-.644.532-1.508.798-2.59.798a5.462 5.462 0 01-1.484-.196 4.376 4.376 0 01-1.148-.518 7.922 7.922 0 01-.658-.49 2.547 2.547 0 01-.322-.322l.672-1.204c.83.924 1.82 1.386 2.968 1.386.7 0 1.236-.131 1.61-.392.382-.261.574-.621.574-1.078 0-.709-.714-1.19-2.142-1.442-1.242-.215-2.114-.537-2.618-.966-.495-.439-.742-.999-.742-1.68 0-.793.298-1.447.896-1.96.597-.513 1.428-.77 2.492-.77 1.222 0 2.235.373 3.038 1.12l-.644 1.218c-.682-.663-1.489-.994-2.422-.994-.644 0-1.144.117-1.498.35-.346.233-.518.56-.518.98 0 .355.163.635.49.84.326.196.872.369 1.638.518zm5.387 3.29v-3.178h-.896v-1.344h.896v-2.688h1.344v2.688h1.344v1.344h-1.344v2.8c0 .644.088 1.031.266 1.162.27.205.63.196 1.078-.028v1.358c-.271.131-.602.196-.994.196-1.13 0-1.694-.77-1.694-2.31zm5.818-3.08a2.57 2.57 0 011.05-1.134c.466-.28 1.012-.42 1.638-.42v1.47c-.392-.121-.803-.103-1.232.056-.971.373-1.456 1.143-1.456 2.31V472h-1.344v-6.72h1.344v1.442zm5.538-2.856a.972.972 0 01-.714.294.972.972 0 01-.714-.294.972.972 0 01-.294-.714c0-.28.098-.518.294-.714a.972.972 0 01.714-.294c.28 0 .518.098.714.294a.972.972 0 01.294.714c0 .28-.098.518-.294.714zM542.018 472v-6.72h1.344V472h-1.344zm6.838-6.832c.97 0 1.773.336 2.408 1.008.634.672.952 1.493.952 2.464 0 .971-.318 1.792-.952 2.464-.635.672-1.438 1.008-2.408 1.008-.934 0-1.68-.364-2.24-1.092v4.564h-1.344V465.28h1.344v.98c.56-.728 1.306-1.092 2.24-1.092zm-1.624 4.984c.42.411.924.616 1.512.616s1.087-.205 1.498-.616c.42-.42.63-.924.63-1.512s-.21-1.087-.63-1.498c-.411-.42-.91-.63-1.498-.63s-1.092.21-1.512.63c-.411.411-.616.91-.616 1.498s.205 1.092.616 1.512zm9.259-2.296c1.634.317 2.45.999 2.45 2.044 0 .681-.233 1.223-.7 1.624-.466.392-1.129.588-1.988.588-.653 0-1.25-.107-1.792-.322-.532-.215-.905-.425-1.12-.63l.532-1.316c.262.261.616.481 1.064.658.458.168.882.257 1.274.266.42.009.756-.056 1.008-.196s.378-.313.378-.518a.578.578 0 00-.322-.532c-.214-.131-.546-.238-.994-.322-1.045-.187-1.759-.443-2.142-.77-.382-.327-.574-.775-.574-1.344 0-.569.248-1.031.742-1.386.504-.355 1.167-.532 1.988-.532.831 0 1.643.215 2.436.644l-.462 1.26c-.177-.131-.457-.252-.84-.364a3.96 3.96 0 00-1.134-.196 2.828 2.828 0 00-.98.126c-.27.093-.406.247-.406.462 0 .112.033.21.098.294.075.075.182.14.322.196.15.047.29.089.42.126.131.028.304.061.518.098l.224.042z" fill="#333"/>
    <path d="M425 449h440v-4H425v4zm442 2v32h4v-32h-4zm-2 34H425v4h440v-4zm-442-2v-32h-4v32h4zm2 2a2 2 0 01-2-2h-4a6 6 0 006 6v-4zm442-2a2 2 0 01-2 2v4a6 6 0 006-6h-4zm-2-34a2 2 0 012 2h4a6 6 0 00-6-6v4zm-440-4a6 6 0 00-6 6h4a2 2 0 012-2v-4z" fill="#F3F5F6"/>
  </g>
  <g filter="url(#ph_search_states__filter5_dd)">
    <g clip-path="url(#ph_search_states__clip0)">
      <g filter="url(#ph_search_states__filter6_dd)">
        <rect x="1071" y="11" width="371.983" height="528" rx="3.074" fill="#fff"/>
      </g>
      <path d="M1208.94 267.527h1.96v10.329h-1.96l-5.17-7.132v7.132h-1.97v-10.329h1.97l5.17 7.132v-7.132zm4.62 3.642c.79-.789 1.75-1.183 2.87-1.183 1.13 0 2.09.394 2.88 1.183.79.79 1.18 1.748 1.18 2.875s-.39 2.085-1.18 2.874c-.79.789-1.75 1.184-2.88 1.184-1.12 0-2.08-.395-2.87-1.184-.79-.789-1.19-1.747-1.19-2.874s.4-2.085 1.19-2.875zm1.4 4.351c.41.409.9.614 1.47.614.58 0 1.07-.205 1.48-.614.41-.41.61-.902.61-1.476s-.2-1.066-.61-1.476c-.41-.41-.9-.615-1.48-.615-.57 0-1.06.205-1.47.615-.41.41-.62.902-.62 1.476s.21 1.066.62 1.476zm13.61-6.656c-.26.256-.58.384-.95.384-.38 0-.71-.128-.97-.384a1.336 1.336 0 01-.39-.969c0-.379.13-.696.39-.953.26-.266.59-.399.97-.399.37 0 .69.133.95.399.26.257.4.574.4.953 0 .38-.14.702-.4.969zm-1.94 8.992v-7.624h1.97v7.624h-1.97zm4.43-2.167v-3.736h-.99v-1.721h.99v-2.705h1.96v2.705h1.48v1.721h-1.48v3.198c0 .543.13.881.37 1.014.26.133.63.123 1.11-.031v1.722c-.41.164-.89.246-1.45.246-.67 0-1.17-.215-1.5-.646-.33-.44-.49-1.03-.49-1.767zm12.18-1.645c0 .143-.01.348-.03.615h-5.55c.14.522.4.943.78 1.26.39.308.88.461 1.48.461.85 0 1.6-.235 2.27-.707l.57 1.706c-.08.052-.2.118-.35.2-.15.082-.47.19-.97.323-.49.133-1.01.2-1.56.2-1.41 0-2.47-.379-3.19-1.138-.72-.758-1.08-1.731-1.08-2.92 0-1.189.34-2.162 1.02-2.921.67-.758 1.65-1.137 2.92-1.137 1.19 0 2.1.359 2.73 1.076.64.707.96 1.701.96 2.982zm-5.54-.861h3.45c0-.369-.16-.707-.47-1.014-.29-.308-.71-.462-1.26-.462-.46 0-.86.164-1.21.492-.34.318-.51.646-.51.984zm15.13-3.197c.9 0 1.62.297 2.15.891.53.585.8 1.435.8 2.552v4.427h-1.97v-4.181c0-.605-.09-1.04-.28-1.307-.17-.276-.49-.415-.95-.415-.98 0-1.47.656-1.47 1.968v3.935h-1.97v-4.181c0-.594-.1-1.03-.29-1.307-.2-.276-.51-.415-.94-.415-.99 0-1.48.656-1.48 1.968v3.935h-1.97v-7.624h1.97v.738c.52-.656 1.18-.984 1.97-.984.96 0 1.68.343 2.14 1.03.61-.687 1.37-1.03 2.29-1.03zm8 3.013c1.18.184 1.98.486 2.41.907.43.42.65.917.65 1.491 0 .799-.3 1.45-.91 1.952-.59.502-1.41.753-2.44.753-.8 0-1.52-.123-2.17-.369-.64-.246-1.09-.492-1.37-.738l.65-1.844c.33.307.74.563 1.24.768.52.195 1 .297 1.46.308 1.05.02 1.57-.2 1.57-.661 0-.164-.1-.287-.29-.369-.19-.082-.54-.169-1.06-.262-.69-.112-1.26-.251-1.72-.415-.45-.174-.79-.374-1.02-.599-.22-.236-.38-.477-.46-.723a2.84 2.84 0 01-.12-.876c0-.635.31-1.183.94-1.644.62-.462 1.42-.692 2.39-.692 1.03 0 2.02.246 2.97.738l-.55 1.783c-.22-.154-.56-.297-1.02-.431a5.39 5.39 0 00-1.4-.215c-.91-.02-1.36.133-1.36.461 0 .257.3.441.92.554.09.02.24.046.44.077l.25.046zm8.71-2.767h.98c.02-2.296.84-3.443 2.46-3.443.43 0 .84.082 1.23.246v1.721a3.266 3.266 0 00-.65-.077c-.17-.01-.32-.005-.44.016a.526.526 0 00-.31.153c-.08.082-.14.159-.18.231a.8.8 0 00-.1.323c-.02.154-.03.282-.04.384v.446h1.72v1.721h-1.72v5.903h-1.97v-5.903h-.98v-1.721zm6.58.937c.79-.789 1.75-1.183 2.88-1.183s2.08.394 2.87 1.183c.79.79 1.19 1.748 1.19 2.875s-.4 2.085-1.19 2.874c-.79.789-1.74 1.184-2.87 1.184-1.13 0-2.09-.395-2.88-1.184-.79-.789-1.18-1.747-1.18-2.874s.39-2.085 1.18-2.875zm1.4 4.351c.41.409.9.614 1.48.614.57 0 1.06-.205 1.47-.614.41-.41.62-.902.62-1.476s-.21-1.066-.62-1.476c-.41-.41-.9-.615-1.47-.615-.58 0-1.07.205-1.48.615-.41.41-.61.902-.61 1.476s.2 1.066.61 1.476zm9.38 2.582c-.89 0-1.59-.292-2.1-.876-.51-.584-.76-1.44-.76-2.567v-4.427h1.97v4.181c0 .594.12 1.03.35 1.306.25.277.62.415 1.13.415.49 0 .9-.164 1.23-.491.32-.328.49-.82.49-1.476v-3.935h1.96v7.624h-1.96v-.738c-.56.656-1.32.984-2.31.984zm10.4-8.116c.89 0 1.59.292 2.09.876.51.584.77 1.44.77 2.567v4.427h-1.97v-4.181c0-.594-.12-1.03-.35-1.307-.24-.276-.61-.415-1.13-.415-.49 0-.9.164-1.23.492-.32.328-.49.82-.49 1.476v3.935h-1.97v-7.624h1.97v.738c.56-.656 1.32-.984 2.31-.984zm7.9 0c.94 0 1.72.353 2.34 1.061v-4.012h1.97v10.821h-1.97v-.815c-.62.707-1.4 1.061-2.34 1.061-1.05 0-1.96-.395-2.7-1.184-.74-.799-1.11-1.757-1.11-2.874 0-1.117.37-2.07 1.11-2.859.74-.799 1.65-1.199 2.7-1.199zm-1.23 5.534c.41.409.9.614 1.48.614.57 0 1.06-.205 1.47-.614.41-.41.62-.902.62-1.476s-.21-1.066-.62-1.476c-.41-.41-.9-.615-1.47-.615-.58 0-1.07.205-1.48.615-.41.41-.61.902-.61 1.476s.2 1.066.61 1.476z" fill="#4C4C4C"/>
      <rect x="1085.22" y="25.218" width="343.546" height="27.668" rx="2.69" fill="#fff" stroke="#F3F5F6" stroke-width=".769"/>
      <rect x="1084.83" y="24.834" width="344.314" height="28.437" rx="3.074" fill="#F3F5F6"/>
      <path d="M1416.08 35.14l-1.08-1.083-4.3 4.296-4.29-4.296-1.09 1.083 4.3 4.297-4.3 4.296 1.09 1.084 4.29-4.297 4.3 4.296 1.08-1.083-4.29-4.296 4.29-4.297zm-307.04 5.834h-.6l-.22-.208a4.993 4.993 0 001.21-3.25c0-2.76-2.24-4.996-5-4.996a4.99 4.99 0 00-4.99 4.995 4.99 4.99 0 008.24 3.79l.21.214v.608l3.84 3.835 1.15-1.146-3.84-3.842zm-4.61 0a3.458 3.458 0 110-6.917 3.45 3.45 0 013.46 3.458 3.451 3.451 0 01-3.46 3.459zm21.43 1.367c.75 0 1.38-.262 1.88-.785l.44.968c-.29.273-.64.484-1.05.635-.41.143-.81.215-1.21.215a3.68 3.68 0 01-2.67-1.087 3.546 3.546 0 01-1.09-2.614c0-1.019.36-1.89 1.09-2.615a3.68 3.68 0 012.67-1.087c.41 0 .82.072 1.22.216.4.143.75.351 1.04.624l-.44.968c-.5-.516-1.13-.775-1.88-.775-.74 0-1.37.262-1.9.786a2.584 2.584 0 00-.77 1.883c0 .739.26 1.37.77 1.893a2.62 2.62 0 001.9.775zm6.17-4.304c.65 0 1.15.205 1.48.614.35.401.52.986.52 1.753v2.884H1133v-2.883c0-.438-.09-.768-.27-.99-.17-.23-.47-.345-.89-.345-.35 0-.67.13-.97.388-.3.25-.45.58-.45.99v2.84h-1.04v-7.575h1.04v3.013c.4-.46.93-.689 1.61-.689zm4.35-1a.735.735 0 01-.54.226c-.22 0-.4-.076-.55-.226a.753.753 0 01-.23-.55c0-.214.08-.397.23-.548.15-.15.33-.226.55-.226.21 0 .39.075.54.226.15.15.23.334.23.549 0 .215-.08.398-.23.549zm-1.06 6.251v-5.165h1.03v5.165h-1.03zm2.81-.678c-.49-.51-.74-1.144-.74-1.904s.25-1.396.75-1.905c.51-.51 1.17-.764 2.01-.764.71 0 1.28.198 1.72.592l-.44.958a1.789 1.789 0 00-1.27-.517c-.48 0-.89.162-1.23.484a1.5 1.5 0 00-.51 1.141c0 .452.17.84.51 1.162.34.323.75.484 1.23.484.49 0 .92-.175 1.27-.527l.44.968c-.42.395-.99.592-1.72.592-.84 0-1.51-.255-2.02-.764zm6.84-1.99l2.75 2.668h-1.38l-2.23-2.195v2.195h-1.04v-7.575h1.04v4.52l2.06-2.11h1.38l-2.58 2.497zm8 .107c0 .158-.02.309-.04.452h-3.9c.08.387.27.678.57.872.31.193.68.29 1.11.29.56 0 1.08-.172 1.57-.516l.34.925c-.49.416-1.14.624-1.94.624-.86 0-1.53-.25-2.01-.753-.46-.51-.7-1.148-.7-1.915 0-.76.24-1.396.7-1.905.48-.51 1.1-.764 1.87-.764.71 0 1.28.244 1.74.732.46.488.69 1.14.69 1.958zm-3.94-.495h2.88c-.01-.294-.14-.56-.38-.796-.23-.244-.58-.366-1.03-.366-.44 0-.79.122-1.05.366-.27.244-.41.51-.42.796zm7.62-2.195c.62 0 1.11.194 1.46.581.36.388.54.954.54 1.7v2.97h-1.03v-2.883c0-.438-.09-.768-.27-.99-.17-.23-.47-.345-.9-.345-.34 0-.66.13-.96.388-.3.25-.46.58-.46.99v2.84H1154v-5.165h1.03v.603c.41-.46.94-.689 1.62-.689zm9.39 1.033c.9.172 1.55.42 1.97.743.42.315.62.767.62 1.355 0 .646-.24 1.177-.74 1.593-.49.409-1.16.613-1.99.613-.4 0-.78-.05-1.14-.15-.35-.108-.65-.24-.88-.399-.23-.157-.4-.283-.51-.376a2.046 2.046 0 01-.25-.248l.52-.925c.64.71 1.4 1.065 2.28 1.065.54 0 .95-.1 1.24-.301.29-.2.44-.477.44-.829 0-.545-.55-.914-1.65-1.108-.95-.165-1.62-.412-2.01-.742a1.649 1.649 0 01-.57-1.291c0-.61.23-1.112.69-1.507.46-.394 1.1-.592 1.92-.592.94 0 1.71.287 2.33.861l-.49.936c-.53-.509-1.15-.764-1.87-.764-.49 0-.87.09-1.15.27a.862.862 0 00-.39.752c0 .273.12.488.37.646.25.15.67.284 1.26.398zm4.14 2.529v-2.443h-.69v-1.033h.69v-2.066h1.03v2.066h1.04v1.033h-1.04v2.152c0 .495.07.793.21.893.21.158.48.151.83-.021v1.044c-.21.1-.47.15-.77.15-.86 0-1.3-.592-1.3-1.775zm4.47-2.367c.18-.373.45-.664.81-.872.36-.215.78-.323 1.26-.323v1.13a1.45 1.45 0 00-.95.043c-.74.287-1.12.879-1.12 1.776v2.302h-1.03v-5.165h1.03v1.109zm4.26-2.195a.741.741 0 01-.55.226c-.22 0-.4-.076-.55-.226a.744.744 0 01-.22-.55c0-.214.07-.397.22-.548.15-.15.33-.226.55-.226.22 0 .4.075.55.226.15.15.22.334.22.549 0 .215-.07.398-.22.549zm-1.07 6.251v-5.165h1.04v5.165h-1.04zm5.26-5.25c.74 0 1.36.258 1.85.774.49.517.73 1.148.73 1.894s-.24 1.377-.73 1.893c-.49.517-1.11.775-1.85.775-.72 0-1.29-.28-1.72-.84v3.509h-1.04v-7.92h1.04v.754c.43-.56 1-.84 1.72-.84zm-1.25 3.83c.32.315.71.473 1.16.473.45 0 .84-.158 1.15-.473.33-.323.49-.71.49-1.162 0-.452-.16-.836-.49-1.152-.31-.322-.7-.484-1.15-.484-.45 0-.84.162-1.16.484-.31.316-.47.7-.47 1.152 0 .452.16.839.47 1.162zm7.12-1.765c1.25.244 1.88.768 1.88 1.571 0 .524-.18.94-.54 1.248-.36.302-.87.452-1.53.452-.5 0-.96-.082-1.37-.247-.41-.165-.7-.327-.86-.485l.41-1.01c.2.2.47.369.81.505.35.129.68.197.98.204.32.007.58-.043.78-.15.19-.108.29-.24.29-.399 0-.179-.09-.315-.25-.408-.17-.1-.42-.183-.76-.248-.81-.143-1.36-.34-1.65-.592-.29-.25-.44-.595-.44-1.033 0-.437.19-.792.57-1.065.39-.272.9-.409 1.53-.409.64 0 1.26.165 1.87.495l-.36.969c-.13-.1-.35-.194-.64-.28a3.079 3.079 0 00-.87-.15c-.3-.008-.55.024-.76.096-.2.072-.31.19-.31.355 0 .086.03.162.08.226.05.058.14.108.24.15.12.037.23.069.33.098.1.021.23.046.4.075l.17.032z" fill="#333"/>
    </g>
  </g>
  <path d="M309.2 72.872c2.592 0 4.608.76 6.048 2.28 1.456 1.52 2.184 3.448 2.184 5.784 0 2.32-.736 4.248-2.208 5.784-1.472 1.52-3.48 2.28-6.024 2.28h-4.824V72.872h4.824zm.6 13.824c1.552 0 2.824-.552 3.816-1.656 1.008-1.12 1.512-2.488 1.512-4.104s-.504-2.976-1.512-4.08c-.992-1.12-2.264-1.68-3.816-1.68h-3.12v11.52h3.12zm20.694-3.408c0 .352-.024.688-.072 1.008h-8.712c.176.864.6 1.512 1.272 1.944.688.432 1.512.648 2.472.648 1.248 0 2.416-.384 3.504-1.152l.768 2.064c-1.104.928-2.544 1.392-4.32 1.392-1.936 0-3.432-.56-4.488-1.68-1.04-1.136-1.56-2.56-1.56-4.272 0-1.696.52-3.112 1.56-4.248 1.056-1.136 2.448-1.704 4.176-1.704 1.568 0 2.856.544 3.864 1.632 1.024 1.088 1.536 2.544 1.536 4.368zm-8.784-1.104h6.432c-.032-.656-.312-1.248-.84-1.776-.528-.544-1.296-.816-2.304-.816-.976 0-1.76.272-2.352.816-.592.544-.904 1.136-.936 1.776zm10.328-4.704h1.536v-1.392c0-1.36.32-2.392.96-3.096.64-.72 1.488-1.08 2.544-1.08.576 0 1.072.128 1.488.384v2.256a2.029 2.029 0 00-1.152-.336c-1.024 0-1.536.648-1.536 1.944v1.32h2.688v2.304h-2.688V89h-2.304v-9.216h-1.536V77.48zm17.663 0h2.304V89h-2.304v-1.68c-.96 1.248-2.24 1.872-3.84 1.872-1.664 0-3.04-.576-4.128-1.728-1.088-1.152-1.632-2.56-1.632-4.224 0-1.664.544-3.072 1.632-4.224 1.088-1.152 2.464-1.728 4.128-1.728 1.6 0 2.88.624 3.84 1.872v-1.68zm-6.24 8.352a3.576 3.576 0 002.592 1.056c1.008 0 1.864-.352 2.568-1.056.72-.72 1.08-1.584 1.08-2.592s-.36-1.864-1.08-2.568a3.457 3.457 0 00-2.568-1.08c-1.008 0-1.872.36-2.592 1.08-.704.704-1.056 1.56-1.056 2.568s.352 1.872 1.056 2.592zm15.902 3.36c-1.392 0-2.488-.432-3.288-1.296-.784-.864-1.176-2.128-1.176-3.792V77.48h2.304v6.432c0 .976.192 1.72.576 2.232.4.496 1.072.744 2.016.744.768 0 1.488-.28 2.16-.84.672-.576 1.008-1.32 1.008-2.232V77.48h2.304V89h-2.304v-1.344c-.896 1.024-2.096 1.536-3.6 1.536zm9.162-17.088h2.304V89h-2.304V72.104zm6.534 13.128v-5.448h-1.536V77.48h1.536v-4.608h2.304v4.608h2.304v2.304h-2.304v4.8c0 1.104.152 1.768.456 1.992.464.352 1.08.336 1.848-.048v2.328c-.464.224-1.032.336-1.704.336-1.936 0-2.904-1.32-2.904-3.96zm-44.995 83.64h2.304V185h-2.304v-6.912h-7.68V185h-2.304v-16.128h2.304v6.912h7.68v-6.912zm6.726 6.168c1.168-1.168 2.576-1.752 4.224-1.752 1.648 0 3.048.584 4.2 1.752 1.168 1.152 1.752 2.552 1.752 4.2 0 1.648-.584 3.056-1.752 4.224-1.152 1.152-2.552 1.728-4.2 1.728-1.648 0-3.056-.576-4.224-1.728-1.152-1.168-1.728-2.576-1.728-4.224 0-1.648.576-3.048 1.728-4.2zm1.656 6.768c.72.72 1.576 1.08 2.568 1.08s1.848-.36 2.568-1.08c.72-.72 1.08-1.576 1.08-2.568s-.36-1.848-1.08-2.568c-.72-.72-1.576-1.08-2.568-1.08s-1.848.36-2.568 1.08c-.72.72-1.08 1.576-1.08 2.568s.36 1.848 1.08 2.568zm14.869 3.576l-5.568-11.904h2.496l3.072 6.72 3.072-6.72h2.496l-5.568 11.904zm17.492-6.096c0 .352-.024.688-.072 1.008h-8.712c.176.864.6 1.512 1.272 1.944.688.432 1.512.648 2.472.648 1.248 0 2.416-.384 3.504-1.152l.768 2.064c-1.104.928-2.544 1.392-4.32 1.392-1.936 0-3.432-.56-4.488-1.68-1.04-1.136-1.56-2.56-1.56-4.272 0-1.696.52-3.112 1.56-4.248 1.056-1.136 2.448-1.704 4.176-1.704 1.568 0 2.856.544 3.864 1.632 1.024 1.088 1.536 2.544 1.536 4.368zm-8.784-1.104h6.432c-.032-.656-.312-1.248-.84-1.776-.528-.544-1.296-.816-2.304-.816-.976 0-1.76.272-2.352.816-.592.544-.904 1.136-.936 1.776zm13.4-2.232c.4-.832 1-1.48 1.8-1.944.8-.48 1.736-.72 2.808-.72v2.52c-.672-.208-1.376-.176-2.112.096-1.664.64-2.496 1.96-2.496 3.96V185h-2.304v-11.52h2.304v2.472zM328.548 281l-1.56-3.456h-7.248L318.18 281h-2.496l7.68-16.512 7.68 16.512h-2.496zm-7.752-5.76h5.136l-2.568-5.664-2.568 5.664zm12.687 4.248c-1.104-1.136-1.656-2.552-1.656-4.248 0-1.696.56-3.112 1.68-4.248 1.12-1.136 2.608-1.704 4.464-1.704 1.584 0 2.864.44 3.84 1.32l-.984 2.136c-.8-.768-1.744-1.152-2.832-1.152-1.056 0-1.968.36-2.736 1.08-.752.704-1.128 1.552-1.128 2.544 0 1.008.376 1.872 1.128 2.592.752.72 1.664 1.08 2.736 1.08 1.104 0 2.048-.392 2.832-1.176l.984 2.16c-.928.88-2.208 1.32-3.84 1.32-1.872 0-3.368-.568-4.488-1.704zm11.786-2.256v-5.448h-1.536v-2.304h1.536v-4.608h2.304v4.608h2.304v2.304h-2.304v4.8c0 1.104.152 1.768.456 1.992.464.352 1.08.336 1.848-.048v2.328c-.464.224-1.032.336-1.704.336-1.936 0-2.904-1.32-2.904-3.96zm10.046-10.176a1.666 1.666 0 01-1.224.504c-.48 0-.888-.168-1.224-.504a1.666 1.666 0 01-.504-1.224c0-.48.168-.888.504-1.224a1.666 1.666 0 011.224-.504c.48 0 .888.168 1.224.504.336.336.504.744.504 1.224s-.168.888-.504 1.224zM352.939 281v-11.52h2.304V281h-2.304zm9.61.384l-5.568-11.904h2.496l3.072 6.72 3.072-6.72h2.496l-5.568 11.904zm17.492-6.096c0 .352-.024.688-.072 1.008h-8.712c.176.864.6 1.512 1.272 1.944.688.432 1.512.648 2.472.648 1.248 0 2.416-.384 3.504-1.152l.768 2.064c-1.104.928-2.544 1.392-4.32 1.392-1.936 0-3.432-.56-4.488-1.68-1.04-1.136-1.56-2.56-1.56-4.272 0-1.696.52-3.112 1.56-4.248 1.056-1.136 2.448-1.704 4.176-1.704 1.568 0 2.856.544 3.864 1.632 1.024 1.088 1.536 2.544 1.536 4.368zm-8.784-1.104h6.432c-.032-.656-.312-1.248-.84-1.776-.528-.544-1.296-.816-2.304-.816-.976 0-1.76.272-2.352.816-.592.544-.904 1.136-.936 1.776zM212.579 377l-1.56-3.456h-7.248l-1.56 3.456h-2.496l7.68-16.512 7.68 16.512h-2.496zm-7.752-5.76h5.136l-2.568-5.664-2.568 5.664zm12.687 4.248c-1.104-1.136-1.656-2.552-1.656-4.248 0-1.696.56-3.112 1.68-4.248 1.12-1.136 2.608-1.704 4.464-1.704 1.584 0 2.864.44 3.84 1.32l-.984 2.136c-.8-.768-1.744-1.152-2.832-1.152-1.056 0-1.968.36-2.736 1.08-.752.704-1.128 1.552-1.128 2.544 0 1.008.376 1.872 1.128 2.592.752.72 1.664 1.08 2.736 1.08 1.104 0 2.048-.392 2.832-1.176l.984 2.16c-.928.88-2.208 1.32-3.84 1.32-1.872 0-3.368-.568-4.488-1.704zm11.787-2.256v-5.448h-1.536v-2.304h1.536v-4.608h2.304v4.608h2.304v2.304h-2.304v4.8c0 1.104.152 1.768.456 1.992.464.352 1.08.336 1.848-.048v2.328c-.464.224-1.032.336-1.704.336-1.936 0-2.904-1.32-2.904-3.96zm10.045-10.176a1.666 1.666 0 01-1.224.504c-.48 0-.888-.168-1.224-.504a1.666 1.666 0 01-.504-1.224c0-.48.168-.888.504-1.224a1.666 1.666 0 011.224-.504c.48 0 .888.168 1.224.504.336.336.504.744.504 1.224s-.168.888-.504 1.224zM236.97 377v-11.52h2.304V377h-2.304zm9.61.384l-5.568-11.904h2.496l3.072 6.72 3.072-6.72h2.496l-5.568 11.904zm17.493-6.096c0 .352-.024.688-.072 1.008h-8.712c.176.864.6 1.512 1.272 1.944.688.432 1.512.648 2.472.648 1.248 0 2.416-.384 3.504-1.152l.768 2.064c-1.104.928-2.544 1.392-4.32 1.392-1.936 0-3.432-.56-4.488-1.68-1.04-1.136-1.56-2.56-1.56-4.272 0-1.696.52-3.112 1.56-4.248 1.056-1.136 2.448-1.704 4.176-1.704 1.568 0 2.856.544 3.864 1.632 1.024 1.088 1.536 2.544 1.536 4.368zm-8.784-1.104h6.432c-.032-.656-.312-1.248-.84-1.776-.528-.544-1.296-.816-2.304-.816-.976 0-1.76.272-2.352.816-.592.544-.904 1.136-.936 1.776zm32.598-4.704h2.496l-4.992 11.904-3.648-7.392-3.648 7.392-4.992-11.904h2.496l2.688 6.864 3.456-7.248 3.456 7.248 2.688-6.864zm6.795-2.424a1.666 1.666 0 01-1.224.504c-.48 0-.888-.168-1.224-.504a1.666 1.666 0 01-.504-1.224c0-.48.168-.888.504-1.224a1.666 1.666 0 011.224-.504c.48 0 .888.168 1.224.504.336.336.504.744.504 1.224s-.168.888-.504 1.224zM292.306 377v-11.52h2.304V377h-2.304zm6.534-3.768v-5.448h-1.536v-2.304h1.536v-4.608h2.304v4.608h2.304v2.304h-2.304v4.8c0 1.104.152 1.768.456 1.992.464.352 1.08.336 1.848-.048v2.328c-.464.224-1.032.336-1.704.336-1.936 0-2.904-1.32-2.904-3.96zm13.573-7.944c1.456 0 2.56.456 3.312 1.368.768.896 1.152 2.2 1.152 3.912V377h-2.304v-6.432c0-.976-.2-1.712-.6-2.208-.384-.512-1.048-.768-1.992-.768-.768 0-1.488.288-2.16.864-.672.56-1.008 1.296-1.008 2.208V377h-2.304v-16.896h2.304v6.72c.896-1.024 2.096-1.536 3.6-1.536zm17.589-2.232a1.666 1.666 0 01-1.224.504c-.48 0-.888-.168-1.224-.504a1.666 1.666 0 01-.504-1.224c0-.48.168-.888.504-1.224a1.666 1.666 0 011.224-.504c.48 0 .888.168 1.224.504.336.336.504.744.504 1.224s-.168.888-.504 1.224zM327.626 377v-11.52h2.304V377h-2.304zm11.483-11.712c1.392 0 2.48.432 3.264 1.296.8.864 1.2 2.128 1.2 3.792V377h-2.304v-6.432c0-.976-.2-1.712-.6-2.208-.384-.512-1.048-.768-1.992-.768-.768 0-1.488.288-2.16.864-.672.56-1.008 1.296-1.008 2.208V377h-2.304v-11.52h2.304v1.344c.896-1.024 2.096-1.536 3.6-1.536zm13.482 0c1.664 0 3.04.576 4.128 1.728 1.088 1.152 1.632 2.56 1.632 4.224 0 1.664-.544 3.072-1.632 4.224-1.088 1.152-2.464 1.728-4.128 1.728-1.6 0-2.88-.624-3.84-1.872v7.824h-2.304V365.48h2.304v1.68c.96-1.248 2.24-1.872 3.84-1.872zm-2.784 8.544a3.576 3.576 0 002.592 1.056c1.008 0 1.864-.352 2.568-1.056.72-.72 1.08-1.584 1.08-2.592s-.36-1.864-1.08-2.568a3.457 3.457 0 00-2.568-1.08c-1.008 0-1.872.36-2.592 1.08-.704.704-1.056 1.56-1.056 2.568s.352 1.872 1.056 2.592zm15.134 3.36c-1.392 0-2.488-.432-3.288-1.296-.784-.864-1.176-2.128-1.176-3.792v-6.624h2.304v6.432c0 .976.192 1.72.576 2.232.4.496 1.072.744 2.016.744.768 0 1.488-.28 2.16-.84.672-.576 1.008-1.32 1.008-2.232v-6.336h2.304V377h-2.304v-1.344c-.896 1.024-2.096 1.536-3.6 1.536zm10.118-3.96v-5.448h-1.536v-2.304h1.536v-4.608h2.304v4.608h2.304v2.304h-2.304v4.8c0 1.104.152 1.768.456 1.992.464.352 1.08.336 1.848-.048v2.328c-.464.224-1.032.336-1.704.336-1.936 0-2.904-1.32-2.904-3.96zM185.509 473h-2.304v-16.128h2.304V473zm9.365-11.712c1.392 0 2.48.432 3.264 1.296.8.864 1.2 2.128 1.2 3.792V473h-2.304v-6.432c0-.976-.2-1.712-.6-2.208-.384-.512-1.048-.768-1.992-.768-.768 0-1.488.288-2.16.864-.672.56-1.008 1.296-1.008 2.208V473h-2.304v-11.52h2.304v1.344c.896-1.024 2.096-1.536 3.6-1.536zm16.358.192h2.304V473h-2.304v-1.68c-.96 1.248-2.24 1.872-3.84 1.872-1.664 0-3.04-.576-4.128-1.728-1.088-1.152-1.632-2.56-1.632-4.224 0-1.664.544-3.072 1.632-4.224 1.088-1.152 2.464-1.728 4.128-1.728 1.6 0 2.88.624 3.84 1.872v-1.68zm-6.24 8.352a3.576 3.576 0 002.592 1.056c1.008 0 1.864-.352 2.568-1.056.72-.72 1.08-1.584 1.08-2.592s-.36-1.864-1.08-2.568a3.457 3.457 0 00-2.568-1.08c-1.008 0-1.872.36-2.592 1.08-.704.704-1.056 1.56-1.056 2.568s.352 1.872 1.056 2.592zm12.522 1.656c-1.104-1.136-1.656-2.552-1.656-4.248 0-1.696.56-3.112 1.68-4.248 1.12-1.136 2.608-1.704 4.464-1.704 1.584 0 2.864.44 3.84 1.32l-.984 2.136c-.8-.768-1.744-1.152-2.832-1.152-1.056 0-1.968.36-2.736 1.08-.752.704-1.128 1.552-1.128 2.544 0 1.008.376 1.872 1.128 2.592.752.72 1.664 1.08 2.736 1.08 1.104 0 2.048-.392 2.832-1.176l.984 2.16c-.928.88-2.208 1.32-3.84 1.32-1.872 0-3.368-.568-4.488-1.704zm11.787-2.256v-5.448h-1.536v-2.304h1.536v-4.608h2.304v4.608h2.304v2.304h-2.304v4.8c0 1.104.152 1.768.456 1.992.464.352 1.08.336 1.848-.048v2.328c-.464.224-1.032.336-1.704.336-1.936 0-2.904-1.32-2.904-3.96zm10.045-10.176a1.666 1.666 0 01-1.224.504c-.48 0-.888-.168-1.224-.504a1.666 1.666 0 01-.504-1.224c0-.48.168-.888.504-1.224a1.666 1.666 0 011.224-.504c.48 0 .888.168 1.224.504.336.336.504.744.504 1.224s-.168.888-.504 1.224zM236.97 473v-11.52h2.304V473h-2.304zm9.61.384l-5.568-11.904h2.496l3.072 6.72 3.072-6.72h2.496l-5.568 11.904zm17.493-6.096c0 .352-.024.688-.072 1.008h-8.712c.176.864.6 1.512 1.272 1.944.688.432 1.512.648 2.472.648 1.248 0 2.416-.384 3.504-1.152l.768 2.064c-1.104.928-2.544 1.392-4.32 1.392-1.936 0-3.432-.56-4.488-1.68-1.04-1.136-1.56-2.56-1.56-4.272 0-1.696.52-3.112 1.56-4.248 1.056-1.136 2.448-1.704 4.176-1.704 1.568 0 2.856.544 3.864 1.632 1.024 1.088 1.536 2.544 1.536 4.368zm-8.784-1.104h6.432c-.032-.656-.312-1.248-.84-1.776-.528-.544-1.296-.816-2.304-.816-.976 0-1.76.272-2.352.816-.592.544-.904 1.136-.936 1.776zm32.598-4.704h2.496l-4.992 11.904-3.648-7.392-3.648 7.392-4.992-11.904h2.496l2.688 6.864 3.456-7.248 3.456 7.248 2.688-6.864zm6.795-2.424a1.666 1.666 0 01-1.224.504c-.48 0-.888-.168-1.224-.504a1.666 1.666 0 01-.504-1.224c0-.48.168-.888.504-1.224a1.666 1.666 0 011.224-.504c.48 0 .888.168 1.224.504.336.336.504.744.504 1.224s-.168.888-.504 1.224zM292.306 473v-11.52h2.304V473h-2.304zm6.534-3.768v-5.448h-1.536v-2.304h1.536v-4.608h2.304v4.608h2.304v2.304h-2.304v4.8c0 1.104.152 1.768.456 1.992.464.352 1.08.336 1.848-.048v2.328c-.464.224-1.032.336-1.704.336-1.936 0-2.904-1.32-2.904-3.96zm13.573-7.944c1.456 0 2.56.456 3.312 1.368.768.896 1.152 2.2 1.152 3.912V473h-2.304v-6.432c0-.976-.2-1.712-.6-2.208-.384-.512-1.048-.768-1.992-.768-.768 0-1.488.288-2.16.864-.672.56-1.008 1.296-1.008 2.208V473h-2.304v-16.896h2.304v6.72c.896-1.024 2.096-1.536 3.6-1.536zm17.589-2.232a1.666 1.666 0 01-1.224.504c-.48 0-.888-.168-1.224-.504a1.666 1.666 0 01-.504-1.224c0-.48.168-.888.504-1.224a1.666 1.666 0 011.224-.504c.48 0 .888.168 1.224.504.336.336.504.744.504 1.224s-.168.888-.504 1.224zM327.626 473v-11.52h2.304V473h-2.304zm11.483-11.712c1.392 0 2.48.432 3.264 1.296.8.864 1.2 2.128 1.2 3.792V473h-2.304v-6.432c0-.976-.2-1.712-.6-2.208-.384-.512-1.048-.768-1.992-.768-.768 0-1.488.288-2.16.864-.672.56-1.008 1.296-1.008 2.208V473h-2.304v-11.52h2.304v1.344c.896-1.024 2.096-1.536 3.6-1.536zm13.482 0c1.664 0 3.04.576 4.128 1.728 1.088 1.152 1.632 2.56 1.632 4.224 0 1.664-.544 3.072-1.632 4.224-1.088 1.152-2.464 1.728-4.128 1.728-1.6 0-2.88-.624-3.84-1.872v7.824h-2.304V461.48h2.304v1.68c.96-1.248 2.24-1.872 3.84-1.872zm-2.784 8.544a3.576 3.576 0 002.592 1.056c1.008 0 1.864-.352 2.568-1.056.72-.72 1.08-1.584 1.08-2.592s-.36-1.864-1.08-2.568a3.457 3.457 0 00-2.568-1.08c-1.008 0-1.872.36-2.592 1.08-.704.704-1.056 1.56-1.056 2.568s.352 1.872 1.056 2.592zm15.134 3.36c-1.392 0-2.488-.432-3.288-1.296-.784-.864-1.176-2.128-1.176-3.792v-6.624h2.304v6.432c0 .976.192 1.72.576 2.232.4.496 1.072.744 2.016.744.768 0 1.488-.28 2.16-.84.672-.576 1.008-1.32 1.008-2.232v-6.336h2.304V473h-2.304v-1.344c-.896 1.024-2.096 1.536-3.6 1.536zm10.118-3.96v-5.448h-1.536v-2.304h1.536v-4.608h2.304v4.608h2.304v2.304h-2.304v4.8c0 1.104.152 1.768.456 1.992.464.352 1.08.336 1.848-.048v2.328c-.464.224-1.032.336-1.704.336-1.936 0-2.904-1.32-2.904-3.96z" fill="#1A1A1A"/>
  <path fill="#404040" d="M906 11h2v528h-2z"/>
  <path stroke="#404040" stroke-width="2" d="M907 12h-40m40 526h-40"/>
  <path d="M1081 38h-84.5v2h84.5v-2zm-87.5 3v232h2V41h-2zm-1 233H908v2h84.5v-2zm1-1a1 1 0 01-1 1v2a3 3 0 003-3h-2zm3-235a3 3 0 00-3 3h2a1 1 0 011-1v-2z" fill="#404040"/>
  <defs>
    <filter id="ph_search_states__filter0_dd" x="419" y="61" width="452" height="44" filterUnits="userSpaceOnUse" color-interpolation-filters="sRGB">
      <feFlood flood-opacity="0" result="BackgroundImageFix"/>
      <feColorMatrix in="SourceAlpha" values="0 0 0 0 0 0 0 0 0 0 0 0 0 0 0 0 0 0 127 0"/>
      <feOffset dy="1"/>
      <feGaussianBlur stdDeviation=".5"/>
      <feColorMatrix values="0 0 0 0 0 0 0 0 0 0 0 0 0 0 0 0 0 0 0.12 0"/>
      <feBlend in2="BackgroundImageFix" result="effect1_dropShadow"/>
      <feColorMatrix in="SourceAlpha" values="0 0 0 0 0 0 0 0 0 0 0 0 0 0 0 0 0 0 127 0"/>
      <feOffset/>
      <feGaussianBlur stdDeviation="1"/>
      <feColorMatrix values="0 0 0 0 0 0 0 0 0 0 0 0 0 0 0 0 0 0 0.12 0"/>
      <feBlend in2="effect1_dropShadow" result="effect2_dropShadow"/>
      <feBlend in="SourceGraphic" in2="effect2_dropShadow" result="shape"/>
    </filter>
    <filter id="ph_search_states__filter1_dd" x="419" y="157" width="452" height="44" filterUnits="userSpaceOnUse" color-interpolation-filters="sRGB">
      <feFlood flood-opacity="0" result="BackgroundImageFix"/>
      <feColorMatrix in="SourceAlpha" values="0 0 0 0 0 0 0 0 0 0 0 0 0 0 0 0 0 0 127 0"/>
      <feOffset dy="1"/>
      <feGaussianBlur stdDeviation=".5"/>
      <feColorMatrix values="0 0 0 0 0 0 0 0 0 0 0 0 0 0 0 0 0 0 0.12 0"/>
      <feBlend in2="BackgroundImageFix" result="effect1_dropShadow"/>
      <feColorMatrix in="SourceAlpha" values="0 0 0 0 0 0 0 0 0 0 0 0 0 0 0 0 0 0 127 0"/>
      <feOffset/>
      <feGaussianBlur stdDeviation="1"/>
      <feColorMatrix values="0 0 0 0 0 0 0 0 0 0 0 0 0 0 0 0 0 0 0.12 0"/>
      <feBlend in2="effect1_dropShadow" result="effect2_dropShadow"/>
      <feBlend in="SourceGraphic" in2="effect2_dropShadow" result="shape"/>
    </filter>
    <filter id="ph_search_states__filter2_dd" x="419" y="253" width="452" height="44" filterUnits="userSpaceOnUse" color-interpolation-filters="sRGB">
      <feFlood flood-opacity="0" result="BackgroundImageFix"/>
      <feColorMatrix in="SourceAlpha" values="0 0 0 0 0 0 0 0 0 0 0 0 0 0 0 0 0 0 127 0"/>
      <feOffset dy="1"/>
      <feGaussianBlur stdDeviation=".5"/>
      <feColorMatrix values="0 0 0 0 0 0 0 0 0 0 0 0 0 0 0 0 0 0 0.12 0"/>
      <feBlend in2="BackgroundImageFix" result="effect1_dropShadow"/>
      <feColorMatrix in="SourceAlpha" values="0 0 0 0 0 0 0 0 0 0 0 0 0 0 0 0 0 0 127 0"/>
      <feOffset/>
      <feGaussianBlur stdDeviation="1"/>
      <feColorMatrix values="0 0 0 0 0 0 0 0 0 0 0 0 0 0 0 0 0 0 0.12 0"/>
      <feBlend in2="effect1_dropShadow" result="effect2_dropShadow"/>
      <feBlend in="SourceGraphic" in2="effect2_dropShadow" result="shape"/>
    </filter>
    <filter id="ph_search_states__filter3_dd" x="419" y="349" width="452" height="44" filterUnits="userSpaceOnUse" color-interpolation-filters="sRGB">
      <feFlood flood-opacity="0" result="BackgroundImageFix"/>
      <feColorMatrix in="SourceAlpha" values="0 0 0 0 0 0 0 0 0 0 0 0 0 0 0 0 0 0 127 0"/>
      <feOffset dy="1"/>
      <feGaussianBlur stdDeviation=".5"/>
      <feColorMatrix values="0 0 0 0 0 0 0 0 0 0 0 0 0 0 0 0 0 0 0.12 0"/>
      <feBlend in2="BackgroundImageFix" result="effect1_dropShadow"/>
      <feColorMatrix in="SourceAlpha" values="0 0 0 0 0 0 0 0 0 0 0 0 0 0 0 0 0 0 127 0"/>
      <feOffset/>
      <feGaussianBlur stdDeviation="1"/>
      <feColorMatrix values="0 0 0 0 0 0 0 0 0 0 0 0 0 0 0 0 0 0 0.12 0"/>
      <feBlend in2="effect1_dropShadow" result="effect2_dropShadow"/>
      <feBlend in="SourceGraphic" in2="effect2_dropShadow" result="shape"/>
    </filter>
    <filter id="ph_search_states__filter4_dd" x="419" y="445" width="452" height="44" filterUnits="userSpaceOnUse" color-interpolation-filters="sRGB">
      <feFlood flood-opacity="0" result="BackgroundImageFix"/>
      <feColorMatrix in="SourceAlpha" values="0 0 0 0 0 0 0 0 0 0 0 0 0 0 0 0 0 0 127 0"/>
      <feOffset dy="1"/>
      <feGaussianBlur stdDeviation=".5"/>
      <feColorMatrix values="0 0 0 0 0 0 0 0 0 0 0 0 0 0 0 0 0 0 0.12 0"/>
      <feBlend in2="BackgroundImageFix" result="effect1_dropShadow"/>
      <feColorMatrix in="SourceAlpha" values="0 0 0 0 0 0 0 0 0 0 0 0 0 0 0 0 0 0 127 0"/>
      <feOffset/>
      <feGaussianBlur stdDeviation="1"/>
      <feColorMatrix values="0 0 0 0 0 0 0 0 0 0 0 0 0 0 0 0 0 0 0.12 0"/>
      <feBlend in2="effect1_dropShadow" result="effect2_dropShadow"/>
      <feBlend in="SourceGraphic" in2="effect2_dropShadow" result="shape"/>
    </filter>
    <filter id="ph_search_states__filter5_dd" x="1069.46" y="9.463" width="375.057" height="531.074" filterUnits="userSpaceOnUse" color-interpolation-filters="sRGB">
      <feFlood flood-opacity="0" result="BackgroundImageFix"/>
      <feColorMatrix in="SourceAlpha" values="0 0 0 0 0 0 0 0 0 0 0 0 0 0 0 0 0 0 127 0"/>
      <feOffset/>
      <feGaussianBlur stdDeviation=".769"/>
      <feColorMatrix values="0 0 0 0 0 0 0 0 0 0 0 0 0 0 0 0 0 0 0.12 0"/>
      <feBlend in2="BackgroundImageFix" result="effect1_dropShadow"/>
      <feColorMatrix in="SourceAlpha" values="0 0 0 0 0 0 0 0 0 0 0 0 0 0 0 0 0 0 127 0"/>
      <feOffset dy=".769"/>
      <feGaussianBlur stdDeviation=".384"/>
      <feColorMatrix values="0 0 0 0 0 0 0 0 0 0 0 0 0 0 0 0 0 0 0.12 0"/>
      <feBlend in2="effect1_dropShadow" result="effect2_dropShadow"/>
      <feBlend in="SourceGraphic" in2="effect2_dropShadow" result="shape"/>
    </filter>
    <filter id="ph_search_states__filter6_dd" x="1069.46" y="9.463" width="375.057" height="531.074" filterUnits="userSpaceOnUse" color-interpolation-filters="sRGB">
      <feFlood flood-opacity="0" result="BackgroundImageFix"/>
      <feColorMatrix in="SourceAlpha" values="0 0 0 0 0 0 0 0 0 0 0 0 0 0 0 0 0 0 127 0"/>
      <feOffset dy=".769"/>
      <feGaussianBlur stdDeviation=".384"/>
      <feColorMatrix values="0 0 0 0 0 0 0 0 0 0 0 0 0 0 0 0 0 0 0.12 0"/>
      <feBlend in2="BackgroundImageFix" result="effect1_dropShadow"/>
      <feColorMatrix in="SourceAlpha" values="0 0 0 0 0 0 0 0 0 0 0 0 0 0 0 0 0 0 127 0"/>
      <feOffset/>
      <feGaussianBlur stdDeviation=".769"/>
      <feColorMatrix values="0 0 0 0 0 0 0 0 0 0 0 0 0 0 0 0 0 0 0.12 0"/>
      <feBlend in2="effect1_dropShadow" result="effect2_dropShadow"/>
      <feBlend in="SourceGraphic" in2="effect2_dropShadow" result="shape"/>
    </filter>
    <clipPath id="ph_search_states__clip0">
      <path d="M1071 14.074a3.076 3.076 0 013.07-3.074h365.84a3.07 3.07 0 013.07 3.074v521.852a3.069 3.069 0 01-3.07 3.074h-365.84a3.075 3.075 0 01-3.07-3.074V14.074z" fill="#fff"/>
    </clipPath>
  </defs>
</svg>
