<svg width="1248" height="274" fill="none" xmlns="http://www.w3.org/2000/svg">
  <path d="M85 119c0-13.807 11.193-25 25-25h137c13.807 0 25 11.193 25 25v1c0 13.807-11.193 25-25 25H110c-13.807 0-25-11.193-25-25v-1z" fill="#fff"/>
  <path d="M114.539 118.376l2.272-3.008V113.8h-6.88v1.728h4.688l-2.416 3.184.736 1.104h.416c1.264 0 2.08.672 2.08 1.792s-.816 1.808-2.08 1.808c-1.12 0-1.872-.496-2.192-1.44l-1.568.912c.624 1.568 2.112 2.32 3.76 2.32 2.064 0 3.92-1.248 3.92-3.6 0-1.744-1.2-2.864-2.736-3.232zm8.337 6.832c2.816 0 4.4-2.352 4.4-5.808s-1.584-5.808-4.4-5.808c-2.816 0-4.4 2.352-4.4 5.808s1.584 5.808 4.4 5.808zm0-1.792c-1.648 0-2.56-1.44-2.56-4.016s.912-4.016 2.56-4.016c1.664 0 2.56 1.44 2.56 4.016s-.896 4.016-2.56 4.016zm10.078 1.792c2.816 0 4.4-2.352 4.4-5.808s-1.584-5.808-4.4-5.808c-2.816 0-4.4 2.352-4.4 5.808s1.584 5.808 4.4 5.808zm0-1.792c-1.648 0-2.56-1.44-2.56-4.016s.912-4.016 2.56-4.016c1.664 0 2.56 1.44 2.56 4.016s-.896 4.016-2.56 4.016zm7.086-4.224c.656 0 1.2-.544 1.2-1.2 0-.672-.544-1.2-1.2-1.2-.672 0-1.2.528-1.2 1.2 0 .656.528 1.2 1.2 1.2zm0 6c.656 0 1.2-.544 1.2-1.2 0-.672-.544-1.2-1.2-1.2-.672 0-1.2.528-1.2 1.2 0 .656.528 1.2 1.2 1.2zm14.43-11.392h-8.16v1.76h3.168V125h1.84v-9.44h3.152v-1.76zm3.587 11.408c2.352 0 4.224-1.84 4.224-4.208 0-2.384-1.872-4.208-4.224-4.208-2.336 0-4.224 1.824-4.224 4.208 0 2.368 1.888 4.208 4.224 4.208zm0-1.68c-1.408 0-2.496-1.072-2.496-2.528s1.088-2.528 2.496-2.528 2.496 1.072 2.496 2.528-1.088 2.528-2.496 2.528zm10.095-4.864V117h-1.984v-2.24l-1.728.512V117h-1.472v1.664h1.472v3.84c0 2.08 1.056 2.816 3.712 2.496v-1.552c-1.312.064-1.984.08-1.984-.944v-3.84h1.984zm2.599 3.072h6.368c.032-.224.064-.48.064-.72 0-2.304-1.632-4.224-4.016-4.224-2.512 0-4.224 1.84-4.224 4.208 0 2.4 1.712 4.208 4.352 4.208 1.568 0 2.768-.656 3.504-1.744l-1.424-.832c-.384.56-1.104.992-2.064.992-1.28 0-2.288-.64-2.56-1.888zm-.016-1.408c.24-1.2 1.12-1.968 2.416-1.968 1.04 0 2.048.592 2.288 1.968h-4.704zm12.08-6.528V125h1.84v-11.2h-1.84zm8.174 2.992c-1.088 0-1.952.4-2.48 1.232V117h-1.728v8h1.728v-4.288c0-1.632.896-2.304 2.032-2.304 1.088 0 1.792.64 1.792 1.856V125h1.728v-4.912c0-2.08-1.28-3.296-3.072-3.296zm11.269-2.992v4.336c-.608-.832-1.552-1.344-2.8-1.344-2.176 0-3.984 1.824-3.984 4.208 0 2.368 1.808 4.208 3.984 4.208 1.248 0 2.192-.512 2.8-1.36V125h1.728v-11.2h-1.728zm-2.528 9.76c-1.44 0-2.528-1.072-2.528-2.56s1.088-2.56 2.528-2.56 2.528 1.072 2.528 2.56-1.088 2.56-2.528 2.56zm11.662-6.56v4.288c0 1.632-.896 2.304-2.032 2.304-1.088 0-1.792-.64-1.792-1.856V117h-1.728v4.912c0 2.08 1.28 3.296 3.072 3.296 1.088 0 1.952-.4 2.48-1.232V125h1.728v-8h-1.728zm7.525 8.208c1.568 0 2.928-.816 3.6-2.08l-1.488-.848c-.384.736-1.168 1.232-2.128 1.232-1.408 0-2.48-1.072-2.48-2.512s1.072-2.512 2.48-2.512c.96 0 1.744.48 2.096 1.232l1.488-.864c-.64-1.248-2-2.064-3.568-2.064-2.416 0-4.224 1.824-4.224 4.208 0 2.368 1.808 4.208 4.224 4.208zm9.313-6.544V117h-1.984v-2.24l-1.728.512V117h-1.472v1.664h1.472v3.84c0 2.08 1.056 2.816 3.712 2.496v-1.552c-1.312.064-1.984.08-1.984-.944v-3.84h1.984zm2.599 3.072h6.368c.032-.224.064-.48.064-.72 0-2.304-1.632-4.224-4.016-4.224-2.512 0-4.224 1.84-4.224 4.208 0 2.4 1.712 4.208 4.352 4.208 1.568 0 2.768-.656 3.504-1.744l-1.424-.832c-.384.56-1.104.992-2.064.992-1.28 0-2.288-.64-2.56-1.888zm-.016-1.408c.24-1.2 1.12-1.968 2.416-1.968 1.04 0 2.048.592 2.288 1.968h-4.704zm14.258-6.528v4.336c-.608-.832-1.552-1.344-2.8-1.344-2.176 0-3.984 1.824-3.984 4.208 0 2.368 1.808 4.208 3.984 4.208 1.248 0 2.192-.512 2.8-1.36V125h1.728v-11.2h-1.728zm-2.528 9.76c-1.44 0-2.528-1.072-2.528-2.56s1.088-2.56 2.528-2.56 2.528 1.072 2.528 2.56-1.088 2.56-2.528 2.56z" fill="#1A1A1A"/>
  <path d="M529 26c0-13.807 11.193-25 25-25h116c13.807 0 25 11.193 25 25v1c0 13.807-11.193 25-25 25H554c-13.807 0-25-11.193-25-25v-1z" fill="#fff"/>
  <path d="M553.543 32h7.376v-1.776h-4.64l2.528-2.528c1.072-1.088 1.904-2.256 1.904-3.648 0-2.224-1.744-3.456-3.584-3.456-1.488 0-2.896.736-3.616 2.272l1.552.912c.432-.896 1.152-1.392 2.08-1.392.96 0 1.728.608 1.728 1.728 0 .848-.624 1.664-1.424 2.464l-3.904 3.984V32zm10.968-11.2l-2.944 1.04.448 1.568 2.256-.64V32h1.84V20.8h-1.6zm7.842 11.408c2.816 0 4.4-2.352 4.4-5.808s-1.584-5.808-4.4-5.808c-2.816 0-4.4 2.352-4.4 5.808s1.584 5.808 4.4 5.808zm0-1.792c-1.648 0-2.56-1.44-2.56-4.016s.912-4.016 2.56-4.016c1.664 0 2.56 1.44 2.56 4.016s-.896 4.016-2.56 4.016zm7.086-4.224c.656 0 1.2-.544 1.2-1.2 0-.672-.544-1.2-1.2-1.2-.672 0-1.2.528-1.2 1.2 0 .656.528 1.2 1.2 1.2zm0 6c.656 0 1.2-.544 1.2-1.2 0-.672-.544-1.2-1.2-1.2-.672 0-1.2.528-1.2 1.2 0 .656.528 1.2 1.2 1.2zm10.878.016c2.336 0 3.968-1.248 3.968-3.296 0-2.224-1.872-2.8-3.728-3.392-1.632-.512-2.256-.88-2.256-1.744 0-.848.688-1.392 1.76-1.392 1.248 0 1.952.672 2.352 1.568l1.552-.896c-.704-1.488-2.064-2.464-3.904-2.464-1.888 0-3.6 1.168-3.6 3.232 0 2.112 1.696 2.752 3.44 3.28 1.664.512 2.544.848 2.544 1.84 0 .816-.624 1.472-2.08 1.472-1.52 0-2.384-.752-2.784-1.888l-1.584.928c.592 1.664 2.112 2.752 4.32 2.752zM601.166 24v4.288c0 1.632-.896 2.304-2.032 2.304-1.088 0-1.792-.64-1.792-1.856V24h-1.728v4.912c0 2.08 1.28 3.296 3.072 3.296 1.088 0 1.952-.4 2.48-1.232V32h1.728v-8h-1.728zm8.276-.208c-1.248 0-2.192.512-2.8 1.344V20.8h-1.728V32h1.728v-1.152c.608.848 1.552 1.36 2.8 1.36 2.176 0 3.984-1.84 3.984-4.208 0-2.384-1.808-4.208-3.984-4.208zm-.272 6.768c-1.44 0-2.528-1.072-2.528-2.56s1.088-2.56 2.528-2.56 2.528 1.072 2.528 2.56-1.088 2.56-2.528 2.56zm7.218-4.352c0-.576.544-.848 1.168-.848.656 0 1.216.288 1.504.912l1.456-.816c-.56-1.056-1.648-1.664-2.96-1.664-1.632 0-2.928.944-2.928 2.448 0 2.864 4.304 2.064 4.304 3.488 0 .64-.592.896-1.36.896-.88 0-1.52-.432-1.776-1.152l-1.488.864c.512 1.152 1.664 1.872 3.264 1.872 1.728 0 3.12-.864 3.12-2.464 0-2.96-4.304-2.08-4.304-3.536zm9.975-.544V24h-1.984v-2.24l-1.728.512V24h-1.472v1.664h1.472v3.84c0 2.08 1.056 2.816 3.712 2.496v-1.552c-1.312.064-1.984.08-1.984-.944v-3.84h1.984zm2.431-2.864c.608 0 1.104-.512 1.104-1.104 0-.608-.496-1.104-1.104-1.104-.608 0-1.104.496-1.104 1.104 0 .592.496 1.104 1.104 1.104zm-.864 9.2h1.728v-8h-1.728v8zm8.198-6.336V24h-1.984v-2.24l-1.728.512V24h-1.472v1.664h1.472v3.84c0 2.08 1.056 2.816 3.712 2.496v-1.552c-1.312.064-1.984.08-1.984-.944v-3.84h1.984zM643.166 24v4.288c0 1.632-.896 2.304-2.032 2.304-1.088 0-1.792-.64-1.792-1.856V24h-1.728v4.912c0 2.08 1.28 3.296 3.072 3.296 1.088 0 1.952-.4 2.48-1.232V32h1.728v-8h-1.728zm8.212 1.664V24h-1.984v-2.24l-1.728.512V24h-1.472v1.664h1.472v3.84c0 2.08 1.056 2.816 3.712 2.496v-1.552c-1.312.064-1.984.08-1.984-.944v-3.84h1.984zm2.599 3.072h6.368c.032-.224.064-.48.064-.72 0-2.304-1.632-4.224-4.016-4.224-2.512 0-4.224 1.84-4.224 4.208 0 2.4 1.712 4.208 4.352 4.208 1.568 0 2.768-.656 3.504-1.744l-1.424-.832c-.384.56-1.104.992-2.064.992-1.28 0-2.288-.64-2.56-1.888zm-.016-1.408c.24-1.2 1.12-1.968 2.416-1.968 1.04 0 2.048.592 2.288 1.968h-4.704zm14.258-6.528v4.336c-.608-.832-1.552-1.344-2.8-1.344-2.176 0-3.984 1.824-3.984 4.208 0 2.368 1.808 4.208 3.984 4.208 1.248 0 2.192-.512 2.8-1.36V32h1.728V20.8h-1.728zm-2.528 9.76c-1.44 0-2.528-1.072-2.528-2.56s1.088-2.56 2.528-2.56 2.528 1.072 2.528 2.56-1.088 2.56-2.528 2.56z" fill="#1A1A1A"/>
  <path d="M514 119c0-13.807 11.193-25 25-25h80c13.807 0 25 11.193 25 25v1c0 13.807-11.193 25-25 25h-80c-13.807 0-25-11.193-25-25v-1z" fill="#fff"/>
  <path d="M543.758 118.376l2.272-3.008V113.8h-6.88v1.728h4.688l-2.416 3.184.736 1.104h.416c1.264 0 2.08.672 2.08 1.792s-.816 1.808-2.08 1.808c-1.12 0-1.872-.496-2.192-1.44l-1.568.912c.624 1.568 2.112 2.32 3.76 2.32 2.064 0 3.92-1.248 3.92-3.6 0-1.744-1.2-2.864-2.736-3.232zm8.337 6.832c2.816 0 4.4-2.352 4.4-5.808s-1.584-5.808-4.4-5.808c-2.816 0-4.4 2.352-4.4 5.808s1.584 5.808 4.4 5.808zm0-1.792c-1.648 0-2.56-1.44-2.56-4.016s.912-4.016 2.56-4.016c1.664 0 2.56 1.44 2.56 4.016s-.896 4.016-2.56 4.016zm7.877-9.616l-2.944 1.04.448 1.568 2.256-.64V125h1.84v-11.2h-1.6zm4.849 5.392c.656 0 1.2-.544 1.2-1.2 0-.672-.544-1.2-1.2-1.2-.672 0-1.2.528-1.2 1.2 0 .656.528 1.2 1.2 1.2zm0 6c.656 0 1.2-.544 1.2-1.2 0-.672-.544-1.2-1.2-1.2-.672 0-1.2.528-1.2 1.2 0 .656.528 1.2 1.2 1.2zM576.1 113.8h-4.128V125h1.84v-3.84h2.288c2.112 0 3.712-1.616 3.712-3.68 0-2.08-1.6-3.68-3.712-3.68zm0 5.632h-2.288v-3.904h2.288c1.088 0 1.872.816 1.872 1.952 0 1.12-.784 1.952-1.872 1.952zm6.061-3.632c.608 0 1.104-.512 1.104-1.104 0-.608-.496-1.104-1.104-1.104-.608 0-1.104.496-1.104 1.104 0 .592.496 1.104 1.104 1.104zm-.864 9.2h1.728v-8h-1.728v8zm7.51.208c1.568 0 2.928-.816 3.6-2.08l-1.488-.848c-.384.736-1.168 1.232-2.128 1.232-1.408 0-2.48-1.072-2.48-2.512s1.072-2.512 2.48-2.512c.96 0 1.744.48 2.096 1.232l1.488-.864c-.64-1.248-2-2.064-3.568-2.064-2.416 0-4.224 1.824-4.224 4.208 0 2.368 1.808 4.208 4.224 4.208zm11.921-.208l-3.648-4.08 3.52-3.92h-2.112l-3.104 3.536V113.8h-1.728V125h1.728v-3.696l3.28 3.696h2.064zm1.882-3.264h6.368c.032-.224.064-.48.064-.72 0-2.304-1.632-4.224-4.016-4.224-2.512 0-4.224 1.84-4.224 4.208 0 2.4 1.712 4.208 4.352 4.208 1.568 0 2.768-.656 3.504-1.744l-1.424-.832c-.384.56-1.104.992-2.064.992-1.28 0-2.288-.64-2.56-1.888zm-.016-1.408c.24-1.2 1.12-1.968 2.416-1.968 1.04 0 2.048.592 2.288 1.968h-4.704zm14.258-6.528v4.336c-.608-.832-1.552-1.344-2.8-1.344-2.176 0-3.984 1.824-3.984 4.208 0 2.368 1.808 4.208 3.984 4.208 1.248 0 2.192-.512 2.8-1.36V125h1.728v-11.2h-1.728zm-2.528 9.76c-1.44 0-2.528-1.072-2.528-2.56s1.088-2.56 2.528-2.56 2.528 1.072 2.528 2.56-1.088 2.56-2.528 2.56z" fill="#1A1A1A"/>
  <path d="M678 119c0-13.807 11.193-25 25-25h88c13.807 0 25 11.193 25 25v1c0 13.807-11.193 25-25 25h-88c-13.807 0-25-11.193-25-25v-1z" fill="#fff"/>
  <path d="M707.703 118.376l2.272-3.008V113.8h-6.88v1.728h4.688l-2.416 3.184.736 1.104h.416c1.264 0 2.08.672 2.08 1.792s-.816 1.808-2.08 1.808c-1.12 0-1.872-.496-2.192-1.44l-1.568.912c.624 1.568 2.112 2.32 3.76 2.32 2.064 0 3.92-1.248 3.92-3.6 0-1.744-1.2-2.864-2.736-3.232zm8.337 6.832c2.816 0 4.4-2.352 4.4-5.808s-1.584-5.808-4.4-5.808c-2.816 0-4.4 2.352-4.4 5.808s1.584 5.808 4.4 5.808zm0-1.792c-1.648 0-2.56-1.44-2.56-4.016s.912-4.016 2.56-4.016c1.664 0 2.56 1.44 2.56 4.016s-.896 4.016-2.56 4.016zm5.3 1.584h7.376v-1.776h-4.64l2.528-2.528c1.072-1.088 1.904-2.256 1.904-3.648 0-2.224-1.744-3.456-3.584-3.456-1.488 0-2.896.736-3.616 2.272l1.552.912c.432-.896 1.152-1.392 2.08-1.392.96 0 1.728.608 1.728 1.728 0 .848-.624 1.664-1.424 2.464l-3.904 3.984V125zm10.021-5.808c.656 0 1.2-.544 1.2-1.2 0-.672-.544-1.2-1.2-1.2-.672 0-1.2.528-1.2 1.2 0 .656.528 1.2 1.2 1.2zm0 6c.656 0 1.2-.544 1.2-1.2 0-.672-.544-1.2-1.2-1.2-.672 0-1.2.528-1.2 1.2 0 .656.528 1.2 1.2 1.2zm10.878.016c2.336 0 3.968-1.248 3.968-3.296 0-2.224-1.872-2.8-3.728-3.392-1.632-.512-2.256-.88-2.256-1.744 0-.848.688-1.392 1.76-1.392 1.248 0 1.952.672 2.352 1.568l1.552-.896c-.704-1.488-2.064-2.464-3.904-2.464-1.888 0-3.6 1.168-3.6 3.232 0 2.112 1.696 2.752 3.44 3.28 1.664.512 2.544.848 2.544 1.84 0 .816-.624 1.472-2.08 1.472-1.52 0-2.384-.752-2.784-1.888l-1.584.928c.592 1.664 2.112 2.752 4.32 2.752zm9.671-6.544V117h-1.984v-2.24l-1.728.512V117h-1.472v1.664h1.472v3.84c0 2.08 1.056 2.816 3.712 2.496v-1.552c-1.312.064-1.984.08-1.984-.944v-3.84h1.984zm7.575-1.664v1.136c-.608-.832-1.552-1.344-2.8-1.344-2.176 0-3.984 1.824-3.984 4.208 0 2.368 1.808 4.208 3.984 4.208 1.248 0 2.192-.512 2.8-1.36V125h1.728v-8h-1.728zm-2.528 6.56c-1.44 0-2.528-1.072-2.528-2.56s1.088-2.56 2.528-2.56 2.528 1.072 2.528 2.56-1.088 2.56-2.528 2.56zm12.638-6.56v1.184c-.608-.864-1.552-1.392-2.784-1.392-2.256 0-4.032 1.84-4.032 4.128 0 2.288 1.776 4.128 4.032 4.128 1.232 0 2.176-.528 2.784-1.392v.976c0 1.392-.896 2.208-2.384 2.208-1.392 0-1.984-.544-2.336-1.232l-1.488.864c.672 1.28 2.032 1.936 3.792 1.936 2.096 0 4.112-1.2 4.112-3.776V117h-1.696zm-2.544 6.432c-1.456 0-2.544-1.072-2.544-2.512s1.088-2.512 2.544-2.512 2.544 1.072 2.544 2.512-1.088 2.512-2.544 2.512zm7.614-1.696h6.368c.032-.224.064-.48.064-.72 0-2.304-1.632-4.224-4.016-4.224-2.512 0-4.224 1.84-4.224 4.208 0 2.4 1.712 4.208 4.352 4.208 1.568 0 2.768-.656 3.504-1.744l-1.424-.832c-.384.56-1.104.992-2.064.992-1.28 0-2.288-.64-2.56-1.888zm-.016-1.408c.24-1.2 1.12-1.968 2.416-1.968 1.04 0 2.048.592 2.288 1.968h-4.704zm14.258-6.528v4.336c-.608-.832-1.552-1.344-2.8-1.344-2.176 0-3.984 1.824-3.984 4.208 0 2.368 1.808 4.208 3.984 4.208 1.248 0 2.192-.512 2.8-1.36V125h1.728v-11.2h-1.728zm-2.528 9.76c-1.44 0-2.528-1.072-2.528-2.56s1.088-2.56 2.528-2.56 2.528 1.072 2.528 2.56-1.088 2.56-2.528 2.56z" fill="#1A1A1A"/>
  <path d="M850 119c0-13.807 11.193-25 25-25h90c13.807 0 25 11.193 25 25v1c0 13.807-11.193 25-25 25h-90c-13.807 0-25-11.193-25-25v-1z" fill="#fff"/>
  <path d="M879.797 118.376l2.272-3.008V113.8h-6.88v1.728h4.688l-2.416 3.184.736 1.104h.416c1.264 0 2.08.672 2.08 1.792s-.816 1.808-2.08 1.808c-1.12 0-1.872-.496-2.192-1.44l-1.568.912c.624 1.568 2.112 2.32 3.76 2.32 2.064 0 3.92-1.248 3.92-3.6 0-1.744-1.2-2.864-2.736-3.232zm3.715 6.624h7.376v-1.776h-4.64l2.528-2.528c1.072-1.088 1.904-2.256 1.904-3.648 0-2.224-1.744-3.456-3.584-3.456-1.488 0-2.896.736-3.616 2.272l1.552.912c.432-.896 1.152-1.392 2.08-1.392.96 0 1.728.608 1.728 1.728 0 .848-.624 1.664-1.424 2.464l-3.904 3.984V125zm10.968-11.2l-2.944 1.04.448 1.568 2.256-.64V125h1.84v-11.2h-1.6zm4.849 5.392c.656 0 1.2-.544 1.2-1.2 0-.672-.544-1.2-1.2-1.2-.672 0-1.2.528-1.2 1.2 0 .656.528 1.2 1.2 1.2zm0 6c.656 0 1.2-.544 1.2-1.2 0-.672-.544-1.2-1.2-1.2-.672 0-1.2.528-1.2 1.2 0 .656.528 1.2 1.2 1.2zm8.99-1.952v-9.44h-1.84V125h6.4v-1.76h-4.56zm9.34 1.968c2.352 0 4.224-1.84 4.224-4.208 0-2.384-1.872-4.208-4.224-4.208-2.336 0-4.224 1.824-4.224 4.208 0 2.368 1.888 4.208 4.224 4.208zm0-1.68c-1.408 0-2.496-1.072-2.496-2.528s1.088-2.528 2.496-2.528 2.496 1.072 2.496 2.528-1.088 2.528-2.496 2.528zM929.782 117v1.136c-.608-.832-1.552-1.344-2.8-1.344-2.176 0-3.984 1.824-3.984 4.208 0 2.368 1.808 4.208 3.984 4.208 1.248 0 2.192-.512 2.8-1.36V125h1.728v-8h-1.728zm-2.528 6.56c-1.44 0-2.528-1.072-2.528-2.56s1.088-2.56 2.528-2.56 2.528 1.072 2.528 2.56-1.088 2.56-2.528 2.56zm12.606-9.76v4.336c-.608-.832-1.552-1.344-2.8-1.344-2.176 0-3.984 1.824-3.984 4.208 0 2.368 1.808 4.208 3.984 4.208 1.248 0 2.192-.512 2.8-1.36V125h1.728v-11.2h-1.728zm-2.528 9.76c-1.44 0-2.528-1.072-2.528-2.56s1.088-2.56 2.528-2.56 2.528 1.072 2.528 2.56-1.088 2.56-2.528 2.56zm7.134-7.76c.608 0 1.104-.512 1.104-1.104 0-.608-.496-1.104-1.104-1.104-.608 0-1.104.496-1.104 1.104 0 .592.496 1.104 1.104 1.104zm-.864 9.2h1.728v-8h-1.728v8zm7.942-8.208c-1.088 0-1.952.4-2.48 1.232V117h-1.728v8h1.728v-4.288c0-1.632.896-2.304 2.032-2.304 1.088 0 1.792.64 1.792 1.856V125h1.728v-4.912c0-2.08-1.28-3.296-3.072-3.296zm11.301.208v1.184c-.608-.864-1.552-1.392-2.784-1.392-2.256 0-4.032 1.84-4.032 4.128 0 2.288 1.776 4.128 4.032 4.128 1.232 0 2.176-.528 2.784-1.392v.976c0 1.392-.896 2.208-2.384 2.208-1.392 0-1.984-.544-2.336-1.232l-1.488.864c.672 1.28 2.032 1.936 3.792 1.936 2.096 0 4.112-1.2 4.112-3.776V117h-1.696zm-2.544 6.432c-1.456 0-2.544-1.072-2.544-2.512s1.088-2.512 2.544-2.512 2.544 1.072 2.544 2.512-1.088 2.512-2.544 2.512z" fill="#1A1A1A"/>
  <path d="M1024 119c0-13.807 11.19-25 25-25h89c13.81 0 25 11.193 25 25v1c0 13.807-11.19 25-25 25h-89c-13.81 0-25-11.193-25-25v-1z" fill="#fff"/>
  <path d="M1053.77 118.376l2.27-3.008V113.8h-6.88v1.728h4.69l-2.42 3.184.74 1.104h.41c1.27 0 2.08.672 2.08 1.792s-.81 1.808-2.08 1.808c-1.12 0-1.87-.496-2.19-1.44l-1.57.912c.63 1.568 2.11 2.32 3.76 2.32 2.07 0 3.92-1.248 3.92-3.6 0-1.744-1.2-2.864-2.73-3.232zm3.71 6.624h7.38v-1.776h-4.64l2.52-2.528c1.08-1.088 1.91-2.256 1.91-3.648 0-2.224-1.75-3.456-3.59-3.456-1.48 0-2.89.736-3.61 2.272l1.55.912c.43-.896 1.15-1.392 2.08-1.392.96 0 1.73.608 1.73 1.728 0 .848-.63 1.664-1.43 2.464l-3.9 3.984V125zm8.47 0h7.38v-1.776h-4.64l2.52-2.528c1.08-1.088 1.91-2.256 1.91-3.648 0-2.224-1.75-3.456-3.59-3.456-1.48 0-2.89.736-3.61 2.272l1.55.912c.43-.896 1.15-1.392 2.08-1.392.96 0 1.73.608 1.73 1.728 0 .848-.63 1.664-1.43 2.464l-3.9 3.984V125zm10.02-5.808c.66 0 1.2-.544 1.2-1.2 0-.672-.54-1.2-1.2-1.2-.67 0-1.2.528-1.2 1.2 0 .656.53 1.2 1.2 1.2zm0 6c.66 0 1.2-.544 1.2-1.2 0-.672-.54-1.2-1.2-1.2-.67 0-1.2.528-1.2 1.2 0 .656.53 1.2 1.2 1.2zm8.99-1.952v-9.44h-1.84V125h6.4v-1.76h-4.56zm9.34 1.968c2.35 0 4.22-1.84 4.22-4.208 0-2.384-1.87-4.208-4.22-4.208-2.34 0-4.22 1.824-4.22 4.208 0 2.368 1.88 4.208 4.22 4.208zm0-1.68c-1.41 0-2.5-1.072-2.5-2.528s1.09-2.528 2.5-2.528 2.5 1.072 2.5 2.528-1.09 2.528-2.5 2.528zm12.12-6.528v1.136c-.61-.832-1.55-1.344-2.8-1.344-2.17 0-3.98 1.824-3.98 4.208 0 2.368 1.81 4.208 3.98 4.208 1.25 0 2.19-.512 2.8-1.36V125h1.73v-8h-1.73zm-2.53 6.56c-1.44 0-2.52-1.072-2.52-2.56s1.08-2.56 2.52-2.56 2.53 1.072 2.53 2.56-1.09 2.56-2.53 2.56zm12.61-9.76v4.336c-.61-.832-1.55-1.344-2.8-1.344-2.18 0-3.98 1.824-3.98 4.208 0 2.368 1.8 4.208 3.98 4.208 1.25 0 2.19-.512 2.8-1.36V125h1.73v-11.2h-1.73zm-2.53 9.76c-1.44 0-2.53-1.072-2.53-2.56s1.09-2.56 2.53-2.56c1.44 0 2.53 1.072 2.53 2.56s-1.09 2.56-2.53 2.56zm7.63-1.824h6.37c.03-.224.06-.48.06-.72 0-2.304-1.63-4.224-4.01-4.224-2.51 0-4.23 1.84-4.23 4.208 0 2.4 1.72 4.208 4.36 4.208 1.56 0 2.76-.656 3.5-1.744l-1.42-.832c-.39.56-1.11.992-2.07.992-1.28 0-2.29-.64-2.56-1.888zm-.01-1.408c.24-1.2 1.12-1.968 2.41-1.968 1.04 0 2.05.592 2.29 1.968h-4.7zm14.25-6.528v4.336c-.6-.832-1.55-1.344-2.8-1.344-2.17 0-3.98 1.824-3.98 4.208 0 2.368 1.81 4.208 3.98 4.208 1.25 0 2.2-.512 2.8-1.36V125h1.73v-11.2h-1.73zm-2.52 9.76c-1.44 0-2.53-1.072-2.53-2.56s1.09-2.56 2.53-2.56c1.44 0 2.52 1.072 2.52 2.56s-1.08 2.56-2.52 2.56z" fill="#1A1A1A"/>
  <path d="M529 212c0-13.807 11.193-25 25-25h89c13.807 0 25 11.193 25 25v1c0 13.807-11.193 25-25 25h-89c-13.807 0-25-11.193-25-25v-1z" fill="#fff"/>
  <path d="M557.618 210.56h-.208l2.56-3.76h-2.096l-3.552 5.328c-.432.624-.672 1.392-.672 2.256 0 2.256 1.632 3.824 3.968 3.824 2.32 0 3.952-1.568 3.952-3.824s-1.632-3.824-3.952-3.824zm0 5.904c-1.232 0-2.128-.8-2.128-2.08s.896-2.08 2.128-2.08c1.216 0 2.112.8 2.112 2.08 0 1.264-.896 2.08-2.112 2.08zm13.515-2.192h-1.28v-2.912h-1.856v2.912h-3.504l3.856-7.472h-2l-3.856 7.472v1.712h5.504V218h1.856v-2.016h1.28v-1.712zm3.019-7.472l-2.944 1.04.448 1.568 2.256-.64V218h1.84v-11.2h-1.6zm4.849 5.392c.656 0 1.2-.544 1.2-1.2 0-.672-.544-1.2-1.2-1.2-.672 0-1.2.528-1.2 1.2 0 .656.528 1.2 1.2 1.2zm0 6c.656 0 1.2-.544 1.2-1.2 0-.672-.544-1.2-1.2-1.2-.672 0-1.2.528-1.2 1.2 0 .656.528 1.2 1.2 1.2zm10.878.016c2.336 0 3.968-1.248 3.968-3.296 0-2.224-1.872-2.8-3.728-3.392-1.632-.512-2.256-.88-2.256-1.744 0-.848.688-1.392 1.76-1.392 1.248 0 1.952.672 2.352 1.568l1.552-.896c-.704-1.488-2.064-2.464-3.904-2.464-1.888 0-3.6 1.168-3.6 3.232 0 2.112 1.696 2.752 3.44 3.28 1.664.512 2.544.848 2.544 1.84 0 .816-.624 1.472-2.08 1.472-1.52 0-2.384-.752-2.784-1.888l-1.584.928c.592 1.664 2.112 2.752 4.32 2.752zm9.665-8.416c-1.088 0-1.952.4-2.48 1.232V206.8h-1.728V218h1.728v-4.288c0-1.632.896-2.304 2.032-2.304 1.088 0 1.792.64 1.792 1.856V218h1.728v-4.912c0-2.08-1.28-3.296-3.072-3.296zm8.709 8.416c2.352 0 4.224-1.84 4.224-4.208 0-2.384-1.872-4.208-4.224-4.208-2.336 0-4.224 1.824-4.224 4.208 0 2.368 1.888 4.208 4.224 4.208zm0-1.68c-1.408 0-2.496-1.072-2.496-2.528s1.088-2.528 2.496-2.528 2.496 1.072 2.496 2.528-1.088 2.528-2.496 2.528zm7.514-5.184V210h-1.728v8h1.728v-4.032c0-1.792 1.328-2.32 2.464-2.24v-1.872c-1.008 0-1.984.4-2.464 1.488zm8.408.32V210h-1.984v-2.24l-1.728.512V210h-1.472v1.664h1.472v3.84c0 2.08 1.056 2.816 3.712 2.496v-1.552c-1.312.064-1.984.08-1.984-.944v-3.84h1.984zm2.599 3.072h6.368c.032-.224.064-.48.064-.72 0-2.304-1.632-4.224-4.016-4.224-2.512 0-4.224 1.84-4.224 4.208 0 2.4 1.712 4.208 4.352 4.208 1.568 0 2.768-.656 3.504-1.744l-1.424-.832c-.384.56-1.104.992-2.064.992-1.28 0-2.288-.64-2.56-1.888zm-.016-1.408c.24-1.2 1.12-1.968 2.416-1.968 1.04 0 2.048.592 2.288 1.968h-4.704zm14.258-6.528v4.336c-.608-.832-1.552-1.344-2.8-1.344-2.176 0-3.984 1.824-3.984 4.208 0 2.368 1.808 4.208 3.984 4.208 1.248 0 2.192-.512 2.8-1.36V218h1.728v-11.2h-1.728zm-2.528 9.76c-1.44 0-2.528-1.072-2.528-2.56s1.088-2.56 2.528-2.56 2.528 1.072 2.528 2.56-1.088 2.56-2.528 2.56z" fill="#1A1A1A"/>
  <path d="M303 107c0-13.807 11.193-25 25-25h94c13.807 0 25 11.193 25 25v25c0 13.807-11.193 25-25 25h-94c-13.807 0-25-11.193-25-25v-25z" fill="#fff"/>
  <path d="M331.634 105.56h-.208l2.56-3.76h-2.096l-3.552 5.328c-.432.624-.672 1.392-.672 2.256 0 2.256 1.632 3.824 3.968 3.824 2.32 0 3.952-1.568 3.952-3.824s-1.632-3.824-3.952-3.824zm0 5.904c-1.232 0-2.128-.8-2.128-2.08s.896-2.08 2.128-2.08c1.216 0 2.112.8 2.112 2.08 0 1.264-.896 2.08-2.112 2.08zm13.515-2.192h-1.28v-2.912h-1.856v2.912h-3.504l3.856-7.472h-2l-3.856 7.472v1.712h5.504V113h1.856v-2.016h1.28v-1.712zm.769 3.728h7.376v-1.776h-4.64l2.528-2.528c1.072-1.088 1.904-2.256 1.904-3.648 0-2.224-1.744-3.456-3.584-3.456-1.488 0-2.896.736-3.616 2.272l1.552.912c.432-.896 1.152-1.392 2.08-1.392.96 0 1.728.608 1.728 1.728 0 .848-.624 1.664-1.424 2.464l-3.904 3.984V113zm10.021-5.808c.656 0 1.2-.544 1.2-1.2 0-.672-.544-1.2-1.2-1.2-.672 0-1.2.528-1.2 1.2 0 .656.528 1.2 1.2 1.2zm0 6c.656 0 1.2-.544 1.2-1.2 0-.672-.544-1.2-1.2-1.2-.672 0-1.2.528-1.2 1.2 0 .656.528 1.2 1.2 1.2zm10.878.016c2.336 0 3.968-1.248 3.968-3.296 0-2.224-1.872-2.8-3.728-3.392-1.632-.512-2.256-.88-2.256-1.744 0-.848.688-1.392 1.76-1.392 1.248 0 1.952.672 2.352 1.568l1.552-.896c-.704-1.488-2.064-2.464-3.904-2.464-1.888 0-3.6 1.168-3.6 3.232 0 2.112 1.696 2.752 3.44 3.28 1.664.512 2.544.848 2.544 1.84 0 .816-.624 1.472-2.08 1.472-1.52 0-2.384-.752-2.784-1.888l-1.584.928c.592 1.664 2.112 2.752 4.32 2.752zm12.529-.208l-3.648-4.08 3.52-3.92h-2.112l-3.104 3.536V101.8h-1.728V113h1.728v-3.696l3.28 3.696h2.064zm2.026-9.2c.608 0 1.104-.512 1.104-1.104 0-.608-.496-1.104-1.104-1.104-.608 0-1.104.496-1.104 1.104 0 .592.496 1.104 1.104 1.104zm-.864 9.2h1.728v-8h-1.728v8zm8.262-8.208c-1.248 0-2.192.512-2.8 1.36V105h-1.728v11.2h1.728v-4.336c.608.832 1.552 1.344 2.8 1.344 2.176 0 3.984-1.824 3.984-4.208 0-2.368-1.808-4.208-3.984-4.208zm-.272 6.768c-1.44 0-2.528-1.072-2.528-2.56s1.088-2.56 2.528-2.56 2.528 1.072 2.528 2.56-1.088 2.56-2.528 2.56zm10.351-6.768c-1.248 0-2.192.512-2.8 1.36V105h-1.728v11.2h1.728v-4.336c.608.832 1.552 1.344 2.8 1.344 2.176 0 3.984-1.824 3.984-4.208 0-2.368-1.808-4.208-3.984-4.208zm-.272 6.768c-1.44 0-2.528-1.072-2.528-2.56s1.088-2.56 2.528-2.56 2.528 1.072 2.528 2.56-1.088 2.56-2.528 2.56zm7.182-1.824h6.368c.032-.224.064-.48.064-.72 0-2.304-1.632-4.224-4.016-4.224-2.512 0-4.224 1.84-4.224 4.208 0 2.4 1.712 4.208 4.352 4.208 1.568 0 2.768-.656 3.504-1.744l-1.424-.832c-.384.56-1.104.992-2.064.992-1.28 0-2.288-.64-2.56-1.888zm-.016-1.408c.24-1.2 1.12-1.968 2.416-1.968 1.04 0 2.048.592 2.288 1.968h-4.704zM420 101.8v4.336c-.608-.832-1.552-1.344-2.8-1.344-2.176 0-3.984 1.824-3.984 4.208 0 2.368 1.808 4.208 3.984 4.208 1.248 0 2.192-.512 2.8-1.36V113h1.728v-11.2H420zm-2.528 9.76c-1.44 0-2.528-1.072-2.528-2.56s1.088-2.56 2.528-2.56S420 107.512 420 109s-1.088 2.56-2.528 2.56zM342.07 138.6h1.728c-1.12-2.24-1.76-4.64-1.76-7.2 0-2.56.64-4.96 1.76-7.2h-1.728c-1.12 2.24-1.76 4.64-1.76 7.2 0 2.56.64 4.96 1.76 7.2zm6.831-1.392c2.352 0 4.224-1.84 4.224-4.208 0-2.384-1.872-4.208-4.224-4.208-2.336 0-4.224 1.824-4.224 4.208 0 2.368 1.888 4.208 4.224 4.208zm0-1.68c-1.408 0-2.496-1.072-2.496-2.528s1.088-2.528 2.496-2.528 2.496 1.072 2.496 2.528-1.088 2.528-2.496 2.528zm10.315-6.736c-1.248 0-2.192.512-2.8 1.36V129h-1.728v11.2h1.728v-4.336c.608.832 1.552 1.344 2.8 1.344 2.176 0 3.984-1.824 3.984-4.208 0-2.368-1.808-4.208-3.984-4.208zm-.272 6.768c-1.44 0-2.528-1.072-2.528-2.56s1.088-2.56 2.528-2.56 2.528 1.072 2.528 2.56-1.088 2.56-2.528 2.56zm10.13-4.896V129h-1.984v-2.24l-1.728.512V129h-1.472v1.664h1.472v3.84c0 2.08 1.056 2.816 3.712 2.496v-1.552c-1.312.064-1.984.08-1.984-.944v-3.84h1.984zm2.431-2.864c.608 0 1.104-.512 1.104-1.104 0-.608-.496-1.104-1.104-1.104-.608 0-1.104.496-1.104 1.104 0 .592.496 1.104 1.104 1.104zm-.864 9.2h1.728v-8h-1.728v8zm7.51.208c2.352 0 4.224-1.84 4.224-4.208 0-2.384-1.872-4.208-4.224-4.208-2.336 0-4.224 1.824-4.224 4.208 0 2.368 1.888 4.208 4.224 4.208zm0-1.68c-1.408 0-2.496-1.072-2.496-2.528s1.088-2.528 2.496-2.528 2.496 1.072 2.496 2.528-1.088 2.528-2.496 2.528zm9.995-6.736c-1.088 0-1.952.4-2.48 1.232V129h-1.728v8h1.728v-4.288c0-1.632.896-2.304 2.032-2.304 1.088 0 1.792.64 1.792 1.856V137h1.728v-4.912c0-2.08-1.28-3.296-3.072-3.296zm11.268.208v1.136c-.608-.832-1.552-1.344-2.8-1.344-2.176 0-3.984 1.824-3.984 4.208 0 2.368 1.808 4.208 3.984 4.208 1.248 0 2.192-.512 2.8-1.36V137h1.728v-8h-1.728zm-2.528 6.56c-1.44 0-2.528-1.072-2.528-2.56s1.088-2.56 2.528-2.56 2.528 1.072 2.528 2.56-1.088 2.56-2.528 2.56zm6.27 1.44h1.728v-11.68h-1.728V137zm4.775 1.6c1.12-2.24 1.76-4.64 1.76-7.2 0-2.56-.64-4.96-1.76-7.2h-1.728c1.12 2.24 1.76 4.64 1.76 7.2 0 2.56-.64 4.96-1.76 7.2h1.728z" fill="#1A1A1A"/>
  <path d="M529.707 213.207a.999.999 0 000-1.414l-6.364-6.364a.999.999 0 10-1.414 1.414l5.657 5.657-5.657 5.657a.999.999 0 101.414 1.414l6.364-6.364zM447 120.5h9v-2h-9v2zm40 31v29h2v-29h-2zm33 62h9v-2h-9v2zm-33-33c0 18.225 14.775 33 33 33v-2c-17.121 0-31-13.879-31-31h-2zm-31-60c17.121 0 31 13.879 31 31h2c0-18.225-14.775-33-33-33v2z" fill="#AAA"/>
  <path d="M529.707 27.207a1 1 0 000-1.414l-6.364-6.364a1 1 0 10-1.414 1.414l5.657 5.657-5.657 5.657a1 1 0 101.414 1.414l6.364-6.364zM447 120.5h9v-2h-9v2zm42-33v-29h-2v29h2zm31-60h9v-2h-9v2zm-31 31c0-17.12 13.879-31 31-31v-2c-18.225 0-33 14.775-33 33h2zm-33 62c18.225 0 33-14.775 33-33h-2c0 17.121-13.879 31-31 31v2zm-152.293-.293a.999.999 0 000-1.414l-6.364-6.364a.999.999 0 10-1.414 1.414l5.657 5.657-5.657 5.657a.999.999 0 101.414 1.414l6.364-6.364zM272 120.5h31v-2h-31v2z" fill="#AAA"/>
  <path d="M514.707 120.207a.999.999 0 000-1.414l-6.364-6.364a.999.999 0 10-1.414 1.414l5.657 5.657-5.657 5.657a.999.999 0 101.414 1.414l6.364-6.364zM447 120.5h67v-2h-67v2zm231.707-.293a.999.999 0 000-1.414l-6.364-6.364a.999.999 0 10-1.414 1.414l5.657 5.657-5.657 5.657a.999.999 0 101.414 1.414l6.364-6.364zM644 120.5h34v-2h-34v2zm206.707-.293a.999.999 0 000-1.414l-6.364-6.364a.999.999 0 10-1.414 1.414l5.657 5.657-5.657 5.657a.999.999 0 101.414 1.414l6.364-6.364zM816 120.5h34v-2h-34v2zm208.71-.293a1 1 0 000-1.414l-6.37-6.364a.994.994 0 00-1.41 0 1 1 0 000 1.414l5.66 5.657-5.66 5.657a1 1 0 000 1.414.994.994 0 001.41 0l6.37-6.364zM990 120.5h34v-2h-34v2z" fill="#AAA"/>
</svg>
