<svg width="981" height="297" fill="none" xmlns="http://www.w3.org/2000/svg">
  <path d="M569 28c0-13.807 11.193-25 25-25h299c13.807 0 25 11.193 25 25v19c0 13.807-11.193 25-25 25H594c-13.807 0-25-11.193-25-25V28z" fill="#fff"/>
  <path d="M605.124 46h3.312l5.832-16.8h-3l-4.488 13.464-4.464-13.464h-3.024l5.832 16.8zm18.845-12v1.704c-.912-1.248-2.328-2.016-4.2-2.016-3.264 0-5.976 2.736-5.976 6.312 0 3.552 2.712 6.312 5.976 6.312 1.872 0 3.288-.768 4.2-2.04V46h2.592V34h-2.592zm-3.792 9.84c-2.16 0-3.792-1.608-3.792-3.84 0-2.232 1.632-3.84 3.792-3.84s3.792 1.608 3.792 3.84c0 2.232-1.632 3.84-3.792 3.84zm9.405 2.16h2.592V28.48h-2.592V46zm6.898-13.8c.912 0 1.656-.768 1.656-1.656a1.66 1.66 0 00-1.656-1.656 1.66 1.66 0 00-1.656 1.656c0 .888.744 1.656 1.656 1.656zM635.184 46h2.592V34h-2.592v12zm15.105-16.8v6.504c-.912-1.248-2.328-2.016-4.2-2.016-3.264 0-5.976 2.736-5.976 6.312 0 3.552 2.712 6.312 5.976 6.312 1.872 0 3.288-.768 4.2-2.04V46h2.592V29.2h-2.592zm-3.792 14.64c-2.16 0-3.792-1.608-3.792-3.84 0-2.232 1.632-3.84 3.792-3.84s3.792 1.608 3.792 3.84c0 2.232-1.632 3.84-3.792 3.84zm18.91-9.84v1.704c-.912-1.248-2.328-2.016-4.2-2.016-3.264 0-5.976 2.736-5.976 6.312 0 3.552 2.712 6.312 5.976 6.312 1.872 0 3.288-.768 4.2-2.04V46h2.592V34h-2.592zm-3.792 9.84c-2.16 0-3.792-1.608-3.792-3.84 0-2.232 1.632-3.84 3.792-3.84s3.792 1.608 3.792 3.84c0 2.232-1.632 3.84-3.792 3.84zm16.101-7.344V34h-2.976v-3.36l-2.592.768V34h-2.208v2.496h2.208v5.76c0 3.12 1.584 4.224 5.568 3.744v-2.328c-1.968.096-2.976.12-2.976-1.416v-5.76h2.976zm3.899 4.608h9.552c.048-.336.096-.72.096-1.08 0-3.456-2.448-6.336-6.024-6.336-3.768 0-6.336 2.76-6.336 6.312 0 3.6 2.568 6.312 6.528 6.312 2.352 0 4.152-.984 5.256-2.616l-2.136-1.248c-.576.84-1.656 1.488-3.096 1.488-1.92 0-3.432-.96-3.84-2.832zm-.025-2.112c.361-1.8 1.681-2.952 3.625-2.952 1.56 0 3.072.888 3.432 2.952h-7.057zm23.617 7.32c3.528 0 6.336-2.76 6.336-6.312 0-3.576-2.808-6.312-6.336-6.312-3.504 0-6.336 2.736-6.336 6.312 0 3.552 2.832 6.312 6.336 6.312zm0-2.52c-2.112 0-3.744-1.608-3.744-3.792 0-2.184 1.632-3.792 3.744-3.792s3.744 1.608 3.744 3.792c0 2.184-1.632 3.792-3.744 3.792zm11.272-7.776V34h-2.592v12h2.592v-6.048c0-2.688 1.992-3.48 3.696-3.36v-2.808c-1.512 0-2.976.6-3.696 2.232zm14.553-6.816v6.504c-.912-1.248-2.328-2.016-4.2-2.016-3.264 0-5.976 2.736-5.976 6.312 0 3.552 2.712 6.312 5.976 6.312 1.872 0 3.288-.768 4.2-2.04V46h2.592V29.2h-2.592zm-3.792 14.64c-2.16 0-3.792-1.608-3.792-3.84 0-2.232 1.632-3.84 3.792-3.84s3.792 1.608 3.792 3.84c0 2.232-1.632 3.84-3.792 3.84zm11.445-2.736h9.552c.048-.336.096-.72.096-1.08 0-3.456-2.448-6.336-6.024-6.336-3.768 0-6.336 2.76-6.336 6.312 0 3.6 2.568 6.312 6.528 6.312 2.352 0 4.152-.984 5.256-2.616l-2.136-1.248c-.576.84-1.656 1.488-3.096 1.488-1.92 0-3.432-.96-3.84-2.832zm-.024-2.112c.36-1.8 1.68-2.952 3.624-2.952 1.56 0 3.072.888 3.432 2.952h-7.056zm14.545-2.976V34h-2.592v12h2.592v-6.048c0-2.688 1.992-3.48 3.696-3.36v-2.808c-1.512 0-2.976.6-3.696 2.232zm17.275 10.296c2.352 0 4.392-1.224 5.4-3.12l-2.232-1.272c-.576 1.104-1.752 1.848-3.192 1.848-2.112 0-3.72-1.608-3.72-3.768 0-2.16 1.608-3.768 3.72-3.768 1.44 0 2.616.72 3.144 1.848l2.232-1.296c-.96-1.872-3-3.096-5.352-3.096-3.624 0-6.336 2.736-6.336 6.312 0 3.552 2.712 6.312 6.336 6.312zm12.75 0c3.528 0 6.336-2.76 6.336-6.312 0-3.576-2.808-6.312-6.336-6.312-3.504 0-6.336 2.736-6.336 6.312 0 3.552 2.832 6.312 6.336 6.312zm0-2.52c-2.112 0-3.744-1.608-3.744-3.792 0-2.184 1.632-3.792 3.744-3.792s3.744 1.608 3.744 3.792c0 2.184-1.632 3.792-3.744 3.792zm21.783-10.104c-1.608 0-2.88.648-3.672 1.896-.696-1.2-1.848-1.896-3.408-1.896-1.488 0-2.664.576-3.432 1.752V34h-2.592v12h2.592v-6.72c0-2.184 1.2-3.168 2.664-3.168 1.416 0 2.256.936 2.256 2.616V46h2.592v-6.72c0-2.184 1.08-3.168 2.616-3.168 1.416 0 2.328.936 2.328 2.616V46h2.592v-7.44c0-3-1.824-4.872-4.536-4.872zm14.103 0c-1.872 0-3.288.768-4.2 2.04V34h-2.592v16.8h2.592v-6.504c.912 1.248 2.328 2.016 4.2 2.016 3.264 0 5.976-2.736 5.976-6.312 0-3.552-2.712-6.312-5.976-6.312zm-.408 10.152c-2.16 0-3.792-1.608-3.792-3.84 0-2.232 1.632-3.84 3.792-3.84s3.792 1.608 3.792 3.84c0 2.232-1.632 3.84-3.792 3.84zm8.733 2.16h2.592V28.48h-2.592V46zm7.641-4.896h9.552c.048-.336.096-.72.096-1.08 0-3.456-2.448-6.336-6.024-6.336-3.768 0-6.336 2.76-6.336 6.312 0 3.6 2.568 6.312 6.528 6.312 2.352 0 4.152-.984 5.256-2.616l-2.136-1.248c-.576.84-1.656 1.488-3.096 1.488-1.92 0-3.432-.96-3.84-2.832zm-.024-2.112c.36-1.8 1.68-2.952 3.624-2.952 1.56 0 3.072.888 3.432 2.952h-7.056zm18.274-2.496V34h-2.976v-3.36l-2.592.768V34h-2.208v2.496h2.208v5.76c0 3.12 1.584 4.224 5.568 3.744v-2.328c-1.968.096-2.976.12-2.976-1.416v-5.76h2.976zm3.647-4.296c.912 0 1.656-.768 1.656-1.656a1.66 1.66 0 00-1.656-1.656 1.66 1.66 0 00-1.656 1.656c0 .888.744 1.656 1.656 1.656zM855.684 46h2.592V34h-2.592v12zm11.265.312c3.528 0 6.336-2.76 6.336-6.312 0-3.576-2.808-6.312-6.336-6.312-3.504 0-6.336 2.736-6.336 6.312 0 3.552 2.832 6.312 6.336 6.312zm0-2.52c-2.112 0-3.744-1.608-3.744-3.792 0-2.184 1.632-3.792 3.744-3.792s3.744 1.608 3.744 3.792c0 2.184-1.632 3.792-3.744 3.792zm14.992-10.104c-1.632 0-2.928.6-3.72 1.848V34h-2.592v12h2.592v-6.432c0-2.448 1.344-3.456 3.048-3.456 1.632 0 2.688.96 2.688 2.784V46h2.592v-7.368c0-3.12-1.92-4.944-4.608-4.944z" fill="#1A1A1A"/>
  <path d="M66 28C66 14.193 77.193 3 91 3h336c13.807 0 25 11.193 25 25v19c0 13.807-11.193 25-25 25H91c-13.807 0-25-11.193-25-25V28z" fill="#fff"/>
  <path d="M109.003 46h2.976l-6.072-16.8h-3.312L96.499 46h3l1.176-3.384h7.152L109.003 46zm-7.416-5.976l2.664-7.584 2.664 7.584h-5.328zm21.23-10.824v6.504c-.912-1.248-2.328-2.016-4.2-2.016-3.264 0-5.976 2.736-5.976 6.312 0 3.552 2.712 6.312 5.976 6.312 1.872 0 3.288-.768 4.2-2.04V46h2.592V29.2h-2.592zm-3.792 14.64c-2.16 0-3.792-1.608-3.792-3.84 0-2.232 1.632-3.84 3.792-3.84s3.792 1.608 3.792 3.84c0 2.232-1.632 3.84-3.792 3.84zm18.909-14.64v6.504c-.912-1.248-2.328-2.016-4.2-2.016-3.264 0-5.976 2.736-5.976 6.312 0 3.552 2.712 6.312 5.976 6.312 1.872 0 3.288-.768 4.2-2.04V46h2.592V29.2h-2.592zm-3.792 14.64c-2.16 0-3.792-1.608-3.792-3.84 0-2.232 1.632-3.84 3.792-3.84s3.792 1.608 3.792 3.84c0 2.232-1.632 3.84-3.792 3.84zm11.997-7.824V34h-2.592v12h2.592v-6.048c0-2.688 1.992-3.48 3.696-3.36v-2.808c-1.512 0-2.976.6-3.696 2.232zm7.089 5.088h9.552c.048-.336.096-.72.096-1.08 0-3.456-2.448-6.336-6.024-6.336-3.768 0-6.336 2.76-6.336 6.312 0 3.6 2.568 6.312 6.528 6.312 2.352 0 4.152-.984 5.256-2.616l-2.136-1.248c-.576.84-1.656 1.488-3.096 1.488-1.92 0-3.432-.96-3.84-2.832zm-.024-2.112c.36-1.8 1.68-2.952 3.624-2.952 1.56 0 3.072.888 3.432 2.952h-7.056zm13.812-1.68c0-.864.816-1.272 1.752-1.272.984 0 1.824.432 2.256 1.368l2.184-1.224c-.84-1.584-2.472-2.496-4.44-2.496-2.448 0-4.392 1.416-4.392 3.672 0 4.296 6.456 3.096 6.456 5.232 0 .96-.888 1.344-2.04 1.344-1.32 0-2.28-.648-2.664-1.728l-2.232 1.296c.768 1.728 2.496 2.808 4.896 2.808 2.592 0 4.68-1.296 4.68-3.696 0-4.44-6.456-3.12-6.456-5.304zm10.336 0c0-.864.816-1.272 1.752-1.272.984 0 1.824.432 2.256 1.368l2.184-1.224c-.84-1.584-2.472-2.496-4.44-2.496-2.448 0-4.392 1.416-4.392 3.672 0 4.296 6.456 3.096 6.456 5.232 0 .96-.888 1.344-2.04 1.344-1.32 0-2.28-.648-2.664-1.728l-2.232 1.296c.768 1.728 2.496 2.808 4.896 2.808 2.592 0 4.68-1.296 4.68-3.696 0-4.44-6.456-3.12-6.456-5.304zm20.398 9c2.352 0 4.392-1.224 5.4-3.12l-2.232-1.272c-.576 1.104-1.752 1.848-3.192 1.848-2.112 0-3.72-1.608-3.72-3.768 0-2.16 1.608-3.768 3.72-3.768 1.44 0 2.616.72 3.144 1.848l2.232-1.296c-.96-1.872-3-3.096-5.352-3.096-3.624 0-6.336 2.736-6.336 6.312 0 3.552 2.712 6.312 6.336 6.312zM213.182 34v6.432c0 2.448-1.344 3.456-3.048 3.456-1.632 0-2.688-.96-2.688-2.784V34h-2.592v7.368c0 3.12 1.92 4.944 4.608 4.944 1.632 0 2.928-.6 3.72-1.848V46h2.592V34h-2.592zm7.881 3.312c0-.864.816-1.272 1.752-1.272.984 0 1.824.432 2.256 1.368l2.184-1.224c-.84-1.584-2.472-2.496-4.44-2.496-2.448 0-4.392 1.416-4.392 3.672 0 4.296 6.456 3.096 6.456 5.232 0 .96-.888 1.344-2.04 1.344-1.32 0-2.28-.648-2.664-1.728l-2.232 1.296c.768 1.728 2.496 2.808 4.896 2.808 2.592 0 4.68-1.296 4.68-3.696 0-4.44-6.456-3.12-6.456-5.304zm14.961-.816V34h-2.976v-3.36l-2.592.768V34h-2.208v2.496h2.208v5.76c0 3.12 1.584 4.224 5.568 3.744v-2.328c-1.968.096-2.976.12-2.976-1.416v-5.76h2.976zm7.523 9.816c3.528 0 6.336-2.76 6.336-6.312 0-3.576-2.808-6.312-6.336-6.312-3.504 0-6.336 2.736-6.336 6.312 0 3.552 2.832 6.312 6.336 6.312zm0-2.52c-2.112 0-3.744-1.608-3.744-3.792 0-2.184 1.632-3.792 3.744-3.792s3.744 1.608 3.744 3.792c0 2.184-1.632 3.792-3.744 3.792zm21.784-10.104c-1.608 0-2.88.648-3.672 1.896-.696-1.2-1.848-1.896-3.408-1.896-1.488 0-2.664.576-3.432 1.752V34h-2.592v12h2.592v-6.72c0-2.184 1.2-3.168 2.664-3.168 1.416 0 2.256.936 2.256 2.616V46h2.592v-6.72c0-2.184 1.08-3.168 2.616-3.168 1.416 0 2.328.936 2.328 2.616V46h2.592v-7.44c0-3-1.824-4.872-4.536-4.872zm9.35 7.416h9.552c.048-.336.096-.72.096-1.08 0-3.456-2.448-6.336-6.024-6.336-3.768 0-6.336 2.76-6.336 6.312 0 3.6 2.568 6.312 6.528 6.312 2.352 0 4.152-.984 5.256-2.616l-2.136-1.248c-.576.84-1.656 1.488-3.096 1.488-1.92 0-3.432-.96-3.84-2.832zm-.024-2.112c.36-1.8 1.68-2.952 3.624-2.952 1.56 0 3.072.888 3.432 2.952h-7.056zm14.545-2.976V34h-2.592v12h2.592v-6.048c0-2.688 1.992-3.48 3.696-3.36v-2.808c-1.512 0-2.976.6-3.696 2.232zm17.275 10.296c2.352 0 4.392-1.224 5.4-3.12l-2.232-1.272c-.576 1.104-1.752 1.848-3.192 1.848-2.112 0-3.72-1.608-3.72-3.768 0-2.16 1.608-3.768 3.72-3.768 1.44 0 2.616.72 3.144 1.848l2.232-1.296c-.96-1.872-3-3.096-5.352-3.096-3.624 0-6.336 2.736-6.336 6.312 0 3.552 2.712 6.312 6.336 6.312zm12.75 0c3.528 0 6.336-2.76 6.336-6.312 0-3.576-2.808-6.312-6.336-6.312-3.504 0-6.336 2.736-6.336 6.312 0 3.552 2.832 6.312 6.336 6.312zm0-2.52c-2.112 0-3.744-1.608-3.744-3.792 0-2.184 1.632-3.792 3.744-3.792s3.744 1.608 3.744 3.792c0 2.184-1.632 3.792-3.744 3.792zm21.784-10.104c-1.608 0-2.88.648-3.672 1.896-.696-1.2-1.848-1.896-3.408-1.896-1.488 0-2.664.576-3.432 1.752V34h-2.592v12h2.592v-6.72c0-2.184 1.2-3.168 2.664-3.168 1.416 0 2.256.936 2.256 2.616V46h2.592v-6.72c0-2.184 1.08-3.168 2.616-3.168 1.416 0 2.328.936 2.328 2.616V46h2.592v-7.44c0-3-1.824-4.872-4.536-4.872zm14.102 0c-1.872 0-3.288.768-4.2 2.04V34h-2.592v16.8h2.592v-6.504c.912 1.248 2.328 2.016 4.2 2.016 3.264 0 5.976-2.736 5.976-6.312 0-3.552-2.712-6.312-5.976-6.312zm-.408 10.152c-2.16 0-3.792-1.608-3.792-3.84 0-2.232 1.632-3.84 3.792-3.84s3.792 1.608 3.792 3.84c0 2.232-1.632 3.84-3.792 3.84zm8.733 2.16h2.592V28.48h-2.592V46zm15.105-12v1.704c-.912-1.248-2.328-2.016-4.2-2.016-3.264 0-5.976 2.736-5.976 6.312 0 3.552 2.712 6.312 5.976 6.312 1.872 0 3.288-.768 4.2-2.04V46h2.592V34h-2.592zm-3.792 9.84c-2.16 0-3.792-1.608-3.792-3.84 0-2.232 1.632-3.84 3.792-3.84s3.792 1.608 3.792 3.84c0 2.232-1.632 3.84-3.792 3.84zm10.702-11.64c.912 0 1.656-.768 1.656-1.656a1.66 1.66 0 00-1.656-1.656 1.66 1.66 0 00-1.656 1.656c0 .888.744 1.656 1.656 1.656zM384.157 46h2.592V34h-2.592v12zm11.913-12.312c-1.632 0-2.928.6-3.72 1.848V34h-2.592v12h2.592v-6.432c0-2.448 1.344-3.456 3.048-3.456 1.632 0 2.688.96 2.688 2.784V46h2.592v-7.368c0-3.12-1.92-4.944-4.608-4.944zm14.095 2.808V34h-2.976v-3.36l-2.592.768V34h-2.208v2.496h2.208v5.76c0 3.12 1.584 4.224 5.568 3.744v-2.328c-1.968.096-2.976.12-2.976-1.416v-5.76h2.976zm4.234.816c0-.864.816-1.272 1.752-1.272.984 0 1.824.432 2.256 1.368l2.184-1.224c-.84-1.584-2.472-2.496-4.44-2.496-2.448 0-4.392 1.416-4.392 3.672 0 4.296 6.456 3.096 6.456 5.232 0 .96-.888 1.344-2.04 1.344-1.32 0-2.28-.648-2.664-1.728l-2.232 1.296c.768 1.728 2.496 2.808 4.896 2.808 2.592 0 4.68-1.296 4.68-3.696 0-4.44-6.456-3.12-6.456-5.304z" fill="#1A1A1A"/>
  <path d="M4 142c0-13.807 11.193-25 25-25h264c13.807 0 25 11.193 25 25v36c0 13.807-11.193 25-25 25H29c-13.807 0-25-11.193-25-25v-36z" fill="#fff"/>
  <path d="M36.7 152.812v-4.572h5.58v-1.188H36.7v-4.464h6.03V141.4h-7.29V154h7.38v-1.188H36.7zM52.365 154l-3.51-4.662L52.13 145h-1.422l-2.574 3.402L45.56 145h-1.422l3.294 4.338L43.905 154h1.422l2.808-3.708L50.943 154h1.422zm8.723-9v1.764c-.756-1.206-2.034-1.98-3.636-1.98-2.538 0-4.644 2.052-4.644 4.716s2.106 4.716 4.644 4.716c1.602 0 2.88-.774 3.636-1.98V154h1.188v-9h-1.188zm-3.546 8.064c-1.998 0-3.546-1.566-3.546-3.564s1.548-3.564 3.546-3.564c1.998 0 3.546 1.566 3.546 3.564s-1.548 3.564-3.546 3.564zm16.843-8.28c-1.152 0-2.25.522-2.916 1.638-.504-1.044-1.476-1.638-2.736-1.638-1.08 0-2.052.432-2.754 1.53V145h-1.188v9h1.188v-4.986c0-2.232 1.296-3.078 2.592-3.078 1.278 0 2.106.846 2.106 2.448V154h1.188v-4.986c0-2.232 1.116-3.078 2.502-3.078 1.278 0 2.196.846 2.196 2.448V154h1.188v-5.616c0-2.25-1.386-3.6-3.366-3.6zm6.258-1.692a.864.864 0 100-1.728.864.864 0 000 1.728zM80.05 154h1.188v-9H80.05v9zm7.921-9.216c-1.278 0-2.322.486-3.024 1.62V145h-1.188v9h1.188v-4.716c0-2.412 1.332-3.348 2.916-3.348 1.566 0 2.448.936 2.448 2.538V154h1.188v-5.526c0-2.25-1.332-3.69-3.528-3.69zm9.983 0c-2.79 0-4.698 2.07-4.698 4.716 0 2.718 1.944 4.716 4.788 4.716 1.818 0 3.204-.846 3.96-2.07l-1.044-.612c-.486.864-1.476 1.53-2.898 1.53-1.908 0-3.33-1.134-3.582-2.97h7.902c.018-.18.036-.378.036-.558 0-2.466-1.71-4.752-4.464-4.752zm0 1.152c1.548 0 2.988 1.026 3.24 3.006H94.48c.234-1.764 1.584-3.006 3.474-3.006zm21.69-.936l-2.214 7.47-2.358-7.47h-1.188l-2.358 7.47-2.214-7.47h-1.224l2.772 9h1.296l2.322-7.254L116.8 154h1.296l2.772-9h-1.224zm7.227-.216c-1.278 0-2.322.486-3.024 1.62V141.4h-1.188V154h1.188v-4.716c0-2.412 1.332-3.348 2.916-3.348 1.566 0 2.448.936 2.448 2.538V154h1.188v-5.526c0-2.25-1.332-3.69-3.528-3.69zm9.984 0c-2.79 0-4.698 2.07-4.698 4.716 0 2.718 1.944 4.716 4.788 4.716 1.818 0 3.204-.846 3.96-2.07l-1.044-.612c-.486.864-1.476 1.53-2.898 1.53-1.908 0-3.33-1.134-3.582-2.97h7.902c.018-.18.036-.378.036-.558 0-2.466-1.71-4.752-4.464-4.752zm0 1.152c1.548 0 2.988 1.026 3.24 3.006h-6.714c.234-1.764 1.584-3.006 3.474-3.006zm10.86.216V145h-2.592v-2.52l-1.188.36V145h-1.89v1.152h1.89v5.454c0 2.16 1.35 2.754 3.78 2.394v-1.044c-1.746.072-2.592.198-2.592-1.35v-5.454h2.592zm6.192-1.368c-1.278 0-2.322.486-3.024 1.62V141.4h-1.188V154h1.188v-4.716c0-2.412 1.332-3.348 2.916-3.348 1.566 0 2.448.936 2.448 2.538V154h1.188v-5.526c0-2.25-1.332-3.69-3.528-3.69zm9.983 0c-2.79 0-4.698 2.07-4.698 4.716 0 2.718 1.944 4.716 4.788 4.716 1.818 0 3.204-.846 3.96-2.07l-1.044-.612c-.486.864-1.476 1.53-2.898 1.53-1.908 0-3.33-1.134-3.582-2.97h7.902c.018-.18.036-.378.036-.558 0-2.466-1.71-4.752-4.464-4.752zm0 1.152c1.548 0 2.988 1.026 3.24 3.006h-6.714c.234-1.764 1.584-3.006 3.474-3.006zm7.541.558V145h-1.188v9h1.188v-5.004c0-2.232 1.404-2.988 2.844-2.988v-1.152c-1.152 0-2.214.378-2.844 1.638zm18.567-1.71c-1.152 0-2.25.522-2.916 1.638-.504-1.044-1.476-1.638-2.736-1.638-1.08 0-2.052.432-2.754 1.53V145h-1.188v9h1.188v-4.986c0-2.232 1.296-3.078 2.592-3.078 1.278 0 2.106.846 2.106 2.448V154h1.188v-4.986c0-2.232 1.116-3.078 2.502-3.078 1.278 0 2.196.846 2.196 2.448V154h1.188v-5.616c0-2.25-1.386-3.6-3.366-3.6zm6.257-1.692a.864.864 0 100-1.728.864.864 0 000 1.728zM195.66 154h1.188v-9h-1.188v9zm4.645-6.642c0-.972.954-1.422 1.89-1.422.864 0 1.782.342 2.16 1.26l.99-.576c-.522-1.116-1.674-1.836-3.15-1.836-1.8 0-3.078 1.134-3.078 2.574 0 3.312 5.256 2.034 5.256 4.266 0 1.062-1.008 1.44-2.07 1.44-1.206 0-2.142-.594-2.466-1.512l-1.008.594c.45 1.152 1.674 2.07 3.474 2.07 1.926 0 3.258-1.062 3.258-2.592 0-3.312-5.256-2.034-5.256-4.266zm7.629 0c0-.972.954-1.422 1.89-1.422.864 0 1.782.342 2.16 1.26l.99-.576c-.522-1.116-1.674-1.836-3.15-1.836-1.8 0-3.078 1.134-3.078 2.574 0 3.312 5.256 2.034 5.256 4.266 0 1.062-1.008 1.44-2.07 1.44-1.206 0-2.142-.594-2.466-1.512l-1.008.594c.45 1.152 1.674 2.07 3.474 2.07 1.926 0 3.258-1.062 3.258-2.592 0-3.312-5.256-2.034-5.256-4.266zm7.744-4.266a.864.864 0 100-1.728.864.864 0 000 1.728zM215.084 154h1.188v-9h-1.188v9zm7.921-9.216c-1.278 0-2.322.486-3.024 1.62V145h-1.188v9h1.188v-4.716c0-2.412 1.332-3.348 2.916-3.348 1.566 0 2.448.936 2.448 2.538V154h1.188v-5.526c0-2.25-1.332-3.69-3.528-3.69zm13.565.216v1.764c-.756-1.206-2.034-1.98-3.636-1.98-2.538 0-4.644 2.052-4.644 4.716s2.106 4.716 4.644 4.716c1.602 0 2.88-.774 3.636-1.98v1.404c0 1.836-1.242 3.024-3.33 3.024-1.944 0-2.772-.72-3.222-1.638l-1.044.594c.702 1.404 2.196 2.196 4.266 2.196 2.322 0 4.518-1.44 4.518-4.176V145h-1.188zm-3.546 8.064c-1.998 0-3.546-1.566-3.546-3.564s1.548-3.564 3.546-3.564c1.998 0 3.546 1.566 3.546 3.564s-1.548 3.564-3.546 3.564zm12.344-9.972a.864.864 0 100-1.728.864.864 0 000 1.728zM244.774 154h1.188v-9h-1.188v9zm8.479-7.848V145h-2.592v-2.52l-1.188.36V145h-1.89v1.152h1.89v5.454c0 2.16 1.35 2.754 3.78 2.394v-1.044c-1.746.072-2.592.198-2.592-1.35v-5.454h2.592zm5.593-1.368c-2.79 0-4.698 2.07-4.698 4.716 0 2.718 1.944 4.716 4.788 4.716 1.818 0 3.204-.846 3.96-2.07l-1.044-.612c-.486.864-1.476 1.53-2.898 1.53-1.908 0-3.33-1.134-3.582-2.97h7.902c.018-.18.036-.378.036-.558 0-2.466-1.71-4.752-4.464-4.752zm0 1.152c1.548 0 2.988 1.026 3.24 3.006h-6.714c.234-1.764 1.584-3.006 3.474-3.006zm15.947-1.152c-1.152 0-2.25.522-2.916 1.638-.504-1.044-1.476-1.638-2.736-1.638-1.08 0-2.052.432-2.754 1.53V145h-1.188v9h1.188v-4.986c0-2.232 1.296-3.078 2.592-3.078 1.278 0 2.106.846 2.106 2.448V154h1.188v-4.986c0-2.232 1.116-3.078 2.502-3.078 1.278 0 2.196.846 2.196 2.448V154h1.188v-5.616c0-2.25-1.386-3.6-3.366-3.6zm6.6 2.574c0-.972.954-1.422 1.89-1.422.864 0 1.782.342 2.16 1.26l.99-.576c-.522-1.116-1.674-1.836-3.15-1.836-1.8 0-3.078 1.134-3.078 2.574 0 3.312 5.256 2.034 5.256 4.266 0 1.062-1.008 1.44-2.07 1.44-1.206 0-2.142-.594-2.466-1.512l-1.008.594c.45 1.152 1.674 2.07 3.474 2.07 1.926 0 3.258-1.062 3.258-2.592 0-3.312-5.256-2.034-5.256-4.266zM46.096 170l-2.214 7.47-2.358-7.47h-1.188l-2.358 7.47-2.214-7.47H34.54l2.772 9h1.296l2.322-7.254L43.252 179h1.296l2.772-9h-1.224zm6.822-.216c-2.79 0-4.698 2.07-4.698 4.716 0 2.718 1.944 4.716 4.788 4.716 1.818 0 3.204-.846 3.96-2.07l-1.044-.612c-.486.864-1.476 1.53-2.898 1.53-1.908 0-3.33-1.134-3.582-2.97h7.902c.018-.18.036-.378.036-.558 0-2.466-1.71-4.752-4.464-4.752zm0 1.152c1.548 0 2.988 1.026 3.24 3.006h-6.714c.234-1.764 1.584-3.006 3.474-3.006zm7.542.558V170h-1.188v9h1.188v-5.004c0-2.232 1.404-2.988 2.844-2.988v-1.152c-1.152 0-2.214.378-2.844 1.638zm8.085-1.71c-2.79 0-4.698 2.07-4.698 4.716 0 2.718 1.944 4.716 4.788 4.716 1.818 0 3.204-.846 3.96-2.07l-1.044-.612c-.486.864-1.476 1.53-2.898 1.53-1.908 0-3.33-1.134-3.582-2.97h7.902c.018-.18.036-.378.036-.558 0-2.466-1.71-4.752-4.464-4.752zm0 1.152c1.548 0 2.988 1.026 3.24 3.006h-6.714c.234-1.764 1.584-3.006 3.474-3.006zm12.042.558V170h-1.188v9h1.188v-5.004c0-2.232 1.404-2.988 2.844-2.988v-1.152c-1.152 0-2.214.378-2.844 1.638zm8.085-1.71c-2.79 0-4.698 2.07-4.698 4.716 0 2.718 1.944 4.716 4.788 4.716 1.818 0 3.204-.846 3.96-2.07l-1.044-.612c-.486.864-1.476 1.53-2.898 1.53-1.908 0-3.33-1.134-3.582-2.97H93.1c.018-.18.036-.378.036-.558 0-2.466-1.71-4.752-4.464-4.752zm0 1.152c1.548 0 2.988 1.026 3.24 3.006h-6.714c.234-1.764 1.584-3.006 3.474-3.006zm11.178-1.152c-1.602 0-2.88.774-3.636 1.98V170h-1.188v12.6h1.188v-5.364c.756 1.206 2.034 1.98 3.636 1.98 2.538 0 4.644-2.052 4.644-4.716s-2.106-4.716-4.644-4.716zm-.09 8.28c-1.998 0-3.546-1.566-3.546-3.564s1.548-3.564 3.546-3.564c1.998 0 3.546 1.566 3.546 3.564s-1.548 3.564-3.546 3.564zm6.709.936h1.188v-13.14h-1.188V179zm11.449-9v1.764c-.756-1.206-2.034-1.98-3.636-1.98-2.538 0-4.644 2.052-4.644 4.716s2.106 4.716 4.644 4.716c1.602 0 2.88-.774 3.636-1.98V179h1.188v-9h-1.188zm-3.546 8.064c-1.998 0-3.546-1.566-3.546-3.564s1.548-3.564 3.546-3.564c1.998 0 3.546 1.566 3.546 3.564s-1.548 3.564-3.546 3.564zm11.443 1.152c1.764 0 3.294-.918 4.032-2.34l-.99-.576c-.576 1.044-1.674 1.764-3.042 1.764-1.998 0-3.546-1.566-3.546-3.564s1.548-3.564 3.546-3.564c1.35 0 2.484.702 2.97 1.764l.972-.558c-.648-1.422-2.16-2.358-3.942-2.358-2.718 0-4.734 2.052-4.734 4.716s2.016 4.716 4.734 4.716zm9.808-9.432c-2.79 0-4.698 2.07-4.698 4.716 0 2.718 1.944 4.716 4.788 4.716 1.818 0 3.204-.846 3.96-2.07l-1.044-.612c-.486.864-1.476 1.53-2.898 1.53-1.908 0-3.33-1.134-3.582-2.97h7.902c.018-.18.036-.378.036-.558 0-2.466-1.71-4.752-4.464-4.752zm0 1.152c1.548 0 2.988 1.026 3.24 3.006h-6.714c.234-1.764 1.584-3.006 3.474-3.006zm14.094-4.536v5.364c-.756-1.206-2.034-1.98-3.636-1.98-2.538 0-4.644 2.052-4.644 4.716s2.106 4.716 4.644 4.716c1.602 0 2.88-.774 3.636-1.98V179h1.188v-12.6h-1.188zm-3.546 11.664c-1.998 0-3.546-1.566-3.546-3.564s1.548-3.564 3.546-3.564c1.998 0 3.546 1.566 3.546 3.564s-1.548 3.564-3.546 3.564zm15.943 1.152c2.628 0 4.734-2.052 4.734-4.716s-2.106-4.716-4.734-4.716-4.734 2.052-4.734 4.716 2.106 4.716 4.734 4.716zm0-1.152c-1.998 0-3.546-1.566-3.546-3.564s1.548-3.564 3.546-3.564c1.998 0 3.546 1.566 3.546 3.564s-1.548 3.564-3.546 3.564zm7.91-6.57V170h-1.188v9h1.188v-5.004c0-2.232 1.404-2.988 2.844-2.988v-1.152c-1.152 0-2.214.378-2.844 1.638zM185.332 170v4.716c0 2.412-1.332 3.348-2.916 3.348-1.566 0-2.448-.936-2.448-2.538V170h-1.188v5.526c0 2.25 1.332 3.69 3.528 3.69 1.278 0 2.322-.486 3.024-1.62V179h1.188v-9h-1.188zm7.913-.216c-1.278 0-2.322.486-3.024 1.62V170h-1.188v9h1.188v-4.716c0-2.412 1.332-3.348 2.916-3.348 1.566 0 2.448.936 2.448 2.538V179h1.188v-5.526c0-2.25-1.332-3.69-3.528-3.69zm10.326-2.448v-1.152c-2.43-.18-3.78 1.116-3.78 3.456v.36h-1.53v1.152h1.53V179h1.188v-7.848h2.592V170h-2.592v-.36c0-1.728.846-2.448 2.592-2.304zm7.601 2.664v4.716c0 2.412-1.332 3.348-2.916 3.348-1.566 0-2.448-.936-2.448-2.538V170h-1.188v5.526c0 2.25 1.332 3.69 3.528 3.69 1.278 0 2.322-.486 3.024-1.62V179h1.188v-9h-1.188zm3.701 9h1.188v-13.14h-1.188V179zm10.477-9h-4.86v-.36c0-1.728.846-2.304 2.592-2.304.558 0 1.098.036 1.728.144v-1.08c-.648-.144-1.188-.216-1.728-.216-2.43 0-3.78 1.116-3.78 3.456v.36h-1.53v1.152h1.53V179h1.188v-7.848h3.672V179h1.188v-9zm2.514 9h1.188v-13.14h-1.188V179zm3.709 0h1.188v-13.14h-1.188V179zm7.866-9.216c-2.79 0-4.698 2.07-4.698 4.716 0 2.718 1.944 4.716 4.788 4.716 1.818 0 3.204-.846 3.96-2.07l-1.044-.612c-.486.864-1.476 1.53-2.898 1.53-1.908 0-3.33-1.134-3.582-2.97h7.902c.018-.18.036-.378.036-.558 0-2.466-1.71-4.752-4.464-4.752zm0 1.152c1.548 0 2.988 1.026 3.24 3.006h-6.714c.234-1.764 1.584-3.006 3.474-3.006zm14.094-4.536v5.364c-.756-1.206-2.034-1.98-3.636-1.98-2.538 0-4.644 2.052-4.644 4.716s2.106 4.716 4.644 4.716c1.602 0 2.88-.774 3.636-1.98V179h1.188v-12.6h-1.188zm-3.546 11.664c-1.998 0-3.546-1.566-3.546-3.564s1.548-3.564 3.546-3.564c1.998 0 3.546 1.566 3.546 3.564s-1.548 3.564-3.546 3.564z" fill="#1A1A1A"/>
  <path d="M240 233c0-13.807 11.193-25 25-25h232c13.807 0 25 11.193 25 25v36c0 13.807-11.193 25-25 25H265c-13.807 0-25-11.193-25-25v-36z" fill="#fff"/>
  <path d="M278.55 233.588V232.4h-7.11V245h1.26v-5.58h5.58v-1.188h-5.58v-4.644h5.85zm6.168 11.628c2.628 0 4.734-2.052 4.734-4.716s-2.106-4.716-4.734-4.716-4.734 2.052-4.734 4.716 2.106 4.716 4.734 4.716zm0-1.152c-1.998 0-3.546-1.566-3.546-3.564s1.548-3.564 3.546-3.564c1.998 0 3.546 1.566 3.546 3.564s-1.548 3.564-3.546 3.564zm6.722.936h1.188v-13.14h-1.188V245zm3.709 0h1.188v-13.14h-1.188V245zm7.903.216c2.628 0 4.734-2.052 4.734-4.716s-2.106-4.716-4.734-4.716-4.734 2.052-4.734 4.716 2.106 4.716 4.734 4.716zm0-1.152c-1.998 0-3.546-1.566-3.546-3.564s1.548-3.564 3.546-3.564c1.998 0 3.546 1.566 3.546 3.564s-1.548 3.564-3.546 3.564zM320.258 236l-2.214 7.47-2.358-7.47h-1.188l-2.358 7.47-2.214-7.47h-1.224l2.772 9h1.296l2.322-7.254 2.322 7.254h1.296l2.772-9h-1.224zm13.852 0v4.716c0 2.412-1.332 3.348-2.916 3.348-1.566 0-2.448-.936-2.448-2.538V236h-1.188v5.526c0 2.25 1.332 3.69 3.528 3.69 1.278 0 2.322-.486 3.024-1.62V245h1.188v-9h-1.188zm8.525-.216c-1.602 0-2.88.774-3.636 1.98V236h-1.188v12.6h1.188v-5.364c.756 1.206 2.034 1.98 3.636 1.98 2.538 0 4.644-2.052 4.644-4.716s-2.106-4.716-4.644-4.716zm-.09 8.28c-1.998 0-3.546-1.566-3.546-3.564s1.548-3.564 3.546-3.564c1.998 0 3.546 1.566 3.546 3.564s-1.548 3.564-3.546 3.564zM364.59 236l-2.214 7.47-2.358-7.47h-1.188l-2.358 7.47-2.214-7.47h-1.224l2.772 9h1.296l2.322-7.254 2.322 7.254h1.296l2.772-9h-1.224zm3.61-1.908a.864.864 0 100-1.728.864.864 0 000 1.728zM367.606 245h1.188v-9h-1.188v9zm8.479-7.848V236h-2.592v-2.52l-1.188.36V236h-1.89v1.152h1.89v5.454c0 2.16 1.35 2.754 3.78 2.394v-1.044c-1.746.072-2.592.198-2.592-1.35v-5.454h2.592zm6.192-1.368c-1.278 0-2.322.486-3.024 1.62V232.4h-1.188V245h1.188v-4.716c0-2.412 1.332-3.348 2.916-3.348 1.566 0 2.448.936 2.448 2.538V245h1.188v-5.526c0-2.25-1.332-3.69-3.528-3.69zm15.149 0c-1.602 0-2.88.774-3.636 1.98V236h-1.188v12.6h1.188v-5.364c.756 1.206 2.034 1.98 3.636 1.98 2.538 0 4.644-2.052 4.644-4.716s-2.106-4.716-4.644-4.716zm-.09 8.28c-1.998 0-3.546-1.566-3.546-3.564s1.548-3.564 3.546-3.564c1.998 0 3.546 1.566 3.546 3.564s-1.548 3.564-3.546 3.564zm7.303-9.972a.864.864 0 100-1.728.864.864 0 000 1.728zM404.045 245h1.188v-9h-1.188v9zm7.903.216c1.764 0 3.294-.918 4.032-2.34l-.99-.576c-.576 1.044-1.674 1.764-3.042 1.764-1.998 0-3.546-1.566-3.546-3.564s1.548-3.564 3.546-3.564c1.35 0 2.484.702 2.97 1.764l.972-.558c-.648-1.422-2.16-2.358-3.942-2.358-2.718 0-4.734 2.052-4.734 4.716s2.016 4.716 4.734 4.716zm13.01-.216l-4.824-4.68 4.644-4.32h-1.62l-4.284 3.978V232.4h-1.188V245h1.188v-4.338l4.5 4.338h1.584zm4.884-9.216c-2.79 0-4.698 2.07-4.698 4.716 0 2.718 1.944 4.716 4.788 4.716 1.818 0 3.204-.846 3.96-2.07l-1.044-.612c-.486.864-1.476 1.53-2.898 1.53-1.908 0-3.33-1.134-3.582-2.97h7.902c.018-.18.036-.378.036-.558 0-2.466-1.71-4.752-4.464-4.752zm0 1.152c1.548 0 2.988 1.026 3.24 3.006h-6.714c.234-1.764 1.584-3.006 3.474-3.006zm7.542.558V236h-1.188v9h1.188v-5.004c0-2.232 1.404-2.988 2.844-2.988v-1.152c-1.152 0-2.214.378-2.844 1.638zm5.056.864c0-.972.954-1.422 1.89-1.422.864 0 1.782.342 2.16 1.26l.99-.576c-.522-1.116-1.674-1.836-3.15-1.836-1.8 0-3.078 1.134-3.078 2.574 0 3.312 5.256 2.034 5.256 4.266 0 1.062-1.008 1.44-2.07 1.44-1.206 0-2.142-.594-2.466-1.512l-1.008.594c.45 1.152 1.674 2.07 3.474 2.07 1.926 0 3.258-1.062 3.258-2.592 0-3.312-5.256-2.034-5.256-4.266zm-169.992 24.136V261h-1.188v9h1.188v-5.004c0-2.232 1.404-2.988 2.844-2.988v-1.152c-1.152 0-2.214.378-2.844 1.638zm8.085-1.71c-2.79 0-4.698 2.07-4.698 4.716 0 2.718 1.944 4.716 4.788 4.716 1.818 0 3.204-.846 3.96-2.07l-1.044-.612c-.486.864-1.476 1.53-2.898 1.53-1.908 0-3.33-1.134-3.582-2.97h7.902c.018-.18.036-.378.036-.558 0-2.466-1.71-4.752-4.464-4.752zm0 1.152c1.548 0 2.988 1.026 3.24 3.006h-6.714c.234-1.764 1.584-3.006 3.474-3.006zm14.094-.936v1.764c-.756-1.206-2.034-1.98-3.636-1.98-2.538 0-4.644 2.052-4.644 4.716s2.106 4.716 4.644 4.716c1.602 0 2.88-.774 3.636-1.98v1.404c0 1.836-1.242 3.024-3.33 3.024-1.944 0-2.772-.72-3.222-1.638l-1.044.594c.702 1.404 2.196 2.196 4.266 2.196 2.322 0 4.518-1.44 4.518-4.176V261h-1.188zm-3.546 8.064c-1.998 0-3.546-1.566-3.546-3.564s1.548-3.564 3.546-3.564c1.998 0 3.546 1.566 3.546 3.564s-1.548 3.564-3.546 3.564zM306.07 261v1.764c-.756-1.206-2.034-1.98-3.636-1.98-2.538 0-4.644 2.052-4.644 4.716s2.106 4.716 4.644 4.716c1.602 0 2.88-.774 3.636-1.98V270h1.188v-9h-1.188zm-3.546 8.064c-1.998 0-3.546-1.566-3.546-3.564s1.548-3.564 3.546-3.564c1.998 0 3.546 1.566 3.546 3.564s-1.548 3.564-3.546 3.564zm8.438-6.57V261h-1.188v9h1.188v-5.004c0-2.232 1.404-2.988 2.844-2.988v-1.152c-1.152 0-2.214.378-2.844 1.638zm11.667-5.094v5.364c-.756-1.206-2.034-1.98-3.636-1.98-2.538 0-4.644 2.052-4.644 4.716s2.106 4.716 4.644 4.716c1.602 0 2.88-.774 3.636-1.98V270h1.188v-12.6h-1.188zm-3.546 11.664c-1.998 0-3.546-1.566-3.546-3.564s1.548-3.564 3.546-3.564c1.998 0 3.546 1.566 3.546 3.564s-1.548 3.564-3.546 3.564zm7.843-9.972a.864.864 0 100-1.728.864.864 0 000 1.728zM326.332 270h1.188v-9h-1.188v9zm7.921-9.216c-1.278 0-2.322.486-3.024 1.62V261h-1.188v9h1.188v-4.716c0-2.412 1.332-3.348 2.916-3.348 1.566 0 2.448.936 2.448 2.538V270h1.188v-5.526c0-2.25-1.332-3.69-3.528-3.69zm13.565.216v1.764c-.756-1.206-2.034-1.98-3.636-1.98-2.538 0-4.644 2.052-4.644 4.716s2.106 4.716 4.644 4.716c1.602 0 2.88-.774 3.636-1.98v1.404c0 1.836-1.242 3.024-3.33 3.024-1.944 0-2.772-.72-3.222-1.638l-1.044.594c.702 1.404 2.196 2.196 4.266 2.196 2.322 0 4.518-1.44 4.518-4.176V261h-1.188zm-3.546 8.064c-1.998 0-3.546-1.566-3.546-3.564s1.548-3.564 3.546-3.564c1.998 0 3.546 1.566 3.546 3.564s-1.548 3.564-3.546 3.564zm19.49-8.064v1.764c-.756-1.206-2.034-1.98-3.636-1.98-2.538 0-4.644 2.052-4.644 4.716s2.106 4.716 4.644 4.716c1.602 0 2.88-.774 3.636-1.98V270h1.188v-9h-1.188zm-3.546 8.064c-1.998 0-3.546-1.566-3.546-3.564s1.548-3.564 3.546-3.564c1.998 0 3.546 1.566 3.546 3.564s-1.548 3.564-3.546 3.564zm11.461-8.28c-1.278 0-2.322.486-3.024 1.62V261h-1.188v9h1.188v-4.716c0-2.412 1.332-3.348 2.916-3.348 1.566 0 2.448.936 2.448 2.538V270h1.188v-5.526c0-2.25-1.332-3.69-3.528-3.69zm12.129.216l-2.916 7.542-3.384-7.542h-1.26l4.032 9.054-.234.558c-.486 1.17-1.296 1.998-2.466 1.872v1.116c1.62.126 2.952-1.044 3.636-2.772l3.852-9.828h-1.26zm14.936 0v1.764c-.756-1.206-2.034-1.98-3.636-1.98-2.538 0-4.644 2.052-4.644 4.716s2.106 4.716 4.644 4.716c1.602 0 2.88-.774 3.636-1.98v1.404c0 1.836-1.242 3.024-3.33 3.024-1.944 0-2.772-.72-3.222-1.638l-1.044.594c.702 1.404 2.196 2.196 4.266 2.196 2.322 0 4.518-1.44 4.518-4.176V261h-1.188zm-3.546 8.064c-1.998 0-3.546-1.566-3.546-3.564s1.548-3.564 3.546-3.564c1.998 0 3.546 1.566 3.546 3.564s-1.548 3.564-3.546 3.564zm7.844-9.972a.864.864 0 100-1.728.864.864 0 000 1.728zM402.446 270h1.188v-9h-1.188v9zm10.189-9l-3.15 7.758-3.15-7.758h-1.26l3.69 9h1.44l3.69-9h-1.26zm6.502-.216c-2.79 0-4.698 2.07-4.698 4.716 0 2.718 1.944 4.716 4.788 4.716 1.818 0 3.204-.846 3.96-2.07l-1.044-.612c-.486.864-1.476 1.53-2.898 1.53-1.908 0-3.33-1.134-3.582-2.97h7.902c.018-.18.036-.378.036-.558 0-2.466-1.71-4.752-4.464-4.752zm0 1.152c1.548 0 2.988 1.026 3.24 3.006h-6.714c.234-1.764 1.584-3.006 3.474-3.006zm10.565-1.152c-1.278 0-2.322.486-3.024 1.62V261h-1.188v9h1.188v-4.716c0-2.412 1.332-3.348 2.916-3.348 1.566 0 2.448.936 2.448 2.538V270h1.188v-5.526c0-2.25-1.332-3.69-3.528-3.69zm18.066.216v1.764c-.756-1.206-2.034-1.98-3.636-1.98-2.538 0-4.644 2.052-4.644 4.716s2.106 4.716 4.644 4.716c1.602 0 2.88-.774 3.636-1.98V270h1.188v-9h-1.188zm-3.546 8.064c-1.998 0-3.546-1.566-3.546-3.564s1.548-3.564 3.546-3.564c1.998 0 3.546 1.566 3.546 3.564s-1.548 3.564-3.546 3.564zm11.443 1.152c1.764 0 3.294-.918 4.032-2.34l-.99-.576c-.576 1.044-1.674 1.764-3.042 1.764-1.998 0-3.546-1.566-3.546-3.564s1.548-3.564 3.546-3.564c1.35 0 2.484.702 2.97 1.764l.972-.558c-.648-1.422-2.16-2.358-3.942-2.358-2.718 0-4.734 2.052-4.734 4.716s2.016 4.716 4.734 4.716zm10.508-8.064V261h-2.592v-2.52l-1.188.36V261h-1.89v1.152h1.89v5.454c0 2.16 1.35 2.754 3.78 2.394v-1.044c-1.746.072-2.592.198-2.592-1.35v-5.454h2.592zm2.574-3.06a.864.864 0 100-1.728.864.864 0 000 1.728zM468.153 270h1.188v-9h-1.188v9zm7.903.216c2.628 0 4.734-2.052 4.734-4.716s-2.106-4.716-4.734-4.716-4.734 2.052-4.734 4.716 2.106 4.716 4.734 4.716zm0-1.152c-1.998 0-3.546-1.566-3.546-3.564s1.548-3.564 3.546-3.564c1.998 0 3.546 1.566 3.546 3.564s-1.548 3.564-3.546 3.564zm10.934-8.28c-1.278 0-2.322.486-3.024 1.62V261h-1.188v9h1.188v-4.716c0-2.412 1.332-3.348 2.916-3.348 1.566 0 2.448.936 2.448 2.538V270h1.188v-5.526c0-2.25-1.332-3.69-3.528-3.69z" fill="#1A1A1A"/>
  <path d="M532 147c0-13.807 11.193-25 25-25h156c13.807 0 25 11.193 25 25v36c0 13.807-11.193 25-25 25H557c-13.807 0-25-11.193-25-25v-36z" fill="#fff"/>
  <path d="M566.824 159h1.296l4.644-12.6h-1.368l-3.924 10.926-3.924-10.926h-1.368l4.644 12.6zm7.63-10.908a.864.864 0 100-1.728.864.864 0 000 1.728zM573.86 159h1.188v-9h-1.188v9zm7.867-9.216c-2.79 0-4.698 2.07-4.698 4.716 0 2.718 1.944 4.716 4.788 4.716 1.818 0 3.204-.846 3.96-2.07l-1.044-.612c-.486.864-1.476 1.53-2.898 1.53-1.908 0-3.33-1.134-3.582-2.97h7.902c.018-.18.036-.378.036-.558 0-2.466-1.71-4.752-4.464-4.752zm0 1.152c1.548 0 2.988 1.026 3.24 3.006h-6.714c.234-1.764 1.584-3.006 3.474-3.006zm16.838-.936l-2.214 7.47-2.358-7.47h-1.188l-2.358 7.47-2.214-7.47h-1.224l2.772 9h1.296l2.322-7.254 2.322 7.254h1.296l2.772-9h-1.224zm8.451 2.358c0-.972.954-1.422 1.89-1.422.864 0 1.782.342 2.16 1.26l.99-.576c-.522-1.116-1.674-1.836-3.15-1.836-1.8 0-3.078 1.134-3.078 2.574 0 3.312 5.256 2.034 5.256 4.266 0 1.062-1.008 1.44-2.07 1.44-1.206 0-2.142-.594-2.466-1.512l-1.008.594c.45 1.152 1.674 2.07 3.474 2.07 1.926 0 3.258-1.062 3.258-2.592 0-3.312-5.256-2.034-5.256-4.266zm11.657-1.206V150h-2.592v-2.52l-1.188.36V150h-1.89v1.152h1.89v5.454c0 2.16 1.35 2.754 3.78 2.394v-1.044c-1.746.072-2.592.198-2.592-1.35v-5.454h2.592zm9.175-1.152v1.764c-.756-1.206-2.034-1.98-3.636-1.98-2.538 0-4.644 2.052-4.644 4.716s2.106 4.716 4.644 4.716c1.602 0 2.88-.774 3.636-1.98V159h1.188v-9h-1.188zm-3.546 8.064c-1.998 0-3.546-1.566-3.546-3.564s1.548-3.564 3.546-3.564c1.998 0 3.546 1.566 3.546 3.564s-1.548 3.564-3.546 3.564zM639.291 150v1.764c-.756-1.206-2.034-1.98-3.636-1.98-2.538 0-4.644 2.052-4.644 4.716s2.106 4.716 4.644 4.716c1.602 0 2.88-.774 3.636-1.98v1.404c0 1.836-1.242 3.024-3.33 3.024-1.944 0-2.772-.72-3.222-1.638l-1.044.594c.702 1.404 2.196 2.196 4.266 2.196 2.322 0 4.518-1.44 4.518-4.176V150h-1.188zm-3.546 8.064c-1.998 0-3.546-1.566-3.546-3.564s1.548-3.564 3.546-3.564c1.998 0 3.546 1.566 3.546 3.564s-1.548 3.564-3.546 3.564zm7.843-9.972a.864.864 0 100-1.728.864.864 0 000 1.728zM642.994 159h1.188v-9h-1.188v9zm7.921-9.216c-1.278 0-2.322.486-3.024 1.62V150h-1.188v9h1.188v-4.716c0-2.412 1.332-3.348 2.916-3.348 1.566 0 2.448.936 2.448 2.538V159h1.188v-5.526c0-2.25-1.332-3.69-3.528-3.69zm13.565.216v1.764c-.756-1.206-2.034-1.98-3.636-1.98-2.538 0-4.644 2.052-4.644 4.716s2.106 4.716 4.644 4.716c1.602 0 2.88-.774 3.636-1.98v1.404c0 1.836-1.242 3.024-3.33 3.024-1.944 0-2.772-.72-3.222-1.638l-1.044.594c.702 1.404 2.196 2.196 4.266 2.196 2.322 0 4.518-1.44 4.518-4.176V150h-1.188zm-3.546 8.064c-1.998 0-3.546-1.566-3.546-3.564s1.548-3.564 3.546-3.564c1.998 0 3.546 1.566 3.546 3.564s-1.548 3.564-3.546 3.564zm16.52-6.912V150h-2.592v-2.52l-1.188.36V150h-1.89v1.152h1.89v5.454c0 2.16 1.35 2.754 3.78 2.394v-1.044c-1.746.072-2.592.198-2.592-1.35v-5.454h2.592zm2.574-3.06a.864.864 0 100-1.728.864.864 0 000 1.728zM679.434 159h1.188v-9h-1.188v9zm13.303-9.216c-1.152 0-2.25.522-2.916 1.638-.504-1.044-1.476-1.638-2.736-1.638-1.08 0-2.052.432-2.754 1.53V150h-1.188v9h1.188v-4.986c0-2.232 1.296-3.078 2.592-3.078 1.278 0 2.106.846 2.106 2.448V159h1.188v-4.986c0-2.232 1.116-3.078 2.502-3.078 1.278 0 2.196.846 2.196 2.448V159h1.188v-5.616c0-2.25-1.386-3.6-3.366-3.6zm9.822 0c-2.79 0-4.698 2.07-4.698 4.716 0 2.718 1.944 4.716 4.788 4.716 1.818 0 3.204-.846 3.96-2.07l-1.044-.612c-.486.864-1.476 1.53-2.898 1.53-1.908 0-3.33-1.134-3.582-2.97h7.902c.018-.18.036-.378.036-.558 0-2.466-1.71-4.752-4.464-4.752zm0 1.152c1.548 0 2.988 1.026 3.24 3.006h-6.714c.234-1.764 1.584-3.006 3.474-3.006zm-134.799 21.4v-1.152c-2.43-.18-3.78 1.116-3.78 3.456v.36h-1.53v1.152h1.53V184h1.188v-7.848h2.592V175h-2.592v-.36c0-1.728.846-2.448 2.592-2.304zm4.915 11.88c2.628 0 4.734-2.052 4.734-4.716s-2.106-4.716-4.734-4.716-4.734 2.052-4.734 4.716 2.106 4.716 4.734 4.716zm0-1.152c-1.998 0-3.546-1.566-3.546-3.564s1.548-3.564 3.546-3.564c1.998 0 3.546 1.566 3.546 3.564s-1.548 3.564-3.546 3.564zm7.91-6.57V175h-1.188v9h1.188v-5.004c0-2.232 1.404-2.988 2.844-2.988v-1.152c-1.152 0-2.214.378-2.844 1.638zM597.297 175v1.764c-.756-1.206-2.034-1.98-3.636-1.98-2.538 0-4.644 2.052-4.644 4.716s2.106 4.716 4.644 4.716c1.602 0 2.88-.774 3.636-1.98V184h1.188v-9h-1.188zm-3.546 8.064c-1.998 0-3.546-1.566-3.546-3.564s1.548-3.564 3.546-3.564c1.998 0 3.546 1.566 3.546 3.564s-1.548 3.564-3.546 3.564zm11.461-8.28c-1.278 0-2.322.486-3.024 1.62V175H601v9h1.188v-4.716c0-2.412 1.332-3.348 2.916-3.348 1.566 0 2.448.936 2.448 2.538V184h1.188v-5.526c0-2.25-1.332-3.69-3.528-3.69zm12.13.216l-2.916 7.542-3.384-7.542h-1.26l4.032 9.054-.234.558c-.486 1.17-1.296 1.998-2.466 1.872v1.116c1.62.126 2.952-1.044 3.636-2.772l3.852-9.828h-1.26zm14.935 0v1.764c-.756-1.206-2.034-1.98-3.636-1.98-2.538 0-4.644 2.052-4.644 4.716s2.106 4.716 4.644 4.716c1.602 0 2.88-.774 3.636-1.98v1.404c0 1.836-1.242 3.024-3.33 3.024-1.944 0-2.772-.72-3.222-1.638l-1.044.594c.702 1.404 2.196 2.196 4.266 2.196 2.322 0 4.518-1.44 4.518-4.176V175h-1.188zm-3.546 8.064c-1.998 0-3.546-1.566-3.546-3.564s1.548-3.564 3.546-3.564c1.998 0 3.546 1.566 3.546 3.564s-1.548 3.564-3.546 3.564zm7.844-9.972a.864.864 0 100-1.728.864.864 0 000 1.728zM635.981 184h1.188v-9h-1.188v9zm10.189-9l-3.15 7.758-3.15-7.758h-1.26l3.69 9h1.44l3.69-9h-1.26zm6.502-.216c-2.79 0-4.698 2.07-4.698 4.716 0 2.718 1.944 4.716 4.788 4.716 1.818 0 3.204-.846 3.96-2.07l-1.044-.612c-.486.864-1.476 1.53-2.898 1.53-1.908 0-3.33-1.134-3.582-2.97h7.902c.018-.18.036-.378.036-.558 0-2.466-1.71-4.752-4.464-4.752zm0 1.152c1.548 0 2.988 1.026 3.24 3.006h-6.714c.234-1.764 1.584-3.006 3.474-3.006zm10.566-1.152c-1.278 0-2.322.486-3.024 1.62V175h-1.188v9h1.188v-4.716c0-2.412 1.332-3.348 2.916-3.348 1.566 0 2.448.936 2.448 2.538V184h1.188v-5.526c0-2.25-1.332-3.69-3.528-3.69zm10.919-1.692a.864.864 0 100-1.728.864.864 0 000 1.728zM673.563 184h1.188v-9h-1.188v9zm8.479-7.848V175h-2.592v-2.52l-1.188.36V175h-1.89v1.152h1.89v5.454c0 2.16 1.35 2.754 3.78 2.394v-1.044c-1.746.072-2.592.198-2.592-1.35v-5.454h2.592zm5.593-1.368c-2.79 0-4.698 2.07-4.698 4.716 0 2.718 1.944 4.716 4.788 4.716 1.818 0 3.204-.846 3.96-2.07l-1.044-.612c-.486.864-1.476 1.53-2.898 1.53-1.908 0-3.33-1.134-3.582-2.97h7.902c.018-.18.036-.378.036-.558 0-2.466-1.71-4.752-4.464-4.752zm0 1.152c1.548 0 2.988 1.026 3.24 3.006h-6.714c.234-1.764 1.584-3.006 3.474-3.006zm15.948-1.152c-1.152 0-2.25.522-2.916 1.638-.504-1.044-1.476-1.638-2.736-1.638-1.08 0-2.052.432-2.754 1.53V175h-1.188v9h1.188v-4.986c0-2.232 1.296-3.078 2.592-3.078 1.278 0 2.106.846 2.106 2.448V184h1.188v-4.986c0-2.232 1.116-3.078 2.502-3.078 1.278 0 2.196.846 2.196 2.448V184h1.188v-5.616c0-2.25-1.386-3.6-3.366-3.6z" fill="#1A1A1A"/>
  <path d="M738 232c0-13.807 11.193-25 25-25h187c13.807 0 25 11.193 25 25v36c0 13.807-11.193 25-25 25H763c-13.807 0-25-11.193-25-25v-36z" fill="#fff"/>
  <path d="M772.824 244h1.296l4.644-12.6h-1.368l-3.924 10.926-3.924-10.926h-1.368l4.644 12.6zm7.63-10.908a.864.864 0 100-1.728.864.864 0 000 1.728zM779.86 244h1.188v-9h-1.188v9zm7.867-9.216c-2.79 0-4.698 2.07-4.698 4.716 0 2.718 1.944 4.716 4.788 4.716 1.818 0 3.204-.846 3.96-2.07l-1.044-.612c-.486.864-1.476 1.53-2.898 1.53-1.908 0-3.33-1.134-3.582-2.97h7.902c.018-.18.036-.378.036-.558 0-2.466-1.71-4.752-4.464-4.752zm0 1.152c1.548 0 2.988 1.026 3.24 3.006h-6.714c.234-1.764 1.584-3.006 3.474-3.006zm16.838-.936l-2.214 7.47-2.358-7.47h-1.188l-2.358 7.47-2.214-7.47h-1.224l2.772 9h1.296l2.322-7.254 2.322 7.254h1.296l2.772-9h-1.224zm8.451 2.358c0-.972.954-1.422 1.89-1.422.864 0 1.782.342 2.16 1.26l.99-.576c-.522-1.116-1.674-1.836-3.15-1.836-1.8 0-3.078 1.134-3.078 2.574 0 3.312 5.256 2.034 5.256 4.266 0 1.062-1.008 1.44-2.07 1.44-1.206 0-2.142-.594-2.466-1.512l-1.008.594c.45 1.152 1.674 2.07 3.474 2.07 1.926 0 3.258-1.062 3.258-2.592 0-3.312-5.256-2.034-5.256-4.266zm11.657-1.206V235h-2.592v-2.52l-1.188.36V235h-1.89v1.152h1.89v5.454c0 2.16 1.35 2.754 3.78 2.394v-1.044c-1.746.072-2.592.198-2.592-1.35v-5.454h2.592zm9.175-1.152v1.764c-.756-1.206-2.034-1.98-3.636-1.98-2.538 0-4.644 2.052-4.644 4.716s2.106 4.716 4.644 4.716c1.602 0 2.88-.774 3.636-1.98V244h1.188v-9h-1.188zm-3.546 8.064c-1.998 0-3.546-1.566-3.546-3.564s1.548-3.564 3.546-3.564c1.998 0 3.546 1.566 3.546 3.564s-1.548 3.564-3.546 3.564zM845.291 235v1.764c-.756-1.206-2.034-1.98-3.636-1.98-2.538 0-4.644 2.052-4.644 4.716s2.106 4.716 4.644 4.716c1.602 0 2.88-.774 3.636-1.98v1.404c0 1.836-1.242 3.024-3.33 3.024-1.944 0-2.772-.72-3.222-1.638l-1.044.594c.702 1.404 2.196 2.196 4.266 2.196 2.322 0 4.518-1.44 4.518-4.176V235h-1.188zm-3.546 8.064c-1.998 0-3.546-1.566-3.546-3.564s1.548-3.564 3.546-3.564c1.998 0 3.546 1.566 3.546 3.564s-1.548 3.564-3.546 3.564zm7.843-9.972a.864.864 0 100-1.728.864.864 0 000 1.728zM848.994 244h1.188v-9h-1.188v9zm7.921-9.216c-1.278 0-2.322.486-3.024 1.62V235h-1.188v9h1.188v-4.716c0-2.412 1.332-3.348 2.916-3.348 1.566 0 2.448.936 2.448 2.538V244h1.188v-5.526c0-2.25-1.332-3.69-3.528-3.69zm13.565.216v1.764c-.756-1.206-2.034-1.98-3.636-1.98-2.538 0-4.644 2.052-4.644 4.716s2.106 4.716 4.644 4.716c1.602 0 2.88-.774 3.636-1.98v1.404c0 1.836-1.242 3.024-3.33 3.024-1.944 0-2.772-.72-3.222-1.638l-1.044.594c.702 1.404 2.196 2.196 4.266 2.196 2.322 0 4.518-1.44 4.518-4.176V235h-1.188zm-3.546 8.064c-1.998 0-3.546-1.566-3.546-3.564s1.548-3.564 3.546-3.564c1.998 0 3.546 1.566 3.546 3.564s-1.548 3.564-3.546 3.564zm11.75.936h1.188v-13.14h-1.188V244zm7.903.216c2.628 0 4.734-2.052 4.734-4.716s-2.106-4.716-4.734-4.716-4.734 2.052-4.734 4.716 2.106 4.716 4.734 4.716zm0-1.152c-1.998 0-3.546-1.566-3.546-3.564s1.548-3.564 3.546-3.564c1.998 0 3.546 1.566 3.546 3.564s-1.548 3.564-3.546 3.564zm10.916 1.152c1.764 0 3.294-.918 4.032-2.34l-.99-.576c-.576 1.044-1.674 1.764-3.042 1.764-1.998 0-3.546-1.566-3.546-3.564s1.548-3.564 3.546-3.564c1.35 0 2.484.702 2.97 1.764l.972-.558c-.648-1.422-2.16-2.358-3.942-2.358-2.718 0-4.734 2.052-4.734 4.716s2.016 4.716 4.734 4.716zm13.39-9.216v1.764c-.756-1.206-2.034-1.98-3.636-1.98-2.538 0-4.644 2.052-4.644 4.716s2.106 4.716 4.644 4.716c1.602 0 2.88-.774 3.636-1.98V244h1.188v-9h-1.188zm-3.546 8.064c-1.998 0-3.546-1.566-3.546-3.564s1.548-3.564 3.546-3.564c1.998 0 3.546 1.566 3.546 3.564s-1.548 3.564-3.546 3.564zm12.019-6.912V235h-2.592v-2.52l-1.188.36V235h-1.89v1.152h1.89v5.454c0 2.16 1.35 2.754 3.78 2.394v-1.044c-1.746.072-2.592.198-2.592-1.35v-5.454h2.592zm2.574-3.06a.864.864 0 100-1.728.864.864 0 000 1.728zM921.346 244h1.188v-9h-1.188v9zm7.903.216c2.628 0 4.734-2.052 4.734-4.716s-2.106-4.716-4.734-4.716-4.734 2.052-4.734 4.716 2.106 4.716 4.734 4.716zm0-1.152c-1.998 0-3.546-1.566-3.546-3.564s1.548-3.564 3.546-3.564c1.998 0 3.546 1.566 3.546 3.564s-1.548 3.564-3.546 3.564zm10.934-8.28c-1.278 0-2.322.486-3.024 1.62V235h-1.188v9h1.188v-4.716c0-2.412 1.332-3.348 2.916-3.348 1.566 0 2.448.936 2.448 2.538V244h1.188v-5.526c0-2.25-1.332-3.69-3.528-3.69zM773.76 257.336v-1.152c-2.43-.18-3.78 1.116-3.78 3.456v.36h-1.53v1.152h1.53V269h1.188v-7.848h2.592V260h-2.592v-.36c0-1.728.846-2.448 2.592-2.304zm4.915 11.88c2.628 0 4.734-2.052 4.734-4.716s-2.106-4.716-4.734-4.716-4.734 2.052-4.734 4.716 2.106 4.716 4.734 4.716zm0-1.152c-1.998 0-3.546-1.566-3.546-3.564s1.548-3.564 3.546-3.564c1.998 0 3.546 1.566 3.546 3.564s-1.548 3.564-3.546 3.564zm7.91-6.57V260h-1.188v9h1.188v-5.004c0-2.232 1.404-2.988 2.844-2.988v-1.152c-1.152 0-2.214.378-2.844 1.638zM803.297 260v1.764c-.756-1.206-2.034-1.98-3.636-1.98-2.538 0-4.644 2.052-4.644 4.716s2.106 4.716 4.644 4.716c1.602 0 2.88-.774 3.636-1.98V269h1.188v-9h-1.188zm-3.546 8.064c-1.998 0-3.546-1.566-3.546-3.564s1.548-3.564 3.546-3.564c1.998 0 3.546 1.566 3.546 3.564s-1.548 3.564-3.546 3.564zm11.461-8.28c-1.278 0-2.322.486-3.024 1.62V260H807v9h1.188v-4.716c0-2.412 1.332-3.348 2.916-3.348 1.566 0 2.448.936 2.448 2.538V269h1.188v-5.526c0-2.25-1.332-3.69-3.528-3.69zm12.13.216l-2.916 7.542-3.384-7.542h-1.26l4.032 9.054-.234.558c-.486 1.17-1.296 1.998-2.466 1.872v1.116c1.62.126 2.952-1.044 3.636-2.772l3.852-9.828h-1.26zm14.935 0v1.764c-.756-1.206-2.034-1.98-3.636-1.98-2.538 0-4.644 2.052-4.644 4.716s2.106 4.716 4.644 4.716c1.602 0 2.88-.774 3.636-1.98v1.404c0 1.836-1.242 3.024-3.33 3.024-1.944 0-2.772-.72-3.222-1.638l-1.044.594c.702 1.404 2.196 2.196 4.266 2.196 2.322 0 4.518-1.44 4.518-4.176V260h-1.188zm-3.546 8.064c-1.998 0-3.546-1.566-3.546-3.564s1.548-3.564 3.546-3.564c1.998 0 3.546 1.566 3.546 3.564s-1.548 3.564-3.546 3.564zm7.844-9.972a.864.864 0 100-1.728.864.864 0 000 1.728zM841.981 269h1.188v-9h-1.188v9zm10.189-9l-3.15 7.758-3.15-7.758h-1.26l3.69 9h1.44l3.69-9h-1.26zm6.502-.216c-2.79 0-4.698 2.07-4.698 4.716 0 2.718 1.944 4.716 4.788 4.716 1.818 0 3.204-.846 3.96-2.07l-1.044-.612c-.486.864-1.476 1.53-2.898 1.53-1.908 0-3.33-1.134-3.582-2.97h7.902c.018-.18.036-.378.036-.558 0-2.466-1.71-4.752-4.464-4.752zm0 1.152c1.548 0 2.988 1.026 3.24 3.006h-6.714c.234-1.764 1.584-3.006 3.474-3.006zm10.566-1.152c-1.278 0-2.322.486-3.024 1.62V260h-1.188v9h1.188v-4.716c0-2.412 1.332-3.348 2.916-3.348 1.566 0 2.448.936 2.448 2.538V269h1.188v-5.526c0-2.25-1.332-3.69-3.528-3.69zm10.919-1.692a.864.864 0 100-1.728.864.864 0 000 1.728zM879.563 269h1.188v-9h-1.188v9zm8.479-7.848V260h-2.592v-2.52l-1.188.36V260h-1.89v1.152h1.89v5.454c0 2.16 1.35 2.754 3.78 2.394v-1.044c-1.746.072-2.592.198-2.592-1.35v-5.454h2.592zm5.593-1.368c-2.79 0-4.698 2.07-4.698 4.716 0 2.718 1.944 4.716 4.788 4.716 1.818 0 3.204-.846 3.96-2.07l-1.044-.612c-.486.864-1.476 1.53-2.898 1.53-1.908 0-3.33-1.134-3.582-2.97h7.902c.018-.18.036-.378.036-.558 0-2.466-1.71-4.752-4.464-4.752zm0 1.152c1.548 0 2.988 1.026 3.24 3.006h-6.714c.234-1.764 1.584-3.006 3.474-3.006zm15.948-1.152c-1.152 0-2.25.522-2.916 1.638-.504-1.044-1.476-1.638-2.736-1.638-1.08 0-2.052.432-2.754 1.53V260h-1.188v9h1.188v-4.986c0-2.232 1.296-3.078 2.592-3.078 1.278 0 2.106.846 2.106 2.448V269h1.188v-4.986c0-2.232 1.116-3.078 2.502-3.078 1.278 0 2.196.846 2.196 2.448V269h1.188v-5.616c0-2.25-1.386-3.6-3.366-3.6z" fill="#1A1A1A"/>
  <path d="M160.06 114.407a1 1 0 001.282.598l8.457-3.079a.999.999 0 10-.684-1.879l-7.517 2.736-2.737-7.517a.999.999 0 10-1.879.684l3.078 8.457zm17.784-38.83l-17.75 38.065 1.812.846 17.75-38.065-1.812-.846zm456.216 43.268a1 1 0 001.282.597l8.457-3.078a1 1 0 10-.684-1.879l-7.517 2.736-2.736-7.517a1 1 0 00-1.88.684l3.078 8.457zm20.319-44.268l-20.285 43.503 1.812.845 20.286-43.502-1.813-.846zM380.741 205.87a1 1 0 001.225-.707l2.329-8.694a.999.999 0 10-1.932-.517l-2.07 7.727-7.728-2.07a.999.999 0 10-.517 1.931l8.693 2.33zM305.134 75.5l75 129.904 1.732-1-75-129.904-1.732 1zm551.607 130.37a1 1 0 001.225-.707l2.329-8.694a.999.999 0 10-1.932-.517l-2.07 7.727-7.728-2.07a.999.999 0 10-.517 1.931l8.693 2.33zM781.134 75.5l75 129.904 1.732-1-75-129.904-1.732 1z" fill="#AAA"/>
</svg>
