<svg width="932" height="331" fill="none" xmlns="http://www.w3.org/2000/svg">
  <path d="M548 30c0-13.807 11.193-25 25-25h299c13.807 0 25 11.193 25 25v19c0 13.807-11.193 25-25 25H573c-13.807 0-25-11.193-25-25V30z" fill="#fff"/>
  <path d="M584.124 48h3.312l5.832-16.8h-3l-4.488 13.464-4.464-13.464h-3.024l5.832 16.8zm18.845-12v1.704c-.912-1.248-2.328-2.016-4.2-2.016-3.264 0-5.976 2.736-5.976 6.312 0 3.552 2.712 6.312 5.976 6.312 1.872 0 3.288-.768 4.2-2.04V48h2.592V36h-2.592zm-3.792 9.84c-2.16 0-3.792-1.608-3.792-3.84 0-2.232 1.632-3.84 3.792-3.84s3.792 1.608 3.792 3.84c0 2.232-1.632 3.84-3.792 3.84zm9.405 2.16h2.592V30.48h-2.592V48zm6.898-13.8c.912 0 1.656-.768 1.656-1.656a1.66 1.66 0 00-1.656-1.656 1.66 1.66 0 00-1.656 1.656c0 .888.744 1.656 1.656 1.656zM614.184 48h2.592V36h-2.592v12zm15.105-16.8v6.504c-.912-1.248-2.328-2.016-4.2-2.016-3.264 0-5.976 2.736-5.976 6.312 0 3.552 2.712 6.312 5.976 6.312 1.872 0 3.288-.768 4.2-2.04V48h2.592V31.2h-2.592zm-3.792 14.64c-2.16 0-3.792-1.608-3.792-3.84 0-2.232 1.632-3.84 3.792-3.84s3.792 1.608 3.792 3.84c0 2.232-1.632 3.84-3.792 3.84zm18.91-9.84v1.704c-.912-1.248-2.328-2.016-4.2-2.016-3.264 0-5.976 2.736-5.976 6.312 0 3.552 2.712 6.312 5.976 6.312 1.872 0 3.288-.768 4.2-2.04V48h2.592V36h-2.592zm-3.792 9.84c-2.16 0-3.792-1.608-3.792-3.84 0-2.232 1.632-3.84 3.792-3.84s3.792 1.608 3.792 3.84c0 2.232-1.632 3.84-3.792 3.84zm16.101-7.344V36h-2.976v-3.36l-2.592.768V36h-2.208v2.496h2.208v5.76c0 3.12 1.584 4.224 5.568 3.744v-2.328c-1.968.096-2.976.12-2.976-1.416v-5.76h2.976zm3.899 4.608h9.552c.048-.336.096-.72.096-1.08 0-3.456-2.448-6.336-6.024-6.336-3.768 0-6.336 2.76-6.336 6.312 0 3.6 2.568 6.312 6.528 6.312 2.352 0 4.152-.984 5.256-2.616l-2.136-1.248c-.576.84-1.656 1.488-3.096 1.488-1.92 0-3.432-.96-3.84-2.832zm-.025-2.112c.361-1.8 1.681-2.952 3.625-2.952 1.56 0 3.072.888 3.432 2.952h-7.057zm23.617 7.32c3.528 0 6.336-2.76 6.336-6.312 0-3.576-2.808-6.312-6.336-6.312-3.504 0-6.336 2.736-6.336 6.312 0 3.552 2.832 6.312 6.336 6.312zm0-2.52c-2.112 0-3.744-1.608-3.744-3.792 0-2.184 1.632-3.792 3.744-3.792s3.744 1.608 3.744 3.792c0 2.184-1.632 3.792-3.744 3.792zm11.272-7.776V36h-2.592v12h2.592v-6.048c0-2.688 1.992-3.48 3.696-3.36v-2.808c-1.512 0-2.976.6-3.696 2.232zm14.553-6.816v6.504c-.912-1.248-2.328-2.016-4.2-2.016-3.264 0-5.976 2.736-5.976 6.312 0 3.552 2.712 6.312 5.976 6.312 1.872 0 3.288-.768 4.2-2.04V48h2.592V31.2h-2.592zm-3.792 14.64c-2.16 0-3.792-1.608-3.792-3.84 0-2.232 1.632-3.84 3.792-3.84s3.792 1.608 3.792 3.84c0 2.232-1.632 3.84-3.792 3.84zm11.445-2.736h9.552c.048-.336.096-.72.096-1.08 0-3.456-2.448-6.336-6.024-6.336-3.768 0-6.336 2.76-6.336 6.312 0 3.6 2.568 6.312 6.528 6.312 2.352 0 4.152-.984 5.256-2.616l-2.136-1.248c-.576.84-1.656 1.488-3.096 1.488-1.92 0-3.432-.96-3.84-2.832zm-.024-2.112c.36-1.8 1.68-2.952 3.624-2.952 1.56 0 3.072.888 3.432 2.952h-7.056zm14.545-2.976V36h-2.592v12h2.592v-6.048c0-2.688 1.992-3.48 3.696-3.36v-2.808c-1.512 0-2.976.6-3.696 2.232zm17.275 10.296c2.352 0 4.392-1.224 5.4-3.12l-2.232-1.272c-.576 1.104-1.752 1.848-3.192 1.848-2.112 0-3.72-1.608-3.72-3.768 0-2.16 1.608-3.768 3.72-3.768 1.44 0 2.616.72 3.144 1.848l2.232-1.296c-.96-1.872-3-3.096-5.352-3.096-3.624 0-6.336 2.736-6.336 6.312 0 3.552 2.712 6.312 6.336 6.312zm12.75 0c3.528 0 6.336-2.76 6.336-6.312 0-3.576-2.808-6.312-6.336-6.312-3.504 0-6.336 2.736-6.336 6.312 0 3.552 2.832 6.312 6.336 6.312zm0-2.52c-2.112 0-3.744-1.608-3.744-3.792 0-2.184 1.632-3.792 3.744-3.792s3.744 1.608 3.744 3.792c0 2.184-1.632 3.792-3.744 3.792zm21.783-10.104c-1.608 0-2.88.648-3.672 1.896-.696-1.2-1.848-1.896-3.408-1.896-1.488 0-2.664.576-3.432 1.752V36h-2.592v12h2.592v-6.72c0-2.184 1.2-3.168 2.664-3.168 1.416 0 2.256.936 2.256 2.616V48h2.592v-6.72c0-2.184 1.08-3.168 2.616-3.168 1.416 0 2.328.936 2.328 2.616V48h2.592v-7.44c0-3-1.824-4.872-4.536-4.872zm14.103 0c-1.872 0-3.288.768-4.2 2.04V36h-2.592v16.8h2.592v-6.504c.912 1.248 2.328 2.016 4.2 2.016 3.264 0 5.976-2.736 5.976-6.312 0-3.552-2.712-6.312-5.976-6.312zm-.408 10.152c-2.16 0-3.792-1.608-3.792-3.84 0-2.232 1.632-3.84 3.792-3.84s3.792 1.608 3.792 3.84c0 2.232-1.632 3.84-3.792 3.84zm8.733 2.16h2.592V30.48h-2.592V48zm7.641-4.896h9.552c.048-.336.096-.72.096-1.08 0-3.456-2.448-6.336-6.024-6.336-3.768 0-6.336 2.76-6.336 6.312 0 3.6 2.568 6.312 6.528 6.312 2.352 0 4.152-.984 5.256-2.616l-2.136-1.248c-.576.84-1.656 1.488-3.096 1.488-1.92 0-3.432-.96-3.84-2.832zm-.024-2.112c.36-1.8 1.68-2.952 3.624-2.952 1.56 0 3.072.888 3.432 2.952h-7.056zm18.274-2.496V36h-2.976v-3.36l-2.592.768V36h-2.208v2.496h2.208v5.76c0 3.12 1.584 4.224 5.568 3.744v-2.328c-1.968.096-2.976.12-2.976-1.416v-5.76h2.976zm3.647-4.296c.912 0 1.656-.768 1.656-1.656a1.66 1.66 0 00-1.656-1.656 1.66 1.66 0 00-1.656 1.656c0 .888.744 1.656 1.656 1.656zM834.684 48h2.592V36h-2.592v12zm11.265.312c3.528 0 6.336-2.76 6.336-6.312 0-3.576-2.808-6.312-6.336-6.312-3.504 0-6.336 2.736-6.336 6.312 0 3.552 2.832 6.312 6.336 6.312zm0-2.52c-2.112 0-3.744-1.608-3.744-3.792 0-2.184 1.632-3.792 3.744-3.792s3.744 1.608 3.744 3.792c0 2.184-1.632 3.792-3.744 3.792zm14.992-10.104c-1.632 0-2.928.6-3.72 1.848V36h-2.592v12h2.592v-6.432c0-2.448 1.344-3.456 3.048-3.456 1.632 0 2.688.96 2.688 2.784V48h2.592v-7.368c0-3.12-1.92-4.944-4.608-4.944z" fill="#1A1A1A"/>
  <path d="M573 6h299V4H573v2zm323 24v19h2V30h-2zm-24 43H573v2h299v-2zM549 49V30h-2v19h2zm24 24c-13.255 0-24-10.745-24-24h-2c0 14.36 11.641 26 26 26v-2zm323-24c0 13.255-10.745 24-24 24v2c14.359 0 26-11.64 26-26h-2zM872 6c13.255 0 24 10.745 24 24h2c0-14.36-11.641-26-26-26v2zM573 4c-14.359 0-26 11.64-26 26h2c0-13.255 10.745-24 24-24V4z" fill="#E5E5E5"/>
  <path d="M35 30C35 16.193 46.193 5 60 5h336c13.807 0 25 11.193 25 25v19c0 13.807-11.193 25-25 25H60c-13.807 0-25-11.193-25-25V30z" fill="#fff"/>
  <path d="M78.003 48h2.976l-6.072-16.8h-3.312L65.499 48h3l1.176-3.384h7.152L78.003 48zm-7.416-5.976l2.664-7.584 2.664 7.584h-5.328zM91.817 31.2v6.504c-.912-1.248-2.328-2.016-4.2-2.016-3.264 0-5.976 2.736-5.976 6.312 0 3.552 2.712 6.312 5.976 6.312 1.872 0 3.288-.768 4.2-2.04V48h2.592V31.2h-2.592zm-3.792 14.64c-2.16 0-3.792-1.608-3.792-3.84 0-2.232 1.632-3.84 3.792-3.84s3.792 1.608 3.792 3.84c0 2.232-1.632 3.84-3.792 3.84zm18.909-14.64v6.504c-.912-1.248-2.328-2.016-4.2-2.016-3.264 0-5.976 2.736-5.976 6.312 0 3.552 2.712 6.312 5.976 6.312 1.872 0 3.288-.768 4.2-2.04V48h2.592V31.2h-2.592zm-3.792 14.64c-2.16 0-3.792-1.608-3.792-3.84 0-2.232 1.632-3.84 3.792-3.84s3.792 1.608 3.792 3.84c0 2.232-1.632 3.84-3.792 3.84zm11.997-7.824V36h-2.592v12h2.592v-6.048c0-2.688 1.992-3.48 3.696-3.36v-2.808c-1.512 0-2.976.6-3.696 2.232zm7.089 5.088h9.552c.048-.336.096-.72.096-1.08 0-3.456-2.448-6.336-6.024-6.336-3.768 0-6.336 2.76-6.336 6.312 0 3.6 2.568 6.312 6.528 6.312 2.352 0 4.152-.984 5.256-2.616l-2.136-1.248c-.576.84-1.656 1.488-3.096 1.488-1.92 0-3.432-.96-3.84-2.832zm-.024-2.112c.36-1.8 1.68-2.952 3.624-2.952 1.56 0 3.072.888 3.432 2.952h-7.056zm13.812-1.68c0-.864.816-1.272 1.752-1.272.984 0 1.824.432 2.256 1.368l2.184-1.224c-.84-1.584-2.472-2.496-4.44-2.496-2.448 0-4.392 1.416-4.392 3.672 0 4.296 6.456 3.096 6.456 5.232 0 .96-.888 1.344-2.04 1.344-1.32 0-2.28-.648-2.664-1.728l-2.232 1.296c.768 1.728 2.496 2.808 4.896 2.808 2.592 0 4.68-1.296 4.68-3.696 0-4.44-6.456-3.12-6.456-5.304zm10.336 0c0-.864.816-1.272 1.752-1.272.984 0 1.824.432 2.256 1.368l2.184-1.224c-.84-1.584-2.472-2.496-4.44-2.496-2.448 0-4.392 1.416-4.392 3.672 0 4.296 6.456 3.096 6.456 5.232 0 .96-.888 1.344-2.04 1.344-1.32 0-2.28-.648-2.664-1.728l-2.232 1.296c.768 1.728 2.496 2.808 4.896 2.808 2.592 0 4.68-1.296 4.68-3.696 0-4.44-6.456-3.12-6.456-5.304zm20.398 9c2.352 0 4.392-1.224 5.4-3.12l-2.232-1.272c-.576 1.104-1.752 1.848-3.192 1.848-2.112 0-3.72-1.608-3.72-3.768 0-2.16 1.608-3.768 3.72-3.768 1.44 0 2.616.72 3.144 1.848l2.232-1.296c-.96-1.872-3-3.096-5.352-3.096-3.624 0-6.336 2.736-6.336 6.312 0 3.552 2.712 6.312 6.336 6.312zM182.182 36v6.432c0 2.448-1.344 3.456-3.048 3.456-1.632 0-2.688-.96-2.688-2.784V36h-2.592v7.368c0 3.12 1.92 4.944 4.608 4.944 1.632 0 2.928-.6 3.72-1.848V48h2.592V36h-2.592zm7.881 3.312c0-.864.816-1.272 1.752-1.272.984 0 1.824.432 2.256 1.368l2.184-1.224c-.84-1.584-2.472-2.496-4.44-2.496-2.448 0-4.392 1.416-4.392 3.672 0 4.296 6.456 3.096 6.456 5.232 0 .96-.888 1.344-2.04 1.344-1.32 0-2.28-.648-2.664-1.728l-2.232 1.296c.768 1.728 2.496 2.808 4.896 2.808 2.592 0 4.68-1.296 4.68-3.696 0-4.44-6.456-3.12-6.456-5.304zm14.961-.816V36h-2.976v-3.36l-2.592.768V36h-2.208v2.496h2.208v5.76c0 3.12 1.584 4.224 5.568 3.744v-2.328c-1.968.096-2.976.12-2.976-1.416v-5.76h2.976zm7.523 9.816c3.528 0 6.336-2.76 6.336-6.312 0-3.576-2.808-6.312-6.336-6.312-3.504 0-6.336 2.736-6.336 6.312 0 3.552 2.832 6.312 6.336 6.312zm0-2.52c-2.112 0-3.744-1.608-3.744-3.792 0-2.184 1.632-3.792 3.744-3.792s3.744 1.608 3.744 3.792c0 2.184-1.632 3.792-3.744 3.792zm21.784-10.104c-1.608 0-2.88.648-3.672 1.896-.696-1.2-1.848-1.896-3.408-1.896-1.488 0-2.664.576-3.432 1.752V36h-2.592v12h2.592v-6.72c0-2.184 1.2-3.168 2.664-3.168 1.416 0 2.256.936 2.256 2.616V48h2.592v-6.72c0-2.184 1.08-3.168 2.616-3.168 1.416 0 2.328.936 2.328 2.616V48h2.592v-7.44c0-3-1.824-4.872-4.536-4.872zm9.35 7.416h9.552c.048-.336.096-.72.096-1.08 0-3.456-2.448-6.336-6.024-6.336-3.768 0-6.336 2.76-6.336 6.312 0 3.6 2.568 6.312 6.528 6.312 2.352 0 4.152-.984 5.256-2.616l-2.136-1.248c-.576.84-1.656 1.488-3.096 1.488-1.92 0-3.432-.96-3.84-2.832zm-.024-2.112c.36-1.8 1.68-2.952 3.624-2.952 1.56 0 3.072.888 3.432 2.952h-7.056zm14.545-2.976V36h-2.592v12h2.592v-6.048c0-2.688 1.992-3.48 3.696-3.36v-2.808c-1.512 0-2.976.6-3.696 2.232zm17.275 10.296c2.352 0 4.392-1.224 5.4-3.12l-2.232-1.272c-.576 1.104-1.752 1.848-3.192 1.848-2.112 0-3.72-1.608-3.72-3.768 0-2.16 1.608-3.768 3.72-3.768 1.44 0 2.616.72 3.144 1.848l2.232-1.296c-.96-1.872-3-3.096-5.352-3.096-3.624 0-6.336 2.736-6.336 6.312 0 3.552 2.712 6.312 6.336 6.312zm12.75 0c3.528 0 6.336-2.76 6.336-6.312 0-3.576-2.808-6.312-6.336-6.312-3.504 0-6.336 2.736-6.336 6.312 0 3.552 2.832 6.312 6.336 6.312zm0-2.52c-2.112 0-3.744-1.608-3.744-3.792 0-2.184 1.632-3.792 3.744-3.792s3.744 1.608 3.744 3.792c0 2.184-1.632 3.792-3.744 3.792zm21.784-10.104c-1.608 0-2.88.648-3.672 1.896-.696-1.2-1.848-1.896-3.408-1.896-1.488 0-2.664.576-3.432 1.752V36h-2.592v12h2.592v-6.72c0-2.184 1.2-3.168 2.664-3.168 1.416 0 2.256.936 2.256 2.616V48h2.592v-6.72c0-2.184 1.08-3.168 2.616-3.168 1.416 0 2.328.936 2.328 2.616V48h2.592v-7.44c0-3-1.824-4.872-4.536-4.872zm14.102 0c-1.872 0-3.288.768-4.2 2.04V36h-2.592v16.8h2.592v-6.504c.912 1.248 2.328 2.016 4.2 2.016 3.264 0 5.976-2.736 5.976-6.312 0-3.552-2.712-6.312-5.976-6.312zm-.408 10.152c-2.16 0-3.792-1.608-3.792-3.84 0-2.232 1.632-3.84 3.792-3.84s3.792 1.608 3.792 3.84c0 2.232-1.632 3.84-3.792 3.84zm8.733 2.16h2.592V30.48h-2.592V48zm15.105-12v1.704c-.912-1.248-2.328-2.016-4.2-2.016-3.264 0-5.976 2.736-5.976 6.312 0 3.552 2.712 6.312 5.976 6.312 1.872 0 3.288-.768 4.2-2.04V48h2.592V36h-2.592zm-3.792 9.84c-2.16 0-3.792-1.608-3.792-3.84 0-2.232 1.632-3.84 3.792-3.84s3.792 1.608 3.792 3.84c0 2.232-1.632 3.84-3.792 3.84zm10.702-11.64c.912 0 1.656-.768 1.656-1.656a1.66 1.66 0 00-1.656-1.656 1.66 1.66 0 00-1.656 1.656c0 .888.744 1.656 1.656 1.656zM353.157 48h2.592V36h-2.592v12zm11.913-12.312c-1.632 0-2.928.6-3.72 1.848V36h-2.592v12h2.592v-6.432c0-2.448 1.344-3.456 3.048-3.456 1.632 0 2.688.96 2.688 2.784V48h2.592v-7.368c0-3.12-1.92-4.944-4.608-4.944zm14.095 2.808V36h-2.976v-3.36l-2.592.768V36h-2.208v2.496h2.208v5.76c0 3.12 1.584 4.224 5.568 3.744v-2.328c-1.968.096-2.976.12-2.976-1.416v-5.76h2.976zm4.234.816c0-.864.816-1.272 1.752-1.272.984 0 1.824.432 2.256 1.368l2.184-1.224c-.84-1.584-2.472-2.496-4.44-2.496-2.448 0-4.392 1.416-4.392 3.672 0 4.296 6.456 3.096 6.456 5.232 0 .96-.888 1.344-2.04 1.344-1.32 0-2.28-.648-2.664-1.728l-2.232 1.296c.768 1.728 2.496 2.808 4.896 2.808 2.592 0 4.68-1.296 4.68-3.696 0-4.44-6.456-3.12-6.456-5.304z" fill="#1A1A1A"/>
  <path d="M60 6h336V4H60v2zm360 24v19h2V30h-2zm-24 43H60v2h336v-2zM36 49V30h-2v19h2zm24 24c-13.255 0-24-10.745-24-24h-2c0 14.36 11.64 26 26 26v-2zm360-24c0 13.255-10.745 24-24 24v2c14.359 0 26-11.64 26-26h-2zM396 6c13.255 0 24 10.745 24 24h2c0-14.36-11.641-26-26-26v2zM60 4C45.64 4 34 15.64 34 30h2C36 16.745 46.745 6 60 6V4z" fill="#E5E5E5"/>
  <path d="M71 139c0-13.807 11.193-25 25-25h264c13.807 0 25 11.193 25 25v36c0 13.807-11.193 25-25 25H96c-13.807 0-25-11.193-25-25v-36z" fill="#fff"/>
  <path d="M103.7 149.812v-4.572h5.58v-1.188h-5.58v-4.464h6.03V138.4h-7.29V151h7.38v-1.188h-6.12zM119.365 151l-3.51-4.662 3.276-4.338h-1.422l-2.574 3.402-2.574-3.402h-1.422l3.294 4.338-3.528 4.662h1.422l2.808-3.708 2.808 3.708h1.422zm8.723-9v1.764c-.756-1.206-2.034-1.98-3.636-1.98-2.538 0-4.644 2.052-4.644 4.716s2.106 4.716 4.644 4.716c1.602 0 2.88-.774 3.636-1.98V151h1.188v-9h-1.188zm-3.546 8.064c-1.998 0-3.546-1.566-3.546-3.564s1.548-3.564 3.546-3.564c1.998 0 3.546 1.566 3.546 3.564s-1.548 3.564-3.546 3.564zm16.843-8.28c-1.152 0-2.25.522-2.916 1.638-.504-1.044-1.476-1.638-2.736-1.638-1.08 0-2.052.432-2.754 1.53V142h-1.188v9h1.188v-4.986c0-2.232 1.296-3.078 2.592-3.078 1.278 0 2.106.846 2.106 2.448V151h1.188v-4.986c0-2.232 1.116-3.078 2.502-3.078 1.278 0 2.196.846 2.196 2.448V151h1.188v-5.616c0-2.25-1.386-3.6-3.366-3.6zm6.258-1.692a.864.864 0 100-1.728.864.864 0 000 1.728zM147.049 151h1.188v-9h-1.188v9zm7.921-9.216c-1.278 0-2.322.486-3.024 1.62V142h-1.188v9h1.188v-4.716c0-2.412 1.332-3.348 2.916-3.348 1.566 0 2.448.936 2.448 2.538V151h1.188v-5.526c0-2.25-1.332-3.69-3.528-3.69zm9.983 0c-2.79 0-4.698 2.07-4.698 4.716 0 2.718 1.944 4.716 4.788 4.716 1.818 0 3.204-.846 3.96-2.07l-1.044-.612c-.486.864-1.476 1.53-2.898 1.53-1.908 0-3.33-1.134-3.582-2.97h7.902c.018-.18.036-.378.036-.558 0-2.466-1.71-4.752-4.464-4.752zm0 1.152c1.548 0 2.988 1.026 3.24 3.006h-6.714c.234-1.764 1.584-3.006 3.474-3.006zm21.69-.936l-2.214 7.47-2.358-7.47h-1.188l-2.358 7.47-2.214-7.47h-1.224l2.772 9h1.296l2.322-7.254 2.322 7.254h1.296l2.772-9h-1.224zm7.227-.216c-1.278 0-2.322.486-3.024 1.62V138.4h-1.188V151h1.188v-4.716c0-2.412 1.332-3.348 2.916-3.348 1.566 0 2.448.936 2.448 2.538V151h1.188v-5.526c0-2.25-1.332-3.69-3.528-3.69zm9.984 0c-2.79 0-4.698 2.07-4.698 4.716 0 2.718 1.944 4.716 4.788 4.716 1.818 0 3.204-.846 3.96-2.07l-1.044-.612c-.486.864-1.476 1.53-2.898 1.53-1.908 0-3.33-1.134-3.582-2.97h7.902c.018-.18.036-.378.036-.558 0-2.466-1.71-4.752-4.464-4.752zm0 1.152c1.548 0 2.988 1.026 3.24 3.006h-6.714c.234-1.764 1.584-3.006 3.474-3.006zm10.86.216V142h-2.592v-2.52l-1.188.36V142h-1.89v1.152h1.89v5.454c0 2.16 1.35 2.754 3.78 2.394v-1.044c-1.746.072-2.592.198-2.592-1.35v-5.454h2.592zm6.192-1.368c-1.278 0-2.322.486-3.024 1.62V138.4h-1.188V151h1.188v-4.716c0-2.412 1.332-3.348 2.916-3.348 1.566 0 2.448.936 2.448 2.538V151h1.188v-5.526c0-2.25-1.332-3.69-3.528-3.69zm9.983 0c-2.79 0-4.698 2.07-4.698 4.716 0 2.718 1.944 4.716 4.788 4.716 1.818 0 3.204-.846 3.96-2.07l-1.044-.612c-.486.864-1.476 1.53-2.898 1.53-1.908 0-3.33-1.134-3.582-2.97h7.902c.018-.18.036-.378.036-.558 0-2.466-1.71-4.752-4.464-4.752zm0 1.152c1.548 0 2.988 1.026 3.24 3.006h-6.714c.234-1.764 1.584-3.006 3.474-3.006zm7.541.558V142h-1.188v9h1.188v-5.004c0-2.232 1.404-2.988 2.844-2.988v-1.152c-1.152 0-2.214.378-2.844 1.638zm18.567-1.71c-1.152 0-2.25.522-2.916 1.638-.504-1.044-1.476-1.638-2.736-1.638-1.08 0-2.052.432-2.754 1.53V142h-1.188v9h1.188v-4.986c0-2.232 1.296-3.078 2.592-3.078 1.278 0 2.106.846 2.106 2.448V151h1.188v-4.986c0-2.232 1.116-3.078 2.502-3.078 1.278 0 2.196.846 2.196 2.448V151h1.188v-5.616c0-2.25-1.386-3.6-3.366-3.6zm6.257-1.692a.864.864 0 100-1.728.864.864 0 000 1.728zM262.66 151h1.188v-9h-1.188v9zm4.645-6.642c0-.972.954-1.422 1.89-1.422.864 0 1.782.342 2.16 1.26l.99-.576c-.522-1.116-1.674-1.836-3.15-1.836-1.8 0-3.078 1.134-3.078 2.574 0 3.312 5.256 2.034 5.256 4.266 0 1.062-1.008 1.44-2.07 1.44-1.206 0-2.142-.594-2.466-1.512l-1.008.594c.45 1.152 1.674 2.07 3.474 2.07 1.926 0 3.258-1.062 3.258-2.592 0-3.312-5.256-2.034-5.256-4.266zm7.629 0c0-.972.954-1.422 1.89-1.422.864 0 1.782.342 2.16 1.26l.99-.576c-.522-1.116-1.674-1.836-3.15-1.836-1.8 0-3.078 1.134-3.078 2.574 0 3.312 5.256 2.034 5.256 4.266 0 1.062-1.008 1.44-2.07 1.44-1.206 0-2.142-.594-2.466-1.512l-1.008.594c.45 1.152 1.674 2.07 3.474 2.07 1.926 0 3.258-1.062 3.258-2.592 0-3.312-5.256-2.034-5.256-4.266zm7.744-4.266a.864.864 0 100-1.728.864.864 0 000 1.728zM282.084 151h1.188v-9h-1.188v9zm7.921-9.216c-1.278 0-2.322.486-3.024 1.62V142h-1.188v9h1.188v-4.716c0-2.412 1.332-3.348 2.916-3.348 1.566 0 2.448.936 2.448 2.538V151h1.188v-5.526c0-2.25-1.332-3.69-3.528-3.69zm13.565.216v1.764c-.756-1.206-2.034-1.98-3.636-1.98-2.538 0-4.644 2.052-4.644 4.716s2.106 4.716 4.644 4.716c1.602 0 2.88-.774 3.636-1.98v1.404c0 1.836-1.242 3.024-3.33 3.024-1.944 0-2.772-.72-3.222-1.638l-1.044.594c.702 1.404 2.196 2.196 4.266 2.196 2.322 0 4.518-1.44 4.518-4.176V142h-1.188zm-3.546 8.064c-1.998 0-3.546-1.566-3.546-3.564s1.548-3.564 3.546-3.564c1.998 0 3.546 1.566 3.546 3.564s-1.548 3.564-3.546 3.564zm12.344-9.972a.864.864 0 100-1.728.864.864 0 000 1.728zM311.774 151h1.188v-9h-1.188v9zm8.479-7.848V142h-2.592v-2.52l-1.188.36V142h-1.89v1.152h1.89v5.454c0 2.16 1.35 2.754 3.78 2.394v-1.044c-1.746.072-2.592.198-2.592-1.35v-5.454h2.592zm5.593-1.368c-2.79 0-4.698 2.07-4.698 4.716 0 2.718 1.944 4.716 4.788 4.716 1.818 0 3.204-.846 3.96-2.07l-1.044-.612c-.486.864-1.476 1.53-2.898 1.53-1.908 0-3.33-1.134-3.582-2.97h7.902c.018-.18.036-.378.036-.558 0-2.466-1.71-4.752-4.464-4.752zm0 1.152c1.548 0 2.988 1.026 3.24 3.006h-6.714c.234-1.764 1.584-3.006 3.474-3.006zm15.947-1.152c-1.152 0-2.25.522-2.916 1.638-.504-1.044-1.476-1.638-2.736-1.638-1.08 0-2.052.432-2.754 1.53V142h-1.188v9h1.188v-4.986c0-2.232 1.296-3.078 2.592-3.078 1.278 0 2.106.846 2.106 2.448V151h1.188v-4.986c0-2.232 1.116-3.078 2.502-3.078 1.278 0 2.196.846 2.196 2.448V151h1.188v-5.616c0-2.25-1.386-3.6-3.366-3.6zm6.6 2.574c0-.972.954-1.422 1.89-1.422.864 0 1.782.342 2.16 1.26l.99-.576c-.522-1.116-1.674-1.836-3.15-1.836-1.8 0-3.078 1.134-3.078 2.574 0 3.312 5.256 2.034 5.256 4.266 0 1.062-1.008 1.44-2.07 1.44-1.206 0-2.142-.594-2.466-1.512l-1.008.594c.45 1.152 1.674 2.07 3.474 2.07 1.926 0 3.258-1.062 3.258-2.592 0-3.312-5.256-2.034-5.256-4.266zM113.096 167l-2.214 7.47-2.358-7.47h-1.188l-2.358 7.47-2.214-7.47h-1.224l2.772 9h1.296l2.322-7.254 2.322 7.254h1.296l2.772-9h-1.224zm6.822-.216c-2.79 0-4.698 2.07-4.698 4.716 0 2.718 1.944 4.716 4.788 4.716 1.818 0 3.204-.846 3.96-2.07l-1.044-.612c-.486.864-1.476 1.53-2.898 1.53-1.908 0-3.33-1.134-3.582-2.97h7.902c.018-.18.036-.378.036-.558 0-2.466-1.71-4.752-4.464-4.752zm0 1.152c1.548 0 2.988 1.026 3.24 3.006h-6.714c.234-1.764 1.584-3.006 3.474-3.006zm7.542.558V167h-1.188v9h1.188v-5.004c0-2.232 1.404-2.988 2.844-2.988v-1.152c-1.152 0-2.214.378-2.844 1.638zm8.085-1.71c-2.79 0-4.698 2.07-4.698 4.716 0 2.718 1.944 4.716 4.788 4.716 1.818 0 3.204-.846 3.96-2.07l-1.044-.612c-.486.864-1.476 1.53-2.898 1.53-1.908 0-3.33-1.134-3.582-2.97h7.902c.018-.18.036-.378.036-.558 0-2.466-1.71-4.752-4.464-4.752zm0 1.152c1.548 0 2.988 1.026 3.24 3.006h-6.714c.234-1.764 1.584-3.006 3.474-3.006zm12.042.558V167h-1.188v9h1.188v-5.004c0-2.232 1.404-2.988 2.844-2.988v-1.152c-1.152 0-2.214.378-2.844 1.638zm8.085-1.71c-2.79 0-4.698 2.07-4.698 4.716 0 2.718 1.944 4.716 4.788 4.716 1.818 0 3.204-.846 3.96-2.07l-1.044-.612c-.486.864-1.476 1.53-2.898 1.53-1.908 0-3.33-1.134-3.582-2.97h7.902c.018-.18.036-.378.036-.558 0-2.466-1.71-4.752-4.464-4.752zm0 1.152c1.548 0 2.988 1.026 3.24 3.006h-6.714c.234-1.764 1.584-3.006 3.474-3.006zm11.178-1.152c-1.602 0-2.88.774-3.636 1.98V167h-1.188v12.6h1.188v-5.364c.756 1.206 2.034 1.98 3.636 1.98 2.538 0 4.644-2.052 4.644-4.716s-2.106-4.716-4.644-4.716zm-.09 8.28c-1.998 0-3.546-1.566-3.546-3.564s1.548-3.564 3.546-3.564c1.998 0 3.546 1.566 3.546 3.564s-1.548 3.564-3.546 3.564zm6.709.936h1.188v-13.14h-1.188V176zm11.449-9v1.764c-.756-1.206-2.034-1.98-3.636-1.98-2.538 0-4.644 2.052-4.644 4.716s2.106 4.716 4.644 4.716c1.602 0 2.88-.774 3.636-1.98V176h1.188v-9h-1.188zm-3.546 8.064c-1.998 0-3.546-1.566-3.546-3.564s1.548-3.564 3.546-3.564c1.998 0 3.546 1.566 3.546 3.564s-1.548 3.564-3.546 3.564zm11.443 1.152c1.764 0 3.294-.918 4.032-2.34l-.99-.576c-.576 1.044-1.674 1.764-3.042 1.764-1.998 0-3.546-1.566-3.546-3.564s1.548-3.564 3.546-3.564c1.35 0 2.484.702 2.97 1.764l.972-.558c-.648-1.422-2.16-2.358-3.942-2.358-2.718 0-4.734 2.052-4.734 4.716s2.016 4.716 4.734 4.716zm9.808-9.432c-2.79 0-4.698 2.07-4.698 4.716 0 2.718 1.944 4.716 4.788 4.716 1.818 0 3.204-.846 3.96-2.07l-1.044-.612c-.486.864-1.476 1.53-2.898 1.53-1.908 0-3.33-1.134-3.582-2.97h7.902c.018-.18.036-.378.036-.558 0-2.466-1.71-4.752-4.464-4.752zm0 1.152c1.548 0 2.988 1.026 3.24 3.006h-6.714c.234-1.764 1.584-3.006 3.474-3.006zm14.094-4.536v5.364c-.756-1.206-2.034-1.98-3.636-1.98-2.538 0-4.644 2.052-4.644 4.716s2.106 4.716 4.644 4.716c1.602 0 2.88-.774 3.636-1.98V176h1.188v-12.6h-1.188zm-3.546 11.664c-1.998 0-3.546-1.566-3.546-3.564s1.548-3.564 3.546-3.564c1.998 0 3.546 1.566 3.546 3.564s-1.548 3.564-3.546 3.564zm15.943 1.152c2.628 0 4.734-2.052 4.734-4.716s-2.106-4.716-4.734-4.716-4.734 2.052-4.734 4.716 2.106 4.716 4.734 4.716zm0-1.152c-1.998 0-3.546-1.566-3.546-3.564s1.548-3.564 3.546-3.564c1.998 0 3.546 1.566 3.546 3.564s-1.548 3.564-3.546 3.564zm7.91-6.57V167h-1.188v9h1.188v-5.004c0-2.232 1.404-2.988 2.844-2.988v-1.152c-1.152 0-2.214.378-2.844 1.638zM252.332 167v4.716c0 2.412-1.332 3.348-2.916 3.348-1.566 0-2.448-.936-2.448-2.538V167h-1.188v5.526c0 2.25 1.332 3.69 3.528 3.69 1.278 0 2.322-.486 3.024-1.62V176h1.188v-9h-1.188zm7.913-.216c-1.278 0-2.322.486-3.024 1.62V167h-1.188v9h1.188v-4.716c0-2.412 1.332-3.348 2.916-3.348 1.566 0 2.448.936 2.448 2.538V176h1.188v-5.526c0-2.25-1.332-3.69-3.528-3.69zm10.326-2.448v-1.152c-2.43-.18-3.78 1.116-3.78 3.456v.36h-1.53v1.152h1.53V176h1.188v-7.848h2.592V167h-2.592v-.36c0-1.728.846-2.448 2.592-2.304zm7.601 2.664v4.716c0 2.412-1.332 3.348-2.916 3.348-1.566 0-2.448-.936-2.448-2.538V167h-1.188v5.526c0 2.25 1.332 3.69 3.528 3.69 1.278 0 2.322-.486 3.024-1.62V176h1.188v-9h-1.188zm3.701 9h1.188v-13.14h-1.188V176zm10.477-9h-4.86v-.36c0-1.728.846-2.304 2.592-2.304.558 0 1.098.036 1.728.144v-1.08c-.648-.144-1.188-.216-1.728-.216-2.43 0-3.78 1.116-3.78 3.456v.36h-1.53v1.152h1.53V176h1.188v-7.848h3.672V176h1.188v-9zm2.514 9h1.188v-13.14h-1.188V176zm3.709 0h1.188v-13.14h-1.188V176zm7.866-9.216c-2.79 0-4.698 2.07-4.698 4.716 0 2.718 1.944 4.716 4.788 4.716 1.818 0 3.204-.846 3.96-2.07l-1.044-.612c-.486.864-1.476 1.53-2.898 1.53-1.908 0-3.33-1.134-3.582-2.97h7.902c.018-.18.036-.378.036-.558 0-2.466-1.71-4.752-4.464-4.752zm0 1.152c1.548 0 2.988 1.026 3.24 3.006h-6.714c.234-1.764 1.584-3.006 3.474-3.006zm14.094-4.536v5.364c-.756-1.206-2.034-1.98-3.636-1.98-2.538 0-4.644 2.052-4.644 4.716s2.106 4.716 4.644 4.716c1.602 0 2.88-.774 3.636-1.98V176h1.188v-12.6h-1.188zm-3.546 11.664c-1.998 0-3.546-1.566-3.546-3.564s1.548-3.564 3.546-3.564c1.998 0 3.546 1.566 3.546 3.564s-1.548 3.564-3.546 3.564z" fill="#1A1A1A"/>
  <path d="M96 115h264v-2H96v2zm288 24v36h2v-36h-2zm-24 60H96v2h264v-2zM72 175v-36h-2v36h2zm24 24c-13.255 0-24-10.745-24-24h-2c0 14.359 11.64 26 26 26v-2zm288-24c0 13.255-10.745 24-24 24v2c14.359 0 26-11.641 26-26h-2zm-24-60c13.255 0 24 10.745 24 24h2c0-14.359-11.641-26-26-26v2zm-264-2c-14.36 0-26 11.641-26 26h2c0-13.255 10.745-24 24-24v-2z" fill="#E5E5E5"/>
  <path d="M87 265c0-13.807 11.193-25 25-25h232c13.807 0 25 11.193 25 25v36c0 13.807-11.193 25-25 25H112c-13.807 0-25-11.193-25-25v-36z" fill="#fff"/>
  <path d="M125.55 265.588V264.4h-7.11V277h1.26v-5.58h5.58v-1.188h-5.58v-4.644h5.85zm6.168 11.628c2.628 0 4.734-2.052 4.734-4.716s-2.106-4.716-4.734-4.716-4.734 2.052-4.734 4.716 2.106 4.716 4.734 4.716zm0-1.152c-1.998 0-3.546-1.566-3.546-3.564s1.548-3.564 3.546-3.564c1.998 0 3.546 1.566 3.546 3.564s-1.548 3.564-3.546 3.564zm6.722.936h1.188v-13.14h-1.188V277zm3.709 0h1.188v-13.14h-1.188V277zm7.903.216c2.628 0 4.734-2.052 4.734-4.716s-2.106-4.716-4.734-4.716-4.734 2.052-4.734 4.716 2.106 4.716 4.734 4.716zm0-1.152c-1.998 0-3.546-1.566-3.546-3.564s1.548-3.564 3.546-3.564c1.998 0 3.546 1.566 3.546 3.564s-1.548 3.564-3.546 3.564zM167.258 268l-2.214 7.47-2.358-7.47h-1.188l-2.358 7.47-2.214-7.47h-1.224l2.772 9h1.296l2.322-7.254 2.322 7.254h1.296l2.772-9h-1.224zm13.852 0v4.716c0 2.412-1.332 3.348-2.916 3.348-1.566 0-2.448-.936-2.448-2.538V268h-1.188v5.526c0 2.25 1.332 3.69 3.528 3.69 1.278 0 2.322-.486 3.024-1.62V277h1.188v-9h-1.188zm8.525-.216c-1.602 0-2.88.774-3.636 1.98V268h-1.188v12.6h1.188v-5.364c.756 1.206 2.034 1.98 3.636 1.98 2.538 0 4.644-2.052 4.644-4.716s-2.106-4.716-4.644-4.716zm-.09 8.28c-1.998 0-3.546-1.566-3.546-3.564s1.548-3.564 3.546-3.564c1.998 0 3.546 1.566 3.546 3.564s-1.548 3.564-3.546 3.564zM211.59 268l-2.214 7.47-2.358-7.47h-1.188l-2.358 7.47-2.214-7.47h-1.224l2.772 9h1.296l2.322-7.254 2.322 7.254h1.296l2.772-9h-1.224zm3.61-1.908a.864.864 0 100-1.728.864.864 0 000 1.728zM214.606 277h1.188v-9h-1.188v9zm8.479-7.848V268h-2.592v-2.52l-1.188.36V268h-1.89v1.152h1.89v5.454c0 2.16 1.35 2.754 3.78 2.394v-1.044c-1.746.072-2.592.198-2.592-1.35v-5.454h2.592zm6.192-1.368c-1.278 0-2.322.486-3.024 1.62V264.4h-1.188V277h1.188v-4.716c0-2.412 1.332-3.348 2.916-3.348 1.566 0 2.448.936 2.448 2.538V277h1.188v-5.526c0-2.25-1.332-3.69-3.528-3.69zm15.149 0c-1.602 0-2.88.774-3.636 1.98V268h-1.188v12.6h1.188v-5.364c.756 1.206 2.034 1.98 3.636 1.98 2.538 0 4.644-2.052 4.644-4.716s-2.106-4.716-4.644-4.716zm-.09 8.28c-1.998 0-3.546-1.566-3.546-3.564s1.548-3.564 3.546-3.564c1.998 0 3.546 1.566 3.546 3.564s-1.548 3.564-3.546 3.564zm7.303-9.972a.864.864 0 100-1.728.864.864 0 000 1.728zM251.045 277h1.188v-9h-1.188v9zm7.903.216c1.764 0 3.294-.918 4.032-2.34l-.99-.576c-.576 1.044-1.674 1.764-3.042 1.764-1.998 0-3.546-1.566-3.546-3.564s1.548-3.564 3.546-3.564c1.35 0 2.484.702 2.97 1.764l.972-.558c-.648-1.422-2.16-2.358-3.942-2.358-2.718 0-4.734 2.052-4.734 4.716s2.016 4.716 4.734 4.716zm13.01-.216l-4.824-4.68 4.644-4.32h-1.62l-4.284 3.978V264.4h-1.188V277h1.188v-4.338l4.5 4.338h1.584zm4.884-9.216c-2.79 0-4.698 2.07-4.698 4.716 0 2.718 1.944 4.716 4.788 4.716 1.818 0 3.204-.846 3.96-2.07l-1.044-.612c-.486.864-1.476 1.53-2.898 1.53-1.908 0-3.33-1.134-3.582-2.97h7.902c.018-.18.036-.378.036-.558 0-2.466-1.71-4.752-4.464-4.752zm0 1.152c1.548 0 2.988 1.026 3.24 3.006h-6.714c.234-1.764 1.584-3.006 3.474-3.006zm7.542.558V268h-1.188v9h1.188v-5.004c0-2.232 1.404-2.988 2.844-2.988v-1.152c-1.152 0-2.214.378-2.844 1.638zm5.056.864c0-.972.954-1.422 1.89-1.422.864 0 1.782.342 2.16 1.26l.99-.576c-.522-1.116-1.674-1.836-3.15-1.836-1.8 0-3.078 1.134-3.078 2.574 0 3.312 5.256 2.034 5.256 4.266 0 1.062-1.008 1.44-2.07 1.44-1.206 0-2.142-.594-2.466-1.512l-1.008.594c.45 1.152 1.674 2.07 3.474 2.07 1.926 0 3.258-1.062 3.258-2.592 0-3.312-5.256-2.034-5.256-4.266zm-169.992 24.136V293h-1.188v9h1.188v-5.004c0-2.232 1.404-2.988 2.844-2.988v-1.152c-1.152 0-2.214.378-2.844 1.638zm8.085-1.71c-2.79 0-4.698 2.07-4.698 4.716 0 2.718 1.944 4.716 4.788 4.716 1.818 0 3.204-.846 3.96-2.07l-1.044-.612c-.486.864-1.476 1.53-2.898 1.53-1.908 0-3.33-1.134-3.582-2.97h7.902c.018-.18.036-.378.036-.558 0-2.466-1.71-4.752-4.464-4.752zm0 1.152c1.548 0 2.988 1.026 3.24 3.006h-6.714c.234-1.764 1.584-3.006 3.474-3.006zm14.094-.936v1.764c-.756-1.206-2.034-1.98-3.636-1.98-2.538 0-4.644 2.052-4.644 4.716s2.106 4.716 4.644 4.716c1.602 0 2.88-.774 3.636-1.98v1.404c0 1.836-1.242 3.024-3.33 3.024-1.944 0-2.772-.72-3.222-1.638l-1.044.594c.702 1.404 2.196 2.196 4.266 2.196 2.322 0 4.518-1.44 4.518-4.176V293h-1.188zm-3.546 8.064c-1.998 0-3.546-1.566-3.546-3.564s1.548-3.564 3.546-3.564c1.998 0 3.546 1.566 3.546 3.564s-1.548 3.564-3.546 3.564zM153.07 293v1.764c-.756-1.206-2.034-1.98-3.636-1.98-2.538 0-4.644 2.052-4.644 4.716s2.106 4.716 4.644 4.716c1.602 0 2.88-.774 3.636-1.98V302h1.188v-9h-1.188zm-3.546 8.064c-1.998 0-3.546-1.566-3.546-3.564s1.548-3.564 3.546-3.564c1.998 0 3.546 1.566 3.546 3.564s-1.548 3.564-3.546 3.564zm8.438-6.57V293h-1.188v9h1.188v-5.004c0-2.232 1.404-2.988 2.844-2.988v-1.152c-1.152 0-2.214.378-2.844 1.638zm11.667-5.094v5.364c-.756-1.206-2.034-1.98-3.636-1.98-2.538 0-4.644 2.052-4.644 4.716s2.106 4.716 4.644 4.716c1.602 0 2.88-.774 3.636-1.98V302h1.188v-12.6h-1.188zm-3.546 11.664c-1.998 0-3.546-1.566-3.546-3.564s1.548-3.564 3.546-3.564c1.998 0 3.546 1.566 3.546 3.564s-1.548 3.564-3.546 3.564zm7.843-9.972a.864.864 0 100-1.728.864.864 0 000 1.728zM173.332 302h1.188v-9h-1.188v9zm7.921-9.216c-1.278 0-2.322.486-3.024 1.62V293h-1.188v9h1.188v-4.716c0-2.412 1.332-3.348 2.916-3.348 1.566 0 2.448.936 2.448 2.538V302h1.188v-5.526c0-2.25-1.332-3.69-3.528-3.69zm13.565.216v1.764c-.756-1.206-2.034-1.98-3.636-1.98-2.538 0-4.644 2.052-4.644 4.716s2.106 4.716 4.644 4.716c1.602 0 2.88-.774 3.636-1.98v1.404c0 1.836-1.242 3.024-3.33 3.024-1.944 0-2.772-.72-3.222-1.638l-1.044.594c.702 1.404 2.196 2.196 4.266 2.196 2.322 0 4.518-1.44 4.518-4.176V293h-1.188zm-3.546 8.064c-1.998 0-3.546-1.566-3.546-3.564s1.548-3.564 3.546-3.564c1.998 0 3.546 1.566 3.546 3.564s-1.548 3.564-3.546 3.564zm19.49-8.064v1.764c-.756-1.206-2.034-1.98-3.636-1.98-2.538 0-4.644 2.052-4.644 4.716s2.106 4.716 4.644 4.716c1.602 0 2.88-.774 3.636-1.98V302h1.188v-9h-1.188zm-3.546 8.064c-1.998 0-3.546-1.566-3.546-3.564s1.548-3.564 3.546-3.564c1.998 0 3.546 1.566 3.546 3.564s-1.548 3.564-3.546 3.564zm11.461-8.28c-1.278 0-2.322.486-3.024 1.62V293h-1.188v9h1.188v-4.716c0-2.412 1.332-3.348 2.916-3.348 1.566 0 2.448.936 2.448 2.538V302h1.188v-5.526c0-2.25-1.332-3.69-3.528-3.69zm12.129.216l-2.916 7.542-3.384-7.542h-1.26l4.032 9.054-.234.558c-.486 1.17-1.296 1.998-2.466 1.872v1.116c1.62.126 2.952-1.044 3.636-2.772l3.852-9.828h-1.26zm14.936 0v1.764c-.756-1.206-2.034-1.98-3.636-1.98-2.538 0-4.644 2.052-4.644 4.716s2.106 4.716 4.644 4.716c1.602 0 2.88-.774 3.636-1.98v1.404c0 1.836-1.242 3.024-3.33 3.024-1.944 0-2.772-.72-3.222-1.638l-1.044.594c.702 1.404 2.196 2.196 4.266 2.196 2.322 0 4.518-1.44 4.518-4.176V293h-1.188zm-3.546 8.064c-1.998 0-3.546-1.566-3.546-3.564s1.548-3.564 3.546-3.564c1.998 0 3.546 1.566 3.546 3.564s-1.548 3.564-3.546 3.564zm7.844-9.972a.864.864 0 100-1.728.864.864 0 000 1.728zM249.446 302h1.188v-9h-1.188v9zm10.189-9l-3.15 7.758-3.15-7.758h-1.26l3.69 9h1.44l3.69-9h-1.26zm6.502-.216c-2.79 0-4.698 2.07-4.698 4.716 0 2.718 1.944 4.716 4.788 4.716 1.818 0 3.204-.846 3.96-2.07l-1.044-.612c-.486.864-1.476 1.53-2.898 1.53-1.908 0-3.33-1.134-3.582-2.97h7.902c.018-.18.036-.378.036-.558 0-2.466-1.71-4.752-4.464-4.752zm0 1.152c1.548 0 2.988 1.026 3.24 3.006h-6.714c.234-1.764 1.584-3.006 3.474-3.006zm10.565-1.152c-1.278 0-2.322.486-3.024 1.62V293h-1.188v9h1.188v-4.716c0-2.412 1.332-3.348 2.916-3.348 1.566 0 2.448.936 2.448 2.538V302h1.188v-5.526c0-2.25-1.332-3.69-3.528-3.69zm18.066.216v1.764c-.756-1.206-2.034-1.98-3.636-1.98-2.538 0-4.644 2.052-4.644 4.716s2.106 4.716 4.644 4.716c1.602 0 2.88-.774 3.636-1.98V302h1.188v-9h-1.188zm-3.546 8.064c-1.998 0-3.546-1.566-3.546-3.564s1.548-3.564 3.546-3.564c1.998 0 3.546 1.566 3.546 3.564s-1.548 3.564-3.546 3.564zm11.443 1.152c1.764 0 3.294-.918 4.032-2.34l-.99-.576c-.576 1.044-1.674 1.764-3.042 1.764-1.998 0-3.546-1.566-3.546-3.564s1.548-3.564 3.546-3.564c1.35 0 2.484.702 2.97 1.764l.972-.558c-.648-1.422-2.16-2.358-3.942-2.358-2.718 0-4.734 2.052-4.734 4.716s2.016 4.716 4.734 4.716zm10.508-8.064V293h-2.592v-2.52l-1.188.36V293h-1.89v1.152h1.89v5.454c0 2.16 1.35 2.754 3.78 2.394v-1.044c-1.746.072-2.592.198-2.592-1.35v-5.454h2.592zm2.574-3.06a.864.864 0 100-1.728.864.864 0 000 1.728zM315.153 302h1.188v-9h-1.188v9zm7.903.216c2.628 0 4.734-2.052 4.734-4.716s-2.106-4.716-4.734-4.716-4.734 2.052-4.734 4.716 2.106 4.716 4.734 4.716zm0-1.152c-1.998 0-3.546-1.566-3.546-3.564s1.548-3.564 3.546-3.564c1.998 0 3.546 1.566 3.546 3.564s-1.548 3.564-3.546 3.564zm10.934-8.28c-1.278 0-2.322.486-3.024 1.62V293h-1.188v9h1.188v-4.716c0-2.412 1.332-3.348 2.916-3.348 1.566 0 2.448.936 2.448 2.538V302h1.188v-5.526c0-2.25-1.332-3.69-3.528-3.69z" fill="#1A1A1A"/>
  <path d="M112 241h232v-2H112v2zm256 24v36h2v-36h-2zm-24 60H112v2h232v-2zM88 301v-36h-2v36h2zm24 24c-13.255 0-24-10.745-24-24h-2c0 14.359 11.64 26 26 26v-2zm256-24c0 13.255-10.745 24-24 24v2c14.359 0 26-11.641 26-26h-2zm-24-60c13.255 0 24 10.745 24 24h2c0-14.359-11.641-26-26-26v2zm-232-2c-14.36 0-26 11.641-26 26h2c0-13.255 10.745-24 24-24v-2z" fill="#E5E5E5"/>
  <path d="M620 139c0-13.807 11.193-25 25-25h156c13.807 0 25 11.193 25 25v36c0 13.807-11.193 25-25 25H645c-13.807 0-25-11.193-25-25v-36z" fill="#fff"/>
  <path d="M654.824 151h1.296l4.644-12.6h-1.368l-3.924 10.926-3.924-10.926h-1.368l4.644 12.6zm7.63-10.908a.864.864 0 100-1.728.864.864 0 000 1.728zM661.86 151h1.188v-9h-1.188v9zm7.867-9.216c-2.79 0-4.698 2.07-4.698 4.716 0 2.718 1.944 4.716 4.788 4.716 1.818 0 3.204-.846 3.96-2.07l-1.044-.612c-.486.864-1.476 1.53-2.898 1.53-1.908 0-3.33-1.134-3.582-2.97h7.902c.018-.18.036-.378.036-.558 0-2.466-1.71-4.752-4.464-4.752zm0 1.152c1.548 0 2.988 1.026 3.24 3.006h-6.714c.234-1.764 1.584-3.006 3.474-3.006zm16.838-.936l-2.214 7.47-2.358-7.47h-1.188l-2.358 7.47-2.214-7.47h-1.224l2.772 9h1.296l2.322-7.254 2.322 7.254h1.296l2.772-9h-1.224zm8.451 2.358c0-.972.954-1.422 1.89-1.422.864 0 1.782.342 2.16 1.26l.99-.576c-.522-1.116-1.674-1.836-3.15-1.836-1.8 0-3.078 1.134-3.078 2.574 0 3.312 5.256 2.034 5.256 4.266 0 1.062-1.008 1.44-2.07 1.44-1.206 0-2.142-.594-2.466-1.512l-1.008.594c.45 1.152 1.674 2.07 3.474 2.07 1.926 0 3.258-1.062 3.258-2.592 0-3.312-5.256-2.034-5.256-4.266zm11.657-1.206V142h-2.592v-2.52l-1.188.36V142h-1.89v1.152h1.89v5.454c0 2.16 1.35 2.754 3.78 2.394v-1.044c-1.746.072-2.592.198-2.592-1.35v-5.454h2.592zm9.175-1.152v1.764c-.756-1.206-2.034-1.98-3.636-1.98-2.538 0-4.644 2.052-4.644 4.716s2.106 4.716 4.644 4.716c1.602 0 2.88-.774 3.636-1.98V151h1.188v-9h-1.188zm-3.546 8.064c-1.998 0-3.546-1.566-3.546-3.564s1.548-3.564 3.546-3.564c1.998 0 3.546 1.566 3.546 3.564s-1.548 3.564-3.546 3.564zM727.291 142v1.764c-.756-1.206-2.034-1.98-3.636-1.98-2.538 0-4.644 2.052-4.644 4.716s2.106 4.716 4.644 4.716c1.602 0 2.88-.774 3.636-1.98v1.404c0 1.836-1.242 3.024-3.33 3.024-1.944 0-2.772-.72-3.222-1.638l-1.044.594c.702 1.404 2.196 2.196 4.266 2.196 2.322 0 4.518-1.44 4.518-4.176V142h-1.188zm-3.546 8.064c-1.998 0-3.546-1.566-3.546-3.564s1.548-3.564 3.546-3.564c1.998 0 3.546 1.566 3.546 3.564s-1.548 3.564-3.546 3.564zm7.843-9.972a.864.864 0 100-1.728.864.864 0 000 1.728zM730.994 151h1.188v-9h-1.188v9zm7.921-9.216c-1.278 0-2.322.486-3.024 1.62V142h-1.188v9h1.188v-4.716c0-2.412 1.332-3.348 2.916-3.348 1.566 0 2.448.936 2.448 2.538V151h1.188v-5.526c0-2.25-1.332-3.69-3.528-3.69zm13.565.216v1.764c-.756-1.206-2.034-1.98-3.636-1.98-2.538 0-4.644 2.052-4.644 4.716s2.106 4.716 4.644 4.716c1.602 0 2.88-.774 3.636-1.98v1.404c0 1.836-1.242 3.024-3.33 3.024-1.944 0-2.772-.72-3.222-1.638l-1.044.594c.702 1.404 2.196 2.196 4.266 2.196 2.322 0 4.518-1.44 4.518-4.176V142h-1.188zm-3.546 8.064c-1.998 0-3.546-1.566-3.546-3.564s1.548-3.564 3.546-3.564c1.998 0 3.546 1.566 3.546 3.564s-1.548 3.564-3.546 3.564zm16.52-6.912V142h-2.592v-2.52l-1.188.36V142h-1.89v1.152h1.89v5.454c0 2.16 1.35 2.754 3.78 2.394v-1.044c-1.746.072-2.592.198-2.592-1.35v-5.454h2.592zm2.574-3.06a.864.864 0 100-1.728.864.864 0 000 1.728zM767.434 151h1.188v-9h-1.188v9zm13.303-9.216c-1.152 0-2.25.522-2.916 1.638-.504-1.044-1.476-1.638-2.736-1.638-1.08 0-2.052.432-2.754 1.53V142h-1.188v9h1.188v-4.986c0-2.232 1.296-3.078 2.592-3.078 1.278 0 2.106.846 2.106 2.448V151h1.188v-4.986c0-2.232 1.116-3.078 2.502-3.078 1.278 0 2.196.846 2.196 2.448V151h1.188v-5.616c0-2.25-1.386-3.6-3.366-3.6zm9.822 0c-2.79 0-4.698 2.07-4.698 4.716 0 2.718 1.944 4.716 4.788 4.716 1.818 0 3.204-.846 3.96-2.07l-1.044-.612c-.486.864-1.476 1.53-2.898 1.53-1.908 0-3.33-1.134-3.582-2.97h7.902c.018-.18.036-.378.036-.558 0-2.466-1.71-4.752-4.464-4.752zm0 1.152c1.548 0 2.988 1.026 3.24 3.006h-6.714c.234-1.764 1.584-3.006 3.474-3.006zm-134.799 21.4v-1.152c-2.43-.18-3.78 1.116-3.78 3.456v.36h-1.53v1.152h1.53V176h1.188v-7.848h2.592V167h-2.592v-.36c0-1.728.846-2.448 2.592-2.304zm4.915 11.88c2.628 0 4.734-2.052 4.734-4.716s-2.106-4.716-4.734-4.716-4.734 2.052-4.734 4.716 2.106 4.716 4.734 4.716zm0-1.152c-1.998 0-3.546-1.566-3.546-3.564s1.548-3.564 3.546-3.564c1.998 0 3.546 1.566 3.546 3.564s-1.548 3.564-3.546 3.564zm7.91-6.57V167h-1.188v9h1.188v-5.004c0-2.232 1.404-2.988 2.844-2.988v-1.152c-1.152 0-2.214.378-2.844 1.638zM685.297 167v1.764c-.756-1.206-2.034-1.98-3.636-1.98-2.538 0-4.644 2.052-4.644 4.716s2.106 4.716 4.644 4.716c1.602 0 2.88-.774 3.636-1.98V176h1.188v-9h-1.188zm-3.546 8.064c-1.998 0-3.546-1.566-3.546-3.564s1.548-3.564 3.546-3.564c1.998 0 3.546 1.566 3.546 3.564s-1.548 3.564-3.546 3.564zm11.461-8.28c-1.278 0-2.322.486-3.024 1.62V167H689v9h1.188v-4.716c0-2.412 1.332-3.348 2.916-3.348 1.566 0 2.448.936 2.448 2.538V176h1.188v-5.526c0-2.25-1.332-3.69-3.528-3.69zm12.13.216l-2.916 7.542-3.384-7.542h-1.26l4.032 9.054-.234.558c-.486 1.17-1.296 1.998-2.466 1.872v1.116c1.62.126 2.952-1.044 3.636-2.772l3.852-9.828h-1.26zm14.935 0v1.764c-.756-1.206-2.034-1.98-3.636-1.98-2.538 0-4.644 2.052-4.644 4.716s2.106 4.716 4.644 4.716c1.602 0 2.88-.774 3.636-1.98v1.404c0 1.836-1.242 3.024-3.33 3.024-1.944 0-2.772-.72-3.222-1.638l-1.044.594c.702 1.404 2.196 2.196 4.266 2.196 2.322 0 4.518-1.44 4.518-4.176V167h-1.188zm-3.546 8.064c-1.998 0-3.546-1.566-3.546-3.564s1.548-3.564 3.546-3.564c1.998 0 3.546 1.566 3.546 3.564s-1.548 3.564-3.546 3.564zm7.844-9.972a.864.864 0 100-1.728.864.864 0 000 1.728zM723.981 176h1.188v-9h-1.188v9zm10.189-9l-3.15 7.758-3.15-7.758h-1.26l3.69 9h1.44l3.69-9h-1.26zm6.502-.216c-2.79 0-4.698 2.07-4.698 4.716 0 2.718 1.944 4.716 4.788 4.716 1.818 0 3.204-.846 3.96-2.07l-1.044-.612c-.486.864-1.476 1.53-2.898 1.53-1.908 0-3.33-1.134-3.582-2.97h7.902c.018-.18.036-.378.036-.558 0-2.466-1.71-4.752-4.464-4.752zm0 1.152c1.548 0 2.988 1.026 3.24 3.006h-6.714c.234-1.764 1.584-3.006 3.474-3.006zm10.566-1.152c-1.278 0-2.322.486-3.024 1.62V167h-1.188v9h1.188v-4.716c0-2.412 1.332-3.348 2.916-3.348 1.566 0 2.448.936 2.448 2.538V176h1.188v-5.526c0-2.25-1.332-3.69-3.528-3.69zm10.919-1.692a.864.864 0 100-1.728.864.864 0 000 1.728zM761.563 176h1.188v-9h-1.188v9zm8.479-7.848V167h-2.592v-2.52l-1.188.36V167h-1.89v1.152h1.89v5.454c0 2.16 1.35 2.754 3.78 2.394v-1.044c-1.746.072-2.592.198-2.592-1.35v-5.454h2.592zm5.593-1.368c-2.79 0-4.698 2.07-4.698 4.716 0 2.718 1.944 4.716 4.788 4.716 1.818 0 3.204-.846 3.96-2.07l-1.044-.612c-.486.864-1.476 1.53-2.898 1.53-1.908 0-3.33-1.134-3.582-2.97h7.902c.018-.18.036-.378.036-.558 0-2.466-1.71-4.752-4.464-4.752zm0 1.152c1.548 0 2.988 1.026 3.24 3.006h-6.714c.234-1.764 1.584-3.006 3.474-3.006zm15.948-1.152c-1.152 0-2.25.522-2.916 1.638-.504-1.044-1.476-1.638-2.736-1.638-1.08 0-2.052.432-2.754 1.53V167h-1.188v9h1.188v-4.986c0-2.232 1.296-3.078 2.592-3.078 1.278 0 2.106.846 2.106 2.448V176h1.188v-4.986c0-2.232 1.116-3.078 2.502-3.078 1.278 0 2.196.846 2.196 2.448V176h1.188v-5.616c0-2.25-1.386-3.6-3.366-3.6z" fill="#1A1A1A"/>
  <path d="M645 115h156v-2H645v2zm180 24v36h2v-36h-2zm-24 60H645v2h156v-2zm-180-24v-36h-2v36h2zm24 24c-13.255 0-24-10.745-24-24h-2c0 14.359 11.641 26 26 26v-2zm180-24c0 13.255-10.745 24-24 24v2c14.359 0 26-11.641 26-26h-2zm-24-60c13.255 0 24 10.745 24 24h2c0-14.359-11.641-26-26-26v2zm-156-2c-14.359 0-26 11.641-26 26h2c0-13.255 10.745-24 24-24v-2z" fill="#E5E5E5"/>
  <path d="M604 265c0-13.807 11.193-25 25-25h187c13.807 0 25 11.193 25 25v36c0 13.807-11.193 25-25 25H629c-13.807 0-25-11.193-25-25v-36z" fill="#fff"/>
  <path d="M638.824 277h1.296l4.644-12.6h-1.368l-3.924 10.926-3.924-10.926h-1.368l4.644 12.6zm7.63-10.908a.864.864 0 100-1.728.864.864 0 000 1.728zM645.86 277h1.188v-9h-1.188v9zm7.867-9.216c-2.79 0-4.698 2.07-4.698 4.716 0 2.718 1.944 4.716 4.788 4.716 1.818 0 3.204-.846 3.96-2.07l-1.044-.612c-.486.864-1.476 1.53-2.898 1.53-1.908 0-3.33-1.134-3.582-2.97h7.902c.018-.18.036-.378.036-.558 0-2.466-1.71-4.752-4.464-4.752zm0 1.152c1.548 0 2.988 1.026 3.24 3.006h-6.714c.234-1.764 1.584-3.006 3.474-3.006zm16.838-.936l-2.214 7.47-2.358-7.47h-1.188l-2.358 7.47-2.214-7.47h-1.224l2.772 9h1.296l2.322-7.254 2.322 7.254h1.296l2.772-9h-1.224zm8.451 2.358c0-.972.954-1.422 1.89-1.422.864 0 1.782.342 2.16 1.26l.99-.576c-.522-1.116-1.674-1.836-3.15-1.836-1.8 0-3.078 1.134-3.078 2.574 0 3.312 5.256 2.034 5.256 4.266 0 1.062-1.008 1.44-2.07 1.44-1.206 0-2.142-.594-2.466-1.512l-1.008.594c.45 1.152 1.674 2.07 3.474 2.07 1.926 0 3.258-1.062 3.258-2.592 0-3.312-5.256-2.034-5.256-4.266zm11.657-1.206V268h-2.592v-2.52l-1.188.36V268h-1.89v1.152h1.89v5.454c0 2.16 1.35 2.754 3.78 2.394v-1.044c-1.746.072-2.592.198-2.592-1.35v-5.454h2.592zm9.175-1.152v1.764c-.756-1.206-2.034-1.98-3.636-1.98-2.538 0-4.644 2.052-4.644 4.716s2.106 4.716 4.644 4.716c1.602 0 2.88-.774 3.636-1.98V277h1.188v-9h-1.188zm-3.546 8.064c-1.998 0-3.546-1.566-3.546-3.564s1.548-3.564 3.546-3.564c1.998 0 3.546 1.566 3.546 3.564s-1.548 3.564-3.546 3.564zM711.291 268v1.764c-.756-1.206-2.034-1.98-3.636-1.98-2.538 0-4.644 2.052-4.644 4.716s2.106 4.716 4.644 4.716c1.602 0 2.88-.774 3.636-1.98v1.404c0 1.836-1.242 3.024-3.33 3.024-1.944 0-2.772-.72-3.222-1.638l-1.044.594c.702 1.404 2.196 2.196 4.266 2.196 2.322 0 4.518-1.44 4.518-4.176V268h-1.188zm-3.546 8.064c-1.998 0-3.546-1.566-3.546-3.564s1.548-3.564 3.546-3.564c1.998 0 3.546 1.566 3.546 3.564s-1.548 3.564-3.546 3.564zm7.843-9.972a.864.864 0 100-1.728.864.864 0 000 1.728zM714.994 277h1.188v-9h-1.188v9zm7.921-9.216c-1.278 0-2.322.486-3.024 1.62V268h-1.188v9h1.188v-4.716c0-2.412 1.332-3.348 2.916-3.348 1.566 0 2.448.936 2.448 2.538V277h1.188v-5.526c0-2.25-1.332-3.69-3.528-3.69zm13.565.216v1.764c-.756-1.206-2.034-1.98-3.636-1.98-2.538 0-4.644 2.052-4.644 4.716s2.106 4.716 4.644 4.716c1.602 0 2.88-.774 3.636-1.98v1.404c0 1.836-1.242 3.024-3.33 3.024-1.944 0-2.772-.72-3.222-1.638l-1.044.594c.702 1.404 2.196 2.196 4.266 2.196 2.322 0 4.518-1.44 4.518-4.176V268h-1.188zm-3.546 8.064c-1.998 0-3.546-1.566-3.546-3.564s1.548-3.564 3.546-3.564c1.998 0 3.546 1.566 3.546 3.564s-1.548 3.564-3.546 3.564zm11.75.936h1.188v-13.14h-1.188V277zm7.903.216c2.628 0 4.734-2.052 4.734-4.716s-2.106-4.716-4.734-4.716-4.734 2.052-4.734 4.716 2.106 4.716 4.734 4.716zm0-1.152c-1.998 0-3.546-1.566-3.546-3.564s1.548-3.564 3.546-3.564c1.998 0 3.546 1.566 3.546 3.564s-1.548 3.564-3.546 3.564zm10.916 1.152c1.764 0 3.294-.918 4.032-2.34l-.99-.576c-.576 1.044-1.674 1.764-3.042 1.764-1.998 0-3.546-1.566-3.546-3.564s1.548-3.564 3.546-3.564c1.35 0 2.484.702 2.97 1.764l.972-.558c-.648-1.422-2.16-2.358-3.942-2.358-2.718 0-4.734 2.052-4.734 4.716s2.016 4.716 4.734 4.716zm13.39-9.216v1.764c-.756-1.206-2.034-1.98-3.636-1.98-2.538 0-4.644 2.052-4.644 4.716s2.106 4.716 4.644 4.716c1.602 0 2.88-.774 3.636-1.98V277h1.188v-9h-1.188zm-3.546 8.064c-1.998 0-3.546-1.566-3.546-3.564s1.548-3.564 3.546-3.564c1.998 0 3.546 1.566 3.546 3.564s-1.548 3.564-3.546 3.564zm12.019-6.912V268h-2.592v-2.52l-1.188.36V268h-1.89v1.152h1.89v5.454c0 2.16 1.35 2.754 3.78 2.394v-1.044c-1.746.072-2.592.198-2.592-1.35v-5.454h2.592zm2.574-3.06a.864.864 0 100-1.728.864.864 0 000 1.728zM787.346 277h1.188v-9h-1.188v9zm7.903.216c2.628 0 4.734-2.052 4.734-4.716s-2.106-4.716-4.734-4.716-4.734 2.052-4.734 4.716 2.106 4.716 4.734 4.716zm0-1.152c-1.998 0-3.546-1.566-3.546-3.564s1.548-3.564 3.546-3.564c1.998 0 3.546 1.566 3.546 3.564s-1.548 3.564-3.546 3.564zm10.934-8.28c-1.278 0-2.322.486-3.024 1.62V268h-1.188v9h1.188v-4.716c0-2.412 1.332-3.348 2.916-3.348 1.566 0 2.448.936 2.448 2.538V277h1.188v-5.526c0-2.25-1.332-3.69-3.528-3.69zM639.76 290.336v-1.152c-2.43-.18-3.78 1.116-3.78 3.456v.36h-1.53v1.152h1.53V302h1.188v-7.848h2.592V293h-2.592v-.36c0-1.728.846-2.448 2.592-2.304zm4.915 11.88c2.628 0 4.734-2.052 4.734-4.716s-2.106-4.716-4.734-4.716-4.734 2.052-4.734 4.716 2.106 4.716 4.734 4.716zm0-1.152c-1.998 0-3.546-1.566-3.546-3.564s1.548-3.564 3.546-3.564c1.998 0 3.546 1.566 3.546 3.564s-1.548 3.564-3.546 3.564zm7.91-6.57V293h-1.188v9h1.188v-5.004c0-2.232 1.404-2.988 2.844-2.988v-1.152c-1.152 0-2.214.378-2.844 1.638zM669.297 293v1.764c-.756-1.206-2.034-1.98-3.636-1.98-2.538 0-4.644 2.052-4.644 4.716s2.106 4.716 4.644 4.716c1.602 0 2.88-.774 3.636-1.98V302h1.188v-9h-1.188zm-3.546 8.064c-1.998 0-3.546-1.566-3.546-3.564s1.548-3.564 3.546-3.564c1.998 0 3.546 1.566 3.546 3.564s-1.548 3.564-3.546 3.564zm11.461-8.28c-1.278 0-2.322.486-3.024 1.62V293H673v9h1.188v-4.716c0-2.412 1.332-3.348 2.916-3.348 1.566 0 2.448.936 2.448 2.538V302h1.188v-5.526c0-2.25-1.332-3.69-3.528-3.69zm12.13.216l-2.916 7.542-3.384-7.542h-1.26l4.032 9.054-.234.558c-.486 1.17-1.296 1.998-2.466 1.872v1.116c1.62.126 2.952-1.044 3.636-2.772l3.852-9.828h-1.26zm14.935 0v1.764c-.756-1.206-2.034-1.98-3.636-1.98-2.538 0-4.644 2.052-4.644 4.716s2.106 4.716 4.644 4.716c1.602 0 2.88-.774 3.636-1.98v1.404c0 1.836-1.242 3.024-3.33 3.024-1.944 0-2.772-.72-3.222-1.638l-1.044.594c.702 1.404 2.196 2.196 4.266 2.196 2.322 0 4.518-1.44 4.518-4.176V293h-1.188zm-3.546 8.064c-1.998 0-3.546-1.566-3.546-3.564s1.548-3.564 3.546-3.564c1.998 0 3.546 1.566 3.546 3.564s-1.548 3.564-3.546 3.564zm7.844-9.972a.864.864 0 100-1.728.864.864 0 000 1.728zM707.981 302h1.188v-9h-1.188v9zm10.189-9l-3.15 7.758-3.15-7.758h-1.26l3.69 9h1.44l3.69-9h-1.26zm6.502-.216c-2.79 0-4.698 2.07-4.698 4.716 0 2.718 1.944 4.716 4.788 4.716 1.818 0 3.204-.846 3.96-2.07l-1.044-.612c-.486.864-1.476 1.53-2.898 1.53-1.908 0-3.33-1.134-3.582-2.97h7.902c.018-.18.036-.378.036-.558 0-2.466-1.71-4.752-4.464-4.752zm0 1.152c1.548 0 2.988 1.026 3.24 3.006h-6.714c.234-1.764 1.584-3.006 3.474-3.006zm10.566-1.152c-1.278 0-2.322.486-3.024 1.62V293h-1.188v9h1.188v-4.716c0-2.412 1.332-3.348 2.916-3.348 1.566 0 2.448.936 2.448 2.538V302h1.188v-5.526c0-2.25-1.332-3.69-3.528-3.69zm10.919-1.692a.864.864 0 100-1.728.864.864 0 000 1.728zM745.563 302h1.188v-9h-1.188v9zm8.479-7.848V293h-2.592v-2.52l-1.188.36V293h-1.89v1.152h1.89v5.454c0 2.16 1.35 2.754 3.78 2.394v-1.044c-1.746.072-2.592.198-2.592-1.35v-5.454h2.592zm5.593-1.368c-2.79 0-4.698 2.07-4.698 4.716 0 2.718 1.944 4.716 4.788 4.716 1.818 0 3.204-.846 3.96-2.07l-1.044-.612c-.486.864-1.476 1.53-2.898 1.53-1.908 0-3.33-1.134-3.582-2.97h7.902c.018-.18.036-.378.036-.558 0-2.466-1.71-4.752-4.464-4.752zm0 1.152c1.548 0 2.988 1.026 3.24 3.006h-6.714c.234-1.764 1.584-3.006 3.474-3.006zm15.948-1.152c-1.152 0-2.25.522-2.916 1.638-.504-1.044-1.476-1.638-2.736-1.638-1.08 0-2.052.432-2.754 1.53V293h-1.188v9h1.188v-4.986c0-2.232 1.296-3.078 2.592-3.078 1.278 0 2.106.846 2.106 2.448V302h1.188v-4.986c0-2.232 1.116-3.078 2.502-3.078 1.278 0 2.196.846 2.196 2.448V302h1.188v-5.616c0-2.25-1.386-3.6-3.366-3.6z" fill="#1A1A1A"/>
  <path d="M629 241h187v-2H629v2zm211 24v36h2v-36h-2zm-24 60H629v2h187v-2zm-211-24v-36h-2v36h2zm24 24c-13.255 0-24-10.745-24-24h-2c0 14.359 11.641 26 26 26v-2zm211-24c0 13.255-10.745 24-24 24v2c14.359 0 26-11.641 26-26h-2zm-24-60c13.255 0 24 10.745 24 24h2c0-14.359-11.641-26-26-26v2zm-187-2c-14.359 0-26 11.641-26 26h2c0-13.255 10.745-24 24-24v-2z" fill="#E5E5E5"/>
  <path d="M227.293 114.707a.999.999 0 001.414 0l6.364-6.364a.999.999 0 10-1.414-1.414L228 112.586l-5.657-5.657a.999.999 0 10-1.414 1.414l6.364 6.364zM227 74v40h2V74h-2zm.293 166.707a.999.999 0 001.414 0l6.364-6.364a.999.999 0 10-1.414-1.414L228 238.586l-5.657-5.657a.999.999 0 10-1.414 1.414l6.364 6.364zM227 200v40h2v-40h-2zm494.793 40.707a.999.999 0 001.414 0l6.364-6.364a.999.999 0 10-1.414-1.414l-5.657 5.657-5.657-5.657a.999.999 0 10-1.414 1.414l6.364 6.364zM721.5 200v20h2v-20h-2zm0 20v20h2v-20h-2zm.793-105.293a.999.999 0 001.414 0l6.364-6.364a.999.999 0 10-1.414-1.414L723 112.586l-5.657-5.657a.999.999 0 10-1.414 1.414l6.364 6.364zM722 74v20h2V74h-2zm0 20v20h2V94h-2z" fill="#AAA"/>
</svg>
