<svg width="1620" height="420" viewBox="0 0 1620 420" fill="none" xmlns="http://www.w3.org/2000/svg">
<rect width="1620" height="420" fill="#F4F4F4"/>
<rect width="1620" height="12" fill="#004080"/>
<path d="M867.49 178.423V229.27" stroke="#1A1A1A" stroke-width="12.1333"/>
<path d="M760.023 178.423H809.159C822.228 178.423 832.823 189.018 832.823 202.087V241.982" stroke="#1A1A1A" stroke-width="12.1333"/>
<path d="M759.444 178.423H901V232.443C901 251.114 885.865 266.249 867.194 266.249H743.266" stroke="#1A1A1A" stroke-width="12.1333"/>
<path d="M877.889 153H744.423C730.382 153 719 164.382 719 178.423V178.423C719 192.464 730.382 203.847 744.423 203.847H792.167C798.666 203.847 803.933 209.115 803.933 215.613V215.613C803.933 229.538 792.645 240.826 778.72 240.826L720.733 240.826" stroke="#004080" stroke-width="12.1333"/>
</svg>
