<svg width="1584" height="400" viewBox="0 0 1584 400" fill="none" xmlns="http://www.w3.org/2000/svg">
<rect width="1584" height="400" fill="#F4F4F4"/>
<path d="M849.49 168.423V219.27" stroke="#1A1A1A" stroke-width="12.1333"/>
<path d="M742.022 168.423H791.158C804.228 168.423 814.823 179.018 814.823 192.087V231.982" stroke="#1A1A1A" stroke-width="12.1333"/>
<path d="M741.444 168.423H883V222.444C883 241.114 867.865 256.249 849.194 256.249H725.266" stroke="#1A1A1A" stroke-width="12.1333"/>
<path d="M859.889 143H726.423C712.382 143 701 154.382 701 168.423V168.423C701 182.464 712.382 193.847 726.423 193.847H774.167C780.666 193.847 785.933 199.115 785.933 205.613V205.613C785.933 219.538 774.645 230.826 760.72 230.826L702.733 230.826" stroke="#004080" stroke-width="12.1333"/>
</svg>
