<svg width="1620" height="420" viewBox="0 0 1620 420" fill="none" xmlns="http://www.w3.org/2000/svg">
<rect width="1620" height="420" fill="#F4F4F4"/>
<path d="M867.489 178.422V229.267" stroke="#1A1A1A" stroke-width="11.5555"/>
<path d="M760.022 178.422H816.645C825.579 178.422 832.822 185.665 832.822 194.6V241.978" stroke="#1A1A1A" stroke-width="11.5555"/>
<path d="M759.445 178.422H901V243.133C901 255.897 890.653 266.244 877.889 266.244H743.267" stroke="#1A1A1A" stroke-width="11.5555"/>
<path d="M877.889 153H742.111C729.347 153 719 163.347 719 176.111V180.733C719 193.497 729.347 203.844 742.111 203.844H795.844C800.312 203.844 803.933 207.466 803.933 211.933V223.489C803.933 233.062 796.173 240.822 786.6 240.822L720.733 240.822" stroke="#004080" stroke-width="11.5555"/>
<rect width="1620" height="12" fill="#004080"/>
</svg>
