<svg width="165" height="107" viewBox="0 0 165 107" fill="none" xmlns="http://www.w3.org/2000/svg">
<path d="M130.888 27.3823V70.1474" stroke="#1A1A1A" stroke-width="10.2048"/>
<path d="M40.5022 27.3823L81.8285 27.3823C92.8206 27.3823 101.731 36.2931 101.731 47.2852V80.8387" stroke="#1A1A1A" stroke-width="10.2048"/>
<path d="M40.0161 27.3823H159.073V72.8166C159.073 88.5196 146.343 101.249 130.64 101.249H43.5" stroke="#1A1A1A" stroke-width="10.2048"/>
<path d="M136 5.99996L27.3825 5.99996C15.5733 5.99996 5.99997 15.5733 5.99997 27.3825V27.3825C5.99997 39.1918 15.5733 48.7651 27.3825 48.7651L67.538 48.7651C73.0034 48.7651 77.434 53.1958 77.434 58.6612V58.6612C77.434 70.3729 67.9399 79.8671 56.2282 79.8671L7.45782 79.8671" stroke="#004080" stroke-width="10.2048"/>
</svg>
