<svg width="56" height="36" viewBox="0 0 56 36" fill="none" xmlns="http://www.w3.org/2000/svg">
<path d="M43.8398 9.03998V23.12" stroke="#1A1A1A" stroke-width="4"/>
<path d="M14.08 9.03998L29.76 9.03998C32.2342 9.03998 34.24 11.0457 34.24 13.52V26.64" stroke="#1A1A1A" stroke-width="4"/>
<path d="M13.92 9.03998H53.12V26.96C53.12 30.4946 50.2546 33.36 46.72 33.36H9.43994" stroke="#1A1A1A" stroke-width="4"/>
<path d="M46.7202 2.00001L9.12022 2.00001C5.58559 2.00001 2.72022 4.86539 2.72022 8.40001V9.68C2.72022 13.2146 5.58559 16.08 9.12022 16.08L24.0002 16.08C25.2373 16.08 26.2402 17.0829 26.2402 18.32V21.52C26.2402 24.171 24.0912 26.32 21.4402 26.32L3.20022 26.32" stroke="#004080" stroke-width="4"/>
</svg>
