<svg width="36" height="36" viewBox="0 0 36 36" fill="none" xmlns="http://www.w3.org/2000/svg">
<g clip-path="url(#clip0)">
<path d="M27.857 28.4286C28.3965 28.4286 28.864 28.2505 29.2614 27.8987L22.4618 21.0989C22.2986 21.2157 22.1405 21.3293 21.9912 21.4373C21.4823 21.8122 21.0693 22.1048 20.7522 22.3144C20.4351 22.5245 20.0132 22.7387 19.4866 22.9573C18.9596 23.1763 18.4687 23.2854 18.0133 23.2854H17.9999H17.9866C17.5311 23.2854 17.0402 23.1763 16.5132 22.9573C15.9863 22.7387 15.5644 22.5245 15.2476 22.3144C14.9306 22.1048 14.5178 21.8123 14.0087 21.4373C13.8668 21.3333 13.7095 21.2192 13.5394 21.0971L6.73846 27.8987C7.13581 28.2505 7.60357 28.4286 8.14301 28.4286H27.857Z" fill="#404040"/>
<path d="M7.35282 16.817C6.84402 16.4778 6.39281 16.0893 6 15.6517V25.9971L11.9931 20.004C10.7942 19.1669 9.24935 18.1058 7.35282 16.817Z" fill="#404040"/>
<path d="M28.6607 16.817C26.8365 18.0517 25.2861 19.1146 24.0092 20.0064L30 25.9974V15.6517C29.6159 16.0805 29.1695 16.4687 28.6607 16.817Z" fill="#404040"/>
<path d="M27.8573 9.57138H8.14334C7.45558 9.57138 6.92681 9.80363 6.5564 10.2676C6.18567 10.7319 6.00062 11.3124 6.00062 12.0087C6.00062 12.5711 6.2462 13.1805 6.73714 13.837C7.22808 14.4933 7.75048 15.0087 8.30408 15.3837C8.60757 15.5981 9.52279 16.2344 11.0497 17.2922C11.874 17.8634 12.5908 18.3613 13.2068 18.7909C13.7319 19.1568 14.1847 19.4736 14.5586 19.7365C14.6015 19.7666 14.669 19.8149 14.7586 19.879C14.8551 19.9483 14.9772 20.0363 15.1279 20.1451C15.418 20.3549 15.6591 20.5245 15.8511 20.6541C16.0428 20.7838 16.2751 20.9286 16.5476 21.0893C16.8199 21.2499 17.0767 21.3707 17.3178 21.451C17.5588 21.5312 17.782 21.5715 17.9873 21.5715H18.0007H18.014C18.2193 21.5715 18.4425 21.5312 18.6837 21.451C18.9247 21.3707 19.1813 21.2502 19.4538 21.0893C19.726 20.9286 19.958 20.7835 20.1503 20.6541C20.3423 20.5245 20.5834 20.355 20.8736 20.1451C21.0239 20.0363 21.1461 19.9482 21.2426 19.8792C21.3322 19.8149 21.3997 19.7669 21.4428 19.7365C21.7341 19.5339 22.188 19.2184 22.7982 18.7946C23.9085 18.0232 25.5437 16.8877 27.7107 15.3837C28.3624 14.9285 28.9069 14.3791 29.3445 13.7365C29.7814 13.0938 30.0004 12.4197 30.0004 11.7143C30.0004 11.125 29.788 10.6207 29.3643 10.2007C28.94 9.78123 28.4377 9.57138 27.8573 9.57138Z" fill="#404040"/>
</g>
<defs>
<clipPath id="clip0">
<rect width="24" height="24" fill="white" transform="translate(6 7)"/>
</clipPath>
</defs>
</svg>
