<svg width="36" height="36" viewBox="0 0 36 36" fill="none" xmlns="http://www.w3.org/2000/svg">
<circle cx="18" cy="18" r="18" fill="white"/>
<g clip-path="url(#clip0)">
<path d="M27.857 27.4286C28.3965 27.4286 28.864 27.2505 29.2614 26.8987L22.4618 20.0989C22.2986 20.2157 22.1405 20.3293 21.9912 20.4373C21.4823 20.8122 21.0693 21.1048 20.7522 21.3144C20.4351 21.5245 20.0132 21.7387 19.4866 21.9573C18.9596 22.1763 18.4687 22.2854 18.0133 22.2854H17.9999H17.9866C17.5311 22.2854 17.0402 22.1763 16.5132 21.9573C15.9863 21.7387 15.5644 21.5245 15.2476 21.3144C14.9306 21.1048 14.5178 20.8123 14.0087 20.4373C13.8668 20.3333 13.7095 20.2192 13.5394 20.0971L6.73847 26.8987C7.13581 27.2505 7.60357 27.4286 8.14301 27.4286H27.857V27.4286Z" fill="#404040"/>
<path d="M7.35282 15.817C6.84402 15.4778 6.39281 15.0893 6 14.6517V24.9971L11.9931 19.004C10.7942 18.1669 9.24935 17.1058 7.35282 15.817Z" fill="#404040"/>
<path d="M28.6607 15.817C26.8365 17.0517 25.2861 18.1146 24.0092 19.0064L30 24.9974V14.6517C29.6159 15.0805 29.1695 15.4687 28.6607 15.817Z" fill="#404040"/>
<path d="M27.8573 8.57138H8.14334C7.45557 8.57138 6.92681 8.80363 6.55639 9.26764C6.18567 9.73187 6.00062 10.3124 6.00062 11.0087C6.00062 11.5711 6.24619 12.1805 6.73714 12.837C7.22808 13.4933 7.75048 14.0087 8.30408 14.3837C8.60757 14.5981 9.52278 15.2344 11.0497 16.2922C11.874 16.8634 12.5908 17.3613 13.2068 17.7909C13.7319 18.1568 14.1847 18.4736 14.5586 18.7365C14.6015 18.7666 14.669 18.8149 14.7586 18.879C14.8551 18.9483 14.9772 19.0363 15.1279 19.1451C15.418 19.3549 15.6591 19.5245 15.8511 19.6541C16.0428 19.7838 16.2751 19.9286 16.5476 20.0893C16.8199 20.2499 17.0767 20.3707 17.3178 20.451C17.5588 20.5312 17.782 20.5715 17.9873 20.5715H18.0007H18.014C18.2193 20.5715 18.4425 20.5312 18.6836 20.451C18.9247 20.3707 19.1813 20.2502 19.4538 20.0893C19.726 19.9286 19.958 19.7835 20.1503 19.6541C20.3423 19.5245 20.5834 19.355 20.8736 19.1451C21.0239 19.0363 21.1461 18.9482 21.2426 18.8792C21.3322 18.8149 21.3997 18.7669 21.4428 18.7365C21.7341 18.5339 22.188 18.2184 22.7982 17.7946C23.9085 17.0232 25.5437 15.8877 27.7107 14.3837C28.3624 13.9285 28.9069 13.3791 29.3445 12.7365C29.7814 12.0938 30.0004 11.4197 30.0004 10.7143C30.0004 10.125 29.788 9.62071 29.3643 9.20071C28.94 8.78123 28.4377 8.57138 27.8573 8.57138Z" fill="#404040"/>
</g>
<defs>
<clipPath id="clip0">
<rect width="24" height="24" fill="white" transform="translate(6 6)"/>
</clipPath>
</defs>
</svg>
