<svg width="512" height="512" viewBox="0 0 512 512" fill="none" xmlns="http://www.w3.org/2000/svg">
<circle cx="256" cy="256" r="256" fill="#004080"/>
<g clip-path="url(#clip0)">
<path d="M388.98 383.179C396.285 383.179 402.615 380.767 407.997 376.004L315.919 283.923C313.71 285.505 311.569 287.043 309.546 288.506C302.655 293.583 297.063 297.544 292.768 300.383C288.474 303.228 282.761 306.128 275.63 309.089C268.494 312.054 261.846 313.531 255.678 313.531H255.498H255.317C249.149 313.531 242.501 312.054 235.366 309.089C228.23 306.128 222.517 303.228 218.228 300.383C213.934 297.544 208.344 293.583 201.45 288.506C199.529 287.097 197.398 285.552 195.094 283.898L102.999 376.004C108.38 380.767 114.714 383.179 122.019 383.179H388.98V383.179Z" fill="white"/>
<path d="M111.319 225.939C104.429 221.346 98.3194 216.085 93 210.159V350.253L174.157 269.096C157.921 257.761 137.002 243.392 111.319 225.939Z" fill="white"/>
<path d="M399.864 225.939C375.161 242.659 354.166 257.053 336.875 269.128L418 350.256V210.159C412.799 215.965 406.754 221.223 399.864 225.939Z" fill="white"/>
<path d="M388.98 127.821H122.02C112.706 127.821 105.546 130.966 100.53 137.25C95.5096 143.536 93.0037 151.398 93.0037 160.826C93.0037 168.442 96.3292 176.694 102.977 185.585C109.626 194.471 116.7 201.452 124.196 206.529C128.306 209.433 140.7 218.049 161.377 232.374C172.539 240.109 182.246 246.851 190.588 252.669C197.698 257.623 203.83 261.914 208.892 265.474C209.474 265.882 210.388 266.536 211.601 267.403C212.908 268.342 214.562 269.533 216.602 271.006C220.531 273.848 223.796 276.145 226.395 277.9C228.992 279.655 232.137 281.616 235.827 283.793C239.515 285.968 242.992 287.603 246.257 288.69C249.521 289.777 252.544 290.322 255.324 290.322H255.505H255.685C258.465 290.322 261.488 289.777 264.753 288.69C268.017 287.603 271.492 285.971 275.182 283.793C278.868 281.616 282.01 279.651 284.614 277.9C287.214 276.145 290.478 273.849 294.408 271.006C296.444 269.533 298.098 268.341 299.405 267.406C300.619 266.535 301.532 265.885 302.117 265.474C306.061 262.73 312.207 258.457 320.47 252.719C335.506 242.272 357.65 226.896 386.994 206.529C395.82 200.365 403.193 192.926 409.119 184.223C415.035 175.521 418 166.392 418 156.84C418 148.859 415.125 142.031 409.387 136.343C403.642 130.663 396.839 127.821 388.98 127.821Z" fill="white"/>
</g>
<defs>
<clipPath id="clip0">
<rect width="325" height="325" fill="white" transform="translate(93 93)"/>
</clipPath>
</defs>
</svg>
