<svg width="512" height="512" viewBox="0 0 512 512" fill="none" xmlns="http://www.w3.org/2000/svg">
<circle cx="256" cy="256" r="256" fill="#004080"/>
<path d="M196.043 437.914C228.083 437.914 254.086 411.911 254.086 379.871V321.828H196.043C164.003 321.828 138 347.831 138 379.871C138 411.911 164.003 437.914 196.043 437.914Z" fill="white"/>
<path d="M138 260.957C138 228.917 164.003 202.914 196.043 202.914H254.086V319H196.043C164.003 319 138 292.997 138 260.957Z" fill="white"/>
<path d="M138 142.043C138 110.003 164.004 84 196.043 84H254.086V200.086H196.043C164.004 200.086 138 174.083 138 142.043Z" fill="white"/>
<path d="M256.914 84H314.957C346.997 84 373 110.003 373 142.043C373 174.083 346.997 200.086 314.957 200.086H256.914V84Z" fill="white"/>
<path d="M372 260.957C372 292.997 345.997 319 313.957 319C281.917 319 255.914 292.997 255.914 260.957C255.914 228.917 281.917 202.914 313.957 202.914C345.997 202.914 372 228.917 372 260.957Z" fill="white"/>
</svg>
