<svg width="36" height="36" viewBox="0 0 36 36" fill="none" xmlns="http://www.w3.org/2000/svg">
<path fill-rule="evenodd" clip-rule="evenodd" d="M14.2835 4.34767C11.8332 5.00637 10.0592 6.06407 8.0733 8.04973C5.16363 10.9594 4 13.7953 4 17.9764C4 22.1519 5.16387 24.9834 8.07843 27.898C10.0685 29.8881 12.3972 31.2764 13.7454 31.2764C14.5945 31.2764 14.7333 30.9845 14.7333 29.2007V27.8632L13.3917 27.9507C11.6711 28.063 10.6796 27.545 9.90707 26.1307C9.59533 25.56 9.03137 24.8059 8.6536 24.4547C7.8423 23.7008 7.81103 23.5764 8.43333 23.5764C8.70633 23.5764 8.9 23.7321 8.9 23.9514C8.9 24.1829 9.02927 24.2767 9.2381 24.1966C9.4642 24.1098 9.53327 24.1789 9.44647 24.405C9.35593 24.6409 9.4831 24.7443 9.8667 24.7466C10.2706 24.7494 10.3313 24.8042 10.0951 24.954C9.7085 25.1988 9.98687 25.7569 10.4139 25.5931C10.6201 25.514 10.6743 25.6293 10.5875 25.9616C10.4766 26.3848 10.5375 26.4259 11.0742 26.2913C11.5458 26.173 11.6585 26.2136 11.5612 26.4665C11.3582 26.9959 11.9676 27.1978 12.3188 26.7176C12.6002 26.3326 12.6333 26.3288 12.6333 26.6819C12.6333 26.9276 12.8188 27.0764 13.125 27.0764C13.4661 27.0764 13.5755 26.9693 13.4822 26.7264C13.4085 26.5339 13.4498 26.3764 13.5739 26.3764C13.6983 26.3764 13.8 26.5339 13.8 26.7264C13.8 26.9189 13.9575 27.0764 14.15 27.0764C14.3425 27.0764 14.5 26.8842 14.5 26.6492C14.5 26.4145 14.7431 25.742 15.0402 25.1554L15.5801 24.0886L14.1922 23.7939C11.0343 23.1238 9.2969 20.9178 9.2689 17.5427C9.25583 15.9929 9.33983 15.613 9.91173 14.6372C10.4477 13.7228 10.5417 13.3494 10.4188 12.6219C10.2634 11.7028 10.6374 9.80977 10.9741 9.80977C11.3955 9.80977 12.8006 10.3861 13.604 10.8885C14.3168 11.3341 14.5868 11.3857 15.2359 11.1995C16.2404 10.9113 19.7596 10.9113 20.7641 11.1995C21.4132 11.3857 21.6832 11.3341 22.396 10.8885C23.1994 10.3861 24.6045 9.80977 25.0259 9.80977C25.3626 9.80977 25.7366 11.7028 25.5812 12.6219C25.4583 13.3494 25.5523 13.7228 26.0883 14.6372C26.6576 15.6088 26.7442 15.9957 26.7313 17.5144C26.7029 20.9288 25.2007 22.8925 21.9832 23.7213L20.3935 24.1308L20.8292 24.8453C21.1824 25.4247 21.265 26.0306 21.2657 28.049C21.2662 29.4182 21.3304 30.7043 21.4083 30.9073C21.8708 32.1127 25.2835 30.5361 27.9216 27.898C30.8361 24.9834 32 22.1519 32 17.9764C32 13.7953 30.8364 10.9594 27.9267 8.04973C25.9065 6.02953 24.1511 4.99633 21.6178 4.33647C19.8765 3.8831 15.9898 3.88893 14.2835 4.34767Z" fill="#404040"/>
</svg>
