<svg width="36" height="36" viewBox="0 0 36 36" fill="none" xmlns="http://www.w3.org/2000/svg">
<path d="M29.9939 30V29.999H29.9999V21.197C29.9999 16.891 29.0729 13.574 24.0389 13.574C21.6189 13.574 19.9949 14.902 19.3319 16.161H19.2619V13.976H14.4889V29.999H19.4589V22.065C19.4589 19.976 19.8549 17.956 22.4419 17.956C24.9909 17.956 25.0289 20.34 25.0289 22.199V30H29.9939Z" fill="#404040"/>
<path d="M6.39604 13.9769H11.372V29.9999H6.39604V13.9769Z" fill="#404040"/>
<path d="M8.882 6C7.291 6 6 7.291 6 8.882C6 10.473 7.291 11.791 8.882 11.791C10.473 11.791 11.764 10.473 11.764 8.882C11.763 7.291 10.472 6 8.882 6V6Z" fill="#404040"/>
</svg>
