<svg width="36" height="36" viewBox="0 0 36 36" fill="none" xmlns="http://www.w3.org/2000/svg">
<circle cx="18" cy="18" r="18" fill="white"/>
<path d="M12.6783 10.4188H15.7907V13.5312H12.6783V10.4188Z" fill="#404040"/>
<path d="M22.8954 12.025H27.3289L21.7157 6.4119V10.8453C21.7157 11.4958 22.245 12.025 22.8954 12.025Z" fill="#404040"/>
<path d="M22.8953 13.4312C21.4695 13.4312 20.3094 12.2712 20.3094 10.8453V6H10.8453C9.41944 6 8.25938 7.16006 8.25938 8.58595V27.414C8.25938 28.8399 9.41944 30 10.8453 30H25.1547C26.5806 30 27.7406 28.8399 27.7406 27.414V13.4312H22.8953ZM11.2719 9.71564C11.2719 9.32733 11.5867 9.01252 11.9751 9.01252H16.4937C16.8821 9.01252 17.1968 9.32733 17.1968 9.71564V14.2343C17.1968 14.6227 16.8821 14.9375 16.4937 14.9375H11.9751C11.5867 14.9375 11.2719 14.6227 11.2719 14.2343V9.71564ZM11.9751 16.5438H21.0125C21.4009 16.5438 21.7156 16.8586 21.7156 17.2469C21.7156 17.6352 21.4009 17.95 21.0125 17.95H11.9751C11.5867 17.95 11.2719 17.6352 11.2719 17.2469C11.2719 16.8585 11.5867 16.5438 11.9751 16.5438ZM24.025 26.9874H11.9751C11.5867 26.9874 11.2719 26.6726 11.2719 26.2843C11.2719 25.896 11.5867 25.5812 11.9751 25.5812H24.025C24.4133 25.5812 24.7282 25.896 24.7282 26.2843C24.7282 26.6727 24.4133 26.9874 24.025 26.9874ZM24.025 23.975H11.9751C11.5867 23.975 11.2719 23.6602 11.2719 23.2719C11.2719 22.8836 11.5867 22.5688 11.9751 22.5688H24.025C24.4133 22.5688 24.7282 22.8836 24.7282 23.2719C24.7282 23.6602 24.4133 23.975 24.025 23.975ZM24.025 20.9625H11.9751C11.5867 20.9625 11.2719 20.6476 11.2719 20.2593C11.2719 19.871 11.5867 19.5562 11.9751 19.5562H24.025C24.4133 19.5562 24.7282 19.871 24.7282 20.2593C24.7282 20.6476 24.4133 20.9625 24.025 20.9625Z" fill="#404040"/>
</svg>
