<svg width="512" height="512" viewBox="0 0 512 512" fill="none" xmlns="http://www.w3.org/2000/svg">
<circle cx="256" cy="256" r="256" fill="#004080"/>
<g clip-path="url(#clip0)">
<path d="M183.434 152.838H225.581V194.985H183.434V152.838Z" fill="white"/>
<path d="M321.79 174.588H381.827L305.816 98.5776V158.614C305.816 167.422 312.982 174.588 321.79 174.588Z" fill="white"/>
<path d="M321.79 193.631C302.482 193.631 286.773 177.923 286.773 158.614V93H158.614C139.305 93 123.596 108.709 123.596 128.018V382.982C123.596 402.291 139.305 418 158.613 418H352.387C371.696 418 387.404 402.291 387.404 382.982V193.631H321.79ZM164.391 143.316C164.391 138.058 168.653 133.794 173.912 133.794H235.102C240.361 133.794 244.624 138.058 244.624 143.316V204.507C244.624 209.765 240.361 214.028 235.102 214.028H173.912C168.653 214.028 164.391 209.765 164.391 204.507V143.316ZM173.912 235.78H296.294C301.553 235.78 305.816 240.043 305.816 245.302C305.816 250.56 301.553 254.823 296.294 254.823H173.912C168.653 254.823 164.391 250.56 164.391 245.302C164.391 240.043 168.653 235.78 173.912 235.78ZM337.089 377.205H173.912C168.653 377.205 164.391 372.942 164.391 367.683C164.391 362.425 168.653 358.162 173.912 358.162H337.089C342.347 358.162 346.61 362.425 346.61 367.683C346.61 372.942 342.347 377.205 337.089 377.205ZM337.089 336.412H173.912C168.653 336.412 164.391 332.149 164.391 326.89C164.391 321.632 168.653 317.369 173.912 317.369H337.089C342.347 317.369 346.61 321.632 346.61 326.89C346.61 332.149 342.347 336.412 337.089 336.412ZM337.089 295.617H173.912C168.653 295.617 164.391 291.353 164.391 286.095C164.391 280.837 168.653 276.574 173.912 276.574H337.089C342.347 276.574 346.61 280.837 346.61 286.095C346.61 291.353 342.347 295.617 337.089 295.617Z" fill="white"/>
</g>
<defs>
<clipPath id="clip0">
<rect width="325" height="325" fill="white" transform="translate(93 93)"/>
</clipPath>
</defs>
</svg>
