<svg width="720" height="500" viewBox="0 0 720 500" fill="none" xmlns="http://www.w3.org/2000/svg">
<g clip-path="url(#clip0)">
<rect width="720" height="500" fill="#1A1A1A"/>
<path d="M127.352 224H133.8L120.644 187.6H113.468L100.26 224H106.76L109.308 216.668H124.804L127.352 224ZM111.284 211.052L117.056 194.62L122.828 211.052H111.284ZM151.026 197.324C147.49 197.324 144.682 198.624 142.966 201.328V198H137.35V224H142.966V210.064C142.966 204.76 145.878 202.576 149.57 202.576C153.106 202.576 155.394 204.656 155.394 208.608V224H161.01V208.036C161.01 201.276 156.85 197.324 151.026 197.324ZM192.329 224.676C199.973 224.676 206.057 218.696 206.057 211C206.057 203.252 199.973 197.324 192.329 197.324C184.737 197.324 178.601 203.252 178.601 211C178.601 218.696 184.737 224.676 192.329 224.676ZM192.329 219.216C187.753 219.216 184.217 215.732 184.217 211C184.217 206.268 187.753 202.784 192.329 202.784C196.905 202.784 200.441 206.268 200.441 211C200.441 215.732 196.905 219.216 192.329 219.216ZM224.811 197.324C221.275 197.324 218.467 198.624 216.751 201.328V198H211.135V224H216.751V210.064C216.751 204.76 219.663 202.576 223.355 202.576C226.891 202.576 229.179 204.656 229.179 208.608V224H234.795V208.036C234.795 201.276 230.635 197.324 224.811 197.324ZM261.538 198V201.848C259.562 199.04 256.494 197.324 252.49 197.324C245.158 197.324 239.386 203.304 239.386 210.74C239.386 218.176 245.158 224.156 252.49 224.156C256.494 224.156 259.562 222.44 261.538 219.632V222.804C261.538 227.328 258.626 229.98 253.79 229.98C249.266 229.98 247.342 228.212 246.198 225.976L241.362 228.784C243.546 232.944 247.966 235.076 253.686 235.076C260.498 235.076 267.05 231.176 267.05 222.804V198H261.538ZM253.27 218.904C248.538 218.904 245.002 215.42 245.002 210.74C245.002 206.06 248.538 202.576 253.27 202.576C258.002 202.576 261.538 206.06 261.538 210.74C261.538 215.42 258.002 218.904 253.27 218.904ZM285.868 224.676C293.512 224.676 299.596 218.696 299.596 211C299.596 203.252 293.512 197.324 285.868 197.324C278.276 197.324 272.14 203.252 272.14 211C272.14 218.696 278.276 224.676 285.868 224.676ZM285.868 219.216C281.292 219.216 277.756 215.732 277.756 211C277.756 206.268 281.292 202.784 285.868 202.784C290.444 202.784 293.98 206.268 293.98 211C293.98 215.732 290.444 219.216 285.868 219.216ZM307.482 194.1C309.458 194.1 311.07 192.436 311.07 190.512C311.07 188.536 309.458 186.924 307.482 186.924C305.506 186.924 303.894 188.536 303.894 190.512C303.894 192.436 305.506 194.1 307.482 194.1ZM304.674 224H310.29V198H304.674V224ZM330.487 197.324C326.951 197.324 324.143 198.624 322.427 201.328V198H316.811V224H322.427V210.064C322.427 204.76 325.339 202.576 329.031 202.576C332.567 202.576 334.855 204.656 334.855 208.608V224H340.471V208.036C340.471 201.276 336.311 197.324 330.487 197.324ZM367.214 198V201.848C365.238 199.04 362.17 197.324 358.166 197.324C350.834 197.324 345.062 203.304 345.062 210.74C345.062 218.176 350.834 224.156 358.166 224.156C362.17 224.156 365.238 222.44 367.214 219.632V222.804C367.214 227.328 364.302 229.98 359.466 229.98C354.942 229.98 353.018 228.212 351.874 225.976L347.038 228.784C349.222 232.944 353.642 235.076 359.362 235.076C366.174 235.076 372.726 231.176 372.726 222.804V198H367.214ZM358.946 218.904C354.214 218.904 350.678 215.42 350.678 210.74C350.678 206.06 354.214 202.576 358.946 202.576C363.678 202.576 367.214 206.06 367.214 210.74C367.214 215.42 363.678 218.904 358.946 218.904ZM406.988 197.324C402.932 197.324 399.864 198.988 397.888 201.744V198H392.272V234.4H397.888V220.308C399.864 223.012 402.932 224.676 406.988 224.676C414.06 224.676 419.936 218.748 419.936 211C419.936 203.304 414.06 197.324 406.988 197.324ZM406.104 219.32C401.424 219.32 397.888 215.836 397.888 211C397.888 206.164 401.424 202.68 406.104 202.68C410.784 202.68 414.32 206.164 414.32 211C414.32 215.836 410.784 219.32 406.104 219.32ZM430.642 202.368V198H425.026V224H430.642V210.896C430.642 205.072 434.958 203.356 438.65 203.616V197.532C435.374 197.532 432.202 198.832 430.642 202.368ZM453.853 224.676C461.497 224.676 467.581 218.696 467.581 211C467.581 203.252 461.497 197.324 453.853 197.324C446.261 197.324 440.125 203.252 440.125 211C440.125 218.696 446.261 224.676 453.853 224.676ZM453.853 219.216C449.277 219.216 445.741 215.732 445.741 211C445.741 206.268 449.277 202.784 453.853 202.784C458.429 202.784 461.965 206.268 461.965 211C461.965 215.732 458.429 219.216 453.853 219.216ZM475.642 194.1C477.618 194.1 479.23 192.436 479.23 190.512C479.23 188.536 477.618 186.924 475.642 186.924C473.666 186.924 472.054 188.536 472.054 190.512C472.054 192.436 473.666 194.1 475.642 194.1ZM472.834 225.04C472.834 228.68 471.222 229.98 467.79 229.668V235.076C474.914 235.596 478.45 232.216 478.45 225.04V198H472.834V225.04ZM489.419 213.392H510.115C510.219 212.664 510.323 211.832 510.323 211.052C510.323 203.564 505.019 197.324 497.271 197.324C489.107 197.324 483.543 203.304 483.543 211C483.543 218.8 489.107 224.676 497.687 224.676C502.783 224.676 506.683 222.544 509.075 219.008L504.447 216.304C503.199 218.124 500.859 219.528 497.739 219.528C493.579 219.528 490.303 217.448 489.419 213.392ZM489.367 208.816C490.147 204.916 493.007 202.42 497.219 202.42C500.599 202.42 503.875 204.344 504.655 208.816H489.367ZM527.384 224.676C532.48 224.676 536.9 222.024 539.084 217.916L534.248 215.16C533 217.552 530.452 219.164 527.332 219.164C522.756 219.164 519.272 215.68 519.272 211C519.272 206.32 522.756 202.836 527.332 202.836C530.452 202.836 533 204.396 534.144 206.84L538.98 204.032C536.9 199.976 532.48 197.324 527.384 197.324C519.532 197.324 513.656 203.252 513.656 211C513.656 218.696 519.532 224.676 527.384 224.676ZM557.651 203.408V198H551.203V190.72L545.587 192.384V198H540.803V203.408H545.587V215.888C545.587 222.648 549.019 225.04 557.651 224V218.956C553.387 219.164 551.203 219.216 551.203 215.888V203.408H557.651ZM566.379 224.624C568.511 224.624 570.279 222.856 570.279 220.724C570.279 218.54 568.511 216.824 566.379 216.824C564.195 216.824 562.479 218.54 562.479 220.724C562.479 222.856 564.195 224.624 566.379 224.624ZM115.3 317H117.7L112.57 308.33C115.18 307.58 117.1 305.15 117.1 302.3C117.1 298.82 114.28 296 110.8 296H102.4V317H104.5V308.6H110.38L115.3 317ZM104.5 297.98H110.8C113.11 297.98 115 299.9 115 302.3C115 304.67 113.11 306.62 110.8 306.62H104.5V297.98ZM126.579 301.64C121.929 301.64 118.749 305.09 118.749 309.5C118.749 314.03 121.989 317.36 126.729 317.36C129.759 317.36 132.069 315.95 133.329 313.91L131.589 312.89C130.779 314.33 129.129 315.44 126.759 315.44C123.579 315.44 121.209 313.55 120.789 310.49H133.959C133.989 310.19 134.019 309.86 134.019 309.56C134.019 305.45 131.169 301.64 126.579 301.64ZM126.579 303.56C129.159 303.56 131.559 305.27 131.979 308.57H120.789C121.179 305.63 123.429 303.56 126.579 303.56ZM150.068 302V304.94C148.808 302.93 146.678 301.64 144.008 301.64C139.778 301.64 136.268 305.06 136.268 309.5C136.268 313.94 139.778 317.36 144.008 317.36C146.678 317.36 148.808 316.07 150.068 314.06V317H152.048V302H150.068ZM144.158 315.44C140.828 315.44 138.248 312.83 138.248 309.5C138.248 306.17 140.828 303.56 144.158 303.56C147.488 303.56 150.068 306.17 150.068 309.5C150.068 312.83 147.488 315.44 144.158 315.44ZM163.231 317.36C166.171 317.36 168.721 315.83 169.951 313.46L168.301 312.5C167.341 314.24 165.511 315.44 163.231 315.44C159.901 315.44 157.321 312.83 157.321 309.5C157.321 306.17 159.901 303.56 163.231 303.56C165.481 303.56 167.371 304.73 168.181 306.5L169.801 305.57C168.721 303.2 166.201 301.64 163.231 301.64C158.701 301.64 155.341 305.06 155.341 309.5C155.341 313.94 158.701 317.36 163.231 317.36ZM179.813 301.64C177.683 301.64 175.943 302.45 174.773 304.34V296H172.793V317H174.773V309.14C174.773 305.12 176.993 303.56 179.633 303.56C182.243 303.56 183.713 305.12 183.713 307.79V317H185.693V307.79C185.693 304.04 183.473 301.64 179.813 301.64ZM204.012 317.36C208.392 317.36 211.902 313.94 211.902 309.5C211.902 305.06 208.392 301.64 204.012 301.64C199.632 301.64 196.122 305.06 196.122 309.5C196.122 313.94 199.632 317.36 204.012 317.36ZM204.012 315.44C200.682 315.44 198.102 312.83 198.102 309.5C198.102 306.17 200.682 303.56 204.012 303.56C207.342 303.56 209.922 306.17 209.922 309.5C209.922 312.83 207.342 315.44 204.012 315.44ZM225.775 302V309.86C225.775 313.88 223.555 315.44 220.915 315.44C218.305 315.44 216.835 313.88 216.835 311.21V302H214.855V311.21C214.855 314.96 217.075 317.36 220.735 317.36C222.865 317.36 224.605 316.55 225.775 314.66V317H227.755V302H225.775ZM239.894 303.92V302H235.574V297.8L233.594 298.4V302H230.444V303.92H233.594V313.01C233.594 316.61 235.844 317.6 239.894 317V315.26C236.984 315.38 235.574 315.59 235.574 313.01V303.92H239.894ZM258.194 297.56V295.64C254.144 295.34 251.894 297.5 251.894 301.4V302H249.344V303.92H251.894V317H253.874V303.92H258.194V302H253.874V301.4C253.874 298.52 255.284 297.32 258.194 297.56ZM266.385 317.36C270.765 317.36 274.275 313.94 274.275 309.5C274.275 305.06 270.765 301.64 266.385 301.64C262.005 301.64 258.495 305.06 258.495 309.5C258.495 313.94 262.005 317.36 266.385 317.36ZM266.385 315.44C263.055 315.44 260.475 312.83 260.475 309.5C260.475 306.17 263.055 303.56 266.385 303.56C269.715 303.56 272.295 306.17 272.295 309.5C272.295 312.83 269.715 315.44 266.385 315.44ZM279.568 304.49V302H277.588V317H279.568V308.66C279.568 304.94 281.908 303.68 284.308 303.68V301.76C282.388 301.76 280.618 302.39 279.568 304.49ZM310.512 301.64C308.592 301.64 306.762 302.51 305.652 304.37C304.812 302.63 303.192 301.64 301.092 301.64C299.292 301.64 297.672 302.36 296.502 304.19V302H294.522V317H296.502V308.69C296.502 304.97 298.662 303.56 300.822 303.56C302.952 303.56 304.332 304.97 304.332 307.64V317H306.312V308.69C306.312 304.97 308.172 303.56 310.482 303.56C312.612 303.56 314.142 304.97 314.142 307.64V317H316.122V307.64C316.122 303.89 313.812 301.64 310.512 301.64ZM326.942 317.36C331.322 317.36 334.832 313.94 334.832 309.5C334.832 305.06 331.322 301.64 326.942 301.64C322.562 301.64 319.052 305.06 319.052 309.5C319.052 313.94 322.562 317.36 326.942 317.36ZM326.942 315.44C323.612 315.44 321.032 312.83 321.032 309.5C321.032 306.17 323.612 303.56 326.942 303.56C330.272 303.56 332.852 306.17 332.852 309.5C332.852 312.83 330.272 315.44 326.942 315.44ZM340.125 304.49V302H338.145V317H340.125V308.66C340.125 304.94 342.465 303.68 344.865 303.68V301.76C342.945 301.76 341.175 302.39 340.125 304.49ZM353.6 301.64C348.95 301.64 345.77 305.09 345.77 309.5C345.77 314.03 349.01 317.36 353.75 317.36C356.78 317.36 359.09 315.95 360.35 313.91L358.61 312.89C357.8 314.33 356.15 315.44 353.78 315.44C350.6 315.44 348.23 313.55 347.81 310.49H360.98C361.01 310.19 361.04 309.86 361.04 309.56C361.04 305.45 358.19 301.64 353.6 301.64ZM353.6 303.56C356.18 303.56 358.58 305.27 359 308.57H347.81C348.2 305.63 350.45 303.56 353.6 303.56ZM384.59 296V304.94C383.33 302.93 381.2 301.64 378.53 301.64C374.3 301.64 370.79 305.06 370.79 309.5C370.79 313.94 374.3 317.36 378.53 317.36C381.2 317.36 383.33 316.07 384.59 314.06V317H386.57V296H384.59ZM378.68 315.44C375.35 315.44 372.77 312.83 372.77 309.5C372.77 306.17 375.35 303.56 378.68 303.56C382.01 303.56 384.59 306.17 384.59 309.5C384.59 312.83 382.01 315.44 378.68 315.44ZM397.692 301.64C393.042 301.64 389.862 305.09 389.862 309.5C389.862 314.03 393.102 317.36 397.842 317.36C400.872 317.36 403.182 315.95 404.442 313.91L402.702 312.89C401.892 314.33 400.242 315.44 397.872 315.44C394.692 315.44 392.322 313.55 391.902 310.49H405.072C405.102 310.19 405.132 309.86 405.132 309.56C405.132 305.45 402.282 301.64 397.692 301.64ZM397.692 303.56C400.272 303.56 402.672 305.27 403.092 308.57H391.902C392.292 305.63 394.542 303.56 397.692 303.56ZM415.792 303.92V302H411.472V297.8L409.492 298.4V302H406.342V303.92H409.492V313.01C409.492 316.61 411.742 317.6 415.792 317V315.26C412.882 315.38 411.472 315.59 411.472 313.01V303.92H415.792ZM431.084 302V304.94C429.824 302.93 427.694 301.64 425.024 301.64C420.794 301.64 417.284 305.06 417.284 309.5C417.284 313.94 420.794 317.36 425.024 317.36C427.694 317.36 429.824 316.07 431.084 314.06V317H433.064V302H431.084ZM425.174 315.44C421.844 315.44 419.264 312.83 419.264 309.5C419.264 306.17 421.844 303.56 425.174 303.56C428.504 303.56 431.084 306.17 431.084 309.5C431.084 312.83 428.504 315.44 425.174 315.44ZM438.246 298.82C439.056 298.82 439.686 298.16 439.686 297.38C439.686 296.6 439.056 295.94 438.246 295.94C437.436 295.94 436.806 296.6 436.806 297.38C436.806 298.16 437.436 298.82 438.246 298.82ZM437.256 317H439.236V302H437.256V317ZM443.438 317H445.418V295.1H443.438V317ZM451.18 305.93C451.18 304.31 452.77 303.56 454.33 303.56C455.77 303.56 457.3 304.13 457.93 305.66L459.58 304.7C458.71 302.84 456.79 301.64 454.33 301.64C451.33 301.64 449.2 303.53 449.2 305.93C449.2 311.45 457.96 309.32 457.96 313.04C457.96 314.81 456.28 315.44 454.51 315.44C452.5 315.44 450.94 314.45 450.4 312.92L448.72 313.91C449.47 315.83 451.51 317.36 454.51 317.36C457.72 317.36 459.94 315.59 459.94 313.04C459.94 307.52 451.18 309.65 451.18 305.93ZM463.843 311.3H465.343L465.793 302V296H463.393V302L463.843 311.3ZM464.593 317.3C465.523 317.3 466.243 316.58 466.243 315.65C466.243 314.72 465.523 314 464.593 314C463.663 314 462.943 314.72 462.943 315.65C462.943 316.58 463.663 317.3 464.593 317.3Z" fill="white"/>
<path opacity="0.2" d="M-32.4746 484L-34.4426 490.64L-36.5386 484H-37.5946L-39.6906 490.64L-41.6586 484H-42.7466L-40.2826 492H-39.1306L-37.0666 485.552L-35.0026 492H-33.8506L-31.3866 484H-32.4746ZM-26.3786 492.192C-24.0426 492.192 -22.1706 490.368 -22.1706 488C-22.1706 485.632 -24.0426 483.808 -26.3786 483.808C-28.7146 483.808 -30.5866 485.632 -30.5866 488C-30.5866 490.368 -28.7146 492.192 -26.3786 492.192ZM-26.3786 491.168C-28.1546 491.168 -29.5306 489.776 -29.5306 488C-29.5306 486.224 -28.1546 484.832 -26.3786 484.832C-24.6026 484.832 -23.2266 486.224 -23.2266 488C-23.2266 489.776 -24.6026 491.168 -26.3786 491.168ZM-19.3474 485.328V484H-20.4034V492H-19.3474V487.552C-19.3474 485.568 -18.0994 484.896 -16.8194 484.896V483.872C-17.8434 483.872 -18.7874 484.208 -19.3474 485.328ZM-8.90819 492L-13.1962 487.84L-9.06819 484H-10.5082L-14.3162 487.536V480.8H-15.3722V492H-14.3162V488.144L-10.3162 492H-8.90819ZM-2.93794 482.304C-2.50594 482.304 -2.16994 481.952 -2.16994 481.536C-2.16994 481.12 -2.50594 480.768 -2.93794 480.768C-3.36994 480.768 -3.70594 481.12 -3.70594 481.536C-3.70594 481.952 -3.36994 482.304 -2.93794 482.304ZM-3.46594 492H-2.40994V484H-3.46594V492ZM3.57494 483.808C2.43894 483.808 1.51094 484.24 0.886938 485.248V484H-0.169062V492H0.886938V487.808C0.886938 485.664 2.07094 484.832 3.47894 484.832C4.87094 484.832 5.65494 485.664 5.65494 487.088V492H6.71094V487.088C6.71094 485.088 5.52694 483.808 3.57494 483.808ZM17.0408 483.808C15.6168 483.808 14.4808 484.496 13.8088 485.568V484H12.7528V495.2H13.8088V490.432C14.4808 491.504 15.6168 492.192 17.0408 492.192C19.2968 492.192 21.1688 490.368 21.1688 488C21.1688 485.632 19.2968 483.808 17.0408 483.808ZM16.9608 491.168C15.1848 491.168 13.8088 489.776 13.8088 488C13.8088 486.224 15.1848 484.832 16.9608 484.832C18.7368 484.832 20.1128 486.224 20.1128 488C20.1128 489.776 18.7368 491.168 16.9608 491.168ZM23.9807 485.328V484H22.9247V492H23.9807V487.552C23.9807 485.568 25.2287 484.896 26.5087 484.896V483.872C25.4847 483.872 24.5407 484.208 23.9807 485.328ZM31.1996 492.192C33.5356 492.192 35.4076 490.368 35.4076 488C35.4076 485.632 33.5356 483.808 31.1996 483.808C28.8636 483.808 26.9916 485.632 26.9916 488C26.9916 490.368 28.8636 492.192 31.1996 492.192ZM31.1996 491.168C29.4236 491.168 28.0476 489.776 28.0476 488C28.0476 486.224 29.4236 484.832 31.1996 484.832C32.9756 484.832 34.3516 486.224 34.3516 488C34.3516 489.776 32.9756 491.168 31.1996 491.168ZM44.0547 484V485.568C43.3827 484.496 42.2467 483.808 40.8227 483.808C38.5667 483.808 36.6947 485.632 36.6947 488C36.6947 490.368 38.5667 492.192 40.8227 492.192C42.2467 492.192 43.3827 491.504 44.0547 490.432V491.68C44.0547 493.312 42.9507 494.368 41.0947 494.368C39.3667 494.368 38.6307 493.728 38.2307 492.912L37.3027 493.44C37.9267 494.688 39.2547 495.392 41.0947 495.392C43.1587 495.392 45.1107 494.112 45.1107 491.68V484H44.0547ZM40.9027 491.168C39.1267 491.168 37.7507 489.776 37.7507 488C37.7507 486.224 39.1267 484.832 40.9027 484.832C42.6787 484.832 44.0547 486.224 44.0547 488C44.0547 489.776 42.6787 491.168 40.9027 491.168ZM48.4026 485.328V484H47.3466V492H48.4026V487.552C48.4026 485.568 49.6506 484.896 50.9306 484.896V483.872C49.9066 483.872 48.9626 484.208 48.4026 485.328ZM55.5894 483.808C53.1094 483.808 51.4134 485.648 51.4134 488C51.4134 490.416 53.1414 492.192 55.6694 492.192C57.2854 492.192 58.5174 491.44 59.1894 490.352L58.2614 489.808C57.8294 490.576 56.9494 491.168 55.6854 491.168C53.9894 491.168 52.7254 490.16 52.5014 488.528H59.5254C59.5414 488.368 59.5574 488.192 59.5574 488.032C59.5574 485.84 58.0374 483.808 55.5894 483.808ZM55.5894 484.832C56.9654 484.832 58.2454 485.744 58.4694 487.504H52.5014C52.7094 485.936 53.9094 484.832 55.5894 484.832ZM61.7567 486.096C61.7567 485.232 62.6047 484.832 63.4367 484.832C64.2047 484.832 65.0207 485.136 65.3567 485.952L66.2367 485.44C65.7727 484.448 64.7487 483.808 63.4367 483.808C61.8367 483.808 60.7007 484.816 60.7007 486.096C60.7007 489.04 65.3727 487.904 65.3727 489.888C65.3727 490.832 64.4767 491.168 63.5327 491.168C62.4607 491.168 61.6287 490.64 61.3407 489.824L60.4447 490.352C60.8447 491.376 61.9327 492.192 63.5327 492.192C65.2447 492.192 66.4287 491.248 66.4287 489.888C66.4287 486.944 61.7567 488.08 61.7567 486.096ZM68.5379 486.096C68.5379 485.232 69.3859 484.832 70.2179 484.832C70.9859 484.832 71.8019 485.136 72.1379 485.952L73.0179 485.44C72.5539 484.448 71.5299 483.808 70.2179 483.808C68.6179 483.808 67.4819 484.816 67.4819 486.096C67.4819 489.04 72.1539 487.904 72.1539 489.888C72.1539 490.832 71.2579 491.168 70.3139 491.168C69.2419 491.168 68.4099 490.64 68.1219 489.824L67.2259 490.352C67.6259 491.376 68.7139 492.192 70.3139 492.192C72.0259 492.192 73.2099 491.248 73.2099 489.888C73.2099 486.944 68.5379 488.08 68.5379 486.096ZM84.2676 488C85.1476 488 85.8516 487.28 85.8516 486.384C85.8516 485.504 85.1476 484.8 84.2676 484.8C83.3716 484.8 82.6516 485.504 82.6516 486.384C82.6516 487.28 83.3716 488 84.2676 488ZM105.4 484L103.432 490.64L101.336 484H100.28L98.1844 490.64L96.2164 484H95.1284L97.5924 492H98.7444L100.808 485.552L102.872 492H104.024L106.488 484H105.4ZM111.496 492.192C113.832 492.192 115.704 490.368 115.704 488C115.704 485.632 113.832 483.808 111.496 483.808C109.16 483.808 107.288 485.632 107.288 488C107.288 490.368 109.16 492.192 111.496 492.192ZM111.496 491.168C109.72 491.168 108.344 489.776 108.344 488C108.344 486.224 109.72 484.832 111.496 484.832C113.272 484.832 114.648 486.224 114.648 488C114.648 489.776 113.272 491.168 111.496 491.168ZM118.528 485.328V484H117.472V492H118.528V487.552C118.528 485.568 119.776 484.896 121.056 484.896V483.872C120.032 483.872 119.088 484.208 118.528 485.328ZM128.967 492L124.679 487.84L128.807 484H127.367L123.559 487.536V480.8H122.503V492H123.559V488.144L127.559 492H128.967ZM134.937 482.304C135.369 482.304 135.705 481.952 135.705 481.536C135.705 481.12 135.369 480.768 134.937 480.768C134.505 480.768 134.169 481.12 134.169 481.536C134.169 481.952 134.505 482.304 134.937 482.304ZM134.409 492H135.465V484H134.409V492ZM141.45 483.808C140.314 483.808 139.386 484.24 138.762 485.248V484H137.706V492H138.762V487.808C138.762 485.664 139.946 484.832 141.354 484.832C142.746 484.832 143.53 485.664 143.53 487.088V492H144.586V487.088C144.586 485.088 143.402 483.808 141.45 483.808ZM154.916 483.808C153.492 483.808 152.356 484.496 151.684 485.568V484H150.628V495.2H151.684V490.432C152.356 491.504 153.492 492.192 154.916 492.192C157.172 492.192 159.044 490.368 159.044 488C159.044 485.632 157.172 483.808 154.916 483.808ZM154.836 491.168C153.06 491.168 151.684 489.776 151.684 488C151.684 486.224 153.06 484.832 154.836 484.832C156.612 484.832 157.988 486.224 157.988 488C157.988 489.776 156.612 491.168 154.836 491.168ZM161.856 485.328V484H160.8V492H161.856V487.552C161.856 485.568 163.104 484.896 164.384 484.896V483.872C163.36 483.872 162.416 484.208 161.856 485.328ZM169.075 492.192C171.411 492.192 173.283 490.368 173.283 488C173.283 485.632 171.411 483.808 169.075 483.808C166.739 483.808 164.867 485.632 164.867 488C164.867 490.368 166.739 492.192 169.075 492.192ZM169.075 491.168C167.299 491.168 165.923 489.776 165.923 488C165.923 486.224 167.299 484.832 169.075 484.832C170.851 484.832 172.227 486.224 172.227 488C172.227 489.776 170.851 491.168 169.075 491.168ZM181.93 484V485.568C181.258 484.496 180.122 483.808 178.698 483.808C176.442 483.808 174.57 485.632 174.57 488C174.57 490.368 176.442 492.192 178.698 492.192C180.122 492.192 181.258 491.504 181.93 490.432V491.68C181.93 493.312 180.826 494.368 178.97 494.368C177.242 494.368 176.506 493.728 176.106 492.912L175.178 493.44C175.802 494.688 177.13 495.392 178.97 495.392C181.034 495.392 182.986 494.112 182.986 491.68V484H181.93ZM178.778 491.168C177.002 491.168 175.626 489.776 175.626 488C175.626 486.224 177.002 484.832 178.778 484.832C180.554 484.832 181.93 486.224 181.93 488C181.93 489.776 180.554 491.168 178.778 491.168ZM186.278 485.328V484H185.222V492H186.278V487.552C186.278 485.568 187.526 484.896 188.806 484.896V483.872C187.782 483.872 186.838 484.208 186.278 485.328ZM193.464 483.808C190.984 483.808 189.288 485.648 189.288 488C189.288 490.416 191.016 492.192 193.544 492.192C195.16 492.192 196.392 491.44 197.064 490.352L196.136 489.808C195.704 490.576 194.824 491.168 193.56 491.168C191.864 491.168 190.6 490.16 190.376 488.528H197.4C197.416 488.368 197.432 488.192 197.432 488.032C197.432 485.84 195.912 483.808 193.464 483.808ZM193.464 484.832C194.84 484.832 196.12 485.744 196.344 487.504H190.376C190.584 485.936 191.784 484.832 193.464 484.832ZM199.632 486.096C199.632 485.232 200.48 484.832 201.312 484.832C202.08 484.832 202.896 485.136 203.232 485.952L204.112 485.44C203.648 484.448 202.624 483.808 201.312 483.808C199.712 483.808 198.576 484.816 198.576 486.096C198.576 489.04 203.248 487.904 203.248 489.888C203.248 490.832 202.352 491.168 201.408 491.168C200.336 491.168 199.504 490.64 199.216 489.824L198.32 490.352C198.72 491.376 199.808 492.192 201.408 492.192C203.12 492.192 204.304 491.248 204.304 489.888C204.304 486.944 199.632 488.08 199.632 486.096ZM206.413 486.096C206.413 485.232 207.261 484.832 208.093 484.832C208.861 484.832 209.677 485.136 210.013 485.952L210.893 485.44C210.429 484.448 209.405 483.808 208.093 483.808C206.493 483.808 205.357 484.816 205.357 486.096C205.357 489.04 210.029 487.904 210.029 489.888C210.029 490.832 209.133 491.168 208.189 491.168C207.117 491.168 206.285 490.64 205.997 489.824L205.101 490.352C205.501 491.376 206.589 492.192 208.189 492.192C209.901 492.192 211.085 491.248 211.085 489.888C211.085 486.944 206.413 488.08 206.413 486.096ZM222.143 488C223.023 488 223.727 487.28 223.727 486.384C223.727 485.504 223.023 484.8 222.143 484.8C221.247 484.8 220.527 485.504 220.527 486.384C220.527 487.28 221.247 488 222.143 488ZM243.275 484L241.307 490.64L239.211 484H238.155L236.059 490.64L234.091 484H233.003L235.467 492H236.619L238.683 485.552L240.747 492H241.899L244.363 484H243.275ZM249.371 492.192C251.707 492.192 253.579 490.368 253.579 488C253.579 485.632 251.707 483.808 249.371 483.808C247.035 483.808 245.163 485.632 245.163 488C245.163 490.368 247.035 492.192 249.371 492.192ZM249.371 491.168C247.595 491.168 246.219 489.776 246.219 488C246.219 486.224 247.595 484.832 249.371 484.832C251.147 484.832 252.523 486.224 252.523 488C252.523 489.776 251.147 491.168 249.371 491.168ZM256.403 485.328V484H255.347V492H256.403V487.552C256.403 485.568 257.651 484.896 258.931 484.896V483.872C257.907 483.872 256.963 484.208 256.403 485.328ZM266.842 492L262.554 487.84L266.682 484H265.242L261.434 487.536V480.8H260.378V492H261.434V488.144L265.434 492H266.842ZM272.812 482.304C273.244 482.304 273.58 481.952 273.58 481.536C273.58 481.12 273.244 480.768 272.812 480.768C272.38 480.768 272.044 481.12 272.044 481.536C272.044 481.952 272.38 482.304 272.812 482.304ZM272.284 492H273.34V484H272.284V492ZM279.325 483.808C278.189 483.808 277.261 484.24 276.637 485.248V484H275.581V492H276.637V487.808C276.637 485.664 277.821 484.832 279.229 484.832C280.621 484.832 281.405 485.664 281.405 487.088V492H282.461V487.088C282.461 485.088 281.277 483.808 279.325 483.808ZM292.791 483.808C291.367 483.808 290.231 484.496 289.559 485.568V484H288.503V495.2H289.559V490.432C290.231 491.504 291.367 492.192 292.791 492.192C295.047 492.192 296.919 490.368 296.919 488C296.919 485.632 295.047 483.808 292.791 483.808ZM292.711 491.168C290.935 491.168 289.559 489.776 289.559 488C289.559 486.224 290.935 484.832 292.711 484.832C294.487 484.832 295.863 486.224 295.863 488C295.863 489.776 294.487 491.168 292.711 491.168ZM299.731 485.328V484H298.675V492H299.731V487.552C299.731 485.568 300.979 484.896 302.259 484.896V483.872C301.235 483.872 300.291 484.208 299.731 485.328ZM306.95 492.192C309.286 492.192 311.158 490.368 311.158 488C311.158 485.632 309.286 483.808 306.95 483.808C304.614 483.808 302.742 485.632 302.742 488C302.742 490.368 304.614 492.192 306.95 492.192ZM306.95 491.168C305.174 491.168 303.798 489.776 303.798 488C303.798 486.224 305.174 484.832 306.95 484.832C308.726 484.832 310.102 486.224 310.102 488C310.102 489.776 308.726 491.168 306.95 491.168ZM319.805 484V485.568C319.133 484.496 317.997 483.808 316.573 483.808C314.317 483.808 312.445 485.632 312.445 488C312.445 490.368 314.317 492.192 316.573 492.192C317.997 492.192 319.133 491.504 319.805 490.432V491.68C319.805 493.312 318.701 494.368 316.845 494.368C315.117 494.368 314.381 493.728 313.981 492.912L313.053 493.44C313.677 494.688 315.005 495.392 316.845 495.392C318.909 495.392 320.861 494.112 320.861 491.68V484H319.805ZM316.653 491.168C314.877 491.168 313.501 489.776 313.501 488C313.501 486.224 314.877 484.832 316.653 484.832C318.429 484.832 319.805 486.224 319.805 488C319.805 489.776 318.429 491.168 316.653 491.168ZM324.153 485.328V484H323.097V492H324.153V487.552C324.153 485.568 325.401 484.896 326.681 484.896V483.872C325.657 483.872 324.713 484.208 324.153 485.328ZM331.339 483.808C328.859 483.808 327.163 485.648 327.163 488C327.163 490.416 328.891 492.192 331.419 492.192C333.035 492.192 334.267 491.44 334.939 490.352L334.011 489.808C333.579 490.576 332.699 491.168 331.435 491.168C329.739 491.168 328.475 490.16 328.251 488.528H335.275C335.291 488.368 335.307 488.192 335.307 488.032C335.307 485.84 333.787 483.808 331.339 483.808ZM331.339 484.832C332.715 484.832 333.995 485.744 334.219 487.504H328.251C328.459 485.936 329.659 484.832 331.339 484.832ZM337.507 486.096C337.507 485.232 338.355 484.832 339.187 484.832C339.955 484.832 340.771 485.136 341.107 485.952L341.987 485.44C341.523 484.448 340.499 483.808 339.187 483.808C337.587 483.808 336.451 484.816 336.451 486.096C336.451 489.04 341.123 487.904 341.123 489.888C341.123 490.832 340.227 491.168 339.283 491.168C338.211 491.168 337.379 490.64 337.091 489.824L336.195 490.352C336.595 491.376 337.683 492.192 339.283 492.192C340.995 492.192 342.179 491.248 342.179 489.888C342.179 486.944 337.507 488.08 337.507 486.096ZM344.288 486.096C344.288 485.232 345.136 484.832 345.968 484.832C346.736 484.832 347.552 485.136 347.888 485.952L348.768 485.44C348.304 484.448 347.28 483.808 345.968 483.808C344.368 483.808 343.232 484.816 343.232 486.096C343.232 489.04 347.904 487.904 347.904 489.888C347.904 490.832 347.008 491.168 346.064 491.168C344.992 491.168 344.16 490.64 343.872 489.824L342.976 490.352C343.376 491.376 344.464 492.192 346.064 492.192C347.776 492.192 348.96 491.248 348.96 489.888C348.96 486.944 344.288 488.08 344.288 486.096ZM360.018 488C360.898 488 361.602 487.28 361.602 486.384C361.602 485.504 360.898 484.8 360.018 484.8C359.122 484.8 358.402 485.504 358.402 486.384C358.402 487.28 359.122 488 360.018 488ZM381.15 484L379.182 490.64L377.086 484H376.03L373.934 490.64L371.966 484H370.878L373.342 492H374.494L376.558 485.552L378.622 492H379.774L382.238 484H381.15ZM387.246 492.192C389.582 492.192 391.454 490.368 391.454 488C391.454 485.632 389.582 483.808 387.246 483.808C384.91 483.808 383.038 485.632 383.038 488C383.038 490.368 384.91 492.192 387.246 492.192ZM387.246 491.168C385.47 491.168 384.094 489.776 384.094 488C384.094 486.224 385.47 484.832 387.246 484.832C389.022 484.832 390.398 486.224 390.398 488C390.398 489.776 389.022 491.168 387.246 491.168ZM394.278 485.328V484H393.222V492H394.278V487.552C394.278 485.568 395.526 484.896 396.806 484.896V483.872C395.782 483.872 394.838 484.208 394.278 485.328ZM404.717 492L400.429 487.84L404.557 484H403.117L399.309 487.536V480.8H398.253V492H399.309V488.144L403.309 492H404.717ZM410.687 482.304C411.119 482.304 411.455 481.952 411.455 481.536C411.455 481.12 411.119 480.768 410.687 480.768C410.255 480.768 409.919 481.12 409.919 481.536C409.919 481.952 410.255 482.304 410.687 482.304ZM410.159 492H411.215V484H410.159V492ZM417.2 483.808C416.064 483.808 415.136 484.24 414.512 485.248V484H413.456V492H414.512V487.808C414.512 485.664 415.696 484.832 417.104 484.832C418.496 484.832 419.28 485.664 419.28 487.088V492H420.336V487.088C420.336 485.088 419.152 483.808 417.2 483.808ZM430.666 483.808C429.242 483.808 428.106 484.496 427.434 485.568V484H426.378V495.2H427.434V490.432C428.106 491.504 429.242 492.192 430.666 492.192C432.922 492.192 434.794 490.368 434.794 488C434.794 485.632 432.922 483.808 430.666 483.808ZM430.586 491.168C428.81 491.168 427.434 489.776 427.434 488C427.434 486.224 428.81 484.832 430.586 484.832C432.362 484.832 433.738 486.224 433.738 488C433.738 489.776 432.362 491.168 430.586 491.168ZM437.606 485.328V484H436.55V492H437.606V487.552C437.606 485.568 438.854 484.896 440.134 484.896V483.872C439.11 483.872 438.166 484.208 437.606 485.328ZM444.825 492.192C447.161 492.192 449.033 490.368 449.033 488C449.033 485.632 447.161 483.808 444.825 483.808C442.489 483.808 440.617 485.632 440.617 488C440.617 490.368 442.489 492.192 444.825 492.192ZM444.825 491.168C443.049 491.168 441.673 489.776 441.673 488C441.673 486.224 443.049 484.832 444.825 484.832C446.601 484.832 447.977 486.224 447.977 488C447.977 489.776 446.601 491.168 444.825 491.168ZM457.68 484V485.568C457.008 484.496 455.872 483.808 454.448 483.808C452.192 483.808 450.32 485.632 450.32 488C450.32 490.368 452.192 492.192 454.448 492.192C455.872 492.192 457.008 491.504 457.68 490.432V491.68C457.68 493.312 456.576 494.368 454.72 494.368C452.992 494.368 452.256 493.728 451.856 492.912L450.928 493.44C451.552 494.688 452.88 495.392 454.72 495.392C456.784 495.392 458.736 494.112 458.736 491.68V484H457.68ZM454.528 491.168C452.752 491.168 451.376 489.776 451.376 488C451.376 486.224 452.752 484.832 454.528 484.832C456.304 484.832 457.68 486.224 457.68 488C457.68 489.776 456.304 491.168 454.528 491.168ZM462.028 485.328V484H460.972V492H462.028V487.552C462.028 485.568 463.276 484.896 464.556 484.896V483.872C463.532 483.872 462.588 484.208 462.028 485.328ZM469.214 483.808C466.734 483.808 465.038 485.648 465.038 488C465.038 490.416 466.766 492.192 469.294 492.192C470.91 492.192 472.142 491.44 472.814 490.352L471.886 489.808C471.454 490.576 470.574 491.168 469.31 491.168C467.614 491.168 466.35 490.16 466.126 488.528H473.15C473.166 488.368 473.182 488.192 473.182 488.032C473.182 485.84 471.662 483.808 469.214 483.808ZM469.214 484.832C470.59 484.832 471.87 485.744 472.094 487.504H466.126C466.334 485.936 467.534 484.832 469.214 484.832ZM475.382 486.096C475.382 485.232 476.23 484.832 477.062 484.832C477.83 484.832 478.646 485.136 478.982 485.952L479.862 485.44C479.398 484.448 478.374 483.808 477.062 483.808C475.462 483.808 474.326 484.816 474.326 486.096C474.326 489.04 478.998 487.904 478.998 489.888C478.998 490.832 478.102 491.168 477.158 491.168C476.086 491.168 475.254 490.64 474.966 489.824L474.07 490.352C474.47 491.376 475.558 492.192 477.158 492.192C478.87 492.192 480.054 491.248 480.054 489.888C480.054 486.944 475.382 488.08 475.382 486.096ZM482.163 486.096C482.163 485.232 483.011 484.832 483.843 484.832C484.611 484.832 485.427 485.136 485.763 485.952L486.643 485.44C486.179 484.448 485.155 483.808 483.843 483.808C482.243 483.808 481.107 484.816 481.107 486.096C481.107 489.04 485.779 487.904 485.779 489.888C485.779 490.832 484.883 491.168 483.939 491.168C482.867 491.168 482.035 490.64 481.747 489.824L480.851 490.352C481.251 491.376 482.339 492.192 483.939 492.192C485.651 492.192 486.835 491.248 486.835 489.888C486.835 486.944 482.163 488.08 482.163 486.096ZM497.893 488C498.773 488 499.477 487.28 499.477 486.384C499.477 485.504 498.773 484.8 497.893 484.8C496.997 484.8 496.277 485.504 496.277 486.384C496.277 487.28 496.997 488 497.893 488ZM519.025 484L517.057 490.64L514.961 484H513.905L511.809 490.64L509.841 484H508.753L511.217 492H512.369L514.433 485.552L516.497 492H517.649L520.113 484H519.025ZM525.121 492.192C527.457 492.192 529.329 490.368 529.329 488C529.329 485.632 527.457 483.808 525.121 483.808C522.785 483.808 520.913 485.632 520.913 488C520.913 490.368 522.785 492.192 525.121 492.192ZM525.121 491.168C523.345 491.168 521.969 489.776 521.969 488C521.969 486.224 523.345 484.832 525.121 484.832C526.897 484.832 528.273 486.224 528.273 488C528.273 489.776 526.897 491.168 525.121 491.168ZM532.153 485.328V484H531.097V492H532.153V487.552C532.153 485.568 533.401 484.896 534.681 484.896V483.872C533.657 483.872 532.713 484.208 532.153 485.328ZM542.592 492L538.304 487.84L542.432 484H540.992L537.184 487.536V480.8H536.128V492H537.184V488.144L541.184 492H542.592ZM548.562 482.304C548.994 482.304 549.33 481.952 549.33 481.536C549.33 481.12 548.994 480.768 548.562 480.768C548.13 480.768 547.794 481.12 547.794 481.536C547.794 481.952 548.13 482.304 548.562 482.304ZM548.034 492H549.09V484H548.034V492ZM555.075 483.808C553.939 483.808 553.011 484.24 552.387 485.248V484H551.331V492H552.387V487.808C552.387 485.664 553.571 484.832 554.979 484.832C556.371 484.832 557.155 485.664 557.155 487.088V492H558.211V487.088C558.211 485.088 557.027 483.808 555.075 483.808ZM568.541 483.808C567.117 483.808 565.981 484.496 565.309 485.568V484H564.253V495.2H565.309V490.432C565.981 491.504 567.117 492.192 568.541 492.192C570.797 492.192 572.669 490.368 572.669 488C572.669 485.632 570.797 483.808 568.541 483.808ZM568.461 491.168C566.685 491.168 565.309 489.776 565.309 488C565.309 486.224 566.685 484.832 568.461 484.832C570.237 484.832 571.613 486.224 571.613 488C571.613 489.776 570.237 491.168 568.461 491.168ZM575.481 485.328V484H574.425V492H575.481V487.552C575.481 485.568 576.729 484.896 578.009 484.896V483.872C576.985 483.872 576.041 484.208 575.481 485.328ZM582.7 492.192C585.036 492.192 586.908 490.368 586.908 488C586.908 485.632 585.036 483.808 582.7 483.808C580.364 483.808 578.492 485.632 578.492 488C578.492 490.368 580.364 492.192 582.7 492.192ZM582.7 491.168C580.924 491.168 579.548 489.776 579.548 488C579.548 486.224 580.924 484.832 582.7 484.832C584.476 484.832 585.852 486.224 585.852 488C585.852 489.776 584.476 491.168 582.7 491.168ZM595.555 484V485.568C594.883 484.496 593.747 483.808 592.323 483.808C590.067 483.808 588.195 485.632 588.195 488C588.195 490.368 590.067 492.192 592.323 492.192C593.747 492.192 594.883 491.504 595.555 490.432V491.68C595.555 493.312 594.451 494.368 592.595 494.368C590.867 494.368 590.131 493.728 589.731 492.912L588.803 493.44C589.427 494.688 590.755 495.392 592.595 495.392C594.659 495.392 596.611 494.112 596.611 491.68V484H595.555ZM592.403 491.168C590.627 491.168 589.251 489.776 589.251 488C589.251 486.224 590.627 484.832 592.403 484.832C594.179 484.832 595.555 486.224 595.555 488C595.555 489.776 594.179 491.168 592.403 491.168ZM599.903 485.328V484H598.847V492H599.903V487.552C599.903 485.568 601.151 484.896 602.431 484.896V483.872C601.407 483.872 600.463 484.208 599.903 485.328ZM607.089 483.808C604.609 483.808 602.913 485.648 602.913 488C602.913 490.416 604.641 492.192 607.169 492.192C608.785 492.192 610.017 491.44 610.689 490.352L609.761 489.808C609.329 490.576 608.449 491.168 607.185 491.168C605.489 491.168 604.225 490.16 604.001 488.528H611.025C611.041 488.368 611.057 488.192 611.057 488.032C611.057 485.84 609.537 483.808 607.089 483.808ZM607.089 484.832C608.465 484.832 609.745 485.744 609.969 487.504H604.001C604.209 485.936 605.409 484.832 607.089 484.832ZM613.257 486.096C613.257 485.232 614.105 484.832 614.937 484.832C615.705 484.832 616.521 485.136 616.857 485.952L617.737 485.44C617.273 484.448 616.249 483.808 614.937 483.808C613.337 483.808 612.201 484.816 612.201 486.096C612.201 489.04 616.873 487.904 616.873 489.888C616.873 490.832 615.977 491.168 615.033 491.168C613.961 491.168 613.129 490.64 612.841 489.824L611.945 490.352C612.345 491.376 613.433 492.192 615.033 492.192C616.745 492.192 617.929 491.248 617.929 489.888C617.929 486.944 613.257 488.08 613.257 486.096ZM620.038 486.096C620.038 485.232 620.886 484.832 621.718 484.832C622.486 484.832 623.302 485.136 623.638 485.952L624.518 485.44C624.054 484.448 623.03 483.808 621.718 483.808C620.118 483.808 618.982 484.816 618.982 486.096C618.982 489.04 623.654 487.904 623.654 489.888C623.654 490.832 622.758 491.168 621.814 491.168C620.742 491.168 619.91 490.64 619.622 489.824L618.726 490.352C619.126 491.376 620.214 492.192 621.814 492.192C623.526 492.192 624.71 491.248 624.71 489.888C624.71 486.944 620.038 488.08 620.038 486.096ZM635.768 488C636.648 488 637.352 487.28 637.352 486.384C637.352 485.504 636.648 484.8 635.768 484.8C634.872 484.8 634.152 485.504 634.152 486.384C634.152 487.28 634.872 488 635.768 488ZM656.9 484L654.932 490.64L652.836 484H651.78L649.684 490.64L647.716 484H646.628L649.092 492H650.244L652.308 485.552L654.372 492H655.524L657.988 484H656.9ZM662.996 492.192C665.332 492.192 667.204 490.368 667.204 488C667.204 485.632 665.332 483.808 662.996 483.808C660.66 483.808 658.788 485.632 658.788 488C658.788 490.368 660.66 492.192 662.996 492.192ZM662.996 491.168C661.22 491.168 659.844 489.776 659.844 488C659.844 486.224 661.22 484.832 662.996 484.832C664.772 484.832 666.148 486.224 666.148 488C666.148 489.776 664.772 491.168 662.996 491.168ZM670.028 485.328V484H668.972V492H670.028V487.552C670.028 485.568 671.276 484.896 672.556 484.896V483.872C671.532 483.872 670.588 484.208 670.028 485.328ZM680.467 492L676.179 487.84L680.307 484H678.867L675.059 487.536V480.8H674.003V492H675.059V488.144L679.059 492H680.467ZM686.437 482.304C686.869 482.304 687.205 481.952 687.205 481.536C687.205 481.12 686.869 480.768 686.437 480.768C686.005 480.768 685.669 481.12 685.669 481.536C685.669 481.952 686.005 482.304 686.437 482.304ZM685.909 492H686.965V484H685.909V492ZM692.95 483.808C691.814 483.808 690.886 484.24 690.262 485.248V484H689.206V492H690.262V487.808C690.262 485.664 691.446 484.832 692.854 484.832C694.246 484.832 695.03 485.664 695.03 487.088V492H696.086V487.088C696.086 485.088 694.902 483.808 692.95 483.808ZM706.416 483.808C704.992 483.808 703.856 484.496 703.184 485.568V484H702.128V495.2H703.184V490.432C703.856 491.504 704.992 492.192 706.416 492.192C708.672 492.192 710.544 490.368 710.544 488C710.544 485.632 708.672 483.808 706.416 483.808ZM706.336 491.168C704.56 491.168 703.184 489.776 703.184 488C703.184 486.224 704.56 484.832 706.336 484.832C708.112 484.832 709.488 486.224 709.488 488C709.488 489.776 708.112 491.168 706.336 491.168ZM713.356 485.328V484H712.3V492H713.356V487.552C713.356 485.568 714.604 484.896 715.884 484.896V483.872C714.86 483.872 713.916 484.208 713.356 485.328ZM720.575 492.192C722.911 492.192 724.783 490.368 724.783 488C724.783 485.632 722.911 483.808 720.575 483.808C718.239 483.808 716.367 485.632 716.367 488C716.367 490.368 718.239 492.192 720.575 492.192ZM720.575 491.168C718.799 491.168 717.423 489.776 717.423 488C717.423 486.224 718.799 484.832 720.575 484.832C722.351 484.832 723.727 486.224 723.727 488C723.727 489.776 722.351 491.168 720.575 491.168ZM733.43 484V485.568C732.758 484.496 731.622 483.808 730.198 483.808C727.942 483.808 726.07 485.632 726.07 488C726.07 490.368 727.942 492.192 730.198 492.192C731.622 492.192 732.758 491.504 733.43 490.432V491.68C733.43 493.312 732.326 494.368 730.47 494.368C728.742 494.368 728.006 493.728 727.606 492.912L726.678 493.44C727.302 494.688 728.63 495.392 730.47 495.392C732.534 495.392 734.486 494.112 734.486 491.68V484H733.43ZM730.278 491.168C728.502 491.168 727.126 489.776 727.126 488C727.126 486.224 728.502 484.832 730.278 484.832C732.054 484.832 733.43 486.224 733.43 488C733.43 489.776 732.054 491.168 730.278 491.168ZM737.778 485.328V484H736.722V492H737.778V487.552C737.778 485.568 739.026 484.896 740.306 484.896V483.872C739.282 483.872 738.338 484.208 737.778 485.328ZM744.964 483.808C742.484 483.808 740.788 485.648 740.788 488C740.788 490.416 742.516 492.192 745.044 492.192C746.66 492.192 747.892 491.44 748.564 490.352L747.636 489.808C747.204 490.576 746.324 491.168 745.06 491.168C743.364 491.168 742.1 490.16 741.876 488.528H748.9C748.916 488.368 748.932 488.192 748.932 488.032C748.932 485.84 747.412 483.808 744.964 483.808ZM744.964 484.832C746.34 484.832 747.62 485.744 747.844 487.504H741.876C742.084 485.936 743.284 484.832 744.964 484.832ZM751.132 486.096C751.132 485.232 751.98 484.832 752.812 484.832C753.58 484.832 754.396 485.136 754.732 485.952L755.612 485.44C755.148 484.448 754.124 483.808 752.812 483.808C751.212 483.808 750.076 484.816 750.076 486.096C750.076 489.04 754.748 487.904 754.748 489.888C754.748 490.832 753.852 491.168 752.908 491.168C751.836 491.168 751.004 490.64 750.716 489.824L749.82 490.352C750.22 491.376 751.308 492.192 752.908 492.192C754.62 492.192 755.804 491.248 755.804 489.888C755.804 486.944 751.132 488.08 751.132 486.096ZM757.913 486.096C757.913 485.232 758.761 484.832 759.593 484.832C760.361 484.832 761.177 485.136 761.513 485.952L762.393 485.44C761.929 484.448 760.905 483.808 759.593 483.808C757.993 483.808 756.857 484.816 756.857 486.096C756.857 489.04 761.529 487.904 761.529 489.888C761.529 490.832 760.633 491.168 759.689 491.168C758.617 491.168 757.785 490.64 757.497 489.824L756.601 490.352C757.001 491.376 758.089 492.192 759.689 492.192C761.401 492.192 762.585 491.248 762.585 489.888C762.585 486.944 757.913 488.08 757.913 486.096Z" fill="white"/>
<path opacity="0.2" d="M-32.4746 14L-34.4426 20.64L-36.5386 14H-37.5946L-39.6906 20.64L-41.6586 14H-42.7466L-40.2826 22H-39.1306L-37.0666 15.552L-35.0026 22H-33.8506L-31.3866 14H-32.4746ZM-26.3786 22.192C-24.0426 22.192 -22.1706 20.368 -22.1706 18C-22.1706 15.632 -24.0426 13.808 -26.3786 13.808C-28.7146 13.808 -30.5866 15.632 -30.5866 18C-30.5866 20.368 -28.7146 22.192 -26.3786 22.192ZM-26.3786 21.168C-28.1546 21.168 -29.5306 19.776 -29.5306 18C-29.5306 16.224 -28.1546 14.832 -26.3786 14.832C-24.6026 14.832 -23.2266 16.224 -23.2266 18C-23.2266 19.776 -24.6026 21.168 -26.3786 21.168ZM-19.3474 15.328V14H-20.4034V22H-19.3474V17.552C-19.3474 15.568 -18.0994 14.896 -16.8194 14.896V13.872C-17.8434 13.872 -18.7874 14.208 -19.3474 15.328ZM-8.90819 22L-13.1962 17.84L-9.06819 14H-10.5082L-14.3162 17.536V10.8H-15.3722V22H-14.3162V18.144L-10.3162 22H-8.90819ZM-2.93794 12.304C-2.50594 12.304 -2.16994 11.952 -2.16994 11.536C-2.16994 11.12 -2.50594 10.768 -2.93794 10.768C-3.36994 10.768 -3.70594 11.12 -3.70594 11.536C-3.70594 11.952 -3.36994 12.304 -2.93794 12.304ZM-3.46594 22H-2.40994V14H-3.46594V22ZM3.57494 13.808C2.43894 13.808 1.51094 14.24 0.886938 15.248V14H-0.169062V22H0.886938V17.808C0.886938 15.664 2.07094 14.832 3.47894 14.832C4.87094 14.832 5.65494 15.664 5.65494 17.088V22H6.71094V17.088C6.71094 15.088 5.52694 13.808 3.57494 13.808ZM17.0408 13.808C15.6168 13.808 14.4808 14.496 13.8088 15.568V14H12.7528V25.2H13.8088V20.432C14.4808 21.504 15.6168 22.192 17.0408 22.192C19.2968 22.192 21.1688 20.368 21.1688 18C21.1688 15.632 19.2968 13.808 17.0408 13.808ZM16.9608 21.168C15.1848 21.168 13.8088 19.776 13.8088 18C13.8088 16.224 15.1848 14.832 16.9608 14.832C18.7368 14.832 20.1128 16.224 20.1128 18C20.1128 19.776 18.7368 21.168 16.9608 21.168ZM23.9807 15.328V14H22.9247V22H23.9807V17.552C23.9807 15.568 25.2287 14.896 26.5087 14.896V13.872C25.4847 13.872 24.5407 14.208 23.9807 15.328ZM31.1996 22.192C33.5356 22.192 35.4076 20.368 35.4076 18C35.4076 15.632 33.5356 13.808 31.1996 13.808C28.8636 13.808 26.9916 15.632 26.9916 18C26.9916 20.368 28.8636 22.192 31.1996 22.192ZM31.1996 21.168C29.4236 21.168 28.0476 19.776 28.0476 18C28.0476 16.224 29.4236 14.832 31.1996 14.832C32.9756 14.832 34.3516 16.224 34.3516 18C34.3516 19.776 32.9756 21.168 31.1996 21.168ZM44.0547 14V15.568C43.3827 14.496 42.2467 13.808 40.8227 13.808C38.5667 13.808 36.6947 15.632 36.6947 18C36.6947 20.368 38.5667 22.192 40.8227 22.192C42.2467 22.192 43.3827 21.504 44.0547 20.432V21.68C44.0547 23.312 42.9507 24.368 41.0947 24.368C39.3667 24.368 38.6307 23.728 38.2307 22.912L37.3027 23.44C37.9267 24.688 39.2547 25.392 41.0947 25.392C43.1587 25.392 45.1107 24.112 45.1107 21.68V14H44.0547ZM40.9027 21.168C39.1267 21.168 37.7507 19.776 37.7507 18C37.7507 16.224 39.1267 14.832 40.9027 14.832C42.6787 14.832 44.0547 16.224 44.0547 18C44.0547 19.776 42.6787 21.168 40.9027 21.168ZM48.4026 15.328V14H47.3466V22H48.4026V17.552C48.4026 15.568 49.6506 14.896 50.9306 14.896V13.872C49.9066 13.872 48.9626 14.208 48.4026 15.328ZM55.5894 13.808C53.1094 13.808 51.4134 15.648 51.4134 18C51.4134 20.416 53.1414 22.192 55.6694 22.192C57.2854 22.192 58.5174 21.44 59.1894 20.352L58.2614 19.808C57.8294 20.576 56.9494 21.168 55.6854 21.168C53.9894 21.168 52.7254 20.16 52.5014 18.528H59.5254C59.5414 18.368 59.5574 18.192 59.5574 18.032C59.5574 15.84 58.0374 13.808 55.5894 13.808ZM55.5894 14.832C56.9654 14.832 58.2454 15.744 58.4694 17.504H52.5014C52.7094 15.936 53.9094 14.832 55.5894 14.832ZM61.7567 16.096C61.7567 15.232 62.6047 14.832 63.4367 14.832C64.2047 14.832 65.0207 15.136 65.3567 15.952L66.2367 15.44C65.7727 14.448 64.7487 13.808 63.4367 13.808C61.8367 13.808 60.7007 14.816 60.7007 16.096C60.7007 19.04 65.3727 17.904 65.3727 19.888C65.3727 20.832 64.4767 21.168 63.5327 21.168C62.4607 21.168 61.6287 20.64 61.3407 19.824L60.4447 20.352C60.8447 21.376 61.9327 22.192 63.5327 22.192C65.2447 22.192 66.4287 21.248 66.4287 19.888C66.4287 16.944 61.7567 18.08 61.7567 16.096ZM68.5379 16.096C68.5379 15.232 69.3859 14.832 70.2179 14.832C70.9859 14.832 71.8019 15.136 72.1379 15.952L73.0179 15.44C72.5539 14.448 71.5299 13.808 70.2179 13.808C68.6179 13.808 67.4819 14.816 67.4819 16.096C67.4819 19.04 72.1539 17.904 72.1539 19.888C72.1539 20.832 71.2579 21.168 70.3139 21.168C69.2419 21.168 68.4099 20.64 68.1219 19.824L67.2259 20.352C67.6259 21.376 68.7139 22.192 70.3139 22.192C72.0259 22.192 73.2099 21.248 73.2099 19.888C73.2099 16.944 68.5379 18.08 68.5379 16.096ZM84.2676 18C85.1476 18 85.8516 17.28 85.8516 16.384C85.8516 15.504 85.1476 14.8 84.2676 14.8C83.3716 14.8 82.6516 15.504 82.6516 16.384C82.6516 17.28 83.3716 18 84.2676 18ZM105.4 14L103.432 20.64L101.336 14H100.28L98.1844 20.64L96.2164 14H95.1284L97.5924 22H98.7444L100.808 15.552L102.872 22H104.024L106.488 14H105.4ZM111.496 22.192C113.832 22.192 115.704 20.368 115.704 18C115.704 15.632 113.832 13.808 111.496 13.808C109.16 13.808 107.288 15.632 107.288 18C107.288 20.368 109.16 22.192 111.496 22.192ZM111.496 21.168C109.72 21.168 108.344 19.776 108.344 18C108.344 16.224 109.72 14.832 111.496 14.832C113.272 14.832 114.648 16.224 114.648 18C114.648 19.776 113.272 21.168 111.496 21.168ZM118.528 15.328V14H117.472V22H118.528V17.552C118.528 15.568 119.776 14.896 121.056 14.896V13.872C120.032 13.872 119.088 14.208 118.528 15.328ZM128.967 22L124.679 17.84L128.807 14H127.367L123.559 17.536V10.8H122.503V22H123.559V18.144L127.559 22H128.967ZM134.937 12.304C135.369 12.304 135.705 11.952 135.705 11.536C135.705 11.12 135.369 10.768 134.937 10.768C134.505 10.768 134.169 11.12 134.169 11.536C134.169 11.952 134.505 12.304 134.937 12.304ZM134.409 22H135.465V14H134.409V22ZM141.45 13.808C140.314 13.808 139.386 14.24 138.762 15.248V14H137.706V22H138.762V17.808C138.762 15.664 139.946 14.832 141.354 14.832C142.746 14.832 143.53 15.664 143.53 17.088V22H144.586V17.088C144.586 15.088 143.402 13.808 141.45 13.808ZM154.916 13.808C153.492 13.808 152.356 14.496 151.684 15.568V14H150.628V25.2H151.684V20.432C152.356 21.504 153.492 22.192 154.916 22.192C157.172 22.192 159.044 20.368 159.044 18C159.044 15.632 157.172 13.808 154.916 13.808ZM154.836 21.168C153.06 21.168 151.684 19.776 151.684 18C151.684 16.224 153.06 14.832 154.836 14.832C156.612 14.832 157.988 16.224 157.988 18C157.988 19.776 156.612 21.168 154.836 21.168ZM161.856 15.328V14H160.8V22H161.856V17.552C161.856 15.568 163.104 14.896 164.384 14.896V13.872C163.36 13.872 162.416 14.208 161.856 15.328ZM169.075 22.192C171.411 22.192 173.283 20.368 173.283 18C173.283 15.632 171.411 13.808 169.075 13.808C166.739 13.808 164.867 15.632 164.867 18C164.867 20.368 166.739 22.192 169.075 22.192ZM169.075 21.168C167.299 21.168 165.923 19.776 165.923 18C165.923 16.224 167.299 14.832 169.075 14.832C170.851 14.832 172.227 16.224 172.227 18C172.227 19.776 170.851 21.168 169.075 21.168ZM181.93 14V15.568C181.258 14.496 180.122 13.808 178.698 13.808C176.442 13.808 174.57 15.632 174.57 18C174.57 20.368 176.442 22.192 178.698 22.192C180.122 22.192 181.258 21.504 181.93 20.432V21.68C181.93 23.312 180.826 24.368 178.97 24.368C177.242 24.368 176.506 23.728 176.106 22.912L175.178 23.44C175.802 24.688 177.13 25.392 178.97 25.392C181.034 25.392 182.986 24.112 182.986 21.68V14H181.93ZM178.778 21.168C177.002 21.168 175.626 19.776 175.626 18C175.626 16.224 177.002 14.832 178.778 14.832C180.554 14.832 181.93 16.224 181.93 18C181.93 19.776 180.554 21.168 178.778 21.168ZM186.278 15.328V14H185.222V22H186.278V17.552C186.278 15.568 187.526 14.896 188.806 14.896V13.872C187.782 13.872 186.838 14.208 186.278 15.328ZM193.464 13.808C190.984 13.808 189.288 15.648 189.288 18C189.288 20.416 191.016 22.192 193.544 22.192C195.16 22.192 196.392 21.44 197.064 20.352L196.136 19.808C195.704 20.576 194.824 21.168 193.56 21.168C191.864 21.168 190.6 20.16 190.376 18.528H197.4C197.416 18.368 197.432 18.192 197.432 18.032C197.432 15.84 195.912 13.808 193.464 13.808ZM193.464 14.832C194.84 14.832 196.12 15.744 196.344 17.504H190.376C190.584 15.936 191.784 14.832 193.464 14.832ZM199.632 16.096C199.632 15.232 200.48 14.832 201.312 14.832C202.08 14.832 202.896 15.136 203.232 15.952L204.112 15.44C203.648 14.448 202.624 13.808 201.312 13.808C199.712 13.808 198.576 14.816 198.576 16.096C198.576 19.04 203.248 17.904 203.248 19.888C203.248 20.832 202.352 21.168 201.408 21.168C200.336 21.168 199.504 20.64 199.216 19.824L198.32 20.352C198.72 21.376 199.808 22.192 201.408 22.192C203.12 22.192 204.304 21.248 204.304 19.888C204.304 16.944 199.632 18.08 199.632 16.096ZM206.413 16.096C206.413 15.232 207.261 14.832 208.093 14.832C208.861 14.832 209.677 15.136 210.013 15.952L210.893 15.44C210.429 14.448 209.405 13.808 208.093 13.808C206.493 13.808 205.357 14.816 205.357 16.096C205.357 19.04 210.029 17.904 210.029 19.888C210.029 20.832 209.133 21.168 208.189 21.168C207.117 21.168 206.285 20.64 205.997 19.824L205.101 20.352C205.501 21.376 206.589 22.192 208.189 22.192C209.901 22.192 211.085 21.248 211.085 19.888C211.085 16.944 206.413 18.08 206.413 16.096ZM222.143 18C223.023 18 223.727 17.28 223.727 16.384C223.727 15.504 223.023 14.8 222.143 14.8C221.247 14.8 220.527 15.504 220.527 16.384C220.527 17.28 221.247 18 222.143 18ZM243.275 14L241.307 20.64L239.211 14H238.155L236.059 20.64L234.091 14H233.003L235.467 22H236.619L238.683 15.552L240.747 22H241.899L244.363 14H243.275ZM249.371 22.192C251.707 22.192 253.579 20.368 253.579 18C253.579 15.632 251.707 13.808 249.371 13.808C247.035 13.808 245.163 15.632 245.163 18C245.163 20.368 247.035 22.192 249.371 22.192ZM249.371 21.168C247.595 21.168 246.219 19.776 246.219 18C246.219 16.224 247.595 14.832 249.371 14.832C251.147 14.832 252.523 16.224 252.523 18C252.523 19.776 251.147 21.168 249.371 21.168ZM256.403 15.328V14H255.347V22H256.403V17.552C256.403 15.568 257.651 14.896 258.931 14.896V13.872C257.907 13.872 256.963 14.208 256.403 15.328ZM266.842 22L262.554 17.84L266.682 14H265.242L261.434 17.536V10.8H260.378V22H261.434V18.144L265.434 22H266.842ZM272.812 12.304C273.244 12.304 273.58 11.952 273.58 11.536C273.58 11.12 273.244 10.768 272.812 10.768C272.38 10.768 272.044 11.12 272.044 11.536C272.044 11.952 272.38 12.304 272.812 12.304ZM272.284 22H273.34V14H272.284V22ZM279.325 13.808C278.189 13.808 277.261 14.24 276.637 15.248V14H275.581V22H276.637V17.808C276.637 15.664 277.821 14.832 279.229 14.832C280.621 14.832 281.405 15.664 281.405 17.088V22H282.461V17.088C282.461 15.088 281.277 13.808 279.325 13.808ZM292.791 13.808C291.367 13.808 290.231 14.496 289.559 15.568V14H288.503V25.2H289.559V20.432C290.231 21.504 291.367 22.192 292.791 22.192C295.047 22.192 296.919 20.368 296.919 18C296.919 15.632 295.047 13.808 292.791 13.808ZM292.711 21.168C290.935 21.168 289.559 19.776 289.559 18C289.559 16.224 290.935 14.832 292.711 14.832C294.487 14.832 295.863 16.224 295.863 18C295.863 19.776 294.487 21.168 292.711 21.168ZM299.731 15.328V14H298.675V22H299.731V17.552C299.731 15.568 300.979 14.896 302.259 14.896V13.872C301.235 13.872 300.291 14.208 299.731 15.328ZM306.95 22.192C309.286 22.192 311.158 20.368 311.158 18C311.158 15.632 309.286 13.808 306.95 13.808C304.614 13.808 302.742 15.632 302.742 18C302.742 20.368 304.614 22.192 306.95 22.192ZM306.95 21.168C305.174 21.168 303.798 19.776 303.798 18C303.798 16.224 305.174 14.832 306.95 14.832C308.726 14.832 310.102 16.224 310.102 18C310.102 19.776 308.726 21.168 306.95 21.168ZM319.805 14V15.568C319.133 14.496 317.997 13.808 316.573 13.808C314.317 13.808 312.445 15.632 312.445 18C312.445 20.368 314.317 22.192 316.573 22.192C317.997 22.192 319.133 21.504 319.805 20.432V21.68C319.805 23.312 318.701 24.368 316.845 24.368C315.117 24.368 314.381 23.728 313.981 22.912L313.053 23.44C313.677 24.688 315.005 25.392 316.845 25.392C318.909 25.392 320.861 24.112 320.861 21.68V14H319.805ZM316.653 21.168C314.877 21.168 313.501 19.776 313.501 18C313.501 16.224 314.877 14.832 316.653 14.832C318.429 14.832 319.805 16.224 319.805 18C319.805 19.776 318.429 21.168 316.653 21.168ZM324.153 15.328V14H323.097V22H324.153V17.552C324.153 15.568 325.401 14.896 326.681 14.896V13.872C325.657 13.872 324.713 14.208 324.153 15.328ZM331.339 13.808C328.859 13.808 327.163 15.648 327.163 18C327.163 20.416 328.891 22.192 331.419 22.192C333.035 22.192 334.267 21.44 334.939 20.352L334.011 19.808C333.579 20.576 332.699 21.168 331.435 21.168C329.739 21.168 328.475 20.16 328.251 18.528H335.275C335.291 18.368 335.307 18.192 335.307 18.032C335.307 15.84 333.787 13.808 331.339 13.808ZM331.339 14.832C332.715 14.832 333.995 15.744 334.219 17.504H328.251C328.459 15.936 329.659 14.832 331.339 14.832ZM337.507 16.096C337.507 15.232 338.355 14.832 339.187 14.832C339.955 14.832 340.771 15.136 341.107 15.952L341.987 15.44C341.523 14.448 340.499 13.808 339.187 13.808C337.587 13.808 336.451 14.816 336.451 16.096C336.451 19.04 341.123 17.904 341.123 19.888C341.123 20.832 340.227 21.168 339.283 21.168C338.211 21.168 337.379 20.64 337.091 19.824L336.195 20.352C336.595 21.376 337.683 22.192 339.283 22.192C340.995 22.192 342.179 21.248 342.179 19.888C342.179 16.944 337.507 18.08 337.507 16.096ZM344.288 16.096C344.288 15.232 345.136 14.832 345.968 14.832C346.736 14.832 347.552 15.136 347.888 15.952L348.768 15.44C348.304 14.448 347.28 13.808 345.968 13.808C344.368 13.808 343.232 14.816 343.232 16.096C343.232 19.04 347.904 17.904 347.904 19.888C347.904 20.832 347.008 21.168 346.064 21.168C344.992 21.168 344.16 20.64 343.872 19.824L342.976 20.352C343.376 21.376 344.464 22.192 346.064 22.192C347.776 22.192 348.96 21.248 348.96 19.888C348.96 16.944 344.288 18.08 344.288 16.096ZM360.018 18C360.898 18 361.602 17.28 361.602 16.384C361.602 15.504 360.898 14.8 360.018 14.8C359.122 14.8 358.402 15.504 358.402 16.384C358.402 17.28 359.122 18 360.018 18ZM381.15 14L379.182 20.64L377.086 14H376.03L373.934 20.64L371.966 14H370.878L373.342 22H374.494L376.558 15.552L378.622 22H379.774L382.238 14H381.15ZM387.246 22.192C389.582 22.192 391.454 20.368 391.454 18C391.454 15.632 389.582 13.808 387.246 13.808C384.91 13.808 383.038 15.632 383.038 18C383.038 20.368 384.91 22.192 387.246 22.192ZM387.246 21.168C385.47 21.168 384.094 19.776 384.094 18C384.094 16.224 385.47 14.832 387.246 14.832C389.022 14.832 390.398 16.224 390.398 18C390.398 19.776 389.022 21.168 387.246 21.168ZM394.278 15.328V14H393.222V22H394.278V17.552C394.278 15.568 395.526 14.896 396.806 14.896V13.872C395.782 13.872 394.838 14.208 394.278 15.328ZM404.717 22L400.429 17.84L404.557 14H403.117L399.309 17.536V10.8H398.253V22H399.309V18.144L403.309 22H404.717ZM410.687 12.304C411.119 12.304 411.455 11.952 411.455 11.536C411.455 11.12 411.119 10.768 410.687 10.768C410.255 10.768 409.919 11.12 409.919 11.536C409.919 11.952 410.255 12.304 410.687 12.304ZM410.159 22H411.215V14H410.159V22ZM417.2 13.808C416.064 13.808 415.136 14.24 414.512 15.248V14H413.456V22H414.512V17.808C414.512 15.664 415.696 14.832 417.104 14.832C418.496 14.832 419.28 15.664 419.28 17.088V22H420.336V17.088C420.336 15.088 419.152 13.808 417.2 13.808ZM430.666 13.808C429.242 13.808 428.106 14.496 427.434 15.568V14H426.378V25.2H427.434V20.432C428.106 21.504 429.242 22.192 430.666 22.192C432.922 22.192 434.794 20.368 434.794 18C434.794 15.632 432.922 13.808 430.666 13.808ZM430.586 21.168C428.81 21.168 427.434 19.776 427.434 18C427.434 16.224 428.81 14.832 430.586 14.832C432.362 14.832 433.738 16.224 433.738 18C433.738 19.776 432.362 21.168 430.586 21.168ZM437.606 15.328V14H436.55V22H437.606V17.552C437.606 15.568 438.854 14.896 440.134 14.896V13.872C439.11 13.872 438.166 14.208 437.606 15.328ZM444.825 22.192C447.161 22.192 449.033 20.368 449.033 18C449.033 15.632 447.161 13.808 444.825 13.808C442.489 13.808 440.617 15.632 440.617 18C440.617 20.368 442.489 22.192 444.825 22.192ZM444.825 21.168C443.049 21.168 441.673 19.776 441.673 18C441.673 16.224 443.049 14.832 444.825 14.832C446.601 14.832 447.977 16.224 447.977 18C447.977 19.776 446.601 21.168 444.825 21.168ZM457.68 14V15.568C457.008 14.496 455.872 13.808 454.448 13.808C452.192 13.808 450.32 15.632 450.32 18C450.32 20.368 452.192 22.192 454.448 22.192C455.872 22.192 457.008 21.504 457.68 20.432V21.68C457.68 23.312 456.576 24.368 454.72 24.368C452.992 24.368 452.256 23.728 451.856 22.912L450.928 23.44C451.552 24.688 452.88 25.392 454.72 25.392C456.784 25.392 458.736 24.112 458.736 21.68V14H457.68ZM454.528 21.168C452.752 21.168 451.376 19.776 451.376 18C451.376 16.224 452.752 14.832 454.528 14.832C456.304 14.832 457.68 16.224 457.68 18C457.68 19.776 456.304 21.168 454.528 21.168ZM462.028 15.328V14H460.972V22H462.028V17.552C462.028 15.568 463.276 14.896 464.556 14.896V13.872C463.532 13.872 462.588 14.208 462.028 15.328ZM469.214 13.808C466.734 13.808 465.038 15.648 465.038 18C465.038 20.416 466.766 22.192 469.294 22.192C470.91 22.192 472.142 21.44 472.814 20.352L471.886 19.808C471.454 20.576 470.574 21.168 469.31 21.168C467.614 21.168 466.35 20.16 466.126 18.528H473.15C473.166 18.368 473.182 18.192 473.182 18.032C473.182 15.84 471.662 13.808 469.214 13.808ZM469.214 14.832C470.59 14.832 471.87 15.744 472.094 17.504H466.126C466.334 15.936 467.534 14.832 469.214 14.832ZM475.382 16.096C475.382 15.232 476.23 14.832 477.062 14.832C477.83 14.832 478.646 15.136 478.982 15.952L479.862 15.44C479.398 14.448 478.374 13.808 477.062 13.808C475.462 13.808 474.326 14.816 474.326 16.096C474.326 19.04 478.998 17.904 478.998 19.888C478.998 20.832 478.102 21.168 477.158 21.168C476.086 21.168 475.254 20.64 474.966 19.824L474.07 20.352C474.47 21.376 475.558 22.192 477.158 22.192C478.87 22.192 480.054 21.248 480.054 19.888C480.054 16.944 475.382 18.08 475.382 16.096ZM482.163 16.096C482.163 15.232 483.011 14.832 483.843 14.832C484.611 14.832 485.427 15.136 485.763 15.952L486.643 15.44C486.179 14.448 485.155 13.808 483.843 13.808C482.243 13.808 481.107 14.816 481.107 16.096C481.107 19.04 485.779 17.904 485.779 19.888C485.779 20.832 484.883 21.168 483.939 21.168C482.867 21.168 482.035 20.64 481.747 19.824L480.851 20.352C481.251 21.376 482.339 22.192 483.939 22.192C485.651 22.192 486.835 21.248 486.835 19.888C486.835 16.944 482.163 18.08 482.163 16.096ZM497.893 18C498.773 18 499.477 17.28 499.477 16.384C499.477 15.504 498.773 14.8 497.893 14.8C496.997 14.8 496.277 15.504 496.277 16.384C496.277 17.28 496.997 18 497.893 18ZM519.025 14L517.057 20.64L514.961 14H513.905L511.809 20.64L509.841 14H508.753L511.217 22H512.369L514.433 15.552L516.497 22H517.649L520.113 14H519.025ZM525.121 22.192C527.457 22.192 529.329 20.368 529.329 18C529.329 15.632 527.457 13.808 525.121 13.808C522.785 13.808 520.913 15.632 520.913 18C520.913 20.368 522.785 22.192 525.121 22.192ZM525.121 21.168C523.345 21.168 521.969 19.776 521.969 18C521.969 16.224 523.345 14.832 525.121 14.832C526.897 14.832 528.273 16.224 528.273 18C528.273 19.776 526.897 21.168 525.121 21.168ZM532.153 15.328V14H531.097V22H532.153V17.552C532.153 15.568 533.401 14.896 534.681 14.896V13.872C533.657 13.872 532.713 14.208 532.153 15.328ZM542.592 22L538.304 17.84L542.432 14H540.992L537.184 17.536V10.8H536.128V22H537.184V18.144L541.184 22H542.592ZM548.562 12.304C548.994 12.304 549.33 11.952 549.33 11.536C549.33 11.12 548.994 10.768 548.562 10.768C548.13 10.768 547.794 11.12 547.794 11.536C547.794 11.952 548.13 12.304 548.562 12.304ZM548.034 22H549.09V14H548.034V22ZM555.075 13.808C553.939 13.808 553.011 14.24 552.387 15.248V14H551.331V22H552.387V17.808C552.387 15.664 553.571 14.832 554.979 14.832C556.371 14.832 557.155 15.664 557.155 17.088V22H558.211V17.088C558.211 15.088 557.027 13.808 555.075 13.808ZM568.541 13.808C567.117 13.808 565.981 14.496 565.309 15.568V14H564.253V25.2H565.309V20.432C565.981 21.504 567.117 22.192 568.541 22.192C570.797 22.192 572.669 20.368 572.669 18C572.669 15.632 570.797 13.808 568.541 13.808ZM568.461 21.168C566.685 21.168 565.309 19.776 565.309 18C565.309 16.224 566.685 14.832 568.461 14.832C570.237 14.832 571.613 16.224 571.613 18C571.613 19.776 570.237 21.168 568.461 21.168ZM575.481 15.328V14H574.425V22H575.481V17.552C575.481 15.568 576.729 14.896 578.009 14.896V13.872C576.985 13.872 576.041 14.208 575.481 15.328ZM582.7 22.192C585.036 22.192 586.908 20.368 586.908 18C586.908 15.632 585.036 13.808 582.7 13.808C580.364 13.808 578.492 15.632 578.492 18C578.492 20.368 580.364 22.192 582.7 22.192ZM582.7 21.168C580.924 21.168 579.548 19.776 579.548 18C579.548 16.224 580.924 14.832 582.7 14.832C584.476 14.832 585.852 16.224 585.852 18C585.852 19.776 584.476 21.168 582.7 21.168ZM595.555 14V15.568C594.883 14.496 593.747 13.808 592.323 13.808C590.067 13.808 588.195 15.632 588.195 18C588.195 20.368 590.067 22.192 592.323 22.192C593.747 22.192 594.883 21.504 595.555 20.432V21.68C595.555 23.312 594.451 24.368 592.595 24.368C590.867 24.368 590.131 23.728 589.731 22.912L588.803 23.44C589.427 24.688 590.755 25.392 592.595 25.392C594.659 25.392 596.611 24.112 596.611 21.68V14H595.555ZM592.403 21.168C590.627 21.168 589.251 19.776 589.251 18C589.251 16.224 590.627 14.832 592.403 14.832C594.179 14.832 595.555 16.224 595.555 18C595.555 19.776 594.179 21.168 592.403 21.168ZM599.903 15.328V14H598.847V22H599.903V17.552C599.903 15.568 601.151 14.896 602.431 14.896V13.872C601.407 13.872 600.463 14.208 599.903 15.328ZM607.089 13.808C604.609 13.808 602.913 15.648 602.913 18C602.913 20.416 604.641 22.192 607.169 22.192C608.785 22.192 610.017 21.44 610.689 20.352L609.761 19.808C609.329 20.576 608.449 21.168 607.185 21.168C605.489 21.168 604.225 20.16 604.001 18.528H611.025C611.041 18.368 611.057 18.192 611.057 18.032C611.057 15.84 609.537 13.808 607.089 13.808ZM607.089 14.832C608.465 14.832 609.745 15.744 609.969 17.504H604.001C604.209 15.936 605.409 14.832 607.089 14.832ZM613.257 16.096C613.257 15.232 614.105 14.832 614.937 14.832C615.705 14.832 616.521 15.136 616.857 15.952L617.737 15.44C617.273 14.448 616.249 13.808 614.937 13.808C613.337 13.808 612.201 14.816 612.201 16.096C612.201 19.04 616.873 17.904 616.873 19.888C616.873 20.832 615.977 21.168 615.033 21.168C613.961 21.168 613.129 20.64 612.841 19.824L611.945 20.352C612.345 21.376 613.433 22.192 615.033 22.192C616.745 22.192 617.929 21.248 617.929 19.888C617.929 16.944 613.257 18.08 613.257 16.096ZM620.038 16.096C620.038 15.232 620.886 14.832 621.718 14.832C622.486 14.832 623.302 15.136 623.638 15.952L624.518 15.44C624.054 14.448 623.03 13.808 621.718 13.808C620.118 13.808 618.982 14.816 618.982 16.096C618.982 19.04 623.654 17.904 623.654 19.888C623.654 20.832 622.758 21.168 621.814 21.168C620.742 21.168 619.91 20.64 619.622 19.824L618.726 20.352C619.126 21.376 620.214 22.192 621.814 22.192C623.526 22.192 624.71 21.248 624.71 19.888C624.71 16.944 620.038 18.08 620.038 16.096ZM635.768 18C636.648 18 637.352 17.28 637.352 16.384C637.352 15.504 636.648 14.8 635.768 14.8C634.872 14.8 634.152 15.504 634.152 16.384C634.152 17.28 634.872 18 635.768 18ZM656.9 14L654.932 20.64L652.836 14H651.78L649.684 20.64L647.716 14H646.628L649.092 22H650.244L652.308 15.552L654.372 22H655.524L657.988 14H656.9ZM662.996 22.192C665.332 22.192 667.204 20.368 667.204 18C667.204 15.632 665.332 13.808 662.996 13.808C660.66 13.808 658.788 15.632 658.788 18C658.788 20.368 660.66 22.192 662.996 22.192ZM662.996 21.168C661.22 21.168 659.844 19.776 659.844 18C659.844 16.224 661.22 14.832 662.996 14.832C664.772 14.832 666.148 16.224 666.148 18C666.148 19.776 664.772 21.168 662.996 21.168ZM670.028 15.328V14H668.972V22H670.028V17.552C670.028 15.568 671.276 14.896 672.556 14.896V13.872C671.532 13.872 670.588 14.208 670.028 15.328ZM680.467 22L676.179 17.84L680.307 14H678.867L675.059 17.536V10.8H674.003V22H675.059V18.144L679.059 22H680.467ZM686.437 12.304C686.869 12.304 687.205 11.952 687.205 11.536C687.205 11.12 686.869 10.768 686.437 10.768C686.005 10.768 685.669 11.12 685.669 11.536C685.669 11.952 686.005 12.304 686.437 12.304ZM685.909 22H686.965V14H685.909V22ZM692.95 13.808C691.814 13.808 690.886 14.24 690.262 15.248V14H689.206V22H690.262V17.808C690.262 15.664 691.446 14.832 692.854 14.832C694.246 14.832 695.03 15.664 695.03 17.088V22H696.086V17.088C696.086 15.088 694.902 13.808 692.95 13.808ZM706.416 13.808C704.992 13.808 703.856 14.496 703.184 15.568V14H702.128V25.2H703.184V20.432C703.856 21.504 704.992 22.192 706.416 22.192C708.672 22.192 710.544 20.368 710.544 18C710.544 15.632 708.672 13.808 706.416 13.808ZM706.336 21.168C704.56 21.168 703.184 19.776 703.184 18C703.184 16.224 704.56 14.832 706.336 14.832C708.112 14.832 709.488 16.224 709.488 18C709.488 19.776 708.112 21.168 706.336 21.168ZM713.356 15.328V14H712.3V22H713.356V17.552C713.356 15.568 714.604 14.896 715.884 14.896V13.872C714.86 13.872 713.916 14.208 713.356 15.328ZM720.575 22.192C722.911 22.192 724.783 20.368 724.783 18C724.783 15.632 722.911 13.808 720.575 13.808C718.239 13.808 716.367 15.632 716.367 18C716.367 20.368 718.239 22.192 720.575 22.192ZM720.575 21.168C718.799 21.168 717.423 19.776 717.423 18C717.423 16.224 718.799 14.832 720.575 14.832C722.351 14.832 723.727 16.224 723.727 18C723.727 19.776 722.351 21.168 720.575 21.168ZM733.43 14V15.568C732.758 14.496 731.622 13.808 730.198 13.808C727.942 13.808 726.07 15.632 726.07 18C726.07 20.368 727.942 22.192 730.198 22.192C731.622 22.192 732.758 21.504 733.43 20.432V21.68C733.43 23.312 732.326 24.368 730.47 24.368C728.742 24.368 728.006 23.728 727.606 22.912L726.678 23.44C727.302 24.688 728.63 25.392 730.47 25.392C732.534 25.392 734.486 24.112 734.486 21.68V14H733.43ZM730.278 21.168C728.502 21.168 727.126 19.776 727.126 18C727.126 16.224 728.502 14.832 730.278 14.832C732.054 14.832 733.43 16.224 733.43 18C733.43 19.776 732.054 21.168 730.278 21.168ZM737.778 15.328V14H736.722V22H737.778V17.552C737.778 15.568 739.026 14.896 740.306 14.896V13.872C739.282 13.872 738.338 14.208 737.778 15.328ZM744.964 13.808C742.484 13.808 740.788 15.648 740.788 18C740.788 20.416 742.516 22.192 745.044 22.192C746.66 22.192 747.892 21.44 748.564 20.352L747.636 19.808C747.204 20.576 746.324 21.168 745.06 21.168C743.364 21.168 742.1 20.16 741.876 18.528H748.9C748.916 18.368 748.932 18.192 748.932 18.032C748.932 15.84 747.412 13.808 744.964 13.808ZM744.964 14.832C746.34 14.832 747.62 15.744 747.844 17.504H741.876C742.084 15.936 743.284 14.832 744.964 14.832ZM751.132 16.096C751.132 15.232 751.98 14.832 752.812 14.832C753.58 14.832 754.396 15.136 754.732 15.952L755.612 15.44C755.148 14.448 754.124 13.808 752.812 13.808C751.212 13.808 750.076 14.816 750.076 16.096C750.076 19.04 754.748 17.904 754.748 19.888C754.748 20.832 753.852 21.168 752.908 21.168C751.836 21.168 751.004 20.64 750.716 19.824L749.82 20.352C750.22 21.376 751.308 22.192 752.908 22.192C754.62 22.192 755.804 21.248 755.804 19.888C755.804 16.944 751.132 18.08 751.132 16.096ZM757.913 16.096C757.913 15.232 758.761 14.832 759.593 14.832C760.361 14.832 761.177 15.136 761.513 15.952L762.393 15.44C761.929 14.448 760.905 13.808 759.593 13.808C757.993 13.808 756.857 14.816 756.857 16.096C756.857 19.04 761.529 17.904 761.529 19.888C761.529 20.832 760.633 21.168 759.689 21.168C758.617 21.168 757.785 20.64 757.497 19.824L756.601 20.352C757.001 21.376 758.089 22.192 759.689 22.192C761.401 22.192 762.585 21.248 762.585 19.888C762.585 16.944 757.913 18.08 757.913 16.096Z" fill="white"/>
</g>
<defs>
<clipPath id="clip0">
<rect width="720" height="500" fill="white"/>
</clipPath>
</defs>
</svg>
