<svg xmlns="http://www.w3.org/2000/svg" xmlns:xlink="http://www.w3.org/1999/xlink" width="1440" height="306" viewBox="0 0 1440 306"><defs><filter id="a" x="136" y="157" width="1178" height="161" filterUnits="userSpaceOnUse"><feOffset dy="3" input="SourceAlpha"/><feGaussianBlur stdDeviation="3" result="b"/><feFlood flood-opacity="0.161"/><feComposite operator="in" in2="b"/><feComposite in="SourceGraphic"/></filter><linearGradient id="c" x1="0.5" x2="0.5" y2="1" gradientUnits="objectBoundingBox"><stop offset="0" stop-color="#f2f2f2"/><stop offset="1" stop-color="#d9d9d9"/></linearGradient><filter id="d" x="126.5" y="62" width="136.6" height="68" filterUnits="userSpaceOnUse"><feOffset dy="3" input="SourceAlpha"/><feGaussianBlur stdDeviation="3" result="e"/><feFlood flood-opacity="0.161"/><feComposite operator="in" in2="e"/><feComposite in="SourceGraphic"/></filter><filter id="f" x="240.25" y="201.25" width="75.1" height="44.5" filterUnits="userSpaceOnUse"><feOffset dy="3" input="SourceAlpha"/><feGaussianBlur stdDeviation="3" result="g"/><feFlood flood-opacity="0.161"/><feComposite operator="in" in2="g"/><feComposite in="SourceGraphic"/></filter><filter id="i" x="1137" y="182" width="131.6" height="68" filterUnits="userSpaceOnUse"><feOffset dy="3" input="SourceAlpha"/><feGaussianBlur stdDeviation="3" result="j"/><feFlood flood-opacity="0.161"/><feComposite operator="in" in2="j"/><feComposite in="SourceGraphic"/></filter><clipPath id="l"><rect width="1440" height="306"/></clipPath></defs><g id="k" clip-path="url(#l)"><rect width="1440" height="306" fill="#fff"/><g transform="translate(0 -140)"><g transform="matrix(1, 0, 0, 1, 0, 140)" filter="url(#a)"><rect width="1160" height="143" transform="translate(145 163)" fill="#fff"/></g><g transform="matrix(1, 0, 0, 1, 0, 140)" filter="url(#d)"><rect width="118.6" height="50" rx="4" transform="translate(135.5 68)" fill="url(#c)"/></g><text transform="translate(208 239)" fill="#515151" font-size="16" font-family="OpenSans-Semibold, Open Sans" font-weight="600"><tspan x="-18.457" y="0">Back</tspan></text><text transform="translate(291 244)" fill="#333" font-size="30" font-family="OpenSans-Semibold, Open Sans" font-weight="600"><tspan x="0" y="0">Program 1</tspan></text><g transform="translate(154 222)"><path d="M27.809,18H7.5" transform="translate(-7.5 -7.846)" fill="none" stroke="#0789b9" stroke-linecap="round" stroke-linejoin="round" stroke-width="3"/><path d="M17.654,27.809,7.5,17.654,17.654,7.5" transform="translate(-7.5 -7.5)" fill="none" stroke="#0789b9" stroke-linecap="round" stroke-linejoin="round" stroke-width="3"/></g><text transform="translate(205.848 366.465)" fill="#888" font-size="16" font-family="OpenSans, Open Sans"><tspan x="-28.742" y="0">Inactive</tspan></text><text transform="translate(346.848 366.465)" fill="#888" font-size="16" font-family="OpenSans, Open Sans"><tspan x="-22.215" y="0">Active</tspan></text><g transform="translate(249.5 347.5)"><g transform="matrix(1, 0, 0, 1, -249.5, -207.5)" filter="url(#f)"><rect width="56.6" height="26" rx="12" transform="translate(249.5 207.5)" fill="#4bbb40" stroke="#d3d3d3" stroke-width="0.5"/></g><circle cx="10.5" cy="10.5" r="10.5" transform="translate(32.5 2.5)" fill="#fff"/></g><g transform="matrix(1, 0, 0, 1, 0, 140)" filter="url(#i)"><rect width="113.6" height="50" rx="4" transform="translate(1146 188)" fill="url(#c)"/></g><text transform="translate(1215 359)" fill="#575757" font-size="16" font-family="OpenSans-Semibold, Open Sans" font-weight="600" text-decoration="underline"><tspan x="-25.074" y="0">Delete</tspan></text><path d="M13.5,1H9.75L9.456.416A.75.75,0,0,0,8.784,0H5.212a.741.741,0,0,0-.669.416L4.25,1H.5a.5.5,0,0,0-.5.5v1A.5.5,0,0,0,.5,3h13a.5.5,0,0,0,.5-.5v-1A.5.5,0,0,0,13.5,1ZM1.663,14.594A1.5,1.5,0,0,0,3.159,16h7.681a1.5,1.5,0,0,0,1.5-1.406L13,4H1Z" transform="translate(1166 346)" fill="#575757"/></g></g></svg>