<svg xmlns="http://www.w3.org/2000/svg" xmlns:xlink="http://www.w3.org/1999/xlink" width="1440" height="830" viewBox="0 0 1440 830"><defs><filter id="a" x="131" y="125" width="1148" height="396" filterUnits="userSpaceOnUse"><feOffset dy="3" input="SourceAlpha"/><feGaussianBlur stdDeviation="3" result="b"/><feFlood flood-opacity="0.161"/><feComposite operator="in" in2="b"/><feComposite in="SourceGraphic"/></filter><filter id="c" x="618.25" y="266.25" width="126.073" height="44.5" filterUnits="userSpaceOnUse"><feOffset dy="3" input="SourceAlpha"/><feGaussianBlur stdDeviation="3" result="d"/><feFlood flood-opacity="0.161"/><feComposite operator="in" in2="d"/><feComposite in="SourceGraphic"/></filter><filter id="e" x="618.25" y="391.25" width="126.073" height="44.5" filterUnits="userSpaceOnUse"><feOffset dy="3" input="SourceAlpha"/><feGaussianBlur stdDeviation="3" result="f"/><feFlood flood-opacity="0.161"/><feComposite operator="in" in2="f"/><feComposite in="SourceGraphic"/></filter><filter id="g" x="618.25" y="202.25" width="126.073" height="44.5" filterUnits="userSpaceOnUse"><feOffset dy="3" input="SourceAlpha"/><feGaussianBlur stdDeviation="3" result="h"/><feFlood flood-opacity="0.161"/><feComposite operator="in" in2="h"/><feComposite in="SourceGraphic"/></filter><filter id="i" x="618.25" y="328.25" width="126.073" height="44.5" filterUnits="userSpaceOnUse"><feOffset dy="3" input="SourceAlpha"/><feGaussianBlur stdDeviation="3" result="j"/><feFlood flood-opacity="0.161"/><feComposite operator="in" in2="j"/><feComposite in="SourceGraphic"/></filter><filter id="k" x="618.25" y="455.25" width="126.073" height="44.5" filterUnits="userSpaceOnUse"><feOffset dy="3" input="SourceAlpha"/><feGaussianBlur stdDeviation="3" result="l"/><feFlood flood-opacity="0.161"/><feComposite operator="in" in2="l"/><feComposite in="SourceGraphic"/></filter><filter id="m" x="131" y="635" width="1148" height="142" filterUnits="userSpaceOnUse"><feOffset dy="3" input="SourceAlpha"/><feGaussianBlur stdDeviation="3" result="n"/><feFlood flood-opacity="0.161"/><feComposite operator="in" in2="n"/><feComposite in="SourceGraphic"/></filter><filter id="o" x="558.25" y="715.25" width="126.073" height="44.5" filterUnits="userSpaceOnUse"><feOffset dy="3" input="SourceAlpha"/><feGaussianBlur stdDeviation="3" result="p"/><feFlood flood-opacity="0.161"/><feComposite operator="in" in2="p"/><feComposite in="SourceGraphic"/></filter><clipPath id="r"><rect width="1440" height="830"/></clipPath></defs><g id="q" clip-path="url(#r)"><rect width="1440" height="830" fill="#fafafa"/><g transform="translate(0 -241)"><g transform="matrix(1, 0, 0, 1, 0, 241)" filter="url(#a)"><rect width="1130" height="378" transform="translate(140 131)" fill="#fff"/></g><rect width="1130" height="62" transform="translate(140 434)" fill="#fff"/><rect width="1130" height="62" transform="translate(140 496)" fill="#f5f5f5"/><rect width="1130" height="62" transform="translate(140 558)" fill="#fff"/><rect width="1130" height="62" transform="translate(140 620)" fill="#f5f5f5"/><text transform="translate(140 338)" fill="#333" font-size="30" font-family="OpenSans-Semibold, Open Sans" font-weight="600"><tspan x="0" y="0">Provincial Level Certificates</tspan></text><text transform="translate(140 832)" fill="#333" font-size="30" font-family="OpenSans-Semibold, Open Sans" font-weight="600"><tspan x="0" y="0">National Level Certificates</tspan></text><text transform="translate(194 470.757)" fill="#757575" font-size="16" font-family="OpenSans, Open Sans"><tspan x="-27.445" y="0">100500</tspan></text><text transform="translate(421 470.757)" fill="#757575" font-size="16" font-family="OpenSans, Open Sans"><tspan x="-13.723" y="0">500</tspan></text><path d="M0,0V378" transform="translate(253.5 372.5)" fill="none" stroke="#e1e1e1" stroke-width="2"/><line y2="378" transform="translate(1150.5 372.5)" fill="none" stroke="#e1e1e1" stroke-width="2"/><line y2="378" transform="translate(882.5 372.5)" fill="none" stroke="#e1e1e1" stroke-width="2"/><line y2="378" transform="translate(756.5 372.5)" fill="none" stroke="#e1e1e1" stroke-width="2"/><line y2="378" transform="translate(355.5 372.5)" fill="none" stroke="#e3e3e3" stroke-width="2"/><line y2="377.5" transform="translate(486.5 372.5)" fill="none" stroke="#e1e1e1" stroke-width="2"/><line y2="378" transform="translate(605.5 372.5)" fill="none" stroke="#e1e1e1" stroke-width="2"/><line y2="378" transform="translate(756.5 372.5)" fill="none" stroke="#e1e1e1" stroke-width="2"/><rect width="1130" height="62" transform="translate(140 372)" fill="#d9d9d9"/><text transform="translate(195 409)" fill="#757575" font-size="16" font-family="OpenSans-Semibold, Open Sans" font-weight="600"><tspan x="-23.297" y="0">START</tspan></text><text transform="translate(305 409)" fill="#757575" font-size="16" font-family="OpenSans-Semibold, Open Sans" font-weight="600"><tspan x="-16.602" y="0">END</tspan></text><text transform="translate(421 409)" fill="#757575" font-size="16" font-family="OpenSans-Semibold, Open Sans" font-weight="600"><tspan x="-45.473" y="0">REMAINING</tspan></text><text transform="translate(547 409)" fill="#757575" font-size="16" font-family="OpenSans-Semibold, Open Sans" font-weight="600"><tspan x="-39.473" y="0">PROVINCE</tspan></text><text transform="translate(681 409)" fill="#757575" font-size="16" font-family="OpenSans-Semibold, Open Sans" font-weight="600"><tspan x="-27.961" y="0">STATUS</tspan></text><text transform="translate(822 409)" fill="#757575" font-size="16" font-family="OpenSans-Semibold, Open Sans" font-weight="600"><tspan x="-47.023" y="0">THRESHOLD</tspan></text><text transform="translate(194 594.758)" fill="#757575" font-size="16" font-family="OpenSans, Open Sans"><tspan x="-27.445" y="0">100500</tspan></text><text transform="translate(194 656.758)" fill="#757575" font-size="16" font-family="OpenSans, Open Sans"><tspan x="-27.445" y="0">100500</tspan></text><text transform="translate(304 470.758)" fill="#757575" font-size="16" font-family="OpenSans, Open Sans"><tspan x="-27.445" y="0">100100</tspan></text><text transform="translate(304 532.758)" fill="#757575" font-size="16" font-family="OpenSans, Open Sans"><tspan x="-27.445" y="0">100100</tspan></text><text transform="translate(304 656.758)" fill="#757575" font-size="16" font-family="OpenSans, Open Sans"><tspan x="-27.445" y="0">100100</tspan></text><text transform="translate(421 532.758)" fill="#757575" font-size="16" font-family="OpenSans, Open Sans"><tspan x="-4.574" y="0">2</tspan></text><text transform="translate(421 594.758)" fill="#757575" font-size="16" font-family="OpenSans, Open Sans"><tspan x="-9.148" y="0">87</tspan></text><text transform="translate(421 656.758)" fill="#757575" font-size="16" font-family="OpenSans, Open Sans"><tspan x="-13.723" y="0">144</tspan></text><text transform="translate(421 721.758)" fill="#757575" font-size="16" font-family="OpenSans, Open Sans"><tspan x="-13.723" y="0">230</tspan></text><text transform="translate(546 468.758)" fill="#757575" font-size="16" font-family="OpenSans, Open Sans"><tspan x="-10.23" y="0">BC</tspan></text><text transform="translate(546 532.758)" fill="#757575" font-size="16" font-family="OpenSans, Open Sans"><tspan x="-12.262" y="0">ON</tspan></text><text transform="translate(547 594.758)" fill="#757575" font-size="16" font-family="OpenSans, Open Sans"><tspan x="-12.262" y="0">ON</tspan></text><text transform="translate(547 656.758)" fill="#757575" font-size="16" font-family="OpenSans, Open Sans"><tspan x="-12.406" y="0">MB</tspan></text><text transform="translate(547 721.758)" fill="#757575" font-size="16" font-family="OpenSans, Open Sans"><tspan x="-12.406" y="0">MB</tspan></text><text transform="translate(822 470.758)" fill="#757575" font-size="16" font-family="OpenSans, Open Sans"><tspan x="-9.148" y="0">20</tspan></text><text transform="translate(822 532.758)" fill="#757575" font-size="16" font-family="OpenSans, Open Sans"><tspan x="-9.148" y="0">20</tspan></text><text transform="translate(822 594.758)" fill="#757575" font-size="16" font-family="OpenSans, Open Sans"><tspan x="-9.148" y="0">20</tspan></text><text transform="translate(822 656.758)" fill="#757575" font-size="16" font-family="OpenSans, Open Sans"><tspan x="-9.148" y="0">20</tspan></text><text transform="translate(822 721.758)" fill="#757575" font-size="16" font-family="OpenSans, Open Sans"><tspan x="-9.148" y="0">20</tspan></text><text transform="translate(1017 409)" fill="#757575" font-size="16" font-family="OpenSans-Semibold, Open Sans" font-weight="600"><tspan x="-36.164" y="0">UPDATED</tspan></text><text transform="translate(1017 470.758)" fill="#757575" font-size="16" font-family="OpenSans, Open Sans"><tspan x="-41.742" y="0">2020-06-22</tspan></text><text transform="translate(1017 532.758)" fill="#757575" font-size="16" font-family="OpenSans, Open Sans"><tspan x="-41.742" y="0">2020-06-29</tspan></text><text transform="translate(1017 594.758)" fill="#757575" font-size="16" font-family="OpenSans, Open Sans"><tspan x="-41.742" y="0">2020-07-05</tspan></text><text transform="translate(1017 656.758)" fill="#757575" font-size="16" font-family="OpenSans, Open Sans"><tspan x="-41.742" y="0">2020-06-22</tspan></text><text transform="translate(1017 721.758)" fill="#757575" font-size="16" font-family="OpenSans, Open Sans"><tspan x="-41.742" y="0">2020-06-22</tspan></text><text transform="translate(1211 409)" fill="#757575" font-size="16" font-family="OpenSans-Semibold, Open Sans" font-weight="600"><tspan x="-17.305" y="0">EDIT</tspan></text><g transform="translate(-4 83)"><text transform="translate(1225 387.758)" fill="#757575" font-size="16" font-family="OpenSans, Open Sans" text-decoration="underline"><tspan x="-14.199" y="0">Edit</tspan></text><path d="M14.75,4.307,13.384,5.7a.35.35,0,0,1-.5,0L9.593,2.341a.37.37,0,0,1,0-.515L10.958.43a1.4,1.4,0,0,1,2.011,0l1.78,1.82A1.475,1.475,0,0,1,14.75,4.307ZM8.42,3.026.641,10.979l-.628,3.68a.72.72,0,0,0,.823.842l3.6-.645L12.214,6.9a.37.37,0,0,0,0-.515L8.926,3.026a.354.354,0,0,0-.507,0Z" transform="translate(1190.895 374.432)" fill="#888"/></g><g transform="translate(-4 145)"><text transform="translate(1225 387.758)" fill="#757575" font-size="16" font-family="OpenSans, Open Sans" text-decoration="underline"><tspan x="-14.199" y="0">Edit</tspan></text><path d="M14.75,4.307,13.384,5.7a.35.35,0,0,1-.5,0L9.593,2.341a.37.37,0,0,1,0-.515L10.958.43a1.4,1.4,0,0,1,2.011,0l1.78,1.82A1.475,1.475,0,0,1,14.75,4.307ZM8.42,3.026.641,10.979l-.628,3.68a.72.72,0,0,0,.823.842l3.6-.645L12.214,6.9a.37.37,0,0,0,0-.515L8.926,3.026a.354.354,0,0,0-.507,0Z" transform="translate(1190.895 374.432)" fill="#888"/></g><g transform="translate(-4 207)"><text transform="translate(1225 387.758)" fill="#757575" font-size="16" font-family="OpenSans, Open Sans" text-decoration="underline"><tspan x="-14.199" y="0">Edit</tspan></text><path d="M14.75,4.307,13.384,5.7a.35.35,0,0,1-.5,0L9.593,2.341a.37.37,0,0,1,0-.515L10.958.43a1.4,1.4,0,0,1,2.011,0l1.78,1.82A1.475,1.475,0,0,1,14.75,4.307ZM8.42,3.026.641,10.979l-.628,3.68a.72.72,0,0,0,.823.842l3.6-.645L12.214,6.9a.37.37,0,0,0,0-.515L8.926,3.026a.354.354,0,0,0-.507,0Z" transform="translate(1190.895 374.432)" fill="#888"/></g><g transform="translate(-4 269)"><text transform="translate(1225 387.758)" fill="#757575" font-size="16" font-family="OpenSans, Open Sans" text-decoration="underline"><tspan x="-14.199" y="0">Edit</tspan></text><path d="M14.75,4.307,13.384,5.7a.35.35,0,0,1-.5,0L9.593,2.341a.37.37,0,0,1,0-.515L10.958.43a1.4,1.4,0,0,1,2.011,0l1.78,1.82A1.475,1.475,0,0,1,14.75,4.307ZM8.42,3.026.641,10.979l-.628,3.68a.72.72,0,0,0,.823.842l3.6-.645L12.214,6.9a.37.37,0,0,0,0-.515L8.926,3.026a.354.354,0,0,0-.507,0Z" transform="translate(1190.895 374.432)" fill="#888"/></g><g transform="translate(-4 334)"><text transform="translate(1225 387.758)" fill="#757575" font-size="16" font-family="OpenSans, Open Sans" text-decoration="underline"><tspan x="-14.199" y="0">Edit</tspan></text><path d="M14.75,4.307,13.384,5.7a.35.35,0,0,1-.5,0L9.593,2.341a.37.37,0,0,1,0-.515L10.958.43a1.4,1.4,0,0,1,2.011,0l1.78,1.82A1.475,1.475,0,0,1,14.75,4.307ZM8.42,3.026.641,10.979l-.628,3.68a.72.72,0,0,0,.823.842l3.6-.645L12.214,6.9a.37.37,0,0,0,0-.515L8.926,3.026a.354.354,0,0,0-.507,0Z" transform="translate(1190.895 374.432)" fill="#888"/></g><g transform="translate(0 145)"><g transform="matrix(1, 0, 0, 1, 0, 96)" filter="url(#c)"><rect width="107.573" height="26" rx="12" transform="translate(627.5 272.5)" fill="#d2d2d2" stroke="#d3d3d3" stroke-width="0.5"/></g><text transform="translate(693 387.465)" fill="#606060" font-size="16" font-family="OpenSans, Open Sans"><tspan x="-28.742" y="0">Inactive</tspan></text><circle cx="10.5" cy="10.5" r="10.5" transform="translate(631 371)" fill="#fff"/></g><g transform="translate(627.5 638.5)"><g transform="matrix(1, 0, 0, 1, -627.5, -397.5)" filter="url(#e)"><rect width="107.573" height="26" rx="12" transform="translate(627.5 397.5)" fill="#4bbb40" stroke="#d3d3d3" stroke-width="0.5"/></g><text transform="translate(42.073 18.965)" fill="#fff" font-size="16" font-family="OpenSans, Open Sans"><tspan x="-22.215" y="0">Active</tspan></text><ellipse cx="10.5" cy="10.5" rx="10.5" ry="10.5" transform="translate(83.073 2.5)" fill="#fff"/></g><g transform="translate(627.5 449.5)"><g transform="matrix(1, 0, 0, 1, -627.5, -208.5)" filter="url(#g)"><rect width="107.573" height="26" rx="12" transform="translate(627.5 208.5)" fill="#4bbb40" stroke="#d3d3d3" stroke-width="0.5"/></g><text transform="translate(42.073 18.965)" fill="#fff" font-size="16" font-family="OpenSans, Open Sans"><tspan x="-22.215" y="0">Active</tspan></text><ellipse cx="10.5" cy="10.5" rx="10.5" ry="10.5" transform="translate(83.073 2.5)" fill="#fff"/></g><g transform="translate(0 207)"><g transform="matrix(1, 0, 0, 1, 0, 34)" filter="url(#i)"><rect width="107.573" height="26" rx="12" transform="translate(627.5 334.5)" fill="#d2d2d2" stroke="#d3d3d3" stroke-width="0.5"/></g><text transform="translate(693 387.465)" fill="#606060" font-size="16" font-family="OpenSans, Open Sans"><tspan x="-28.742" y="0">Inactive</tspan></text><circle cx="10.5" cy="10.5" r="10.5" transform="translate(631 371)" fill="#fff"/></g><g transform="translate(0 334)"><g transform="matrix(1, 0, 0, 1, 0, -93)" filter="url(#k)"><rect width="107.573" height="26" rx="12" transform="translate(627.5 461.5)" fill="#d2d2d2" stroke="#d3d3d3" stroke-width="0.5"/></g><text transform="translate(693 387.465)" fill="#606060" font-size="16" font-family="OpenSans, Open Sans"><tspan x="-28.742" y="0">Inactive</tspan></text><circle cx="10.5" cy="10.5" r="10.5" transform="translate(631 371)" fill="#fff"/></g><g transform="matrix(1, 0, 0, 1, 0, 241)" filter="url(#m)"><rect width="1130" height="124" transform="translate(140 641)" fill="#fff"/></g><rect width="1130" height="62" transform="translate(140 944)" fill="#fff"/><text transform="translate(194 980.758)" fill="#757575" font-size="16" font-family="OpenSans, Open Sans"><tspan x="-27.445" y="0">100500</tspan></text><text transform="translate(421 980.758)" fill="#757575" font-size="16" font-family="OpenSans, Open Sans"><tspan x="-13.723" y="0">500</tspan></text><path d="M0,0V123.5" transform="translate(253.5 882.5)" fill="none" stroke="#e1e1e1" stroke-width="2"/><line y2="123.5" transform="translate(1150.5 882.5)" fill="none" stroke="#e1e1e1" stroke-width="2"/><line y2="123.5" transform="translate(882.5 882.5)" fill="none" stroke="#e1e1e1" stroke-width="2"/><line y2="123.5" transform="translate(756.5 882.5)" fill="none" stroke="#e1e1e1" stroke-width="2"/><line y2="123.5" transform="translate(355.5 882.5)" fill="none" stroke="#e3e3e3" stroke-width="2"/><line y2="123" transform="translate(486.5 882.5)" fill="none" stroke="#e1e1e1" stroke-width="2"/><line y2="123.5" transform="translate(756.5 882.5)" fill="none" stroke="#e1e1e1" stroke-width="2"/><rect width="1130" height="62" transform="translate(140 882)" fill="#d9d9d9"/><text transform="translate(195 919)" fill="#757575" font-size="16" font-family="OpenSans-Semibold, Open Sans" font-weight="600"><tspan x="-23.297" y="0">START</tspan></text><text transform="translate(305 919)" fill="#757575" font-size="16" font-family="OpenSans-Semibold, Open Sans" font-weight="600"><tspan x="-16.602" y="0">END</tspan></text><text transform="translate(421 919)" fill="#757575" font-size="16" font-family="OpenSans-Semibold, Open Sans" font-weight="600"><tspan x="-45.473" y="0">REMAINING</tspan></text><text transform="translate(621 919)" fill="#757575" font-size="16" font-family="OpenSans-Semibold, Open Sans" font-weight="600"><tspan x="-27.961" y="0">STATUS</tspan></text><text transform="translate(822 919)" fill="#757575" font-size="16" font-family="OpenSans-Semibold, Open Sans" font-weight="600"><tspan x="-47.023" y="0">THRESHOLD</tspan></text><text transform="translate(304 980.758)" fill="#757575" font-size="16" font-family="OpenSans, Open Sans"><tspan x="-27.445" y="0">100100</tspan></text><text transform="translate(822 980.758)" fill="#757575" font-size="16" font-family="OpenSans, Open Sans"><tspan x="-9.148" y="0">20</tspan></text><text transform="translate(1017 919)" fill="#757575" font-size="16" font-family="OpenSans-Semibold, Open Sans" font-weight="600"><tspan x="-36.164" y="0">UPDATED</tspan></text><text transform="translate(1017 980.758)" fill="#757575" font-size="16" font-family="OpenSans, Open Sans"><tspan x="-41.742" y="0">2020-06-22</tspan></text><text transform="translate(1211 919)" fill="#757575" font-size="16" font-family="OpenSans-Semibold, Open Sans" font-weight="600"><tspan x="-17.305" y="0">EDIT</tspan></text><g transform="translate(-4 593)"><text transform="translate(1225 387.758)" fill="#757575" font-size="16" font-family="OpenSans, Open Sans" text-decoration="underline"><tspan x="-14.199" y="0">Edit</tspan></text><path d="M14.75,4.307,13.384,5.7a.35.35,0,0,1-.5,0L9.593,2.341a.37.37,0,0,1,0-.515L10.958.43a1.4,1.4,0,0,1,2.011,0l1.78,1.82A1.475,1.475,0,0,1,14.75,4.307ZM8.42,3.026.641,10.979l-.628,3.68a.72.72,0,0,0,.823.842l3.6-.645L12.214,6.9a.37.37,0,0,0,0-.515L8.926,3.026a.354.354,0,0,0-.507,0Z" transform="translate(1190.895 374.432)" fill="#888"/></g><g transform="translate(-60 594)"><g transform="matrix(1, 0, 0, 1, 60, -353)" filter="url(#o)"><rect width="107.573" height="26" rx="12" transform="translate(567.5 721.5)" fill="#d2d2d2" stroke="#d3d3d3" stroke-width="0.5"/></g><text transform="translate(693 387.465)" fill="#606060" font-size="16" font-family="OpenSans, Open Sans"><tspan x="-28.742" y="0">Inactive</tspan></text><circle cx="10.5" cy="10.5" r="10.5" transform="translate(631 371)" fill="#fff"/></g></g></g></svg>