<svg xmlns="http://www.w3.org/2000/svg" xmlns:xlink="http://www.w3.org/1999/xlink" width="2035" height="1791" viewBox="0 0 2035 1791"><defs><clipPath id="b"><rect width="2035" height="1791"/></clipPath></defs><g id="a" clip-path="url(#b)"><rect width="2035" height="1791" fill="#fff"/><g transform="translate(813 76)"><g fill="#f5f5f5" stroke="#707070" stroke-width="1"><rect width="400" height="140" rx="20" stroke="none"/><rect x="0.5" y="0.5" width="399" height="139" rx="19.5" fill="none"/></g><path d="M-125.7,0-128.7-8.326h-11.464L-143.093,0h-5.168l11.218-30.105h5.332L-120.494,0Zm-4.286-12.551-2.81-8.162q-.308-.82-.851-2.584t-.749-2.584a45.961,45.961,0,0,1-1.62,5.517l-2.707,7.813ZM-109.4.41a7.9,7.9,0,0,1-6.624-3.076Q-118.4-5.742-118.4-11.3q0-5.578,2.41-8.685a7.975,7.975,0,0,1,6.675-3.107,7.819,7.819,0,0,1,6.809,3.3h.246a28.889,28.889,0,0,1-.349-3.855V-31.91h4.84V0h-3.773l-.841-2.974h-.226A7.7,7.7,0,0,1-109.4.41Zm1.292-3.9a5.245,5.245,0,0,0,4.327-1.671q1.354-1.671,1.395-5.424v-.677q0-4.286-1.395-6.091a5.173,5.173,0,0,0-4.368-1.8,4.432,4.432,0,0,0-3.917,2.061,10.562,10.562,0,0,0-1.374,5.875,10.3,10.3,0,0,0,1.333,5.752A4.5,4.5,0,0,0-108.107-3.486ZM-71.767,0h-4.84V-13.986a6.342,6.342,0,0,0-.984-3.886,3.633,3.633,0,0,0-3.076-1.282,4.692,4.692,0,0,0-4.091,1.815q-1.3,1.815-1.3,6.04V0H-90.88V-22.682h3.773l.677,2.974h.246a6.284,6.284,0,0,1,2.738-2.5,8.828,8.828,0,0,1,3.948-.882q5.229,0,6.932,3.568h.328a6.914,6.914,0,0,1,2.83-2.625,8.982,8.982,0,0,1,4.184-.943q4.061,0,5.917,2.051t1.856,6.255V0h-4.819V-13.986a6.293,6.293,0,0,0-.995-3.886,3.662,3.662,0,0,0-3.086-1.282A4.784,4.784,0,0,0-70.465-17.4a9.038,9.038,0,0,0-1.3,5.383Zm25.86,0h-4.819V-22.682h4.819Zm-5.106-28.69a2.668,2.668,0,0,1,.708-1.989,2.757,2.757,0,0,1,2.02-.7,2.7,2.7,0,0,1,1.979.7A2.668,2.668,0,0,1-45.6-28.69a2.619,2.619,0,0,1-.708,1.938,2.675,2.675,0,0,1-1.979.708,2.733,2.733,0,0,1-2.02-.708A2.619,2.619,0,0,1-51.013-28.69ZM-19.062,0H-23.9V-13.945a6.1,6.1,0,0,0-1.056-3.917,4.083,4.083,0,0,0-3.353-1.292,5.331,5.331,0,0,0-4.471,1.8q-1.415,1.8-1.415,6.05V0h-4.819V-22.682h3.773l.677,2.974h.246a6.71,6.71,0,0,1,2.912-2.5,9.759,9.759,0,0,1,4.184-.882q8.162,0,8.162,8.306Zm31.09,0-8.7-25.04H3.168q.349,5.578.349,10.459V0H-.933V-29.982H5.978L14.3-6.132h.123L23-29.982h6.932V0H25.214V-14.827q0-2.235.113-5.824T25.522-25h-.164l-9,25Zm45.4-11.382q0,5.558-2.851,8.675A10.214,10.214,0,0,1,46.645.41a10.874,10.874,0,0,1-5.619-1.436,9.477,9.477,0,0,1-3.753-4.122,14.039,14.039,0,0,1-1.312-6.234q0-5.517,2.83-8.613t7.978-3.1a9.992,9.992,0,0,1,7.793,3.168A12.239,12.239,0,0,1,57.432-11.382Zm-16.509,0q0,7.854,5.8,7.854,5.742,0,5.742-7.854,0-7.772-5.783-7.772a4.931,4.931,0,0,0-4.4,2.01A10.228,10.228,0,0,0,40.923-11.382ZM70.619.41a7.9,7.9,0,0,1-6.624-3.076Q61.616-5.742,61.616-11.3q0-5.578,2.41-8.685A7.975,7.975,0,0,1,70.7-23.092a7.819,7.819,0,0,1,6.809,3.3h.246a28.889,28.889,0,0,1-.349-3.855V-31.91h4.84V0H78.473l-.841-2.974h-.226A7.7,7.7,0,0,1,70.619.41Zm1.292-3.9a5.245,5.245,0,0,0,4.327-1.671q1.354-1.671,1.395-5.424v-.677q0-4.286-1.395-6.091a5.173,5.173,0,0,0-4.368-1.8,4.432,4.432,0,0,0-3.917,2.061,10.562,10.562,0,0,0-1.374,5.875,10.3,10.3,0,0,0,1.333,5.752A4.5,4.5,0,0,0,71.911-3.486ZM105.133,0l-.677-2.974h-.246A6.838,6.838,0,0,1,101.35-.492a9.565,9.565,0,0,1-4.235.9q-4.122,0-6.152-2.051t-2.03-6.214V-22.682h4.86V-8.7a6.068,6.068,0,0,0,1.066,3.907,4.071,4.071,0,0,0,3.343,1.3,5.322,5.322,0,0,0,4.46-1.815q1.425-1.815,1.425-6.081v-11.3h4.84V0Zm15.483,0H115.8V-31.91h4.819Zm16.8.41q-5.291,0-8.275-3.086t-2.984-8.5q0-5.558,2.769-8.736a9.563,9.563,0,0,1,7.608-3.179,9.347,9.347,0,0,1,7.1,2.728,10.422,10.422,0,0,1,2.6,7.506v2.6H131.117A7.45,7.45,0,0,0,132.9-5.178,6.214,6.214,0,0,0,137.638-3.4a17.488,17.488,0,0,0,3.743-.379A19.618,19.618,0,0,0,145.1-5.045v3.917A14.8,14.8,0,0,1,141.535.062,21.881,21.881,0,0,1,137.413.41Zm-.882-19.852a4.842,4.842,0,0,0-3.681,1.456A6.939,6.939,0,0,0,131.2-13.74h10.295A6.278,6.278,0,0,0,140.14-18,4.629,4.629,0,0,0,136.531-19.441Z" transform="translate(200 85.132)" fill="#505050"/></g><g transform="translate(813 316)"><g fill="#f5f5f5" stroke="#707070" stroke-width="1"><rect width="400" height="140" rx="20" stroke="none"/><rect x="0.5" y="0.5" width="399" height="139" rx="19.5" fill="none"/></g><path d="M-120.524-26.209a8.079,8.079,0,0,0-6.645,2.994q-2.42,2.994-2.42,8.265,0,5.517,2.328,8.347a8.221,8.221,0,0,0,6.737,2.83,17.7,17.7,0,0,0,3.691-.379q1.784-.379,3.712-.974v4.2a22.5,22.5,0,0,1-8,1.333q-6.583,0-10.11-3.989t-3.527-11.413a18.442,18.442,0,0,1,1.712-8.183,12.222,12.222,0,0,1,4.953-5.373,14.98,14.98,0,0,1,7.608-1.866,18.881,18.881,0,0,1,8.49,1.928l-1.764,4.081a26.333,26.333,0,0,0-3.209-1.261A11.563,11.563,0,0,0-120.524-26.209Zm33.469,14.827q0,5.558-2.851,8.675A10.214,10.214,0,0,1-97.843.41a10.874,10.874,0,0,1-5.619-1.436,9.477,9.477,0,0,1-3.753-4.122,14.039,14.039,0,0,1-1.312-6.234q0-5.517,2.83-8.613t7.978-3.1a9.992,9.992,0,0,1,7.793,3.168A12.239,12.239,0,0,1-87.056-11.382Zm-16.509,0q0,7.854,5.8,7.854,5.742,0,5.742-7.854,0-7.772-5.783-7.772a4.931,4.931,0,0,0-4.4,2.01A10.228,10.228,0,0,0-103.564-11.382ZM-62.405,0h-4.84V-13.986a6.342,6.342,0,0,0-.984-3.886,3.633,3.633,0,0,0-3.076-1.282A4.692,4.692,0,0,0-75.4-17.339q-1.3,1.815-1.3,6.04V0h-4.819V-22.682h3.773l.677,2.974h.246a6.284,6.284,0,0,1,2.738-2.5,8.828,8.828,0,0,1,3.948-.882q5.229,0,6.932,3.568h.328a6.914,6.914,0,0,1,2.83-2.625,8.982,8.982,0,0,1,4.184-.943q4.061,0,5.917,2.051t1.856,6.255V0H-52.91V-13.986a6.293,6.293,0,0,0-.995-3.886,3.662,3.662,0,0,0-3.086-1.282A4.784,4.784,0,0,0-61.1-17.4a9.038,9.038,0,0,0-1.3,5.383Zm32.546.41a7.944,7.944,0,0,1-6.686-3.1h-.287Q-36.545.185-36.545.8v9.29h-4.819V-22.682h3.9q.164.636.677,3.035h.246a7.55,7.55,0,0,1,6.768-3.445,7.872,7.872,0,0,1,6.614,3.076q2.369,3.076,2.369,8.634T-23.2-2.707A7.944,7.944,0,0,1-29.859.41Zm-1.169-19.564a5.009,5.009,0,0,0-4.194,1.682q-1.323,1.682-1.323,5.373v.718q0,4.143,1.313,6a4.882,4.882,0,0,0,4.286,1.856,4.351,4.351,0,0,0,3.855-2.051,10.591,10.591,0,0,0,1.354-5.845A10.22,10.22,0,0,0-27.081-17.2,4.481,4.481,0,0,0-31.028-19.154ZM-1,0l-.964-3.158h-.164a9.292,9.292,0,0,1-3.3,2.82A10.442,10.442,0,0,1-9.7.41a7.219,7.219,0,0,1-5.219-1.8A6.753,6.753,0,0,1-16.8-6.5a6,6,0,0,1,2.6-5.291q2.6-1.784,7.937-1.948l3.917-.123v-1.21a4.586,4.586,0,0,0-1.015-3.25A4.14,4.14,0,0,0-6.5-19.4a10.885,10.885,0,0,0-3.343.513,25.226,25.226,0,0,0-3.076,1.21l-1.559-3.445a16.774,16.774,0,0,1,4.04-1.466,18.593,18.593,0,0,1,4.143-.5q4.327,0,6.532,1.887t2.2,5.927V0ZM-8.183-3.281A5.97,5.97,0,0,0-3.968-4.748,5.315,5.315,0,0,0-2.379-8.859v-1.969l-2.912.123a9.964,9.964,0,0,0-4.953,1.138A3.458,3.458,0,0,0-11.792-6.46a3.032,3.032,0,0,0,.9,2.348A3.877,3.877,0,0,0-8.183-3.281ZM29.121,0h-4.84V-13.945a6.1,6.1,0,0,0-1.056-3.917,4.083,4.083,0,0,0-3.353-1.292,5.331,5.331,0,0,0-4.471,1.8q-1.415,1.8-1.415,6.05V0H9.167V-22.682H12.94l.677,2.974h.246a6.71,6.71,0,0,1,2.912-2.5,9.759,9.759,0,0,1,4.184-.882q8.162,0,8.162,8.306Zm3.261-22.682h5.25L42.246-9.823a24.4,24.4,0,0,1,1.395,5.168H43.8a21.556,21.556,0,0,1,.677-2.738Q44.974-9,49.69-22.682H54.9l-9.7,25.7q-2.646,7.075-8.818,7.075a13.878,13.878,0,0,1-3.117-.349V5.927a11.294,11.294,0,0,0,2.481.246q3.486,0,4.9-4.04L41.487,0ZM69.768,0V-29.982h4.9V-4.2H87.363V0Zm27.07,0H92.019V-22.682h4.819ZM91.731-28.69a2.668,2.668,0,0,1,.708-1.989,2.757,2.757,0,0,1,2.02-.7,2.7,2.7,0,0,1,1.979.7,2.668,2.668,0,0,1,.708,1.989,2.619,2.619,0,0,1-.708,1.938,2.675,2.675,0,0,1-1.979.708,2.733,2.733,0,0,1-2.02-.708A2.619,2.619,0,0,1,91.731-28.69ZM118.966-6.46a5.935,5.935,0,0,1-2.42,5.1Q114.126.41,109.614.41a16.373,16.373,0,0,1-7.28-1.374V-5.127a17.874,17.874,0,0,0,7.444,1.846q4.45,0,4.45-2.687a2.128,2.128,0,0,0-.492-1.436,5.825,5.825,0,0,0-1.62-1.189,27.88,27.88,0,0,0-3.138-1.395,14.514,14.514,0,0,1-5.3-3.035,5.616,5.616,0,0,1-1.384-3.937,5.172,5.172,0,0,1,2.348-4.522,11.143,11.143,0,0,1,6.388-1.61,18.093,18.093,0,0,1,7.567,1.62l-1.559,3.63a16.831,16.831,0,0,0-6.173-1.518q-3.814,0-3.814,2.174a2.187,2.187,0,0,0,.995,1.8,21.873,21.873,0,0,0,4.337,2.03,19.827,19.827,0,0,1,4.081,1.989,5.945,5.945,0,0,1,1.887,2.082A6.024,6.024,0,0,1,118.966-6.46Zm13.658,2.974a11.72,11.72,0,0,0,3.527-.554V-.41a9.729,9.729,0,0,1-2.061.584,14.2,14.2,0,0,1-2.615.236q-6.85,0-6.85-7.219V-19.031h-3.1v-2.133l3.322-1.764,1.641-4.8h2.974v5.045h6.46v3.65h-6.46V-6.891a3.406,3.406,0,0,0,.872,2.574A3.177,3.177,0,0,0,132.624-3.486Z" transform="translate(200.333 86.988)" fill="#505050"/></g><g transform="translate(332 846)"><g fill="#f5f5f5" stroke="#707070" stroke-width="1"><rect width="340" height="110" rx="20" stroke="none"/><rect x="0.5" y="0.5" width="339" height="109" rx="19.5" fill="none"/></g><path d="M-125-26.209a8.079,8.079,0,0,0-6.645,2.994q-2.42,2.994-2.42,8.265,0,5.517,2.328,8.347A8.221,8.221,0,0,0-125-3.773a17.7,17.7,0,0,0,3.691-.379q1.784-.379,3.712-.974v4.2a22.5,22.5,0,0,1-8,1.333q-6.583,0-10.11-3.989t-3.527-11.413a18.442,18.442,0,0,1,1.712-8.183,12.222,12.222,0,0,1,4.953-5.373,14.98,14.98,0,0,1,7.608-1.866,18.881,18.881,0,0,1,8.49,1.928l-1.764,4.081a26.333,26.333,0,0,0-3.209-1.261A11.563,11.563,0,0,0-125-26.209Zm33.469,14.827q0,5.558-2.851,8.675A10.214,10.214,0,0,1-102.313.41a10.874,10.874,0,0,1-5.619-1.436,9.477,9.477,0,0,1-3.753-4.122A14.039,14.039,0,0,1-113-11.382q0-5.517,2.83-8.613t7.978-3.1A9.992,9.992,0,0,1-94.4-19.923,12.239,12.239,0,0,1-91.526-11.382Zm-16.509,0q0,7.854,5.8,7.854,5.742,0,5.742-7.854,0-7.772-5.783-7.772a4.931,4.931,0,0,0-4.4,2.01A10.228,10.228,0,0,0-108.035-11.382ZM-66.876,0h-4.84V-13.986a6.342,6.342,0,0,0-.984-3.886,3.633,3.633,0,0,0-3.076-1.282,4.692,4.692,0,0,0-4.091,1.815q-1.3,1.815-1.3,6.04V0h-4.819V-22.682h3.773l.677,2.974h.246a6.284,6.284,0,0,1,2.738-2.5,8.828,8.828,0,0,1,3.948-.882q5.229,0,6.932,3.568h.328a6.914,6.914,0,0,1,2.83-2.625,8.982,8.982,0,0,1,4.184-.943q4.061,0,5.917,2.051t1.856,6.255V0h-4.819V-13.986a6.293,6.293,0,0,0-.995-3.886,3.662,3.662,0,0,0-3.086-1.282A4.784,4.784,0,0,0-65.574-17.4a9.038,9.038,0,0,0-1.3,5.383ZM-34.33.41a7.944,7.944,0,0,1-6.686-3.1H-41.3Q-41.016.185-41.016.8v9.29h-4.819V-22.682h3.9q.164.636.677,3.035h.246a7.55,7.55,0,0,1,6.768-3.445,7.872,7.872,0,0,1,6.614,3.076q2.369,3.076,2.369,8.634t-2.41,8.675A7.944,7.944,0,0,1-34.33.41ZM-35.5-19.154a5.009,5.009,0,0,0-4.194,1.682q-1.323,1.682-1.323,5.373v.718q0,4.143,1.313,6a4.882,4.882,0,0,0,4.286,1.856,4.351,4.351,0,0,0,3.855-2.051,10.591,10.591,0,0,0,1.354-5.845A10.22,10.22,0,0,0-31.551-17.2,4.481,4.481,0,0,0-35.5-19.154ZM-5.476,0l-.964-3.158H-6.6a9.292,9.292,0,0,1-3.3,2.82A10.442,10.442,0,0,1-14.171.41a7.219,7.219,0,0,1-5.219-1.8A6.753,6.753,0,0,1-21.267-6.5a6,6,0,0,1,2.6-5.291q2.6-1.784,7.937-1.948l3.917-.123v-1.21a4.586,4.586,0,0,0-1.015-3.25A4.14,4.14,0,0,0-10.972-19.4a10.885,10.885,0,0,0-3.343.513,25.226,25.226,0,0,0-3.076,1.21l-1.559-3.445a16.774,16.774,0,0,1,4.04-1.466,18.593,18.593,0,0,1,4.143-.5q4.327,0,6.532,1.887t2.2,5.927V0Zm-7.178-3.281A5.97,5.97,0,0,0-8.439-4.748,5.315,5.315,0,0,0-6.85-8.859v-1.969l-2.912.123a9.964,9.964,0,0,0-4.953,1.138A3.458,3.458,0,0,0-16.263-6.46a3.032,3.032,0,0,0,.9,2.348A3.877,3.877,0,0,0-12.653-3.281ZM24.65,0h-4.84V-13.945a6.1,6.1,0,0,0-1.056-3.917A4.083,4.083,0,0,0,15.4-19.154a5.331,5.331,0,0,0-4.471,1.8q-1.415,1.8-1.415,6.05V0H4.7V-22.682H8.47l.677,2.974h.246a6.71,6.71,0,0,1,2.912-2.5,9.759,9.759,0,0,1,4.184-.882q8.162,0,8.162,8.306Zm3.261-22.682h5.25L37.775-9.823A24.4,24.4,0,0,1,39.17-4.655h.164a21.556,21.556,0,0,1,.677-2.738Q40.5-9,45.22-22.682h5.209l-9.7,25.7Q38.083,10.09,31.91,10.09a13.878,13.878,0,0,1-3.117-.349V5.927a11.294,11.294,0,0,0,2.481.246q3.486,0,4.9-4.04L37.017,0ZM65.3,0V-29.982h4.9V0ZM97.556,0h-4.84V-13.945a6.1,6.1,0,0,0-1.056-3.917,4.082,4.082,0,0,0-3.353-1.292,5.331,5.331,0,0,0-4.471,1.8q-1.415,1.8-1.415,6.05V0H77.6V-22.682h3.773l.677,2.974H82.3a6.71,6.71,0,0,1,2.912-2.5,9.759,9.759,0,0,1,4.184-.882q8.162,0,8.162,8.306Zm18.088-19.031h-5.537V0h-4.84V-19.031h-3.732v-2.256l3.732-1.477V-24.24q0-4.02,1.887-5.958t5.763-1.938a15.379,15.379,0,0,1,5,.841l-1.271,3.65a11.11,11.11,0,0,0-3.4-.574,2.771,2.771,0,0,0-2.389,1.015,5.115,5.115,0,0,0-.749,3.045v1.477h5.537Zm23.974,7.649q0,5.558-2.851,8.675A10.214,10.214,0,0,1,128.83.41a10.874,10.874,0,0,1-5.619-1.436,9.477,9.477,0,0,1-3.753-4.122,14.039,14.039,0,0,1-1.312-6.234q0-5.517,2.83-8.613t7.978-3.1a9.992,9.992,0,0,1,7.793,3.168A12.239,12.239,0,0,1,139.617-11.382Zm-16.509,0q0,7.854,5.8,7.854,5.742,0,5.742-7.854,0-7.772-5.783-7.772a4.931,4.931,0,0,0-4.4,2.01A10.228,10.228,0,0,0,123.108-11.382Z" transform="translate(170.848 72.02)" fill="#505050"/></g><g transform="translate(1352 846)"><g fill="#f5f5f5" stroke="#707070" stroke-width="1"><rect width="340" height="110" rx="20" stroke="none"/><rect x="0.5" y="0.5" width="339" height="109" rx="19.5" fill="none"/></g><path d="M-133.526-26.209a8.079,8.079,0,0,0-6.645,2.994q-2.42,2.994-2.42,8.265,0,5.517,2.328,8.347a8.221,8.221,0,0,0,6.737,2.83,17.7,17.7,0,0,0,3.691-.379q1.784-.379,3.712-.974v4.2a22.5,22.5,0,0,1-8,1.333q-6.583,0-10.11-3.989t-3.527-11.413a18.442,18.442,0,0,1,1.712-8.183,12.222,12.222,0,0,1,4.953-5.373,14.98,14.98,0,0,1,7.608-1.866A18.881,18.881,0,0,1-125-28.485l-1.764,4.081a26.333,26.333,0,0,0-3.209-1.261A11.563,11.563,0,0,0-133.526-26.209Zm33.469,14.827q0,5.558-2.851,8.675A10.214,10.214,0,0,1-110.845.41a10.874,10.874,0,0,1-5.619-1.436,9.477,9.477,0,0,1-3.753-4.122,14.039,14.039,0,0,1-1.312-6.234q0-5.517,2.83-8.613t7.978-3.1a9.992,9.992,0,0,1,7.793,3.168A12.239,12.239,0,0,1-100.058-11.382Zm-16.509,0q0,7.854,5.8,7.854,5.742,0,5.742-7.854,0-7.772-5.783-7.772a4.931,4.931,0,0,0-4.4,2.01A10.228,10.228,0,0,0-116.566-11.382ZM-75.407,0h-4.84V-13.986a6.342,6.342,0,0,0-.984-3.886,3.633,3.633,0,0,0-3.076-1.282A4.692,4.692,0,0,0-88.4-17.339q-1.3,1.815-1.3,6.04V0h-4.819V-22.682h3.773l.677,2.974h.246a6.284,6.284,0,0,1,2.738-2.5,8.828,8.828,0,0,1,3.948-.882q5.229,0,6.932,3.568h.328a6.914,6.914,0,0,1,2.83-2.625,8.982,8.982,0,0,1,4.184-.943q4.061,0,5.917,2.051t1.856,6.255V0h-4.819V-13.986a6.293,6.293,0,0,0-.995-3.886,3.662,3.662,0,0,0-3.086-1.282A4.784,4.784,0,0,0-74.1-17.4a9.038,9.038,0,0,0-1.3,5.383Zm32.546.41a7.944,7.944,0,0,1-6.686-3.1h-.287Q-49.547.185-49.547.8v9.29h-4.819V-22.682h3.9q.164.636.677,3.035h.246a7.55,7.55,0,0,1,6.768-3.445,7.872,7.872,0,0,1,6.614,3.076q2.369,3.076,2.369,8.634t-2.41,8.675A7.944,7.944,0,0,1-42.861.41ZM-44.03-19.154a5.009,5.009,0,0,0-4.194,1.682q-1.323,1.682-1.323,5.373v.718q0,4.143,1.313,6a4.882,4.882,0,0,0,4.286,1.856,4.351,4.351,0,0,0,3.855-2.051,10.591,10.591,0,0,0,1.354-5.845A10.22,10.22,0,0,0-40.083-17.2,4.481,4.481,0,0,0-44.03-19.154ZM-14.007,0l-.964-3.158h-.164a9.292,9.292,0,0,1-3.3,2.82A10.442,10.442,0,0,1-22.7.41a7.219,7.219,0,0,1-5.219-1.8A6.753,6.753,0,0,1-29.8-6.5a6,6,0,0,1,2.6-5.291q2.6-1.784,7.937-1.948l3.917-.123v-1.21a4.586,4.586,0,0,0-1.015-3.25A4.14,4.14,0,0,0-19.5-19.4a10.885,10.885,0,0,0-3.343.513,25.226,25.226,0,0,0-3.076,1.21l-1.559-3.445a16.774,16.774,0,0,1,4.04-1.466,18.593,18.593,0,0,1,4.143-.5q4.327,0,6.532,1.887t2.2,5.927V0Zm-7.178-3.281A5.97,5.97,0,0,0-16.97-4.748a5.315,5.315,0,0,0,1.589-4.112v-1.969l-2.912.123a9.964,9.964,0,0,0-4.953,1.138A3.458,3.458,0,0,0-24.794-6.46a3.032,3.032,0,0,0,.9,2.348A3.877,3.877,0,0,0-21.185-3.281ZM16.119,0h-4.84V-13.945a6.1,6.1,0,0,0-1.056-3.917A4.082,4.082,0,0,0,6.87-19.154,5.331,5.331,0,0,0,2.4-17.35Q.984-15.545.984-11.3V0H-3.835V-22.682H-.062l.677,2.974H.861a6.71,6.71,0,0,1,2.912-2.5,9.759,9.759,0,0,1,4.184-.882q8.162,0,8.162,8.306ZM19.38-22.682h5.25L29.244-9.823a24.4,24.4,0,0,1,1.395,5.168H30.8a21.556,21.556,0,0,1,.677-2.738Q31.972-9,36.688-22.682H41.9l-9.7,25.7q-2.646,7.075-8.818,7.075a13.878,13.878,0,0,1-3.117-.349V5.927a11.294,11.294,0,0,0,2.481.246q3.486,0,4.9-4.04L28.485,0ZM56.766,0V-29.982h4.9V-4.2H74.361V0ZM99.135-11.382q0,5.558-2.851,8.675A10.214,10.214,0,0,1,88.348.41a10.874,10.874,0,0,1-5.619-1.436,9.477,9.477,0,0,1-3.753-4.122,14.039,14.039,0,0,1-1.312-6.234q0-5.517,2.83-8.613t7.978-3.1a9.992,9.992,0,0,1,7.793,3.168A12.239,12.239,0,0,1,99.135-11.382Zm-16.509,0q0,7.854,5.8,7.854,5.742,0,5.742-7.854,0-7.772-5.783-7.772a4.931,4.931,0,0,0-4.4,2.01A10.228,10.228,0,0,0,82.626-11.382Zm41.2-11.3v2.646l-3.876.718a6.256,6.256,0,0,1,.882,1.764,6.958,6.958,0,0,1,.349,2.215,6.786,6.786,0,0,1-2.42,5.517,10.127,10.127,0,0,1-6.665,2.01,10.807,10.807,0,0,1-1.969-.164,2.715,2.715,0,0,0-1.559,2.256,1.253,1.253,0,0,0,.728,1.169,6.3,6.3,0,0,0,2.676.39h3.958a8.8,8.8,0,0,1,5.7,1.6,5.627,5.627,0,0,1,1.948,4.614A6.71,6.71,0,0,1,120.4,8q-3.179,2.092-9.187,2.092-4.635,0-7.075-1.641a5.3,5.3,0,0,1-2.44-4.676A4.976,4.976,0,0,1,103.021.256a7.088,7.088,0,0,1,3.7-1.979,3.622,3.622,0,0,1-1.589-1.323,3.339,3.339,0,0,1-.625-1.917,3.3,3.3,0,0,1,.718-2.153,8.281,8.281,0,0,1,2.133-1.743,6.317,6.317,0,0,1-2.861-2.471,7.269,7.269,0,0,1-1.1-4.009,7.188,7.188,0,0,1,2.328-5.722q2.328-2.03,6.634-2.03a16.149,16.149,0,0,1,2.02.133,12.717,12.717,0,0,1,1.589.277ZM106,3.527a2.651,2.651,0,0,0,1.4,2.4,7.721,7.721,0,0,0,3.948.841,11.927,11.927,0,0,0,5.865-1.128,3.381,3.381,0,0,0,1.928-2.994,2.246,2.246,0,0,0-1.056-2.1,8.481,8.481,0,0,0-3.927-.625h-3.65a5.129,5.129,0,0,0-3.292.974A3.194,3.194,0,0,0,106,3.527Zm2.071-18.867a4.564,4.564,0,0,0,1.1,3.281,4.149,4.149,0,0,0,3.148,1.148q4.184,0,4.184-4.471a5.071,5.071,0,0,0-1.036-3.415,3.935,3.935,0,0,0-3.148-1.2,4.057,4.057,0,0,0-3.168,1.189A5,5,0,0,0,108.076-15.34Zm40.072,3.958q0,5.558-2.851,8.675A10.214,10.214,0,0,1,137.361.41a10.874,10.874,0,0,1-5.619-1.436,9.477,9.477,0,0,1-3.753-4.122,14.039,14.039,0,0,1-1.312-6.234q0-5.517,2.83-8.613t7.978-3.1a9.992,9.992,0,0,1,7.793,3.168A12.239,12.239,0,0,1,148.148-11.382Zm-16.509,0q0,7.854,5.8,7.854,5.742,0,5.742-7.854,0-7.772-5.783-7.772a4.931,4.931,0,0,0-4.4,2.01A10.228,10.228,0,0,0,131.64-11.382Z" transform="translate(171.014 72.02)" fill="#505050"/></g><g transform="translate(852 846)"><g fill="#f5f5f5" stroke="#707070" stroke-width="1"><rect width="320" height="110" rx="20" stroke="none"/><rect x="0.5" y="0.5" width="319" height="109" rx="19.5" fill="none"/></g><path d="M-74.208-20.918a8.742,8.742,0,0,1-3.076,7.2q-3.076,2.5-8.757,2.5h-3.117V0h-4.9V-29.982h8.634q5.619,0,8.418,2.3T-74.208-20.918Zm-14.95,5.578h2.6q3.773,0,5.537-1.312a4.777,4.777,0,0,0,1.764-4.1,4.654,4.654,0,0,0-1.579-3.855,7.8,7.8,0,0,0-4.922-1.271h-3.4Zm31.931-7.752a11.6,11.6,0,0,1,2.4.205L-55.3-18.4a9.109,9.109,0,0,0-2.133-.246,6.172,6.172,0,0,0-4.686,1.887,6.82,6.82,0,0,0-1.794,4.9V0h-4.819V-22.682h3.773l.636,4h.246a8.987,8.987,0,0,1,2.943-3.22A7,7,0,0,1-57.227-23.092Zm26.722,11.71q0,5.558-2.851,8.675A10.214,10.214,0,0,1-41.292.41a10.874,10.874,0,0,1-5.619-1.436,9.477,9.477,0,0,1-3.753-4.122,14.039,14.039,0,0,1-1.312-6.234q0-5.517,2.83-8.613t7.978-3.1a9.992,9.992,0,0,1,7.793,3.168A12.239,12.239,0,0,1-30.505-11.382Zm-16.509,0q0,7.854,5.8,7.854,5.742,0,5.742-7.854,0-7.772-5.783-7.772a4.931,4.931,0,0,0-4.4,2.01A10.228,10.228,0,0,0-47.014-11.382Zm41.2-11.3v2.646l-3.876.718a6.256,6.256,0,0,1,.882,1.764,6.958,6.958,0,0,1,.349,2.215,6.786,6.786,0,0,1-2.42,5.517,10.127,10.127,0,0,1-6.665,2.01,10.807,10.807,0,0,1-1.969-.164,2.715,2.715,0,0,0-1.559,2.256,1.253,1.253,0,0,0,.728,1.169,6.3,6.3,0,0,0,2.676.39h3.958a8.8,8.8,0,0,1,5.7,1.6A5.627,5.627,0,0,1-6.06,2.051,6.71,6.71,0,0,1-9.239,8q-3.179,2.092-9.187,2.092-4.635,0-7.075-1.641a5.3,5.3,0,0,1-2.44-4.676A4.976,4.976,0,0,1-26.619.256a7.088,7.088,0,0,1,3.7-1.979,3.622,3.622,0,0,1-1.589-1.323,3.339,3.339,0,0,1-.625-1.917,3.3,3.3,0,0,1,.718-2.153,8.281,8.281,0,0,1,2.133-1.743,6.317,6.317,0,0,1-2.861-2.471,7.269,7.269,0,0,1-1.1-4.009,7.188,7.188,0,0,1,2.328-5.722q2.328-2.03,6.634-2.03a16.149,16.149,0,0,1,2.02.133,12.717,12.717,0,0,1,1.589.277ZM-23.635,3.527a2.651,2.651,0,0,0,1.4,2.4,7.721,7.721,0,0,0,3.948.841A11.927,11.927,0,0,0-12.417,5.64,3.381,3.381,0,0,0-10.49,2.646a2.246,2.246,0,0,0-1.056-2.1,8.481,8.481,0,0,0-3.927-.625h-3.65a5.129,5.129,0,0,0-3.292.974A3.194,3.194,0,0,0-23.635,3.527Zm2.071-18.867a4.564,4.564,0,0,0,1.1,3.281,4.149,4.149,0,0,0,3.148,1.148q4.184,0,4.184-4.471A5.071,5.071,0,0,0-14.171-18.8,3.935,3.935,0,0,0-17.319-20a4.057,4.057,0,0,0-3.168,1.189A5,5,0,0,0-21.564-15.34ZM9.9-23.092a11.6,11.6,0,0,1,2.4.205L11.823-18.4a9.109,9.109,0,0,0-2.133-.246A6.172,6.172,0,0,0,5-16.755a6.82,6.82,0,0,0-1.794,4.9V0H-1.61V-22.682H2.164l.636,4h.246A8.987,8.987,0,0,1,5.988-21.9,7,7,0,0,1,9.9-23.092ZM30.69,0l-.964-3.158h-.164a9.292,9.292,0,0,1-3.3,2.82A10.442,10.442,0,0,1,21.995.41a7.219,7.219,0,0,1-5.219-1.8A6.753,6.753,0,0,1,14.9-6.5a6,6,0,0,1,2.6-5.291q2.6-1.784,7.937-1.948l3.917-.123v-1.21a4.586,4.586,0,0,0-1.015-3.25A4.14,4.14,0,0,0,25.194-19.4a10.885,10.885,0,0,0-3.343.513,25.226,25.226,0,0,0-3.076,1.21l-1.559-3.445a16.774,16.774,0,0,1,4.04-1.466,18.593,18.593,0,0,1,4.143-.5q4.327,0,6.532,1.887t2.2,5.927V0ZM23.512-3.281a5.97,5.97,0,0,0,4.214-1.466,5.315,5.315,0,0,0,1.589-4.112v-1.969l-2.912.123a9.964,9.964,0,0,0-4.953,1.138A3.458,3.458,0,0,0,19.9-6.46a3.032,3.032,0,0,0,.9,2.348A3.877,3.877,0,0,0,23.512-3.281ZM59.975,0h-4.84V-13.986a6.342,6.342,0,0,0-.984-3.886,3.633,3.633,0,0,0-3.076-1.282,4.692,4.692,0,0,0-4.091,1.815q-1.3,1.815-1.3,6.04V0H40.862V-22.682h3.773l.677,2.974h.246a6.284,6.284,0,0,1,2.738-2.5,8.828,8.828,0,0,1,3.948-.882q5.229,0,6.932,3.568H59.5a6.914,6.914,0,0,1,2.83-2.625,8.982,8.982,0,0,1,4.184-.943q4.061,0,5.917,2.051t1.856,6.255V0H69.47V-13.986a6.293,6.293,0,0,0-.995-3.886,3.662,3.662,0,0,0-3.086-1.282A4.784,4.784,0,0,0,61.277-17.4a9.038,9.038,0,0,0-1.3,5.383ZM96.253-6.46a5.935,5.935,0,0,1-2.42,5.1Q91.414.41,86.9.41a16.373,16.373,0,0,1-7.28-1.374V-5.127a17.874,17.874,0,0,0,7.444,1.846q4.45,0,4.45-2.687A2.128,2.128,0,0,0,91.024-7.4,5.825,5.825,0,0,0,89.4-8.593a27.88,27.88,0,0,0-3.138-1.395,14.514,14.514,0,0,1-5.3-3.035,5.616,5.616,0,0,1-1.384-3.937,5.172,5.172,0,0,1,2.348-4.522,11.143,11.143,0,0,1,6.388-1.61,18.093,18.093,0,0,1,7.567,1.62l-1.559,3.63a16.831,16.831,0,0,0-6.173-1.518q-3.814,0-3.814,2.174a2.187,2.187,0,0,0,.995,1.8,21.873,21.873,0,0,0,4.337,2.03,19.827,19.827,0,0,1,4.081,1.989A5.945,5.945,0,0,1,95.638-9.28,6.024,6.024,0,0,1,96.253-6.46Z" transform="translate(160.512 72.02)" fill="#505050"/></g><g transform="translate(783 556)"><g fill="#f5f5f5" stroke="#707070" stroke-width="1"><rect width="470" height="140" rx="20" stroke="none"/><rect x="0.5" y="0.5" width="469" height="139" rx="19.5" fill="none"/></g><path d="M-154.69-26.209a8.079,8.079,0,0,0-6.645,2.994q-2.42,2.994-2.42,8.265,0,5.517,2.328,8.347a8.221,8.221,0,0,0,6.737,2.83A17.7,17.7,0,0,0-151-4.153q1.784-.379,3.712-.974v4.2a22.5,22.5,0,0,1-8,1.333q-6.583,0-10.11-3.989t-3.527-11.413a18.442,18.442,0,0,1,1.712-8.183,12.222,12.222,0,0,1,4.953-5.373,14.98,14.98,0,0,1,7.608-1.866,18.881,18.881,0,0,1,8.49,1.928l-1.764,4.081a26.333,26.333,0,0,0-3.209-1.261A11.563,11.563,0,0,0-154.69-26.209Zm33.469,14.827q0,5.558-2.851,8.675A10.214,10.214,0,0,1-132.009.41a10.874,10.874,0,0,1-5.619-1.436,9.477,9.477,0,0,1-3.753-4.122,14.039,14.039,0,0,1-1.312-6.234q0-5.517,2.83-8.613t7.978-3.1a9.992,9.992,0,0,1,7.793,3.168A12.239,12.239,0,0,1-121.222-11.382Zm-16.509,0q0,7.854,5.8,7.854,5.742,0,5.742-7.854,0-7.772-5.783-7.772a4.931,4.931,0,0,0-4.4,2.01A10.228,10.228,0,0,0-137.73-11.382ZM-96.571,0h-4.84V-13.986a6.342,6.342,0,0,0-.984-3.886,3.633,3.633,0,0,0-3.076-1.282,4.692,4.692,0,0,0-4.091,1.815q-1.3,1.815-1.3,6.04V0h-4.819V-22.682h3.773l.677,2.974h.246a6.284,6.284,0,0,1,2.738-2.5,8.828,8.828,0,0,1,3.948-.882q5.229,0,6.932,3.568h.328a6.914,6.914,0,0,1,2.83-2.625,8.982,8.982,0,0,1,4.184-.943q4.061,0,5.917,2.051t1.856,6.255V0h-4.819V-13.986a6.293,6.293,0,0,0-.995-3.886,3.662,3.662,0,0,0-3.086-1.282A4.784,4.784,0,0,0-95.269-17.4a9.038,9.038,0,0,0-1.3,5.383Zm32.546.41a7.944,7.944,0,0,1-6.686-3.1H-71Q-70.711.185-70.711.8v9.29H-75.53V-22.682h3.9q.164.636.677,3.035h.246a7.55,7.55,0,0,1,6.768-3.445,7.872,7.872,0,0,1,6.614,3.076q2.369,3.076,2.369,8.634t-2.41,8.675A7.944,7.944,0,0,1-64.025.41Zm-1.169-19.564a5.009,5.009,0,0,0-4.194,1.682q-1.323,1.682-1.323,5.373v.718q0,4.143,1.313,6a4.882,4.882,0,0,0,4.286,1.856,4.351,4.351,0,0,0,3.855-2.051A10.591,10.591,0,0,0-59.9-11.423,10.22,10.22,0,0,0-61.247-17.2,4.481,4.481,0,0,0-65.194-19.154ZM-35.171,0l-.964-3.158H-36.3a9.292,9.292,0,0,1-3.3,2.82A10.442,10.442,0,0,1-43.866.41a7.219,7.219,0,0,1-5.219-1.8A6.753,6.753,0,0,1-50.962-6.5a6,6,0,0,1,2.6-5.291q2.6-1.784,7.937-1.948l3.917-.123v-1.21a4.586,4.586,0,0,0-1.015-3.25A4.14,4.14,0,0,0-40.667-19.4a10.885,10.885,0,0,0-3.343.513,25.226,25.226,0,0,0-3.076,1.21l-1.559-3.445a16.774,16.774,0,0,1,4.04-1.466,18.593,18.593,0,0,1,4.143-.5q4.327,0,6.532,1.887t2.2,5.927V0Zm-7.178-3.281a5.97,5.97,0,0,0,4.214-1.466,5.315,5.315,0,0,0,1.589-4.112v-1.969l-2.912.123A9.964,9.964,0,0,0-44.41-9.567,3.458,3.458,0,0,0-45.958-6.46a3.032,3.032,0,0,0,.9,2.348A3.877,3.877,0,0,0-42.349-3.281ZM-5.045,0h-4.84V-13.945a6.1,6.1,0,0,0-1.056-3.917,4.082,4.082,0,0,0-3.353-1.292,5.331,5.331,0,0,0-4.471,1.8q-1.415,1.8-1.415,6.05V0H-25V-22.682h3.773l.677,2.974h.246a6.71,6.71,0,0,1,2.912-2.5,9.759,9.759,0,0,1,4.184-.882q8.162,0,8.162,8.306Zm3.261-22.682h5.25L8.08-9.823A24.4,24.4,0,0,1,9.475-4.655h.164a21.556,21.556,0,0,1,.677-2.738Q10.808-9,15.524-22.682h5.209l-9.7,25.7Q8.388,10.09,2.215,10.09A13.878,13.878,0,0,1-.9,9.741V5.927a11.294,11.294,0,0,0,2.481.246q3.486,0,4.9-4.04L7.321,0Zm61.77,7.4q0,7.424-4.122,11.351T43.989,0H35.6V-29.982h9.27q7.157,0,11.136,3.855T59.985-15.278Zm-5.168.164q0-10.767-10.069-10.767H40.5V-4.122h3.486Q54.817-4.122,54.817-15.114ZM75.817.41q-5.291,0-8.275-3.086t-2.984-8.5q0-5.558,2.769-8.736a9.563,9.563,0,0,1,7.608-3.179,9.347,9.347,0,0,1,7.1,2.728,10.422,10.422,0,0,1,2.6,7.506v2.6H69.521a7.45,7.45,0,0,0,1.784,5.076A6.214,6.214,0,0,0,76.043-3.4a17.488,17.488,0,0,0,3.743-.379,19.618,19.618,0,0,0,3.722-1.261v3.917A14.8,14.8,0,0,1,79.939.062,21.881,21.881,0,0,1,75.817.41Zm-.882-19.852a4.842,4.842,0,0,0-3.681,1.456A6.939,6.939,0,0,0,69.6-13.74H79.9A6.278,6.278,0,0,0,78.545-18,4.629,4.629,0,0,0,74.936-19.441ZM98.561-3.486a11.72,11.72,0,0,0,3.527-.554V-.41a9.729,9.729,0,0,1-2.061.584A14.2,14.2,0,0,1,97.412.41q-6.85,0-6.85-7.219V-19.031h-3.1v-2.133l3.322-1.764,1.641-4.8H95.4v5.045h6.46v3.65H95.4V-6.891a3.406,3.406,0,0,0,.872,2.574A3.177,3.177,0,0,0,98.561-3.486ZM120.812,0l-.964-3.158h-.164a9.292,9.292,0,0,1-3.3,2.82,10.442,10.442,0,0,1-4.266.749,7.219,7.219,0,0,1-5.219-1.8A6.753,6.753,0,0,1,105.021-6.5a6,6,0,0,1,2.6-5.291q2.6-1.784,7.937-1.948l3.917-.123v-1.21a4.586,4.586,0,0,0-1.015-3.25,4.14,4.14,0,0,0-3.148-1.077,10.885,10.885,0,0,0-3.343.513,25.226,25.226,0,0,0-3.076,1.21l-1.559-3.445a16.774,16.774,0,0,1,4.04-1.466,18.593,18.593,0,0,1,4.143-.5q4.327,0,6.532,1.887t2.2,5.927V0Zm-7.178-3.281a5.97,5.97,0,0,0,4.214-1.466,5.315,5.315,0,0,0,1.589-4.112v-1.969l-2.912.123a9.964,9.964,0,0,0-4.953,1.138,3.458,3.458,0,0,0-1.548,3.107,3.032,3.032,0,0,0,.9,2.348A3.877,3.877,0,0,0,113.634-3.281ZM135.8,0h-4.819V-22.682H135.8ZM130.7-28.69a2.668,2.668,0,0,1,.708-1.989,2.757,2.757,0,0,1,2.02-.7,2.7,2.7,0,0,1,1.979.7,2.668,2.668,0,0,1,.708,1.989,2.619,2.619,0,0,1-.708,1.938,2.675,2.675,0,0,1-1.979.708,2.733,2.733,0,0,1-2.02-.708A2.619,2.619,0,0,1,130.7-28.69ZM147.513,0h-4.819V-31.91h4.819Zm22.128-6.46a5.935,5.935,0,0,1-2.42,5.1Q164.8.41,160.289.41a16.373,16.373,0,0,1-7.28-1.374V-5.127a17.874,17.874,0,0,0,7.444,1.846q4.45,0,4.45-2.687a2.128,2.128,0,0,0-.492-1.436,5.825,5.825,0,0,0-1.62-1.189,27.88,27.88,0,0,0-3.138-1.395,14.514,14.514,0,0,1-5.3-3.035,5.616,5.616,0,0,1-1.384-3.937,5.172,5.172,0,0,1,2.348-4.522,11.143,11.143,0,0,1,6.388-1.61,18.093,18.093,0,0,1,7.567,1.62l-1.559,3.63a16.831,16.831,0,0,0-6.173-1.518q-3.814,0-3.814,2.174a2.187,2.187,0,0,0,.995,1.8,21.873,21.873,0,0,0,4.337,2.03,19.827,19.827,0,0,1,4.081,1.989,5.945,5.945,0,0,1,1.887,2.082A6.024,6.024,0,0,1,169.641-6.46Z" transform="translate(235.481 86.988)" fill="#505050"/></g><g transform="translate(737 1056)"><g fill="#f5f5f5" stroke="#707070" stroke-width="1"><rect width="550" height="140" rx="20" stroke="none"/><rect x="0.5" y="0.5" width="549" height="139" rx="19.5" fill="none"/></g><path d="M-211.348-19.922a8.326,8.326,0,0,1-2.93,6.855q-2.93,2.383-8.34,2.383h-2.969V0h-4.668V-28.555h8.223q5.352,0,8.018,2.188A7.853,7.853,0,0,1-211.348-19.922Zm-14.238,5.313h2.48q3.594,0,5.273-1.25a4.549,4.549,0,0,0,1.68-3.906,4.432,4.432,0,0,0-1.5-3.672,7.428,7.428,0,0,0-4.687-1.211h-3.242Zm30.41-7.383a11.049,11.049,0,0,1,2.285.2l-.449,4.277a8.675,8.675,0,0,0-2.031-.234,5.878,5.878,0,0,0-4.463,1.8,6.5,6.5,0,0,0-1.709,4.668V0h-4.59V-21.6h3.594l.605,3.809h.234a8.559,8.559,0,0,1,2.8-3.066A6.662,6.662,0,0,1-195.176-21.992Zm25.449,11.152q0,5.293-2.715,8.262A9.727,9.727,0,0,1-180,.391a10.356,10.356,0,0,1-5.352-1.367A9.026,9.026,0,0,1-188.926-4.9a13.371,13.371,0,0,1-1.25-5.937q0-5.254,2.7-8.2a9.773,9.773,0,0,1,7.6-2.949,9.516,9.516,0,0,1,7.422,3.018A11.656,11.656,0,0,1-169.727-10.84Zm-15.723,0q0,7.48,5.527,7.48,5.469,0,5.469-7.48,0-7.4-5.508-7.4a4.7,4.7,0,0,0-4.189,1.914A9.741,9.741,0,0,0-185.449-10.84ZM-146.211-21.6v2.52l-3.691.684a5.958,5.958,0,0,1,.84,1.68,6.627,6.627,0,0,1,.332,2.109,6.463,6.463,0,0,1-2.3,5.254,9.645,9.645,0,0,1-6.348,1.914,10.293,10.293,0,0,1-1.875-.156,2.586,2.586,0,0,0-1.484,2.148,1.194,1.194,0,0,0,.693,1.113,6,6,0,0,0,2.549.371h3.77a8.381,8.381,0,0,1,5.43,1.523,5.359,5.359,0,0,1,1.855,4.395,6.39,6.39,0,0,1-3.027,5.664q-3.027,1.992-8.75,1.992-4.414,0-6.738-1.562a5.05,5.05,0,0,1-2.324-4.453,4.739,4.739,0,0,1,1.26-3.35A6.75,6.75,0,0,1-162.5-1.641a3.45,3.45,0,0,1-1.514-1.26,3.18,3.18,0,0,1-.6-1.826,3.144,3.144,0,0,1,.684-2.051,7.887,7.887,0,0,1,2.031-1.66,6.016,6.016,0,0,1-2.725-2.354,6.923,6.923,0,0,1-1.045-3.818,6.845,6.845,0,0,1,2.217-5.449,9.32,9.32,0,0,1,6.318-1.934,15.38,15.38,0,0,1,1.924.127,12.111,12.111,0,0,1,1.514.264ZM-163.184,3.359a2.524,2.524,0,0,0,1.338,2.285,7.353,7.353,0,0,0,3.76.8A11.359,11.359,0,0,0-152.5,5.371a3.22,3.22,0,0,0,1.836-2.852,2.139,2.139,0,0,0-1.006-2,8.077,8.077,0,0,0-3.74-.6h-3.477a4.885,4.885,0,0,0-3.135.928A3.042,3.042,0,0,0-163.184,3.359Zm1.973-17.969a4.347,4.347,0,0,0,1.045,3.125,3.951,3.951,0,0,0,3,1.094q3.984,0,3.984-4.258a4.83,4.83,0,0,0-.986-3.252,3.747,3.747,0,0,0-3-1.143,3.864,3.864,0,0,0-3.018,1.133A4.762,4.762,0,0,0-161.211-14.609Zm29.961-7.383a11.049,11.049,0,0,1,2.285.2l-.449,4.277a8.675,8.675,0,0,0-2.031-.234,5.878,5.878,0,0,0-4.463,1.8,6.5,6.5,0,0,0-1.709,4.668V0h-4.59V-21.6h3.594l.605,3.809h.234a8.559,8.559,0,0,1,2.8-3.066A6.662,6.662,0,0,1-131.25-21.992ZM-111.445,0l-.918-3.008h-.156a8.849,8.849,0,0,1-3.145,2.686,9.945,9.945,0,0,1-4.062.713A6.875,6.875,0,0,1-124.7-1.328a6.431,6.431,0,0,1-1.787-4.863A5.71,5.71,0,0,1-124-11.23q2.48-1.7,7.559-1.855l3.73-.117v-1.152a4.368,4.368,0,0,0-.967-3.1,3.943,3.943,0,0,0-3-1.025,10.366,10.366,0,0,0-3.184.488,24.025,24.025,0,0,0-2.93,1.152l-1.484-3.281a15.975,15.975,0,0,1,3.848-1.4,17.707,17.707,0,0,1,3.945-.479q4.121,0,6.221,1.8t2.1,5.645V0Zm-6.836-3.125a5.685,5.685,0,0,0,4.014-1.4,5.062,5.062,0,0,0,1.514-3.916v-1.875l-2.773.117a9.49,9.49,0,0,0-4.717,1.084,3.293,3.293,0,0,0-1.475,2.959,2.887,2.887,0,0,0,.859,2.236A3.692,3.692,0,0,0-118.281-3.125ZM-83.555,0h-4.609V-13.32a6.04,6.04,0,0,0-.937-3.7,3.46,3.46,0,0,0-2.93-1.221,4.469,4.469,0,0,0-3.9,1.729q-1.24,1.729-1.24,5.752V0h-4.59V-21.6h3.594l.645,2.832h.234a5.984,5.984,0,0,1,2.607-2.383,8.408,8.408,0,0,1,3.76-.84q4.98,0,6.6,3.4H-84a6.585,6.585,0,0,1,2.7-2.5,8.554,8.554,0,0,1,3.984-.9q3.867,0,5.635,1.953t1.768,5.957V0h-4.59V-13.32a5.993,5.993,0,0,0-.947-3.7A3.488,3.488,0,0,0-78.4-18.242a4.556,4.556,0,0,0-3.916,1.67,8.608,8.608,0,0,0-1.24,5.127Zm54.141-14.551q0,7.07-3.926,10.811T-44.648,0h-7.988V-28.555h8.828q6.816,0,10.605,3.672T-29.414-14.551Zm-4.922.156q0-10.254-9.59-10.254h-4.043V-3.926h3.32Q-34.336-3.926-34.336-14.395Zm20,14.785a10.449,10.449,0,0,1-7.881-2.939q-2.842-2.939-2.842-8.1,0-5.293,2.637-8.32a9.107,9.107,0,0,1,7.246-3.027,8.9,8.9,0,0,1,6.758,2.6,9.926,9.926,0,0,1,2.48,7.148v2.48H-20.332a7.1,7.1,0,0,0,1.7,4.834,5.918,5.918,0,0,0,4.512,1.689A16.655,16.655,0,0,0-10.557-3.6,18.684,18.684,0,0,0-7.012-4.8v3.73A14.092,14.092,0,0,1-10.41.059,20.839,20.839,0,0,1-14.336.391Zm-.84-18.906a4.611,4.611,0,0,0-3.506,1.387,6.609,6.609,0,0,0-1.572,4.043h9.8a5.979,5.979,0,0,0-1.289-4.053A4.409,4.409,0,0,0-15.176-18.516Zm22.5,15.2a11.162,11.162,0,0,0,3.359-.527V-.391A9.265,9.265,0,0,1,8.721.166,13.524,13.524,0,0,1,6.23.391Q-.293.391-.293-6.484V-18.125H-3.242v-2.031l3.164-1.68,1.563-4.57H4.316v4.8h6.152v3.477H4.316V-6.562a3.244,3.244,0,0,0,.83,2.451A3.026,3.026,0,0,0,7.324-3.32ZM28.516,0,27.6-3.008h-.156A8.849,8.849,0,0,1,24.3-.322a9.945,9.945,0,0,1-4.062.713,6.875,6.875,0,0,1-4.971-1.719,6.431,6.431,0,0,1-1.787-4.863,5.71,5.71,0,0,1,2.48-5.039q2.48-1.7,7.559-1.855l3.73-.117v-1.152a4.368,4.368,0,0,0-.967-3.1,3.943,3.943,0,0,0-3-1.025,10.366,10.366,0,0,0-3.184.488,24.025,24.025,0,0,0-2.93,1.152l-1.484-3.281a15.975,15.975,0,0,1,3.848-1.4,17.707,17.707,0,0,1,3.945-.479q4.121,0,6.221,1.8t2.1,5.645V0ZM21.68-3.125a5.685,5.685,0,0,0,4.014-1.4,5.062,5.062,0,0,0,1.514-3.916v-1.875l-2.773.117a9.49,9.49,0,0,0-4.717,1.084,3.293,3.293,0,0,0-1.475,2.959A2.887,2.887,0,0,0,19.1-3.916,3.692,3.692,0,0,0,21.68-3.125ZM42.793,0H38.2V-21.6h4.59ZM37.93-27.324a2.541,2.541,0,0,1,.674-1.895,2.626,2.626,0,0,1,1.924-.664,2.57,2.57,0,0,1,1.885.664,2.541,2.541,0,0,1,.674,1.895,2.494,2.494,0,0,1-.674,1.846,2.548,2.548,0,0,1-1.885.674,2.6,2.6,0,0,1-1.924-.674A2.494,2.494,0,0,1,37.93-27.324ZM53.945,0h-4.59V-30.391h4.59ZM75.02-6.152a5.652,5.652,0,0,1-2.3,4.854,11.036,11.036,0,0,1-6.6,1.689A15.594,15.594,0,0,1,59.18-.918V-4.883a17.023,17.023,0,0,0,7.09,1.758q4.238,0,4.238-2.559a2.027,2.027,0,0,0-.469-1.367A5.548,5.548,0,0,0,68.5-8.184a26.553,26.553,0,0,0-2.988-1.328A13.823,13.823,0,0,1,60.459-12.4a5.348,5.348,0,0,1-1.318-3.75,4.925,4.925,0,0,1,2.236-4.307,10.612,10.612,0,0,1,6.084-1.533,17.232,17.232,0,0,1,7.207,1.543l-1.484,3.457A16.029,16.029,0,0,0,67.3-18.437q-3.633,0-3.633,2.07a2.083,2.083,0,0,0,.947,1.719,20.831,20.831,0,0,0,4.131,1.934,18.883,18.883,0,0,1,3.887,1.895,5.662,5.662,0,0,1,1.8,1.982A5.737,5.737,0,0,1,75.02-6.152Zm21.719-6.211H88.965V-15.84h7.773v-7.969h3.516v7.969h7.793v3.477h-7.793v7.93H96.738ZM147.3-14.551q0,7.07-3.926,10.811T132.07,0h-7.988V-28.555h8.828q6.816,0,10.605,3.672T147.3-14.551Zm-4.922.156q0-10.254-9.59-10.254H128.75V-3.926h3.32Q142.383-3.926,142.383-14.395Zm21.523-7.6a11.049,11.049,0,0,1,2.285.2l-.449,4.277a8.675,8.675,0,0,0-2.031-.234,5.878,5.878,0,0,0-4.463,1.8,6.5,6.5,0,0,0-1.709,4.668V0h-4.59V-21.6h3.594l.605,3.809h.234a8.559,8.559,0,0,1,2.8-3.066A6.662,6.662,0,0,1,163.906-21.992ZM185.43,0l-.645-2.832h-.234a6.512,6.512,0,0,1-2.725,2.363,9.11,9.11,0,0,1-4.033.859q-3.926,0-5.859-1.953T170-7.48V-21.6h4.629v13.32a5.779,5.779,0,0,0,1.016,3.721,3.877,3.877,0,0,0,3.184,1.24,5.069,5.069,0,0,0,4.248-1.729q1.357-1.729,1.357-5.791V-21.6h4.609V0Zm28.4-21.6v2.52l-3.691.684a5.958,5.958,0,0,1,.84,1.68,6.627,6.627,0,0,1,.332,2.109A6.463,6.463,0,0,1,209-9.355a9.645,9.645,0,0,1-6.348,1.914,10.293,10.293,0,0,1-1.875-.156A2.586,2.586,0,0,0,199.3-5.449a1.194,1.194,0,0,0,.693,1.113,6,6,0,0,0,2.549.371h3.77a8.381,8.381,0,0,1,5.43,1.523,5.359,5.359,0,0,1,1.855,4.395,6.39,6.39,0,0,1-3.027,5.664q-3.027,1.992-8.75,1.992-4.414,0-6.738-1.562a5.05,5.05,0,0,1-2.324-4.453,4.739,4.739,0,0,1,1.26-3.35,6.75,6.75,0,0,1,3.525-1.885,3.45,3.45,0,0,1-1.514-1.26,3.18,3.18,0,0,1-.6-1.826,3.144,3.144,0,0,1,.684-2.051,7.887,7.887,0,0,1,2.031-1.66,6.016,6.016,0,0,1-2.725-2.354,6.923,6.923,0,0,1-1.045-3.818,6.845,6.845,0,0,1,2.217-5.449,9.32,9.32,0,0,1,6.318-1.934,15.38,15.38,0,0,1,1.924.127,12.111,12.111,0,0,1,1.514.264ZM196.855,3.359a2.524,2.524,0,0,0,1.338,2.285,7.353,7.353,0,0,0,3.76.8,11.359,11.359,0,0,0,5.586-1.074,3.22,3.22,0,0,0,1.836-2.852,2.139,2.139,0,0,0-1.006-2,8.077,8.077,0,0,0-3.74-.6h-3.477a4.885,4.885,0,0,0-3.135.928A3.042,3.042,0,0,0,196.855,3.359Zm1.973-17.969a4.347,4.347,0,0,0,1.045,3.125,3.951,3.951,0,0,0,3,1.094q3.984,0,3.984-4.258a4.83,4.83,0,0,0-.986-3.252,3.747,3.747,0,0,0-3-1.143,3.864,3.864,0,0,0-3.018,1.133A4.762,4.762,0,0,0,198.828-14.609Zm33.516,8.457a5.652,5.652,0,0,1-2.3,4.854,11.036,11.036,0,0,1-6.6,1.689A15.594,15.594,0,0,1,216.5-.918V-4.883a17.023,17.023,0,0,0,7.09,1.758q4.238,0,4.238-2.559a2.027,2.027,0,0,0-.469-1.367,5.548,5.548,0,0,0-1.543-1.133,26.552,26.552,0,0,0-2.988-1.328,13.823,13.823,0,0,1-5.049-2.891,5.348,5.348,0,0,1-1.318-3.75,4.925,4.925,0,0,1,2.236-4.307,10.612,10.612,0,0,1,6.084-1.533,17.232,17.232,0,0,1,7.207,1.543l-1.484,3.457a16.029,16.029,0,0,0-5.879-1.445q-3.633,0-3.633,2.07a2.083,2.083,0,0,0,.947,1.719,20.832,20.832,0,0,0,4.131,1.934,18.883,18.883,0,0,1,3.887,1.895,5.662,5.662,0,0,1,1.8,1.982A5.737,5.737,0,0,1,232.344-6.152Z" transform="translate(275.473 85.5)" fill="#505050"/></g><g transform="translate(440 1346)"><g fill="#f5f5f5" stroke="#707070" stroke-width="1"><rect width="317" height="110" rx="20" stroke="none"/><rect x="0.5" y="0.5" width="316" height="109" rx="19.5" fill="none"/></g><path d="M-98.5-26.209a8.079,8.079,0,0,0-6.645,2.994q-2.42,2.994-2.42,8.265,0,5.517,2.328,8.347A8.221,8.221,0,0,0-98.5-3.773a17.7,17.7,0,0,0,3.691-.379q1.784-.379,3.712-.974v4.2a22.5,22.5,0,0,1-8,1.333q-6.583,0-10.11-3.989t-3.527-11.413a18.442,18.442,0,0,1,1.712-8.183,12.222,12.222,0,0,1,4.953-5.373,14.98,14.98,0,0,1,7.608-1.866,18.881,18.881,0,0,1,8.49,1.928L-91.731-24.4a26.333,26.333,0,0,0-3.209-1.261A11.563,11.563,0,0,0-98.5-26.209ZM-75.243.41q-5.291,0-8.275-3.086t-2.984-8.5q0-5.558,2.769-8.736a9.563,9.563,0,0,1,7.608-3.179,9.347,9.347,0,0,1,7.1,2.728,10.422,10.422,0,0,1,2.6,7.506v2.6H-81.539a7.45,7.45,0,0,0,1.784,5.076A6.214,6.214,0,0,0-75.018-3.4a17.488,17.488,0,0,0,3.743-.379,19.618,19.618,0,0,0,3.722-1.261v3.917A14.8,14.8,0,0,1-71.121.062,21.881,21.881,0,0,1-75.243.41Zm-.882-19.852a4.842,4.842,0,0,0-3.681,1.456,6.939,6.939,0,0,0-1.651,4.245h10.295A6.278,6.278,0,0,0-72.516-18,4.629,4.629,0,0,0-76.125-19.441Zm26.681-3.65a11.6,11.6,0,0,1,2.4.205l-.472,4.491a9.109,9.109,0,0,0-2.133-.246,6.172,6.172,0,0,0-4.686,1.887,6.82,6.82,0,0,0-1.794,4.9V0h-4.819V-22.682h3.773l.636,4h.246a8.987,8.987,0,0,1,2.943-3.22A7,7,0,0,1-49.444-23.092ZM-34.392-3.486a11.72,11.72,0,0,0,3.527-.554V-.41a9.729,9.729,0,0,1-2.061.584A14.2,14.2,0,0,1-35.54.41q-6.85,0-6.85-7.219V-19.031h-3.1v-2.133l3.322-1.764,1.641-4.8h2.974v5.045h6.46v3.65h-6.46V-6.891a3.406,3.406,0,0,0,.872,2.574A3.177,3.177,0,0,0-34.392-3.486ZM-21.513,0h-4.819V-22.682h4.819Zm-5.106-28.69a2.668,2.668,0,0,1,.708-1.989,2.757,2.757,0,0,1,2.02-.7,2.7,2.7,0,0,1,1.979.7,2.668,2.668,0,0,1,.708,1.989,2.619,2.619,0,0,1-.708,1.938,2.675,2.675,0,0,1-1.979.708,2.733,2.733,0,0,1-2.02-.708A2.619,2.619,0,0,1-26.619-28.69ZM-3.24-19.031H-8.777V0h-4.84V-19.031H-17.35v-2.256l3.732-1.477V-24.24q0-4.02,1.887-5.958t5.763-1.938a15.379,15.379,0,0,1,5,.841l-1.271,3.65a11.11,11.11,0,0,0-3.4-.574A2.771,2.771,0,0,0-8.029-27.2a5.115,5.115,0,0,0-.749,3.045v1.477H-3.24ZM5.435,0H.615V-22.682H5.435ZM.328-28.69a2.668,2.668,0,0,1,.708-1.989,2.757,2.757,0,0,1,2.02-.7,2.7,2.7,0,0,1,1.979.7,2.668,2.668,0,0,1,.708,1.989,2.619,2.619,0,0,1-.708,1.938,2.675,2.675,0,0,1-1.979.708,2.733,2.733,0,0,1-2.02-.708A2.619,2.619,0,0,1,.328-28.69ZM21.492.41q-5.147,0-7.824-3t-2.676-8.624q0-5.722,2.8-8.8t8.09-3.076a15.162,15.162,0,0,1,6.46,1.333l-1.456,3.876a14.6,14.6,0,0,0-5.045-1.189q-5.886,0-5.886,7.813a9.357,9.357,0,0,0,1.466,5.732,5.076,5.076,0,0,0,4.3,1.917,12.326,12.326,0,0,0,6.091-1.6V-1A9.518,9.518,0,0,1,25.05.082,16.551,16.551,0,0,1,21.492.41ZM47.332,0l-.964-3.158H46.2a9.292,9.292,0,0,1-3.3,2.82A10.442,10.442,0,0,1,38.637.41a7.219,7.219,0,0,1-5.219-1.8A6.753,6.753,0,0,1,31.541-6.5a6,6,0,0,1,2.6-5.291q2.6-1.784,7.937-1.948L46-13.863v-1.21a4.586,4.586,0,0,0-1.015-3.25A4.14,4.14,0,0,0,41.836-19.4a10.885,10.885,0,0,0-3.343.513,25.226,25.226,0,0,0-3.076,1.21l-1.559-3.445a16.774,16.774,0,0,1,4.04-1.466,18.593,18.593,0,0,1,4.143-.5q4.327,0,6.532,1.887t2.2,5.927V0ZM40.154-3.281a5.97,5.97,0,0,0,4.214-1.466,5.315,5.315,0,0,0,1.589-4.112v-1.969l-2.912.123a9.964,9.964,0,0,0-4.953,1.138A3.458,3.458,0,0,0,36.545-6.46a3.032,3.032,0,0,0,.9,2.348A3.877,3.877,0,0,0,40.154-3.281Zm25.8-.205A11.72,11.72,0,0,0,69.48-4.04V-.41a9.729,9.729,0,0,1-2.061.584A14.2,14.2,0,0,1,64.8.41q-6.85,0-6.85-7.219V-19.031h-3.1v-2.133l3.322-1.764,1.641-4.8h2.974v5.045h6.46v3.65h-6.46V-6.891a3.406,3.406,0,0,0,.872,2.574A3.177,3.177,0,0,0,65.953-3.486ZM83.918.41q-5.291,0-8.275-3.086t-2.984-8.5q0-5.558,2.769-8.736a9.563,9.563,0,0,1,7.608-3.179,9.347,9.347,0,0,1,7.1,2.728,10.422,10.422,0,0,1,2.6,7.506v2.6H77.622a7.45,7.45,0,0,0,1.784,5.076A6.214,6.214,0,0,0,84.144-3.4a17.488,17.488,0,0,0,3.743-.379,19.618,19.618,0,0,0,3.722-1.261v3.917A14.8,14.8,0,0,1,88.04.062,21.881,21.881,0,0,1,83.918.41Zm-.882-19.852a4.842,4.842,0,0,0-3.681,1.456A6.939,6.939,0,0,0,77.7-13.74H88A6.278,6.278,0,0,0,86.646-18,4.629,4.629,0,0,0,83.036-19.441ZM113.449-6.46a5.935,5.935,0,0,1-2.42,5.1Q108.609.41,104.1.41a16.373,16.373,0,0,1-7.28-1.374V-5.127a17.874,17.874,0,0,0,7.444,1.846q4.45,0,4.45-2.687A2.128,2.128,0,0,0,108.22-7.4a5.825,5.825,0,0,0-1.62-1.189,27.88,27.88,0,0,0-3.138-1.395,14.514,14.514,0,0,1-5.3-3.035,5.616,5.616,0,0,1-1.384-3.937,5.172,5.172,0,0,1,2.348-4.522,11.143,11.143,0,0,1,6.388-1.61,18.093,18.093,0,0,1,7.567,1.62l-1.559,3.63a16.831,16.831,0,0,0-6.173-1.518q-3.814,0-3.814,2.174a2.187,2.187,0,0,0,.995,1.8,21.873,21.873,0,0,0,4.337,2.03,19.827,19.827,0,0,1,4.081,1.989,5.945,5.945,0,0,1,1.887,2.082A6.024,6.024,0,0,1,113.449-6.46Z" transform="translate(159 72.02)" fill="#505050"/></g><g transform="translate(959 1346)"><g fill="#f5f5f5" stroke="#707070" stroke-width="1"><rect width="375" height="110" rx="20" stroke="none"/><rect x="0.5" y="0.5" width="374" height="109" rx="19.5" fill="none"/></g><path d="M-96.469-15.278q0,7.424-4.122,11.351T-112.465,0h-8.388V-29.982h9.27q7.157,0,11.136,3.855T-96.469-15.278Zm-5.168.164q0-10.767-10.069-10.767h-4.245V-4.122h3.486Q-101.637-4.122-101.637-15.114Zm22.6-7.978a11.6,11.6,0,0,1,2.4.205l-.472,4.491a9.109,9.109,0,0,0-2.133-.246,6.172,6.172,0,0,0-4.686,1.887,6.82,6.82,0,0,0-1.794,4.9V0h-4.819V-22.682h3.773l.636,4h.246a8.987,8.987,0,0,1,2.943-3.22A7,7,0,0,1-79.037-23.092ZM-56.437,0l-.677-2.974h-.246A6.838,6.838,0,0,1-60.221-.492a9.565,9.565,0,0,1-4.235.9q-4.122,0-6.152-2.051t-2.03-6.214V-22.682h4.86V-8.7a6.068,6.068,0,0,0,1.066,3.907,4.071,4.071,0,0,0,3.343,1.3A5.322,5.322,0,0,0-58.909-5.3q1.425-1.815,1.425-6.081v-11.3h4.84V0Zm29.818-22.682v2.646l-3.876.718a6.256,6.256,0,0,1,.882,1.764,6.958,6.958,0,0,1,.349,2.215,6.786,6.786,0,0,1-2.42,5.517,10.127,10.127,0,0,1-6.665,2.01,10.807,10.807,0,0,1-1.969-.164,2.715,2.715,0,0,0-1.559,2.256,1.253,1.253,0,0,0,.728,1.169,6.3,6.3,0,0,0,2.676.39h3.958a8.8,8.8,0,0,1,5.7,1.6,5.627,5.627,0,0,1,1.948,4.614A6.71,6.71,0,0,1-30.044,8q-3.179,2.092-9.187,2.092-4.635,0-7.075-1.641a5.3,5.3,0,0,1-2.44-4.676A4.976,4.976,0,0,1-47.424.256a7.088,7.088,0,0,1,3.7-1.979,3.622,3.622,0,0,1-1.589-1.323,3.339,3.339,0,0,1-.625-1.917,3.3,3.3,0,0,1,.718-2.153,8.281,8.281,0,0,1,2.133-1.743,6.317,6.317,0,0,1-2.861-2.471,7.269,7.269,0,0,1-1.1-4.009,7.188,7.188,0,0,1,2.328-5.722q2.328-2.03,6.634-2.03a16.149,16.149,0,0,1,2.02.133,12.717,12.717,0,0,1,1.589.277ZM-44.44,3.527a2.651,2.651,0,0,0,1.4,2.4,7.721,7.721,0,0,0,3.948.841A11.927,11.927,0,0,0-33.223,5.64a3.381,3.381,0,0,0,1.928-2.994,2.246,2.246,0,0,0-1.056-2.1,8.481,8.481,0,0,0-3.927-.625h-3.65A5.129,5.129,0,0,0-43.22.892,3.194,3.194,0,0,0-44.44,3.527Zm2.071-18.867a4.564,4.564,0,0,0,1.1,3.281,4.149,4.149,0,0,0,3.148,1.148q4.184,0,4.184-4.471A5.071,5.071,0,0,0-34.976-18.8,3.935,3.935,0,0,0-38.124-20a4.057,4.057,0,0,0-3.168,1.189A5,5,0,0,0-42.369-15.34Zm55.761.062q0,7.424-4.122,11.351T-2.6,0h-8.388V-29.982h9.27q7.157,0,11.136,3.855T13.392-15.278Zm-5.168.164q0-10.767-10.069-10.767H-6.091V-4.122H-2.6Q8.224-4.122,8.224-15.114ZM29.224.41q-5.291,0-8.275-3.086t-2.984-8.5q0-5.558,2.769-8.736a9.563,9.563,0,0,1,7.608-3.179,9.347,9.347,0,0,1,7.1,2.728,10.422,10.422,0,0,1,2.6,7.506v2.6H22.928a7.45,7.45,0,0,0,1.784,5.076A6.214,6.214,0,0,0,29.449-3.4a17.488,17.488,0,0,0,3.743-.379,19.618,19.618,0,0,0,3.722-1.261v3.917A14.8,14.8,0,0,1,33.346.062,21.881,21.881,0,0,1,29.224.41Zm-.882-19.852a4.842,4.842,0,0,0-3.681,1.456A6.939,6.939,0,0,0,23.01-13.74H33.3A6.278,6.278,0,0,0,31.951-18,4.629,4.629,0,0,0,28.342-19.441ZM51.967-3.486a11.72,11.72,0,0,0,3.527-.554V-.41a9.729,9.729,0,0,1-2.061.584A14.2,14.2,0,0,1,50.818.41q-6.85,0-6.85-7.219V-19.031h-3.1v-2.133l3.322-1.764,1.641-4.8h2.974v5.045h6.46v3.65h-6.46V-6.891a3.406,3.406,0,0,0,.872,2.574A3.177,3.177,0,0,0,51.967-3.486ZM74.218,0l-.964-3.158H73.09a9.292,9.292,0,0,1-3.3,2.82A10.442,10.442,0,0,1,65.522.41a7.219,7.219,0,0,1-5.219-1.8A6.753,6.753,0,0,1,58.427-6.5a6,6,0,0,1,2.6-5.291q2.6-1.784,7.937-1.948l3.917-.123v-1.21a4.586,4.586,0,0,0-1.015-3.25A4.14,4.14,0,0,0,68.722-19.4a10.885,10.885,0,0,0-3.343.513,25.226,25.226,0,0,0-3.076,1.21l-1.559-3.445a16.774,16.774,0,0,1,4.04-1.466,18.593,18.593,0,0,1,4.143-.5q4.327,0,6.532,1.887t2.2,5.927V0ZM67.04-3.281a5.97,5.97,0,0,0,4.214-1.466,5.315,5.315,0,0,0,1.589-4.112v-1.969l-2.912.123a9.964,9.964,0,0,0-4.953,1.138A3.458,3.458,0,0,0,63.431-6.46a3.032,3.032,0,0,0,.9,2.348A3.877,3.877,0,0,0,67.04-3.281ZM89.209,0H84.39V-22.682h4.819ZM84.1-28.69a2.668,2.668,0,0,1,.708-1.989,2.757,2.757,0,0,1,2.02-.7,2.7,2.7,0,0,1,1.979.7,2.668,2.668,0,0,1,.708,1.989,2.619,2.619,0,0,1-.708,1.938,2.675,2.675,0,0,1-1.979.708,2.733,2.733,0,0,1-2.02-.708A2.619,2.619,0,0,1,84.1-28.69ZM100.919,0H96.1V-31.91h4.819Zm22.128-6.46a5.935,5.935,0,0,1-2.42,5.1Q118.207.41,113.7.41a16.373,16.373,0,0,1-7.28-1.374V-5.127a17.874,17.874,0,0,0,7.444,1.846q4.45,0,4.45-2.687a2.128,2.128,0,0,0-.492-1.436,5.825,5.825,0,0,0-1.62-1.189,27.88,27.88,0,0,0-3.138-1.395,14.514,14.514,0,0,1-5.3-3.035,5.616,5.616,0,0,1-1.384-3.937,5.172,5.172,0,0,1,2.348-4.522,11.143,11.143,0,0,1,6.388-1.61,18.093,18.093,0,0,1,7.567,1.62l-1.559,3.63a16.831,16.831,0,0,0-6.173-1.518q-3.814,0-3.814,2.174a2.187,2.187,0,0,0,.995,1.8,21.873,21.873,0,0,0,4.337,2.03,19.827,19.827,0,0,1,4.081,1.989,5.945,5.945,0,0,1,1.887,2.082A6.024,6.024,0,0,1,123.047-6.46Z" transform="translate(188.433 72.02)" fill="#505050"/></g><g transform="translate(757 1606)"><g fill="#f5f5f5" stroke="#707070" stroke-width="1"><rect width="340" height="110" rx="20" stroke="none"/><rect x="0.5" y="0.5" width="339" height="109" rx="19.5" fill="none"/></g><path d="M-66.773-15.278q0,7.424-4.122,11.351T-82.77,0h-8.388V-29.982h9.27q7.157,0,11.136,3.855T-66.773-15.278Zm-5.168.164q0-10.767-10.069-10.767h-4.245V-4.122h3.486Q-71.941-4.122-71.941-15.114Zm22.6-7.978a11.6,11.6,0,0,1,2.4.205l-.472,4.491a9.109,9.109,0,0,0-2.133-.246,6.172,6.172,0,0,0-4.686,1.887,6.82,6.82,0,0,0-1.794,4.9V0h-4.819V-22.682h3.773l.636,4h.246a8.987,8.987,0,0,1,2.943-3.22A7,7,0,0,1-49.342-23.092ZM-26.742,0l-.677-2.974h-.246A6.838,6.838,0,0,1-30.526-.492a9.565,9.565,0,0,1-4.235.9q-4.122,0-6.152-2.051t-2.03-6.214V-22.682h4.86V-8.7a6.068,6.068,0,0,0,1.066,3.907,4.071,4.071,0,0,0,3.343,1.3A5.322,5.322,0,0,0-29.213-5.3q1.425-1.815,1.425-6.081v-11.3h4.84V0ZM3.076-22.682v2.646L-.8-19.318a6.256,6.256,0,0,1,.882,1.764A6.958,6.958,0,0,1,.431-15.34a6.786,6.786,0,0,1-2.42,5.517,10.127,10.127,0,0,1-6.665,2.01,10.807,10.807,0,0,1-1.969-.164,2.715,2.715,0,0,0-1.559,2.256,1.253,1.253,0,0,0,.728,1.169,6.3,6.3,0,0,0,2.676.39h3.958a8.8,8.8,0,0,1,5.7,1.6A5.627,5.627,0,0,1,2.83,2.051,6.71,6.71,0,0,1-.349,8Q-3.527,10.09-9.536,10.09q-4.635,0-7.075-1.641a5.3,5.3,0,0,1-2.44-4.676A4.976,4.976,0,0,1-17.729.256a7.088,7.088,0,0,1,3.7-1.979,3.622,3.622,0,0,1-1.589-1.323,3.339,3.339,0,0,1-.625-1.917,3.3,3.3,0,0,1,.718-2.153,8.281,8.281,0,0,1,2.133-1.743,6.317,6.317,0,0,1-2.861-2.471,7.269,7.269,0,0,1-1.1-4.009,7.188,7.188,0,0,1,2.328-5.722q2.328-2.03,6.634-2.03a16.149,16.149,0,0,1,2.02.133,12.717,12.717,0,0,1,1.589.277ZM-14.745,3.527a2.651,2.651,0,0,0,1.4,2.4,7.721,7.721,0,0,0,3.948.841A11.927,11.927,0,0,0-3.527,5.64,3.381,3.381,0,0,0-1.6,2.646,2.246,2.246,0,0,0-2.656.543,8.481,8.481,0,0,0-6.583-.082h-3.65a5.129,5.129,0,0,0-3.292.974A3.194,3.194,0,0,0-14.745,3.527Zm2.071-18.867a4.564,4.564,0,0,0,1.1,3.281A4.149,4.149,0,0,0-8.429-10.91q4.184,0,4.184-4.471A5.071,5.071,0,0,0-5.281-18.8,3.935,3.935,0,0,0-8.429-20,4.057,4.057,0,0,0-11.6-18.806,5,5,0,0,0-12.674-15.34ZM18.7,0V-29.982h4.9V0ZM50.962,0h-4.84V-13.945a6.1,6.1,0,0,0-1.056-3.917,4.082,4.082,0,0,0-3.353-1.292,5.331,5.331,0,0,0-4.471,1.8q-1.415,1.8-1.415,6.05V0H31.008V-22.682h3.773l.677,2.974H35.7a6.71,6.71,0,0,1,2.912-2.5,9.759,9.759,0,0,1,4.184-.882q8.162,0,8.162,8.306ZM69.05-19.031H63.513V0h-4.84V-19.031H54.94v-2.256l3.732-1.477V-24.24q0-4.02,1.887-5.958t5.763-1.938a15.379,15.379,0,0,1,5,.841l-1.271,3.65a11.11,11.11,0,0,0-3.4-.574A2.771,2.771,0,0,0,64.261-27.2a5.115,5.115,0,0,0-.749,3.045v1.477H69.05Zm23.974,7.649q0,5.558-2.851,8.675A10.214,10.214,0,0,1,82.236.41a10.874,10.874,0,0,1-5.619-1.436,9.477,9.477,0,0,1-3.753-4.122,14.039,14.039,0,0,1-1.312-6.234q0-5.517,2.83-8.613t7.978-3.1a9.992,9.992,0,0,1,7.793,3.168A12.239,12.239,0,0,1,93.023-11.382Zm-16.509,0q0,7.854,5.8,7.854,5.742,0,5.742-7.854,0-7.772-5.783-7.772a4.931,4.931,0,0,0-4.4,2.01A10.228,10.228,0,0,0,76.515-11.382Z" transform="translate(171.014 72.02)" fill="#505050"/></g><g transform="translate(1197 1606)"><g fill="#f5f5f5" stroke="#707070" stroke-width="1"><rect width="340" height="110" rx="20" stroke="none"/><rect x="0.5" y="0.5" width="339" height="109" rx="19.5" fill="none"/></g><path d="M-75.3-15.278q0,7.424-4.122,11.351T-91.3,0h-8.388V-29.982h9.27q7.157,0,11.136,3.855T-75.3-15.278Zm-5.168.164q0-10.767-10.069-10.767h-4.245V-4.122H-91.3Q-80.473-4.122-80.473-15.114Zm22.6-7.978a11.6,11.6,0,0,1,2.4.205l-.472,4.491a9.109,9.109,0,0,0-2.133-.246,6.172,6.172,0,0,0-4.686,1.887,6.82,6.82,0,0,0-1.794,4.9V0h-4.819V-22.682H-65.6l.636,4h.246A8.987,8.987,0,0,1-61.78-21.9,7,7,0,0,1-57.873-23.092ZM-35.273,0l-.677-2.974H-36.2A6.838,6.838,0,0,1-39.057-.492a9.565,9.565,0,0,1-4.235.9q-4.122,0-6.152-2.051t-2.03-6.214V-22.682h4.86V-8.7a6.068,6.068,0,0,0,1.066,3.907,4.071,4.071,0,0,0,3.343,1.3A5.322,5.322,0,0,0-37.745-5.3q1.425-1.815,1.425-6.081v-11.3h4.84V0ZM-5.455-22.682v2.646l-3.876.718a6.256,6.256,0,0,1,.882,1.764A6.958,6.958,0,0,1-8.1-15.34a6.786,6.786,0,0,1-2.42,5.517,10.127,10.127,0,0,1-6.665,2.01,10.807,10.807,0,0,1-1.969-.164,2.715,2.715,0,0,0-1.559,2.256,1.253,1.253,0,0,0,.728,1.169,6.3,6.3,0,0,0,2.676.39h3.958a8.8,8.8,0,0,1,5.7,1.6A5.627,5.627,0,0,1-5.7,2.051,6.71,6.71,0,0,1-8.88,8q-3.179,2.092-9.187,2.092-4.635,0-7.075-1.641a5.3,5.3,0,0,1-2.44-4.676A4.976,4.976,0,0,1-26.26.256a7.088,7.088,0,0,1,3.7-1.979,3.622,3.622,0,0,1-1.589-1.323,3.339,3.339,0,0,1-.625-1.917,3.3,3.3,0,0,1,.718-2.153,8.281,8.281,0,0,1,2.133-1.743,6.317,6.317,0,0,1-2.861-2.471,7.269,7.269,0,0,1-1.1-4.009,7.188,7.188,0,0,1,2.328-5.722q2.328-2.03,6.634-2.03a16.149,16.149,0,0,1,2.02.133,12.717,12.717,0,0,1,1.589.277ZM-23.276,3.527a2.651,2.651,0,0,0,1.4,2.4,7.721,7.721,0,0,0,3.948.841A11.927,11.927,0,0,0-12.059,5.64a3.381,3.381,0,0,0,1.928-2.994,2.246,2.246,0,0,0-1.056-2.1,8.481,8.481,0,0,0-3.927-.625h-3.65a5.129,5.129,0,0,0-3.292.974A3.194,3.194,0,0,0-23.276,3.527Zm2.071-18.867a4.564,4.564,0,0,0,1.1,3.281A4.149,4.149,0,0,0-16.96-10.91q4.184,0,4.184-4.471A5.071,5.071,0,0,0-13.812-18.8,3.935,3.935,0,0,0-16.96-20a4.057,4.057,0,0,0-3.168,1.189A5,5,0,0,0-21.205-15.34ZM10.172,0V-29.982h4.9V-4.2H27.768V0ZM52.541-11.382q0,5.558-2.851,8.675A10.214,10.214,0,0,1,41.754.41a10.874,10.874,0,0,1-5.619-1.436,9.477,9.477,0,0,1-3.753-4.122,14.039,14.039,0,0,1-1.312-6.234q0-5.517,2.83-8.613t7.978-3.1a9.992,9.992,0,0,1,7.793,3.168A12.239,12.239,0,0,1,52.541-11.382Zm-16.509,0q0,7.854,5.8,7.854,5.742,0,5.742-7.854,0-7.772-5.783-7.772a4.931,4.931,0,0,0-4.4,2.01A10.228,10.228,0,0,0,36.032-11.382Zm41.2-11.3v2.646l-3.876.718a6.256,6.256,0,0,1,.882,1.764,6.958,6.958,0,0,1,.349,2.215,6.786,6.786,0,0,1-2.42,5.517A10.127,10.127,0,0,1,65.5-7.813a10.807,10.807,0,0,1-1.969-.164,2.715,2.715,0,0,0-1.559,2.256A1.253,1.253,0,0,0,62.7-4.553a6.3,6.3,0,0,0,2.676.39h3.958a8.8,8.8,0,0,1,5.7,1.6,5.627,5.627,0,0,1,1.948,4.614A6.71,6.71,0,0,1,73.808,8Q70.629,10.09,64.62,10.09q-4.635,0-7.075-1.641A5.3,5.3,0,0,1,55.1,3.773,4.976,4.976,0,0,1,56.427.256a7.088,7.088,0,0,1,3.7-1.979A3.622,3.622,0,0,1,58.54-3.045a3.339,3.339,0,0,1-.625-1.917,3.3,3.3,0,0,1,.718-2.153,8.281,8.281,0,0,1,2.133-1.743A6.317,6.317,0,0,1,57.9-11.331a7.269,7.269,0,0,1-1.1-4.009,7.188,7.188,0,0,1,2.328-5.722q2.328-2.03,6.634-2.03a16.149,16.149,0,0,1,2.02.133,12.717,12.717,0,0,1,1.589.277ZM59.411,3.527a2.651,2.651,0,0,0,1.4,2.4,7.721,7.721,0,0,0,3.948.841A11.927,11.927,0,0,0,70.629,5.64a3.381,3.381,0,0,0,1.928-2.994A2.246,2.246,0,0,0,71.5.543a8.481,8.481,0,0,0-3.927-.625h-3.65a5.129,5.129,0,0,0-3.292.974A3.194,3.194,0,0,0,59.411,3.527ZM61.482-15.34a4.564,4.564,0,0,0,1.1,3.281,4.149,4.149,0,0,0,3.148,1.148q4.184,0,4.184-4.471A5.071,5.071,0,0,0,68.875-18.8,3.935,3.935,0,0,0,65.728-20a4.057,4.057,0,0,0-3.168,1.189A5,5,0,0,0,61.482-15.34Zm40.072,3.958q0,5.558-2.851,8.675A10.214,10.214,0,0,1,90.768.41a10.874,10.874,0,0,1-5.619-1.436A9.477,9.477,0,0,1,81.4-5.147a14.039,14.039,0,0,1-1.312-6.234q0-5.517,2.83-8.613t7.978-3.1a9.992,9.992,0,0,1,7.793,3.168A12.239,12.239,0,0,1,101.555-11.382Zm-16.509,0q0,7.854,5.8,7.854,5.742,0,5.742-7.854,0-7.772-5.783-7.772a4.931,4.931,0,0,0-4.4,2.01A10.228,10.228,0,0,0,85.046-11.382Z" transform="translate(171.014 72.02)" fill="#505050"/></g><g transform="translate(1507 1346)"><g fill="#f5f5f5" stroke="#707070" stroke-width="1"><rect width="340" height="110" rx="20" stroke="none"/><rect x="0.5" y="0.5" width="339" height="109" rx="19.5" fill="none"/></g><path d="M-91.034-20.918a8.742,8.742,0,0,1-3.076,7.2q-3.076,2.5-8.757,2.5h-3.117V0h-4.9V-29.982h8.634q5.619,0,8.418,2.3T-91.034-20.918Zm-14.95,5.578h2.6q3.773,0,5.537-1.312a4.777,4.777,0,0,0,1.764-4.1,4.654,4.654,0,0,0-1.579-3.855,7.8,7.8,0,0,0-4.922-1.271h-3.4Zm45.322.062q0,7.424-4.122,11.351T-76.658,0h-8.388V-29.982h9.27q7.157,0,11.136,3.855T-60.662-15.278Zm-5.168.164q0-10.767-10.069-10.767h-4.245V-4.122h3.486Q-65.83-4.122-65.83-15.114ZM-49.362,0h-4.86V-29.982H-37.3v4.143H-49.362v9.372h11.3V-12.3h-11.3ZM3.425-15.278Q3.425-7.854-.7-3.927T-12.571,0h-8.388V-29.982h9.27q7.157,0,11.136,3.855T3.425-15.278Zm-5.168.164q0-10.767-10.069-10.767h-4.245V-4.122h3.486Q-1.743-4.122-1.743-15.114ZM19.257.41q-5.291,0-8.275-3.086T8-11.177q0-5.558,2.769-8.736a9.563,9.563,0,0,1,7.608-3.179,9.347,9.347,0,0,1,7.1,2.728,10.422,10.422,0,0,1,2.6,7.506v2.6H12.961a7.45,7.45,0,0,0,1.784,5.076A6.214,6.214,0,0,0,19.482-3.4a17.488,17.488,0,0,0,3.743-.379,19.618,19.618,0,0,0,3.722-1.261v3.917A14.8,14.8,0,0,1,23.379.062,21.881,21.881,0,0,1,19.257.41Zm-.882-19.852a4.842,4.842,0,0,0-3.681,1.456,6.939,6.939,0,0,0-1.651,4.245H23.338A6.278,6.278,0,0,0,21.984-18,4.629,4.629,0,0,0,18.375-19.441ZM42-3.486a11.72,11.72,0,0,0,3.527-.554V-.41a9.729,9.729,0,0,1-2.061.584A14.2,14.2,0,0,1,40.852.41Q34,.41,34-6.809V-19.031h-3.1v-2.133l3.322-1.764,1.641-4.8h2.974v5.045H45.3v3.65h-6.46V-6.891a3.406,3.406,0,0,0,.872,2.574A3.177,3.177,0,0,0,42-3.486ZM64.251,0l-.964-3.158h-.164a9.292,9.292,0,0,1-3.3,2.82A10.442,10.442,0,0,1,55.556.41a7.219,7.219,0,0,1-5.219-1.8A6.753,6.753,0,0,1,48.46-6.5a6,6,0,0,1,2.6-5.291q2.6-1.784,7.937-1.948l3.917-.123v-1.21a4.586,4.586,0,0,0-1.015-3.25A4.14,4.14,0,0,0,58.755-19.4a10.885,10.885,0,0,0-3.343.513,25.226,25.226,0,0,0-3.076,1.21l-1.559-3.445a16.774,16.774,0,0,1,4.04-1.466,18.593,18.593,0,0,1,4.143-.5q4.327,0,6.532,1.887t2.2,5.927V0ZM57.073-3.281a5.97,5.97,0,0,0,4.214-1.466,5.315,5.315,0,0,0,1.589-4.112v-1.969l-2.912.123a9.964,9.964,0,0,0-4.953,1.138A3.458,3.458,0,0,0,53.464-6.46a3.032,3.032,0,0,0,.9,2.348A3.877,3.877,0,0,0,57.073-3.281ZM79.242,0H74.423V-22.682h4.819ZM74.136-28.69a2.668,2.668,0,0,1,.708-1.989,2.757,2.757,0,0,1,2.02-.7,2.7,2.7,0,0,1,1.979.7,2.668,2.668,0,0,1,.708,1.989,2.619,2.619,0,0,1-.708,1.938,2.675,2.675,0,0,1-1.979.708,2.733,2.733,0,0,1-2.02-.708A2.619,2.619,0,0,1,74.136-28.69ZM90.952,0H86.133V-31.91h4.819ZM113.08-6.46a5.935,5.935,0,0,1-2.42,5.1Q108.24.41,103.729.41a16.373,16.373,0,0,1-7.28-1.374V-5.127a17.874,17.874,0,0,0,7.444,1.846q4.45,0,4.45-2.687a2.128,2.128,0,0,0-.492-1.436,5.825,5.825,0,0,0-1.62-1.189,27.88,27.88,0,0,0-3.138-1.395,14.514,14.514,0,0,1-5.3-3.035,5.616,5.616,0,0,1-1.384-3.937,5.172,5.172,0,0,1,2.348-4.522,11.143,11.143,0,0,1,6.388-1.61,18.093,18.093,0,0,1,7.567,1.62l-1.559,3.63a16.831,16.831,0,0,0-6.173-1.518q-3.814,0-3.814,2.174a2.187,2.187,0,0,0,.995,1.8,21.873,21.873,0,0,0,4.337,2.03,19.827,19.827,0,0,1,4.081,1.989,5.945,5.945,0,0,1,1.887,2.082A6.024,6.024,0,0,1,113.08-6.46Z" transform="translate(171.014 72.02)" fill="#505050"/></g><line y2="101" transform="translate(1013.5 215.5)" fill="none" stroke="#707070" stroke-width="3"/><line y2="101" transform="translate(1013.5 455.5)" fill="none" stroke="#707070" stroke-width="3"/><line y2="72" transform="translate(1013.5 695.5)" fill="none" stroke="#707070" stroke-width="3"/><line x2="1020" transform="translate(502.5 767.5)" fill="none" stroke="#707070" stroke-width="3"/><line y2="79" transform="translate(502.5 767.5)" fill="none" stroke="#707070" stroke-width="3"/><line y2="79" transform="translate(1677.5 1266.5)" fill="none" stroke="#707070" stroke-width="3"/><line y2="80" transform="translate(1013.5 766.5)" fill="none" stroke="#707070" stroke-width="3"/><line y2="79" transform="translate(1522.5 767.5)" fill="none" stroke="#707070" stroke-width="3"/><line y2="101" transform="translate(1013.5 955.5)" fill="none" stroke="#707070" stroke-width="3"/><line y2="72" transform="translate(1013.5 1195.5)" fill="none" stroke="#707070" stroke-width="3"/><line y1="1" x2="1079" transform="translate(598.5 1266.5)" fill="none" stroke="#707070" stroke-width="3"/><line y2="79" transform="translate(598.5 1267.5)" fill="none" stroke="#707070" stroke-width="3"/><line y2="79" transform="translate(1146.5 1267.5)" fill="none" stroke="#707070" stroke-width="3"/><line y2="72" transform="translate(1146.5 1455.5)" fill="none" stroke="#707070" stroke-width="3"/><line x2="440" transform="translate(927.5 1527.5)" fill="none" stroke="#707070" stroke-width="3"/><line y2="79" transform="translate(927.5 1527.5)" fill="none" stroke="#707070" stroke-width="3"/><line y2="79" transform="translate(1367.5 1527.5)" fill="none" stroke="#707070" stroke-width="3"/></g></svg>