<svg width="1878" height="359" viewBox="0 0 1878 359" fill="none" xmlns="http://www.w3.org/2000/svg">
<g clip-path="url(#clip0)">
<circle cx="172" cy="209" r="48" fill="white" stroke="#C4C4C4" stroke-width="4"/>
<path d="M123.884 303.36C128.084 303.36 130.964 301.08 130.964 297.48C130.964 293.58 127.544 292.5 123.734 291.24C120.884 290.31 119.084 289.59 119.084 287.31C119.084 285 120.914 283.68 123.434 283.68C126.194 283.68 127.814 285.27 128.594 287.16L130.364 286.17C129.284 283.68 126.884 281.64 123.434 281.64C119.954 281.64 116.984 283.71 116.984 287.4C116.984 291.27 120.284 292.17 123.704 293.31C126.794 294.33 128.864 295.11 128.864 297.54C128.864 299.79 127.094 301.32 123.914 301.32C120.614 301.32 118.634 299.7 117.884 297.18L116.084 298.23C117.164 301.41 120.014 303.36 123.884 303.36ZM141.552 303.36C144.492 303.36 147.042 301.83 148.272 299.46L146.622 298.5C145.662 300.24 143.832 301.44 141.552 301.44C138.222 301.44 135.642 298.83 135.642 295.5C135.642 292.17 138.222 289.56 141.552 289.56C143.802 289.56 145.692 290.73 146.502 292.5L148.122 291.57C147.042 289.2 144.522 287.64 141.552 287.64C137.022 287.64 133.662 291.06 133.662 295.5C133.662 299.94 137.022 303.36 141.552 303.36ZM157.958 303.36C162.338 303.36 165.848 299.94 165.848 295.5C165.848 291.06 162.338 287.64 157.958 287.64C153.578 287.64 150.068 291.06 150.068 295.5C150.068 299.94 153.578 303.36 157.958 303.36ZM157.958 301.44C154.628 301.44 152.048 298.83 152.048 295.5C152.048 292.17 154.628 289.56 157.958 289.56C161.288 289.56 163.868 292.17 163.868 295.5C163.868 298.83 161.288 301.44 157.958 301.44ZM177.202 287.64C174.532 287.64 172.402 288.93 171.142 290.94V288H169.162V309H171.142V300.06C172.402 302.07 174.532 303.36 177.202 303.36C181.432 303.36 184.942 299.94 184.942 295.5C184.942 291.06 181.432 287.64 177.202 287.64ZM177.052 301.44C173.722 301.44 171.142 298.83 171.142 295.5C171.142 292.17 173.722 289.56 177.052 289.56C180.382 289.56 182.962 292.17 182.962 295.5C182.962 298.83 180.382 301.44 177.052 301.44ZM189.224 284.82C190.034 284.82 190.664 284.16 190.664 283.38C190.664 282.6 190.034 281.94 189.224 281.94C188.414 281.94 187.784 282.6 187.784 283.38C187.784 284.16 188.414 284.82 189.224 284.82ZM188.234 303H190.214V288H188.234V303ZM201.435 287.64C199.305 287.64 197.565 288.45 196.395 290.34V288H194.415V303H196.395V295.14C196.395 291.12 198.615 289.56 201.255 289.56C203.865 289.56 205.335 291.12 205.335 293.79V303H207.315V293.79C207.315 290.04 205.095 287.64 201.435 287.64ZM224.044 288V290.94C222.784 288.93 220.654 287.64 217.984 287.64C213.754 287.64 210.244 291.06 210.244 295.5C210.244 299.94 213.754 303.36 217.984 303.36C220.654 303.36 222.784 302.07 224.044 300.06V302.4C224.044 305.46 221.974 307.44 218.494 307.44C215.254 307.44 213.874 306.24 213.124 304.71L211.384 305.7C212.554 308.04 215.044 309.36 218.494 309.36C222.364 309.36 226.024 306.96 226.024 302.4V288H224.044ZM218.134 301.44C214.804 301.44 212.224 298.83 212.224 295.5C212.224 292.17 214.804 289.56 218.134 289.56C221.464 289.56 224.044 292.17 224.044 295.5C224.044 298.83 221.464 301.44 218.134 301.44Z" fill="#404040"/>
<path d="M188.637 207.259C185.486 207.259 182.939 209.818 182.939 212.956C182.939 213.707 183.554 214.322 184.305 214.322C185.056 214.322 185.671 213.707 185.671 212.956C185.671 211.319 187.012 209.978 188.649 209.978C189.399 209.978 190.015 209.363 190.015 208.612C190.002 207.862 189.387 207.259 188.637 207.259Z" fill="#404040"/>
<path d="M197.927 203.333C197.595 203.014 197.238 202.706 196.869 202.411L191.824 198.128C189.879 196.75 187.566 195.877 185.056 195.704L185.326 195.975L182.262 192.899H182.238C181.389 192.123 180.244 191.644 179.002 191.644C176.86 191.644 175.052 193.034 174.436 194.966C173.821 194.572 173.107 194.338 172.332 194.289C172.209 194.277 172.074 194.277 171.951 194.277C171.077 194.277 170.265 194.535 169.576 194.966C168.948 193.046 167.139 191.656 165.011 191.656C163.768 191.656 162.636 192.123 161.774 192.911H161.75L158.686 195.987L158.956 195.717C156.446 195.889 154.121 196.775 152.189 198.141L147.144 202.423C146.774 202.706 146.418 203.014 146.085 203.346C143.563 205.782 142 209.191 142 212.968C142 220.351 148.005 226.356 155.388 226.356C162.205 226.356 167.853 221.225 168.665 214.617C169.65 215.183 170.794 215.503 172 215.503C173.218 215.503 174.35 215.183 175.335 214.617C176.159 221.213 181.795 226.344 188.612 226.344C195.995 226.344 202 220.339 202 212.956C202.012 209.178 200.449 205.77 197.927 203.333ZM155.388 222.099C150.343 222.099 146.258 218.013 146.258 212.968C146.258 207.923 150.343 203.838 155.388 203.838C160.433 203.838 164.518 207.923 164.518 212.968C164.531 218.001 160.433 222.099 155.388 222.099ZM172.012 211.713C170.376 211.713 169.047 210.384 169.047 208.748C169.047 207.111 170.376 205.782 172.012 205.782C173.649 205.782 174.978 207.111 174.978 208.748C174.978 210.384 173.649 211.713 172.012 211.713ZM188.637 222.099C183.591 222.099 179.506 218.013 179.506 212.968C179.506 207.923 183.591 203.838 188.637 203.838C193.682 203.838 197.767 207.923 197.767 212.968C197.767 218.001 193.682 222.099 188.637 222.099Z" fill="#404040"/>
<path d="M155.388 207.259C152.238 207.259 149.691 209.818 149.691 212.956C149.691 213.707 150.306 214.322 151.057 214.322C151.807 214.322 152.422 213.707 152.422 212.956C152.422 211.319 153.764 209.978 155.4 209.978C156.151 209.978 156.766 209.363 156.766 208.612C156.754 207.862 156.139 207.259 155.388 207.259Z" fill="#404040"/>
<circle cx="479" cy="209" r="48" fill="white" stroke="#C4C4C4" stroke-width="4"/>
<path d="M391.178 303.36C395.768 303.36 398.978 300.45 398.978 295.86V282H396.878V295.86C396.878 299.19 394.808 301.32 391.178 301.32C387.548 301.32 385.478 299.19 385.478 295.86V282H383.378V295.86C383.378 300.45 386.588 303.36 391.178 303.36ZM404.597 291.93C404.597 290.31 406.187 289.56 407.747 289.56C409.187 289.56 410.717 290.13 411.347 291.66L412.997 290.7C412.127 288.84 410.207 287.64 407.747 287.64C404.747 287.64 402.617 289.53 402.617 291.93C402.617 297.45 411.377 295.32 411.377 299.04C411.377 300.81 409.697 301.44 407.927 301.44C405.917 301.44 404.357 300.45 403.817 298.92L402.137 299.91C402.887 301.83 404.927 303.36 407.927 303.36C411.137 303.36 413.357 301.59 413.357 299.04C413.357 293.52 404.597 295.65 404.597 291.93ZM423.15 287.64C418.5 287.64 415.32 291.09 415.32 295.5C415.32 300.03 418.56 303.36 423.3 303.36C426.33 303.36 428.64 301.95 429.9 299.91L428.16 298.89C427.35 300.33 425.7 301.44 423.33 301.44C420.15 301.44 417.78 299.55 417.36 296.49H430.53C430.56 296.19 430.59 295.86 430.59 295.56C430.59 291.45 427.74 287.64 423.15 287.64ZM423.15 289.56C425.73 289.56 428.13 291.27 428.55 294.57H417.36C417.75 291.63 420 289.56 423.15 289.56ZM435.72 290.49V288H433.74V303H435.72V294.66C435.72 290.94 438.06 289.68 440.46 289.68V287.76C438.54 287.76 436.77 288.39 435.72 290.49ZM467.533 302.31L464.713 299.31C465.523 297.99 466.003 296.43 466.243 294.84L464.383 293.76C464.203 295.32 463.813 296.64 463.243 297.75L456.913 291C455.833 289.86 454.963 288.78 454.963 287.25C454.963 285.06 456.793 283.68 458.893 283.68C460.843 283.68 462.553 284.85 463.153 286.83L464.923 285.81C463.963 283.2 461.503 281.64 458.863 281.64C455.833 281.64 452.863 283.74 452.863 287.37C452.863 289.11 453.523 290.31 454.423 291.33C451.693 292.59 450.373 294.87 450.373 297.42C450.373 301.11 453.193 303.36 457.273 303.36C460.003 303.36 462.013 302.43 463.453 300.99L465.673 303.36L467.533 302.31ZM457.213 301.32C454.303 301.32 452.473 299.82 452.473 297.36C452.473 295.71 453.313 293.82 455.833 292.89L462.013 299.46C460.813 300.69 459.223 301.32 457.213 301.32ZM484.79 303.36C488.99 303.36 491.87 301.08 491.87 297.48C491.87 293.58 488.45 292.5 484.64 291.24C481.79 290.31 479.99 289.59 479.99 287.31C479.99 285 481.82 283.68 484.34 283.68C487.1 283.68 488.72 285.27 489.5 287.16L491.27 286.17C490.19 283.68 487.79 281.64 484.34 281.64C480.86 281.64 477.89 283.71 477.89 287.4C477.89 291.27 481.19 292.17 484.61 293.31C487.7 294.33 489.77 295.11 489.77 297.54C489.77 299.79 488 301.32 484.82 301.32C481.52 301.32 479.54 299.7 478.79 297.18L476.99 298.23C478.07 301.41 480.92 303.36 484.79 303.36ZM502.398 287.64C497.748 287.64 494.568 291.09 494.568 295.5C494.568 300.03 497.808 303.36 502.548 303.36C505.578 303.36 507.888 301.95 509.148 299.91L507.408 298.89C506.598 300.33 504.948 301.44 502.578 301.44C499.398 301.44 497.028 299.55 496.608 296.49H509.778C509.808 296.19 509.838 295.86 509.838 295.56C509.838 291.45 506.988 287.64 502.398 287.64ZM502.398 289.56C504.978 289.56 507.378 291.27 507.798 294.57H496.608C496.998 291.63 499.248 289.56 502.398 289.56ZM514.968 290.49V288H512.988V303H514.968V294.66C514.968 290.94 517.308 289.68 519.708 289.68V287.76C517.788 287.76 516.018 288.39 514.968 290.49ZM533.221 288L527.971 300.93L522.721 288H520.621L526.771 303H529.171L535.321 288H533.221ZM538.704 284.82C539.514 284.82 540.144 284.16 540.144 283.38C540.144 282.6 539.514 281.94 538.704 281.94C537.894 281.94 537.264 282.6 537.264 283.38C537.264 284.16 537.894 284.82 538.704 284.82ZM537.714 303H539.694V288H537.714V303ZM550.886 303.36C553.826 303.36 556.376 301.83 557.606 299.46L555.956 298.5C554.996 300.24 553.166 301.44 550.886 301.44C547.556 301.44 544.976 298.83 544.976 295.5C544.976 292.17 547.556 289.56 550.886 289.56C553.136 289.56 555.026 290.73 555.836 292.5L557.456 291.57C556.376 289.2 553.856 287.64 550.886 287.64C546.356 287.64 542.996 291.06 542.996 295.5C542.996 299.94 546.356 303.36 550.886 303.36ZM567.232 287.64C562.582 287.64 559.402 291.09 559.402 295.5C559.402 300.03 562.642 303.36 567.382 303.36C570.412 303.36 572.722 301.95 573.982 299.91L572.242 298.89C571.432 300.33 569.782 301.44 567.412 301.44C564.232 301.44 561.862 299.55 561.442 296.49H574.612C574.642 296.19 574.672 295.86 574.672 295.56C574.672 291.45 571.822 287.64 567.232 287.64ZM567.232 289.56C569.812 289.56 572.212 291.27 572.632 294.57H561.442C561.832 291.63 564.082 289.56 567.232 289.56ZM430.768 338H433.168L428.038 329.33C430.648 328.58 432.568 326.15 432.568 323.3C432.568 319.82 429.748 317 426.268 317H417.868V338H419.968V329.6H425.848L430.768 338ZM419.968 318.98H426.268C428.578 318.98 430.468 320.9 430.468 323.3C430.468 325.67 428.578 327.62 426.268 327.62H419.968V318.98ZM442.047 322.64C437.397 322.64 434.217 326.09 434.217 330.5C434.217 335.03 437.457 338.36 442.197 338.36C445.227 338.36 447.537 336.95 448.797 334.91L447.057 333.89C446.247 335.33 444.597 336.44 442.227 336.44C439.047 336.44 436.677 334.55 436.257 331.49H449.427C449.457 331.19 449.487 330.86 449.487 330.56C449.487 326.45 446.637 322.64 442.047 322.64ZM442.047 324.56C444.627 324.56 447.027 326.27 447.447 329.57H436.257C436.647 326.63 438.897 324.56 442.047 324.56ZM453.61 326.93C453.61 325.31 455.2 324.56 456.76 324.56C458.2 324.56 459.73 325.13 460.36 326.66L462.01 325.7C461.14 323.84 459.22 322.64 456.76 322.64C453.76 322.64 451.63 324.53 451.63 326.93C451.63 332.45 460.39 330.32 460.39 334.04C460.39 335.81 458.71 336.44 456.94 336.44C454.93 336.44 453.37 335.45 452.83 333.92L451.15 334.91C451.9 336.83 453.94 338.36 456.94 338.36C460.15 338.36 462.37 336.59 462.37 334.04C462.37 328.52 453.61 330.65 453.61 326.93ZM472.164 322.64C467.514 322.64 464.334 326.09 464.334 330.5C464.334 335.03 467.574 338.36 472.314 338.36C475.344 338.36 477.654 336.95 478.914 334.91L477.174 333.89C476.364 335.33 474.714 336.44 472.344 336.44C469.164 336.44 466.794 334.55 466.374 331.49H479.544C479.574 331.19 479.604 330.86 479.604 330.56C479.604 326.45 476.754 322.64 472.164 322.64ZM472.164 324.56C474.744 324.56 477.144 326.27 477.564 329.57H466.374C466.764 326.63 469.014 324.56 472.164 324.56ZM495.653 323V325.94C494.393 323.93 492.263 322.64 489.593 322.64C485.363 322.64 481.853 326.06 481.853 330.5C481.853 334.94 485.363 338.36 489.593 338.36C492.263 338.36 494.393 337.07 495.653 335.06V338H497.633V323H495.653ZM489.743 336.44C486.413 336.44 483.833 333.83 483.833 330.5C483.833 327.17 486.413 324.56 489.743 324.56C493.073 324.56 495.653 327.17 495.653 330.5C495.653 333.83 493.073 336.44 489.743 336.44ZM503.806 325.49V323H501.826V338H503.806V329.66C503.806 325.94 506.146 324.68 508.546 324.68V322.76C506.626 322.76 504.856 323.39 503.806 325.49ZM517.341 338.36C520.281 338.36 522.831 336.83 524.061 334.46L522.411 333.5C521.451 335.24 519.621 336.44 517.341 336.44C514.011 336.44 511.431 333.83 511.431 330.5C511.431 327.17 514.011 324.56 517.341 324.56C519.591 324.56 521.481 325.73 522.291 327.5L523.911 326.57C522.831 324.2 520.311 322.64 517.341 322.64C512.811 322.64 509.451 326.06 509.451 330.5C509.451 334.94 512.811 338.36 517.341 338.36ZM533.924 322.64C531.794 322.64 530.054 323.45 528.884 325.34V317H526.904V338H528.884V330.14C528.884 326.12 531.104 324.56 533.744 324.56C536.354 324.56 537.824 326.12 537.824 328.79V338H539.804V328.79C539.804 325.04 537.584 322.64 533.924 322.64Z" fill="#404040"/>
<path d="M502.34 227.26L499.48 224.4C500.36 223.08 500.8 221.54 500.8 220C500.8 215.16 496.84 211.2 492 211.2C487.16 211.2 483.2 215.16 483.2 220C483.2 224.84 487.16 228.8 492 228.8C493.54 228.8 495.08 228.36 496.4 227.48L499.26 230.34C499.7 230.78 501.02 231.66 502.34 230.34C503.22 229.46 503.22 228.14 502.34 227.26ZM492 224.4C489.58 224.4 487.6 222.42 487.6 220C487.6 217.58 489.58 215.6 492 215.6C494.42 215.6 496.4 217.58 496.4 220C496.4 222.42 494.42 224.4 492 224.4Z" fill="#404040"/>
<path d="M492 187H461.2C459.88 187 459 187.88 459 189.2V228.8C459 230.12 459.88 231 461.2 231H484.74C481.22 228.58 478.8 224.62 478.8 220C478.8 212.74 484.74 206.8 492 206.8C492.66 206.8 493.54 206.8 494.2 207.02V189.2C494.2 187.88 493.32 187 492 187ZM476.6 204.6H465.6C464.28 204.6 463.4 203.5 463.4 202.4C463.4 201.08 464.28 200.2 465.6 200.2H476.6C477.92 200.2 478.8 201.08 478.8 202.4C478.8 203.5 477.92 204.6 476.6 204.6ZM487.6 195.8H465.6C464.28 195.8 463.4 194.7 463.4 193.6C463.4 192.28 464.28 191.4 465.6 191.4H487.6C488.92 191.4 489.8 192.28 489.8 193.6C489.8 194.7 488.92 195.8 487.6 195.8Z" fill="#404040"/>
<circle cx="786" cy="209" r="48" fill="white" stroke="#C4C4C4" stroke-width="4"/>
<path d="M709.487 282V303H711.587V282H709.487ZM723.121 287.64C720.991 287.64 719.251 288.45 718.081 290.34V288H716.101V303H718.081V295.14C718.081 291.12 720.301 289.56 722.941 289.56C725.551 289.56 727.021 291.12 727.021 293.79V303H729.001V293.79C729.001 290.04 726.781 287.64 723.121 287.64ZM740.329 283.56V281.64C736.279 281.34 734.029 283.5 734.029 287.4V288H731.479V289.92H734.029V303H736.009V289.92H740.329V288H736.009V287.4C736.009 284.52 737.419 283.32 740.329 283.56ZM748.521 303.36C752.901 303.36 756.411 299.94 756.411 295.5C756.411 291.06 752.901 287.64 748.521 287.64C744.141 287.64 740.631 291.06 740.631 295.5C740.631 299.94 744.141 303.36 748.521 303.36ZM748.521 301.44C745.191 301.44 742.611 298.83 742.611 295.5C742.611 292.17 745.191 289.56 748.521 289.56C751.851 289.56 754.431 292.17 754.431 295.5C754.431 298.83 751.851 301.44 748.521 301.44ZM761.704 290.49V288H759.724V303H761.704V294.66C761.704 290.94 764.044 289.68 766.444 289.68V287.76C764.524 287.76 762.754 288.39 761.704 290.49ZM785.148 287.64C783.228 287.64 781.398 288.51 780.288 290.37C779.448 288.63 777.828 287.64 775.728 287.64C773.928 287.64 772.308 288.36 771.138 290.19V288H769.158V303H771.138V294.69C771.138 290.97 773.298 289.56 775.458 289.56C777.588 289.56 778.968 290.97 778.968 293.64V303H780.948V294.69C780.948 290.97 782.808 289.56 785.118 289.56C787.248 289.56 788.778 290.97 788.778 293.64V303H790.758V293.64C790.758 289.89 788.448 287.64 785.148 287.64ZM807.487 288V290.94C806.227 288.93 804.097 287.64 801.427 287.64C797.197 287.64 793.687 291.06 793.687 295.5C793.687 299.94 797.197 303.36 801.427 303.36C804.097 303.36 806.227 302.07 807.487 300.06V303H809.467V288H807.487ZM801.577 301.44C798.247 301.44 795.667 298.83 795.667 295.5C795.667 292.17 798.247 289.56 801.577 289.56C804.907 289.56 807.487 292.17 807.487 295.5C807.487 298.83 804.907 301.44 801.577 301.44ZM821.61 289.92V288H817.29V283.8L815.31 284.4V288H812.16V289.92H815.31V299.01C815.31 302.61 817.56 303.6 821.61 303V301.26C818.7 301.38 817.29 301.59 817.29 299.01V289.92H821.61ZM825.9 284.82C826.71 284.82 827.34 284.16 827.34 283.38C827.34 282.6 826.71 281.94 825.9 281.94C825.09 281.94 824.46 282.6 824.46 283.38C824.46 284.16 825.09 284.82 825.9 284.82ZM824.91 303H826.89V288H824.91V303ZM838.081 303.36C842.461 303.36 845.971 299.94 845.971 295.5C845.971 291.06 842.461 287.64 838.081 287.64C833.701 287.64 830.191 291.06 830.191 295.5C830.191 299.94 833.701 303.36 838.081 303.36ZM838.081 301.44C834.751 301.44 832.171 298.83 832.171 295.5C832.171 292.17 834.751 289.56 838.081 289.56C841.411 289.56 843.991 292.17 843.991 295.5C843.991 298.83 841.411 301.44 838.081 301.44ZM856.305 287.64C854.175 287.64 852.435 288.45 851.265 290.34V288H849.285V303H851.265V295.14C851.265 291.12 853.485 289.56 856.125 289.56C858.735 289.56 860.205 291.12 860.205 293.79V303H862.185V293.79C862.185 290.04 859.965 287.64 856.305 287.64ZM719.219 338H721.439L713.369 317H711.209L703.139 338H705.359L707.309 332.84H717.269L719.219 338ZM708.059 330.86L712.289 319.61L716.519 330.86H708.059ZM725.815 325.49V323H723.835V338H725.815V329.66C725.815 325.94 728.155 324.68 730.555 324.68V322.76C728.635 322.76 726.865 323.39 725.815 325.49ZM739.351 338.36C742.291 338.36 744.841 336.83 746.071 334.46L744.421 333.5C743.461 335.24 741.631 336.44 739.351 336.44C736.021 336.44 733.441 333.83 733.441 330.5C733.441 327.17 736.021 324.56 739.351 324.56C741.601 324.56 743.491 325.73 744.301 327.5L745.921 326.57C744.841 324.2 742.321 322.64 739.351 322.64C734.821 322.64 731.461 326.06 731.461 330.5C731.461 334.94 734.821 338.36 739.351 338.36ZM755.933 322.64C753.803 322.64 752.063 323.45 750.893 325.34V317H748.913V338H750.893V330.14C750.893 326.12 753.113 324.56 755.753 324.56C758.363 324.56 759.833 326.12 759.833 328.79V338H761.813V328.79C761.813 325.04 759.593 322.64 755.933 322.64ZM766.632 319.82C767.442 319.82 768.072 319.16 768.072 318.38C768.072 317.6 767.442 316.94 766.632 316.94C765.822 316.94 765.192 317.6 765.192 318.38C765.192 319.16 765.822 319.82 766.632 319.82ZM765.642 338H767.622V323H765.642V338ZM779.774 324.92V323H775.454V318.8L773.474 319.4V323H770.324V324.92H773.474V334.01C773.474 337.61 775.724 338.6 779.774 338V336.26C776.864 336.38 775.454 336.59 775.454 334.01V324.92H779.774ZM789.095 322.64C784.445 322.64 781.265 326.09 781.265 330.5C781.265 335.03 784.505 338.36 789.245 338.36C792.275 338.36 794.585 336.95 795.845 334.91L794.105 333.89C793.295 335.33 791.645 336.44 789.275 336.44C786.095 336.44 783.725 334.55 783.305 331.49H796.475C796.505 331.19 796.535 330.86 796.535 330.56C796.535 326.45 793.685 322.64 789.095 322.64ZM789.095 324.56C791.675 324.56 794.075 326.27 794.495 329.57H783.305C783.695 326.63 785.945 324.56 789.095 324.56ZM806.675 338.36C809.615 338.36 812.165 336.83 813.395 334.46L811.745 333.5C810.785 335.24 808.955 336.44 806.675 336.44C803.345 336.44 800.765 333.83 800.765 330.5C800.765 327.17 803.345 324.56 806.675 324.56C808.925 324.56 810.815 325.73 811.625 327.5L813.245 326.57C812.165 324.2 809.645 322.64 806.675 322.64C802.145 322.64 798.785 326.06 798.785 330.5C798.785 334.94 802.145 338.36 806.675 338.36ZM824.188 324.92V323H819.868V318.8L817.888 319.4V323H814.738V324.92H817.888V334.01C817.888 337.61 820.138 338.6 824.188 338V336.26C821.278 336.38 819.868 336.59 819.868 334.01V324.92H824.188ZM838.048 323V330.86C838.048 334.88 835.828 336.44 833.188 336.44C830.578 336.44 829.108 334.88 829.108 332.21V323H827.128V332.21C827.128 335.96 829.348 338.36 833.008 338.36C835.138 338.36 836.878 337.55 838.048 335.66V338H840.028V323H838.048ZM846.196 325.49V323H844.216V338H846.196V329.66C846.196 325.94 848.536 324.68 850.936 324.68V322.76C849.016 322.76 847.246 323.39 846.196 325.49ZM859.672 322.64C855.022 322.64 851.842 326.09 851.842 330.5C851.842 335.03 855.082 338.36 859.822 338.36C862.852 338.36 865.162 336.95 866.422 334.91L864.682 333.89C863.872 335.33 862.222 336.44 859.852 336.44C856.672 336.44 854.302 334.55 853.882 331.49H867.052C867.082 331.19 867.112 330.86 867.112 330.56C867.112 326.45 864.262 322.64 859.672 322.64ZM859.672 324.56C862.252 324.56 864.652 326.27 865.072 329.57H853.882C854.272 326.63 856.522 324.56 859.672 324.56Z" fill="#404040"/>
<path d="M802.636 207.259C799.486 207.259 796.939 209.818 796.939 212.956C796.939 213.707 797.554 214.322 798.305 214.322C799.056 214.322 799.671 213.707 799.671 212.956C799.671 211.319 801.012 209.978 802.649 209.978C803.399 209.978 804.015 209.363 804.015 208.612C804.002 207.862 803.387 207.259 802.636 207.259Z" fill="#404040"/>
<path d="M811.927 203.333C811.595 203.014 811.238 202.706 810.869 202.411L805.824 198.128C803.879 196.75 801.566 195.877 799.056 195.704L799.326 195.975L796.262 192.899H796.238C795.389 192.123 794.244 191.644 793.002 191.644C790.86 191.644 789.052 193.034 788.436 194.966C787.821 194.572 787.107 194.338 786.332 194.289C786.209 194.277 786.074 194.277 785.951 194.277C785.077 194.277 784.265 194.535 783.576 194.966C782.948 193.046 781.139 191.656 779.011 191.656C777.768 191.656 776.636 192.123 775.774 192.911H775.75L772.686 195.987L772.956 195.717C770.446 195.889 768.121 196.775 766.189 198.141L761.144 202.423C760.774 202.706 760.418 203.014 760.085 203.346C757.563 205.782 756 209.191 756 212.968C756 220.351 762.005 226.356 769.388 226.356C776.205 226.356 781.853 221.225 782.665 214.617C783.65 215.183 784.794 215.503 786 215.503C787.218 215.503 788.35 215.183 789.335 214.617C790.159 221.213 795.795 226.344 802.612 226.344C809.995 226.344 816 220.339 816 212.956C816.012 209.178 814.449 205.77 811.927 203.333ZM769.388 222.099C764.343 222.099 760.258 218.013 760.258 212.968C760.258 207.923 764.343 203.838 769.388 203.838C774.433 203.838 778.518 207.923 778.518 212.968C778.531 218.001 774.433 222.099 769.388 222.099ZM786.012 211.713C784.376 211.713 783.047 210.384 783.047 208.748C783.047 207.111 784.376 205.782 786.012 205.782C787.649 205.782 788.978 207.111 788.978 208.748C788.978 210.384 787.649 211.713 786.012 211.713ZM802.637 222.099C797.591 222.099 793.506 218.013 793.506 212.968C793.506 207.923 797.591 203.838 802.637 203.838C807.682 203.838 811.767 207.923 811.767 212.968C811.767 218.001 807.682 222.099 802.637 222.099Z" fill="#404040"/>
<path d="M769.388 207.259C766.238 207.259 763.691 209.818 763.691 212.956C763.691 213.707 764.306 214.322 765.057 214.322C765.807 214.322 766.422 213.707 766.422 212.956C766.422 211.319 767.764 209.978 769.4 209.978C770.151 209.978 770.766 209.363 770.766 208.612C770.754 207.862 770.139 207.259 769.388 207.259Z" fill="#404040"/>
<rect width="60" height="60" transform="translate(756 179)" fill="white"/>
<rect x="769.5" y="187.5" width="33" height="13" stroke="#404040" stroke-width="7"/>
<line x1="788.5" y1="203" x2="788.5" y2="234" stroke="#404040" stroke-width="5"/>
<circle cx="770" cy="214" r="4.5" stroke="#404040" stroke-width="5"/>
<line x1="787" y1="214.5" x2="775" y2="214.5" stroke="#404040" stroke-width="5"/>
<circle r="4.5" transform="matrix(-1 0 0 1 803 222)" stroke="#404040" stroke-width="5"/>
<path d="M789 222.5H798" stroke="#404040" stroke-width="5"/>
<circle cx="773" cy="231" r="4.5" stroke="#404040" stroke-width="5"/>
<line x1="790" y1="231.5" x2="778" y2="231.5" stroke="#404040" stroke-width="5"/>
<circle cx="1093" cy="209" r="48" fill="white" stroke="#C4C4C4" stroke-width="4"/>
<path d="M1022.42 282H1014.92V303H1017.02V295.2H1022.42C1026.2 295.2 1029.02 292.35 1029.02 288.6C1029.02 284.82 1026.2 282 1022.42 282ZM1022.42 293.22H1017.02V283.98H1022.42C1025.03 283.98 1026.92 285.9 1026.92 288.6C1026.92 291.27 1025.03 293.22 1022.42 293.22ZM1034 290.49V288H1032.02V303H1034V294.66C1034 290.94 1036.34 289.68 1038.74 289.68V287.76C1036.82 287.76 1035.05 288.39 1034 290.49ZM1047.54 303.36C1051.92 303.36 1055.43 299.94 1055.43 295.5C1055.43 291.06 1051.92 287.64 1047.54 287.64C1043.16 287.64 1039.65 291.06 1039.65 295.5C1039.65 299.94 1043.16 303.36 1047.54 303.36ZM1047.54 301.44C1044.21 301.44 1041.63 298.83 1041.63 295.5C1041.63 292.17 1044.21 289.56 1047.54 289.56C1050.87 289.56 1053.45 292.17 1053.45 295.5C1053.45 298.83 1050.87 301.44 1047.54 301.44ZM1066.4 289.92V288H1062.08V283.8L1060.1 284.4V288H1056.95V289.92H1060.1V299.01C1060.1 302.61 1062.35 303.6 1066.4 303V301.26C1063.49 301.38 1062.08 301.59 1062.08 299.01V289.92H1066.4ZM1075.78 303.36C1080.16 303.36 1083.67 299.94 1083.67 295.5C1083.67 291.06 1080.16 287.64 1075.78 287.64C1071.4 287.64 1067.89 291.06 1067.89 295.5C1067.89 299.94 1071.4 303.36 1075.78 303.36ZM1075.78 301.44C1072.45 301.44 1069.87 298.83 1069.87 295.5C1069.87 292.17 1072.45 289.56 1075.78 289.56C1079.11 289.56 1081.69 292.17 1081.69 295.5C1081.69 298.83 1079.11 301.44 1075.78 301.44ZM1094.64 289.92V288H1090.32V283.8L1088.34 284.4V288H1085.19V289.92H1088.34V299.01C1088.34 302.61 1090.59 303.6 1094.64 303V301.26C1091.73 301.38 1090.32 301.59 1090.32 299.01V289.92H1094.64ZM1109.03 288L1104.17 300.57L1098.53 288H1096.43L1103.15 303.09L1102.76 304.02C1101.95 305.97 1100.6 307.35 1098.65 307.14V309C1101.35 309.21 1103.57 307.26 1104.71 304.38L1111.13 288H1109.03ZM1121.57 287.64C1118.9 287.64 1116.77 288.93 1115.51 290.94V288H1113.53V309H1115.51V300.06C1116.77 302.07 1118.9 303.36 1121.57 303.36C1125.8 303.36 1129.31 299.94 1129.31 295.5C1129.31 291.06 1125.8 287.64 1121.57 287.64ZM1121.42 301.44C1118.09 301.44 1115.51 298.83 1115.51 295.5C1115.51 292.17 1118.09 289.56 1121.42 289.56C1124.75 289.56 1127.33 292.17 1127.33 295.5C1127.33 298.83 1124.75 301.44 1121.42 301.44ZM1133.59 284.82C1134.4 284.82 1135.03 284.16 1135.03 283.38C1135.03 282.6 1134.4 281.94 1133.59 281.94C1132.78 281.94 1132.15 282.6 1132.15 283.38C1132.15 284.16 1132.78 284.82 1133.59 284.82ZM1132.6 303H1134.58V288H1132.6V303ZM1145.8 287.64C1143.67 287.64 1141.93 288.45 1140.76 290.34V288H1138.78V303H1140.76V295.14C1140.76 291.12 1142.98 289.56 1145.62 289.56C1148.23 289.56 1149.7 291.12 1149.7 293.79V303H1151.68V293.79C1151.68 290.04 1149.46 287.64 1145.8 287.64ZM1168.41 288V290.94C1167.15 288.93 1165.02 287.64 1162.35 287.64C1158.12 287.64 1154.61 291.06 1154.61 295.5C1154.61 299.94 1158.12 303.36 1162.35 303.36C1165.02 303.36 1167.15 302.07 1168.41 300.06V302.4C1168.41 305.46 1166.34 307.44 1162.86 307.44C1159.62 307.44 1158.24 306.24 1157.49 304.71L1155.75 305.7C1156.92 308.04 1159.41 309.36 1162.86 309.36C1166.73 309.36 1170.39 306.96 1170.39 302.4V288H1168.41ZM1162.5 301.44C1159.17 301.44 1156.59 298.83 1156.59 295.5C1156.59 292.17 1159.17 289.56 1162.5 289.56C1165.83 289.56 1168.41 292.17 1168.41 295.5C1168.41 298.83 1165.83 301.44 1162.5 301.44Z" fill="#404040"/>
<path d="M1098.34 223.5C1097.69 223.5 1097.1 223.098 1096.88 222.485L1091.02 206.86C1090.8 206.287 1090.94 205.642 1091.38 205.208C1091.81 204.773 1092.46 204.635 1093.03 204.85L1108.65 210.708C1109.29 210.948 1109.7 211.577 1109.66 212.26C1109.63 212.944 1109.15 213.521 1108.48 213.687L1101.58 215.415L1099.86 222.317C1099.69 222.979 1099.11 223.458 1098.43 223.498C1098.4 223.5 1098.37 223.5 1098.34 223.5Z" fill="#404040"/>
<path d="M1111.75 186H1074.25C1070.8 186 1068 188.804 1068 192.25V225.583C1068 229.029 1070.8 231.833 1074.25 231.833H1111.75C1115.2 231.833 1118 229.029 1118 225.583V192.25C1118 188.804 1115.2 186 1111.75 186ZM1111.75 227.667H1074.25C1073.1 227.667 1072.17 226.733 1072.17 225.583V196.417H1113.83V225.583C1113.83 226.733 1112.9 227.667 1111.75 227.667Z" fill="#404040"/>
<path d="M1089.2 213.877C1088.98 214.044 1088.77 214.235 1088.59 214.46L1087.17 216.244C1086.97 216.494 1086.68 216.521 1086.56 216.521C1086.44 216.521 1086.2 216.492 1086 216.29C1084.48 214.769 1081.99 214.769 1080.48 216.29L1079.46 217.31V204.229C1079.46 203.942 1079.69 203.708 1079.98 203.708H1087.39C1087.65 203.183 1088 202.692 1088.43 202.262C1089.51 201.177 1090.96 200.608 1092.45 200.598V200.583H1079.98C1077.97 200.583 1076.33 202.219 1076.33 204.229V221.937C1076.33 223.948 1077.97 225.583 1079.98 225.583H1093.52C1093.65 225.583 1093.78 225.558 1093.9 225.546C1093.52 225.073 1093.2 224.539 1092.98 223.952L1089.2 213.877Z" fill="#404040"/>
<circle cx="1400" cy="209" r="48" fill="white" stroke="#C4C4C4" stroke-width="4"/>
<path d="M1351.22 303.36C1355.81 303.36 1359.02 300.45 1359.02 295.86V282H1356.92V295.86C1356.92 299.19 1354.85 301.32 1351.22 301.32C1347.59 301.32 1345.52 299.19 1345.52 295.86V282H1343.42V295.86C1343.42 300.45 1346.63 303.36 1351.22 303.36ZM1364.63 291.93C1364.63 290.31 1366.22 289.56 1367.78 289.56C1369.22 289.56 1370.75 290.13 1371.38 291.66L1373.03 290.7C1372.16 288.84 1370.24 287.64 1367.78 287.64C1364.78 287.64 1362.65 289.53 1362.65 291.93C1362.65 297.45 1371.41 295.32 1371.41 299.04C1371.41 300.81 1369.73 301.44 1367.96 301.44C1365.95 301.44 1364.39 300.45 1363.85 298.92L1362.17 299.91C1362.92 301.83 1364.96 303.36 1367.96 303.36C1371.17 303.36 1373.39 301.59 1373.39 299.04C1373.39 293.52 1364.63 295.65 1364.63 291.93ZM1389.16 288V290.94C1387.9 288.93 1385.77 287.64 1383.1 287.64C1378.87 287.64 1375.36 291.06 1375.36 295.5C1375.36 299.94 1378.87 303.36 1383.1 303.36C1385.77 303.36 1387.9 302.07 1389.16 300.06V303H1391.14V288H1389.16ZM1383.25 301.44C1379.92 301.44 1377.34 298.83 1377.34 295.5C1377.34 292.17 1379.92 289.56 1383.25 289.56C1386.58 289.56 1389.16 292.17 1389.16 295.5C1389.16 298.83 1386.58 301.44 1383.25 301.44ZM1403.37 287.64C1400.7 287.64 1398.57 288.93 1397.31 290.94V282H1395.33V303H1397.31V300.06C1398.57 302.07 1400.7 303.36 1403.37 303.36C1407.6 303.36 1411.11 299.94 1411.11 295.5C1411.11 291.06 1407.6 287.64 1403.37 287.64ZM1403.22 301.44C1399.89 301.44 1397.31 298.83 1397.31 295.5C1397.31 292.17 1399.89 289.56 1403.22 289.56C1406.55 289.56 1409.13 292.17 1409.13 295.5C1409.13 298.83 1406.55 301.44 1403.22 301.44ZM1415.39 284.82C1416.2 284.82 1416.83 284.16 1416.83 283.38C1416.83 282.6 1416.2 281.94 1415.39 281.94C1414.58 281.94 1413.95 282.6 1413.95 283.38C1413.95 284.16 1414.58 284.82 1415.39 284.82ZM1414.4 303H1416.38V288H1414.4V303ZM1420.58 303H1422.56V281.1H1420.58V303ZM1427.76 284.82C1428.57 284.82 1429.2 284.16 1429.2 283.38C1429.2 282.6 1428.57 281.94 1427.76 281.94C1426.95 281.94 1426.32 282.6 1426.32 283.38C1426.32 284.16 1426.95 284.82 1427.76 284.82ZM1426.77 303H1428.75V288H1426.77V303ZM1440.9 289.92V288H1436.58V283.8L1434.6 284.4V288H1431.45V289.92H1434.6V299.01C1434.6 302.61 1436.85 303.6 1440.9 303V301.26C1437.99 301.38 1436.58 301.59 1436.58 299.01V289.92H1440.9ZM1455.29 288L1450.43 300.57L1444.79 288H1442.69L1449.41 303.09L1449.02 304.02C1448.21 305.97 1446.86 307.35 1444.91 307.14V309C1447.61 309.21 1449.83 307.26 1450.97 304.38L1457.39 288H1455.29ZM1366.75 317H1351.75V318.98H1358.2V338H1360.3V318.98H1366.75V317ZM1373.68 322.64C1369.03 322.64 1365.85 326.09 1365.85 330.5C1365.85 335.03 1369.09 338.36 1373.83 338.36C1376.86 338.36 1379.17 336.95 1380.43 334.91L1378.69 333.89C1377.88 335.33 1376.23 336.44 1373.86 336.44C1370.68 336.44 1368.31 334.55 1367.89 331.49H1381.06C1381.09 331.19 1381.12 330.86 1381.12 330.56C1381.12 326.45 1378.27 322.64 1373.68 322.64ZM1373.68 324.56C1376.26 324.56 1378.66 326.27 1379.08 329.57H1367.89C1368.28 326.63 1370.53 324.56 1373.68 324.56ZM1385.24 326.93C1385.24 325.31 1386.83 324.56 1388.39 324.56C1389.83 324.56 1391.36 325.13 1391.99 326.66L1393.64 325.7C1392.77 323.84 1390.85 322.64 1388.39 322.64C1385.39 322.64 1383.26 324.53 1383.26 326.93C1383.26 332.45 1392.02 330.32 1392.02 334.04C1392.02 335.81 1390.34 336.44 1388.57 336.44C1386.56 336.44 1385 335.45 1384.46 333.92L1382.78 334.91C1383.53 336.83 1385.57 338.36 1388.57 338.36C1391.78 338.36 1394 336.59 1394 334.04C1394 328.52 1385.24 330.65 1385.24 326.93ZM1404.67 324.92V323H1400.35V318.8L1398.37 319.4V323H1395.22V324.92H1398.37V334.01C1398.37 337.61 1400.62 338.6 1404.67 338V336.26C1401.76 336.38 1400.35 336.59 1400.35 334.01V324.92H1404.67ZM1408.96 319.82C1409.77 319.82 1410.4 319.16 1410.4 318.38C1410.4 317.6 1409.77 316.94 1408.96 316.94C1408.15 316.94 1407.52 317.6 1407.52 318.38C1407.52 319.16 1408.15 319.82 1408.96 319.82ZM1407.97 338H1409.95V323H1407.97V338ZM1421.17 322.64C1419.04 322.64 1417.3 323.45 1416.13 325.34V323H1414.15V338H1416.13V330.14C1416.13 326.12 1418.35 324.56 1420.99 324.56C1423.6 324.56 1425.07 326.12 1425.07 328.79V338H1427.05V328.79C1427.05 325.04 1424.83 322.64 1421.17 322.64ZM1443.78 323V325.94C1442.52 323.93 1440.39 322.64 1437.72 322.64C1433.49 322.64 1429.98 326.06 1429.98 330.5C1429.98 334.94 1433.49 338.36 1437.72 338.36C1440.39 338.36 1442.52 337.07 1443.78 335.06V337.4C1443.78 340.46 1441.71 342.44 1438.23 342.44C1434.99 342.44 1433.61 341.24 1432.86 339.71L1431.12 340.7C1432.29 343.04 1434.78 344.36 1438.23 344.36C1442.1 344.36 1445.76 341.96 1445.76 337.4V323H1443.78ZM1437.87 336.44C1434.54 336.44 1431.96 333.83 1431.96 330.5C1431.96 327.17 1434.54 324.56 1437.87 324.56C1441.2 324.56 1443.78 327.17 1443.78 330.5C1443.78 333.83 1441.2 336.44 1437.87 336.44Z" fill="#404040"/>
<path d="M1376 224.063C1376.01 225.127 1377.02 225.989 1378.28 226H1421.72C1422.98 225.989 1423.99 225.127 1424 224.063V221H1376V224.063Z" fill="#404040"/>
<path d="M1421.72 191H1378.28C1377.02 191.021 1376.01 192.102 1376 193.433V219H1424V193.433C1423.99 192.102 1422.98 191.021 1421.72 191Z" fill="#404040"/>
<path d="M1416.74 203.158C1416.04 203.158 1415.47 203.724 1415.47 204.421V205.895C1415.47 206.011 1415.38 206.105 1415.26 206.105C1415.15 206.105 1415.05 206.011 1415.05 205.895V203.579C1415.05 202.882 1414.49 202.316 1413.79 202.316C1413.09 202.316 1412.53 202.882 1412.53 203.579V205.895C1412.53 206.011 1412.43 206.105 1412.32 206.105C1412.2 206.105 1412.11 206.011 1412.11 205.895V202.737C1412.11 202.04 1411.54 201.474 1410.84 201.474C1410.14 201.474 1409.58 202.04 1409.58 202.737V205.895C1409.58 206.011 1409.48 206.105 1409.37 206.105C1409.25 206.105 1409.16 206.011 1409.16 205.895V197.263C1409.16 196.566 1408.59 196 1407.89 196C1407.2 196 1406.63 196.566 1406.63 197.263V207.11L1403.92 205.448H1403.92C1403.73 205.331 1403.51 205.263 1403.26 205.263C1402.56 205.263 1402 205.827 1402 206.526C1402 206.77 1402.07 207.006 1402.19 207.2L1402.19 207.197L1406.07 213.722C1406.68 214.743 1407.78 215.368 1408.97 215.368H1414.63C1416.49 215.368 1418 213.86 1418 212V204.421C1418 203.724 1417.43 203.158 1416.74 203.158Z" fill="white"/>
<rect x="1381" y="196" width="18" height="4" fill="white"/>
<rect x="1381" y="203" width="14" height="4" fill="white"/>
<rect x="1381" y="210" width="15" height="4" fill="white"/>
<circle cx="1707" cy="209" r="48" fill="white" stroke="#C4C4C4" stroke-width="4"/>
<path d="M1646.42 282H1638.32V303H1646.42C1652.21 303 1656.32 298.29 1656.32 292.5C1656.32 286.71 1652.21 282 1646.42 282ZM1646.42 301.02H1640.42V283.98H1646.42C1651.1 283.98 1654.28 287.79 1654.28 292.5C1654.28 297.21 1651.1 301.02 1646.42 301.02ZM1666.55 287.64C1661.9 287.64 1658.72 291.09 1658.72 295.5C1658.72 300.03 1661.96 303.36 1666.7 303.36C1669.73 303.36 1672.04 301.95 1673.3 299.91L1671.56 298.89C1670.75 300.33 1669.1 301.44 1666.73 301.44C1663.55 301.44 1661.18 299.55 1660.76 296.49H1673.93C1673.96 296.19 1673.99 295.86 1673.99 295.56C1673.99 291.45 1671.14 287.64 1666.55 287.64ZM1666.55 289.56C1669.13 289.56 1671.53 291.27 1671.95 294.57H1660.76C1661.15 291.63 1663.4 289.56 1666.55 289.56ZM1687.35 288L1682.1 300.93L1676.85 288H1674.75L1680.9 303H1683.3L1689.45 288H1687.35ZM1698.19 287.64C1693.54 287.64 1690.36 291.09 1690.36 295.5C1690.36 300.03 1693.6 303.36 1698.34 303.36C1701.37 303.36 1703.68 301.95 1704.94 299.91L1703.2 298.89C1702.39 300.33 1700.74 301.44 1698.37 301.44C1695.19 301.44 1692.82 299.55 1692.4 296.49H1705.57C1705.6 296.19 1705.63 295.86 1705.63 295.56C1705.63 291.45 1702.78 287.64 1698.19 287.64ZM1698.19 289.56C1700.77 289.56 1703.17 291.27 1703.59 294.57H1692.4C1692.79 291.63 1695.04 289.56 1698.19 289.56ZM1708.78 303H1710.76V281.1H1708.78V303ZM1721.95 303.36C1726.33 303.36 1729.84 299.94 1729.84 295.5C1729.84 291.06 1726.33 287.64 1721.95 287.64C1717.57 287.64 1714.06 291.06 1714.06 295.5C1714.06 299.94 1717.57 303.36 1721.95 303.36ZM1721.95 301.44C1718.62 301.44 1716.04 298.83 1716.04 295.5C1716.04 292.17 1718.62 289.56 1721.95 289.56C1725.28 289.56 1727.86 292.17 1727.86 295.5C1727.86 298.83 1725.28 301.44 1721.95 301.44ZM1741.19 287.64C1738.52 287.64 1736.39 288.93 1735.13 290.94V288H1733.15V309H1735.13V300.06C1736.39 302.07 1738.52 303.36 1741.19 303.36C1745.42 303.36 1748.93 299.94 1748.93 295.5C1748.93 291.06 1745.42 287.64 1741.19 287.64ZM1741.04 301.44C1737.71 301.44 1735.13 298.83 1735.13 295.5C1735.13 292.17 1737.71 289.56 1741.04 289.56C1744.37 289.56 1746.95 292.17 1746.95 295.5C1746.95 298.83 1744.37 301.44 1741.04 301.44ZM1759.15 287.64C1754.5 287.64 1751.32 291.09 1751.32 295.5C1751.32 300.03 1754.56 303.36 1759.3 303.36C1762.33 303.36 1764.64 301.95 1765.9 299.91L1764.16 298.89C1763.35 300.33 1761.7 301.44 1759.33 301.44C1756.15 301.44 1753.78 299.55 1753.36 296.49H1766.53C1766.56 296.19 1766.59 295.86 1766.59 295.56C1766.59 291.45 1763.74 287.64 1759.15 287.64ZM1759.15 289.56C1761.73 289.56 1764.13 291.27 1764.55 294.57H1753.36C1753.75 291.63 1756 289.56 1759.15 289.56ZM1771.72 290.49V288H1769.74V303H1771.72V294.66C1771.72 290.94 1774.06 289.68 1776.46 289.68V287.76C1774.54 287.76 1772.77 288.39 1771.72 290.49ZM1667.12 317V326.21H1655.72V317H1653.62V338H1655.72V328.19H1667.12V338H1669.22V317H1667.12ZM1686.61 323V325.94C1685.35 323.93 1683.22 322.64 1680.55 322.64C1676.32 322.64 1672.81 326.06 1672.81 330.5C1672.81 334.94 1676.32 338.36 1680.55 338.36C1683.22 338.36 1685.35 337.07 1686.61 335.06V338H1688.59V323H1686.61ZM1680.7 336.44C1677.37 336.44 1674.79 333.83 1674.79 330.5C1674.79 327.17 1677.37 324.56 1680.7 324.56C1684.03 324.56 1686.61 327.17 1686.61 330.5C1686.61 333.83 1684.03 336.44 1680.7 336.44ZM1699.8 322.64C1697.67 322.64 1695.93 323.45 1694.76 325.34V323H1692.78V338H1694.76V330.14C1694.76 326.12 1696.98 324.56 1699.62 324.56C1702.23 324.56 1703.7 326.12 1703.7 328.79V338H1705.68V328.79C1705.68 325.04 1703.46 322.64 1699.8 322.64ZM1722.41 317V325.94C1721.15 323.93 1719.02 322.64 1716.35 322.64C1712.12 322.64 1708.61 326.06 1708.61 330.5C1708.61 334.94 1712.12 338.36 1716.35 338.36C1719.02 338.36 1721.15 337.07 1722.41 335.06V338H1724.39V317H1722.41ZM1716.5 336.44C1713.17 336.44 1710.59 333.83 1710.59 330.5C1710.59 327.17 1713.17 324.56 1716.5 324.56C1719.83 324.56 1722.41 327.17 1722.41 330.5C1722.41 333.83 1719.83 336.44 1716.5 336.44ZM1735.57 338.36C1739.95 338.36 1743.46 334.94 1743.46 330.5C1743.46 326.06 1739.95 322.64 1735.57 322.64C1731.19 322.64 1727.68 326.06 1727.68 330.5C1727.68 334.94 1731.19 338.36 1735.57 338.36ZM1735.57 336.44C1732.24 336.44 1729.66 333.83 1729.66 330.5C1729.66 327.17 1732.24 324.56 1735.57 324.56C1738.9 324.56 1741.48 327.17 1741.48 330.5C1741.48 333.83 1738.9 336.44 1735.57 336.44ZM1761.79 318.26V316.34C1757.74 316.04 1755.49 318.2 1755.49 322.1V323H1749.37V322.4C1749.37 319.52 1750.78 318.32 1753.69 318.56V316.64C1749.64 316.34 1747.39 318.5 1747.39 322.4V323H1744.84V324.92H1747.39V338H1749.37V324.92H1755.49V338H1757.47V324.92H1761.79V323H1757.47V322.1C1757.47 319.22 1758.88 318.02 1761.79 318.26Z" fill="#404040"/>
<path d="M1724.21 191H1689.79C1686.05 191 1683 194.048 1683 197.794V219.325C1683 223.071 1686.05 226.119 1689.79 226.119H1724.21C1727.95 226.119 1731 223.071 1731 219.325V197.794C1731 194.048 1727.95 191 1724.21 191ZM1700.42 201.808L1693.27 208.955L1699.63 215.31C1700.18 215.86 1700.18 216.75 1699.63 217.299C1699.08 217.848 1698.19 217.848 1697.64 217.299L1690.29 209.949C1689.74 209.399 1689.74 208.51 1690.29 207.96L1698.43 199.82C1698.98 199.271 1699.87 199.271 1700.42 199.82C1700.97 200.368 1700.97 201.259 1700.42 201.808ZM1712.02 198.5L1704.58 219.555C1704.32 220.288 1703.52 220.672 1702.79 220.413C1702.06 220.154 1701.67 219.351 1701.93 218.619L1709.37 197.563C1709.63 196.831 1710.43 196.447 1711.16 196.706C1711.89 196.964 1712.28 197.768 1712.02 198.5ZM1723.71 209.158L1715.57 217.299C1715.02 217.848 1714.13 217.848 1713.58 217.299C1713.03 216.75 1713.03 215.86 1713.58 215.31L1720.73 208.164L1714.37 201.808C1713.82 201.259 1713.82 200.368 1714.37 199.82C1714.92 199.271 1715.81 199.271 1716.36 199.82L1723.71 207.17C1724.26 207.719 1724.26 208.609 1723.71 209.158Z" fill="#404040"/>
<path d="M401.118 208.118C401.736 207.501 401.736 206.499 401.118 205.882L391.056 195.82C390.438 195.202 389.437 195.202 388.82 195.82C388.202 196.437 388.202 197.438 388.82 198.056L397.764 207L388.82 215.944C388.202 216.562 388.202 217.563 388.82 218.18C389.437 218.798 390.438 218.798 391.056 218.18L401.118 208.118ZM250 208.581H400V205.419H250V208.581Z" fill="#404040"/>
<path d="M708.118 208.118C708.736 207.501 708.736 206.499 708.118 205.882L698.056 195.82C697.438 195.202 696.437 195.202 695.82 195.82C695.202 196.437 695.202 197.438 695.82 198.056L704.764 207L695.82 215.944C695.202 216.562 695.202 217.563 695.82 218.18C696.437 218.798 697.438 218.798 698.056 218.18L708.118 208.118ZM557 208.581H707V205.419H557V208.581Z" fill="#404040"/>
<path d="M1015.12 208.118C1015.74 207.501 1015.74 206.499 1015.12 205.882L1005.06 195.82C1004.44 195.202 1003.44 195.202 1002.82 195.82C1002.2 196.437 1002.2 197.438 1002.82 198.056L1011.76 207L1002.82 215.944C1002.2 216.562 1002.2 217.563 1002.82 218.18C1003.44 218.798 1004.44 218.798 1005.06 218.18L1015.12 208.118ZM864 208.581H1014V205.419H864V208.581Z" fill="#404040"/>
<path d="M1322.12 208.118C1322.74 207.501 1322.74 206.499 1322.12 205.882L1312.06 195.82C1311.44 195.202 1310.44 195.202 1309.82 195.82C1309.2 196.437 1309.2 197.438 1309.82 198.056L1318.76 207L1309.82 215.944C1309.2 216.562 1309.2 217.563 1309.82 218.18C1310.44 218.798 1311.44 218.798 1312.06 218.18L1322.12 208.118ZM1171 208.581H1321V205.419H1171V208.581Z" fill="#404040"/>
<path d="M1091.88 130.118C1092.5 130.736 1093.5 130.736 1094.12 130.118L1104.18 120.056C1104.8 119.438 1104.8 118.437 1104.18 117.82C1103.56 117.202 1102.56 117.202 1101.94 117.82L1093 126.764L1084.06 117.82C1083.44 117.202 1082.44 117.202 1081.82 117.82C1081.2 118.437 1081.2 119.438 1081.82 120.056L1091.88 130.118ZM1091.42 67.5V129H1094.58V67.5H1091.42ZM1401.58 131V67.5H1398.42V131H1401.58ZM1350 15.9189L1143 15.9189V19.0811L1350 19.0811V15.9189ZM1401.58 67.5C1401.58 39.0125 1378.49 15.9189 1350 15.9189V19.0811C1376.74 19.0811 1398.42 40.759 1398.42 67.5H1401.58ZM1094.58 67.5C1094.58 40.759 1116.26 19.0811 1143 19.0811V15.9189C1114.51 15.9189 1091.42 39.0125 1091.42 67.5H1094.58Z" fill="#404040"/>
<path d="M1629.12 208.118C1629.74 207.501 1629.74 206.499 1629.12 205.882L1619.06 195.82C1618.44 195.202 1617.44 195.202 1616.82 195.82C1616.2 196.437 1616.2 197.438 1616.82 198.056L1625.76 207L1616.82 215.944C1616.2 216.562 1616.2 217.563 1616.82 218.18C1617.44 218.798 1618.44 218.798 1619.06 218.18L1629.12 208.118ZM1478 208.581H1628V205.419H1478V208.581Z" fill="#404040"/>
</g>
<defs>
<clipPath id="clip0">
<rect width="1878" height="359" fill="white"/>
</clipPath>
</defs>
</svg>
