<svg width="1420" height="419" fill="none" xmlns="http://www.w3.org/2000/svg">
  <path fill="#404040" d="M875 154h32v1h-32zm0 80h32v1h-32zm0 80h32v1h-32zm0 80h32v1h-32z"/>
  <path fill="#404040" d="M875 97h1v298h-1zm-610 57h32v1h-32zm0 80h32v1h-32zm0 80h32v1h-32z"/>
  <path fill="#404040" d="M265 97h1v218h-1z"/>
  <path d="M92 58a8 8 0 018-8h562a8 8 0 018 8v32a8 8 0 01-8 8H100a8 8 0 01-8-8V58z" fill="#fff"/>
  <path d="M130.8 67h-2.46l-4.24 7-4.22-7h-2.48v14h2.3V71l4.26 7.06h.28l4.26-7.04V81h2.3V67zm10.571 4v1.42c-.76-1.04-1.94-1.68-3.5-1.68-2.72 0-4.98 2.28-4.98 5.26 0 2.96 2.26 5.26 4.98 5.26 1.56 0 2.74-.64 3.5-1.7V81h2.16V71h-2.16zm-3.16 8.2c-1.8 0-3.16-1.34-3.16-3.2s1.36-3.2 3.16-3.2 3.16 1.34 3.16 3.2-1.36 3.2-3.16 3.2zm13.098-8.46c-1.36 0-2.44.5-3.1 1.54V71h-2.16v10h2.16v-5.36c0-2.04 1.12-2.88 2.54-2.88 1.36 0 2.24.8 2.24 2.32V81h2.16v-6.14c0-2.6-1.6-4.12-3.84-4.12zm14.086.26v1.42c-.76-1.04-1.94-1.68-3.5-1.68-2.72 0-4.98 2.28-4.98 5.26 0 2.96 2.26 5.26 4.98 5.26 1.56 0 2.74-.64 3.5-1.7V81h2.16V71h-2.16zm-3.16 8.2c-1.8 0-3.16-1.34-3.16-3.2s1.36-3.2 3.16-3.2 3.16 1.34 3.16 3.2-1.36 3.2-3.16 3.2zm15.798-8.2v1.48c-.76-1.08-1.94-1.74-3.48-1.74-2.82 0-5.04 2.3-5.04 5.16 0 2.86 2.22 5.16 5.04 5.16 1.54 0 2.72-.66 3.48-1.74v1.22c0 1.74-1.12 2.76-2.98 2.76-1.74 0-2.48-.68-2.92-1.54l-1.86 1.08c.84 1.6 2.54 2.42 4.74 2.42 2.62 0 5.14-1.5 5.14-4.72V71h-2.12zm-3.18 8.04c-1.82 0-3.18-1.34-3.18-3.14s1.36-3.14 3.18-3.14 3.18 1.34 3.18 3.14-1.36 3.14-3.18 3.14zm9.517-2.12h7.96c.04-.28.08-.6.08-.9 0-2.88-2.04-5.28-5.02-5.28-3.14 0-5.28 2.3-5.28 5.26 0 3 2.14 5.26 5.44 5.26 1.96 0 3.46-.82 4.38-2.18l-1.78-1.04c-.48.7-1.38 1.24-2.58 1.24-1.6 0-2.86-.8-3.2-2.36zm-.02-1.76c.3-1.5 1.4-2.46 3.02-2.46 1.3 0 2.56.74 2.86 2.46h-5.88zm19.681 6.1c1.96 0 3.66-1.02 4.5-2.6l-1.86-1.06c-.48.92-1.46 1.54-2.66 1.54-1.76 0-3.1-1.34-3.1-3.14s1.34-3.14 3.1-3.14c1.2 0 2.18.6 2.62 1.54l1.86-1.08c-.8-1.56-2.5-2.58-4.46-2.58-3.02 0-5.28 2.28-5.28 5.26 0 2.96 2.26 5.26 5.28 5.26zm10.625 0c2.94 0 5.28-2.3 5.28-5.26 0-2.98-2.34-5.26-5.28-5.26-2.92 0-5.28 2.28-5.28 5.26 0 2.96 2.36 5.26 5.28 5.26zm0-2.1c-1.76 0-3.12-1.34-3.12-3.16s1.36-3.16 3.12-3.16 3.12 1.34 3.12 3.16-1.36 3.16-3.12 3.16zm18.153-8.42c-1.34 0-2.4.54-3.06 1.58-.58-1-1.54-1.58-2.84-1.58-1.24 0-2.22.48-2.86 1.46V71h-2.16v10h2.16v-5.6c0-1.82 1-2.64 2.22-2.64 1.18 0 1.88.78 1.88 2.18V81h2.16v-5.6c0-1.82.9-2.64 2.18-2.64 1.18 0 1.94.78 1.94 2.18V81h2.16v-6.2c0-2.5-1.52-4.06-3.78-4.06zm11.752 0c-1.56 0-2.74.64-3.5 1.7V71h-2.16v14h2.16v-5.42c.76 1.04 1.94 1.68 3.5 1.68 2.72 0 4.98-2.28 4.98-5.26 0-2.96-2.26-5.26-4.98-5.26zm-.34 8.46c-1.8 0-3.16-1.34-3.16-3.2s1.36-3.2 3.16-3.2 3.16 1.34 3.16 3.2-1.36 3.2-3.16 3.2zm15.197-8.2v1.42c-.76-1.04-1.94-1.68-3.5-1.68-2.72 0-4.98 2.28-4.98 5.26 0 2.96 2.26 5.26 4.98 5.26 1.56 0 2.74-.64 3.5-1.7V81h2.16V71h-2.16zm-3.16 8.2c-1.8 0-3.16-1.34-3.16-3.2s1.36-3.2 3.16-3.2 3.16 1.34 3.16 3.2-1.36 3.2-3.16 3.2zm13.098-8.46c-1.36 0-2.44.5-3.1 1.54V71h-2.16v10h2.16v-5.36c0-2.04 1.12-2.88 2.54-2.88 1.36 0 2.24.8 2.24 2.32V81h2.16v-6.14c0-2.6-1.6-4.12-3.84-4.12zm12.71.26l-2.56 7.26-2.98-7.26h-2.36l4.24 9.82-.1.2c-.5 1.32-1.26 2.04-2.66 1.96V85c2.3.14 3.94-1.14 4.88-3.68l3.84-10.32h-2.3zm4.854 7.6h-2.4l-.8 5.2h1.8l1.4-5.2zm12.953-7.86c-1.56 0-2.74.64-3.5 1.7V71h-2.16v14h2.16v-5.42c.76 1.04 1.94 1.68 3.5 1.68 2.72 0 4.98-2.28 4.98-5.26 0-2.96-2.26-5.26-4.98-5.26zm-.34 8.46c-1.8 0-3.16-1.34-3.16-3.2s1.36-3.2 3.16-3.2 3.16 1.34 3.16 3.2-1.36 3.2-3.16 3.2zm9.438-6.52V71h-2.16v10h2.16v-5.04c0-2.24 1.66-2.9 3.08-2.8v-2.34c-1.26 0-2.48.5-3.08 1.86zm8.927 8.58c2.94 0 5.28-2.3 5.28-5.26 0-2.98-2.34-5.26-5.28-5.26-2.92 0-5.28 2.28-5.28 5.26 0 2.96 2.36 5.26 5.28 5.26zm0-2.1c-1.76 0-3.12-1.34-3.12-3.16s1.36-3.16 3.12-3.16 3.12 1.34 3.12 3.16-1.36 3.16-3.12 3.16zM333.091 71v1.48c-.76-1.08-1.94-1.74-3.48-1.74-2.82 0-5.04 2.3-5.04 5.16 0 2.86 2.22 5.16 5.04 5.16 1.54 0 2.72-.66 3.48-1.74v1.22c0 1.74-1.12 2.76-2.98 2.76-1.74 0-2.48-.68-2.92-1.54l-1.86 1.08c.84 1.6 2.54 2.42 4.74 2.42 2.62 0 5.14-1.5 5.14-4.72V71h-2.12zm-3.18 8.04c-1.82 0-3.18-1.34-3.18-3.14s1.36-3.14 3.18-3.14 3.18 1.34 3.18 3.14-1.36 3.14-3.18 3.14zm9.978-6.36V71h-2.16v10h2.16v-5.04c0-2.24 1.66-2.9 3.08-2.8v-2.34c-1.26 0-2.48.5-3.08 1.86zM352.016 71v1.42c-.76-1.04-1.94-1.68-3.5-1.68-2.72 0-4.98 2.28-4.98 5.26 0 2.96 2.26 5.26 4.98 5.26 1.56 0 2.74-.64 3.5-1.7V81h2.16V71h-2.16zm-3.16 8.2c-1.8 0-3.16-1.34-3.16-3.2s1.36-3.2 3.16-3.2 3.16 1.34 3.16 3.2-1.36 3.2-3.16 3.2zm18.758-8.46c-1.34 0-2.4.54-3.06 1.58-.58-1-1.54-1.58-2.84-1.58-1.24 0-2.22.48-2.86 1.46V71h-2.16v10h2.16v-5.6c0-1.82 1-2.64 2.22-2.64 1.18 0 1.88.78 1.88 2.18V81h2.16v-5.6c0-1.82.9-2.64 2.18-2.64 1.18 0 1.94.78 1.94 2.18V81h2.16v-6.2c0-2.5-1.52-4.06-3.78-4.06zm9.091 7.86h-2.4l-.8 5.2h1.8l1.4-5.2zm12.013 2.66c1.96 0 3.66-1.02 4.5-2.6l-1.86-1.06c-.48.92-1.46 1.54-2.66 1.54-1.76 0-3.1-1.34-3.1-3.14s1.34-3.14 3.1-3.14c1.2 0 2.18.6 2.62 1.54l1.86-1.08c-.8-1.56-2.5-2.58-4.46-2.58-3.02 0-5.28 2.28-5.28 5.26 0 2.96 2.26 5.26 5.28 5.26zm7.605-4.34h7.96c.04-.28.08-.6.08-.9 0-2.88-2.04-5.28-5.02-5.28-3.14 0-5.28 2.3-5.28 5.26 0 3 2.14 5.26 5.44 5.26 1.96 0 3.46-.82 4.38-2.18l-1.78-1.04c-.48.7-1.38 1.24-2.58 1.24-1.6 0-2.86-.8-3.2-2.36zm-.02-1.76c.3-1.5 1.4-2.46 3.02-2.46 1.3 0 2.56.74 2.86 2.46h-5.88zm12.121-2.48V71h-2.16v10h2.16v-5.04c0-2.24 1.66-2.9 3.08-2.8v-2.34c-1.26 0-2.48.5-3.08 1.86zm10.51.4V71h-2.48v-2.8l-2.16.64V71h-1.84v2.08h1.84v4.8c0 2.6 1.32 3.52 4.64 3.12v-1.94c-1.64.08-2.48.1-2.48-1.18v-4.8h2.48zm3.039-3.58c.76 0 1.38-.64 1.38-1.38 0-.76-.62-1.38-1.38-1.38-.76 0-1.38.62-1.38 1.38 0 .74.62 1.38 1.38 1.38zm-1.08 11.5h2.16V71h-2.16v10zm13.028-10h-5.48v-.2c0-1.54.84-1.98 2.36-1.98.7 0 1.42.04 2.22.16V67c-.8-.18-1.5-.26-2.22-.26-3 0-4.52 1.36-4.52 4.06v.2h-1.52v2.08h1.52V81h2.16v-7.92h3.32V81h2.16V71zm7.219 10.26c1.96 0 3.66-1.02 4.5-2.6l-1.86-1.06c-.48.92-1.46 1.54-2.66 1.54-1.76 0-3.1-1.34-3.1-3.14s1.34-3.14 3.1-3.14c1.2 0 2.18.6 2.62 1.54l1.86-1.08c-.8-1.56-2.5-2.58-4.46-2.58-3.02 0-5.28 2.28-5.28 5.26 0 2.96 2.26 5.26 5.28 5.26zM454.965 71v1.42c-.76-1.04-1.94-1.68-3.5-1.68-2.72 0-4.98 2.28-4.98 5.26 0 2.96 2.26 5.26 4.98 5.26 1.56 0 2.74-.64 3.5-1.7V81h2.16V71h-2.16zm-3.16 8.2c-1.8 0-3.16-1.34-3.16-3.2s1.36-3.2 3.16-3.2 3.16 1.34 3.16 3.2-1.36 3.2-3.16 3.2zm13.418-6.12V71h-2.48v-2.8l-2.16.64V71h-1.84v2.08h1.84v4.8c0 2.6 1.32 3.52 4.64 3.12v-1.94c-1.64.08-2.48.1-2.48-1.18v-4.8h2.48zm3.249 3.84h7.96c.04-.28.08-.6.08-.9 0-2.88-2.04-5.28-5.02-5.28-3.14 0-5.28 2.3-5.28 5.26 0 3 2.14 5.26 5.44 5.26 1.96 0 3.46-.82 4.38-2.18l-1.78-1.04c-.48.7-1.38 1.24-2.58 1.24-1.6 0-2.86-.8-3.2-2.36zm-.02-1.76c.3-1.5 1.4-2.46 3.02-2.46 1.3 0 2.56.74 2.86 2.46h-5.88zm12.16 3.44h-2.4l-.8 5.2h1.8l1.4-5.2zm15.213-7.6v1.42c-.76-1.04-1.94-1.68-3.5-1.68-2.72 0-4.98 2.28-4.98 5.26 0 2.96 2.26 5.26 4.98 5.26 1.56 0 2.74-.64 3.5-1.7V81h2.16V71h-2.16zm-3.16 8.2c-1.8 0-3.16-1.34-3.16-3.2s1.36-3.2 3.16-3.2 3.16 1.34 3.16 3.2-1.36 3.2-3.16 3.2zm13.097-8.46c-1.36 0-2.44.5-3.1 1.54V71h-2.16v10h2.16v-5.36c0-2.04 1.12-2.88 2.54-2.88 1.36 0 2.24.8 2.24 2.32V81h2.16v-6.14c0-2.6-1.6-4.12-3.84-4.12zM519.848 67v5.42c-.76-1.04-1.94-1.68-3.5-1.68-2.72 0-4.98 2.28-4.98 5.26 0 2.96 2.26 5.26 4.98 5.26 1.56 0 2.74-.64 3.5-1.7V81h2.16V67h-2.16zm-3.16 12.2c-1.8 0-3.16-1.34-3.16-3.2s1.36-3.2 3.16-3.2 3.16 1.34 3.16 3.2-1.36 3.2-3.16 3.2zM537.446 67v5.42c-.76-1.04-1.94-1.68-3.5-1.68-2.72 0-4.98 2.28-4.98 5.26 0 2.96 2.26 5.26 4.98 5.26 1.56 0 2.74-.64 3.5-1.7V81h2.16V67h-2.16zm-3.16 12.2c-1.8 0-3.16-1.34-3.16-3.2s1.36-3.2 3.16-3.2 3.16 1.34 3.16 3.2-1.36 3.2-3.16 3.2zm9.997-6.52V71h-2.16v10h2.16v-5.04c0-2.24 1.66-2.9 3.08-2.8v-2.34c-1.26 0-2.48.5-3.08 1.86zM555.699 71v5.36c0 2.04-1.12 2.88-2.54 2.88-1.36 0-2.24-.8-2.24-2.32V71h-2.16v6.14c0 2.6 1.6 4.12 3.84 4.12 1.36 0 2.44-.5 3.1-1.54V81h2.16V71h-2.16zm12.646 0v1.48c-.76-1.08-1.94-1.74-3.48-1.74-2.82 0-5.04 2.3-5.04 5.16 0 2.86 2.22 5.16 5.04 5.16 1.54 0 2.72-.66 3.48-1.74v1.22c0 1.74-1.12 2.76-2.98 2.76-1.74 0-2.48-.68-2.92-1.54l-1.86 1.08c.84 1.6 2.54 2.42 4.74 2.42 2.62 0 5.14-1.5 5.14-4.72V71h-2.12zm-3.18 8.04c-1.82 0-3.18-1.34-3.18-3.14s1.36-3.14 3.18-3.14 3.18 1.34 3.18 3.14-1.36 3.14-3.18 3.14zm14.978-6.36V71h-2.16v10h2.16v-5.04c0-2.24 1.66-2.9 3.08-2.8v-2.34c-1.26 0-2.48.5-3.08 1.86zm5.907 4.24h7.96c.04-.28.08-.6.08-.9 0-2.88-2.04-5.28-5.02-5.28-3.14 0-5.28 2.3-5.28 5.26 0 3 2.14 5.26 5.44 5.26 1.96 0 3.46-.82 4.38-2.18l-1.78-1.04c-.48.7-1.38 1.24-2.58 1.24-1.6 0-2.86-.8-3.2-2.36zm-.02-1.76c.3-1.5 1.4-2.46 3.02-2.46 1.3 0 2.56.74 2.86 2.46h-5.88zm14.622 6.1c1.96 0 3.66-1.02 4.5-2.6l-1.86-1.06c-.48.92-1.46 1.54-2.66 1.54-1.76 0-3.1-1.34-3.1-3.14s1.34-3.14 3.1-3.14c1.2 0 2.18.6 2.62 1.54l1.86-1.08c-.8-1.56-2.5-2.58-4.46-2.58-3.02 0-5.28 2.28-5.28 5.26 0 2.96 2.26 5.26 5.28 5.26zm10.625 0c2.94 0 5.28-2.3 5.28-5.26 0-2.98-2.34-5.26-5.28-5.26-2.92 0-5.28 2.28-5.28 5.26 0 2.96 2.36 5.26 5.28 5.26zm0-2.1c-1.76 0-3.12-1.34-3.12-3.16s1.36-3.16 3.12-3.16 3.12 1.34 3.12 3.16-1.36 3.16-3.12 3.16zm9.393-6.48V71h-2.16v10h2.16v-5.04c0-2.24 1.66-2.9 3.08-2.8v-2.34c-1.26 0-2.48.5-3.08 1.86zM632.797 67v5.42c-.76-1.04-1.94-1.68-3.5-1.68-2.72 0-4.98 2.28-4.98 5.26 0 2.96 2.26 5.26 4.98 5.26 1.56 0 2.74-.64 3.5-1.7V81h2.16V67h-2.16zm-3.16 12.2c-1.8 0-3.16-1.34-3.16-3.2s1.36-3.2 3.16-3.2 3.16 1.34 3.16 3.2-1.36 3.2-3.16 3.2zm9.719-5.44c0-.72.68-1.06 1.46-1.06.82 0 1.52.36 1.88 1.14l1.82-1.02c-.7-1.32-2.06-2.08-3.7-2.08-2.04 0-3.66 1.18-3.66 3.06 0 3.58 5.38 2.58 5.38 4.36 0 .8-.74 1.12-1.7 1.12-1.1 0-1.9-.54-2.22-1.44l-1.86 1.08c.64 1.44 2.08 2.34 4.08 2.34 2.16 0 3.9-1.08 3.9-3.08 0-3.7-5.38-2.6-5.38-4.42z" fill="#1A1A1A"/>
  <path d="M100 51h562v-2H100v2zm569 7v32h2V58h-2zm-7 39H100v2h562v-2zM93 90V58h-2v32h2zm7 7a7 7 0 01-7-7h-2a9 9 0 009 9v-2zm569-7a7 7 0 01-7 7v2a9 9 0 009-9h-2zm-7-39a7 7 0 017 7h2a9 9 0 00-9-9v2zm-562-2a9 9 0 00-9 9h2a7 7 0 017-7v-2z" fill="#366B00"/>
  <path d="M802 58a8 8 0 018-8h248a8 8 0 018 8v32a8 8 0 01-8 8H810a8 8 0 01-8-8V58z" fill="#fff"/>
  <path d="M835.38 81h2.52l-3.18-5.44c1.64-.66 2.78-2.26 2.78-4.06 0-2.5-2-4.5-4.5-4.5h-5.6v14h2.3v-5.1h2.72l2.96 5.1zm-5.68-11.84h3.3c1.22 0 2.2 1.02 2.2 2.34 0 1.3-.98 2.34-2.2 2.34h-3.3v-4.68zm10.998 7.76h7.96c.04-.28.08-.6.08-.9 0-2.88-2.04-5.28-5.02-5.28-3.14 0-5.28 2.3-5.28 5.26 0 3 2.14 5.26 5.44 5.26 1.96 0 3.46-.82 4.38-2.18l-1.78-1.04c-.48.7-1.38 1.24-2.58 1.24-1.6 0-2.86-.8-3.2-2.36zm-.02-1.76c.3-1.5 1.4-2.46 3.02-2.46 1.3 0 2.56.74 2.86 2.46h-5.88zm14.622 6.1c1.96 0 3.66-1.02 4.5-2.6l-1.86-1.06c-.48.92-1.46 1.54-2.66 1.54-1.76 0-3.1-1.34-3.1-3.14s1.34-3.14 3.1-3.14c1.2 0 2.18.6 2.62 1.54l1.86-1.08c-.8-1.56-2.5-2.58-4.46-2.58-3.02 0-5.28 2.28-5.28 5.26 0 2.96 2.26 5.26 5.28 5.26zm7.605-4.34h7.96c.04-.28.08-.6.08-.9 0-2.88-2.04-5.28-5.02-5.28-3.14 0-5.28 2.3-5.28 5.26 0 3 2.14 5.26 5.44 5.26 1.96 0 3.46-.82 4.38-2.18l-1.78-1.04c-.48.7-1.38 1.24-2.58 1.24-1.6 0-2.86-.8-3.2-2.36zm-.02-1.76c.3-1.5 1.4-2.46 3.02-2.46 1.3 0 2.56.74 2.86 2.46h-5.88zm11.041-5.66c.76 0 1.38-.64 1.38-1.38 0-.76-.62-1.38-1.38-1.38-.76 0-1.38.62-1.38 1.38 0 .74.62 1.38 1.38 1.38zm-1.08 11.5h2.16V71h-2.16v10zm11.448-10l-2.78 7.6-2.8-7.6h-2.36l3.9 10h2.5l3.9-10h-2.36zm5.037 5.92h7.96c.04-.28.08-.6.08-.9 0-2.88-2.04-5.28-5.02-5.28-3.14 0-5.28 2.3-5.28 5.26 0 3 2.14 5.26 5.44 5.26 1.96 0 3.46-.82 4.38-2.18l-1.78-1.04c-.48.7-1.38 1.24-2.58 1.24-1.6 0-2.86-.8-3.2-2.36zm-.02-1.76c.3-1.5 1.4-2.46 3.02-2.46 1.3 0 2.56.74 2.86 2.46h-5.88zm17.121-2.48V71h-2.16v10h2.16v-5.04c0-2.24 1.66-2.9 3.08-2.8v-2.34c-1.26 0-2.48.5-3.08 1.86zm5.907 4.24h7.96c.04-.28.08-.6.08-.9 0-2.88-2.04-5.28-5.02-5.28-3.14 0-5.28 2.3-5.28 5.26 0 3 2.14 5.26 5.44 5.26 1.96 0 3.46-.82 4.38-2.18l-1.78-1.04c-.48.7-1.38 1.24-2.58 1.24-1.6 0-2.86-.8-3.2-2.36zm-.02-1.76c.3-1.5 1.4-2.46 3.02-2.46 1.3 0 2.56.74 2.86 2.46h-5.88zm11.041-5.66c.76 0 1.38-.64 1.38-1.38 0-.76-.62-1.38-1.38-1.38-.76 0-1.38.62-1.38 1.38 0 .74.62 1.38 1.38 1.38zM922.28 81h2.16V71h-2.16v10zm15.588-10.26c-1.34 0-2.4.54-3.06 1.58-.58-1-1.54-1.58-2.84-1.58-1.24 0-2.22.48-2.86 1.46V71h-2.16v10h2.16v-5.6c0-1.82 1-2.64 2.22-2.64 1.18 0 1.88.78 1.88 2.18V81h2.16v-5.6c0-1.82.9-2.64 2.18-2.64 1.18 0 1.94.78 1.94 2.18V81h2.16v-6.2c0-2.5-1.52-4.06-3.78-4.06zm11.751 0c-1.56 0-2.74.64-3.5 1.68V67h-2.16v14h2.16v-1.44c.76 1.06 1.94 1.7 3.5 1.7 2.72 0 4.98-2.3 4.98-5.26 0-2.98-2.26-5.26-4.98-5.26zm-.34 8.46c-1.8 0-3.16-1.34-3.16-3.2s1.36-3.2 3.16-3.2 3.16 1.34 3.16 3.2-1.36 3.2-3.16 3.2zm14.018-8.2v5.36c0 2.04-1.12 2.88-2.54 2.88-1.36 0-2.24-.8-2.24-2.32V71h-2.16v6.14c0 2.6 1.6 4.12 3.84 4.12 1.36 0 2.44-.5 3.1-1.54V81h2.16V71h-2.16zm6.846 1.68V71h-2.16v10h2.16v-5.04c0-2.24 1.66-2.9 3.08-2.8v-2.34c-1.26 0-2.48.5-3.08 1.86zm6.264 1.08c0-.72.68-1.06 1.46-1.06.82 0 1.52.36 1.88 1.14l1.82-1.02c-.7-1.32-2.06-2.08-3.7-2.08-2.04 0-3.66 1.18-3.66 3.06 0 3.58 5.38 2.58 5.38 4.36 0 .8-.74 1.12-1.7 1.12-1.1 0-1.9-.54-2.22-1.44l-1.86 1.08c.64 1.44 2.08 2.34 4.08 2.34 2.16 0 3.9-1.08 3.9-3.08 0-3.7-5.38-2.6-5.38-4.42zm8.725 3.16h7.96c.04-.28.08-.6.08-.9 0-2.88-2.04-5.28-5.02-5.28-3.14 0-5.28 2.3-5.28 5.26 0 3 2.14 5.26 5.44 5.26 1.96 0 3.46-.82 4.38-2.18l-1.78-1.04c-.48.7-1.38 1.24-2.58 1.24-1.6 0-2.86-.8-3.2-2.36zm-.02-1.76c.3-1.5 1.4-2.46 3.02-2.46 1.3 0 2.56.74 2.86 2.46h-5.88zm20.878-4.42c-1.34 0-2.4.54-3.06 1.58-.58-1-1.54-1.58-2.84-1.58-1.237 0-2.217.48-2.857 1.46V71h-2.16v10h2.16v-5.6c0-1.82 1-2.64 2.22-2.64 1.177 0 1.877.78 1.877 2.18V81h2.16v-5.6c0-1.82.9-2.64 2.18-2.64 1.18 0 1.94.78 1.94 2.18V81h2.16v-6.2c0-2.5-1.52-4.06-3.78-4.06zm7.79 6.18h7.96c.04-.28.08-.6.08-.9 0-2.88-2.04-5.28-5.02-5.28-3.14 0-5.28 2.3-5.28 5.26 0 3 2.14 5.26 5.44 5.26 1.96 0 3.46-.82 4.38-2.18l-1.78-1.04c-.48.7-1.38 1.24-2.58 1.24-1.6 0-2.86-.8-3.2-2.36zm-.02-1.76c.3-1.5 1.4-2.46 3.02-2.46 1.3 0 2.56.74 2.86 2.46h-5.88zm15.22-4.42c-1.36 0-2.44.5-3.1 1.54V71h-2.16v10h2.16v-5.36c0-2.04 1.12-2.88 2.54-2.88 1.36 0 2.24.8 2.24 2.32V81h2.16v-6.14c0-2.6-1.6-4.12-3.84-4.12zm11.75 2.34V71h-2.48v-2.8l-2.16.64V71h-1.84v2.08h1.84v4.8c0 2.6 1.32 3.52 4.64 3.12v-1.94c-1.64.08-2.48.1-2.48-1.18v-4.8h2.48z" fill="#1A1A1A"/>
  <path d="M810 51h248v-2H810v2zm255 7v32h2V58h-2zm-7 39H810v2h248v-2zm-255-7V58h-2v32h2zm7 7a7 7 0 01-7-7h-2a9 9 0 009 9v-2zm255-7c0 3.866-3.13 7-7 7v2a9 9 0 009-9h-2zm-7-39c3.87 0 7 3.134 7 7h2a9 9 0 00-9-9v2zm-248-2a9 9 0 00-9 9h2a7 7 0 017-7v-2z" fill="#800040"/>
  <path d="M296 138a8 8 0 018-8h226a8 8 0 018 8v32a8 8 0 01-8 8H304a8 8 0 01-8-8v-32z" fill="#fff"/>
  <path d="M326.512 159.192c2.096 0 3.936-1.104 4.848-2.768l-.992-.56c-.688 1.344-2.176 2.24-3.856 2.24-2.832 0-4.752-2.096-4.752-4.704 0-2.608 1.92-4.704 4.752-4.704 1.68 0 3.168.896 3.856 2.24l.992-.576c-.928-1.664-2.768-2.752-4.848-2.752-3.44 0-5.872 2.592-5.872 5.792 0 3.2 2.432 5.792 5.872 5.792zm7.586-6.864V151h-1.056v8h1.056v-4.448c0-1.984 1.248-2.656 2.528-2.656v-1.024c-1.024 0-1.968.336-2.528 1.456zm7.187-1.52c-2.48 0-4.176 1.84-4.176 4.192 0 2.416 1.728 4.192 4.256 4.192 1.616 0 2.848-.752 3.52-1.84l-.928-.544c-.432.768-1.312 1.36-2.576 1.36-1.696 0-2.96-1.008-3.184-2.64h7.024a5.16 5.16 0 00.032-.496c0-2.192-1.52-4.224-3.968-4.224zm0 1.024c1.376 0 2.656.912 2.88 2.672h-5.968c.208-1.568 1.408-2.672 3.088-2.672zm12.527-.832v1.568c-.671-1.072-1.807-1.76-3.231-1.76-2.256 0-4.128 1.824-4.128 4.192 0 2.368 1.872 4.192 4.128 4.192 1.424 0 2.56-.688 3.231-1.76V159h1.057v-8h-1.057zm-3.151 7.168c-1.776 0-3.152-1.392-3.152-3.168 0-1.776 1.376-3.168 3.152-3.168 1.776 0 3.151 1.392 3.151 3.168 0 1.776-1.375 3.168-3.151 3.168zm10.683-6.144V151h-2.304v-2.24l-1.056.32V151h-1.68v1.024h1.68v4.848c0 1.92 1.2 2.448 3.36 2.128v-.928c-1.552.064-2.304.176-2.304-1.2v-4.848h2.304zm4.972-1.216c-2.48 0-4.176 1.84-4.176 4.192 0 2.416 1.728 4.192 4.256 4.192 1.616 0 2.848-.752 3.52-1.84l-.928-.544c-.432.768-1.312 1.36-2.576 1.36-1.696 0-2.96-1.008-3.184-2.64h7.024a5.16 5.16 0 00.032-.496c0-2.192-1.52-4.224-3.968-4.224zm0 1.024c1.376 0 2.656.912 2.88 2.672h-5.968c.208-1.568 1.408-2.672 3.088-2.672zm16.528-.832v1.568c-.672-1.072-1.808-1.76-3.232-1.76-2.256 0-4.128 1.824-4.128 4.192 0 2.368 1.872 4.192 4.128 4.192 1.424 0 2.56-.688 3.232-1.76V159h1.056v-8h-1.056zm-3.152 7.168c-1.776 0-3.152-1.392-3.152-3.168 0-1.776 1.376-3.168 3.152-3.168 1.776 0 3.152 1.392 3.152 3.168 0 1.776-1.376 3.168-3.152 3.168zm10.188-7.36c-1.136 0-2.064.432-2.688 1.44V151h-1.056v8h1.056v-4.192c0-2.144 1.184-2.976 2.592-2.976 1.392 0 2.176.832 2.176 2.256V159h1.056v-4.912c0-2-1.184-3.28-3.136-3.28zm12.058-3.008v4.768c-.672-1.072-1.808-1.76-3.232-1.76-2.256 0-4.128 1.824-4.128 4.192 0 2.368 1.872 4.192 4.128 4.192 1.424 0 2.56-.688 3.232-1.76V159h1.056v-11.2h-1.056zm-3.152 10.368c-1.776 0-3.152-1.392-3.152-3.168 0-1.776 1.376-3.168 3.152-3.168 1.776 0 3.152 1.392 3.152 3.168 0 1.776-1.376 3.168-3.152 3.168zm17.323-10.368v4.768c-.672-1.072-1.808-1.76-3.232-1.76-2.256 0-4.128 1.824-4.128 4.192 0 2.368 1.872 4.192 4.128 4.192 1.424 0 2.56-.688 3.232-1.76V159h1.056v-11.2h-1.056zm-3.152 10.368c-1.776 0-3.152-1.392-3.152-3.168 0-1.776 1.376-3.168 3.152-3.168 1.776 0 3.152 1.392 3.152 3.168 0 1.776-1.376 3.168-3.152 3.168zm10.14-7.36c-2.48 0-4.176 1.84-4.176 4.192 0 2.416 1.728 4.192 4.256 4.192 1.616 0 2.848-.752 3.52-1.84l-.928-.544c-.432.768-1.312 1.36-2.576 1.36-1.696 0-2.96-1.008-3.184-2.64h7.024a5.16 5.16 0 00.032-.496c0-2.192-1.52-4.224-3.968-4.224zm0 1.024c1.376 0 2.656.912 2.88 2.672h-5.968c.208-1.568 1.408-2.672 3.088-2.672zm5.648 7.168h1.056v-11.68h-1.056V159zm6.993-8.192c-2.48 0-4.176 1.84-4.176 4.192 0 2.416 1.728 4.192 4.256 4.192 1.616 0 2.848-.752 3.52-1.84l-.928-.544c-.432.768-1.312 1.36-2.576 1.36-1.696 0-2.96-1.008-3.184-2.64h7.024a5.16 5.16 0 00.032-.496c0-2.192-1.52-4.224-3.968-4.224zm0 1.024c1.376 0 2.656.912 2.88 2.672h-5.968c.208-1.568 1.408-2.672 3.088-2.672zm9.653.192V151h-2.304v-2.24l-1.056.32V151h-1.68v1.024h1.68v4.848c0 1.92 1.2 2.448 3.36 2.128v-.928c-1.552.064-2.304.176-2.304-1.2v-4.848h2.304zm4.972-1.216c-2.48 0-4.176 1.84-4.176 4.192 0 2.416 1.728 4.192 4.256 4.192 1.616 0 2.848-.752 3.52-1.84l-.928-.544c-.432.768-1.312 1.36-2.576 1.36-1.696 0-2.96-1.008-3.184-2.64h7.024a5.16 5.16 0 00.032-.496c0-2.192-1.52-4.224-3.968-4.224zm0 1.024c1.376 0 2.656.912 2.88 2.672h-5.968c.208-1.568 1.408-2.672 3.088-2.672zm10.704.496V151h-1.056v8h1.056v-4.448c0-1.984 1.248-2.656 2.528-2.656v-1.024c-1.024 0-1.968.336-2.528 1.456zm7.187-1.52c-2.48 0-4.176 1.84-4.176 4.192 0 2.416 1.728 4.192 4.256 4.192 1.616 0 2.848-.752 3.52-1.84l-.928-.544c-.432.768-1.312 1.36-2.576 1.36-1.696 0-2.96-1.008-3.184-2.64h7.024a5.16 5.16 0 00.032-.496c0-2.192-1.52-4.224-3.968-4.224zm0 1.024c1.376 0 2.656.912 2.88 2.672h-5.968c.208-1.568 1.408-2.672 3.088-2.672zm9.375 7.36c1.568 0 2.928-.816 3.584-2.08l-.88-.512c-.512.928-1.488 1.568-2.704 1.568-1.776 0-3.152-1.392-3.152-3.168 0-1.776 1.376-3.168 3.152-3.168 1.2 0 2.208.624 2.64 1.568l.864-.496c-.576-1.264-1.92-2.096-3.504-2.096-2.416 0-4.208 1.824-4.208 4.192 0 2.368 1.792 4.192 4.208 4.192zm8.75 0c2.336 0 4.208-1.824 4.208-4.192 0-2.368-1.872-4.192-4.208-4.192-2.336 0-4.208 1.824-4.208 4.192 0 2.368 1.872 4.192 4.208 4.192zm0-1.024c-1.776 0-3.152-1.392-3.152-3.168 0-1.776 1.376-3.168 3.152-3.168 1.776 0 3.152 1.392 3.152 3.168 0 1.776-1.376 3.168-3.152 3.168zm7.031-5.84V151h-1.056v8h1.056v-4.448c0-1.984 1.248-2.656 2.528-2.656v-1.024c-1.024 0-1.968.336-2.528 1.456zm10.371-4.528v4.768c-.672-1.072-1.808-1.76-3.232-1.76-2.256 0-4.128 1.824-4.128 4.192 0 2.368 1.872 4.192 4.128 4.192 1.424 0 2.56-.688 3.232-1.76V159h1.056v-11.2h-1.056zm-3.152 10.368c-1.776 0-3.152-1.392-3.152-3.168 0-1.776 1.376-3.168 3.152-3.168 1.776 0 3.152 1.392 3.152 3.168 0 1.776-1.376 3.168-3.152 3.168zm7.276-5.072c0-.864.848-1.264 1.68-1.264.768 0 1.584.304 1.92 1.12l.88-.512c-.464-.992-1.488-1.632-2.8-1.632-1.6 0-2.736 1.008-2.736 2.288 0 2.944 4.672 1.808 4.672 3.792 0 .944-.896 1.28-1.84 1.28-1.072 0-1.904-.528-2.192-1.344l-.896.528c.4 1.024 1.488 1.84 3.088 1.84 1.712 0 2.896-.944 2.896-2.304 0-2.944-4.672-1.808-4.672-3.792z" fill="#1A1A1A"/>
  <path d="M304 131h226v-2H304v2zm233 7v32h2v-32h-2zm-7 39H304v2h226v-2zm-233-7v-32h-2v32h2zm7 7a7 7 0 01-7-7h-2a9 9 0 009 9v-2zm233-7a7 7 0 01-7 7v2a9 9 0 009-9h-2zm-7-39a7 7 0 017 7h2a9 9 0 00-9-9v2zm-226-2a9 9 0 00-9 9h2a7 7 0 017-7v-2z" fill="#366B00"/>
  <path d="M296 218a8 8 0 018-8h270a8 8 0 018 8v32a8 8 0 01-8 8H304a8 8 0 01-8-8v-32z" fill="#fff"/>
  <path d="M328.736 239h1.184l-4.304-11.2h-1.152L320.16 239h1.184l1.04-2.752h5.312l1.04 2.752zm-5.952-3.808l2.256-6 2.256 6h-4.512zm11.986 4c1.568 0 2.928-.816 3.584-2.08l-.88-.512c-.512.928-1.488 1.568-2.704 1.568-1.776 0-3.152-1.392-3.152-3.168 0-1.776 1.376-3.168 3.152-3.168 1.2 0 2.208.624 2.64 1.568l.864-.496c-.576-1.264-1.92-2.096-3.504-2.096-2.416 0-4.208 1.824-4.208 4.192 0 2.368 1.792 4.192 4.208 4.192zm9.34-7.168V231h-2.304v-2.24l-1.056.32V231h-1.68v1.024h1.68v4.848c0 1.92 1.2 2.448 3.36 2.128v-.928c-1.552.064-2.304.176-2.304-1.2v-4.848h2.304zm2.288-2.72a.768.768 0 100-1.536.768.768 0 000 1.536zM345.87 239h1.056v-8h-1.056v8zm9.057-8l-2.8 6.896-2.8-6.896h-1.12l3.28 8h1.28l3.28-8h-1.12zm8.964 0v1.568c-.672-1.072-1.808-1.76-3.232-1.76-2.256 0-4.128 1.824-4.128 4.192 0 2.368 1.872 4.192 4.128 4.192 1.424 0 2.56-.688 3.232-1.76V239h1.056v-8h-1.056zm-3.152 7.168c-1.776 0-3.152-1.392-3.152-3.168 0-1.776 1.376-3.168 3.152-3.168 1.776 0 3.152 1.392 3.152 3.168 0 1.776-1.376 3.168-3.152 3.168zm10.684-6.144V231h-2.304v-2.24l-1.057.32V231h-1.679v1.024h1.679v4.848c0 1.92 1.201 2.448 3.361 2.128v-.928c-1.552.064-2.304.176-2.304-1.2v-4.848h2.304zm4.971-1.216c-2.48 0-4.176 1.84-4.176 4.192 0 2.416 1.728 4.192 4.256 4.192 1.616 0 2.848-.752 3.52-1.84l-.928-.544c-.432.768-1.312 1.36-2.576 1.36-1.696 0-2.96-1.008-3.184-2.64h7.024a5.16 5.16 0 00.032-.496c0-2.192-1.52-4.224-3.968-4.224zm0 1.024c1.376 0 2.656.912 2.88 2.672h-5.968c.208-1.568 1.408-2.672 3.088-2.672zm16.528-.832v1.568c-.672-1.072-1.808-1.76-3.232-1.76-2.256 0-4.128 1.824-4.128 4.192 0 2.368 1.872 4.192 4.128 4.192 1.424 0 2.56-.688 3.232-1.76V239h1.056v-8h-1.056zm-3.152 7.168c-1.776 0-3.152-1.392-3.152-3.168 0-1.776 1.376-3.168 3.152-3.168 1.776 0 3.152 1.392 3.152 3.168 0 1.776-1.376 3.168-3.152 3.168zm10.188-7.36c-1.136 0-2.064.432-2.688 1.44V231h-1.056v8h1.056v-4.192c0-2.144 1.184-2.976 2.592-2.976 1.392 0 2.176.832 2.176 2.256V239h1.056v-4.912c0-2-1.184-3.28-3.136-3.28zm12.058-3.008v4.768c-.672-1.072-1.808-1.76-3.232-1.76-2.256 0-4.128 1.824-4.128 4.192 0 2.368 1.872 4.192 4.128 4.192 1.424 0 2.56-.688 3.232-1.76V239h1.056v-11.2h-1.056zm-3.152 10.368c-1.776 0-3.152-1.392-3.152-3.168 0-1.776 1.376-3.168 3.152-3.168 1.776 0 3.152 1.392 3.152 3.168 0 1.776-1.376 3.168-3.152 3.168zm17.324-10.368v4.768c-.672-1.072-1.808-1.76-3.232-1.76-2.256 0-4.128 1.824-4.128 4.192 0 2.368 1.872 4.192 4.128 4.192 1.424 0 2.56-.688 3.232-1.76V239h1.056v-11.2h-1.056zm-3.152 10.368c-1.776 0-3.152-1.392-3.152-3.168 0-1.776 1.376-3.168 3.152-3.168 1.776 0 3.152 1.392 3.152 3.168 0 1.776-1.376 3.168-3.152 3.168zm10.139-7.36c-2.48 0-4.176 1.84-4.176 4.192 0 2.416 1.728 4.192 4.256 4.192 1.616 0 2.848-.752 3.52-1.84l-.928-.544c-.432.768-1.312 1.36-2.576 1.36-1.696 0-2.96-1.008-3.184-2.64h7.024a5.16 5.16 0 00.032-.496c0-2.192-1.52-4.224-3.968-4.224zm0 1.024c1.376 0 2.656.912 2.88 2.672h-5.968c.208-1.568 1.408-2.672 3.088-2.672zm12.528-.832v1.568c-.672-1.072-1.808-1.76-3.232-1.76-2.256 0-4.128 1.824-4.128 4.192 0 2.368 1.872 4.192 4.128 4.192 1.424 0 2.56-.688 3.232-1.76V239h1.056v-8h-1.056zm-3.152 7.168c-1.776 0-3.152-1.392-3.152-3.168 0-1.776 1.376-3.168 3.152-3.168 1.776 0 3.152 1.392 3.152 3.168 0 1.776-1.376 3.168-3.152 3.168zm10.172 1.024c1.568 0 2.928-.816 3.584-2.08l-.88-.512c-.512.928-1.488 1.568-2.704 1.568-1.776 0-3.152-1.392-3.152-3.168 0-1.776 1.376-3.168 3.152-3.168 1.2 0 2.208.624 2.64 1.568l.864-.496c-.576-1.264-1.92-2.096-3.504-2.096-2.416 0-4.208 1.824-4.208 4.192 0 2.368 1.792 4.192 4.208 4.192zm9.34-7.168V231h-2.304v-2.24l-1.056.32V231h-1.68v1.024h1.68v4.848c0 1.92 1.2 2.448 3.36 2.128v-.928c-1.552.064-2.304.176-2.304-1.2v-4.848h2.304zm2.288-2.72a.768.768 0 100-1.536.768.768 0 000 1.536zm-.528 9.696h1.056v-8h-1.056v8zm9.057-8l-2.8 6.896-2.8-6.896h-1.12l3.28 8h1.28l3.28-8h-1.12zm8.964 0v1.568c-.672-1.072-1.808-1.76-3.232-1.76-2.256 0-4.128 1.824-4.128 4.192 0 2.368 1.872 4.192 4.128 4.192 1.424 0 2.56-.688 3.232-1.76V239h1.056v-8h-1.056zm-3.152 7.168c-1.776 0-3.152-1.392-3.152-3.168 0-1.776 1.376-3.168 3.152-3.168 1.776 0 3.152 1.392 3.152 3.168 0 1.776-1.376 3.168-3.152 3.168zm10.684-6.144V231h-2.304v-2.24l-1.056.32V231h-1.68v1.024h1.68v4.848c0 1.92 1.2 2.448 3.36 2.128v-.928c-1.552.064-2.304.176-2.304-1.2v-4.848h2.304zm4.971-1.216c-2.48 0-4.176 1.84-4.176 4.192 0 2.416 1.728 4.192 4.256 4.192 1.616 0 2.848-.752 3.52-1.84l-.928-.544c-.432.768-1.312 1.36-2.576 1.36-1.696 0-2.96-1.008-3.184-2.64h7.024a5.16 5.16 0 00.032-.496c0-2.192-1.52-4.224-3.968-4.224zm0 1.024c1.376 0 2.656.912 2.88 2.672h-5.968c.208-1.568 1.408-2.672 3.088-2.672zm10.704.496V231h-1.056v8h1.056v-4.448c0-1.984 1.248-2.656 2.528-2.656v-1.024c-1.024 0-1.968.336-2.528 1.456zm7.187-1.52c-2.48 0-4.176 1.84-4.176 4.192 0 2.416 1.728 4.192 4.256 4.192 1.616 0 2.848-.752 3.52-1.84l-.928-.544c-.432.768-1.312 1.36-2.576 1.36-1.696 0-2.96-1.008-3.184-2.64h7.024a5.16 5.16 0 00.032-.496c0-2.192-1.52-4.224-3.968-4.224zm0 1.024c1.376 0 2.656.912 2.88 2.672h-5.968c.208-1.568 1.408-2.672 3.088-2.672zm9.376 7.36c1.568 0 2.928-.816 3.584-2.08l-.88-.512c-.512.928-1.488 1.568-2.704 1.568-1.776 0-3.152-1.392-3.152-3.168 0-1.776 1.376-3.168 3.152-3.168 1.2 0 2.208.624 2.64 1.568l.864-.496c-.576-1.264-1.92-2.096-3.504-2.096-2.416 0-4.208 1.824-4.208 4.192 0 2.368 1.792 4.192 4.208 4.192zm8.75 0c2.336 0 4.208-1.824 4.208-4.192 0-2.368-1.872-4.192-4.208-4.192-2.336 0-4.208 1.824-4.208 4.192 0 2.368 1.872 4.192 4.208 4.192zm0-1.024c-1.776 0-3.152-1.392-3.152-3.168 0-1.776 1.376-3.168 3.152-3.168 1.776 0 3.152 1.392 3.152 3.168 0 1.776-1.376 3.168-3.152 3.168zm7.031-5.84V231h-1.056v8h1.056v-4.448c0-1.984 1.248-2.656 2.528-2.656v-1.024c-1.024 0-1.968.336-2.528 1.456zm10.371-4.528v4.768c-.672-1.072-1.808-1.76-3.232-1.76-2.256 0-4.128 1.824-4.128 4.192 0 2.368 1.872 4.192 4.128 4.192 1.424 0 2.56-.688 3.232-1.76V239h1.056v-11.2h-1.056zm-3.152 10.368c-1.776 0-3.152-1.392-3.152-3.168 0-1.776 1.376-3.168 3.152-3.168 1.776 0 3.152 1.392 3.152 3.168 0 1.776-1.376 3.168-3.152 3.168zm7.276-5.072c0-.864.848-1.264 1.68-1.264.768 0 1.584.304 1.92 1.12l.88-.512c-.464-.992-1.488-1.632-2.8-1.632-1.6 0-2.736 1.008-2.736 2.288 0 2.944 4.672 1.808 4.672 3.792 0 .944-.896 1.28-1.84 1.28-1.072 0-1.904-.528-2.192-1.344l-.896.528c.4 1.024 1.488 1.84 3.088 1.84 1.712 0 2.896-.944 2.896-2.304 0-2.944-4.672-1.808-4.672-3.792z" fill="#1A1A1A"/>
  <path d="M304 211h270v-2H304v2zm277 7v32h2v-32h-2zm-7 39H304v2h270v-2zm-277-7v-32h-2v32h2zm7 7a7 7 0 01-7-7h-2a9 9 0 009 9v-2zm277-7a7 7 0 01-7 7v2a9 9 0 009-9h-2zm-7-39a7 7 0 017 7h2a9 9 0 00-9-9v2zm-270-2a9 9 0 00-9 9h2a7 7 0 017-7v-2z" fill="#366B00"/>
  <path d="M296 298a8 8 0 018-8h358a8 8 0 018 8v32a8 8 0 01-8 8H304a8 8 0 01-8-8v-32z" fill="#fff"/>
  <path d="M322.4 317.944v-4.064h4.96v-1.056h-4.96v-3.968h5.36V307.8h-6.48V319h6.56v-1.056h-5.44zm13.928-10.144v4.768c-.672-1.072-1.808-1.76-3.232-1.76-2.256 0-4.128 1.824-4.128 4.192 0 2.368 1.872 4.192 4.128 4.192 1.424 0 2.56-.688 3.232-1.76V319h1.056v-11.2h-1.056zm-3.152 10.368c-1.776 0-3.152-1.392-3.152-3.168 0-1.776 1.376-3.168 3.152-3.168 1.776 0 3.152 1.392 3.152 3.168 0 1.776-1.376 3.168-3.152 3.168zm6.972-8.864a.768.768 0 100-1.536.768.768 0 000 1.536zM339.62 319h1.056v-8h-1.056v8zm7.537-6.976V311h-2.304v-2.24l-1.056.32V311h-1.68v1.024h1.68v4.848c0 1.92 1.2 2.448 3.36 2.128v-.928c-1.552.064-2.304.176-2.304-1.2v-4.848h2.304zm12.64-4.224v4.768c-.672-1.072-1.808-1.76-3.232-1.76-2.256 0-4.128 1.824-4.128 4.192 0 2.368 1.872 4.192 4.128 4.192 1.424 0 2.56-.688 3.232-1.76V319h1.056v-11.2h-1.056zm-3.152 10.368c-1.776 0-3.152-1.392-3.152-3.168 0-1.776 1.376-3.168 3.152-3.168 1.776 0 3.152 1.392 3.152 3.168 0 1.776-1.376 3.168-3.152 3.168zm10.14-7.36c-2.48 0-4.176 1.84-4.176 4.192 0 2.416 1.728 4.192 4.256 4.192 1.616 0 2.848-.752 3.52-1.84l-.928-.544c-.432.768-1.312 1.36-2.576 1.36-1.696 0-2.96-1.008-3.184-2.64h7.024a5.16 5.16 0 00.032-.496c0-2.192-1.52-4.224-3.968-4.224zm0 1.024c1.376 0 2.656.912 2.88 2.672h-5.968c.208-1.568 1.408-2.672 3.088-2.672zm9.653.192V311h-2.304v-2.24l-1.056.32V311h-1.68v1.024h1.68v4.848c0 1.92 1.2 2.448 3.36 2.128v-.928c-1.552.064-2.304.176-2.304-1.2v-4.848h2.304zm8.156-1.024v1.568c-.672-1.072-1.808-1.76-3.232-1.76-2.256 0-4.128 1.824-4.128 4.192 0 2.368 1.872 4.192 4.128 4.192 1.424 0 2.56-.688 3.232-1.76V319h1.056v-8h-1.056zm-3.152 7.168c-1.776 0-3.152-1.392-3.152-3.168 0-1.776 1.376-3.168 3.152-3.168 1.776 0 3.152 1.392 3.152 3.168 0 1.776-1.376 3.168-3.152 3.168zm6.972-8.864a.768.768 0 100-1.536.768.768 0 000 1.536zm-.528 9.696h1.056v-8h-1.056v8zm3.297 0h1.056v-11.68h-1.056V319zm4.128-5.904c0-.864.848-1.264 1.68-1.264.768 0 1.584.304 1.92 1.12l.88-.512c-.464-.992-1.488-1.632-2.8-1.632-1.6 0-2.736 1.008-2.736 2.288 0 2.944 4.672 1.808 4.672 3.792 0 .944-.896 1.28-1.84 1.28-1.072 0-1.904-.528-2.192-1.344l-.896.528c.4 1.024 1.488 1.84 3.088 1.84 1.712 0 2.896-.944 2.896-2.304 0-2.944-4.672-1.808-4.672-3.792zM412.625 311v1.568c-.672-1.072-1.808-1.76-3.232-1.76-2.256 0-4.128 1.824-4.128 4.192 0 2.368 1.872 4.192 4.128 4.192 1.424 0 2.56-.688 3.232-1.76V319h1.056v-8h-1.056zm-3.152 7.168c-1.776 0-3.152-1.392-3.152-3.168 0-1.776 1.376-3.168 3.152-3.168 1.776 0 3.152 1.392 3.152 3.168 0 1.776-1.376 3.168-3.152 3.168zm7.276-5.072c0-.864.848-1.264 1.68-1.264.768 0 1.584.304 1.92 1.12l.88-.512c-.464-.992-1.488-1.632-2.8-1.632-1.6 0-2.736 1.008-2.736 2.288 0 2.944 4.672 1.808 4.672 3.792 0 .944-.896 1.28-1.84 1.28-1.072 0-1.904-.528-2.192-1.344l-.896.528c.4 1.024 1.488 1.84 3.088 1.84 1.712 0 2.896-.944 2.896-2.304 0-2.944-4.672-1.808-4.672-3.792zm6.781 0c0-.864.848-1.264 1.68-1.264.768 0 1.584.304 1.92 1.12l.88-.512c-.464-.992-1.488-1.632-2.8-1.632-1.6 0-2.736 1.008-2.736 2.288 0 2.944 4.672 1.808 4.672 3.792 0 .944-.896 1.28-1.84 1.28-1.072 0-1.904-.528-2.192-1.344l-.896.528c.4 1.024 1.488 1.84 3.088 1.84 1.712 0 2.896-.944 2.896-2.304 0-2.944-4.672-1.808-4.672-3.792zm9.927 6.096c2.336 0 4.208-1.824 4.208-4.192 0-2.368-1.872-4.192-4.208-4.192-2.336 0-4.208 1.824-4.208 4.192 0 2.368 1.872 4.192 4.208 4.192zm0-1.024c-1.776 0-3.152-1.392-3.152-3.168 0-1.776 1.376-3.168 3.152-3.168 1.776 0 3.152 1.392 3.152 3.168 0 1.776-1.376 3.168-3.152 3.168zm9.704 1.024c1.568 0 2.928-.816 3.584-2.08l-.88-.512c-.512.928-1.488 1.568-2.704 1.568-1.776 0-3.152-1.392-3.152-3.168 0-1.776 1.376-3.168 3.152-3.168 1.2 0 2.208.624 2.64 1.568l.864-.496c-.576-1.264-1.92-2.096-3.504-2.096-2.416 0-4.208 1.824-4.208 4.192 0 2.368 1.792 4.192 4.208 4.192zm5.628-9.888a.768.768 0 100-1.536.768.768 0 000 1.536zm-.528 9.696h1.056v-8h-1.056v8zm10.177-8v1.568c-.672-1.072-1.808-1.76-3.232-1.76-2.256 0-4.128 1.824-4.128 4.192 0 2.368 1.872 4.192 4.128 4.192 1.424 0 2.56-.688 3.232-1.76V319h1.056v-8h-1.056zm-3.152 7.168c-1.776 0-3.152-1.392-3.152-3.168 0-1.776 1.376-3.168 3.152-3.168 1.776 0 3.152 1.392 3.152 3.168 0 1.776-1.376 3.168-3.152 3.168zm10.683-6.144V311h-2.304v-2.24l-1.056.32V311h-1.68v1.024h1.68v4.848c0 1.92 1.2 2.448 3.36 2.128v-.928c-1.552.064-2.304.176-2.304-1.2v-4.848h2.304zm4.972-1.216c-2.48 0-4.176 1.84-4.176 4.192 0 2.416 1.728 4.192 4.256 4.192 1.616 0 2.848-.752 3.52-1.84l-.928-.544c-.432.768-1.312 1.36-2.576 1.36-1.696 0-2.96-1.008-3.184-2.64h7.024a5.16 5.16 0 00.032-.496c0-2.192-1.52-4.224-3.968-4.224zm0 1.024c1.376 0 2.656.912 2.88 2.672h-5.968c.208-1.568 1.408-2.672 3.088-2.672zm12.528-4.032v4.768c-.672-1.072-1.808-1.76-3.232-1.76-2.256 0-4.128 1.824-4.128 4.192 0 2.368 1.872 4.192 4.128 4.192 1.424 0 2.56-.688 3.232-1.76V319h1.056v-11.2h-1.056zm-3.152 10.368c-1.776 0-3.152-1.392-3.152-3.168 0-1.776 1.376-3.168 3.152-3.168 1.776 0 3.152 1.392 3.152 3.168 0 1.776-1.376 3.168-3.152 3.168zM500.393 311l-1.968 6.64-2.096-6.64h-1.056l-2.096 6.64-1.968-6.64h-1.088l2.464 8h1.152l2.064-6.448 2.064 6.448h1.152l2.464-8h-1.088zm3.208-1.696a.768.768 0 100-1.536.768.768 0 000 1.536zm-.528 9.696h1.056v-8h-1.056v8zm7.537-6.976V311h-2.304v-2.24l-1.056.32V311h-1.68v1.024h1.68v4.848c0 1.92 1.2 2.448 3.36 2.128v-.928c-1.552.064-2.304.176-2.304-1.2v-4.848h2.304zm5.504-1.216c-1.136 0-2.064.432-2.688 1.44V307.8h-1.056V319h1.056v-4.192c0-2.144 1.184-2.976 2.592-2.976 1.392 0 2.176.832 2.176 2.256V319h1.056v-4.912c0-2-1.184-3.28-3.136-3.28zm16.058.192v1.568c-.672-1.072-1.808-1.76-3.232-1.76-2.256 0-4.128 1.824-4.128 4.192 0 2.368 1.872 4.192 4.128 4.192 1.424 0 2.56-.688 3.232-1.76V319h1.056v-8h-1.056zm-3.152 7.168c-1.776 0-3.152-1.392-3.152-3.168 0-1.776 1.376-3.168 3.152-3.168 1.776 0 3.152 1.392 3.152 3.168 0 1.776-1.376 3.168-3.152 3.168zm10.188-7.36c-1.136 0-2.064.432-2.688 1.44V311h-1.056v8h1.056v-4.192c0-2.144 1.184-2.976 2.592-2.976 1.392 0 2.176.832 2.176 2.256V319h1.056v-4.912c0-2-1.184-3.28-3.136-3.28zm10.781.192l-2.592 6.704-3.008-6.704h-1.12l3.584 8.048-.208.496c-.432 1.04-1.152 1.776-2.192 1.664v.992c1.44.112 2.624-.928 3.232-2.464l3.424-8.736h-1.12zm13.277 0v1.568c-.672-1.072-1.808-1.76-3.232-1.76-2.256 0-4.128 1.824-4.128 4.192 0 2.368 1.872 4.192 4.128 4.192 1.424 0 2.56-.688 3.232-1.76v1.248c0 1.632-1.104 2.688-2.96 2.688-1.728 0-2.464-.64-2.864-1.456l-.928.528c.624 1.248 1.952 1.952 3.792 1.952 2.064 0 4.016-1.28 4.016-3.712V311h-1.056zm-3.152 7.168c-1.776 0-3.152-1.392-3.152-3.168 0-1.776 1.376-3.168 3.152-3.168 1.776 0 3.152 1.392 3.152 3.168 0 1.776-1.376 3.168-3.152 3.168zm6.972-8.864a.768.768 0 100-1.536.768.768 0 000 1.536zm-.528 9.696h1.056v-8h-1.056v8zm9.056-8l-2.8 6.896-2.8-6.896h-1.12l3.28 8h1.28l3.28-8h-1.12zm5.78-.192c-2.48 0-4.176 1.84-4.176 4.192 0 2.416 1.728 4.192 4.256 4.192 1.616 0 2.848-.752 3.52-1.84l-.928-.544c-.432.768-1.312 1.36-2.576 1.36-1.696 0-2.96-1.008-3.184-2.64h7.024a5.16 5.16 0 00.032-.496c0-2.192-1.52-4.224-3.968-4.224zm0 1.024c1.376 0 2.656.912 2.88 2.672h-5.968c.208-1.568 1.408-2.672 3.088-2.672zm9.392-1.024c-1.136 0-2.064.432-2.688 1.44V311h-1.056v8h1.056v-4.192c0-2.144 1.184-2.976 2.592-2.976 1.392 0 2.176.832 2.176 2.256V319h1.056v-4.912c0-2-1.184-3.28-3.136-3.28zm10.234 1.52V311h-1.056v8h1.056v-4.448c0-1.984 1.248-2.656 2.528-2.656v-1.024c-1.024 0-1.968.336-2.528 1.456zm7.187-1.52c-2.48 0-4.176 1.84-4.176 4.192 0 2.416 1.728 4.192 4.256 4.192 1.616 0 2.848-.752 3.52-1.84l-.928-.544c-.432.768-1.312 1.36-2.576 1.36-1.696 0-2.96-1.008-3.184-2.64h7.024a5.16 5.16 0 00.032-.496c0-2.192-1.52-4.224-3.968-4.224zm0 1.024c1.376 0 2.656.912 2.88 2.672h-5.968c.208-1.568 1.408-2.672 3.088-2.672zm9.375 7.36c1.568 0 2.928-.816 3.584-2.08l-.88-.512c-.512.928-1.488 1.568-2.704 1.568-1.776 0-3.152-1.392-3.152-3.168 0-1.776 1.376-3.168 3.152-3.168 1.2 0 2.208.624 2.64 1.568l.864-.496c-.576-1.264-1.92-2.096-3.504-2.096-2.416 0-4.208 1.824-4.208 4.192 0 2.368 1.792 4.192 4.208 4.192zm8.75 0c2.336 0 4.208-1.824 4.208-4.192 0-2.368-1.872-4.192-4.208-4.192-2.336 0-4.208 1.824-4.208 4.192 0 2.368 1.872 4.192 4.208 4.192zm0-1.024c-1.776 0-3.152-1.392-3.152-3.168 0-1.776 1.376-3.168 3.152-3.168 1.776 0 3.152 1.392 3.152 3.168 0 1.776-1.376 3.168-3.152 3.168zm7.032-5.84V311h-1.056v8h1.056v-4.448c0-1.984 1.248-2.656 2.527-2.656v-1.024c-1.023 0-1.967.336-2.527 1.456zm10.37-4.528v4.768c-.672-1.072-1.808-1.76-3.232-1.76-2.256 0-4.128 1.824-4.128 4.192 0 2.368 1.872 4.192 4.128 4.192 1.424 0 2.56-.688 3.232-1.76V319h1.056v-11.2h-1.056zm-3.152 10.368c-1.776 0-3.152-1.392-3.152-3.168 0-1.776 1.376-3.168 3.152-3.168 1.776 0 3.152 1.392 3.152 3.168 0 1.776-1.376 3.168-3.152 3.168z" fill="#1A1A1A"/>
  <path d="M304 291h358v-2H304v2zm365 7v32h2v-32h-2zm-7 39H304v2h358v-2zm-365-7v-32h-2v32h2zm7 7a7 7 0 01-7-7h-2a9 9 0 009 9v-2zm365-7a7 7 0 01-7 7v2a9 9 0 009-9h-2zm-7-39a7 7 0 017 7h2a9 9 0 00-9-9v2zm-358-2a9 9 0 00-9 9h2a7 7 0 017-7v-2z" fill="#366B00"/>
  <path d="M906 138a8 8 0 018-8h229a8 8 0 018 8v32a8 8 0 01-8 8H914a8 8 0 01-8-8v-32z" fill="#fff"/>
  <path d="M934.8 159.192c2.24 0 3.776-1.216 3.776-3.136 0-2.08-1.824-2.656-3.856-3.328-1.52-.496-2.48-.88-2.48-2.096 0-1.232.976-1.936 2.32-1.936 1.472 0 2.336.848 2.752 1.856l.944-.528c-.576-1.328-1.856-2.416-3.696-2.416-1.856 0-3.44 1.104-3.44 3.072 0 2.064 1.76 2.544 3.584 3.152 1.648.544 2.752.96 2.752 2.256 0 1.2-.944 2.016-2.64 2.016-1.76 0-2.816-.864-3.216-2.208l-.96.56c.576 1.696 2.096 2.736 4.16 2.736zM945.971 151v4.192c0 2.144-1.184 2.976-2.592 2.976-1.392 0-2.176-.832-2.176-2.256V151h-1.056v4.912c0 2 1.184 3.28 3.136 3.28 1.136 0 2.064-.432 2.688-1.44V159h1.056v-8h-1.056zm7.578-.192c-1.424 0-2.56.688-3.232 1.76V147.8h-1.056V159h1.056v-1.568c.672 1.072 1.808 1.76 3.232 1.76 2.256 0 4.128-1.824 4.128-4.192 0-2.368-1.872-4.192-4.128-4.192zm-.08 7.36c-1.776 0-3.152-1.392-3.152-3.168 0-1.776 1.376-3.168 3.152-3.168 1.776 0 3.152 1.392 3.152 3.168 0 1.776-1.376 3.168-3.152 3.168zm14.492-7.36c-1.024 0-2 .464-2.592 1.456-.448-.928-1.312-1.456-2.432-1.456-.96 0-1.824.384-2.448 1.36V151h-1.056v8h1.056v-4.432c0-1.984 1.152-2.736 2.304-2.736 1.136 0 1.872.752 1.872 2.176V159h1.056v-4.432c0-1.984.992-2.736 2.224-2.736 1.136 0 1.952.752 1.952 2.176V159h1.056v-4.992c0-2-1.232-3.2-2.992-3.2zm5.562-1.504a.768.768 0 100-1.536.768.768 0 000 1.536zm-.528 9.696h1.056v-8h-1.056v8zm7.537-6.976V151h-2.304v-2.24l-1.056.32V151h-1.68v1.024h1.68v4.848c0 1.92 1.2 2.448 3.36 2.128v-.928c-1.552.064-2.304.176-2.304-1.2v-4.848h2.304zm10.048-1.216c-1.424 0-2.56.688-3.232 1.76V151h-1.056v11.2h1.056v-4.768c.672 1.072 1.808 1.76 3.232 1.76 2.256 0 4.128-1.824 4.128-4.192 0-2.368-1.872-4.192-4.128-4.192zm-.08 7.36c-1.776 0-3.152-1.392-3.152-3.168 0-1.776 1.376-3.168 3.152-3.168 1.776 0 3.152 1.392 3.152 3.168 0 1.776-1.376 3.168-3.152 3.168zm7.02-5.84V151h-1.056v8h1.056v-4.448c0-1.984 1.248-2.656 2.53-2.656v-1.024c-1.026 0-1.97.336-2.53 1.456zm7.22 6.864c2.33 0 4.21-1.824 4.21-4.192 0-2.368-1.88-4.192-4.21-4.192-2.34 0-4.21 1.824-4.21 4.192 0 2.368 1.87 4.192 4.21 4.192zm0-1.024c-1.78 0-3.15-1.392-3.15-3.168 0-1.776 1.37-3.168 3.15-3.168 1.77 0 3.15 1.392 3.15 3.168 0 1.776-1.38 3.168-3.15 3.168zm12.85-7.168v1.568c-.67-1.072-1.8-1.76-3.23-1.76-2.25 0-4.13 1.824-4.13 4.192 0 2.368 1.88 4.192 4.13 4.192 1.43 0 2.56-.688 3.23-1.76v1.248c0 1.632-1.1 2.688-2.96 2.688-1.72 0-2.46-.64-2.86-1.456l-.93.528c.63 1.248 1.95 1.952 3.79 1.952 2.07 0 4.02-1.28 4.02-3.712V151h-1.06zm-3.15 7.168c-1.77 0-3.15-1.392-3.15-3.168 0-1.776 1.38-3.168 3.15-3.168 1.78 0 3.15 1.392 3.15 3.168 0 1.776-1.37 3.168-3.15 3.168zm7.5-5.84V151h-1.05v8h1.05v-4.448c0-1.984 1.25-2.656 2.53-2.656v-1.024c-1.02 0-1.97.336-2.53 1.456zm10.37-1.328v1.568c-.67-1.072-1.81-1.76-3.23-1.76-2.26 0-4.13 1.824-4.13 4.192 0 2.368 1.87 4.192 4.13 4.192 1.42 0 2.56-.688 3.23-1.76V159h1.06v-8h-1.06zm-3.15 7.168c-1.78 0-3.15-1.392-3.15-3.168 0-1.776 1.37-3.168 3.15-3.168 1.78 0 3.15 1.392 3.15 3.168 0 1.776-1.37 3.168-3.15 3.168zm14.97-7.36c-1.02 0-2 .464-2.59 1.456-.45-.928-1.31-1.456-2.43-1.456-.96 0-1.83.384-2.45 1.36V151h-1.06v8h1.06v-4.432c0-1.984 1.15-2.736 2.3-2.736 1.14 0 1.88.752 1.88 2.176V159h1.05v-4.432c0-1.984.99-2.736 2.23-2.736 1.13 0 1.95.752 1.95 2.176V159h1.05v-4.992c0-2-1.23-3.2-2.99-3.2zm12.76 8.384c1.57 0 2.93-.816 3.59-2.08l-.88-.512c-.51.928-1.49 1.568-2.71 1.568-1.77 0-3.15-1.392-3.15-3.168 0-1.776 1.38-3.168 3.15-3.168 1.2 0 2.21.624 2.64 1.568l.87-.496c-.58-1.264-1.92-2.096-3.51-2.096-2.41 0-4.2 1.824-4.2 4.192 0 2.368 1.79 4.192 4.2 4.192zm8.72-8.384c-2.48 0-4.17 1.84-4.17 4.192 0 2.416 1.72 4.192 4.25 4.192 1.62 0 2.85-.752 3.52-1.84l-.93-.544c-.43.768-1.31 1.36-2.57 1.36-1.7 0-2.96-1.008-3.19-2.64h7.03c.01-.16.03-.336.03-.496 0-2.192-1.52-4.224-3.97-4.224zm0 1.024c1.38 0 2.66.912 2.88 2.672h-5.97c.21-1.568 1.41-2.672 3.09-2.672zm6.71.496V151h-1.06v8h1.06v-4.448c0-1.984 1.24-2.656 2.52-2.656v-1.024c-1.02 0-1.96.336-2.52 1.456zm8.37-.304V151h-2.31v-2.24l-1.05.32V151h-1.68v1.024h1.68v4.848c0 1.92 1.2 2.448 3.36 2.128v-.928c-1.55.064-2.31.176-2.31-1.2v-4.848h2.31zm2.29-2.72c.43 0 .76-.352.76-.768a.765.765 0 10-1.53 0c0 .416.33.768.77.768zm-.53 9.696h1.05v-8h-1.05v8zm9.31-8h-4.32v-.32c0-1.536.75-2.048 2.31-2.048.49 0 .97.032 1.53.128v-.96a6.848 6.848 0 00-1.53-.192c-2.16 0-3.36.992-3.36 3.072v.32h-1.36v1.024h1.36V159h1.05v-6.976h3.27V159h1.05v-8zm5.96 8.192c1.57 0 2.93-.816 3.59-2.08l-.88-.512c-.51.928-1.49 1.568-2.71 1.568-1.77 0-3.15-1.392-3.15-3.168 0-1.776 1.38-3.168 3.15-3.168 1.2 0 2.21.624 2.64 1.568l.87-.496c-.58-1.264-1.92-2.096-3.51-2.096-2.41 0-4.2 1.824-4.2 4.192 0 2.368 1.79 4.192 4.2 4.192zm11.9-8.192v1.568c-.67-1.072-1.8-1.76-3.23-1.76-2.25 0-4.12 1.824-4.12 4.192 0 2.368 1.87 4.192 4.12 4.192 1.43 0 2.56-.688 3.23-1.76V159h1.06v-8h-1.06zm-3.15 7.168c-1.77 0-3.15-1.392-3.15-3.168 0-1.776 1.38-3.168 3.15-3.168 1.78 0 3.15 1.392 3.15 3.168 0 1.776-1.37 3.168-3.15 3.168zm10.69-6.144V151h-2.31v-2.24l-1.05.32V151h-1.68v1.024h1.68v4.848c0 1.92 1.2 2.448 3.36 2.128v-.928c-1.56.064-2.31.176-2.31-1.2v-4.848h2.31zm4.97-1.216c-2.48 0-4.18 1.84-4.18 4.192 0 2.416 1.73 4.192 4.26 4.192 1.61 0 2.85-.752 3.52-1.84l-.93-.544c-.43.768-1.31 1.36-2.58 1.36-1.69 0-2.96-1.008-3.18-2.64h7.02c.02-.16.04-.336.04-.496 0-2.192-1.52-4.224-3.97-4.224zm0 1.024c1.37 0 2.65.912 2.88 2.672h-5.97c.21-1.568 1.41-2.672 3.09-2.672z" fill="#1A1A1A"/>
  <path d="M914 131h229v-2H914v2zm236 7v32h2v-32h-2zm-7 39H914v2h229v-2zm-236-7v-32h-2v32h2zm7 7a7 7 0 01-7-7h-2a9 9 0 009 9v-2zm236-7c0 3.866-3.13 7-7 7v2a9 9 0 009-9h-2zm-7-39c3.87 0 7 3.134 7 7h2a9 9 0 00-9-9v2zm-229-2a9 9 0 00-9 9h2a7 7 0 017-7v-2z" fill="#800040"/>
  <path d="M906 218a8 8 0 018-8h217a8 8 0 018 8v32a8 8 0 01-8 8H914a8 8 0 01-8-8v-32z" fill="#fff"/>
  <path d="M934.8 239.192c2.24 0 3.776-1.216 3.776-3.136 0-2.08-1.824-2.656-3.856-3.328-1.52-.496-2.48-.88-2.48-2.096 0-1.232.976-1.936 2.32-1.936 1.472 0 2.336.848 2.752 1.856l.944-.528c-.576-1.328-1.856-2.416-3.696-2.416-1.856 0-3.44 1.104-3.44 3.072 0 2.064 1.76 2.544 3.584 3.152 1.648.544 2.752.96 2.752 2.256 0 1.2-.944 2.016-2.64 2.016-1.76 0-2.816-.864-3.216-2.208l-.96.56c.576 1.696 2.096 2.736 4.16 2.736zm9.391-8.384c-2.48 0-4.176 1.84-4.176 4.192 0 2.416 1.728 4.192 4.256 4.192 1.616 0 2.848-.752 3.52-1.84l-.928-.544c-.432.768-1.312 1.36-2.576 1.36-1.696 0-2.96-1.008-3.184-2.64h7.024a5.16 5.16 0 00.032-.496c0-2.192-1.52-4.224-3.968-4.224zm0 1.024c1.376 0 2.656.912 2.88 2.672h-5.968c.208-1.568 1.408-2.672 3.088-2.672zm5.648 7.168h1.056v-11.68h-1.056V239zm6.993-8.192c-2.48 0-4.176 1.84-4.176 4.192 0 2.416 1.728 4.192 4.256 4.192 1.616 0 2.848-.752 3.52-1.84l-.928-.544c-.432.768-1.312 1.36-2.576 1.36-1.696 0-2.96-1.008-3.184-2.64h7.024a5.16 5.16 0 00.032-.496c0-2.192-1.52-4.224-3.968-4.224zm0 1.024c1.376 0 2.656.912 2.88 2.672h-5.968c.208-1.568 1.408-2.672 3.088-2.672zm9.375 7.36c1.568 0 2.928-.816 3.584-2.08l-.88-.512c-.512.928-1.488 1.568-2.704 1.568-1.776 0-3.152-1.392-3.152-3.168 0-1.776 1.376-3.168 3.152-3.168 1.2 0 2.208.624 2.64 1.568l.864-.496c-.576-1.264-1.92-2.096-3.504-2.096-2.416 0-4.208 1.824-4.208 4.192 0 2.368 1.792 4.192 4.208 4.192zm9.341-7.168V231h-2.304v-2.24l-1.056.32V231h-1.68v1.024h1.68v4.848c0 1.92 1.2 2.448 3.36 2.128v-.928c-1.552.064-2.304.176-2.304-1.2v-4.848h2.304zm12.64-1.024v1.568c-.672-1.072-1.808-1.76-3.232-1.76-2.256 0-4.128 1.824-4.128 4.192 0 2.368 1.872 4.192 4.128 4.192 1.424 0 2.56-.688 3.232-1.76V239h1.056v-8h-1.056zm-3.152 7.168c-1.776 0-3.152-1.392-3.152-3.168 0-1.776 1.376-3.168 3.152-3.168 1.776 0 3.152 1.392 3.152 3.168 0 1.776-1.376 3.168-3.152 3.168zm17.324-10.368v4.768c-.67-1.072-1.81-1.76-3.233-1.76-2.256 0-4.128 1.824-4.128 4.192 0 2.368 1.872 4.192 4.128 4.192 1.423 0 2.563-.688 3.233-1.76V239h1.06v-11.2h-1.06zm-3.153 10.368c-1.776 0-3.152-1.392-3.152-3.168 0-1.776 1.376-3.168 3.152-3.168 1.773 0 3.153 1.392 3.153 3.168 0 1.776-1.38 3.168-3.153 3.168zm10.143-7.36c-2.48 0-4.18 1.84-4.18 4.192 0 2.416 1.73 4.192 4.26 4.192 1.61 0 2.85-.752 3.52-1.84l-.93-.544c-.43.768-1.31 1.36-2.58 1.36-1.69 0-2.96-1.008-3.18-2.64h7.02c.02-.16.04-.336.04-.496 0-2.192-1.52-4.224-3.97-4.224zm0 1.024c1.37 0 2.65.912 2.88 2.672h-5.97c.21-1.568 1.41-2.672 3.09-2.672zm6.16 1.264c0-.864.85-1.264 1.68-1.264.77 0 1.59.304 1.92 1.12l.88-.512c-.46-.992-1.48-1.632-2.8-1.632-1.6 0-2.73 1.008-2.73 2.288 0 2.944 4.67 1.808 4.67 3.792 0 .944-.9 1.28-1.84 1.28-1.07 0-1.9-.528-2.19-1.344l-.9.528c.4 1.024 1.49 1.84 3.09 1.84 1.71 0 2.9-.944 2.9-2.304 0-2.944-4.68-1.808-4.68-3.792zm6.89-3.792c.43 0 .77-.352.77-.768a.771.771 0 00-1.54 0c0 .416.34.768.77.768zm-.53 9.696h1.06v-8h-1.06v8zm4.35-6.672V231h-1.05v8h1.05v-4.448c0-1.984 1.25-2.656 2.53-2.656v-1.024c-1.02 0-1.97.336-2.53 1.456zm7.19-1.52c-2.48 0-4.18 1.84-4.18 4.192 0 2.416 1.73 4.192 4.26 4.192 1.62 0 2.85-.752 3.52-1.84l-.93-.544c-.43.768-1.31 1.36-2.57 1.36-1.7 0-2.96-1.008-3.19-2.64h7.03c.01-.16.03-.336.03-.496 0-2.192-1.52-4.224-3.97-4.224zm0 1.024c1.38 0 2.66.912 2.88 2.672h-5.97c.21-1.568 1.41-2.672 3.09-2.672zm12.53-4.032v4.768c-.67-1.072-1.81-1.76-3.23-1.76-2.26 0-4.13 1.824-4.13 4.192 0 2.368 1.87 4.192 4.13 4.192 1.42 0 2.56-.688 3.23-1.76V239h1.05v-11.2h-1.05zm-3.15 10.368c-1.78 0-3.16-1.392-3.16-3.168 0-1.776 1.38-3.168 3.16-3.168 1.77 0 3.15 1.392 3.15 3.168 0 1.776-1.38 3.168-3.15 3.168zm14.73-7.36c-1.43 0-2.56.688-3.23 1.76V231h-1.06v11.2h1.06v-4.768c.67 1.072 1.8 1.76 3.23 1.76 2.25 0 4.13-1.824 4.13-4.192 0-2.368-1.88-4.192-4.13-4.192zm-.08 7.36c-1.78 0-3.15-1.392-3.15-3.168 0-1.776 1.37-3.168 3.15-3.168 1.77 0 3.15 1.392 3.15 3.168 0 1.776-1.38 3.168-3.15 3.168zm7.02-5.84V231h-1.06v8h1.06v-4.448c0-1.984 1.25-2.656 2.53-2.656v-1.024c-1.03 0-1.97.336-2.53 1.456zm7.22 6.864c2.33 0 4.2-1.824 4.2-4.192 0-2.368-1.87-4.192-4.2-4.192-2.34 0-4.21 1.824-4.21 4.192 0 2.368 1.87 4.192 4.21 4.192zm0-1.024c-1.78 0-3.16-1.392-3.16-3.168 0-1.776 1.38-3.168 3.16-3.168 1.77 0 3.15 1.392 3.15 3.168 0 1.776-1.38 3.168-3.15 3.168zm12.85-7.168v1.568c-.67-1.072-1.81-1.76-3.23-1.76-2.26 0-4.13 1.824-4.13 4.192 0 2.368 1.87 4.192 4.13 4.192 1.42 0 2.56-.688 3.23-1.76v1.248c0 1.632-1.1 2.688-2.96 2.688-1.73 0-2.46-.64-2.86-1.456l-.93.528c.62 1.248 1.95 1.952 3.79 1.952 2.07 0 4.02-1.28 4.02-3.712V231h-1.06zm-3.15 7.168c-1.78 0-3.15-1.392-3.15-3.168 0-1.776 1.37-3.168 3.15-3.168 1.78 0 3.15 1.392 3.15 3.168 0 1.776-1.37 3.168-3.15 3.168zm7.5-5.84V231h-1.06v8h1.06v-4.448c0-1.984 1.25-2.656 2.53-2.656v-1.024c-1.03 0-1.97.336-2.53 1.456zm10.37-1.328v1.568c-.67-1.072-1.81-1.76-3.23-1.76-2.26 0-4.13 1.824-4.13 4.192 0 2.368 1.87 4.192 4.13 4.192 1.42 0 2.56-.688 3.23-1.76V239h1.06v-8h-1.06zm-3.15 7.168c-1.78 0-3.15-1.392-3.15-3.168 0-1.776 1.37-3.168 3.15-3.168 1.77 0 3.15 1.392 3.15 3.168 0 1.776-1.38 3.168-3.15 3.168zm14.97-7.36c-1.02 0-2 .464-2.59 1.456-.45-.928-1.31-1.456-2.43-1.456-.96 0-1.83.384-2.45 1.36V231h-1.06v8h1.06v-4.432c0-1.984 1.15-2.736 2.3-2.736 1.14 0 1.87.752 1.87 2.176V239h1.06v-4.432c0-1.984.99-2.736 2.22-2.736 1.14 0 1.96.752 1.96 2.176V239h1.05v-4.992c0-2-1.23-3.2-2.99-3.2z" fill="#1A1A1A"/>
  <path d="M914 211h217v-2H914v2zm224 7v32h2v-32h-2zm-7 39H914v2h217v-2zm-224-7v-32h-2v32h2zm7 7a7 7 0 01-7-7h-2a9 9 0 009 9v-2zm224-7c0 3.866-3.13 7-7 7v2a9 9 0 009-9h-2zm-7-39c3.87 0 7 3.134 7 7h2a9 9 0 00-9-9v2zm-217-2a9 9 0 00-9 9h2a7 7 0 017-7v-2z" fill="#800040"/>
  <path d="M906 298a8 8 0 018-8h194a8 8 0 018 8v32a8 8 0 01-8 8H914a8 8 0 01-8-8v-32z" fill="#fff"/>
  <path d="M938.16 319h1.28l-2.736-4.624a3.355 3.355 0 00-.944-6.576h-4.48V319h1.12v-4.48h3.136l2.624 4.48zm-5.76-10.144h3.36c1.232 0 2.24 1.024 2.24 2.304 0 1.264-1.008 2.304-2.24 2.304h-3.36v-4.608zm11.775 1.952c-2.48 0-4.176 1.84-4.176 4.192 0 2.416 1.728 4.192 4.256 4.192 1.616 0 2.848-.752 3.52-1.84l-.928-.544c-.432.768-1.312 1.36-2.576 1.36-1.696 0-2.96-1.008-3.184-2.64h7.024a5.16 5.16 0 00.032-.496c0-2.192-1.52-4.224-3.968-4.224zm0 1.024c1.376 0 2.656.912 2.88 2.672h-5.968c.208-1.568 1.408-2.672 3.088-2.672zm9.376 7.36c1.568 0 2.928-.816 3.584-2.08l-.88-.512c-.512.928-1.488 1.568-2.704 1.568-1.776 0-3.152-1.392-3.152-3.168 0-1.776 1.376-3.168 3.152-3.168 1.2 0 2.208.624 2.64 1.568l.864-.496c-.576-1.264-1.92-2.096-3.504-2.096-2.416 0-4.208 1.824-4.208 4.192 0 2.368 1.792 4.192 4.208 4.192zm8.718-8.384c-2.48 0-4.176 1.84-4.176 4.192 0 2.416 1.728 4.192 4.256 4.192 1.616 0 2.848-.752 3.52-1.84l-.928-.544c-.432.768-1.312 1.36-2.576 1.36-1.696 0-2.96-1.008-3.184-2.64h7.024a5.16 5.16 0 00.032-.496c0-2.192-1.52-4.224-3.968-4.224zm0 1.024c1.376 0 2.656.912 2.88 2.672h-5.968c.208-1.568 1.408-2.672 3.088-2.672zm6.176-2.528a.768.768 0 100-1.536.768.768 0 000 1.536zm-.528 9.696h1.056v-8h-1.056v8zm9.057-8l-2.8 6.896-2.8-6.896h-1.12l3.28 8h1.28l3.28-8h-1.12zm5.78-.192c-2.48 0-4.176 1.84-4.176 4.192 0 2.416 1.728 4.192 4.256 4.192 1.616 0 2.848-.752 3.52-1.84l-.928-.544c-.432.768-1.312 1.36-2.576 1.36-1.696 0-2.96-1.008-3.184-2.64h7.024a5.16 5.16 0 00.032-.496c0-2.192-1.52-4.224-3.968-4.224zm0 1.024c1.376 0 2.656.912 2.88 2.672h-5.968c.208-1.568 1.408-2.672 3.088-2.672zm13.935-1.024c-1.424 0-2.56.688-3.232 1.76V311h-1.056v11.2h1.056v-4.768c.672 1.072 1.808 1.76 3.232 1.76 2.256 0 4.131-1.824 4.131-4.192 0-2.368-1.875-4.192-4.131-4.192zm-.08 7.36c-1.776 0-3.152-1.392-3.152-3.168 0-1.776 1.376-3.168 3.152-3.168 1.776 0 3.152 1.392 3.152 3.168 0 1.776-1.376 3.168-3.152 3.168zm7.021-5.84V311h-1.06v8h1.06v-4.448c0-1.984 1.25-2.656 2.53-2.656v-1.024c-1.03 0-1.97.336-2.53 1.456zm7.22 6.864c2.33 0 4.21-1.824 4.21-4.192 0-2.368-1.88-4.192-4.21-4.192-2.34 0-4.21 1.824-4.21 4.192 0 2.368 1.87 4.192 4.21 4.192zm0-1.024c-1.78 0-3.15-1.392-3.15-3.168 0-1.776 1.37-3.168 3.15-3.168 1.77 0 3.15 1.392 3.15 3.168 0 1.776-1.38 3.168-3.15 3.168zM1023.7 311v1.568c-.67-1.072-1.8-1.76-3.23-1.76-2.25 0-4.13 1.824-4.13 4.192 0 2.368 1.88 4.192 4.13 4.192 1.43 0 2.56-.688 3.23-1.76v1.248c0 1.632-1.1 2.688-2.96 2.688-1.72 0-2.46-.64-2.86-1.456l-.93.528c.63 1.248 1.95 1.952 3.79 1.952 2.07 0 4.02-1.28 4.02-3.712V311h-1.06zm-3.15 7.168c-1.77 0-3.15-1.392-3.15-3.168 0-1.776 1.38-3.168 3.15-3.168 1.78 0 3.15 1.392 3.15 3.168 0 1.776-1.37 3.168-3.15 3.168zm7.5-5.84V311H1027v8h1.05v-4.448c0-1.984 1.25-2.656 2.53-2.656v-1.024c-1.02 0-1.97.336-2.53 1.456zm10.37-1.328v1.568c-.67-1.072-1.81-1.76-3.23-1.76-2.26 0-4.13 1.824-4.13 4.192 0 2.368 1.87 4.192 4.13 4.192 1.42 0 2.56-.688 3.23-1.76V319h1.06v-8h-1.06zm-3.15 7.168c-1.78 0-3.15-1.392-3.15-3.168 0-1.776 1.37-3.168 3.15-3.168 1.78 0 3.15 1.392 3.15 3.168 0 1.776-1.37 3.168-3.15 3.168zm14.97-7.36c-1.02 0-2 .464-2.59 1.456-.45-.928-1.31-1.456-2.43-1.456-.96 0-1.83.384-2.45 1.36V311h-1.06v8h1.06v-4.432c0-1.984 1.15-2.736 2.3-2.736 1.14 0 1.88.752 1.88 2.176V319h1.05v-4.432c0-1.984.99-2.736 2.23-2.736 1.13 0 1.95.752 1.95 2.176V319h1.05v-4.992c0-2-1.23-3.2-2.99-3.2zm12.76 8.384c1.57 0 2.93-.816 3.59-2.08l-.88-.512c-.51.928-1.49 1.568-2.71 1.568-1.77 0-3.15-1.392-3.15-3.168 0-1.776 1.38-3.168 3.15-3.168 1.2 0 2.21.624 2.64 1.568l.87-.496c-.58-1.264-1.92-2.096-3.51-2.096-2.41 0-4.2 1.824-4.2 4.192 0 2.368 1.79 4.192 4.2 4.192zm11.91-8.192v1.568c-.68-1.072-1.81-1.76-3.24-1.76-2.25 0-4.12 1.824-4.12 4.192 0 2.368 1.87 4.192 4.12 4.192 1.43 0 2.56-.688 3.24-1.76V319h1.05v-8h-1.05zm-3.16 7.168c-1.77 0-3.15-1.392-3.15-3.168 0-1.776 1.38-3.168 3.15-3.168 1.78 0 3.16 1.392 3.16 3.168 0 1.776-1.38 3.168-3.16 3.168zm7.5-5.84V311h-1.05v8h1.05v-4.448c0-1.984 1.25-2.656 2.53-2.656v-1.024c-1.02 0-1.97.336-2.53 1.456zm10.37-4.528v4.768c-.67-1.072-1.8-1.76-3.23-1.76-2.25 0-4.12 1.824-4.12 4.192 0 2.368 1.87 4.192 4.12 4.192 1.43 0 2.56-.688 3.23-1.76V319h1.06v-11.2h-1.06zm-3.15 10.368c-1.77 0-3.15-1.392-3.15-3.168 0-1.776 1.38-3.168 3.15-3.168 1.78 0 3.15 1.392 3.15 3.168 0 1.776-1.37 3.168-3.15 3.168z" fill="#1A1A1A"/>
  <path d="M914 291h194v-2H914v2zm201 7v32h2v-32h-2zm-7 39H914v2h194v-2zm-201-7v-32h-2v32h2zm7 7a7 7 0 01-7-7h-2a9 9 0 009 9v-2zm201-7c0 3.866-3.13 7-7 7v2a9 9 0 009-9h-2zm-7-39c3.87 0 7 3.134 7 7h2a9 9 0 00-9-9v2zm-194-2a9 9 0 00-9 9h2a7 7 0 017-7v-2z" fill="#800040"/>
  <path d="M906 378a8 8 0 018-8h389a8 8 0 018 8v32a8 8 0 01-8 8H914a8 8 0 01-8-8v-32z" fill="#fff"/>
  <path d="M934.8 399.192c2.24 0 3.776-1.216 3.776-3.136 0-2.08-1.824-2.656-3.856-3.328-1.52-.496-2.48-.88-2.48-2.096 0-1.232.976-1.936 2.32-1.936 1.472 0 2.336.848 2.752 1.856l.944-.528c-.576-1.328-1.856-2.416-3.696-2.416-1.856 0-3.44 1.104-3.44 3.072 0 2.064 1.76 2.544 3.584 3.152 1.648.544 2.752.96 2.752 2.256 0 1.2-.944 2.016-2.64 2.016-1.76 0-2.816-.864-3.216-2.208l-.96.56c.576 1.696 2.096 2.736 4.16 2.736zM945.971 391v4.192c0 2.144-1.184 2.976-2.592 2.976-1.392 0-2.176-.832-2.176-2.256V391h-1.056v4.912c0 2 1.184 3.28 3.136 3.28 1.136 0 2.064-.432 2.688-1.44V399h1.056v-8h-1.056zm7.578-.192c-1.424 0-2.56.688-3.232 1.76V387.8h-1.056V399h1.056v-1.568c.672 1.072 1.808 1.76 3.232 1.76 2.256 0 4.128-1.824 4.128-4.192 0-2.368-1.872-4.192-4.128-4.192zm-.08 7.36c-1.776 0-3.152-1.392-3.152-3.168 0-1.776 1.376-3.168 3.152-3.168 1.776 0 3.152 1.392 3.152 3.168 0 1.776-1.376 3.168-3.152 3.168zm14.492-7.36c-1.024 0-2 .464-2.592 1.456-.448-.928-1.312-1.456-2.432-1.456-.96 0-1.824.384-2.448 1.36V391h-1.056v8h1.056v-4.432c0-1.984 1.152-2.736 2.304-2.736 1.136 0 1.872.752 1.872 2.176V399h1.056v-4.432c0-1.984.992-2.736 2.224-2.736 1.136 0 1.952.752 1.952 2.176V399h1.056v-4.992c0-2-1.232-3.2-2.992-3.2zm5.562-1.504a.768.768 0 100-1.536.768.768 0 000 1.536zm-.528 9.696h1.056v-8h-1.056v8zm7.537-6.976V391h-2.304v-2.24l-1.056.32V391h-1.68v1.024h1.68v4.848c0 1.92 1.2 2.448 3.36 2.128v-.928c-1.552.064-2.304.176-2.304-1.2v-4.848h2.304zm10.048-1.216c-1.424 0-2.56.688-3.232 1.76V391h-1.056v11.2h1.056v-4.768c.672 1.072 1.808 1.76 3.232 1.76 2.256 0 4.128-1.824 4.128-4.192 0-2.368-1.872-4.192-4.128-4.192zm-.08 7.36c-1.776 0-3.152-1.392-3.152-3.168 0-1.776 1.376-3.168 3.152-3.168 1.776 0 3.152 1.392 3.152 3.168 0 1.776-1.376 3.168-3.152 3.168zm7.02-5.84V391h-1.056v8h1.056v-4.448c0-1.984 1.248-2.656 2.53-2.656v-1.024c-1.026 0-1.97.336-2.53 1.456zm7.22 6.864c2.33 0 4.21-1.824 4.21-4.192 0-2.368-1.88-4.192-4.21-4.192-2.34 0-4.21 1.824-4.21 4.192 0 2.368 1.87 4.192 4.21 4.192zm0-1.024c-1.78 0-3.15-1.392-3.15-3.168 0-1.776 1.37-3.168 3.15-3.168 1.77 0 3.15 1.392 3.15 3.168 0 1.776-1.38 3.168-3.15 3.168zm12.85-7.168v1.568c-.67-1.072-1.8-1.76-3.23-1.76-2.25 0-4.13 1.824-4.13 4.192 0 2.368 1.88 4.192 4.13 4.192 1.43 0 2.56-.688 3.23-1.76v1.248c0 1.632-1.1 2.688-2.96 2.688-1.72 0-2.46-.64-2.86-1.456l-.93.528c.63 1.248 1.95 1.952 3.79 1.952 2.07 0 4.02-1.28 4.02-3.712V391h-1.06zm-3.15 7.168c-1.77 0-3.15-1.392-3.15-3.168 0-1.776 1.38-3.168 3.15-3.168 1.78 0 3.15 1.392 3.15 3.168 0 1.776-1.37 3.168-3.15 3.168zm7.5-5.84V391h-1.05v8h1.05v-4.448c0-1.984 1.25-2.656 2.53-2.656v-1.024c-1.02 0-1.97.336-2.53 1.456zm10.37-1.328v1.568c-.67-1.072-1.81-1.76-3.23-1.76-2.26 0-4.13 1.824-4.13 4.192 0 2.368 1.87 4.192 4.13 4.192 1.42 0 2.56-.688 3.23-1.76V399h1.06v-8h-1.06zm-3.15 7.168c-1.78 0-3.15-1.392-3.15-3.168 0-1.776 1.37-3.168 3.15-3.168 1.78 0 3.15 1.392 3.15 3.168 0 1.776-1.37 3.168-3.15 3.168zm14.97-7.36c-1.02 0-2 .464-2.59 1.456-.45-.928-1.31-1.456-2.43-1.456-.96 0-1.83.384-2.45 1.36V391h-1.06v8h1.06v-4.432c0-1.984 1.15-2.736 2.3-2.736 1.14 0 1.88.752 1.88 2.176V399h1.05v-4.432c0-1.984.99-2.736 2.23-2.736 1.13 0 1.95.752 1.95 2.176V399h1.05v-4.992c0-2-1.23-3.2-2.99-3.2zm12.76 8.384c1.57 0 2.93-.816 3.59-2.08l-.88-.512c-.51.928-1.49 1.568-2.71 1.568-1.77 0-3.15-1.392-3.15-3.168 0-1.776 1.38-3.168 3.15-3.168 1.2 0 2.21.624 2.64 1.568l.87-.496c-.58-1.264-1.92-2.096-3.51-2.096-2.41 0-4.2 1.824-4.2 4.192 0 2.368 1.79 4.192 4.2 4.192zM1068.8 391v1.568c-.68-1.072-1.81-1.76-3.24-1.76-2.25 0-4.12 1.824-4.12 4.192 0 2.368 1.87 4.192 4.12 4.192 1.43 0 2.56-.688 3.24-1.76V399h1.05v-8h-1.05zm-3.16 7.168c-1.77 0-3.15-1.392-3.15-3.168 0-1.776 1.38-3.168 3.15-3.168 1.78 0 3.16 1.392 3.16 3.168 0 1.776-1.38 3.168-3.16 3.168zm7.5-5.84V391h-1.05v8h1.05v-4.448c0-1.984 1.25-2.656 2.53-2.656v-1.024c-1.02 0-1.97.336-2.53 1.456zm10.38-4.528v4.768c-.68-1.072-1.81-1.76-3.24-1.76-2.25 0-4.12 1.824-4.12 4.192 0 2.368 1.87 4.192 4.12 4.192 1.43 0 2.56-.688 3.24-1.76V399h1.05v-11.2h-1.05zm-3.16 10.368c-1.77 0-3.15-1.392-3.15-3.168 0-1.776 1.38-3.168 3.15-3.168 1.78 0 3.16 1.392 3.16 3.168 0 1.776-1.38 3.168-3.16 3.168zm16.08-7.168v4.192c0 2.144-1.18 2.976-2.59 2.976-1.39 0-2.18-.832-2.18-2.256V391h-1.05v4.912c0 2 1.18 3.28 3.13 3.28 1.14 0 2.07-.432 2.69-1.44V399h1.06v-8h-1.06zm7.58-.192c-1.43 0-2.56.688-3.23 1.76V391h-1.06v11.2h1.06v-4.768c.67 1.072 1.8 1.76 3.23 1.76 2.25 0 4.13-1.824 4.13-4.192 0-2.368-1.88-4.192-4.13-4.192zm-.08 7.36c-1.78 0-3.15-1.392-3.15-3.168 0-1.776 1.37-3.168 3.15-3.168 1.77 0 3.15 1.392 3.15 3.168 0 1.776-1.38 3.168-3.15 3.168zm9.69 1.024c2.34 0 4.21-1.824 4.21-4.192 0-2.368-1.87-4.192-4.21-4.192s-4.21 1.824-4.21 4.192c0 2.368 1.87 4.192 4.21 4.192zm0-1.024c-1.78 0-3.15-1.392-3.15-3.168 0-1.776 1.37-3.168 3.15-3.168 1.78 0 3.15 1.392 3.15 3.168 0 1.776-1.37 3.168-3.15 3.168zm9.72-7.36c-1.14 0-2.07.432-2.69 1.44V391h-1.06v8h1.06v-4.192c0-2.144 1.18-2.976 2.59-2.976 1.39 0 2.18.832 2.18 2.256V399h1.05v-4.912c0-2-1.18-3.28-3.13-3.28zm17.7 0c-1.02 0-2 .464-2.59 1.456-.45-.928-1.31-1.456-2.43-1.456-.96 0-1.82.384-2.45 1.36V391h-1.05v8h1.05v-4.432c0-1.984 1.15-2.736 2.31-2.736 1.13 0 1.87.752 1.87 2.176V399h1.05v-4.432c0-1.984 1-2.736 2.23-2.736 1.13 0 1.95.752 1.95 2.176V399h1.06v-4.992c0-2-1.24-3.2-3-3.2zm8.73 0c-2.48 0-4.17 1.84-4.17 4.192 0 2.416 1.73 4.192 4.25 4.192 1.62 0 2.85-.752 3.52-1.84l-.92-.544c-.44.768-1.32 1.36-2.58 1.36-1.7 0-2.96-1.008-3.18-2.64h7.02c.02-.16.03-.336.03-.496 0-2.192-1.52-4.224-3.97-4.224zm0 1.024c1.38 0 2.66.912 2.88 2.672h-5.96c.2-1.568 1.4-2.672 3.08-2.672zm12.53-4.032v4.768c-.67-1.072-1.81-1.76-3.23-1.76-2.26 0-4.13 1.824-4.13 4.192 0 2.368 1.87 4.192 4.13 4.192 1.42 0 2.56-.688 3.23-1.76V399h1.06v-11.2h-1.06zm-3.15 10.368c-1.78 0-3.15-1.392-3.15-3.168 0-1.776 1.37-3.168 3.15-3.168 1.78 0 3.15 1.392 3.15 3.168 0 1.776-1.37 3.168-3.15 3.168zm6.97-8.864c.43 0 .77-.352.77-.768a.771.771 0 00-1.54 0c0 .416.34.768.77.768zm-.53 9.696h1.06v-8h-1.06v8zm7.03.192c1.57 0 2.93-.816 3.58-2.08l-.88-.512c-.51.928-1.48 1.568-2.7 1.568-1.78 0-3.15-1.392-3.15-3.168 0-1.776 1.37-3.168 3.15-3.168 1.2 0 2.21.624 2.64 1.568l.86-.496c-.57-1.264-1.92-2.096-3.5-2.096-2.42 0-4.21 1.824-4.21 4.192 0 2.368 1.79 4.192 4.21 4.192zm11.9-8.192v1.568c-.67-1.072-1.81-1.76-3.23-1.76-2.26 0-4.13 1.824-4.13 4.192 0 2.368 1.87 4.192 4.13 4.192 1.42 0 2.56-.688 3.23-1.76V399h1.06v-8h-1.06zm-3.15 7.168c-1.78 0-3.15-1.392-3.15-3.168 0-1.776 1.37-3.168 3.15-3.168 1.78 0 3.15 1.392 3.15 3.168 0 1.776-1.37 3.168-3.15 3.168zm10.68-6.144V391h-2.3v-2.24l-1.06.32V391h-1.68v1.024h1.68v4.848c0 1.92 1.2 2.448 3.36 2.128v-.928c-1.55.064-2.3.176-2.3-1.2v-4.848h2.3zm2.29-2.72c.43 0 .77-.352.77-.768a.771.771 0 00-1.54 0c0 .416.34.768.77.768zm-.53 9.696h1.06v-8h-1.06v8zm7.03.192c2.33 0 4.21-1.824 4.21-4.192 0-2.368-1.88-4.192-4.21-4.192-2.34 0-4.21 1.824-4.21 4.192 0 2.368 1.87 4.192 4.21 4.192zm0-1.024c-1.78 0-3.15-1.392-3.15-3.168 0-1.776 1.37-3.168 3.15-3.168 1.77 0 3.15 1.392 3.15 3.168 0 1.776-1.38 3.168-3.15 3.168zm9.72-7.36c-1.14 0-2.07.432-2.69 1.44V391h-1.06v8h1.06v-4.192c0-2.144 1.18-2.976 2.59-2.976 1.39 0 2.18.832 2.18 2.256V399h1.05v-4.912c0-2-1.18-3.28-3.13-3.28zm13.46 0c-1.42 0-2.56.688-3.23 1.76V391h-1.05v11.2h1.05v-4.768c.67 1.072 1.81 1.76 3.23 1.76 2.26 0 4.13-1.824 4.13-4.192 0-2.368-1.87-4.192-4.13-4.192zm-.08 7.36c-1.77 0-3.15-1.392-3.15-3.168 0-1.776 1.38-3.168 3.15-3.168 1.78 0 3.16 1.392 3.16 3.168 0 1.776-1.38 3.168-3.16 3.168zm11.6-7.168v4.192c0 2.144-1.19 2.976-2.59 2.976s-2.18-.832-2.18-2.256V391h-1.06v4.912c0 2 1.19 3.28 3.14 3.28 1.14 0 2.06-.432 2.69-1.44V399h1.05v-8h-1.05zm4.34 1.328V391h-1.05v8h1.05v-4.448c0-1.984 1.25-2.656 2.53-2.656v-1.024c-1.02 0-1.97.336-2.53 1.456zm7.22 6.864c1.57 0 2.93-.816 3.59-2.08l-.88-.512c-.51.928-1.49 1.568-2.71 1.568-1.77 0-3.15-1.392-3.15-3.168 0-1.776 1.38-3.168 3.15-3.168 1.2 0 2.21.624 2.64 1.568l.87-.496c-.58-1.264-1.92-2.096-3.51-2.096-2.41 0-4.2 1.824-4.2 4.192 0 2.368 1.79 4.192 4.2 4.192zm8.85-8.384c-1.14 0-2.07.432-2.69 1.44V387.8h-1.06V399h1.06v-4.192c0-2.144 1.18-2.976 2.59-2.976 1.39 0 2.18.832 2.18 2.256V399h1.05v-4.912c0-2-1.18-3.28-3.13-3.28zm12.06.192v1.568c-.68-1.072-1.81-1.76-3.24-1.76-2.25 0-4.12 1.824-4.12 4.192 0 2.368 1.87 4.192 4.12 4.192 1.43 0 2.56-.688 3.24-1.76V399h1.05v-8h-1.05zm-3.16 7.168c-1.77 0-3.15-1.392-3.15-3.168 0-1.776 1.38-3.168 3.15-3.168 1.78 0 3.16 1.392 3.16 3.168 0 1.776-1.38 3.168-3.16 3.168zm7.28-5.072c0-.864.85-1.264 1.68-1.264.77 0 1.58.304 1.92 1.12l.88-.512c-.46-.992-1.49-1.632-2.8-1.632-1.6 0-2.74 1.008-2.74 2.288 0 2.944 4.68 1.808 4.68 3.792 0 .944-.9 1.28-1.84 1.28-1.08 0-1.91-.528-2.2-1.344l-.89.528c.4 1.024 1.49 1.84 3.09 1.84 1.71 0 2.89-.944 2.89-2.304 0-2.944-4.67-1.808-4.67-3.792zm9.89-2.288c-2.48 0-4.17 1.84-4.17 4.192 0 2.416 1.73 4.192 4.25 4.192 1.62 0 2.85-.752 3.52-1.84l-.92-.544c-.44.768-1.32 1.36-2.58 1.36-1.7 0-2.96-1.008-3.18-2.64h7.02c.02-.16.03-.336.03-.496 0-2.192-1.52-4.224-3.97-4.224zm0 1.024c1.38 0 2.66.912 2.88 2.672h-5.96c.2-1.568 1.4-2.672 3.08-2.672z" fill="#1A1A1A"/>
  <path d="M914 371h389v-2H914v2zm396 7v32h2v-32h-2zm-7 39H914v2h389v-2zm-396-7v-32h-2v32h2zm7 7a7 7 0 01-7-7h-2a9 9 0 009 9v-2zm396-7c0 3.866-3.13 7-7 7v2a9 9 0 009-9h-2zm-7-39c3.87 0 7 3.134 7 7h2a9 9 0 00-9-9v2zm-389-2a9 9 0 00-9 9h2a7 7 0 017-7v-2zM809.172 18.6h-5.742V34h3.036v-5.06h2.706c2.97 0 5.258-2.288 5.258-5.17s-2.288-5.17-5.258-5.17zm0 7.502h-2.706v-4.664h2.706c1.298 0 2.244.99 2.244 2.332 0 1.32-.946 2.332-2.244 2.332zM823.904 23v1.298c-.792-.99-1.98-1.606-3.586-1.606-2.926 0-5.346 2.53-5.346 5.808s2.42 5.808 5.346 5.808c1.606 0 2.794-.616 3.586-1.606V34h2.838V23h-2.838zm-3.058 8.602c-1.738 0-3.036-1.254-3.036-3.102 0-1.848 1.298-3.102 3.036-3.102 1.76 0 3.058 1.254 3.058 3.102 0 1.848-1.298 3.102-3.058 3.102zm14.762-5.874V23h-2.486v-3.08l-2.838.858V23h-1.914v2.728h1.914v4.576c0 2.97 1.342 4.136 5.324 3.696v-2.574c-1.628.088-2.486.066-2.486-1.122v-4.576h2.486zm3.409-4.048c.968 0 1.76-.792 1.76-1.738a1.78 1.78 0 00-1.76-1.76c-.946 0-1.738.814-1.738 1.76 0 .946.792 1.738 1.738 1.738zM837.609 34h2.838V23h-2.838v11zm7.833-4.334h8.294c.066-.374.11-.748.11-1.166 0-3.234-2.31-5.808-5.566-5.808-3.454 0-5.808 2.53-5.808 5.808s2.332 5.808 6.028 5.808c2.112 0 3.762-.858 4.796-2.354l-2.288-1.32c-.484.638-1.364 1.1-2.464 1.1-1.496 0-2.706-.616-3.102-2.068zm-.044-2.2c.33-1.408 1.364-2.222 2.882-2.222 1.188 0 2.376.638 2.728 2.222h-5.61zm16.545-4.774c-1.474 0-2.618.55-3.278 1.54V23h-2.838v11h2.838v-5.94c0-1.914 1.034-2.728 2.42-2.728 1.276 0 2.178.77 2.178 2.266V34h2.838v-6.754c0-2.926-1.826-4.554-4.158-4.554zm12.874 3.036V23h-2.486v-3.08l-2.838.858V23h-1.914v2.728h1.914v4.576c0 2.97 1.342 4.136 5.324 3.696v-2.574c-1.628.088-2.486.066-2.486-1.122v-4.576h2.486z" fill="#800040"/>
  <path d="M100.734 34.308c2.838 0 5.324-1.43 6.622-3.63l-2.618-1.518c-.726 1.342-2.244 2.178-4.004 2.178-3.014 0-4.994-2.09-4.994-5.038 0-2.97 1.98-5.06 4.994-5.06 1.76 0 3.256.836 4.004 2.2l2.618-1.518c-1.32-2.2-3.806-3.63-6.622-3.63-4.664 0-8.008 3.498-8.008 8.008 0 4.488 3.344 8.008 8.008 8.008zM117.513 23v1.298c-.792-.99-1.98-1.606-3.586-1.606-2.926 0-5.346 2.53-5.346 5.808s2.42 5.808 5.346 5.808c1.606 0 2.794-.616 3.586-1.606V34h2.838V23h-2.838zm-3.058 8.602c-1.738 0-3.036-1.254-3.036-3.102 0-1.848 1.298-3.102 3.036-3.102 1.76 0 3.058 1.254 3.058 3.102 0 1.848-1.298 3.102-3.058 3.102zm11.002-5.478c0-.594.572-.902 1.276-.902.814 0 1.43.418 1.76 1.122l2.42-1.32c-.858-1.518-2.398-2.332-4.18-2.332-2.266 0-4.18 1.254-4.18 3.498 0 3.872 5.676 2.992 5.676 4.598 0 .638-.616.946-1.518.946-1.1 0-1.848-.528-2.156-1.43l-2.464 1.386c.792 1.694 2.42 2.618 4.62 2.618 2.354 0 4.422-1.144 4.422-3.52 0-4.048-5.676-3.036-5.676-4.664zm9.749 3.542h8.294c.066-.374.11-.748.11-1.166 0-3.234-2.31-5.808-5.566-5.808-3.454 0-5.808 2.53-5.808 5.808s2.332 5.808 6.028 5.808c2.112 0 3.762-.858 4.796-2.354l-2.288-1.32c-.484.638-1.364 1.1-2.464 1.1-1.496 0-2.706-.616-3.102-2.068zm-.044-2.2c.33-1.408 1.364-2.222 2.882-2.222 1.188 0 2.376.638 2.728 2.222h-5.61zM157.547 23l-1.87 6.776L153.675 23h-2.684l-2.002 6.754-1.87-6.754h-3.014l3.498 11h2.706l2.024-6.666L154.357 34h2.706l3.498-11h-3.014zm9.35 11.308c3.234 0 5.83-2.53 5.83-5.808s-2.596-5.808-5.83-5.808-5.808 2.53-5.808 5.808 2.574 5.808 5.808 5.808zm0-2.772c-1.672 0-2.97-1.254-2.97-3.036s1.298-3.036 2.97-3.036c1.694 0 2.992 1.254 2.992 3.036s-1.298 3.036-2.992 3.036zm10.665-6.644V23h-2.838v11h2.838v-5.258c0-2.31 1.87-2.97 3.344-2.794V22.78c-1.386 0-2.772.616-3.344 2.112zM192.708 34l-4.554-5.566L192.576 23h-3.388l-3.784 4.84V18.6h-2.838V34h2.838v-4.994L189.408 34h3.3zm3.019-4.334h8.294c.066-.374.11-.748.11-1.166 0-3.234-2.31-5.808-5.566-5.808-3.454 0-5.808 2.53-5.808 5.808s2.332 5.808 6.028 5.808c2.112 0 3.762-.858 4.796-2.354l-2.288-1.32c-.484.638-1.364 1.1-2.464 1.1-1.496 0-2.706-.616-3.102-2.068zm-.044-2.2c.33-1.408 1.364-2.222 2.882-2.222 1.188 0 2.376.638 2.728 2.222h-5.61zm13.267-2.574V23h-2.838v11h2.838v-5.258c0-2.31 1.87-2.97 3.344-2.794V22.78c-1.386 0-2.772.616-3.344 2.112z" fill="#366B00"/>
</svg>
