<svg xmlns="http://www.w3.org/2000/svg" xmlns:xlink="http://www.w3.org/1999/xlink" width="1440" height="1705" viewBox="0 0 1440 1705"><defs><filter id="a" x="131" y="214" width="1178" height="1309" filterUnits="userSpaceOnUse"><feOffset dy="3" input="SourceAlpha"/><feGaussianBlur stdDeviation="3" result="b"/><feFlood flood-opacity="0.161"/><feComposite operator="in" in2="b"/><feComposite in="SourceGraphic"/></filter><filter id="c" x="-9" y="-7.5" width="1458" height="107" filterUnits="userSpaceOnUse"><feOffset dy="1.5" input="SourceAlpha"/><feGaussianBlur stdDeviation="3" result="d"/><feFlood flood-opacity="0.161"/><feComposite operator="in" in2="d"/><feComposite in="SourceGraphic"/></filter><linearGradient id="e" x1="-0.37" y1="0.45" x2="1.189" y2="0.441" gradientUnits="objectBoundingBox"><stop offset="0" stop-color="#037"/><stop offset="1" stop-color="#41b9ff"/></linearGradient><filter id="f" x="1076.5" y="1371.181" width="147.6" height="68" filterUnits="userSpaceOnUse"><feOffset dy="3" input="SourceAlpha"/><feGaussianBlur stdDeviation="3" result="g"/><feFlood flood-opacity="0.161"/><feComposite operator="in" in2="g"/><feComposite in="SourceGraphic"/></filter><clipPath id="i"><rect width="1440" height="1705"/></clipPath></defs><g id="h" clip-path="url(#i)"><rect width="1440" height="1705" fill="#fafafa"/><g transform="matrix(1, 0, 0, 1, 0, 0)" filter="url(#a)"><path d="M0,0H1160V1291H0Z" transform="translate(140 220)" fill="#fff"/></g><g transform="matrix(1, 0, 0, 1, 0, 0)" filter="url(#c)"><rect width="1440" height="89" fill="#fff"/></g><text transform="translate(1290 53)" fill="#272727" font-size="16" font-family="OpenSans-Semibold, Open Sans" font-weight="600"><tspan x="0" y="0">FR</tspan></text><text transform="translate(406 52)" fill="#272727" font-size="16" font-family="FiraSans-Regular, Fira Sans" letter-spacing="0.1em"><tspan x="0" y="0" text-decoration="underline">A</tspan><tspan y="0"> </tspan><tspan y="0" font-size="18">A</tspan><tspan y="0"> </tspan><tspan y="0" font-size="20">A</tspan></text><g transform="translate(211 518.898)" fill="#fff" stroke="#676767" stroke-linejoin="round" stroke-width="1"><rect width="413" height="50" rx="3" stroke="none"/><rect x="0.5" y="0.5" width="412" height="49" rx="2.5" fill="none"/></g><text transform="translate(226 551)" fill="#676767" font-size="16" font-family="OpenSans, Open Sans"><tspan x="0" y="0">Ontario</tspan><tspan x="0" y="30"></tspan></text><path d="M23.7,14.948a1.362,1.362,0,0,1,1.92,0,1.34,1.34,0,0,1,.394.956,1.364,1.364,0,0,1-.4.963l-6.63,6.609a1.355,1.355,0,0,1-1.87-.042l-6.729-6.708a1.357,1.357,0,0,1,1.92-1.92l5.7,5.759Z" transform="translate(578.002 527.09)" fill="#676767"/><text transform="translate(211 500.758)" fill="#0079ae" font-size="16" font-family="OpenSans-Semibold, Open Sans" font-weight="600"><tspan x="0" y="0">Select Province</tspan></text><text transform="translate(140 137)" fill="#272727" font-size="30" font-family="OpenSans-Semibold, Open Sans" font-weight="600"><tspan x="0" y="32">Company Programs</tspan></text><text transform="translate(211 274.758)" fill="#0079ae" font-size="16" font-family="OpenSans-Semibold, Open Sans" font-weight="600"><tspan x="0" y="0">Introduction Text</tspan></text><text transform="translate(211.393 308.547)" fill="#333" font-size="15" font-family="OpenSans, Open Sans"><tspan x="0" y="0">Lorem ipsum dolor sit amet, consectetur adipiscing elit, sed do eiusmod tempor incididunt ut labore et dolore magna aliqua. </tspan></text><rect width="1004" height="9" transform="translate(211 394)" fill="#4c2d47"/><g transform="matrix(1, 0, 0, 1, 0, 0)" filter="url(#f)"><rect width="129.6" height="50" transform="translate(1085.5 1377.18)" fill="url(#e)"/></g><text transform="translate(1141 1409)" fill="#fff" font-size="16" font-family="OpenSans-Semibold, Open Sans" font-weight="600"><tspan x="-18.266" y="0">Next</tspan></text><path d="M11.515,7.458a1.144,1.144,0,0,0,1.612,0,1.125,1.125,0,0,0,.331-.8,1.145,1.145,0,0,0-.336-.809L7.554.3a1.138,1.138,0,0,0-1.57.035L.334,5.964A1.14,1.14,0,0,0,1.946,7.576L6.734,2.741Z" transform="translate(1188.203 1396.446) rotate(90)" fill="#fff"/><line x2="1004" transform="translate(211.5 1349.767)" fill="none" stroke="#e6e6e6" stroke-width="1"/><text transform="translate(211 672.758)" fill="#0079ae" font-size="16" font-family="OpenSans-Semibold, Open Sans" font-weight="600"><tspan x="0" y="0">Select a Program Card</tspan></text><text transform="translate(191 1006)" fill="#b1c2d1" font-size="36" font-family="OpenSans-Semibold, Open Sans" font-weight="600"><tspan x="18.217" y="38">PROGRAM 2</tspan></text><text transform="translate(211 1070)" fill="#333" font-size="16" font-family="OpenSans, Open Sans"><tspan x="0" y="17">Lorem ipsum dolor sit amet, consectetur adipiscing elit, sed do eiusmod tempor incididunt ut labore et dolore </tspan><tspan x="0" y="43">magna aliqua. </tspan></text><text transform="translate(211 1211)" fill="#333" font-size="16" font-family="OpenSans, Open Sans"><tspan x="0" y="17">Lorem ipsum dolor sit amet, consectetur adipiscing elit, sed do eiusmod tempor incididunt ut labore et dolore </tspan><tspan x="0" y="43">magna aliqua. </tspan></text><text transform="translate(191 1147)" fill="#b1c2d1" font-size="36" font-family="OpenSans-Semibold, Open Sans" font-weight="600"><tspan x="18.217" y="38">PROGRAM 3</tspan></text><g transform="translate(0 182)"><g transform="translate(459.234 588.171) rotate(180)"><rect width="896" height="156" transform="translate(-623.766 -91.829)" fill="none"/><text transform="translate(272.234 50.171) rotate(180)" fill="#b1c2d1" font-size="36" font-family="OpenSans-Semibold, Open Sans" font-weight="600"><tspan x="18.217" y="38">PROGRAM 1</tspan></text></g><text transform="translate(211 607)" fill="#333" font-size="16" font-family="OpenSans, Open Sans"><tspan x="0" y="17">Lorem ipsum dolor sit amet, consectetur adipiscing elit, sed do eiusmod tempor incididunt ut labore et dolore </tspan><tspan x="0" y="43">magna aliqua. </tspan></text><g transform="translate(442 533)"><circle cx="27.5" cy="27.5" r="27.5" fill="#2f93d9"/><path d="M30,9,13.5,25.5,6,18" transform="translate(9.5 10.5)" fill="none" stroke="#fff" stroke-linecap="round" stroke-linejoin="round" stroke-width="3"/></g></g><g transform="translate(8 182)"><text transform="translate(203 701.758)" fill="#0079ae" font-size="16" font-family="OpenSans-Semibold, Open Sans" font-weight="600"><tspan x="0" y="0">Please Select the Amount of Cards Required</tspan></text><text transform="translate(227 752)" fill="#676767" font-size="16" font-family="OpenSans, Open Sans"><tspan x="0" y="0">5</tspan></text></g><g transform="translate(0 1611)"><g transform="translate(0 -1618)"><rect width="1440" height="94" transform="translate(0 1618)" fill="#c4c4c4"/><rect width="1440" height="1" transform="translate(0 1677)" fill="#c4c4c4"/><g transform="translate(135.001 1634.295)"><path d="M290.352,1109.02l-20.38-11.767c-4.691-2.708-8.616-1.861-8.616,4.129v23.533c0,5.417,2.7,8.392,7.884,5.4l20.38-11.767C294.311,1115.838,295.539,1112.015,290.352,1109.02Zm-8.316,8.44s-11.669,6.831-12.471,7.2-3.4.847-3.4-2.851v-16.068c0-4.089,3.207-2.383,3.207-2.383l13.159,7.6C286.078,1113,285.239,1115.611,282.036,1117.46Z" transform="translate(-261.356 -1095.784)" fill="#c4c4c4" fill-rule="evenodd"/><path d="M353.7,1209.567l-16.073-9.28c-5.365-3.1-11.836-2.562-11.525,5.467.076-1.972.974-2.879,2.137-3.111a4.242,4.242,0,0,1,1.65.027c5.763.7,16.869,6.171,21.983,9.521,3.5,2.293,4.055,4.531,1.1,6.9C357.662,1216.385,358.89,1212.562,353.7,1209.567Z" transform="translate(-324.707 -1196.332)" fill="#c4c4c4" fill-rule="evenodd"/><path d="M429.785,1394.469c-6.031-4.122-20.809-10.989-24.652-9.35a5.243,5.243,0,0,1,4.182.691l13.915,8.034c.367.212.643.437.938.633,3.532,2.35,2.463,8.177-.132,10.582l6.278-3.625C434.385,1399.082,432.186,1396.109,429.785,1394.469Z" transform="translate(-402.05 -1378.671)" fill="#c4c4c4" fill-rule="evenodd"/><g transform="translate(41.284 8)"><g transform="translate(0 0.457)"><path d="M2000,1606.543h2.427v18.188H2000Z" transform="translate(-2000 -1606.543)" fill="#c4c4c4"/><path d="M2153.352,1778.01h2.139v1.664h.057a4.178,4.178,0,0,1,3.582-1.951c2.484,0,4.333,1.094,4.333,4.475v8.032h-2.138v-7.858c0-2.123-1.094-2.754-2.6-2.754a3.065,3.065,0,0,0-3.293,3.213v7.344h-2.139Z" transform="translate(-2148.209 -1772.045)" fill="#c4c4c4"/><path d="M2524.4,1778.01h2.139v1.664h.057a4.18,4.18,0,0,1,3.582-1.951c2.484,0,4.333,1.094,4.333,4.475v8.032h-2.138v-7.858c0-2.123-1.094-2.754-2.6-2.754a3.069,3.069,0,0,0-3.293,3.213v7.344h-2.14Z" transform="translate(-2506.948 -1772.045)" fill="#c4c4c4"/><path d="M2882.236,1777.786c3.756,0,6.009,2.7,6.009,6.426s-2.253,6.426-6.009,6.426-6.009-2.7-6.009-6.426S2878.481,1777.786,2882.236,1777.786Zm0,11.188c3.063,0,3.756-2.754,3.756-4.762s-.694-4.762-3.756-4.762-3.755,2.754-3.755,4.762S2879.232,1788.974,2882.236,1788.974Z" transform="translate(-2847.164 -1772.106)" fill="#c4c4c4"/><path d="M3283.857,1777.832h1.965v1.55h.057a4.543,4.543,0,0,1,3.464-1.836,3.7,3.7,0,0,1,3.582,2.123,5.1,5.1,0,0,1,3.756-2.123c2.022,0,3.987.861,3.987,4.475v8.089h-2.138v-8.26c0-1.492-.693-2.41-2.137-2.41-1.329,0-3.063.688-3.063,2.582v8.032H3291.2v-8.205c0-1.492-.694-2.41-2.138-2.41-1.329,0-3.063.688-3.063,2.582v8.032h-2.138Z" transform="translate(-3241.273 -1771.867)" fill="#c4c4c4"/><path d="M3851.17,1781.86c0-1.721-.751-2.467-2.889-2.467-1.618,0-2.427.861-2.543,2.525l-2.138-.115c.289-2.754,1.906-4.016,4.679-4.016,2.081,0,4.969.573,4.969,3.786v5.68c0,1.205.462,1.377.924,1.377a2.092,2.092,0,0,0,.638-.115v1.721a4.956,4.956,0,0,1-1.329.172,1.9,1.9,0,0,1-2.135-1.64c0-.008,0-.016,0-.024a5.753,5.753,0,0,1-4.392,1.894,3.656,3.656,0,0,1-3.929-3.385c0-3.385,3.062-3.959,8.089-4.246l.057-1.148Zm0,2.467c-3.464.456-5.835.861-5.835,2.754,0,1.491,1.387,1.894,2.371,1.894a3.178,3.178,0,0,0,3.452-2.878,3.251,3.251,0,0,0,.012-.334Z" transform="translate(-3781.893 -1772.106)" fill="#c4c4c4"/><path d="M4241.892,1783.094h2.138v2.124h.058c.982-1.664,2.2-2.237,4.334-2.237v2.295c-.405,0-1.04-.057-1.444-.057a3.163,3.163,0,0,0-3.009,3.27v6.828h-2.138l.058-12.217Z" transform="translate(-4167.472 -1777.129)" fill="#c4c4c4"/></g><g transform="translate(82.968)"><path d="M4513.758,1598.565c-.115-2.7-2.2-3.844-4.741-3.844-1.732,0-4.1.574-4.1,2.754,0,4.819,11.613,1.205,11.613,8.778,0,3.844-3.582,5.623-7.049,5.623-4.333,0-7.8-1.721-8.089-6.368l2.6-.23c.116,3.27,2.2,4.65,5.374,4.65,2.311,0,4.507-1.033,4.507-3.615,0-4.992-11.615-1.607-11.615-8.377,0-3.5,3.409-5.164,6.587-5.164,3.755,0,6.876,1.721,7.4,5.68Z" transform="translate(-4501.389 -1592.772)" fill="#c4c4c4"/><path d="M4994.5,1676.049h2.022v-3.786h2.138v3.786h2.311v1.779h-2.311v7.8c0,.573,0,1.148.867,1.148a5.392,5.392,0,0,0,1.33-.23v1.779a8.582,8.582,0,0,1-2.082.23c-2.195,0-2.195-1.033-2.195-2.41v-8.318h-2.022v-1.78Z" transform="translate(-4978.147 -1669.627)" fill="#c4c4c4"/><path d="M5645.785,1783.094h2.136v2.124h.057c.983-1.664,2.2-2.237,4.334-2.237v2.295c-.4,0-1.041-.057-1.388-.057a3.161,3.161,0,0,0-3.007,3.27v6.828h-2.138Z" transform="translate(-5607.82 -1776.672)" fill="#c4c4c4"/><path d="M5240.77,1781.86c0-1.721-.752-2.467-2.889-2.467-1.619,0-2.427.861-2.542,2.525l-2.138-.115c.289-2.754,1.906-4.016,4.68-4.016,2.08,0,4.968.573,4.968,3.786v5.68c0,1.205.462,1.377.924,1.377a2.086,2.086,0,0,0,.638-.115v1.721a4.95,4.95,0,0,1-1.329.172,1.9,1.9,0,0,1-2.135-1.64c0-.008,0-.016,0-.024a5.751,5.751,0,0,1-4.392,1.894,3.656,3.656,0,0,1-3.929-3.385c0-3.385,3.063-3.959,8.09-4.246l.057-1.148Zm0,2.467c-3.465.456-5.835.861-5.835,2.754,0,1.491,1.387,1.894,2.371,1.894a3.178,3.178,0,0,0,3.452-2.878,3.322,3.322,0,0,0,.013-.334Z" transform="translate(-5208.368 -1771.65)" fill="#c4c4c4"/><path d="M5895.111,1676.049h2.022v-3.786h2.138v3.786h2.311v1.779h-2.311v7.8c0,.573,0,1.148.866,1.148a5.381,5.381,0,0,0,1.329-.23v1.779a8.568,8.568,0,0,1-2.08.23c-2.2,0-2.2-1.033-2.2-2.41v-8.318h-2.021v-1.78Z" transform="translate(-5848.884 -1669.627)" fill="#c4c4c4"/></g></g></g></g><text transform="translate(477 56)" fill="#707070" font-size="20" font-family="Helvetica"><tspan x="0" y="0">Lorem ipsum dolor sit amet, consectetur adipiscing elit.</tspan></text></g><path d="M23.7,14.948a1.362,1.362,0,0,1,1.92,0,1.34,1.34,0,0,1,.394.956,1.364,1.364,0,0,1-.4.963l-6.63,6.609a1.355,1.355,0,0,1-1.87-.042l-6.729-6.708a1.357,1.357,0,0,1,1.92-1.92l5.7,5.759Z" transform="translate(256.002 909.09)" fill="#676767"/><g transform="translate(211 901.898)" fill="none" stroke="#e51616" stroke-linejoin="round" stroke-width="1"><rect width="83" height="50" rx="3" stroke="none"/><rect x="0.5" y="0.5" width="82" height="49" rx="2.5" fill="none"/></g><text transform="translate(211.393 975.547)" fill="#e51616" font-size="15" font-family="OpenSans, Open Sans"><tspan x="0" y="0">There are not enough cards remaining in the requested range.</tspan></text></g></svg>