<svg xmlns="http://www.w3.org/2000/svg" xmlns:xlink="http://www.w3.org/1999/xlink" width="1440" height="1080" viewBox="0 0 1440 1080"><defs><filter id="a" x="138" y="363" width="1155" height="413" filterUnits="userSpaceOnUse"><feOffset dy="3" input="SourceAlpha"/><feGaussianBlur stdDeviation="3" result="b"/><feFlood flood-opacity="0.161"/><feComposite operator="in" in2="b"/><feComposite in="SourceGraphic"/></filter><linearGradient id="c" x1="0.5" x2="0.5" y2="1" gradientUnits="objectBoundingBox"><stop offset="0" stop-color="#f2f2f2"/><stop offset="1" stop-color="#d9d9d9"/></linearGradient><filter id="d" x="606" y="525.5" width="227.813" height="68" filterUnits="userSpaceOnUse"><feOffset dy="3" input="SourceAlpha"/><feGaussianBlur stdDeviation="3" result="e"/><feFlood flood-opacity="0.161"/><feComposite operator="in" in2="e"/><feComposite in="SourceGraphic"/></filter><filter id="g" x="606" y="595.5" width="227.813" height="68" filterUnits="userSpaceOnUse"><feOffset dy="3" input="SourceAlpha"/><feGaussianBlur stdDeviation="3" result="h"/><feFlood flood-opacity="0.161"/><feComposite operator="in" in2="h"/><feComposite in="SourceGraphic"/></filter><filter id="j" x="606" y="657.5" width="227.813" height="68" filterUnits="userSpaceOnUse"><feOffset dy="3" input="SourceAlpha"/><feGaussianBlur stdDeviation="3" result="k"/><feFlood flood-opacity="0.161"/><feComposite operator="in" in2="k"/><feComposite in="SourceGraphic"/></filter><filter id="m" x="126.5" y="181" width="136.6" height="68" filterUnits="userSpaceOnUse"><feOffset dy="3" input="SourceAlpha"/><feGaussianBlur stdDeviation="3" result="n"/><feFlood flood-opacity="0.161"/><feComposite operator="in" in2="n"/><feComposite in="SourceGraphic"/></filter><filter id="o" x="-9" y="-7.5" width="1458" height="107" filterUnits="userSpaceOnUse"><feOffset dy="1.5" input="SourceAlpha"/><feGaussianBlur stdDeviation="3" result="p"/><feFlood flood-opacity="0.161"/><feComposite operator="in" in2="p"/><feComposite in="SourceGraphic"/></filter><clipPath id="r"><rect width="1440" height="1080"/></clipPath></defs><g id="q" clip-path="url(#r)"><rect width="1440" height="1080" fill="#fafafa"/><text transform="translate(362.848 145.465)" fill="#333" font-size="16" font-family="OpenSans, Open Sans"><tspan x="-87.258" y="0">Company Management</tspan></text><text transform="translate(545.848 145.465)" fill="#333" font-size="16" font-family="OpenSans, Open Sans"><tspan x="-69.801" y="0">Company 1 Details</tspan></text><text transform="translate(711.848 145.465)" fill="#333" font-size="16" font-family="OpenSans, Open Sans"><tspan x="-67.738" y="0">Add New Program</tspan></text><g transform="translate(135.5 127.174)"><path d="M4.5,8.889,12.072,3l7.572,5.889v9.254a1.683,1.683,0,0,1-1.683,1.683H6.183A1.683,1.683,0,0,1,4.5,18.143Z" fill="none" stroke="#333" stroke-linecap="round" stroke-linejoin="round" stroke-width="1.5"/><path d="M13.5,26.413V18h5.048v8.413" transform="translate(-3.952 -6.587)" fill="none" stroke="#333" stroke-linecap="round" stroke-linejoin="round" stroke-width="1.5"/></g><g transform="translate(253 134.586)"><path d="M7.5,17.913l5.206-5.206L7.5,7.5" transform="translate(-0.2 -7.5)" fill="none" stroke="#333" stroke-linecap="round" stroke-linejoin="round" stroke-width="1.5"/></g><g transform="translate(453 134.586)"><path d="M7.5,17.913l5.206-5.206L7.5,7.5" transform="translate(-0.2 -7.5)" fill="none" stroke="#333" stroke-linecap="round" stroke-linejoin="round" stroke-width="1.5"/></g><g transform="translate(619 134.586)"><path d="M7.5,17.913l5.206-5.206L7.5,7.5" transform="translate(-0.2 -7.5)" fill="none" stroke="#333" stroke-linecap="round" stroke-linejoin="round" stroke-width="1.5"/></g><line x2="787" transform="translate(343.5 319.5)" fill="none" stroke="#0789b9" stroke-width="5"/><line x2="372" transform="translate(343.5 319.5)" fill="none" stroke="#0789b9" stroke-width="5"/><text transform="translate(694 277)" fill="#676767" font-size="16" font-family="OpenSans, Open Sans"><tspan x="0" y="0">Review</tspan></text><text transform="translate(1081 277)" fill="#676767" font-size="16" font-family="OpenSans, Open Sans"><tspan x="0" y="0">Confirmation</tspan></text><circle cx="17" cy="17" r="17" transform="translate(326 302)" fill="#0789b9"/><circle cx="17" cy="17" r="17" transform="translate(703 302)" fill="#0789b9"/><circle cx="17" cy="17" r="17" transform="translate(1113 302)" fill="#0789b9"/><text transform="translate(343 325)" fill="#fff" font-size="16" font-family="OpenSans, Open Sans"><tspan x="-4.574" y="0">1</tspan></text><text transform="translate(720 325)" fill="#fff" font-size="16" font-family="OpenSans, Open Sans"><tspan x="-4.574" y="0">2</tspan></text><text transform="translate(1130 325)" fill="#fafafa" font-size="16" font-family="OpenSans, Open Sans"><tspan x="-4.574" y="0">3</tspan></text><text transform="translate(291 277)" fill="#676767" font-size="16" font-family="OpenSans, Open Sans"><tspan x="0" y="0">Add Company</tspan></text><rect width="1138" height="292" transform="translate(147 369)" fill="#fff"/><line x2="1137" transform="translate(147.5 544.341)" fill="none" stroke="#b3b3b3" stroke-width="1"/><text transform="translate(575 445)" fill="#676767" font-size="16" font-family="OpenSans, Open Sans"><tspan x="0" y="0">Company 1</tspan></text><text transform="translate(575 492)" fill="#676767" font-size="16" font-family="OpenSans, Open Sans"><tspan x="0" y="0">company1</tspan></text><g transform="matrix(1, 0, 0, 1, 0, 0)" filter="url(#a)"><rect width="1137" height="395" transform="translate(147 369)" fill="#fff"/></g><text transform="translate(574 489)" fill="#676767" font-size="16" font-family="OpenSans, Open Sans"><tspan x="0" y="0">Company has been successfully added.</tspan></text><text transform="translate(624 443)" fill="#333" font-size="30" font-family="OpenSans-Semibold, Open Sans" font-weight="600"><tspan x="0" y="0">Confirmation</tspan></text><g transform="translate(439.5 -420)"><g transform="matrix(1, 0, 0, 1, -439.5, 420)" filter="url(#d)"><rect width="209.813" height="50" rx="4" transform="translate(615 531.5)" fill="url(#c)"/></g><text transform="translate(280.5 983)" fill="#333" font-size="16" font-family="OpenSans-Semibold, Open Sans" font-weight="600"><tspan x="-65.297" y="0">Company Details</tspan></text></g><g transform="translate(439.5 -350)"><g transform="matrix(1, 0, 0, 1, -439.5, 350)" filter="url(#g)"><rect width="209.813" height="50" rx="4" transform="translate(615 601.5)" fill="url(#c)"/></g><text transform="translate(280.5 983)" fill="#333" font-size="16" font-family="OpenSans-Semibold, Open Sans" font-weight="600"><tspan x="-53.934" y="0">Add Company</tspan></text></g><g transform="translate(439.5 -288)"><g transform="matrix(1, 0, 0, 1, -439.5, 288)" filter="url(#j)"><rect width="209.813" height="50" rx="4" transform="translate(615 663.5)" fill="url(#c)"/></g><text transform="translate(280.5 983)" fill="#333" font-size="16" font-family="OpenSans-Semibold, Open Sans" font-weight="600"><tspan x="-75.141" y="0">View All Companies</tspan></text></g><g transform="matrix(1, 0, 0, 1, 0, 0)" filter="url(#m)"><rect width="118.6" height="50" rx="4" transform="translate(135.5 187)" fill="url(#c)"/></g><text transform="translate(208 218)" fill="#515151" font-size="16" font-family="OpenSans-Semibold, Open Sans" font-weight="600"><tspan x="-18.457" y="0">Back</tspan></text><text transform="translate(291 223)" fill="#333" font-size="30" font-family="OpenSans-Semibold, Open Sans" font-weight="600"><tspan x="0" y="0">Add Company</tspan></text><g transform="translate(146.5 193.5)"><path d="M27.809,18H7.5" transform="translate(0 -0.346)" fill="none" stroke="#0789b9" stroke-linecap="round" stroke-linejoin="round" stroke-width="3"/><path d="M17.654,27.809,7.5,17.654,17.654,7.5" transform="translate(0 0)" fill="none" stroke="#0789b9" stroke-linecap="round" stroke-linejoin="round" stroke-width="3"/></g><g transform="matrix(1, 0, 0, 1, 0, 0)" filter="url(#o)"><rect width="1440" height="89" fill="#0789b9"/></g><g transform="translate(0 -3)"><line x2="25" transform="translate(135.5 57.5)" fill="none" stroke="#fff" stroke-width="2"/><line x2="25" transform="translate(135.5 47.5)" fill="none" stroke="#fff" stroke-width="2"/><line x2="25" transform="translate(135.5 37.5)" fill="none" stroke="#fff" stroke-width="2"/></g><text transform="translate(406 52)" fill="#fff" font-size="16" font-family="FiraSans-Regular, Fira Sans" letter-spacing="0.1em"><tspan x="0" y="0">A </tspan><tspan y="0" fill="#8eb3c1" font-size="18">A</tspan><tspan y="0" fill="#8eb3c1"> </tspan><tspan y="0" fill="#8eb3c1" font-size="20">A</tspan></text><text transform="translate(1288 53)" fill="#fff" font-size="16" font-family="OpenSans, Open Sans"><tspan x="0" y="0">Logout</tspan></text><path d="M9.5,20.5a2.909,2.909,0,0,0,2.7-2.941H6.788A2.913,2.913,0,0,0,9.5,20.5Zm9.13-5.14c-.819-.88-2.351-2.2-2.351-6.54A6.694,6.694,0,0,0,10.851,2.24V1.356a1.356,1.356,0,1,0-2.711,0V2.24A6.694,6.694,0,0,0,2.716,8.817c0,4.336-1.532,5.66-2.351,6.54a1.324,1.324,0,0,0-.365.92,1.358,1.358,0,0,0,1.361,1.356H17.63a1.357,1.357,0,0,0,1.361-1.356A1.324,1.324,0,0,0,18.625,15.357Z" transform="translate(1251 36.502)" fill="#fff"/><g transform="translate(0 986)"><g transform="translate(0 -1618)"><rect width="1440" height="94" transform="translate(0 1618)" fill="#c4c4c4"/><rect width="1440" height="1" transform="translate(0 1677)" fill="#c4c4c4"/><g transform="translate(135.001 1634.295)"><path d="M290.352,1109.02l-20.38-11.767c-4.691-2.708-8.616-1.861-8.616,4.129v23.533c0,5.417,2.7,8.392,7.884,5.4l20.38-11.767C294.311,1115.838,295.539,1112.015,290.352,1109.02Zm-8.316,8.44s-11.669,6.831-12.471,7.2-3.4.847-3.4-2.851v-16.068c0-4.089,3.207-2.383,3.207-2.383l13.159,7.6C286.078,1113,285.239,1115.611,282.036,1117.46Z" transform="translate(-261.356 -1095.784)" fill="#c4c4c4" fill-rule="evenodd"/><path d="M353.7,1209.567l-16.073-9.28c-5.365-3.1-11.836-2.562-11.525,5.467.076-1.972.974-2.879,2.137-3.111a4.242,4.242,0,0,1,1.65.027c5.763.7,16.869,6.171,21.983,9.521,3.5,2.293,4.055,4.531,1.1,6.9C357.662,1216.385,358.89,1212.562,353.7,1209.567Z" transform="translate(-324.707 -1196.332)" fill="#c4c4c4" fill-rule="evenodd"/><path d="M429.785,1394.469c-6.031-4.122-20.809-10.989-24.652-9.35a5.243,5.243,0,0,1,4.182.691l13.915,8.034c.367.212.643.437.938.633,3.532,2.35,2.463,8.177-.132,10.582l6.278-3.625C434.385,1399.082,432.186,1396.109,429.785,1394.469Z" transform="translate(-402.05 -1378.671)" fill="#c4c4c4" fill-rule="evenodd"/><g transform="translate(41.284 8)"><g transform="translate(0 0.457)"><path d="M2000,1606.543h2.427v18.188H2000Z" transform="translate(-2000 -1606.543)" fill="#c4c4c4"/><path d="M2153.352,1778.01h2.139v1.664h.057a4.178,4.178,0,0,1,3.582-1.951c2.484,0,4.333,1.094,4.333,4.475v8.032h-2.138v-7.858c0-2.123-1.094-2.754-2.6-2.754a3.065,3.065,0,0,0-3.293,3.213v7.344h-2.139Z" transform="translate(-2148.209 -1772.045)" fill="#c4c4c4"/><path d="M2524.4,1778.01h2.139v1.664h.057a4.18,4.18,0,0,1,3.582-1.951c2.484,0,4.333,1.094,4.333,4.475v8.032h-2.138v-7.858c0-2.123-1.094-2.754-2.6-2.754a3.069,3.069,0,0,0-3.293,3.213v7.344h-2.14Z" transform="translate(-2506.948 -1772.045)" fill="#c4c4c4"/><path d="M2882.236,1777.786c3.756,0,6.009,2.7,6.009,6.426s-2.253,6.426-6.009,6.426-6.009-2.7-6.009-6.426S2878.481,1777.786,2882.236,1777.786Zm0,11.188c3.063,0,3.756-2.754,3.756-4.762s-.694-4.762-3.756-4.762-3.755,2.754-3.755,4.762S2879.232,1788.974,2882.236,1788.974Z" transform="translate(-2847.164 -1772.106)" fill="#c4c4c4"/><path d="M3283.857,1777.832h1.965v1.55h.057a4.543,4.543,0,0,1,3.464-1.836,3.7,3.7,0,0,1,3.582,2.123,5.1,5.1,0,0,1,3.756-2.123c2.022,0,3.987.861,3.987,4.475v8.089h-2.138v-8.26c0-1.492-.693-2.41-2.137-2.41-1.329,0-3.063.688-3.063,2.582v8.032H3291.2v-8.205c0-1.492-.694-2.41-2.138-2.41-1.329,0-3.063.688-3.063,2.582v8.032h-2.138Z" transform="translate(-3241.273 -1771.867)" fill="#c4c4c4"/><path d="M3851.17,1781.86c0-1.721-.751-2.467-2.889-2.467-1.618,0-2.427.861-2.543,2.525l-2.138-.115c.289-2.754,1.906-4.016,4.679-4.016,2.081,0,4.969.573,4.969,3.786v5.68c0,1.205.462,1.377.924,1.377a2.092,2.092,0,0,0,.638-.115v1.721a4.956,4.956,0,0,1-1.329.172,1.9,1.9,0,0,1-2.135-1.64c0-.008,0-.016,0-.024a5.753,5.753,0,0,1-4.392,1.894,3.656,3.656,0,0,1-3.929-3.385c0-3.385,3.062-3.959,8.089-4.246l.057-1.148Zm0,2.467c-3.464.456-5.835.861-5.835,2.754,0,1.491,1.387,1.894,2.371,1.894a3.178,3.178,0,0,0,3.452-2.878,3.251,3.251,0,0,0,.012-.334Z" transform="translate(-3781.893 -1772.106)" fill="#c4c4c4"/><path d="M4241.892,1783.094h2.138v2.124h.058c.982-1.664,2.2-2.237,4.334-2.237v2.295c-.405,0-1.04-.057-1.444-.057a3.163,3.163,0,0,0-3.009,3.27v6.828h-2.138l.058-12.217Z" transform="translate(-4167.472 -1777.129)" fill="#c4c4c4"/></g><g transform="translate(82.968)"><path d="M4513.758,1598.565c-.115-2.7-2.2-3.844-4.741-3.844-1.732,0-4.1.574-4.1,2.754,0,4.819,11.613,1.205,11.613,8.778,0,3.844-3.582,5.623-7.049,5.623-4.333,0-7.8-1.721-8.089-6.368l2.6-.23c.116,3.27,2.2,4.65,5.374,4.65,2.311,0,4.507-1.033,4.507-3.615,0-4.992-11.615-1.607-11.615-8.377,0-3.5,3.409-5.164,6.587-5.164,3.755,0,6.876,1.721,7.4,5.68Z" transform="translate(-4501.389 -1592.772)" fill="#c4c4c4"/><path d="M4994.5,1676.049h2.022v-3.786h2.138v3.786h2.311v1.779h-2.311v7.8c0,.573,0,1.148.867,1.148a5.392,5.392,0,0,0,1.33-.23v1.779a8.582,8.582,0,0,1-2.082.23c-2.195,0-2.195-1.033-2.195-2.41v-8.318h-2.022v-1.78Z" transform="translate(-4978.147 -1669.627)" fill="#c4c4c4"/><path d="M5645.785,1783.094h2.136v2.124h.057c.983-1.664,2.2-2.237,4.334-2.237v2.295c-.4,0-1.041-.057-1.388-.057a3.161,3.161,0,0,0-3.007,3.27v6.828h-2.138Z" transform="translate(-5607.82 -1776.672)" fill="#c4c4c4"/><path d="M5240.77,1781.86c0-1.721-.752-2.467-2.889-2.467-1.619,0-2.427.861-2.542,2.525l-2.138-.115c.289-2.754,1.906-4.016,4.68-4.016,2.08,0,4.968.573,4.968,3.786v5.68c0,1.205.462,1.377.924,1.377a2.086,2.086,0,0,0,.638-.115v1.721a4.95,4.95,0,0,1-1.329.172,1.9,1.9,0,0,1-2.135-1.64c0-.008,0-.016,0-.024a5.751,5.751,0,0,1-4.392,1.894,3.656,3.656,0,0,1-3.929-3.385c0-3.385,3.063-3.959,8.09-4.246l.057-1.148Zm0,2.467c-3.465.456-5.835.861-5.835,2.754,0,1.491,1.387,1.894,2.371,1.894a3.178,3.178,0,0,0,3.452-2.878,3.322,3.322,0,0,0,.013-.334Z" transform="translate(-5208.368 -1771.65)" fill="#c4c4c4"/><path d="M5895.111,1676.049h2.022v-3.786h2.138v3.786h2.311v1.779h-2.311v7.8c0,.573,0,1.148.866,1.148a5.381,5.381,0,0,0,1.329-.23v1.779a8.568,8.568,0,0,1-2.08.23c-2.2,0-2.2-1.033-2.2-2.41v-8.318h-2.021v-1.78Z" transform="translate(-5848.884 -1669.627)" fill="#c4c4c4"/></g></g></g></g><text transform="translate(339 53)" fill="#5b5b5b" font-size="16" font-family="OpenSans, Open Sans"><tspan x="0" y="0">© 2020 Company Name Inc. All rights reserved.</tspan><tspan x="0" y="22"></tspan></text><text transform="translate(988 53)" fill="#5b5b5b" font-size="16" font-family="OpenSans, Open Sans"><tspan x="0" y="0">Terms &amp; Conditions</tspan><tspan x="0" y="22"></tspan></text><text transform="translate(1172 53)" fill="#5b5b5b" font-size="16" font-family="OpenSans, Open Sans"><tspan x="0" y="0">Privacy Policy</tspan><tspan x="0" y="22"></tspan></text></g><g transform="translate(135.5 127.174)"><path d="M4.5,8.889,12.072,3l7.572,5.889v9.254a1.683,1.683,0,0,1-1.683,1.683H6.183A1.683,1.683,0,0,1,4.5,18.143Z" fill="none" stroke="#333" stroke-linecap="round" stroke-linejoin="round" stroke-width="1.5"/><path d="M13.5,26.413V18h5.048v8.413" transform="translate(-3.952 -6.587)" fill="none" stroke="#333" stroke-linecap="round" stroke-linejoin="round" stroke-width="1.5"/></g><text transform="translate(207.848 145.465)" fill="#333" font-size="16" font-family="OpenSans, Open Sans"><tspan x="-32.363" y="0">Platform</tspan></text></g></svg>