<svg xmlns="http://www.w3.org/2000/svg" xmlns:xlink="http://www.w3.org/1999/xlink" width="1440" height="306" viewBox="0 0 1440 306"><defs><linearGradient id="a" x1="0.5" x2="0.5" y2="1" gradientUnits="objectBoundingBox"><stop offset="0" stop-color="#f2f2f2"/><stop offset="1" stop-color="#d9d9d9"/></linearGradient><filter id="b" x="981.5" y="190.5" width="297.6" height="68" filterUnits="userSpaceOnUse"><feOffset dy="3" input="SourceAlpha"/><feGaussianBlur stdDeviation="3" result="c"/><feFlood flood-opacity="0.161"/><feComposite operator="in" in2="c"/><feComposite in="SourceGraphic"/></filter><filter id="e" x="126.5" y="189.5" width="136.6" height="68" filterUnits="userSpaceOnUse"><feOffset dy="3" input="SourceAlpha"/><feGaussianBlur stdDeviation="3" result="f"/><feFlood flood-opacity="0.161"/><feComposite operator="in" in2="f"/><feComposite in="SourceGraphic"/></filter><filter id="g" x="-9" y="-7.5" width="1458" height="107" filterUnits="userSpaceOnUse"><feOffset dy="1.5" input="SourceAlpha"/><feGaussianBlur stdDeviation="3" result="h"/><feFlood flood-opacity="0.161"/><feComposite operator="in" in2="h"/><feComposite in="SourceGraphic"/></filter><clipPath id="j"><rect width="1440" height="306"/></clipPath></defs><g id="i" clip-path="url(#j)"><rect width="1440" height="306" fill="#fff"/><g transform="translate(0 -9)"><g transform="matrix(1, 0, 0, 1, 0, 9)" filter="url(#b)"><rect width="279.6" height="50" rx="4" transform="translate(990.5 196.5)" fill="url(#a)"/></g><text transform="translate(1046 237)" fill="#333" font-size="16" font-family="OpenSans-Semibold, Open Sans" font-weight="600"><tspan x="0" y="0">Add New Certificate Range</tspan></text></g><g transform="translate(785 134.586)"><path d="M7.5,17.913l5.206-5.206L7.5,7.5" transform="translate(-0.2 -7.5)" fill="none" stroke="#333" stroke-linecap="round" stroke-linejoin="round" stroke-width="1.5"/></g><text transform="translate(880.848 145.465)" fill="#333" font-size="16" font-family="OpenSans, Open Sans"><tspan x="-72.371" y="0">View All Certificates</tspan></text><text transform="translate(291 233)" fill="#333" font-size="30" font-family="OpenSans-Semibold, Open Sans" font-weight="600"><tspan x="0" y="0">Program 1 Certificates</tspan></text><g transform="matrix(1, 0, 0, 1, 0, 0)" filter="url(#e)"><rect width="118.6" height="50" rx="4" transform="translate(135.5 195.5)" fill="url(#a)"/></g><text transform="translate(208 227)" fill="#515151" font-size="16" font-family="OpenSans-Semibold, Open Sans" font-weight="600"><tspan x="-18.457" y="0">Back</tspan></text><g transform="translate(146.5 203.5)"><path d="M27.809,18H7.5" transform="translate(0 -0.346)" fill="none" stroke="#0789b9" stroke-linecap="round" stroke-linejoin="round" stroke-width="3"/><path d="M17.654,27.809,7.5,17.654,17.654,7.5" transform="translate(0 0)" fill="none" stroke="#0789b9" stroke-linecap="round" stroke-linejoin="round" stroke-width="3"/></g><g transform="matrix(1, 0, 0, 1, 0, 0)" filter="url(#g)"><rect width="1440" height="89" fill="#0789b9"/></g><g transform="translate(0 -3)"><line x2="25" transform="translate(135.5 57.5)" fill="none" stroke="#fff" stroke-width="2"/><line x2="25" transform="translate(135.5 47.5)" fill="none" stroke="#fff" stroke-width="2"/><line x2="25" transform="translate(135.5 37.5)" fill="none" stroke="#fff" stroke-width="2"/></g><text transform="translate(406 52)" fill="#fff" font-size="16" font-family="FiraSans-Regular, Fira Sans" letter-spacing="0.1em"><tspan x="0" y="0">A </tspan><tspan y="0" fill="#8eb3c1" font-size="18">A</tspan><tspan y="0" fill="#8eb3c1"> </tspan><tspan y="0" fill="#8eb3c1" font-size="20">A</tspan></text><text transform="translate(1288 53)" fill="#fff" font-size="16" font-family="OpenSans, Open Sans"><tspan x="0" y="0">Logout</tspan></text><path d="M9.5,20.5a2.909,2.909,0,0,0,2.7-2.941H6.788A2.913,2.913,0,0,0,9.5,20.5Zm9.13-5.14c-.819-.88-2.351-2.2-2.351-6.54A6.694,6.694,0,0,0,10.851,2.24V1.356a1.356,1.356,0,1,0-2.711,0V2.24A6.694,6.694,0,0,0,2.716,8.817c0,4.336-1.532,5.66-2.351,6.54a1.324,1.324,0,0,0-.365.92,1.358,1.358,0,0,0,1.361,1.356H17.63a1.357,1.357,0,0,0,1.361-1.356A1.324,1.324,0,0,0,18.625,15.357Z" transform="translate(1251 36.502)" fill="#fff"/><text transform="translate(712.848 145.465)" fill="#333" font-size="16" font-family="OpenSans, Open Sans"><tspan x="-66.32" y="0">Program 1 Details</tspan></text><g transform="translate(623 134.586)"><path d="M7.5,17.913l5.206-5.206L7.5,7.5" transform="translate(-0.2 -7.5)" fill="none" stroke="#333" stroke-linecap="round" stroke-linejoin="round" stroke-width="1.5"/></g><text transform="translate(547.848 145.465)" fill="#333" font-size="16" font-family="OpenSans, Open Sans"><tspan x="-69.801" y="0">Company 1 Details</tspan></text><g transform="translate(455 134.586)"><path d="M7.5,17.913l5.206-5.206L7.5,7.5" transform="translate(-0.2 -7.5)" fill="none" stroke="#333" stroke-linecap="round" stroke-linejoin="round" stroke-width="1.5"/></g><text transform="translate(362.848 145.465)" fill="#333" font-size="16" font-family="OpenSans, Open Sans"><tspan x="-87.258" y="0">Company Management</tspan></text><g transform="translate(253 134.588)"><path d="M7.5,17.913l5.206-5.206L7.5,7.5" transform="translate(-0.2 -7.5)" fill="none" stroke="#333" stroke-linecap="round" stroke-linejoin="round" stroke-width="1.5"/></g><g transform="translate(135.5 127.174)"><path d="M4.5,8.889,12.072,3l7.572,5.889v9.254a1.683,1.683,0,0,1-1.683,1.683H6.183A1.683,1.683,0,0,1,4.5,18.143Z" fill="none" stroke="#333" stroke-linecap="round" stroke-linejoin="round" stroke-width="1.5"/><path d="M13.5,26.413V18h5.048v8.413" transform="translate(-3.952 -6.587)" fill="none" stroke="#333" stroke-linecap="round" stroke-linejoin="round" stroke-width="1.5"/></g><text transform="translate(207.848 145.465)" fill="#333" font-size="16" font-family="OpenSans, Open Sans"><tspan x="-32.363" y="0">Platform</tspan></text><g transform="translate(1004.061 206.928)"><path d="M18,7.5V22.2" transform="translate(-3.151)" fill="none" stroke="#333" stroke-linecap="round" stroke-linejoin="round" stroke-width="2"/><path d="M7.5,18H22.2" transform="translate(0 -3.151)" fill="none" stroke="#333" stroke-linecap="round" stroke-linejoin="round" stroke-width="2"/></g></g></svg>