<svg width="1310" height="600" fill="none" xmlns="http://www.w3.org/2000/svg">
  <g clip-path="url(#soulfx-end-to-end__clip0)">
    <path d="M102 67a8 8 0 018-8h125a8 8 0 018 8v57a8 8 0 01-8 8H110a8 8 0 01-8-8V67z" fill="#fff"/>
    <path d="M145.485 89.208c3.248 0 5.808-2.56 5.808-5.808 0-3.248-2.56-5.808-5.808-5.808a5.767 5.767 0 00-5.808 5.808 5.767 5.767 0 005.808 5.808zm0-1.792c-2.24 0-3.968-1.712-3.968-4.016 0-2.304 1.728-4.016 3.968-4.016s3.968 1.712 3.968 4.016c0 2.304-1.728 4.016-3.968 4.016zm11.583-6.624c-1.088 0-1.952.4-2.48 1.232V81h-1.728v8h1.728v-4.288c0-1.632.896-2.304 2.032-2.304 1.088 0 1.792.64 1.792 1.856V89h1.728v-4.912c0-2.08-1.28-3.296-3.072-3.296zm9.46 0c-1.248 0-2.192.512-2.8 1.344V77.8H162V89h1.728v-1.152c.608.848 1.552 1.36 2.8 1.36 2.176 0 3.984-1.84 3.984-4.208 0-2.384-1.808-4.208-3.984-4.208zm-.272 6.768c-1.44 0-2.528-1.072-2.528-2.56s1.088-2.56 2.528-2.56 2.528 1.072 2.528 2.56-1.088 2.56-2.528 2.56zm9.598 1.648c2.352 0 4.224-1.84 4.224-4.208 0-2.384-1.872-4.208-4.224-4.208-2.336 0-4.224 1.824-4.224 4.208 0 2.368 1.888 4.208 4.224 4.208zm0-1.68c-1.408 0-2.496-1.072-2.496-2.528s1.088-2.528 2.496-2.528 2.496 1.072 2.496 2.528-1.088 2.528-2.496 2.528zM187.977 81v1.136c-.608-.832-1.552-1.344-2.8-1.344-2.176 0-3.984 1.824-3.984 4.208 0 2.368 1.808 4.208 3.984 4.208 1.248 0 2.192-.512 2.8-1.36V89h1.728v-8h-1.728zm-2.528 6.56c-1.44 0-2.528-1.072-2.528-2.56s1.088-2.56 2.528-2.56 2.528 1.072 2.528 2.56-1.088 2.56-2.528 2.56zm7.998-5.216V81h-1.728v8h1.728v-4.032c0-1.792 1.328-2.32 2.464-2.24v-1.872c-1.008 0-1.984.4-2.464 1.488zm9.702-4.544v4.336c-.608-.832-1.552-1.344-2.8-1.344-2.176 0-3.984 1.824-3.984 4.208 0 2.368 1.808 4.208 3.984 4.208 1.248 0 2.192-.512 2.8-1.36V89h1.728V77.8h-1.728zm-2.528 9.76c-1.44 0-2.528-1.072-2.528-2.56s1.088-2.56 2.528-2.56 2.528 1.072 2.528 2.56-1.088 2.56-2.528 2.56zm-68.689 17.232c-1.072 0-1.92.432-2.448 1.264-.464-.8-1.232-1.264-2.272-1.264-.992 0-1.776.384-2.288 1.168V105h-1.728v8h1.728v-4.48c0-1.456.8-2.112 1.776-2.112.944 0 1.504.624 1.504 1.744V113h1.728v-4.48c0-1.456.72-2.112 1.744-2.112.944 0 1.552.624 1.552 1.744V113h1.728v-4.96c0-2-1.216-3.248-3.024-3.248zm11.209.208v1.136c-.608-.832-1.552-1.344-2.8-1.344-2.176 0-3.984 1.824-3.984 4.208 0 2.368 1.808 4.208 3.984 4.208 1.248 0 2.192-.512 2.8-1.36V113h1.728v-8h-1.728zm-2.528 6.56c-1.44 0-2.528-1.072-2.528-2.56s1.088-2.56 2.528-2.56 2.528 1.072 2.528 2.56-1.088 2.56-2.528 2.56zm10.478-6.768c-1.088 0-1.952.4-2.48 1.232V105h-1.728v8h1.728v-4.288c0-1.632.896-2.304 2.032-2.304 1.088 0 1.792.64 1.792 1.856V113h1.728v-4.912c0-2.08-1.28-3.296-3.072-3.296zm10.325.208v4.288c0 1.632-.896 2.304-2.032 2.304-1.088 0-1.792-.64-1.792-1.856V105h-1.728v4.912c0 2.08 1.28 3.296 3.072 3.296 1.088 0 1.952-.4 2.48-1.232V113h1.728v-8h-1.728zm7.94-1.744v-1.664c-2.4-.16-3.616 1.088-3.616 3.248v.16h-1.216v1.664h1.216V113h1.728v-6.336h1.888V105h-1.888v-.16c0-1.232.672-1.696 1.888-1.584zm6.972 1.744v1.136c-.608-.832-1.552-1.344-2.8-1.344-2.176 0-3.984 1.824-3.984 4.208 0 2.368 1.808 4.208 3.984 4.208 1.248 0 2.192-.512 2.8-1.36V113h1.728v-8h-1.728zm-2.528 6.56c-1.44 0-2.528-1.072-2.528-2.56s1.088-2.56 2.528-2.56 2.528 1.072 2.528 2.56-1.088 2.56-2.528 2.56zm10.047 1.648c1.568 0 2.928-.816 3.6-2.08l-1.488-.848c-.384.736-1.168 1.232-2.128 1.232-1.408 0-2.48-1.072-2.48-2.512s1.072-2.512 2.48-2.512c.96 0 1.744.48 2.096 1.232l1.488-.864c-.64-1.248-2-2.064-3.568-2.064-2.416 0-4.224 1.824-4.224 4.208 0 2.368 1.808 4.208 4.224 4.208zm9.313-6.544V105h-1.984v-2.24l-1.728.512V105h-1.472v1.664h1.472v3.84c0 2.08 1.056 2.816 3.712 2.496v-1.552c-1.312.064-1.984.08-1.984-.944v-3.84h1.984zm7.037-1.664v4.288c0 1.632-.896 2.304-2.032 2.304-1.088 0-1.792-.64-1.792-1.856V105h-1.728v4.912c0 2.08 1.28 3.296 3.072 3.296 1.088 0 1.952-.4 2.48-1.232V113h1.728v-8h-1.728zm5.477 1.344V105h-1.728v8h1.728v-4.032c0-1.792 1.328-2.32 2.464-2.24v-1.872c-1.008 0-1.984.4-2.464 1.488zm4.725 3.392h6.368c.032-.224.064-.48.064-.72 0-2.304-1.632-4.224-4.016-4.224-2.512 0-4.224 1.84-4.224 4.208 0 2.4 1.712 4.208 4.352 4.208 1.568 0 2.768-.656 3.504-1.744l-1.424-.832c-.384.56-1.104.992-2.064.992-1.28 0-2.288-.64-2.56-1.888zm-.016-1.408c.24-1.2 1.12-1.968 2.416-1.968 1.04 0 2.048.592 2.288 1.968h-4.704zm9.697-1.984V105h-1.728v8h1.728v-4.032c0-1.792 1.328-2.32 2.464-2.24v-1.872c-1.008 0-1.984.4-2.464 1.488z" fill="#1A1A1A"/>
    <path d="M110 59.5h125v-1H110v1zM242.5 67v57h1V67h-1zm-7.5 64.5H110v1h125v-1zM102.5 124V67h-1v57h1zm7.5 7.5a7.5 7.5 0 01-7.5-7.5h-1a8.5 8.5 0 008.5 8.5v-1zm132.5-7.5a7.5 7.5 0 01-7.5 7.5v1a8.5 8.5 0 008.5-8.5h-1zM235 59.5a7.5 7.5 0 017.5 7.5h1a8.5 8.5 0 00-8.5-8.5v1zm-125-1a8.5 8.5 0 00-8.5 8.5h1a7.5 7.5 0 017.5-7.5v-1z" fill="#366B00"/>
    <path d="M293 67a8 8 0 018-8h177a8 8 0 018 8v57a8 8 0 01-8 8H301a8 8 0 01-8-8V67z" fill="#fff"/>
    <path d="M330.979 89.208c2.064 0 3.888-1.056 4.816-2.688l-1.6-.912c-.576 1.104-1.808 1.808-3.216 1.808-2.417 0-4.016-1.712-4.016-4.016 0-2.304 1.599-4.016 4.016-4.016 1.408 0 2.623.704 3.216 1.808l1.6-.928c-.944-1.632-2.768-2.672-4.816-2.672-3.408 0-5.856 2.56-5.856 5.808 0 3.248 2.448 5.808 5.856 5.808zm8.038-6.864V81h-1.728v8h1.728v-4.032c0-1.792 1.328-2.32 2.464-2.24v-1.872c-1.008 0-1.984.4-2.464 1.488zm4.726 3.392h6.368c.032-.224.064-.48.064-.72 0-2.304-1.632-4.224-4.016-4.224-2.512 0-4.224 1.84-4.224 4.208 0 2.4 1.712 4.208 4.352 4.208 1.568 0 2.768-.656 3.504-1.744l-1.424-.832c-.384.56-1.104.992-2.064.992-1.28 0-2.288-.64-2.56-1.888zm-.016-1.408c.24-1.2 1.12-1.968 2.416-1.968 1.04 0 2.048.592 2.288 1.968h-4.704zM357.985 81v1.136c-.608-.832-1.552-1.344-2.8-1.344-2.176 0-3.984 1.824-3.984 4.208 0 2.368 1.808 4.208 3.984 4.208 1.248 0 2.192-.512 2.8-1.36V89h1.728v-8h-1.728zm-2.528 6.56c-1.44 0-2.528-1.072-2.528-2.56s1.088-2.56 2.528-2.56 2.528 1.072 2.528 2.56-1.088 2.56-2.528 2.56zm10.734-4.896V81h-1.984v-2.24l-1.728.512V81h-1.472v1.664h1.472v3.84c0 2.08 1.056 2.816 3.712 2.496v-1.552c-1.312.064-1.984.08-1.984-.944v-3.84h1.984zm2.599 3.072h6.368c.032-.224.064-.48.064-.72 0-2.304-1.632-4.224-4.016-4.224-2.512 0-4.224 1.84-4.224 4.208 0 2.4 1.712 4.208 4.352 4.208 1.568 0 2.768-.656 3.504-1.744l-1.424-.832c-.384.56-1.104.992-2.064.992-1.28 0-2.288-.64-2.56-1.888zm-.016-1.408c.24-1.2 1.12-1.968 2.416-1.968 1.04 0 2.048.592 2.288 1.968h-4.704zm12.4 6.272l6.4-14.4h-.88l-6.4 14.4h.88zm20.711-9.808c-1.072 0-1.92.432-2.448 1.264-.464-.8-1.232-1.264-2.272-1.264-.992 0-1.776.384-2.288 1.168V81h-1.728v8h1.728v-4.48c0-1.456.8-2.112 1.776-2.112.944 0 1.504.624 1.504 1.744V89h1.728v-4.48c0-1.456.72-2.112 1.744-2.112.944 0 1.552.624 1.552 1.744V89h1.728v-4.96c0-2-1.216-3.248-3.024-3.248zm11.209.208v1.136c-.608-.832-1.552-1.344-2.8-1.344-2.176 0-3.984 1.824-3.984 4.208 0 2.368 1.808 4.208 3.984 4.208 1.248 0 2.192-.512 2.8-1.36V89h1.728v-8h-1.728zm-2.528 6.56c-1.44 0-2.528-1.072-2.528-2.56s1.088-2.56 2.528-2.56 2.528 1.072 2.528 2.56-1.088 2.56-2.528 2.56zm10.478-6.768c-1.088 0-1.952.4-2.48 1.232V81h-1.728v8h1.728v-4.288c0-1.632.896-2.304 2.032-2.304 1.088 0 1.792.64 1.792 1.856V89h1.728v-4.912c0-2.08-1.28-3.296-3.072-3.296zm11.269.208v1.136c-.608-.832-1.552-1.344-2.8-1.344-2.176 0-3.984 1.824-3.984 4.208 0 2.368 1.808 4.208 3.984 4.208 1.248 0 2.192-.512 2.8-1.36V89h1.728v-8h-1.728zm-2.528 6.56c-1.44 0-2.528-1.072-2.528-2.56s1.088-2.56 2.528-2.56 2.528 1.072 2.528 2.56-1.088 2.56-2.528 2.56zM442.423 81v1.184c-.608-.864-1.552-1.392-2.784-1.392-2.256 0-4.032 1.84-4.032 4.128 0 2.288 1.776 4.128 4.032 4.128 1.232 0 2.176-.528 2.784-1.392v.976c0 1.392-.896 2.208-2.384 2.208-1.392 0-1.984-.544-2.336-1.232l-1.488.864c.672 1.28 2.032 1.936 3.792 1.936 2.096 0 4.112-1.2 4.112-3.776V81h-1.696zm-2.544 6.432c-1.456 0-2.544-1.072-2.544-2.512s1.088-2.512 2.544-2.512 2.544 1.072 2.544 2.512-1.088 2.512-2.544 2.512zm7.614-1.696h6.368c.032-.224.064-.48.064-.72 0-2.304-1.632-4.224-4.016-4.224-2.512 0-4.224 1.84-4.224 4.208 0 2.4 1.712 4.208 4.352 4.208 1.568 0 2.768-.656 3.504-1.744l-1.424-.832c-.384.56-1.104.992-2.064.992-1.28 0-2.288-.64-2.56-1.888zm-.016-1.408c.24-1.2 1.12-1.968 2.416-1.968 1.04 0 2.048.592 2.288 1.968h-4.704zm-124.342 20.464c-1.072 0-1.92.432-2.448 1.264-.464-.8-1.232-1.264-2.272-1.264-.992 0-1.776.384-2.288 1.168V105h-1.728v8h1.728v-4.48c0-1.456.8-2.112 1.776-2.112.944 0 1.504.624 1.504 1.744V113h1.728v-4.48c0-1.456.72-2.112 1.744-2.112.944 0 1.552.624 1.552 1.744V113h1.728v-4.96c0-2-1.216-3.248-3.024-3.248zm11.209.208v1.136c-.608-.832-1.552-1.344-2.8-1.344-2.176 0-3.984 1.824-3.984 4.208 0 2.368 1.808 4.208 3.984 4.208 1.248 0 2.192-.512 2.8-1.36V113h1.728v-8h-1.728zm-2.528 6.56c-1.44 0-2.528-1.072-2.528-2.56s1.088-2.56 2.528-2.56 2.528 1.072 2.528 2.56-1.088 2.56-2.528 2.56zm10.478-6.768c-1.088 0-1.952.4-2.48 1.232V105h-1.728v8h1.728v-4.288c0-1.632.896-2.304 2.032-2.304 1.088 0 1.792.64 1.792 1.856V113h1.728v-4.912c0-2.08-1.28-3.296-3.072-3.296zm10.325.208v4.288c0 1.632-.896 2.304-2.032 2.304-1.088 0-1.792-.64-1.792-1.856V105h-1.728v4.912c0 2.08 1.28 3.296 3.072 3.296 1.088 0 1.952-.4 2.48-1.232V113h1.728v-8h-1.728zm7.94-1.744v-1.664c-2.4-.16-3.616 1.088-3.616 3.248v.16h-1.216v1.664h1.216V113h1.728v-6.336h1.888V105h-1.888v-.16c0-1.232.672-1.696 1.888-1.584zm6.973 1.744v1.136c-.608-.832-1.552-1.344-2.8-1.344-2.176 0-3.984 1.824-3.984 4.208 0 2.368 1.808 4.208 3.984 4.208 1.248 0 2.192-.512 2.8-1.36V113h1.728v-8h-1.728zm-2.528 6.56c-1.44 0-2.528-1.072-2.528-2.56s1.088-2.56 2.528-2.56 2.528 1.072 2.528 2.56-1.088 2.56-2.528 2.56zm10.046 1.648c1.568 0 2.928-.816 3.6-2.08l-1.488-.848c-.384.736-1.168 1.232-2.128 1.232-1.408 0-2.48-1.072-2.48-2.512s1.072-2.512 2.48-2.512c.96 0 1.744.48 2.096 1.232l1.488-.864c-.64-1.248-2-2.064-3.568-2.064-2.416 0-4.224 1.824-4.224 4.208 0 2.368 1.808 4.208 4.224 4.208zm9.313-6.544V105h-1.984v-2.24l-1.728.512V105h-1.472v1.664h1.472v3.84c0 2.08 1.056 2.816 3.712 2.496v-1.552c-1.312.064-1.984.08-1.984-.944v-3.84h1.984zM391.4 105v4.288c0 1.632-.896 2.304-2.032 2.304-1.088 0-1.792-.64-1.792-1.856V105h-1.728v4.912c0 2.08 1.28 3.296 3.072 3.296 1.088 0 1.952-.4 2.48-1.232V113h1.728v-8H391.4zm5.477 1.344V105h-1.728v8h1.728v-4.032c0-1.792 1.328-2.32 2.464-2.24v-1.872c-1.008 0-1.984.4-2.464 1.488zm4.725 3.392h6.368c.032-.224.064-.48.064-.72 0-2.304-1.632-4.224-4.016-4.224-2.512 0-4.224 1.84-4.224 4.208 0 2.4 1.712 4.208 4.352 4.208 1.568 0 2.768-.656 3.504-1.744l-1.424-.832c-.384.56-1.104.992-2.064.992-1.28 0-2.288-.64-2.56-1.888zm-.016-1.408c.24-1.2 1.12-1.968 2.416-1.968 1.04 0 2.048.592 2.288 1.968h-4.704zm9.697-1.984V105h-1.728v8h1.728v-4.032c0-1.792 1.328-2.32 2.464-2.24v-1.872c-1.008 0-1.984.4-2.464 1.488zm9.469 0V105h-1.728v8h1.728v-4.032c0-1.792 1.328-2.32 2.464-2.24v-1.872c-1.008 0-1.984.4-2.464 1.488zm4.725 3.392h6.368c.032-.224.064-.48.064-.72 0-2.304-1.632-4.224-4.016-4.224-2.512 0-4.224 1.84-4.224 4.208 0 2.4 1.712 4.208 4.352 4.208 1.568 0 2.768-.656 3.504-1.744l-1.424-.832c-.384.56-1.104.992-2.064.992-1.28 0-2.288-.64-2.56-1.888zm-.016-1.408c.24-1.2 1.12-1.968 2.416-1.968 1.04 0 2.048.592 2.288 1.968h-4.704zm11.698 4.88c1.568 0 2.928-.816 3.6-2.08l-1.488-.848c-.384.736-1.168 1.232-2.128 1.232-1.408 0-2.48-1.072-2.48-2.512s1.072-2.512 2.48-2.512c.96 0 1.744.48 2.096 1.232l1.488-.864c-.64-1.248-2-2.064-3.568-2.064-2.416 0-4.224 1.824-4.224 4.208 0 2.368 1.808 4.208 4.224 4.208zm8.5 0c2.352 0 4.224-1.84 4.224-4.208 0-2.384-1.872-4.208-4.224-4.208-2.336 0-4.224 1.824-4.224 4.208 0 2.368 1.888 4.208 4.224 4.208zm0-1.68c-1.408 0-2.496-1.072-2.496-2.528s1.088-2.528 2.496-2.528 2.496 1.072 2.496 2.528-1.088 2.528-2.496 2.528zm7.515-5.184V105h-1.728v8h1.728v-4.032c0-1.792 1.328-2.32 2.464-2.24v-1.872c-1.008 0-1.984.4-2.464 1.488zm9.701-4.544v4.336c-.608-.832-1.552-1.344-2.8-1.344-2.176 0-3.984 1.824-3.984 4.208 0 2.368 1.808 4.208 3.984 4.208 1.248 0 2.192-.512 2.8-1.36V113h1.728v-11.2h-1.728zm-2.528 9.76c-1.44 0-2.528-1.072-2.528-2.56s1.088-2.56 2.528-2.56 2.528 1.072 2.528 2.56-1.088 2.56-2.528 2.56z" fill="#1A1A1A"/>
    <path d="M301 59.5h177v-1H301v1zM485.5 67v57h1V67h-1zm-7.5 64.5H301v1h177v-1zM293.5 124V67h-1v57h1zm7.5 7.5a7.5 7.5 0 01-7.5-7.5h-1a8.5 8.5 0 008.5 8.5v-1zm184.5-7.5a7.5 7.5 0 01-7.5 7.5v1a8.5 8.5 0 008.5-8.5h-1zM478 59.5a7.5 7.5 0 017.5 7.5h1a8.5 8.5 0 00-8.5-8.5v1zm-177-1a8.5 8.5 0 00-8.5 8.5h1a7.5 7.5 0 017.5-7.5v-1z" fill="#366B00"/>
    <path d="M536 67a8 8 0 018-8h156a8 8 0 018 8v57a8 8 0 01-8 8H544a8 8 0 01-8-8V67z" fill="#fff"/>
    <path d="M575.846 89h1.984l-4.048-11.2h-2.208L567.51 89h2l.784-2.256h4.768l.784 2.256zm-4.944-3.984l1.776-5.056 1.776 5.056h-3.552zm14.153-7.216v4.336c-.608-.832-1.552-1.344-2.8-1.344-2.176 0-3.984 1.824-3.984 4.208 0 2.368 1.808 4.208 3.984 4.208 1.248 0 2.192-.512 2.8-1.36V89h1.728V77.8h-1.728zm-2.528 9.76c-1.44 0-2.528-1.072-2.528-2.56s1.088-2.56 2.528-2.56 2.528 1.072 2.528 2.56-1.088 2.56-2.528 2.56zm12.606-9.76v4.336c-.608-.832-1.552-1.344-2.8-1.344-2.176 0-3.984 1.824-3.984 4.208 0 2.368 1.808 4.208 3.984 4.208 1.248 0 2.192-.512 2.8-1.36V89h1.728V77.8h-1.728zm-2.528 9.76c-1.44 0-2.528-1.072-2.528-2.56s1.088-2.56 2.528-2.56 2.528 1.072 2.528 2.56-1.088 2.56-2.528 2.56zm10.702 3.04l6.4-14.4h-.88l-6.4 14.4h.88zm20.71-9.808c-1.072 0-1.92.432-2.448 1.264-.464-.8-1.232-1.264-2.272-1.264-.992 0-1.776.384-2.288 1.168V81h-1.728v8h1.728v-4.48c0-1.456.8-2.112 1.776-2.112.944 0 1.504.624 1.504 1.744V89h1.728v-4.48c0-1.456.72-2.112 1.744-2.112.944 0 1.552.624 1.552 1.744V89h1.728v-4.96c0-2-1.216-3.248-3.024-3.248zm11.21.208v1.136c-.608-.832-1.552-1.344-2.8-1.344-2.176 0-3.984 1.824-3.984 4.208 0 2.368 1.808 4.208 3.984 4.208 1.248 0 2.192-.512 2.8-1.36V89h1.728v-8h-1.728zm-2.528 6.56c-1.44 0-2.528-1.072-2.528-2.56s1.088-2.56 2.528-2.56 2.528 1.072 2.528 2.56-1.088 2.56-2.528 2.56zm10.478-6.768c-1.088 0-1.952.4-2.48 1.232V81h-1.728v8h1.728v-4.288c0-1.632.896-2.304 2.032-2.304 1.088 0 1.792.64 1.792 1.856V89h1.728v-4.912c0-2.08-1.28-3.296-3.072-3.296zm11.269.208v1.136c-.608-.832-1.552-1.344-2.8-1.344-2.176 0-3.984 1.824-3.984 4.208 0 2.368 1.808 4.208 3.984 4.208 1.248 0 2.192-.512 2.8-1.36V89h1.728v-8h-1.728zm-2.528 6.56c-1.44 0-2.528-1.072-2.528-2.56s1.088-2.56 2.528-2.56 2.528 1.072 2.528 2.56-1.088 2.56-2.528 2.56zM664.556 81v1.184c-.608-.864-1.552-1.392-2.784-1.392-2.256 0-4.032 1.84-4.032 4.128 0 2.288 1.776 4.128 4.032 4.128 1.232 0 2.176-.528 2.784-1.392v.976c0 1.392-.896 2.208-2.384 2.208-1.392 0-1.984-.544-2.336-1.232l-1.488.864c.672 1.28 2.032 1.936 3.792 1.936 2.096 0 4.112-1.2 4.112-3.776V81h-1.696zm-2.544 6.432c-1.456 0-2.544-1.072-2.544-2.512s1.088-2.512 2.544-2.512 2.544 1.072 2.544 2.512-1.088 2.512-2.544 2.512zm7.614-1.696h6.368c.032-.224.064-.48.064-.72 0-2.304-1.632-4.224-4.016-4.224-2.512 0-4.224 1.84-4.224 4.208 0 2.4 1.712 4.208 4.352 4.208 1.568 0 2.768-.656 3.504-1.744l-1.424-.832c-.384.56-1.104.992-2.064.992-1.28 0-2.288-.64-2.56-1.888zm-.016-1.408c.24-1.2 1.12-1.968 2.416-1.968 1.04 0 2.048.592 2.288 1.968h-4.704zm-108.043 20.464c-1.248 0-2.192.512-2.8 1.36V105h-1.728v11.2h1.728v-4.336c.608.832 1.552 1.344 2.8 1.344 2.176 0 3.984-1.824 3.984-4.208 0-2.368-1.808-4.208-3.984-4.208zm-.272 6.768c-1.44 0-2.528-1.072-2.528-2.56s1.088-2.56 2.528-2.56 2.528 1.072 2.528 2.56-1.088 2.56-2.528 2.56zm7.55-5.216V105h-1.728v8h1.728v-4.032c0-1.792 1.328-2.32 2.464-2.24v-1.872c-1.008 0-1.984.4-2.464 1.488zm7.142 6.864c2.352 0 4.224-1.84 4.224-4.208 0-2.384-1.872-4.208-4.224-4.208-2.336 0-4.224 1.824-4.224 4.208 0 2.368 1.888 4.208 4.224 4.208zm0-1.68c-1.408 0-2.496-1.072-2.496-2.528s1.088-2.528 2.496-2.528 2.496 1.072 2.496 2.528-1.088 2.528-2.496 2.528zM588.142 105v1.184c-.608-.864-1.552-1.392-2.784-1.392-2.256 0-4.032 1.84-4.032 4.128 0 2.288 1.776 4.128 4.032 4.128 1.232 0 2.176-.528 2.784-1.392v.976c0 1.392-.896 2.208-2.384 2.208-1.392 0-1.984-.544-2.336-1.232l-1.488.864c.672 1.28 2.032 1.936 3.792 1.936 2.096 0 4.112-1.2 4.112-3.776V105h-1.696zm-2.544 6.432c-1.456 0-2.544-1.072-2.544-2.512s1.088-2.512 2.544-2.512 2.544 1.072 2.544 2.512-1.088 2.512-2.544 2.512zm7.982-5.088V105h-1.728v8h1.728v-4.032c0-1.792 1.328-2.32 2.464-2.24v-1.872c-1.008 0-1.984.4-2.464 1.488zm9.702-1.344v1.136c-.608-.832-1.552-1.344-2.8-1.344-2.176 0-3.984 1.824-3.984 4.208 0 2.368 1.808 4.208 3.984 4.208 1.248 0 2.192-.512 2.8-1.36V113h1.728v-8h-1.728zm-2.528 6.56c-1.44 0-2.528-1.072-2.528-2.56s1.088-2.56 2.528-2.56 2.528 1.072 2.528 2.56-1.088 2.56-2.528 2.56zm15.006-6.768c-1.072 0-1.92.432-2.448 1.264-.464-.8-1.232-1.264-2.272-1.264-.992 0-1.776.384-2.288 1.168V105h-1.728v8h1.728v-4.48c0-1.456.8-2.112 1.776-2.112.944 0 1.504.624 1.504 1.744V113h1.728v-4.48c0-1.456.72-2.112 1.744-2.112.944 0 1.552.624 1.552 1.744V113h1.728v-4.96c0-2-1.216-3.248-3.024-3.248zm10.601 1.552V105h-1.728v8h1.728v-4.032c0-1.792 1.328-2.32 2.464-2.24v-1.872c-1.008 0-1.984.4-2.464 1.488zm4.726 3.392h6.368c.032-.224.064-.48.064-.72 0-2.304-1.632-4.224-4.016-4.224-2.512 0-4.224 1.84-4.224 4.208 0 2.4 1.712 4.208 4.352 4.208 1.568 0 2.768-.656 3.504-1.744l-1.424-.832c-.384.56-1.104.992-2.064.992-1.28 0-2.288-.64-2.56-1.888zm-.016-1.408c.24-1.2 1.12-1.968 2.416-1.968 1.04 0 2.048.592 2.288 1.968h-4.704zm11.697 4.88c1.568 0 2.928-.816 3.6-2.08l-1.488-.848c-.384.736-1.168 1.232-2.128 1.232-1.408 0-2.48-1.072-2.48-2.512s1.072-2.512 2.48-2.512c.96 0 1.744.48 2.096 1.232l1.488-.864c-.64-1.248-2-2.064-3.568-2.064-2.416 0-4.224 1.824-4.224 4.208 0 2.368 1.808 4.208 4.224 4.208zm8.5 0c2.352 0 4.224-1.84 4.224-4.208 0-2.384-1.872-4.208-4.224-4.208-2.336 0-4.224 1.824-4.224 4.208 0 2.368 1.888 4.208 4.224 4.208zm0-1.68c-1.408 0-2.496-1.072-2.496-2.528s1.088-2.528 2.496-2.528 2.496 1.072 2.496 2.528-1.088 2.528-2.496 2.528zm7.515-5.184V105h-1.728v8h1.728v-4.032c0-1.792 1.328-2.32 2.464-2.24v-1.872c-1.008 0-1.984.4-2.464 1.488zm9.702-4.544v4.336c-.608-.832-1.552-1.344-2.8-1.344-2.176 0-3.984 1.824-3.984 4.208 0 2.368 1.808 4.208 3.984 4.208 1.248 0 2.192-.512 2.8-1.36V113h1.728v-11.2h-1.728zm-2.528 9.76c-1.44 0-2.528-1.072-2.528-2.56s1.088-2.56 2.528-2.56 2.528 1.072 2.528 2.56-1.088 2.56-2.528 2.56zm7.902 3.04h1.728c-1.12-2.24-1.76-4.64-1.76-7.2 0-2.56.64-4.96 1.76-7.2h-1.728c-1.12 2.24-1.76 4.64-1.76 7.2 0 2.56.64 4.96 1.76 7.2zm4.607-7.392c0-.576.544-.848 1.168-.848.656 0 1.216.288 1.504.912l1.456-.816c-.56-1.056-1.648-1.664-2.96-1.664-1.632 0-2.928.944-2.928 2.448 0 2.864 4.304 2.064 4.304 3.488 0 .64-.592.896-1.36.896-.88 0-1.52-.432-1.776-1.152l-1.488.864c.512 1.152 1.664 1.872 3.264 1.872 1.728 0 3.12-.864 3.12-2.464 0-2.96-4.304-2.08-4.304-3.536zm6.863 7.392c1.12-2.24 1.76-4.64 1.76-7.2 0-2.56-.64-4.96-1.76-7.2h-1.728c1.12 2.24 1.76 4.64 1.76 7.2 0 2.56-.64 4.96-1.76 7.2h1.728z" fill="#1A1A1A"/>
    <path d="M544 59.5h156v-1H544v1zM707.5 67v57h1V67h-1zm-7.5 64.5H544v1h156v-1zM536.5 124V67h-1v57h1zm7.5 7.5a7.5 7.5 0 01-7.5-7.5h-1a8.5 8.5 0 008.5 8.5v-1zm163.5-7.5a7.5 7.5 0 01-7.5 7.5v1a8.5 8.5 0 008.5-8.5h-1zM700 59.5a7.5 7.5 0 017.5 7.5h1a8.5 8.5 0 00-8.5-8.5v1zm-156-1a8.5 8.5 0 00-8.5 8.5h1a7.5 7.5 0 017.5-7.5v-1z" fill="#366B00"/>
    <path d="M756 121a8 8 0 018-8h184a8 8 0 018 8v57a8 8 0 01-8 8H764a8 8 0 01-8-8v-57z" fill="#fff"/>
    <path d="M784.783 143h1.984l-4.048-11.2h-2.208l-4.064 11.2h2l.784-2.256h4.768l.784 2.256zm-4.944-3.984l1.776-5.056 1.776 5.056h-3.552zm11.593 4.192c1.568 0 2.928-.816 3.6-2.08l-1.488-.848c-.384.736-1.168 1.232-2.128 1.232-1.408 0-2.48-1.072-2.48-2.512s1.072-2.512 2.48-2.512c.96 0 1.744.48 2.096 1.232l1.488-.864c-.64-1.248-2-2.064-3.568-2.064-2.416 0-4.224 1.824-4.224 4.208 0 2.368 1.808 4.208 4.224 4.208zm9.313-6.544V135h-1.984v-2.24l-1.728.512V135h-1.472v1.664h1.472v3.84c0 2.08 1.056 2.816 3.712 2.496v-1.552c-1.312.064-1.984.08-1.984-.944v-3.84h1.984zm2.432-2.864c.608 0 1.104-.512 1.104-1.104 0-.608-.496-1.104-1.104-1.104-.608 0-1.104.496-1.104 1.104 0 .592.496 1.104 1.104 1.104zm-.864 9.2h1.728v-8h-1.728v8zm9.158-8l-2.224 6.08-2.24-6.08h-1.888l3.12 8h2l3.12-8h-1.888zm9.006 0v1.136c-.608-.832-1.552-1.344-2.8-1.344-2.176 0-3.984 1.824-3.984 4.208 0 2.368 1.808 4.208 3.984 4.208 1.248 0 2.192-.512 2.8-1.36V143h1.728v-8h-1.728zm-2.528 6.56c-1.44 0-2.528-1.072-2.528-2.56s1.088-2.56 2.528-2.56 2.528 1.072 2.528 2.56-1.088 2.56-2.528 2.56zm10.734-4.896V135h-1.984v-2.24l-1.728.512V135h-1.472v1.664h1.472v3.84c0 2.08 1.056 2.816 3.712 2.496v-1.552c-1.312.064-1.984.08-1.984-.944v-3.84h1.984zm2.599 3.072h6.368c.032-.224.064-.48.064-.72 0-2.304-1.632-4.224-4.016-4.224-2.512 0-4.224 1.84-4.224 4.208 0 2.4 1.712 4.208 4.352 4.208 1.568 0 2.768-.656 3.504-1.744l-1.424-.832c-.384.56-1.104.992-2.064.992-1.28 0-2.288-.64-2.56-1.888zm-.016-1.408c.24-1.2 1.12-1.968 2.416-1.968 1.04 0 2.048.592 2.288 1.968h-4.704zm12.401 6.272l6.4-14.4h-.88l-6.4 14.4h.88zm18.31-12.8v4.336c-.608-.832-1.552-1.344-2.8-1.344-2.176 0-3.984 1.824-3.984 4.208 0 2.368 1.808 4.208 3.984 4.208 1.248 0 2.192-.512 2.8-1.36V143h1.728v-11.2h-1.728zm-2.528 9.76c-1.44 0-2.528-1.072-2.528-2.56s1.088-2.56 2.528-2.56 2.528 1.072 2.528 2.56-1.088 2.56-2.528 2.56zm7.63-1.824h6.368c.032-.224.064-.48.064-.72 0-2.304-1.632-4.224-4.016-4.224-2.512 0-4.224 1.84-4.224 4.208 0 2.4 1.712 4.208 4.352 4.208 1.568 0 2.768-.656 3.504-1.744l-1.424-.832c-.384.56-1.104.992-2.064.992-1.28 0-2.288-.64-2.56-1.888zm-.016-1.408c.24-1.2 1.12-1.968 2.416-1.968 1.04 0 2.048.592 2.288 1.968h-4.704zM881.321 135v1.136c-.608-.832-1.552-1.344-2.8-1.344-2.176 0-3.984 1.824-3.984 4.208 0 2.368 1.808 4.208 3.984 4.208 1.248 0 2.192-.512 2.8-1.36V143h1.728v-8h-1.728zm-2.528 6.56c-1.44 0-2.528-1.072-2.528-2.56s1.088-2.56 2.528-2.56 2.528 1.072 2.528 2.56-1.088 2.56-2.528 2.56zm10.046 1.648c1.568 0 2.928-.816 3.6-2.08l-1.488-.848c-.384.736-1.168 1.232-2.128 1.232-1.408 0-2.48-1.072-2.48-2.512s1.072-2.512 2.48-2.512c.96 0 1.744.48 2.096 1.232l1.488-.864c-.64-1.248-2-2.064-3.568-2.064-2.416 0-4.224 1.824-4.224 4.208 0 2.368 1.808 4.208 4.224 4.208zm9.313-6.544V135h-1.984v-2.24l-1.728.512V135h-1.472v1.664h1.472v3.84c0 2.08 1.056 2.816 3.712 2.496v-1.552c-1.312.064-1.984.08-1.984-.944v-3.84h1.984zm2.431-2.864c.608 0 1.104-.512 1.104-1.104 0-.608-.496-1.104-1.104-1.104-.608 0-1.104.496-1.104 1.104 0 .592.496 1.104 1.104 1.104zm-.864 9.2h1.728v-8h-1.728v8zm9.158-8l-2.224 6.08-2.24-6.08h-1.888l3.12 8h2l3.12-8h-1.888zm9.006 0v1.136c-.608-.832-1.552-1.344-2.8-1.344-2.176 0-3.984 1.824-3.984 4.208 0 2.368 1.808 4.208 3.984 4.208 1.248 0 2.192-.512 2.8-1.36V143h1.728v-8h-1.728zm-2.528 6.56c-1.44 0-2.528-1.072-2.528-2.56s1.088-2.56 2.528-2.56 2.528 1.072 2.528 2.56-1.088 2.56-2.528 2.56zm10.734-4.896V135h-1.984v-2.24l-1.728.512V135h-1.472v1.664h1.472v3.84c0 2.08 1.056 2.816 3.712 2.496v-1.552c-1.312.064-1.984.08-1.984-.944v-3.84h1.984zm2.599 3.072h6.368c.032-.224.064-.48.064-.72 0-2.304-1.632-4.224-4.016-4.224-2.512 0-4.224 1.84-4.224 4.208 0 2.4 1.712 4.208 4.352 4.208 1.568 0 2.768-.656 3.504-1.744l-1.424-.832c-.384.56-1.104.992-2.064.992-1.28 0-2.288-.64-2.56-1.888zm-.016-1.408c.24-1.2 1.12-1.968 2.416-1.968 1.04 0 2.048.592 2.288 1.968h-4.704zm-114.029 28.88c1.568 0 2.928-.816 3.6-2.08l-1.488-.848c-.384.736-1.168 1.232-2.128 1.232-1.408 0-2.48-1.072-2.48-2.512s1.072-2.512 2.48-2.512c.96 0 1.744.48 2.096 1.232l1.488-.864c-.64-1.248-2-2.064-3.568-2.064-2.416 0-4.224 1.824-4.224 4.208 0 2.368 1.808 4.208 4.224 4.208zm6.084-3.472h6.368c.032-.224.064-.48.064-.72 0-2.304-1.632-4.224-4.016-4.224-2.512 0-4.224 1.84-4.224 4.208 0 2.4 1.712 4.208 4.352 4.208 1.568 0 2.768-.656 3.504-1.744l-1.424-.832c-.384.56-1.104.992-2.064.992-1.28 0-2.288-.64-2.56-1.888zm-.016-1.408c.24-1.2 1.12-1.968 2.416-1.968 1.04 0 2.048.592 2.288 1.968h-4.704zm9.697-1.984V159h-1.728v8h1.728v-4.032c0-1.792 1.328-2.32 2.464-2.24v-1.872c-1.008 0-1.984.4-2.464 1.488zm8.408.32V159h-1.984v-2.24l-1.728.512V159h-1.472v1.664h1.472v3.84c0 2.08 1.056 2.816 3.712 2.496v-1.552c-1.312.064-1.984.08-1.984-.944v-3.84h1.984zm2.431-2.864c.608 0 1.104-.512 1.104-1.104 0-.608-.496-1.104-1.104-1.104-.608 0-1.104.496-1.104 1.104 0 .592.496 1.104 1.104 1.104zm-.864 9.2h1.728v-8h-1.728v8zm10.422-8h-4.384v-.16c0-1.232.672-1.584 1.888-1.584.56 0 1.136.032 1.776.128V155.8a7.878 7.878 0 00-1.776-.208c-2.4 0-3.616 1.088-3.616 3.248v.16h-1.216v1.664h1.216V167h1.728v-6.336h2.656V167h1.728v-8zm5.776 8.208c1.568 0 2.928-.816 3.6-2.08l-1.488-.848c-.384.736-1.168 1.232-2.128 1.232-1.408 0-2.48-1.072-2.48-2.512s1.072-2.512 2.48-2.512c.96 0 1.744.48 2.096 1.232l1.488-.864c-.64-1.248-2-2.064-3.568-2.064-2.416 0-4.224 1.824-4.224 4.208 0 2.368 1.808 4.208 4.224 4.208zm11.06-8.208v1.136c-.608-.832-1.552-1.344-2.8-1.344-2.176 0-3.984 1.824-3.984 4.208 0 2.368 1.808 4.208 3.984 4.208 1.248 0 2.192-.512 2.8-1.36V167h1.728v-8h-1.728zm-2.528 6.56c-1.44 0-2.528-1.072-2.528-2.56s1.088-2.56 2.528-2.56 2.528 1.072 2.528 2.56-1.088 2.56-2.528 2.56zm10.734-4.896V159h-1.984v-2.24l-1.728.512V159h-1.472v1.664h1.472v3.84c0 2.08 1.056 2.816 3.712 2.496v-1.552c-1.312.064-1.984.08-1.984-.944v-3.84h1.984zm2.599 3.072h6.368c.032-.224.064-.48.064-.72 0-2.304-1.632-4.224-4.016-4.224-2.512 0-4.224 1.84-4.224 4.208 0 2.4 1.712 4.208 4.352 4.208 1.568 0 2.768-.656 3.504-1.744l-1.424-.832c-.384.56-1.104.992-2.064.992-1.28 0-2.288-.64-2.56-1.888zm-.016-1.408c.24-1.2 1.12-1.968 2.416-1.968 1.04 0 2.048.592 2.288 1.968h-4.704zm9.601 6.272h1.728c-1.12-2.24-1.76-4.64-1.76-7.2 0-2.56.64-4.96 1.76-7.2h-1.728c-1.12 2.24-1.76 4.64-1.76 7.2 0 2.56.64 4.96 1.76 7.2zm4.607-7.392c0-.576.544-.848 1.168-.848.656 0 1.216.288 1.504.912l1.456-.816c-.56-1.056-1.648-1.664-2.96-1.664-1.632 0-2.928.944-2.928 2.448 0 2.864 4.304 2.064 4.304 3.488 0 .64-.592.896-1.36.896-.88 0-1.52-.432-1.776-1.152l-1.488.864c.512 1.152 1.664 1.872 3.264 1.872 1.728 0 3.12-.864 3.12-2.464 0-2.96-4.304-2.08-4.304-3.536zm6.863 7.392c1.12-2.24 1.76-4.64 1.76-7.2 0-2.56-.64-4.96-1.76-7.2h-1.728c1.12 2.24 1.76 4.64 1.76 7.2 0 2.56-.64 4.96-1.76 7.2h1.728z" fill="#1A1A1A"/>
    <path d="M764 113.5h184v-1H764v1zm191.5 7.5v57h1v-57h-1zm-7.5 64.5H764v1h184v-1zM756.5 178v-57h-1v57h1zm7.5 7.5a7.5 7.5 0 01-7.5-7.5h-1a8.5 8.5 0 008.5 8.5v-1zm191.5-7.5a7.5 7.5 0 01-7.5 7.5v1a8.5 8.5 0 008.5-8.5h-1zm-7.5-64.5a7.5 7.5 0 017.5 7.5h1a8.5 8.5 0 00-8.5-8.5v1zm-184-1a8.5 8.5 0 00-8.5 8.5h1a7.5 7.5 0 017.5-7.5v-1z" fill="#366B00"/>
    <path d="M340 423a8 8 0 018-8h88a8 8 0 018 8v57a8 8 0 01-8 8h-88a8 8 0 01-8-8v-57z" fill="#fff"/>
    <path d="M373.575 445.208c2.336 0 3.968-1.248 3.968-3.296 0-2.224-1.872-2.8-3.728-3.392-1.632-.512-2.256-.88-2.256-1.744 0-.848.688-1.392 1.76-1.392 1.248 0 1.952.672 2.352 1.568l1.552-.896c-.704-1.488-2.064-2.464-3.904-2.464-1.888 0-3.6 1.168-3.6 3.232 0 2.112 1.696 2.752 3.44 3.28 1.664.512 2.544.848 2.544 1.84 0 .816-.624 1.472-2.08 1.472-1.52 0-2.384-.752-2.784-1.888l-1.584.928c.592 1.664 2.112 2.752 4.32 2.752zm7.02-3.472h6.368c.032-.224.064-.48.064-.72 0-2.304-1.632-4.224-4.016-4.224-2.512 0-4.224 1.84-4.224 4.208 0 2.4 1.712 4.208 4.352 4.208 1.568 0 2.768-.656 3.504-1.744l-1.424-.832c-.384.56-1.104.992-2.064.992-1.28 0-2.288-.64-2.56-1.888zm-.016-1.408c.24-1.2 1.12-1.968 2.416-1.968 1.04 0 2.048.592 2.288 1.968h-4.704zm7.968 4.672h1.728v-11.68h-1.728V445zm5.094-3.264h6.368c.032-.224.064-.48.064-.72 0-2.304-1.632-4.224-4.016-4.224-2.512 0-4.224 1.84-4.224 4.208 0 2.4 1.712 4.208 4.352 4.208 1.568 0 2.768-.656 3.504-1.744l-1.424-.832c-.384.56-1.104.992-2.064.992-1.28 0-2.288-.64-2.56-1.888zm-.016-1.408c.24-1.2 1.12-1.968 2.416-1.968 1.04 0 2.048.592 2.288 1.968h-4.704zm11.698 4.88c1.568 0 2.928-.816 3.6-2.08l-1.488-.848c-.384.736-1.168 1.232-2.128 1.232-1.408 0-2.48-1.072-2.48-2.512s1.072-2.512 2.48-2.512c.96 0 1.744.48 2.096 1.232l1.488-.864c-.64-1.248-2-2.064-3.568-2.064-2.416 0-4.224 1.824-4.224 4.208 0 2.368 1.808 4.208 4.224 4.208zm9.313-6.544V437h-1.984v-2.24l-1.728.512V437h-1.472v1.664h1.472v3.84c0 2.08 1.056 2.816 3.712 2.496v-1.552c-1.312.064-1.984.08-1.984-.944v-3.84h1.984zm-48.897 22.128c-1.248 0-2.192.512-2.8 1.36V461h-1.728v11.2h1.728v-4.336c.608.832 1.552 1.344 2.8 1.344 2.176 0 3.984-1.824 3.984-4.208 0-2.368-1.808-4.208-3.984-4.208zm-.272 6.768c-1.44 0-2.528-1.072-2.528-2.56s1.088-2.56 2.528-2.56 2.528 1.072 2.528 2.56-1.088 2.56-2.528 2.56zm7.55-5.216V461h-1.728v8h1.728v-4.032c0-1.792 1.328-2.32 2.464-2.24v-1.872c-1.008 0-1.984.4-2.464 1.488zm7.142 6.864c2.352 0 4.224-1.84 4.224-4.208 0-2.384-1.872-4.208-4.224-4.208-2.336 0-4.224 1.824-4.224 4.208 0 2.368 1.888 4.208 4.224 4.208zm0-1.68c-1.408 0-2.496-1.072-2.496-2.528s1.088-2.528 2.496-2.528 2.496 1.072 2.496 2.528-1.088 2.528-2.496 2.528zM392.314 461v1.184c-.608-.864-1.552-1.392-2.784-1.392-2.256 0-4.032 1.84-4.032 4.128 0 2.288 1.776 4.128 4.032 4.128 1.232 0 2.176-.528 2.784-1.392v.976c0 1.392-.896 2.208-2.384 2.208-1.392 0-1.984-.544-2.336-1.232l-1.488.864c.672 1.28 2.032 1.936 3.792 1.936 2.096 0 4.112-1.2 4.112-3.776V461h-1.696zm-2.544 6.432c-1.456 0-2.544-1.072-2.544-2.512s1.088-2.512 2.544-2.512 2.544 1.072 2.544 2.512-1.088 2.512-2.544 2.512zm7.982-5.088V461h-1.728v8h1.728v-4.032c0-1.792 1.328-2.32 2.464-2.24v-1.872c-1.008 0-1.984.4-2.464 1.488zm9.701-1.344v1.136c-.608-.832-1.552-1.344-2.8-1.344-2.176 0-3.984 1.824-3.984 4.208 0 2.368 1.808 4.208 3.984 4.208 1.248 0 2.192-.512 2.8-1.36V469h1.728v-8h-1.728zm-2.528 6.56c-1.44 0-2.528-1.072-2.528-2.56s1.088-2.56 2.528-2.56 2.528 1.072 2.528 2.56-1.088 2.56-2.528 2.56zm15.007-6.768c-1.072 0-1.92.432-2.448 1.264-.464-.8-1.232-1.264-2.272-1.264-.992 0-1.776.384-2.288 1.168V461h-1.728v8h1.728v-4.48c0-1.456.8-2.112 1.776-2.112.944 0 1.504.624 1.504 1.744V469h1.728v-4.48c0-1.456.72-2.112 1.744-2.112.944 0 1.552.624 1.552 1.744V469h1.728v-4.96c0-2-1.216-3.248-3.024-3.248z" fill="#1A1A1A"/>
    <path d="M348 415.5h88v-1h-88v1zm95.5 7.5v57h1v-57h-1zm-7.5 64.5h-88v1h88v-1zm-95.5-7.5v-57h-1v57h1zm7.5 7.5a7.5 7.5 0 01-7.5-7.5h-1a8.5 8.5 0 008.5 8.5v-1zm95.5-7.5a7.5 7.5 0 01-7.5 7.5v1a8.5 8.5 0 008.5-8.5h-1zm-7.5-64.5a7.5 7.5 0 017.5 7.5h1a8.5 8.5 0 00-8.5-8.5v1zm-88-1a8.5 8.5 0 00-8.5 8.5h1a7.5 7.5 0 017.5-7.5v-1z" fill="#800040"/>
    <path d="M340 534a8 8 0 018-8h88a8 8 0 018 8v57a8 8 0 01-8 8h-88a8 8 0 01-8-8v-57z" fill="#fff"/>
    <path d="M373.575 556.208c2.336 0 3.968-1.248 3.968-3.296 0-2.224-1.872-2.8-3.728-3.392-1.632-.512-2.256-.88-2.256-1.744 0-.848.688-1.392 1.76-1.392 1.248 0 1.952.672 2.352 1.568l1.552-.896c-.704-1.488-2.064-2.464-3.904-2.464-1.888 0-3.6 1.168-3.6 3.232 0 2.112 1.696 2.752 3.44 3.28 1.664.512 2.544.848 2.544 1.84 0 .816-.624 1.472-2.08 1.472-1.52 0-2.384-.752-2.784-1.888l-1.584.928c.592 1.664 2.112 2.752 4.32 2.752zm7.02-3.472h6.368c.032-.224.064-.48.064-.72 0-2.304-1.632-4.224-4.016-4.224-2.512 0-4.224 1.84-4.224 4.208 0 2.4 1.712 4.208 4.352 4.208 1.568 0 2.768-.656 3.504-1.744l-1.424-.832c-.384.56-1.104.992-2.064.992-1.28 0-2.288-.64-2.56-1.888zm-.016-1.408c.24-1.2 1.12-1.968 2.416-1.968 1.04 0 2.048.592 2.288 1.968h-4.704zm7.968 4.672h1.728v-11.68h-1.728V556zm5.094-3.264h6.368c.032-.224.064-.48.064-.72 0-2.304-1.632-4.224-4.016-4.224-2.512 0-4.224 1.84-4.224 4.208 0 2.4 1.712 4.208 4.352 4.208 1.568 0 2.768-.656 3.504-1.744l-1.424-.832c-.384.56-1.104.992-2.064.992-1.28 0-2.288-.64-2.56-1.888zm-.016-1.408c.24-1.2 1.12-1.968 2.416-1.968 1.04 0 2.048.592 2.288 1.968h-4.704zm11.698 4.88c1.568 0 2.928-.816 3.6-2.08l-1.488-.848c-.384.736-1.168 1.232-2.128 1.232-1.408 0-2.48-1.072-2.48-2.512s1.072-2.512 2.48-2.512c.96 0 1.744.48 2.096 1.232l1.488-.864c-.64-1.248-2-2.064-3.568-2.064-2.416 0-4.224 1.824-4.224 4.208 0 2.368 1.808 4.208 4.224 4.208zm9.313-6.544V548h-1.984v-2.24l-1.728.512V548h-1.472v1.664h1.472v3.84c0 2.08 1.056 2.816 3.712 2.496v-1.552c-1.312.064-1.984.08-1.984-.944v-3.84h1.984zm-48.858 22.128c-1.248 0-2.192.512-2.8 1.36V572h-1.728v11.2h1.728v-4.336c.608.832 1.552 1.344 2.8 1.344 2.176 0 3.984-1.824 3.984-4.208 0-2.368-1.808-4.208-3.984-4.208zm-.272 6.768c-1.44 0-2.528-1.072-2.528-2.56s1.088-2.56 2.528-2.56 2.528 1.072 2.528 2.56-1.088 2.56-2.528 2.56zm7.55-5.216V572h-1.728v8h1.728v-4.032c0-1.792 1.328-2.32 2.464-2.24v-1.872c-1.008 0-1.984.4-2.464 1.488zm7.142 6.864c2.352 0 4.224-1.84 4.224-4.208 0-2.384-1.872-4.208-4.224-4.208-2.336 0-4.224 1.824-4.224 4.208 0 2.368 1.888 4.208 4.224 4.208zm0-1.68c-1.408 0-2.496-1.072-2.496-2.528s1.088-2.528 2.496-2.528 2.496 1.072 2.496 2.528-1.088 2.528-2.496 2.528zM391.096 572l-2.224 6.08-2.24-6.08h-1.888l3.12 8h2l3.12-8h-1.888zm3.846-1.2c.608 0 1.104-.512 1.104-1.104 0-.608-.496-1.104-1.104-1.104-.608 0-1.104.496-1.104 1.104 0 .592.496 1.104 1.104 1.104zm-.864 9.2h1.728v-8h-1.728v8zm7.943-8.208c-1.088 0-1.952.4-2.48 1.232V572h-1.728v8h1.728v-4.288c0-1.632.896-2.304 2.032-2.304 1.088 0 1.792.64 1.792 1.856V580h1.728v-4.912c0-2.08-1.28-3.296-3.072-3.296zm8.708 8.416c1.568 0 2.928-.816 3.6-2.08l-1.488-.848c-.384.736-1.168 1.232-2.128 1.232-1.408 0-2.48-1.072-2.48-2.512s1.072-2.512 2.48-2.512c.96 0 1.744.48 2.096 1.232l1.488-.864c-.64-1.248-2-2.064-3.568-2.064-2.416 0-4.224 1.824-4.224 4.208 0 2.368 1.808 4.208 4.224 4.208zm6.084-3.472h6.368c.032-.224.064-.48.064-.72 0-2.304-1.632-4.224-4.016-4.224-2.512 0-4.224 1.84-4.224 4.208 0 2.4 1.712 4.208 4.352 4.208 1.568 0 2.768-.656 3.504-1.744l-1.424-.832c-.384.56-1.104.992-2.064.992-1.28 0-2.288-.64-2.56-1.888zm-.016-1.408c.24-1.2 1.12-1.968 2.416-1.968 1.04 0 2.048.592 2.288 1.968h-4.704z" fill="#1A1A1A"/>
    <path d="M348 526.5h88v-1h-88v1zm95.5 7.5v57h1v-57h-1zm-7.5 64.5h-88v1h88v-1zm-95.5-7.5v-57h-1v57h1zm7.5 7.5a7.5 7.5 0 01-7.5-7.5h-1a8.5 8.5 0 008.5 8.5v-1zm95.5-7.5a7.5 7.5 0 01-7.5 7.5v1a8.5 8.5 0 008.5-8.5h-1zm-7.5-64.5a7.5 7.5 0 017.5 7.5h1a8.5 8.5 0 00-8.5-8.5v1zm-88-1a8.5 8.5 0 00-8.5 8.5h1a7.5 7.5 0 017.5-7.5v-1z" fill="#800040"/>
    <path d="M102 300a8 8 0 018-8h100a8 8 0 018 8v57a8 8 0 01-8 8H110a8 8 0 01-8-8v-57z" fill="#fff"/>
    <path d="M131.825 322.208c2.336 0 3.968-1.248 3.968-3.296 0-2.224-1.872-2.8-3.728-3.392-1.632-.512-2.256-.88-2.256-1.744 0-.848.688-1.392 1.76-1.392 1.248 0 1.952.672 2.352 1.568l1.552-.896c-.704-1.488-2.064-2.464-3.904-2.464-1.888 0-3.6 1.168-3.6 3.232 0 2.112 1.696 2.752 3.44 3.28 1.664.512 2.544.848 2.544 1.84 0 .816-.624 1.472-2.08 1.472-1.52 0-2.384-.752-2.784-1.888l-1.584.928c.592 1.664 2.112 2.752 4.32 2.752zM142.673 314v4.288c0 1.632-.896 2.304-2.032 2.304-1.088 0-1.792-.64-1.792-1.856V314h-1.728v4.912c0 2.08 1.28 3.296 3.072 3.296 1.088 0 1.952-.4 2.48-1.232V322h1.728v-8h-1.728zm8.277-.208c-1.248 0-2.192.512-2.8 1.344V310.8h-1.728V322h1.728v-1.152c.608.848 1.552 1.36 2.8 1.36 2.176 0 3.984-1.84 3.984-4.208 0-2.384-1.808-4.208-3.984-4.208zm-.272 6.768c-1.44 0-2.528-1.072-2.528-2.56s1.088-2.56 2.528-2.56 2.528 1.072 2.528 2.56-1.088 2.56-2.528 2.56zm14.558-6.768c-1.072 0-1.92.432-2.448 1.264-.464-.8-1.232-1.264-2.272-1.264-.992 0-1.776.384-2.288 1.168V314H156.5v8h1.728v-4.48c0-1.456.8-2.112 1.776-2.112.944 0 1.504.624 1.504 1.744V322h1.728v-4.48c0-1.456.72-2.112 1.744-2.112.944 0 1.552.624 1.552 1.744V322h1.728v-4.96c0-2-1.216-3.248-3.024-3.248zm5.738-.992c.608 0 1.104-.512 1.104-1.104 0-.608-.496-1.104-1.104-1.104-.608 0-1.104.496-1.104 1.104 0 .592.496 1.104 1.104 1.104zm-.864 9.2h1.728v-8h-1.728v8zm8.198-6.336V314h-1.984v-2.24l-1.728.512V314h-1.472v1.664h1.472v3.84c0 2.08 1.056 2.816 3.712 2.496v-1.552c-1.312.064-1.984.08-1.984-.944v-3.84h1.984zM190.289 314v1.136c-.608-.832-1.552-1.344-2.8-1.344-2.176 0-3.984 1.824-3.984 4.208 0 2.368 1.808 4.208 3.984 4.208 1.248 0 2.192-.512 2.8-1.36V322h1.728v-8h-1.728zm-2.528 6.56c-1.44 0-2.528-1.072-2.528-2.56s1.088-2.56 2.528-2.56 2.528 1.072 2.528 2.56-1.088 2.56-2.528 2.56zm-60.743 25.648c1.568 0 2.928-.816 3.6-2.08l-1.488-.848c-.384.736-1.168 1.232-2.128 1.232-1.408 0-2.48-1.072-2.48-2.512s1.072-2.512 2.48-2.512c.96 0 1.744.48 2.096 1.232l1.488-.864c-.64-1.248-2-2.064-3.568-2.064-2.416 0-4.224 1.824-4.224 4.208 0 2.368 1.808 4.208 4.224 4.208zm6.084-3.472h6.368c.032-.224.064-.48.064-.72 0-2.304-1.632-4.224-4.016-4.224-2.512 0-4.224 1.84-4.224 4.208 0 2.4 1.712 4.208 4.352 4.208 1.568 0 2.768-.656 3.504-1.744l-1.424-.832c-.384.56-1.104.992-2.064.992-1.28 0-2.288-.64-2.56-1.888zm-.016-1.408c.24-1.2 1.12-1.968 2.416-1.968 1.04 0 2.048.592 2.288 1.968h-4.704zm9.697-1.984V338h-1.728v8h1.728v-4.032c0-1.792 1.328-2.32 2.464-2.24v-1.872c-1.008 0-1.984.4-2.464 1.488zm8.408.32V338h-1.984v-2.24l-1.728.512V338h-1.472v1.664h1.472v3.84c0 2.08 1.056 2.816 3.712 2.496v-1.552c-1.312.064-1.984.08-1.984-.944v-3.84h1.984zm2.431-2.864c.608 0 1.104-.512 1.104-1.104 0-.608-.496-1.104-1.104-1.104-.608 0-1.104.496-1.104 1.104 0 .592.496 1.104 1.104 1.104zm-.864 9.2h1.728v-8h-1.728v8zm10.422-8h-4.384v-.16c0-1.232.672-1.584 1.888-1.584.56 0 1.136.032 1.776.128V334.8a7.878 7.878 0 00-1.776-.208c-2.4 0-3.616 1.088-3.616 3.248v.16h-1.216v1.664h1.216V346h1.728v-6.336h2.656V346h1.728v-8zm5.776 8.208c1.568 0 2.928-.816 3.6-2.08l-1.488-.848c-.384.736-1.168 1.232-2.128 1.232-1.408 0-2.48-1.072-2.48-2.512s1.072-2.512 2.48-2.512c.96 0 1.744.48 2.096 1.232l1.488-.864c-.64-1.248-2-2.064-3.568-2.064-2.416 0-4.224 1.824-4.224 4.208 0 2.368 1.808 4.208 4.224 4.208zm11.06-8.208v1.136c-.608-.832-1.552-1.344-2.8-1.344-2.176 0-3.984 1.824-3.984 4.208 0 2.368 1.808 4.208 3.984 4.208 1.248 0 2.192-.512 2.8-1.36V346h1.728v-8h-1.728zm-2.528 6.56c-1.44 0-2.528-1.072-2.528-2.56s1.088-2.56 2.528-2.56 2.528 1.072 2.528 2.56-1.088 2.56-2.528 2.56zm10.734-4.896V338h-1.984v-2.24l-1.728.512V338h-1.472v1.664h1.472v3.84c0 2.08 1.056 2.816 3.712 2.496v-1.552c-1.312.064-1.984.08-1.984-.944v-3.84h1.984zm2.599 3.072h6.368c.032-.224.064-.48.064-.72 0-2.304-1.632-4.224-4.016-4.224-2.512 0-4.224 1.84-4.224 4.208 0 2.4 1.712 4.208 4.352 4.208 1.568 0 2.768-.656 3.504-1.744l-1.424-.832c-.384.56-1.104.992-2.064.992-1.28 0-2.288-.64-2.56-1.888zm-.016-1.408c.24-1.2 1.12-1.968 2.416-1.968 1.04 0 2.048.592 2.288 1.968h-4.704z" fill="#1A1A1A"/>
    <path d="M110 292.5h100v-1H110v1zm107.5 7.5v57h1v-57h-1zm-7.5 64.5H110v1h100v-1zM102.5 357v-57h-1v57h1zm7.5 7.5a7.5 7.5 0 01-7.5-7.5h-1a8.5 8.5 0 008.5 8.5v-1zm107.5-7.5a7.5 7.5 0 01-7.5 7.5v1a8.5 8.5 0 008.5-8.5h-1zm-7.5-64.5a7.5 7.5 0 017.5 7.5h1a8.5 8.5 0 00-8.5-8.5v1zm-100-1a8.5 8.5 0 00-8.5 8.5h1a7.5 7.5 0 017.5-7.5v-1z" fill="#800040"/>
    <path d="M497 242a8 8 0 018-8h193a8 8 0 018 8v57a8 8 0 01-8 8H505a8 8 0 01-8-8v-57z" fill="#fff"/>
    <path d="M523.012 252.8h-4.4V264h4.4c3.088 0 5.36-2.48 5.36-5.6 0-3.136-2.272-5.6-5.36-5.6zm0 9.44h-2.56v-7.68h2.56c2.128 0 3.584 1.616 3.584 3.84 0 2.208-1.456 3.84-3.584 3.84zm7.79-7.44c.608 0 1.104-.512 1.104-1.104 0-.608-.496-1.104-1.104-1.104-.608 0-1.104.496-1.104 1.104 0 .592.496 1.104 1.104 1.104zm-.864 9.2h1.728v-8h-1.728v8zm5.239-5.792c0-.576.544-.848 1.168-.848.656 0 1.216.288 1.504.912l1.456-.816c-.56-1.056-1.648-1.664-2.96-1.664-1.632 0-2.928.944-2.928 2.448 0 2.864 4.304 2.064 4.304 3.488 0 .64-.592.896-1.36.896-.88 0-1.52-.432-1.776-1.152l-1.488.864c.512 1.152 1.664 1.872 3.264 1.872 1.728 0 3.12-.864 3.12-2.464 0-2.96-4.304-2.08-4.304-3.536zm9.975-.544V256h-1.984v-2.24l-1.728.512V256h-1.472v1.664h1.472v3.84c0 2.08 1.056 2.816 3.712 2.496v-1.552c-1.312.064-1.984.08-1.984-.944v-3.84h1.984zm3.373-.32V256h-1.728v8h1.728v-4.032c0-1.792 1.328-2.32 2.464-2.24v-1.872c-1.008 0-1.984.4-2.464 1.488zm4.605-2.544c.608 0 1.104-.512 1.104-1.104 0-.608-.496-1.104-1.104-1.104-.608 0-1.104.496-1.104 1.104 0 .592.496 1.104 1.104 1.104zm-.864 9.2h1.728v-8h-1.728v8zm8.262-8.208c-1.248 0-2.192.512-2.8 1.344V252.8H556V264h1.728v-1.152c.608.848 1.552 1.36 2.8 1.36 2.176 0 3.984-1.84 3.984-4.208 0-2.384-1.808-4.208-3.984-4.208zm-.272 6.768c-1.44 0-2.528-1.072-2.528-2.56s1.088-2.56 2.528-2.56 2.528 1.072 2.528 2.56-1.088 2.56-2.528 2.56zM571.47 256v4.288c0 1.632-.896 2.304-2.032 2.304-1.088 0-1.792-.64-1.792-1.856V256h-1.728v4.912c0 2.08 1.28 3.296 3.072 3.296 1.088 0 1.952-.4 2.48-1.232V264h1.728v-8h-1.728zm8.213 1.664V256h-1.984v-2.24l-1.728.512V256h-1.472v1.664h1.472v3.84c0 2.08 1.056 2.816 3.712 2.496v-1.552c-1.312.064-1.984.08-1.984-.944v-3.84h1.984zm2.599 3.072h6.368c.032-.224.064-.48.064-.72 0-2.304-1.632-4.224-4.016-4.224-2.512 0-4.224 1.84-4.224 4.208 0 2.4 1.712 4.208 4.352 4.208 1.568 0 2.768-.656 3.504-1.744l-1.424-.832c-.384.56-1.104.992-2.064.992-1.28 0-2.288-.64-2.56-1.888zm-.016-1.408c.24-1.2 1.12-1.968 2.416-1.968 1.04 0 2.048.592 2.288 1.968h-4.704zm15.745 4.88c1.568 0 2.928-.816 3.6-2.08l-1.488-.848c-.384.736-1.168 1.232-2.128 1.232-1.408 0-2.48-1.072-2.48-2.512s1.072-2.512 2.48-2.512c.96 0 1.744.48 2.096 1.232l1.488-.864c-.64-1.248-2-2.064-3.568-2.064-2.416 0-4.224 1.824-4.224 4.208 0 2.368 1.808 4.208 4.224 4.208zm6.084-3.472h6.368c.032-.224.064-.48.064-.72 0-2.304-1.632-4.224-4.016-4.224-2.512 0-4.224 1.84-4.224 4.208 0 2.4 1.712 4.208 4.352 4.208 1.568 0 2.768-.656 3.504-1.744l-1.424-.832c-.384.56-1.104.992-2.064.992-1.28 0-2.288-.64-2.56-1.888zm-.016-1.408c.24-1.2 1.12-1.968 2.416-1.968 1.04 0 2.048.592 2.288 1.968h-4.704zm9.696-1.984V256h-1.728v8h1.728v-4.032c0-1.792 1.328-2.32 2.464-2.24v-1.872c-1.008 0-1.984.4-2.464 1.488zm8.408.32V256h-1.984v-2.24l-1.728.512V256h-1.472v1.664h1.472v3.84c0 2.08 1.056 2.816 3.712 2.496v-1.552c-1.312.064-1.984.08-1.984-.944v-3.84h1.984zm2.431-2.864c.608 0 1.104-.512 1.104-1.104 0-.608-.496-1.104-1.104-1.104-.608 0-1.104.496-1.104 1.104 0 .592.496 1.104 1.104 1.104zm-.864 9.2h1.728v-8h-1.728v8zm10.423-8h-4.384v-.16c0-1.232.672-1.584 1.888-1.584.56 0 1.136.032 1.776.128V252.8a7.878 7.878 0 00-1.776-.208c-2.4 0-3.616 1.088-3.616 3.248v.16h-1.216v1.664h1.216V264h1.728v-6.336h2.656V264h1.728v-8zm5.775 8.208c1.568 0 2.928-.816 3.6-2.08l-1.488-.848c-.384.736-1.168 1.232-2.128 1.232-1.408 0-2.48-1.072-2.48-2.512s1.072-2.512 2.48-2.512c.96 0 1.744.48 2.096 1.232l1.488-.864c-.64-1.248-2-2.064-3.568-2.064-2.416 0-4.224 1.824-4.224 4.208 0 2.368 1.808 4.208 4.224 4.208zm11.06-8.208v1.136c-.608-.832-1.552-1.344-2.8-1.344-2.176 0-3.984 1.824-3.984 4.208 0 2.368 1.808 4.208 3.984 4.208 1.248 0 2.192-.512 2.8-1.36V264h1.728v-8h-1.728zm-2.528 6.56c-1.44 0-2.528-1.072-2.528-2.56s1.088-2.56 2.528-2.56 2.528 1.072 2.528 2.56-1.088 2.56-2.528 2.56zm10.734-4.896V256h-1.984v-2.24l-1.728.512V256h-1.472v1.664h1.472v3.84c0 2.08 1.056 2.816 3.712 2.496v-1.552c-1.312.064-1.984.08-1.984-.944v-3.84h1.984zm2.599 3.072h6.368c.032-.224.064-.48.064-.72 0-2.304-1.632-4.224-4.016-4.224-2.512 0-4.224 1.84-4.224 4.208 0 2.4 1.712 4.208 4.352 4.208 1.568 0 2.768-.656 3.504-1.744l-1.424-.832c-.384.56-1.104.992-2.064.992-1.28 0-2.288-.64-2.56-1.888zm-.016-1.408c.24-1.2 1.12-1.968 2.416-1.968 1.04 0 2.048.592 2.288 1.968h-4.704zm9.601 6.272h1.728c-1.12-2.24-1.76-4.64-1.76-7.2 0-2.56.64-4.96 1.76-7.2h-1.728c-1.12 2.24-1.76 4.64-1.76 7.2 0 2.56.64 4.96 1.76 7.2zm4.607-7.392c0-.576.544-.848 1.168-.848.656 0 1.216.288 1.504.912l1.456-.816c-.56-1.056-1.648-1.664-2.96-1.664-1.632 0-2.928.944-2.928 2.448 0 2.864 4.304 2.064 4.304 3.488 0 .64-.592.896-1.36.896-.88 0-1.52-.432-1.776-1.152l-1.488.864c.512 1.152 1.664 1.872 3.264 1.872 1.728 0 3.12-.864 3.12-2.464 0-2.96-4.304-2.08-4.304-3.536zm6.863 7.392c1.12-2.24 1.76-4.64 1.76-7.2 0-2.56-.64-4.96-1.76-7.2h-1.728c1.12 2.24 1.76 4.64 1.76 7.2 0 2.56-.64 4.96-1.76 7.2h1.728zm-112.771 16.064V280h-1.984v-2.24l-1.728.512V280h-1.472v1.664h1.472v3.84c0 2.08 1.056 2.816 3.712 2.496v-1.552c-1.312.064-1.984.08-1.984-.944v-3.84h1.984zm5.015 6.544c2.352 0 4.224-1.84 4.224-4.208 0-2.384-1.872-4.208-4.224-4.208-2.336 0-4.224 1.824-4.224 4.208 0 2.368 1.888 4.208 4.224 4.208zm0-1.68c-1.408 0-2.496-1.072-2.496-2.528s1.088-2.528 2.496-2.528 2.496 1.072 2.496 2.528-1.088 2.528-2.496 2.528zm14.315-6.736c-1.248 0-2.192.512-2.8 1.36V280h-1.728v11.2h1.728v-4.336c.608.832 1.552 1.344 2.8 1.344 2.176 0 3.984-1.824 3.984-4.208 0-2.368-1.808-4.208-3.984-4.208zm-.272 6.768c-1.44 0-2.528-1.072-2.528-2.56s1.088-2.56 2.528-2.56 2.528 1.072 2.528 2.56-1.088 2.56-2.528 2.56zm12.158-6.56v1.136c-.608-.832-1.552-1.344-2.8-1.344-2.176 0-3.984 1.824-3.984 4.208 0 2.368 1.808 4.208 3.984 4.208 1.248 0 2.192-.512 2.8-1.36V288h1.728v-8h-1.728zm-2.528 6.56c-1.44 0-2.528-1.072-2.528-2.56s1.088-2.56 2.528-2.56 2.528 1.072 2.528 2.56-1.088 2.56-2.528 2.56zm10.734-4.896V280h-1.984v-2.24l-1.728.512V280h-1.472v1.664h1.472v3.84c0 2.08 1.056 2.816 3.712 2.496v-1.552c-1.312.064-1.984.08-1.984-.944v-3.84h1.984zm2.431-2.864c.608 0 1.104-.512 1.104-1.104 0-.608-.496-1.104-1.104-1.104-.608 0-1.104.496-1.104 1.104 0 .592.496 1.104 1.104 1.104zm-.864 9.2h1.728v-8h-1.728v8zm5.095-3.264h6.368c.032-.224.064-.48.064-.72 0-2.304-1.632-4.224-4.016-4.224-2.512 0-4.224 1.84-4.224 4.208 0 2.4 1.712 4.208 4.352 4.208 1.568 0 2.768-.656 3.504-1.744l-1.424-.832c-.384.56-1.104.992-2.064.992-1.28 0-2.288-.64-2.56-1.888zm-.017-1.408c.241-1.2 1.121-1.968 2.417-1.968 1.04 0 2.048.592 2.288 1.968h-4.705zm12.177-3.536c-1.088 0-1.952.4-2.48 1.232V280h-1.728v8h1.728v-4.288c0-1.632.896-2.304 2.032-2.304 1.088 0 1.792.64 1.792 1.856V288h1.728v-4.912c0-2.08-1.28-3.296-3.072-3.296zm9.397 1.872V280h-1.984v-2.24l-1.728.512V280h-1.472v1.664h1.472v3.84c0 2.08 1.056 2.816 3.712 2.496v-1.552c-1.312.064-1.984.08-1.984-.944v-3.84h1.984z" fill="#1A1A1A"/>
    <path d="M505 234.5h193v-1H505v1zm200.5 7.5v57h1v-57h-1zm-7.5 64.5H505v1h193v-1zM497.5 299v-57h-1v57h1zm7.5 7.5a7.5 7.5 0 01-7.5-7.5h-1a8.5 8.5 0 008.5 8.5v-1zm200.5-7.5a7.5 7.5 0 01-7.5 7.5v1a8.5 8.5 0 008.5-8.5h-1zm-7.5-64.5a7.5 7.5 0 017.5 7.5h1a8.5 8.5 0 00-8.5-8.5v1zm-193-1a8.5 8.5 0 00-8.5 8.5h1a7.5 7.5 0 017.5-7.5v-1z" fill="#366B00"/>
    <path d="M1010.5 121a8 8 0 018-8h114a8 8 0 018 8v57a8 8 0 01-8 8h-114a8 8 0 01-8-8v-57z" fill="#fff"/>
    <path d="M1053.62 143.208c2.06 0 3.89-1.056 4.82-2.688l-1.6-.912c-.58 1.104-1.81 1.808-3.22 1.808-2.42 0-4.02-1.712-4.02-4.016 0-2.304 1.6-4.016 4.02-4.016 1.41 0 2.62.704 3.22 1.808l1.6-.928c-.95-1.632-2.77-2.672-4.82-2.672-3.41 0-5.86 2.56-5.86 5.808 0 3.248 2.45 5.808 5.86 5.808zm9.99 0c2.35 0 4.23-1.84 4.23-4.208 0-2.384-1.88-4.208-4.23-4.208-2.33 0-4.22 1.824-4.22 4.208 0 2.368 1.89 4.208 4.22 4.208zm0-1.68c-1.41 0-2.49-1.072-2.49-2.528s1.08-2.528 2.49-2.528c1.41 0 2.5 1.072 2.5 2.528s-1.09 2.528-2.5 2.528zm10-6.736c-1.09 0-1.96.4-2.48 1.232V135h-1.73v8h1.73v-4.288c0-1.632.89-2.304 2.03-2.304 1.09 0 1.79.64 1.79 1.856V143h1.73v-4.912c0-2.08-1.28-3.296-3.07-3.296zm6.48 2.416c0-.576.55-.848 1.17-.848.66 0 1.22.288 1.5.912l1.46-.816c-.56-1.056-1.65-1.664-2.96-1.664-1.63 0-2.93.944-2.93 2.448 0 2.864 4.31 2.064 4.31 3.488 0 .64-.6.896-1.36.896-.88 0-1.52-.432-1.78-1.152l-1.49.864c.51 1.152 1.67 1.872 3.27 1.872 1.72 0 3.12-.864 3.12-2.464 0-2.96-4.31-2.08-4.31-3.536zm11.12-2.208v4.288c0 1.632-.89 2.304-2.03 2.304-1.09 0-1.79-.64-1.79-1.856V135h-1.73v4.912c0 2.08 1.28 3.296 3.07 3.296 1.09 0 1.95-.4 2.48-1.232V143h1.73v-8h-1.73zm3.75 8h1.73v-11.68h-1.73V143zm8.2-6.336V135h-1.98v-2.24l-1.73.512V135h-1.47v1.664h1.47v3.84c0 2.08 1.05 2.816 3.71 2.496v-1.552c-1.31.064-1.98.08-1.98-.944v-3.84h1.98zM1040.87 159l-1.57 5.52-1.66-5.52h-1.65l-1.68 5.52-1.55-5.52h-1.82l2.51 8h1.69l1.68-5.392 1.67 5.392h1.69l2.52-8h-1.83zm3.96-1.2c.61 0 1.11-.512 1.11-1.104 0-.608-.5-1.104-1.11-1.104-.61 0-1.1.496-1.1 1.104 0 .592.49 1.104 1.1 1.104zm-.86 9.2h1.73v-8h-1.73v8zm8.2-6.336V159h-1.99v-2.24l-1.72.512V159h-1.48v1.664h1.48v3.84c0 2.08 1.05 2.816 3.71 2.496v-1.552c-1.31.064-1.99.08-1.99-.944v-3.84h1.99zm5.77-1.872c-1.09 0-1.95.4-2.48 1.232V155.8h-1.73V167h1.73v-4.288c0-1.632.9-2.304 2.03-2.304 1.09 0 1.8.64 1.8 1.856V167h1.72v-4.912c0-2.08-1.28-3.296-3.07-3.296zm13.46 0c-1.24 0-2.19.512-2.8 1.36V159h-1.72v11.2h1.72v-4.336c.61.832 1.56 1.344 2.8 1.344 2.18 0 3.99-1.824 3.99-4.208 0-2.368-1.81-4.208-3.99-4.208zm-.27 6.768c-1.44 0-2.53-1.072-2.53-2.56s1.09-2.56 2.53-2.56c1.44 0 2.53 1.072 2.53 2.56s-1.09 2.56-2.53 2.56zm12.16-6.56v1.136c-.61-.832-1.55-1.344-2.8-1.344-2.18 0-3.98 1.824-3.98 4.208 0 2.368 1.8 4.208 3.98 4.208 1.25 0 2.19-.512 2.8-1.36V167h1.73v-8h-1.73zm-2.53 6.56c-1.44 0-2.53-1.072-2.53-2.56s1.09-2.56 2.53-2.56c1.44 0 2.53 1.072 2.53 2.56s-1.09 2.56-2.53 2.56zm10.74-4.896V159h-1.99v-2.24l-1.73.512V159h-1.47v1.664h1.47v3.84c0 2.08 1.06 2.816 3.72 2.496v-1.552c-1.32.064-1.99.08-1.99-.944v-3.84h1.99zm2.43-2.864c.6 0 1.1-.512 1.1-1.104 0-.608-.5-1.104-1.1-1.104-.61 0-1.11.496-1.11 1.104 0 .592.5 1.104 1.11 1.104zm-.87 9.2h1.73v-8h-1.73v8zm5.1-3.264h6.37c.03-.224.06-.48.06-.72 0-2.304-1.63-4.224-4.02-4.224-2.51 0-4.22 1.84-4.22 4.208 0 2.4 1.71 4.208 4.35 4.208 1.57 0 2.77-.656 3.51-1.744l-1.43-.832c-.38.56-1.1.992-2.06.992-1.28 0-2.29-.64-2.56-1.888zm-.02-1.408c.24-1.2 1.12-1.968 2.42-1.968 1.04 0 2.05.592 2.29 1.968h-4.71zm12.18-3.536c-1.09 0-1.95.4-2.48 1.232V159h-1.73v8h1.73v-4.288c0-1.632.89-2.304 2.03-2.304 1.09 0 1.79.64 1.79 1.856V167h1.73v-4.912c0-2.08-1.28-3.296-3.07-3.296zm9.39 1.872V159h-1.98v-2.24l-1.73.512V159h-1.47v1.664h1.47v3.84c0 2.08 1.06 2.816 3.71 2.496v-1.552c-1.31.064-1.98.08-1.98-.944v-3.84h1.98z" fill="#1A1A1A"/>
    <path d="M1018.5 113.5h114v-1h-114v1zM1140 121v57h1v-57h-1zm-7.5 64.5h-114v1h114v-1zM1011 178v-57h-1v57h1zm7.5 7.5c-4.14 0-7.5-3.358-7.5-7.5h-1c0 4.694 3.81 8.5 8.5 8.5v-1zM1140 178c0 4.142-3.36 7.5-7.5 7.5v1c4.69 0 8.5-3.806 8.5-8.5h-1zm-7.5-64.5c4.14 0 7.5 3.358 7.5 7.5h1c0-4.694-3.81-8.5-8.5-8.5v1zm-114-1c-4.69 0-8.5 3.806-8.5 8.5h1c0-4.142 3.36-7.5 7.5-7.5v-1z" fill="#366B00"/>
    <path d="M497 423a8 8 0 018-8h120a8 8 0 018 8v57a8 8 0 01-8 8H505a8 8 0 01-8-8v-57z" fill="#fff"/>
    <path d="M546.575 445.208c2.336 0 3.968-1.248 3.968-3.296 0-2.224-1.872-2.8-3.728-3.392-1.632-.512-2.256-.88-2.256-1.744 0-.848.688-1.392 1.76-1.392 1.248 0 1.952.672 2.352 1.568l1.552-.896c-.704-1.488-2.064-2.464-3.904-2.464-1.888 0-3.6 1.168-3.6 3.232 0 2.112 1.696 2.752 3.44 3.28 1.664.512 2.544.848 2.544 1.84 0 .816-.624 1.472-2.08 1.472-1.52 0-2.384-.752-2.784-1.888l-1.584.928c.592 1.664 2.112 2.752 4.32 2.752zm7.02-3.472h6.368c.032-.224.064-.48.064-.72 0-2.304-1.632-4.224-4.016-4.224-2.512 0-4.224 1.84-4.224 4.208 0 2.4 1.712 4.208 4.352 4.208 1.568 0 2.768-.656 3.504-1.744l-1.424-.832c-.384.56-1.104.992-2.064.992-1.28 0-2.288-.64-2.56-1.888zm-.016-1.408c.24-1.2 1.12-1.968 2.416-1.968 1.04 0 2.048.592 2.288 1.968h-4.704zm7.968 4.672h1.728v-11.68h-1.728V445zm5.094-3.264h6.368c.032-.224.064-.48.064-.72 0-2.304-1.632-4.224-4.016-4.224-2.512 0-4.224 1.84-4.224 4.208 0 2.4 1.712 4.208 4.352 4.208 1.568 0 2.768-.656 3.504-1.744l-1.424-.832c-.384.56-1.104.992-2.064.992-1.28 0-2.288-.64-2.56-1.888zm-.016-1.408c.24-1.2 1.12-1.968 2.416-1.968 1.04 0 2.048.592 2.288 1.968h-4.704zm11.698 4.88c1.568 0 2.928-.816 3.6-2.08l-1.488-.848c-.384.736-1.168 1.232-2.128 1.232-1.408 0-2.48-1.072-2.48-2.512s1.072-2.512 2.48-2.512c.96 0 1.744.48 2.096 1.232l1.488-.864c-.64-1.248-2-2.064-3.568-2.064-2.416 0-4.224 1.824-4.224 4.208 0 2.368 1.808 4.208 4.224 4.208zm9.313-6.544V437h-1.984v-2.24l-1.728.512V437h-1.472v1.664h1.472v3.84c0 2.08 1.056 2.816 3.712 2.496v-1.552c-1.312.064-1.984.08-1.984-.944v-3.84h1.984zm-65.547 30.544c1.568 0 2.928-.816 3.6-2.08l-1.488-.848c-.384.736-1.168 1.232-2.128 1.232-1.408 0-2.48-1.072-2.48-2.512s1.072-2.512 2.48-2.512c.96 0 1.744.48 2.096 1.232l1.488-.864c-.64-1.248-2-2.064-3.568-2.064-2.416 0-4.224 1.824-4.224 4.208 0 2.368 1.808 4.208 4.224 4.208zm11.06-8.208v1.136c-.608-.832-1.552-1.344-2.8-1.344-2.176 0-3.984 1.824-3.984 4.208 0 2.368 1.808 4.208 3.984 4.208 1.248 0 2.192-.512 2.8-1.36V469h1.728v-8h-1.728zm-2.528 6.56c-1.44 0-2.528-1.072-2.528-2.56s1.088-2.56 2.528-2.56 2.528 1.072 2.528 2.56-1.088 2.56-2.528 2.56zm7.998-5.216V461h-1.728v8h1.728v-4.032c0-1.792 1.328-2.32 2.464-2.24v-1.872c-1.008 0-1.984.4-2.464 1.488zm9.702-4.544v4.336c-.608-.832-1.552-1.344-2.8-1.344-2.176 0-3.984 1.824-3.984 4.208 0 2.368 1.808 4.208 3.984 4.208 1.248 0 2.192-.512 2.8-1.36V469h1.728v-11.2h-1.728zm-2.528 9.76c-1.44 0-2.528-1.072-2.528-2.56s1.088-2.56 2.528-2.56 2.528 1.072 2.528 2.56-1.088 2.56-2.528 2.56zm16.606-6.56v1.136c-.608-.832-1.552-1.344-2.8-1.344-2.176 0-3.984 1.824-3.984 4.208 0 2.368 1.808 4.208 3.984 4.208 1.248 0 2.192-.512 2.8-1.36V469h1.728v-8h-1.728zm-2.528 6.56c-1.44 0-2.528-1.072-2.528-2.56s1.088-2.56 2.528-2.56 2.528 1.072 2.528 2.56-1.088 2.56-2.528 2.56zm15.006-6.768c-1.072 0-1.92.432-2.448 1.264-.464-.8-1.232-1.264-2.272-1.264-.992 0-1.776.384-2.288 1.168V461h-1.728v8h1.728v-4.48c0-1.456.8-2.112 1.776-2.112.944 0 1.504.624 1.504 1.744V469h1.728v-4.48c0-1.456.72-2.112 1.744-2.112.944 0 1.552.624 1.552 1.744V469h1.728v-4.96c0-2-1.216-3.248-3.024-3.248zm8.649 8.416c2.352 0 4.224-1.84 4.224-4.208 0-2.384-1.872-4.208-4.224-4.208-2.336 0-4.224 1.824-4.224 4.208 0 2.368 1.888 4.208 4.224 4.208zm0-1.68c-1.408 0-2.496-1.072-2.496-2.528s1.088-2.528 2.496-2.528 2.496 1.072 2.496 2.528-1.088 2.528-2.496 2.528zM594.705 461v4.288c0 1.632-.896 2.304-2.032 2.304-1.088 0-1.792-.64-1.792-1.856V461h-1.728v4.912c0 2.08 1.28 3.296 3.072 3.296 1.088 0 1.952-.4 2.48-1.232V469h1.728v-8h-1.728zm7.956-.208c-1.088 0-1.952.4-2.48 1.232V461h-1.728v8h1.728v-4.288c0-1.632.896-2.304 2.032-2.304 1.088 0 1.792.64 1.792 1.856V469h1.728v-4.912c0-2.08-1.28-3.296-3.072-3.296zm9.397 1.872V461h-1.984v-2.24l-1.728.512V461h-1.472v1.664h1.472v3.84c0 2.08 1.056 2.816 3.712 2.496v-1.552c-1.312.064-1.984.08-1.984-.944v-3.84h1.984z" fill="#1A1A1A"/>
    <path d="M505 415.5h120v-1H505v1zm127.5 7.5v57h1v-57h-1zm-7.5 64.5H505v1h120v-1zM497.5 480v-57h-1v57h1zm7.5 7.5a7.5 7.5 0 01-7.5-7.5h-1a8.5 8.5 0 008.5 8.5v-1zm127.5-7.5a7.5 7.5 0 01-7.5 7.5v1a8.5 8.5 0 008.5-8.5h-1zm-7.5-64.5a7.5 7.5 0 017.5 7.5h1a8.5 8.5 0 00-8.5-8.5v1zm-120-1a8.5 8.5 0 00-8.5 8.5h1a7.5 7.5 0 017.5-7.5v-1z" fill="#800040"/>
    <path d="M941 423a8 8 0 018-8h82a8 8 0 018 8v57a8 8 0 01-8 8h-82a8 8 0 01-8-8v-57z" fill="#fff"/>
    <path d="M968.699 445h2.016l-2.544-4.352c1.312-.528 2.224-1.808 2.224-3.248 0-2-1.6-3.6-3.6-3.6h-4.48V445h1.84v-4.08h2.176l2.368 4.08zm-4.544-9.472h2.64c.976 0 1.76.816 1.76 1.872 0 1.04-.784 1.872-1.76 1.872h-2.64v-3.744zm8.799 6.208h6.368c.032-.224.064-.48.064-.72 0-2.304-1.632-4.224-4.016-4.224-2.512 0-4.224 1.84-4.224 4.208 0 2.4 1.712 4.208 4.352 4.208 1.568 0 2.768-.656 3.504-1.744l-1.424-.832c-.384.56-1.104.992-2.064.992-1.28 0-2.288-.64-2.56-1.888zm-.016-1.408c.24-1.2 1.12-1.968 2.416-1.968 1.04 0 2.048.592 2.288 1.968h-4.704zm11.698 4.88c1.568 0 2.928-.816 3.6-2.08l-1.488-.848c-.384.736-1.168 1.232-2.128 1.232-1.408 0-2.48-1.072-2.48-2.512s1.072-2.512 2.48-2.512c.96 0 1.744.48 2.096 1.232l1.488-.864c-.64-1.248-2-2.064-3.568-2.064-2.416 0-4.224 1.824-4.224 4.208 0 2.368 1.808 4.208 4.224 4.208zm6.084-3.472h6.368c.032-.224.064-.48.064-.72 0-2.304-1.632-4.224-4.016-4.224-2.512 0-4.224 1.84-4.224 4.208 0 2.4 1.712 4.208 4.352 4.208 1.568 0 2.768-.656 3.504-1.744l-1.424-.832c-.384.56-1.104.992-2.064.992-1.28 0-2.288-.64-2.56-1.888zm-.016-1.408c.24-1.2 1.12-1.968 2.416-1.968 1.04 0 2.048.592 2.288 1.968h-4.704zm8.832-4.528a1.12 1.12 0 001.104-1.104c0-.608-.5-1.104-1.104-1.104-.608 0-1.104.496-1.104 1.104 0 .592.496 1.104 1.104 1.104zm-.864 9.2h1.728v-8h-1.728v8zm9.158-8l-2.22 6.08-2.24-6.08h-1.89l3.12 8h2l3.12-8h-1.89zm4.03 4.736h6.37c.03-.224.06-.48.06-.72 0-2.304-1.63-4.224-4.01-4.224-2.52 0-4.23 1.84-4.23 4.208 0 2.4 1.71 4.208 4.35 4.208 1.57 0 2.77-.656 3.51-1.744l-1.43-.832c-.38.56-1.1.992-2.06.992-1.28 0-2.29-.64-2.56-1.888zm-.02-1.408c.24-1.2 1.12-1.968 2.42-1.968 1.04 0 2.05.592 2.29 1.968h-4.71zm-42.306 28.88c1.568 0 2.928-.816 3.6-2.08l-1.488-.848c-.384.736-1.168 1.232-2.128 1.232-1.408 0-2.48-1.072-2.48-2.512s1.072-2.512 2.48-2.512c.96 0 1.744.48 2.096 1.232l1.488-.864c-.64-1.248-2-2.064-3.568-2.064-2.416 0-4.224 1.824-4.224 4.208 0 2.368 1.808 4.208 4.224 4.208zm11.06-8.208v1.136c-.608-.832-1.552-1.344-2.8-1.344-2.176 0-3.984 1.824-3.984 4.208 0 2.368 1.808 4.208 3.984 4.208 1.248 0 2.192-.512 2.8-1.36V469h1.728v-8h-1.728zm-2.528 6.56c-1.44 0-2.528-1.072-2.528-2.56s1.088-2.56 2.528-2.56 2.528 1.072 2.528 2.56-1.088 2.56-2.528 2.56zm7.998-5.216V461h-1.728v8h1.728v-4.032c0-1.792 1.328-2.32 2.464-2.24v-1.872c-1.008 0-1.984.4-2.464 1.488zm9.702-4.544v4.336c-.608-.832-1.552-1.344-2.8-1.344-2.176 0-3.984 1.824-3.984 4.208 0 2.368 1.808 4.208 3.984 4.208 1.248 0 2.192-.512 2.8-1.36V469h1.728v-11.2h-1.728zm-2.528 9.76c-1.44 0-2.528-1.072-2.528-2.56s1.088-2.56 2.528-2.56 2.528 1.072 2.528 2.56-1.088 2.56-2.528 2.56zm7.902 3.04h1.73c-1.12-2.24-1.76-4.64-1.76-7.2 0-2.56.64-4.96 1.76-7.2h-1.73c-1.12 2.24-1.76 4.64-1.76 7.2 0 2.56.64 4.96 1.76 7.2zm4.61-7.392c0-.576.54-.848 1.17-.848.65 0 1.21.288 1.5.912l1.46-.816c-.56-1.056-1.65-1.664-2.96-1.664-1.64 0-2.93.944-2.93 2.448 0 2.864 4.3 2.064 4.3 3.488 0 .64-.59.896-1.36.896-.88 0-1.52-.432-1.77-1.152l-1.49.864c.51 1.152 1.66 1.872 3.26 1.872 1.73 0 3.12-.864 3.12-2.464 0-2.96-4.3-2.08-4.3-3.536zm6.86 7.392c1.12-2.24 1.76-4.64 1.76-7.2 0-2.56-.64-4.96-1.76-7.2h-1.73c1.12 2.24 1.76 4.64 1.76 7.2 0 2.56-.64 4.96-1.76 7.2h1.73z" fill="#1A1A1A"/>
    <path d="M949 415.5h82v-1h-82v1zm89.5 7.5v57h1v-57h-1zm-7.5 64.5h-82v1h82v-1zm-89.5-7.5v-57h-1v57h1zm7.5 7.5a7.5 7.5 0 01-7.5-7.5h-1a8.5 8.5 0 008.5 8.5v-1zm89.5-7.5c0 4.142-3.36 7.5-7.5 7.5v1c4.69 0 8.5-3.806 8.5-8.5h-1zm-7.5-64.5c4.14 0 7.5 3.358 7.5 7.5h1c0-4.694-3.81-8.5-8.5-8.5v1zm-82-1a8.5 8.5 0 00-8.5 8.5h1a7.5 7.5 0 017.5-7.5v-1z" fill="#800040"/>
    <path d="M1089 423a8 8 0 018-8h152a8 8 0 018 8v57a8 8 0 01-8 8h-152a8 8 0 01-8-8v-57z" fill="#fff"/>
    <path d="M1150.04 445h2.02l-2.54-4.352c1.31-.528 2.22-1.808 2.22-3.248 0-2-1.6-3.6-3.6-3.6h-4.48V445h1.84v-4.08h2.18l2.36 4.08zm-4.54-9.472h2.64c.98 0 1.76.816 1.76 1.872 0 1.04-.78 1.872-1.76 1.872h-2.64v-3.744zm8.8 6.208h6.37c.03-.224.06-.48.06-.72 0-2.304-1.63-4.224-4.02-4.224-2.51 0-4.22 1.84-4.22 4.208 0 2.4 1.71 4.208 4.35 4.208 1.57 0 2.77-.656 3.51-1.744l-1.43-.832c-.38.56-1.1.992-2.06.992-1.28 0-2.29-.64-2.56-1.888zm-.02-1.408c.24-1.2 1.12-1.968 2.42-1.968 1.04 0 2.05.592 2.29 1.968h-4.71zm14.26-6.528v4.336c-.61-.832-1.55-1.344-2.8-1.344-2.18 0-3.98 1.824-3.98 4.208 0 2.368 1.8 4.208 3.98 4.208 1.25 0 2.19-.512 2.8-1.36V445h1.73v-11.2h-1.73zm-2.53 9.76c-1.44 0-2.53-1.072-2.53-2.56s1.09-2.56 2.53-2.56c1.44 0 2.53 1.072 2.53 2.56s-1.09 2.56-2.53 2.56zm7.63-1.824h6.37c.03-.224.06-.48.06-.72 0-2.304-1.63-4.224-4.01-4.224-2.51 0-4.23 1.84-4.23 4.208 0 2.4 1.72 4.208 4.36 4.208 1.56 0 2.76-.656 3.5-1.744l-1.42-.832c-.39.56-1.11.992-2.07.992-1.28 0-2.29-.64-2.56-1.888zm-.01-1.408c.24-1.2 1.12-1.968 2.41-1.968 1.04 0 2.05.592 2.29 1.968h-4.7zm9.28 1.408h6.37c.03-.224.06-.48.06-.72 0-2.304-1.63-4.224-4.02-4.224-2.51 0-4.22 1.84-4.22 4.208 0 2.4 1.71 4.208 4.35 4.208 1.57 0 2.77-.656 3.51-1.744l-1.43-.832c-.38.56-1.1.992-2.06.992-1.28 0-2.29-.64-2.56-1.888zm-.02-1.408c.24-1.2 1.12-1.968 2.42-1.968 1.04 0 2.05.592 2.29 1.968h-4.71zm16.71-3.536c-1.08 0-1.92.432-2.45 1.264-.47-.8-1.23-1.264-2.27-1.264-1 0-1.78.384-2.29 1.168V437h-1.73v8h1.73v-4.48c0-1.456.8-2.112 1.77-2.112.95 0 1.51.624 1.51 1.744V445h1.73v-4.48c0-1.456.72-2.112 1.74-2.112.94 0 1.55.624 1.55 1.744V445h1.73v-4.96c0-2-1.22-3.248-3.02-3.248zm-87.65 25.552V461h-1.72v8h1.72v-4.032c0-1.792 1.33-2.32 2.47-2.24v-1.872c-1.01 0-1.99.4-2.47 1.488zm4.73 3.392h6.37c.03-.224.06-.48.06-.72 0-2.304-1.63-4.224-4.01-4.224-2.52 0-4.23 1.84-4.23 4.208 0 2.4 1.71 4.208 4.35 4.208 1.57 0 2.77-.656 3.51-1.744l-1.43-.832c-.38.56-1.1.992-2.06.992-1.28 0-2.29-.64-2.56-1.888zm-.02-1.408c.24-1.2 1.12-1.968 2.42-1.968 1.04 0 2.05.592 2.29 1.968h-4.71zm8.84-4.528c.61 0 1.1-.512 1.1-1.104 0-.608-.49-1.104-1.1-1.104-.61 0-1.11.496-1.11 1.104 0 .592.5 1.104 1.11 1.104zm-.87 9.2h1.73v-8h-1.73v8zm12.47-8.208c-1.07 0-1.92.432-2.44 1.264-.47-.8-1.24-1.264-2.28-1.264-.99 0-1.77.384-2.28 1.168V461h-1.73v8h1.73v-4.48c0-1.456.8-2.112 1.77-2.112.95 0 1.51.624 1.51 1.744V469h1.72v-4.48c0-1.456.72-2.112 1.75-2.112.94 0 1.55.624 1.55 1.744V469h1.73v-4.96c0-2-1.22-3.248-3.03-3.248zm9.4 0c-1.24 0-2.19.512-2.8 1.344V457.8h-1.72V469h1.72v-1.152c.61.848 1.56 1.36 2.8 1.36 2.18 0 3.99-1.84 3.99-4.208 0-2.384-1.81-4.208-3.99-4.208zm-.27 6.768c-1.44 0-2.53-1.072-2.53-2.56s1.09-2.56 2.53-2.56c1.44 0 2.53 1.072 2.53 2.56s-1.09 2.56-2.53 2.56zm11.22-6.56v4.288c0 1.632-.9 2.304-2.04 2.304-1.08 0-1.79-.64-1.79-1.856V461h-1.73v4.912c0 2.08 1.28 3.296 3.08 3.296 1.08 0 1.95-.4 2.48-1.232V469h1.72v-8h-1.72zm5.47 1.344V461h-1.72v8h1.72v-4.032c0-1.792 1.33-2.32 2.47-2.24v-1.872c-1.01 0-1.99.4-2.47 1.488zm5.02.864c0-.576.54-.848 1.16-.848.66 0 1.22.288 1.51.912l1.45-.816c-.56-1.056-1.64-1.664-2.96-1.664-1.63 0-2.92.944-2.92 2.448 0 2.864 4.3 2.064 4.3 3.488 0 .64-.59.896-1.36.896-.88 0-1.52-.432-1.78-1.152l-1.48.864c.51 1.152 1.66 1.872 3.26 1.872 1.73 0 3.12-.864 3.12-2.464 0-2.96-4.3-2.08-4.3-3.536zm6.97 2.528h6.37c.03-.224.07-.48.07-.72 0-2.304-1.64-4.224-4.02-4.224-2.51 0-4.22 1.84-4.22 4.208 0 2.4 1.71 4.208 4.35 4.208 1.57 0 2.77-.656 3.5-1.744l-1.42-.832c-.39.56-1.11.992-2.07.992-1.28 0-2.28-.64-2.56-1.888zm-.01-1.408c.24-1.2 1.12-1.968 2.41-1.968 1.04 0 2.05.592 2.29 1.968h-4.7zm16.7-3.536c-1.07 0-1.92.432-2.44 1.264-.47-.8-1.24-1.264-2.28-1.264-.99 0-1.77.384-2.28 1.168V461h-1.73v8h1.73v-4.48c0-1.456.8-2.112 1.77-2.112.95 0 1.51.624 1.51 1.744V469h1.72v-4.48c0-1.456.72-2.112 1.75-2.112.94 0 1.55.624 1.55 1.744V469h1.73v-4.96c0-2-1.22-3.248-3.03-3.248zm6.24 4.944h6.36c.04-.224.07-.48.07-.72 0-2.304-1.63-4.224-4.02-4.224-2.51 0-4.22 1.84-4.22 4.208 0 2.4 1.71 4.208 4.35 4.208 1.57 0 2.77-.656 3.5-1.744l-1.42-.832c-.38.56-1.1.992-2.06.992-1.28 0-2.29-.64-2.56-1.888zm-.02-1.408c.24-1.2 1.12-1.968 2.42-1.968 1.04 0 2.04.592 2.28 1.968h-4.7zm12.18-3.536c-1.09 0-1.95.4-2.48 1.232V461h-1.73v8h1.73v-4.288c0-1.632.89-2.304 2.03-2.304 1.09 0 1.79.64 1.79 1.856V469h1.73v-4.912c0-2.08-1.28-3.296-3.07-3.296zm9.39 1.872V461h-1.98v-2.24l-1.73.512V461h-1.47v1.664h1.47v3.84c0 2.08 1.06 2.816 3.71 2.496v-1.552c-1.31.064-1.98.08-1.98-.944v-3.84h1.98zm3.28 7.936h1.73c-1.12-2.24-1.76-4.64-1.76-7.2 0-2.56.64-4.96 1.76-7.2h-1.73c-1.12 2.24-1.76 4.64-1.76 7.2 0 2.56.64 4.96 1.76 7.2zm4.61-7.392c0-.576.54-.848 1.17-.848.65 0 1.21.288 1.5.912l1.46-.816c-.56-1.056-1.65-1.664-2.96-1.664-1.64 0-2.93.944-2.93 2.448 0 2.864 4.3 2.064 4.3 3.488 0 .64-.59.896-1.36.896-.88 0-1.52-.432-1.77-1.152l-1.49.864c.51 1.152 1.66 1.872 3.26 1.872 1.73 0 3.12-.864 3.12-2.464 0-2.96-4.3-2.08-4.3-3.536zm6.86 7.392c1.12-2.24 1.76-4.64 1.76-7.2 0-2.56-.64-4.96-1.76-7.2h-1.73c1.12 2.24 1.76 4.64 1.76 7.2 0 2.56-.64 4.96-1.76 7.2h1.73z" fill="#1A1A1A"/>
    <path d="M1097 415.5h152v-1h-152v1zm159.5 7.5v57h1v-57h-1zm-7.5 64.5h-152v1h152v-1zm-159.5-7.5v-57h-1v57h1zm7.5 7.5c-4.14 0-7.5-3.358-7.5-7.5h-1c0 4.694 3.81 8.5 8.5 8.5v-1zm159.5-7.5c0 4.142-3.36 7.5-7.5 7.5v1c4.69 0 8.5-3.806 8.5-8.5h-1zm-7.5-64.5c4.14 0 7.5 3.358 7.5 7.5h1c0-4.694-3.81-8.5-8.5-8.5v1zm-152-1c-4.69 0-8.5 3.806-8.5 8.5h1c0-4.142 3.36-7.5 7.5-7.5v-1z" fill="#800040"/>
    <path d="M756 9a8 8 0 018-8h134a8 8 0 018 8v57a8 8 0 01-8 8H764a8 8 0 01-8-8V9z" fill="#fff"/>
    <path d="M784.846 31h1.984l-4.048-11.2h-2.208L776.51 31h2l.784-2.256h4.768l.784 2.256zm-4.944-3.984l1.776-5.056 1.776 5.056h-3.552zm14.153-7.216v4.336c-.608-.832-1.552-1.344-2.8-1.344-2.176 0-3.984 1.824-3.984 4.208 0 2.368 1.808 4.208 3.984 4.208 1.248 0 2.192-.512 2.8-1.36V31h1.728V19.8h-1.728zm-2.528 9.76c-1.44 0-2.528-1.072-2.528-2.56s1.088-2.56 2.528-2.56 2.528 1.072 2.528 2.56-1.088 2.56-2.528 2.56zm12.606-9.76v4.336c-.608-.832-1.552-1.344-2.8-1.344-2.176 0-3.984 1.824-3.984 4.208 0 2.368 1.808 4.208 3.984 4.208 1.248 0 2.192-.512 2.8-1.36V31h1.728V19.8h-1.728zm-2.528 9.76c-1.44 0-2.528-1.072-2.528-2.56s1.088-2.56 2.528-2.56 2.528 1.072 2.528 2.56-1.088 2.56-2.528 2.56zm10.702 3.04l6.4-14.4h-.88l-6.4 14.4h.88zm20.71-9.808c-1.072 0-1.92.432-2.448 1.264-.464-.8-1.232-1.264-2.272-1.264-.992 0-1.776.384-2.288 1.168V23h-1.728v8h1.728v-4.48c0-1.456.8-2.112 1.776-2.112.944 0 1.504.624 1.504 1.744V31h1.728v-4.48c0-1.456.72-2.112 1.744-2.112.944 0 1.552.624 1.552 1.744V31h1.728v-4.96c0-2-1.216-3.248-3.024-3.248zm11.21.208v1.136c-.608-.832-1.552-1.344-2.8-1.344-2.176 0-3.984 1.824-3.984 4.208 0 2.368 1.808 4.208 3.984 4.208 1.248 0 2.192-.512 2.8-1.36V31h1.728v-8h-1.728zm-2.528 6.56c-1.44 0-2.528-1.072-2.528-2.56s1.088-2.56 2.528-2.56 2.528 1.072 2.528 2.56-1.088 2.56-2.528 2.56zm10.478-6.768c-1.088 0-1.952.4-2.48 1.232V23h-1.728v8h1.728v-4.288c0-1.632.896-2.304 2.032-2.304 1.088 0 1.792.64 1.792 1.856V31h1.728v-4.912c0-2.08-1.28-3.296-3.072-3.296zm11.269.208v1.136c-.608-.832-1.552-1.344-2.8-1.344-2.176 0-3.984 1.824-3.984 4.208 0 2.368 1.808 4.208 3.984 4.208 1.248 0 2.192-.512 2.8-1.36V31h1.728v-8h-1.728zm-2.528 6.56c-1.44 0-2.528-1.072-2.528-2.56s1.088-2.56 2.528-2.56 2.528 1.072 2.528 2.56-1.088 2.56-2.528 2.56zM873.556 23v1.184c-.608-.864-1.552-1.392-2.784-1.392-2.256 0-4.032 1.84-4.032 4.128 0 2.288 1.776 4.128 4.032 4.128 1.232 0 2.176-.528 2.784-1.392v.976c0 1.392-.896 2.208-2.384 2.208-1.392 0-1.984-.544-2.336-1.232l-1.488.864c.672 1.28 2.032 1.936 3.792 1.936 2.096 0 4.112-1.2 4.112-3.776V23h-1.696zm-2.544 6.432c-1.456 0-2.544-1.072-2.544-2.512s1.088-2.512 2.544-2.512 2.544 1.072 2.544 2.512-1.088 2.512-2.544 2.512zm7.614-1.696h6.368c.032-.224.064-.48.064-.72 0-2.304-1.632-4.224-4.016-4.224-2.512 0-4.224 1.84-4.224 4.208 0 2.4 1.712 4.208 4.352 4.208 1.568 0 2.768-.656 3.504-1.744l-1.424-.832c-.384.56-1.104.992-2.064.992-1.28 0-2.288-.64-2.56-1.888zm-.016-1.408c.24-1.2 1.12-1.968 2.416-1.968 1.04 0 2.048.592 2.288 1.968h-4.704zM789.391 43.8v4.336c-.608-.832-1.552-1.344-2.8-1.344-2.176 0-3.984 1.824-3.984 4.208 0 2.368 1.808 4.208 3.984 4.208 1.248 0 2.192-.512 2.8-1.36V55h1.728V43.8h-1.728zm-2.528 9.76c-1.44 0-2.528-1.072-2.528-2.56s1.088-2.56 2.528-2.56 2.528 1.072 2.528 2.56-1.088 2.56-2.528 2.56zm7.998-5.216V47h-1.728v8h1.728v-4.032c0-1.792 1.328-2.32 2.464-2.24v-1.872c-1.008 0-1.984.4-2.464 1.488zM803.994 47v4.288c0 1.632-.896 2.304-2.032 2.304-1.088 0-1.792-.64-1.792-1.856V47h-1.728v4.912c0 2.08 1.28 3.296 3.072 3.296 1.088 0 1.952-.4 2.48-1.232V55h1.728v-8h-1.728zm10.116 0v1.184c-.608-.864-1.552-1.392-2.784-1.392-2.256 0-4.032 1.84-4.032 4.128 0 2.288 1.776 4.128 4.032 4.128 1.232 0 2.176-.528 2.784-1.392v.976c0 1.392-.896 2.208-2.384 2.208-1.392 0-1.984-.544-2.336-1.232l-1.488.864c.672 1.28 2.032 1.936 3.792 1.936 2.096 0 4.112-1.2 4.112-3.776V47h-1.696zm-2.544 6.432c-1.456 0-2.544-1.072-2.544-2.512s1.088-2.512 2.544-2.512 2.544 1.072 2.544 2.512-1.088 2.512-2.544 2.512zm16.591-9.632v4.336c-.608-.832-1.552-1.344-2.8-1.344-2.176 0-3.984 1.824-3.984 4.208 0 2.368 1.808 4.208 3.984 4.208 1.248 0 2.192-.512 2.8-1.36V55h1.728V43.8h-1.728zm-2.528 9.76c-1.44 0-2.528-1.072-2.528-2.56s1.088-2.56 2.528-2.56 2.528 1.072 2.528 2.56-1.088 2.56-2.528 2.56zm7.63-1.824h6.368c.032-.224.064-.48.064-.72 0-2.304-1.632-4.224-4.016-4.224-2.512 0-4.224 1.84-4.224 4.208 0 2.4 1.712 4.208 4.352 4.208 1.568 0 2.768-.656 3.504-1.744l-1.424-.832c-.384.56-1.104.992-2.064.992-1.28 0-2.288-.64-2.56-1.888zm-.016-1.408c.24-1.2 1.12-1.968 2.416-1.968 1.04 0 2.048.592 2.288 1.968h-4.704zm12.182-1.664V47h-1.984v-2.24l-1.728.512V47h-1.472v1.664h1.472v3.84c0 2.08 1.056 2.816 3.712 2.496v-1.552c-1.312.064-1.984.08-1.984-.944v-3.84h1.984zM853 47v1.136c-.608-.832-1.552-1.344-2.8-1.344-2.176 0-3.984 1.824-3.984 4.208 0 2.368 1.808 4.208 3.984 4.208 1.248 0 2.192-.512 2.8-1.36V55h1.728v-8H853zm-2.528 6.56c-1.44 0-2.528-1.072-2.528-2.56s1.088-2.56 2.528-2.56S853 49.512 853 51s-1.088 2.56-2.528 2.56zm7.134-7.76c.608 0 1.104-.512 1.104-1.104 0-.608-.496-1.104-1.104-1.104-.608 0-1.104.496-1.104 1.104 0 .592.496 1.104 1.104 1.104zm-.864 9.2h1.728v-8h-1.728v8zm3.735 0h1.728V43.32h-1.728V55zm5.366 1.6h1.728c-1.12-2.24-1.76-4.64-1.76-7.2 0-2.56.64-4.96 1.76-7.2h-1.728c-1.12 2.24-1.76 4.64-1.76 7.2 0 2.56.64 4.96 1.76 7.2zm4.608-7.392c0-.576.544-.848 1.168-.848.656 0 1.216.288 1.504.912l1.456-.816c-.56-1.056-1.648-1.664-2.96-1.664-1.632 0-2.928.944-2.928 2.448 0 2.864 4.304 2.064 4.304 3.488 0 .64-.592.896-1.36.896-.88 0-1.52-.432-1.776-1.152l-1.488.864c.512 1.152 1.664 1.872 3.264 1.872 1.728 0 3.12-.864 3.12-2.464 0-2.96-4.304-2.08-4.304-3.536zm6.863 7.392c1.12-2.24 1.76-4.64 1.76-7.2 0-2.56-.64-4.96-1.76-7.2h-1.728c1.12 2.24 1.76 4.64 1.76 7.2 0 2.56-.64 4.96-1.76 7.2h1.728z" fill="#1A1A1A"/>
    <path d="M764 1.5h134v-1H764v1zM905.5 9v57h1V9h-1zM898 73.5H764v1h134v-1zM756.5 66V9h-1v57h1zm7.5 7.5a7.5 7.5 0 01-7.5-7.5h-1a8.5 8.5 0 008.5 8.5v-1zM905.5 66a7.5 7.5 0 01-7.5 7.5v1a8.5 8.5 0 008.5-8.5h-1zM898 1.5a7.5 7.5 0 017.5 7.5h1A8.5 8.5 0 00898 .5v1zm-134-1a8.5 8.5 0 00-8.5 8.5h1a7.5 7.5 0 017.5-7.5v-1z" fill="#366B00"/>
    <rect x=".781" width="93.766" height="93.766" rx="4.5" transform="scale(1.10432 .88345) rotate(-45 929.388 -495.044)" fill="#fff" stroke="#404040"/>
    <path d="M739.554 447.208c2.064 0 3.888-1.056 4.816-2.688l-1.6-.912c-.576 1.104-1.808 1.808-3.216 1.808-2.416 0-4.016-1.712-4.016-4.016 0-2.304 1.6-4.016 4.016-4.016 1.408 0 2.624.704 3.216 1.808l1.6-.928c-.944-1.632-2.768-2.672-4.816-2.672-3.408 0-5.856 2.56-5.856 5.808 0 3.248 2.448 5.808 5.856 5.808zM752.29 439v1.136c-.608-.832-1.552-1.344-2.8-1.344-2.176 0-3.984 1.824-3.984 4.208 0 2.368 1.808 4.208 3.984 4.208 1.248 0 2.192-.512 2.8-1.36V447h1.728v-8h-1.728zm-2.528 6.56c-1.44 0-2.528-1.072-2.528-2.56s1.088-2.56 2.528-2.56 2.528 1.072 2.528 2.56-1.088 2.56-2.528 2.56zm8.181-5.216V439h-1.728v8h1.728v-4.032c0-1.792 1.328-2.32 2.464-2.24v-1.872c-1.008 0-1.984.4-2.464 1.488zm9.885-4.544v4.336c-.608-.832-1.552-1.344-2.8-1.344-2.176 0-3.984 1.824-3.984 4.208 0 2.368 1.808 4.208 3.984 4.208 1.248 0 2.192-.512 2.8-1.36V447h1.728v-11.2h-1.728zm-2.528 9.76c-1.44 0-2.528-1.072-2.528-2.56s1.088-2.56 2.528-2.56 2.528 1.072 2.528 2.56-1.088 2.56-2.528 2.56zm8.086 3.04h1.728c-1.12-2.24-1.76-4.64-1.76-7.2 0-2.56.64-4.96 1.76-7.2h-1.728c-1.12 2.24-1.76 4.64-1.76 7.2 0 2.56.64 4.96 1.76 7.2zm4.791-7.392c0-.576.544-.848 1.168-.848.656 0 1.216.288 1.504.912l1.456-.816c-.56-1.056-1.648-1.664-2.96-1.664-1.632 0-2.928.944-2.928 2.448 0 2.864 4.304 2.064 4.304 3.488 0 .64-.592.896-1.36.896-.88 0-1.52-.432-1.776-1.152l-1.488.864c.512 1.152 1.664 1.872 3.264 1.872 1.728 0 3.12-.864 3.12-2.464 0-2.96-4.304-2.08-4.304-3.536zm7.046 7.392c1.12-2.24 1.76-4.64 1.76-7.2 0-2.56-.64-4.96-1.76-7.2h-1.728c1.12 2.24 1.76 4.64 1.76 7.2 0 2.56-.64 4.96-1.76 7.2h1.728zm-56.556 9.4v1.136c-.608-.832-1.552-1.344-2.8-1.344-2.176 0-3.984 1.824-3.984 4.208 0 2.368 1.808 4.208 3.984 4.208 1.248 0 2.192-.512 2.8-1.36V466h1.728v-8h-1.728zm-2.528 6.56c-1.44 0-2.528-1.072-2.528-2.56s1.088-2.56 2.528-2.56 2.528 1.072 2.528 2.56-1.088 2.56-2.528 2.56zm11.878-6.56l-2.224 6.08-2.24-6.08h-1.888l3.12 8h2l3.12-8h-1.888zm9.189 0v1.136c-.608-.832-1.552-1.344-2.8-1.344-2.176 0-3.984 1.824-3.984 4.208 0 2.368 1.808 4.208 3.984 4.208 1.248 0 2.192-.512 2.8-1.36V466h1.728v-8h-1.728zm-2.528 6.56c-1.44 0-2.528-1.072-2.528-2.56s1.088-2.56 2.528-2.56 2.528 1.072 2.528 2.56-1.088 2.56-2.528 2.56zm7.317-7.76c.608 0 1.104-.512 1.104-1.104 0-.608-.496-1.104-1.104-1.104-.608 0-1.104.496-1.104 1.104 0 .592.496 1.104 1.104 1.104zm-.864 9.2h1.728v-8h-1.728v8zm3.918 0h1.728v-11.68h-1.728V466zm10.254-8v1.136c-.608-.832-1.552-1.344-2.8-1.344-2.176 0-3.984 1.824-3.984 4.208 0 2.368 1.808 4.208 3.984 4.208 1.248 0 2.192-.512 2.8-1.36V466h1.728v-8h-1.728zm-2.528 6.56c-1.44 0-2.528-1.072-2.528-2.56s1.088-2.56 2.528-2.56 2.528 1.072 2.528 2.56-1.088 2.56-2.528 2.56zm10.981-6.768c-1.248 0-2.192.512-2.8 1.344V454.8h-1.728V466h1.728v-1.152c.608.848 1.552 1.36 2.8 1.36 2.176 0 3.984-1.84 3.984-4.208 0-2.384-1.808-4.208-3.984-4.208zm-.272 6.768c-1.44 0-2.528-1.072-2.528-2.56s1.088-2.56 2.528-2.56 2.528 1.072 2.528 2.56-1.088 2.56-2.528 2.56zm6.006 1.44h1.728v-11.68h-1.728V466zm5.277-3.264h6.368c.032-.224.064-.48.064-.72 0-2.304-1.632-4.224-4.016-4.224-2.512 0-4.224 1.84-4.224 4.208 0 2.4 1.712 4.208 4.352 4.208 1.568 0 2.768-.656 3.504-1.744l-1.424-.832c-.384.56-1.104.992-2.064.992-1.28 0-2.288-.64-2.56-1.888zm-.016-1.408c.24-1.2 1.12-1.968 2.416-1.968 1.04 0 2.048.592 2.288 1.968h-4.704zm9.391 1.152h1.84c0-1.728 2.816-2.384 2.816-4.816 0-2.016-1.728-3.072-3.504-3.072-1.632 0-3.104.8-3.712 2.368l1.584.896c.32-.944 1.072-1.472 2.08-1.472 1.024 0 1.712.464 1.712 1.392 0 1.744-2.816 2.352-2.816 4.704zm.928 3.712c.656 0 1.2-.544 1.2-1.2 0-.672-.544-1.2-1.2-1.2-.672 0-1.2.528-1.2 1.2 0 .656.528 1.2 1.2 1.2z" fill="#404040"/>
    <rect x=".781" width="93.766" height="93.766" rx="4.5" transform="scale(1.10432 .88345) rotate(-45 657.274 161.898)" fill="#fff" stroke="#404040"/>
    <path d="M134.62 435.8v7.6l-5.28-7.6h-1.44V447h1.84v-7.6l5.28 7.6h1.44v-11.2h-1.84zm10.484 3.2v1.136c-.608-.832-1.552-1.344-2.8-1.344-2.176 0-3.984 1.824-3.984 4.208 0 2.368 1.808 4.208 3.984 4.208 1.248 0 2.192-.512 2.8-1.36V447h1.728v-8h-1.728zm-2.528 6.56c-1.44 0-2.528-1.072-2.528-2.56s1.088-2.56 2.528-2.56 2.528 1.072 2.528 2.56-1.088 2.56-2.528 2.56zm10.918-4.896V439h-1.984v-2.24l-1.728.512V439h-1.472v1.664h1.472v3.84c0 2.08 1.056 2.816 3.712 2.496v-1.552c-1.312.064-1.984.08-1.984-.944v-3.84h1.984zm2.614-2.864c.608 0 1.104-.512 1.104-1.104 0-.608-.496-1.104-1.104-1.104-.608 0-1.104.496-1.104 1.104 0 .592.496 1.104 1.104 1.104zm-.864 9.2h1.728v-8h-1.728v8zm7.694.208c2.352 0 4.224-1.84 4.224-4.208 0-2.384-1.872-4.208-4.224-4.208-2.336 0-4.224 1.824-4.224 4.208 0 2.368 1.888 4.208 4.224 4.208zm0-1.68c-1.408 0-2.496-1.072-2.496-2.528s1.088-2.528 2.496-2.528 2.496 1.072 2.496 2.528-1.088 2.528-2.496 2.528zm10.178-6.736c-1.088 0-1.952.4-2.48 1.232V439h-1.728v8h1.728v-4.288c0-1.632.896-2.304 2.032-2.304 1.088 0 1.792.64 1.792 1.856V447h1.728v-4.912c0-2.08-1.28-3.296-3.072-3.296zm11.452.208v1.136c-.608-.832-1.552-1.344-2.8-1.344-2.176 0-3.984 1.824-3.984 4.208 0 2.368 1.808 4.208 3.984 4.208 1.248 0 2.192-.512 2.8-1.36V447h1.728v-8h-1.728zm-2.528 6.56c-1.44 0-2.528-1.072-2.528-2.56s1.088-2.56 2.528-2.56 2.528 1.072 2.528 2.56-1.088 2.56-2.528 2.56zm6.453 1.44h1.728v-11.68h-1.728V447zm-67.282 19.208c1.568 0 2.928-.816 3.6-2.08l-1.488-.848c-.384.736-1.168 1.232-2.128 1.232-1.408 0-2.48-1.072-2.48-2.512s1.072-2.512 2.48-2.512c.96 0 1.744.48 2.096 1.232l1.488-.864c-.64-1.248-2-2.064-3.568-2.064-2.416 0-4.224 1.824-4.224 4.208 0 2.368 1.808 4.208 4.224 4.208zm6.267-3.472h6.368c.032-.224.064-.48.064-.72 0-2.304-1.632-4.224-4.016-4.224-2.512 0-4.224 1.84-4.224 4.208 0 2.4 1.712 4.208 4.352 4.208 1.568 0 2.768-.656 3.504-1.744l-1.424-.832c-.384.56-1.104.992-2.064.992-1.28 0-2.288-.64-2.56-1.888zm-.016-1.408c.24-1.2 1.12-1.968 2.416-1.968 1.04 0 2.048.592 2.288 1.968h-4.704zm9.88-1.984V458h-1.728v8h1.728v-4.032c0-1.792 1.328-2.32 2.464-2.24v-1.872c-1.008 0-1.984.4-2.464 1.488zm8.591.32V458h-1.984v-2.24l-1.728.512V458h-1.472v1.664h1.472v3.84c0 2.08 1.056 2.816 3.712 2.496v-1.552c-1.312.064-1.984.08-1.984-.944v-3.84h1.984zm2.615-2.864c.608 0 1.104-.512 1.104-1.104 0-.608-.496-1.104-1.104-1.104-.608 0-1.104.496-1.104 1.104 0 .592.496 1.104 1.104 1.104zm-.864 9.2h1.728v-8h-1.728v8zm10.606-8h-4.384v-.16c0-1.232.672-1.584 1.888-1.584.56 0 1.136.032 1.776.128V454.8a7.878 7.878 0 00-1.776-.208c-2.4 0-3.616 1.088-3.616 3.248v.16h-1.216v1.664h1.216V466h1.728v-6.336h2.656V466h1.728v-8zm5.959 8.208c1.568 0 2.928-.816 3.6-2.08l-1.488-.848c-.384.736-1.168 1.232-2.128 1.232-1.408 0-2.48-1.072-2.48-2.512s1.072-2.512 2.48-2.512c.96 0 1.744.48 2.096 1.232l1.488-.864c-.64-1.248-2-2.064-3.568-2.064-2.416 0-4.224 1.824-4.224 4.208 0 2.368 1.808 4.208 4.224 4.208zM175.492 458v1.136c-.608-.832-1.552-1.344-2.8-1.344-2.176 0-3.984 1.824-3.984 4.208 0 2.368 1.808 4.208 3.984 4.208 1.248 0 2.192-.512 2.8-1.36V466h1.728v-8h-1.728zm-2.528 6.56c-1.44 0-2.528-1.072-2.528-2.56s1.088-2.56 2.528-2.56 2.528 1.072 2.528 2.56-1.088 2.56-2.528 2.56zm10.917-4.896V458h-1.984v-2.24l-1.728.512V458h-1.472v1.664h1.472v3.84c0 2.08 1.056 2.816 3.712 2.496v-1.552c-1.312.064-1.984.08-1.984-.944v-3.84h1.984zm2.783 3.072h6.368c.032-.224.064-.48.064-.72 0-2.304-1.632-4.224-4.016-4.224-2.512 0-4.224 1.84-4.224 4.208 0 2.4 1.712 4.208 4.352 4.208 1.568 0 2.768-.656 3.504-1.744l-1.424-.832c-.384.56-1.104.992-2.064.992-1.28 0-2.288-.64-2.56-1.888zm-.016-1.408c.24-1.2 1.12-1.968 2.416-1.968 1.04 0 2.048.592 2.288 1.968h-4.704zm9.391 1.152h1.84c0-1.728 2.816-2.384 2.816-4.816 0-2.016-1.728-3.072-3.504-3.072-1.632 0-3.104.8-3.712 2.368l1.584.896c.32-.944 1.072-1.472 2.08-1.472 1.024 0 1.712.464 1.712 1.392 0 1.744-2.816 2.352-2.816 4.704zm.928 3.712c.656 0 1.2-.544 1.2-1.2 0-.672-.544-1.2-1.2-1.2-.672 0-1.2.528-1.2 1.2 0 .656.528 1.2 1.2 1.2z" fill="#404040"/>
    <path d="M75.716 24.336c3.096 0 5.808-1.56 7.224-3.96l-2.856-1.656c-.793 1.464-2.449 2.376-4.368 2.376-3.288 0-5.448-2.28-5.448-5.496 0-3.24 2.16-5.52 5.448-5.52 1.92 0 3.552.912 4.368 2.4l2.855-1.656c-1.44-2.4-4.151-3.96-7.223-3.96-5.088 0-8.736 3.816-8.736 8.736 0 4.896 3.647 8.736 8.736 8.736zM94.02 12v1.416c-.864-1.08-2.16-1.752-3.912-1.752-3.192 0-5.832 2.76-5.832 6.336 0 3.576 2.64 6.336 5.832 6.336 1.752 0 3.048-.672 3.912-1.752V24h3.096V12H94.02zm-3.336 9.384c-1.896 0-3.312-1.368-3.312-3.384s1.416-3.384 3.312-3.384c1.92 0 3.336 1.368 3.336 3.384s-1.416 3.384-3.336 3.384zm12.002-5.976c0-.648.624-.984 1.392-.984.888 0 1.56.456 1.92 1.224l2.64-1.44c-.936-1.656-2.616-2.544-4.56-2.544-2.472 0-4.56 1.368-4.56 3.816 0 4.224 6.192 3.264 6.192 5.016 0 .696-.672 1.032-1.656 1.032-1.2 0-2.016-.576-2.352-1.56l-2.688 1.512c.864 1.848 2.64 2.856 5.04 2.856 2.568 0 4.824-1.248 4.824-3.84 0-4.416-6.192-3.312-6.192-5.088zm10.635 3.864h9.048c.072-.408.12-.816.12-1.272 0-3.528-2.52-6.336-6.072-6.336-3.768 0-6.336 2.76-6.336 6.336 0 3.576 2.544 6.336 6.576 6.336 2.304 0 4.104-.936 5.232-2.568l-2.496-1.44c-.528.696-1.488 1.2-2.688 1.2-1.632 0-2.952-.672-3.384-2.256zm-.048-2.4c.36-1.536 1.488-2.424 3.144-2.424 1.296 0 2.592.696 2.976 2.424h-6.12zM137.694 12l-2.04 7.392L133.47 12h-2.928l-2.184 7.368-2.04-7.368h-3.288l3.816 12h2.952l2.208-7.272L134.214 24h2.952l3.816-12h-3.288zm10.2 12.336c3.528 0 6.36-2.76 6.36-6.336 0-3.576-2.832-6.336-6.36-6.336-3.528 0-6.336 2.76-6.336 6.336 0 3.576 2.808 6.336 6.336 6.336zm0-3.024c-1.824 0-3.24-1.368-3.24-3.312 0-1.944 1.416-3.312 3.24-3.312 1.848 0 3.264 1.368 3.264 3.312 0 1.944-1.416 3.312-3.264 3.312zm11.634-7.248V12h-3.096v12h3.096v-5.736c0-2.52 2.04-3.24 3.648-3.048V11.76c-1.512 0-3.024.672-3.648 2.304zM176.05 24l-4.968-6.072L175.906 12h-3.696l-4.128 5.28V7.2h-3.096V24h3.096v-5.448L172.45 24h3.6zm3.295-4.728h9.048c.072-.408.12-.816.12-1.272 0-3.528-2.52-6.336-6.072-6.336-3.768 0-6.337 2.76-6.337 6.336 0 3.576 2.545 6.336 6.577 6.336 2.304 0 4.104-.936 5.232-2.568l-2.496-1.44c-.528.696-1.488 1.2-2.688 1.2-1.632 0-2.952-.672-3.384-2.256zm-.048-2.4c.36-1.536 1.488-2.424 3.144-2.424 1.296 0 2.592.696 2.976 2.424h-6.12zm14.473-2.808V12h-3.096v12h3.096v-5.736c0-2.52 2.04-3.24 3.648-3.048V11.76c-1.512 0-3.024.672-3.648 2.304z" fill="#366B00"/>
    <path d="M75.129 242.2h-6.264V259h3.312v-5.52h2.952c3.24 0 5.736-2.496 5.736-5.64 0-3.144-2.496-5.64-5.736-5.64zm0 8.184h-2.952v-5.088h2.952c1.416 0 2.448 1.08 2.448 2.544 0 1.44-1.032 2.544-2.448 2.544zM91.2 247v1.416c-.864-1.08-2.16-1.752-3.912-1.752-3.192 0-5.832 2.76-5.832 6.336 0 3.576 2.64 6.336 5.832 6.336 1.752 0 3.048-.672 3.912-1.752V259h3.096v-12H91.2zm-3.336 9.384c-1.896 0-3.312-1.368-3.312-3.384s1.416-3.384 3.312-3.384c1.92 0 3.336 1.368 3.336 3.384s-1.416 3.384-3.336 3.384zm16.104-6.408V247h-2.712v-3.36l-3.097.936V247h-2.088v2.976h2.088v4.992c0 3.24 1.465 4.512 5.809 4.032v-2.808c-1.776.096-2.712.072-2.712-1.224v-4.992h2.712zm3.718-4.416c1.056 0 1.92-.864 1.92-1.896s-.864-1.92-1.92-1.92c-1.032 0-1.896.888-1.896 1.92s.864 1.896 1.896 1.896zM106.15 259h3.096v-12h-3.096v12zm8.546-4.728h9.048c.072-.408.12-.816.12-1.272 0-3.528-2.52-6.336-6.072-6.336-3.768 0-6.336 2.76-6.336 6.336 0 3.576 2.544 6.336 6.576 6.336 2.304 0 4.104-.936 5.232-2.568l-2.496-1.44c-.528.696-1.488 1.2-2.688 1.2-1.632 0-2.952-.672-3.384-2.256zm-.048-2.4c.36-1.536 1.488-2.424 3.144-2.424 1.296 0 2.592.696 2.976 2.424h-6.12zm18.049-5.208c-1.608 0-2.856.6-3.576 1.68V247h-3.096v12h3.096v-6.48c0-2.088 1.128-2.976 2.64-2.976 1.392 0 2.376.84 2.376 2.472V259h3.096v-7.368c0-3.192-1.992-4.968-4.536-4.968zm14.044 3.312V247h-2.712v-3.36l-3.096.936V247h-2.088v2.976h2.088v4.992c0 3.24 1.464 4.512 5.808 4.032v-2.808c-1.776.096-2.712.072-2.712-1.224v-4.992h2.712z" fill="#800040"/>
    <path d="M284.931 433.8h-2.096l-2.72 4.96-2.736-4.96h-2.096l3.904 6.752V445h1.84v-4.448l3.904-6.752zm.859 7.936h6.368c.032-.224.064-.48.064-.72 0-2.304-1.632-4.224-4.016-4.224-2.512 0-4.224 1.84-4.224 4.208 0 2.4 1.712 4.208 4.352 4.208 1.568 0 2.768-.656 3.504-1.744l-1.424-.832c-.384.56-1.104.992-2.064.992-1.28 0-2.288-.64-2.56-1.888zm-.016-1.408c.24-1.2 1.12-1.968 2.416-1.968 1.04 0 2.048.592 2.288 1.968h-4.704zm9.208-1.12c0-.576.544-.848 1.168-.848.656 0 1.216.288 1.504.912l1.456-.816c-.56-1.056-1.648-1.664-2.96-1.664-1.632 0-2.928.944-2.928 2.448 0 2.864 4.304 2.064 4.304 3.488 0 .64-.592.896-1.36.896-.88 0-1.52-.432-1.776-1.152l-1.488.864c.512 1.152 1.664 1.872 3.264 1.872 1.728 0 3.12-.864 3.12-2.464 0-2.96-4.304-2.08-4.304-3.536zM240.16 544.8v7.6l-5.28-7.6h-1.44V556h1.84v-7.6l5.28 7.6H242v-11.2h-1.84zm7.741 11.408c2.352 0 4.224-1.84 4.224-4.208 0-2.384-1.872-4.208-4.224-4.208-2.336 0-4.224 1.824-4.224 4.208 0 2.368 1.888 4.208 4.224 4.208zm0-1.68c-1.408 0-2.496-1.072-2.496-2.528s1.088-2.528 2.496-2.528 2.496 1.072 2.496 2.528-1.088 2.528-2.496 2.528zM660.16 548.8v7.6l-5.28-7.6h-1.44V560h1.84v-7.6l5.28 7.6H662v-11.2h-1.84zm7.741 11.408c2.352 0 4.224-1.84 4.224-4.208 0-2.384-1.872-4.208-4.224-4.208-2.336 0-4.224 1.824-4.224 4.208 0 2.368 1.888 4.208 4.224 4.208zm0-1.68c-1.408 0-2.496-1.072-2.496-2.528s1.088-2.528 2.496-2.528 2.496 1.072 2.496 2.528-1.088 2.528-2.496 2.528zM885.931 433.8h-2.096l-2.72 4.96-2.736-4.96h-2.096l3.904 6.752V445h1.84v-4.448l3.904-6.752zm.859 7.936h6.368c.032-.224.064-.48.064-.72 0-2.304-1.632-4.224-4.016-4.224-2.512 0-4.224 1.84-4.224 4.208 0 2.4 1.712 4.208 4.352 4.208 1.568 0 2.768-.656 3.504-1.744l-1.424-.832c-.384.56-1.104.992-2.064.992-1.28 0-2.288-.64-2.56-1.888zm-.016-1.408c.24-1.2 1.12-1.968 2.416-1.968 1.04 0 2.048.592 2.288 1.968h-4.704zm9.208-1.12c0-.576.544-.848 1.168-.848.656 0 1.216.288 1.504.912l1.456-.816c-.56-1.056-1.648-1.664-2.96-1.664-1.632 0-2.928.944-2.928 2.448 0 2.864 4.304 2.064 4.304 3.488 0 .64-.592.896-1.36.896-.88 0-1.52-.432-1.776-1.152l-1.488.864c.512 1.152 1.664 1.872 3.264 1.872 1.728 0 3.12-.864 3.12-2.464 0-2.96-4.304-2.08-4.304-3.536zM293 95.5l-5-2.887v5.774l5-2.887zm-50 .5h45.5v-1H243v1zm293-.5l-5-2.887v5.774l5-2.887zm-50 .5h45.5v-1H486v1zm345 17l2.887-5h-5.774l2.887 5zm-.5-39v34.5h1V74h-1zM756 37.5l-5-2.887v5.774l5-2.887zM708 96h16v-1h-16v1zm24.5-8.5v-42h-1v42h1zM740 38h11.5v-1H740v1zm-7.5 7.5A7.5 7.5 0 01740 38v-1a8.5 8.5 0 00-8.5 8.5h1zM724 96a8.5 8.5 0 008.5-8.5h-1A7.5 7.5 0 01724 95v1z" fill="#404040"/>
    <path d="M756 149.5l-5-2.887v5.774l5-2.887zM708 96h16v-1h-16v1zm23.5 7.5v38h1v-38h-1zM740 150h11.5v-1H740v1zm-8.5-8.5a8.5 8.5 0 008.5 8.5v-1a7.5 7.5 0 01-7.5-7.5h-1zM724 96a7.5 7.5 0 017.5 7.5h1A8.5 8.5 0 00724 95v1zm-18 174.5l5 2.887v-5.774l-5 2.887zm369-84.5v76.5h1V186h-1zm-7.5 84h-357v1h357v-1zm7.5-7.5c0 4.142-3.36 7.5-7.5 7.5v1c4.69 0 8.5-3.806 8.5-8.5h-1zm-857 66l5 2.887v-5.774l-5 2.887zM497 270H365.5v1H497v-1zm-140 8.5v42h1v-42h-1zm-7.5 49.5h-127v1h127v-1zm7.5-7.5a7.5 7.5 0 01-7.5 7.5v1a8.5 8.5 0 008.5-8.5h-1zm8.5-50.5a8.5 8.5 0 00-8.5 8.5h1a7.5 7.5 0 017.5-7.5v-1zM160 394l2.887-5h-5.774l2.887 5zm-.5-29v24.5h1V365h-1zM497 451.5l-5-2.887v5.774l5-2.887zm-53 .5h48.5v-1H444v1zm-103.999 0l-5-2.887v5.774l5-2.887zM232 452.5h103.501v-1H232v1zM340.001 563l-5-2.887v5.774l5-2.887zM159.5 510v45h1v-45h-1zm8.5 53.5h167.501v-1H168v1zm-8.5-8.5a8.5 8.5 0 008.5 8.5v-1a7.5 7.5 0 01-7.5-7.5h-1zm529.502-103.5l-5-2.887v5.774l5-2.887zm-56.003.5h51.503v-1h-51.503v1zm308.004 0l-5-2.887v5.774l5-2.887zM833 452.5h103.503v-1H833v1zM392 488l-2.887 5h5.774L392 488zm.5 38v-33.5h-1V526h1zm696.5-74.5l-5-2.887v5.774l5-2.887zm-50 .5h45.5v-1H1039v1zm-474 36l2.887 5h-5.774l2.887-5zm196.5 22v23h-1v-23h1zm-8.5 31.5H573v-1h180v1zM564.5 533v-40.5h1V533h-1zm8.5 8.5a8.5 8.5 0 01-8.5-8.5h1a7.5 7.5 0 007.5 7.5v1zm188.5-8.5a8.5 8.5 0 01-8.5 8.5v-1a7.5 7.5 0 007.5-7.5h1zm249-383.5l-5-2.887v5.774l5-2.887zm-54.5.5h50v-1h-50v1z" fill="#404040"/>
  </g>
  <defs>
    <clipPath id="soulfx-end-to-end__clip0">
      <path fill="#fff" d="M0 0h1310v600H0z"/>
    </clipPath>
  </defs>
</svg>
