<svg width="512" height="512" viewBox="0 0 512 512" fill="none" xmlns="http://www.w3.org/2000/svg">
<circle cx="256" cy="256" r="255" fill="white"/>
<path d="M206.041 202.857C206.041 178.705 189.61 178.705 189.61 178.705H180.91H122.01V230.528H185.42C196.378 230.523 206.041 227.019 206.041 202.857Z" fill="#004080"/>
<path d="M189.615 266.324H122.01V328.392H186.494C196.194 328.115 214.097 325.077 214.097 298.222C214.097 265.999 189.615 266.324 189.615 266.324Z" fill="#004080"/>
<path d="M362.685 230.523C326.81 230.523 321.808 266.324 321.808 266.324H398.098C398.103 266.324 398.559 230.523 362.685 230.523Z" fill="#004080"/>
<path d="M256 0C114.615 0 0 114.62 0 256C0 397.38 114.615 512 256 512C397.385 512 512 397.38 512 256C512 114.62 397.385 0 256 0ZM311.815 151.102H407.636V179.7H311.815V151.102ZM263.385 301.103C263.385 371.987 189.615 369.656 189.615 369.656H122.011H120.025H68.7625V137.42H120.025H122.011H189.61C226.338 137.42 255.33 157.696 255.33 199.253C255.33 240.815 219.89 243.45 219.89 243.45C266.607 243.45 263.385 301.103 263.385 301.103ZM363.14 337.731C401.743 337.731 400.376 312.747 400.376 312.747H441.247C441.247 379.053 361.778 374.512 361.778 374.512C266.413 374.512 272.546 285.73 272.546 285.73C272.546 285.73 272.473 196.508 361.768 196.508C455.772 196.508 442.609 297.311 442.609 297.311H322.269C322.269 340.466 363.14 337.731 363.14 337.731Z" fill="#004080"/>
</svg>
