<svg width="1440" height="1920" viewBox="0 0 1440 1920" fill="none" xmlns="http://www.w3.org/2000/svg">
<rect width="1440" height="1920" fill="#424242"/>
<path d="M654.33 793.5H667.28V916H654.33V793.5ZM751.413 823.25C762.963 823.25 772.121 826.633 778.888 833.4C785.771 840.05 789.213 849.792 789.213 862.625V916H776.788V863.85C776.788 854.283 774.396 846.992 769.613 841.975C764.829 836.958 758.004 834.45 749.138 834.45C739.221 834.45 731.346 837.425 725.513 843.375C719.796 849.208 716.938 857.317 716.938 867.7V916H704.513V823.95H716.413V840.925C719.796 835.325 724.463 831.008 730.413 827.975C736.479 824.825 743.479 823.25 751.413 823.25ZM403.757 1006.5C419.39 1006.5 431.64 1010.23 440.507 1017.7C449.373 1025.17 453.807 1035.43 453.807 1048.5C453.807 1061.57 449.373 1071.83 440.507 1079.3C431.64 1086.65 419.39 1090.32 403.757 1090.32H370.857V1129H357.907V1006.5H403.757ZM403.407 1078.95C415.54 1078.95 424.815 1076.32 431.232 1071.07C437.648 1065.71 440.857 1058.18 440.857 1048.5C440.857 1038.58 437.648 1031 431.232 1025.75C424.815 1020.38 415.54 1017.7 403.407 1017.7H370.857V1078.95H403.407ZM488.69 1054.97C491.607 1048.79 495.924 1044.12 501.64 1040.97C507.474 1037.82 514.649 1036.25 523.165 1036.25V1048.32L520.19 1048.15C510.507 1048.15 502.924 1051.12 497.44 1057.07C491.957 1063.02 489.215 1071.37 489.215 1082.1V1129H476.79V1036.95H488.69V1054.97ZM582.433 1129.88C573.566 1129.88 565.575 1127.89 558.458 1123.92C551.341 1119.84 545.741 1114.24 541.658 1107.12C537.575 1100.01 535.533 1091.96 535.533 1082.97C535.533 1073.99 537.575 1065.94 541.658 1058.82C545.741 1051.71 551.341 1046.17 558.458 1042.2C565.575 1038.23 573.566 1036.25 582.433 1036.25C591.3 1036.25 599.291 1038.23 606.408 1042.2C613.525 1046.17 619.066 1051.71 623.033 1058.82C627.116 1065.94 629.158 1073.99 629.158 1082.97C629.158 1091.96 627.116 1100.01 623.033 1107.12C619.066 1114.24 613.525 1119.84 606.408 1123.92C599.291 1127.89 591.3 1129.88 582.433 1129.88ZM582.433 1118.85C588.966 1118.85 594.8 1117.39 599.933 1114.47C605.183 1111.44 609.266 1107.18 612.183 1101.7C615.1 1096.22 616.558 1089.97 616.558 1082.97C616.558 1075.97 615.1 1069.73 612.183 1064.25C609.266 1058.77 605.183 1054.57 599.933 1051.65C594.8 1048.62 588.966 1047.1 582.433 1047.1C575.9 1047.1 570.008 1048.62 564.758 1051.65C559.625 1054.57 555.541 1058.77 552.508 1064.25C549.591 1069.73 548.133 1075.97 548.133 1082.97C548.133 1089.97 549.591 1096.22 552.508 1101.7C555.541 1107.18 559.625 1111.44 564.758 1114.47C570.008 1117.39 575.9 1118.85 582.433 1118.85ZM739.75 1036.95V1117.8C739.75 1133.43 735.9 1144.98 728.2 1152.45C720.616 1160.03 709.125 1163.83 693.725 1163.83C685.208 1163.83 677.1 1162.54 669.4 1159.98C661.816 1157.53 655.633 1154.08 650.85 1149.65L657.15 1140.2C661.583 1144.17 666.95 1147.26 673.25 1149.48C679.666 1151.69 686.375 1152.8 693.375 1152.8C705.041 1152.8 713.616 1150.06 719.1 1144.58C724.583 1139.21 727.325 1130.81 727.325 1119.37V1107.65C723.475 1113.48 718.4 1117.92 712.1 1120.95C705.916 1123.98 699.033 1125.5 691.45 1125.5C682.816 1125.5 674.941 1123.63 667.825 1119.9C660.825 1116.05 655.283 1110.74 651.2 1103.97C647.233 1097.09 645.25 1089.33 645.25 1080.7C645.25 1072.07 647.233 1064.37 651.2 1057.6C655.283 1050.83 660.825 1045.58 667.825 1041.85C674.825 1038.12 682.7 1036.25 691.45 1036.25C699.266 1036.25 706.325 1037.82 712.625 1040.97C718.925 1044.12 724 1048.67 727.85 1054.62V1036.95H739.75ZM692.675 1114.47C699.325 1114.47 705.333 1113.07 710.7 1110.27C716.066 1107.36 720.208 1103.33 723.125 1098.2C726.158 1093.07 727.675 1087.23 727.675 1080.7C727.675 1074.17 726.158 1068.39 723.125 1063.37C720.208 1058.24 716.066 1054.27 710.7 1051.47C705.45 1048.56 699.441 1047.1 692.675 1047.1C686.025 1047.1 680.016 1048.5 674.65 1051.3C669.4 1054.1 665.258 1058.07 662.225 1063.2C659.308 1068.33 657.85 1074.17 657.85 1080.7C657.85 1087.23 659.308 1093.07 662.225 1098.2C665.258 1103.33 669.4 1107.36 674.65 1110.27C680.016 1113.07 686.025 1114.47 692.675 1114.47ZM786.395 1054.97C789.312 1048.79 793.629 1044.12 799.345 1040.97C805.179 1037.82 812.354 1036.25 820.87 1036.25V1048.32L817.895 1048.15C808.212 1048.15 800.629 1051.12 795.145 1057.07C789.662 1063.02 786.92 1071.37 786.92 1082.1V1129H774.495V1036.95H786.395V1054.97ZM922.663 1086.82H845.663C846.363 1096.39 850.038 1104.15 856.688 1110.1C863.338 1115.93 871.738 1118.85 881.888 1118.85C887.605 1118.85 892.855 1117.86 897.638 1115.87C902.421 1113.77 906.563 1110.74 910.063 1106.77L917.063 1114.82C912.98 1119.72 907.846 1123.46 901.663 1126.02C895.596 1128.59 888.888 1129.88 881.538 1129.88C872.088 1129.88 863.688 1127.89 856.338 1123.92C849.105 1119.84 843.446 1114.24 839.363 1107.12C835.28 1100.01 833.238 1091.96 833.238 1082.97C833.238 1073.99 835.163 1065.94 839.013 1058.82C842.98 1051.71 848.346 1046.17 855.113 1042.2C861.996 1038.23 869.696 1036.25 878.213 1036.25C886.73 1036.25 894.371 1038.23 901.138 1042.2C907.905 1046.17 913.213 1051.71 917.063 1058.82C920.913 1065.82 922.838 1073.87 922.838 1082.97L922.663 1086.82ZM878.213 1046.92C869.346 1046.92 861.88 1049.78 855.813 1055.5C849.863 1061.1 846.48 1068.45 845.663 1077.55H910.938C910.121 1068.45 906.68 1061.1 900.613 1055.5C894.663 1049.78 887.196 1046.92 878.213 1046.92ZM972.803 1129.88C965.337 1129.88 958.162 1128.83 951.278 1126.72C944.512 1124.51 939.203 1121.77 935.353 1118.5L940.953 1108.7C944.803 1111.73 949.645 1114.24 955.478 1116.22C961.312 1118.09 967.378 1119.02 973.678 1119.02C982.078 1119.02 988.262 1117.74 992.228 1115.17C996.312 1112.49 998.353 1108.76 998.353 1103.97C998.353 1100.59 997.245 1097.97 995.028 1096.1C992.812 1094.12 990.012 1092.66 986.628 1091.72C983.245 1090.67 978.753 1089.68 973.153 1088.75C965.687 1087.35 959.678 1085.95 955.128 1084.55C950.578 1083.03 946.67 1080.52 943.403 1077.02C940.253 1073.52 938.678 1068.68 938.678 1062.5C938.678 1054.8 941.887 1048.5 948.303 1043.6C954.72 1038.7 963.645 1036.25 975.078 1036.25C981.028 1036.25 986.978 1037.07 992.928 1038.7C998.878 1040.22 1003.78 1042.26 1007.63 1044.82L1002.2 1054.8C994.62 1049.55 985.578 1046.92 975.078 1046.92C967.145 1046.92 961.137 1048.32 957.053 1051.12C953.087 1053.92 951.103 1057.6 951.103 1062.15C951.103 1065.65 952.212 1068.45 954.428 1070.55C956.762 1072.65 959.62 1074.22 963.003 1075.27C966.387 1076.21 971.053 1077.2 977.003 1078.25C984.353 1079.65 990.245 1081.05 994.678 1082.45C999.112 1083.85 1002.9 1086.24 1006.05 1089.62C1009.2 1093.01 1010.78 1097.67 1010.78 1103.62C1010.78 1111.67 1007.39 1118.09 1000.63 1122.87C993.978 1127.54 984.703 1129.88 972.803 1129.88ZM1058.42 1129.88C1050.96 1129.88 1043.78 1128.83 1036.9 1126.72C1030.13 1124.51 1024.82 1121.77 1020.97 1118.5L1026.57 1108.7C1030.42 1111.73 1035.27 1114.24 1041.1 1116.22C1046.93 1118.09 1053 1119.02 1059.3 1119.02C1067.7 1119.02 1073.88 1117.74 1077.85 1115.17C1081.93 1112.49 1083.97 1108.76 1083.97 1103.97C1083.97 1100.59 1082.87 1097.97 1080.65 1096.1C1078.43 1094.12 1075.63 1092.66 1072.25 1091.72C1068.87 1090.67 1064.37 1089.68 1058.77 1088.75C1051.31 1087.35 1045.3 1085.95 1040.75 1084.55C1036.2 1083.03 1032.29 1080.52 1029.02 1077.02C1025.87 1073.52 1024.3 1068.68 1024.3 1062.5C1024.3 1054.8 1027.51 1048.5 1033.92 1043.6C1040.34 1038.7 1049.27 1036.25 1060.7 1036.25C1066.65 1036.25 1072.6 1037.07 1078.55 1038.7C1084.5 1040.22 1089.4 1042.26 1093.25 1044.82L1087.82 1054.8C1080.24 1049.55 1071.2 1046.92 1060.7 1046.92C1052.77 1046.92 1046.76 1048.32 1042.67 1051.12C1038.71 1053.92 1036.72 1057.6 1036.72 1062.15C1036.72 1065.65 1037.83 1068.45 1040.05 1070.55C1042.38 1072.65 1045.24 1074.22 1048.62 1075.27C1052.01 1076.21 1056.67 1077.2 1062.62 1078.25C1069.97 1079.65 1075.87 1081.05 1080.3 1082.45C1084.73 1083.85 1088.52 1086.24 1091.67 1089.62C1094.82 1093.01 1096.4 1097.67 1096.4 1103.62C1096.4 1111.67 1093.02 1118.09 1086.25 1122.87C1079.6 1127.54 1070.32 1129.88 1058.42 1129.88Z" fill="white"/>
</svg>
