<svg width="512" height="512" viewBox="0 0 512 512" fill="none" xmlns="http://www.w3.org/2000/svg">
<circle cx="256" cy="256" r="255" fill="white"/>
<path d="M256 0C114.615 0 0 114.615 0 256C0 397.385 114.615 512 256 512C397.385 512 512 397.385 512 256C512 114.615 397.385 0 256 0ZM160.079 429.326H88.1111V197.771H160.079V429.326ZM124.111 166.118C101.043 166.118 82.3705 147.419 82.3705 124.383C82.3757 101.368 101.043 82.669 124.111 82.669C147.116 82.669 165.815 101.368 165.815 124.383C165.815 147.425 147.11 166.118 124.111 166.118ZM429.624 429.326H357.714V316.717C357.714 289.863 357.216 255.324 320.305 255.324C282.875 255.324 277.119 284.572 277.119 314.774V429.32H205.214V197.771H274.238V229.413H275.207C284.819 211.206 308.284 192.014 343.299 192.014C416.173 192.014 429.624 239.972 429.624 302.318V429.326Z" fill="#004080"/>
</svg>
