<svg width="1583" height="620" viewBox="0 0 1583 620" fill="none" xmlns="http://www.w3.org/2000/svg">
<g clip-path="url(#clip0)">
<rect width="1583" height="620" fill="#F4F4F4"/>
<g opacity="0.12">
<path d="M1169.4 144.497V415.493" stroke="#1A1A1A" stroke-width="64.6666"/>
<path d="M596.635 144.497L858.514 144.497C928.169 144.497 984.636 200.964 984.636 270.619V483.243" stroke="#1A1A1A" stroke-width="64.6666"/>
<path d="M593.554 144.497H1348V432.408C1348 531.915 1267.33 612.582 1167.83 612.582H507.332" stroke="#1A1A1A" stroke-width="64.6666"/>
<path d="M1224.83 9.00002L513.498 9.00002C438.665 9.00002 378 69.6647 378 144.498V144.498C378 219.332 438.665 279.997 513.498 279.997L767.957 279.997C802.591 279.997 830.667 308.073 830.667 342.707V342.707C830.667 416.922 770.504 477.085 696.289 477.085L387.238 477.085" stroke="#004080" stroke-width="64.6666"/>
</g>
<path d="M235.012 269.316L227.734 275.75C225.18 272.188 222.578 270.406 219.93 270.406C218.641 270.406 217.586 270.758 216.766 271.461C215.945 272.141 215.535 272.914 215.535 273.781C215.535 274.648 215.828 275.469 216.414 276.242C217.211 277.273 219.613 279.488 223.621 282.887C227.371 286.027 229.645 288.008 230.441 288.828C232.434 290.844 233.84 292.777 234.66 294.629C235.504 296.457 235.926 298.461 235.926 300.641C235.926 304.883 234.461 308.387 231.531 311.152C228.602 313.918 224.781 315.301 220.07 315.301C216.391 315.301 213.18 314.398 210.438 312.594C207.719 310.789 205.387 307.953 203.441 304.086L211.703 299.094C214.188 303.664 217.047 305.949 220.281 305.949C221.969 305.949 223.387 305.457 224.535 304.473C225.684 303.488 226.258 302.352 226.258 301.062C226.258 299.891 225.824 298.719 224.957 297.547C224.09 296.375 222.18 294.582 219.227 292.168C213.602 287.574 209.969 284.035 208.328 281.551C206.688 279.043 205.867 276.547 205.867 274.062C205.867 270.477 207.227 267.406 209.945 264.852C212.688 262.273 216.062 260.984 220.07 260.984C222.648 260.984 225.098 261.582 227.418 262.777C229.762 263.973 232.293 266.152 235.012 269.316ZM247.578 262.285H275.808V271.918H257.351V281.27H275.808V290.727H257.351V304.332H275.808V314H247.578V262.285ZM282.082 262.285H310.664V271.988H301.242V314H291.257V271.988H282.082V262.285ZM319.539 262.285H329.523V281.797H346.82V262.285H356.769V314H346.82V291.324H329.523V314H319.539V262.285Z" fill="#004080"/>
<path d="M212.898 350.285H222.531L234.484 386.355L246.613 350.285H256.105L264.824 402H255.332L249.777 369.34L238.773 402H230.09L219.227 369.34L213.566 402H203.969L212.898 350.285ZM299.328 348.984C306.64 348.984 312.922 351.633 318.172 356.93C323.445 362.227 326.082 368.684 326.082 376.301C326.082 383.848 323.48 390.234 318.277 395.461C313.098 400.688 306.805 403.301 299.398 403.301C291.64 403.301 285.195 400.617 280.062 395.25C274.93 389.883 272.363 383.508 272.363 376.125C272.363 371.18 273.558 366.633 275.949 362.484C278.34 358.336 281.621 355.055 285.793 352.641C289.988 350.203 294.5 348.984 299.328 348.984ZM299.223 358.617C294.441 358.617 290.422 360.281 287.164 363.609C283.906 366.938 282.277 371.168 282.277 376.301C282.277 382.02 284.328 386.543 288.43 389.871C291.617 392.473 295.273 393.773 299.398 393.773C304.062 393.773 308.035 392.086 311.316 388.711C314.598 385.336 316.238 381.176 316.238 376.23C316.238 371.309 314.586 367.148 311.281 363.75C307.976 360.328 303.957 358.617 299.223 358.617ZM338.191 350.285H348.633C354.351 350.285 358.418 350.801 360.832 351.832C363.269 352.84 365.226 354.527 366.703 356.895C368.179 359.262 368.918 362.062 368.918 365.297C368.918 368.695 368.097 371.543 366.457 373.84C364.84 376.113 362.39 377.836 359.109 379.008L371.343 402H360.586L348.949 380.098H348.035V402H338.191V350.285ZM348.035 370.5H351.129C354.269 370.5 356.425 370.09 357.597 369.27C358.793 368.449 359.39 367.09 359.39 365.191C359.39 364.066 359.097 363.094 358.511 362.273C357.925 361.43 357.14 360.832 356.156 360.48C355.172 360.105 353.367 359.918 350.742 359.918H348.035V370.5ZM381.484 350.285H409.714V359.918H391.257V369.27H409.714V378.727H391.257V392.332H409.714V402H381.484V350.285ZM421.12 350.285H430.542L452.726 384.316V350.285H462.57V402H453.113L430.964 368.074V402H421.12V350.285ZM500.976 348.984C508.288 348.984 514.57 351.633 519.82 356.93C525.093 362.227 527.73 368.684 527.73 376.301C527.73 383.848 525.128 390.234 519.925 395.461C514.745 400.688 508.452 403.301 501.046 403.301C493.288 403.301 486.843 400.617 481.71 395.25C476.577 389.883 474.011 383.508 474.011 376.125C474.011 371.18 475.206 366.633 477.597 362.484C479.987 358.336 483.269 355.055 487.441 352.641C491.636 350.203 496.148 348.984 500.976 348.984ZM500.87 358.617C496.089 358.617 492.07 360.281 488.812 363.609C485.554 366.938 483.925 371.168 483.925 376.301C483.925 382.02 485.976 386.543 490.077 389.871C493.265 392.473 496.921 393.773 501.046 393.773C505.71 393.773 509.683 392.086 512.964 388.711C516.245 385.336 517.886 381.176 517.886 376.23C517.886 371.309 516.234 367.148 512.929 363.75C509.624 360.328 505.605 358.617 500.87 358.617ZM566.276 357.316L558.999 363.75C556.444 360.188 553.843 358.406 551.194 358.406C549.905 358.406 548.851 358.758 548.03 359.461C547.21 360.141 546.8 360.914 546.8 361.781C546.8 362.648 547.093 363.469 547.679 364.242C548.476 365.273 550.878 367.488 554.886 370.887C558.636 374.027 560.909 376.008 561.706 376.828C563.698 378.844 565.105 380.777 565.925 382.629C566.769 384.457 567.19 386.461 567.19 388.641C567.19 392.883 565.726 396.387 562.796 399.152C559.866 401.918 556.046 403.301 551.335 403.301C547.655 403.301 544.444 402.398 541.702 400.594C538.983 398.789 536.651 395.953 534.706 392.086L542.968 387.094C545.452 391.664 548.312 393.949 551.546 393.949C553.233 393.949 554.651 393.457 555.8 392.473C556.948 391.488 557.522 390.352 557.522 389.062C557.522 387.891 557.089 386.719 556.222 385.547C555.355 384.375 553.444 382.582 550.491 380.168C544.866 375.574 541.233 372.035 539.593 369.551C537.952 367.043 537.132 364.547 537.132 362.062C537.132 358.477 538.491 355.406 541.21 352.852C543.952 350.273 547.327 348.984 551.335 348.984C553.913 348.984 556.362 349.582 558.683 350.777C561.026 351.973 563.558 354.152 566.276 357.316Z" fill="#1A1A1A"/>
</g>
<defs>
<clipPath id="clip0">
<rect width="1583" height="620" fill="white"/>
</clipPath>
</defs>
</svg>
