<svg width="1583" height="620" viewBox="0 0 1583 620" fill="none" xmlns="http://www.w3.org/2000/svg">
<g clip-path="url(#clip0)">
<rect width="1583" height="620" fill="#F4F4F4"/>
<g opacity="0.12">
<path d="M1169.4 144.497V415.493" stroke="#1A1A1A" stroke-width="64.6666"/>
<path d="M596.635 144.497L858.514 144.497C928.169 144.497 984.636 200.964 984.636 270.619V483.243" stroke="#1A1A1A" stroke-width="64.6666"/>
<path d="M593.554 144.497H1348V432.408C1348 531.915 1267.33 612.582 1167.83 612.582H507.332" stroke="#1A1A1A" stroke-width="64.6666"/>
<path d="M1224.83 9.00002L513.498 9.00002C438.665 9.00002 378 69.6647 378 144.498V144.498C378 219.332 438.665 279.997 513.498 279.997L767.957 279.997C802.591 279.997 830.667 308.073 830.667 342.707V342.707C830.667 416.922 770.504 477.085 696.289 477.085L387.238 477.085" stroke="#004080" stroke-width="64.6666"/>
</g>
<path d="M230.266 362.094L224.324 368.035C221.91 365.645 219.719 364.449 217.75 364.449C216.672 364.449 215.828 364.684 215.219 365.152C214.609 365.598 214.305 366.16 214.305 366.84C214.305 367.355 214.492 367.836 214.867 368.281C215.266 368.703 216.227 369.289 217.75 370.039L221.266 371.797C224.969 373.625 227.512 375.488 228.895 377.387C230.277 379.285 230.969 381.512 230.969 384.066C230.969 387.465 229.715 390.301 227.207 392.574C224.723 394.848 221.383 395.984 217.188 395.984C211.609 395.984 207.156 393.805 203.828 389.445L209.734 383.012C210.859 384.324 212.172 385.391 213.672 386.211C215.195 387.008 216.543 387.406 217.715 387.406C218.98 387.406 220 387.102 220.773 386.492C221.547 385.883 221.934 385.18 221.934 384.383C221.934 382.906 220.539 381.465 217.75 380.059L214.516 378.441C208.328 375.324 205.234 371.422 205.234 366.734C205.234 363.711 206.395 361.133 208.715 359C211.059 356.844 214.047 355.766 217.68 355.766C220.164 355.766 222.496 356.316 224.676 357.418C226.879 358.496 228.742 360.055 230.266 362.094ZM279.043 378.652H248.211C248.656 381.371 249.84 383.539 251.762 385.156C253.707 386.75 256.18 387.547 259.18 387.547C262.765 387.547 265.847 386.293 268.426 383.785L276.512 387.582C274.496 390.441 272.082 392.562 269.269 393.945C266.457 395.305 263.117 395.984 259.25 395.984C253.25 395.984 248.363 394.098 244.59 390.324C240.816 386.527 238.93 381.781 238.93 376.086C238.93 370.25 240.805 365.41 244.555 361.566C248.328 357.699 253.051 355.766 258.722 355.766C264.746 355.766 269.644 357.699 273.418 361.566C277.191 365.41 279.078 370.496 279.078 376.824L279.043 378.652ZM269.41 371.094C268.777 368.961 267.523 367.227 265.648 365.891C263.797 364.555 261.64 363.887 259.18 363.887C256.508 363.887 254.164 364.637 252.148 366.137C250.883 367.074 249.711 368.727 248.633 371.094H269.41ZM290.168 342.652H299.73V356.75H305.425V365.012H299.73V395H290.168V365.012H285.246V356.75H290.168V342.652ZM312.789 341.984H322.316V360.617C324.191 359 326.078 357.793 327.976 356.996C329.875 356.176 331.796 355.766 333.742 355.766C337.539 355.766 340.738 357.078 343.339 359.703C345.566 361.977 346.679 365.316 346.679 369.723V395H337.222V378.23C337.222 373.801 337.011 370.801 336.589 369.23C336.168 367.66 335.441 366.488 334.41 365.715C333.402 364.941 332.148 364.555 330.648 364.555C328.703 364.555 327.027 365.199 325.621 366.488C324.238 367.777 323.277 369.535 322.738 371.762C322.457 372.91 322.316 375.535 322.316 379.637V395H312.789V341.984ZM354.042 356.75H363.816L373.484 379.32L383.117 356.75H392.855L376.577 395H370.355L354.042 356.75ZM400.605 356.75H410.238V361.145C411.878 359.34 413.695 357.992 415.687 357.102C417.702 356.211 419.894 355.766 422.261 355.766C424.652 355.766 426.808 356.352 428.73 357.523C430.652 358.695 432.198 360.406 433.37 362.656C434.894 360.406 436.757 358.695 438.96 357.523C441.187 356.352 443.613 355.766 446.238 355.766C448.956 355.766 451.347 356.398 453.409 357.664C455.472 358.93 456.948 360.582 457.839 362.621C458.753 364.66 459.21 367.977 459.21 372.57V395H449.542V375.594C449.542 371.258 449.003 368.328 447.925 366.805C446.847 365.258 445.23 364.484 443.073 364.484C441.433 364.484 439.956 364.953 438.644 365.891C437.355 366.828 436.394 368.129 435.761 369.793C435.128 371.434 434.812 374.082 434.812 377.738V395H425.144V376.473C425.144 373.051 424.886 370.578 424.37 369.055C423.878 367.508 423.128 366.359 422.12 365.609C421.113 364.859 419.894 364.484 418.464 364.484C416.87 364.484 415.417 364.965 414.105 365.926C412.816 366.863 411.843 368.188 411.187 369.898C410.554 371.609 410.238 374.305 410.238 377.984V395H400.605V356.75Z" fill="#004080"/>
<path d="M475.784 384.98C477.308 384.98 478.608 385.52 479.687 386.598C480.765 387.652 481.304 388.941 481.304 390.465C481.304 391.988 480.765 393.289 479.687 394.367C478.608 395.445 477.308 395.984 475.784 395.984C474.261 395.984 472.96 395.445 471.882 394.367C470.804 393.289 470.265 391.988 470.265 390.465C470.265 388.941 470.804 387.652 471.882 386.598C472.96 385.52 474.261 384.98 475.784 384.98ZM530.327 364.484L522.347 368.879C520.847 367.309 519.358 366.219 517.882 365.609C516.429 365 514.718 364.695 512.749 364.695C509.163 364.695 506.257 365.773 504.03 367.93C501.827 370.062 500.725 372.805 500.725 376.156C500.725 379.414 501.792 382.074 503.925 384.137C506.057 386.199 508.858 387.23 512.327 387.23C516.616 387.23 519.956 385.766 522.347 382.836L529.905 388.004C525.804 393.324 520.015 395.984 512.538 395.984C505.811 395.984 500.538 393.992 496.718 390.008C492.921 386.023 491.022 381.359 491.022 376.016C491.022 372.312 491.948 368.902 493.8 365.785C495.651 362.668 498.229 360.219 501.534 358.438C504.862 356.656 508.577 355.766 512.679 355.766C516.475 355.766 519.886 356.527 522.909 358.051C525.932 359.551 528.405 361.695 530.327 364.484ZM559.135 355.766C562.745 355.766 566.132 356.668 569.296 358.473C572.483 360.277 574.967 362.727 576.749 365.82C578.53 368.914 579.421 372.254 579.421 375.84C579.421 379.449 578.518 382.824 576.714 385.965C574.932 389.105 572.495 391.566 569.401 393.348C566.307 395.105 562.897 395.984 559.171 395.984C553.686 395.984 548.999 394.039 545.108 390.148C541.241 386.234 539.307 381.488 539.307 375.91C539.307 369.934 541.499 364.953 545.882 360.969C549.725 357.5 554.143 355.766 559.135 355.766ZM559.276 364.801C556.3 364.801 553.815 365.844 551.823 367.93C549.854 369.992 548.87 372.641 548.87 375.875C548.87 379.203 549.842 381.898 551.788 383.961C553.757 386.023 556.241 387.055 559.241 387.055C562.241 387.055 564.737 386.012 566.729 383.926C568.721 381.84 569.717 379.156 569.717 375.875C569.717 372.594 568.733 369.934 566.764 367.895C564.819 365.832 562.323 364.801 559.276 364.801ZM589.385 356.75H599.018V361.145C600.659 359.34 602.475 357.992 604.467 357.102C606.483 356.211 608.674 355.766 611.042 355.766C613.432 355.766 615.588 356.352 617.51 357.523C619.432 358.695 620.979 360.406 622.151 362.656C623.674 360.406 625.538 358.695 627.741 357.523C629.967 356.352 632.393 355.766 635.018 355.766C637.737 355.766 640.128 356.398 642.19 357.664C644.253 358.93 645.729 360.582 646.62 362.621C647.534 364.66 647.991 367.977 647.991 372.57V395H638.323V375.594C638.323 371.258 637.784 368.328 636.706 366.805C635.628 365.258 634.01 364.484 631.854 364.484C630.213 364.484 628.737 364.953 627.424 365.891C626.135 366.828 625.174 368.129 624.542 369.793C623.909 371.434 623.592 374.082 623.592 377.738V395H613.924V376.473C613.924 373.051 613.667 370.578 613.151 369.055C612.659 367.508 611.909 366.359 610.901 365.609C609.893 364.859 608.674 364.484 607.245 364.484C605.651 364.484 604.198 364.965 602.885 365.926C601.596 366.863 600.624 368.188 599.967 369.898C599.335 371.609 599.018 374.305 599.018 377.984V395H589.385V356.75Z" fill="#1A1A1A"/>
</g>
<defs>
<clipPath id="clip0">
<rect width="1583" height="620" fill="white"/>
</clipPath>
</defs>
</svg>
